*
*
G04 PADS VX.2.3 Build Number: 9191294 generated Gerber (RS-274-X) file*
G04 PC Version=2.1*
*
%IN "MODULE_LORA_ZM_V1.0_201"*%
*
%MOIN*%
*
%FSLAX35Y35*%
*
*
*
*
G04 PC Standard Apertures*
*
*
G04 Thermal Relief Aperture macro.*
%AMTER*
1,1,$1,0,0*
1,0,$1-$2,0,0*
21,0,$3,$4,0,0,45*
21,0,$3,$4,0,0,135*
%
*
*
G04 Annular Aperture macro.*
%AMANN*
1,1,$1,0,0*
1,0,$2,0,0*
%
*
*
G04 Odd Aperture macro.*
%AMODD*
1,1,$1,0,0*
1,0,$1-0.005,0,0*
%
*
*
G04 PC Custom Aperture Macros*
*
*
*
*
*
*
G04 PC Aperture Table*
*
%ADD010C,0.001*%
%ADD033C,0.01*%
*
*
*
*
G04 PC Circuitry*
G04 Layer Name MODULE_LORA_ZM_V1.0_201 - circuitry*
%LPD*%
*
*
G04 PC Custom Flashes*
G04 Layer Name MODULE_LORA_ZM_V1.0_201 - flashes*
%LPD*%
*
*
G04 PC Circuitry*
G04 Layer Name MODULE_LORA_ZM_V1.0_201 - circuitry*
%LPD*%
*
G54D10*
G54D33*
G01X307339Y301732D02*
X315339Y309732D01*
X307339D02*
X315339Y301732D01*
X317339D02*
X325339Y309732D01*
X317339D02*
X325339Y301732D01*
X327339D02*
X335339Y309732D01*
X327339D02*
X335339Y301732D01*
X337339D02*
X345339Y309732D01*
X337339D02*
X345339Y301732D01*
X347339D02*
X355339Y309732D01*
X347339D02*
X355339Y301732D01*
X357339D02*
X365339Y309732D01*
X357339D02*
X365339Y301732D01*
X367339D02*
X375339Y309732D01*
X367339D02*
X375339Y301732D01*
X333622Y425921D02*
X337622Y429921D01*
X333622Y433921*
X329622Y429921*
X333622Y425921*
Y429921D02*
Y433921D01*
X313780Y425921D02*
X317780Y429921D01*
X313780Y433921*
X309780Y429921*
X313780Y425921*
Y429921D02*
Y433921D01*
X323780Y425921D02*
X327780Y429921D01*
X323780Y433921*
X319780Y429921*
X323780Y425921*
Y429921D02*
Y433921D01*
X358134Y431799D02*
X362134Y435799D01*
X358134Y439799*
X354134Y435799*
X358134Y431799*
Y435799D02*
Y439799D01*
X336862Y313669D02*
X344862Y321669D01*
X336862D02*
X344862Y313669D01*
X346862D02*
X354862Y321669D01*
X346862D02*
X354862Y313669D01*
X356862D02*
X364862Y321669D01*
X356862D02*
X364862Y313669D01*
X366862D02*
X374862Y321669D01*
X366862D02*
X374862Y313669D01*
X301879Y302200D02*
X309879D01*
X305879Y298200D02*
Y306200D01*
X371879Y302200D02*
X379879D01*
X375879Y298200D02*
Y306200D01*
X301879Y312200D02*
X309879D01*
X305879Y308200D02*
Y316200D01*
X301879Y322200D02*
X309879D01*
X305879Y318200D02*
Y326200D01*
X320407Y312762D02*
X328407D01*
X324407Y308762D02*
Y316762D01*
X351879Y322200D02*
X359879D01*
X355879Y318200D02*
Y326200D01*
X313633Y328132D02*
X321633D01*
X317633Y324132D02*
Y332132D01*
X311879Y332200D02*
X319879D01*
X315879Y328200D02*
Y336200D01*
X322767Y330524D02*
X330767D01*
X326767Y326524D02*
Y334524D01*
X318420Y329869D02*
X326420D01*
X322420Y325869D02*
Y333869D01*
X323131Y323797D02*
X331131D01*
X327131Y319797D02*
Y327797D01*
X316831Y323970D02*
X324831D01*
X320831Y319970D02*
Y327970D01*
X336078Y332522D02*
X344078D01*
X340078Y328522D02*
Y336522D01*
X333494Y322425D02*
X341494D01*
Y330425*
X333494*
Y322425*
X337494Y326425D02*
Y330425D01*
X315618Y341677D02*
X323618D01*
X319618Y337677D02*
Y345677D01*
X320669Y339292D02*
X328669D01*
X324669Y335292D02*
Y343292D01*
X348791Y336748D02*
X356791D01*
X352791Y332748D02*
Y340748D01*
X360448Y335652D02*
X368448D01*
X364448Y331652D02*
Y339652D01*
X322000Y346000D02*
X330000D01*
X326000Y342000D02*
Y350000D01*
X318057Y343841D02*
X326057D01*
X322057Y339841D02*
Y347841D01*
X327474Y351008D02*
X335474D01*
X331474Y347008D02*
Y355008D01*
X336491Y350705D02*
X344491D01*
X340491Y346705D02*
Y354705D01*
X343921Y349978D02*
X351921D01*
X347921Y345978D02*
Y353978D01*
X346223Y352216D02*
X354223D01*
X350223Y348216D02*
Y356216D01*
X346985Y349639D02*
X354985D01*
X350985Y345639D02*
Y353639D01*
X348297Y347372D02*
X356297D01*
X352297Y343372D02*
Y351372D01*
X352098Y347336D02*
X360098D01*
X356098Y343336D02*
Y351336D01*
X335819Y359837D02*
X343819D01*
X339819Y355837D02*
Y363837D01*
X338299Y358646D02*
X346299D01*
X342299Y354646D02*
Y362646D01*
X364254Y360728D02*
X372254D01*
X368254Y356728D02*
Y364728D01*
X321879Y372200D02*
X329879D01*
X325879Y368200D02*
Y376200D01*
X332966Y361724D02*
X340966D01*
Y369724*
X332966*
Y361724*
X336966Y365724D02*
Y369724D01*
X336728Y363234D02*
X344728D01*
X340728Y359234D02*
Y367234D01*
X349076Y367542D02*
X357076D01*
X353076Y363542D02*
Y371542D01*
X351017Y364665D02*
X359017D01*
X355017Y360665D02*
Y368665D01*
X351751Y370420D02*
X359751D01*
X355751Y366420D02*
Y374420D01*
X366439Y368623D02*
X374439D01*
X370439Y364623D02*
Y372623D01*
X301879Y382200D02*
X309879D01*
X305879Y378200D02*
Y386200D01*
X320169Y371767D02*
X328169D01*
Y379767*
X320169*
Y371767*
X324169Y375767D02*
Y379767D01*
X333850Y381319D02*
X341850D01*
X337850Y377319D02*
Y385319D01*
X341724Y377236D02*
X349724D01*
X345724Y373236D02*
Y381236D01*
X341879Y382200D02*
X349879D01*
X345879Y378200D02*
Y386200D01*
X351879Y382200D02*
X359879D01*
X355879Y378200D02*
Y386200D01*
X361879Y382200D02*
X369879D01*
X365879Y378200D02*
Y386200D01*
X371879Y382200D02*
X379879D01*
X375879Y378200D02*
Y386200D01*
X301879Y392200D02*
X309879D01*
X305879Y388200D02*
Y396200D01*
X311879Y392200D02*
X319879D01*
X315879Y388200D02*
Y396200D01*
X321879Y392200D02*
X329879D01*
X325879Y388200D02*
Y396200D01*
X329475Y387063D02*
X337475D01*
X333475Y383063D02*
Y391063D01*
X331784Y384329D02*
X339784D01*
X335784Y380329D02*
Y388329D01*
X331879Y392200D02*
X339879D01*
X335879Y388200D02*
Y396200D01*
X341879Y392200D02*
X349879D01*
X345879Y388200D02*
Y396200D01*
X351879Y392200D02*
X359879D01*
X355879Y388200D02*
Y396200D01*
X364769Y385245D02*
X372769D01*
X368769Y381245D02*
Y389245D01*
X361879Y392200D02*
X369879D01*
X365879Y388200D02*
Y396200D01*
X371879Y392200D02*
X379879D01*
X375879Y388200D02*
Y396200D01*
X301879Y402200D02*
X309879D01*
X305879Y398200D02*
Y406200D01*
X311879Y402200D02*
X319879D01*
X315879Y398200D02*
Y406200D01*
X321879Y402200D02*
X329879D01*
X325879Y398200D02*
Y406200D01*
X331879Y402200D02*
X339879D01*
X335879Y398200D02*
Y406200D01*
X341879Y402200D02*
X349879D01*
X345879Y398200D02*
Y406200D01*
X351879Y402200D02*
X359879D01*
X355879Y398200D02*
Y406200D01*
X361879Y402200D02*
X369879D01*
X365879Y398200D02*
Y406200D01*
X371879Y402200D02*
X379879D01*
X375879Y398200D02*
Y406200D01*
X301879Y412200D02*
X309879D01*
X305879Y408200D02*
Y416200D01*
X311879Y412200D02*
X319879D01*
X315879Y408200D02*
Y416200D01*
X321879Y412200D02*
X329879D01*
X325879Y408200D02*
Y416200D01*
X331879Y412200D02*
X339879D01*
X335879Y408200D02*
Y416200D01*
X341879Y412200D02*
X349879D01*
X345879Y408200D02*
Y416200D01*
X351879Y412200D02*
X359879D01*
X355879Y408200D02*
Y416200D01*
X361879Y412200D02*
X369879D01*
X365879Y408200D02*
Y416200D01*
X371879Y412200D02*
X379879D01*
X375879Y408200D02*
Y416200D01*
X301879Y422200D02*
X309879D01*
X305879Y418200D02*
Y426200D01*
X311879Y422200D02*
X319879D01*
X315879Y418200D02*
Y426200D01*
X321879Y422200D02*
X329879D01*
X325879Y418200D02*
Y426200D01*
X331879Y422200D02*
X339879D01*
X335879Y418200D02*
Y426200D01*
X341879Y422200D02*
X349879D01*
X345879Y418200D02*
Y426200D01*
X361879Y422200D02*
X369879D01*
X365879Y418200D02*
Y426200D01*
X371879Y422200D02*
X379879D01*
X375879Y418200D02*
Y426200D01*
X301879Y432200D02*
X309879D01*
X305879Y428200D02*
Y436200D01*
X341879Y432200D02*
X349879D01*
X345879Y428200D02*
Y436200D01*
X361879Y432200D02*
X369879D01*
X365879Y428200D02*
Y436200D01*
X371879Y432200D02*
X379879D01*
X375879Y428200D02*
Y436200D01*
X300000Y441732D02*
X382677D01*
Y300000*
X300000*
Y441732*
Y420000D02*
X558000D01*
X300000Y396000D02*
X558000D01*
X300000Y372000D02*
X558000D01*
X300000Y348000D02*
X558000D01*
X300000Y324000D02*
X558000D01*
X300000Y300000D02*
X558000D01*
X300000Y420000D02*
Y300000D01*
X384000Y420000D02*
Y300000D01*
X420000Y420000D02*
Y300000D01*
X456000Y420000D02*
Y300000D01*
X510000Y420000D02*
Y300000D01*
X558000Y420000D02*
Y300000D01*
X335500Y408750D02*
X334955Y409500D01*
X334136Y409875*
X333045*
X332227Y409500*
X331682Y408750*
Y408000*
X331955Y407250*
X332227Y406875*
X332773Y406500*
X334409Y405750*
X334955Y405375*
X335227Y405000*
X335500Y404250*
Y403125*
X334955Y402375*
X334136Y402000*
X333045*
X332227Y402375*
X331682Y403125*
X337955Y409875D02*
Y402000D01*
X344227Y409875D02*
X340409Y402000D01*
Y409875D02*
X344227D01*
X340409Y402000D02*
X344227D01*
X346682Y409875D02*
Y402000D01*
Y409875D02*
X350227D01*
X346682Y406125D02*
X348864D01*
X346682Y402000D02*
X350227D01*
X393864Y409875D02*
X393318Y409500D01*
X392773Y408750*
X392500Y408000*
X392227Y406875*
Y405000*
X392500Y403875*
X392773Y403125*
X393318Y402375*
X393864Y402000*
X394955*
X395500Y402375*
X396045Y403125*
X396318Y403875*
X396591Y405000*
Y406875*
X396318Y408000*
X396045Y408750*
X395500Y409500*
X394955Y409875*
X393864*
X394682Y403500D02*
X396318Y401250D01*
X400955Y409875D02*
Y402000D01*
X399045Y409875D02*
X402864D01*
X405318D02*
X407500Y406125D01*
Y402000*
X409682Y409875D02*
X407500Y406125D01*
X432045Y408750D02*
X431500Y409500D01*
X430682Y409875*
X429591*
X428773Y409500*
X428227Y408750*
Y408000*
X428500Y407250*
X428773Y406875*
X429318Y406500*
X430955Y405750*
X431500Y405375*
X431773Y405000*
X432045Y404250*
Y403125*
X431500Y402375*
X430682Y402000*
X429591*
X428773Y402375*
X428227Y403125*
X434500Y409875D02*
X436682Y406125D01*
Y402000*
X438864Y409875D02*
X436682Y406125D01*
X441318Y409875D02*
Y402000D01*
Y409875D02*
X443500Y402000D01*
X445682Y409875D02*
X443500Y402000D01*
X445682Y409875D02*
Y402000D01*
X467500Y409875D02*
Y402000D01*
Y409875D02*
X469955D01*
X470773Y409500*
X471045Y409125*
X471318Y408375*
Y407250*
X471045Y406500*
X470773Y406125*
X469955Y405750*
X467500*
X473773Y409875D02*
Y402000D01*
X477045*
X481682Y409875D02*
X479500Y402000D01*
X481682Y409875D02*
X483864Y402000D01*
X480318Y404625D02*
X483045D01*
X488227Y409875D02*
Y402000D01*
X486318Y409875D02*
X490136D01*
X492591D02*
Y402000D01*
Y409875D02*
X496136D01*
X492591Y406125D02*
X494773D01*
X492591Y402000D02*
X496136D01*
X498591Y409875D02*
Y402000D01*
Y409875D02*
X500500D01*
X501318Y409500*
X501864Y408750*
X502136Y408000*
X502409Y406875*
Y405000*
X502136Y403875*
X501864Y403125*
X501318Y402375*
X500500Y402000*
X498591*
X526682Y409875D02*
Y402000D01*
X524773Y409875D02*
X528591D01*
X532682D02*
X532136Y409500D01*
X531591Y408750*
X531318Y408000*
X531045Y406875*
Y405000*
X531318Y403875*
X531591Y403125*
X532136Y402375*
X532682Y402000*
X533773*
X534318Y402375*
X534864Y403125*
X535136Y403875*
X535409Y405000*
Y406875*
X535136Y408000*
X534864Y408750*
X534318Y409500*
X533773Y409875*
X532682*
X537864D02*
Y402000D01*
X541136*
X306000Y384375D02*
X306545Y384750D01*
X307364Y385875*
Y378000*
X310091Y384000D02*
Y384375D01*
X310364Y385125*
X310636Y385500*
X311182Y385875*
X312273*
X312818Y385500*
X313091Y385125*
X313364Y384375*
Y383625*
X313091Y382875*
X312545Y381750*
X309818Y378000*
X313636*
X397273Y385875D02*
X396455Y385500D01*
X396182Y384750*
Y384000*
X396455Y383250*
X397000Y382875*
X398091Y382500*
X398909Y382125*
X399455Y381375*
X399727Y380625*
Y379500*
X399455Y378750*
X399182Y378375*
X398364Y378000*
X397273*
X396455Y378375*
X396182Y378750*
X395909Y379500*
Y380625*
X396182Y381375*
X396727Y382125*
X397545Y382500*
X398636Y382875*
X399182Y383250*
X399455Y384000*
Y384750*
X399182Y385500*
X398364Y385875*
X397273*
X403818D02*
X403000Y385500D01*
X402455Y384375*
X402182Y382500*
Y381375*
X402455Y379500*
X403000Y378375*
X403818Y378000*
X404364*
X405182Y378375*
X405727Y379500*
X406000Y381375*
Y382500*
X405727Y384375*
X405182Y385500*
X404364Y385875*
X403818*
X432000Y384000D02*
X444000D01*
X438000Y378000D02*
Y390000D01*
X464636Y385875D02*
X466818Y382125D01*
Y378000*
X469000Y385875D02*
X466818Y382125D01*
X471455Y385875D02*
Y378000D01*
Y385875D02*
X475000D01*
X471455Y382125D02*
X473636D01*
X471455Y378000D02*
X475000D01*
X481273Y384750D02*
X480727Y385500D01*
X479909Y385875*
X478818*
X478000Y385500*
X477455Y384750*
Y384000*
X477727Y383250*
X478000Y382875*
X478545Y382500*
X480182Y381750*
X480727Y381375*
X481000Y381000*
X481273Y380250*
Y379125*
X480727Y378375*
X479909Y378000*
X478818*
X478000Y378375*
X477455Y379125*
X517818Y384750D02*
Y378000D01*
X515364Y381375D02*
X520273D01*
X527636Y387375D02*
X522727Y375375D01*
X530091Y381375D02*
X535000D01*
X539091Y385875D02*
X538273Y385500D01*
X537727Y384375*
X537455Y382500*
Y381375*
X537727Y379500*
X538273Y378375*
X539091Y378000*
X539636*
X540455Y378375*
X541000Y379500*
X541273Y381375*
Y382500*
X541000Y384375*
X540455Y385500*
X539636Y385875*
X539091*
X544000Y378750D02*
X543727Y378375D01*
X544000Y378000*
X544273Y378375*
X544000Y378750*
X548364Y385875D02*
X547545Y385500D01*
X547000Y384375*
X546727Y382500*
Y381375*
X547000Y379500*
X547545Y378375*
X548364Y378000*
X548909*
X549727Y378375*
X550273Y379500*
X550545Y381375*
Y382500*
X550273Y384375*
X549727Y385500*
X548909Y385875*
X548364*
X306545Y361875D02*
X309545D01*
X307909Y358875*
X308727*
X309273Y358500*
X309545Y358125*
X309818Y357000*
Y356250*
X309545Y355125*
X309000Y354375*
X308182Y354000*
X307364*
X306545Y354375*
X306273Y354750*
X306000Y355500*
X315818Y361875D02*
X313091D01*
X312818Y358500*
X313091Y358875*
X313909Y359250*
X314727*
X315545Y358875*
X316091Y358125*
X316364Y357000*
X316091Y356250*
X315818Y355125*
X315273Y354375*
X314455Y354000*
X313636*
X312818Y354375*
X312545Y354750*
X312273Y355500*
X319091Y354750D02*
X318818Y354375D01*
X319091Y354000*
X319364Y354375*
X319091Y354750*
X324545Y361875D02*
X321818Y356625D01*
X325909*
X324545Y361875D02*
Y354000D01*
X328909Y361875D02*
X331909D01*
X330273Y358875*
X331091*
X331636Y358500*
X331909Y358125*
X332182Y357000*
Y356250*
X331909Y355125*
X331364Y354375*
X330545Y354000*
X329727*
X328909Y354375*
X328636Y354750*
X328364Y355500*
X398364Y360375D02*
X398909Y360750D01*
X399727Y361875*
Y354000*
X402182Y360375D02*
X402727Y360750D01*
X403545Y361875*
Y354000*
X432000D02*
X444000Y366000D01*
X432000D02*
X444000Y354000D01*
X464636Y361875D02*
X466818Y358125D01*
Y354000*
X469000Y361875D02*
X466818Y358125D01*
X471455Y361875D02*
Y354000D01*
Y361875D02*
X475000D01*
X471455Y358125D02*
X473636D01*
X471455Y354000D02*
X475000D01*
X481273Y360750D02*
X480727Y361500D01*
X479909Y361875*
X478818*
X478000Y361500*
X477455Y360750*
Y360000*
X477727Y359250*
X478000Y358875*
X478545Y358500*
X480182Y357750*
X480727Y357375*
X481000Y357000*
X481273Y356250*
Y355125*
X480727Y354375*
X479909Y354000*
X478818*
X478000Y354375*
X477455Y355125*
X517818Y360750D02*
Y354000D01*
X515364Y357375D02*
X520273D01*
X527636Y363375D02*
X522727Y351375D01*
X530091Y357375D02*
X535000D01*
X539091Y361875D02*
X538273Y361500D01*
X537727Y360375*
X537455Y358500*
Y357375*
X537727Y355500*
X538273Y354375*
X539091Y354000*
X539636*
X540455Y354375*
X541000Y355500*
X541273Y357375*
Y358500*
X541000Y360375*
X540455Y361500*
X539636Y361875*
X539091*
X544000Y354750D02*
X543727Y354375D01*
X544000Y354000*
X544273Y354375*
X544000Y354750*
X548364Y361875D02*
X547545Y361500D01*
X547000Y360375*
X546727Y358500*
Y357375*
X547000Y355500*
X547545Y354375*
X548364Y354000*
X548909*
X549727Y354375*
X550273Y355500*
X550545Y357375*
Y358500*
X550273Y360375*
X549727Y361500*
X548909Y361875*
X548364*
X306273Y336000D02*
Y336375D01*
X306545Y337125*
X306818Y337500*
X307364Y337875*
X308455*
X309000Y337500*
X309273Y337125*
X309545Y336375*
Y335625*
X309273Y334875*
X308727Y333750*
X306000Y330000*
X309818*
X313909Y337875D02*
X313091Y337500D01*
X312545Y336375*
X312273Y334500*
Y333375*
X312545Y331500*
X313091Y330375*
X313909Y330000*
X314455*
X315273Y330375*
X315818Y331500*
X316091Y333375*
Y334500*
X315818Y336375*
X315273Y337500*
X314455Y337875*
X313909*
X399591D02*
X402591D01*
X400955Y334875*
X401773*
X402318Y334500*
X402591Y334125*
X402864Y333000*
Y332250*
X402591Y331125*
X402045Y330375*
X401227Y330000*
X400409*
X399591Y330375*
X399318Y330750*
X399045Y331500*
X432000Y330000D02*
X444000D01*
Y342000*
X432000*
Y330000*
X438000Y336000D02*
Y342000D01*
X464636Y337875D02*
X466818Y334125D01*
Y330000*
X469000Y337875D02*
X466818Y334125D01*
X471455Y337875D02*
Y330000D01*
Y337875D02*
X475000D01*
X471455Y334125D02*
X473636D01*
X471455Y330000D02*
X475000D01*
X481273Y336750D02*
X480727Y337500D01*
X479909Y337875*
X478818*
X478000Y337500*
X477455Y336750*
Y336000*
X477727Y335250*
X478000Y334875*
X478545Y334500*
X480182Y333750*
X480727Y333375*
X481000Y333000*
X481273Y332250*
Y331125*
X480727Y330375*
X479909Y330000*
X478818*
X478000Y330375*
X477455Y331125*
X517818Y336750D02*
Y330000D01*
X515364Y333375D02*
X520273D01*
X527636Y339375D02*
X522727Y327375D01*
X530091Y333375D02*
X535000D01*
X539091Y337875D02*
X538273Y337500D01*
X537727Y336375*
X537455Y334500*
Y333375*
X537727Y331500*
X538273Y330375*
X539091Y330000*
X539636*
X540455Y330375*
X541000Y331500*
X541273Y333375*
Y334500*
X541000Y336375*
X540455Y337500*
X539636Y337875*
X539091*
X544000Y330750D02*
X543727Y330375D01*
X544000Y330000*
X544273Y330375*
X544000Y330750*
X548364Y337875D02*
X547545Y337500D01*
X547000Y336375*
X546727Y334500*
Y333375*
X547000Y331500*
X547545Y330375*
X548364Y330000*
X548909*
X549727Y330375*
X550273Y331500*
X550545Y333375*
Y334500*
X550273Y336375*
X549727Y337500*
X548909Y337875*
X548364*
X306545Y313875D02*
X309545D01*
X307909Y310875*
X308727*
X309273Y310500*
X309545Y310125*
X309818Y309000*
Y308250*
X309545Y307125*
X309000Y306375*
X308182Y306000*
X307364*
X306545Y306375*
X306273Y306750*
X306000Y307500*
X315818Y313875D02*
X313091D01*
X312818Y310500*
X313091Y310875*
X313909Y311250*
X314727*
X315545Y310875*
X316091Y310125*
X316364Y309000*
X316091Y308250*
X315818Y307125*
X315273Y306375*
X314455Y306000*
X313636*
X312818Y306375*
X312545Y306750*
X312273Y307500*
X319091Y306750D02*
X318818Y306375D01*
X319091Y306000*
X319364Y306375*
X319091Y306750*
X324545Y313875D02*
X321818Y308625D01*
X325909*
X324545Y313875D02*
Y306000D01*
X401636Y313875D02*
X398909Y308625D01*
X403000*
X401636Y313875D02*
Y306000D01*
X438000D02*
X444000Y312000D01*
X438000Y318000*
X432000Y312000*
X438000Y306000*
Y312000D02*
Y318000D01*
X464636Y313875D02*
X466818Y310125D01*
Y306000*
X469000Y313875D02*
X466818Y310125D01*
X471455Y313875D02*
Y306000D01*
Y313875D02*
X475000D01*
X471455Y310125D02*
X473636D01*
X471455Y306000D02*
X475000D01*
X481273Y312750D02*
X480727Y313500D01*
X479909Y313875*
X478818*
X478000Y313500*
X477455Y312750*
Y312000*
X477727Y311250*
X478000Y310875*
X478545Y310500*
X480182Y309750*
X480727Y309375*
X481000Y309000*
X481273Y308250*
Y307125*
X480727Y306375*
X479909Y306000*
X478818*
X478000Y306375*
X477455Y307125*
X517818Y312750D02*
Y306000D01*
X515364Y309375D02*
X520273D01*
X527636Y315375D02*
X522727Y303375D01*
X530091Y309375D02*
X535000D01*
X539091Y313875D02*
X538273Y313500D01*
X537727Y312375*
X537455Y310500*
Y309375*
X537727Y307500*
X538273Y306375*
X539091Y306000*
X539636*
X540455Y306375*
X541000Y307500*
X541273Y309375*
Y310500*
X541000Y312375*
X540455Y313500*
X539636Y313875*
X539091*
X544000Y306750D02*
X543727Y306375D01*
X544000Y306000*
X544273Y306375*
X544000Y306750*
X548364Y313875D02*
X547545Y313500D01*
X547000Y312375*
X546727Y310500*
Y309375*
X547000Y307500*
X547545Y306375*
X548364Y306000*
X548909*
X549727Y306375*
X550273Y307500*
X550545Y309375*
Y310500*
X550273Y312375*
X549727Y313500*
X548909Y313875*
X548364*
X0Y0D02*
M02*
