*
*
G04 PADS VX.1.2 Build Number: 698008 generated Gerber (RS-274-X) file*
G04 PC Version=2.1*
*
%IN "LockBase_ZM_V1.0_201808"*%
*
%MOIN*%
*
%FSLAX35Y35*%
*
*
*
*
G04 PC Standard Apertures*
*
*
G04 Thermal Relief Aperture macro.*
%AMTER*
1,1,$1,0,0*
1,0,$1-$2,0,0*
21,0,$3,$4,0,0,45*
21,0,$3,$4,0,0,135*
%
*
*
G04 Annular Aperture macro.*
%AMANN*
1,1,$1,0,0*
1,0,$2,0,0*
%
*
*
G04 Odd Aperture macro.*
%AMODD*
1,1,$1,0,0*
1,0,$1-0.005,0,0*
%
*
*
G04 PC Custom Aperture Macros*
*
*
*
*
*
*
G04 PC Aperture Table*
*
%ADD010C,0.001*%
%ADD011ANN,0.07087X0.04724*%
%ADD012R,0.036X0.036*%
%ADD013R,0.036X0.05*%
%ADD014R,0.03149X0.0378*%
%ADD015R,0.04724X0.01772*%
%ADD016R,0.11811X0.07874*%
%ADD017R,0.0378X0.03149*%
%ADD018R,0.07874X0.07874*%
%ADD019R,0.11811X0.03937*%
%ADD020R,0.03937X0.07874*%
%ADD021ANN,0.05906X0.03543*%
%ADD022R,0.038X0.038*%
%ADD023R,0.04724X0.07874*%
%ADD024R,0.09843X0.0315*%
%ADD025ANN,0.15748X0.07874*%
%ADD026R,0.02362X0.07874*%
%ADD027C,0.012*%
%ADD028C,0.03*%
%ADD029C,0.02*%
%ADD030C,0.05*%
%ADD031C,0.04*%
%ADD032C,0.055*%
%ADD033C,0.01*%
%ADD034C,0.015*%
*
*
*
*
G04 PC Circuitry*
G04 Layer Name LockBase_ZM_V1.0_201808 - circuitry*
%LPD*%
*
*
G04 PC Custom Flashes*
G04 Layer Name LockBase_ZM_V1.0_201808 - flashes*
%LPD*%
*
*
G04 PC Circuitry*
G04 Layer Name LockBase_ZM_V1.0_201808 - circuitry*
%LPD*%
*
G54D10*
G54D11*
G01X300079Y235118D03*
X280079D03*
X260079D03*
X240079D03*
X220079D03*
X200079D03*
G54D12*
X228848Y172163D03*
X236348D03*
G54D13*
X232598Y180163D03*
G54D14*
X272508Y176689D03*
Y170390D03*
X221063Y181654D03*
Y187953D03*
X303976Y149842D03*
Y143543D03*
X296496Y149842D03*
Y143543D03*
G54D15*
X263391Y170686D03*
Y176591D03*
Y182497D03*
G54D16*
X251580Y176591D03*
G54D17*
X253425Y158858D03*
X259724D03*
X230000Y120315D03*
X236299D03*
X120827Y179291D03*
X114528D03*
X301882Y195782D03*
X308180D03*
X280530Y195598D03*
X286828D03*
X253347Y151850D03*
X259646D03*
G54D18*
X251731Y197222D03*
X267479D03*
G54D19*
X203386Y134213D03*
Y142087D03*
Y149961D03*
Y157835D03*
Y165709D03*
Y173583D03*
Y181457D03*
Y189331D03*
X140394D03*
Y181457D03*
Y173583D03*
Y165709D03*
Y157835D03*
Y149961D03*
Y142087D03*
Y134213D03*
G54D20*
X191575Y197205D03*
X183701D03*
X175827D03*
X167953D03*
X160079D03*
X152205D03*
X107126Y132559D03*
G54D21*
X178150Y243150D03*
X168150D03*
X158150D03*
X148150D03*
X124921Y217283D03*
X114921D03*
X260787Y109370D03*
X270787D03*
X280787D03*
X177992Y216850D03*
X167992D03*
X157992D03*
X147992D03*
G54D22*
X236457Y113071D03*
X230157D03*
X236457Y145315D03*
X230157D03*
X270942Y130330D03*
Y124030D03*
X260667Y130252D03*
Y123952D03*
X121024Y196339D03*
X114724D03*
X280118Y143543D03*
Y149843D03*
X288110Y143543D03*
Y149843D03*
X121024Y187205D03*
X114724D03*
X221063Y165708D03*
Y172008D03*
X235512Y164016D03*
X229212D03*
X236457Y137323D03*
X230157D03*
Y128583D03*
X236457D03*
G54D23*
X124843Y165630D03*
Y132559D03*
X107126Y165630D03*
G54D24*
X316929Y129764D03*
Y149449D03*
G54D25*
X322484Y109835D03*
Y247630D03*
X109886D03*
Y109835D03*
G54D26*
X286516Y163378D03*
X291516D03*
X296516D03*
X301516D03*
Y187000D03*
X296516D03*
X291516D03*
X286516D03*
G54D27*
X140394Y157835D02*
Y157500D01*
X150000*
X124961Y165630D02*
X124843D01*
Y165709*
X140394*
X185635Y164730D02*
X192530Y157835D01*
X203386*
Y165709D02*
X214227D01*
Y165708*
X221063*
Y181654D02*
Y172008D01*
Y172163*
X228848*
X229212*
Y164016*
X120827Y179291D02*
X123917D01*
X124961Y178247*
Y165630*
X203386Y181457D02*
X204429Y182500D01*
X212500*
X203386Y173583D02*
X212738D01*
X212756Y173345*
Y173662*
X272508Y176689D02*
X276000Y176000D01*
X278000Y174000*
X121024Y187205D02*
X126299D01*
X128150Y185354*
Y175472*
X130000Y173622*
X140394*
Y173583*
X152500Y186120D02*
X189747D01*
X191587Y187960*
X107126Y201614D02*
X109685Y204173D01*
X123228*
X124921Y205866*
Y214912*
X107126Y201614D02*
Y190276D01*
X110197Y187205*
X114724*
X121024Y196339D02*
X127638D01*
X130669Y193307*
Y183228*
X132441Y181457*
X140394*
X183701Y197205D02*
Y203745D01*
X186087Y206131*
X196326*
X196770Y206124*
X191575Y197205D02*
X191587D01*
Y187960*
X140000Y222500D02*
X139724Y222224D01*
Y240669*
X142205Y243150*
X145778*
X135000Y225000D02*
Y248819D01*
X138307Y252126*
X155827*
X158150Y249803*
Y245521*
X270787Y111742D02*
Y123875D01*
X270942Y124030*
X140394Y134213D02*
X152409D01*
Y134211*
X152441Y134243*
X140394Y142087D02*
X140807Y142500D01*
X155000Y142361*
X140394Y149961D02*
X149957D01*
X149965Y149969*
X161202*
X163117Y151884*
Y175770*
X260612Y131659D02*
Y142361D01*
X274000Y140000D02*
Y162000D01*
X278000Y166000*
Y174000*
X274000Y140000D02*
X276000Y138000D01*
Y134000*
X270933Y136421D02*
X270942Y136412D01*
Y130330*
X230157Y128583D02*
Y137323D01*
X236457D02*
X240677D01*
X242000Y136000*
Y134000*
X260667Y123952D02*
X260787Y123832D01*
Y111742*
X236457Y145315D02*
X247718D01*
X248279Y144754*
X230000Y120315D02*
X230157D01*
Y113071*
X203386Y149961D02*
X213189D01*
X217795Y145354*
X230157*
Y145315*
X203386Y142087D02*
X214646D01*
X219409Y137323*
X230157*
X203386Y134213D02*
X214882D01*
X220079Y129016*
Y122717*
X222441Y120354*
X230000*
Y120315*
X280000Y137500D02*
Y143543D01*
X280118*
X288110D02*
X288124D01*
Y137894*
G54D28*
X249612Y176591D02*
X251580D01*
X263391D02*
X272508D01*
Y176689*
X203386Y189331D02*
X212550D01*
X212555Y189326*
X242500D02*
X251580Y180246D01*
Y176591*
X236457Y113071D02*
X244899D01*
X248279Y116451*
Y144754*
Y147098*
X253031Y151850*
X253347*
G54D29*
X296000Y176000D02*
X296516D01*
Y163378*
X180764Y216850D02*
X197974D01*
X203386Y211439*
Y189331*
X162500Y227500D02*
X174048D01*
X177992Y223556*
Y219622*
X288110Y149843D02*
Y154114D01*
X291516Y157520*
Y163378*
X280118Y149843D02*
Y160386D01*
X283110Y163378*
X286516*
X150000Y157500D03*
X185635Y164730D03*
X163117Y175770D03*
X212500Y182500D03*
X212756Y173662D03*
X152500Y186120D03*
X196770Y206124D03*
X140000Y222500D03*
X135000Y225000D03*
X155000Y142361D03*
X152441Y134243D03*
X276000Y134000D03*
X242000D03*
X260612Y142361D03*
X270933Y136421D03*
X288124Y137894D03*
X280000Y137500D03*
G54D30*
X267479Y197222D02*
X268037D01*
X272508Y189909*
Y176689*
X220079Y230256D02*
Y219173D01*
X225236Y214016*
X244921*
X251731Y207206*
Y197222*
G54D31*
X209646Y227953D02*
X209685Y227913D01*
Y209291*
X216417Y202559*
X226811*
X232598Y196772*
Y180163*
X209646Y227953D02*
Y244370D01*
X213622Y248346*
X237638*
X240079Y245906*
Y239480*
X260079Y230756D02*
Y220787D01*
X267479Y213387*
Y197222*
X156000Y158000D03*
X174000Y154000D03*
X180000Y158000D03*
X216000D03*
X224000Y154000D03*
X234000D03*
X242000D03*
X270000Y160000D03*
X300000Y156000D03*
X312000Y158000D03*
X326000Y156000D03*
X320000Y160000D03*
X326000Y162000D03*
X114000Y172000D03*
X178000D03*
X264000Y164000D03*
X316000D03*
X320000Y172000D03*
X106000Y180000D03*
X154000Y176000D03*
X172000Y178000D03*
X186000Y176000D03*
X296000D03*
X302000Y178000D03*
X328000Y176000D03*
X322000Y182000D03*
X212555Y189326D03*
X242500D03*
X328000Y188000D03*
X322000Y190000D03*
X210000Y200000D03*
X240000D03*
X282000D03*
X316000Y196000D03*
X326000Y198000D03*
X320000Y210000D03*
X316000Y222000D03*
X326000Y216000D03*
X162500Y227500D03*
X196000Y224000D03*
X328000Y232000D03*
X322000Y226000D03*
X110000Y234000D03*
X124000Y238000D03*
X320000Y236000D03*
X128000Y250000D03*
X174000Y252000D03*
X200000Y250000D03*
X132000Y110000D03*
X220000Y112000D03*
X214000Y106000D03*
X246000Y104000D03*
X230000Y106000D03*
X212000Y114000D03*
X304000Y108000D03*
X294965Y116587D03*
X296000Y110000D03*
X116000Y124000D03*
X198000Y126000D03*
X184000D03*
X170000D03*
X154000D03*
X128000Y122000D03*
X186000Y152000D03*
X210000Y126000D03*
X266000Y152000D03*
X242000Y120000D03*
Y128000D03*
X300000Y140000D03*
Y150000D03*
X328000Y124000D03*
X326000Y136000D03*
X304000Y128000D03*
X302127Y120407D03*
X293426Y126815D03*
X282000Y126000D03*
G54D32*
X290000Y202500D03*
X300157Y202480D03*
X290000Y210000D03*
X299685Y210669D03*
G54D33*
X265642Y181720D02*
Y186508D01*
X245697*
Y163571*
X249437*
Y149240*
X254815*
Y172941*
X257177*
Y181720*
X265642*
X295815Y238713D02*
X303398D01*
Y183059*
X295815*
Y238713*
X285106Y183217D02*
X292374D01*
Y213533*
X284894Y221013*
Y238909*
X276287*
Y219656*
X285106Y210837*
Y183217*
X303500Y167500D02*
X300500D01*
Y157500*
X298500*
Y151500*
X296500*
Y148500*
X303500*
Y167500*
X245697Y186139D02*
X265642D01*
X245697Y185239D02*
X265642D01*
X245697Y184339D02*
X265642D01*
X245697Y183439D02*
X265642D01*
X245697Y182539D02*
X265642D01*
X245697Y181639D02*
X257177D01*
X245697Y180739D02*
X257177D01*
X245697Y179839D02*
X257177D01*
X245697Y178939D02*
X257177D01*
X245697Y178039D02*
X257177D01*
X245697Y177139D02*
X257177D01*
X245697Y176239D02*
X257177D01*
X245697Y175339D02*
X257177D01*
X245697Y174439D02*
X257177D01*
X245697Y173539D02*
X257177D01*
X245697Y172639D02*
X254815D01*
X245697Y171739D02*
X254815D01*
X245697Y170839D02*
X254815D01*
X245697Y169939D02*
X254815D01*
X245697Y169039D02*
X254815D01*
X245697Y168139D02*
X254815D01*
X245697Y167239D02*
X254815D01*
X245697Y166339D02*
X254815D01*
X245697Y165439D02*
X254815D01*
X245697Y164539D02*
X254815D01*
X245697Y163639D02*
X254815D01*
X249437Y162739D02*
X254815D01*
X249437Y161839D02*
X254815D01*
X249437Y160939D02*
X254815D01*
X249437Y160039D02*
X254815D01*
X249437Y159139D02*
X254815D01*
X249437Y158239D02*
X254815D01*
X249437Y157339D02*
X254815D01*
X249437Y156439D02*
X254815D01*
X249437Y155539D02*
X254815D01*
X249437Y154639D02*
X254815D01*
X249437Y153739D02*
X254815D01*
X249437Y152839D02*
X254815D01*
X249437Y151939D02*
X254815D01*
X249437Y151039D02*
X254815D01*
X249437Y150139D02*
X254815D01*
X295815Y237958D02*
X303398D01*
X295815Y237058D02*
X303398D01*
X295815Y236158D02*
X303398D01*
X295815Y235258D02*
X303398D01*
X295815Y234358D02*
X303398D01*
X295815Y233458D02*
X303398D01*
X295815Y232558D02*
X303398D01*
X295815Y231658D02*
X303398D01*
X295815Y230758D02*
X303398D01*
X295815Y229858D02*
X303398D01*
X295815Y228958D02*
X303398D01*
X295815Y228058D02*
X303398D01*
X295815Y227158D02*
X303398D01*
X295815Y226258D02*
X303398D01*
X295815Y225358D02*
X303398D01*
X295815Y224458D02*
X303398D01*
X295815Y223558D02*
X303398D01*
X295815Y222658D02*
X303398D01*
X295815Y221758D02*
X303398D01*
X295815Y220858D02*
X303398D01*
X295815Y219958D02*
X303398D01*
X295815Y219058D02*
X303398D01*
X295815Y218158D02*
X303398D01*
X295815Y217258D02*
X303398D01*
X295815Y216358D02*
X303398D01*
X295815Y215458D02*
X303398D01*
X295815Y214558D02*
X303398D01*
X295815Y213658D02*
X303398D01*
X295815Y212758D02*
X303398D01*
X295815Y211858D02*
X303398D01*
X295815Y210958D02*
X303398D01*
X295815Y210058D02*
X303398D01*
X295815Y209158D02*
X303398D01*
X295815Y208258D02*
X303398D01*
X295815Y207358D02*
X303398D01*
X295815Y206458D02*
X303398D01*
X295815Y205558D02*
X303398D01*
X295815Y204658D02*
X303398D01*
X295815Y203758D02*
X303398D01*
X295815Y202858D02*
X303398D01*
X295815Y201958D02*
X303398D01*
X295815Y201058D02*
X303398D01*
X295815Y200158D02*
X303398D01*
X295815Y199258D02*
X303398D01*
X295815Y198358D02*
X303398D01*
X295815Y197458D02*
X303398D01*
X295815Y196558D02*
X303398D01*
X295815Y195658D02*
X303398D01*
X295815Y194758D02*
X303398D01*
X295815Y193858D02*
X303398D01*
X295815Y192958D02*
X303398D01*
X295815Y192058D02*
X303398D01*
X295815Y191158D02*
X303398D01*
X295815Y190258D02*
X303398D01*
X295815Y189358D02*
X303398D01*
X295815Y188458D02*
X303398D01*
X295815Y187558D02*
X303398D01*
X295815Y186658D02*
X303398D01*
X295815Y185758D02*
X303398D01*
X295815Y184858D02*
X303398D01*
X295815Y183958D02*
X303398D01*
X283028Y212915D02*
X292374D01*
X283928Y212015D02*
X292374D01*
X284828Y211115D02*
X292374D01*
X285106Y210215D02*
X292374D01*
X285106Y209315D02*
X292374D01*
X285106Y208415D02*
X292374D01*
X285106Y207515D02*
X292374D01*
X285106Y206615D02*
X292374D01*
X285106Y205715D02*
X292374D01*
X285106Y204815D02*
X292374D01*
X285106Y203915D02*
X292374D01*
X285106Y203015D02*
X292374D01*
X285106Y202115D02*
X292374D01*
X285106Y201215D02*
X292374D01*
X285106Y200315D02*
X292374D01*
X285106Y199415D02*
X292374D01*
X285106Y198515D02*
X292374D01*
X285106Y197615D02*
X292374D01*
X285106Y196715D02*
X292374D01*
X285106Y195815D02*
X292374D01*
X285106Y194915D02*
X292374D01*
X285106Y194015D02*
X292374D01*
X285106Y193115D02*
X292374D01*
X285106Y192215D02*
X292374D01*
X285106Y191315D02*
X292374D01*
X285106Y190415D02*
X292374D01*
X285106Y189515D02*
X292374D01*
X285106Y188615D02*
X292374D01*
X285106Y187715D02*
X292374D01*
X285106Y186815D02*
X292374D01*
X285106Y185915D02*
X292374D01*
X285106Y185015D02*
X292374D01*
X285106Y184115D02*
X292374D01*
X282128Y213815D02*
X292092D01*
X281228Y214715D02*
X291192D01*
X280328Y215615D02*
X290292D01*
X279428Y216515D02*
X289392D01*
X278528Y217415D02*
X288492D01*
X277628Y218315D02*
X287592D01*
X276728Y219215D02*
X286692D01*
X276287Y220115D02*
X285792D01*
X276287Y238115D02*
X284894D01*
X276287Y237215D02*
X284894D01*
X276287Y236315D02*
X284894D01*
X276287Y235415D02*
X284894D01*
X276287Y234515D02*
X284894D01*
X276287Y233615D02*
X284894D01*
X276287Y232715D02*
X284894D01*
X276287Y231815D02*
X284894D01*
X276287Y230915D02*
X284894D01*
X276287Y230015D02*
X284894D01*
X276287Y229115D02*
X284894D01*
X276287Y228215D02*
X284894D01*
X276287Y227315D02*
X284894D01*
X276287Y226415D02*
X284894D01*
X276287Y225515D02*
X284894D01*
X276287Y224615D02*
X284894D01*
X276287Y223715D02*
X284894D01*
X276287Y222815D02*
X284894D01*
X276287Y221915D02*
X284894D01*
X276287Y221015D02*
X284894D01*
X300500Y167399D02*
X303500D01*
X300500Y166499D02*
X303500D01*
X300500Y165599D02*
X303500D01*
X300500Y164699D02*
X303500D01*
X300500Y163799D02*
X303500D01*
X300500Y162899D02*
X303500D01*
X300500Y161999D02*
X303500D01*
X300500Y161099D02*
X303500D01*
X300500Y160199D02*
X303500D01*
X300500Y159299D02*
X303500D01*
X300500Y158399D02*
X303500D01*
X298500Y157499D02*
X303500D01*
X298500Y156599D02*
X303500D01*
X298500Y155699D02*
X303500D01*
X298500Y154799D02*
X303500D01*
X298500Y153899D02*
X303500D01*
X298500Y152999D02*
X303500D01*
X298500Y152099D02*
X303500D01*
X296500Y151199D02*
X303500D01*
X296500Y150299D02*
X303500D01*
X296500Y149399D02*
X303500D01*
X245079Y117984D02*
Y132106D01*
G75*
G03X244176Y132402I-500J-0D01*
G01X240678Y131646D02*
G03X244176Y132402I1322J2354D01*
G01X240678Y131646D02*
G03X239962Y131044I-244J-436D01*
G01X240057Y130483D02*
G03X239962Y131044I-1700J-0D01*
G01X240057Y130483D02*
Y126683D01*
X238357Y124983D02*
G03X240057Y126683I0J1700D01*
G01X238357Y124983D02*
X234557D01*
X233591Y125284D02*
G03X234557Y124983I966J1399D01*
G01X233591Y125284D02*
G03X233023I-284J-412D01*
G01X232057Y124983D02*
G03X233023Y125284I0J1700D01*
G01X232057Y124983D02*
X228257D01*
X226557Y126683D02*
G03X228257Y124983I1700J-0D01*
G01X226557Y126683D02*
Y130483D01*
X227562Y132034D02*
G03X226557Y130483I695J-1551D01*
G01X227562Y132034D02*
G03X227857Y132490I-205J456D01*
G01Y133415*
G03X227562Y133872I-500J0*
G01X226706Y134727D02*
G03X227562Y133872I1551J696D01*
G01X226706Y134727D02*
G03X226250Y135023I-456J-204D01*
G01X219409*
X218501Y135210D02*
G03X219409Y135023I908J2113D01*
G01X218501Y135210D02*
G03X217951Y134397I-197J-460D01*
G01X221705Y130642*
X222379Y129016D02*
G03X221705Y130642I-2300J-0D01*
G01X222379Y129016D02*
Y123876D01*
G03X222525Y123523I500J0*
G01X223247Y122801*
G03X223601Y122654I354J353*
G01X226310*
G03X226719Y122867I-0J500*
G01X228110Y123590D02*
G03X226719Y122867I0J-1700D01*
G01X228110Y123590D02*
X231890D01*
X232863Y123284D02*
G03X231890Y123590I-973J-1394D01*
G01X232863Y123284D02*
G03X233436I287J410D01*
G01X234409Y123590D02*
G03X233436Y123284I-0J-1700D01*
G01X234409Y123590D02*
X238189D01*
X239889Y121890D02*
G03X238189Y123590I-1700J-0D01*
G01X239889Y121890D02*
Y118740D01*
X239128Y117323D02*
G03X239889Y118740I-939J1417D01*
G01X239128Y117323D02*
G03X239166Y116466I276J-417D01*
G01X239335Y116362D02*
G03X239166Y116466I-978J-1391D01*
G01X239335Y116362D02*
G03X239622Y116271I287J409D01*
G01X243366*
G03X243720Y116417I0J500*
G01X244933Y117630*
G03X245079Y117984I-354J354*
G01X238975Y132067D02*
G03X239601Y132762I181J465D01*
G01X239368Y133398D02*
G03X239601Y132762I2632J602D01*
G01X239368Y133398D02*
G03X238762Y133772I-487J-112D01*
G01X238357Y133723D02*
G03X238762Y133772I0J1700D01*
G01X238357Y133723D02*
X234557D01*
X233591Y134024D02*
G03X234557Y133723I966J1399D01*
G01X233591Y134024D02*
G03X233023I-284J-412D01*
G01X232753Y133872D02*
G03X233023Y134024I-696J1551D01*
G01X232753Y133872D02*
G03X232457Y133415I204J-457D01*
G01Y132490*
G03X232753Y132034I500J0*
G01X233023Y131882D02*
G03X232753Y132034I-966J-1399D01*
G01X233023Y131882D02*
G03X233591I284J411D01*
G01X234557Y132183D02*
G03X233591Y131882I0J-1700D01*
G01X234557Y132183D02*
X238357D01*
X238975Y132067D02*
G03X238357Y132183I-618J-1584D01*
G01X229189Y175663D02*
G03X229555Y176504I0J500D01*
G01X229098Y177663D02*
G03X229555Y176504I1700J-0D01*
G01X229098Y177663D02*
Y178882D01*
G03X229075Y179035I-500J0*
G01X228898Y180163D02*
G03X229075Y179035I3700J-0D01*
G01X228898Y180163D02*
Y195032D01*
G03X228752Y195385I-500J-0*
G01Y195386D02*
X225425Y198713D01*
G03X225071Y198859I-354J-354*
G01X216417*
X213801Y199943D02*
G03X216417Y198859I2616J2616D01*
G01X213801Y199943D02*
X207069Y206675D01*
X206955Y206794D02*
G03X207069Y206675I2730J2497D01*
G01X206955Y206794D02*
G03X206086Y206457I-369J-337D01*
G01Y193499*
G03X206586Y192999I500J0*
G01X209291*
X210317Y192655D02*
G03X209291Y192999I-1026J-1356D01*
G01X210317Y192655D02*
G03X210850Y192610I302J398D01*
G01X213772Y185832D02*
G03X210850Y192610I-1217J3494D01*
G01X213772Y185832D02*
G03X213712Y184913I164J-472D01*
G01X211649Y179938D02*
G03X213712Y184913I851J2562D01*
G01X211649Y179938D02*
G03X210991Y179469I-158J-475D01*
G01X210050Y177967D02*
G03X210991Y179469I-759J1521D01*
G01X210050Y177967D02*
G03Y177072I224J-447D01*
G01X210825Y176284D02*
G03X210050Y177072I-1534J-733D01*
G01X210825Y176284D02*
G03X211508Y176056I451J215D01*
G01X211578Y171233D02*
G03X211508Y176056I1178J2429D01*
G01X211578Y171233D02*
G03X211360Y171283I-218J-450D01*
G01X211328*
G03X210865Y170972I0J-500*
G01X210050Y170093D02*
G03X210865Y170972I-759J1521D01*
G01X210050Y170093D02*
G03Y169198I224J-447D01*
G01X210865Y168320D02*
G03X210050Y169198I-1574J-643D01*
G01X210865Y168320D02*
G03X211328Y168009I463J189D01*
G01X214227*
X214266Y168008D02*
G03X214227Y168009I-39J-2299D01*
G01X214266Y168008D02*
G03X214274I8J500D01*
G01X217155*
G03X217612Y168304I0J500*
G01X217764Y168574D02*
G03X217612Y168304I1399J-966D01*
G01X217764Y168574D02*
G03Y169142I-411J284D01*
G01X217463Y170108D02*
G03X217764Y169142I1700J0D01*
G01X217463Y170108D02*
Y173908D01*
X218468Y175460D02*
G03X217463Y173908I695J-1552D01*
G01X218468Y175460D02*
G03X218763Y175916I-205J456D01*
G01Y177936*
G03X218541Y178352I-500J0*
G01X217788Y179764D02*
G03X218541Y178352I1700J-0D01*
G01X217788Y179764D02*
Y183544D01*
X218094Y184517D02*
G03X217788Y183544I1394J-973D01*
G01X218094Y184517D02*
G03Y185089I-410J286D01*
G01X217788Y186063D02*
G03X218094Y185089I1700J-0D01*
G01X217788Y186063D02*
Y189843D01*
X219488Y191543D02*
G03X217788Y189843I0J-1700D01*
G01X219488Y191543D02*
X222638D01*
X224338Y189843D02*
G03X222638Y191543I-1700J-0D01*
G01X224338Y189843D02*
Y186063D01*
X224032Y185089D02*
G03X224338Y186063I-1394J974D01*
G01X224032Y185089D02*
G03Y184517I410J-286D01*
G01X224338Y183544D02*
G03X224032Y184517I-1700J-0D01*
G01X224338Y183544D02*
Y179764D01*
X223585Y178352D02*
G03X224338Y179764I-947J1412D01*
G01X223585Y178352D02*
G03X223363Y177936I278J-416D01*
G01Y175916*
G03X223658Y175460I500J-0*
G01X224455Y174723D02*
G03X223658Y175460I-1492J-815D01*
G01X224455Y174723D02*
G03X224894Y174463I439J240D01*
G01X225089*
G03X225534Y174736I-0J500*
G01X227048Y175663D02*
G03X225534Y174736I0J-1700D01*
G01X227048Y175663D02*
X229189D01*
X331183Y206200D02*
Y241777D01*
G03X330276Y242068I-500J0*
G01X316990Y255471D02*
G03X330276Y242068I5494J-7841D01*
G01X316990Y255471D02*
G03X316703Y256380I-287J409D01*
G01X115666*
G03X115379Y255471I0J-500*
G01X102011Y242184D02*
G03X115379Y255471I7875J5446D01*
G01X102011Y242184D02*
G03X101100Y241899I-411J-285D01*
G01Y115565*
G03X102011Y115280I500J-0*
G01X115401Y102009D02*
G03X102011Y115280I-5515J7826D01*
G01X115401Y102009D02*
G03X115689Y101100I288J-409D01*
G01X138500*
G03X139000Y101600I-0J500*
G01Y120500*
X139500Y121000D02*
G03X139000Y120500I0J-500D01*
G01X139500Y121000D02*
X204500D01*
X205000Y120500D02*
G03X204500Y121000I-500J0D01*
G01X205000Y120500D02*
Y101600D01*
G03X205500Y101100I500J0*
G01X316681*
G03X316969Y102009I-0J500*
G01X330276Y115397D02*
G03X316969Y102009I-7792J-5562D01*
G01X330276Y115397D02*
G03X331183Y115687I407J290D01*
G01Y141800*
G03X330683Y142300I-500J-0*
G01X312200*
G03X311700Y141800I0J-500*
G01Y136500*
X310722Y134671D02*
G03X311700Y136500I-1222J1829D01*
G01X310722Y134671D02*
G03X310500Y134255I278J-416D01*
G01Y133500*
X293500*
Y134255*
G03X293278Y134671I-500J-0*
G01X292300Y136500D02*
G03X293278Y134671I2200J0D01*
G01X292300Y136500D02*
Y140363D01*
G03X291393Y140654I-500J0*
G01X290716Y140096D02*
G03X291393Y140654I-706J1547D01*
G01X290716Y140096D02*
G03X290424Y139642I208J-454D01*
G01Y139443*
G03X290487Y139201I500J0*
G01X285761D02*
G03X290487I2363J-1307D01*
G01X285761D02*
G03X285824Y139443I-437J242D01*
G01Y139629*
G03X285525Y140087I-500J0*
G01X284591Y141127D02*
G03X285525Y140087I1619J516D01*
G01X284591Y141127D02*
G03X283638I-477J-152D01*
G01X282622Y140054D02*
G03X283638Y141127I-604J1589D01*
G01X282622Y140054D02*
G03X282300Y139587I178J-467D01*
G01Y139049*
G03X282363Y138807I500J0*
G01X279303Y134892D02*
G03X282363Y138807I697J2608D01*
G01X279303Y134892D02*
G03X278678Y134345I-129J-484D01*
G01X275192Y131424D02*
G03X278678Y134345I808J2576D01*
G01X275192Y131424D02*
G03X274542Y130947I-150J-477D01*
G01Y128430*
X274241Y127464D02*
G03X274542Y128430I-1399J966D01*
G01X274241Y127464D02*
G03Y126896I411J-284D01*
G01X274542Y125930D02*
G03X274241Y126896I-1700J0D01*
G01X274542Y125930D02*
Y122130D01*
X273418Y120531D02*
G03X274542Y122130I-576J1599D01*
G01X273418Y120531D02*
G03X273087Y120060I169J-471D01*
G01Y113696*
G03X273316Y113276I500J-0*
G01X275302Y110495D02*
G03X273316Y113276I-4515J-1125D01*
G01X275302Y110495D02*
G03X276273I485J121D01*
G01Y108245D02*
G03Y110495I4514J1125D01*
G01Y108245D02*
G03X275302I-486J-120D01*
G01X266273D02*
G03X275302I4514J1125D01*
G01X266273D02*
G03X265302I-486J-120D01*
G01X258259Y113276D02*
G03X265302Y108245I2528J-3906D01*
G01X258259Y113276D02*
G03X258487Y113696I-272J420D01*
G01Y119995*
G03X258165Y120462I-500J-0*
G01X257067Y122052D02*
G03X258165Y120462I1700J0D01*
G01X257067Y122052D02*
Y125852D01*
X257368Y126818D02*
G03X257067Y125852I1399J-966D01*
G01X257368Y126818D02*
G03Y127386I-411J284D01*
G01X257067Y128352D02*
G03X257368Y127386I1700J0D01*
G01X257067Y128352D02*
Y132152D01*
X258029Y133683D02*
G03X257067Y132152I738J-1531D01*
G01X258029Y133683D02*
G03X258312Y134134I-217J451D01*
G01Y140812*
G03X258249Y141054I-500J-0*
G01X262975D02*
G03X258249I-2363J1307D01*
G01X262975D02*
G03X262912Y140812I437J-242D01*
G01Y134183*
G03X263220Y133722I500J0*
G01X264267Y132152D02*
G03X263220Y133722I-1700J0D01*
G01X264267Y132152D02*
Y128352D01*
X263966Y127386D02*
G03X264267Y128352I-1399J966D01*
G01X263966Y127386D02*
G03Y126818I411J-284D01*
G01X264267Y125852D02*
G03X263966Y126818I-1700J0D01*
G01X264267Y125852D02*
Y122052D01*
X263356Y120546D02*
G03X264267Y122052I-789J1506D01*
G01X263356Y120546D02*
G03X263087Y120103I231J-443D01*
G01Y113696*
G03X263316Y113276I500J-0*
G01X265302Y110495D02*
G03X263316Y113276I-4515J-1125D01*
G01X265302Y110495D02*
G03X266273I485J121D01*
G01X268259Y113276D02*
G03X266273Y110495I2528J-3906D01*
G01X268259Y113276D02*
G03X268487Y113696I-272J420D01*
G01Y120199*
G03X268227Y120638I-500J0*
G01X267342Y122130D02*
G03X268227Y120638I1700J0D01*
G01X267342Y122130D02*
Y125930D01*
X267643Y126896D02*
G03X267342Y125930I1399J-966D01*
G01X267643Y126896D02*
G03Y127464I-411J284D01*
G01X267342Y128430D02*
G03X267643Y127464I1700J0D01*
G01X267342Y128430D02*
Y132230D01*
X268347Y133781D02*
G03X267342Y132230I695J-1551D01*
G01X268347Y133781D02*
G03X268642Y134237I-205J456D01*
G01X268642D02*
Y134856D01*
G03X268578Y135100I-500J-0*
G01X271182Y139110D02*
G03X268578Y135100I-249J-2689D01*
G01X271182Y139110D02*
G03X271723Y139678I46J497D01*
G01X271700Y140000D02*
G03X271723Y139678I2300J0D01*
G01X271700Y140000D02*
Y162000D01*
X272374Y163626D02*
G03X271700Y162000I1626J-1626D01*
G01X272374Y163626D02*
X274711Y165963D01*
G03X274295Y166813I-354J354*
G01X274083Y166800D02*
G03X274295Y166813I-0J1700D01*
G01X274083Y166800D02*
X270933D01*
X269233Y168500D02*
G03X270933Y166800I1700J-0D01*
G01X269233Y168500D02*
Y172280D01*
X269300Y172752D02*
G03X269233Y172280I1633J-472D01*
G01X269300Y172752D02*
G03X268820Y173391I-480J139D01*
G01X267514*
G03X267114Y172591I-0J-500*
G01X267453Y171572D02*
G03X267114Y172591I-1700J-0D01*
G01X267453Y171572D02*
Y169800D01*
X265753Y168100D02*
G03X267453Y169800I0J1700D01*
G01X265753Y168100D02*
X261029D01*
X259329Y169800D02*
G03X261029Y168100I1700J0D01*
G01X259329Y169800D02*
Y170805D01*
G03X258523Y171201I-500J0*
G01X257452Y170758D02*
G03X258523Y171201I-275J2183D01*
G01X257452Y170758D02*
G03X257015Y170262I63J-496D01*
G01Y162610*
G03X257588Y162115I500J-0*
G01X257834Y162133D02*
G03X257588Y162115I0J-1700D01*
G01X257834Y162133D02*
X261614D01*
X263314Y160433D02*
G03X261614Y162133I-1700J-0D01*
G01X263314Y160433D02*
Y157284D01*
X262400Y155776D02*
G03X263314Y157284I-786J1508D01*
G01X262400Y155776D02*
G03X262382Y154899I231J-443D01*
G01X263236Y153425D02*
G03X262382Y154899I-1700J0D01*
G01X263236Y153425D02*
Y150276D01*
X261536Y148576D02*
G03X263236Y150276I-0J1700D01*
G01X261536Y148576D02*
X257755D01*
X257385Y148617D02*
G03X257755Y148576I370J1659D01*
G01X257385Y148617D02*
G03X256820Y148334I-109J-488D01*
G01X254815Y147040D02*
G03X256820Y148334I-0J2200D01*
G01X254815Y147040D02*
X252954D01*
G03X252600Y146894I-0J-500*
G01X251625Y145919*
G03X251479Y145566I354J-353*
G01Y144754*
Y116451*
X250542Y114188D02*
G03X251479Y116451I-2263J2263D01*
G01X250542Y114188D02*
X247162Y110808D01*
X244899Y109871D02*
G03X247162Y110808I-0J3200D01*
G01X244899Y109871D02*
X239622D01*
G03X239335Y109780I0J-500*
G01X238357Y109471D02*
G03X239335Y109780I0J1700D01*
G01X238357Y109471D02*
X234557D01*
X233591Y109772D02*
G03X234557Y109471I966J1399D01*
G01X233591Y109772D02*
G03X233023I-284J-412D01*
G01X232057Y109471D02*
G03X233023Y109772I0J1700D01*
G01X232057Y109471D02*
X228257D01*
X226557Y111171D02*
G03X228257Y109471I1700J-0D01*
G01X226557Y111171D02*
Y114971D01*
X227326Y116393D02*
G03X226557Y114971I931J-1422D01*
G01X227326Y116393D02*
G03X227292Y117250I-274J418D01*
G01X226678Y117824D02*
G03X227292Y117250I1432J916D01*
G01X226678Y117824D02*
G03X226257Y118054I-421J-270D01*
G01X222441*
X220815Y118728D02*
G03X222441Y118054I1626J1626D01*
G01X220815Y118728D02*
X218452Y121090D01*
X217779Y122717D02*
G03X218452Y121090I2300J-0D01*
G01X217779Y122717D02*
Y127856D01*
G03X217632Y128209I-500J-0*
G01X214076Y131766*
G03X213722Y131913I-354J-353*
G01X211328*
G03X210865Y131602I0J-500*
G01X209291Y130544D02*
G03X210865Y131602I0J1700D01*
G01X209291Y130544D02*
X197480D01*
X195780Y132244D02*
G03X197480Y130544I1700J0D01*
G01X195780Y132244D02*
Y136181D01*
X196721Y137702D02*
G03X195780Y136181I759J-1521D01*
G01X196721Y137702D02*
G03Y138597I-223J448D01*
G01X195780Y140118D02*
G03X196721Y138597I1700J0D01*
G01X195780Y140118D02*
Y144055D01*
X196721Y145576D02*
G03X195780Y144055I759J-1521D01*
G01X196721Y145576D02*
G03Y146471I-223J448D01*
G01X195780Y147992D02*
G03X196721Y146471I1700J0D01*
G01X195780Y147992D02*
Y151929D01*
X196721Y153450D02*
G03X195780Y151929I759J-1521D01*
G01X196721Y153450D02*
G03Y154345I-223J448D01*
G01X195906Y155224D02*
G03X196721Y154345I1574J642D01*
G01X195906Y155224D02*
G03X195443Y155535I-463J-189D01*
G01X192530*
X190904Y156208D02*
G03X192530Y155535I1626J1627D01*
G01X190904Y156208D02*
X185104Y162008D01*
G03X184889Y162135I-353J-353*
G01X188230Y165476D02*
G03X184889Y162135I-2595J-746D01*
G01X188230Y165476D02*
G03X188357Y165261I480J138D01*
G01X193337Y160281*
G03X193690Y160135I353J354*
G01X195443*
G03X195906Y160446I0J500*
G01X196721Y161324D02*
G03X195906Y160446I759J-1521D01*
G01X196721Y161324D02*
G03Y162219I-223J448D01*
G01X195780Y163740D02*
G03X196721Y162219I1700J0D01*
G01X195780Y163740D02*
Y167677D01*
X196721Y169198D02*
G03X195780Y167677I759J-1521D01*
G01X196721Y169198D02*
G03Y170093I-223J448D01*
G01X195780Y171614D02*
G03X196721Y170093I1700J0D01*
G01X195780Y171614D02*
Y175551D01*
X196721Y177072D02*
G03X195780Y175551I759J-1521D01*
G01X196721Y177072D02*
G03Y177967I-223J448D01*
G01X195780Y179488D02*
G03X196721Y177967I1700J0D01*
G01X195780Y179488D02*
Y183425D01*
X196721Y184946D02*
G03X195780Y183425I759J-1521D01*
G01X196721Y184946D02*
G03Y185841I-223J448D01*
G01X195780Y187362D02*
G03X196721Y185841I1700J0D01*
G01X195780Y187362D02*
Y191299D01*
X197480Y192999D02*
G03X195780Y191299I0J-1700D01*
G01X197480Y192999D02*
X200186D01*
G03X200686Y193499I-0J500*
G01Y210113*
G03X200539Y210467I-500J0*
G01X197002Y214004*
G03X196649Y214150I-353J-354*
G01X182031*
G03X181639Y213961I-0J-500*
G01X173477Y215726D02*
G03X181639Y213961I4515J1124D01*
G01X173477Y215726D02*
G03X172507I-485J-121D01*
G01X163477D02*
G03X172507I4515J1124D01*
G01X163477D02*
G03X162507I-485J-121D01*
G01X153477D02*
G03X162507I4515J1124D01*
G01X153477D02*
G03X152507I-485J-121D01*
G01Y217975D02*
G03Y215726I-4515J-1125D01*
G01Y217975D02*
G03X153477I485J121D01*
G01X162507D02*
G03X153477I-4515J-1125D01*
G01X162507D02*
G03X163477I485J121D01*
G01X172507D02*
G03X163477I-4515J-1125D01*
G01X172507D02*
G03X173477I485J121D01*
G01X175103Y220497D02*
G03X173477Y217975I2889J-3647D01*
G01X175103Y220497D02*
G03X175292Y220889I-311J392D01*
G01Y222230*
G03X175146Y222584I-500J0*
G01X173076Y224654*
G03X172723Y224800I-353J-354*
G01X165220*
G03X164896Y224681I0J-500*
G01Y230319D02*
G03Y224681I-2396J-2819D01*
G01Y230319D02*
G03X165220Y230200I324J381D01*
G01X174048*
X175957Y229409D02*
G03X174048Y230200I-1909J-1909D01*
G01X175957Y229409D02*
X179901Y225465D01*
X180692Y223556D02*
G03X179901Y225465I-2700J-0D01*
G01X180692Y223556D02*
Y220889D01*
G03X180882Y220497I500J0*
G01X181639Y219740D02*
G03X180882Y220497I-3647J-2890D01*
G01X181639Y219740D02*
G03X182031Y219550I392J310D01*
G01X197974*
X199883Y218760D02*
G03X197974Y219550I-1909J-1910D01*
G01X199883Y218760D02*
X205131Y213511D01*
G03X205985Y213865I354J354*
G01Y227379*
G03X205980Y227447I-500J0*
G01X205946Y227953D02*
G03X205980Y227447I3700J-0D01*
G01X205946Y227953D02*
Y233073D01*
G03X204978Y233251I-500J0*
G01Y236985D02*
G03Y233251I-4899J-1867D01*
G01Y236985D02*
G03X205946Y237163I468J178D01*
G01Y244370*
X207029Y246986D02*
G03X205946Y244370I2617J-2616D01*
G01X207029Y246986D02*
X211006Y250963D01*
X213622Y252046D02*
G03X211006Y250963I0J-3700D01*
G01X213622Y252046D02*
X237638D01*
X240254Y250963D02*
G03X237638Y252046I-2616J-2617D01*
G01X240254Y250963D02*
X242695Y248522D01*
X243779Y245906D02*
G03X242695Y248522I-3700J-0D01*
G01X243779Y245906D02*
Y239035D01*
G03X243913Y238694I500J0*
G01X236244D02*
G03X243913I3835J-3576D01*
G01X236244D02*
G03X236379Y239035I-365J341D01*
G01Y244146*
G03X235879Y244646I-500J0*
G01X215362*
G03X215008Y244500I-0J-500*
G01X213492Y242984*
G03X213346Y242630I354J-354*
G01Y228487*
G03X213350Y228419I500J0*
G01X213385Y227913D02*
G03X213350Y228419I-3700J0D01*
G01X213385Y227913D02*
Y211031D01*
G03X213532Y210677I500J0*
G01X217803Y206406*
G03X218157Y206259I354J353*
G01X226811*
X229427Y205175D02*
G03X226811Y206259I-2616J-2616D01*
G01X229427Y205175D02*
X235215Y199388D01*
X236298Y196772D02*
G03X235215Y199388I-3700J-0D01*
G01X236298Y196772D02*
Y180163D01*
X236122Y179035D02*
G03X236298Y180163I-3524J1128D01*
G01X236122Y179035D02*
G03X236098Y178882I476J-153D01*
G01Y177663*
X235642Y176504D02*
G03X236098Y177663I-1244J1159D01*
G01X235642Y176504D02*
G03X236008Y175663I366J-341D01*
G01X238148*
X239848Y173963D02*
G03X238148Y175663I-1700J-0D01*
G01X239848Y173963D02*
Y170363D01*
X238148Y168663D02*
G03X239848Y170363I0J1700D01*
G01X238148Y168663D02*
X234548D01*
X233042Y169576D02*
G03X234548Y168663I1506J787D01*
G01X233042Y169576D02*
G03X232155I-444J-232D01*
G01X231702Y169029D02*
G03X232155Y169576I-1054J1334D01*
G01X231702Y169029D02*
G03X231512Y168637I310J-392D01*
G01Y167923*
G03X231808Y167467I500J0*
G01X232078Y167315D02*
G03X231808Y167467I-966J-1399D01*
G01X232078Y167315D02*
G03X232646I284J411D01*
G01X233612Y167616D02*
G03X232646Y167315I0J-1700D01*
G01X233612Y167616D02*
X237412D01*
X239112Y165916D02*
G03X237412Y167616I-1700J-0D01*
G01X239112Y165916D02*
Y162116D01*
X237412Y160416D02*
G03X239112Y162116I0J1700D01*
G01X237412Y160416D02*
X233612D01*
X232646Y160717D02*
G03X233612Y160416I966J1399D01*
G01X232646Y160717D02*
G03X232078I-284J-412D01*
G01X231112Y160416D02*
G03X232078Y160717I0J1700D01*
G01X231112Y160416D02*
X227312D01*
X225612Y162116D02*
G03X227312Y160416I1700J-0D01*
G01X225612Y162116D02*
Y163338D01*
G03X224624Y163445I-500J0*
G01X222963Y162108D02*
G03X224624Y163445I-0J1700D01*
G01X222963Y162108D02*
X219163D01*
X217612Y163113D02*
G03X219163Y162108I1551J695D01*
G01X217612Y163113D02*
G03X217155Y163408I-457J-205D01*
G01X214227*
X214189Y163409D02*
G03X214227Y163408I38J2299D01*
G01X214189Y163409D02*
G03X214180I-9J-500D01*
G01X211328*
G03X210865Y163098I0J-500*
G01X210050Y162219D02*
G03X210865Y163098I-759J1521D01*
G01X210050Y162219D02*
G03Y161324I224J-447D01*
G01X210991Y159803D02*
G03X210050Y161324I-1700J0D01*
G01X210991Y159803D02*
Y155866D01*
X210050Y154345D02*
G03X210991Y155866I-759J1521D01*
G01X210050Y154345D02*
G03Y153450I224J-447D01*
G01X210865Y152572D02*
G03X210050Y153450I-1574J-643D01*
G01X210865Y152572D02*
G03X211328Y152261I463J189D01*
G01X213189*
X214815Y151587D02*
G03X213189Y152261I-1626J-1626D01*
G01X214815Y151587D02*
X218602Y147801D01*
G03X218955Y147654I353J353*
G01X226268*
G03X226720Y147941I-0J500*
G01X228257Y148915D02*
G03X226720Y147941I0J-1700D01*
G01X228257Y148915D02*
X232057D01*
X233023Y148614D02*
G03X232057Y148915I-966J-1399D01*
G01X233023Y148614D02*
G03X233591I284J411D01*
G01X234557Y148915D02*
G03X233591Y148614I0J-1700D01*
G01X234557Y148915D02*
X238357D01*
X239908Y147910D02*
G03X238357Y148915I-1551J-695D01*
G01X239908Y147910D02*
G03X240365Y147615I457J205D01*
G01X244721*
G03X245202Y147978I0J500*
G01X246016Y149361D02*
G03X245202Y147978I2263J-2263D01*
G01X246016Y149361D02*
X247091Y150435D01*
G03X247237Y150789I-354J354*
G01Y160871*
G03X246737Y161371I-500J-0*
G01X245697*
X243497Y163571D02*
G03X245697Y161371I2200J-0D01*
G01X243497Y163571D02*
Y183597D01*
G03X243350Y183950I-500J-0*
G01X241643Y185658*
G03X241433Y185783I-354J-354*
G01X246043Y190393D02*
G03X241433Y185783I-3543J-1067D01*
G01X246043Y190393D02*
G03X246168Y190183I479J144D01*
G01X247497Y188854*
G03X247851Y188708I354J354*
G01X265642*
X267407Y187821D02*
G03X265642Y188708I-1765J-1313D01*
G01X267407Y187821D02*
G03X268308Y188120I401J299D01*
G01Y188587*
G03X268234Y188847I-500J-0*
G01X266707Y191346*
G03X266280Y191585I-427J-261*
G01X263542*
X261842Y193285D02*
G03X263542Y191585I1700J0D01*
G01X261842Y193285D02*
Y201159D01*
X263339Y202847D02*
G03X261842Y201159I203J-1688D01*
G01X263339Y202847D02*
G03X263779Y203344I-60J497D01*
G01Y211648*
G03X263632Y212001I-500J-0*
G01X257462Y218171*
X256379Y220787D02*
G03X257462Y218171I3700J0D01*
G01X256379Y220787D02*
Y231201D01*
G03X256244Y231542I-500J-0*
G01X263913D02*
G03X256244I-3834J3576D01*
G01X263913D02*
G03X263779Y231201I366J-341D01*
G01Y222527*
G03X263925Y222174I500J0*
G01X270095Y216004*
X271179Y213387D02*
G03X270095Y216004I-3700J0D01*
G01X271179Y213387D02*
Y203344D01*
G03X271619Y202847I500J-0*
G01X273116Y201159D02*
G03X271619Y202847I-1700J0D01*
G01X273116Y201159D02*
Y197108D01*
G03X273189Y196847I500J0*
G01X273373Y196546*
G03X274300Y196807I427J261*
G01Y203500*
X276500Y205700D02*
G03X274300Y203500I0J-2200D01*
G01X276500Y205700D02*
X282406D01*
G03X282906Y206200I0J500*
G01Y209719*
G03X282760Y210072I-500J-0*
G01X274732Y218100*
X274087Y219656D02*
G03X274732Y218100I2200J-0D01*
G01X274087Y219656D02*
Y238909D01*
X276287Y241109D02*
G03X274087Y238909I0J-2200D01*
G01X276287Y241109D02*
X284894D01*
X287094Y238909D02*
G03X284894Y241109I-2200J0D01*
G01X287094Y238909D02*
Y222132D01*
G03X287240Y221778I500J-0*
G01X292761Y216257*
G03X293615Y216611I354J354*
G01Y238713*
X295815Y240913D02*
G03X293615Y238713I-0J-2200D01*
G01X295815Y240913D02*
X303398D01*
X305598Y238713D02*
G03X303398Y240913I-2200J-0D01*
G01X305598Y238713D02*
Y206200D01*
G03X306098Y205700I500J0*
G01X330683*
G03X331183Y206200I0J500*
G01Y146200D02*
Y201800D01*
G03X330683Y202300I-500J-0*
G01X306098*
G03X305598Y201800I-0J-500*
G01Y199548*
G03X306141Y199050I500J0*
G01X306290Y199057D02*
G03X306141Y199050I0J-1700D01*
G01X306290Y199057D02*
X310071D01*
X311771Y197357D02*
G03X310071Y199057I-1700J-0D01*
G01X311771Y197357D02*
Y194207D01*
X310071Y192507D02*
G03X311771Y194207I-0J1700D01*
G01X310071Y192507D02*
X306290D01*
X306141Y192514D02*
G03X306290Y192507I149J1693D01*
G01X306141Y192514D02*
G03X305598Y192016I-43J-498D01*
G01Y183059*
X303398Y180859D02*
G03X305598Y183059I-0J2200D01*
G01X303398Y180859D02*
X295815D01*
X294336Y181431D02*
G03X295815Y180859I1479J1628D01*
G01X294336Y181431D02*
G03X293698Y181460I-337J-370D01*
G01X292374Y181017D02*
G03X293698Y181460I0J2200D01*
G01X292374Y181017D02*
X285106D01*
X282906Y183217D02*
G03X285106Y181017I2200J-0D01*
G01X282906Y183217D02*
Y191823D01*
G03X282406Y192323I-500J0*
G01X278639*
X278300Y192358D02*
G03X278639Y192323I339J1665D01*
G01X278300Y192358D02*
G03X277700Y191868I-100J-490D01*
G01Y180200*
G03X278200Y179700I500J0*
G01X281500*
X283700Y177500D02*
G03X281500Y179700I-2200J0D01*
G01X283700Y177500D02*
Y172200D01*
G03X284200Y171700I500J0*
G01X293500*
X295700Y169512D02*
G03X293500Y171700I-2200J-12D01*
G01X295700Y169512D02*
G03X296200Y169015I500J3D01*
G01X297697*
X298343Y168887D02*
G03X297697Y169015I-646J-1572D01*
G01X298343Y168887D02*
G03X298897Y169007I190J463D01*
G01X300500Y169700D02*
G03X298897Y169007I0J-2200D01*
G01X300500Y169700D02*
X303500D01*
X305700Y167500D02*
G03X303500Y169700I-2200J0D01*
G01X305700Y167500D02*
Y153835D01*
G03X306053Y153357I500J-0*
G01X307251Y151732D02*
G03X306053Y153357I-1700J0D01*
G01X307251Y151732D02*
Y147952D01*
X306945Y146979D02*
G03X307251Y147952I-1394J973D01*
G01X306945Y146979D02*
G03Y146407I410J-286D01*
G01X307251Y145434D02*
G03X306945Y146407I-1700J-0D01*
G01X307251Y145434D02*
Y141653D01*
X305551Y139953D02*
G03X307251Y141653I0J1700D01*
G01X305551Y139953D02*
X302402D01*
X300728Y141353D02*
G03X302402Y139953I1674J300D01*
G01X300728Y141353D02*
G03X299744I-492J-88D01*
G01X298071Y139953D02*
G03X299744Y141353I-0J1700D01*
G01X298071Y139953D02*
X296200D01*
G03X295700Y139453I0J-500*
G01Y137000*
G03X296200Y136500I500J0*
G01X307800*
G03X308300Y137000I-0J500*
G01Y143500*
X310500Y145700D02*
G03X308300Y143500I0J-2200D01*
G01X310500Y145700D02*
X310580D01*
G03X310905Y146580I0J500*
G01X310308Y147874D02*
G03X310905Y146580I1700J0D01*
G01X310308Y147874D02*
Y151024D01*
X312008Y152724D02*
G03X310308Y151024I-0J-1700D01*
G01X312008Y152724D02*
X321850D01*
X323550Y151024D02*
G03X321850Y152724I-1700J-0D01*
G01X323550Y151024D02*
Y147874D01*
X322953Y146580D02*
G03X323550Y147874I-1103J1294D01*
G01X322953Y146580D02*
G03X323278Y145700I325J-380D01*
G01X330683*
G03X331183Y146200I0J500*
G01X282906Y199373D02*
Y201800D01*
G03X282406Y202300I-500J-0*
G01X278200*
G03X277700Y201800I0J-500*
G01Y199328*
G03X278300Y198838I500J0*
G01X278639Y198873D02*
G03X278300Y198838I0J-1700D01*
G01X278639Y198873D02*
X282406D01*
G03X282906Y199373I0J500*
G01X323550Y131339D02*
Y128189D01*
X321850Y126489D02*
G03X323550Y128189I0J1700D01*
G01X321850Y126489D02*
X312008D01*
X310308Y128189D02*
G03X312008Y126489I1700J-0D01*
G01X310308Y128189D02*
Y131339D01*
X310898Y132626D02*
G03X310308Y131339I1110J-1287D01*
G01X310898Y132626D02*
G03X311011Y132767I-326J379D01*
X311182Y132825I-71J495*
G01X312008Y133039D02*
G03X311182Y132825I-0J-1700D01*
G01X312008Y133039D02*
X321850D01*
X323550Y131339D02*
G03X321850Y133039I-1700J-0D01*
G01X173635Y242025D02*
G03Y244274I4515J1125D01*
G01Y242025D02*
G03X172664I-485J-121D01*
G01X163635D02*
G03X172664I4515J1125D01*
G01X163635D02*
G03X162664I-485J-121D01*
G01X153635D02*
G03X162664I4515J1125D01*
G01X153635D02*
G03X152664I-485J-121D01*
G01X144244Y240621D02*
G03X152664Y242025I3906J2529D01*
G01X144244Y240621D02*
G03X143824Y240850I-420J-271D01*
G01X143365*
G03X143011Y240703I-0J-500*
G01X142171Y239863*
G03X142024Y239509I353J-354*
G01Y224467*
G03X142130Y224159I500J-0*
G01X137303Y222379D02*
G03X142130Y224159I2697J121D01*
G01X137303Y222379D02*
G03X136521Y222769I-500J-23D01*
G01X132637Y226307D02*
G03X136521Y222769I2363J-1307D01*
G01X132637Y226307D02*
G03X132700Y226549I-437J242D01*
G01Y248819*
X133374Y250445D02*
G03X132700Y248819I1626J-1626D01*
G01X133374Y250445D02*
X136681Y253752D01*
X138307Y254426D02*
G03X136681Y253752I0J-2300D01*
G01X138307Y254426D02*
X155827D01*
X157453Y253752D02*
G03X155827Y254426I-1626J-1626D01*
G01X157453Y253752D02*
X159776Y251430D01*
X160450Y249803D02*
G03X159776Y251430I-2300J0D01*
G01X160450Y249803D02*
Y247475D01*
G03X160678Y247055I500J0*
G01X162664Y244274D02*
G03X160678Y247055I-4514J-1124D01*
G01X162664Y244274D02*
G03X163635I486J121D01*
G01X172664D02*
G03X163635I-4514J-1124D01*
G01X172664D02*
G03X173635I486J121D01*
G01X110795Y136496D02*
Y128622D01*
X109094Y126922D02*
G03X110795Y128622I0J1700D01*
G01X109094Y126922D02*
X105157D01*
X103457Y128622D02*
G03X105157Y126922I1700J0D01*
G01X103457Y128622D02*
Y136496D01*
X105157Y138196D02*
G03X103457Y136496I0J-1700D01*
G01X105157Y138196D02*
X109094D01*
X110795Y136496D02*
G03X109094Y138196I-1701J0D01*
G01X111188Y169567D02*
Y161693D01*
X109488Y159993D02*
G03X111188Y161693I0J1700D01*
G01X109488Y159993D02*
X104764D01*
X103064Y161693D02*
G03X104764Y159993I1700J-0D01*
G01X103064Y161693D02*
Y169567D01*
X104764Y171267D02*
G03X103064Y169567I-0J-1700D01*
G01X104764Y171267D02*
X109488D01*
X111188Y169567D02*
G03X109488Y171267I-1700J-0D01*
G01X128905Y136496D02*
Y128622D01*
X127205Y126922D02*
G03X128905Y128622I-0J1700D01*
G01X127205Y126922D02*
X122480D01*
X120780Y128622D02*
G03X122480Y126922I1700J0D01*
G01X120780Y128622D02*
Y136496D01*
X122480Y138196D02*
G03X120780Y136496I0J-1700D01*
G01X122480Y138196D02*
X127205D01*
X128905Y136496D02*
G03X127205Y138196I-1700J0D01*
G01X165480Y174463D02*
G03X160754I-2363J1307D01*
G01X165480D02*
G03X165417Y174221I437J-242D01*
G01Y151884*
X164743Y150258D02*
G03X165417Y151884I-1626J1626D01*
G01X164743Y150258D02*
X162828Y148343D01*
X161202Y147669D02*
G03X162828Y148343I0J2300D01*
G01X161202Y147669D02*
X150173D01*
G03X150135Y147667I0J-500*
G01X149957Y147661D02*
G03X150135Y147667I0J2300D01*
G01X149957Y147661D02*
X148336D01*
G03X147873Y147350I0J-500*
G01X147058Y146471D02*
G03X147873Y147350I-759J1521D01*
G01X147058Y146471D02*
G03Y145576I224J-447D01*
G01X147737Y144962D02*
G03X147058Y145576I-1438J-907D01*
G01X147737Y144962D02*
G03X148156Y144728I423J266D01*
G01X153473Y144676*
G03X153716Y144736I5J500*
G01X153670Y140011D02*
G03X153716Y144736I1330J2350D01*
G01X153670Y140011D02*
G03X153428Y140076I-247J-435D01*
G01X148448Y140125*
G03X147956Y139737I-5J-500*
G01X147058Y138597D02*
G03X147956Y139737I-759J1521D01*
G01X147058Y138597D02*
G03Y137702I224J-447D01*
G01X147873Y136824D02*
G03X147058Y137702I-1574J-643D01*
G01X147873Y136824D02*
G03X148336Y136513I463J189D01*
G01X150838*
G03X151089Y136580I0J500*
G01X151181Y131855D02*
G03X151089Y136580I1260J2388D01*
G01X151181Y131855D02*
G03X150948Y131913I-233J-442D01*
G01X148336*
G03X147873Y131602I0J-500*
G01X146299Y130544D02*
G03X147873Y131602I0J1700D01*
G01X146299Y130544D02*
X134488D01*
X132788Y132244D02*
G03X134488Y130544I1700J0D01*
G01X132788Y132244D02*
Y136181D01*
X133729Y137702D02*
G03X132788Y136181I759J-1521D01*
G01X133729Y137702D02*
G03Y138597I-223J448D01*
G01X132788Y140118D02*
G03X133729Y138597I1700J0D01*
G01X132788Y140118D02*
Y144055D01*
X133729Y145576D02*
G03X132788Y144055I759J-1521D01*
G01X133729Y145576D02*
G03Y146471I-223J448D01*
G01X132788Y147992D02*
G03X133729Y146471I1700J0D01*
G01X132788Y147992D02*
Y151929D01*
X133729Y153450D02*
G03X132788Y151929I759J-1521D01*
G01X133729Y153450D02*
G03Y154345I-223J448D01*
G01X132788Y155866D02*
G03X133729Y154345I1700J0D01*
G01X132788Y155866D02*
Y159803D01*
X133729Y161324D02*
G03X132788Y159803I759J-1521D01*
G01X133729Y161324D02*
G03Y162219I-223J448D01*
G01X132914Y163098D02*
G03X133729Y162219I1574J642D01*
G01X132914Y163098D02*
G03X132451Y163409I-463J-189D01*
G01X129405*
G03X128905Y162909I-0J-500*
G01Y161693*
X127205Y159993D02*
G03X128905Y161693I-0J1700D01*
G01X127205Y159993D02*
X122480D01*
X120780Y161693D02*
G03X122480Y159993I1700J-0D01*
G01X120780Y161693D02*
Y169567D01*
X122233Y171249D02*
G03X120780Y169567I247J-1682D01*
G01X122233Y171249D02*
G03X122661Y171744I-72J495D01*
G01Y175517*
G03X122161Y176017I-500J-0*
G01X118937*
X117963Y176323D02*
G03X118937Y176017I974J1394D01*
G01X117963Y176323D02*
G03X117391I-286J-410D01*
G01X116418Y176017D02*
G03X117391Y176323I-0J1700D01*
G01X116418Y176017D02*
X112638D01*
X110938Y177717D02*
G03X112638Y176017I1700J-0D01*
G01X110938Y177717D02*
Y180866D01*
X112638Y182566D02*
G03X110938Y180866I-0J-1700D01*
G01X112638Y182566D02*
X116418D01*
X117391Y182260D02*
G03X116418Y182566I-973J-1394D01*
G01X117391Y182260D02*
G03X117963I286J410D01*
G01X118937Y182566D02*
G03X117963Y182260I-0J-1700D01*
G01X118937Y182566D02*
X122717D01*
X124170Y181748D02*
G03X122717Y182566I-1453J-882D01*
G01X124170Y181748D02*
G03X124476Y181522I428J259D01*
G01X125094Y181267D02*
G03X124476Y181522I-1177J-1976D01*
G01X125094Y181267D02*
G03X125850Y181697I256J430D01*
G01Y184195*
G03X125703Y184548I-500J-0*
G01X125493Y184758*
G03X125139Y184905I-354J-353*
G01X124932*
G03X124475Y184609I-0J-500*
G01X122924Y183605D02*
G03X124475Y184609I0J1700D01*
G01X122924Y183605D02*
X119124D01*
X118158Y183906D02*
G03X119124Y183605I966J1399D01*
G01X118158Y183906D02*
G03X117590I-284J-412D01*
G01X116624Y183605D02*
G03X117590Y183906I0J1700D01*
G01X116624Y183605D02*
X112824D01*
X111273Y184609D02*
G03X112824Y183605I1551J696D01*
G01X111273Y184609D02*
G03X110817Y184905I-456J-204D01*
G01X110197*
X108570Y185578D02*
G03X110197Y184905I1627J1627D01*
G01X108570Y185578D02*
X105500Y188649D01*
X104826Y190276D02*
G03X105500Y188649I2300J-0D01*
G01X104826Y190276D02*
Y201614D01*
X105500Y203241D02*
G03X104826Y201614I1626J-1627D01*
G01X105500Y203241D02*
X108059Y205800D01*
X109685Y206473D02*
G03X108059Y205800I0J-2300D01*
G01X109685Y206473D02*
X122069D01*
G03X122422Y206620I-0J500*
G01X122475Y206672*
G03X122621Y207026I-354J354*
G01Y212958*
G03X122393Y213378I-500J-0*
G01X120406Y216159D02*
G03X122393Y213378I4515J1124D01*
G01X120406Y216159D02*
G03X119436I-485J-121D01*
G01Y218408D02*
G03Y216159I-4515J-1125D01*
G01Y218408D02*
G03X120406I485J121D01*
G01X127450Y213378D02*
G03X120406Y218408I-2529J3905D01*
G01X127450Y213378D02*
G03X127221Y212958I271J-420D01*
G01Y205866*
X126548Y204240D02*
G03X127221Y205866I-1627J1626D01*
G01X126548Y204240D02*
X124855Y202547D01*
X123228Y201873D02*
G03X124855Y202547I0J2300D01*
G01X123228Y201873D02*
X110845D01*
G03X110491Y201727I-0J-500*
G01X109572Y200808*
G03X109426Y200454I354J-354*
G01Y191435*
G03X109572Y191082I500J0*
G01X110657Y189997*
G03X111423Y190067I354J354*
G01X112824Y190805D02*
G03X111423Y190067I0J-1700D01*
G01X112824Y190805D02*
X116624D01*
X117590Y190504D02*
G03X116624Y190805I-966J-1399D01*
G01X117590Y190504D02*
G03X118158I284J411D01*
G01X119124Y190805D02*
G03X118158Y190504I0J-1700D01*
G01X119124Y190805D02*
X122924D01*
X124475Y189800D02*
G03X122924Y190805I-1551J-695D01*
G01X124475Y189800D02*
G03X124932Y189505I457J205D01*
G01X126299*
X127589Y189109D02*
G03X126299Y189505I-1290J-1904D01*
G01X127589Y189109D02*
G03X128369Y189523I280J414D01*
G01Y192147*
G03X128223Y192501I-500J0*
G01X126832Y193892*
G03X126478Y194039I-354J-353*
G01X124932*
G03X124475Y193743I-0J-500*
G01X122924Y192739D02*
G03X124475Y193743I0J1700D01*
G01X122924Y192739D02*
X119124D01*
X118158Y193040D02*
G03X119124Y192739I966J1399D01*
G01X118158Y193040D02*
G03X117590I-284J-412D01*
G01X116624Y192739D02*
G03X117590Y193040I0J1700D01*
G01X116624Y192739D02*
X112824D01*
X111124Y194439D02*
G03X112824Y192739I1700J-0D01*
G01X111124Y194439D02*
Y198239D01*
X112824Y199939D02*
G03X111124Y198239I0J-1700D01*
G01X112824Y199939D02*
X116624D01*
X117590Y199638D02*
G03X116624Y199939I-966J-1399D01*
G01X117590Y199638D02*
G03X118158I284J411D01*
G01X119124Y199939D02*
G03X118158Y199638I0J-1700D01*
G01X119124Y199939D02*
X122924D01*
X124475Y198934D02*
G03X122924Y199939I-1551J-695D01*
G01X124475Y198934D02*
G03X124932Y198639I457J205D01*
G01X127638*
X129264Y197965D02*
G03X127638Y198639I-1626J-1626D01*
G01X129264Y197965D02*
X132296Y194933D01*
X132969Y193307D02*
G03X132296Y194933I-2300J0D01*
G01X132969Y193307D02*
Y193249D01*
G03X133701Y192806I500J0*
G01X134488Y192999D02*
G03X133701Y192806I0J-1700D01*
G01X134488Y192999D02*
X146299D01*
X147999Y191299D02*
G03X146299Y192999I-1700J0D01*
G01X147999Y191299D02*
Y187362D01*
X147058Y185841D02*
G03X147999Y187362I-759J1521D01*
G01X147058Y185841D02*
G03Y184946I224J-447D01*
G01X147999Y183425D02*
G03X147058Y184946I-1700J0D01*
G01X147999Y183425D02*
Y179488D01*
X147058Y177967D02*
G03X147999Y179488I-759J1521D01*
G01X147058Y177967D02*
G03Y177072I224J-447D01*
G01X147999Y175551D02*
G03X147058Y177072I-1700J0D01*
G01X147999Y175551D02*
Y171614D01*
X147058Y170093D02*
G03X147999Y171614I-759J1521D01*
G01X147058Y170093D02*
G03Y169198I224J-447D01*
G01X147999Y167677D02*
G03X147058Y169198I-1700J0D01*
G01X147999Y167677D02*
Y163740D01*
X147058Y162219D02*
G03X147999Y163740I-759J1521D01*
G01X147058Y162219D02*
G03Y161324I224J-447D01*
G01X147955Y160187D02*
G03X147058Y161324I-1656J-384D01*
G01X147955Y160187D02*
G03X148442Y159800I487J113D01*
G01X148451*
G03X148693Y159863I-0J500*
G01Y155137D02*
G03Y159863I1307J2363D01*
G01Y155137D02*
G03X148451Y155200I-242J-437D01*
G01X148165*
G03X147741Y154965I-0J-500*
G01X147058Y154345D02*
G03X147741Y154965I-759J1521D01*
G01X147058Y154345D02*
G03Y153450I224J-447D01*
G01X147873Y152572D02*
G03X147058Y153450I-1574J-643D01*
G01X147873Y152572D02*
G03X148336Y152261I463J189D01*
G01X149749*
G03X149788Y152262I0J500*
G01X149965Y152269D02*
G03X149788Y152262I0J-2300D01*
G01X149965Y152269D02*
X160042D01*
G03X160396Y152415I0J500*
G01X160671Y152690*
G03X160817Y153044I-354J354*
G01Y174221*
G03X160754Y174463I-500J-0*
G01X195452Y203767D02*
G03X195474Y208492I1318J2357D01*
G01X195452Y203767D02*
G03X195208Y203831I-244J-436D01*
G01X193761*
G03X193711Y202833I-0J-500*
G01X195243Y201142D02*
G03X193711Y202833I-1700J-0D01*
G01X195243Y201142D02*
Y193268D01*
X194195Y191698D02*
G03X195243Y193268I-652J1570D01*
G01X194195Y191698D02*
G03X193887Y191236I192J-462D01*
G01Y187960*
X193213Y186334D02*
G03X193887Y187960I-1626J1626D01*
G01X193213Y186334D02*
X191373Y184494D01*
X189747Y183820D02*
G03X191373Y184494I0J2300D01*
G01X189747Y183820D02*
X154049D01*
G03X153807Y183757I0J-500*
G01Y188483D02*
G03Y183757I-1307J-2363D01*
G01Y188483D02*
G03X154049Y188420I242J437D01*
G01X188587*
G03X188941Y188566I0J500*
G01X189141Y188766*
G03X189287Y189120I-354J354*
G01Y191226*
G03X188973Y191690I-500J-0*
G01X188085Y192509D02*
G03X188973Y191690I1521J759D01*
G01X188085Y192509D02*
G03X187190I-447J-224D01*
G01X185669Y191568D02*
G03X187190Y192509I0J1700D01*
G01X185669Y191568D02*
X181732D01*
X180211Y192509D02*
G03X181732Y191568I1521J759D01*
G01X180211Y192509D02*
G03X179316I-447J-224D01*
G01X177795Y191568D02*
G03X179316Y192509I0J1700D01*
G01X177795Y191568D02*
X173858D01*
X172337Y192509D02*
G03X173858Y191568I1521J759D01*
G01X172337Y192509D02*
G03X171442I-447J-224D01*
G01X169921Y191568D02*
G03X171442Y192509I0J1700D01*
G01X169921Y191568D02*
X165984D01*
X164463Y192509D02*
G03X165984Y191568I1521J759D01*
G01X164463Y192509D02*
G03X163568I-447J-224D01*
G01X162047Y191568D02*
G03X163568Y192509I0J1700D01*
G01X162047Y191568D02*
X158110D01*
X156589Y192509D02*
G03X158110Y191568I1521J759D01*
G01X156589Y192509D02*
G03X155694I-447J-224D01*
G01X154173Y191568D02*
G03X155694Y192509I0J1700D01*
G01X154173Y191568D02*
X150236D01*
X148536Y193268D02*
G03X150236Y191568I1700J-0D01*
G01X148536Y193268D02*
Y201142D01*
X150236Y202842D02*
G03X148536Y201142I0J-1700D01*
G01X150236Y202842D02*
X154173D01*
X155694Y201901D02*
G03X154173Y202842I-1521J-759D01*
G01X155694Y201901D02*
G03X156589I448J223D01*
G01X158110Y202842D02*
G03X156589Y201901I0J-1700D01*
G01X158110Y202842D02*
X162047D01*
X163568Y201901D02*
G03X162047Y202842I-1521J-759D01*
G01X163568Y201901D02*
G03X164463I448J223D01*
G01X165984Y202842D02*
G03X164463Y201901I0J-1700D01*
G01X165984Y202842D02*
X169921D01*
X171442Y201901D02*
G03X169921Y202842I-1521J-759D01*
G01X171442Y201901D02*
G03X172337I448J223D01*
G01X173858Y202842D02*
G03X172337Y201901I0J-1700D01*
G01X173858Y202842D02*
X177795D01*
X179316Y201901D02*
G03X177795Y202842I-1521J-759D01*
G01X179316Y201901D02*
G03X180211I448J223D01*
G01X181090Y202716D02*
G03X180211Y201901I642J-1574D01*
G01X181090Y202716D02*
G03X181401Y203179I-189J463D01*
G01Y203745*
X182074Y205371D02*
G03X181401Y203745I1627J-1626D01*
G01X182074Y205371D02*
X184461Y207757D01*
X186087Y208431D02*
G03X184461Y207757I0J-2300D01*
G01X186087Y208431D02*
X195234D01*
G03X195474Y208492I-0J500*
G01X257368Y201159D02*
Y193285D01*
X255668Y191585D02*
G03X257368Y193285I-0J1700D01*
G01X255668Y191585D02*
X247794D01*
X246094Y193285D02*
G03X247794Y191585I1700J0D01*
G01X246094Y193285D02*
Y201159D01*
X247204Y202754D02*
G03X246094Y201159I590J-1595D01*
G01X247204Y202754D02*
G03X247531Y203223I-173J469D01*
G01Y205259*
G03X247384Y205613I-500J0*
G01X243328Y209669*
G03X242974Y209816I-354J-353*
G01X225236*
X222266Y211046D02*
G03X225236Y209816I2970J2970D01*
G01X222266Y211046D02*
X217109Y216203D01*
X215879Y219173D02*
G03X217109Y216203I4200J0D01*
G01X215879Y219173D02*
Y231817D01*
G03X215788Y232105I-500J0*
G01X224370D02*
G03X215788I-4291J3013D01*
G01X224370D02*
G03X224279Y231817I409J-288D01*
G01Y221120*
G03X224425Y220766I500J0*
G01X226829Y218362*
G03X227183Y218216I354J354*
G01X244921*
X247891Y216986D02*
G03X244921Y218216I-2970J-2970D01*
G01X247891Y216986D02*
X254701Y210176D01*
X255931Y207206D02*
G03X254701Y210176I-4200J0D01*
G01X255931Y207206D02*
Y203223D01*
G03X256257Y202754I500J-0*
G01X257368Y201159D02*
G03X256257Y202754I-1700J0D01*
G01X243176Y131570D02*
X245079D01*
X240047Y130670D02*
X245079D01*
X240057Y129770D02*
X245079D01*
X240057Y128870D02*
X245079D01*
X240057Y127970D02*
X245079D01*
X240057Y127070D02*
X245079D01*
X239978Y126170D02*
X245079D01*
X239302Y125270D02*
X245079D01*
X222379Y124370D02*
X245079D01*
X238817Y123470D02*
X245079D01*
X239747Y122570D02*
X245079D01*
X239889Y121670D02*
X245079D01*
X239889Y120770D02*
X245079D01*
X239889Y119870D02*
X245079D01*
X239889Y118970D02*
X245079D01*
X239751Y118070D02*
X245079D01*
X244236Y132470D02*
X244922D01*
X238979Y117170D02*
X244472D01*
X240087Y131570D02*
X240824D01*
X232518Y123470D02*
X233781D01*
X233002Y125270D02*
X233612D01*
X218978Y133370D02*
X227857D01*
X219878Y132470D02*
X227857D01*
X222578Y123470D02*
X227482D01*
X222379Y125270D02*
X227312D01*
X218078Y134270D02*
X227008D01*
X220778Y131570D02*
X226950D01*
X222379Y126170D02*
X226636D01*
X221678Y130670D02*
X226567D01*
X222252Y129770D02*
X226557D01*
X222379Y128870D02*
X226557D01*
X222379Y127970D02*
X226557D01*
X222379Y127070D02*
X226557D01*
X218032Y135170D02*
X218601D01*
X232457Y132692D02*
X239630D01*
X232489Y133592D02*
X239276D01*
X223363Y176107D02*
X229686D01*
X223363Y177007D02*
X229230D01*
X224043Y178807D02*
X229098D01*
X223363Y177907D02*
X229098D01*
X224337Y179707D02*
X228927D01*
X206086Y195007D02*
X228898D01*
X206086Y194107D02*
X228898D01*
X206180Y193207D02*
X228898D01*
X214747Y192307D02*
X228898D01*
X223303Y191407D02*
X228898D01*
X224203Y190507D02*
X228898D01*
X224338Y189607D02*
X228898D01*
X224338Y188707D02*
X228898D01*
X224338Y187807D02*
X228898D01*
X224338Y186907D02*
X228898D01*
X224337Y186007D02*
X228898D01*
X224044Y185107D02*
X228898D01*
X224203Y184207D02*
X228898D01*
X224338Y183307D02*
X228898D01*
X224338Y182407D02*
X228898D01*
X224338Y181507D02*
X228898D01*
X224338Y180607D02*
X228898D01*
X206086Y195907D02*
X228230D01*
X206086Y196807D02*
X227330D01*
X206086Y197707D02*
X226430D01*
X224060Y175207D02*
X225890D01*
X206086Y198607D02*
X225530D01*
X215614Y191407D02*
X218823D01*
X209957Y177907D02*
X218763D01*
X210169Y177007D02*
X218763D01*
X213902Y176107D02*
X218763D01*
X210849Y178807D02*
X218083D01*
X213505Y185107D02*
X218082D01*
X214970Y175207D02*
X218066D01*
X216061Y190507D02*
X217923D01*
X214592Y184207D02*
X217923D01*
X210465Y168907D02*
X217850D01*
X211055Y179707D02*
X217789D01*
X214190Y186007D02*
X217789D01*
X216244Y189607D02*
X217788D01*
X216203Y188707D02*
X217788D01*
X215929Y187807D02*
X217788D01*
X215355Y186907D02*
X217788D01*
X215077Y183307D02*
X217788D01*
X215198Y182407D02*
X217788D01*
X215011Y181507D02*
X217788D01*
X214425Y180607D02*
X217788D01*
X215378Y174307D02*
X217510D01*
X209800Y169807D02*
X217490D01*
X215444Y173407D02*
X217463D01*
X215196Y172507D02*
X217463D01*
X214507Y171607D02*
X217463D01*
X210729Y170707D02*
X217463D01*
X206086Y199507D02*
X214326D01*
X206086Y200407D02*
X213337D01*
X206086Y201307D02*
X212437D01*
X210967Y176107D02*
X211610D01*
X206086Y202207D02*
X211537D01*
X206086Y203107D02*
X210637D01*
X206086Y204007D02*
X209737D01*
X206086Y204907D02*
X208837D01*
X206086Y205807D02*
X207937D01*
X206153Y206707D02*
X207037D01*
X329837Y241499D02*
X331183D01*
X328982Y240599D02*
X331183D01*
X327847Y239699D02*
X331183D01*
X326182Y238799D02*
X331183D01*
X305598Y237899D02*
X331183D01*
X305598Y236999D02*
X331183D01*
X305598Y236099D02*
X331183D01*
X305598Y235199D02*
X331183D01*
X305598Y234299D02*
X331183D01*
X305598Y233399D02*
X331183D01*
X305598Y232499D02*
X331183D01*
X305598Y231599D02*
X331183D01*
X305598Y230699D02*
X331183D01*
X305598Y229799D02*
X331183D01*
X305598Y228899D02*
X331183D01*
X305598Y227999D02*
X331183D01*
X305598Y227099D02*
X331183D01*
X305598Y226199D02*
X331183D01*
X305598Y225299D02*
X331183D01*
X305598Y224399D02*
X331183D01*
X305598Y223499D02*
X331183D01*
X305598Y222599D02*
X331183D01*
X305598Y221699D02*
X331183D01*
X305598Y220799D02*
X331183D01*
X305598Y219899D02*
X331183D01*
X305598Y218999D02*
X331183D01*
X305598Y218099D02*
X331183D01*
X305598Y217199D02*
X331183D01*
X305598Y216299D02*
X331183D01*
X305598Y215399D02*
X331183D01*
X305598Y214499D02*
X331183D01*
X305598Y213599D02*
X331183D01*
X305598Y212699D02*
X331183D01*
X305598Y211799D02*
X331183D01*
X305598Y210899D02*
X331183D01*
X305598Y209999D02*
X331183D01*
X305598Y209099D02*
X331183D01*
X305598Y208199D02*
X331183D01*
X305598Y207299D02*
X331183D01*
X305598Y206399D02*
X331183D01*
X311700Y141599D02*
X331183D01*
X311700Y140699D02*
X331183D01*
X311700Y139799D02*
X331183D01*
X311700Y138899D02*
X331183D01*
X311700Y137999D02*
X331183D01*
X311700Y137099D02*
X331183D01*
X311679Y136199D02*
X331183D01*
X311343Y135299D02*
X331183D01*
X310521Y134399D02*
X331183D01*
X278653Y133499D02*
X331183D01*
X322992Y132599D02*
X331183D01*
X323512Y131699D02*
X331183D01*
X323550Y130799D02*
X331183D01*
X323550Y129899D02*
X331183D01*
X323550Y128999D02*
X331183D01*
X323548Y128099D02*
X331183D01*
X323232Y127199D02*
X331183D01*
X274502Y126299D02*
X331183D01*
X274542Y125399D02*
X331183D01*
X274542Y124499D02*
X331183D01*
X274542Y123599D02*
X331183D01*
X274542Y122699D02*
X331183D01*
X274509Y121799D02*
X331183D01*
X274014Y120899D02*
X331183D01*
X273087Y119999D02*
X331183D01*
X324900Y119099D02*
X331183D01*
X327143Y118199D02*
X331183D01*
X328480Y117299D02*
X331183D01*
X329453Y116399D02*
X331183D01*
X330203Y115499D02*
X331147D01*
X273087Y119099D02*
X320068D01*
X305596Y238799D02*
X318786D01*
X273087Y118199D02*
X317825D01*
X115166Y255899D02*
X317203D01*
X305364Y239699D02*
X317121D01*
X205000Y101999D02*
X316982D01*
X273087Y117299D02*
X316488D01*
X115998Y254999D02*
X316372D01*
X304530Y240599D02*
X315986D01*
X205000Y102899D02*
X315884D01*
X273087Y116399D02*
X315514D01*
X157009Y254099D02*
X315426D01*
X243779Y241499D02*
X315131D01*
X205000Y103799D02*
X315052D01*
X273087Y115499D02*
X314765D01*
X158007Y253199D02*
X314696D01*
X243779Y242399D02*
X314465D01*
X205000Y104699D02*
X314404D01*
X273087Y114599D02*
X314179D01*
X158907Y252299D02*
X314125D01*
X243779Y243299D02*
X313946D01*
X283512Y105599D02*
X313898D01*
X282494Y113699D02*
X313724D01*
X239729Y251399D02*
X313683D01*
X243779Y244199D02*
X313546D01*
X284448Y106499D02*
X313510D01*
X283933Y112799D02*
X313380D01*
X240718Y250499D02*
X313350D01*
X243779Y245099D02*
X313251D01*
X285002Y107399D02*
X313225D01*
X284693Y111899D02*
X313135D01*
X241618Y249599D02*
X313115D01*
X243778Y245999D02*
X313050D01*
X285315Y108299D02*
X313034D01*
X285146Y110999D02*
X312981D01*
X242518Y248699D02*
X312970D01*
X243643Y246899D02*
X312938D01*
X285437Y109199D02*
X312931D01*
X285383Y110099D02*
X312914D01*
X243258Y247799D02*
X312911D01*
X278308Y132599D02*
X310867D01*
X274153Y127199D02*
X310626D01*
X277412Y131699D02*
X310346D01*
X274509Y128099D02*
X310310D01*
X274542Y130799D02*
X310308D01*
X274542Y129899D02*
X310308D01*
X274542Y128999D02*
X310308D01*
X286303Y240599D02*
X294682D01*
X286947Y239699D02*
X293848D01*
X287094Y238799D02*
X293617D01*
X287094Y237899D02*
X293615D01*
X287094Y236999D02*
X293615D01*
X287094Y236099D02*
X293615D01*
X287094Y235199D02*
X293615D01*
X287094Y234299D02*
X293615D01*
X287094Y233399D02*
X293615D01*
X287094Y232499D02*
X293615D01*
X287094Y231599D02*
X293615D01*
X287094Y230699D02*
X293615D01*
X287094Y229799D02*
X293615D01*
X287094Y228899D02*
X293615D01*
X287094Y227999D02*
X293615D01*
X287094Y227099D02*
X293615D01*
X287094Y226199D02*
X293615D01*
X287094Y225299D02*
X293615D01*
X287094Y224399D02*
X293615D01*
X287094Y223499D02*
X293615D01*
X287094Y222599D02*
X293615D01*
X287320Y221699D02*
X293615D01*
X288220Y220799D02*
X293615D01*
X289120Y219899D02*
X293615D01*
X290020Y218999D02*
X293615D01*
X290920Y218099D02*
X293615D01*
X291820Y217199D02*
X293615D01*
X292720Y216299D02*
X293506D01*
X278674Y134399D02*
X293479D01*
X288869Y135299D02*
X292657D01*
X290225Y136199D02*
X292321D01*
X290449Y139799D02*
X292300D01*
X290630Y138899D02*
X292300D01*
X290822Y137999D02*
X292300D01*
X290704Y137099D02*
X292300D01*
X291429Y140699D02*
X292171D01*
X281563Y135299D02*
X287379D01*
X282366Y136199D02*
X286023D01*
X282347Y139799D02*
X285794D01*
X282323Y138899D02*
X285618D01*
X282670Y137099D02*
X285544D01*
X282654Y137999D02*
X285426D01*
X283432Y140699D02*
X284797D01*
X271179Y209099D02*
X282906D01*
X271179Y208199D02*
X282906D01*
X271179Y207299D02*
X282906D01*
X271179Y206399D02*
X282906D01*
X271179Y209999D02*
X282820D01*
X271179Y210899D02*
X281933D01*
X271179Y211799D02*
X281033D01*
X271179Y212699D02*
X280133D01*
X271173Y213599D02*
X279233D01*
X273087Y113699D02*
X279081D01*
X271008Y214499D02*
X278333D01*
X273512Y105599D02*
X278062D01*
X273933Y112799D02*
X277642D01*
X270584Y215399D02*
X277433D01*
X274448Y106499D02*
X277126D01*
X274693Y111899D02*
X276882D01*
X275002Y107399D02*
X276573D01*
X269800Y216299D02*
X276533D01*
X275146Y110999D02*
X276429D01*
X275319Y108299D02*
X276256D01*
X268900Y217199D02*
X275633D01*
X271179Y205499D02*
X275581D01*
X243779Y240599D02*
X274878D01*
X268000Y218099D02*
X274733D01*
X257015Y165899D02*
X274646D01*
X271179Y204599D02*
X274594D01*
X257015Y166799D02*
X274490D01*
X271179Y203699D02*
X274309D01*
X271866Y202799D02*
X274300D01*
X272947Y201899D02*
X274300D01*
X273116Y200999D02*
X274300D01*
X273116Y200099D02*
X274300D01*
X273116Y199199D02*
X274300D01*
X273116Y198299D02*
X274300D01*
X273116Y197399D02*
X274300D01*
X262630Y239699D02*
X274234D01*
X273406Y196499D02*
X274194D01*
X267100Y218999D02*
X274188D01*
X263813Y238799D02*
X274087D01*
X264524Y237899D02*
X274087D01*
X264973Y236999D02*
X274087D01*
X265230Y236099D02*
X274087D01*
X265321Y235199D02*
X274087D01*
X265258Y234299D02*
X274087D01*
X265032Y233399D02*
X274087D01*
X264621Y232499D02*
X274087D01*
X263965Y231599D02*
X274087D01*
X263779Y230699D02*
X274087D01*
X263779Y229799D02*
X274087D01*
X263779Y228899D02*
X274087D01*
X263779Y227999D02*
X274087D01*
X263779Y227099D02*
X274087D01*
X263779Y226199D02*
X274087D01*
X263779Y225299D02*
X274087D01*
X263779Y224399D02*
X274087D01*
X263779Y223499D02*
X274087D01*
X263779Y222599D02*
X274087D01*
X264400Y221699D02*
X274087D01*
X265300Y220799D02*
X274087D01*
X266200Y219899D02*
X274087D01*
X257015Y164999D02*
X273746D01*
X257015Y164099D02*
X272846D01*
X257015Y163199D02*
X272037D01*
X257123Y162299D02*
X271719D01*
X262912Y139799D02*
X271709D01*
X263013Y161399D02*
X271700D01*
X263313Y160499D02*
X271700D01*
X263314Y159599D02*
X271700D01*
X263314Y158699D02*
X271700D01*
X263314Y157799D02*
X271700D01*
X263270Y156899D02*
X271700D01*
X262728Y155999D02*
X271700D01*
X262190Y155099D02*
X271700D01*
X263049Y154199D02*
X271700D01*
X263236Y153299D02*
X271700D01*
X263236Y152399D02*
X271700D01*
X263236Y151499D02*
X271700D01*
X263236Y150599D02*
X271700D01*
X263135Y149699D02*
X271700D01*
X262377Y148799D02*
X271700D01*
X256559Y147899D02*
X271700D01*
X252754Y146999D02*
X271700D01*
X251805Y146099D02*
X271700D01*
X251479Y145199D02*
X271700D01*
X262492Y144299D02*
X271700D01*
X263105Y143399D02*
X271700D01*
X263309Y142499D02*
X271700D01*
X263202Y141599D02*
X271700D01*
X262912Y140699D02*
X271700D01*
X262912Y138899D02*
X269860D01*
X257015Y167699D02*
X269434D01*
X267059Y173099D02*
X269275D01*
X267334Y172199D02*
X269233D01*
X267453Y171299D02*
X269233D01*
X267453Y170399D02*
X269233D01*
X267427Y169499D02*
X269233D01*
X266956Y168599D02*
X269233D01*
X262912Y137999D02*
X268742D01*
X262912Y134399D02*
X268642D01*
X263087Y119999D02*
X268487D01*
X263087Y119099D02*
X268487D01*
X263087Y118199D02*
X268487D01*
X263087Y117299D02*
X268487D01*
X263087Y116399D02*
X268487D01*
X263087Y115499D02*
X268487D01*
X263087Y114599D02*
X268487D01*
X263087Y113699D02*
X268487D01*
X262912Y135299D02*
X268477D01*
X262912Y137099D02*
X268319D01*
X266766Y188399D02*
X268308D01*
X262912Y136199D02*
X268242D01*
X263512Y105599D02*
X268062D01*
X247053Y189299D02*
X267959D01*
X263605Y133499D02*
X267910D01*
X263816Y120899D02*
X267870D01*
X263887Y127199D02*
X267731D01*
X263933Y112799D02*
X267642D01*
X246153Y190199D02*
X267408D01*
X264207Y132599D02*
X267382D01*
X264207Y126299D02*
X267382D01*
X264248Y128099D02*
X267375D01*
X264248Y121799D02*
X267375D01*
X264267Y131699D02*
X267342D01*
X264267Y130799D02*
X267342D01*
X264267Y129899D02*
X267342D01*
X264267Y128999D02*
X267342D01*
X264267Y125399D02*
X267342D01*
X264267Y124499D02*
X267342D01*
X264267Y123599D02*
X267342D01*
X264267Y122699D02*
X267342D01*
X264448Y106499D02*
X267126D01*
X264693Y111899D02*
X266882D01*
X245748Y191099D02*
X266858D01*
X265002Y107399D02*
X266573D01*
X265146Y110999D02*
X266429D01*
X265319Y108299D02*
X266256D01*
X253978Y210899D02*
X263779D01*
X254868Y209999D02*
X263779D01*
X255480Y209099D02*
X263779D01*
X255812Y208199D02*
X263779D01*
X255930Y207299D02*
X263779D01*
X255931Y206399D02*
X263779D01*
X255931Y205499D02*
X263779D01*
X255931Y204599D02*
X263779D01*
X255931Y203699D02*
X263779D01*
X253078Y211799D02*
X263755D01*
X256166Y202799D02*
X263092D01*
X252178Y212699D02*
X262935D01*
X256779Y191999D02*
X262431D01*
X251278Y213599D02*
X262035D01*
X257199Y201899D02*
X262011D01*
X257323Y192899D02*
X261886D01*
X257368Y200999D02*
X261842D01*
X257368Y200099D02*
X261842D01*
X257368Y199199D02*
X261842D01*
X257368Y198299D02*
X261842D01*
X257368Y197399D02*
X261842D01*
X257368Y196499D02*
X261842D01*
X257368Y195599D02*
X261842D01*
X257368Y194699D02*
X261842D01*
X257368Y193799D02*
X261842D01*
X250378Y214499D02*
X261135D01*
X249478Y215399D02*
X260235D01*
X257015Y168599D02*
X259826D01*
X257015Y169499D02*
X259356D01*
X248578Y216299D02*
X259335D01*
X257034Y170399D02*
X259329D01*
X258749Y171299D02*
X258909D01*
X251479Y144299D02*
X258732D01*
X251479Y119099D02*
X258487D01*
X251479Y118199D02*
X258487D01*
X251479Y117299D02*
X258487D01*
X251479Y116399D02*
X258487D01*
X251334Y115499D02*
X258487D01*
X250888Y114599D02*
X258487D01*
X250052Y113699D02*
X258487D01*
X251479Y119999D02*
X258487D01*
X247662Y217199D02*
X258435D01*
X251479Y140699D02*
X258312D01*
X251479Y139799D02*
X258312D01*
X251479Y138899D02*
X258312D01*
X251479Y137999D02*
X258312D01*
X251479Y137099D02*
X258312D01*
X251479Y136199D02*
X258312D01*
X251479Y135299D02*
X258312D01*
X251479Y134399D02*
X258312D01*
X251479Y143399D02*
X258119D01*
X205000Y105599D02*
X258063D01*
X251479Y141599D02*
X258022D01*
X251479Y142499D02*
X257915D01*
X251479Y133499D02*
X257729D01*
X249152Y112799D02*
X257642D01*
X245906Y218099D02*
X257535D01*
X243779Y239699D02*
X257527D01*
X251479Y120899D02*
X257518D01*
X251479Y127199D02*
X257447D01*
X251479Y132599D02*
X257127D01*
X251479Y126299D02*
X257127D01*
X205000Y106499D02*
X257126D01*
X251479Y128099D02*
X257086D01*
X251479Y121799D02*
X257086D01*
X251479Y131699D02*
X257067D01*
X251479Y130799D02*
X257067D01*
X251479Y129899D02*
X257067D01*
X251479Y128999D02*
X257067D01*
X251479Y125399D02*
X257067D01*
X251479Y124499D02*
X257067D01*
X251479Y123599D02*
X257067D01*
X251479Y122699D02*
X257067D01*
X248252Y111899D02*
X256882D01*
X226193Y218999D02*
X256840D01*
X205000Y107399D02*
X256573D01*
X225293Y219899D02*
X256487D01*
X247352Y110999D02*
X256429D01*
X242900Y230699D02*
X256379D01*
X224279Y229799D02*
X256379D01*
X224279Y228899D02*
X256379D01*
X224279Y227999D02*
X256379D01*
X224279Y227099D02*
X256379D01*
X224279Y226199D02*
X256379D01*
X224279Y225299D02*
X256379D01*
X224279Y224399D02*
X256379D01*
X224279Y223499D02*
X256379D01*
X224279Y222599D02*
X256379D01*
X224279Y221699D02*
X256379D01*
X224396Y220799D02*
X256379D01*
X243838Y238799D02*
X256344D01*
X205000Y108299D02*
X256260D01*
X243965Y231599D02*
X256192D01*
X246085Y110099D02*
X256192D01*
X205000Y109199D02*
X256138D01*
X244524Y237899D02*
X255633D01*
X244621Y232499D02*
X255537D01*
X244973Y236999D02*
X255184D01*
X245032Y233399D02*
X255125D01*
X245230Y236099D02*
X254928D01*
X245258Y234299D02*
X254900D01*
X245321Y235199D02*
X254836D01*
X230004Y204599D02*
X247531D01*
X230904Y203699D02*
X247531D01*
X229058Y205499D02*
X247470D01*
X231804Y202799D02*
X247296D01*
X237937Y160499D02*
X247237D01*
X210991Y159599D02*
X247237D01*
X210991Y158699D02*
X247237D01*
X210991Y157799D02*
X247237D01*
X210991Y156899D02*
X247237D01*
X210991Y155999D02*
X247237D01*
X210808Y155099D02*
X247237D01*
X209875Y154199D02*
X247237D01*
X210298Y153299D02*
X247237D01*
X210983Y152399D02*
X247237D01*
X214904Y151499D02*
X247237D01*
X215804Y150599D02*
X247199D01*
X245059Y191999D02*
X246683D01*
X217810Y206399D02*
X246599D01*
X216704Y149699D02*
X246354D01*
X232704Y201899D02*
X246263D01*
X243462Y192899D02*
X246138D01*
X233604Y200999D02*
X246094D01*
X234504Y200099D02*
X246094D01*
X235391Y199199D02*
X246094D01*
X235969Y198299D02*
X246094D01*
X236245Y197399D02*
X246094D01*
X236298Y196499D02*
X246094D01*
X236298Y195599D02*
X246094D01*
X236298Y194699D02*
X246094D01*
X236298Y193799D02*
X246094D01*
X216910Y207299D02*
X245699D01*
X238975Y148799D02*
X245568D01*
X238954Y161399D02*
X245348D01*
X239914Y147899D02*
X245172D01*
X216010Y208199D02*
X244799D01*
X239112Y162299D02*
X243902D01*
X215110Y209099D02*
X243899D01*
X239112Y163199D02*
X243529D01*
X236298Y182999D02*
X243497D01*
X236298Y182099D02*
X243497D01*
X236298Y181199D02*
X243497D01*
X236298Y180299D02*
X243497D01*
X236219Y179399D02*
X243497D01*
X236098Y178499D02*
X243497D01*
X236097Y177599D02*
X243497D01*
X235799Y176699D02*
X243497D01*
X235665Y175799D02*
X243497D01*
X239568Y174899D02*
X243497D01*
X239848Y173999D02*
X243497D01*
X239848Y173099D02*
X243497D01*
X239848Y172199D02*
X243497D01*
X239848Y171299D02*
X243497D01*
X239848Y170399D02*
X243497D01*
X239612Y169499D02*
X243497D01*
X231512Y168599D02*
X243497D01*
X231565Y167699D02*
X243497D01*
X238865Y166799D02*
X243497D01*
X239112Y165899D02*
X243497D01*
X239112Y164999D02*
X243497D01*
X239112Y164099D02*
X243497D01*
X236298Y183899D02*
X243395D01*
X236298Y184799D02*
X242502D01*
X236298Y185699D02*
X241596D01*
X236298Y192899D02*
X241538D01*
X236298Y186599D02*
X240000D01*
X236298Y191999D02*
X239941D01*
X236298Y187499D02*
X239283D01*
X236298Y191099D02*
X239252D01*
X236298Y188399D02*
X238918D01*
X236298Y190199D02*
X238904D01*
X236298Y189299D02*
X238800D01*
X224279Y230699D02*
X237257D01*
X213807Y243299D02*
X236379D01*
X213346Y242399D02*
X236379D01*
X213346Y241499D02*
X236379D01*
X213346Y240599D02*
X236379D01*
X222630Y239699D02*
X236379D01*
X214707Y244199D02*
X236376D01*
X223813Y238799D02*
X236319D01*
X224279Y231599D02*
X236192D01*
X224524Y237899D02*
X235633D01*
X224621Y232499D02*
X235537D01*
X224973Y236999D02*
X235184D01*
X225032Y233399D02*
X235125D01*
X225230Y236099D02*
X234928D01*
X225258Y234299D02*
X234900D01*
X225321Y235199D02*
X234836D01*
X232675Y148799D02*
X233939D01*
X231637Y160499D02*
X233088D01*
X232112Y169499D02*
X233085D01*
X217604Y148799D02*
X227639D01*
X205000Y116399D02*
X227334D01*
X205000Y117299D02*
X227209D01*
X205000Y110099D02*
X226938D01*
X210843Y160499D02*
X226788D01*
X218504Y147899D02*
X226697D01*
X205000Y115499D02*
X226641D01*
X205000Y110999D02*
X226566D01*
X205000Y114599D02*
X226557D01*
X205000Y113699D02*
X226557D01*
X205000Y112799D02*
X226557D01*
X205000Y111899D02*
X226557D01*
X209941Y161399D02*
X225771D01*
X224550Y163199D02*
X225612D01*
X223745Y162299D02*
X225612D01*
X214210Y209999D02*
X224010D01*
X213403Y210899D02*
X222421D01*
X205000Y118199D02*
X221639D01*
X213385Y211799D02*
X221514D01*
X213385Y212699D02*
X220614D01*
X205000Y119099D02*
X220444D01*
X213385Y213599D02*
X219714D01*
X205000Y119999D02*
X219544D01*
X213385Y214499D02*
X218814D01*
X204802Y120899D02*
X218644D01*
X210193Y162299D02*
X218381D01*
X101100Y121799D02*
X217970D01*
X213385Y215399D02*
X217914D01*
X101100Y122699D02*
X217779D01*
X128134Y127199D02*
X217779D01*
X101100Y126299D02*
X217779D01*
X101100Y125399D02*
X217779D01*
X101100Y124499D02*
X217779D01*
X101100Y123599D02*
X217779D01*
X128822Y128099D02*
X217716D01*
X210921Y163199D02*
X217562D01*
X213346Y239699D02*
X217527D01*
X213385Y216299D02*
X217017D01*
X128905Y128999D02*
X216843D01*
X213385Y217199D02*
X216372D01*
X213346Y238799D02*
X216344D01*
X213385Y218099D02*
X216018D01*
X128905Y129899D02*
X215943D01*
X213385Y218999D02*
X215882D01*
X213346Y231599D02*
X215879D01*
X213346Y230699D02*
X215879D01*
X213346Y229799D02*
X215879D01*
X213346Y228899D02*
X215879D01*
X213384Y227999D02*
X215879D01*
X213385Y227099D02*
X215879D01*
X213385Y226199D02*
X215879D01*
X213385Y225299D02*
X215879D01*
X213385Y224399D02*
X215879D01*
X213385Y223499D02*
X215879D01*
X213385Y222599D02*
X215879D01*
X213385Y221699D02*
X215879D01*
X213385Y220799D02*
X215879D01*
X213385Y219899D02*
X215879D01*
X213346Y237899D02*
X215633D01*
X213346Y232499D02*
X215537D01*
X213346Y236999D02*
X215184D01*
X213346Y233399D02*
X215125D01*
X210186Y130799D02*
X215043D01*
X213346Y236099D02*
X214928D01*
X213346Y234299D02*
X214900D01*
X213346Y235199D02*
X214836D01*
X210918Y131699D02*
X214143D01*
X159806Y251399D02*
X211531D01*
X160342Y250499D02*
X210542D01*
X160450Y249599D02*
X209642D01*
X160450Y248699D02*
X208742D01*
X178334Y247799D02*
X207842D01*
X180905Y246899D02*
X206945D01*
X181828Y245999D02*
X206323D01*
X182374Y245099D02*
X206018D01*
X178268Y227099D02*
X205985D01*
X179168Y226199D02*
X205985D01*
X180054Y225299D02*
X205985D01*
X180557Y224399D02*
X205985D01*
X180692Y223499D02*
X205985D01*
X180692Y222599D02*
X205985D01*
X180692Y221699D02*
X205985D01*
X180700Y220799D02*
X205985D01*
X181507Y219899D02*
X205985D01*
X199609Y218999D02*
X205985D01*
X200544Y218099D02*
X205985D01*
X201444Y217199D02*
X205985D01*
X202344Y216299D02*
X205985D01*
X203244Y215399D02*
X205985D01*
X204144Y214499D02*
X205985D01*
X182683Y244199D02*
X205946D01*
X182800Y243299D02*
X205946D01*
X182741Y242399D02*
X205946D01*
X182500Y241499D02*
X205946D01*
X182041Y240599D02*
X205946D01*
X202630Y239699D02*
X205946D01*
X203813Y238799D02*
X205946D01*
X204524Y237899D02*
X205946D01*
X204621Y232499D02*
X205946D01*
X203965Y231599D02*
X205946D01*
X202900Y230699D02*
X205946D01*
X175464Y229799D02*
X205946D01*
X176468Y228899D02*
X205946D01*
X177368Y227999D02*
X205946D01*
X204973Y236999D02*
X205918D01*
X205044Y213599D02*
X205908D01*
X205066Y233399D02*
X205825D01*
X127221Y209999D02*
X200686D01*
X127221Y209099D02*
X200686D01*
X198498Y208199D02*
X200686D01*
X199201Y207299D02*
X200686D01*
X199456Y206399D02*
X200686D01*
X199397Y205499D02*
X200686D01*
X198998Y204599D02*
X200686D01*
X197957Y203699D02*
X200686D01*
X193923Y202799D02*
X200686D01*
X195065Y201899D02*
X200686D01*
X195243Y200999D02*
X200686D01*
X195243Y200099D02*
X200686D01*
X195243Y199199D02*
X200686D01*
X195243Y198299D02*
X200686D01*
X195243Y197399D02*
X200686D01*
X195243Y196499D02*
X200686D01*
X195243Y195599D02*
X200686D01*
X195243Y194699D02*
X200686D01*
X195243Y193799D02*
X200686D01*
X127221Y210899D02*
X200107D01*
X127221Y211799D02*
X199207D01*
X180093Y212699D02*
X198307D01*
X181270Y239699D02*
X197527D01*
X181320Y213599D02*
X197407D01*
X164360Y230699D02*
X197257D01*
X146787Y146099D02*
X196992D01*
X165103Y177599D02*
X196992D01*
X165417Y169499D02*
X196976D01*
X146805Y137999D02*
X196975D01*
X195203Y192899D02*
X196904D01*
X165417Y154199D02*
X196897D01*
X192578Y185699D02*
X196894D01*
X192219Y161399D02*
X196831D01*
X147194Y130799D02*
X196585D01*
X191319Y162299D02*
X196579D01*
X191678Y184799D02*
X196479D01*
X165417Y153299D02*
X196473D01*
X179798Y238799D02*
X196344D01*
X147484Y138899D02*
X196296D01*
X165417Y170399D02*
X196292D01*
X165652Y176699D02*
X196226D01*
X147557Y145199D02*
X196222D01*
X142024Y231599D02*
X196192D01*
X147679Y146999D02*
X196101D01*
X147682Y178499D02*
X196098D01*
X165417Y168599D02*
X196052D01*
X147730Y137099D02*
X196049D01*
X165417Y155099D02*
X195963D01*
X193441Y186599D02*
X195961D01*
X194675Y191999D02*
X195931D01*
X193119Y160499D02*
X195929D01*
X153345Y131699D02*
X195870D01*
X190419Y163199D02*
X195869D01*
X190344Y183899D02*
X195848D01*
X165417Y152399D02*
X195846D01*
X155851Y139799D02*
X195811D01*
X165417Y171299D02*
X195810D01*
X165817Y175799D02*
X195798D01*
X156880Y144299D02*
X195798D01*
X162204Y147899D02*
X195783D01*
X147997Y179399D02*
X195783D01*
X165417Y167699D02*
X195780D01*
X154303Y136199D02*
X195780D01*
X193887Y191099D02*
X195780D01*
X193887Y190199D02*
X195780D01*
X193887Y189299D02*
X195780D01*
X193887Y188399D02*
X195780D01*
X193840Y187499D02*
X195780D01*
X147999Y182999D02*
X195780D01*
X147999Y182099D02*
X195780D01*
X147999Y181199D02*
X195780D01*
X147999Y180299D02*
X195780D01*
X165673Y174899D02*
X195780D01*
X165417Y173999D02*
X195780D01*
X165417Y173099D02*
X195780D01*
X165417Y172199D02*
X195780D01*
X187370Y166799D02*
X195780D01*
X188069Y165899D02*
X195780D01*
X188619Y164999D02*
X195780D01*
X189519Y164099D02*
X195780D01*
X165385Y151499D02*
X195780D01*
X165024Y150599D02*
X195780D01*
X164184Y149699D02*
X195780D01*
X163284Y148799D02*
X195780D01*
X157493Y143399D02*
X195780D01*
X157697Y142499D02*
X195780D01*
X157590Y141599D02*
X195780D01*
X157128Y140699D02*
X195780D01*
X154926Y135299D02*
X195780D01*
X155137Y134399D02*
X195780D01*
X155036Y133499D02*
X195780D01*
X154583Y132599D02*
X195780D01*
X142024Y237899D02*
X195633D01*
X193422Y203699D02*
X195583D01*
X142024Y232499D02*
X195537D01*
X142024Y236999D02*
X195184D01*
X142024Y233399D02*
X195125D01*
X142024Y236099D02*
X194928D01*
X142024Y234299D02*
X194900D01*
X142024Y235199D02*
X194836D01*
X165417Y155999D02*
X191145D01*
X165417Y156899D02*
X190214D01*
X165417Y157799D02*
X189314D01*
X147999Y191099D02*
X189287D01*
X147999Y190199D02*
X189287D01*
X147999Y189299D02*
X189287D01*
X186801Y191999D02*
X188475D01*
X165417Y158699D02*
X188414D01*
X165417Y159599D02*
X187514D01*
X165417Y160499D02*
X186614D01*
X165417Y161399D02*
X185714D01*
X127221Y208199D02*
X185080D01*
X165417Y162299D02*
X184461D01*
X127221Y207299D02*
X184002D01*
X165417Y166799D02*
X183900D01*
X165417Y163199D02*
X183411D01*
X165417Y165899D02*
X183201D01*
X127221Y206399D02*
X183102D01*
X165417Y164099D02*
X183010D01*
X165417Y164999D02*
X182948D01*
X127192Y205499D02*
X182202D01*
X126841Y204599D02*
X181565D01*
X126007Y203699D02*
X181401D01*
X178175Y202799D02*
X181226D01*
X178927Y191999D02*
X180601D01*
X179317Y201899D02*
X180210D01*
X168334Y247799D02*
X177965D01*
X169798Y238799D02*
X176501D01*
X170093Y212699D02*
X175892D01*
X170905Y246899D02*
X175394D01*
X142578Y221699D02*
X175292D01*
X170454Y220799D02*
X175284D01*
X142698Y222599D02*
X175131D01*
X171270Y239699D02*
X175029D01*
X171320Y213599D02*
X174664D01*
X171507Y219899D02*
X174477D01*
X171828Y245999D02*
X174471D01*
X172041Y240599D02*
X174258D01*
X142509Y223499D02*
X174231D01*
X172007Y214499D02*
X173977D01*
X172374Y245099D02*
X173925D01*
X172119Y218999D02*
X173865D01*
X172500Y241499D02*
X173800D01*
X172690Y244199D02*
X173609D01*
X172413Y215399D02*
X173572D01*
X172474Y218099D02*
X173510D01*
X170301Y202799D02*
X173478D01*
X164518Y224399D02*
X173331D01*
X173076Y242399D02*
X173223D01*
X171052Y191999D02*
X172727D01*
X171443Y201899D02*
X172336D01*
X160450Y247799D02*
X167965D01*
X159798Y238799D02*
X166501D01*
X160093Y212699D02*
X165892D01*
X162427Y202799D02*
X165604D01*
X160454Y220799D02*
X165531D01*
X160905Y246899D02*
X165394D01*
X161270Y239699D02*
X165029D01*
X163178Y191999D02*
X164853D01*
X161320Y213599D02*
X164664D01*
X161507Y219899D02*
X164477D01*
X161828Y245999D02*
X164471D01*
X163569Y201899D02*
X164462D01*
X162041Y240599D02*
X164258D01*
X162007Y214499D02*
X163977D01*
X162374Y245099D02*
X163925D01*
X162119Y218999D02*
X163865D01*
X162500Y241499D02*
X163800D01*
X162690Y244199D02*
X163609D01*
X162413Y215399D02*
X163572D01*
X162474Y218099D02*
X163510D01*
X163076Y242399D02*
X163223D01*
X146788Y177599D02*
X161131D01*
X147999Y173999D02*
X160817D01*
X147999Y173099D02*
X160817D01*
X147999Y172199D02*
X160817D01*
X147970Y171299D02*
X160817D01*
X147488Y170399D02*
X160817D01*
X146804Y169499D02*
X160817D01*
X147728Y168599D02*
X160817D01*
X147999Y167699D02*
X160817D01*
X147999Y166799D02*
X160817D01*
X147999Y165899D02*
X160817D01*
X147999Y164999D02*
X160817D01*
X147999Y164099D02*
X160817D01*
X147911Y163199D02*
X160817D01*
X147200Y162299D02*
X160817D01*
X146949Y161399D02*
X160817D01*
X147850Y160499D02*
X160817D01*
X151699Y159599D02*
X160817D01*
X152419Y158699D02*
X160817D01*
X152683Y157799D02*
X160817D01*
X152632Y156899D02*
X160817D01*
X152244Y155999D02*
X160817D01*
X151234Y155099D02*
X160817D01*
X146882Y154199D02*
X160817D01*
X147306Y153299D02*
X160817D01*
X142024Y230699D02*
X160640D01*
X147554Y176699D02*
X160582D01*
X147999Y174899D02*
X160561D01*
X142029Y224399D02*
X160482D01*
X147981Y175799D02*
X160417D01*
X147991Y152399D02*
X160378D01*
X142024Y229799D02*
X159601D01*
X142024Y225299D02*
X159526D01*
X142024Y228899D02*
X159075D01*
X142024Y226199D02*
X159036D01*
X142024Y227999D02*
X158834D01*
X142024Y227099D02*
X158822D01*
X154553Y202799D02*
X157730D01*
X155304Y191999D02*
X156979D01*
X155695Y201899D02*
X156588D01*
X149798Y238799D02*
X156501D01*
X150093Y212699D02*
X155892D01*
X150454Y220799D02*
X155531D01*
X151270Y239699D02*
X155029D01*
X151320Y213599D02*
X154664D01*
X151507Y219899D02*
X154477D01*
X152041Y240599D02*
X154258D01*
X147974Y139799D02*
X154149D01*
X152007Y214499D02*
X153977D01*
X152119Y218999D02*
X153865D01*
X152500Y241499D02*
X153800D01*
X152413Y215399D02*
X153572D01*
X152474Y218099D02*
X153510D01*
X153076Y242399D02*
X153223D01*
X147926Y131699D02*
X151537D01*
X147999Y188399D02*
X151052D01*
X147932Y183899D02*
X150965D01*
X147999Y187499D02*
X150179D01*
X147301Y184799D02*
X150145D01*
X125107Y202799D02*
X149856D01*
X147818Y186599D02*
X149843D01*
X146885Y185699D02*
X149833D01*
X147849Y191999D02*
X149105D01*
X147863Y155099D02*
X148766D01*
X123570Y201899D02*
X148714D01*
X146875Y192899D02*
X148577D01*
X109763Y200999D02*
X148536D01*
X109426Y200099D02*
X148536D01*
X124327Y199199D02*
X148536D01*
X128841Y198299D02*
X148536D01*
X129830Y197399D02*
X148536D01*
X130730Y196499D02*
X148536D01*
X131630Y195599D02*
X148536D01*
X132501Y194699D02*
X148536D01*
X132916Y193799D02*
X148536D01*
X142024Y238799D02*
X146501D01*
X127221Y212699D02*
X145892D01*
X142097Y220799D02*
X145531D01*
X142062Y239699D02*
X145029D01*
X127762Y213599D02*
X144664D01*
X140723Y219899D02*
X144477D01*
X142907Y240599D02*
X144258D01*
X128649Y214499D02*
X143977D01*
X129246Y218999D02*
X143865D01*
X129175Y215399D02*
X143572D01*
X129502Y218099D02*
X143510D01*
X129469Y216299D02*
X143372D01*
X129573Y217199D02*
X143352D01*
X128769Y219899D02*
X139277D01*
X101100Y120899D02*
X139198D01*
X101100Y119999D02*
X139000D01*
X112302Y119099D02*
X139000D01*
X114544Y118199D02*
X139000D01*
X115881Y117299D02*
X139000D01*
X116855Y116399D02*
X139000D01*
X117604Y115499D02*
X139000D01*
X118190Y114599D02*
X139000D01*
X118645Y113699D02*
X139000D01*
X118989Y112799D02*
X139000D01*
X119234Y111899D02*
X139000D01*
X119389Y110999D02*
X139000D01*
X119456Y110099D02*
X139000D01*
X119438Y109199D02*
X139000D01*
X119336Y108299D02*
X139000D01*
X119145Y107399D02*
X139000D01*
X118860Y106499D02*
X139000D01*
X118472Y105599D02*
X139000D01*
X117965Y104699D02*
X139000D01*
X117317Y103799D02*
X139000D01*
X116485Y102899D02*
X139000D01*
X115387Y101999D02*
X139000D01*
X127969Y220799D02*
X137903D01*
X126389Y221699D02*
X137422D01*
X136234Y222599D02*
X137241D01*
X116944Y254099D02*
X137125D01*
X117673Y253199D02*
X136127D01*
X118244Y252299D02*
X135227D01*
X118687Y251399D02*
X134327D01*
X101100Y146099D02*
X134000D01*
X128000Y137999D02*
X133982D01*
X133113Y192899D02*
X133912D01*
X101100Y154199D02*
X133905D01*
X128879Y161399D02*
X133839D01*
X101100Y222599D02*
X133766D01*
X128905Y130799D02*
X133593D01*
X128905Y162299D02*
X133587D01*
X101100Y153299D02*
X133481D01*
X119020Y250499D02*
X133427D01*
X101100Y138899D02*
X133304D01*
X101100Y145199D02*
X133230D01*
X101100Y146999D02*
X133109D01*
X128794Y137099D02*
X133057D01*
X101100Y155099D02*
X132971D01*
X128415Y160499D02*
X132937D01*
X128905Y131699D02*
X132878D01*
X128997Y163199D02*
X132859D01*
X101100Y152399D02*
X132854D01*
X119255Y249599D02*
X132836D01*
X101100Y139799D02*
X132818D01*
X101100Y144299D02*
X132806D01*
X101100Y147899D02*
X132791D01*
X128905Y136199D02*
X132788D01*
X101100Y159599D02*
X132788D01*
X101100Y158699D02*
X132788D01*
X101100Y157799D02*
X132788D01*
X101100Y156899D02*
X132788D01*
X101100Y155999D02*
X132788D01*
X101100Y151499D02*
X132788D01*
X101100Y150599D02*
X132788D01*
X101100Y149699D02*
X132788D01*
X101100Y148799D02*
X132788D01*
X101100Y143399D02*
X132788D01*
X101100Y142499D02*
X132788D01*
X101100Y141599D02*
X132788D01*
X101100Y140699D02*
X132788D01*
X128905Y135299D02*
X132788D01*
X128905Y134399D02*
X132788D01*
X128905Y133499D02*
X132788D01*
X128905Y132599D02*
X132788D01*
X101100Y223499D02*
X132756D01*
X119400Y248699D02*
X132700D01*
X119458Y247799D02*
X132700D01*
X119432Y246899D02*
X132700D01*
X119320Y245999D02*
X132700D01*
X119119Y245099D02*
X132700D01*
X118824Y244199D02*
X132700D01*
X118424Y243299D02*
X132700D01*
X117904Y242399D02*
X132700D01*
X117239Y241499D02*
X132700D01*
X116384Y240599D02*
X132700D01*
X115248Y239699D02*
X132700D01*
X113583Y238799D02*
X132700D01*
X101100Y237899D02*
X132700D01*
X101100Y236999D02*
X132700D01*
X101100Y236099D02*
X132700D01*
X101100Y235199D02*
X132700D01*
X101100Y234299D02*
X132700D01*
X101100Y233399D02*
X132700D01*
X101100Y232499D02*
X132700D01*
X101100Y231599D02*
X132700D01*
X101100Y230699D02*
X132700D01*
X101100Y229799D02*
X132700D01*
X101100Y228899D02*
X132700D01*
X101100Y227999D02*
X132700D01*
X101100Y227099D02*
X132700D01*
X101100Y226199D02*
X132581D01*
X101100Y224399D02*
X132368D01*
X101100Y225299D02*
X132317D01*
X109426Y191999D02*
X128369D01*
X109556Y191099D02*
X128369D01*
X124225Y190199D02*
X128369D01*
X127251Y189299D02*
X128316D01*
X123644Y192899D02*
X127825D01*
X124505Y193799D02*
X126925D01*
X123880Y183899D02*
X125850D01*
X101100Y182999D02*
X125850D01*
X123887Y182099D02*
X125850D01*
X124624Y184799D02*
X125447D01*
X125308Y181199D02*
X125391D01*
X116389Y221699D02*
X123454D01*
X101100Y174899D02*
X122661D01*
X101100Y173999D02*
X122661D01*
X101100Y173099D02*
X122661D01*
X101100Y172199D02*
X122661D01*
X115714Y212699D02*
X122621D01*
X101100Y211799D02*
X122621D01*
X101100Y210899D02*
X122621D01*
X101100Y209999D02*
X122621D01*
X101100Y209099D02*
X122621D01*
X101100Y208199D02*
X122621D01*
X101100Y207299D02*
X122621D01*
X101100Y175799D02*
X122573D01*
X101100Y171299D02*
X122389D01*
X117762Y213599D02*
X122080D01*
X117969Y220799D02*
X121873D01*
X109890Y137999D02*
X121685D01*
X110024Y127199D02*
X121551D01*
X110698Y160499D02*
X121270D01*
X118649Y214499D02*
X121194D01*
X118769Y219899D02*
X121073D01*
X110971Y170399D02*
X120998D01*
X110684Y137099D02*
X120891D01*
X110712Y128099D02*
X120863D01*
X111163Y161399D02*
X120806D01*
X111188Y169499D02*
X120780D01*
X111188Y168599D02*
X120780D01*
X111188Y167699D02*
X120780D01*
X111188Y166799D02*
X120780D01*
X111188Y165899D02*
X120780D01*
X111188Y164999D02*
X120780D01*
X111188Y164099D02*
X120780D01*
X111188Y163199D02*
X120780D01*
X111188Y162299D02*
X120780D01*
X110795Y136199D02*
X120780D01*
X110795Y135299D02*
X120780D01*
X110795Y134399D02*
X120780D01*
X110795Y133499D02*
X120780D01*
X110795Y132599D02*
X120780D01*
X110795Y131699D02*
X120780D01*
X110795Y130799D02*
X120780D01*
X110795Y129899D02*
X120780D01*
X110795Y128999D02*
X120780D01*
X119175Y215399D02*
X120667D01*
X119246Y218999D02*
X120596D01*
X119495Y216299D02*
X120348D01*
X119666Y218099D02*
X120176D01*
X117344Y192899D02*
X118404D01*
X117580Y183899D02*
X118168D01*
X101100Y212699D02*
X114129D01*
X101100Y221699D02*
X113454D01*
X109426Y192899D02*
X112104D01*
X101100Y213599D02*
X112080D01*
X101100Y220799D02*
X111873D01*
X101100Y183899D02*
X111868D01*
X110456Y190199D02*
X111523D01*
X101100Y182099D02*
X111467D01*
X109426Y199199D02*
X111421D01*
X101100Y176699D02*
X111276D01*
X109426Y193799D02*
X111249D01*
X101100Y214499D02*
X111194D01*
X109426Y198299D02*
X111125D01*
X101100Y184799D02*
X111124D01*
X109426Y197399D02*
X111124D01*
X109426Y196499D02*
X111124D01*
X109426Y195599D02*
X111124D01*
X109426Y194699D02*
X111124D01*
X101100Y219899D02*
X111073D01*
X101100Y181199D02*
X110970D01*
X101100Y177599D02*
X110942D01*
X101100Y180299D02*
X110938D01*
X101100Y179399D02*
X110938D01*
X101100Y178499D02*
X110938D01*
X101100Y215399D02*
X110667D01*
X101100Y218999D02*
X110596D01*
X101100Y216299D02*
X110374D01*
X101100Y218099D02*
X110340D01*
X101100Y217199D02*
X110269D01*
X101100Y206399D02*
X109104D01*
X101100Y185699D02*
X108450D01*
X101100Y205499D02*
X107758D01*
X101100Y186599D02*
X107550D01*
X101100Y119099D02*
X107470D01*
X101100Y204599D02*
X106858D01*
X101100Y187499D02*
X106650D01*
X101100Y238799D02*
X106188D01*
X101100Y203699D02*
X105958D01*
X101100Y188399D02*
X105750D01*
X101100Y118199D02*
X105227D01*
X101100Y202799D02*
X105154D01*
X101100Y189299D02*
X105044D01*
X101100Y201899D02*
X104844D01*
X101100Y190199D02*
X104827D01*
X101100Y200999D02*
X104826D01*
X101100Y200099D02*
X104826D01*
X101100Y199199D02*
X104826D01*
X101100Y198299D02*
X104826D01*
X101100Y197399D02*
X104826D01*
X101100Y196499D02*
X104826D01*
X101100Y195599D02*
X104826D01*
X101100Y194699D02*
X104826D01*
X101100Y193799D02*
X104826D01*
X101100Y192899D02*
X104826D01*
X101100Y191999D02*
X104826D01*
X101100Y191099D02*
X104826D01*
X101100Y239699D02*
X104523D01*
X101100Y137999D02*
X104362D01*
X101100Y127199D02*
X104228D01*
X101100Y117299D02*
X103890D01*
X101100Y137099D02*
X103568D01*
X101100Y160499D02*
X103554D01*
X101100Y128099D02*
X103540D01*
X101100Y136199D02*
X103457D01*
X101100Y135299D02*
X103457D01*
X101100Y134399D02*
X103457D01*
X101100Y133499D02*
X103457D01*
X101100Y132599D02*
X103457D01*
X101100Y131699D02*
X103457D01*
X101100Y130799D02*
X103457D01*
X101100Y129899D02*
X103457D01*
X101100Y128999D02*
X103457D01*
X101100Y240599D02*
X103387D01*
X101100Y170399D02*
X103281D01*
X101100Y161399D02*
X103089D01*
X101100Y169499D02*
X103064D01*
X101100Y168599D02*
X103064D01*
X101100Y167699D02*
X103064D01*
X101100Y166799D02*
X103064D01*
X101100Y165899D02*
X103064D01*
X101100Y164999D02*
X103064D01*
X101100Y164099D02*
X103064D01*
X101100Y163199D02*
X103064D01*
X101100Y162299D02*
X103064D01*
X101100Y116399D02*
X102916D01*
X101100Y241499D02*
X102532D01*
X101104Y115499D02*
X102167D01*
X101573Y242399D02*
X101627D01*
X305598Y201299D02*
X331183D01*
X305598Y200399D02*
X331183D01*
X305600Y199499D02*
X331183D01*
X311231Y198599D02*
X331183D01*
X311736Y197699D02*
X331183D01*
X311771Y196799D02*
X331183D01*
X311771Y195899D02*
X331183D01*
X311771Y194999D02*
X331183D01*
X311767Y194099D02*
X331183D01*
X311439Y193199D02*
X331183D01*
X305685Y192299D02*
X331183D01*
X305598Y191399D02*
X331183D01*
X305598Y190499D02*
X331183D01*
X305598Y189599D02*
X331183D01*
X305598Y188699D02*
X331183D01*
X305598Y187799D02*
X331183D01*
X305598Y186899D02*
X331183D01*
X305598Y185999D02*
X331183D01*
X305598Y185099D02*
X331183D01*
X305598Y184199D02*
X331183D01*
X305598Y183299D02*
X331183D01*
X305496Y182399D02*
X331183D01*
X304949Y181499D02*
X331183D01*
X277700Y180599D02*
X331183D01*
X281577Y179699D02*
X331183D01*
X283276Y178799D02*
X331183D01*
X283664Y177899D02*
X331183D01*
X283700Y176999D02*
X331183D01*
X283700Y176099D02*
X331183D01*
X283700Y175199D02*
X331183D01*
X283700Y174299D02*
X331183D01*
X283700Y173399D02*
X331183D01*
X283700Y172499D02*
X331183D01*
X294160Y171599D02*
X331183D01*
X295345Y170699D02*
X331183D01*
X295680Y169799D02*
X331183D01*
X305198Y168899D02*
X331183D01*
X305643Y167999D02*
X331183D01*
X305700Y167099D02*
X331183D01*
X305700Y166199D02*
X331183D01*
X305700Y165299D02*
X331183D01*
X305700Y164399D02*
X331183D01*
X305700Y163499D02*
X331183D01*
X305700Y162599D02*
X331183D01*
X305700Y161699D02*
X331183D01*
X305700Y160799D02*
X331183D01*
X305700Y159899D02*
X331183D01*
X305700Y158999D02*
X331183D01*
X305700Y158099D02*
X331183D01*
X305700Y157199D02*
X331183D01*
X305700Y156299D02*
X331183D01*
X305700Y155399D02*
X331183D01*
X305700Y154499D02*
X331183D01*
X305759Y153599D02*
X331183D01*
X322141Y152699D02*
X331183D01*
X323363Y151799D02*
X331183D01*
X323550Y150899D02*
X331183D01*
X323550Y149999D02*
X331183D01*
X323550Y149099D02*
X331183D01*
X323550Y148199D02*
X331183D01*
X323450Y147299D02*
X331183D01*
X322819Y146399D02*
X331183D01*
X305796Y202199D02*
X330985D01*
X306950Y152699D02*
X311718D01*
X306951Y146399D02*
X311039D01*
X307250Y151799D02*
X310495D01*
X307120Y147299D02*
X310408D01*
X307251Y150899D02*
X310308D01*
X307251Y149999D02*
X310308D01*
X307251Y149099D02*
X310308D01*
X307251Y148199D02*
X310308D01*
X307250Y145499D02*
X309581D01*
X307251Y144599D02*
X308594D01*
X307251Y143699D02*
X308309D01*
X307251Y142799D02*
X308300D01*
X307251Y141899D02*
X308300D01*
X307120Y140999D02*
X308300D01*
X306239Y140099D02*
X308300D01*
X295700Y139199D02*
X308300D01*
X295700Y138299D02*
X308300D01*
X295700Y137399D02*
X308300D01*
X298759Y140099D02*
X301714D01*
X299640Y140999D02*
X300833D01*
X298315Y168899D02*
X298749D01*
X293758Y181499D02*
X294240D01*
X277700D02*
X283732D01*
X277700Y182399D02*
X283064D01*
X277700Y191399D02*
X282906D01*
X277700Y190499D02*
X282906D01*
X277700Y189599D02*
X282906D01*
X277700Y188699D02*
X282906D01*
X277700Y187799D02*
X282906D01*
X277700Y186899D02*
X282906D01*
X277700Y185999D02*
X282906D01*
X277700Y185099D02*
X282906D01*
X277700Y184199D02*
X282906D01*
X277700Y183299D02*
X282906D01*
X277947Y192299D02*
X282561D01*
X277700Y201527D02*
X282906D01*
X277700Y200627D02*
X282906D01*
X277700Y199727D02*
X282906D01*
X296516Y169015D02*
Y167315D01*
X308180Y192507D02*
Y194207D01*
X311771Y195782D02*
X310071D01*
X308180Y199057D02*
Y197357D01*
X296496Y139953D02*
Y141653D01*
X303976Y139953D02*
Y141653D01*
X307251Y143543D02*
X305551D01*
X280530Y192323D02*
Y194023D01*
Y198873D02*
Y197173D01*
X316929Y152724D02*
Y151024D01*
X310308Y149449D02*
X312008D01*
X323550D02*
X321850D01*
X236348Y168663D02*
Y170363D01*
X239848Y172163D02*
X238148D01*
X236348Y175663D02*
Y173963D01*
X259646Y148576D02*
Y150276D01*
X263236Y151850D02*
X261536D01*
X236457Y124983D02*
Y126683D01*
X240057Y128583D02*
X238357D01*
X236457Y132183D02*
Y130483D01*
X224338Y187953D02*
X222638D01*
X221063Y191543D02*
Y189843D01*
X217788Y187953D02*
X219488D01*
X235512Y167616D02*
Y165916D01*
Y160416D02*
Y162116D01*
X239112Y164016D02*
X237412D01*
X316929Y133039D02*
Y131339D01*
X310308Y129764D02*
X312008D01*
X316929Y126489D02*
Y128189D01*
X323550Y129764D02*
X321850D01*
X114528Y182566D02*
Y180866D01*
X110938Y179291D02*
X112638D01*
X114528Y176017D02*
Y177717D01*
X103064Y165630D02*
X104764D01*
X107126Y159993D02*
Y161693D01*
X111188Y165630D02*
X109488D01*
X107126Y171267D02*
Y169567D01*
X103457Y132559D02*
X105157D01*
X107126Y126922D02*
Y128622D01*
X110794Y132559D02*
X109094D01*
X107126Y138196D02*
Y136496D01*
X114724Y199939D02*
Y198239D01*
X111124Y196339D02*
X112824D01*
X114724Y192739D02*
Y194439D01*
X239889Y120315D02*
X238189D01*
X236299Y123590D02*
Y121890D01*
X140394Y192999D02*
Y191299D01*
X147999Y189331D02*
X146299D01*
X263314Y158858D02*
X261614D01*
X259724Y162133D02*
Y160433D01*
X259329Y170686D02*
X261029D01*
X263391Y168100D02*
Y169800D01*
X267453Y170686D02*
X265753D01*
X269233Y170390D02*
X270933D01*
X272508Y166800D02*
Y168500D01*
X100000Y257480D02*
X332283D01*
Y100000*
X100000*
Y257480*
G54D34*
X157992Y212198D02*
Y213898D01*
Y221503D02*
Y219803D01*
X285440Y109370D02*
X283740D01*
X280787Y114023D02*
Y112323D01*
Y104717D02*
Y106417D01*
X168150Y238497D02*
Y240197D01*
Y247802D02*
Y246102D01*
X194835Y235118D02*
X196535D01*
X200079Y229875D02*
Y231575D01*
Y240361D02*
Y238661D01*
G74*
X0Y0D02*
M02*
