*
*
G04 PADS VX.2.3 Build Number: 9191294 generated Gerber (RS-274-X) file*
G04 PC Version=2.1*
*
%IN "LockBase_ZM_V1.4_201809"*%
*
%MOIN*%
*
%FSLAX35Y35*%
*
*
*
*
G04 PC Standard Apertures*
*
*
G04 Thermal Relief Aperture macro.*
%AMTER*
1,1,$1,0,0*
1,0,$1-$2,0,0*
21,0,$3,$4,0,0,45*
21,0,$3,$4,0,0,135*
%
*
*
G04 Annular Aperture macro.*
%AMANN*
1,1,$1,0,0*
1,0,$2,0,0*
%
*
*
G04 Odd Aperture macro.*
%AMODD*
1,1,$1,0,0*
1,0,$1-0.005,0,0*
%
*
*
G04 PC Custom Aperture Macros*
*
*
*
*
*
*
G04 PC Aperture Table*
*
%ADD010C,0.001*%
%ADD033C,0.01*%
*
*
*
*
G04 PC Circuitry*
G04 Layer Name LockBase_ZM_V1.4_201809 - circuitry*
%LPD*%
*
*
G04 PC Custom Flashes*
G04 Layer Name LockBase_ZM_V1.4_201809 - flashes*
%LPD*%
*
*
G04 PC Circuitry*
G04 Layer Name LockBase_ZM_V1.4_201809 - circuitry*
%LPD*%
*
G54D10*
G54D33*
G01X529974Y340740D02*
X537974D01*
X533974Y336740D02*
Y344740D01*
X536883Y346021D02*
X535974Y342740D01*
X536883Y346021D02*
X537793Y342740D01*
X536315Y343834D02*
X537452D01*
X509974Y340740D02*
X517974D01*
X513974Y336740D02*
Y344740D01*
X516883Y346021D02*
X515974Y342740D01*
X516883Y346021D02*
X517793Y342740D01*
X516315Y343834D02*
X517452D01*
X489974Y340740D02*
X497974D01*
X493974Y336740D02*
Y344740D01*
X496883Y346021D02*
X495974Y342740D01*
X496883Y346021D02*
X497793Y342740D01*
X496315Y343834D02*
X497452D01*
X469974Y340740D02*
X477974D01*
X473974Y336740D02*
Y344740D01*
X476883Y346021D02*
X475974Y342740D01*
X476883Y346021D02*
X477793Y342740D01*
X476315Y343834D02*
X477452D01*
X449974Y340740D02*
X457974D01*
X453974Y336740D02*
Y344740D01*
X456883Y346021D02*
X455974Y342740D01*
X456883Y346021D02*
X457793Y342740D01*
X456315Y343834D02*
X457452D01*
X429974Y340740D02*
X437974D01*
X433974Y336740D02*
Y344740D01*
X436883Y346021D02*
X435974Y342740D01*
X436883Y346021D02*
X437793Y342740D01*
X436315Y343834D02*
X437452D01*
X388449Y344210D02*
X396449D01*
Y352210*
X388449*
Y344210*
X392449Y348210D02*
Y352210D01*
X378449Y344210D02*
X386449D01*
Y352210*
X378449*
Y344210*
X382449Y348210D02*
Y352210D01*
X368449Y344210D02*
X376449D01*
Y352210*
X368449*
Y344210*
X372449Y348210D02*
Y352210D01*
X358449Y344210D02*
X366449D01*
Y352210*
X358449*
Y344210*
X362449Y348210D02*
Y352210D01*
X552418Y211681D02*
X560418Y219681D01*
X552418D02*
X560418Y211681D01*
X552418Y349476D02*
X560418Y357476D01*
X552418D02*
X560418Y349476D01*
X296512D02*
X304512Y357476D01*
X296512D02*
X304512Y349476D01*
X296512Y211681D02*
X304512Y219681D01*
X296512D02*
X304512Y211681D01*
X330778Y344519D02*
X338778D01*
Y352519*
X330778*
Y344519*
X334778Y348519D02*
Y352519D01*
X320778Y344519D02*
X328778D01*
Y352519*
X320778*
Y344519*
X324778Y348519D02*
Y352519D01*
X296000Y296000D02*
X304000D01*
Y304000*
X296000*
Y296000*
X300000Y300000D02*
Y304000D01*
X296000Y286000D02*
X304000D01*
Y294000*
X296000*
Y286000*
X300000Y290000D02*
Y294000D01*
X296000Y276000D02*
X304000D01*
Y284000*
X296000*
Y276000*
X300000Y280000D02*
Y284000D01*
X296000Y266000D02*
X304000D01*
Y274000*
X296000*
Y266000*
X300000Y270000D02*
Y274000D01*
X296000Y256000D02*
X304000D01*
Y264000*
X296000*
Y256000*
X300000Y260000D02*
Y264000D01*
X296000Y246000D02*
X304000D01*
Y254000*
X296000*
Y246000*
X300000Y250000D02*
Y254000D01*
X296000Y236000D02*
X304000D01*
Y244000*
X296000*
Y236000*
X300000Y240000D02*
Y244000D01*
X334517Y317112D02*
X342517D01*
Y325112*
X334517*
Y317112*
X338517Y321112D02*
Y325112D01*
X324517Y317112D02*
X332517D01*
Y325112*
X324517*
Y317112*
X328517Y321112D02*
Y325112D01*
X314517Y317112D02*
X322517D01*
Y325112*
X314517*
Y317112*
X318517Y321112D02*
Y325112D01*
X304517Y317112D02*
X312517D01*
Y325112*
X304517*
Y317112*
X308517Y321112D02*
Y325112D01*
X483101Y210379D02*
X491101D01*
Y218379*
X483101*
Y210379*
X487101Y214379D02*
Y218379D01*
X493101Y210379D02*
X501101D01*
Y218379*
X493101*
Y210379*
X497101Y214379D02*
Y218379D01*
X503101Y210379D02*
X511101D01*
Y218379*
X503101*
Y210379*
X507101Y214379D02*
Y218379D01*
X513101Y210379D02*
X521101D01*
Y218379*
X513101*
Y210379*
X517101Y214379D02*
Y218379D01*
X424016Y293559D02*
X428016Y297559D01*
X424016Y301559*
X420016Y297559*
X424016Y293559*
Y297559D02*
Y301559D01*
Y283559D02*
X428016Y287559D01*
X424016Y291559*
X420016Y287559*
X424016Y283559*
Y287559D02*
Y291559D01*
X309403Y214041D02*
X317403D01*
X313403Y210041D02*
Y218041D01*
X289403Y224041D02*
X297403D01*
X293403Y220041D02*
Y228041D01*
X401427Y222846D02*
X409427D01*
X405427Y218846D02*
Y226846D01*
X396427Y222646D02*
X404427D01*
X400427Y218646D02*
Y226646D01*
X392827Y215846D02*
X400827D01*
X396827Y211846D02*
Y219846D01*
X419403Y214041D02*
X427403D01*
X423403Y210041D02*
Y218041D01*
X388827Y218446D02*
X396827D01*
X392827Y214446D02*
Y222446D01*
X485027Y225646D02*
X493027D01*
X489027Y221646D02*
Y229646D01*
X451627Y215246D02*
X459627D01*
X455627Y211246D02*
Y219246D01*
X539403Y224041D02*
X547403D01*
X543403Y220041D02*
Y228041D01*
X539403Y214041D02*
X547403D01*
X543403Y210041D02*
Y218041D01*
X529403Y224041D02*
X537403D01*
X533403Y220041D02*
Y228041D01*
X529403Y214041D02*
X537403D01*
X533403Y210041D02*
Y218041D01*
X519403Y224041D02*
X527403D01*
X523403Y220041D02*
Y228041D01*
X519403Y214041D02*
X527403D01*
X523403Y210041D02*
Y218041D01*
X323627Y275246D02*
X331627D01*
X327627Y271246D02*
Y279246D01*
X333627Y272646D02*
X341627D01*
X337627Y268646D02*
Y276646D01*
X339427Y259846D02*
X347427D01*
X343427Y255846D02*
Y263846D01*
X339427Y281446D02*
X347427D01*
X343427Y277446D02*
Y285446D01*
X318027Y302246D02*
X326027D01*
X322027Y298246D02*
Y306246D01*
X349403Y234041D02*
X357403D01*
X353403Y230041D02*
Y238041D01*
X339403Y304041D02*
X347403D01*
X343403Y300041D02*
Y308041D01*
X339403Y244041D02*
X347403D01*
X343403Y240041D02*
Y248041D01*
X339403Y234041D02*
X347403D01*
X343403Y230041D02*
Y238041D01*
X329403Y244041D02*
X337403D01*
X333403Y240041D02*
Y248041D01*
X329403Y234041D02*
X337403D01*
X333403Y230041D02*
Y238041D01*
X309403Y304041D02*
X317403D01*
X313403Y300041D02*
Y308041D01*
X309403Y294041D02*
X317403D01*
X313403Y290041D02*
Y298041D01*
X299403Y234041D02*
X307403D01*
X303403Y230041D02*
Y238041D01*
X289403Y244041D02*
X297403D01*
X293403Y240041D02*
Y248041D01*
X289403Y234041D02*
X297403D01*
X293403Y230041D02*
Y238041D01*
X326627Y249646D02*
X334627D01*
X330627Y245646D02*
Y253646D01*
X394427Y292246D02*
X402427D01*
X398427Y288246D02*
Y296246D01*
X401427Y237446D02*
X409427D01*
X405427Y233446D02*
Y241446D01*
X396427Y233646D02*
X404427D01*
X400427Y229646D02*
Y237646D01*
X376427Y266246D02*
X384427D01*
X380427Y262246D02*
Y270246D01*
X392827Y235046D02*
X400827D01*
X396827Y231046D02*
Y239046D01*
X368427Y268646D02*
X376427D01*
X372427Y264646D02*
Y272646D01*
X398581Y273500D02*
X406581D01*
X402581Y269500D02*
Y277500D01*
X375627Y251046D02*
X383627D01*
X379627Y247046D02*
Y255046D01*
X427518Y253455D02*
X435518D01*
X431518Y249455D02*
Y257455D01*
X420783Y281296D02*
X428783D01*
X424783Y277296D02*
Y285296D01*
X419403Y244041D02*
X427403D01*
X423403Y240041D02*
Y248041D01*
X419403Y234041D02*
X427403D01*
X423403Y230041D02*
Y238041D01*
X407206Y285912D02*
X415206D01*
X411206Y281912D02*
Y289912D01*
X409403Y264041D02*
X417403D01*
X413403Y260041D02*
Y268041D01*
X409403Y254041D02*
X417403D01*
X413403Y250041D02*
Y258041D01*
X399403Y264041D02*
X407403D01*
X403403Y260041D02*
Y268041D01*
X399403Y254041D02*
X407403D01*
X403403Y250041D02*
Y258041D01*
X379403Y234041D02*
X387403D01*
X383403Y230041D02*
Y238041D01*
X369403Y234041D02*
X377403D01*
X373403Y230041D02*
Y238041D01*
X359403Y234041D02*
X367403D01*
X363403Y230041D02*
Y238041D01*
X358427Y270446D02*
X366427D01*
X362427Y266446D02*
Y274446D01*
X440627Y293246D02*
X448627D01*
X444627Y289246D02*
Y297246D01*
X509403Y234041D02*
X517403D01*
X513403Y230041D02*
Y238041D01*
X499403Y304041D02*
X507403D01*
X503403Y300041D02*
Y308041D01*
X499403Y284041D02*
X507403D01*
X503403Y280041D02*
Y288041D01*
X499403Y274041D02*
X507403D01*
X503403Y270041D02*
Y278041D01*
X499403Y264041D02*
X507403D01*
X503403Y260041D02*
Y268041D01*
X499403Y254041D02*
X507403D01*
X503403Y250041D02*
Y258041D01*
X499403Y234041D02*
X507403D01*
X503403Y230041D02*
Y238041D01*
X489403Y264041D02*
X497403D01*
X493403Y260041D02*
Y268041D01*
X489403Y254041D02*
X497403D01*
X493403Y250041D02*
Y258041D01*
X489403Y234041D02*
X497403D01*
X493403Y230041D02*
Y238041D01*
X479403Y304041D02*
X487403D01*
X483403Y300041D02*
Y308041D01*
X479403Y274041D02*
X487403D01*
X483403Y270041D02*
Y278041D01*
X479403Y264041D02*
X487403D01*
X483403Y260041D02*
Y268041D01*
X479403Y254041D02*
X487403D01*
X483403Y250041D02*
Y258041D01*
X479403Y234041D02*
X487403D01*
X483403Y230041D02*
Y238041D01*
X469403Y274041D02*
X477403D01*
X473403Y270041D02*
Y278041D01*
X469403Y254041D02*
X477403D01*
X473403Y250041D02*
Y258041D01*
X469403Y234041D02*
X477403D01*
X473403Y230041D02*
Y238041D01*
X459403Y274041D02*
X467403D01*
X463403Y270041D02*
Y278041D01*
X459403Y264041D02*
X467403D01*
X463403Y260041D02*
Y268041D01*
X459403Y254041D02*
X467403D01*
X463403Y250041D02*
Y258041D01*
X459403Y234041D02*
X467403D01*
X463403Y230041D02*
Y238041D01*
X449403Y304041D02*
X457403D01*
X453403Y300041D02*
Y308041D01*
X449403Y274041D02*
X457403D01*
X453403Y270041D02*
Y278041D01*
X449403Y254041D02*
X457403D01*
X453403Y250041D02*
Y258041D01*
X449403Y234041D02*
X457403D01*
X453403Y230041D02*
Y238041D01*
X430287Y241015D02*
X438287D01*
X434287Y237015D02*
Y245015D01*
X463627Y250046D02*
X471627D01*
X467627Y246046D02*
Y254046D01*
X533671Y256618D02*
X541671D01*
X533671Y264618*
X541671*
X533671Y256618*
X510600Y276200D02*
X518600Y284200D01*
Y276200*
X510600Y284200*
Y276200*
X540600Y277000D02*
X548600Y285000D01*
Y277000*
X540600Y285000*
Y277000*
X555000Y265000D02*
X563000Y273000D01*
Y265000*
X555000Y273000*
Y265000*
X550000Y301000D02*
X558000Y309000D01*
Y301000*
X550000Y309000*
Y301000*
X528400Y278200D02*
X536400Y286200D01*
Y278200*
X528400Y286200*
Y278200*
X550000Y276200D02*
X558000Y284200D01*
Y276200*
X550000Y284200*
Y276200*
X545200Y263800D02*
X553200Y271800D01*
Y263800*
X545200Y271800*
Y263800*
X559403Y234041D02*
X567403D01*
X563403Y230041D02*
Y238041D01*
X539403Y234041D02*
X547403D01*
X543403Y230041D02*
Y238041D01*
X529403Y234041D02*
X537403D01*
X533403Y230041D02*
Y238041D01*
X519403Y234041D02*
X527403D01*
X523403Y230041D02*
Y238041D01*
X339403Y354041D02*
X347403D01*
X343403Y350041D02*
Y358041D01*
X339403Y344041D02*
X347403D01*
X343403Y340041D02*
Y348041D01*
X339403Y314041D02*
X347403D01*
X343403Y310041D02*
Y318041D01*
X309403Y354041D02*
X317403D01*
X313403Y350041D02*
Y358041D01*
X309403Y344041D02*
X317403D01*
X313403Y340041D02*
Y348041D01*
X299403Y334041D02*
X307403D01*
X303403Y330041D02*
Y338041D01*
X299403Y314041D02*
X307403D01*
X303403Y310041D02*
Y318041D01*
X289403Y344041D02*
X297403D01*
X293403Y340041D02*
Y348041D01*
X376427Y313246D02*
X384427D01*
X380427Y309246D02*
Y317246D01*
X405627Y334846D02*
X413627D01*
X409627Y330846D02*
Y338846D01*
X393827Y305846D02*
X401827D01*
X397827Y301846D02*
Y309846D01*
X368427Y319646D02*
X376427D01*
X372427Y315646D02*
Y323646D01*
X429403Y334041D02*
X437403D01*
X433403Y330041D02*
Y338041D01*
X429403Y324041D02*
X437403D01*
X433403Y320041D02*
Y328041D01*
X419403Y344041D02*
X427403D01*
X423403Y340041D02*
Y348041D01*
X419403Y334041D02*
X427403D01*
X423403Y330041D02*
Y338041D01*
X399403Y344041D02*
X407403D01*
X403403Y340041D02*
Y348041D01*
X358427Y321046D02*
X366427D01*
X362427Y317046D02*
Y325046D01*
X433027Y308246D02*
X441027D01*
X437027Y304246D02*
Y312246D01*
X499403Y344041D02*
X507403D01*
X503403Y340041D02*
Y348041D01*
X499403Y334041D02*
X507403D01*
X503403Y330041D02*
Y338041D01*
X499403Y324041D02*
X507403D01*
X503403Y320041D02*
Y328041D01*
X499403Y314041D02*
X507403D01*
X503403Y310041D02*
Y318041D01*
X479403Y344041D02*
X487403D01*
X483403Y340041D02*
Y348041D01*
X479403Y334041D02*
X487403D01*
X483403Y330041D02*
Y338041D01*
X479403Y324041D02*
X487403D01*
X483403Y320041D02*
Y328041D01*
X479403Y314041D02*
X487403D01*
X483403Y310041D02*
Y318041D01*
X469403Y314041D02*
X477403D01*
X473403Y310041D02*
Y318041D01*
X459403Y344041D02*
X467403D01*
X463403Y340041D02*
Y348041D01*
X439403Y344041D02*
X447403D01*
X443403Y340041D02*
Y348041D01*
X439403Y334041D02*
X447403D01*
X443403Y330041D02*
Y338041D01*
X439403Y324041D02*
X447403D01*
X443403Y320041D02*
Y328041D01*
X439403Y314041D02*
X447403D01*
X443403Y310041D02*
Y318041D01*
X531400Y352800D02*
X539400Y360800D01*
Y352800*
X531400Y360800*
Y352800*
X542400Y309200D02*
X550400Y317200D01*
Y309200*
X542400Y317200*
Y309200*
X556800Y329600D02*
X564800Y337600D01*
Y329600*
X556800Y337600*
Y329600*
X548400Y320400D02*
X556400Y328400D01*
Y320400*
X548400Y328400*
Y320400*
X545800Y335400D02*
X553800Y343400D01*
Y335400*
X545800Y343400*
Y335400*
X290627Y363327D02*
X566217D01*
Y205846*
X290627*
Y363327*
X300000Y492000D02*
X558000D01*
X300000Y468000D02*
X558000D01*
X300000Y444000D02*
X558000D01*
X300000Y420000D02*
X558000D01*
X300000Y396000D02*
X558000D01*
X300000Y372000D02*
X558000D01*
X300000Y348000D02*
X558000D01*
X300000Y324000D02*
X558000D01*
X300000Y300000D02*
X558000D01*
X300000Y492000D02*
Y300000D01*
X384000Y492000D02*
Y300000D01*
X420000Y492000D02*
Y300000D01*
X456000Y492000D02*
Y300000D01*
X510000Y492000D02*
Y300000D01*
X558000Y492000D02*
Y300000D01*
X335500Y480750D02*
X334955Y481500D01*
X334136Y481875*
X333045*
X332227Y481500*
X331682Y480750*
Y480000*
X331955Y479250*
X332227Y478875*
X332773Y478500*
X334409Y477750*
X334955Y477375*
X335227Y477000*
X335500Y476250*
Y475125*
X334955Y474375*
X334136Y474000*
X333045*
X332227Y474375*
X331682Y475125*
X337955Y481875D02*
Y474000D01*
X344227Y481875D02*
X340409Y474000D01*
Y481875D02*
X344227D01*
X340409Y474000D02*
X344227D01*
X346682Y481875D02*
Y474000D01*
Y481875D02*
X350227D01*
X346682Y478125D02*
X348864D01*
X346682Y474000D02*
X350227D01*
X393864Y481875D02*
X393318Y481500D01*
X392773Y480750*
X392500Y480000*
X392227Y478875*
Y477000*
X392500Y475875*
X392773Y475125*
X393318Y474375*
X393864Y474000*
X394955*
X395500Y474375*
X396045Y475125*
X396318Y475875*
X396591Y477000*
Y478875*
X396318Y480000*
X396045Y480750*
X395500Y481500*
X394955Y481875*
X393864*
X394682Y475500D02*
X396318Y473250D01*
X400955Y481875D02*
Y474000D01*
X399045Y481875D02*
X402864D01*
X405318D02*
X407500Y478125D01*
Y474000*
X409682Y481875D02*
X407500Y478125D01*
X432045Y480750D02*
X431500Y481500D01*
X430682Y481875*
X429591*
X428773Y481500*
X428227Y480750*
Y480000*
X428500Y479250*
X428773Y478875*
X429318Y478500*
X430955Y477750*
X431500Y477375*
X431773Y477000*
X432045Y476250*
Y475125*
X431500Y474375*
X430682Y474000*
X429591*
X428773Y474375*
X428227Y475125*
X434500Y481875D02*
X436682Y478125D01*
Y474000*
X438864Y481875D02*
X436682Y478125D01*
X441318Y481875D02*
Y474000D01*
Y481875D02*
X443500Y474000D01*
X445682Y481875D02*
X443500Y474000D01*
X445682Y481875D02*
Y474000D01*
X467500Y481875D02*
Y474000D01*
Y481875D02*
X469955D01*
X470773Y481500*
X471045Y481125*
X471318Y480375*
Y479250*
X471045Y478500*
X470773Y478125*
X469955Y477750*
X467500*
X473773Y481875D02*
Y474000D01*
X477045*
X481682Y481875D02*
X479500Y474000D01*
X481682Y481875D02*
X483864Y474000D01*
X480318Y476625D02*
X483045D01*
X488227Y481875D02*
Y474000D01*
X486318Y481875D02*
X490136D01*
X492591D02*
Y474000D01*
Y481875D02*
X496136D01*
X492591Y478125D02*
X494773D01*
X492591Y474000D02*
X496136D01*
X498591Y481875D02*
Y474000D01*
Y481875D02*
X500500D01*
X501318Y481500*
X501864Y480750*
X502136Y480000*
X502409Y478875*
Y477000*
X502136Y475875*
X501864Y475125*
X501318Y474375*
X500500Y474000*
X498591*
X526682Y481875D02*
Y474000D01*
X524773Y481875D02*
X528591D01*
X532682D02*
X532136Y481500D01*
X531591Y480750*
X531318Y480000*
X531045Y478875*
Y477000*
X531318Y475875*
X531591Y475125*
X532136Y474375*
X532682Y474000*
X533773*
X534318Y474375*
X534864Y475125*
X535136Y475875*
X535409Y477000*
Y478875*
X535136Y480000*
X534864Y480750*
X534318Y481500*
X533773Y481875*
X532682*
X537864D02*
Y474000D01*
X541136*
X306000Y456375D02*
X306545Y456750D01*
X307364Y457875*
Y450000*
X310091Y456000D02*
Y456375D01*
X310364Y457125*
X310636Y457500*
X311182Y457875*
X312273*
X312818Y457500*
X313091Y457125*
X313364Y456375*
Y455625*
X313091Y454875*
X312545Y453750*
X309818Y450000*
X313636*
X395364Y456375D02*
X395909Y456750D01*
X396727Y457875*
Y450000*
X399182Y456375D02*
X399727Y456750D01*
X400545Y457875*
Y450000*
X406545Y455250D02*
X406273Y454125D01*
X405727Y453375*
X404909Y453000*
X404636*
X403818Y453375*
X403273Y454125*
X403000Y455250*
Y455625*
X403273Y456750*
X403818Y457500*
X404636Y457875*
X404909*
X405727Y457500*
X406273Y456750*
X406545Y455250*
Y453375*
X406273Y451500*
X405727Y450375*
X404909Y450000*
X404364*
X403545Y450375*
X403273Y451125*
X432000Y456000D02*
X444000D01*
X438000Y450000D02*
Y462000D01*
X464636Y457875D02*
X466818Y454125D01*
Y450000*
X469000Y457875D02*
X466818Y454125D01*
X471455Y457875D02*
Y450000D01*
Y457875D02*
X475000D01*
X471455Y454125D02*
X473636D01*
X471455Y450000D02*
X475000D01*
X481273Y456750D02*
X480727Y457500D01*
X479909Y457875*
X478818*
X478000Y457500*
X477455Y456750*
Y456000*
X477727Y455250*
X478000Y454875*
X478545Y454500*
X480182Y453750*
X480727Y453375*
X481000Y453000*
X481273Y452250*
Y451125*
X480727Y450375*
X479909Y450000*
X478818*
X478000Y450375*
X477455Y451125*
X517818Y456750D02*
Y450000D01*
X515364Y453375D02*
X520273D01*
X527636Y459375D02*
X522727Y447375D01*
X530091Y453375D02*
X535000D01*
X539091Y457875D02*
X538273Y457500D01*
X537727Y456375*
X537455Y454500*
Y453375*
X537727Y451500*
X538273Y450375*
X539091Y450000*
X539636*
X540455Y450375*
X541000Y451500*
X541273Y453375*
Y454500*
X541000Y456375*
X540455Y457500*
X539636Y457875*
X539091*
X544000Y450750D02*
X543727Y450375D01*
X544000Y450000*
X544273Y450375*
X544000Y450750*
X548364Y457875D02*
X547545Y457500D01*
X547000Y456375*
X546727Y454500*
Y453375*
X547000Y451500*
X547545Y450375*
X548364Y450000*
X548909*
X549727Y450375*
X550273Y451500*
X550545Y453375*
Y454500*
X550273Y456375*
X549727Y457500*
X548909Y457875*
X548364*
X309818Y433875D02*
X307091Y426000D01*
X306000Y433875D02*
X309818D01*
X313636D02*
X312818Y433500D01*
X312545Y432750*
Y432000*
X312818Y431250*
X313364Y430875*
X314455Y430500*
X315273Y430125*
X315818Y429375*
X316091Y428625*
Y427500*
X315818Y426750*
X315545Y426375*
X314727Y426000*
X313636*
X312818Y426375*
X312545Y426750*
X312273Y427500*
Y428625*
X312545Y429375*
X313091Y430125*
X313909Y430500*
X315000Y430875*
X315545Y431250*
X315818Y432000*
Y432750*
X315545Y433500*
X314727Y433875*
X313636*
X318818Y426750D02*
X318545Y426375D01*
X318818Y426000*
X319091Y426375*
X318818Y426750*
X325364Y433875D02*
X322636Y426000D01*
X321545Y433875D02*
X325364D01*
X330545D02*
X327818Y428625D01*
X331909*
X330545Y433875D02*
Y426000D01*
X401636Y433875D02*
X398909Y428625D01*
X403000*
X401636Y433875D02*
Y426000D01*
X432000D02*
X444000Y438000D01*
X432000D02*
X444000Y426000D01*
X464636Y433875D02*
X466818Y430125D01*
Y426000*
X469000Y433875D02*
X466818Y430125D01*
X471455Y433875D02*
Y426000D01*
Y433875D02*
X475000D01*
X471455Y430125D02*
X473636D01*
X471455Y426000D02*
X475000D01*
X481273Y432750D02*
X480727Y433500D01*
X479909Y433875*
X478818*
X478000Y433500*
X477455Y432750*
Y432000*
X477727Y431250*
X478000Y430875*
X478545Y430500*
X480182Y429750*
X480727Y429375*
X481000Y429000*
X481273Y428250*
Y427125*
X480727Y426375*
X479909Y426000*
X478818*
X478000Y426375*
X477455Y427125*
X517818Y432750D02*
Y426000D01*
X515364Y429375D02*
X520273D01*
X527636Y435375D02*
X522727Y423375D01*
X530091Y429375D02*
X535000D01*
X539091Y433875D02*
X538273Y433500D01*
X537727Y432375*
X537455Y430500*
Y429375*
X537727Y427500*
X538273Y426375*
X539091Y426000*
X539636*
X540455Y426375*
X541000Y427500*
X541273Y429375*
Y430500*
X541000Y432375*
X540455Y433500*
X539636Y433875*
X539091*
X544000Y426750D02*
X543727Y426375D01*
X544000Y426000*
X544273Y426375*
X544000Y426750*
X548364Y433875D02*
X547545Y433500D01*
X547000Y432375*
X546727Y430500*
Y429375*
X547000Y427500*
X547545Y426375*
X548364Y426000*
X548909*
X549727Y426375*
X550273Y427500*
X550545Y429375*
Y430500*
X550273Y432375*
X549727Y433500*
X548909Y433875*
X548364*
X306545Y409875D02*
X309545D01*
X307909Y406875*
X308727*
X309273Y406500*
X309545Y406125*
X309818Y405000*
Y404250*
X309545Y403125*
X309000Y402375*
X308182Y402000*
X307364*
X306545Y402375*
X306273Y402750*
X306000Y403500*
X315818Y409875D02*
X313091D01*
X312818Y406500*
X313091Y406875*
X313909Y407250*
X314727*
X315545Y406875*
X316091Y406125*
X316364Y405000*
X316091Y404250*
X315818Y403125*
X315273Y402375*
X314455Y402000*
X313636*
X312818Y402375*
X312545Y402750*
X312273Y403500*
X319091Y402750D02*
X318818Y402375D01*
X319091Y402000*
X319364Y402375*
X319091Y402750*
X324545Y409875D02*
X321818Y404625D01*
X325909*
X324545Y409875D02*
Y402000D01*
X328909Y409875D02*
X331909D01*
X330273Y406875*
X331091*
X331636Y406500*
X331909Y406125*
X332182Y405000*
Y404250*
X331909Y403125*
X331364Y402375*
X330545Y402000*
X329727*
X328909Y402375*
X328636Y402750*
X328364Y403500*
X397409Y408000D02*
Y408375D01*
X397682Y409125*
X397955Y409500*
X398500Y409875*
X399591*
X400136Y409500*
X400409Y409125*
X400682Y408375*
Y407625*
X400409Y406875*
X399864Y405750*
X397136Y402000*
X400955*
X403409Y408375D02*
X403955Y408750D01*
X404773Y409875*
Y402000*
X432000D02*
X444000D01*
Y414000*
X432000*
Y402000*
X438000Y408000D02*
Y414000D01*
X464636Y409875D02*
X466818Y406125D01*
Y402000*
X469000Y409875D02*
X466818Y406125D01*
X471455Y409875D02*
Y402000D01*
Y409875D02*
X475000D01*
X471455Y406125D02*
X473636D01*
X471455Y402000D02*
X475000D01*
X481273Y408750D02*
X480727Y409500D01*
X479909Y409875*
X478818*
X478000Y409500*
X477455Y408750*
Y408000*
X477727Y407250*
X478000Y406875*
X478545Y406500*
X480182Y405750*
X480727Y405375*
X481000Y405000*
X481273Y404250*
Y403125*
X480727Y402375*
X479909Y402000*
X478818*
X478000Y402375*
X477455Y403125*
X517818Y408750D02*
Y402000D01*
X515364Y405375D02*
X520273D01*
X527636Y411375D02*
X522727Y399375D01*
X530091Y405375D02*
X535000D01*
X539091Y409875D02*
X538273Y409500D01*
X537727Y408375*
X537455Y406500*
Y405375*
X537727Y403500*
X538273Y402375*
X539091Y402000*
X539636*
X540455Y402375*
X541000Y403500*
X541273Y405375*
Y406500*
X541000Y408375*
X540455Y409500*
X539636Y409875*
X539091*
X544000Y402750D02*
X543727Y402375D01*
X544000Y402000*
X544273Y402375*
X544000Y402750*
X548364Y409875D02*
X547545Y409500D01*
X547000Y408375*
X546727Y406500*
Y405375*
X547000Y403500*
X547545Y402375*
X548364Y402000*
X548909*
X549727Y402375*
X550273Y403500*
X550545Y405375*
Y406500*
X550273Y408375*
X549727Y409500*
X548909Y409875*
X548364*
X306545Y385875D02*
X309545D01*
X307909Y382875*
X308727*
X309273Y382500*
X309545Y382125*
X309818Y381000*
Y380250*
X309545Y379125*
X309000Y378375*
X308182Y378000*
X307364*
X306545Y378375*
X306273Y378750*
X306000Y379500*
X315818Y385875D02*
X313091D01*
X312818Y382500*
X313091Y382875*
X313909Y383250*
X314727*
X315545Y382875*
X316091Y382125*
X316364Y381000*
X316091Y380250*
X315818Y379125*
X315273Y378375*
X314455Y378000*
X313636*
X312818Y378375*
X312545Y378750*
X312273Y379500*
X319091Y378750D02*
X318818Y378375D01*
X319091Y378000*
X319364Y378375*
X319091Y378750*
X324545Y385875D02*
X321818Y380625D01*
X325909*
X324545Y385875D02*
Y378000D01*
X399318Y384000D02*
Y384375D01*
X399591Y385125*
X399864Y385500*
X400409Y385875*
X401500*
X402045Y385500*
X402318Y385125*
X402591Y384375*
Y383625*
X402318Y382875*
X401773Y381750*
X399045Y378000*
X402864*
X438000D02*
X444000Y384000D01*
X438000Y390000*
X432000Y384000*
X438000Y378000*
Y384000D02*
Y390000D01*
X464636Y385875D02*
X466818Y382125D01*
Y378000*
X469000Y385875D02*
X466818Y382125D01*
X471455Y385875D02*
Y378000D01*
Y385875D02*
X475000D01*
X471455Y382125D02*
X473636D01*
X471455Y378000D02*
X475000D01*
X481273Y384750D02*
X480727Y385500D01*
X479909Y385875*
X478818*
X478000Y385500*
X477455Y384750*
Y384000*
X477727Y383250*
X478000Y382875*
X478545Y382500*
X480182Y381750*
X480727Y381375*
X481000Y381000*
X481273Y380250*
Y379125*
X480727Y378375*
X479909Y378000*
X478818*
X478000Y378375*
X477455Y379125*
X517818Y384750D02*
Y378000D01*
X515364Y381375D02*
X520273D01*
X527636Y387375D02*
X522727Y375375D01*
X530091Y381375D02*
X535000D01*
X539091Y385875D02*
X538273Y385500D01*
X537727Y384375*
X537455Y382500*
Y381375*
X537727Y379500*
X538273Y378375*
X539091Y378000*
X539636*
X540455Y378375*
X541000Y379500*
X541273Y381375*
Y382500*
X541000Y384375*
X540455Y385500*
X539636Y385875*
X539091*
X544000Y378750D02*
X543727Y378375D01*
X544000Y378000*
X544273Y378375*
X544000Y378750*
X548364Y385875D02*
X547545Y385500D01*
X547000Y384375*
X546727Y382500*
Y381375*
X547000Y379500*
X547545Y378375*
X548364Y378000*
X548909*
X549727Y378375*
X550273Y379500*
X550545Y381375*
Y382500*
X550273Y384375*
X549727Y385500*
X548909Y385875*
X548364*
X306273Y360000D02*
Y360375D01*
X306545Y361125*
X306818Y361500*
X307364Y361875*
X308455*
X309000Y361500*
X309273Y361125*
X309545Y360375*
Y359625*
X309273Y358875*
X308727Y357750*
X306000Y354000*
X309818*
X315818Y361875D02*
X313091D01*
X312818Y358500*
X313091Y358875*
X313909Y359250*
X314727*
X315545Y358875*
X316091Y358125*
X316364Y357000*
X316091Y356250*
X315818Y355125*
X315273Y354375*
X314455Y354000*
X313636*
X312818Y354375*
X312545Y354750*
X312273Y355500*
X400273Y360375D02*
X400818Y360750D01*
X401636Y361875*
Y354000*
X432000D02*
X444000D01*
X432000Y366000*
X444000*
X432000Y354000*
X464636Y361875D02*
X466818Y358125D01*
Y354000*
X469000Y361875D02*
X466818Y358125D01*
X471455Y361875D02*
Y354000D01*
Y361875D02*
X475000D01*
X471455Y358125D02*
X473636D01*
X471455Y354000D02*
X475000D01*
X481273Y360750D02*
X480727Y361500D01*
X479909Y361875*
X478818*
X478000Y361500*
X477455Y360750*
Y360000*
X477727Y359250*
X478000Y358875*
X478545Y358500*
X480182Y357750*
X480727Y357375*
X481000Y357000*
X481273Y356250*
Y355125*
X480727Y354375*
X479909Y354000*
X478818*
X478000Y354375*
X477455Y355125*
X517818Y360750D02*
Y354000D01*
X515364Y357375D02*
X520273D01*
X527636Y363375D02*
X522727Y351375D01*
X530091Y357375D02*
X535000D01*
X539091Y361875D02*
X538273Y361500D01*
X537727Y360375*
X537455Y358500*
Y357375*
X537727Y355500*
X538273Y354375*
X539091Y354000*
X539636*
X540455Y354375*
X541000Y355500*
X541273Y357375*
Y358500*
X541000Y360375*
X540455Y361500*
X539636Y361875*
X539091*
X544000Y354750D02*
X543727Y354375D01*
X544000Y354000*
X544273Y354375*
X544000Y354750*
X548364Y361875D02*
X547545Y361500D01*
X547000Y360375*
X546727Y358500*
Y357375*
X547000Y355500*
X547545Y354375*
X548364Y354000*
X548909*
X549727Y354375*
X550273Y355500*
X550545Y357375*
Y358500*
X550273Y360375*
X549727Y361500*
X548909Y361875*
X548364*
X306545Y337875D02*
X309545D01*
X307909Y334875*
X308727*
X309273Y334500*
X309545Y334125*
X309818Y333000*
Y332250*
X309545Y331125*
X309000Y330375*
X308182Y330000*
X307364*
X306545Y330375*
X306273Y330750*
X306000Y331500*
X316091Y337875D02*
X313364Y330000D01*
X312273Y337875D02*
X316091D01*
X397136Y336375D02*
X397682Y336750D01*
X398500Y337875*
Y330000*
X401227Y336000D02*
Y336375D01*
X401500Y337125*
X401773Y337500*
X402318Y337875*
X403409*
X403955Y337500*
X404227Y337125*
X404500Y336375*
Y335625*
X404227Y334875*
X403682Y333750*
X400955Y330000*
X404773*
X432000D02*
X444000Y342000D01*
Y330000*
X432000Y342000*
Y330000*
X464636Y337875D02*
X466818Y334125D01*
Y330000*
X469000Y337875D02*
X466818Y334125D01*
X471455Y337875D02*
Y330000D01*
Y337875D02*
X475000D01*
X471455Y334125D02*
X473636D01*
X471455Y330000D02*
X475000D01*
X481273Y336750D02*
X480727Y337500D01*
X479909Y337875*
X478818*
X478000Y337500*
X477455Y336750*
Y336000*
X477727Y335250*
X478000Y334875*
X478545Y334500*
X480182Y333750*
X480727Y333375*
X481000Y333000*
X481273Y332250*
Y331125*
X480727Y330375*
X479909Y330000*
X478818*
X478000Y330375*
X477455Y331125*
X517818Y336750D02*
Y330000D01*
X515364Y333375D02*
X520273D01*
X527636Y339375D02*
X522727Y327375D01*
X530091Y333375D02*
X535000D01*
X539091Y337875D02*
X538273Y337500D01*
X537727Y336375*
X537455Y334500*
Y333375*
X537727Y331500*
X538273Y330375*
X539091Y330000*
X539636*
X540455Y330375*
X541000Y331500*
X541273Y333375*
Y334500*
X541000Y336375*
X540455Y337500*
X539636Y337875*
X539091*
X544000Y330750D02*
X543727Y330375D01*
X544000Y330000*
X544273Y330375*
X544000Y330750*
X548364Y337875D02*
X547545Y337500D01*
X547000Y336375*
X546727Y334500*
Y333375*
X547000Y331500*
X547545Y330375*
X548364Y330000*
X548909*
X549727Y330375*
X550273Y331500*
X550545Y333375*
Y334500*
X550273Y336375*
X549727Y337500*
X548909Y337875*
X548364*
X308727Y313875D02*
X306000Y308625D01*
X310091*
X308727Y313875D02*
Y306000D01*
X316364Y313875D02*
X313636Y306000D01*
X312545Y313875D02*
X316364D01*
X319091Y306750D02*
X318818Y306375D01*
X319091Y306000*
X319364Y306375*
X319091Y306750*
X322091Y312000D02*
Y312375D01*
X322364Y313125*
X322636Y313500*
X323182Y313875*
X324273*
X324818Y313500*
X325091Y313125*
X325364Y312375*
Y311625*
X325091Y310875*
X324545Y309750*
X321818Y306000*
X325636*
X330818Y313875D02*
X328091Y308625D01*
X332182*
X330818Y313875D02*
Y306000D01*
X402455Y312750D02*
X402182Y313500D01*
X401364Y313875*
X400818*
X400000Y313500*
X399455Y312375*
X399182Y310500*
Y308625*
X399455Y307125*
X400000Y306375*
X400818Y306000*
X401091*
X401909Y306375*
X402455Y307125*
X402727Y308250*
Y308625*
X402455Y309750*
X401909Y310500*
X401091Y310875*
X400818*
X400000Y310500*
X399455Y309750*
X399182Y308625*
X432000Y312000D02*
X444000D01*
X438000Y306000D02*
Y318000D01*
X442745Y321300D02*
X441000Y315000D01*
X442745Y321300D02*
X444491Y315000D01*
X441655Y317100D02*
X443836D01*
X464636Y313875D02*
X466818Y310125D01*
Y306000*
X469000Y313875D02*
X466818Y310125D01*
X471455Y313875D02*
Y306000D01*
Y313875D02*
X475000D01*
X471455Y310125D02*
X473636D01*
X471455Y306000D02*
X475000D01*
X481273Y312750D02*
X480727Y313500D01*
X479909Y313875*
X478818*
X478000Y313500*
X477455Y312750*
Y312000*
X477727Y311250*
X478000Y310875*
X478545Y310500*
X480182Y309750*
X480727Y309375*
X481000Y309000*
X481273Y308250*
Y307125*
X480727Y306375*
X479909Y306000*
X478818*
X478000Y306375*
X477455Y307125*
X517818Y312750D02*
Y306000D01*
X515364Y309375D02*
X520273D01*
X527636Y315375D02*
X522727Y303375D01*
X530091Y309375D02*
X535000D01*
X539091Y313875D02*
X538273Y313500D01*
X537727Y312375*
X537455Y310500*
Y309375*
X537727Y307500*
X538273Y306375*
X539091Y306000*
X539636*
X540455Y306375*
X541000Y307500*
X541273Y309375*
Y310500*
X541000Y312375*
X540455Y313500*
X539636Y313875*
X539091*
X544000Y306750D02*
X543727Y306375D01*
X544000Y306000*
X544273Y306375*
X544000Y306750*
X548364Y313875D02*
X547545Y313500D01*
X547000Y312375*
X546727Y310500*
Y309375*
X547000Y307500*
X547545Y306375*
X548364Y306000*
X548909*
X549727Y306375*
X550273Y307500*
X550545Y309375*
Y310500*
X550273Y312375*
X549727Y313500*
X548909Y313875*
X548364*
X0Y0D02*
M02*
