%FSLAX25Y25*%
%MOIN*%
G70*
G01*
G75*
%ADD10C,0.02000*%
%ADD11C,0.03000*%
%ADD12C,0.01500*%
%ADD13R,0.01575X0.01181*%
%ADD14R,0.03937X0.02362*%
%ADD15R,0.03347X0.02756*%
%ADD16R,0.07480X0.11811*%
%ADD17O,0.06890X0.02362*%
%ADD18O,0.02362X0.07087*%
%ADD19O,0.07087X0.02362*%
%ADD20O,0.06299X0.02362*%
%ADD21R,0.02756X0.03347*%
%ADD22R,0.00984X0.01575*%
%ADD23R,0.02362X0.01969*%
%ADD24R,0.00984X0.01299*%
G04:AMPARAMS|DCode=25|XSize=35.43mil|YSize=157.48mil|CornerRadius=1.77mil|HoleSize=0mil|Usage=FLASHONLY|Rotation=90.000|XOffset=0mil|YOffset=0mil|HoleType=Round|Shape=RoundedRectangle|*
%AMROUNDEDRECTD25*
21,1,0.03543,0.15394,0,0,90.0*
21,1,0.03189,0.15748,0,0,90.0*
1,1,0.00354,0.07697,0.01595*
1,1,0.00354,0.07697,-0.01595*
1,1,0.00354,-0.07697,-0.01595*
1,1,0.00354,-0.07697,0.01595*
%
%ADD25ROUNDEDRECTD25*%
%ADD26R,0.01181X0.01575*%
%ADD27R,0.02362X0.02362*%
%ADD28R,0.02362X0.02362*%
%ADD29R,0.03347X0.01575*%
%ADD30R,0.05118X0.03937*%
%ADD31O,0.03740X0.00984*%
%ADD32O,0.00984X0.03740*%
%ADD33R,0.08661X0.08661*%
%ADD34R,0.03150X0.02559*%
%ADD35O,0.01378X0.06693*%
%ADD36C,0.03937*%
%ADD37R,0.01200X0.01800*%
%ADD38R,0.07874X0.03937*%
%ADD39R,0.01575X0.05906*%
%ADD40R,0.07874X0.07874*%
%ADD41O,0.03937X0.01181*%
%ADD42R,0.03937X0.01181*%
%ADD43R,0.02500X0.05906*%
%ADD44R,0.04800X0.05600*%
%ADD45R,0.04724X0.03150*%
%ADD46O,0.03740X0.01378*%
%ADD47R,0.08661X0.16929*%
%ADD48R,0.04803X0.02441*%
%ADD49R,0.07087X0.07874*%
%ADD50O,0.06693X0.01063*%
%ADD51R,0.06693X0.01063*%
%ADD52R,0.01063X0.06693*%
%ADD53R,0.08898X0.25590*%
%ADD54R,0.03937X0.05118*%
%ADD55R,0.03937X0.05906*%
%ADD56R,0.07874X0.07874*%
%ADD57R,0.04724X0.09843*%
%ADD58R,0.10000X0.07000*%
%ADD59O,0.05906X0.03150*%
%ADD60R,0.07087X0.03937*%
%ADD61O,0.03150X0.05906*%
%ADD62R,0.03937X0.07087*%
%ADD63C,0.01000*%
%ADD64C,0.08000*%
%ADD65C,0.01200*%
%ADD66C,0.00800*%
%ADD67C,0.02500*%
%ADD68R,0.11600X0.03500*%
%ADD69R,0.12910X0.06885*%
%ADD70R,0.04300X0.04600*%
%ADD71R,0.04600X0.21700*%
%ADD72R,0.34969X0.11400*%
%ADD73R,0.26500X0.16000*%
%ADD74R,0.18000X0.08400*%
%ADD75R,0.10500X0.06400*%
%ADD76R,0.06000X0.09600*%
%ADD77R,0.06700X0.09800*%
%ADD78R,0.04200X0.18700*%
%ADD79R,0.06200X0.14700*%
%ADD80R,0.10400X0.95500*%
%ADD81R,0.27300X0.16100*%
%ADD82R,0.05700X0.21700*%
%ADD83R,0.08100X0.13300*%
%ADD84R,0.08700X0.05400*%
%ADD85R,0.05000X0.07173*%
%ADD86R,0.06600X0.19900*%
%ADD87C,0.00500*%
%ADD88R,0.05906X0.05906*%
%ADD89C,0.05906*%
%ADD90C,0.07874*%
%ADD91R,0.07874X0.07874*%
G04:AMPARAMS|DCode=92|XSize=51.18mil|YSize=173.23mil|CornerRadius=2.56mil|HoleSize=0mil|Usage=FLASHONLY|Rotation=90.000|XOffset=0mil|YOffset=0mil|HoleType=Round|Shape=RoundedRectangle|*
%AMROUNDEDRECTD92*
21,1,0.05118,0.16811,0,0,90.0*
21,1,0.04606,0.17323,0,0,90.0*
1,1,0.00512,0.08406,0.02303*
1,1,0.00512,0.08406,-0.02303*
1,1,0.00512,-0.08406,-0.02303*
1,1,0.00512,-0.08406,0.02303*
%
%ADD92ROUNDEDRECTD92*%
%ADD93C,0.01969*%
%ADD94R,0.05315X0.07284*%
%ADD95C,0.13780*%
%ADD96O,0.07874X0.11811*%
%ADD97R,0.07874X0.11811*%
%ADD98C,0.02000*%
%ADD99C,0.03000*%
%ADD100C,0.03500*%
%ADD101C,0.04000*%
%ADD102C,0.02598*%
%ADD103C,0.04000*%
%ADD104R,0.10876X0.04450*%
%ADD105R,0.12400X0.11000*%
%ADD106R,0.12400X0.13400*%
%ADD107R,0.42200X0.13900*%
%ADD108R,0.28100X0.17200*%
%ADD109R,0.10200X0.09400*%
%ADD110R,0.09500X0.12000*%
%ADD111C,0.05000*%
%ADD112R,0.39000X0.13800*%
%ADD113R,0.06200X0.13300*%
%ADD114R,0.21900X0.04900*%
%ADD115R,0.19300X0.05600*%
%ADD116R,0.27100X0.16800*%
%ADD117R,0.08400X0.08100*%
%ADD118R,0.08300X0.14100*%
%ADD119R,0.08661X0.11024*%
%ADD120R,0.01969X0.07874*%
%ADD121R,0.02362X0.03937*%
%ADD122R,0.02500X0.05500*%
%ADD123R,0.06299X0.01969*%
%ADD124R,0.07874X0.14410*%
%ADD125R,0.07000X0.10000*%
%ADD126R,0.07087X0.03937*%
%ADD127O,0.09843X0.02362*%
%ADD128O,0.08661X0.02362*%
%ADD129O,0.01378X0.03740*%
%ADD130R,0.16929X0.08661*%
%ADD131R,0.04843X0.02559*%
%ADD132R,0.08268X0.02756*%
%ADD133O,0.03543X0.01969*%
%ADD134O,0.03543X0.01969*%
%ADD135R,0.03543X0.01969*%
%ADD136R,0.03347X0.01575*%
%ADD137R,0.07874X0.01969*%
%ADD138R,0.05118X0.19685*%
%ADD139R,0.03150X0.04724*%
%ADD140R,0.19685X0.05118*%
%ADD141C,0.09000*%
%ADD142R,0.22800X0.06300*%
%ADD143R,0.08600X0.09700*%
%ADD144R,0.05400X0.08800*%
%ADD145R,0.03600X0.11400*%
%ADD146R,0.11100X0.13400*%
%ADD147R,0.08800X0.07400*%
%ADD148R,0.29300X0.15600*%
%ADD149R,0.14000X0.54700*%
%ADD150R,0.48700X0.11300*%
%ADD151R,0.26931X0.16000*%
%ADD152R,0.14700X0.03700*%
%ADD153R,0.08500X0.39500*%
%ADD154R,0.04900X0.17100*%
%ADD155R,0.07600X0.09400*%
%ADD156R,0.03474X0.08965*%
%ADD157R,0.08900X0.10200*%
%ADD158R,0.15200X0.28165*%
%ADD159R,0.15800X0.09700*%
%ADD160C,0.00984*%
%ADD161C,0.00300*%
%ADD162C,0.00787*%
%ADD163C,0.02362*%
%ADD164C,0.00600*%
%ADD165C,0.00700*%
%ADD166C,0.00900*%
%ADD167R,0.05417X0.06634*%
D10*
X134132Y136900D02*
G03*
X134132Y136900I-1000J0D01*
G01*
D12*
X249232Y55361D02*
X325609D01*
X249232Y-3300D02*
X325609D01*
X249232Y48368D02*
Y55361D01*
X325593Y13900D02*
X325616Y31100D01*
D63*
X365329Y-3253D02*
G03*
X375558Y-3253I5114J2953D01*
G01*
X375026Y2410D02*
G03*
X365637Y2410I-4694J-2710D01*
G01*
X375026Y67410D02*
G03*
X365637Y67410I-4694J-2710D01*
G01*
X365329Y61747D02*
G03*
X375558Y61747I5114J2953D01*
G01*
X365329Y29247D02*
G03*
X375558Y29247I5114J2953D01*
G01*
X375026Y34910D02*
G03*
X365637Y34910I-4694J-2710D01*
G01*
X375026Y18660D02*
G03*
X365637Y18660I-4694J-2710D01*
G01*
X365329Y12997D02*
G03*
X375558Y12997I5114J2953D01*
G01*
X365329Y45497D02*
G03*
X375558Y45497I5114J2953D01*
G01*
X375026Y51160D02*
G03*
X365637Y51160I-4694J-2710D01*
G01*
X135953Y-6019D02*
G03*
X135953Y-6019I-787J0D01*
G01*
X-4439Y123300D02*
Y183300D01*
X42805Y123300D02*
Y183300D01*
X-4439Y123300D02*
X42805D01*
X-4439Y183300D02*
X42805D01*
D65*
X266800Y7700D02*
G03*
X266800Y7700I-400J0D01*
G01*
X122106Y98326D02*
G03*
X122106Y98326I-400J0D01*
G01*
D66*
X75200Y-10000D02*
X78200D01*
X70700D02*
X73700D01*
X79700D02*
X82700D01*
X70700Y13000D02*
X73700D01*
X79700D02*
X82700D01*
Y-10000D02*
Y13000D01*
X70700Y-10000D02*
Y13000D01*
X76700Y12000D02*
Y14000D01*
X75200Y13000D02*
X78200D01*
X89600Y-9800D02*
X92600D01*
X85100D02*
X88100D01*
X94100D02*
X97100D01*
X85100Y13200D02*
X88100D01*
X94100D02*
X97100D01*
Y-9800D02*
Y13200D01*
X85100Y-9800D02*
Y13200D01*
X91100Y12200D02*
Y14200D01*
X89600Y13200D02*
X92600D01*
D87*
X161432Y192300D02*
G03*
X161432Y192300I-1000J0D01*
G01*
X215801Y138743D02*
X218399D01*
X218675Y136279D02*
Y139665D01*
X215525Y136279D02*
Y139665D01*
X209099Y134257D02*
Y137210D01*
Y143116D02*
Y146069D01*
X202800Y138391D02*
Y141935D01*
Y134257D02*
X209099D01*
X202800Y146069D02*
X209099D01*
X209468Y147857D02*
Y150810D01*
Y156716D02*
Y159669D01*
X203169Y151991D02*
Y155535D01*
Y147857D02*
X209468D01*
X203169Y159669D02*
X209468D01*
X133335Y189026D02*
X137665D01*
X133335Y198869D02*
X137665D01*
X133335Y189026D02*
Y198869D01*
X137665Y189026D02*
Y198869D01*
X130765Y189719D02*
Y197987D01*
X127222Y198774D02*
X129978D01*
X127222Y188932D02*
X129978D01*
X126435Y189719D02*
Y197987D01*
Y189719D02*
X127222Y188932D01*
X129978D02*
X130765Y189719D01*
X129978Y198774D02*
X130765Y197987D01*
X126435D02*
X127222Y198774D01*
X7483Y8866D02*
Y117134D01*
X30317D01*
Y8866D02*
Y117134D01*
X7483Y8866D02*
X30317D01*
X226678Y179104D02*
X229378Y181804D01*
X226678Y63694D02*
Y78700D01*
Y63694D02*
X242131D01*
X329132D02*
X344788D01*
X344788Y78200D02*
X344788Y63694D01*
X344788Y166600D02*
X344788Y181804D01*
X329832D02*
X344788D01*
X229378D02*
X241332D01*
X226678Y163000D02*
Y179104D01*
X277926Y190835D02*
Y195165D01*
X287769Y190835D02*
Y195165D01*
X277926D02*
X287769D01*
X277926Y190835D02*
X287769D01*
X324545Y202765D02*
X332813D01*
X323758Y199222D02*
Y201978D01*
X333600Y199222D02*
Y201978D01*
X324545Y198435D02*
X332813D01*
X333600Y199222D01*
X332813Y202765D02*
X333600Y201978D01*
X323758D02*
X324545Y202765D01*
X323758Y199222D02*
X324545Y198435D01*
X336213Y208165D02*
X344481D01*
X335426Y204622D02*
Y207378D01*
X345269Y204622D02*
Y207378D01*
X336213Y203835D02*
X344481D01*
X345269Y204622D01*
X344481Y208165D02*
X345269Y207378D01*
X335426D02*
X336213Y208165D01*
X335426Y204622D02*
X336213Y203835D01*
X362697Y185219D02*
Y193487D01*
X359154Y194274D02*
X361910D01*
X359154Y184432D02*
X361910D01*
X358366Y185219D02*
Y193487D01*
Y185219D02*
X359154Y184432D01*
X361910D02*
X362697Y185219D01*
X361910Y194274D02*
X362697Y193487D01*
X358366D02*
X359154Y194274D01*
X358335Y182274D02*
X362665D01*
X358335Y172432D02*
X362665D01*
Y182274D01*
X358335Y172432D02*
Y182274D01*
X356679Y168475D02*
X360065D01*
X356679Y165325D02*
X360065D01*
X359143Y165601D02*
Y168199D01*
X276898Y19926D02*
Y23076D01*
X283985Y19926D02*
Y23076D01*
X276898Y19926D02*
X283985D01*
X276898Y23076D02*
X283985D01*
X291928Y19926D02*
Y19926D01*
X285235Y20320D02*
Y22682D01*
X285629Y19926D02*
X291928D01*
X292322Y20320D02*
Y22682D01*
X285629Y23076D02*
X291928D01*
X285235Y22682D02*
Y22682D01*
X285629Y23076D01*
X285235Y20320D02*
X285235D01*
X285629Y19926D01*
X292322Y22682D02*
X292322D01*
X291928Y23076D02*
X292322Y22682D01*
Y20320D02*
X292322D01*
X291928Y19926D02*
X292322Y20320D01*
X298398Y19926D02*
Y23076D01*
X305485Y19926D02*
Y23076D01*
X298398Y19926D02*
X305485D01*
X298398Y23076D02*
X305485D01*
X298792Y27876D02*
Y27876D01*
X305485Y25120D02*
Y27482D01*
X298792Y27876D02*
X305091D01*
X298398Y25120D02*
Y27482D01*
X298792Y24726D02*
X305091D01*
X305485Y25120D02*
Y25120D01*
X305091Y24726D02*
X305485Y25120D01*
X305485Y27482D02*
X305485D01*
X305091Y27876D02*
X305485Y27482D01*
X298398Y25120D02*
X298398D01*
X298792Y24726D01*
X298398Y27482D02*
X298398D01*
X298792Y27876D01*
X296975Y26718D02*
X296975D01*
X294219Y20025D02*
X296581D01*
X296975Y20419D02*
Y26718D01*
X294219Y27112D02*
X296581D01*
X293825Y20419D02*
Y26718D01*
X294219Y20025D02*
X294219D01*
X293825Y20419D02*
X294219Y20025D01*
X296581D02*
Y20025D01*
X296975Y20419D01*
X294219Y27112D02*
Y27112D01*
X293825Y26718D02*
X294219Y27112D01*
X296581D02*
Y27112D01*
Y27112D02*
X296975Y26718D01*
X302420Y29325D02*
Y32475D01*
X309506Y29325D02*
Y32475D01*
X302420Y29325D02*
X309506D01*
X302420Y32475D02*
X309506D01*
X311306Y26718D02*
X311306D01*
X308550Y20025D02*
X310913D01*
X311306Y20419D02*
Y26718D01*
X308550Y27112D02*
X310913D01*
X308157Y20419D02*
Y26718D01*
X308550Y20025D02*
X308550D01*
X308157Y20419D02*
X308550Y20025D01*
X310913D02*
Y20025D01*
X311306Y20419D01*
X308550Y27112D02*
Y27112D01*
X308157Y26718D02*
X308550Y27112D01*
X310913D02*
Y27112D01*
Y27112D02*
X311306Y26718D01*
X323575Y14718D02*
X323575D01*
X320819Y8025D02*
X323181D01*
X323575Y8419D02*
Y14718D01*
X320819Y15112D02*
X323181D01*
X320425Y8419D02*
Y14718D01*
X320819Y8025D02*
X320819D01*
X320425Y8419D02*
X320819Y8025D01*
X323181D02*
Y8025D01*
X323575Y8419D01*
X320819Y15112D02*
Y15112D01*
X320425Y14718D02*
X320819Y15112D01*
X323181D02*
Y15112D01*
Y15112D02*
X323575Y14718D01*
Y6381D02*
X323575D01*
X320819Y-312D02*
X323181D01*
X323575Y82D02*
Y6381D01*
X320819Y6775D02*
X323181D01*
X320425Y82D02*
Y6381D01*
X320819Y-312D02*
X320819D01*
X320425Y82D02*
X320819Y-312D01*
X323181D02*
Y-312D01*
X323575Y82D01*
X320819Y6775D02*
Y6775D01*
X320425Y6381D02*
X320819Y6775D01*
X323181D02*
Y6775D01*
Y6775D02*
X323575Y6381D01*
X318296Y3788D02*
Y6938D01*
X311209Y3788D02*
Y6938D01*
X318296D01*
X311209Y3788D02*
X318296D01*
X311766Y1938D02*
Y1938D01*
X318459Y-818D02*
Y1544D01*
X311766Y1938D02*
X318065D01*
X311372Y-818D02*
Y1544D01*
X311766Y-1212D02*
X318065D01*
X318459Y-818D02*
Y-818D01*
X318065Y-1212D02*
X318459Y-818D01*
X318459Y1544D02*
X318459D01*
X318065Y1938D02*
X318459Y1544D01*
X311372Y-818D02*
X311372D01*
X311766Y-1212D01*
X311372Y1544D02*
X311372D01*
X311766Y1938D01*
X291228Y10761D02*
Y10761D01*
X284535Y11155D02*
Y13517D01*
X284929Y10761D02*
X291228D01*
X291622Y11155D02*
Y13517D01*
X284929Y13911D02*
X291228D01*
X284535Y13517D02*
Y13517D01*
X284929Y13911D01*
X284535Y11155D02*
X284535D01*
X284929Y10761D01*
X291622Y13517D02*
X291622D01*
X291228Y13911D02*
X291622Y13517D01*
Y11155D02*
X291622D01*
X291228Y10761D02*
X291622Y11155D01*
X279925Y6588D02*
X283075D01*
X279925Y13675D02*
X283075D01*
Y6588D02*
Y13675D01*
X279925Y6588D02*
Y13675D01*
X284535Y6261D02*
Y9411D01*
X291622Y6261D02*
Y9411D01*
X284535Y6261D02*
X291622D01*
X284535Y9411D02*
X291622D01*
X300065Y6261D02*
Y6261D01*
X293372Y6655D02*
Y9017D01*
X293766Y6261D02*
X300065D01*
X300459Y6655D02*
Y9017D01*
X293766Y9411D02*
X300065D01*
X293372Y9017D02*
Y9017D01*
X293766Y9411D01*
X293372Y6655D02*
X293372D01*
X293766Y6261D01*
X300459Y9017D02*
X300459D01*
X300065Y9411D02*
X300459Y9017D01*
Y6655D02*
X300459D01*
X300065Y6261D02*
X300459Y6655D01*
X287675Y4818D02*
X287675D01*
X284919Y-1875D02*
X287281D01*
X287675Y-1481D02*
Y4818D01*
X284919Y5212D02*
X287281D01*
X284525Y-1481D02*
Y4818D01*
X284919Y-1875D02*
X284919D01*
X284525Y-1481D02*
X284919Y-1875D01*
X287281D02*
Y-1875D01*
X287675Y-1481D01*
X284919Y5212D02*
Y5212D01*
X284525Y4818D02*
X284919Y5212D01*
X287281D02*
Y5212D01*
Y5212D02*
X287675Y4818D01*
X283135Y26083D02*
X283136D01*
X283529Y32776D02*
X285891D01*
X283135Y26083D02*
Y32382D01*
X283529Y25689D02*
X285891D01*
X286285Y26083D02*
Y32382D01*
X285891Y32776D02*
X285891D01*
X286285Y32382D01*
X283529Y32776D02*
Y32776D01*
X283135Y32382D02*
X283529Y32776D01*
X285891Y25689D02*
Y25689D01*
X286285Y26083D01*
X283529Y25689D02*
Y25689D01*
X283136Y26083D02*
X283529Y25689D01*
X278135Y25689D02*
X281285D01*
X278135Y32776D02*
X281285D01*
Y25689D02*
Y32776D01*
X278135Y25689D02*
Y32776D01*
X268582Y33281D02*
X269566Y32297D01*
X268582Y33281D02*
X268582D01*
X273897Y32297D02*
X274881Y33281D01*
X268582Y44698D02*
X269566Y45683D01*
X273897D02*
X274881Y44698D01*
X269566Y45683D02*
X273897D01*
X274881Y33281D02*
Y44698D01*
X269566Y32297D02*
X273897D01*
X268582Y33281D02*
Y44698D01*
X262566Y33084D02*
Y41352D01*
X263353Y32297D02*
X266109D01*
X263353Y42139D02*
X266109D01*
X266897Y33084D02*
Y41352D01*
X266109Y42139D02*
X266897Y41352D01*
X262566D02*
X263353Y42139D01*
X262566Y33084D02*
X263353Y32297D01*
X266109D02*
X266897Y33084D01*
X256866D02*
Y41352D01*
X257653Y32297D02*
X260409D01*
X257653Y42139D02*
X260409D01*
X261197Y33084D02*
Y41352D01*
X260409Y42139D02*
X261197Y41352D01*
X256866D02*
X257653Y42139D01*
X256866Y33084D02*
X257653Y32297D01*
X260409D02*
X261197Y33084D01*
X251266D02*
Y41352D01*
X252053Y32297D02*
X254809D01*
X252053Y42139D02*
X254809D01*
X255597Y33084D02*
Y41352D01*
X254809Y42139D02*
X255597Y41352D01*
X251266D02*
X252053Y42139D01*
X251266Y33084D02*
X252053Y32297D01*
X254809D02*
X255597Y33084D01*
X230569Y36322D02*
X231356Y35535D01*
X234998Y37700D02*
X236376D01*
X234998D02*
X236376Y39078D01*
X234998Y37700D02*
X236376Y36322D01*
Y39078D01*
X234998Y36322D02*
Y39078D01*
X230569Y39078D02*
X231356Y39865D01*
X231356Y35535D02*
X240411D01*
X230569Y36322D02*
Y39078D01*
X231356Y39865D02*
X240411D01*
Y35535D02*
Y39865D01*
X231245Y33365D02*
X239513D01*
X230457Y29822D02*
Y32578D01*
X240300Y29822D02*
Y32578D01*
X231245Y29035D02*
X239513D01*
X240300Y29822D01*
X239513Y33365D02*
X240300Y32578D01*
X230457D02*
X231245Y33365D01*
X230457Y29822D02*
X231245Y29035D01*
X213466Y16174D02*
X217797D01*
X213466Y6331D02*
X217797D01*
Y16174D01*
X213466Y6331D02*
Y16174D01*
X203763Y120365D02*
X213605D01*
X203763Y116035D02*
X213605D01*
X203763D02*
Y120365D01*
X213605Y116035D02*
Y120365D01*
X203763Y126565D02*
X213605D01*
X203763Y122235D02*
X213605D01*
X203763D02*
Y126565D01*
X213605Y122235D02*
Y126565D01*
X150915Y189700D02*
X162432D01*
Y205400D01*
X150915D02*
X162432D01*
X150915Y189700D02*
Y205400D01*
X138235Y54026D02*
X142565D01*
X138235Y63868D02*
X142565D01*
X138235Y54026D02*
Y63868D01*
X142565Y54026D02*
Y63868D01*
X163894Y-14718D02*
X175706D01*
Y11266D01*
X163894D02*
X175706D01*
X163894Y-14718D02*
Y11266D01*
X165863Y-3695D02*
X173737D01*
X165863Y243D02*
X173737D01*
X165863Y-3695D02*
X169800Y243D01*
X173737Y-3695D01*
X157035Y-10187D02*
Y-1919D01*
X157822Y-10974D02*
X160578D01*
X157822Y-1132D02*
X160578D01*
X161365Y-10187D02*
Y-1919D01*
X160578Y-1132D02*
X161365Y-1919D01*
X157035D02*
X157822Y-1132D01*
X157035Y-10187D02*
X157822Y-10974D01*
X160578D02*
X161365Y-10187D01*
X128177Y-3657D02*
X152587D01*
X128177Y-14287D02*
X152587D01*
X128177D02*
Y-3657D01*
X152587Y-14287D02*
Y-3657D01*
X106791Y-4135D02*
X107579Y-3348D01*
X108957Y-9155D02*
Y-7777D01*
X110335Y-9155D01*
X107579D02*
X108957Y-7777D01*
X107579Y-9155D02*
X110335D01*
X107579Y-7777D02*
X110335D01*
X110335Y-3348D02*
X111122Y-4135D01*
X106791Y-13191D02*
Y-4135D01*
X107579Y-3348D02*
X110335D01*
X111122Y-13191D02*
Y-4135D01*
X106791Y-13191D02*
X111122D01*
X100700Y-4158D02*
X101487Y-3371D01*
X102865Y-9178D02*
Y-7800D01*
X104243Y-9178D01*
X101487D02*
X102865Y-7800D01*
X101487Y-9178D02*
X104243D01*
X101487Y-7800D02*
X104243D01*
X104243Y-3371D02*
X105031Y-4158D01*
X100700Y-13213D02*
Y-4158D01*
X101487Y-3371D02*
X104243D01*
X105031Y-13213D02*
Y-4158D01*
X100700Y-13213D02*
X105031D01*
X115685Y157035D02*
X123953D01*
X124740Y157822D02*
Y160578D01*
X114898Y157822D02*
Y160578D01*
X115685Y161365D02*
X123953D01*
X114898Y160578D02*
X115685Y161365D01*
X114898Y157822D02*
X115685Y157035D01*
X123953D02*
X124740Y157822D01*
X123953Y161365D02*
X124740Y160578D01*
X101232Y145326D02*
X105562D01*
X101232Y155168D02*
X105562D01*
X101232Y145326D02*
Y155168D01*
X105562Y145326D02*
Y155168D01*
X107655Y145326D02*
X111985D01*
X107655Y155168D02*
X111985D01*
X107655Y145326D02*
Y155168D01*
X111985Y145326D02*
Y155168D01*
X88832Y132713D02*
Y140981D01*
X89619Y131926D02*
X92375D01*
X89619Y141769D02*
X92375D01*
X93162Y132713D02*
Y140981D01*
X92375Y141769D02*
X93162Y140981D01*
X88832D02*
X89619Y141769D01*
X88832Y132713D02*
X89619Y131926D01*
X92375D02*
X93162Y132713D01*
X82435Y141674D02*
X86765D01*
X82435Y131832D02*
X86765D01*
Y141674D01*
X82435Y131832D02*
Y141674D01*
X75731Y141769D02*
X80062D01*
X75731Y131926D02*
X80062D01*
Y141769D01*
X75731Y131926D02*
Y141769D01*
X95666Y104513D02*
Y112781D01*
X96453Y103726D02*
X99209D01*
X96453Y113568D02*
X99209D01*
X99997Y104513D02*
Y112781D01*
X99209Y113568D02*
X99997Y112781D01*
X95666D02*
X96453Y113568D01*
X95666Y104513D02*
X96453Y103726D01*
X99209D02*
X99997Y104513D01*
X110119Y92935D02*
X118387D01*
X119174Y93722D02*
Y96478D01*
X109332Y93722D02*
Y96478D01*
X110119Y97265D02*
X118387D01*
X109332Y96478D02*
X110119Y97265D01*
X109332Y93722D02*
X110119Y92935D01*
X118387D02*
X119174Y93722D01*
X118387Y97265D02*
X119174Y96478D01*
X110050Y85735D02*
X118318D01*
X119106Y86522D02*
Y89278D01*
X109263Y86522D02*
Y89278D01*
X110050Y90065D02*
X118318D01*
X109263Y89278D02*
X110050Y90065D01*
X109263Y86522D02*
X110050Y85735D01*
X118318D02*
X119106Y86522D01*
X118318Y90065D02*
X119106Y89278D01*
X109158Y79635D02*
Y83965D01*
X119000Y79635D02*
Y83965D01*
X109158D02*
X119000D01*
X109158Y79635D02*
X119000D01*
X71121Y72000D02*
X73331D01*
X71121Y86300D02*
X73431D01*
X80331Y72000D02*
X82932D01*
X80431Y86300D02*
X82932D01*
X71121Y72000D02*
Y86300D01*
X82932Y72000D02*
Y86300D01*
X85866Y63726D02*
X90197D01*
X85866Y73568D02*
X90197D01*
X85866Y63726D02*
Y73568D01*
X90197Y63726D02*
Y73568D01*
X91866Y64513D02*
Y72781D01*
X92654Y63726D02*
X95409D01*
X92654Y73568D02*
X95409D01*
X96197Y64513D02*
Y72781D01*
X95409Y73568D02*
X96197Y72781D01*
X91866D02*
X92654Y73568D01*
X91866Y64513D02*
X92654Y63726D01*
X95409D02*
X96197Y64513D01*
X97866D02*
Y72781D01*
X98654Y63726D02*
X101409D01*
X98654Y73568D02*
X101409D01*
X102197Y64513D02*
Y72781D01*
X101409Y73568D02*
X102197Y72781D01*
X97866D02*
X98654Y73568D01*
X97866Y64513D02*
X98654Y63726D01*
X101409D02*
X102197Y64513D01*
X90258Y54735D02*
Y59065D01*
X100100Y54735D02*
Y59065D01*
X90258D02*
X100100D01*
X90258Y54735D02*
X100100D01*
X80568Y60635D02*
Y64965D01*
X70726Y60635D02*
Y64965D01*
Y60635D02*
X80568D01*
X70726Y64965D02*
X80568D01*
X71513Y58965D02*
X79781D01*
X70726Y55422D02*
Y58178D01*
X80568Y55422D02*
Y58178D01*
X71513Y54635D02*
X79781D01*
X80568Y55422D01*
X79781Y58965D02*
X80568Y58178D01*
X70726D02*
X71513Y58965D01*
X70726Y55422D02*
X71513Y54635D01*
X69835Y52374D02*
X74165D01*
X69835Y42531D02*
X74165D01*
Y52374D01*
X69835Y42531D02*
Y52374D01*
X76435Y42626D02*
X80765D01*
X76435Y52469D02*
X80765D01*
X76435Y42626D02*
Y52469D01*
X80765Y42626D02*
Y52469D01*
X59619Y54235D02*
X67887D01*
X68674Y55022D02*
Y57778D01*
X58832Y55022D02*
Y57778D01*
X59619Y58565D02*
X67887D01*
X58832Y57778D02*
X59619Y58565D01*
X58832Y55022D02*
X59619Y54235D01*
X67887D02*
X68674Y55022D01*
X67887Y58565D02*
X68674Y57778D01*
X58795Y62058D02*
X64406D01*
X48658Y81743D02*
X54268D01*
X48658Y80400D02*
Y81743D01*
Y62058D02*
X54268D01*
X48658D02*
Y63100D01*
X64406Y62058D02*
Y63100D01*
X58795Y81743D02*
X64406D01*
Y80400D02*
Y81743D01*
X32626Y52335D02*
Y56665D01*
X42469Y52335D02*
Y56665D01*
X32626D02*
X42469D01*
X32626Y52335D02*
X42469D01*
X32626Y59535D02*
Y63865D01*
X42469Y59535D02*
Y63865D01*
X32626D02*
X42469D01*
X32626Y59535D02*
X42469D01*
X42274Y65435D02*
Y69765D01*
X32432Y65435D02*
Y69765D01*
Y65435D02*
X42274D01*
X32432Y69765D02*
X42274D01*
X33413Y80265D02*
X41681D01*
X32626Y76722D02*
Y79478D01*
X42469Y76722D02*
Y79478D01*
X33413Y75935D02*
X41681D01*
X42469Y76722D01*
X41681Y80265D02*
X42469Y79478D01*
X32626D02*
X33413Y80265D01*
X32626Y76722D02*
X33413Y75935D01*
X32026Y96835D02*
Y101165D01*
X41868Y96835D02*
Y101165D01*
X32026D02*
X41868D01*
X32026Y96835D02*
X41868D01*
X32131Y95165D02*
X41974D01*
X32131Y90835D02*
X41974D01*
X32131D02*
Y95165D01*
X41974Y90835D02*
Y95165D01*
X33413Y86665D02*
X41681D01*
X32626Y83122D02*
Y85878D01*
X42469Y83122D02*
Y85878D01*
X33413Y82335D02*
X41681D01*
X42469Y83122D01*
X41681Y86665D02*
X42469Y85878D01*
X32626D02*
X33413Y86665D01*
X32626Y83122D02*
X33413Y82335D01*
X40135Y108313D02*
Y116581D01*
X40922Y107526D02*
X43678D01*
X40922Y117368D02*
X43678D01*
X44465Y108313D02*
Y116581D01*
X43678Y117368D02*
X44465Y116581D01*
X40135D02*
X40922Y117368D01*
X40135Y108313D02*
X40922Y107526D01*
X43678D02*
X44465Y108313D01*
X117595Y187591D02*
X123068D01*
X102595Y166725D02*
Y187591D01*
X107431D01*
X123068Y166725D02*
Y187591D01*
X117595Y166725D02*
X123068D01*
X102595D02*
X108132D01*
X57335Y166813D02*
Y175081D01*
X58122Y166026D02*
X60878D01*
X58122Y175868D02*
X60878D01*
X61665Y166813D02*
Y175081D01*
X60878Y175868D02*
X61665Y175081D01*
X57335D02*
X58122Y175868D01*
X57335Y166813D02*
X58122Y166026D01*
X60878D02*
X61665Y166813D01*
X364175Y82735D02*
Y86121D01*
X361025Y82735D02*
Y86121D01*
X361301Y83657D02*
X363899D01*
X109145Y122746D02*
X117413D01*
X108358Y119203D02*
Y121959D01*
X118200Y119203D02*
Y121959D01*
X109145Y118416D02*
X117413D01*
X118200Y119203D01*
X117413Y122746D02*
X118200Y121959D01*
X108358D02*
X109145Y122746D01*
X108358Y119203D02*
X109145Y118416D01*
X114319Y-13165D02*
X122587D01*
X123374Y-12378D02*
Y-9622D01*
X113531Y-12378D02*
Y-9622D01*
X114319Y-8835D02*
X122587D01*
X113531Y-9622D02*
X114319Y-8835D01*
X113531Y-12378D02*
X114319Y-13165D01*
X122587D02*
X123374Y-12378D01*
X122587Y-8835D02*
X123374Y-9622D01*
X99231Y32005D02*
X127331D01*
Y4205D02*
Y32005D01*
X99231Y4205D02*
Y32005D01*
Y4205D02*
X127331D01*
X133768Y12868D02*
X140068D01*
X133768Y1058D02*
X140068D01*
X133768Y5191D02*
Y8735D01*
X140068Y9916D02*
Y12868D01*
Y1058D02*
Y4010D01*
X159846Y2650D02*
X160830Y3635D01*
X159846Y2650D02*
Y2650D01*
Y8950D02*
X160830Y7965D01*
X147444Y3635D02*
X148428Y2650D01*
X147444Y7965D02*
X148428Y8950D01*
X147444Y3635D02*
Y7965D01*
X148428Y8950D02*
X159846D01*
X160830Y3635D02*
Y7965D01*
X148428Y2650D02*
X159846D01*
X57926Y118900D02*
X60288Y121262D01*
X57926Y118900D02*
X60288Y116538D01*
X57926D02*
Y121262D01*
X60288Y116538D02*
Y121262D01*
X68359Y115357D02*
Y122443D01*
X49461D02*
X68359D01*
X49461Y115357D02*
Y122443D01*
Y115357D02*
X68359D01*
X215001Y153657D02*
X217599D01*
X214725Y152735D02*
Y156121D01*
X217875Y152735D02*
Y156121D01*
X72082Y177194D02*
Y189005D01*
Y177194D02*
X98066D01*
Y189005D01*
X72082D02*
X98066D01*
X83105Y179163D02*
Y187037D01*
X87042Y179163D02*
Y187037D01*
X83105D02*
X87042Y183100D01*
X83105Y179163D02*
X87042Y183100D01*
X138550Y28005D02*
X164535D01*
Y16195D02*
Y28005D01*
X138550Y16195D02*
X164535D01*
X138550D02*
Y28005D01*
X381420Y78307D02*
Y84397D01*
X373165Y78307D02*
X381420D01*
X373165D02*
Y84397D01*
X381420D01*
X380652Y144596D02*
Y150687D01*
X372396Y144596D02*
X380652D01*
X372396D02*
Y150687D01*
X380652D01*
X44000Y9400D02*
Y53600D01*
Y9400D02*
X59300D01*
Y53600D01*
X44000D02*
X59300D01*
X47400Y-14342D02*
Y9280D01*
X64211Y-14342D02*
Y13217D01*
X32200Y-14342D02*
Y13217D01*
Y-14342D02*
X64211D01*
X32200Y13217D02*
X64211D01*
X32200Y9280D02*
X64211D01*
X36157Y37101D02*
Y39699D01*
X35235Y39975D02*
X38621D01*
X35235Y36825D02*
X38621D01*
X36057Y41001D02*
Y43599D01*
X35135Y43875D02*
X38521D01*
X35135Y40725D02*
X38521D01*
X35743Y102901D02*
Y105499D01*
X33279Y102625D02*
X36665D01*
X33279Y105775D02*
X36665D01*
X309681Y-20305D02*
X315771D01*
X309681D02*
Y-12049D01*
X315771D01*
Y-20305D02*
Y-12049D01*
X62474Y150735D02*
Y155065D01*
X52631Y150735D02*
Y155065D01*
Y150735D02*
X62474D01*
X52631Y155065D02*
X62474D01*
X211100Y147599D02*
Y144100D01*
X212849D01*
X213433Y144683D01*
Y147016D01*
X212849Y147599D01*
X211100D01*
X214599Y144100D02*
X215765D01*
X215182D01*
Y147599D01*
X214599Y147016D01*
X217515D02*
X218098Y147599D01*
X219264D01*
X219847Y147016D01*
Y144683D01*
X219264Y144100D01*
X218098D01*
X217515Y144683D01*
Y147016D01*
X192833Y144683D02*
Y147016D01*
X192249Y147599D01*
X191083D01*
X190500Y147016D01*
Y144683D01*
X191083Y144100D01*
X192249D01*
X191666Y145266D02*
X192833Y144100D01*
X192249D02*
X192833Y144683D01*
X196331Y144100D02*
X193999D01*
X196331Y146433D01*
Y147016D01*
X195748Y147599D01*
X194582D01*
X193999Y147016D01*
X194033Y160183D02*
Y162516D01*
X193449Y163099D01*
X192283D01*
X191700Y162516D01*
Y160183D01*
X192283Y159600D01*
X193449D01*
X192866Y160766D02*
X194033Y159600D01*
X193449D02*
X194033Y160183D01*
X195199Y162516D02*
X195782Y163099D01*
X196948D01*
X197531Y162516D01*
Y161933D01*
X196948Y161349D01*
X197531Y160766D01*
Y160183D01*
X196948Y159600D01*
X195782D01*
X195199Y160183D01*
Y160766D01*
X195782Y161349D01*
X195199Y161933D01*
Y162516D01*
X195782Y161349D02*
X196948D01*
X132145Y173724D02*
Y177223D01*
X133895D01*
X134478Y176640D01*
Y175474D01*
X133895Y174891D01*
X132145D01*
X135644Y173724D02*
X136810D01*
X136227D01*
Y177223D01*
X135644Y176640D01*
X130400Y201700D02*
Y205199D01*
X132149D01*
X132733Y204616D01*
Y203449D01*
X132149Y202866D01*
X130400D01*
X131566D02*
X132733Y201700D01*
X133899Y205199D02*
X136231D01*
Y204616D01*
X133899Y202283D01*
Y201700D01*
X137398Y204616D02*
X137981Y205199D01*
X139147D01*
X139730Y204616D01*
Y204033D01*
X139147Y203449D01*
X139730Y202866D01*
Y202283D01*
X139147Y201700D01*
X137981D01*
X137398Y202283D01*
Y202866D01*
X137981Y203449D01*
X137398Y204033D01*
Y204616D01*
X137981Y203449D02*
X139147D01*
X124833Y204416D02*
X124249Y204999D01*
X123083D01*
X122500Y204416D01*
Y202083D01*
X123083Y201500D01*
X124249D01*
X124833Y202083D01*
X125999Y201500D02*
X127165D01*
X126582D01*
Y204999D01*
X125999Y204416D01*
X79000Y146299D02*
Y143383D01*
X79583Y142800D01*
X80749D01*
X81333Y143383D01*
Y146299D01*
X84248Y142800D02*
Y146299D01*
X82499Y144549D01*
X84831D01*
X8100Y118800D02*
Y122299D01*
X9849D01*
X10433Y121716D01*
Y120549D01*
X9849Y119966D01*
X8100D01*
X13931Y118800D02*
X11599D01*
X13931Y121133D01*
Y121716D01*
X13348Y122299D01*
X12182D01*
X11599Y121716D01*
X44700Y91300D02*
Y94799D01*
X46449D01*
X47033Y94216D01*
Y93049D01*
X46449Y92466D01*
X44700D01*
X45866D02*
X47033Y91300D01*
X48199Y94799D02*
X50532D01*
Y94216D01*
X48199Y91883D01*
Y91300D01*
X159033Y51230D02*
X156700D01*
Y49481D01*
X157866D01*
X156700D01*
Y47732D01*
X160199Y51230D02*
Y47732D01*
X162531D01*
X163698D02*
Y50064D01*
X164864Y51230D01*
X166030Y50064D01*
Y47732D01*
Y49481D01*
X163698D01*
X169529Y50647D02*
X168946Y51230D01*
X167780D01*
X167197Y50647D01*
Y50064D01*
X167780Y49481D01*
X168946D01*
X169529Y48898D01*
Y48315D01*
X168946Y47732D01*
X167780D01*
X167197Y48315D01*
X170695Y51230D02*
Y47732D01*
Y49481D01*
X173028D01*
Y51230D01*
Y47732D01*
X174194Y47148D02*
X176527D01*
X180026Y50647D02*
X179443Y51230D01*
X178276D01*
X177693Y50647D01*
Y50064D01*
X178276Y49481D01*
X179443D01*
X180026Y48898D01*
Y48315D01*
X179443Y47732D01*
X178276D01*
X177693Y48315D01*
X183525Y50647D02*
X182941Y51230D01*
X181775D01*
X181192Y50647D01*
Y48315D01*
X181775Y47732D01*
X182941D01*
X183525Y48315D01*
X184691Y51230D02*
Y47732D01*
X187023D01*
X188190Y51230D02*
Y47732D01*
Y48898D01*
X190522Y51230D01*
X188773Y49481D01*
X190522Y47732D01*
X204500Y128400D02*
Y131899D01*
X206249D01*
X206833Y131316D01*
Y130149D01*
X206249Y129566D01*
X204500D01*
X205666D02*
X206833Y128400D01*
X210331D02*
X207999D01*
X210331Y130733D01*
Y131316D01*
X209748Y131899D01*
X208582D01*
X207999Y131316D01*
X211498D02*
X212081Y131899D01*
X213247D01*
X213830Y131316D01*
Y130733D01*
X213247Y130149D01*
X212664D01*
X213247D01*
X213830Y129566D01*
Y128983D01*
X213247Y128400D01*
X212081D01*
X211498Y128983D01*
X205800Y110800D02*
Y114299D01*
X207549D01*
X208133Y113716D01*
Y112549D01*
X207549Y111966D01*
X205800D01*
X206966D02*
X208133Y110800D01*
X211631D02*
X209299D01*
X211631Y113133D01*
Y113716D01*
X211048Y114299D01*
X209882D01*
X209299Y113716D01*
X212798D02*
X213381Y114299D01*
X214547D01*
X215130Y113716D01*
Y111383D01*
X214547Y110800D01*
X213381D01*
X212798Y111383D01*
Y113716D01*
X209333Y104516D02*
X208749Y105099D01*
X207583D01*
X207000Y104516D01*
Y102183D01*
X207583Y101600D01*
X208749D01*
X209333Y102183D01*
X212831Y105099D02*
X210499D01*
Y101600D01*
X212831D01*
X210499Y103349D02*
X211665D01*
X163233Y154916D02*
X162649Y155499D01*
X161483D01*
X160900Y154916D01*
Y154333D01*
X161483Y153749D01*
X162649D01*
X163233Y153166D01*
Y152583D01*
X162649Y152000D01*
X161483D01*
X160900Y152583D01*
X164399Y151417D02*
X166731D01*
X167898Y155499D02*
X170230D01*
X169064D01*
Y152000D01*
X171397Y155499D02*
X173729Y152000D01*
Y155499D02*
X171397Y152000D01*
X160733Y146116D02*
X160149Y146699D01*
X158983D01*
X158400Y146116D01*
Y145533D01*
X158983Y144949D01*
X160149D01*
X160733Y144366D01*
Y143783D01*
X160149Y143200D01*
X158983D01*
X158400Y143783D01*
X161899Y142617D02*
X164231D01*
X165398Y143200D02*
Y146699D01*
X167147D01*
X167730Y146116D01*
Y144949D01*
X167147Y144366D01*
X165398D01*
X166564D02*
X167730Y143200D01*
X168897Y146699D02*
X171229Y143200D01*
Y146699D02*
X168897Y143200D01*
X-4468Y187500D02*
Y189833D01*
X-3302Y190999D01*
X-2136Y189833D01*
Y187500D01*
Y189249D01*
X-4468D01*
X1363Y190999D02*
Y187500D01*
X-387D01*
X-970Y188083D01*
Y189249D01*
X-387Y189833D01*
X1363D01*
X3112D02*
X4279D01*
X4862Y189249D01*
Y187500D01*
X3112D01*
X2529Y188083D01*
X3112Y188666D01*
X4862D01*
X6028Y186334D02*
Y189833D01*
X7778D01*
X8361Y189249D01*
Y188083D01*
X7778Y187500D01*
X6028D01*
X10110Y190416D02*
Y189833D01*
X9527D01*
X10693D01*
X10110D01*
Y188083D01*
X10693Y187500D01*
X14192D02*
X13026D01*
X12443Y188083D01*
Y189249D01*
X13026Y189833D01*
X14192D01*
X14775Y189249D01*
Y188666D01*
X12443D01*
X15942Y189833D02*
Y187500D01*
Y188666D01*
X16525Y189249D01*
X17108Y189833D01*
X17691D01*
X368133Y191716D02*
X367549Y192299D01*
X366383D01*
X365800Y191716D01*
Y189383D01*
X366383Y188800D01*
X367549D01*
X368133Y189383D01*
Y190549D01*
X366966D01*
X369299Y188800D02*
Y192299D01*
X371048D01*
X371631Y191716D01*
Y190549D01*
X371048Y189966D01*
X369299D01*
X375130Y191716D02*
X374547Y192299D01*
X373381D01*
X372798Y191716D01*
Y191133D01*
X373381Y190549D01*
X374547D01*
X375130Y189966D01*
Y189383D01*
X374547Y188800D01*
X373381D01*
X372798Y189383D01*
X379796Y188800D02*
Y191133D01*
X380962Y192299D01*
X382128Y191133D01*
Y188800D01*
Y190549D01*
X379796D01*
X271233Y50116D02*
X270649Y50699D01*
X269483D01*
X268900Y50116D01*
Y47783D01*
X269483Y47200D01*
X270649D01*
X271233Y47783D01*
X274731Y47200D02*
X272399D01*
X274731Y49533D01*
Y50116D01*
X274148Y50699D01*
X272982D01*
X272399Y50116D01*
X275898D02*
X276481Y50699D01*
X277647D01*
X278230Y50116D01*
Y49533D01*
X277647Y48949D01*
X277064D01*
X277647D01*
X278230Y48366D01*
Y47783D01*
X277647Y47200D01*
X276481D01*
X275898Y47783D01*
X266316Y49067D02*
X266899Y49651D01*
Y50817D01*
X266316Y51400D01*
X263983D01*
X263400Y50817D01*
Y49651D01*
X263983Y49067D01*
X263400Y45568D02*
Y47901D01*
X265733Y45568D01*
X266316D01*
X266899Y46152D01*
Y47318D01*
X266316Y47901D01*
X263400Y42653D02*
X266899D01*
X265149Y44402D01*
Y42070D01*
X350033Y208516D02*
X349449Y209099D01*
X348283D01*
X347700Y208516D01*
Y206183D01*
X348283Y205600D01*
X349449D01*
X350033Y206183D01*
X351199Y208516D02*
X351782Y209099D01*
X352948D01*
X353531Y208516D01*
Y207933D01*
X352948Y207349D01*
X352365D01*
X352948D01*
X353531Y206766D01*
Y206183D01*
X352948Y205600D01*
X351782D01*
X351199Y206183D01*
X354698Y208516D02*
X355281Y209099D01*
X356447D01*
X357030Y208516D01*
Y207933D01*
X356447Y207349D01*
X355864D01*
X356447D01*
X357030Y206766D01*
Y206183D01*
X356447Y205600D01*
X355281D01*
X354698Y206183D01*
X356716Y191167D02*
X357299Y191751D01*
Y192917D01*
X356716Y193500D01*
X354383D01*
X353800Y192917D01*
Y191751D01*
X354383Y191167D01*
X356716Y190001D02*
X357299Y189418D01*
Y188252D01*
X356716Y187669D01*
X356133D01*
X355549Y188252D01*
Y188835D01*
Y188252D01*
X354966Y187669D01*
X354383D01*
X353800Y188252D01*
Y189418D01*
X354383Y190001D01*
X357299Y184170D02*
Y186502D01*
X355549D01*
X356133Y185336D01*
Y184753D01*
X355549Y184170D01*
X354383D01*
X353800Y184753D01*
Y185919D01*
X354383Y186502D01*
X326733Y207416D02*
X326149Y207999D01*
X324983D01*
X324400Y207416D01*
Y205083D01*
X324983Y204500D01*
X326149D01*
X326733Y205083D01*
X327899Y207416D02*
X328482Y207999D01*
X329648D01*
X330231Y207416D01*
Y206833D01*
X329648Y206249D01*
X329065D01*
X329648D01*
X330231Y205666D01*
Y205083D01*
X329648Y204500D01*
X328482D01*
X327899Y205083D01*
X333730Y207999D02*
X332564Y207416D01*
X331398Y206249D01*
Y205083D01*
X331981Y204500D01*
X333147D01*
X333730Y205083D01*
Y205666D01*
X333147Y206249D01*
X331398D01*
X329916Y4767D02*
X330499Y5351D01*
Y6517D01*
X329916Y7100D01*
X327583D01*
X327000Y6517D01*
Y5351D01*
X327583Y4767D01*
X327000Y1852D02*
X330499D01*
X328749Y3601D01*
Y1268D01*
X330499Y-2230D02*
X329916Y-1064D01*
X328749Y102D01*
X327583D01*
X327000Y-481D01*
Y-1647D01*
X327583Y-2230D01*
X328166D01*
X328749Y-1647D01*
Y102D01*
X110964Y128416D02*
X110381Y128999D01*
X109215D01*
X108632Y128416D01*
Y126083D01*
X109215Y125500D01*
X110381D01*
X110964Y126083D01*
X114463Y128999D02*
X112130D01*
Y127249D01*
X113297Y127833D01*
X113880D01*
X114463Y127249D01*
Y126083D01*
X113880Y125500D01*
X112714D01*
X112130Y126083D01*
X115629Y128416D02*
X116212Y128999D01*
X117379D01*
X117962Y128416D01*
Y127833D01*
X117379Y127249D01*
X117962Y126666D01*
Y126083D01*
X117379Y125500D01*
X116212D01*
X115629Y126083D01*
Y126666D01*
X116212Y127249D01*
X115629Y127833D01*
Y128416D01*
X116212Y127249D02*
X117379D01*
X101733Y89216D02*
X101149Y89799D01*
X99983D01*
X99400Y89216D01*
Y86883D01*
X99983Y86300D01*
X101149D01*
X101733Y86883D01*
X105231Y89799D02*
X102899D01*
Y88049D01*
X104065Y88633D01*
X104648D01*
X105231Y88049D01*
Y86883D01*
X104648Y86300D01*
X103482D01*
X102899Y86883D01*
X106398D02*
X106981Y86300D01*
X108147D01*
X108730Y86883D01*
Y89216D01*
X108147Y89799D01*
X106981D01*
X106398Y89216D01*
Y88633D01*
X106981Y88049D01*
X108730D01*
X101933Y96616D02*
X101349Y97199D01*
X100183D01*
X99600Y96616D01*
Y94283D01*
X100183Y93700D01*
X101349D01*
X101933Y94283D01*
X105431Y97199D02*
X104265Y96616D01*
X103099Y95449D01*
Y94283D01*
X103682Y93700D01*
X104848D01*
X105431Y94283D01*
Y94866D01*
X104848Y95449D01*
X103099D01*
X106598Y96616D02*
X107181Y97199D01*
X108347D01*
X108930Y96616D01*
Y94283D01*
X108347Y93700D01*
X107181D01*
X106598Y94283D01*
Y96616D01*
X95816Y80667D02*
X96399Y81251D01*
Y82417D01*
X95816Y83000D01*
X93483D01*
X92900Y82417D01*
Y81251D01*
X93483Y80667D01*
X95816Y79501D02*
X96399Y78918D01*
Y77752D01*
X95816Y77169D01*
X95233D01*
X94649Y77752D01*
X94066Y77169D01*
X93483D01*
X92900Y77752D01*
Y78918D01*
X93483Y79501D01*
X94066D01*
X94649Y78918D01*
X95233Y79501D01*
X95816D01*
X94649Y78918D02*
Y77752D01*
X92900Y76002D02*
Y74836D01*
Y75419D01*
X96399D01*
X95816Y76002D01*
X101816Y80967D02*
X102399Y81551D01*
Y82717D01*
X101816Y83300D01*
X99483D01*
X98900Y82717D01*
Y81551D01*
X99483Y80967D01*
X101816Y79801D02*
X102399Y79218D01*
Y78052D01*
X101816Y77469D01*
X101233D01*
X100649Y78052D01*
X100066Y77469D01*
X99483D01*
X98900Y78052D01*
Y79218D01*
X99483Y79801D01*
X100066D01*
X100649Y79218D01*
X101233Y79801D01*
X101816D01*
X100649Y79218D02*
Y78052D01*
X98900Y73970D02*
Y76302D01*
X101233Y73970D01*
X101816D01*
X102399Y74553D01*
Y75719D01*
X101816Y76302D01*
X-867Y86316D02*
X-1451Y86899D01*
X-2617D01*
X-3200Y86316D01*
Y83983D01*
X-2617Y83400D01*
X-1451D01*
X-867Y83983D01*
X299Y86316D02*
X882Y86899D01*
X2048D01*
X2631Y86316D01*
Y85733D01*
X2048Y85149D01*
X2631Y84566D01*
Y83983D01*
X2048Y83400D01*
X882D01*
X299Y83983D01*
Y84566D01*
X882Y85149D01*
X299Y85733D01*
Y86316D01*
X882Y85149D02*
X2048D01*
X5547Y83400D02*
Y86899D01*
X3798Y85149D01*
X6130D01*
X-1067Y80616D02*
X-1651Y81199D01*
X-2817D01*
X-3400Y80616D01*
Y78283D01*
X-2817Y77700D01*
X-1651D01*
X-1067Y78283D01*
X99Y80616D02*
X682Y81199D01*
X1848D01*
X2431Y80616D01*
Y80033D01*
X1848Y79449D01*
X2431Y78866D01*
Y78283D01*
X1848Y77700D01*
X682D01*
X99Y78283D01*
Y78866D01*
X682Y79449D01*
X99Y80033D01*
Y80616D01*
X682Y79449D02*
X1848D01*
X5930Y81199D02*
X4764Y80616D01*
X3598Y79449D01*
Y78283D01*
X4181Y77700D01*
X5347D01*
X5930Y78283D01*
Y78866D01*
X5347Y79449D01*
X3598D01*
X86533Y47516D02*
X85949Y48099D01*
X84783D01*
X84200Y47516D01*
Y45183D01*
X84783Y44600D01*
X85949D01*
X86533Y45183D01*
X87699Y47516D02*
X88282Y48099D01*
X89448D01*
X90031Y47516D01*
Y46933D01*
X89448Y46349D01*
X90031Y45766D01*
Y45183D01*
X89448Y44600D01*
X88282D01*
X87699Y45183D01*
Y45766D01*
X88282Y46349D01*
X87699Y46933D01*
Y47516D01*
X88282Y46349D02*
X89448D01*
X91198Y48099D02*
X93530D01*
Y47516D01*
X91198Y45183D01*
Y44600D01*
X50433Y58116D02*
X49849Y58699D01*
X48683D01*
X48100Y58116D01*
Y55783D01*
X48683Y55200D01*
X49849D01*
X50433Y55783D01*
X51599Y58116D02*
X52182Y58699D01*
X53348D01*
X53931Y58116D01*
Y57533D01*
X53348Y56949D01*
X53931Y56366D01*
Y55783D01*
X53348Y55200D01*
X52182D01*
X51599Y55783D01*
Y56366D01*
X52182Y56949D01*
X51599Y57533D01*
Y58116D01*
X52182Y56949D02*
X53348D01*
X55098Y58116D02*
X55681Y58699D01*
X56847D01*
X57430Y58116D01*
Y57533D01*
X56847Y56949D01*
X57430Y56366D01*
Y55783D01*
X56847Y55200D01*
X55681D01*
X55098Y55783D01*
Y56366D01*
X55681Y56949D01*
X55098Y57533D01*
Y58116D01*
X55681Y56949D02*
X56847D01*
X223733Y32016D02*
X223149Y32599D01*
X221983D01*
X221400Y32016D01*
Y29683D01*
X221983Y29100D01*
X223149D01*
X223733Y29683D01*
X224899D02*
X225482Y29100D01*
X226648D01*
X227231Y29683D01*
Y32016D01*
X226648Y32599D01*
X225482D01*
X224899Y32016D01*
Y31433D01*
X225482Y30849D01*
X227231D01*
X228398Y29100D02*
X229564D01*
X228981D01*
Y32599D01*
X228398Y32016D01*
X260516Y48967D02*
X261099Y49551D01*
Y50717D01*
X260516Y51300D01*
X258183D01*
X257600Y50717D01*
Y49551D01*
X258183Y48967D01*
Y47801D02*
X257600Y47218D01*
Y46052D01*
X258183Y45469D01*
X260516D01*
X261099Y46052D01*
Y47218D01*
X260516Y47801D01*
X259933D01*
X259349Y47218D01*
Y45469D01*
X257600Y41970D02*
Y44302D01*
X259933Y41970D01*
X260516D01*
X261099Y42553D01*
Y43719D01*
X260516Y44302D01*
X254816Y49267D02*
X255399Y49851D01*
Y51017D01*
X254816Y51600D01*
X252483D01*
X251900Y51017D01*
Y49851D01*
X252483Y49267D01*
Y48101D02*
X251900Y47518D01*
Y46352D01*
X252483Y45768D01*
X254816D01*
X255399Y46352D01*
Y47518D01*
X254816Y48101D01*
X254233D01*
X253649Y47518D01*
Y45768D01*
X251900Y42853D02*
X255399D01*
X253649Y44602D01*
Y42270D01*
X286416Y39667D02*
X286999Y40251D01*
Y41417D01*
X286416Y42000D01*
X284083D01*
X283500Y41417D01*
Y40251D01*
X284083Y39667D01*
Y38501D02*
X283500Y37918D01*
Y36752D01*
X284083Y36169D01*
X286416D01*
X286999Y36752D01*
Y37918D01*
X286416Y38501D01*
X285833D01*
X285249Y37918D01*
Y36169D01*
X286999Y32670D02*
Y35002D01*
X285249D01*
X285833Y33836D01*
Y33253D01*
X285249Y32670D01*
X284083D01*
X283500Y33253D01*
Y34419D01*
X284083Y35002D01*
X329916Y14167D02*
X330499Y14751D01*
Y15917D01*
X329916Y16500D01*
X327583D01*
X327000Y15917D01*
Y14751D01*
X327583Y14167D01*
Y13001D02*
X327000Y12418D01*
Y11252D01*
X327583Y10669D01*
X329916D01*
X330499Y11252D01*
Y12418D01*
X329916Y13001D01*
X329333D01*
X328749Y12418D01*
Y10669D01*
X330499Y7170D02*
X329916Y8336D01*
X328749Y9502D01*
X327583D01*
X327000Y8919D01*
Y7753D01*
X327583Y7170D01*
X328166D01*
X328749Y7753D01*
Y9502D01*
X304733Y1716D02*
X304149Y2299D01*
X302983D01*
X302400Y1716D01*
Y-617D01*
X302983Y-1200D01*
X304149D01*
X304733Y-617D01*
X305899D02*
X306482Y-1200D01*
X307648D01*
X308231Y-617D01*
Y1716D01*
X307648Y2299D01*
X306482D01*
X305899Y1716D01*
Y1133D01*
X306482Y549D01*
X308231D01*
X309398Y2299D02*
X311730D01*
Y1716D01*
X309398Y-617D01*
Y-1200D01*
X306016Y43767D02*
X306599Y44351D01*
Y45517D01*
X306016Y46100D01*
X303683D01*
X303100Y45517D01*
Y44351D01*
X303683Y43767D01*
Y42601D02*
X303100Y42018D01*
Y40852D01*
X303683Y40268D01*
X306016D01*
X306599Y40852D01*
Y42018D01*
X306016Y42601D01*
X305433D01*
X304849Y42018D01*
Y40268D01*
X306016Y39102D02*
X306599Y38519D01*
Y37353D01*
X306016Y36770D01*
X305433D01*
X304849Y37353D01*
X304266Y36770D01*
X303683D01*
X303100Y37353D01*
Y38519D01*
X303683Y39102D01*
X304266D01*
X304849Y38519D01*
X305433Y39102D01*
X306016D01*
X304849Y38519D02*
Y37353D01*
X309733Y46316D02*
X309149Y46899D01*
X307983D01*
X307400Y46316D01*
Y43983D01*
X307983Y43400D01*
X309149D01*
X309733Y43983D01*
X310899D02*
X311482Y43400D01*
X312648D01*
X313231Y43983D01*
Y46316D01*
X312648Y46899D01*
X311482D01*
X310899Y46316D01*
Y45733D01*
X311482Y45149D01*
X313231D01*
X314398Y43983D02*
X314981Y43400D01*
X316147D01*
X316730Y43983D01*
Y46316D01*
X316147Y46899D01*
X314981D01*
X314398Y46316D01*
Y45733D01*
X314981Y45149D01*
X316730D01*
X293433Y40616D02*
X292849Y41199D01*
X291683D01*
X291100Y40616D01*
Y38283D01*
X291683Y37700D01*
X292849D01*
X293433Y38283D01*
X294599Y37700D02*
X295765D01*
X295182D01*
Y41199D01*
X294599Y40616D01*
X297515D02*
X298098Y41199D01*
X299264D01*
X299847Y40616D01*
Y38283D01*
X299264Y37700D01*
X298098D01*
X297515Y38283D01*
Y40616D01*
X301013D02*
X301597Y41199D01*
X302763D01*
X303346Y40616D01*
Y38283D01*
X302763Y37700D01*
X301597D01*
X301013Y38283D01*
Y40616D01*
X314433Y30416D02*
X313849Y30999D01*
X312683D01*
X312100Y30416D01*
Y28083D01*
X312683Y27500D01*
X313849D01*
X314433Y28083D01*
X315599Y27500D02*
X316765D01*
X316182D01*
Y30999D01*
X315599Y30416D01*
X318515D02*
X319098Y30999D01*
X320264D01*
X320847Y30416D01*
Y28083D01*
X320264Y27500D01*
X319098D01*
X318515Y28083D01*
Y30416D01*
X322013Y27500D02*
X323180D01*
X322597D01*
Y30999D01*
X322013Y30416D01*
X286833Y18416D02*
X286249Y18999D01*
X285083D01*
X284500Y18416D01*
Y16083D01*
X285083Y15500D01*
X286249D01*
X286833Y16083D01*
X287999Y15500D02*
X289165D01*
X288582D01*
Y18999D01*
X287999Y18416D01*
X290915D02*
X291498Y18999D01*
X292664D01*
X293247Y18416D01*
Y16083D01*
X292664Y15500D01*
X291498D01*
X290915Y16083D01*
Y18416D01*
X296746Y15500D02*
X294413D01*
X296746Y17833D01*
Y18416D01*
X296163Y18999D01*
X294997D01*
X294413Y18416D01*
X296733Y13916D02*
X296149Y14499D01*
X294983D01*
X294400Y13916D01*
Y11583D01*
X294983Y11000D01*
X296149D01*
X296733Y11583D01*
X297899Y11000D02*
X299065D01*
X298482D01*
Y14499D01*
X297899Y13916D01*
X300815D02*
X301398Y14499D01*
X302564D01*
X303147Y13916D01*
Y11583D01*
X302564Y11000D01*
X301398D01*
X300815Y11583D01*
Y13916D01*
X304313D02*
X304897Y14499D01*
X306063D01*
X306646Y13916D01*
Y13333D01*
X306063Y12749D01*
X305480D01*
X306063D01*
X306646Y12166D01*
Y11583D01*
X306063Y11000D01*
X304897D01*
X304313Y11583D01*
X291333Y1216D02*
X290749Y1799D01*
X289583D01*
X289000Y1216D01*
Y-1117D01*
X289583Y-1700D01*
X290749D01*
X291333Y-1117D01*
X292499Y-1700D02*
X293665D01*
X293082D01*
Y1799D01*
X292499Y1216D01*
X295415D02*
X295998Y1799D01*
X297164D01*
X297747Y1216D01*
Y-1117D01*
X297164Y-1700D01*
X295998D01*
X295415Y-1117D01*
Y1216D01*
X300663Y-1700D02*
Y1799D01*
X298914Y49D01*
X301246D01*
X150064Y14616D02*
X149481Y15199D01*
X148315D01*
X147731Y14616D01*
Y12283D01*
X148315Y11700D01*
X149481D01*
X150064Y12283D01*
X151230Y11700D02*
X152397D01*
X151813D01*
Y15199D01*
X151230Y14616D01*
X154146D02*
X154729Y15199D01*
X155895D01*
X156479Y14616D01*
Y12283D01*
X155895Y11700D01*
X154729D01*
X154146Y12283D01*
Y14616D01*
X159977Y15199D02*
X157645D01*
Y13449D01*
X158811Y14033D01*
X159394D01*
X159977Y13449D01*
Y12283D01*
X159394Y11700D01*
X158228D01*
X157645Y12283D01*
X156216Y-3733D02*
X156799Y-3149D01*
Y-1983D01*
X156216Y-1400D01*
X153883D01*
X153300Y-1983D01*
Y-3149D01*
X153883Y-3733D01*
X153300Y-4899D02*
Y-6065D01*
Y-5482D01*
X156799D01*
X156216Y-4899D01*
Y-7815D02*
X156799Y-8398D01*
Y-9564D01*
X156216Y-10147D01*
X153883D01*
X153300Y-9564D01*
Y-8398D01*
X153883Y-7815D01*
X156216D01*
X156799Y-13646D02*
X156216Y-12480D01*
X155049Y-11314D01*
X153883D01*
X153300Y-11897D01*
Y-13063D01*
X153883Y-13646D01*
X154466D01*
X155049Y-13063D01*
Y-11314D01*
X116064Y-3184D02*
X115481Y-2601D01*
X114315D01*
X113732Y-3184D01*
Y-5517D01*
X114315Y-6100D01*
X115481D01*
X116064Y-5517D01*
X117230Y-6100D02*
X118397D01*
X117814D01*
Y-2601D01*
X117230Y-3184D01*
X120146D02*
X120729Y-2601D01*
X121896D01*
X122479Y-3184D01*
Y-5517D01*
X121896Y-6100D01*
X120729D01*
X120146Y-5517D01*
Y-3184D01*
X123645Y-2601D02*
X125978D01*
Y-3184D01*
X123645Y-5517D01*
Y-6100D01*
X99116Y123367D02*
X99699Y123951D01*
Y125117D01*
X99116Y125700D01*
X96783D01*
X96200Y125117D01*
Y123951D01*
X96783Y123367D01*
X96200Y122201D02*
Y121035D01*
Y121618D01*
X99699D01*
X99116Y122201D01*
X99699Y116953D02*
X99116Y118119D01*
X97949Y119285D01*
X96783D01*
X96200Y118702D01*
Y117536D01*
X96783Y116953D01*
X97366D01*
X97949Y117536D01*
Y119285D01*
X99116Y115787D02*
X99699Y115203D01*
Y114037D01*
X99116Y113454D01*
X96783D01*
X96200Y114037D01*
Y115203D01*
X96783Y115787D01*
X99116D01*
X36233Y121516D02*
X35649Y122099D01*
X34483D01*
X33900Y121516D01*
Y119183D01*
X34483Y118600D01*
X35649D01*
X36233Y119183D01*
X37399Y118600D02*
X38565D01*
X37982D01*
Y122099D01*
X37399Y121516D01*
X42647Y122099D02*
X41481Y121516D01*
X40315Y120349D01*
Y119183D01*
X40898Y118600D01*
X42064D01*
X42647Y119183D01*
Y119766D01*
X42064Y120349D01*
X40315D01*
X43813Y118600D02*
X44980D01*
X44397D01*
Y122099D01*
X43813Y121516D01*
X110416Y138067D02*
X110999Y138651D01*
Y139817D01*
X110416Y140400D01*
X108083D01*
X107500Y139817D01*
Y138651D01*
X108083Y138067D01*
X107500Y136901D02*
Y135735D01*
Y136318D01*
X110999D01*
X110416Y136901D01*
X110999Y131653D02*
X110416Y132819D01*
X109249Y133985D01*
X108083D01*
X107500Y133402D01*
Y132236D01*
X108083Y131653D01*
X108666D01*
X109249Y132236D01*
Y133985D01*
X107500Y128154D02*
Y130487D01*
X109833Y128154D01*
X110416D01*
X110999Y128737D01*
Y129903D01*
X110416Y130487D01*
X214932Y163199D02*
Y159700D01*
X216681D01*
X217264Y160283D01*
Y162616D01*
X216681Y163199D01*
X214932D01*
X220180Y159700D02*
Y163199D01*
X218430Y161449D01*
X220763D01*
X33600Y49399D02*
Y45900D01*
X35349D01*
X35933Y46483D01*
Y48816D01*
X35349Y49399D01*
X33600D01*
X39432D02*
X37099D01*
Y47649D01*
X38265Y48233D01*
X38848D01*
X39432Y47649D01*
Y46483D01*
X38848Y45900D01*
X37682D01*
X37099Y46483D01*
X361231Y93199D02*
Y89700D01*
X362981D01*
X363564Y90283D01*
Y92616D01*
X362981Y93199D01*
X361231D01*
X367063D02*
X365897Y92616D01*
X364730Y91449D01*
Y90283D01*
X365314Y89700D01*
X366480D01*
X367063Y90283D01*
Y90866D01*
X366480Y91449D01*
X364730D01*
X356900Y163399D02*
Y159900D01*
X358649D01*
X359233Y160483D01*
Y162816D01*
X358649Y163399D01*
X356900D01*
X360399D02*
X362731D01*
Y162816D01*
X360399Y160483D01*
Y159900D01*
X221000Y39699D02*
X222166D01*
X221583D01*
Y36200D01*
X221000D01*
X222166D01*
X223916D02*
Y39699D01*
X225665D01*
X226248Y39116D01*
Y37949D01*
X225665Y37366D01*
X223916D01*
X225082D02*
X226248Y36200D01*
X229747Y36783D02*
Y39116D01*
X229164Y39699D01*
X227998D01*
X227415Y39116D01*
Y36783D01*
X227998Y36200D01*
X229164D01*
X228581Y37366D02*
X229747Y36200D01*
X229164D02*
X229747Y36783D01*
X49731Y128699D02*
Y125200D01*
X51481D01*
X52064Y125783D01*
Y128116D01*
X51481Y128699D01*
X49731D01*
X53230Y125200D02*
X54397D01*
X53813D01*
Y128699D01*
X53230Y128116D01*
X58479Y125200D02*
X56146D01*
X58479Y127533D01*
Y128116D01*
X57895Y128699D01*
X56729D01*
X56146Y128116D01*
X160233Y58999D02*
X157900D01*
Y57249D01*
X159066D01*
X157900D01*
Y55500D01*
X161399Y58999D02*
Y55500D01*
X163731D01*
X164898D02*
Y57833D01*
X166064Y58999D01*
X167230Y57833D01*
Y55500D01*
Y57249D01*
X164898D01*
X170729Y58416D02*
X170146Y58999D01*
X168980D01*
X168397Y58416D01*
Y57833D01*
X168980Y57249D01*
X170146D01*
X170729Y56666D01*
Y56083D01*
X170146Y55500D01*
X168980D01*
X168397Y56083D01*
X171896Y58999D02*
Y55500D01*
Y57249D01*
X174228D01*
Y58999D01*
Y55500D01*
X175394Y54917D02*
X177727D01*
X181226Y58416D02*
X180643Y58999D01*
X179476D01*
X178893Y58416D01*
Y57833D01*
X179476Y57249D01*
X180643D01*
X181226Y56666D01*
Y56083D01*
X180643Y55500D01*
X179476D01*
X178893Y56083D01*
X182392Y58999D02*
Y55500D01*
X184142D01*
X184725Y56083D01*
Y58416D01*
X184142Y58999D01*
X182392D01*
X187640D02*
X186474D01*
X185891Y58416D01*
Y56083D01*
X186474Y55500D01*
X187640D01*
X188224Y56083D01*
Y58416D01*
X187640Y58999D01*
X281599Y38800D02*
X278100D01*
Y36467D01*
X281599Y32969D02*
Y35301D01*
X279849D01*
X280433Y34135D01*
Y33552D01*
X279849Y32969D01*
X278683D01*
X278100Y33552D01*
Y34718D01*
X278683Y35301D01*
X289200Y5999D02*
Y2500D01*
X291533D01*
X295031Y5999D02*
X293865Y5416D01*
X292699Y4249D01*
Y3083D01*
X293282Y2500D01*
X294448D01*
X295031Y3083D01*
Y3666D01*
X294448Y4249D01*
X292699D01*
X349000Y204999D02*
Y201500D01*
X351333D01*
X352499Y204416D02*
X353082Y204999D01*
X354248D01*
X354831Y204416D01*
Y203833D01*
X354248Y203249D01*
X354831Y202666D01*
Y202083D01*
X354248Y201500D01*
X353082D01*
X352499Y202083D01*
Y202666D01*
X353082Y203249D01*
X352499Y203833D01*
Y204416D01*
X353082Y203249D02*
X354248D01*
X66300Y91399D02*
Y87900D01*
X68633D01*
X69799D02*
X70965D01*
X70382D01*
Y91399D01*
X69799Y90816D01*
X72715Y87900D02*
X73881D01*
X73298D01*
Y91399D01*
X72715Y90816D01*
X275800Y19599D02*
Y16100D01*
X278133D01*
X279299D02*
X280465D01*
X279882D01*
Y19599D01*
X279299Y19016D01*
X284547Y16100D02*
X282215D01*
X284547Y18433D01*
Y19016D01*
X283964Y19599D01*
X282798D01*
X282215Y19016D01*
X307800Y42499D02*
Y39000D01*
X310133D01*
X311299D02*
X312465D01*
X311882D01*
Y42499D01*
X311299Y41916D01*
X314215D02*
X314798Y42499D01*
X315964D01*
X316547Y41916D01*
Y41333D01*
X315964Y40749D01*
X315381D01*
X315964D01*
X316547Y40166D01*
Y39583D01*
X315964Y39000D01*
X314798D01*
X314215Y39583D01*
X302700Y7599D02*
Y4100D01*
X305033D01*
X306199D02*
X307365D01*
X306782D01*
Y7599D01*
X306199Y7016D01*
X310864Y4100D02*
Y7599D01*
X309115Y5849D01*
X311447D01*
X312900Y51399D02*
Y47900D01*
X315233D01*
X316399D02*
X317565D01*
X316982D01*
Y51399D01*
X316399Y50816D01*
X321647Y51399D02*
X319315D01*
Y49649D01*
X320481Y50233D01*
X321064D01*
X321647Y49649D01*
Y48483D01*
X321064Y47900D01*
X319898D01*
X319315Y48483D01*
X282799Y5500D02*
X279300D01*
Y3167D01*
Y2001D02*
Y835D01*
Y1418D01*
X282799D01*
X282216Y2001D01*
X282799Y-3247D02*
X282216Y-2081D01*
X281049Y-915D01*
X279883D01*
X279300Y-1498D01*
Y-2664D01*
X279883Y-3247D01*
X280466D01*
X281049Y-2664D01*
Y-915D01*
X99532Y38299D02*
Y34800D01*
X101864D01*
X103030D02*
X104197D01*
X103613D01*
Y38299D01*
X103030Y37716D01*
X105946Y38299D02*
X108279D01*
Y37716D01*
X105946Y35383D01*
Y34800D01*
X350552Y46998D02*
Y50497D01*
X348802Y48747D01*
X351135D01*
X354634Y49913D02*
X354051Y50497D01*
X352884D01*
X352301Y49913D01*
Y47581D01*
X352884Y46998D01*
X354051D01*
X354634Y47581D01*
Y48747D01*
X353468D01*
X348300Y14500D02*
Y17999D01*
X350049D01*
X350633Y17416D01*
Y16249D01*
X350049Y15666D01*
X348300D01*
X351799Y17999D02*
Y14500D01*
X352965Y15666D01*
X354131Y14500D01*
Y17999D01*
X355298Y14500D02*
Y17999D01*
X357047D01*
X357630Y17416D01*
Y16249D01*
X357047Y15666D01*
X355298D01*
X356464D02*
X357630Y14500D01*
X351133Y34016D02*
X350549Y34599D01*
X349383D01*
X348800Y34016D01*
Y31683D01*
X349383Y31100D01*
X350549D01*
X351133Y31683D01*
Y32849D01*
X349966D01*
X352299Y31100D02*
Y34599D01*
X354048D01*
X354631Y34016D01*
Y32849D01*
X354048Y32266D01*
X352299D01*
X358130Y34016D02*
X357547Y34599D01*
X356381D01*
X355798Y34016D01*
Y33433D01*
X356381Y32849D01*
X357547D01*
X358130Y32266D01*
Y31683D01*
X357547Y31100D01*
X356381D01*
X355798Y31683D01*
X352349Y60600D02*
Y64099D01*
X350600Y62349D01*
X352933D01*
X354099Y63516D02*
X354682Y64099D01*
X355848D01*
X356431Y63516D01*
Y62933D01*
X355848Y62349D01*
X355265D01*
X355848D01*
X356431Y61766D01*
Y61183D01*
X355848Y60600D01*
X354682D01*
X354099Y61183D01*
X357598Y63516D02*
X358181Y64099D01*
X359347D01*
X359930Y63516D01*
Y62933D01*
X359347Y62349D01*
X358764D01*
X359347D01*
X359930Y61766D01*
Y61183D01*
X359347Y60600D01*
X358181D01*
X357598Y61183D01*
X349100Y2499D02*
Y-1000D01*
X350849D01*
X351433Y-417D01*
Y166D01*
X350849Y749D01*
X349100D01*
X350849D01*
X351433Y1333D01*
Y1916D01*
X350849Y2499D01*
X349100D01*
X352599Y-1000D02*
Y1333D01*
X353765Y2499D01*
X354931Y1333D01*
Y-1000D01*
Y749D01*
X352599D01*
X358430Y1916D02*
X357847Y2499D01*
X356681D01*
X356098Y1916D01*
Y-417D01*
X356681Y-1000D01*
X357847D01*
X358430Y-417D01*
X359597Y2499D02*
Y-1000D01*
Y166D01*
X361929Y2499D01*
X360180Y749D01*
X361929Y-1000D01*
X109633Y-15584D02*
X109049Y-15001D01*
X107883D01*
X107300Y-15584D01*
Y-17917D01*
X107883Y-18500D01*
X109049D01*
X109633Y-17917D01*
X110799Y-15001D02*
Y-18500D01*
Y-16751D01*
X113131D01*
Y-15001D01*
Y-18500D01*
X116630Y-15584D02*
X116047Y-15001D01*
X114881D01*
X114298Y-15584D01*
Y-17917D01*
X114881Y-18500D01*
X116047D01*
X116630Y-17917D01*
Y-16751D01*
X115464D01*
X94800Y-18100D02*
Y-15767D01*
X95966Y-14601D01*
X97133Y-15767D01*
Y-18100D01*
Y-16351D01*
X94800D01*
X100631Y-15184D02*
X100048Y-14601D01*
X98882D01*
X98299Y-15184D01*
Y-17517D01*
X98882Y-18100D01*
X100048D01*
X100631Y-17517D01*
X101798Y-18100D02*
Y-14601D01*
X103547D01*
X104130Y-15184D01*
Y-16351D01*
X103547Y-16934D01*
X101798D01*
X105297Y-18100D02*
Y-14601D01*
X107046D01*
X107629Y-15184D01*
Y-16351D01*
X107046Y-16934D01*
X105297D01*
X106463D02*
X107629Y-18100D01*
X214231Y-6800D02*
Y-3301D01*
X215981D01*
X216564Y-3884D01*
Y-5051D01*
X215981Y-5634D01*
X214231D01*
X217730Y-3884D02*
X218314Y-3301D01*
X219480D01*
X220063Y-3884D01*
Y-4467D01*
X219480Y-5051D01*
X218897D01*
X219480D01*
X220063Y-5634D01*
Y-6217D01*
X219480Y-6800D01*
X218314D01*
X217730Y-6217D01*
X33800Y-16501D02*
Y-18834D01*
X34966Y-20000D01*
X36133Y-18834D01*
Y-16501D01*
X37299D02*
Y-20000D01*
X39048D01*
X39632Y-19417D01*
Y-18834D01*
X39048Y-18251D01*
X37299D01*
X39048D01*
X39632Y-17667D01*
Y-17084D01*
X39048Y-16501D01*
X37299D01*
X40798Y-20000D02*
Y-17667D01*
X41964Y-16501D01*
X43130Y-17667D01*
Y-20000D01*
Y-18251D01*
X40798D01*
X44297Y-16501D02*
X46629D01*
X45463D01*
Y-20000D01*
X69583Y109467D02*
X71916D01*
X72499Y110051D01*
Y111217D01*
X71916Y111800D01*
X69583D01*
X69000Y111217D01*
Y110051D01*
X70166Y110634D02*
X69000Y109467D01*
Y110051D02*
X69583Y109467D01*
X69000Y108301D02*
Y107135D01*
Y107718D01*
X72499D01*
X71916Y108301D01*
X132264Y16183D02*
Y18516D01*
X131681Y19099D01*
X130515D01*
X129931Y18516D01*
Y16183D01*
X130515Y15600D01*
X131681D01*
X131098Y16766D02*
X132264Y15600D01*
X131681D02*
X132264Y16183D01*
X135763Y19099D02*
X133430D01*
Y17349D01*
X134597Y17933D01*
X135180D01*
X135763Y17349D01*
Y16183D01*
X135180Y15600D01*
X134013D01*
X133430Y16183D01*
X44000Y97624D02*
Y101123D01*
X45749D01*
X46333Y100540D01*
Y99373D01*
X45749Y98790D01*
X44000D01*
X45166D02*
X46333Y97624D01*
X47499D02*
X48665D01*
X48082D01*
Y101123D01*
X47499Y100540D01*
X291100Y191800D02*
Y195299D01*
X292849D01*
X293433Y194716D01*
Y193549D01*
X292849Y192966D01*
X291100D01*
X292266D02*
X293433Y191800D01*
X294599Y194716D02*
X295182Y195299D01*
X296348D01*
X296931Y194716D01*
Y194133D01*
X296348Y193549D01*
X295765D01*
X296348D01*
X296931Y192966D01*
Y192383D01*
X296348Y191800D01*
X295182D01*
X294599Y192383D01*
X112600Y75300D02*
Y78799D01*
X114349D01*
X114933Y78216D01*
Y77049D01*
X114349Y76466D01*
X112600D01*
X113766D02*
X114933Y75300D01*
X118431Y78799D02*
X117265Y78216D01*
X116099Y77049D01*
Y75883D01*
X116682Y75300D01*
X117848D01*
X118431Y75883D01*
Y76466D01*
X117848Y77049D01*
X116099D01*
X354000Y181100D02*
X357499D01*
Y179351D01*
X356916Y178767D01*
X355749D01*
X355166Y179351D01*
Y181100D01*
Y179934D02*
X354000Y178767D01*
Y175269D02*
Y177601D01*
X356333Y175269D01*
X356916D01*
X357499Y175852D01*
Y177018D01*
X356916Y177601D01*
X354000Y171770D02*
Y174102D01*
X356333Y171770D01*
X356916D01*
X357499Y172353D01*
Y173519D01*
X356916Y174102D01*
X86700Y83800D02*
X90199D01*
Y82051D01*
X89616Y81467D01*
X88449D01*
X87866Y82051D01*
Y83800D01*
Y82634D02*
X86700Y81467D01*
X90199Y77969D02*
Y80301D01*
X88449D01*
X89033Y79135D01*
Y78552D01*
X88449Y77969D01*
X87283D01*
X86700Y78552D01*
Y79718D01*
X87283Y80301D01*
X90199Y74470D02*
Y76802D01*
X88449D01*
X89033Y75636D01*
Y75053D01*
X88449Y74470D01*
X87283D01*
X86700Y75053D01*
Y76219D01*
X87283Y76802D01*
X102400Y55800D02*
Y59299D01*
X104149D01*
X104733Y58716D01*
Y57549D01*
X104149Y56966D01*
X102400D01*
X103566D02*
X104733Y55800D01*
X108231Y59299D02*
X105899D01*
Y57549D01*
X107065Y58133D01*
X107648D01*
X108231Y57549D01*
Y56383D01*
X107648Y55800D01*
X106482D01*
X105899Y56383D01*
X109398Y58716D02*
X109981Y59299D01*
X111147D01*
X111730Y58716D01*
Y58133D01*
X111147Y57549D01*
X111730Y56966D01*
Y56383D01*
X111147Y55800D01*
X109981D01*
X109398Y56383D01*
Y56966D01*
X109981Y57549D01*
X109398Y58133D01*
Y58716D01*
X109981Y57549D02*
X111147D01*
X-3700Y66800D02*
Y70299D01*
X-1951D01*
X-1367Y69716D01*
Y68549D01*
X-1951Y67966D01*
X-3700D01*
X-2534D02*
X-1367Y66800D01*
X2131Y70299D02*
X-201D01*
Y68549D01*
X965Y69133D01*
X1548D01*
X2131Y68549D01*
Y67383D01*
X1548Y66800D01*
X382D01*
X-201Y67383D01*
X3298D02*
X3881Y66800D01*
X5047D01*
X5630Y67383D01*
Y69716D01*
X5047Y70299D01*
X3881D01*
X3298Y69716D01*
Y69133D01*
X3881Y68549D01*
X5630D01*
X84300Y49300D02*
Y52799D01*
X86049D01*
X86633Y52216D01*
Y51049D01*
X86049Y50466D01*
X84300D01*
X85466D02*
X86633Y49300D01*
X90131Y52799D02*
X88965Y52216D01*
X87799Y51049D01*
Y49883D01*
X88382Y49300D01*
X89548D01*
X90131Y49883D01*
Y50466D01*
X89548Y51049D01*
X87799D01*
X91298Y49300D02*
X92464D01*
X91881D01*
Y52799D01*
X91298Y52216D01*
X78000Y41000D02*
X81499D01*
Y39251D01*
X80916Y38667D01*
X79749D01*
X79166Y39251D01*
Y41000D01*
Y39834D02*
X78000Y38667D01*
X81499Y35168D02*
X80916Y36335D01*
X79749Y37501D01*
X78583D01*
X78000Y36918D01*
Y35752D01*
X78583Y35168D01*
X79166D01*
X79749Y35752D01*
Y37501D01*
X80916Y34002D02*
X81499Y33419D01*
Y32253D01*
X80916Y31670D01*
X80333D01*
X79749Y32253D01*
Y32836D01*
Y32253D01*
X79166Y31670D01*
X78583D01*
X78000Y32253D01*
Y33419D01*
X78583Y34002D01*
X-3100Y60100D02*
Y63599D01*
X-1351D01*
X-767Y63016D01*
Y61849D01*
X-1351Y61266D01*
X-3100D01*
X-1934D02*
X-767Y60100D01*
X2148D02*
Y63599D01*
X399Y61849D01*
X2731D01*
X3898Y63016D02*
X4481Y63599D01*
X5647D01*
X6230Y63016D01*
Y62433D01*
X5647Y61849D01*
X6230Y61266D01*
Y60683D01*
X5647Y60100D01*
X4481D01*
X3898Y60683D01*
Y61266D01*
X4481Y61849D01*
X3898Y62433D01*
Y63016D01*
X4481Y61849D02*
X5647D01*
X-3800Y53300D02*
Y56799D01*
X-2051D01*
X-1467Y56216D01*
Y55049D01*
X-2051Y54466D01*
X-3800D01*
X-2634D02*
X-1467Y53300D01*
X2031Y56799D02*
X865Y56216D01*
X-301Y55049D01*
Y53883D01*
X282Y53300D01*
X1448D01*
X2031Y53883D01*
Y54466D01*
X1448Y55049D01*
X-301D01*
X5530Y56799D02*
X3198D01*
Y55049D01*
X4364Y55633D01*
X4947D01*
X5530Y55049D01*
Y53883D01*
X4947Y53300D01*
X3781D01*
X3198Y53883D01*
X71200Y40500D02*
X74699D01*
Y38751D01*
X74116Y38167D01*
X72949D01*
X72366Y38751D01*
Y40500D01*
Y39334D02*
X71200Y38167D01*
X74699Y34668D02*
X74116Y35835D01*
X72949Y37001D01*
X71783D01*
X71200Y36418D01*
Y35252D01*
X71783Y34668D01*
X72366D01*
X72949Y35252D01*
Y37001D01*
X74699Y31170D02*
X74116Y32336D01*
X72949Y33502D01*
X71783D01*
X71200Y32919D01*
Y31753D01*
X71783Y31170D01*
X72366D01*
X72949Y31753D01*
Y33502D01*
X207600Y15200D02*
X211099D01*
Y13451D01*
X210516Y12867D01*
X209349D01*
X208766Y13451D01*
Y15200D01*
Y14034D02*
X207600Y12867D01*
X211099Y9369D02*
X210516Y10535D01*
X209349Y11701D01*
X208183D01*
X207600Y11118D01*
Y9952D01*
X208183Y9369D01*
X208766D01*
X209349Y9952D01*
Y11701D01*
X210516Y8202D02*
X211099Y7619D01*
Y6453D01*
X210516Y5870D01*
X209933D01*
X209349Y6453D01*
X208766Y5870D01*
X208183D01*
X207600Y6453D01*
Y7619D01*
X208183Y8202D01*
X208766D01*
X209349Y7619D01*
X209933Y8202D01*
X210516D01*
X209349Y7619D02*
Y6453D01*
X98600Y139600D02*
X102099D01*
Y137851D01*
X101516Y137267D01*
X100349D01*
X99766Y137851D01*
Y139600D01*
Y138434D02*
X98600Y137267D01*
X102099Y133769D02*
X101516Y134935D01*
X100349Y136101D01*
X99183D01*
X98600Y135518D01*
Y134352D01*
X99183Y133769D01*
X99766D01*
X100349Y134352D01*
Y136101D01*
X99183Y132602D02*
X98600Y132019D01*
Y130853D01*
X99183Y130270D01*
X101516D01*
X102099Y130853D01*
Y132019D01*
X101516Y132602D01*
X100933D01*
X100349Y132019D01*
Y130270D01*
X138831Y30800D02*
Y34299D01*
X140581D01*
X141164Y33716D01*
Y32549D01*
X140581Y31966D01*
X138831D01*
X139998D02*
X141164Y30800D01*
X142330Y34299D02*
X144663D01*
Y33716D01*
X142330Y31383D01*
Y30800D01*
X145829D02*
X146995D01*
X146412D01*
Y34299D01*
X145829Y33716D01*
X156733Y200416D02*
X156149Y200999D01*
X154983D01*
X154400Y200416D01*
Y199833D01*
X154983Y199249D01*
X156149D01*
X156733Y198666D01*
Y198083D01*
X156149Y197500D01*
X154983D01*
X154400Y198083D01*
X157899Y197500D02*
X159065D01*
X158482D01*
Y200999D01*
X157899Y200416D01*
X198199Y171500D02*
X195283D01*
X194700Y170917D01*
Y169751D01*
X195283Y169167D01*
X198199D01*
X197616Y168001D02*
X198199Y167418D01*
Y166252D01*
X197616Y165669D01*
X197033D01*
X196449Y166252D01*
Y166835D01*
Y166252D01*
X195866Y165669D01*
X195283D01*
X194700Y166252D01*
Y167418D01*
X195283Y168001D01*
X222900Y187099D02*
Y184183D01*
X223483Y183600D01*
X224649D01*
X225233Y184183D01*
Y187099D01*
X228731D02*
X226399D01*
Y185349D01*
X227565Y185933D01*
X228148D01*
X228731Y185349D01*
Y184183D01*
X228148Y183600D01*
X226982D01*
X226399Y184183D01*
X231701Y8500D02*
X234617D01*
X235200Y9083D01*
Y10249D01*
X234617Y10833D01*
X231701D01*
X235200Y14332D02*
Y11999D01*
X232867Y14332D01*
X232284D01*
X231701Y13748D01*
Y12582D01*
X232284Y11999D01*
X235200Y17830D02*
Y15498D01*
X232867Y17830D01*
X232284D01*
X231701Y17247D01*
Y16081D01*
X232284Y15498D01*
X374649Y91200D02*
Y94699D01*
X372900Y92949D01*
X375233D01*
X378731Y94116D02*
X378148Y94699D01*
X376982D01*
X376399Y94116D01*
Y91783D01*
X376982Y91200D01*
X378148D01*
X378731Y91783D01*
Y92949D01*
X377565D01*
X368433Y138916D02*
X367849Y139499D01*
X366683D01*
X366100Y138916D01*
Y136583D01*
X366683Y136000D01*
X367849D01*
X368433Y136583D01*
Y137749D01*
X367266D01*
X369599Y136000D02*
Y139499D01*
X371348D01*
X371931Y138916D01*
Y137749D01*
X371348Y137166D01*
X369599D01*
X375430Y138916D02*
X374847Y139499D01*
X373681D01*
X373098Y138916D01*
Y138333D01*
X373681Y137749D01*
X374847D01*
X375430Y137166D01*
Y136583D01*
X374847Y136000D01*
X373681D01*
X373098Y136583D01*
X380096Y139499D02*
Y136000D01*
X381845D01*
X382428Y136583D01*
Y137166D01*
X381845Y137749D01*
X380096D01*
X381845D01*
X382428Y138333D01*
Y138916D01*
X381845Y139499D01*
X380096D01*
X129631Y147099D02*
Y144183D01*
X130215Y143600D01*
X131381D01*
X131964Y144183D01*
Y147099D01*
X133130Y143600D02*
X134297D01*
X133713D01*
Y147099D01*
X133130Y146516D01*
X136046D02*
X136629Y147099D01*
X137795D01*
X138379Y146516D01*
Y145933D01*
X137795Y145349D01*
X137212D01*
X137795D01*
X138379Y144766D01*
Y144183D01*
X137795Y143600D01*
X136629D01*
X136046Y144183D01*
X53300Y87299D02*
Y84383D01*
X53883Y83800D01*
X55049D01*
X55633Y84383D01*
Y87299D01*
X56799Y83800D02*
X57965D01*
X57382D01*
Y87299D01*
X56799Y86716D01*
X59715Y87299D02*
X62047D01*
Y86716D01*
X59715Y84383D01*
Y83800D01*
X313300Y23299D02*
Y20383D01*
X313883Y19800D01*
X315049D01*
X315633Y20383D01*
Y23299D01*
X316799Y19800D02*
X317965D01*
X317382D01*
Y23299D01*
X316799Y22716D01*
X319715Y20383D02*
X320298Y19800D01*
X321464D01*
X322047Y20383D01*
Y22716D01*
X321464Y23299D01*
X320298D01*
X319715Y22716D01*
Y22133D01*
X320298Y21549D01*
X322047D01*
X254199Y18969D02*
X251283D01*
X250700Y18385D01*
Y17219D01*
X251283Y16636D01*
X254199D01*
X250700Y13137D02*
Y15470D01*
X253033Y13137D01*
X253616D01*
X254199Y13720D01*
Y14886D01*
X253616Y15470D01*
Y11971D02*
X254199Y11388D01*
Y10221D01*
X253616Y9638D01*
X251283D01*
X250700Y10221D01*
Y11388D01*
X251283Y11971D01*
X253616D01*
X136600Y-15701D02*
Y-18617D01*
X137183Y-19200D01*
X138349D01*
X138933Y-18617D01*
Y-15701D01*
X142431Y-19200D02*
X140099D01*
X142431Y-16867D01*
Y-16284D01*
X141848Y-15701D01*
X140682D01*
X140099Y-16284D01*
X143598Y-19200D02*
X144764D01*
X144181D01*
Y-15701D01*
X143598Y-16284D01*
X54000Y98099D02*
Y95183D01*
X54583Y94600D01*
X55749D01*
X56333Y95183D01*
Y98099D01*
X57499Y97516D02*
X58082Y98099D01*
X59248D01*
X59831Y97516D01*
Y96933D01*
X59248Y96349D01*
X58665D01*
X59248D01*
X59831Y95766D01*
Y95183D01*
X59248Y94600D01*
X58082D01*
X57499Y95183D01*
X60998Y97516D02*
X61581Y98099D01*
X62747D01*
X63330Y97516D01*
Y95183D01*
X62747Y94600D01*
X61581D01*
X60998Y95183D01*
Y97516D01*
X177300Y196799D02*
Y193883D01*
X177883Y193300D01*
X179049D01*
X179633Y193883D01*
Y196799D01*
X183131Y196216D02*
X182548Y196799D01*
X181382D01*
X180799Y196216D01*
Y195633D01*
X181382Y195049D01*
X182548D01*
X183131Y194466D01*
Y193883D01*
X182548Y193300D01*
X181382D01*
X180799Y193883D01*
X184298Y196799D02*
Y193300D01*
X186047D01*
X186630Y193883D01*
Y194466D01*
X186047Y195049D01*
X184298D01*
X186047D01*
X186630Y195633D01*
Y196216D01*
X186047Y196799D01*
X184298D01*
X122300Y116499D02*
Y115916D01*
X123466Y114749D01*
X124633Y115916D01*
Y116499D01*
X123466Y114749D02*
Y113000D01*
X125799Y115916D02*
X126382Y116499D01*
X127548D01*
X128131Y115916D01*
Y115333D01*
X127548Y114749D01*
X126965D01*
X127548D01*
X128131Y114166D01*
Y113583D01*
X127548Y113000D01*
X126382D01*
X125799Y113583D01*
X267600Y3799D02*
Y3216D01*
X268766Y2049D01*
X269933Y3216D01*
Y3799D01*
X268766Y2049D02*
Y300D01*
X272848D02*
Y3799D01*
X271099Y2049D01*
X273431D01*
X60157Y184567D02*
X60741Y185151D01*
Y186317D01*
X60157Y186900D01*
X57825D01*
X57242Y186317D01*
Y185151D01*
X57825Y184567D01*
X60157Y183401D02*
X60741Y182818D01*
Y181652D01*
X60157Y181069D01*
X59574D01*
X58991Y181652D01*
Y182235D01*
Y181652D01*
X58408Y181069D01*
X57825D01*
X57242Y181652D01*
Y182818D01*
X57825Y183401D01*
X60741Y179902D02*
Y177570D01*
X60157D01*
X57825Y179902D01*
X57242D01*
X128733Y163616D02*
X128149Y164199D01*
X126983D01*
X126400Y163616D01*
Y161283D01*
X126983Y160700D01*
X128149D01*
X128733Y161283D01*
X129899Y164199D02*
X132231D01*
Y163616D01*
X129899Y161283D01*
Y160700D01*
X133398Y163616D02*
X133981Y164199D01*
X135147D01*
X135730Y163616D01*
Y161283D01*
X135147Y160700D01*
X133981D01*
X133398Y161283D01*
Y163616D01*
X72332Y195299D02*
Y191800D01*
X74081D01*
X74664Y192383D01*
Y194716D01*
X74081Y195299D01*
X72332D01*
X75830Y192383D02*
X76414Y191800D01*
X77580D01*
X78163Y192383D01*
Y194716D01*
X77580Y195299D01*
X76414D01*
X75830Y194716D01*
Y194133D01*
X76414Y193549D01*
X78163D01*
X166600Y16399D02*
Y12900D01*
X168349D01*
X168933Y13483D01*
Y15816D01*
X168349Y16399D01*
X166600D01*
X170099Y12900D02*
X171265D01*
X170682D01*
Y16399D01*
X170099Y15816D01*
X173015Y12900D02*
X174181D01*
X173598D01*
Y16399D01*
X173015Y15816D01*
X101900Y192599D02*
Y189100D01*
X104233D01*
X105399Y189683D02*
X105982Y189100D01*
X107148D01*
X107731Y189683D01*
Y192016D01*
X107148Y192599D01*
X105982D01*
X105399Y192016D01*
Y191433D01*
X105982Y190849D01*
X107731D01*
X133500Y157700D02*
X136999D01*
Y155951D01*
X136416Y155367D01*
X135249D01*
X134666Y155951D01*
Y157700D01*
Y156534D02*
X133500Y155367D01*
Y152452D02*
X136999D01*
X135249Y154201D01*
Y151869D01*
X133500Y148370D02*
Y150702D01*
X135833Y148370D01*
X136416D01*
X136999Y148953D01*
Y150119D01*
X136416Y150702D01*
X53300Y156300D02*
Y159799D01*
X55049D01*
X55633Y159216D01*
Y158049D01*
X55049Y157466D01*
X53300D01*
X54466D02*
X55633Y156300D01*
X58548D02*
Y159799D01*
X56799Y158049D01*
X59131D01*
X62047Y156300D02*
Y159799D01*
X60298Y158049D01*
X62630D01*
X129100Y157500D02*
X132599D01*
Y155751D01*
X132016Y155167D01*
X130849D01*
X130266Y155751D01*
Y157500D01*
Y156334D02*
X129100Y155167D01*
X132599Y151669D02*
X132016Y152835D01*
X130849Y154001D01*
X129683D01*
X129100Y153418D01*
Y152252D01*
X129683Y151669D01*
X130266D01*
X130849Y152252D01*
Y154001D01*
X129100Y148753D02*
X132599D01*
X130849Y150502D01*
Y148170D01*
X334101Y197000D02*
X337017D01*
X337600Y197583D01*
Y198749D01*
X337017Y199333D01*
X334101D01*
X337017Y200499D02*
X337600Y201082D01*
Y202248D01*
X337017Y202831D01*
X334684D01*
X334101Y202248D01*
Y201082D01*
X334684Y200499D01*
X335267D01*
X335851Y201082D01*
Y202831D01*
X367099Y203600D02*
X364183D01*
X363600Y203017D01*
Y201851D01*
X364183Y201267D01*
X367099D01*
X363600Y200101D02*
Y198935D01*
Y199518D01*
X367099D01*
X366516Y200101D01*
Y197185D02*
X367099Y196602D01*
Y195436D01*
X366516Y194853D01*
X364183D01*
X363600Y195436D01*
Y196602D01*
X364183Y197185D01*
X366516D01*
X73164Y19816D02*
X72581Y20399D01*
X71415D01*
X70832Y19816D01*
Y17483D01*
X71415Y16900D01*
X72581D01*
X73164Y17483D01*
X76080Y16900D02*
Y20399D01*
X74330Y18649D01*
X76663D01*
X77829Y19816D02*
X78412Y20399D01*
X79579D01*
X80162Y19816D01*
Y17483D01*
X79579Y16900D01*
X78412D01*
X77829Y17483D01*
Y19816D01*
X87564Y20016D02*
X86981Y20599D01*
X85815D01*
X85232Y20016D01*
Y17683D01*
X85815Y17100D01*
X86981D01*
X87564Y17683D01*
X90480Y17100D02*
Y20599D01*
X88730Y18849D01*
X91063D01*
X92229Y17100D02*
X93396D01*
X92812D01*
Y20599D01*
X92229Y20016D01*
X103400Y140100D02*
X106899D01*
Y138351D01*
X106316Y137767D01*
X105149D01*
X104566Y138351D01*
Y140100D01*
Y138934D02*
X103400Y137767D01*
Y136601D02*
Y135435D01*
Y136018D01*
X106899D01*
X106316Y136601D01*
X103400Y133685D02*
Y132519D01*
Y133102D01*
X106899D01*
X106316Y133685D01*
Y130770D02*
X106899Y130187D01*
Y129020D01*
X106316Y128437D01*
X105733D01*
X105149Y129020D01*
X104566Y128437D01*
X103983D01*
X103400Y129020D01*
Y130187D01*
X103983Y130770D01*
X104566D01*
X105149Y130187D01*
X105733Y130770D01*
X106316D01*
X105149Y130187D02*
Y129020D01*
X133500Y63500D02*
X136999D01*
Y61751D01*
X136416Y61167D01*
X135249D01*
X134666Y61751D01*
Y63500D01*
Y62334D02*
X133500Y61167D01*
X136999Y57669D02*
Y60001D01*
X135249D01*
X135833Y58835D01*
Y58252D01*
X135249Y57669D01*
X134083D01*
X133500Y58252D01*
Y59418D01*
X134083Y60001D01*
X133500Y54170D02*
Y56502D01*
X135833Y54170D01*
X136416D01*
X136999Y54753D01*
Y55919D01*
X136416Y56502D01*
X325147Y-16298D02*
Y-12799D01*
X323398Y-14548D01*
X325730D01*
X326897Y-13382D02*
X327480Y-12799D01*
X328646D01*
X329229Y-13382D01*
Y-13965D01*
X328646Y-14548D01*
X328063D01*
X328646D01*
X329229Y-15131D01*
Y-15714D01*
X328646Y-16298D01*
X327480D01*
X326897Y-15714D01*
X330395Y-13382D02*
X330978Y-12799D01*
X332145D01*
X332728Y-13382D01*
Y-13965D01*
X332145Y-14548D01*
X331562D01*
X332145D01*
X332728Y-15131D01*
Y-15714D01*
X332145Y-16298D01*
X330978D01*
X330395Y-15714D01*
X333894Y-16298D02*
Y-12799D01*
X335061Y-13965D01*
X336227Y-12799D01*
Y-16298D01*
X337393Y-12799D02*
Y-16298D01*
Y-14548D01*
X339726D01*
Y-12799D01*
Y-16298D01*
X340892Y-13965D02*
X343225D01*
X340892Y-16298D01*
X343225D01*
X34100Y35099D02*
Y31600D01*
X35849D01*
X36433Y32183D01*
Y34516D01*
X35849Y35099D01*
X34100D01*
X37599Y31600D02*
X38765D01*
X38182D01*
Y35099D01*
X37599Y34516D01*
X40515D02*
X41098Y35099D01*
X42264D01*
X42847Y34516D01*
Y33933D01*
X42264Y33349D01*
X41681D01*
X42264D01*
X42847Y32766D01*
Y32183D01*
X42264Y31600D01*
X41098D01*
X40515Y32183D01*
X31400Y110699D02*
Y107200D01*
X33149D01*
X33733Y107783D01*
Y110116D01*
X33149Y110699D01*
X31400D01*
X34899Y107200D02*
X36065D01*
X35482D01*
Y110699D01*
X34899Y110116D01*
X39564Y107200D02*
Y110699D01*
X37815Y108949D01*
X40147D01*
X382231Y851D02*
X379899D01*
X381065Y-316D02*
Y2017D01*
X382231Y65851D02*
X379899D01*
X381065Y64684D02*
Y67017D01*
X382231Y33351D02*
X379899D01*
X381065Y32184D02*
Y34517D01*
X382231Y17101D02*
X379899D01*
X381065Y15934D02*
Y18267D01*
X382231Y49601D02*
X379899D01*
X381065Y48434D02*
Y50767D01*
X45400Y137149D02*
X47733D01*
X46566Y138316D02*
Y135983D01*
X50051Y166900D02*
Y169233D01*
X17500Y201949D02*
X19833D01*
X18666Y203116D02*
Y200783D01*
X20999Y202533D02*
X21582D01*
Y201949D01*
X20999D01*
Y202533D01*
Y200783D02*
X21582D01*
Y200200D01*
X20999D01*
Y200783D01*
X27413Y203699D02*
Y200200D01*
X29163D01*
X29746Y200783D01*
Y203116D01*
X29163Y203699D01*
X27413D01*
X33245Y203116D02*
X32662Y203699D01*
X31495D01*
X30912Y203116D01*
Y200783D01*
X31495Y200200D01*
X32662D01*
X33245Y200783D01*
X40243Y203699D02*
X39076Y203116D01*
X37910Y201949D01*
Y200783D01*
X38493Y200200D01*
X39660D01*
X40243Y200783D01*
Y201366D01*
X39660Y201949D01*
X37910D01*
X41409D02*
X43742D01*
X44908D02*
X47240D01*
X48407Y203116D02*
X48990Y203699D01*
X50156D01*
X50739Y203116D01*
Y202533D01*
X50156Y201949D01*
X49573D01*
X50156D01*
X50739Y201366D01*
Y200783D01*
X50156Y200200D01*
X48990D01*
X48407Y200783D01*
X54238Y203699D02*
X53072Y203116D01*
X51906Y201949D01*
Y200783D01*
X52489Y200200D01*
X53655D01*
X54238Y200783D01*
Y201366D01*
X53655Y201949D01*
X51906D01*
X55404Y203699D02*
Y201366D01*
X56571Y200200D01*
X57737Y201366D01*
Y203699D01*
X46800Y13599D02*
X49133D01*
X47966D01*
Y10100D01*
X50299Y13599D02*
X52631Y10100D01*
Y13599D02*
X50299Y10100D01*
X47100Y14600D02*
Y18099D01*
X48849D01*
X49433Y17516D01*
Y16349D01*
X48849Y15766D01*
X47100D01*
X48266D02*
X49433Y14600D01*
X50599Y18099D02*
X52931Y14600D01*
Y18099D02*
X50599Y14600D01*
X49033Y21916D02*
X48449Y22499D01*
X47283D01*
X46700Y21916D01*
Y19583D01*
X47283Y19000D01*
X48449D01*
X49033Y19583D01*
Y20749D01*
X47866D01*
X46600Y26316D02*
X47183Y26899D01*
X48349D01*
X48933Y26316D01*
Y25733D01*
X48349Y25149D01*
X47766D01*
X48349D01*
X48933Y24566D01*
Y23983D01*
X48349Y23400D01*
X47183D01*
X46600Y23983D01*
X50099Y23400D02*
Y23983D01*
X50682D01*
Y23400D01*
X50099D01*
X53015Y26316D02*
X53598Y26899D01*
X54764D01*
X55347Y26316D01*
Y25733D01*
X54764Y25149D01*
X54181D01*
X54764D01*
X55347Y24566D01*
Y23983D01*
X54764Y23400D01*
X53598D01*
X53015Y23983D01*
X56514Y26899D02*
Y24566D01*
X57680Y23400D01*
X58846Y24566D01*
Y26899D01*
X46900Y30999D02*
Y27500D01*
X48649D01*
X49233Y28083D01*
Y30416D01*
X48649Y30999D01*
X46900D01*
X52731Y28083D02*
Y30416D01*
X52148Y30999D01*
X50982D01*
X50399Y30416D01*
Y28083D01*
X50982Y27500D01*
X52148D01*
X51565Y28666D02*
X52731Y27500D01*
X52148D02*
X52731Y28083D01*
X49233Y34916D02*
X48649Y35499D01*
X47483D01*
X46900Y34916D01*
Y32583D01*
X47483Y32000D01*
X48649D01*
X49233Y32583D01*
Y33749D01*
X48066D01*
X46500Y39316D02*
X47083Y39899D01*
X48249D01*
X48833Y39316D01*
Y38733D01*
X48249Y38149D01*
X47666D01*
X48249D01*
X48833Y37566D01*
Y36983D01*
X48249Y36400D01*
X47083D01*
X46500Y36983D01*
X49999Y36400D02*
Y36983D01*
X50582D01*
Y36400D01*
X49999D01*
X52915Y39316D02*
X53498Y39899D01*
X54664D01*
X55247Y39316D01*
Y38733D01*
X54664Y38149D01*
X54081D01*
X54664D01*
X55247Y37566D01*
Y36983D01*
X54664Y36400D01*
X53498D01*
X52915Y36983D01*
X56414Y39899D02*
Y37566D01*
X57580Y36400D01*
X58746Y37566D01*
Y39899D01*
X46800Y40500D02*
Y43999D01*
X47966Y42833D01*
X49133Y43999D01*
Y40500D01*
X52048Y43999D02*
X50882D01*
X50299Y43416D01*
Y41083D01*
X50882Y40500D01*
X52048D01*
X52631Y41083D01*
Y43416D01*
X52048Y43999D01*
X53798D02*
X56130D01*
X54964D01*
Y40500D01*
X59046Y43999D02*
X57880D01*
X57297Y43416D01*
Y41083D01*
X57880Y40500D01*
X59046D01*
X59629Y41083D01*
Y43416D01*
X59046Y43999D01*
X49133Y47916D02*
X48549Y48499D01*
X47383D01*
X46800Y47916D01*
Y45583D01*
X47383Y45000D01*
X48549D01*
X49133Y45583D01*
Y46749D01*
X47966D01*
X49133Y52216D02*
X48549Y52799D01*
X47383D01*
X46800Y52216D01*
Y49883D01*
X47383Y49300D01*
X48549D01*
X49133Y49883D01*
Y51049D01*
X47966D01*
X50299Y49300D02*
Y51633D01*
X51465Y52799D01*
X52631Y51633D01*
Y49300D01*
Y51049D01*
X50299D01*
X56130Y52216D02*
X55547Y52799D01*
X54381D01*
X53798Y52216D01*
Y51633D01*
X54381Y51049D01*
X55547D01*
X56130Y50466D01*
Y49883D01*
X55547Y49300D01*
X54381D01*
X53798Y49883D01*
X35800Y16849D02*
X38133D01*
X36966Y18016D02*
Y15683D01*
X-7068Y212300D02*
X386632D01*
X-7068Y-23921D02*
Y212300D01*
Y-23921D02*
X386632D01*
Y212300D01*
D160*
X73756Y171247D02*
G03*
X73756Y171247I-492J0D01*
G01*
X275441Y13063D02*
G03*
X275441Y13063I-492J0D01*
G01*
X219754Y479D02*
G03*
X219754Y479I-492J0D01*
G01*
X45606Y78790D02*
G03*
X45606Y78790I-492J0D01*
G01*
D161*
X339432Y196300D02*
G03*
X339432Y196300I-197J0D01*
G01*
X338447Y201645D02*
X344353D01*
Y197117D02*
Y201645D01*
X338447Y197117D02*
Y201645D01*
Y197117D02*
X344353D01*
X361189Y197133D02*
Y200278D01*
X360200Y201267D02*
X361189Y200278D01*
X355697Y201267D02*
X360200D01*
X355697Y197133D02*
X361189D01*
X355697D02*
Y201267D01*
D162*
X312516Y18815D02*
G03*
X312516Y18815I-591J0D01*
G01*
X217398Y211182D02*
G03*
X216216Y210001I0J-1181D01*
G01*
X187083D02*
G03*
X185902Y211182I-1181J0D01*
G01*
X181532Y171700D02*
Y181700D01*
X141532Y171700D02*
X181532D01*
X141532Y181700D02*
X181532D01*
X141532Y171700D02*
Y181700D01*
X78284Y150557D02*
X88717D01*
X78284Y170243D02*
X88717D01*
X346869Y197609D02*
Y198791D01*
X312516Y17437D02*
X314484D01*
X312516Y9563D02*
X314484D01*
X312516D02*
Y17437D01*
X314484Y9563D02*
Y17437D01*
X220639Y5401D02*
X246624D01*
X220639Y17999D02*
X246624D01*
X220639Y5401D02*
Y17999D01*
X246624Y5401D02*
Y17999D01*
X187083Y210001D02*
X216216D01*
X192595Y201930D02*
Y208623D01*
Y201930D02*
X194563D01*
Y208623D01*
X192595D02*
X194563D01*
X208736Y201930D02*
Y208623D01*
Y201930D02*
X210705D01*
Y208623D01*
X208736D02*
X210705D01*
X187083Y188544D02*
X216216D01*
Y210198D01*
X187083Y188544D02*
Y210198D01*
X214642Y210001D02*
Y211379D01*
X188657D02*
X214642D01*
X188657Y210001D02*
Y211379D01*
X214131Y-19700D02*
Y-9700D01*
X254132D01*
X214131Y-19700D02*
X254132D01*
Y-9700D01*
X138379Y80947D02*
Y126400D01*
Y80947D02*
X189284D01*
Y131853D01*
X143832D02*
X189284D01*
X138379Y126400D02*
X143832Y131853D01*
D163*
X225758Y9338D02*
G03*
X225758Y9338I-1181J0D01*
G01*
D164*
X204806Y170087D02*
G03*
X204806Y170087I-400J0D01*
G01*
X255379Y6237D02*
X265084D01*
X265221Y6100D01*
Y-1637D02*
Y6100D01*
X255379Y-1637D02*
X265221D01*
X255379D02*
Y6237D01*
X199632Y166900D02*
Y171662D01*
X205981Y166900D02*
Y171662D01*
X106731Y100294D02*
X107832Y99113D01*
X106731Y100294D02*
Y114481D01*
X107832Y115681D01*
X119737Y115681D01*
X120918Y114481D01*
Y100294D02*
Y114481D01*
X119737Y99113D02*
X120918Y100294D01*
X107832Y99113D02*
X119737D01*
X113831Y106200D02*
X114619Y106987D01*
D165*
X93218Y111997D02*
G03*
X93218Y108061I0J-1969D01*
G01*
X54342Y112874D02*
G03*
X59903Y112874I2780J0D01*
G01*
X93218Y102155D02*
Y108061D01*
X72746Y102155D02*
X93218D01*
X72746D02*
Y117903D01*
X93218D01*
Y111997D02*
Y117903D01*
X47903Y99653D02*
Y110874D01*
X65903Y99653D02*
Y110874D01*
X47903Y99653D02*
X65903D01*
X47903Y110874D02*
Y112874D01*
X65903D01*
Y110874D02*
Y112874D01*
D166*
X271406Y9126D02*
Y10996D01*
X269535Y9126D02*
X271406D01*
X255658D02*
X257528D01*
X255658D02*
Y10996D01*
Y23004D02*
Y24874D01*
X257528D01*
X269535D02*
X271406D01*
Y23004D02*
Y24874D01*
D167*
X10147Y12183D02*
D03*
M02*
