%FSLAX25Y25*%
%MOIN*%
G70*
G01*
G75*
G04 Layer_Color=8388736*
%ADD10C,0.02000*%
%ADD11C,0.03000*%
%ADD12C,0.01500*%
%ADD13R,0.01575X0.01181*%
%ADD14R,0.03937X0.02362*%
%ADD15R,0.03347X0.02756*%
%ADD16R,0.07480X0.11811*%
%ADD17O,0.06890X0.02362*%
%ADD18O,0.02362X0.07087*%
%ADD19O,0.07087X0.02362*%
%ADD20O,0.06299X0.02362*%
%ADD21R,0.02756X0.03347*%
%ADD22R,0.00984X0.01575*%
%ADD23R,0.02362X0.01969*%
%ADD24R,0.00984X0.01299*%
G04:AMPARAMS|DCode=25|XSize=35.43mil|YSize=157.48mil|CornerRadius=1.77mil|HoleSize=0mil|Usage=FLASHONLY|Rotation=90.000|XOffset=0mil|YOffset=0mil|HoleType=Round|Shape=RoundedRectangle|*
%AMROUNDEDRECTD25*
21,1,0.03543,0.15394,0,0,90.0*
21,1,0.03189,0.15748,0,0,90.0*
1,1,0.00354,0.07697,0.01595*
1,1,0.00354,0.07697,-0.01595*
1,1,0.00354,-0.07697,-0.01595*
1,1,0.00354,-0.07697,0.01595*
%
%ADD25ROUNDEDRECTD25*%
%ADD26R,0.01181X0.01575*%
%ADD27R,0.02362X0.02362*%
%ADD28R,0.02362X0.02362*%
%ADD29R,0.03347X0.01575*%
%ADD30R,0.05118X0.03937*%
%ADD31O,0.03740X0.00984*%
%ADD32O,0.00984X0.03740*%
%ADD33R,0.08661X0.08661*%
%ADD34R,0.03150X0.02559*%
%ADD35O,0.01378X0.06693*%
%ADD36C,0.03937*%
%ADD37R,0.01200X0.01800*%
%ADD38R,0.07874X0.03937*%
%ADD39R,0.01575X0.05906*%
%ADD40R,0.07874X0.07874*%
%ADD41O,0.03937X0.01181*%
%ADD42R,0.03937X0.01181*%
%ADD43R,0.02500X0.05906*%
%ADD44R,0.04800X0.05600*%
%ADD45R,0.04724X0.03150*%
%ADD46O,0.03740X0.01378*%
%ADD47R,0.08661X0.16929*%
%ADD48R,0.04803X0.02441*%
%ADD49R,0.07087X0.07874*%
%ADD50O,0.06693X0.01063*%
%ADD51R,0.06693X0.01063*%
%ADD52R,0.01063X0.06693*%
%ADD53R,0.08898X0.25590*%
%ADD54R,0.03937X0.05118*%
%ADD55R,0.03937X0.05906*%
%ADD56R,0.07874X0.07874*%
%ADD57R,0.04724X0.09843*%
%ADD58R,0.10000X0.07000*%
%ADD59O,0.05906X0.03150*%
%ADD60R,0.07087X0.03937*%
%ADD61O,0.03150X0.05906*%
%ADD62R,0.03937X0.07087*%
%ADD63C,0.01000*%
%ADD64C,0.08000*%
%ADD65C,0.01200*%
%ADD66C,0.00800*%
%ADD67C,0.02500*%
%ADD68R,0.11600X0.03500*%
%ADD69R,0.12910X0.06885*%
%ADD70R,0.04300X0.04600*%
%ADD71R,0.04600X0.21700*%
%ADD72R,0.34969X0.11400*%
%ADD73R,0.26500X0.16000*%
%ADD74R,0.18000X0.08400*%
%ADD75R,0.10500X0.06400*%
%ADD76R,0.06000X0.09600*%
%ADD77R,0.06700X0.09800*%
%ADD78R,0.04200X0.18700*%
%ADD79R,0.06200X0.14700*%
%ADD80R,0.10400X0.95500*%
%ADD81R,0.27300X0.16100*%
%ADD82R,0.05700X0.21700*%
%ADD83R,0.08100X0.13300*%
%ADD84R,0.08700X0.05400*%
%ADD85R,0.05000X0.07173*%
%ADD86R,0.06600X0.19900*%
%ADD87C,0.00500*%
%ADD88R,0.05906X0.05906*%
%ADD89C,0.05906*%
%ADD90C,0.07874*%
%ADD91R,0.07874X0.07874*%
G04:AMPARAMS|DCode=92|XSize=51.18mil|YSize=173.23mil|CornerRadius=2.56mil|HoleSize=0mil|Usage=FLASHONLY|Rotation=90.000|XOffset=0mil|YOffset=0mil|HoleType=Round|Shape=RoundedRectangle|*
%AMROUNDEDRECTD92*
21,1,0.05118,0.16811,0,0,90.0*
21,1,0.04606,0.17323,0,0,90.0*
1,1,0.00512,0.08406,0.02303*
1,1,0.00512,0.08406,-0.02303*
1,1,0.00512,-0.08406,-0.02303*
1,1,0.00512,-0.08406,0.02303*
%
%ADD92ROUNDEDRECTD92*%
%ADD93C,0.01969*%
%ADD94R,0.05315X0.07284*%
%ADD95C,0.13780*%
%ADD96O,0.07874X0.11811*%
%ADD97R,0.07874X0.11811*%
%ADD98C,0.02000*%
%ADD99C,0.03000*%
%ADD100C,0.03500*%
%ADD101C,0.04000*%
%ADD102C,0.02598*%
%ADD103C,0.04000*%
%ADD104R,0.10876X0.04450*%
%ADD105R,0.12400X0.11000*%
%ADD106R,0.12400X0.13400*%
%ADD107R,0.42200X0.13900*%
%ADD108R,0.28100X0.17200*%
%ADD109R,0.10200X0.09400*%
%ADD110R,0.09500X0.12000*%
%ADD111C,0.05000*%
%ADD112R,0.39000X0.13800*%
%ADD113R,0.06200X0.13300*%
%ADD114R,0.21900X0.04900*%
%ADD115R,0.19300X0.05600*%
%ADD116R,0.27100X0.16800*%
%ADD117R,0.08400X0.08100*%
%ADD118R,0.08300X0.14100*%
%ADD119R,0.08661X0.11024*%
%ADD120R,0.01969X0.07874*%
%ADD121R,0.02362X0.03937*%
%ADD122R,0.02500X0.05500*%
%ADD123R,0.06299X0.01969*%
%ADD124R,0.07874X0.14410*%
%ADD125R,0.07000X0.10000*%
%ADD126R,0.07087X0.03937*%
%ADD127O,0.09843X0.02362*%
%ADD128O,0.08661X0.02362*%
%ADD129O,0.01378X0.03740*%
%ADD130R,0.16929X0.08661*%
%ADD131R,0.04843X0.02559*%
%ADD132R,0.08268X0.02756*%
%ADD133O,0.03543X0.01969*%
%ADD134O,0.03543X0.01969*%
%ADD135R,0.03543X0.01969*%
%ADD136R,0.03347X0.01575*%
%ADD137R,0.07874X0.01969*%
%ADD138R,0.05118X0.19685*%
%ADD139R,0.03150X0.04724*%
%ADD140R,0.19685X0.05118*%
%ADD141C,0.09000*%
%ADD142R,0.22800X0.06300*%
%ADD143R,0.08600X0.09700*%
%ADD144R,0.05400X0.08800*%
%ADD145R,0.03600X0.11400*%
%ADD146R,0.11100X0.13400*%
%ADD147R,0.08800X0.07400*%
%ADD148R,0.29300X0.15600*%
%ADD149R,0.14000X0.54700*%
%ADD150R,0.48700X0.11300*%
%ADD151R,0.26931X0.16000*%
%ADD152R,0.14700X0.03700*%
%ADD153R,0.08500X0.39500*%
%ADD154R,0.04900X0.17100*%
%ADD155R,0.07600X0.09400*%
%ADD156R,0.03474X0.08965*%
%ADD157R,0.08900X0.10200*%
%ADD158R,0.15200X0.28165*%
%ADD159R,0.15800X0.09700*%
%ADD160C,0.00984*%
%ADD161C,0.00300*%
%ADD162C,0.00787*%
%ADD163C,0.02362*%
%ADD164C,0.00600*%
%ADD165C,0.00700*%
%ADD166C,0.00900*%
%ADD167R,0.05417X0.06634*%
%ADD168R,0.02375X0.01981*%
%ADD169R,0.04737X0.03162*%
%ADD170R,0.04147X0.03556*%
%ADD171R,0.08280X0.12611*%
%ADD172O,0.07690X0.03162*%
%ADD173O,0.03162X0.07887*%
%ADD174O,0.07887X0.03162*%
%ADD175O,0.07099X0.03162*%
%ADD176R,0.03556X0.04147*%
%ADD177R,0.01784X0.02375*%
%ADD178R,0.03162X0.02769*%
%ADD179R,0.01784X0.02099*%
G04:AMPARAMS|DCode=180|XSize=39.37mil|YSize=161.42mil|CornerRadius=1.97mil|HoleSize=0mil|Usage=FLASHONLY|Rotation=90.000|XOffset=0mil|YOffset=0mil|HoleType=Round|Shape=RoundedRectangle|*
%AMROUNDEDRECTD180*
21,1,0.03937,0.15748,0,0,90.0*
21,1,0.03543,0.16142,0,0,90.0*
1,1,0.00394,0.07874,0.01772*
1,1,0.00394,0.07874,-0.01772*
1,1,0.00394,-0.07874,-0.01772*
1,1,0.00394,-0.07874,0.01772*
%
%ADD180ROUNDEDRECTD180*%
%ADD181R,0.01981X0.02375*%
%ADD182R,0.03162X0.03162*%
%ADD183R,0.03162X0.03162*%
%ADD184R,0.03740X0.01969*%
%ADD185R,0.05918X0.04737*%
%ADD186O,0.04540X0.01784*%
%ADD187O,0.01784X0.04540*%
%ADD188R,0.09461X0.09461*%
%ADD189R,0.03950X0.03359*%
%ADD190O,0.02178X0.07493*%
%ADD191C,0.04737*%
%ADD192R,0.02000X0.02600*%
%ADD193R,0.08674X0.04737*%
%ADD194R,0.02375X0.06706*%
%ADD195R,0.08674X0.08674*%
%ADD196O,0.04737X0.01981*%
%ADD197R,0.04737X0.01981*%
%ADD198R,0.03300X0.06706*%
%ADD199R,0.05600X0.06400*%
%ADD200R,0.05524X0.03950*%
%ADD201O,0.04540X0.02178*%
%ADD202R,0.09461X0.17729*%
%ADD203R,0.05603X0.03241*%
%ADD204R,0.07887X0.08674*%
%ADD205O,0.07493X0.01863*%
%ADD206R,0.07493X0.01863*%
%ADD207R,0.01863X0.07493*%
%ADD208R,0.09698X0.26391*%
%ADD209R,0.04737X0.05918*%
%ADD210R,0.04737X0.06706*%
%ADD211R,0.08674X0.08674*%
%ADD212R,0.05524X0.10642*%
%ADD213R,0.10800X0.07800*%
%ADD214O,0.06706X0.03950*%
%ADD215R,0.07887X0.04737*%
%ADD216O,0.03950X0.06706*%
%ADD217R,0.04737X0.07887*%
%ADD218R,0.06706X0.06706*%
%ADD219C,0.06706*%
%ADD220C,0.08674*%
%ADD221R,0.08674X0.08674*%
G04:AMPARAMS|DCode=222|XSize=55.12mil|YSize=177.16mil|CornerRadius=2.76mil|HoleSize=0mil|Usage=FLASHONLY|Rotation=90.000|XOffset=0mil|YOffset=0mil|HoleType=Round|Shape=RoundedRectangle|*
%AMROUNDEDRECTD222*
21,1,0.05512,0.17165,0,0,90.0*
21,1,0.04961,0.17716,0,0,90.0*
1,1,0.00551,0.08583,0.02480*
1,1,0.00551,0.08583,-0.02480*
1,1,0.00551,-0.08583,-0.02480*
1,1,0.00551,-0.08583,0.02480*
%
%ADD222ROUNDEDRECTD222*%
%ADD223C,0.02769*%
%ADD224R,0.06115X0.08083*%
%ADD225C,0.14579*%
%ADD226O,0.08674X0.12611*%
%ADD227R,0.08674X0.12611*%
%ADD228C,0.03800*%
D10*
X249232Y38600D02*
Y45100D01*
Y-600D02*
Y6500D01*
X268300Y-3300D02*
X279100D01*
X318900D02*
X323600D01*
X325609Y2600D02*
Y8000D01*
X293639Y55560D02*
X303901D01*
X325609Y35200D02*
Y47400D01*
D87*
X-7068Y212300D02*
X386632D01*
X-7068Y-23921D02*
Y212300D01*
Y-23921D02*
X386632D01*
Y212300D01*
D168*
X217100Y136200D02*
D03*
Y140137D02*
D03*
X362600Y82263D02*
D03*
Y86200D02*
D03*
X216300Y156200D02*
D03*
Y152263D02*
D03*
D169*
X200832Y136226D02*
D03*
X210674Y140163D02*
D03*
X200832Y144100D02*
D03*
X201200Y149826D02*
D03*
X211042Y153763D02*
D03*
X201200Y157700D02*
D03*
X131800Y10900D02*
D03*
X141642Y6963D02*
D03*
X131800Y3026D02*
D03*
D170*
X135500Y196900D02*
D03*
Y190995D02*
D03*
X128600Y190900D02*
D03*
Y196806D02*
D03*
X360531Y186400D02*
D03*
Y192306D02*
D03*
X360500Y174400D02*
D03*
Y180306D02*
D03*
X264732Y40171D02*
D03*
Y34265D02*
D03*
X259032Y40171D02*
D03*
Y34265D02*
D03*
X253432Y40171D02*
D03*
Y34265D02*
D03*
X215632Y8300D02*
D03*
Y14206D02*
D03*
X140400Y61900D02*
D03*
Y55994D02*
D03*
X159200Y-3100D02*
D03*
Y-9005D02*
D03*
X108957Y-5316D02*
D03*
Y-11222D02*
D03*
X102865Y-5339D02*
D03*
Y-11245D02*
D03*
X103397Y153200D02*
D03*
Y147294D02*
D03*
X109820Y153200D02*
D03*
Y147294D02*
D03*
X90997Y139800D02*
D03*
Y133895D02*
D03*
X84600Y133800D02*
D03*
Y139706D02*
D03*
X77897Y133895D02*
D03*
Y139800D02*
D03*
X97831Y111600D02*
D03*
Y105694D02*
D03*
X88032Y71600D02*
D03*
Y65694D02*
D03*
X94032Y71600D02*
D03*
Y65694D02*
D03*
X100031Y71600D02*
D03*
Y65694D02*
D03*
X72000Y44500D02*
D03*
Y50406D02*
D03*
X78600Y50500D02*
D03*
Y44594D02*
D03*
X42300Y115400D02*
D03*
Y109494D02*
D03*
X59500Y173900D02*
D03*
Y167994D02*
D03*
D171*
X83500Y160400D02*
D03*
D172*
X93736Y152900D02*
D03*
Y157900D02*
D03*
Y162900D02*
D03*
Y167900D02*
D03*
X73264Y152900D02*
D03*
Y157900D02*
D03*
Y162900D02*
D03*
Y167900D02*
D03*
D173*
X244394Y182198D02*
D03*
X327072D02*
D03*
X244394Y63300D02*
D03*
X248331D02*
D03*
X252269D02*
D03*
X256206D02*
D03*
X260142D02*
D03*
X264079D02*
D03*
X268017D02*
D03*
X271954D02*
D03*
X275891D02*
D03*
X279828D02*
D03*
X283765D02*
D03*
X287702D02*
D03*
X291639D02*
D03*
X295576D02*
D03*
X299513D02*
D03*
X303450D02*
D03*
X307387D02*
D03*
X311324D02*
D03*
X315261D02*
D03*
X319198D02*
D03*
X323135D02*
D03*
X323135Y182198D02*
D03*
X319198Y182198D02*
D03*
X315261D02*
D03*
X311324D02*
D03*
X307387D02*
D03*
X303450D02*
D03*
X299513D02*
D03*
X295576D02*
D03*
X291639D02*
D03*
X287702D02*
D03*
X283765D02*
D03*
X279828Y182198D02*
D03*
X275891Y182198D02*
D03*
X271954D02*
D03*
X268017Y182198D02*
D03*
X264079Y182198D02*
D03*
X248331D02*
D03*
X260142D02*
D03*
X256206D02*
D03*
X252269D02*
D03*
X327072Y63300D02*
D03*
D174*
X345576Y164087D02*
D03*
X345182Y81410D02*
D03*
X226284D02*
D03*
X345576Y160150D02*
D03*
X345182Y156213D02*
D03*
Y144402D02*
D03*
Y140465D02*
D03*
Y136528D02*
D03*
Y132591D02*
D03*
X345182Y128654D02*
D03*
X345182Y124717D02*
D03*
Y120780D02*
D03*
Y116843D02*
D03*
Y112906D02*
D03*
Y108969D02*
D03*
Y105032D02*
D03*
Y101095D02*
D03*
Y97158D02*
D03*
Y93221D02*
D03*
Y89284D02*
D03*
Y85347D02*
D03*
X226284D02*
D03*
X226284Y89284D02*
D03*
X226284Y93221D02*
D03*
Y97158D02*
D03*
Y101095D02*
D03*
Y105032D02*
D03*
Y108969D02*
D03*
Y112906D02*
D03*
X226284Y116843D02*
D03*
X226284Y120780D02*
D03*
Y124717D02*
D03*
X226284Y128654D02*
D03*
Y132591D02*
D03*
X226284Y136528D02*
D03*
Y140465D02*
D03*
Y144402D02*
D03*
Y148339D02*
D03*
Y152276D02*
D03*
Y156213D02*
D03*
Y160150D02*
D03*
D175*
X345576Y152276D02*
D03*
Y148339D02*
D03*
D176*
X285800Y193000D02*
D03*
X279894D02*
D03*
X331631Y200600D02*
D03*
X325726D02*
D03*
X343300Y206000D02*
D03*
X337394D02*
D03*
X232537Y37700D02*
D03*
X238442D02*
D03*
X238332Y31200D02*
D03*
X232426D02*
D03*
X211637Y118200D02*
D03*
X205732D02*
D03*
X211637Y124400D02*
D03*
X205732D02*
D03*
X116866Y159200D02*
D03*
X122772D02*
D03*
X111300Y95100D02*
D03*
X117206D02*
D03*
X111232Y87900D02*
D03*
X117137D02*
D03*
X117032Y81800D02*
D03*
X111126D02*
D03*
X98132Y56900D02*
D03*
X92226D02*
D03*
X72694Y62800D02*
D03*
X78600D02*
D03*
X78600Y56800D02*
D03*
X72694D02*
D03*
X60800Y56400D02*
D03*
X66706D02*
D03*
X40500Y54500D02*
D03*
X34595D02*
D03*
X40500Y61700D02*
D03*
X34595D02*
D03*
X34400Y67600D02*
D03*
X40306D02*
D03*
X40500Y78100D02*
D03*
X34595D02*
D03*
X39900Y99000D02*
D03*
X33994D02*
D03*
X40005Y93000D02*
D03*
X34100D02*
D03*
X40500Y84500D02*
D03*
X34595D02*
D03*
X116232Y120581D02*
D03*
X110326D02*
D03*
X115500Y-11000D02*
D03*
X121405D02*
D03*
X54600Y152900D02*
D03*
X60505D02*
D03*
D177*
X339432Y198200D02*
D03*
X341400D02*
D03*
X343369D02*
D03*
Y200562D02*
D03*
X341400D02*
D03*
X339432D02*
D03*
D178*
X353169Y198200D02*
D03*
X349232D02*
D03*
D179*
X360500Y199200D02*
D03*
X358531Y200184D02*
D03*
X356563D02*
D03*
Y198216D02*
D03*
X358531D02*
D03*
D180*
X376932Y174300D02*
D03*
D181*
X360537Y166900D02*
D03*
X356600D02*
D03*
X38700Y38400D02*
D03*
X34763D02*
D03*
X38600Y42300D02*
D03*
X34663D02*
D03*
X33200Y104200D02*
D03*
X37137D02*
D03*
D182*
X282410Y21501D02*
D03*
X278473D02*
D03*
X286810D02*
D03*
X290747D02*
D03*
X303910D02*
D03*
X299973D02*
D03*
X303910Y26301D02*
D03*
X299973D02*
D03*
X307931Y30900D02*
D03*
X303994D02*
D03*
X312784Y5363D02*
D03*
X316721D02*
D03*
X316884Y363D02*
D03*
X312947D02*
D03*
X286110Y12336D02*
D03*
X290047D02*
D03*
Y7836D02*
D03*
X286110D02*
D03*
X294947D02*
D03*
X298884D02*
D03*
D183*
X295400Y21600D02*
D03*
Y25537D02*
D03*
X309732Y21600D02*
D03*
Y25537D02*
D03*
X322000Y9600D02*
D03*
Y13537D02*
D03*
Y1263D02*
D03*
Y5200D02*
D03*
X281500Y12100D02*
D03*
Y8163D02*
D03*
X286100Y-300D02*
D03*
Y3637D02*
D03*
X284710Y31201D02*
D03*
Y27264D02*
D03*
X279710Y31201D02*
D03*
Y27264D02*
D03*
D184*
X309760Y16059D02*
D03*
Y13500D02*
D03*
Y10941D02*
D03*
X317240D02*
D03*
Y13500D02*
D03*
Y16059D02*
D03*
D185*
X271731Y42927D02*
D03*
Y35053D02*
D03*
D186*
X270913Y13063D02*
D03*
Y15032D02*
D03*
Y17000D02*
D03*
Y18969D02*
D03*
Y20937D02*
D03*
X256150D02*
D03*
Y18969D02*
D03*
Y17000D02*
D03*
Y15032D02*
D03*
Y13063D02*
D03*
D187*
X267469Y24382D02*
D03*
X265500D02*
D03*
X263531D02*
D03*
X261563D02*
D03*
X259594D02*
D03*
Y9618D02*
D03*
X261563D02*
D03*
X263531D02*
D03*
X265500D02*
D03*
X267469D02*
D03*
D188*
X263531Y17000D02*
D03*
D189*
X263253Y36D02*
D03*
X257347D02*
D03*
X263253Y4564D02*
D03*
X257347Y4564D02*
D03*
D190*
X222116Y479D02*
D03*
X224675D02*
D03*
X227234D02*
D03*
X229793D02*
D03*
X232352D02*
D03*
X234911D02*
D03*
X237470D02*
D03*
X240029D02*
D03*
X242588D02*
D03*
X245147D02*
D03*
X222116Y22920D02*
D03*
X224675D02*
D03*
X227234D02*
D03*
X229793D02*
D03*
X232352D02*
D03*
X234911D02*
D03*
X237470D02*
D03*
X240029D02*
D03*
X242588D02*
D03*
X245147D02*
D03*
D191*
X205000Y106400D02*
D03*
X174800Y154400D02*
D03*
X173800Y145200D02*
D03*
X150266Y50534D02*
D03*
X152507Y56593D02*
D03*
X374932Y-300D02*
D03*
X365955D02*
D03*
Y64700D02*
D03*
X374932D02*
D03*
Y32200D02*
D03*
X365955D02*
D03*
Y15950D02*
D03*
X374932D02*
D03*
Y48450D02*
D03*
X365955D02*
D03*
D192*
X204800Y166600D02*
D03*
X202832D02*
D03*
X200832D02*
D03*
X202832Y171958D02*
D03*
X204800D02*
D03*
X200832D02*
D03*
D193*
X167685Y205167D02*
D03*
Y190600D02*
D03*
X146031Y205167D02*
D03*
Y190600D02*
D03*
D194*
X196531Y191300D02*
D03*
X201650D02*
D03*
X204209D02*
D03*
X206768D02*
D03*
X199091D02*
D03*
D195*
X169800Y6148D02*
D03*
Y-9600D02*
D03*
D196*
X149732Y-10940D02*
D03*
X131032Y-12909D02*
D03*
Y-10940D02*
D03*
X149732Y-8972D02*
D03*
X131032D02*
D03*
Y-7003D02*
D03*
X149732Y-5035D02*
D03*
Y-7003D02*
D03*
Y-12909D02*
D03*
D197*
X131032Y-5035D02*
D03*
D198*
X85462Y98218D02*
D03*
X80462Y121840D02*
D03*
X75462D02*
D03*
X90462Y98218D02*
D03*
X75462D02*
D03*
X90462Y121840D02*
D03*
X85462D02*
D03*
X80462Y98218D02*
D03*
D199*
X110432Y103050D02*
D03*
Y111781D02*
D03*
X117178Y103050D02*
D03*
X117178Y111781D02*
D03*
D200*
X77031Y72514D02*
D03*
Y85900D02*
D03*
D201*
X49150Y78790D02*
D03*
Y76821D02*
D03*
Y74853D02*
D03*
Y72884D02*
D03*
Y70916D02*
D03*
Y68947D02*
D03*
Y66979D02*
D03*
Y65010D02*
D03*
X63913D02*
D03*
Y66979D02*
D03*
Y68947D02*
D03*
Y70916D02*
D03*
Y72884D02*
D03*
Y74853D02*
D03*
Y76821D02*
D03*
Y78790D02*
D03*
D202*
X56532Y71900D02*
D03*
D203*
X62218Y105913D02*
D03*
Y109653D02*
D03*
X51903Y102173D02*
D03*
Y109653D02*
D03*
Y105913D02*
D03*
X62218Y102173D02*
D03*
D204*
X112831Y186016D02*
D03*
X112932Y168300D02*
D03*
D205*
X132926Y130022D02*
D03*
D206*
Y128053D02*
D03*
Y126085D02*
D03*
Y124117D02*
D03*
Y122148D02*
D03*
Y120179D02*
D03*
Y118211D02*
D03*
Y116243D02*
D03*
Y114274D02*
D03*
Y112305D02*
D03*
Y110337D02*
D03*
Y108369D02*
D03*
Y106400D02*
D03*
Y104431D02*
D03*
Y102463D02*
D03*
Y100495D02*
D03*
Y98526D02*
D03*
Y96557D02*
D03*
Y94589D02*
D03*
Y92620D02*
D03*
Y90652D02*
D03*
Y88683D02*
D03*
Y86715D02*
D03*
Y84746D02*
D03*
Y82778D02*
D03*
X194737D02*
D03*
Y84746D02*
D03*
Y86715D02*
D03*
Y88683D02*
D03*
Y90652D02*
D03*
Y92620D02*
D03*
Y94589D02*
D03*
Y96557D02*
D03*
Y98526D02*
D03*
Y100495D02*
D03*
Y102463D02*
D03*
Y104431D02*
D03*
Y106400D02*
D03*
Y108369D02*
D03*
Y110337D02*
D03*
Y112305D02*
D03*
Y114274D02*
D03*
Y116243D02*
D03*
Y118211D02*
D03*
Y120179D02*
D03*
Y122148D02*
D03*
Y124117D02*
D03*
Y126085D02*
D03*
Y128053D02*
D03*
Y130022D02*
D03*
D207*
X140209Y75494D02*
D03*
X142178D02*
D03*
X144147D02*
D03*
X146115D02*
D03*
X148083D02*
D03*
X150052D02*
D03*
X152021D02*
D03*
X153989D02*
D03*
X155957D02*
D03*
X157926D02*
D03*
X159895D02*
D03*
X161863D02*
D03*
X163831D02*
D03*
X165800D02*
D03*
X167769D02*
D03*
X169737D02*
D03*
X171705D02*
D03*
X173674D02*
D03*
X175643D02*
D03*
X177611D02*
D03*
X179579D02*
D03*
X181548D02*
D03*
X183517D02*
D03*
X185485D02*
D03*
X187453D02*
D03*
Y137305D02*
D03*
X185485D02*
D03*
X183517D02*
D03*
X181548D02*
D03*
X179579D02*
D03*
X177611D02*
D03*
X175643D02*
D03*
X173674D02*
D03*
X171705D02*
D03*
X169737D02*
D03*
X167769D02*
D03*
X165800D02*
D03*
X163831D02*
D03*
X161863D02*
D03*
X159895D02*
D03*
X157926D02*
D03*
X155957D02*
D03*
X153989D02*
D03*
X152021D02*
D03*
X150052D02*
D03*
X148083D02*
D03*
X146115D02*
D03*
X144147D02*
D03*
X142178D02*
D03*
X140209D02*
D03*
D208*
X104931Y18105D02*
D03*
X121664D02*
D03*
D209*
X150200Y5800D02*
D03*
X158074D02*
D03*
D210*
X52021Y118900D02*
D03*
X65800D02*
D03*
D211*
X92948Y183100D02*
D03*
X77200D02*
D03*
D212*
X161385Y22100D02*
D03*
X141700D02*
D03*
D213*
X76700Y-4500D02*
D03*
Y7500D02*
D03*
X91100Y-4300D02*
D03*
Y7700D02*
D03*
D214*
X370200Y81410D02*
D03*
X369431Y147700D02*
D03*
D215*
X377287Y86528D02*
D03*
X377287Y76292D02*
D03*
X376518Y152818D02*
D03*
X376518Y142582D02*
D03*
D216*
X312784Y-9084D02*
D03*
D217*
X317902Y-16171D02*
D03*
X307666Y-16171D02*
D03*
D218*
X146531Y176700D02*
D03*
X249131Y-14700D02*
D03*
D219*
X156532Y176700D02*
D03*
X166532D02*
D03*
X176532D02*
D03*
X239131Y-14700D02*
D03*
X229132D02*
D03*
X219131D02*
D03*
X83500Y160400D02*
D03*
D220*
X18900Y108000D02*
D03*
Y98000D02*
D03*
Y88000D02*
D03*
Y78000D02*
D03*
Y68000D02*
D03*
Y58000D02*
D03*
Y48000D02*
D03*
Y38000D02*
D03*
Y28000D02*
D03*
X34931Y138300D02*
D03*
Y168300D02*
D03*
D221*
X18900Y18000D02*
D03*
D222*
X376144Y184536D02*
D03*
Y164064D02*
D03*
D223*
X193776Y191300D02*
D03*
X209524D02*
D03*
D224*
X212772Y201733D02*
D03*
X190527D02*
D03*
D225*
X2774Y202457D02*
D03*
X376790D02*
D03*
Y-14078D02*
D03*
X2774D02*
D03*
D226*
X42400Y1406D02*
D03*
D227*
X52400Y1800D02*
D03*
D228*
X263531Y17000D02*
D03*
M02*
