*
*
G04 PADS VX.2.3 Build Number: 9191294 generated Gerber (RS-274-X) file*
G04 PC Version=2.1*
*
%IN "Car_Vide2o.pcb"*%
*
%MOIN*%
*
%FSLAX35Y35*%
*
*
*
*
G04 PC Standard Apertures*
*
*
G04 Thermal Relief Aperture macro.*
%AMTER*
1,1,$1,0,0*
1,0,$1-$2,0,0*
21,0,$3,$4,0,0,45*
21,0,$3,$4,0,0,135*
%
*
*
G04 Annular Aperture macro.*
%AMANN*
1,1,$1,0,0*
1,0,$2,0,0*
%
*
*
G04 Odd Aperture macro.*
%AMODD*
1,1,$1,0,0*
1,0,$1-0.005,0,0*
%
*
*
G04 PC Custom Aperture Macros*
*
*
*
*
*
*
G04 PC Aperture Table*
*
%ADD010C,0.001*%
%ADD054C,0.01*%
*
*
*
*
G04 PC Circuitry*
G04 Layer Name Car_Vide2o.pcb - circuitry*
%LPD*%
*
*
G04 PC Custom Flashes*
G04 Layer Name Car_Vide2o.pcb - flashes*
%LPD*%
*
*
G04 PC Circuitry*
G04 Layer Name Car_Vide2o.pcb - circuitry*
%LPD*%
*
G54D10*
G54D54*
G01X228441Y241559D02*
X236441D01*
Y249559*
X228441*
Y241559*
X232441Y245559D02*
Y249559D01*
X228441Y231559D02*
X236441D01*
Y239559*
X228441*
Y231559*
X232441Y235559D02*
Y239559D01*
X228441Y221559D02*
X236441D01*
Y229559*
X228441*
Y221559*
X232441Y225559D02*
Y229559D01*
X228441Y211559D02*
X236441D01*
Y219559*
X228441*
Y211559*
X232441Y215559D02*
Y219559D01*
X228441Y201559D02*
X236441D01*
Y209559*
X228441*
Y201559*
X232441Y205559D02*
Y209559D01*
X228441Y191559D02*
X236441D01*
Y199559*
X228441*
Y191559*
X232441Y195559D02*
Y199559D01*
X472260Y275543D02*
X480260D01*
X476260Y271543D02*
Y279543D01*
X479964Y280043D02*
X479851Y280356D01*
X479623Y280668*
X479396Y280825*
X478942*
X478714Y280668*
X478487Y280356*
X478373Y280043*
X478260Y279575*
Y278793*
X478373Y278325*
X478487Y278012*
X478714Y277700*
X478942Y277543*
X479396*
X479623Y277700*
X479851Y278012*
X479964Y278325*
X472260Y291843D02*
X480260D01*
X476260Y287843D02*
Y295843D01*
X479964Y296343D02*
X479851Y296655D01*
X479623Y296968*
X479396Y297124*
X478942*
X478714Y296968*
X478487Y296655*
X478373Y296343*
X478260Y295874*
Y295093*
X478373Y294624*
X478487Y294311*
X478714Y293999*
X478942Y293843*
X479396*
X479623Y293999*
X479851Y294311*
X479964Y294624*
X501157Y283693D02*
X509157D01*
X505157Y279693D02*
Y287693D01*
X507157Y288974D02*
Y285693D01*
Y288974D02*
X507953D01*
X508294Y288818*
X508521Y288505*
X508635Y288193*
X508748Y287724*
Y286943*
X508635Y286474*
X508521Y286162*
X508294Y285849*
X507953Y285693*
X507157*
X419850Y107088D02*
X427850D01*
Y115088*
X419850*
Y107088*
X423850Y111088D02*
Y115088D01*
X409850Y107088D02*
X417850D01*
Y115088*
X409850*
Y107088*
X413850Y111088D02*
Y115088D01*
X399850Y107088D02*
X407850D01*
Y115088*
X399850*
Y107088*
X403850Y111088D02*
Y115088D01*
X389850Y107088D02*
X397850D01*
Y115088*
X389850*
Y107088*
X393850Y111088D02*
Y115088D01*
X115748Y316472D02*
X119748Y320472D01*
X115748Y324472*
X111748Y320472*
X115748Y316472*
Y320472D02*
Y324472D01*
X513323Y320472D02*
X521323D01*
X517323Y316472D02*
Y324472D01*
X519323Y325754D02*
Y322472D01*
Y325754D02*
X520800D01*
X519323Y324191D02*
X520232D01*
X519323Y322472D02*
X520800D01*
X115748Y111748D02*
X119748Y115748D01*
X115748Y119748*
X111748Y115748*
X115748Y111748*
Y115748D02*
Y119748D01*
X517323Y111748D02*
X521323Y115748D01*
X517323Y119748*
X513323Y115748*
X517323Y111748*
Y115748D02*
Y119748D01*
X456244Y123487D02*
X464244Y131487D01*
Y123487*
X456244Y131487*
Y123487*
Y111676D02*
X464244D01*
X456244Y119676*
X464244*
X456244Y111676*
X501307Y160652D02*
X509307Y168652D01*
Y160652*
X501307Y168652*
Y160652*
X513118D02*
X521118D01*
X513118Y168652*
X521118*
X513118Y160652*
X501314Y220857D02*
X509314Y228857D01*
Y220857*
X501314Y228857*
Y220857*
X513125D02*
X521125D01*
X513125Y228857*
X521125*
X513125Y220857*
X128200Y111976D02*
X136200D01*
X132200Y107976D02*
Y115976D01*
X148200Y111976D02*
X156200D01*
X152200Y107976D02*
Y115976D01*
X138200Y111976D02*
X146200D01*
X142200Y107976D02*
Y115976D01*
X164244Y111886D02*
X172244D01*
X168244Y107886D02*
Y115886D01*
X259262Y108756D02*
X267262D01*
X263262Y104756D02*
Y112756D01*
X262795Y106315D02*
X270795D01*
X266795Y102315D02*
Y110315D01*
X268601Y106375D02*
X276601D01*
X272601Y102375D02*
Y110375D01*
X308529Y111886D02*
X316529D01*
X312529Y107886D02*
Y115886D01*
X328570Y105319D02*
X336570Y113319D01*
X328570D02*
X336570Y105319D01*
X331459Y103912D02*
X339459D01*
X335459Y99912D02*
Y107912D01*
X348200Y111976D02*
X356200D01*
X352200Y107976D02*
Y115976D01*
X338200Y111976D02*
X346200D01*
X342200Y107976D02*
Y115976D01*
X368200Y111976D02*
X376200D01*
X372200Y107976D02*
Y115976D01*
X378200Y111976D02*
X386200D01*
X382200Y107976D02*
Y115976D01*
X428200Y111976D02*
X436200D01*
X432200Y107976D02*
Y115976D01*
X448200Y111976D02*
X456200D01*
X452200Y107976D02*
Y115976D01*
X488200Y111976D02*
X496200D01*
X492200Y107976D02*
Y115976D01*
X498200Y111976D02*
X506200D01*
X502200Y107976D02*
Y115976D01*
X98200Y121976D02*
X106200D01*
X102200Y117976D02*
Y125976D01*
X98200Y131976D02*
X106200D01*
X102200Y127976D02*
Y135976D01*
X128200Y121976D02*
X136200D01*
X132200Y117976D02*
Y125976D01*
X148200Y121976D02*
X156200D01*
X152200Y117976D02*
Y125976D01*
X138200Y121976D02*
X146200D01*
X142200Y117976D02*
Y125976D01*
X156228Y117560D02*
X164228D01*
X160228Y113560D02*
Y121560D01*
X158202Y115936D02*
X166202D01*
X162202Y111936D02*
Y119936D01*
X160147Y113711D02*
X168147D01*
X164147Y109711D02*
Y117711D01*
X168200Y121976D02*
X176200D01*
X172200Y117976D02*
Y125976D01*
X188200Y121976D02*
X196200D01*
X192200Y117976D02*
Y125976D01*
X178200Y121976D02*
X186200D01*
X182200Y117976D02*
Y125976D01*
X208200Y121976D02*
X216200D01*
X212200Y117976D02*
Y125976D01*
X198200Y121976D02*
X206200D01*
X202200Y117976D02*
Y125976D01*
X228200Y121976D02*
X236200D01*
X232200Y117976D02*
Y125976D01*
X218200Y121976D02*
X226200D01*
X222200Y117976D02*
Y125976D01*
X238200Y121976D02*
X246200D01*
X242200Y117976D02*
Y125976D01*
X249370Y118089D02*
X257370D01*
X253370Y114089D02*
Y122089D01*
X252403Y116087D02*
X260403D01*
X256403Y112087D02*
Y120087D01*
X265232Y117694D02*
X273232D01*
X269232Y113694D02*
Y121694D01*
X292718Y117344D02*
X300718D01*
X296718Y113344D02*
Y121344D01*
X279033Y117604D02*
X287033D01*
X283033Y113604D02*
Y121604D01*
X312466Y113724D02*
X320466D01*
X316466Y109724D02*
Y117724D01*
X308200Y131976D02*
X316200D01*
X312200Y127976D02*
Y135976D01*
X310432Y117487D02*
X318432D01*
X314432Y113487D02*
Y121487D01*
X306622Y117630D02*
X314622D01*
X310622Y113630D02*
Y121630D01*
X320306Y117854D02*
X328306D01*
X324306Y113854D02*
Y121854D01*
X316388Y115690D02*
X324388D01*
X320388Y111690D02*
Y119690D01*
X332584Y131251D02*
X340584D01*
X336584Y127251D02*
Y135251D01*
X332803Y116052D02*
X340803D01*
X336803Y112052D02*
Y120052D01*
X324705Y115962D02*
X332705D01*
X328705Y111962D02*
Y119962D01*
X318479Y113344D02*
X326479D01*
X322479Y109344D02*
Y117344D01*
X314430Y117534D02*
X322430D01*
X318430Y113534D02*
Y121534D01*
X335084Y131290D02*
X343084D01*
X339084Y127290D02*
Y135290D01*
X348200Y131976D02*
X356200D01*
X352200Y127976D02*
Y135976D01*
X345885Y116828D02*
X353885D01*
X349885Y112828D02*
Y120828D01*
X341972Y117011D02*
X349972D01*
X345972Y113011D02*
Y121011D01*
X338029Y117223D02*
X346029D01*
X342029Y113223D02*
Y121223D01*
X368200Y131976D02*
X376200D01*
X372200Y127976D02*
Y135976D01*
X368200Y121976D02*
X376200D01*
X372200Y117976D02*
Y125976D01*
X358200Y131976D02*
X366200D01*
X362200Y127976D02*
Y135976D01*
X358200Y121976D02*
X366200D01*
X362200Y117976D02*
Y125976D01*
X378200Y121976D02*
X386200D01*
X382200Y117976D02*
Y125976D01*
X408200Y131976D02*
X416200D01*
X412200Y127976D02*
Y135976D01*
X428200Y131976D02*
X436200D01*
X432200Y127976D02*
Y135976D01*
X428200Y121976D02*
X436200D01*
X432200Y117976D02*
Y125976D01*
X418200Y131976D02*
X426200D01*
X422200Y127976D02*
Y135976D01*
X418200Y121976D02*
X426200D01*
X422200Y117976D02*
Y125976D01*
X448200Y131976D02*
X456200D01*
X452200Y127976D02*
Y135976D01*
X448200Y121976D02*
X456200D01*
X452200Y117976D02*
Y125976D01*
X438200Y131976D02*
X446200D01*
X442200Y127976D02*
Y135976D01*
X468200Y131976D02*
X476200D01*
X472200Y127976D02*
Y135976D01*
X458200Y131976D02*
X466200D01*
X462200Y127976D02*
Y135976D01*
X458200Y121976D02*
X466200D01*
X462200Y117976D02*
Y125976D01*
X488200Y131976D02*
X496200D01*
X492200Y127976D02*
Y135976D01*
X488200Y121976D02*
X496200D01*
X492200Y117976D02*
Y125976D01*
X478200Y131976D02*
X486200D01*
X482200Y127976D02*
Y135976D01*
X508200Y131976D02*
X516200D01*
X512200Y127976D02*
Y135976D01*
X498200Y131976D02*
X506200D01*
X502200Y127976D02*
Y135976D01*
X498200Y121976D02*
X506200D01*
X502200Y117976D02*
Y125976D01*
X518200Y131976D02*
X526200D01*
X522200Y127976D02*
Y135976D01*
X138200Y151976D02*
X146200D01*
X142200Y147976D02*
Y155976D01*
X154274Y150992D02*
X162274D01*
X158274Y146992D02*
Y154992D01*
X308200Y141976D02*
X316200D01*
X312200Y137976D02*
Y145976D01*
X311231Y146762D02*
X319231D01*
X315231Y142762D02*
Y150762D01*
X318140Y152044D02*
X317231Y148762D01*
X318140Y152044D02*
X319049Y148762D01*
X317572Y149856D02*
X318708D01*
X326530Y136707D02*
X334530D01*
X330530Y132707D02*
Y140707D01*
X318200Y141976D02*
X326200D01*
X322200Y137976D02*
Y145976D01*
X316373Y151066D02*
X324373D01*
X320373Y147066D02*
Y155066D01*
X338200Y151976D02*
X346200D01*
X342200Y147976D02*
Y155976D01*
X352269Y149686D02*
X360269D01*
X356269Y145686D02*
Y153686D01*
X358200Y141976D02*
X366200D01*
X362200Y137976D02*
Y145976D01*
X374698Y149832D02*
X382698D01*
X378698Y145832D02*
Y153832D01*
X413235Y139971D02*
X421235D01*
X417235Y135971D02*
Y143971D01*
X419235Y145252D02*
Y141971D01*
Y145252D02*
X420258D01*
X420599Y145096*
X420712Y144940*
X420826Y144627*
Y144315*
X420712Y144002*
X420599Y143846*
X420258Y143690*
X419235D02*
X420258D01*
X420599Y143534*
X420712Y143377*
X420826Y143065*
Y142596*
X420712Y142284*
X420599Y142127*
X420258Y141971*
X419235*
X402214Y146774D02*
X410214D01*
X406214Y142774D02*
Y150774D01*
X409123Y152056D02*
X408214Y148774D01*
X409123Y152056D02*
X410032Y148774D01*
X408555Y149868D02*
X409691D01*
X414066Y151545D02*
X422066D01*
X418066Y147545D02*
Y155545D01*
X420066Y156826D02*
Y153545D01*
Y156826D02*
X421088D01*
X421429Y156670*
X421543Y156514*
X421657Y156201*
Y155889*
X421543Y155576*
X421429Y155420*
X421088Y155264*
X420066D02*
X421088D01*
X421429Y155108*
X421543Y154951*
X421657Y154639*
Y154170*
X421543Y153858*
X421429Y153701*
X421088Y153545*
X420066*
X426902Y139924D02*
X434902D01*
X430902Y135924D02*
Y143924D01*
X432902Y145205D02*
Y141924D01*
Y145205D02*
X433924D01*
X434265Y145049*
X434379Y144893*
X434492Y144580*
Y144268*
X434379Y143955*
X434265Y143799*
X433924Y143643*
X432902D02*
X433924D01*
X434265Y143486*
X434379Y143330*
X434492Y143018*
Y142549*
X434379Y142236*
X434265Y142080*
X433924Y141924*
X432902*
X426759Y151066D02*
X434759D01*
X430759Y147066D02*
Y155066D01*
X432759Y156347D02*
Y153066D01*
Y156347D02*
X433781D01*
X434122Y156191*
X434236Y156034*
X434349Y155722*
Y155409*
X434236Y155097*
X434122Y154941*
X433781Y154784*
X432759D02*
X433781D01*
X434122Y154628*
X434236Y154472*
X434349Y154159*
Y153691*
X434236Y153378*
X434122Y153222*
X433781Y153066*
X432759*
X437017Y139808D02*
X445017D01*
X441017Y135808D02*
Y143808D01*
X443017Y145089D02*
Y141808D01*
Y145089D02*
X444040D01*
X444380Y144933*
X444494Y144777*
X444608Y144464*
Y144152*
X444494Y143839*
X444380Y143683*
X444040Y143527*
X443017D02*
X444040D01*
X444380Y143370*
X444494Y143214*
X444608Y142902*
Y142433*
X444494Y142120*
X444380Y141964*
X444040Y141808*
X443017*
X436780Y151564D02*
X444780D01*
X440780Y147564D02*
Y155564D01*
X442780Y156846D02*
Y153564D01*
Y156846D02*
X443802D01*
X444143Y156689*
X444257Y156533*
X444370Y156221*
Y155908*
X444257Y155596*
X444143Y155439*
X443802Y155283*
X442780D02*
X443802D01*
X444143Y155127*
X444257Y154971*
X444370Y154658*
Y154189*
X444257Y153877*
X444143Y153721*
X443802Y153564*
X442780*
X468200Y151976D02*
X476200D01*
X472200Y147976D02*
Y155976D01*
X468200Y141976D02*
X476200D01*
X472200Y137976D02*
Y145976D01*
X488200Y151976D02*
X496200D01*
X492200Y147976D02*
Y155976D01*
X488200Y141976D02*
X496200D01*
X492200Y137976D02*
Y145976D01*
X478200Y151976D02*
X486200D01*
X482200Y147976D02*
Y155976D01*
X478200Y141976D02*
X486200D01*
X482200Y137976D02*
Y145976D01*
X508200Y141976D02*
X516200D01*
X512200Y137976D02*
Y145976D01*
X498200Y151976D02*
X506200D01*
X502200Y147976D02*
Y155976D01*
X498200Y141976D02*
X506200D01*
X502200Y137976D02*
Y145976D01*
X518200Y141976D02*
X526200D01*
X522200Y137976D02*
Y145976D01*
X150318Y153197D02*
X158318D01*
X154318Y149197D02*
Y157197D01*
X148348Y155206D02*
X156348D01*
X152348Y151206D02*
Y159206D01*
X138200Y171976D02*
X146200D01*
X142200Y167976D02*
Y175976D01*
X172680Y169534D02*
X180680D01*
X176680Y165534D02*
Y173534D01*
X208200Y171976D02*
X216200D01*
X212200Y167976D02*
Y175976D01*
X208114Y163524D02*
X216114D01*
X212114Y159524D02*
Y167524D01*
X198200Y171976D02*
X206200D01*
X202200Y167976D02*
Y175976D01*
X228200Y171976D02*
X236200D01*
X232200Y167976D02*
Y175976D01*
X228213Y163060D02*
X236213D01*
X232213Y159060D02*
Y167060D01*
X218200Y171976D02*
X226200D01*
X222200Y167976D02*
Y175976D01*
X218071Y163339D02*
X226071D01*
X222071Y159339D02*
Y167339D01*
X249058Y163362D02*
X257058D01*
X253058Y159362D02*
Y167362D01*
X238200Y171976D02*
X246200D01*
X242200Y167976D02*
Y175976D01*
X237984Y163432D02*
X245984D01*
X241984Y159432D02*
Y167432D01*
X271092Y166461D02*
X279092D01*
X275092Y162461D02*
Y170461D01*
X268200Y171976D02*
X276200D01*
X272200Y167976D02*
Y175976D01*
X288871Y165531D02*
X296871D01*
X292871Y161531D02*
Y169531D01*
X295781Y170812D02*
X294871Y167531D01*
X295781Y170812D02*
X296690Y167531D01*
X295212Y168625D02*
X296349D01*
X282442Y165561D02*
X290442D01*
X286442Y161561D02*
Y169561D01*
X289351Y170843D02*
X288442Y167561D01*
X289351Y170843D02*
X290260Y167561D01*
X288782Y168655D02*
X289919D01*
X301459Y168176D02*
X309459D01*
X305459Y164176D02*
Y172176D01*
X307459Y173457D02*
Y170176D01*
Y173457D02*
X308482D01*
X308823Y173301*
X308937Y173145*
X309050Y172832*
Y172520*
X308937Y172207*
X308823Y172051*
X308482Y171895*
X307459D02*
X308482D01*
X308823Y171738*
X308937Y171582*
X309050Y171270*
Y170801*
X308937Y170488*
X308823Y170332*
X308482Y170176*
X307459*
X295222Y165997D02*
X303222D01*
X299222Y161997D02*
Y169997D01*
X304392Y158420D02*
X312392D01*
X308392Y154420D02*
Y162420D01*
X310392Y163701D02*
Y160420D01*
Y163701D02*
X311415D01*
X311756Y163545*
X311870Y163389*
X311983Y163076*
Y162764*
X311870Y162451*
X311756Y162295*
X311415Y162139*
X310392D02*
X311415D01*
X311756Y161982*
X311870Y161826*
X311983Y161514*
Y161045*
X311870Y160732*
X311756Y160576*
X311415Y160420*
X310392*
X325240Y168552D02*
X333240D01*
X329240Y164552D02*
Y172552D01*
X316189Y161955D02*
X324189D01*
X320189Y157955D02*
Y165955D01*
X319029Y162297D02*
X327029D01*
X323029Y158297D02*
Y166297D01*
X325065Y172553D02*
X333065D01*
X329065Y168553D02*
Y176553D01*
X316021Y171697D02*
X324021D01*
X320021Y167697D02*
Y175697D01*
X322930Y176978D02*
X322021Y173697D01*
X322930Y176978D02*
X323839Y173697D01*
X322362Y174791D02*
X323498D01*
X329585Y160413D02*
X337585D01*
X333585Y156413D02*
Y164413D01*
X340105Y168185D02*
X348105D01*
X344105Y164185D02*
Y172185D01*
X346310Y158869D02*
X354310D01*
X350310Y154869D02*
Y162869D01*
X334404Y168388D02*
X342404D01*
X338404Y164388D02*
Y172388D01*
X409857Y170260D02*
X417857D01*
X413857Y166260D02*
Y174260D01*
X425866Y171037D02*
X433866D01*
X429866Y167037D02*
Y175037D01*
X461341Y160159D02*
X469341D01*
X465341Y156159D02*
Y164159D01*
X468250Y165440D02*
X467341Y162159D01*
X468250Y165440D02*
X469159Y162159D01*
X467682Y163253D02*
X468818D01*
X468200Y171976D02*
X476200D01*
X472200Y167976D02*
Y175976D01*
X471211Y157364D02*
X479211D01*
X475211Y153364D02*
Y161364D01*
X455671Y165193D02*
X463671D01*
X459671Y161193D02*
Y169193D01*
X508200Y171976D02*
X516200D01*
X512200Y167976D02*
Y175976D01*
X508200Y161976D02*
X516200D01*
X512200Y157976D02*
Y165976D01*
X498200Y171976D02*
X506200D01*
X502200Y167976D02*
Y175976D01*
X518200Y171976D02*
X526200D01*
X522200Y167976D02*
Y175976D01*
X518200Y161976D02*
X526200D01*
X522200Y157976D02*
Y165976D01*
X150325Y180775D02*
X158325D01*
X154325Y176775D02*
Y184775D01*
X148358Y183054D02*
X156358D01*
X152358Y179054D02*
Y187054D01*
X138200Y191976D02*
X146200D01*
X142200Y187976D02*
Y195976D01*
X138200Y181976D02*
X146200D01*
X142200Y177976D02*
Y185976D01*
X144999Y190697D02*
X152999D01*
X148999Y186697D02*
Y194697D01*
X154262Y182985D02*
X162262D01*
X158262Y178985D02*
Y186985D01*
X156230Y180649D02*
X164230D01*
X160230Y176649D02*
Y184649D01*
X158199Y182902D02*
X166199D01*
X162199Y178902D02*
Y186902D01*
X160167Y180588D02*
X168167D01*
X164167Y176588D02*
Y184588D01*
X164244Y179630D02*
X172244D01*
X168244Y175630D02*
Y183630D01*
X167381Y181334D02*
X175381D01*
X171381Y177334D02*
Y185334D01*
X192072Y182587D02*
X200072D01*
X196072Y178587D02*
Y186587D01*
X188472Y183045D02*
X196472D01*
X192472Y179045D02*
Y187045D01*
X184678Y183219D02*
X192678D01*
X188678Y179219D02*
Y187219D01*
X180470Y182596D02*
X188470D01*
X184470Y178596D02*
Y186596D01*
X176545Y182592D02*
X184545D01*
X180545Y178592D02*
Y186592D01*
X188492Y173476D02*
X196492D01*
X192492Y169476D02*
Y177476D01*
X174006Y185545D02*
X182006D01*
X178006Y181545D02*
Y189545D01*
X195674Y182709D02*
X203674D01*
X199674Y178709D02*
Y186709D01*
X208200Y191976D02*
X216200D01*
X212200Y187976D02*
Y195976D01*
X208200Y181976D02*
X216200D01*
X212200Y177976D02*
Y185976D01*
X199361Y191163D02*
X207361D01*
X203361Y187163D02*
Y195163D01*
X195854Y185526D02*
X203854D01*
X199854Y181526D02*
Y189526D01*
X249058Y187289D02*
X257058D01*
X253058Y183289D02*
Y191289D01*
X238200Y191976D02*
X246200D01*
X242200Y187976D02*
Y195976D01*
X257688Y177719D02*
X265688D01*
X261688Y173719D02*
Y181719D01*
X255209Y180213D02*
X263209D01*
X259209Y176213D02*
Y184213D01*
X258155Y175074D02*
X266155D01*
X262155Y171074D02*
Y179074D01*
X268200Y191976D02*
X276200D01*
X272200Y187976D02*
Y195976D01*
X258200Y191976D02*
X266200D01*
X262200Y187976D02*
Y195976D01*
X278200Y181976D02*
X286200D01*
X282200Y177976D02*
Y185976D01*
X308950Y184382D02*
X316950D01*
X312950Y180382D02*
Y188382D01*
X296761Y188133D02*
X304761D01*
X300761Y184133D02*
Y192133D01*
X302761Y193414D02*
Y190133D01*
Y193414D02*
X303784D01*
X304125Y193258*
X304238Y193102*
X304352Y192789*
Y192477*
X304238Y192164*
X304125Y192008*
X303784Y191852*
X302761D02*
X303784D01*
X304125Y191695*
X304238Y191539*
X304352Y191227*
Y190758*
X304238Y190445*
X304125Y190289*
X303784Y190133*
X302761*
X303594Y176799D02*
X311594D01*
X307594Y172799D02*
Y180799D01*
X309594Y182080D02*
Y178799D01*
Y182080D02*
X310617D01*
X310958Y181924*
X311072Y181768*
X311185Y181455*
Y181143*
X311072Y180830*
X310958Y180674*
X310617Y180518*
X309594D02*
X310617D01*
X310958Y180362*
X311072Y180205*
X311185Y179893*
Y179424*
X311072Y179112*
X310958Y178955*
X310617Y178799*
X309594*
X327939Y179117D02*
X335939D01*
X331939Y175117D02*
Y183117D01*
X329717Y182803D02*
X337717D01*
X333717Y178803D02*
Y186803D01*
X313888Y179579D02*
X321888Y187579D01*
X313888D02*
X321888Y179579D01*
X346411Y183286D02*
X354411D01*
X350411Y179286D02*
Y187286D01*
X346411Y173109D02*
X354411D01*
X350411Y169109D02*
Y177109D01*
X347861Y188501D02*
X355861D01*
X351861Y184501D02*
Y192501D01*
X357091Y176386D02*
X365091D01*
X361091Y172386D02*
Y180386D01*
X387734Y191472D02*
X395734D01*
X391734Y187472D02*
Y195472D01*
X393734Y196753D02*
Y193472D01*
Y196753D02*
X394757D01*
X395098Y196597*
X395211Y196440*
X395325Y196128*
Y195815*
X395211Y195503*
X395098Y195347*
X394757Y195190*
X393734D02*
X394757D01*
X395098Y195034*
X395211Y194878*
X395325Y194565*
Y194097*
X395211Y193784*
X395098Y193628*
X394757Y193472*
X393734*
X391546Y173461D02*
X399546D01*
X395546Y169461D02*
Y177461D01*
X398455Y178743D02*
X397546Y175461D01*
X398455Y178743D02*
X399364Y175461D01*
X397887Y176555D02*
X399023D01*
X402842Y187206D02*
X410842D01*
X406842Y183206D02*
Y191206D01*
X400402Y173461D02*
X408402D01*
X404402Y169461D02*
Y177461D01*
X407311Y178743D02*
X406402Y175461D01*
X407311Y178743D02*
X408220Y175461D01*
X406743Y176555D02*
X407879D01*
X408200Y191976D02*
X416200D01*
X412200Y187976D02*
Y195976D01*
X398200Y191976D02*
X406200D01*
X402200Y187976D02*
Y195976D01*
X427060Y191966D02*
X435060D01*
X431060Y187966D02*
Y195966D01*
X418200Y191976D02*
X426200D01*
X422200Y187976D02*
Y195976D01*
X426033Y175244D02*
X434033D01*
X430033Y171244D02*
Y179244D01*
X451222Y175281D02*
X459222D01*
X455222Y171281D02*
Y179281D01*
X438200Y191976D02*
X446200D01*
X442200Y187976D02*
Y195976D01*
X457289Y190252D02*
X465289D01*
X461289Y186252D02*
Y194252D01*
X468200Y191976D02*
X476200D01*
X472200Y187976D02*
Y195976D01*
X468200Y181976D02*
X476200D01*
X472200Y177976D02*
Y185976D01*
X488200Y191976D02*
X496200D01*
X492200Y187976D02*
Y195976D01*
X488200Y181976D02*
X496200D01*
X492200Y177976D02*
Y185976D01*
X478200Y191976D02*
X486200D01*
X482200Y187976D02*
Y195976D01*
X478200Y181976D02*
X486200D01*
X482200Y177976D02*
Y185976D01*
X485857Y180549D02*
X493857D01*
X489857Y176549D02*
Y184549D01*
X508200Y191976D02*
X516200D01*
X512200Y187976D02*
Y195976D01*
X498200Y191976D02*
X506200D01*
X502200Y187976D02*
Y195976D01*
X498200Y181976D02*
X506200D01*
X502200Y177976D02*
Y185976D01*
X518200Y191976D02*
X526200D01*
X522200Y187976D02*
Y195976D01*
X113736Y208879D02*
X121736D01*
X117736Y204879D02*
Y212879D01*
X115618Y212825D02*
X123618D01*
X119618Y208825D02*
Y216825D01*
X128703Y197092D02*
X136703D01*
X132703Y193092D02*
Y201092D01*
X130841Y199037D02*
X138841D01*
X134841Y195037D02*
Y203037D01*
X124411Y203147D02*
X132411D01*
X128411Y199147D02*
Y207147D01*
X131908Y210848D02*
X139908D01*
X135908Y206848D02*
Y214848D01*
X136522Y208879D02*
X144522D01*
X140522Y204879D02*
Y212879D01*
X134168Y212825D02*
X142168D01*
X138168Y208825D02*
Y216825D01*
X134902Y197089D02*
X142902D01*
X138902Y193089D02*
Y201089D01*
X136846Y199037D02*
X144846D01*
X140846Y195037D02*
Y203037D01*
X152222Y203434D02*
X160222D01*
X156222Y199434D02*
Y207434D01*
X150068Y210909D02*
X158068D01*
X154068Y206909D02*
Y214909D01*
X148130Y201005D02*
X156130D01*
X152130Y197005D02*
Y205005D01*
X152293Y197538D02*
X160293D01*
X156293Y193538D02*
Y201538D01*
X171253Y201976D02*
X179253D01*
X175253Y197976D02*
Y205976D01*
X158200Y211976D02*
X166200D01*
X162200Y207976D02*
Y215976D01*
X158200Y201976D02*
X166200D01*
X162200Y197976D02*
Y205976D01*
X166052Y198535D02*
X174052D01*
X170052Y194535D02*
Y202535D01*
X162136Y197265D02*
X170136D01*
X166136Y193265D02*
Y201265D01*
X179852Y198393D02*
X187852D01*
X183852Y194393D02*
Y202393D01*
X188200Y211976D02*
X196200D01*
X192200Y207976D02*
Y215976D01*
X188200Y201976D02*
X196200D01*
X192200Y197976D02*
Y205976D01*
X175063Y198776D02*
X183063D01*
X179063Y194776D02*
Y202776D01*
X192137Y205248D02*
X200137D01*
X196137Y201248D02*
Y209248D01*
X193671Y197068D02*
X201671D01*
X197671Y193068D02*
Y201068D01*
X207064Y208879D02*
X215064D01*
X211064Y204879D02*
Y212879D01*
X207307Y212816D02*
X215307D01*
X211307Y208816D02*
Y216816D01*
X207651Y196647D02*
X215651D01*
X211651Y192647D02*
Y200647D01*
X237301Y201160D02*
X245301D01*
X241301Y197160D02*
Y205160D01*
X260345Y210198D02*
X268345D01*
X264345Y206198D02*
Y214198D01*
X265161Y203750D02*
X273161D01*
X269161Y199750D02*
Y207750D01*
X258200Y201976D02*
X266200D01*
X262200Y197976D02*
Y205976D01*
X293659Y206469D02*
X301659D01*
X297659Y202469D02*
Y210469D01*
X321084Y205402D02*
X329084D01*
X325084Y201402D02*
Y209402D01*
X319570Y195335D02*
X327570D01*
X323570Y191335D02*
Y199335D01*
X318200Y201976D02*
X326200D01*
X322200Y197976D02*
Y205976D01*
X332622Y193470D02*
X340622D01*
X336622Y189470D02*
Y197470D01*
X348200Y211976D02*
X356200D01*
X352200Y207976D02*
Y215976D01*
X346635Y203549D02*
X354635D01*
X350635Y199549D02*
Y207549D01*
X387416Y200312D02*
X395416D01*
X391416Y196312D02*
Y204312D01*
X393416Y205594D02*
Y202312D01*
Y205594D02*
X394439D01*
X394780Y205437*
X394893Y205281*
X395007Y204969*
Y204656*
X394893Y204344*
X394780Y204187*
X394439Y204031*
X393416D02*
X394439D01*
X394780Y203875*
X394893Y203719*
X395007Y203406*
Y202937*
X394893Y202625*
X394780Y202469*
X394439Y202312*
X393416*
X387360Y208891D02*
X395360D01*
X391360Y204891D02*
Y212891D01*
X393360Y214172D02*
Y210891D01*
Y214172D02*
X394383D01*
X394724Y214016*
X394838Y213859*
X394951Y213547*
Y213234*
X394838Y212922*
X394724Y212766*
X394383Y212609*
X393360D02*
X394383D01*
X394724Y212453*
X394838Y212297*
X394951Y211984*
Y211516*
X394838Y211203*
X394724Y211047*
X394383Y210891*
X393360*
X407121Y210783D02*
X415121D01*
X411121Y206783D02*
Y214783D01*
X408200Y201976D02*
X416200D01*
X412200Y197976D02*
Y205976D01*
X398200Y211976D02*
X406200D01*
X402200Y207976D02*
Y215976D01*
X398200Y201976D02*
X406200D01*
X402200Y197976D02*
Y205976D01*
X428200Y211976D02*
X436200D01*
X432200Y207976D02*
Y215976D01*
X426697Y201928D02*
X434697D01*
X430697Y197928D02*
Y205928D01*
X418200Y201976D02*
X426200D01*
X422200Y197976D02*
Y205976D01*
X445747Y201563D02*
X453747D01*
X449747Y197563D02*
Y205563D01*
X438200Y201976D02*
X446200D01*
X442200Y197976D02*
Y205976D01*
X449647Y193587D02*
X457647D01*
X453647Y189587D02*
Y197587D01*
X450013Y201589D02*
X458013D01*
X454013Y197589D02*
Y205589D01*
X442824Y209602D02*
X450824D01*
X446824Y205602D02*
Y213602D01*
X434243Y212785D02*
X442243D01*
X438243Y208785D02*
Y216785D01*
X441152Y218066D02*
X440243Y214785D01*
X441152Y218066D02*
X442061Y214785D01*
X440584Y215879D02*
X441720D01*
X468200Y211976D02*
X476200D01*
X472200Y207976D02*
Y215976D01*
X468200Y201976D02*
X476200D01*
X472200Y197976D02*
Y205976D01*
X458200Y201976D02*
X466200D01*
X462200Y197976D02*
Y205976D01*
X488200Y211976D02*
X496200D01*
X492200Y207976D02*
Y215976D01*
X488200Y201976D02*
X496200D01*
X492200Y197976D02*
Y205976D01*
X478200Y211976D02*
X486200D01*
X482200Y207976D02*
Y215976D01*
X478200Y201976D02*
X486200D01*
X482200Y197976D02*
Y205976D01*
X508200Y201976D02*
X516200D01*
X512200Y197976D02*
Y205976D01*
X498200Y211976D02*
X506200D01*
X502200Y207976D02*
Y215976D01*
X498200Y201976D02*
X506200D01*
X502200Y197976D02*
Y205976D01*
X518200Y201976D02*
X526200D01*
X522200Y197976D02*
Y205976D01*
X99654Y230468D02*
X107654D01*
X103654Y226468D02*
Y234468D01*
X120667Y230558D02*
X128667D01*
X124667Y226558D02*
Y234558D01*
X117744Y214785D02*
X125744D01*
X121744Y210785D02*
Y218785D01*
X120047Y216799D02*
X128047D01*
X124047Y212799D02*
Y220799D01*
X122138Y218709D02*
X130138D01*
X126138Y214709D02*
Y222709D01*
X118200Y221976D02*
X126200D01*
X122200Y217976D02*
Y225976D01*
X115963Y225806D02*
X123963D01*
X119963Y221806D02*
Y229806D01*
X123928Y225333D02*
X131928D01*
X127928Y221333D02*
Y229333D01*
X136224Y214785D02*
X144224D01*
X140224Y210785D02*
Y218785D01*
X134094Y216776D02*
X142094D01*
X138094Y212776D02*
Y220776D01*
X136301Y218713D02*
X144301D01*
X140301Y214713D02*
Y222713D01*
X148200Y231976D02*
X156200D01*
X152200Y227976D02*
Y235976D01*
X149562Y226647D02*
X157562D01*
X153562Y222647D02*
Y230647D01*
X149097Y220690D02*
X157097D01*
X153097Y216690D02*
Y224690D01*
X136148Y226602D02*
X144148D01*
X140148Y222602D02*
Y230602D01*
X135664Y232556D02*
X143664D01*
X139664Y228556D02*
Y236556D01*
X166515Y215518D02*
X174515D01*
X170515Y211518D02*
Y219518D01*
X172515Y220799D02*
Y217518D01*
Y220799D02*
X173538D01*
X173879Y220643*
X173992Y220487*
X174106Y220174*
Y219862*
X173992Y219549*
X173879Y219393*
X173538Y219237*
X172515D02*
X173538D01*
X173879Y219081*
X173992Y218924*
X174106Y218612*
Y218143*
X173992Y217831*
X173879Y217674*
X173538Y217518*
X172515*
X166545Y226639D02*
X174545D01*
X170545Y222639D02*
Y230639D01*
X172545Y231920D02*
Y228639D01*
Y231920D02*
X173567D01*
X173908Y231764*
X174022Y231607*
X174135Y231295*
Y230982*
X174022Y230670*
X173908Y230514*
X173567Y230357*
X172545D02*
X173567D01*
X173908Y230201*
X174022Y230045*
X174135Y229732*
Y229264*
X174022Y228951*
X173908Y228795*
X173567Y228639*
X172545*
X171978Y220690D02*
X179978D01*
X175978Y216690D02*
Y224690D01*
X177978Y225972D02*
Y222690D01*
Y225972D02*
X179001D01*
X179342Y225815*
X179455Y225659*
X179569Y225347*
Y225034*
X179455Y224722*
X179342Y224565*
X179001Y224409*
X177978D02*
X179001D01*
X179342Y224253*
X179455Y224097*
X179569Y223784*
Y223315*
X179455Y223003*
X179342Y222847*
X179001Y222690*
X177978*
X158200Y231976D02*
X166200D01*
X162200Y227976D02*
Y235976D01*
X158200Y221976D02*
X166200D01*
X162200Y217976D02*
Y225976D01*
X176721Y215223D02*
X184721D01*
X180721Y211223D02*
Y219223D01*
X182721Y220504D02*
Y217223D01*
Y220504D02*
X183744D01*
X184085Y220348*
X184199Y220192*
X184312Y219879*
Y219567*
X184199Y219254*
X184085Y219098*
X183744Y218942*
X182721D02*
X183744D01*
X184085Y218786*
X184199Y218629*
X184312Y218317*
Y217848*
X184199Y217536*
X184085Y217379*
X183744Y217223*
X182721*
X175335Y226344D02*
X183335D01*
X179335Y222344D02*
Y230344D01*
X181335Y231625D02*
Y228344D01*
Y231625D02*
X182358D01*
X182699Y231469*
X182812Y231313*
X182926Y231000*
Y230688*
X182812Y230375*
X182699Y230219*
X182358Y230063*
X181335D02*
X182358D01*
X182699Y229906*
X182812Y229750*
X182926Y229438*
Y228969*
X182812Y228656*
X182699Y228500*
X182358Y228344*
X181335*
X188200Y231976D02*
X196200D01*
X192200Y227976D02*
Y235976D01*
X188200Y221976D02*
X196200D01*
X192200Y217976D02*
Y225976D01*
X206681Y224660D02*
X214681D01*
X210681Y220660D02*
Y228660D01*
X194786Y226596D02*
X202786D01*
X198786Y222596D02*
Y230596D01*
X209948Y230533D02*
X217948D01*
X213948Y226533D02*
Y234533D01*
X207337Y216753D02*
X215337D01*
X211337Y212753D02*
Y220753D01*
X211577Y216675D02*
X219577Y224675D01*
X211577D02*
X219577Y216675D01*
X251894Y222600D02*
X259894D01*
X255894Y218600D02*
Y226600D01*
X247017Y231155D02*
X255017D01*
X251017Y227155D02*
Y235155D01*
X272986Y215645D02*
X280986D01*
X276986Y211645D02*
Y219645D01*
X268940Y216096D02*
X276940D01*
X272940Y212096D02*
Y220096D01*
X263549Y215559D02*
X271549D01*
X267549Y211559D02*
Y219559D01*
X268200Y231976D02*
X276200D01*
X272200Y227976D02*
Y235976D01*
X288200Y231976D02*
X296200D01*
X292200Y227976D02*
Y235976D01*
X277522Y214668D02*
X285522D01*
X281522Y210668D02*
Y218668D01*
X297782Y224837D02*
X305782D01*
X301782Y220837D02*
Y228837D01*
X303148Y231151D02*
X311148D01*
X307148Y227151D02*
Y235151D01*
X309521Y229887D02*
X317521D01*
X313521Y225887D02*
Y233887D01*
X308200Y221976D02*
X316200D01*
X312200Y217976D02*
Y225976D01*
X328200Y231976D02*
X336200D01*
X332200Y227976D02*
Y235976D01*
X318200Y221976D02*
X326200D01*
X322200Y217976D02*
Y225976D01*
X348200Y231976D02*
X356200D01*
X352200Y227976D02*
Y235976D01*
X348200Y221976D02*
X356200D01*
X352200Y217976D02*
Y225976D01*
X387434Y217713D02*
X395434D01*
X391434Y213713D02*
Y221713D01*
X393434Y222994D02*
Y219713D01*
Y222994D02*
X394457D01*
X394798Y222838*
X394912Y222681*
X395025Y222369*
Y222056*
X394912Y221744*
X394798Y221588*
X394457Y221431*
X393434D02*
X394457D01*
X394798Y221275*
X394912Y221119*
X395025Y220806*
Y220338*
X394912Y220025*
X394798Y219869*
X394457Y219713*
X393434*
X392835Y231072D02*
X400835D01*
X396835Y227072D02*
Y235072D01*
X405579Y217881D02*
X413579D01*
X409579Y213881D02*
Y221881D01*
X412488Y223162D02*
X411579Y219881D01*
X412488Y223162D02*
X413397Y219881D01*
X411920Y220974D02*
X413056D01*
X407289Y230542D02*
X415289D01*
X411289Y226542D02*
Y234542D01*
X397289Y221888D02*
X405289D01*
X401289Y217888D02*
Y225888D01*
X410768Y222883D02*
X418768D01*
X414768Y218883D02*
Y226883D01*
X428200Y221976D02*
X436200D01*
X432200Y217976D02*
Y225976D01*
X426433Y218026D02*
X434433D01*
X430433Y214026D02*
Y222026D01*
X448200Y231976D02*
X456200D01*
X452200Y227976D02*
Y235976D01*
X438200Y231976D02*
X446200D01*
X442200Y227976D02*
Y235976D01*
X458538Y214177D02*
X466538D01*
X462538Y210177D02*
Y218177D01*
X458912Y226175D02*
X466912D01*
X462912Y222175D02*
Y230175D01*
X468200Y231976D02*
X476200D01*
X472200Y227976D02*
Y235976D01*
X508200Y231976D02*
X516200D01*
X512200Y227976D02*
Y235976D01*
X508200Y221976D02*
X516200D01*
X512200Y217976D02*
Y225976D01*
X498200Y231976D02*
X506200D01*
X502200Y227976D02*
Y235976D01*
X518200Y231976D02*
X526200D01*
X522200Y227976D02*
Y235976D01*
X518200Y221976D02*
X526200D01*
X522200Y217976D02*
Y225976D01*
X102177Y234473D02*
X110177D01*
X106177Y230473D02*
Y238473D01*
X104985Y236439D02*
X112985D01*
X108985Y232439D02*
Y240439D01*
X106990Y238407D02*
X114990D01*
X110990Y234407D02*
Y242407D01*
X109186Y240379D02*
X117186D01*
X113186Y236379D02*
Y244379D01*
X108200Y251976D02*
X116200D01*
X112200Y247976D02*
Y255976D01*
X98200Y251976D02*
X106200D01*
X102200Y247976D02*
Y255976D01*
X98200Y241976D02*
X106200D01*
X102200Y237976D02*
Y245976D01*
X115806Y234470D02*
X123806D01*
X119806Y230470D02*
Y238470D01*
X120841Y236439D02*
X128841D01*
X124841Y232439D02*
Y240439D01*
X115891Y238407D02*
X123891D01*
X119891Y234407D02*
Y242407D01*
X120979Y240379D02*
X128979D01*
X124979Y236379D02*
Y244379D01*
X128200Y251976D02*
X136200D01*
X132200Y247976D02*
Y255976D01*
X118200Y251976D02*
X126200D01*
X122200Y247976D02*
Y255976D01*
X148200Y241976D02*
X156200D01*
X152200Y237976D02*
Y245976D01*
X138200Y251976D02*
X146200D01*
X142200Y247976D02*
Y255976D01*
X168200Y241976D02*
X176200D01*
X172200Y237976D02*
Y245976D01*
X159744Y243356D02*
X167744D01*
X163744Y239356D02*
Y247356D01*
X156247Y243394D02*
X164247D01*
X160247Y239394D02*
Y247394D01*
X175915Y244357D02*
X183915D01*
X179915Y240357D02*
Y248357D01*
X188200Y241976D02*
X196200D01*
X192200Y237976D02*
Y245976D01*
X192329Y233390D02*
X200329D01*
X196329Y229390D02*
Y237390D01*
X193190Y243812D02*
X201190D01*
X197190Y239812D02*
Y247812D01*
X208200Y251976D02*
X216200D01*
X212200Y247976D02*
Y255976D01*
X203873Y246652D02*
X211873D01*
X207873Y242652D02*
Y250652D01*
X207356Y242344D02*
X215356D01*
X211356Y238344D02*
Y246344D01*
X248411Y243726D02*
X256411D01*
X252411Y239726D02*
Y247726D01*
X249008Y240592D02*
X257008D01*
X253008Y236592D02*
Y244592D01*
X247669Y237463D02*
X255669D01*
X251669Y233463D02*
Y241463D01*
X261318Y237450D02*
X269318D01*
X265318Y233450D02*
Y241450D01*
X288200Y251976D02*
X296200D01*
X292200Y247976D02*
Y255976D01*
X288200Y241976D02*
X296200D01*
X292200Y237976D02*
Y245976D01*
X290545Y243757D02*
X298545D01*
X294545Y239757D02*
Y247757D01*
X304613Y234287D02*
X312613D01*
X308613Y230287D02*
Y238287D01*
X303798Y240635D02*
X311798D01*
X307798Y236635D02*
Y244635D01*
X306488Y237450D02*
X314488D01*
X310488Y233450D02*
Y241450D01*
X304396Y246899D02*
X312396D01*
X308396Y242899D02*
Y250899D01*
X330602Y240573D02*
X338602D01*
X334602Y236573D02*
Y244573D01*
X327480Y251406D02*
X335480D01*
X331480Y247406D02*
Y255406D01*
X318200Y251976D02*
X326200D01*
X322200Y247976D02*
Y255976D01*
X348200Y241976D02*
X356200D01*
X352200Y237976D02*
Y245976D01*
X378054Y246713D02*
X386054D01*
X382054Y242713D02*
Y250713D01*
X384054Y251994D02*
Y248713D01*
Y251994D02*
X385077D01*
X385417Y251838*
X385531Y251681*
X385645Y251369*
Y251056*
X385531Y250744*
X385417Y250588*
X385077Y250431*
X384054D02*
X385077D01*
X385417Y250275*
X385531Y250119*
X385645Y249806*
Y249338*
X385531Y249025*
X385417Y248869*
X385077Y248713*
X384054*
X377915Y252797D02*
X385915D01*
X381915Y248797D02*
Y256797D01*
X383915Y258078D02*
Y254797D01*
Y258078D02*
X384937D01*
X385278Y257922*
X385392Y257765*
X385506Y257453*
Y257140*
X385392Y256828*
X385278Y256672*
X384937Y256515*
X383915D02*
X384937D01*
X385278Y256359*
X385392Y256203*
X385506Y255890*
Y255422*
X385392Y255109*
X385278Y254953*
X384937Y254797*
X383915*
X388200Y251976D02*
X396200D01*
X392200Y247976D02*
Y255976D01*
X408200Y241976D02*
X416200D01*
X412200Y237976D02*
Y245976D01*
X398200Y241976D02*
X406200D01*
X402200Y237976D02*
Y245976D01*
X421985Y252607D02*
X429985D01*
X425985Y248607D02*
Y256607D01*
X422357Y247448D02*
X430357D01*
X426357Y243448D02*
Y251448D01*
X429266Y252729D02*
X428357Y249448D01*
X429266Y252729D02*
X430175Y249448D01*
X428698Y250541D02*
X429834D01*
X416346Y247665D02*
X424346D01*
X420346Y243665D02*
Y251665D01*
X423256Y252947D02*
X422346Y249665D01*
X423256Y252947D02*
X424165Y249665D01*
X422687Y250759D02*
X423824D01*
X427109Y247239D02*
X435109D01*
X431109Y243239D02*
Y251239D01*
X434018Y252520D02*
X433109Y249239D01*
X434018Y252520D02*
X434927Y249239D01*
X433450Y250333D02*
X434586D01*
X428200Y241976D02*
X436200D01*
X432200Y237976D02*
Y245976D01*
X432963Y235848D02*
X440963D01*
X436963Y231848D02*
Y239848D01*
X418200Y241976D02*
X426200D01*
X422200Y237976D02*
Y245976D01*
X423730Y237738D02*
X431730D01*
X427730Y233738D02*
Y241738D01*
X417185Y238247D02*
X425185D01*
X421185Y234247D02*
Y242247D01*
X448200Y241976D02*
X456200D01*
X452200Y237976D02*
Y245976D01*
X438200Y241976D02*
X446200D01*
X442200Y237976D02*
Y245976D01*
X468200Y251976D02*
X476200D01*
X472200Y247976D02*
Y255976D01*
X468200Y241976D02*
X476200D01*
X472200Y237976D02*
Y245976D01*
X458200Y251976D02*
X466200D01*
X462200Y247976D02*
Y255976D01*
X462672Y244711D02*
X470672D01*
X466672Y240711D02*
Y248711D01*
X488200Y251976D02*
X496200D01*
X492200Y247976D02*
Y255976D01*
X488200Y241976D02*
X496200D01*
X492200Y237976D02*
Y245976D01*
X478200Y251976D02*
X486200D01*
X482200Y247976D02*
Y255976D01*
X478200Y241976D02*
X486200D01*
X482200Y237976D02*
Y245976D01*
X508200Y251976D02*
X516200D01*
X512200Y247976D02*
Y255976D01*
X498200Y251976D02*
X506200D01*
X502200Y247976D02*
Y255976D01*
X498200Y241976D02*
X506200D01*
X502200Y237976D02*
Y245976D01*
X518200Y251976D02*
X526200D01*
X522200Y247976D02*
Y255976D01*
X108200Y271976D02*
X116200D01*
X112200Y267976D02*
Y275976D01*
X108200Y261976D02*
X116200D01*
X112200Y257976D02*
Y265976D01*
X98200Y271976D02*
X106200D01*
X102200Y267976D02*
Y275976D01*
X98200Y261976D02*
X106200D01*
X102200Y257976D02*
Y265976D01*
X128200Y271976D02*
X136200D01*
X132200Y267976D02*
Y275976D01*
X128200Y261976D02*
X136200D01*
X132200Y257976D02*
Y265976D01*
X122697Y258934D02*
X130697D01*
X126697Y254934D02*
Y262934D01*
X118200Y271976D02*
X126200D01*
X122200Y267976D02*
Y275976D01*
X118200Y261976D02*
X126200D01*
X122200Y257976D02*
Y265976D01*
X148200Y271976D02*
X156200D01*
X152200Y267976D02*
Y275976D01*
X148200Y261976D02*
X156200D01*
X152200Y257976D02*
Y265976D01*
X138200Y271976D02*
X146200D01*
X142200Y267976D02*
Y275976D01*
X138200Y261976D02*
X146200D01*
X142200Y257976D02*
Y265976D01*
X156181Y255559D02*
X164181D01*
X160181Y251559D02*
Y259559D01*
X154258Y257231D02*
X162258D01*
X158258Y253231D02*
Y261231D01*
X158219Y257056D02*
X166219D01*
X162219Y253056D02*
Y261056D01*
X158200Y271976D02*
X166200D01*
X162200Y267976D02*
Y275976D01*
X158200Y261976D02*
X166200D01*
X162200Y257976D02*
Y265976D01*
X171978Y255686D02*
X179978D01*
X175978Y251686D02*
Y259686D01*
X166073Y255962D02*
X174073D01*
X170073Y251962D02*
Y259962D01*
X189739Y255253D02*
X197739D01*
X193739Y251253D02*
Y259253D01*
X178819Y255801D02*
X186819D01*
X182819Y251801D02*
Y259801D01*
X197195Y256888D02*
X205195D01*
X201195Y252888D02*
Y260888D01*
X208200Y261976D02*
X216200D01*
X212200Y257976D02*
Y265976D01*
X207660Y270224D02*
X215660D01*
X211660Y266224D02*
Y274224D01*
X193632Y256551D02*
X201632D01*
X197632Y252551D02*
Y260551D01*
X228200Y271976D02*
X236200D01*
X232200Y267976D02*
Y275976D01*
X228200Y261976D02*
X236200D01*
X232200Y257976D02*
Y265976D01*
X218200Y271976D02*
X226200D01*
X222200Y267976D02*
Y275976D01*
X218200Y261976D02*
X226200D01*
X222200Y257976D02*
Y265976D01*
X246360Y253180D02*
X254360D01*
X250360Y249180D02*
Y257180D01*
X248392Y256333D02*
X256392D01*
X252392Y252333D02*
Y260333D01*
X248200Y261976D02*
X256200D01*
X252200Y257976D02*
Y265976D01*
X238200Y271976D02*
X246200D01*
X242200Y267976D02*
Y275976D01*
X243355Y266562D02*
X251355D01*
X247355Y262562D02*
Y270562D01*
X249355Y271844D02*
Y268562D01*
Y271844D02*
X250378D01*
X250719Y271687*
X250832Y271531*
X250946Y271219*
Y270906*
X250832Y270594*
X250719Y270437*
X250378Y270281*
X249355D02*
X250378D01*
X250719Y270125*
X250832Y269969*
X250946Y269656*
Y269187*
X250832Y268875*
X250719Y268719*
X250378Y268562*
X249355*
X239500Y269500D02*
X247500D01*
X243500Y265500D02*
Y273500D01*
X251286Y267290D02*
X259286D01*
X255286Y263290D02*
Y271290D01*
X257286Y272571D02*
Y269290D01*
Y272571D02*
X258309D01*
X258650Y272415*
X258763Y272259*
X258877Y271946*
Y271634*
X258763Y271321*
X258650Y271165*
X258309Y271009*
X257286D02*
X258309D01*
X258650Y270852*
X258763Y270696*
X258877Y270384*
Y269915*
X258763Y269602*
X258650Y269446*
X258309Y269290*
X257286*
X272895Y272059D02*
X280895D01*
X276895Y268059D02*
Y276059D01*
X258200Y271976D02*
X266200D01*
X262200Y267976D02*
Y275976D01*
X308432Y268714D02*
X316432D01*
X312432Y264714D02*
Y272714D01*
X308200Y261976D02*
X316200D01*
X312200Y257976D02*
Y265976D01*
X307236Y255909D02*
X315236D01*
X311236Y251909D02*
Y259909D01*
X317067Y261406D02*
X325067D01*
X321067Y257406D02*
Y265406D01*
X368200Y271976D02*
X376200D01*
X372200Y267976D02*
Y275976D01*
X358200Y271976D02*
X366200D01*
X362200Y267976D02*
Y275976D01*
X388200Y271976D02*
X396200D01*
X392200Y267976D02*
Y275976D01*
X383927Y258108D02*
X391927D01*
X387927Y254108D02*
Y262108D01*
X378200Y271976D02*
X386200D01*
X382200Y267976D02*
Y275976D01*
X394008Y268517D02*
X402008D01*
X398008Y264517D02*
Y272517D01*
X410887Y271222D02*
X418887D01*
X414887Y267222D02*
Y275222D01*
X416887Y276503D02*
Y273222D01*
Y276503D02*
X417910D01*
X418251Y276347*
X418364Y276191*
X418478Y275878*
Y275566*
X418364Y275253*
X418251Y275097*
X417910Y274941*
X416887D02*
X417910D01*
X418251Y274784*
X418364Y274628*
X418478Y274316*
Y273847*
X418364Y273534*
X418251Y273378*
X417910Y273222*
X416887*
X402650Y271316D02*
X410650D01*
X406650Y267316D02*
Y275316D01*
X408650Y276598D02*
Y273316D01*
Y276598D02*
X409672D01*
X410013Y276441*
X410127Y276285*
X410241Y275973*
Y275660*
X410127Y275348*
X410013Y275191*
X409672Y275035*
X408650D02*
X409672D01*
X410013Y274879*
X410127Y274723*
X410241Y274410*
Y273941*
X410127Y273629*
X410013Y273473*
X409672Y273316*
X408650*
X420950Y259006D02*
X428950D01*
X424950Y255006D02*
Y263006D01*
X421176Y255673D02*
X429176D01*
X425176Y251673D02*
Y259673D01*
X432949Y261402D02*
X440949D01*
X436949Y257402D02*
Y265402D01*
X417680Y268513D02*
X425680Y276513D01*
X417680D02*
X425680Y268513D01*
X451306Y254135D02*
X459306D01*
X455306Y250135D02*
Y258135D01*
X448051Y255047D02*
X456051D01*
X452051Y251047D02*
Y259047D01*
X458200Y261976D02*
X466200D01*
X462200Y257976D02*
Y265976D01*
X488200Y271976D02*
X496200D01*
X492200Y267976D02*
Y275976D01*
X508200Y271976D02*
X516200D01*
X512200Y267976D02*
Y275976D01*
X508200Y261976D02*
X516200D01*
X512200Y257976D02*
Y265976D01*
X498200Y271976D02*
X506200D01*
X502200Y267976D02*
Y275976D01*
X498200Y261976D02*
X506200D01*
X502200Y257976D02*
Y265976D01*
X518200Y271976D02*
X526200D01*
X522200Y267976D02*
Y275976D01*
X518200Y261976D02*
X526200D01*
X522200Y257976D02*
Y265976D01*
X108200Y291976D02*
X116200D01*
X112200Y287976D02*
Y295976D01*
X108200Y281976D02*
X116200D01*
X112200Y277976D02*
Y285976D01*
X98200Y291976D02*
X106200D01*
X102200Y287976D02*
Y295976D01*
X98200Y281976D02*
X106200D01*
X102200Y277976D02*
Y285976D01*
X128200Y291976D02*
X136200D01*
X132200Y287976D02*
Y295976D01*
X128200Y281976D02*
X136200D01*
X132200Y277976D02*
Y285976D01*
X118200Y291976D02*
X126200D01*
X122200Y287976D02*
Y295976D01*
X118200Y281976D02*
X126200D01*
X122200Y277976D02*
Y285976D01*
X145534Y278709D02*
X153534D01*
X149534Y274709D02*
Y282709D01*
X138200Y291976D02*
X146200D01*
X142200Y287976D02*
Y295976D01*
X138200Y281976D02*
X146200D01*
X142200Y277976D02*
Y285976D01*
X151436Y277088D02*
X159436Y285088D01*
X151436D02*
X159436Y277088D01*
X167919Y278709D02*
X175919D01*
X171919Y274709D02*
Y282709D01*
X188200Y281976D02*
X196200D01*
X192200Y277976D02*
Y285976D01*
X188310Y277867D02*
X196310D01*
X192310Y273867D02*
Y281867D01*
X208200Y291976D02*
X216200D01*
X212200Y287976D02*
Y295976D01*
X208200Y281976D02*
X216200D01*
X212200Y277976D02*
Y285976D01*
X209630Y274764D02*
X217630D01*
X213630Y270764D02*
Y278764D01*
X198200Y291976D02*
X206200D01*
X202200Y287976D02*
Y295976D01*
X198200Y281976D02*
X206200D01*
X202200Y277976D02*
Y285976D01*
X228200Y291976D02*
X236200D01*
X232200Y287976D02*
Y295976D01*
X228200Y281976D02*
X236200D01*
X232200Y277976D02*
Y285976D01*
X218200Y291976D02*
X226200D01*
X222200Y287976D02*
Y295976D01*
X218200Y281976D02*
X226200D01*
X222200Y277976D02*
Y285976D01*
X248200Y291976D02*
X256200D01*
X252200Y287976D02*
Y295976D01*
X238200Y291976D02*
X246200D01*
X242200Y287976D02*
Y295976D01*
X237997Y281676D02*
X245997D01*
X241997Y277676D02*
Y285676D01*
X269749Y277458D02*
X277749D01*
X273749Y273458D02*
Y281458D01*
X258200Y291976D02*
X266200D01*
X262200Y287976D02*
Y295976D01*
X258356Y285964D02*
X266356D01*
X262356Y281964D02*
Y289964D01*
X264356Y291245D02*
Y287964D01*
Y291245D02*
X265379D01*
X265720Y291089*
X265834Y290933*
X265947Y290620*
Y290308*
X265834Y289995*
X265720Y289839*
X265379Y289683*
X264356D02*
X265379D01*
X265720Y289526*
X265834Y289370*
X265947Y289058*
Y288589*
X265834Y288276*
X265720Y288120*
X265379Y287964*
X264356*
X258038Y278085D02*
X266038D01*
X262038Y274085D02*
Y282085D01*
X264038Y283366D02*
Y280085D01*
Y283366D02*
X265061D01*
X265402Y283210*
X265515Y283054*
X265629Y282741*
Y282429*
X265515Y282116*
X265402Y281960*
X265061Y281804*
X264038D02*
X265061D01*
X265402Y281648*
X265515Y281491*
X265629Y281179*
Y280710*
X265515Y280398*
X265402Y280241*
X265061Y280085*
X264038*
X274627Y282584D02*
X282627D01*
X278627Y278584D02*
Y286584D01*
X332957Y278001D02*
X340957D01*
X336957Y274001D02*
Y282001D01*
X328200Y281976D02*
X336200D01*
X332200Y277976D02*
Y285976D01*
X347022Y291774D02*
X355022D01*
X351022Y287774D02*
Y295774D01*
X353931Y297056D02*
X353022Y293774D01*
X353931Y297056D02*
X354840Y293774D01*
X353363Y294868D02*
X354499D01*
X337451Y291870D02*
X345451D01*
X341451Y287870D02*
Y295870D01*
X344360Y297151D02*
X343451Y293870D01*
X344360Y297151D02*
X345269Y293870D01*
X343792Y294963D02*
X344928D01*
X357056Y290837D02*
X365056D01*
X361056Y286837D02*
Y294837D01*
X356597Y288243D02*
X364597D01*
X360597Y284243D02*
Y292243D01*
X368200Y281976D02*
X376200D01*
X372200Y277976D02*
Y285976D01*
X369921Y289719D02*
X377921D01*
X373921Y285719D02*
Y293719D01*
X387864Y288777D02*
X395864D01*
X391864Y284777D02*
Y292777D01*
X382802Y290810D02*
X390802D01*
X386802Y286810D02*
Y294810D01*
X378239Y281976D02*
X386239D01*
X382239Y277976D02*
Y285976D01*
X388200Y281976D02*
X396200D01*
X392200Y277976D02*
Y285976D01*
X408200Y291976D02*
X416200D01*
X412200Y287976D02*
Y295976D01*
X408200Y281976D02*
X416200D01*
X412200Y277976D02*
Y285976D01*
X398200Y291976D02*
X406200D01*
X402200Y287976D02*
Y295976D01*
X398200Y281976D02*
X406200D01*
X402200Y277976D02*
Y285976D01*
X418200Y291976D02*
X426200D01*
X422200Y287976D02*
Y295976D01*
X418200Y281976D02*
X426200D01*
X422200Y277976D02*
Y285976D01*
X448200Y291976D02*
X456200D01*
X452200Y287976D02*
Y295976D01*
X438200Y291976D02*
X446200D01*
X442200Y287976D02*
Y295976D01*
X468200Y281976D02*
X476200D01*
X472200Y277976D02*
Y285976D01*
X488200Y291976D02*
X496200D01*
X492200Y287976D02*
Y295976D01*
X488200Y281976D02*
X496200D01*
X492200Y277976D02*
Y285976D01*
X478200Y291976D02*
X486200D01*
X482200Y287976D02*
Y295976D01*
X478200Y281976D02*
X486200D01*
X482200Y277976D02*
Y285976D01*
X508200Y291976D02*
X516200D01*
X512200Y287976D02*
Y295976D01*
X518200Y291976D02*
X526200D01*
X522200Y287976D02*
Y295976D01*
X518200Y281976D02*
X526200D01*
X522200Y277976D02*
Y285976D01*
X108200Y301976D02*
X116200D01*
X112200Y297976D02*
Y305976D01*
X98200Y311976D02*
X106200D01*
X102200Y307976D02*
Y315976D01*
X98200Y301976D02*
X106200D01*
X102200Y297976D02*
Y305976D01*
X128200Y311976D02*
X136200D01*
X132200Y307976D02*
Y315976D01*
X128200Y301976D02*
X136200D01*
X132200Y297976D02*
Y305976D01*
X118200Y301976D02*
X126200D01*
X122200Y297976D02*
Y305976D01*
X148200Y301976D02*
X156200D01*
X152200Y297976D02*
Y305976D01*
X138200Y311976D02*
X146200D01*
X142200Y307976D02*
Y315976D01*
X138200Y301976D02*
X146200D01*
X142200Y297976D02*
Y305976D01*
X151308Y295336D02*
X159308D01*
X155308Y291336D02*
Y299336D01*
X145534Y310228D02*
X153534D01*
X149534Y306228D02*
Y314228D01*
X168200Y311976D02*
X176200D01*
X172200Y307976D02*
Y315976D01*
X168200Y301976D02*
X176200D01*
X172200Y297976D02*
Y305976D01*
X154797Y305304D02*
X162797D01*
X158797Y301304D02*
Y309304D01*
X181005Y294056D02*
X189005D01*
X185005Y290056D02*
Y298056D01*
X188200Y301976D02*
X196200D01*
X192200Y297976D02*
Y305976D01*
X180957Y303160D02*
X188957D01*
X184957Y299160D02*
Y307160D01*
X208200Y311976D02*
X216200D01*
X212200Y307976D02*
Y315976D01*
X208200Y301976D02*
X216200D01*
X212200Y297976D02*
Y305976D01*
X198200Y311976D02*
X206200D01*
X202200Y307976D02*
Y315976D01*
X198200Y301976D02*
X206200D01*
X202200Y297976D02*
Y305976D01*
X212577Y311302D02*
X220577D01*
X216577Y307302D02*
Y315302D01*
X228200Y311976D02*
X236200D01*
X232200Y307976D02*
Y315976D01*
X228200Y301976D02*
X236200D01*
X232200Y297976D02*
Y305976D01*
X218200Y301976D02*
X226200D01*
X222200Y297976D02*
Y305976D01*
X244086Y305322D02*
X252086D01*
X248086Y301322D02*
Y309322D01*
X248200Y301976D02*
X256200D01*
X252200Y297976D02*
Y305976D01*
X238200Y311976D02*
X246200D01*
X242200Y307976D02*
Y315976D01*
X238200Y301976D02*
X246200D01*
X242200Y297976D02*
Y305976D01*
X256542Y305480D02*
X264542D01*
X260542Y301480D02*
Y309480D01*
X268200Y311976D02*
X276200D01*
X272200Y307976D02*
Y315976D01*
X268972Y299386D02*
X276972D01*
X272972Y295386D02*
Y303386D01*
X274972Y304667D02*
Y301386D01*
Y304667D02*
X275995D01*
X276336Y304511*
X276450Y304355*
X276563Y304042*
Y303730*
X276450Y303417*
X276336Y303261*
X275995Y303105*
X274972D02*
X275995D01*
X276336Y302948*
X276450Y302792*
X276563Y302480*
Y302011*
X276450Y301698*
X276336Y301542*
X275995Y301386*
X274972*
X278200Y311976D02*
X286200D01*
X282200Y307976D02*
Y315976D01*
X287210Y299482D02*
X295210D01*
X291210Y295482D02*
Y303482D01*
X293210Y304763D02*
Y301482D01*
Y304763D02*
X294233D01*
X294574Y304607*
X294687Y304450*
X294801Y304138*
Y303825*
X294687Y303513*
X294574Y303357*
X294233Y303200*
X293210D02*
X294233D01*
X294574Y303044*
X294687Y302888*
X294801Y302575*
Y302107*
X294687Y301794*
X294574Y301638*
X294233Y301482*
X293210*
X278257Y299482D02*
X286257D01*
X282257Y295482D02*
Y303482D01*
X284257Y304763D02*
Y301482D01*
Y304763D02*
X285280D01*
X285621Y304607*
X285734Y304450*
X285848Y304138*
Y303825*
X285734Y303513*
X285621Y303357*
X285280Y303200*
X284257D02*
X285280D01*
X285621Y303044*
X285734Y302888*
X285848Y302575*
Y302107*
X285734Y301794*
X285621Y301638*
X285280Y301482*
X284257*
X301435Y302479D02*
X309435D01*
X305435Y298479D02*
Y306479D01*
X307435Y307760D02*
Y304479D01*
Y307760D02*
X308457D01*
X308798Y307604*
X308912Y307447*
X309025Y307135*
Y306822*
X308912Y306510*
X308798Y306354*
X308457Y306197*
X307435D02*
X308457D01*
X308798Y306041*
X308912Y305885*
X309025Y305572*
Y305104*
X308912Y304791*
X308798Y304635*
X308457Y304479*
X307435*
X331781Y303462D02*
X339781D01*
X335781Y299462D02*
Y307462D01*
X337781Y308743D02*
Y305462D01*
Y308743D02*
X338804D01*
X339144Y308587*
X339258Y308431*
X339372Y308118*
Y307806*
X339258Y307493*
X339144Y307337*
X338804Y307181*
X337781D02*
X338804D01*
X339144Y307024*
X339258Y306868*
X339372Y306556*
Y306087*
X339258Y305774*
X339144Y305618*
X338804Y305462*
X337781*
X316525Y303462D02*
X324525D01*
X320525Y299462D02*
Y307462D01*
X322525Y308743D02*
Y305462D01*
Y308743D02*
X323548D01*
X323889Y308587*
X324002Y308431*
X324116Y308118*
Y307806*
X324002Y307493*
X323889Y307337*
X323548Y307181*
X322525D02*
X323548D01*
X323889Y307024*
X324002Y306868*
X324116Y306556*
Y306087*
X324002Y305774*
X323889Y305618*
X323548Y305462*
X322525*
X328200Y311976D02*
X336200D01*
X332200Y307976D02*
Y315976D01*
X318200Y311976D02*
X326200D01*
X322200Y307976D02*
Y315976D01*
X344818Y303480D02*
X352818D01*
X348818Y299480D02*
Y307480D01*
X350818Y308762D02*
Y305480D01*
Y308762D02*
X351840D01*
X352181Y308605*
X352295Y308449*
X352408Y308137*
Y307824*
X352295Y307512*
X352181Y307355*
X351840Y307199*
X350818D02*
X351840D01*
X352181Y307043*
X352295Y306887*
X352408Y306574*
Y306105*
X352295Y305793*
X352181Y305637*
X351840Y305480*
X350818*
X348200Y311976D02*
X356200D01*
X352200Y307976D02*
Y315976D01*
X338200Y311976D02*
X346200D01*
X342200Y307976D02*
Y315976D01*
X355292Y302300D02*
X363292D01*
X359292Y298300D02*
Y306300D01*
X356229Y294806D02*
X364229D01*
X360229Y290806D02*
Y298806D01*
X368200Y311976D02*
X376200D01*
X372200Y307976D02*
Y315976D01*
X378140Y297938D02*
X386140D01*
X382140Y293938D02*
Y301938D01*
X408200Y301976D02*
X416200D01*
X412200Y297976D02*
Y305976D01*
X398200Y311976D02*
X406200D01*
X402200Y307976D02*
Y315976D01*
X398200Y301976D02*
X406200D01*
X402200Y297976D02*
Y305976D01*
X411331Y307193D02*
X419331D01*
X415331Y303193D02*
Y311193D01*
X428200Y311976D02*
X436200D01*
X432200Y307976D02*
Y315976D01*
X428200Y301976D02*
X436200D01*
X432200Y297976D02*
Y305976D01*
X418200Y301976D02*
X426200D01*
X422200Y297976D02*
Y305976D01*
X414493Y293270D02*
X422493D01*
X418493Y289270D02*
Y297270D01*
X438200Y311976D02*
X446200D01*
X442200Y307976D02*
Y315976D01*
X438200Y301976D02*
X446200D01*
X442200Y297976D02*
Y305976D01*
X468200Y301976D02*
X476200D01*
X472200Y297976D02*
Y305976D01*
X488200Y301976D02*
X496200D01*
X492200Y297976D02*
Y305976D01*
X478200Y301976D02*
X486200D01*
X482200Y297976D02*
Y305976D01*
X508200Y301976D02*
X516200D01*
X512200Y297976D02*
Y305976D01*
X498200Y301976D02*
X506200D01*
X502200Y297976D02*
Y305976D01*
X518200Y301976D02*
X526200D01*
X522200Y297976D02*
Y305976D01*
X128200Y331976D02*
X136200D01*
X132200Y327976D02*
Y335976D01*
X128200Y321976D02*
X136200D01*
X132200Y317976D02*
Y325976D01*
X145516Y319560D02*
X153516D01*
X149516Y315560D02*
Y323560D01*
X148200Y331976D02*
X156200D01*
X152200Y327976D02*
Y335976D01*
X138200Y331976D02*
X146200D01*
X142200Y327976D02*
Y335976D01*
X138200Y321976D02*
X146200D01*
X142200Y317976D02*
Y325976D01*
X168200Y331976D02*
X176200D01*
X172200Y327976D02*
Y335976D01*
X158200Y331976D02*
X166200D01*
X162200Y327976D02*
Y335976D01*
X175919Y315361D02*
X183919D01*
X179919Y311361D02*
Y319361D01*
X188200Y331976D02*
X196200D01*
X192200Y327976D02*
Y335976D01*
X178200Y331976D02*
X186200D01*
X182200Y327976D02*
Y335976D01*
X180972Y318063D02*
X188972D01*
X184972Y314063D02*
Y322063D01*
X208200Y331976D02*
X216200D01*
X212200Y327976D02*
Y335976D01*
X208200Y321976D02*
X216200D01*
X212200Y317976D02*
Y325976D01*
X198200Y331976D02*
X206200D01*
X202200Y327976D02*
Y335976D01*
X201585Y317929D02*
X209585D01*
X205585Y313929D02*
Y321929D01*
X228200Y331976D02*
X236200D01*
X232200Y327976D02*
Y335976D01*
X228200Y321976D02*
X236200D01*
X232200Y317976D02*
Y325976D01*
X218200Y331976D02*
X226200D01*
X222200Y327976D02*
Y335976D01*
X215856Y321000D02*
X223856D01*
X219856Y317000D02*
Y325000D01*
X248200Y331976D02*
X256200D01*
X252200Y327976D02*
Y335976D01*
X248200Y321976D02*
X256200D01*
X252200Y317976D02*
Y325976D01*
X238200Y331976D02*
X246200D01*
X242200Y327976D02*
Y335976D01*
X244176Y320276D02*
X252176D01*
X248176Y316276D02*
Y324276D01*
X249529Y314077D02*
X257529D01*
X253529Y310077D02*
Y318077D01*
X268200Y331976D02*
X276200D01*
X272200Y327976D02*
Y335976D01*
X258200Y331976D02*
X266200D01*
X262200Y327976D02*
Y335976D01*
X256661Y320724D02*
X264661D01*
X260661Y316724D02*
Y324724D01*
X269005Y322791D02*
X277005D01*
X273005Y318791D02*
Y326791D01*
X288200Y331976D02*
X296200D01*
X292200Y327976D02*
Y335976D01*
X288200Y321976D02*
X296200D01*
X292200Y317976D02*
Y325976D01*
X278200Y331976D02*
X286200D01*
X282200Y327976D02*
Y335976D01*
X290984Y319726D02*
X298984D01*
X294984Y315726D02*
Y323726D01*
X279248Y322791D02*
X287248D01*
X283248Y318791D02*
Y326791D01*
X308200Y331976D02*
X316200D01*
X312200Y327976D02*
Y335976D01*
X298200Y331976D02*
X306200D01*
X302200Y327976D02*
Y335976D01*
X298200Y321976D02*
X306200D01*
X302200Y317976D02*
Y325976D01*
X309151Y321147D02*
X317151D01*
X313151Y317147D02*
Y325147D01*
X328200Y331976D02*
X336200D01*
X332200Y327976D02*
Y335976D01*
X328200Y321976D02*
X336200D01*
X332200Y317976D02*
Y325976D01*
X318200Y331976D02*
X326200D01*
X322200Y327976D02*
Y335976D01*
X318200Y321976D02*
X326200D01*
X322200Y317976D02*
Y325976D01*
X324402Y322193D02*
X332402D01*
X328402Y318193D02*
Y326193D01*
X348200Y331976D02*
X356200D01*
X352200Y327976D02*
Y335976D01*
X338200Y331976D02*
X346200D01*
X342200Y327976D02*
Y335976D01*
X338200Y321976D02*
X346200D01*
X342200Y317976D02*
Y325976D01*
X350085Y321955D02*
X358085D01*
X354085Y317955D02*
Y325955D01*
X337957Y321894D02*
X345957D01*
X341957Y317894D02*
Y325894D01*
X368200Y331976D02*
X376200D01*
X372200Y327976D02*
Y335976D01*
X368200Y321976D02*
X376200D01*
X372200Y317976D02*
Y325976D01*
X358200Y331976D02*
X366200D01*
X362200Y327976D02*
Y335976D01*
X388200Y331976D02*
X396200D01*
X392200Y327976D02*
Y335976D01*
X378200Y331976D02*
X386200D01*
X382200Y327976D02*
Y335976D01*
X411982Y321096D02*
X419982D01*
X415982Y317096D02*
Y325096D01*
X417982Y326377D02*
Y323096D01*
Y326377D02*
X419004D01*
X419345Y326221*
X419459Y326065*
X419573Y325752*
Y325440*
X419459Y325127*
X419345Y324971*
X419004Y324815*
X417982D02*
X419004D01*
X419345Y324658*
X419459Y324502*
X419573Y324190*
Y323721*
X419459Y323408*
X419345Y323252*
X419004Y323096*
X417982*
X412364Y313715D02*
X420364D01*
X416364Y309715D02*
Y317715D01*
X418364Y318996D02*
Y315715D01*
Y318996D02*
X419386D01*
X419727Y318840*
X419841Y318684*
X419954Y318371*
Y318059*
X419841Y317746*
X419727Y317590*
X419386Y317434*
X418364D02*
X419386D01*
X419727Y317278*
X419841Y317121*
X419954Y316809*
Y316340*
X419841Y316028*
X419727Y315871*
X419386Y315715*
X418364*
X404697Y321143D02*
X412697D01*
X408697Y317143D02*
Y325143D01*
X410697Y326424D02*
Y323143D01*
Y326424D02*
X411720D01*
X412060Y326268*
X412174Y326112*
X412288Y325799*
Y325487*
X412174Y325174*
X412060Y325018*
X411720Y324862*
X410697D02*
X411720D01*
X412060Y324706*
X412174Y324549*
X412288Y324237*
Y323768*
X412174Y323456*
X412060Y323299*
X411720Y323143*
X410697*
X404697Y313811D02*
X412697D01*
X408697Y309811D02*
Y317811D01*
X410697Y319092D02*
Y315811D01*
Y319092D02*
X411720D01*
X412060Y318936*
X412174Y318780*
X412288Y318467*
Y318155*
X412174Y317842*
X412060Y317686*
X411720Y317530*
X410697D02*
X411720D01*
X412060Y317374*
X412174Y317217*
X412288Y316905*
Y316436*
X412174Y316124*
X412060Y315967*
X411720Y315811*
X410697*
X408200Y331976D02*
X416200D01*
X412200Y327976D02*
Y335976D01*
X398200Y331976D02*
X406200D01*
X402200Y327976D02*
Y335976D01*
X398200Y321976D02*
X406200D01*
X402200Y317976D02*
Y325976D01*
X428200Y331976D02*
X436200D01*
X432200Y327976D02*
Y335976D01*
X428200Y321976D02*
X436200D01*
X432200Y317976D02*
Y325976D01*
X418200Y331976D02*
X426200D01*
X422200Y327976D02*
Y335976D01*
X448200Y331976D02*
X456200D01*
X452200Y327976D02*
Y335976D01*
X438200Y331976D02*
X446200D01*
X442200Y327976D02*
Y335976D01*
X438200Y321976D02*
X446200D01*
X442200Y317976D02*
Y325976D01*
X468200Y331976D02*
X476200D01*
X472200Y327976D02*
Y335976D01*
X458200Y331976D02*
X466200D01*
X462200Y327976D02*
Y335976D01*
X458976Y324623D02*
X466976D01*
X462976Y320623D02*
Y328623D01*
X478200Y331976D02*
X486200D01*
X482200Y327976D02*
Y335976D01*
X100000Y336220D02*
X533071D01*
Y100000*
X100000*
Y336220*
X400000Y688000D02*
X658000D01*
X400000Y664000D02*
X658000D01*
X400000Y640000D02*
X658000D01*
X400000Y616000D02*
X658000D01*
X400000Y592000D02*
X658000D01*
X400000Y568000D02*
X658000D01*
X400000Y544000D02*
X658000D01*
X400000Y520000D02*
X658000D01*
X400000Y496000D02*
X658000D01*
X400000Y472000D02*
X658000D01*
X400000Y448000D02*
X658000D01*
X400000Y424000D02*
X658000D01*
X400000Y400000D02*
X658000D01*
X400000Y688000D02*
Y400000D01*
X484000Y688000D02*
Y400000D01*
X520000Y688000D02*
Y400000D01*
X556000Y688000D02*
Y400000D01*
X610000Y688000D02*
Y400000D01*
X658000Y688000D02*
Y400000D01*
X435500Y676750D02*
X434955Y677500D01*
X434136Y677875*
X433045*
X432227Y677500*
X431682Y676750*
Y676000*
X431955Y675250*
X432227Y674875*
X432773Y674500*
X434409Y673750*
X434955Y673375*
X435227Y673000*
X435500Y672250*
Y671125*
X434955Y670375*
X434136Y670000*
X433045*
X432227Y670375*
X431682Y671125*
X437955Y677875D02*
Y670000D01*
X444227Y677875D02*
X440409Y670000D01*
Y677875D02*
X444227D01*
X440409Y670000D02*
X444227D01*
X446682Y677875D02*
Y670000D01*
Y677875D02*
X450227D01*
X446682Y674125D02*
X448864D01*
X446682Y670000D02*
X450227D01*
X493864Y677875D02*
X493318Y677500D01*
X492773Y676750*
X492500Y676000*
X492227Y674875*
Y673000*
X492500Y671875*
X492773Y671125*
X493318Y670375*
X493864Y670000*
X494955*
X495500Y670375*
X496045Y671125*
X496318Y671875*
X496591Y673000*
Y674875*
X496318Y676000*
X496045Y676750*
X495500Y677500*
X494955Y677875*
X493864*
X494682Y671500D02*
X496318Y669250D01*
X500955Y677875D02*
Y670000D01*
X499045Y677875D02*
X502864D01*
X505318D02*
X507500Y674125D01*
Y670000*
X509682Y677875D02*
X507500Y674125D01*
X532045Y676750D02*
X531500Y677500D01*
X530682Y677875*
X529591*
X528773Y677500*
X528227Y676750*
Y676000*
X528500Y675250*
X528773Y674875*
X529318Y674500*
X530955Y673750*
X531500Y673375*
X531773Y673000*
X532045Y672250*
Y671125*
X531500Y670375*
X530682Y670000*
X529591*
X528773Y670375*
X528227Y671125*
X534500Y677875D02*
X536682Y674125D01*
Y670000*
X538864Y677875D02*
X536682Y674125D01*
X541318Y677875D02*
Y670000D01*
Y677875D02*
X543500Y670000D01*
X545682Y677875D02*
X543500Y670000D01*
X545682Y677875D02*
Y670000D01*
X567500Y677875D02*
Y670000D01*
Y677875D02*
X569955D01*
X570773Y677500*
X571045Y677125*
X571318Y676375*
Y675250*
X571045Y674500*
X570773Y674125*
X569955Y673750*
X567500*
X573773Y677875D02*
Y670000D01*
X577045*
X581682Y677875D02*
X579500Y670000D01*
X581682Y677875D02*
X583864Y670000D01*
X580318Y672625D02*
X583045D01*
X588227Y677875D02*
Y670000D01*
X586318Y677875D02*
X590136D01*
X592591D02*
Y670000D01*
Y677875D02*
X596136D01*
X592591Y674125D02*
X594773D01*
X592591Y670000D02*
X596136D01*
X598591Y677875D02*
Y670000D01*
Y677875D02*
X600500D01*
X601318Y677500*
X601864Y676750*
X602136Y676000*
X602409Y674875*
Y673000*
X602136Y671875*
X601864Y671125*
X601318Y670375*
X600500Y670000*
X598591*
X626682Y677875D02*
Y670000D01*
X624773Y677875D02*
X628591D01*
X632682D02*
X632136Y677500D01*
X631591Y676750*
X631318Y676000*
X631045Y674875*
Y673000*
X631318Y671875*
X631591Y671125*
X632136Y670375*
X632682Y670000*
X633773*
X634318Y670375*
X634864Y671125*
X635136Y671875*
X635409Y673000*
Y674875*
X635136Y676000*
X634864Y676750*
X634318Y677500*
X633773Y677875*
X632682*
X637864D02*
Y670000D01*
X641136*
X406000Y652375D02*
X406545Y652750D01*
X407364Y653875*
Y646000*
X410091Y652000D02*
Y652375D01*
X410364Y653125*
X410636Y653500*
X411182Y653875*
X412273*
X412818Y653500*
X413091Y653125*
X413364Y652375*
Y651625*
X413091Y650875*
X412545Y649750*
X409818Y646000*
X413636*
X496182Y652750D02*
X495909Y653500D01*
X495091Y653875*
X494545*
X493727Y653500*
X493182Y652375*
X492909Y650500*
Y648625*
X493182Y647125*
X493727Y646375*
X494545Y646000*
X494818*
X495636Y646375*
X496182Y647125*
X496455Y648250*
Y648625*
X496182Y649750*
X495636Y650500*
X494818Y650875*
X494545*
X493727Y650500*
X493182Y649750*
X492909Y648625*
X500545Y653875D02*
X499727Y653500D01*
X499182Y652375*
X498909Y650500*
Y649375*
X499182Y647500*
X499727Y646375*
X500545Y646000*
X501091*
X501909Y646375*
X502455Y647500*
X502727Y649375*
Y650500*
X502455Y652375*
X501909Y653500*
X501091Y653875*
X500545*
X506545D02*
X505727Y653500D01*
X505455Y652750*
Y652000*
X505727Y651250*
X506273Y650875*
X507364Y650500*
X508182Y650125*
X508727Y649375*
X509000Y648625*
Y647500*
X508727Y646750*
X508455Y646375*
X507636Y646000*
X506545*
X505727Y646375*
X505455Y646750*
X505182Y647500*
Y648625*
X505455Y649375*
X506000Y650125*
X506818Y650500*
X507909Y650875*
X508455Y651250*
X508727Y652000*
Y652750*
X508455Y653500*
X507636Y653875*
X506545*
X532000Y652000D02*
X544000D01*
X538000Y646000D02*
Y658000D01*
X564636Y653875D02*
X566818Y650125D01*
Y646000*
X569000Y653875D02*
X566818Y650125D01*
X571455Y653875D02*
Y646000D01*
Y653875D02*
X575000D01*
X571455Y650125D02*
X573636D01*
X571455Y646000D02*
X575000D01*
X581273Y652750D02*
X580727Y653500D01*
X579909Y653875*
X578818*
X578000Y653500*
X577455Y652750*
Y652000*
X577727Y651250*
X578000Y650875*
X578545Y650500*
X580182Y649750*
X580727Y649375*
X581000Y649000*
X581273Y648250*
Y647125*
X580727Y646375*
X579909Y646000*
X578818*
X578000Y646375*
X577455Y647125*
X617818Y652750D02*
Y646000D01*
X615364Y649375D02*
X620273D01*
X627636Y655375D02*
X622727Y643375D01*
X630091Y649375D02*
X635000D01*
X639091Y653875D02*
X638273Y653500D01*
X637727Y652375*
X637455Y650500*
Y649375*
X637727Y647500*
X638273Y646375*
X639091Y646000*
X639636*
X640455Y646375*
X641000Y647500*
X641273Y649375*
Y650500*
X641000Y652375*
X640455Y653500*
X639636Y653875*
X639091*
X644000Y646750D02*
X643727Y646375D01*
X644000Y646000*
X644273Y646375*
X644000Y646750*
X648364Y653875D02*
X647545Y653500D01*
X647000Y652375*
X646727Y650500*
Y649375*
X647000Y647500*
X647545Y646375*
X648364Y646000*
X648909*
X649727Y646375*
X650273Y647500*
X650545Y649375*
Y650500*
X650273Y652375*
X649727Y653500*
X648909Y653875*
X648364*
X406273Y628000D02*
Y628375D01*
X406545Y629125*
X406818Y629500*
X407364Y629875*
X408455*
X409000Y629500*
X409273Y629125*
X409545Y628375*
Y627625*
X409273Y626875*
X408727Y625750*
X406000Y622000*
X409818*
X413909Y629875D02*
X413091Y629500D01*
X412545Y628375*
X412273Y626500*
Y625375*
X412545Y623500*
X413091Y622375*
X413909Y622000*
X414455*
X415273Y622375*
X415818Y623500*
X416091Y625375*
Y626500*
X415818Y628375*
X415273Y629500*
X414455Y629875*
X413909*
X502455D02*
X499727D01*
X499455Y626500*
X499727Y626875*
X500545Y627250*
X501364*
X502182Y626875*
X502727Y626125*
X503000Y625000*
X502727Y624250*
X502455Y623125*
X501909Y622375*
X501091Y622000*
X500273*
X499455Y622375*
X499182Y622750*
X498909Y623500*
X532000Y622000D02*
X544000Y634000D01*
X532000D02*
X544000Y622000D01*
X564636Y629875D02*
X566818Y626125D01*
Y622000*
X569000Y629875D02*
X566818Y626125D01*
X571455Y629875D02*
Y622000D01*
Y629875D02*
X575000D01*
X571455Y626125D02*
X573636D01*
X571455Y622000D02*
X575000D01*
X581273Y628750D02*
X580727Y629500D01*
X579909Y629875*
X578818*
X578000Y629500*
X577455Y628750*
Y628000*
X577727Y627250*
X578000Y626875*
X578545Y626500*
X580182Y625750*
X580727Y625375*
X581000Y625000*
X581273Y624250*
Y623125*
X580727Y622375*
X579909Y622000*
X578818*
X578000Y622375*
X577455Y623125*
X617818Y628750D02*
Y622000D01*
X615364Y625375D02*
X620273D01*
X627636Y631375D02*
X622727Y619375D01*
X630091Y625375D02*
X635000D01*
X639091Y629875D02*
X638273Y629500D01*
X637727Y628375*
X637455Y626500*
Y625375*
X637727Y623500*
X638273Y622375*
X639091Y622000*
X639636*
X640455Y622375*
X641000Y623500*
X641273Y625375*
Y626500*
X641000Y628375*
X640455Y629500*
X639636Y629875*
X639091*
X644000Y622750D02*
X643727Y622375D01*
X644000Y622000*
X644273Y622375*
X644000Y622750*
X648364Y629875D02*
X647545Y629500D01*
X647000Y628375*
X646727Y626500*
Y625375*
X647000Y623500*
X647545Y622375*
X648364Y622000*
X648909*
X649727Y622375*
X650273Y623500*
X650545Y625375*
Y626500*
X650273Y628375*
X649727Y629500*
X648909Y629875*
X648364*
X406545Y605875D02*
X409545D01*
X407909Y602875*
X408727*
X409273Y602500*
X409545Y602125*
X409818Y601000*
Y600250*
X409545Y599125*
X409000Y598375*
X408182Y598000*
X407364*
X406545Y598375*
X406273Y598750*
X406000Y599500*
X415818Y605875D02*
X413091D01*
X412818Y602500*
X413091Y602875*
X413909Y603250*
X414727*
X415545Y602875*
X416091Y602125*
X416364Y601000*
X416091Y600250*
X415818Y599125*
X415273Y598375*
X414455Y598000*
X413636*
X412818Y598375*
X412545Y598750*
X412273Y599500*
X419091Y598750D02*
X418818Y598375D01*
X419091Y598000*
X419364Y598375*
X419091Y598750*
X424545Y605875D02*
X421818Y600625D01*
X425909*
X424545Y605875D02*
Y598000D01*
X428909Y605875D02*
X431909D01*
X430273Y602875*
X431091*
X431636Y602500*
X431909Y602125*
X432182Y601000*
Y600250*
X431909Y599125*
X431364Y598375*
X430545Y598000*
X429727*
X428909Y598375*
X428636Y598750*
X428364Y599500*
X497136Y604375D02*
X497682Y604750D01*
X498500Y605875*
Y598000*
X502591Y605875D02*
X501773Y605500D01*
X501227Y604375*
X500955Y602500*
Y601375*
X501227Y599500*
X501773Y598375*
X502591Y598000*
X503136*
X503955Y598375*
X504500Y599500*
X504773Y601375*
Y602500*
X504500Y604375*
X503955Y605500*
X503136Y605875*
X502591*
X532000Y598000D02*
X544000D01*
Y610000*
X532000*
Y598000*
X538000Y604000D02*
Y610000D01*
X564636Y605875D02*
X566818Y602125D01*
Y598000*
X569000Y605875D02*
X566818Y602125D01*
X571455Y605875D02*
Y598000D01*
Y605875D02*
X575000D01*
X571455Y602125D02*
X573636D01*
X571455Y598000D02*
X575000D01*
X581273Y604750D02*
X580727Y605500D01*
X579909Y605875*
X578818*
X578000Y605500*
X577455Y604750*
Y604000*
X577727Y603250*
X578000Y602875*
X578545Y602500*
X580182Y601750*
X580727Y601375*
X581000Y601000*
X581273Y600250*
Y599125*
X580727Y598375*
X579909Y598000*
X578818*
X578000Y598375*
X577455Y599125*
X617818Y604750D02*
Y598000D01*
X615364Y601375D02*
X620273D01*
X627636Y607375D02*
X622727Y595375D01*
X630091Y601375D02*
X635000D01*
X639091Y605875D02*
X638273Y605500D01*
X637727Y604375*
X637455Y602500*
Y601375*
X637727Y599500*
X638273Y598375*
X639091Y598000*
X639636*
X640455Y598375*
X641000Y599500*
X641273Y601375*
Y602500*
X641000Y604375*
X640455Y605500*
X639636Y605875*
X639091*
X644000Y598750D02*
X643727Y598375D01*
X644000Y598000*
X644273Y598375*
X644000Y598750*
X648364Y605875D02*
X647545Y605500D01*
X647000Y604375*
X646727Y602500*
Y601375*
X647000Y599500*
X647545Y598375*
X648364Y598000*
X648909*
X649727Y598375*
X650273Y599500*
X650545Y601375*
Y602500*
X650273Y604375*
X649727Y605500*
X648909Y605875*
X648364*
X406000Y580375D02*
X406545Y580750D01*
X407364Y581875*
Y574000*
X413364Y581875D02*
X410636D01*
X410364Y578500*
X410636Y578875*
X411455Y579250*
X412273*
X413091Y578875*
X413636Y578125*
X413909Y577000*
X413636Y576250*
X413364Y575125*
X412818Y574375*
X412000Y574000*
X411182*
X410364Y574375*
X410091Y574750*
X409818Y575500*
X420182Y581875D02*
X417455Y574000D01*
X416364Y581875D02*
X420182D01*
X422909Y574750D02*
X422636Y574375D01*
X422909Y574000*
X423182Y574375*
X422909Y574750*
X428364Y581875D02*
X425636Y576625D01*
X429727*
X428364Y581875D02*
Y574000D01*
X433545Y581875D02*
X432727Y581500D01*
X432455Y580750*
Y580000*
X432727Y579250*
X433273Y578875*
X434364Y578500*
X435182Y578125*
X435727Y577375*
X436000Y576625*
Y575500*
X435727Y574750*
X435455Y574375*
X434636Y574000*
X433545*
X432727Y574375*
X432455Y574750*
X432182Y575500*
Y576625*
X432455Y577375*
X433000Y578125*
X433818Y578500*
X434909Y578875*
X435455Y579250*
X435727Y580000*
Y580750*
X435455Y581500*
X434636Y581875*
X433545*
X499591D02*
X502591D01*
X500955Y578875*
X501773*
X502318Y578500*
X502591Y578125*
X502864Y577000*
Y576250*
X502591Y575125*
X502045Y574375*
X501227Y574000*
X500409*
X499591Y574375*
X499318Y574750*
X499045Y575500*
X538000Y574000D02*
X544000Y580000D01*
X538000Y586000*
X532000Y580000*
X538000Y574000*
Y580000D02*
Y586000D01*
X567636Y581875D02*
Y574000D01*
Y581875D02*
X571455Y574000D01*
Y581875D02*
Y574000D01*
X575545Y581875D02*
X575000Y581500D01*
X574455Y580750*
X574182Y580000*
X573909Y578875*
Y577000*
X574182Y575875*
X574455Y575125*
X575000Y574375*
X575545Y574000*
X576636*
X577182Y574375*
X577727Y575125*
X578000Y575875*
X578273Y577000*
Y578875*
X578000Y580000*
X577727Y580750*
X577182Y581500*
X576636Y581875*
X575545*
X617818Y580750D02*
Y574000D01*
X615364Y577375D02*
X620273D01*
X627636Y583375D02*
X622727Y571375D01*
X630091Y577375D02*
X635000D01*
X639091Y581875D02*
X638273Y581500D01*
X637727Y580375*
X637455Y578500*
Y577375*
X637727Y575500*
X638273Y574375*
X639091Y574000*
X639636*
X640455Y574375*
X641000Y575500*
X641273Y577375*
Y578500*
X641000Y580375*
X640455Y581500*
X639636Y581875*
X639091*
X644000Y574750D02*
X643727Y574375D01*
X644000Y574000*
X644273Y574375*
X644000Y574750*
X648364Y581875D02*
X647545Y581500D01*
X647000Y580375*
X646727Y578500*
Y577375*
X647000Y575500*
X647545Y574375*
X648364Y574000*
X648909*
X649727Y574375*
X650273Y575500*
X650545Y577375*
Y578500*
X650273Y580375*
X649727Y581500*
X648909Y581875*
X648364*
X408727Y557875D02*
X406000Y552625D01*
X410091*
X408727Y557875D02*
Y550000D01*
X413091Y557875D02*
X416091D01*
X414455Y554875*
X415273*
X415818Y554500*
X416091Y554125*
X416364Y553000*
Y552250*
X416091Y551125*
X415545Y550375*
X414727Y550000*
X413909*
X413091Y550375*
X412818Y550750*
X412545Y551500*
X419091Y550750D02*
X418818Y550375D01*
X419091Y550000*
X419364Y550375*
X419091Y550750*
X422364Y557875D02*
X425364D01*
X423727Y554875*
X424545*
X425091Y554500*
X425364Y554125*
X425636Y553000*
Y552250*
X425364Y551125*
X424818Y550375*
X424000Y550000*
X423182*
X422364Y550375*
X422091Y550750*
X421818Y551500*
X428091Y556375D02*
X428636Y556750D01*
X429455Y557875*
Y550000*
X499591Y557875D02*
X502591D01*
X500955Y554875*
X501773*
X502318Y554500*
X502591Y554125*
X502864Y553000*
Y552250*
X502591Y551125*
X502045Y550375*
X501227Y550000*
X500409*
X499591Y550375*
X499318Y550750*
X499045Y551500*
X532000Y550000D02*
X544000D01*
X532000Y562000*
X544000*
X532000Y550000*
X564636Y557875D02*
X566818Y554125D01*
Y550000*
X569000Y557875D02*
X566818Y554125D01*
X571455Y557875D02*
Y550000D01*
Y557875D02*
X575000D01*
X571455Y554125D02*
X573636D01*
X571455Y550000D02*
X575000D01*
X581273Y556750D02*
X580727Y557500D01*
X579909Y557875*
X578818*
X578000Y557500*
X577455Y556750*
Y556000*
X577727Y555250*
X578000Y554875*
X578545Y554500*
X580182Y553750*
X580727Y553375*
X581000Y553000*
X581273Y552250*
Y551125*
X580727Y550375*
X579909Y550000*
X578818*
X578000Y550375*
X577455Y551125*
X617818Y556750D02*
Y550000D01*
X615364Y553375D02*
X620273D01*
X627636Y559375D02*
X622727Y547375D01*
X630091Y553375D02*
X635000D01*
X639091Y557875D02*
X638273Y557500D01*
X637727Y556375*
X637455Y554500*
Y553375*
X637727Y551500*
X638273Y550375*
X639091Y550000*
X639636*
X640455Y550375*
X641000Y551500*
X641273Y553375*
Y554500*
X641000Y556375*
X640455Y557500*
X639636Y557875*
X639091*
X644000Y550750D02*
X643727Y550375D01*
X644000Y550000*
X644273Y550375*
X644000Y550750*
X648364Y557875D02*
X647545Y557500D01*
X647000Y556375*
X646727Y554500*
Y553375*
X647000Y551500*
X647545Y550375*
X648364Y550000*
X648909*
X649727Y550375*
X650273Y551500*
X650545Y553375*
Y554500*
X650273Y556375*
X649727Y557500*
X648909Y557875*
X648364*
X408727Y533875D02*
X406000Y528625D01*
X410091*
X408727Y533875D02*
Y526000D01*
X413091Y533875D02*
X416091D01*
X414455Y530875*
X415273*
X415818Y530500*
X416091Y530125*
X416364Y529000*
Y528250*
X416091Y527125*
X415545Y526375*
X414727Y526000*
X413909*
X413091Y526375*
X412818Y526750*
X412545Y527500*
X419091Y526750D02*
X418818Y526375D01*
X419091Y526000*
X419364Y526375*
X419091Y526750*
X422364Y533875D02*
X425364D01*
X423727Y530875*
X424545*
X425091Y530500*
X425364Y530125*
X425636Y529000*
Y528250*
X425364Y527125*
X424818Y526375*
X424000Y526000*
X423182*
X422364Y526375*
X422091Y526750*
X421818Y527500*
X428091Y532375D02*
X428636Y532750D01*
X429455Y533875*
Y526000*
X499591Y533875D02*
X502591D01*
X500955Y530875*
X501773*
X502318Y530500*
X502591Y530125*
X502864Y529000*
Y528250*
X502591Y527125*
X502045Y526375*
X501227Y526000*
X500409*
X499591Y526375*
X499318Y526750*
X499045Y527500*
X532000Y526000D02*
X544000Y538000D01*
Y526000*
X532000Y538000*
Y526000*
X567636Y533875D02*
Y526000D01*
Y533875D02*
X571455Y526000D01*
Y533875D02*
Y526000D01*
X575545Y533875D02*
X575000Y533500D01*
X574455Y532750*
X574182Y532000*
X573909Y530875*
Y529000*
X574182Y527875*
X574455Y527125*
X575000Y526375*
X575545Y526000*
X576636*
X577182Y526375*
X577727Y527125*
X578000Y527875*
X578273Y529000*
Y530875*
X578000Y532000*
X577727Y532750*
X577182Y533500*
X576636Y533875*
X575545*
X617818Y532750D02*
Y526000D01*
X615364Y529375D02*
X620273D01*
X627636Y535375D02*
X622727Y523375D01*
X630091Y529375D02*
X635000D01*
X639091Y533875D02*
X638273Y533500D01*
X637727Y532375*
X637455Y530500*
Y529375*
X637727Y527500*
X638273Y526375*
X639091Y526000*
X639636*
X640455Y526375*
X641000Y527500*
X641273Y529375*
Y530500*
X641000Y532375*
X640455Y533500*
X639636Y533875*
X639091*
X644000Y526750D02*
X643727Y526375D01*
X644000Y526000*
X644273Y526375*
X644000Y526750*
X648364Y533875D02*
X647545Y533500D01*
X647000Y532375*
X646727Y530500*
Y529375*
X647000Y527500*
X647545Y526375*
X648364Y526000*
X648909*
X649727Y526375*
X650273Y527500*
X650545Y529375*
Y530500*
X650273Y532375*
X649727Y533500*
X648909Y533875*
X648364*
X406273Y508000D02*
Y508375D01*
X406545Y509125*
X406818Y509500*
X407364Y509875*
X408455*
X409000Y509500*
X409273Y509125*
X409545Y508375*
Y507625*
X409273Y506875*
X408727Y505750*
X406000Y502000*
X409818*
X415818Y509875D02*
X413091D01*
X412818Y506500*
X413091Y506875*
X413909Y507250*
X414727*
X415545Y506875*
X416091Y506125*
X416364Y505000*
X416091Y504250*
X415818Y503125*
X415273Y502375*
X414455Y502000*
X413636*
X412818Y502375*
X412545Y502750*
X412273Y503500*
X497000Y508375D02*
X497545Y508750D01*
X498364Y509875*
Y502000*
X504364Y509875D02*
X501636D01*
X501364Y506500*
X501636Y506875*
X502455Y507250*
X503273*
X504091Y506875*
X504636Y506125*
X504909Y505000*
X504636Y504250*
X504364Y503125*
X503818Y502375*
X503000Y502000*
X502182*
X501364Y502375*
X501091Y502750*
X500818Y503500*
X532000Y508000D02*
X544000D01*
X538000Y502000D02*
Y514000D01*
X542745Y517300D02*
X541000Y511000D01*
X542745Y517300D02*
X544491Y511000D01*
X541655Y513100D02*
X543836D01*
X564636Y509875D02*
X566818Y506125D01*
Y502000*
X569000Y509875D02*
X566818Y506125D01*
X571455Y509875D02*
Y502000D01*
Y509875D02*
X575000D01*
X571455Y506125D02*
X573636D01*
X571455Y502000D02*
X575000D01*
X581273Y508750D02*
X580727Y509500D01*
X579909Y509875*
X578818*
X578000Y509500*
X577455Y508750*
Y508000*
X577727Y507250*
X578000Y506875*
X578545Y506500*
X580182Y505750*
X580727Y505375*
X581000Y505000*
X581273Y504250*
Y503125*
X580727Y502375*
X579909Y502000*
X578818*
X578000Y502375*
X577455Y503125*
X617818Y508750D02*
Y502000D01*
X615364Y505375D02*
X620273D01*
X627636Y511375D02*
X622727Y499375D01*
X630091Y505375D02*
X635000D01*
X639091Y509875D02*
X638273Y509500D01*
X637727Y508375*
X637455Y506500*
Y505375*
X637727Y503500*
X638273Y502375*
X639091Y502000*
X639636*
X640455Y502375*
X641000Y503500*
X641273Y505375*
Y506500*
X641000Y508375*
X640455Y509500*
X639636Y509875*
X639091*
X644000Y502750D02*
X643727Y502375D01*
X644000Y502000*
X644273Y502375*
X644000Y502750*
X648364Y509875D02*
X647545Y509500D01*
X647000Y508375*
X646727Y506500*
Y505375*
X647000Y503500*
X647545Y502375*
X648364Y502000*
X648909*
X649727Y502375*
X650273Y503500*
X650545Y505375*
Y506500*
X650273Y508375*
X649727Y509500*
X648909Y509875*
X648364*
X406545Y485875D02*
X409545D01*
X407909Y482875*
X408727*
X409273Y482500*
X409545Y482125*
X409818Y481000*
Y480250*
X409545Y479125*
X409000Y478375*
X408182Y478000*
X407364*
X406545Y478375*
X406273Y478750*
X406000Y479500*
X416091Y485875D02*
X413364Y478000D01*
X412273Y485875D02*
X416091D01*
X496455D02*
X499455D01*
X497818Y482875*
X498636*
X499182Y482500*
X499455Y482125*
X499727Y481000*
Y480250*
X499455Y479125*
X498909Y478375*
X498091Y478000*
X497273*
X496455Y478375*
X496182Y478750*
X495909Y479500*
X503545Y485875D02*
X502727Y485500D01*
X502455Y484750*
Y484000*
X502727Y483250*
X503273Y482875*
X504364Y482500*
X505182Y482125*
X505727Y481375*
X506000Y480625*
Y479500*
X505727Y478750*
X505455Y478375*
X504636Y478000*
X503545*
X502727Y478375*
X502455Y478750*
X502182Y479500*
Y480625*
X502455Y481375*
X503000Y482125*
X503818Y482500*
X504909Y482875*
X505455Y483250*
X505727Y484000*
Y484750*
X505455Y485500*
X504636Y485875*
X503545*
X532000Y484000D02*
X544000D01*
X538000Y478000D02*
Y490000D01*
X541000Y493300D02*
Y487000D01*
Y493300D02*
X542964D01*
X543618Y493000*
X543836Y492700*
X544055Y492100*
Y491500*
X543836Y490900*
X543618Y490600*
X542964Y490300*
X541000D02*
X542964D01*
X543618Y490000*
X543836Y489700*
X544055Y489100*
Y488200*
X543836Y487600*
X543618Y487300*
X542964Y487000*
X541000*
X564636Y485875D02*
X566818Y482125D01*
Y478000*
X569000Y485875D02*
X566818Y482125D01*
X571455Y485875D02*
Y478000D01*
Y485875D02*
X575000D01*
X571455Y482125D02*
X573636D01*
X571455Y478000D02*
X575000D01*
X581273Y484750D02*
X580727Y485500D01*
X579909Y485875*
X578818*
X578000Y485500*
X577455Y484750*
Y484000*
X577727Y483250*
X578000Y482875*
X578545Y482500*
X580182Y481750*
X580727Y481375*
X581000Y481000*
X581273Y480250*
Y479125*
X580727Y478375*
X579909Y478000*
X578818*
X578000Y478375*
X577455Y479125*
X617818Y484750D02*
Y478000D01*
X615364Y481375D02*
X620273D01*
X627636Y487375D02*
X622727Y475375D01*
X630091Y481375D02*
X635000D01*
X639091Y485875D02*
X638273Y485500D01*
X637727Y484375*
X637455Y482500*
Y481375*
X637727Y479500*
X638273Y478375*
X639091Y478000*
X639636*
X640455Y478375*
X641000Y479500*
X641273Y481375*
Y482500*
X641000Y484375*
X640455Y485500*
X639636Y485875*
X639091*
X644000Y478750D02*
X643727Y478375D01*
X644000Y478000*
X644273Y478375*
X644000Y478750*
X648364Y485875D02*
X647545Y485500D01*
X647000Y484375*
X646727Y482500*
Y481375*
X647000Y479500*
X647545Y478375*
X648364Y478000*
X648909*
X649727Y478375*
X650273Y479500*
X650545Y481375*
Y482500*
X650273Y484375*
X649727Y485500*
X648909Y485875*
X648364*
X409545Y461875D02*
X406818D01*
X406545Y458500*
X406818Y458875*
X407636Y459250*
X408455*
X409273Y458875*
X409818Y458125*
X410091Y457000*
X409818Y456250*
X409545Y455125*
X409000Y454375*
X408182Y454000*
X407364*
X406545Y454375*
X406273Y454750*
X406000Y455500*
X416091Y461875D02*
X413364D01*
X413091Y458500*
X413364Y458875*
X414182Y459250*
X415000*
X415818Y458875*
X416364Y458125*
X416636Y457000*
X416364Y456250*
X416091Y455125*
X415545Y454375*
X414727Y454000*
X413909*
X413091Y454375*
X412818Y454750*
X412545Y455500*
X419364Y454750D02*
X419091Y454375D01*
X419364Y454000*
X419636Y454375*
X419364Y454750*
X422091Y460375D02*
X422636Y460750D01*
X423455Y461875*
Y454000*
X426182Y460000D02*
Y460375D01*
X426455Y461125*
X426727Y461500*
X427273Y461875*
X428364*
X428909Y461500*
X429182Y461125*
X429455Y460375*
Y459625*
X429182Y458875*
X428636Y457750*
X425909Y454000*
X429727*
X499318Y460000D02*
Y460375D01*
X499591Y461125*
X499864Y461500*
X500409Y461875*
X501500*
X502045Y461500*
X502318Y461125*
X502591Y460375*
Y459625*
X502318Y458875*
X501773Y457750*
X499045Y454000*
X502864*
X532000Y460000D02*
X544000D01*
X538000Y454000D02*
Y466000D01*
X544273Y467800D02*
X544055Y468400D01*
X543618Y469000*
X543182Y469300*
X542309*
X541873Y469000*
X541436Y468400*
X541218Y467800*
X541000Y466900*
Y465400*
X541218Y464500*
X541436Y463900*
X541873Y463300*
X542309Y463000*
X543182*
X543618Y463300*
X544055Y463900*
X544273Y464500*
X564636Y461875D02*
X566818Y458125D01*
Y454000*
X569000Y461875D02*
X566818Y458125D01*
X571455Y461875D02*
Y454000D01*
Y461875D02*
X575000D01*
X571455Y458125D02*
X573636D01*
X571455Y454000D02*
X575000D01*
X581273Y460750D02*
X580727Y461500D01*
X579909Y461875*
X578818*
X578000Y461500*
X577455Y460750*
Y460000*
X577727Y459250*
X578000Y458875*
X578545Y458500*
X580182Y457750*
X580727Y457375*
X581000Y457000*
X581273Y456250*
Y455125*
X580727Y454375*
X579909Y454000*
X578818*
X578000Y454375*
X577455Y455125*
X617818Y460750D02*
Y454000D01*
X615364Y457375D02*
X620273D01*
X627636Y463375D02*
X622727Y451375D01*
X630091Y457375D02*
X635000D01*
X639091Y461875D02*
X638273Y461500D01*
X637727Y460375*
X637455Y458500*
Y457375*
X637727Y455500*
X638273Y454375*
X639091Y454000*
X639636*
X640455Y454375*
X641000Y455500*
X641273Y457375*
Y458500*
X641000Y460375*
X640455Y461500*
X639636Y461875*
X639091*
X644000Y454750D02*
X643727Y454375D01*
X644000Y454000*
X644273Y454375*
X644000Y454750*
X648364Y461875D02*
X647545Y461500D01*
X647000Y460375*
X646727Y458500*
Y457375*
X647000Y455500*
X647545Y454375*
X648364Y454000*
X648909*
X649727Y454375*
X650273Y455500*
X650545Y457375*
Y458500*
X650273Y460375*
X649727Y461500*
X648909Y461875*
X648364*
X406000Y436375D02*
X406545Y436750D01*
X407364Y437875*
Y430000*
X413364Y437875D02*
X410636D01*
X410364Y434500*
X410636Y434875*
X411455Y435250*
X412273*
X413091Y434875*
X413636Y434125*
X413909Y433000*
X413636Y432250*
X413364Y431125*
X412818Y430375*
X412000Y430000*
X411182*
X410364Y430375*
X410091Y430750*
X409818Y431500*
X416364Y436375D02*
X416909Y436750D01*
X417727Y437875*
Y430000*
X420455Y430750D02*
X420182Y430375D01*
X420455Y430000*
X420727Y430375*
X420455Y430750*
X426727Y435250D02*
X426455Y434125D01*
X425909Y433375*
X425091Y433000*
X424818*
X424000Y433375*
X423455Y434125*
X423182Y435250*
Y435625*
X423455Y436750*
X424000Y437500*
X424818Y437875*
X425091*
X425909Y437500*
X426455Y436750*
X426727Y435250*
Y433375*
X426455Y431500*
X425909Y430375*
X425091Y430000*
X424545*
X423727Y430375*
X423455Y431125*
X433000Y437875D02*
X430273Y430000D01*
X429182Y437875D02*
X433000D01*
X500273Y436375D02*
X500818Y436750D01*
X501636Y437875*
Y430000*
X532000Y436000D02*
X544000D01*
X538000Y430000D02*
Y442000D01*
X541000Y445300D02*
Y439000D01*
Y445300D02*
X542527D01*
X543182Y445000*
X543618Y444400*
X543836Y443800*
X544055Y442900*
Y441400*
X543836Y440500*
X543618Y439900*
X543182Y439300*
X542527Y439000*
X541000*
X567636Y437875D02*
Y430000D01*
Y437875D02*
X571455Y430000D01*
Y437875D02*
Y430000D01*
X575545Y437875D02*
X575000Y437500D01*
X574455Y436750*
X574182Y436000*
X573909Y434875*
Y433000*
X574182Y431875*
X574455Y431125*
X575000Y430375*
X575545Y430000*
X576636*
X577182Y430375*
X577727Y431125*
X578000Y431875*
X578273Y433000*
Y434875*
X578000Y436000*
X577727Y436750*
X577182Y437500*
X576636Y437875*
X575545*
X617818Y436750D02*
Y430000D01*
X615364Y433375D02*
X620273D01*
X627636Y439375D02*
X622727Y427375D01*
X630091Y433375D02*
X635000D01*
X639091Y437875D02*
X638273Y437500D01*
X637727Y436375*
X637455Y434500*
Y433375*
X637727Y431500*
X638273Y430375*
X639091Y430000*
X639636*
X640455Y430375*
X641000Y431500*
X641273Y433375*
Y434500*
X641000Y436375*
X640455Y437500*
X639636Y437875*
X639091*
X644000Y430750D02*
X643727Y430375D01*
X644000Y430000*
X644273Y430375*
X644000Y430750*
X648364Y437875D02*
X647545Y437500D01*
X647000Y436375*
X646727Y434500*
Y433375*
X647000Y431500*
X647545Y430375*
X648364Y430000*
X648909*
X649727Y430375*
X650273Y431500*
X650545Y433375*
Y434500*
X650273Y436375*
X649727Y437500*
X648909Y437875*
X648364*
X406000Y412375D02*
X406545Y412750D01*
X407364Y413875*
Y406000*
X413364Y413875D02*
X410636D01*
X410364Y410500*
X410636Y410875*
X411455Y411250*
X412273*
X413091Y410875*
X413636Y410125*
X413909Y409000*
X413636Y408250*
X413364Y407125*
X412818Y406375*
X412000Y406000*
X411182*
X410364Y406375*
X410091Y406750*
X409818Y407500*
X420182Y413875D02*
X417455Y406000D01*
X416364Y413875D02*
X420182D01*
X422909Y406750D02*
X422636Y406375D01*
X422909Y406000*
X423182Y406375*
X422909Y406750*
X428364Y413875D02*
X425636Y408625D01*
X429727*
X428364Y413875D02*
Y406000D01*
X433545Y413875D02*
X432727Y413500D01*
X432455Y412750*
Y412000*
X432727Y411250*
X433273Y410875*
X434364Y410500*
X435182Y410125*
X435727Y409375*
X436000Y408625*
Y407500*
X435727Y406750*
X435455Y406375*
X434636Y406000*
X433545*
X432727Y406375*
X432455Y406750*
X432182Y407500*
Y408625*
X432455Y409375*
X433000Y410125*
X433818Y410500*
X434909Y410875*
X435455Y411250*
X435727Y412000*
Y412750*
X435455Y413500*
X434636Y413875*
X433545*
X500273Y412375D02*
X500818Y412750D01*
X501636Y413875*
Y406000*
X532000Y412000D02*
X544000D01*
X538000Y406000D02*
Y418000D01*
X541000Y421300D02*
Y415000D01*
Y421300D02*
X543836D01*
X541000Y418300D02*
X542745D01*
X541000Y415000D02*
X543836D01*
X564636Y413875D02*
X566818Y410125D01*
Y406000*
X569000Y413875D02*
X566818Y410125D01*
X571455Y413875D02*
Y406000D01*
Y413875D02*
X575000D01*
X571455Y410125D02*
X573636D01*
X571455Y406000D02*
X575000D01*
X581273Y412750D02*
X580727Y413500D01*
X579909Y413875*
X578818*
X578000Y413500*
X577455Y412750*
Y412000*
X577727Y411250*
X578000Y410875*
X578545Y410500*
X580182Y409750*
X580727Y409375*
X581000Y409000*
X581273Y408250*
Y407125*
X580727Y406375*
X579909Y406000*
X578818*
X578000Y406375*
X577455Y407125*
X617818Y412750D02*
Y406000D01*
X615364Y409375D02*
X620273D01*
X627636Y415375D02*
X622727Y403375D01*
X630091Y409375D02*
X635000D01*
X639091Y413875D02*
X638273Y413500D01*
X637727Y412375*
X637455Y410500*
Y409375*
X637727Y407500*
X638273Y406375*
X639091Y406000*
X639636*
X640455Y406375*
X641000Y407500*
X641273Y409375*
Y410500*
X641000Y412375*
X640455Y413500*
X639636Y413875*
X639091*
X644000Y406750D02*
X643727Y406375D01*
X644000Y406000*
X644273Y406375*
X644000Y406750*
X648364Y413875D02*
X647545Y413500D01*
X647000Y412375*
X646727Y410500*
Y409375*
X647000Y407500*
X647545Y406375*
X648364Y406000*
X648909*
X649727Y406375*
X650273Y407500*
X650545Y409375*
Y410500*
X650273Y412375*
X649727Y413500*
X648909Y413875*
X648364*
X0Y0D02*
M02*
