M48
;FILE_FORMAT=2:4
INCH,LZ
FMAT,2
ICI,OFF
;TYPE=PLATED
T1C.012
T2C.02
T3C.025
T4C.03543
T5C.037
T7C.04331
T8C.05512
T11C.15748
;TYPE=NON_PLATED
T6C.04331
T9C.15197
T10C.15748
%
M72
G90
G93X0Y0
T1C.012F0S0
X01022Y012198
X01022Y013198
X011774Y020888
X011962Y021283
X012174Y021478
X012405Y02168
X012614Y021871
X01222Y022198
X011996Y022581
X010365Y023047
X012467Y023056
X011981Y023447
X010618Y023447
X010899Y023644
X012484Y023644
X011099Y023841
X011989Y023841
X011319Y024038
X012498Y024038
X01022Y024198
X01022Y025198
X01122Y025198
X01222Y025198
X01267Y025893
X01122Y026198
X01022Y026198
X01222Y026198
X01122Y027198
X01222Y027198
X01022Y027198
X01122Y028198
X01022Y028198
X01222Y028198
X01122Y029198
X01222Y029198
X01022Y029198
X01122Y030198
X01022Y030198
X01222Y030198
X01022Y031198
X01322Y033198
X01422Y033198
X01322Y032198
X01422Y032198
X014952Y031956
X01322Y031198
X01422Y031198
X014953Y031023
X01322Y030198
X01422Y030198
X01322Y029198
X01422Y029198
X01322Y028198
X01422Y028198
X014953Y027871
X01322Y027198
X01422Y027198
X01322Y026198
X01422Y026198
X01322Y025198
X01422Y025198
X013966Y023256
X014015Y02266
X012793Y022533
X01403Y021871
X013809Y021678
X014022Y021478
X013817Y021283
X013591Y021085
X014052Y020888
X012841Y020315
X015213Y020101
X014085Y019904
X013484Y019904
X01327Y019709
X01389Y019709
X01422Y019198
X0149Y01907
X01422Y018198
X01422Y017198
X01422Y015198
X01322Y012198
X01422Y012198
X01322Y011198
X01422Y011198
X016824Y011189
X01522Y011198
X016415Y011371
X01622Y011594
X016023Y011756
X01522Y012198
X01722Y012198
X015827Y015099
X015432Y01532
X015235Y015521
X017668Y016953
X016824Y017963
X016417Y018059
X016023Y018065
X015432Y018077
X017138Y018133
X01622Y01829
X015826Y018298
X015236Y018305
X016614Y019727
X015629Y019754
X017005Y019854
X01622Y020198
X017525Y020198
X015622Y020343
X015407Y021091
X01622Y021198
X01531Y022069
X01622Y022198
X015356Y022665
X01522Y023198
X01622Y023198
X01522Y024198
X01722Y024198
X016374Y024336
X016025Y024339
X016018Y025556
X017598Y025569
X017007Y025596
X016222Y025706
X015826Y025723
X01622Y026198
X01522Y026198
X01622Y027198
X01522Y027198
X017192Y027871
X015531Y029534
X01522Y030198
X01722Y030198
X01588Y03053
X01722Y031198
X01522Y033198
X01722Y033198
X01622Y033198
X01922Y033198
X01822Y033198
X018497Y031806
X017992Y031536
X018496Y030316
X01922Y030198
X018501Y029406
X01922Y028198
X019231Y027787
X02012Y025689
X019763Y025655
X018282Y02558
X019374Y025525
X017992Y024436
X019719Y024381
X01922Y024198
X019633Y023339
X01922Y023198
X019879Y02266
X01922Y022198
X01922Y021198
X019614Y020525
X01922Y020198
X017906Y019878
X018385Y019839
X019767Y019707
X017801Y018555
X019985Y018553
X018868Y018322
X019247Y018304
X019967Y018271
X018447Y01826
X018054Y018259
X019607Y018259
X019249Y017348
X01922Y012198
X01822Y012198
X02122Y012198
X02022Y012198
X02222Y012198
X022207Y016334
X021211Y016352
X02222Y017198
X02122Y017198
X02022Y017198
X02122Y018198
X020336Y019116
X02122Y019198
X021165Y019665
X021106Y020888
X021131Y021282
X021134Y021675
X021068Y022466
X021395Y023053
X021136Y024234
X020787Y024665
X02122Y025198
X02222Y026198
X02122Y026198
X021166Y027022
X02222Y027198
X021363Y027476
X02122Y028198
X02022Y028198
X02222Y028198
X02122Y029198
X02222Y029198
X02022Y029198
X02122Y030198
X02022Y030198
X02222Y030198
X021658Y03113
X02122Y031198
X02022Y031198
X020559Y031793
X021986Y0321
X02122Y032198
X02122Y033198
X02222Y033198
X02022Y033198
X02322Y033198
X02422Y033198
X02322Y032198
X024818Y032028
X02322Y031198
X02422Y031198
X024809Y030532
X02322Y030198
X02422Y030198
X02322Y029198
X02422Y029198
X02322Y028198
X02422Y028198
X02422Y027198
X02322Y027198
X02422Y026198
X02322Y026198
X025036Y025318
X025167Y023746
X025102Y023115
X02413Y020116
X02422Y019198
X02322Y017198
X02422Y017198
X024198Y016343
X023221Y016306
X02322Y012198
X02422Y012198
X02668Y010631
X02726Y010638
X026326Y010876
X02564Y011609
X026923Y011769
X025337Y011809
X025306Y016336
X027509Y016646
X02722Y017198
X026215Y017507
X026169Y017772
X025921Y018021
X025306Y018729
X02722Y019198
X02622Y019198
X02622Y020198
X026916Y020375
X026435Y02102
X026755Y021556
X027699Y021565
X027294Y02161
X025589Y02226
X02722Y023198
X026532Y023745
X025301Y024059
X025241Y024373
X025239Y025633
X02522Y026198
X02522Y027198
X02622Y027198
X02769Y027206
X027375Y027746
X02522Y028198
X02622Y028198
X02622Y029198
X02522Y029198
X02522Y030198
X026054Y030548
X02722Y031198
X025353Y031408
X026066Y032072
X02522Y032198
X027301Y032279
X02622Y033198
X02522Y033198
X02722Y033198
X02922Y033198
X02822Y033198
X028325Y032279
X02922Y032198
X029498Y031973
X02822Y031198
X027863Y028258
X02922Y025198
X029454Y024376
X02922Y024198
X02922Y023198
X030178Y022484
X028152Y021467
X029766Y020647
X02822Y018198
X029922Y0166
X028303Y01176
X029672Y011734
X031253Y011189
X032248Y011334
X031647Y011372
X032039Y011569
X031443Y011749
X031843Y011753
X031062Y011763
X032431Y011785
X03122Y013198
X03122Y014198
X03222Y014198
X032037Y015107
X032019Y016196
X032303Y01623
X031295Y018438
X032357Y019533
X03222Y020198
X032508Y02054
X03122Y022198
X03222Y022198
X031352Y022989
X030715Y023115
X030861Y023429
X031049Y023745
X03078Y024064
X03084Y02469
X03222Y025198
X031124Y025591
X032107Y026141
X03122Y026198
X031243Y026871
X03222Y031198
X031315Y032115
X03022Y032198
X03222Y032198
X03122Y033198
X03222Y033198
X03022Y033198
X03322Y033198
X03422Y033198
X03284Y032219
X03322Y032198
X03422Y032198
X034196Y032189
X03322Y031198
X03422Y031198
X03322Y028198
X033696Y0278
X033148Y025141
X03346Y024057
X03322Y023198
X035064Y020355
X033662Y019347
X035186Y01885
X035041Y018329
X033372Y01828
X033194Y017912
X035041Y017311
X032906Y017255
X032924Y016855
X03384Y016839
X03441Y016819
X033359Y016041
X035031Y015887
X03422Y015198
X033053Y013671
X033908Y013129
X033658Y013125
X034203Y011722
X034597Y011701
X034988Y011683
X03368Y011605
X03287Y011596
X03422Y011198
X033546Y010391
X03522Y011198
X03722Y011198
X03722Y012198
X03622Y012198
X03722Y013198
X03522Y013198
X03622Y013198
X03622Y014198
X035627Y014969
X036109Y017639
X03522Y021198
X03522Y022198
X03522Y023198
X03522Y024198
X03722Y027198
X03622Y027198
X03722Y028198
X03606Y028824
X037392Y028972
X036106Y029084
X036023Y029481
X035929Y03023
X03722Y031198
X03522Y031198
X035409Y032196
X03722Y032198
X03722Y033198
X03522Y033198
X03622Y033198
X03922Y033198
X03822Y033198
X038214Y029794
X03868Y029081
X039186Y028878
X03922Y028198
X038224Y028198
X03822Y027198
X03922Y027198
X039801Y026852
X038793Y025811
X03922Y025198
X039683Y023107
X040129Y022189
X03787Y014983
X03822Y012198
X03822Y011198
X04222Y012198
X04122Y013198
X04222Y013198
X041386Y017026
X040684Y018721
X04122Y019198
X04022Y019198
X04222Y019198
X04222Y020198
X04122Y020198
X04022Y020198
X041112Y021078
X04022Y021198
X041477Y022288
X041129Y023054
X042119Y023825
X04222Y024198
X04022Y024198
X04122Y024198
X042599Y025261
X042518Y025567
X042495Y025901
X04222Y028198
X04022Y028198
X04122Y028198
X04222Y029198
X04122Y029198
X04022Y029198
X041849Y029327
X04222Y030198
X04022Y030198
X04122Y030198
X041533Y030719
X04022Y031198
X04022Y032198
X04022Y033198
X04122Y033198
X04222Y033198
X04322Y033198
X04422Y033198
X04322Y032198
X04422Y032198
X04322Y031198
X04422Y031198
X04322Y030198
X04422Y030198
X04422Y029198
X043695Y02614
X045205Y025505
X04322Y024198
X04422Y024198
X042773Y023774
X043696Y023585
X04422Y023198
X04322Y022198
X043043Y021803
X04322Y021198
X044682Y02096
X04422Y020198
X04307Y020193
X044975Y020156
X04422Y019198
X043106Y019197
X043003Y017524
X042987Y017104
X04422Y013198
X04322Y013198
X04322Y012198
X04322Y011198
X04522Y011198
X04522Y012198
X04622Y012198
X04722Y013198
X04522Y013198
X04622Y013198
X04722Y014198
X04722Y015198
X047521Y015736
X045967Y016519
X04722Y017198
X045522Y017528
X04722Y018198
X046129Y019025
X04722Y019198
X045365Y019359
X045401Y020159
X04722Y020198
X04622Y020198
X04722Y021198
X046254Y021418
X046291Y022617
X04722Y023198
X04522Y023198
X04722Y024198
X04522Y024198
X046667Y024471
X04622Y025198
X04722Y025198
X045531Y025414
X04622Y026198
X04722Y028198
X04522Y029198
X04722Y030198
X046298Y032462
X04722Y033198
X04622Y033198
X04522Y033198
X04822Y033198
X04822Y030198
X04922Y030198
X04922Y029198
X04822Y029198
X04922Y028198
X04822Y028198
X04922Y027198
X04822Y025198
X04922Y025198
X04822Y024198
X04922Y024198
X04822Y021198
X04922Y021198
X04922Y020198
X04822Y020198
X04922Y019198
X04822Y019198
X04822Y018198
X04922Y018198
X048986Y018055
X04922Y015198
X04822Y015198
X04822Y014198
X04922Y014198
X04822Y013198
X04922Y013198
X04922Y012198
X04922Y011198
X05022Y011198
X05022Y012198
X05122Y013198
X05222Y013198
X05022Y013198
X05222Y014198
X05122Y014198
X05022Y014198
X05022Y015198
X05122Y016198
X05222Y016198
X05022Y017198
X05222Y017198
X05122Y017198
X05022Y018198
X05022Y019198
X05122Y019198
X05222Y019198
X05222Y020198
X05022Y020198
X05122Y020198
X05022Y021198
X05122Y022198
X05222Y022198
X05122Y023198
X05222Y023198
X05022Y023198
X05022Y024198
X05222Y025198
X05122Y025198
X05022Y025198
X05122Y026198
X05222Y026198
X05022Y026198
X05022Y027198
X05122Y027198
X05222Y027198
X05222Y028198
X05122Y029198
X05222Y029198
X05022Y030198
X05122Y030198
X05222Y030198
T2C.02F0S0
X021558Y022067
X015544Y028109
X031789Y018358
X033257Y010932
X042168Y027251
T3C.025F0S0
X029287Y016553
X028644Y016556
X034145Y029187
X035102Y029177
X032002Y01717
X031523Y014676
X039555Y017346
X04044Y017346
X040958Y021788
X042636Y024745
X042035Y024767
X043111Y024724
X043824Y021278
X046534Y016016
T4C.03543F0S0
X023244Y019556
X023244Y020556
X023244Y021556
X023244Y022556
X023244Y023556
X023244Y024556
X039385Y011109
X041385Y011109
X040385Y011109
X042385Y011109
T5C.037F0S0
X018072Y021522
X017052Y021552
X017598Y022069
X017934Y022634
X017054Y022664
X029121Y029948
X028226Y029948
X027297Y029939
X030076Y018813
X030839Y015842
X030546Y016818
X030759Y01768
X030543Y030248
X032052Y030346
X033578Y030346
X034882Y030348
X038191Y02528
X038205Y024671
X039143Y021771
X039136Y020889
X039142Y020031
X039173Y019147
X044102Y013981
X04309Y013992
X041723Y013997
X040584Y014658
X043076Y015107
X041807Y015155
X044078Y015156
X041489Y027122
X040665Y027132
X041636Y031372
X04087Y031381
X041598Y03211
X04087Y032114
T6C.04331F0S0
X046024Y012749
X050531Y022486
X050531Y016465
T7C.04331F0S0
X046024Y011568
X051712Y022486
X051712Y016465
T8C.05512F0S0
X047626Y027554
X047626Y029184
T9C.15197F0S0
X050516Y028369
T10C.15748F0S0
X011575Y011575
X011575Y032047
X051732Y011575
T11C.15748F0S0
X051732Y032047
M30
