*
*
G04 PADS VX.2.3 Build Number: 9191294 generated Gerber (RS-274-X) file*
G04 PC Version=2.1*
*
%IN "Car_Vide2o.pcb"*%
*
%MOIN*%
*
%FSLAX35Y35*%
*
*
*
*
G04 PC Standard Apertures*
*
*
G04 Thermal Relief Aperture macro.*
%AMTER*
1,1,$1,0,0*
1,0,$1-$2,0,0*
21,0,$3,$4,0,0,45*
21,0,$3,$4,0,0,135*
%
*
*
G04 Annular Aperture macro.*
%AMANN*
1,1,$1,0,0*
1,0,$2,0,0*
%
*
*
G04 Odd Aperture macro.*
%AMODD*
1,1,$1,0,0*
1,0,$1-0.005,0,0*
%
*
*
G04 PC Custom Aperture Macros*
*
*
*
*
*
*
G04 PC Aperture Table*
*
%ADD010C,0.001*%
%ADD011R,0.09843X0.02362*%
%ADD012R,0.01181X0.07087*%
%ADD013R,0.07087X0.01181*%
%ADD014R,0.20866X0.20866*%
%ADD015C,0.03937*%
%ADD016R,0.038X0.038*%
%ADD017R,0.05512X0.04528*%
%ADD018R,0.01969X0.01969*%
%ADD019R,0.01969X0.01968*%
%ADD020O,0.01X0.07874*%
%ADD021R,0.07874X0.11811*%
%ADD022R,0.01968X0.01969*%
%ADD023R,0.05906X0.04724*%
%ADD024R,0.036X0.036*%
%ADD025R,0.036X0.05*%
%ADD026R,0.02165X0.07087*%
%ADD027R,0.07087X0.02165*%
%ADD028R,0.15945X0.15945*%
%ADD029R,0.07874X0.23622*%
%ADD030R,0.04724X0.05906*%
%ADD031R,0.07874X0.04724*%
%ADD033R,0.0315X0.09843*%
%ADD034R,0.05906X0.01575*%
%ADD035R,0.05906X0.05906*%
%ADD041R,0.05X0.036*%
%ADD042R,0.04724X0.1378*%
%ADD043R,0.10236X0.1378*%
%ADD045R,0.1378X0.04724*%
%ADD046R,0.1378X0.10236*%
%ADD047R,0.00984X0.01969*%
%ADD048R,0.01969X0.00984*%
%ADD049R,0.07087X0.07087*%
%ADD050R,0.01969X0.01968*%
%ADD051R,0.01968X0.01969*%
%ADD054C,0.01*%
%ADD117R,0.09843X0.05906*%
%ADD118R,0.13386X0.09843*%
%ADD119R,0.12598X0.09843*%
*
*
*
*
G04 PC Circuitry*
G04 Layer Name Car_Vide2o.pcb - circuitry*
%LPD*%
*
*
G04 PC Custom Flashes*
G04 Layer Name Car_Vide2o.pcb - flashes*
%LPD*%
*
*
G04 PC Circuitry*
G04 Layer Name Car_Vide2o.pcb - circuitry*
%LPD*%
*
G54D10*
G54D11*
G01X358293Y203507D03*
Y198507D03*
Y193507D03*
Y188507D03*
X383765D03*
Y193507D03*
Y198507D03*
Y203507D03*
X421537Y185243D03*
Y180243D03*
Y175243D03*
Y170243D03*
X447009D03*
Y175243D03*
Y180243D03*
Y185243D03*
X421823Y227881D03*
Y222881D03*
Y217881D03*
Y212881D03*
X447295D03*
Y217881D03*
Y222881D03*
Y227881D03*
X423978Y322211D03*
Y317211D03*
Y312211D03*
Y307211D03*
X449450D03*
Y312211D03*
Y317211D03*
Y322211D03*
X383743Y158129D03*
Y163129D03*
Y168129D03*
Y173129D03*
X358270D03*
Y168129D03*
Y163129D03*
Y158129D03*
G54D12*
X152356Y191163D03*
X154325D03*
X156293D03*
X158262D03*
X160230D03*
X162199D03*
X164167D03*
X166136D03*
X168104D03*
X170073D03*
X172041D03*
X174010D03*
X175978D03*
X177947D03*
X179915D03*
X181884D03*
X183852D03*
X185821D03*
X187789D03*
X189758D03*
X191726D03*
X193695D03*
X195663D03*
X197632D03*
X199600D03*
Y250218D03*
X197632D03*
X195663D03*
X193695D03*
X191726D03*
X189758D03*
X187789D03*
X185821D03*
X183852D03*
X181884D03*
X179915D03*
X177947D03*
X175978D03*
X174010D03*
X172041D03*
X170073D03*
X168104D03*
X166136D03*
X164167D03*
X162199D03*
X160230D03*
X158262D03*
X156293D03*
X154325D03*
X152356D03*
G54D13*
X205506Y197068D03*
Y199037D03*
Y201005D03*
Y202974D03*
Y204942D03*
Y206911D03*
Y208879D03*
Y210848D03*
Y212816D03*
Y214785D03*
Y216753D03*
Y218722D03*
Y220690D03*
Y222659D03*
Y224627D03*
Y226596D03*
Y228564D03*
Y230533D03*
Y232501D03*
Y234470D03*
Y236439D03*
Y238407D03*
Y240376D03*
Y242344D03*
Y244313D03*
X146451D03*
Y242344D03*
Y240376D03*
Y238407D03*
Y236439D03*
Y234470D03*
Y232501D03*
Y230533D03*
Y228564D03*
Y226596D03*
Y224627D03*
Y222659D03*
Y220690D03*
Y218722D03*
Y216753D03*
Y214785D03*
Y212816D03*
Y210848D03*
Y208879D03*
Y206911D03*
Y204942D03*
Y202974D03*
Y201005D03*
Y199037D03*
Y197068D03*
G54D14*
X175978Y220690D03*
G54D15*
X323800Y195329D03*
X411001Y270562D03*
X305973Y302263D03*
X325140Y205470D03*
X305004Y272131D03*
X298077Y275587D03*
X309910Y280614D03*
X310484Y256447D03*
X283232Y272962D03*
X248940Y227983D03*
X216957Y199033D03*
X213386Y202986D03*
X168113Y183218D03*
X324363Y137497D03*
X320470Y133374D03*
X164152Y176865D03*
X273828Y276954D03*
X449451Y300022D03*
G54D16*
X248156Y309556D03*
Y315856D03*
X260542Y309681D03*
Y315981D03*
X247622Y237463D03*
Y243763D03*
G54D17*
X282930Y200113D03*
X293167D03*
Y206412D03*
X282930D03*
X202611Y273855D03*
X192374D03*
Y267555D03*
X202611D03*
G54D18*
X248663Y285423D03*
X244037Y232052D03*
X298259Y181024D03*
X209084Y273709D03*
X186254Y269924D03*
X223379Y311280D03*
X300371Y204778D03*
X276669Y200105D03*
X459682Y168559D03*
X460993Y159831D03*
X249349Y276315D03*
G54D19*
X245119Y285423D03*
X247581Y232052D03*
X219835Y311280D03*
X463226Y168559D03*
X457449Y159831D03*
X245805Y276315D03*
G54D20*
X253474Y123528D03*
X255442D03*
X257411D03*
X259379D03*
X261348D03*
X263316D03*
X265285D03*
X267253D03*
X269222D03*
X271190D03*
X273159D03*
X275127D03*
X277096D03*
X279064D03*
X281033D03*
X283001D03*
X284970D03*
X286938D03*
X288907D03*
X290875D03*
X292844D03*
X294812D03*
X296781D03*
X298749D03*
X300718D03*
X302686D03*
X304655D03*
X306623D03*
X308592D03*
X310560D03*
X312529D03*
X314497D03*
X316466D03*
X318434D03*
X320403D03*
X322371D03*
X324340D03*
X326308D03*
X328277D03*
X330245D03*
X332214D03*
X334182D03*
X336151D03*
X338119D03*
X340088D03*
X342056D03*
X344025D03*
X345993D03*
X347962D03*
X349930D03*
G54D21*
X244770Y113291D03*
X358592D03*
G54D22*
X298259Y177480D03*
X209084Y270165D03*
X186254Y273468D03*
X300371Y201234D03*
X276669Y203649D03*
G54D23*
X343870Y274631D03*
Y285655D03*
X350271Y149630D03*
Y138607D03*
X415241Y261063D03*
Y250039D03*
X405376Y261063D03*
Y250039D03*
X408545Y287449D03*
Y276425D03*
X313157Y314470D03*
Y303446D03*
X328408Y316638D03*
Y305614D03*
X418484Y287449D03*
Y276425D03*
X354085Y316264D03*
Y305240D03*
X273151Y316542D03*
Y305518D03*
X354298Y274631D03*
Y285655D03*
X292054Y186546D03*
Y175522D03*
X341940Y316488D03*
Y305465D03*
X283389Y316542D03*
Y305518D03*
X462909Y318294D03*
Y307270D03*
G54D24*
X341358Y146712D03*
X333858D03*
X294988Y313497D03*
Y305997D03*
X466988Y183132D03*
X459488D03*
X458797Y201494D03*
X466297D03*
X466688Y239792D03*
X459188D03*
G54D25*
X337608Y138712D03*
X463238Y175132D03*
X462547Y209494D03*
X462938Y231792D03*
G54D26*
X295883Y265403D03*
X292734D03*
X289584D03*
X286434D03*
X283285D03*
X280135D03*
X276986D03*
X273836D03*
X270686D03*
X267537D03*
X264387D03*
Y222096D03*
X267537D03*
X270686D03*
X273836D03*
X276986D03*
X280135D03*
X283285D03*
X286434D03*
X289584D03*
X292734D03*
X295883D03*
G54D27*
X258482Y259497D03*
Y256348D03*
Y253198D03*
Y250049D03*
Y246899D03*
Y243749D03*
Y240600D03*
Y237450D03*
Y234301D03*
Y231151D03*
Y228001D03*
X301789D03*
Y231151D03*
Y234301D03*
Y237450D03*
Y240600D03*
Y243749D03*
Y246899D03*
Y250049D03*
Y253198D03*
Y256348D03*
Y259497D03*
G54D28*
X280135Y243749D03*
G54D29*
X446995Y276364D03*
X431247D03*
X381992Y314303D03*
X366244D03*
G54D30*
X484914Y312705D03*
X473891D03*
G54D31*
X205478Y325714D03*
X238549D03*
G54D33*
X493459Y324685D03*
X473774D03*
G54D34*
X431063Y257629D03*
Y255070D03*
Y252510D03*
Y249951D03*
X447598D03*
Y252510D03*
Y255070D03*
Y257629D03*
X365627Y293361D03*
Y290802D03*
Y288243D03*
Y285684D03*
X382163D03*
Y288243D03*
Y290802D03*
Y293361D03*
G54D35*
X439331Y253790D03*
X373895Y289522D03*
G54D41*
X302988Y309747D03*
G54D42*
X456307Y143038D03*
X464181D03*
G54D43*
X444496Y115676D03*
X475992D03*
G54D45*
X489756Y160715D03*
Y168589D03*
X489762Y220920D03*
Y228794D03*
G54D46*
X517118Y148904D03*
Y180400D03*
X517125Y209109D03*
Y240605D03*
G54D47*
X323029Y177021D03*
X321060D03*
X319092D03*
X317123D03*
Y165997D03*
X319092D03*
X321060D03*
X323029D03*
G54D48*
X314564Y174462D03*
Y172493D03*
Y170525D03*
Y168556D03*
X325588D03*
Y170525D03*
Y172493D03*
Y174462D03*
G54D49*
X320076Y171509D03*
G54D50*
X223319Y307019D03*
X219775D03*
X219842Y315352D03*
X223386D03*
X339477Y151541D03*
X335933D03*
X335837Y155158D03*
X339381D03*
X199708Y261133D03*
X203251D03*
X191890Y261196D03*
X195434D03*
X245108Y281555D03*
X248651D03*
X245668Y271887D03*
X249211D03*
G54D51*
X254202Y276325D03*
Y272781D03*
X172289Y172852D03*
Y176396D03*
X176670Y172852D03*
Y176396D03*
X180907Y172852D03*
Y176396D03*
X186267Y265187D03*
Y261643D03*
X179666Y264717D03*
Y261173D03*
X175821Y264627D03*
Y261084D03*
X171919Y264645D03*
Y261101D03*
X166103Y273668D03*
Y270125D03*
X166087Y260984D03*
Y264528D03*
X272047Y203744D03*
Y200201D03*
X456508Y222072D03*
Y218529D03*
X254339Y285486D03*
Y281942D03*
G54D54*
X100000Y336220D02*
X533071D01*
Y100000*
X100000*
Y336220*
G54D117*
X406214Y152920D03*
Y163156D03*
G54D118*
X369856Y250614D03*
G54D119*
Y216756D03*
X0Y0D02*
M02*
