*
*
G04 PADS VX.2.3 Build Number: 9191294 generated Gerber (RS-274-X) file*
G04 PC Version=2.1*
*
%IN "Car_Vide2o.pcb"*%
*
%MOIN*%
*
%FSLAX35Y35*%
*
*
*
*
G04 PC Standard Apertures*
*
*
G04 Thermal Relief Aperture macro.*
%AMTER*
1,1,$1,0,0*
1,0,$1-$2,0,0*
21,0,$3,$4,0,0,45*
21,0,$3,$4,0,0,135*
%
*
*
G04 Annular Aperture macro.*
%AMANN*
1,1,$1,0,0*
1,0,$2,0,0*
%
*
*
G04 Odd Aperture macro.*
%AMODD*
1,1,$1,0,0*
1,0,$1-0.005,0,0*
%
*
*
G04 PC Custom Aperture Macros*
*
*
*
*
*
*
G04 PC Aperture Table*
*
%ADD010C,0.001*%
%ADD052C,0.006*%
%ADD053C,0.008*%
%ADD054C,0.01*%
%ADD068C,0.005*%
%ADD069C,0.00787*%
%ADD070C,0.0118*%
%ADD071C,0.00787*%
%ADD072C,0.0015*%
%ADD073C,0.00394*%
*
*
*
*
G04 PC Circuitry*
G04 Layer Name Car_Vide2o.pcb - circuitry*
%LPD*%
*
G54D10*
G01X497311Y204346D02*
X497296Y204353D01*
X497214Y204108*
X497206Y204092*
X497006Y203842*
X496989Y203829*
X496789Y203729*
X496775Y203724*
X496475Y203674*
X496467*
X497176*
X497311Y204346*
X496467Y203674D02*
X495967D01*
X495951Y203676*
X495801Y203726*
X495772Y203751*
X495722Y203851*
X495717Y203874*
Y206724*
X495722Y206746*
X495772Y206846*
X495795Y206868*
X495895Y206918*
X495917Y206924*
X495317*
X495339Y206918*
X495439Y206868*
X495462Y206846*
X495512Y206746*
X495517Y206724*
Y203874*
X495512Y203851*
X495462Y203751*
X495439Y203729*
X495339Y203679*
X495317Y203674*
X496467*
X496779Y245994D02*
X496179D01*
X496201Y245989*
X496301Y245939*
X496324Y245917*
X496374Y245817*
X496379Y245794*
Y244494*
X496329Y244444*
X496379Y244394*
Y242944*
X496374Y242922*
X496324Y242822*
X496301Y242800*
X496201Y242750*
X496179Y242744*
X496779*
X496757Y242750*
X496657Y242800*
X496634Y242822*
X496584Y242922*
X496579Y242944*
Y245794*
X496584Y245817*
X496634Y245917*
X496657Y245939*
X496757Y245989*
X496779Y245994*
X494967Y202924D02*
X492567D01*
Y202874*
X494967*
Y202924*
X495279Y245994D02*
X494679D01*
X494701Y245989*
X494801Y245939*
X494824Y245917*
X494874Y245817*
X494879Y245794*
Y242944*
X494874Y242922*
X494824Y242822*
X494801Y242800*
X494701Y242750*
X494679Y242744*
X495279*
X495257Y242750*
X495157Y242800*
X495134Y242822*
X495084Y242922*
X495079Y242944*
Y244394*
X495129Y244444*
X495079Y244494*
Y245794*
X495084Y245817*
X495134Y245917*
X495157Y245939*
X495257Y245989*
X495279Y245994*
X496329Y244444D02*
X495129D01*
X496329*
X492067Y206724D02*
Y204374D01*
Y206724*
X490617Y203674D02*
X490595Y203679D01*
X490495Y203729*
X490472Y203751*
X490422Y203851*
X490417Y203874*
X490412Y203851*
X490362Y203751*
X490339Y203729*
X490239Y203679*
X490217Y203674*
X490617*
X492067Y204374D02*
X492017Y204324D01*
X491967*
X491922Y204351*
X490636Y206924*
X490217*
X490239Y206918*
X490339Y206868*
X490362Y206846*
X490412Y206746*
X490417Y206724*
Y206574*
X490467Y206624*
X490517*
X490562Y206596*
X492048Y203674*
X492067*
Y204374*
X492267Y206924D02*
X491867D01*
X491889Y206918*
X491989Y206868*
X492012Y206846*
X492062Y206746*
X492067Y206724*
X492072Y206746*
X492122Y206846*
X492145Y206868*
X492245Y206918*
X492267Y206924*
X494429Y241994D02*
X492029D01*
Y241944*
X494429*
Y241994*
X491529Y245794D02*
Y243444D01*
Y245794*
X489867Y203674D02*
X489851Y203676D01*
X489701Y203726*
X489675Y203746*
X489575Y203896*
X489568Y203912*
X488832Y207006*
X488659Y206937*
X487865Y203911*
X487864Y203908*
X487814Y203758*
X487783Y203726*
X487633Y203676*
X487617Y203674*
X488117*
X488082Y203688*
X487982Y203788*
X487967Y203824*
Y204124*
X487969Y204139*
X488219Y204939*
X488267Y204974*
X488217Y205024*
X488219Y205036*
X488619Y206636*
X488667Y206674*
X488717*
X488766Y206634*
X489116Y205034*
X489117Y205024*
X489067Y204974*
X489115Y204936*
X489365Y203986*
X489367Y203974*
Y203774*
X489333Y203726*
X489183Y203676*
X489167Y203674*
X489867*
X490079Y242744D02*
X490057Y242750D01*
X489957Y242800*
X489934Y242822*
X489884Y242922*
X489879Y242944*
X489874Y242922*
X489824Y242822*
X489801Y242800*
X489701Y242750*
X489679Y242744*
X490079*
X491529Y243444D02*
X491479Y243394D01*
X491429*
X491384Y243422*
X490098Y245994*
X489679*
X489701Y245989*
X489801Y245939*
X489824Y245917*
X489874Y245817*
X489879Y245794*
Y245644*
X489929Y245694*
X489979*
X490024Y245667*
X491510Y242744*
X491529*
Y243444*
X491729Y245994D02*
X491329D01*
X491351Y245989*
X491451Y245939*
X491474Y245917*
X491524Y245817*
X491529Y245794*
X491534Y245817*
X491584Y245917*
X491607Y245939*
X491707Y245989*
X491729Y245994*
X489067Y204974D02*
X488267D01*
X489067*
X489329Y242744D02*
X489313Y242747D01*
X489163Y242797*
X489137Y242817*
X489037Y242967*
X489030Y242983*
X488294Y246077*
X488121Y246007*
X487327Y242982*
X487326Y242979*
X487276Y242829*
X487245Y242797*
X487095Y242747*
X487079Y242744*
X487579*
X487544Y242759*
X487444Y242859*
X487429Y242894*
Y243194*
X487431Y243209*
X487681Y244009*
X487729Y244044*
X487679Y244094*
X487680Y244107*
X488080Y245707*
X488129Y245744*
X488179*
X488228Y245705*
X488578Y244105*
X488579Y244094*
X488529Y244044*
X488577Y244007*
X488827Y243057*
X488829Y243044*
Y242844*
X488795Y242797*
X488645Y242747*
X488629Y242744*
X489329*
X488529Y244044D02*
X487729D01*
X488529*
X487047Y184355D02*
X486969Y184628D01*
X486892Y184859*
X486782Y185007*
X486477Y185235*
X486385Y185252*
X486389Y185251*
X486409Y185241*
X486649Y185041*
X486662Y185025*
X486742Y184865*
X486744Y184861*
X486824Y184661*
X486827Y184649*
X486867Y184369*
Y184362*
Y183682*
Y183675*
X486827Y183395*
X486825Y183387*
X486745Y183147*
X486737Y183132*
X486617Y182972*
X486602Y182959*
X486322Y182799*
X486309Y182794*
X486063Y182732*
X486249*
X486474Y182807*
X486779Y183036*
X486892Y183223*
X486969Y183457*
X487047Y183729*
Y184355*
X484681Y143953D02*
X484631Y143978D01*
X484609Y144000*
X484573Y144071*
X484538Y144000*
X484516Y143978*
X484465Y143953*
X484681*
X485883Y144463D02*
X485853Y144453D01*
X485813*
X485769Y144480*
X484742Y146533*
X484465*
X484516Y146508*
X484538Y146485*
X484578Y146405*
X484583Y146383*
Y146303*
X484613Y146313*
X484653*
X484698Y146285*
X485883Y143954*
Y144463*
X486001Y146533D02*
X485785D01*
X485836Y146508*
X485858Y146485*
X485893Y146415*
X485929Y146485*
X485951Y146508*
X486001Y146533*
X485952Y185312D02*
X485509D01*
X485560Y185287*
X485582Y185265*
X485622Y185185*
X485627Y185162*
Y182882*
X485622Y182860*
X485582Y182780*
X485560Y182758*
X485509Y182732*
X485909*
X485841Y182755*
X485812Y182780*
X485772Y182860*
X485767Y182882*
Y185162*
X485772Y185185*
X485812Y185265*
X485847Y185291*
X485952Y185312*
X487254Y204499D02*
X487242Y204505D01*
X487113Y204204*
X487110Y204198*
X486960Y203948*
X486948Y203935*
X486698Y203735*
X486675Y203724*
X486375Y203674*
X486367*
X486167*
X486145Y203679*
X485945Y203779*
X485932Y203788*
X485782Y203938*
X485775Y203946*
X485675Y204096*
X485669Y204109*
X485519Y204609*
X485517Y204620*
X485467Y205320*
Y205324*
X485467*
Y205328*
X485517Y205928*
X485520Y205941*
X485720Y206491*
X485722Y206496*
X485822Y206696*
X485832Y206709*
X485959Y206837*
X485939Y206829*
X485701Y206686*
X485560Y206498*
X485316Y205959*
X485217Y205270*
Y204881*
X485315Y204538*
X485414Y204241*
X485508Y204005*
X485892Y203718*
X486127Y203624*
X486363*
X486648Y203671*
X486931Y203860*
X487122Y204147*
X487254Y204499*
X487261Y206202D02*
X487135Y206920D01*
X487102Y206888*
X487067Y206874*
X486917*
X486905Y206875*
X486707Y206925*
X486418Y206973*
X486399Y206969*
X486675Y206923*
X486697Y206914*
X486897Y206764*
X486906Y206755*
X487106Y206505*
X487113Y206493*
X487242Y206192*
X487261Y206202*
X483685Y182732D02*
X483635Y182758D01*
X483612Y182780*
X483577Y182851*
X483542Y182780*
X483520Y182758*
X483469Y182732*
X483685*
X484887Y183242D02*
X484857Y183232D01*
X484817*
X484772Y183260*
X483746Y185312*
X483469*
X483520Y185287*
X483542Y185265*
X483582Y185185*
X483587Y185162*
Y185082*
X483617Y185092*
X483657*
X483702Y185065*
X484887Y182734*
Y183242*
X485005Y185312D02*
X484789D01*
X484840Y185287*
X484862Y185265*
X484897Y185194*
X484932Y185265*
X484955Y185287*
X485005Y185312*
X486716Y243570D02*
X486704Y243576D01*
X486575Y243275*
X486572Y243269*
X486422Y243019*
X486410Y243005*
X486160Y242805*
X486137Y242795*
X485837Y242745*
X485829Y242744*
X485629*
X485607Y242750*
X485407Y242850*
X485394Y242859*
X485244Y243009*
X485237Y243017*
X485137Y243167*
X485131Y243180*
X484981Y243680*
X484979Y243691*
X484929Y244391*
Y244394*
X484929*
Y244399*
X484979Y244999*
X484982Y245012*
X485182Y245562*
X485184Y245567*
X485284Y245767*
X485294Y245780*
X485421Y245908*
X485401Y245900*
X485163Y245757*
X485022Y245569*
X484777Y245030*
X484679Y244341*
Y243951*
X484777Y243609*
X484876Y243312*
X484970Y243076*
X485354Y242788*
X485589Y242694*
X485825*
X486110Y242742*
X486393Y242931*
X486584Y243217*
X486716Y243570*
X486723Y245273D02*
X486596Y245991D01*
X486564Y245959*
X486529Y245944*
X486379*
X486367Y245946*
X486169Y245995*
X485880Y246044*
X485861Y246040*
X486137Y245994*
X486159Y245984*
X486359Y245834*
X486368Y245826*
X486568Y245576*
X486575Y245564*
X486704Y245263*
X486723Y245273*
X483465Y146533D02*
X483041D01*
X483109Y146510*
X483138Y146485*
X483178Y146405*
X483183Y146383*
Y144103*
X483178Y144080*
X483138Y144000*
X483109Y143975*
X483041Y143953*
X483465*
X483397Y143975*
X483369Y144000*
X483329Y144080*
X483323Y144103*
Y146383*
X483329Y146405*
X483369Y146485*
X483397Y146510*
X483465Y146533*
X483029Y183792D02*
X482583D01*
X482669Y183771*
X482706Y183734*
X482746Y183574*
X482747Y183562*
Y183002*
X482745Y182987*
X482705Y182867*
X482702Y182861*
X482755Y182887*
X482777Y182892*
X482887*
Y183602*
X482890Y183618*
X482930Y183738*
X482961Y183770*
X483029Y183792*
X482881Y184754D02*
X482785Y185299D01*
X482773Y185287*
X482737Y185272*
X482577*
X482555Y185278*
X482531Y185290*
X482647Y185202*
X482660Y185188*
X482780Y184988*
X482783Y184982*
X482881Y184754*
X482126Y185318D02*
X482113Y185315D01*
X482096Y185308*
X482126Y185318*
X482067Y144425D02*
X482021Y144287D01*
X482012Y144272*
X481852Y144072*
X481836Y144058*
X481676Y143978*
X481662Y143974*
X481662D02*
X481537Y143953D01*
X481972*
X482067Y144425*
X482077Y182730D02*
X482056Y182737D01*
X482071Y182731*
X482077Y182730*
X482023Y185279D02*
X481925Y185240D01*
X481815Y185129*
X481661Y184938*
X481506Y184510*
X481428Y183961*
X481466Y183493*
X481620Y183070*
X481885Y182805*
X481983Y182766*
X481977Y182772*
X481857Y182932*
X481852Y182940*
X481772Y183100*
X481769Y183108*
X481649Y183508*
X481647Y183518*
X481607Y183958*
Y183962*
Y184282*
X481608Y184289*
X481648Y184569*
X481650Y184578*
X481730Y184818*
X481731Y184821*
X481811Y185021*
X481816Y185030*
X481896Y185150*
X481902Y185158*
X482022Y185278*
X482023Y185279*
X480945Y143953D02*
X480877Y143975D01*
X480849Y144000*
X480809Y144080*
X480803Y144103*
Y146383*
X480809Y146405*
X480849Y146485*
X480871Y146508*
X480921Y146533*
X480545*
X480596Y146508*
X480618Y146485*
X480658Y146405*
X480663Y146383*
Y144103*
X480658Y144080*
X480618Y144000*
X480596Y143978*
X480545Y143953*
X480945*
X467369Y276472D02*
X467239Y277122D01*
X466180*
X466230Y277072*
Y274072*
X466225Y274049*
X466175Y273949*
X466152Y273927*
X466052Y273877*
X466030Y273872*
X466680*
X466664Y273874*
X466514Y273924*
X466485Y273949*
X466435Y274049*
X466430Y274072*
Y277072*
X466480Y277122*
X466730*
X466742Y277120*
X466942Y277070*
X466946Y277069*
X467096Y277019*
X467125Y276994*
X467225Y276794*
X467226Y276791*
X467363Y276472*
X467369*
X465980Y277122D02*
X465468D01*
X465295Y276472*
X465297*
X465434Y276791*
X465440Y276802*
X465590Y277002*
X465614Y277019*
X465764Y277069*
X465768Y277070*
X465968Y277120*
X465980Y277122*
X464980Y273872D02*
X464964Y273874D01*
X464814Y273924*
X464788Y273944*
X464688Y274094*
X464681Y274110*
X463945Y277204*
X463772Y277135*
X462978Y274109*
X462977Y274106*
X462927Y273956*
X462896Y273924*
X462746Y273874*
X462730Y273872*
X463230*
X463195Y273886*
X463095Y273986*
X463080Y274022*
Y274322*
X463082Y274337*
X463332Y275137*
X463380Y275172*
X463330Y275222*
X463331Y275234*
X463731Y276834*
X463780Y276872*
X463830*
X463879Y276832*
X464229Y275232*
X464230Y275222*
X464180Y275172*
X464228Y275135*
X464478Y274185*
X464480Y274172*
Y273972*
X464446Y273924*
X464296Y273874*
X464280Y273872*
X464980*
X466695Y292581D02*
X466597Y292924D01*
X466500Y293215*
X466359Y293403*
X465974Y293691*
X465479Y293781*
X465857Y293687*
X465877Y293677*
X466177Y293427*
X466190Y293411*
X466290Y293211*
X466291Y293207*
X466391Y292957*
X466394Y292946*
X466444Y292596*
X466445Y292588*
Y291738*
X466444Y291731*
X466394Y291381*
X466392Y291373*
X466292Y291073*
X466285Y291058*
X466135Y290858*
X466120Y290845*
X465770Y290645*
X465757Y290640*
X465357Y290540*
X465329Y290541*
X465179Y290591*
X465150Y290616*
X465100Y290716*
X465095Y290738*
Y293588*
X465100Y293611*
X465150Y293711*
X465185Y293737*
X465435Y293787*
X465441Y293788*
X465440*
X464695*
X464717Y293783*
X464817Y293733*
X464840Y293711*
X464890Y293611*
X464895Y293588*
Y290738*
X464890Y290716*
X464840Y290616*
X464817Y290594*
X464717Y290544*
X464695Y290538*
X465687*
X465971Y290633*
X466357Y290923*
X466499Y291159*
X466597Y291453*
X466695Y291795*
Y292581*
X464180Y275172D02*
X463380D01*
X464180*
X463995Y293588D02*
Y291238D01*
Y293588*
X462379Y274671D02*
X462331Y274958D01*
X462237Y275194*
X462001Y275430*
X461660Y275576*
X461630Y275622*
X461658Y275667*
X461950Y275813*
X462135Y275997*
X462181Y276183*
X462229Y276423*
X462182Y276704*
X462045Y276934*
X461765Y277073*
X461377Y277122*
X461230*
X461238Y277121*
X461538Y277071*
X461552Y277067*
X461752Y276967*
X461770Y276952*
X461920Y276752*
X461929Y276730*
X461979Y276430*
X461980Y276422*
X461980*
X461979Y276415*
X461929Y276065*
X461920Y276042*
X461770Y275842*
X461760Y275832*
X461560Y275682*
X461542Y275673*
X461342Y275623*
X461330Y275622*
X461280*
X461287Y275621*
X461637Y275571*
X461656Y275565*
X461906Y275415*
X461925Y275394*
X462075Y275094*
X462079Y275079*
X462129Y274729*
X462130Y274722*
X462130*
X462129Y274715*
X462079Y274365*
X462073Y274346*
X461923Y274096*
X461910Y274082*
X461710Y273932*
X461688Y273922*
X461388Y273872*
X461380*
X461477*
X461862Y273920*
X462146Y274109*
X462332Y274342*
X462379Y274671*
X462545Y290538D02*
X462523Y290544D01*
X462423Y290594*
X462400Y290616*
X462350Y290716*
X462345Y290738*
X462340Y290716*
X462290Y290616*
X462267Y290594*
X462167Y290544*
X462145Y290538*
X462545*
X463995Y291238D02*
X463945Y291188D01*
X463895*
X463850Y291216*
X462564Y293788*
X462145*
X462167Y293783*
X462267Y293733*
X462290Y293711*
X462340Y293611*
X462345Y293588*
Y293438*
X462395Y293488*
X462445*
X462489Y293461*
X463976Y290538*
X463995*
Y291238*
X464195Y293788D02*
X463795D01*
X463817Y293783*
X463917Y293733*
X463940Y293711*
X463990Y293611*
X463995Y293588*
X464000Y293611*
X464050Y293711*
X464073Y293733*
X464173Y293783*
X464195Y293788*
X461380Y273872D02*
X461030D01*
X461014Y273874*
X460864Y273924*
X460835Y273949*
X460785Y274049*
X460780Y274072*
Y275572*
X460830Y275622*
X460780Y275672*
Y276922*
X460785Y276944*
X460835Y277044*
X460858Y277067*
X460958Y277117*
X460980Y277122*
X460380*
X460402Y277117*
X460502Y277067*
X460525Y277044*
X460575Y276944*
X460580Y276922*
Y274072*
X460575Y274049*
X460525Y273949*
X460502Y273927*
X460402Y273877*
X460380Y273872*
X461380*
X461280Y275622D02*
X460830D01*
X461280*
X461745Y291888D02*
X460995D01*
X461007Y291887*
X461207Y291837*
X461243Y291801*
X461293Y291601*
X461295Y291588*
Y290888*
X461292Y290873*
X461242Y290723*
X461230Y290703*
X461192Y290665*
X461219Y290681*
X461223Y290683*
X461323Y290733*
X461345Y290738*
X461495*
Y291638*
X461497Y291654*
X461547Y291804*
X461579Y291836*
X461729Y291886*
X461745Y291888*
X461489Y293066D02*
X461362Y293785D01*
X461330Y293753*
X461295Y293738*
X461095*
X461073Y293744*
X460979Y293790*
X460745Y293829*
X460955Y293787*
X460975Y293778*
X461175Y293628*
X461188Y293614*
X461338Y293364*
X461341Y293358*
X461470Y293057*
X461489Y293066*
X460718Y290494D02*
X460533Y290540D01*
X460529Y290541*
X460379Y290591*
X460355Y290608*
X460205Y290808*
X460200Y290816*
X460100Y291016*
X460097Y291024*
X459947Y291524*
X459945Y291534*
X459895Y292084*
Y292088*
Y292488*
Y292496*
X459945Y292846*
X459947Y292854*
X460047Y293154*
X460048Y293157*
X460148Y293407*
X460153Y293416*
X460253Y293566*
X460260Y293574*
X460410Y293724*
X460429Y293736*
X460576Y293785*
X460665Y293829*
X460510Y293791*
X460273Y293696*
X460132Y293555*
X459939Y293314*
X459744Y292776*
X459645Y292087*
X459694Y291499*
X459888Y290966*
X460223Y290631*
X460458Y290537*
X460718Y290494*
X452429Y158490D02*
X451479D01*
X451429Y158540*
Y159590*
X451379*
Y158540*
X451329Y158490*
X450379*
Y158440*
X451329*
X451379Y158390*
Y157340*
X451429*
Y158390*
X451479Y158440*
X452429*
Y158490*
X449879Y158833D02*
X449781Y159176D01*
X449684Y159467*
X449543Y159655*
X449158Y159943*
X448663Y160033*
X449041Y159939*
X449061Y159929*
X449361Y159679*
X449373Y159663*
X449473Y159463*
X449475Y159459*
X449575Y159209*
X449578Y159197*
X449628Y158847*
X449629Y158840*
Y157990*
X449628Y157983*
X449578Y157633*
X449576Y157625*
X449476Y157325*
X449469Y157310*
X449319Y157110*
X449303Y157097*
X448953Y156897*
X448941Y156892*
X448541Y156792*
X448513Y156793*
X448363Y156843*
X448334Y156868*
X448284Y156968*
X448279Y156990*
Y159840*
X448284Y159863*
X448334Y159963*
X448369Y159989*
X448619Y160039*
X448625Y160040*
X448624*
X447879*
X447901Y160035*
X448001Y159985*
X448023Y159963*
X448073Y159863*
X448079Y159840*
Y156990*
X448073Y156968*
X448023Y156868*
X448001Y156846*
X447901Y156796*
X447879Y156790*
X448870*
X448870D02*
X449155Y156885D01*
X449541Y157175*
X449683Y157411*
X449781Y157705*
X449879Y158047*
Y158833*
X447420Y157464D02*
X447401Y157473D01*
X447273Y157218*
X447271Y157215*
X447121Y156965*
X447097Y156944*
X446847Y156844*
X446838Y156841*
X446588Y156791*
X446579Y156790*
X446079*
X446063Y156793*
X445913Y156843*
X445884Y156868*
X445834Y156968*
X445829Y156990*
Y158490*
X445879Y158540*
X445829Y158590*
Y159840*
X445834Y159863*
X445884Y159963*
X445913Y159988*
X446063Y160038*
X446079Y160040*
X446629*
X446641Y160039*
X446841Y159989*
X446856Y159982*
X447006Y159882*
X447014Y159876*
X447214Y159676*
X447221Y159666*
X447348Y159456*
X447368Y159466*
X447192Y160040*
X445429*
X445451Y160035*
X445551Y159985*
X445573Y159963*
X445623Y159863*
X445629Y159840*
Y156990*
X445623Y156968*
X445573Y156868*
X445551Y156846*
X445451Y156796*
X445429Y156790*
X447240*
X447420Y157464*
X446879Y158790D02*
X446864Y158755D01*
X446664Y158555*
X446629Y158540*
X446429*
X446441Y158539*
X446641Y158489*
X446651Y158485*
X446751Y158435*
X446777Y158404*
X446877Y158054*
X446879Y158040*
Y158790*
X444922Y157463D02*
X444908Y157470D01*
X444826Y157225*
X444818Y157209*
X444618Y156959*
X444601Y156946*
X444401Y156846*
X444387Y156841*
X444087Y156791*
X444079Y156790*
X444788*
X444922Y157463*
X444079Y156790D02*
X443579D01*
X443563Y156793*
X443413Y156843*
X443384Y156868*
X443334Y156968*
X443329Y156990*
Y159840*
X443334Y159863*
X443384Y159963*
X443406Y159985*
X443506Y160035*
X443529Y160040*
X442929*
X442951Y160035*
X443051Y159985*
X443073Y159963*
X443123Y159863*
X443129Y159840*
Y156990*
X443123Y156968*
X443073Y156868*
X443051Y156846*
X442951Y156796*
X442929Y156790*
X444079*
X426489Y126305D02*
X426479Y126306D01*
X426229Y126356*
X426192Y126386*
X426092Y126636*
X426089Y126655*
Y129605*
X426063*
X425878Y129374*
X425845Y129355*
X425445Y129305*
X425439*
X425639*
X425655Y129302*
X425805Y129252*
X425836Y129221*
X425886Y129071*
X425889Y129055*
Y126655*
X425885Y126636*
X425785Y126386*
X425761Y126360*
X425661Y126310*
X425639Y126305*
X426489*
X424589D02*
X424573Y126307D01*
X424423Y126357*
X424397Y126377*
X424297Y126527*
X424290Y126543*
X423554Y129637*
X423381Y129568*
X422587Y126542*
X422586Y126539*
X422536Y126389*
X422505Y126357*
X422355Y126307*
X422339Y126305*
X422839*
X422803Y126320*
X422803D02*
X422703Y126420D01*
X422703D02*
X422689Y126455D01*
Y126755*
X422691Y126770*
X422941Y127570*
X422989Y127605*
X422939Y127655*
X422940Y127667*
X423340Y129267*
X423389Y129305*
X423439*
X423488Y129266*
X423838Y127666*
X423839Y127655*
X423789Y127605*
X423837Y127568*
X424087Y126618*
X424089Y126605*
Y126405*
X424055Y126357*
X423905Y126307*
X423889Y126305*
X424589*
X423789Y127605D02*
X422989D01*
X423789*
X416267Y126837D02*
X416257D01*
X416170Y126618*
X416165Y126609*
X416065Y126459*
X416059Y126452*
X415959Y126352*
X415935Y126339*
X415935D02*
X415735Y126289D01*
X415735D02*
X415723Y126287D01*
X414573*
X414523Y126337*
X414532Y126365*
X414632Y126515*
X414635Y126519*
X414885Y126819*
X414888Y126822*
X415984Y127918*
X416128Y128159*
X416223Y128397*
Y128583*
X416175Y128920*
X416036Y129152*
X415755Y129339*
X415374Y129387*
X415349Y129383*
X415583Y129336*
X415603Y129327*
X415803Y129177*
X415820Y129156*
X415920Y128906*
X415923Y128895*
X415973Y128595*
Y128587*
X415972Y128577*
X415922Y128327*
X415921Y128321*
X415821Y128021*
X415815Y128009*
X415615Y127709*
X415611Y127704*
X415011Y127004*
X415009Y127002*
X414713Y126706*
X414566Y126461*
X414563Y126457*
X414423Y126270*
Y126087*
X416179*
X416267Y126837*
X415172Y129358D02*
X415038Y129339D01*
X414758Y129198*
X414569Y128916*
X414473Y128580*
Y128449*
X414508Y128380*
X414671Y128339*
X414784Y128377*
X414821Y128487*
X414777Y128618*
X414679Y128815*
X414673Y128837*
X414675Y128849*
X414725Y129049*
X414738Y129072*
X414888Y129222*
X414896Y129229*
X415046Y129329*
X415064Y129336*
X415172Y129358*
X413973Y126087D02*
X413958Y126090D01*
X413808Y126140*
X413782Y126159*
X413682Y126309*
X413675Y126325*
X412938Y129419*
X412765Y129350*
X411972Y126324*
X411971Y126321*
X411921Y126171*
X411889Y126140*
X411739Y126090*
X411723Y126087*
X412223*
X412188Y126102*
X412088Y126202*
X412073Y126237*
Y126537*
X412076Y126552*
X412326Y127352*
X412373Y127387*
X412323Y127437*
X412325Y127449*
X412725Y129049*
X412773Y129087*
X412823*
X412872Y129048*
X413222Y127448*
X413223Y127437*
X413173Y127387*
X413222Y127350*
X413472Y126400*
X413473Y126387*
Y126187*
X413439Y126140*
X413289Y126090*
X413273Y126087*
X413973*
X413173Y127387D02*
X412373D01*
X413173*
X404894Y126233D02*
X404885Y126234D01*
X404635Y126284*
X404598Y126314*
X404498Y126564*
X404494Y126583*
Y129533*
X404468*
X404283Y129301*
X404251Y129283*
X403851Y129233*
X403844*
X404044*
X404060Y129230*
X404210Y129180*
X404242Y129148*
X404292Y128998*
X404294Y128983*
Y126583*
X404291Y126564*
X404191Y126314*
X404167Y126288*
X404067Y126238*
X404044Y126233*
X404894*
X402894Y127032D02*
X402846Y127319D01*
X402752Y127555*
X402516Y127791*
X402175Y127937*
X402144Y127983*
X402172Y128027*
X402465Y128174*
X402649Y128358*
X402696Y128544*
X402744Y128783*
X402697Y129065*
X402559Y129294*
X402280Y129434*
X401891Y129483*
X401744*
X401753Y129482*
X402053Y129432*
X402067Y129427*
X402267Y129327*
X402284Y129313*
X402434Y129113*
X402444Y129091*
X402494Y128791*
Y128783*
X402494*
Y128776*
X402444Y128426*
X402434Y128403*
X402284Y128203*
X402274Y128193*
X402074Y128043*
X402056Y128034*
X401856Y127984*
X401844Y127983*
X401794*
X401801Y127982*
X402151Y127932*
X402170Y127926*
X402420Y127776*
X402439Y127755*
X402589Y127455*
X402594Y127440*
X402644Y127090*
Y127083*
X402644*
Y127076*
X402594Y126726*
X402587Y126707*
X402437Y126457*
X402424Y126443*
X402224Y126293*
X402203Y126283*
X401903Y126233*
X401894*
X401991*
X402376Y126281*
X402660Y126470*
X402847Y126703*
X402894Y127032*
X401894Y126233D02*
X401544D01*
X401529Y126235*
X401379Y126285*
X401350Y126310*
X401300Y126410*
X401294Y126433*
Y127933*
X401344Y127983*
X401294Y128033*
Y129283*
X401300Y129305*
X401350Y129405*
X401372Y129427*
X401472Y129477*
X401494Y129483*
X400894*
X400917Y129477*
X401017Y129427*
X401039Y129405*
X401089Y129305*
X401094Y129283*
Y126433*
X401089Y126410*
X401039Y126310*
X401017Y126288*
X400917Y126238*
X400894Y126233*
X401894*
X401794Y127983D02*
X401344D01*
X401794*
X394745Y127274D02*
X394735D01*
X394647Y127055*
X394643Y127046*
X394543Y126896*
X394536Y126889*
X394436Y126789*
X394413Y126776*
X394213Y126726*
X394201Y126724*
X393051*
X393001Y126774*
X393009Y126802*
X393109Y126952*
X393113Y126956*
X393363Y127256*
X393366Y127259*
X394461Y128355*
X394606Y128596*
X394701Y128834*
Y129020*
X394653Y129357*
X394514Y129589*
X394233Y129776*
X393851Y129824*
X393826Y129820*
X394061Y129773*
X394081Y129764*
X394281Y129614*
X394297Y129593*
X394397Y129343*
X394400Y129332*
X394450Y129032*
X394451Y129024*
X394450Y129014*
X394400Y128764*
X394398Y128758*
X394298Y128458*
X394293Y128446*
X394093Y128146*
X394089Y128141*
X393489Y127441*
X393486Y127439*
X393191Y127143*
X393044Y126898*
X393041Y126894*
X392901Y126707*
Y126524*
X394657*
X394745Y127274*
X393650Y129795D02*
X393516Y129776D01*
X393235Y129635*
X393047Y129353*
X392951Y129017*
Y128886*
X392985Y128817*
X393149Y128776*
X393262Y128814*
X393298Y128924*
X393255Y129055*
X393156Y129252*
X393151Y129274*
X393153Y129286*
X393203Y129486*
X393216Y129509*
X393366Y129659*
X393373Y129666*
X393523Y129766*
X393541Y129773*
X393650Y129795*
X392350Y127323D02*
X392303Y127610D01*
X392208Y127846*
X391973Y128082*
X391631Y128228*
X391601Y128274*
X391629Y128319*
X391921Y128465*
X392106Y128650*
X392152Y128835*
X392200Y129075*
X392153Y129356*
X392016Y129586*
X391736Y129725*
X391348Y129774*
X391201*
X391209Y129773*
X391509Y129723*
X391523Y129719*
X391723Y129619*
X391741Y129604*
X391891Y129404*
X391900Y129382*
X391950Y129082*
X391951Y129074*
X391951*
Y129067*
X391901Y128717*
X391891Y128694*
X391741Y128494*
X391731Y128484*
X391531Y128334*
X391513Y128326*
X391313Y128276*
X391301Y128274*
X391251*
X391258*
X391608Y128224*
X391627Y128217*
X391877Y128067*
X391896Y128046*
X392046Y127746*
X392051Y127731*
X392101Y127381*
Y127374*
X392101*
Y127367*
X392051Y127017*
X392044Y126998*
X391894Y126748*
X391881Y126734*
X391681Y126584*
X391659Y126575*
X391359Y126525*
X391351Y126524*
X391448*
X391833Y126572*
X392117Y126761*
X392303Y126995*
X392350Y127323*
X391351Y126524D02*
X391001D01*
X390985Y126527*
X390835Y126577*
X390806Y126602*
X390756Y126702*
X390751Y126724*
Y128224*
X390801Y128274*
X390751Y128324*
Y129574*
X390756Y129596*
X390806Y129696*
X390829Y129719*
X390929Y129769*
X390951Y129774*
X390351*
X390373Y129769*
X390473Y129719*
X390496Y129696*
X390546Y129596*
X390551Y129574*
Y126724*
X390546Y126702*
X390496Y126602*
X390473Y126579*
X390373Y126529*
X390351Y126524*
X391351*
X391251Y128274D02*
X390801D01*
X391251*
X224988Y205986D02*
X224978Y205987D01*
X224728Y206037*
X224691Y206067*
X224591Y206317*
X224588Y206336*
Y209286*
X224562*
X224377Y209055*
X224344Y209036*
X223944Y208986*
X223938*
X224138*
X224153Y208983*
X224303Y208933*
X224335Y208902*
X224385Y208752*
X224388Y208736*
Y206336*
X224384Y206317*
X224284Y206067*
X224260Y206041*
X224160Y205991*
X224138Y205986*
X224988*
X225194Y214452D02*
X225184Y214453D01*
X224934Y214503*
X224897Y214533*
X224797Y214783*
X224794Y214802*
Y217752*
X224768*
X224583Y217521*
X224550Y217502*
X224150Y217452*
X224144*
X224344*
X224359Y217449*
X224509Y217399*
X224541Y217368*
X224591Y217218*
X224594Y217202*
Y214802*
X224590Y214783*
X224490Y214533*
X224466Y214507*
X224366Y214457*
X224344Y214452*
X225194*
X222975Y206811D02*
X222963Y206818D01*
X222833Y206516*
X222830Y206510*
X222680Y206260*
X222669Y206247*
X222419Y206047*
X222396Y206037*
X222096Y205987*
X222088Y205986*
X221888*
X221865Y205991*
X221665Y206091*
X221652Y206101*
X221502Y206251*
X221496Y206258*
X221396Y206408*
X221390Y206422*
X221240Y206922*
X221238Y206932*
X221188Y207632*
Y207636*
X221188*
Y207640*
X221238Y208240*
X221241Y208253*
X221441Y208803*
X221443Y208808*
X221543Y209008*
X221552Y209021*
X221680Y209149*
X221660Y209141*
X221422Y208998*
X221281Y208810*
X221036Y208272*
X220938Y207582*
Y207193*
X221035Y206851*
X221135Y206553*
X221135D02*
X221229Y206318D01*
X221612Y206030*
X221847Y205936*
X222083*
X222369Y205984*
X222651Y206172*
X222843Y206459*
X222975Y206811*
X222982Y208514D02*
X222855Y209233D01*
X222823Y209201*
X222788Y209186*
X222638*
X222625Y209187*
X222427Y209237*
X222138Y209285*
X222119Y209281*
X222396Y209235*
X222418Y209226*
X222618Y209076*
X222627Y209067*
X222827Y208817*
X222833Y208806*
X222963Y208504*
X222982Y208514*
X223194Y216495D02*
X223096Y216837D01*
X222999Y217128*
X222858Y217316*
X222473Y217605*
X221978Y217695*
X222356Y217600*
X222376Y217590*
X222676Y217340*
X222688Y217324*
X222788Y217124*
X222790Y217120*
X222890Y216870*
X222893Y216859*
X222943Y216509*
X222944Y216502*
Y215652*
X222943Y215645*
X222893Y215295*
X222891Y215286*
X222791Y214986*
X222784Y214972*
X222634Y214772*
X222618Y214758*
X222268Y214558*
X222256Y214553*
X221856Y214453*
X221828Y214454*
X221678Y214504*
X221649Y214529*
X221599Y214629*
X221594Y214652*
Y217502*
X221599Y217524*
X221649Y217624*
X221684Y217651*
X221934Y217701*
X221940Y217702*
X221939*
X221194*
X221216Y217697*
X221316Y217647*
X221338Y217624*
X221388Y217524*
X221394Y217502*
Y214652*
X221388Y214629*
X221338Y214529*
X221316Y214507*
X221216Y214457*
X221194Y214452*
X222185*
X222470Y214547*
X222856Y214836*
X222998Y215073*
X223096Y215367*
X223194Y215709*
Y216495*
X224078Y226819D02*
X223980Y227161D01*
X223883Y227452*
X223742Y227640*
X223358Y227929*
X222863Y228019*
X223240Y227924*
X223260Y227914*
X223560Y227664*
X223573Y227648*
X223673Y227448*
X223675Y227445*
X223775Y227195*
X223778Y227183*
X223828Y226833*
Y226826*
Y225976*
Y225969*
X223778Y225619*
X223776Y225610*
X223676Y225310*
X223668Y225296*
X223518Y225096*
X223503Y225083*
X223153Y224883*
X223140Y224877*
X222740Y224777*
X222712Y224779*
X222562Y224829*
X222533Y224854*
X222483Y224954*
X222478Y224976*
Y227826*
X222483Y227848*
X222533Y227948*
X222568Y227975*
X222818Y228025*
X222824Y228026*
X222824*
X222078*
X222100Y228021*
X222200Y227971*
X222223Y227948*
X222273Y227848*
X222278Y227826*
Y224976*
X222273Y224954*
X222223Y224854*
X222200Y224831*
X222100Y224781*
X222078Y224776*
X223070*
X223355Y224871*
X223740Y225160*
X223882Y225397*
X223980Y225691*
X224078Y226033*
Y226819*
X225183Y237584D02*
X224633D01*
X224649Y237581*
X224799Y237531*
X224833Y237484*
Y237234*
X224832Y237221*
X224232Y234971*
X224135Y234970*
X223485Y237320*
X223483Y237334*
Y237484*
X223517Y237531*
X223667Y237581*
X223683Y237584*
X223083*
X223099Y237581*
X223249Y237531*
X223282Y237494*
X223332Y237245*
X224121Y234334*
X224144*
X224885Y237246*
X224887Y237252*
X224987Y237502*
X225017Y237531*
X225167Y237581*
X225183Y237584*
X224989Y243869D02*
X224889D01*
X224989*
X225578Y246469D02*
X225448Y247119D01*
X224389*
X224439Y247069*
Y244069*
X224433Y244047*
X224383Y243947*
X224361Y243924*
X224261Y243874*
X224239Y243869*
X224889*
X224873Y243872*
X224723Y243922*
X224694Y243947*
X224644Y244047*
X224639Y244069*
Y247069*
X224689Y247119*
X224939*
X224951Y247118*
X225151Y247068*
X225154Y247067*
X225304Y247017*
X225333Y246992*
X225433Y246792*
X225435Y246789*
X225572Y246469*
X225578*
X224189Y247119D02*
X223677D01*
X223504Y246469*
X223506*
X223643Y246789*
X223649Y246799*
X223799Y246999*
X223823Y247017*
X223973Y247067*
X223976Y247068*
X224176Y247118*
X224189Y247119*
X221378Y227826D02*
Y225476D01*
Y227826*
X220538Y207336D02*
X219788D01*
X219800Y207334*
X220000Y207284*
X220036Y207248*
X220086Y207048*
X220088Y207036*
Y206336*
X220085Y206320*
X220035Y206170*
X220023Y206151*
X219985Y206113*
X220012Y206129*
X220015Y206131*
X220115Y206181*
X220138Y206186*
X220288*
Y207086*
X220290Y207102*
X220340Y207252*
X220372Y207283*
X220522Y207333*
X220538Y207336*
X220282Y208514D02*
X220155Y209233D01*
X220123Y209201*
X220088Y209186*
X219888*
X219865Y209191*
X219772Y209238*
X219538Y209277*
X219747Y209235*
X219768Y209226*
X219968Y209076*
X219980Y209062*
X220130Y208812*
X220133Y208806*
X220263Y208504*
X220282Y208514*
X220744Y215802D02*
X219994D01*
X220006Y215800*
X220206Y215750*
X220242Y215714*
X220292Y215514*
X220294Y215502*
Y214802*
X220291Y214786*
X220241Y214636*
X220229Y214616*
X220191Y214579*
X220218Y214595*
X220221Y214597*
X220321Y214647*
X220344Y214652*
X220494*
Y215552*
X220496Y215568*
X220546Y215718*
X220578Y215749*
X220728Y215799*
X220744Y215802*
X220488Y216980D02*
X220361Y217699D01*
X220329Y217666*
X220294Y217652*
X220094*
X220071Y217657*
X219978Y217704*
X219744Y217743*
X219953Y217701*
X219974Y217692*
X220174Y217542*
X220186Y217528*
X220336Y217278*
X220340Y217272*
X220469Y216970*
X220488Y216980*
X219511Y205941D02*
X219325Y205987D01*
X219322Y205989*
X219172Y206039*
X219148Y206056*
X218998Y206256*
X218993Y206264*
X218893Y206464*
X218890Y206472*
X218740Y206972*
X218738Y206981*
X218688Y207531*
Y207536*
Y207936*
Y207943*
X218738Y208293*
X218740Y208302*
X218840Y208602*
X218841Y208605*
X218941Y208855*
X218946Y208864*
X219046Y209014*
X219052Y209021*
X219202Y209171*
X219222Y209183*
X219368Y209232*
X219458Y209277*
X219303Y209238*
X219066Y209143*
X218925Y209003*
X218732Y208761*
X218536Y208224*
X218438Y207534*
X218487Y206947*
X218681Y206413*
X219016Y206079*
X219251Y205984*
X219511Y205941*
X219717Y214407D02*
X219531Y214453D01*
X219528Y214454*
X219378Y214504*
X219354Y214522*
X219204Y214722*
X219199Y214729*
X219099Y214929*
X219096Y214937*
X218946Y215437*
X218944Y215447*
X218894Y215997*
Y216002*
Y216402*
Y216409*
X218944Y216759*
X218946Y216768*
X219046Y217068*
X219047Y217070*
X219147Y217320*
X219152Y217330*
X219252Y217480*
X219258Y217487*
X219408Y217637*
X219428Y217649*
X219574Y217698*
X219664Y217743*
X219509Y217704*
X219272Y217609*
X219131Y217468*
X218938Y217227*
X218742Y216690*
X218644Y216000*
X218693Y215413*
X218887Y214879*
X219222Y214544*
X219457Y214450*
X219717Y214407*
X219928Y224776D02*
X219906Y224781D01*
X219806Y224831*
X219783Y224854*
X219733Y224954*
X219728Y224976*
X219723Y224954*
X219673Y224854*
X219650Y224831*
X219550Y224781*
X219528Y224776*
X219928*
X221378Y225476D02*
X221328Y225426D01*
X221278*
X221233Y225454*
X219947Y228026*
X219528*
X219550Y228021*
X219650Y227971*
X219673Y227948*
X219723Y227848*
X219728Y227826*
Y227676*
X219778Y227726*
X219828*
X219873Y227699*
X221359Y224776*
X221378*
Y225476*
X221578Y228026D02*
X221178D01*
X221200Y228021*
X221300Y227971*
X221323Y227948*
X221373Y227848*
X221378Y227826*
X221383Y227848*
X221433Y227948*
X221456Y227971*
X221556Y228021*
X221578Y228026*
X222532Y235132D02*
X222485Y235369D01*
X222391Y235606*
X222155Y235842*
X221814Y235988*
X221783Y236034*
X221807Y236077*
X222052Y236223*
X222242Y236413*
X222335Y236599*
X222383Y236884*
X222336Y237163*
X222148Y237398*
X221913Y237586*
X221584Y237633*
X221537Y237625*
X221791Y237583*
X221823Y237564*
X221973Y237364*
X221978Y237356*
X222078Y237156*
X222083Y237142*
X222133Y236842*
Y236834*
X222133*
Y236826*
X222083Y236526*
X222076Y236508*
X221926Y236258*
X221913Y236244*
X221713Y236094*
X221690Y236084*
X221383Y236040*
Y236028*
X221789Y235983*
X221809Y235977*
X222059Y235827*
X222078Y235806*
X222228Y235506*
X222233Y235492*
X222283Y235192*
Y235184*
X222283*
Y235178*
X222233Y234778*
X222226Y234758*
X222076Y234508*
X222063Y234494*
X221863Y234344*
X221841Y234334*
X221551Y234286*
X221967Y234332*
X222298Y234521*
X222485Y234802*
X222532Y235132*
X221511Y234288D02*
X221169Y234386D01*
X221161Y234389*
X221061Y234439*
X221036Y234468*
X220986Y234618*
X220983Y234634*
X220988Y234656*
X221036Y234751*
X221081Y234932*
X221041Y235052*
X220933Y235124*
X220822Y235049*
X220736Y234877*
X220779Y234658*
X220963Y234475*
X221249Y234332*
X221511Y234288*
X222988Y244669D02*
X222940Y244954D01*
X222940D02*
X222800Y245235D01*
X222513Y245426*
X222116Y245624*
X222113Y245626*
X221865Y245775*
X221666Y245874*
X221661Y245878*
X221511Y245978*
X221503Y245984*
X221453Y246034*
X221447Y246041*
X221347Y246191*
X221340Y246207*
X221290Y246407*
X221289Y246419*
X221290Y246429*
X221340Y246679*
X221342Y246688*
X221442Y246938*
X221459Y246959*
X221659Y247109*
X221680Y247118*
X221813Y247141*
X221656Y247121*
X221656D02*
X221375Y246933D01*
X221186Y246650*
X221139Y246369*
X221186Y246087*
X221326Y245855*
X221613Y245663*
X222059Y245465*
X222066Y245461*
X222365Y245261*
X222614Y245112*
X222629Y245099*
X222779Y244899*
X222787Y244881*
X222837Y244681*
X222839Y244669*
X222839*
X222838Y244662*
X222788Y244312*
X222785Y244301*
X222685Y244051*
X222664Y244026*
X222414Y243876*
X222397Y243870*
X222115Y243823*
X222471Y243867*
X222753Y244055*
X222941Y244337*
X222988Y244669*
X221392Y237601D02*
X221299Y237586D01*
X221135Y237504*
X221216Y237531*
X221392Y237601*
X222038Y243827D02*
X221780Y243870D01*
X221763Y243876*
X221513Y244026*
X221500Y244038*
X221300Y244288*
X221293Y244299*
X221114Y244701*
X221095Y244692*
X221268Y243870*
X221303Y243905*
X221323Y243917*
X221473Y243967*
X221507Y243966*
X221752Y243868*
X222038Y243827*
X222887Y246449D02*
X222846Y247105D01*
X222824Y247084*
X222811Y247074*
X222711Y247024*
X222689Y247019*
X222589*
X222576Y247021*
X222376Y247071*
X222375*
X222352Y247078*
X222507Y247016*
X222531Y246995*
X222681Y246745*
X222682Y246744*
X222859Y246435*
X222887Y246449*
X222120Y247144D02*
X222035Y247168D01*
X222012Y247165*
X222120Y247144*
X221080Y236978D02*
X221038Y237061D01*
X221033Y237084*
Y237126*
X220986Y237268*
X220983Y237284*
X220986Y237300*
X221036Y237450*
X221038Y237455*
X221013Y237443*
X220830Y237260*
X220783Y236980*
Y236896*
X220819Y236825*
X220933Y236786*
X221041Y236822*
X221080Y236978*
X220639Y243869D02*
X220616Y243874D01*
X220516Y243924*
X220503Y243934*
X220403Y244034*
X220392Y244050*
X219792Y245500*
X219789Y245519*
X219820Y245566*
X220066Y245664*
X220302Y245806*
X220441Y246036*
X220488Y246369*
X220441Y246699*
X220255Y246931*
X220022Y247071*
X219635Y247119*
X219489*
X219497Y247118*
X219797Y247068*
X219814Y247062*
X220064Y246912*
X220083Y246892*
X220183Y246692*
X220188Y246677*
X220238Y246377*
X220239Y246369*
X220239*
X220238Y246362*
X220188Y246012*
X220181Y245993*
X220031Y245743*
X220011Y245724*
X219811Y245624*
X219797Y245620*
X219497Y245570*
X219489Y245569*
X219535Y245538*
X220222Y243869*
X220639*
X219128Y226126D02*
X218378D01*
X218390Y226124*
X218590Y226074*
X218627Y226038*
X218677Y225838*
X218678Y225826*
Y225126*
X218676Y225110*
X218626Y224960*
X218613Y224941*
X218576Y224903*
X218602Y224919*
X218606Y224921*
X218706Y224971*
X218728Y224976*
X218878*
Y225876*
X218881Y225892*
X218931Y226042*
X218962Y226073*
X219112Y226123*
X219128Y226126*
X218037Y208435D02*
X217990Y208717D01*
X217802Y208998*
X217471Y209188*
X217084Y209236*
X216938*
X216945Y209235*
X217295Y209185*
X217313Y209179*
X217563Y209029*
X217580Y209012*
X217730Y208762*
X217737Y208743*
X217787Y208393*
X217788Y208386*
X217788*
X217787Y208380*
X217737Y207980*
X217723Y207951*
X217523Y207751*
X217518Y207746*
X217318Y207596*
X217296Y207587*
X216996Y207537*
X216988Y207536*
X217084*
X217470Y207584*
X217756Y207775*
X217990Y208009*
X218037Y208435*
X216688Y209236D02*
X216038D01*
X216060Y209231*
X216160Y209181*
X216182Y209158*
X216232Y209058*
X216238Y209036*
Y206186*
X216232Y206164*
X216182Y206064*
X216160Y206041*
X216060Y205991*
X216038Y205986*
X216638*
X216615Y205991*
X216515Y206041*
X216493Y206064*
X216443Y206164*
X216438Y206186*
Y207486*
X216488Y207536*
X216438Y207586*
Y209036*
X216443Y209058*
X216493Y209158*
X216522Y209183*
X216672Y209233*
X216688Y209236*
X216988Y207536D02*
X216488D01*
X216988*
X218243Y216900D02*
X218196Y217183D01*
X218009Y217464*
X217677Y217653*
X217290Y217702*
X217144*
X217151Y217701*
X217501Y217651*
X217519Y217645*
X217769Y217495*
X217786Y217478*
X217936Y217228*
X217943Y217209*
X217993Y216859*
X217994Y216852*
X217994*
X217993Y216846*
X217943Y216446*
X217929Y216416*
X217729Y216216*
X217724Y216212*
X217524Y216062*
X217502Y216053*
X217202Y216003*
X217194Y216002*
X217290*
X217676Y216050*
X217962Y216241*
X218196Y216475*
X218243Y216900*
X218872Y227304D02*
X218746Y228023D01*
X218713Y227991*
X218678Y227976*
X218478*
X218456Y227981*
X218362Y228028*
X218128Y228067*
X218338Y228025*
X218358Y228016*
X218558Y227866*
X218571Y227852*
X218721Y227602*
X218724Y227596*
X218853Y227294*
X218872Y227304*
X218783Y234613D02*
X218704Y234693D01*
X218533Y234778*
X218370Y234696*
X218289Y234534*
X218370Y234371*
X218533Y234290*
X218783Y234415*
Y234613*
X219239Y247119D02*
X218639D01*
X218661Y247114*
X218761Y247064*
X218783Y247042*
X218833Y246942*
X218839Y246919*
Y244069*
X218833Y244047*
X218783Y243947*
X218761Y243924*
X218661Y243874*
X218639Y243869*
X219239*
X219216Y243874*
X219116Y243924*
X219094Y243947*
X219044Y244047*
X219039Y244069*
Y245519*
X219089Y245569*
X219039Y245619*
Y246919*
X219044Y246942*
X219094Y247042*
X219116Y247064*
X219216Y247114*
X219239Y247119*
X219489Y245569D02*
X219089D01*
X219489*
Y247119D02*
X219239D01*
X219489*
X216938Y209236D02*
X216688D01*
X216938*
X216894Y217702D02*
X216244D01*
X216266Y217697*
X216366Y217647*
X216388Y217624*
X216438Y217524*
X216444Y217502*
Y214652*
X216438Y214629*
X216388Y214529*
X216366Y214507*
X216266Y214457*
X216244Y214452*
X216844*
X216821Y214457*
X216721Y214507*
X216699Y214529*
X216649Y214629*
X216644Y214652*
Y215952*
X216694Y216002*
X216644Y216052*
Y217502*
X216649Y217524*
X216699Y217624*
X216728Y217649*
X216878Y217699*
X216894Y217702*
X217194Y216002D02*
X216694D01*
X217194*
X217144Y217702D02*
X216894D01*
X217144*
X218101Y224731D02*
X217916Y224777D01*
X217912Y224779*
X217762Y224829*
X217738Y224846*
X217588Y225046*
X217583Y225054*
X217483Y225254*
X217480Y225262*
X217330Y225762*
X217328Y225771*
X217278Y226321*
Y226326*
Y226726*
X217279Y226733*
X217329Y227083*
X217331Y227092*
X217431Y227392*
X217432Y227395*
X217532Y227645*
X217536Y227654*
X217636Y227804*
X217643Y227811*
X217793Y227961*
X217812Y227973*
X217959Y228022*
X218048Y228067*
X217893Y228028*
X217893D02*
X217656Y227933D01*
X217515Y227793*
X217322Y227551*
X217127Y227014*
X217028Y226324*
X217028D02*
X217077Y225737D01*
X217271Y225203*
X217606Y224869*
X217842Y224774*
X218101Y224731*
X217532Y235132D02*
X217485Y235369D01*
X217391Y235606*
X217155Y235842*
X216814Y235988*
X216783Y236034*
X216807Y236077*
X217052Y236223*
X217242Y236413*
X217335Y236599*
X217383Y236884*
X217336Y237163*
X217148Y237398*
X216913Y237586*
X216584Y237633*
X216537Y237625*
X216791Y237583*
X216823Y237564*
X216973Y237364*
X216978Y237356*
X217078Y237156*
X217083Y237142*
X217133Y236842*
Y236834*
X217133*
Y236826*
X217083Y236526*
X217076Y236508*
X216926Y236258*
X216913Y236244*
X216713Y236094*
X216690Y236084*
X216383Y236040*
Y236028*
X216789Y235983*
X216809Y235977*
X217059Y235827*
X217078Y235806*
X217228Y235506*
X217233Y235492*
X217283Y235192*
Y235184*
X217283*
Y235178*
X217233Y234778*
X217226Y234758*
X217076Y234508*
X217063Y234494*
X216863Y234344*
X216841Y234334*
X216551Y234286*
X216967Y234332*
X217298Y234521*
X217485Y234802*
X217532Y235132*
X216511Y234288D02*
X216169Y234386D01*
X216161Y234389*
X216061Y234439*
X216036Y234468*
X215986Y234618*
X215983Y234634*
X215988Y234656*
X216036Y234751*
X216081Y234932*
X216041Y235052*
X215933Y235124*
X215822Y235049*
X215736Y234877*
X215779Y234658*
X215963Y234475*
X216249Y234332*
X216511Y234288*
X216392Y237601D02*
X216299Y237586D01*
X216135Y237504*
X216216Y237531*
X216392Y237601*
X216080Y236978D02*
X216038Y237061D01*
X216033Y237084*
Y237126*
X215986Y237268*
X215983Y237284*
X215986Y237300*
X216036Y237450*
X216038Y237455*
X216013Y237443*
X215830Y237260*
X215783Y236980*
Y236896*
X215819Y236825*
X215933Y236786*
X216041Y236822*
X216080Y236978*
X215800Y234638D02*
Y235006D01*
Y236862D02*
Y237080D01*
X215900Y234538D02*
Y235101D01*
Y236797D02*
Y237330D01*
X216000Y234456D02*
Y234575D01*
Y234679D02*
Y235079D01*
Y236809D02*
Y237225D01*
Y237342D02*
Y237430D01*
X216100Y205986D02*
Y206011D01*
Y209211D02*
Y209236D01*
Y234406D02*
Y234419D01*
X216200Y205986D02*
Y206099D01*
Y209123D02*
Y209236D01*
Y234356D02*
Y234377D01*
Y237525D02*
Y237536D01*
X216300Y205986D02*
Y209236D01*
Y214452D02*
Y214474D01*
Y217680D02*
Y217702D01*
Y234323D02*
Y234348D01*
Y237564D02*
Y237586D01*
X216400Y205986D02*
Y209236D01*
Y214452D02*
Y214553D01*
Y217601D02*
Y217702D01*
Y234307D02*
Y234320D01*
Y236027D02*
Y236043D01*
X216500Y205986D02*
Y206053D01*
Y207536D02*
X216500D01*
Y209169D02*
Y209236D01*
Y214452D02*
Y217702D01*
Y234290D02*
Y234291D01*
Y236016D02*
Y236057D01*
X216600Y205986D02*
Y205999D01*
Y207536D02*
X216600D01*
Y209209D02*
Y209236D01*
Y214452D02*
Y217702D01*
Y234291D02*
Y234294D01*
Y236004D02*
Y236071D01*
Y237615D02*
Y237631D01*
X216700Y207536D02*
X216700D01*
Y209236D02*
X216700D01*
Y214452D02*
Y214527D01*
Y216002D02*
X216700D01*
Y217626D02*
Y217702D01*
Y234303D02*
Y234311D01*
Y235993D02*
Y236087D01*
Y237598D02*
Y237617D01*
X216800Y207536D02*
X216800D01*
Y209236D02*
X216800D01*
Y214452D02*
Y214468D01*
Y216002D02*
X216800D01*
Y217673D02*
Y217702D01*
Y234314D02*
Y234328D01*
Y235981D02*
Y235996D01*
Y236071D02*
Y236159D01*
Y237581D02*
Y237602D01*
X216900Y207536D02*
X216900D01*
Y209236D02*
X216900D01*
Y216002D02*
X216900D01*
Y217702D02*
X216900D01*
Y234325D02*
Y234371D01*
Y235922D02*
Y235951D01*
Y236132D02*
Y236234D01*
Y237461D02*
Y237588D01*
X217000Y207536D02*
Y207537D01*
Y209228D02*
Y209236D01*
Y216002D02*
X217000D01*
Y217702D02*
X217000D01*
Y234351D02*
Y234446D01*
Y235862D02*
Y235908D01*
Y236192D02*
Y236381D01*
Y237312D02*
Y237516D01*
X217100Y207538D02*
Y207554D01*
Y209213D02*
Y209234D01*
Y216002D02*
X217100D01*
Y217702D02*
X217100D01*
Y225675D02*
Y226826D01*
Y234408D02*
Y234548D01*
Y235762D02*
Y235865D01*
Y236271D02*
Y236630D01*
Y237037D02*
Y237436D01*
X217200Y207550D02*
Y207571D01*
Y209199D02*
Y209222D01*
Y216002D02*
X217200D01*
Y217694D02*
Y217702D01*
Y225400D02*
Y227215D01*
Y234465D02*
Y234715D01*
Y235562D02*
Y235796D01*
Y236371D02*
Y237333D01*
X217300Y207563D02*
Y207588D01*
Y209184D02*
Y209209D01*
Y216003D02*
Y216019D01*
Y217680D02*
Y217701D01*
Y225175D02*
Y226083D01*
Y226883D02*
Y227490D01*
Y234524D02*
Y235696D01*
Y236529D02*
Y237208D01*
X217400Y207575D02*
Y207658D01*
Y209127D02*
Y209197D01*
Y216016D02*
Y216036D01*
Y217666D02*
Y217688D01*
Y225075D02*
Y225529D01*
Y227300D02*
Y227648D01*
Y234674D02*
Y235582D01*
X217500Y207604D02*
Y207733D01*
Y209067D02*
Y209171D01*
Y216028D02*
Y216052D01*
Y217651D02*
Y217676D01*
Y224975D02*
Y225220D01*
Y227565D02*
Y227773D01*
Y234905D02*
Y235295D01*
X217600Y207671D02*
Y207828D01*
Y208979D02*
Y209114D01*
Y216041D02*
Y216119D01*
Y217596D02*
Y217663D01*
Y224875D02*
Y225030D01*
Y227749D02*
Y227877D01*
X217700Y207738D02*
Y207928D01*
Y208812D02*
Y209057D01*
Y216066D02*
Y216194D01*
Y217536D02*
Y217641D01*
Y224831D02*
Y224897D01*
Y227869D02*
Y227951D01*
X217800Y207819D02*
Y209000D01*
Y216133D02*
Y216288D01*
Y217455D02*
Y217583D01*
Y224791D02*
Y224816D01*
Y227967D02*
Y227991D01*
X217900Y207919D02*
Y208852D01*
Y216200D02*
Y216388D01*
Y217288D02*
Y217526D01*
Y224765D02*
Y224783D01*
Y228003D02*
Y228030D01*
X218000Y208101D02*
Y208657D01*
Y216279D02*
Y217469D01*
Y224748D02*
Y224756D01*
Y228043D02*
Y228055D01*
X218100Y216379D02*
Y217327D01*
Y224731D02*
X218100D01*
X218200Y216512D02*
Y217159D01*
Y228053D02*
Y228055D01*
X218300Y228033D02*
Y228038D01*
Y234512D02*
Y234556D01*
X218400Y226122D02*
Y226126D01*
Y227985D02*
Y228009D01*
Y234356D02*
Y234711D01*
X218500Y206910D02*
Y207970D01*
Y226097D02*
Y226126D01*
Y227910D02*
Y227976D01*
Y234306D02*
Y234761D01*
X218600Y206635D02*
Y208399D01*
Y224917D02*
Y224927D01*
Y226071D02*
Y226126D01*
Y227803D02*
Y227976D01*
Y234323D02*
Y234744D01*
X218700Y206394D02*
Y207397D01*
Y208027D02*
Y208674D01*
Y215393D02*
Y216393D01*
Y224968D02*
Y226126D01*
Y227637D02*
Y227981D01*
Y234373D02*
Y234694D01*
Y243869D02*
Y243894D01*
Y247094D02*
Y247119D01*
X218800Y206294D02*
Y206770D01*
Y208481D02*
Y208847D01*
Y215118D02*
Y216848D01*
Y224976D02*
Y226126D01*
Y227418D02*
Y227714D01*
Y243869D02*
Y243980D01*
Y247008D02*
Y247119D01*
X218900Y206194D02*
Y206449D01*
Y208752D02*
Y208972D01*
Y214866D02*
Y215929D01*
Y216450D02*
Y217123D01*
Y225950D02*
Y226126D01*
Y243869D02*
Y247119D01*
X219000Y206094D02*
Y206253D01*
Y208945D02*
Y209078D01*
Y214766D02*
Y215256D01*
Y216929D02*
Y217305D01*
Y226086D02*
Y226126D01*
Y243869D02*
Y247119D01*
X219100Y206045D02*
Y206119D01*
Y209069D02*
Y209157D01*
Y214666D02*
Y214927D01*
Y217203D02*
Y217430D01*
Y226119D02*
Y226126D01*
Y243869D02*
Y243937D01*
Y245569D02*
X219100D01*
Y247051D02*
Y247119D01*
X219200Y206005D02*
Y206029D01*
Y209169D02*
Y209197D01*
Y214566D02*
Y214727D01*
Y217402D02*
Y217538D01*
Y243869D02*
Y243883D01*
Y245569D02*
X219200D01*
Y247106D02*
Y247119D01*
X219300Y205976D02*
Y205996D01*
Y209209D02*
Y209237D01*
Y214513D02*
Y214593D01*
Y217529D02*
Y217621D01*
Y245569D02*
X219300D01*
Y247119D02*
X219300D01*
X219400Y205960D02*
Y205969D01*
Y209248D02*
Y209263D01*
Y214473D02*
Y214497D01*
Y217629D02*
Y217661D01*
Y245569D02*
X219400D01*
Y247119D02*
X219400D01*
X219500Y205943D02*
Y205944D01*
Y214443D02*
Y214464D01*
Y217673D02*
Y217701D01*
Y245568D02*
Y245570D01*
Y247118D02*
Y247119D01*
X219600Y209264D02*
Y209267D01*
Y214426D02*
Y214436D01*
Y217711D02*
Y217727D01*
Y224776D02*
Y224806D01*
Y227996D02*
Y228026D01*
Y245380D02*
Y245587D01*
Y247101D02*
Y247119D01*
X219700Y209244D02*
Y209250D01*
Y214410D02*
Y214411D01*
Y224776D02*
Y224908D01*
Y227894D02*
Y228026D01*
Y245137D02*
Y245604D01*
Y247085D02*
Y247111D01*
X219800Y207334D02*
Y207336D01*
Y209202D02*
Y209224D01*
Y217732D02*
Y217733D01*
Y224776D02*
Y224835D01*
Y227726D02*
Y228026D01*
Y244894D02*
Y245482D01*
Y245551D02*
Y245620D01*
Y247068D02*
Y247099D01*
X219900Y207309D02*
Y207336D01*
Y209127D02*
Y209186D01*
Y217712D02*
Y217717D01*
Y224776D02*
Y224784D01*
Y227645D02*
Y228026D01*
Y244651D02*
Y245240D01*
Y245598D02*
Y245669D01*
Y247011D02*
Y247086D01*
X220000Y206122D02*
Y206128D01*
Y207284D02*
Y207336D01*
Y209029D02*
Y209186D01*
Y215801D02*
Y215802D01*
Y217672D02*
Y217693D01*
Y227448D02*
Y227920D01*
Y244408D02*
Y244998D01*
Y245638D02*
Y245719D01*
Y246951D02*
Y247074D01*
X220100Y206173D02*
Y207336D01*
Y208862D02*
Y209188D01*
Y215777D02*
Y215802D01*
Y217597D02*
Y217652D01*
Y227252D02*
Y227720D01*
Y244166D02*
Y244757D01*
Y245684D02*
Y245858D01*
Y246858D02*
Y247024D01*
X220200Y206186D02*
Y207336D01*
Y208650D02*
Y208978D01*
Y214584D02*
Y214588D01*
Y215752D02*
Y215802D01*
Y217505D02*
Y217652D01*
Y227055D02*
Y227520D01*
Y243923D02*
Y244515D01*
Y245744D02*
Y246096D01*
Y246605D02*
Y246964D01*
X220300Y207131D02*
Y207336D01*
Y214636D02*
Y215802D01*
Y217338D02*
Y217652D01*
Y226858D02*
Y227320D01*
Y243869D02*
Y244273D01*
Y245804D02*
Y246875D01*
X220400Y207293D02*
Y207336D01*
Y214652D02*
Y215802D01*
Y217130D02*
Y217478D01*
Y226662D02*
Y227120D01*
Y243869D02*
Y244037D01*
Y245969D02*
Y246750D01*
X220500Y207326D02*
Y207336D01*
Y215579D02*
Y215802D01*
Y226465D02*
Y226920D01*
Y243869D02*
Y243937D01*
X220600Y215757D02*
Y215802D01*
Y226268D02*
Y226720D01*
Y243869D02*
Y243883D01*
X220700Y215790D02*
Y215802D01*
Y226072D02*
Y226520D01*
X220800Y225875D02*
Y226320D01*
Y234638D02*
Y235006D01*
Y236862D02*
Y237080D01*
X220900Y225678D02*
Y226120D01*
Y234538D02*
Y235101D01*
Y236797D02*
Y237330D01*
X221000Y206974D02*
Y208020D01*
Y225482D02*
Y225920D01*
Y234456D02*
Y234575D01*
Y234679D02*
Y235079D01*
Y236809D02*
Y237225D01*
Y237342D02*
Y237430D01*
X221100Y206657D02*
Y208413D01*
Y225285D02*
Y225720D01*
Y234406D02*
Y234419D01*
Y244670D02*
Y244694D01*
X221200Y206389D02*
Y207460D01*
Y207788D02*
Y208633D01*
Y214452D02*
X221200D01*
Y217701D02*
Y217702D01*
Y225088D02*
Y225520D01*
Y228021D02*
Y228026D01*
Y234356D02*
Y234377D01*
Y237525D02*
Y237536D01*
Y244195D02*
Y244508D01*
Y246064D02*
Y246671D01*
X221300Y206264D02*
Y206720D01*
Y208417D02*
Y208836D01*
Y214452D02*
Y214499D01*
Y217655D02*
Y217702D01*
Y224892D02*
Y225426D01*
Y227971D02*
Y228026D01*
Y234323D02*
Y234348D01*
Y237564D02*
Y237586D01*
Y243901D02*
Y244287D01*
Y245897D02*
Y246367D01*
Y246481D02*
Y246821D01*
X221400Y206189D02*
Y206402D01*
Y208692D02*
Y208969D01*
Y214452D02*
Y217702D01*
Y227882D02*
Y228026D01*
Y234307D02*
Y234320D01*
Y236027D02*
Y236043D01*
Y243942D02*
Y244162D01*
Y245805D02*
Y246112D01*
Y246832D02*
Y246950D01*
X221500Y206114D02*
Y206253D01*
Y208923D02*
Y209045D01*
Y214452D02*
Y217702D01*
Y227993D02*
Y228026D01*
Y234290D02*
Y234291D01*
Y236016D02*
Y236057D01*
Y243968D02*
Y244037D01*
Y245738D02*
Y245987D01*
Y246990D02*
Y247017D01*
X221600Y206039D02*
Y206153D01*
Y209069D02*
Y209105D01*
Y214452D02*
Y214627D01*
Y217527D02*
Y217702D01*
Y234291D02*
Y234294D01*
Y236004D02*
Y236071D01*
Y237615D02*
Y237631D01*
Y243928D02*
Y243974D01*
Y245672D02*
Y245918D01*
Y247065D02*
Y247083D01*
X221700Y205995D02*
Y206074D01*
Y214452D02*
Y214497D01*
Y217654D02*
Y217702D01*
Y234303D02*
Y234311D01*
Y235993D02*
Y236087D01*
Y237598D02*
Y237617D01*
Y243888D02*
Y243914D01*
Y245624D02*
Y245858D01*
Y247122D02*
Y247126D01*
X221800Y205955D02*
Y206024D01*
Y214452D02*
Y214464D01*
Y217674D02*
Y217702D01*
Y234314D02*
Y234328D01*
Y235981D02*
Y235996D01*
Y236071D02*
Y236159D01*
Y237581D02*
Y237602D01*
Y243861D02*
Y243867D01*
Y245580D02*
Y245808D01*
Y247138D02*
Y247139D01*
X221900Y205936D02*
Y205986D01*
Y214452D02*
Y214464D01*
Y217694D02*
Y217702D01*
Y234325D02*
Y234371D01*
Y235922D02*
Y235951D01*
Y236132D02*
Y236234D01*
Y237461D02*
Y237588D01*
Y243847D02*
Y243850D01*
Y245535D02*
Y245754D01*
X222000Y205936D02*
Y205986D01*
Y214452D02*
Y214489D01*
Y217689D02*
Y217691D01*
Y234351D02*
Y234446D01*
Y235862D02*
Y235908D01*
Y236192D02*
Y236381D01*
Y237312D02*
Y237516D01*
Y243832D02*
Y243833D01*
Y245491D02*
Y245694D01*
X222100Y205939D02*
Y205987D01*
Y214452D02*
Y214514D01*
Y217664D02*
Y217673D01*
Y224776D02*
Y224781D01*
Y228021D02*
Y228026D01*
Y234408D02*
Y234548D01*
Y235762D02*
Y235865D01*
Y236271D02*
Y236630D01*
Y237037D02*
Y237436D01*
Y245438D02*
Y245634D01*
Y247148D02*
Y247150D01*
X222200Y205955D02*
Y206004D01*
Y209268D02*
Y209275D01*
Y214457D02*
Y214539D01*
Y217639D02*
Y217654D01*
Y224776D02*
Y224831D01*
Y227971D02*
Y228026D01*
Y234465D02*
Y234715D01*
Y235562D02*
Y235796D01*
Y236371D02*
Y237333D01*
Y243833D02*
Y243837D01*
Y245372D02*
Y245583D01*
X222300Y205972D02*
Y206021D01*
Y209251D02*
Y209258D01*
Y214490D02*
Y214576D01*
Y217614D02*
Y217636D01*
Y224776D02*
Y228026D01*
Y234524D02*
Y235696D01*
Y236529D02*
Y237208D01*
Y243846D02*
Y243854D01*
Y245305D02*
Y245533D01*
X222400Y206004D02*
Y206038D01*
Y209234D02*
Y209242D01*
Y214523D02*
Y214634D01*
Y217570D02*
Y217618D01*
Y224776D02*
Y228026D01*
Y234674D02*
Y235582D01*
Y243858D02*
Y243870D01*
Y245241D02*
Y245483D01*
Y247058D02*
Y247065D01*
X222500Y206071D02*
Y206112D01*
Y209164D02*
Y209219D01*
Y214569D02*
Y214691D01*
Y217487D02*
Y217585D01*
Y224776D02*
Y224920D01*
Y227882D02*
Y228026D01*
Y234905D02*
Y235295D01*
Y243887D02*
Y243928D01*
Y245181D02*
Y245433D01*
Y247018D02*
Y247040D01*
X222600Y206138D02*
Y206192D01*
Y209089D02*
Y209194D01*
Y214644D02*
Y214748D01*
Y217403D02*
Y217510D01*
Y224776D02*
Y224816D01*
Y227981D02*
Y228026D01*
Y243954D02*
Y243988D01*
Y245121D02*
Y245368D01*
Y246881D02*
Y247019D01*
X222700Y206245D02*
Y206293D01*
Y208975D02*
Y209186D01*
Y214719D02*
Y214860D01*
Y217301D02*
Y217435D01*
Y224776D02*
Y224783D01*
Y228001D02*
Y228026D01*
Y244020D02*
Y244088D01*
Y245004D02*
Y245301D01*
Y246712D02*
Y247020D01*
X222800Y206395D02*
Y206460D01*
Y208850D02*
Y209188D01*
Y214794D02*
Y215013D01*
Y217095D02*
Y217360D01*
Y224776D02*
Y224792D01*
Y228021D02*
Y228026D01*
Y244126D02*
Y244396D01*
Y244830D02*
Y245235D01*
Y246537D02*
Y247069D01*
X222900Y206612D02*
Y206671D01*
Y208650D02*
Y208978D01*
Y214910D02*
Y215343D01*
Y216810D02*
Y217260D01*
Y224776D02*
Y224817D01*
Y228010D02*
Y228012D01*
Y244276D02*
Y245035D01*
X223000Y215079D02*
Y217124D01*
Y224776D02*
Y224842D01*
Y227985D02*
Y227994D01*
X223100Y215381D02*
Y216822D01*
Y224786D02*
Y224867D01*
Y227960D02*
Y227976D01*
Y237581D02*
Y237584D01*
X223200Y224819D02*
Y224909D01*
Y227935D02*
Y227958D01*
Y237547D02*
Y237584D01*
X223300Y224853D02*
Y224967D01*
Y227881D02*
Y227939D01*
Y237405D02*
Y237584D01*
X223400Y224905D02*
Y225024D01*
Y227798D02*
Y227897D01*
Y236994D02*
Y237584D01*
X223500Y224980D02*
Y225081D01*
Y227714D02*
Y227822D01*
Y236625D02*
Y237266D01*
Y237521D02*
Y237584D01*
X223600Y225055D02*
Y225205D01*
Y227594D02*
Y227747D01*
Y236257D02*
Y236905D01*
Y237559D02*
Y237584D01*
Y246689D02*
Y246830D01*
X223700Y225130D02*
Y225384D01*
Y227381D02*
Y227672D01*
Y235888D02*
Y236543D01*
Y246868D02*
Y247119D01*
X223800Y225260D02*
Y225776D01*
Y227026D02*
Y227563D01*
Y235519D02*
Y236182D01*
Y247001D02*
Y247119D01*
X223900Y225450D02*
Y227402D01*
Y235150D02*
Y235820D01*
Y247042D02*
Y247119D01*
X224000Y208986D02*
Y208993D01*
Y225760D02*
Y227092D01*
Y234782D02*
Y235459D01*
Y247074D02*
Y247119D01*
X224100Y208986D02*
Y209006D01*
Y234413D02*
Y235097D01*
Y247099D02*
Y247119D01*
X224200Y205986D02*
Y206011D01*
Y208968D02*
Y209018D01*
Y217452D02*
Y217459D01*
Y234553D02*
Y234937D01*
X224300Y205986D02*
Y206108D01*
Y208935D02*
Y209031D01*
Y217452D02*
Y217471D01*
Y234946D02*
Y235228D01*
Y243869D02*
Y243894D01*
X224400Y205986D02*
Y209084D01*
Y214452D02*
Y214474D01*
Y217436D02*
Y217484D01*
Y235339D02*
Y235603D01*
Y243869D02*
Y243980D01*
Y247118D02*
Y247119D01*
X224500Y205986D02*
Y209209D01*
Y214452D02*
Y214558D01*
Y217402D02*
Y217496D01*
Y235733D02*
Y235978D01*
Y243869D02*
Y247119D01*
X224600Y205986D02*
Y206295D01*
Y214452D02*
Y217542D01*
Y236126D02*
Y236353D01*
Y243869D02*
Y247119D01*
X224700Y205986D02*
Y206053D01*
Y214452D02*
Y217667D01*
Y236519D02*
Y236728D01*
Y237564D02*
Y237584D01*
Y243869D02*
Y243937D01*
Y247119D02*
X224700D01*
X224800Y205986D02*
Y206022D01*
Y214452D02*
Y214776D01*
Y236913D02*
Y237103D01*
Y237531D02*
Y237584D01*
Y243869D02*
Y243896D01*
Y247119D02*
X224800D01*
X224900Y205986D02*
Y206002D01*
Y214452D02*
Y214527D01*
Y237285D02*
Y237584D01*
Y243869D02*
X224900D01*
Y247119D02*
X224900D01*
X225000Y214452D02*
Y214490D01*
Y237521D02*
Y237584D01*
Y247105D02*
Y247119D01*
X225100Y214452D02*
Y214470D01*
Y237559D02*
Y237584D01*
Y247080D02*
Y247119D01*
X225200Y247051D02*
Y247119D01*
X225300Y247018D02*
Y247119D01*
X225400Y246858D02*
Y247119D01*
X225500Y246636D02*
Y246857D01*
X390400Y126524D02*
Y126543D01*
Y129755D02*
Y129774D01*
X390500Y126524D02*
Y126610D01*
Y129688D02*
Y129774D01*
X390600Y126524D02*
Y129774D01*
X390700Y126524D02*
Y129774D01*
X390800Y126524D02*
Y126614D01*
Y128274D02*
X390800D01*
Y129684D02*
Y129774D01*
X390900Y126524D02*
Y126555D01*
Y128274D02*
X390900D01*
Y129754D02*
Y129774D01*
X391000Y126524D02*
X391000D01*
Y128274D02*
X391000D01*
X391100Y126524D02*
X391100D01*
Y128274D02*
X391100D01*
X391200Y126524D02*
X391200D01*
Y128274D02*
X391200D01*
X391300Y126524D02*
X391300D01*
Y128268D02*
Y128274D01*
Y129758D02*
Y129774D01*
X391400Y126524D02*
Y126531D01*
Y128253D02*
Y128297D01*
Y129742D02*
Y129768D01*
X391500Y126531D02*
Y126548D01*
Y128239D02*
Y128322D01*
Y129725D02*
Y129755D01*
X391600Y126543D02*
Y126565D01*
Y128225D02*
Y128386D01*
Y129680D02*
Y129743D01*
X391700Y126556D02*
Y126598D01*
Y128173D02*
Y128199D01*
Y128354D02*
Y128461D01*
Y129630D02*
Y129730D01*
X391800Y126568D02*
Y126673D01*
Y128113D02*
Y128156D01*
Y128404D02*
Y128573D01*
Y129525D02*
Y129694D01*
X391900Y126617D02*
Y126758D01*
Y128038D02*
Y128113D01*
Y128454D02*
Y128714D01*
Y129384D02*
Y129644D01*
X392000Y126683D02*
Y126925D01*
Y127838D02*
Y128054D01*
Y128544D02*
Y129594D01*
X392100Y126750D02*
Y127363D01*
Y127385D02*
Y127954D01*
Y128644D02*
Y129445D01*
X392200Y126865D02*
Y127854D01*
Y129074D02*
Y129076D01*
X392300Y126990D02*
Y127617D01*
X393000Y126524D02*
Y126839D01*
Y128813D02*
Y129188D01*
X393100Y126524D02*
Y126724D01*
Y126938D02*
Y126992D01*
Y128788D02*
Y129432D01*
X393200Y126524D02*
Y126724D01*
Y127061D02*
Y127152D01*
Y128793D02*
Y129164D01*
Y129476D02*
Y129582D01*
X393300Y126524D02*
Y126724D01*
Y127181D02*
Y127252D01*
Y129594D02*
Y129668D01*
X393400Y126524D02*
Y126724D01*
Y127294D02*
Y127352D01*
Y129683D02*
Y129718D01*
X393500Y126524D02*
Y126724D01*
Y127394D02*
Y127454D01*
Y129750D02*
Y129768D01*
X393600Y126524D02*
Y126724D01*
Y127494D02*
Y127571D01*
Y129785D02*
Y129788D01*
X393700Y126524D02*
Y126724D01*
Y127594D02*
Y127688D01*
X393800Y126524D02*
Y126724D01*
Y127694D02*
Y127804D01*
X393900Y126524D02*
Y126724D01*
Y127794D02*
Y127921D01*
Y129805D02*
Y129818D01*
X394000Y126524D02*
Y126724D01*
Y127894D02*
Y128038D01*
Y129785D02*
Y129805D01*
X394100Y126524D02*
Y126724D01*
Y127994D02*
Y128157D01*
Y129750D02*
Y129793D01*
X394200Y126524D02*
Y126724D01*
Y128094D02*
Y128307D01*
Y129675D02*
Y129780D01*
X394300Y126524D02*
Y126747D01*
Y128194D02*
Y128463D01*
Y129586D02*
Y129731D01*
X394400Y126524D02*
Y126772D01*
Y128294D02*
Y128764D01*
Y129334D02*
Y129665D01*
X394500Y126524D02*
Y126852D01*
Y128419D02*
Y129598D01*
X394600Y126524D02*
Y126982D01*
Y128586D02*
Y129445D01*
X394700Y126893D02*
Y127187D01*
Y128831D02*
Y129028D01*
X400900Y126233D02*
X400900D01*
Y129482D02*
Y129483D01*
X401000Y126233D02*
Y126280D01*
Y129436D02*
Y129483D01*
X401100Y126233D02*
Y129483D01*
X401200Y126233D02*
Y129483D01*
X401300Y126233D02*
Y126410D01*
Y127956D02*
Y128010D01*
Y129306D02*
Y129483D01*
X401400Y126233D02*
Y126278D01*
Y127983D02*
X401400D01*
Y129441D02*
Y129483D01*
X401500Y126233D02*
Y126245D01*
Y127983D02*
X401500D01*
X401600Y126233D02*
X401600D01*
Y127983D02*
X401600D01*
X401700Y126233D02*
X401700D01*
Y127983D02*
X401700D01*
X401800Y126233D02*
X401800D01*
Y127982D02*
Y127983D01*
Y129474D02*
Y129483D01*
X401900Y126233D02*
X401900D01*
Y127968D02*
Y127995D01*
Y129457D02*
Y129482D01*
X402000Y126234D02*
Y126250D01*
Y127954D02*
Y128020D01*
Y129441D02*
Y129469D01*
X402100Y126246D02*
Y126266D01*
Y127940D02*
Y128062D01*
Y129411D02*
Y129457D01*
X402200Y126259D02*
Y126283D01*
Y127908D02*
Y127926D01*
Y128041D02*
Y128137D01*
Y129361D02*
Y129444D01*
X402300Y126271D02*
Y126349D01*
Y127848D02*
Y127883D01*
Y128091D02*
Y128224D01*
Y129292D02*
Y129424D01*
X402400Y126297D02*
Y126424D01*
Y127788D02*
Y127840D01*
Y128141D02*
Y128357D01*
Y129158D02*
Y129374D01*
X402500Y126363D02*
Y126562D01*
Y127633D02*
Y127797D01*
Y128209D02*
Y129324D01*
X402600Y126430D02*
Y126769D01*
Y127397D02*
Y127706D01*
Y128309D02*
Y129226D01*
X402700Y126520D02*
Y127606D01*
Y128566D02*
Y129045D01*
X402800Y126645D02*
Y127434D01*
X403900Y129233D02*
Y129239D01*
X404000Y129233D02*
Y129252D01*
X404100Y126233D02*
Y126255D01*
Y129217D02*
Y129264D01*
X404200Y126233D02*
Y126337D01*
Y129183D02*
Y129277D01*
X404300Y126233D02*
Y129322D01*
X404400Y126233D02*
Y129447D01*
X404500Y126233D02*
Y126559D01*
X404600Y126233D02*
Y126310D01*
X404700Y126233D02*
Y126271D01*
X404800Y126233D02*
Y126251D01*
X411800Y126087D02*
Y126110D01*
X411900Y126087D02*
Y126145D01*
X412000Y126087D02*
Y126432D01*
X412100Y126087D02*
Y126190D01*
Y126630D02*
Y126813D01*
X412200Y126087D02*
Y126093D01*
Y126950D02*
Y127195D01*
X412300Y127270D02*
Y127576D01*
X412400Y127387D02*
X412400D01*
Y127750D02*
Y127957D01*
X412500Y127387D02*
X412500D01*
Y128150D02*
Y128338D01*
X412600Y127387D02*
X412600D01*
Y128550D02*
Y128720D01*
X412700Y127387D02*
X412700D01*
Y128950D02*
Y129101D01*
X412800Y127387D02*
X412800D01*
Y129087D02*
Y129364D01*
X412900Y127387D02*
X412900D01*
Y128921D02*
Y129404D01*
X413000Y127387D02*
X413000D01*
Y128463D02*
Y129159D01*
X413100Y127387D02*
X413100D01*
Y128006D02*
Y128739D01*
X413200Y127379D02*
Y127395D01*
Y127549D02*
Y128319D01*
X413300Y126087D02*
Y126093D01*
Y127052D02*
Y127899D01*
X413400Y126087D02*
Y126127D01*
Y126672D02*
Y127479D01*
X413500Y126087D02*
Y127059D01*
X413600Y126087D02*
Y126639D01*
X413700Y126087D02*
Y126282D01*
X413800Y126087D02*
Y126143D01*
X413900Y126087D02*
Y126109D01*
X414500Y126087D02*
Y126373D01*
Y128396D02*
Y128673D01*
X414600Y126087D02*
Y126287D01*
Y126467D02*
Y126518D01*
Y128357D02*
Y128962D01*
X414700Y126087D02*
Y126287D01*
Y126597D02*
Y126684D01*
Y128349D02*
Y128772D01*
Y128950D02*
Y129112D01*
X414800Y126087D02*
Y126287D01*
Y126717D02*
Y126793D01*
Y128425D02*
Y128549D01*
Y129134D02*
Y129219D01*
X414900Y126087D02*
Y126287D01*
Y126834D02*
Y126893D01*
Y129232D02*
Y129269D01*
X415000Y126087D02*
Y126287D01*
Y126934D02*
Y126993D01*
Y129298D02*
Y129319D01*
X415100Y126087D02*
Y126287D01*
Y127034D02*
Y127108D01*
Y129343D02*
Y129347D01*
X415200Y126087D02*
Y126287D01*
Y127134D02*
Y127225D01*
X415300Y126087D02*
Y126287D01*
Y127234D02*
Y127341D01*
X415400Y126087D02*
Y126287D01*
Y127334D02*
Y127458D01*
Y129373D02*
Y129383D01*
X415500Y126087D02*
Y126287D01*
Y127434D02*
Y127575D01*
Y129353D02*
Y129371D01*
X415600Y126087D02*
Y126287D01*
Y127534D02*
Y127691D01*
Y129329D02*
Y129358D01*
X415700Y126087D02*
Y126287D01*
Y127634D02*
Y127837D01*
Y129255D02*
Y129346D01*
X415800Y126087D02*
Y126305D01*
Y127734D02*
Y127987D01*
Y129180D02*
Y129309D01*
X415900Y126087D02*
Y126330D01*
Y127834D02*
Y128259D01*
Y128955D02*
Y129242D01*
X416000Y126087D02*
Y126393D01*
Y127945D02*
Y129176D01*
X416100Y126087D02*
Y126512D01*
Y128112D02*
Y129045D01*
X416200Y126266D02*
Y126694D01*
Y128338D02*
Y128747D01*
X422400Y126305D02*
Y126323D01*
X422500Y126305D02*
Y126356D01*
X422600Y126305D02*
Y126591D01*
X422700Y126305D02*
Y126423D01*
Y126798D02*
Y126972D01*
X422800Y126305D02*
Y126323D01*
Y127118D02*
Y127353D01*
X422900Y127438D02*
Y127735D01*
X423000Y127605D02*
X423000D01*
Y127906D02*
Y128116D01*
X423100Y127605D02*
X423100D01*
Y128306D02*
Y128497D01*
X423200Y127605D02*
X423200D01*
Y128706D02*
Y128878D01*
X423300Y127605D02*
X423300D01*
Y129106D02*
Y129260D01*
X423400Y127605D02*
X423400D01*
Y129305D02*
Y129575D01*
X423500Y127605D02*
X423500D01*
Y129209D02*
Y129615D01*
X423600Y127605D02*
X423600D01*
Y128752D02*
Y129442D01*
X423700Y127605D02*
X423700D01*
Y128295D02*
Y129022D01*
X423800Y127604D02*
Y127606D01*
Y127838D02*
Y128602D01*
X423900Y126305D02*
Y126306D01*
Y127329D02*
Y128182D01*
X424000Y126305D02*
Y126339D01*
Y126949D02*
Y127762D01*
X424100Y126305D02*
Y127342D01*
X424200Y126305D02*
Y126922D01*
X424300Y126305D02*
Y126523D01*
X424400Y126305D02*
Y126373D01*
X424500Y126305D02*
Y126332D01*
X425500Y129305D02*
Y129312D01*
X425600Y129305D02*
Y129325D01*
X425700Y126305D02*
Y126330D01*
Y129287D02*
Y129337D01*
X425800Y126305D02*
Y126423D01*
Y129254D02*
Y129350D01*
X425900Y126305D02*
Y129401D01*
X426000Y126305D02*
Y129526D01*
X426100Y126305D02*
Y126617D01*
X426200Y126305D02*
Y126373D01*
X426300Y126305D02*
Y126342D01*
X426400Y126305D02*
Y126322D01*
X443000Y156790D02*
Y156820D01*
Y160011D02*
Y160040D01*
X443100Y156790D02*
Y156921D01*
Y159909D02*
Y160040D01*
X443200Y156790D02*
Y160040D01*
X443300Y156790D02*
Y160040D01*
X443400Y156790D02*
Y156849D01*
Y159981D02*
Y160040D01*
X443500Y156790D02*
Y156814D01*
Y160032D02*
Y160040D01*
X443600Y156790D02*
X443600D01*
X443700D02*
X443700D01*
X443800D02*
X443800D01*
X443900D02*
X443900D01*
X444000D02*
X444000D01*
X444100D02*
Y156793D01*
X444200Y156790D02*
Y156810D01*
X444300Y156790D02*
Y156827D01*
X444400Y156790D02*
Y156845D01*
X444500Y156790D02*
Y156895D01*
X444600Y156790D02*
Y156945D01*
X444700Y156790D02*
Y157062D01*
X444800Y156852D02*
Y157187D01*
X444900Y157352D02*
Y157446D01*
X445500Y156790D02*
Y156820D01*
Y160011D02*
Y160040D01*
X445600Y156790D02*
Y156921D01*
Y159909D02*
Y160040D01*
X445700Y156790D02*
Y160040D01*
X445800Y156790D02*
Y160040D01*
X445900Y156790D02*
Y156849D01*
Y159981D02*
Y160040D01*
X446000Y156790D02*
Y156814D01*
Y160017D02*
Y160040D01*
X446100Y156790D02*
X446100D01*
Y160040D02*
X446100D01*
X446200Y156790D02*
X446200D01*
Y160040D02*
X446200D01*
X446300Y156790D02*
X446300D01*
Y160040D02*
X446300D01*
X446400Y156790D02*
X446400D01*
Y160040D02*
X446400D01*
X446500Y156790D02*
X446500D01*
Y158524D02*
Y158540D01*
Y160040D02*
X446500D01*
X446600Y156790D02*
Y156794D01*
Y158499D02*
Y158540D01*
Y160040D02*
X446600D01*
X446700Y156790D02*
Y156814D01*
Y158461D02*
Y158591D01*
Y160024D02*
Y160040D01*
X446800Y156790D02*
Y156834D01*
Y158323D02*
Y158691D01*
Y159999D02*
Y160040D01*
X446900Y156790D02*
Y156865D01*
Y159953D02*
Y160040D01*
X447000Y156790D02*
Y156905D01*
Y159886D02*
Y160040D01*
X447100Y156790D02*
Y156945D01*
Y159790D02*
Y160040D01*
X447200Y156790D02*
Y157096D01*
Y159690D02*
Y160013D01*
X447300Y157015D02*
Y157271D01*
Y159535D02*
Y159688D01*
X447400Y157390D02*
Y157471D01*
X447900Y156790D02*
Y156795D01*
Y160036D02*
Y160040D01*
X448000Y156790D02*
Y156845D01*
Y159986D02*
Y160040D01*
X448100Y156790D02*
Y160040D01*
X448200Y156790D02*
Y160040D01*
X448300Y156790D02*
Y156936D01*
Y159895D02*
Y160040D01*
X448400Y156790D02*
Y156831D01*
Y159996D02*
Y160040D01*
X448500Y156790D02*
Y156797D01*
Y160016D02*
Y160040D01*
X448600Y156790D02*
Y156807D01*
Y160036D02*
Y160040D01*
X448700Y156790D02*
Y156832D01*
Y160024D02*
Y160027D01*
X448800Y156790D02*
Y156857D01*
Y159999D02*
Y160008D01*
X448900Y156800D02*
Y156882D01*
Y159974D02*
Y159990D01*
X449000Y156834D02*
Y156924D01*
Y159949D02*
Y159972D01*
X449100Y156867D02*
Y156981D01*
Y159896D02*
Y159954D01*
X449200Y156919D02*
Y157038D01*
Y159813D02*
Y159912D01*
X449300Y156994D02*
Y157095D01*
Y159729D02*
Y159837D01*
X449400Y157069D02*
Y157219D01*
Y159609D02*
Y159762D01*
X449500Y157144D02*
Y157396D01*
Y159397D02*
Y159687D01*
X449600Y157273D02*
Y157787D01*
Y159044D02*
Y159579D01*
X449700Y157463D02*
Y159418D01*
X449800Y157772D02*
Y159109D01*
X450400Y158440D02*
Y158490D01*
X450500Y158440D02*
Y158490D01*
X450600Y158440D02*
Y158490D01*
X450700Y158440D02*
Y158490D01*
X450800Y158440D02*
Y158490D01*
X450900Y158440D02*
Y158490D01*
X451000Y158440D02*
Y158490D01*
X451100Y158440D02*
Y158490D01*
X451200Y158440D02*
Y158490D01*
X451300Y158440D02*
Y158490D01*
X451400Y157340D02*
Y159590D01*
X451500Y158440D02*
Y158490D01*
X451600Y158440D02*
Y158490D01*
X451700Y158440D02*
Y158490D01*
X451800Y158440D02*
Y158490D01*
X451900Y158440D02*
Y158490D01*
X452000Y158440D02*
Y158490D01*
X452100Y158440D02*
Y158490D01*
X452200Y158440D02*
Y158490D01*
X452300Y158440D02*
Y158490D01*
X452400Y158440D02*
Y158490D01*
X459700Y291483D02*
Y292471D01*
X459800Y291208D02*
Y292931D01*
X459900Y290954D02*
Y292030D01*
Y292528D02*
Y293206D01*
X460000Y290854D02*
Y291347D01*
Y293012D02*
Y293390D01*
X460100Y290754D02*
Y291016D01*
Y293286D02*
Y293515D01*
X460200Y290654D02*
Y290816D01*
Y293486D02*
Y293623D01*
X460300Y290600D02*
Y290682D01*
Y293614D02*
Y293707D01*
X460400Y273872D02*
Y273876D01*
Y277118D02*
Y277122D01*
Y290560D02*
Y290584D01*
Y293714D02*
Y293747D01*
X460500Y273872D02*
Y273926D01*
Y277068D02*
Y277122D01*
Y290530D02*
Y290551D01*
Y293760D02*
Y293787D01*
X460600Y273872D02*
Y277122D01*
Y290513D02*
Y290523D01*
Y293797D02*
Y293813D01*
X460700Y273872D02*
Y277122D01*
Y290497D02*
Y290498D01*
X460800Y273872D02*
Y274020D01*
Y275612D02*
Y275632D01*
Y276974D02*
Y277122D01*
Y293818D02*
Y293820D01*
X460900Y273872D02*
Y273912D01*
Y275622D02*
X460900D01*
Y277088D02*
Y277122D01*
Y293798D02*
Y293804D01*
X461000Y273872D02*
Y273879D01*
Y275622D02*
X461000D01*
Y291888D02*
X461000D01*
Y293760D02*
Y293780D01*
X461100Y273872D02*
X461100D01*
Y275622D02*
X461100D01*
Y291864D02*
Y291888D01*
Y293685D02*
Y293738D01*
X461200Y273872D02*
X461200D01*
Y275622D02*
X461200D01*
Y290670D02*
Y290673D01*
Y291839D02*
Y291888D01*
Y293594D02*
Y293738D01*
X461300Y273872D02*
X461300D01*
Y275619D02*
Y275622D01*
Y277111D02*
Y277122D01*
Y290722D02*
Y291888D01*
Y293427D02*
Y293739D01*
X461400Y273872D02*
Y273874D01*
Y275605D02*
Y275638D01*
Y277094D02*
Y277119D01*
Y290738D02*
Y291888D01*
Y293220D02*
Y293572D01*
X461500Y273875D02*
Y273891D01*
Y275591D02*
Y275663D01*
Y277077D02*
Y277106D01*
Y291662D02*
Y291888D01*
X461600Y273887D02*
Y273908D01*
Y275577D02*
Y275712D01*
Y277043D02*
Y277094D01*
Y291843D02*
Y291888D01*
X461700Y273900D02*
Y273926D01*
Y275538D02*
Y275559D01*
Y275688D02*
Y275787D01*
Y276993D02*
Y277081D01*
Y291876D02*
Y291888D01*
X461800Y273912D02*
Y273999D01*
Y275478D02*
Y275516D01*
Y275738D02*
Y275882D01*
Y276912D02*
Y277056D01*
X461900Y273945D02*
Y274074D01*
Y275418D02*
Y275473D01*
Y275788D02*
Y276015D01*
Y276778D02*
Y277006D01*
X462000Y274012D02*
Y274225D01*
Y275243D02*
Y275430D01*
Y275863D02*
Y276956D01*
X462100Y274079D02*
Y274509D01*
Y274935D02*
Y275331D01*
Y275963D02*
Y276841D01*
X462200Y274177D02*
Y275231D01*
Y276277D02*
Y276597D01*
Y290538D02*
Y290560D01*
Y293767D02*
Y293788D01*
X462300Y274302D02*
Y275037D01*
Y290538D02*
Y290637D01*
Y293690D02*
Y293788D01*
X462400Y290538D02*
Y290616D01*
Y293488D02*
Y293788D01*
X462500Y290538D02*
Y290555D01*
Y293440D02*
Y293788D01*
X462600Y293244D02*
Y293716D01*
X462700Y293047D02*
Y293516D01*
X462800Y273872D02*
Y273892D01*
Y292850D02*
Y293316D01*
X462900Y273872D02*
Y273926D01*
Y292654D02*
Y293116D01*
X463000Y273872D02*
Y274192D01*
Y292457D02*
Y292916D01*
X463100Y273872D02*
Y273981D01*
Y274394D02*
Y274573D01*
Y292260D02*
Y292716D01*
X463200Y273872D02*
Y273882D01*
Y274714D02*
Y274954D01*
Y292064D02*
Y292516D01*
X463300Y275034D02*
Y275336D01*
Y291867D02*
Y292316D01*
X463400Y275172D02*
X463400D01*
Y275508D02*
Y275717D01*
Y291670D02*
Y292116D01*
X463500Y275172D02*
X463500D01*
Y275908D02*
Y276098D01*
Y291474D02*
Y291916D01*
X463600Y275172D02*
X463600D01*
Y276308D02*
Y276479D01*
Y291277D02*
Y291716D01*
X463700Y275172D02*
X463700D01*
Y276708D02*
Y276861D01*
Y291080D02*
Y291516D01*
X463800Y275172D02*
X463800D01*
Y276872D02*
Y277146D01*
Y290884D02*
Y291316D01*
Y293788D02*
X463800D01*
X463900Y275172D02*
X463900D01*
Y276735D02*
Y277186D01*
Y290687D02*
Y291188D01*
Y293742D02*
Y293788D01*
X464000Y275172D02*
X464000D01*
Y276278D02*
Y276972D01*
Y293610D02*
Y293788D01*
X464100Y275172D02*
X464100D01*
Y275821D02*
Y276552D01*
Y293747D02*
Y293788D01*
X464200Y275168D02*
Y275176D01*
Y275364D02*
Y276132D01*
X464300Y273872D02*
Y273876D01*
Y274862D02*
Y275712D01*
X464400Y273872D02*
Y273909D01*
Y274482D02*
Y275292D01*
X464500Y273872D02*
Y274872D01*
X464600Y273872D02*
Y274452D01*
X464700Y273872D02*
Y274077D01*
Y290538D02*
Y290539D01*
Y293788D02*
X464700D01*
X464800Y273872D02*
Y273932D01*
Y290538D02*
Y290585D01*
Y293742D02*
Y293788D01*
X464900Y273872D02*
Y273896D01*
Y290538D02*
Y293788D01*
X465000Y290538D02*
Y293788D01*
X465100Y290538D02*
Y290716D01*
Y293610D02*
Y293788D01*
X465200Y290538D02*
Y290584D01*
Y293740D02*
Y293788D01*
X465300Y276479D02*
Y276491D01*
Y290538D02*
Y290551D01*
Y293760D02*
Y293788D01*
X465400Y276712D02*
Y276866D01*
Y290538D02*
Y290551D01*
Y293780D02*
Y293788D01*
X465500Y276882D02*
Y277122D01*
Y290538D02*
Y290576D01*
Y293776D02*
Y293778D01*
X465600Y277012D02*
Y277122D01*
Y290538D02*
Y290601D01*
Y293751D02*
Y293759D01*
X465700Y277048D02*
Y277122D01*
Y290543D02*
Y290626D01*
Y293726D02*
Y293741D01*
X465800Y277078D02*
Y277122D01*
Y290576D02*
Y290662D01*
Y293701D02*
Y293723D01*
X465900Y277103D02*
Y277122D01*
Y290610D02*
Y290720D01*
Y293658D02*
Y293705D01*
X466000Y290655D02*
Y290777D01*
Y293574D02*
Y293672D01*
X466100Y273872D02*
Y273901D01*
Y290730D02*
Y290834D01*
Y293491D02*
Y293597D01*
X466200Y273872D02*
Y274000D01*
Y277118D02*
Y277122D01*
Y290805D02*
Y290945D01*
Y293390D02*
Y293522D01*
X466300Y273872D02*
Y277122D01*
Y290880D02*
Y291096D01*
Y293185D02*
Y293447D01*
X466400Y273872D02*
Y277122D01*
Y290994D02*
Y291421D01*
Y292906D02*
Y293348D01*
X466500Y273872D02*
Y273932D01*
Y277122D02*
X466500D01*
Y291162D02*
Y293215D01*
X466600Y273872D02*
Y273896D01*
Y277122D02*
X466600D01*
Y291463D02*
Y292914D01*
X466700Y277122D02*
X466700D01*
X466800Y277106D02*
Y277122D01*
X466900Y277081D02*
Y277122D01*
X467000Y277051D02*
Y277122D01*
X467100Y277018D02*
Y277122D01*
X467200Y276843D02*
Y277122D01*
X467300Y276619D02*
Y276816D01*
X480600Y143953D02*
Y143981D01*
Y146505D02*
Y146533D01*
X480700Y143953D02*
Y146533D01*
X480800Y143953D02*
Y146533D01*
X480900Y143953D02*
Y143968D01*
Y146522D02*
Y146533D01*
X481500Y183401D02*
Y184468D01*
X481600Y143953D02*
Y143963D01*
Y183126D02*
Y184769D01*
X481700Y143953D02*
Y143990D01*
Y182990D02*
Y183339D01*
Y184729D02*
Y184986D01*
X481800Y143953D02*
Y144040D01*
Y182890D02*
Y183045D01*
Y184994D02*
Y185111D01*
X481900Y143953D02*
Y144131D01*
Y182799D02*
Y182875D01*
Y185156D02*
Y185214D01*
X482000Y144091D02*
Y144256D01*
Y185256D02*
Y185270D01*
X482100Y185309D02*
Y185310D01*
X482600Y183788D02*
Y183792D01*
Y185238D02*
Y185272D01*
X482700Y183748D02*
Y183792D01*
Y185122D02*
Y185272D01*
X482800Y182892D02*
Y183792D01*
Y184943D02*
Y185212D01*
X482900Y183649D02*
Y183792D01*
X483000Y183783D02*
Y183792D01*
X483100Y143953D02*
Y143972D01*
Y146513D02*
Y146533D01*
X483200Y143953D02*
Y146533D01*
X483300Y143953D02*
Y146533D01*
X483400Y143953D02*
Y143975D01*
Y146511D02*
Y146533D01*
X483500Y182732D02*
Y182748D01*
Y185297D02*
Y185312D01*
X483600Y182732D02*
Y182805D01*
Y185089D02*
Y185312D01*
X483700Y185068D02*
Y185312D01*
X483800Y184872D02*
Y185205D01*
X483900Y184675D02*
Y185005D01*
X484000Y184479D02*
Y184805D01*
X484100Y184282D02*
Y184605D01*
X484200Y184085D02*
Y184405D01*
X484300Y183889D02*
Y184205D01*
X484400Y183692D02*
Y184005D01*
X484500Y143953D02*
Y143970D01*
Y146515D02*
Y146533D01*
Y183495D02*
Y183805D01*
X484600Y143953D02*
Y144018D01*
Y146311D02*
Y146533D01*
Y183299D02*
Y183605D01*
X484700Y146281D02*
Y146533D01*
Y183102D02*
Y183405D01*
Y243878D02*
Y244488D01*
X484800Y146085D02*
Y146418D01*
Y182905D02*
Y183235D01*
Y185307D02*
Y185312D01*
Y243540D02*
Y245080D01*
X484900Y145888D02*
Y146218D01*
Y185200D02*
Y185312D01*
Y243252D02*
Y245300D01*
X485000Y145691D02*
Y146018D01*
Y185310D02*
Y185312D01*
Y243054D02*
Y243617D01*
Y245061D02*
Y245520D01*
X485100Y145495D02*
Y145818D01*
Y242979D02*
Y243284D01*
Y245336D02*
Y245672D01*
X485200Y145298D02*
Y145618D01*
Y242904D02*
Y243073D01*
Y245598D02*
Y245779D01*
X485300Y145101D02*
Y145418D01*
Y204590D02*
Y205851D01*
Y242829D02*
Y242953D01*
Y245786D02*
Y245839D01*
X485400Y144905D02*
Y145218D01*
Y204283D02*
Y206145D01*
Y242770D02*
Y242854D01*
Y245886D02*
Y245899D01*
X485500Y144708D02*
Y145018D01*
Y204026D02*
Y204861D01*
Y205721D02*
Y206365D01*
Y242730D02*
Y242803D01*
X485600Y144511D02*
Y144818D01*
Y182732D02*
Y182816D01*
Y185229D02*
Y185312D01*
Y203936D02*
Y204340D01*
Y206161D02*
Y206551D01*
Y242694D02*
Y242753D01*
X485700Y144315D02*
Y144618D01*
Y182732D02*
Y185312D01*
Y203861D02*
Y204059D01*
Y206436D02*
Y206684D01*
Y242694D02*
Y242744D01*
X485800Y144118D02*
Y144455D01*
Y146525D02*
Y146533D01*
Y182732D02*
Y182805D01*
Y185240D02*
Y185312D01*
Y203786D02*
Y203920D01*
Y206651D02*
Y206745D01*
Y242694D02*
Y242744D01*
X485900Y146428D02*
Y146533D01*
Y182732D02*
Y182735D01*
Y185302D02*
Y185312D01*
Y203714D02*
Y203820D01*
Y206777D02*
Y206805D01*
Y242707D02*
Y242756D01*
Y246033D02*
Y246040D01*
X486000Y146532D02*
Y146533D01*
Y203674D02*
Y203751D01*
Y242724D02*
Y242772D01*
Y246017D02*
Y246024D01*
X486100Y182732D02*
Y182742D01*
Y203634D02*
Y203701D01*
Y242740D02*
Y242789D01*
Y246000D02*
Y246007D01*
X486200Y182732D02*
Y182767D01*
Y203624D02*
Y203674D01*
Y242802D02*
Y242837D01*
Y245954D02*
Y245988D01*
X486300Y182749D02*
Y182792D01*
Y203624D02*
Y203674D01*
Y242869D02*
Y242917D01*
Y245879D02*
Y245963D01*
X486400Y182783D02*
Y182844D01*
Y185247D02*
Y185249D01*
Y203630D02*
Y203678D01*
Y206969D02*
X486400D01*
Y242941D02*
Y242997D01*
Y245786D02*
Y245944D01*
X486500Y182827D02*
Y182901D01*
Y185165D02*
Y185218D01*
Y203646D02*
Y203695D01*
Y206952D02*
Y206959D01*
Y243091D02*
Y243149D01*
Y245661D02*
Y245944D01*
X486600Y182902D02*
Y182958D01*
Y185082D02*
Y185143D01*
Y203663D02*
Y203712D01*
Y206935D02*
Y206942D01*
Y243260D02*
Y243333D01*
Y245506D02*
Y245971D01*
X486700Y182977D02*
Y183083D01*
Y184949D02*
Y185068D01*
Y203706D02*
Y203736D01*
Y206911D02*
Y206926D01*
Y243526D02*
Y243567D01*
Y245272D02*
Y245404D01*
X486800Y183071D02*
Y183313D01*
Y184720D02*
Y184982D01*
Y203772D02*
Y203816D01*
Y206836D02*
Y206901D01*
X486900Y183249D02*
Y184836D01*
Y203839D02*
Y203896D01*
Y206761D02*
Y206876D01*
X487000Y183564D02*
Y184521D01*
Y203963D02*
Y204015D01*
Y206637D02*
Y206874D01*
X487100Y204113D02*
Y204181D01*
Y206512D02*
Y206886D01*
Y242744D02*
Y242749D01*
X487200Y204354D02*
Y204407D01*
Y206290D02*
Y206549D01*
Y242744D02*
Y242782D01*
X487300Y242744D02*
Y242899D01*
X487400Y242744D02*
Y243259D01*
X487500Y242744D02*
Y242803D01*
Y243429D02*
Y243640D01*
X487600Y243749D02*
Y244021D01*
X487700Y203674D02*
Y203699D01*
Y244035D02*
Y244054D01*
Y244185D02*
Y244402D01*
X487800Y203674D02*
Y203736D01*
Y244044D02*
X487800D01*
Y244585D02*
Y244784D01*
X487900Y203674D02*
Y204043D01*
Y244044D02*
X487900D01*
Y244985D02*
Y245165D01*
X488000Y203674D02*
Y203770D01*
Y204237D02*
Y204424D01*
Y244044D02*
X488000D01*
Y245385D02*
Y245546D01*
X488100Y203674D02*
Y203677D01*
Y204557D02*
Y204805D01*
Y244044D02*
X488100D01*
Y245735D02*
Y245927D01*
X488200Y204877D02*
Y205187D01*
Y244044D02*
X488200D01*
Y245740D02*
Y246039D01*
X488300Y204974D02*
X488300D01*
Y205362D02*
Y205568D01*
Y244044D02*
X488300D01*
Y245375D02*
Y246050D01*
X488400Y204974D02*
X488400D01*
Y205762D02*
Y205949D01*
Y244044D02*
X488400D01*
Y244918D02*
Y245630D01*
X488500Y204974D02*
X488500D01*
Y206162D02*
Y206330D01*
Y244044D02*
X488500D01*
Y244461D02*
Y245210D01*
X488600Y204974D02*
X488600D01*
Y206562D02*
Y206712D01*
Y243921D02*
Y244790D01*
X488700Y204974D02*
X488700D01*
Y206674D02*
Y206953D01*
Y242744D02*
Y242765D01*
Y243541D02*
Y244370D01*
X488800Y204974D02*
X488800D01*
Y206478D02*
Y206993D01*
Y242744D02*
Y242799D01*
Y243161D02*
Y243950D01*
X488900Y204974D02*
X488900D01*
Y206021D02*
Y206719D01*
Y242744D02*
Y243530D01*
X489000Y204974D02*
X489000D01*
Y205564D02*
Y206299D01*
Y242744D02*
Y243110D01*
X489100Y204961D02*
Y204986D01*
Y205107D02*
Y205879D01*
Y242744D02*
Y242873D01*
X489200Y203674D02*
Y203682D01*
Y204615D02*
Y205459D01*
Y242744D02*
Y242785D01*
X489300Y203674D02*
Y203715D01*
Y204235D02*
Y205039D01*
Y242744D02*
Y242751D01*
X489400Y203674D02*
Y204619D01*
X489500Y203674D02*
Y204199D01*
X489600Y203674D02*
Y203859D01*
X489700Y203674D02*
Y203727D01*
Y242744D02*
Y242749D01*
Y245990D02*
Y245994D01*
X489800Y203674D02*
Y203693D01*
Y242744D02*
Y242799D01*
Y245940D02*
Y245994D01*
X489900Y242744D02*
Y242891D01*
Y245685D02*
Y245994D01*
X490000Y242744D02*
Y242778D01*
Y245690D02*
Y245994D01*
X490100Y245517D02*
Y245991D01*
X490200Y245320D02*
Y245791D01*
X490300Y203674D02*
Y203709D01*
Y206888D02*
Y206924D01*
Y245124D02*
Y245591D01*
X490400Y203674D02*
Y203828D01*
Y206770D02*
Y206924D01*
Y244927D02*
Y245391D01*
X490500Y203674D02*
Y203726D01*
Y206624D02*
Y206924D01*
Y244730D02*
Y245191D01*
X490600Y203674D02*
Y203677D01*
Y206521D02*
Y206924D01*
Y244534D02*
Y244991D01*
X490700Y206324D02*
Y206796D01*
Y244337D02*
Y244791D01*
X490800Y206127D02*
Y206596D01*
Y244140D02*
Y244591D01*
X490900Y205931D02*
Y206396D01*
Y243944D02*
Y244391D01*
X491000Y205734D02*
Y206196D01*
Y243747D02*
Y244191D01*
X491100Y205537D02*
Y205996D01*
Y243550D02*
Y243991D01*
X491200Y205341D02*
Y205796D01*
Y243354D02*
Y243791D01*
X491300Y205144D02*
Y205596D01*
Y243157D02*
Y243591D01*
X491400Y204947D02*
Y205396D01*
Y242960D02*
Y243404D01*
Y245965D02*
Y245994D01*
X491500Y204751D02*
Y205196D01*
Y242764D02*
Y243399D01*
Y245864D02*
Y245994D01*
X491600Y204554D02*
Y204996D01*
Y245935D02*
Y245994D01*
X491700Y204357D02*
Y204796D01*
Y245986D02*
Y245994D01*
X491800Y204161D02*
Y204596D01*
X491900Y203964D02*
Y204396D01*
Y206913D02*
Y206924D01*
X492000Y203767D02*
Y204324D01*
Y206861D02*
Y206924D01*
X492100Y206801D02*
Y206924D01*
Y241944D02*
Y241994D01*
X492200Y206896D02*
Y206924D01*
Y241944D02*
Y241994D01*
X492300Y241944D02*
Y241994D01*
X492400Y241944D02*
Y241994D01*
X492500Y241944D02*
Y241994D01*
X492600Y202874D02*
Y202924D01*
Y241944D02*
Y241994D01*
X492700Y202874D02*
Y202924D01*
Y241944D02*
Y241994D01*
X492800Y202874D02*
Y202924D01*
Y241944D02*
Y241994D01*
X492900Y202874D02*
Y202924D01*
Y241944D02*
Y241994D01*
X493000Y202874D02*
Y202924D01*
Y241944D02*
Y241994D01*
X493100Y202874D02*
Y202924D01*
Y241944D02*
Y241994D01*
X493200Y202874D02*
Y202924D01*
Y241944D02*
Y241994D01*
X493300Y202874D02*
Y202924D01*
Y241944D02*
Y241994D01*
X493400Y202874D02*
Y202924D01*
Y241944D02*
Y241994D01*
X493500Y202874D02*
Y202924D01*
Y241944D02*
Y241994D01*
X493600Y202874D02*
Y202924D01*
Y241944D02*
Y241994D01*
X493700Y202874D02*
Y202924D01*
Y241944D02*
Y241994D01*
X493800Y202874D02*
Y202924D01*
Y241944D02*
Y241994D01*
X493900Y202874D02*
Y202924D01*
Y241944D02*
Y241994D01*
X494000Y202874D02*
Y202924D01*
Y241944D02*
Y241994D01*
X494100Y202874D02*
Y202924D01*
Y241944D02*
Y241994D01*
X494200Y202874D02*
Y202924D01*
Y241944D02*
Y241994D01*
X494300Y202874D02*
Y202924D01*
Y241944D02*
Y241994D01*
X494400Y202874D02*
Y202924D01*
Y241944D02*
Y241994D01*
X494500Y202874D02*
Y202924D01*
X494600Y202874D02*
Y202924D01*
X494700Y202874D02*
Y202924D01*
Y242744D02*
Y242749D01*
Y245990D02*
Y245994D01*
X494800Y202874D02*
Y202924D01*
Y242744D02*
Y242799D01*
Y245940D02*
Y245994D01*
X494900Y202874D02*
Y202924D01*
Y242744D02*
Y245994D01*
X495000Y242744D02*
Y245994D01*
X495100Y242744D02*
Y242891D01*
Y244435D02*
Y244454D01*
Y245848D02*
Y245994D01*
X495200Y242744D02*
Y242778D01*
Y244444D02*
X495200D01*
Y245961D02*
Y245994D01*
X495300Y244444D02*
X495300D01*
X495400Y203674D02*
Y203709D01*
Y206888D02*
Y206924D01*
Y244444D02*
X495400D01*
X495500Y203674D02*
Y203828D01*
Y206770D02*
Y206924D01*
Y244444D02*
X495500D01*
X495600Y203674D02*
Y206924D01*
Y244444D02*
X495600D01*
X495700Y203674D02*
Y206924D01*
Y244444D02*
X495700D01*
X495800Y203674D02*
Y203727D01*
Y206871D02*
Y206924D01*
Y244444D02*
X495800D01*
X495900Y203674D02*
Y203693D01*
Y206921D02*
Y206924D01*
Y244444D02*
X495900D01*
X496000Y203674D02*
X496000D01*
Y244444D02*
X496000D01*
X496100Y203674D02*
X496100D01*
Y244444D02*
X496100D01*
X496200Y203674D02*
X496200D01*
Y242744D02*
Y242749D01*
Y244444D02*
X496200D01*
Y245990D02*
Y245994D01*
X496300Y203674D02*
X496300D01*
Y242744D02*
Y242799D01*
Y244444D02*
X496300D01*
Y245940D02*
Y245994D01*
X496400Y203674D02*
X496400D01*
Y242744D02*
Y245994D01*
X496500Y203674D02*
Y203678D01*
Y242744D02*
Y245994D01*
X496600Y203674D02*
Y203695D01*
Y242744D02*
Y242891D01*
Y245848D02*
Y245994D01*
X496700Y203674D02*
Y203712D01*
Y242744D02*
Y242778D01*
Y245961D02*
Y245994D01*
X496800Y203674D02*
Y203734D01*
X496900Y203674D02*
Y203784D01*
X497000Y203674D02*
Y203836D01*
X497100Y203674D02*
Y203960D01*
X497200Y203793D02*
Y204085D01*
X497300Y204293D02*
Y204351D01*
*
G04 PC Custom Flashes*
G04 Layer Name Car_Vide2o.pcb - flashes*
%LPD*%
*
*
G04 PC Circuitry*
G04 Layer Name Car_Vide2o.pcb - circuitry*
%LPD*%
*
G54D10*
G54D52*
X245156Y306706D02*
X251156D01*
Y318706*
X245156*
Y306706*
X257542Y306831D02*
X263542D01*
Y318831*
X257542*
Y306831*
X244622Y234613D02*
X250622D01*
Y246613*
X244622*
Y234613*
G54D53*
X254074Y135365D02*
X253801Y135203D01*
X253392Y134715*
Y138128*
X346301Y132715D02*
X347665D01*
X347801Y134178*
X347665Y134015*
X347256Y133853*
X346846*
X346437Y134015*
X346165Y134340*
X346028Y134828*
X346165Y135153*
X346301Y135640*
X346574Y135965*
X346983Y136128*
X347392*
X347801Y135965*
X347937Y135803*
X348074Y135478*
X343983Y132715D02*
X344392Y132878D01*
X344665Y133365*
X344801Y134178*
Y134665*
X344665Y135478*
X344392Y135965*
X343983Y136128*
X343710*
X343301Y135965*
X343028Y135478*
X342892Y134665*
Y134178*
X343028Y133365*
X343301Y132878*
X343710Y132715*
X343983*
G54D54*
X320621Y129351D02*
Y131713D01*
X253649Y129441D02*
Y133496D01*
X281011Y129537D02*
Y131584D01*
X261399Y129348D02*
Y131592D01*
X271334Y129379D02*
Y133671D01*
X290901Y129379D02*
Y133553D01*
X310725Y129397D02*
Y133413D01*
X330418Y129441D02*
Y133851D01*
X300686Y129529D02*
Y131891D01*
X340608Y138812D02*
X343108D01*
Y143812*
X334608Y138812D02*
X332108D01*
Y143812*
X338108Y147812D02*
X337108D01*
X210202Y332997D02*
Y318430D01*
X233832Y332997D02*
Y318430D01*
X210202Y332997D02*
X233824D01*
X210202Y318430D02*
X233824D01*
X238241Y251759D02*
Y188866D01*
X226541*
Y251759*
X238241*
X496159Y318885D02*
X470859D01*
Y330485*
X496159*
Y318885*
X433457Y101245D02*
X384244D01*
Y124474*
X433457*
Y101245*
X411850Y101488D02*
X406050D01*
Y103088*
X411850*
Y101488*
X302888Y312747D02*
Y315247D01*
X297888*
X302888Y306747D02*
Y304247D01*
X297888*
X293888Y310247D02*
Y309247D01*
X466238Y175232D02*
X468738D01*
Y180232*
X460238Y175232D02*
X457738D01*
Y180232*
X463738Y184232D02*
X462738D01*
X459547Y209394D02*
X457047D01*
Y204394*
X465547Y209394D02*
X468047D01*
Y204394*
X462047Y200394D02*
X463047D01*
X465938Y231892D02*
X468438D01*
Y236892*
X459938Y231892D02*
X457438D01*
Y236892*
X463438Y240892D02*
X462438D01*
X389456Y253514D02*
Y213750D01*
X349692*
Y253514*
X389456*
X227805Y115922D02*
Y112422D01*
X227623Y111766*
X227441Y111547*
X227078Y111328*
X226714*
X226351Y111547*
X226169Y111766*
X225987Y112422*
Y112859*
X231987Y115922D02*
X230169Y111328D01*
X229441Y115922D02*
X231987D01*
X100000Y336220D02*
X533071D01*
Y100000*
X100000*
Y336220*
G54D68*
X252824Y277703D02*
X255580D01*
Y271403*
X252824*
Y277703*
X243938Y286801D02*
G75*
G03Y284044I1378J-1378D01*
G01X249844*
X249843Y284043D02*
G03X249845Y286799I-1587J1380D01*
G01X249844Y286801D02*
X243938D01*
X347610Y283143D02*
Y288490D01*
X347610D02*
X340130D01*
X340130D02*
Y283143D01*
X347557Y277145D02*
Y271485D01*
X346756Y271482*
X340132*
X340130Y271484*
Y277143*
X377627Y185239D02*
X364521D01*
Y206774*
X377627*
Y185239*
X366956Y205278D02*
G03X366956I-864J0D01*
G01X246261Y311788D02*
X250057D01*
X248159Y313656*
X246261Y311788*
X248187Y313328D02*
Y311825D01*
X246828Y313656D02*
X249674D01*
X258647Y311913D02*
X262443D01*
X260545Y313781*
X258647Y311913*
X260573Y313453D02*
Y311950D01*
X259214Y313781D02*
X262060D01*
X283139Y196255D02*
G03X283139I-1037J0D01*
G01X285190Y208184D02*
X290923D01*
X285214Y198341D02*
X290864D01*
X281749Y202617D02*
Y203904D01*
X294348Y202585D02*
Y203904D01*
X248762Y230674D02*
G03Y233430I-1378J1378D01*
G01X242856*
X242857Y233432D02*
G03X242855Y230675I1587J-1380D01*
G01X242856Y230674D02*
X248762D01*
X204476Y277713D02*
G03X204476I-1037J0D01*
G01X200351Y265784D02*
X194619D01*
X200327Y275626D02*
X194678D01*
X203792Y271351D02*
Y270063D01*
X191193Y271382D02*
Y270063D01*
X296880Y176298D02*
G03X299637I1379J1379D01*
G01Y182205*
X299638Y182204D02*
G03X296882Y182206I-1379J-1587D01*
G01X296880Y182205D02*
Y176298D01*
X346530Y141119D02*
Y135772D01*
X354011*
Y141119*
X346584Y147116D02*
Y152776D01*
X347384Y152780*
X354009*
X354011Y152778*
Y147119*
X207706Y268984D02*
G03X210463I1378J1378D01*
G01Y274890*
X210464Y274889D02*
G03X207708Y274891I-1380J-1587D01*
G01X207706Y274890D02*
Y268984D01*
X187632Y274649D02*
G03X184876I-1378J-1378D01*
G01X184875Y268743*
X184874Y268744D02*
G03X187631Y268742I1380J1587D01*
G01X187632Y268743D02*
Y274649D01*
X411501Y252551D02*
Y247205D01*
X418981*
Y252551*
X411554Y258549D02*
Y264209D01*
X412354Y264212*
X418979*
X418981Y264210*
Y258551*
X401636Y252551D02*
Y247205D01*
X409116*
Y252551*
X401689Y258549D02*
Y264209D01*
X402490Y264212*
X409114*
X409116Y264210*
Y258551*
X404804Y278937D02*
Y273591D01*
X412285*
Y278937*
X404858Y284935D02*
Y290595D01*
X405658Y290598*
X412283*
X412285Y290596*
Y284937*
X476403Y316445D02*
X471056D01*
Y308965*
X476403*
X482400Y316392D02*
X488060D01*
X488064Y315592*
Y308967*
X488062Y308965*
X482403*
X218654Y312658D02*
G03Y309901I1378J-1378D01*
G01X224561*
X224559Y309900D02*
G03X224562Y312656I-1587J1380D01*
G01X224561Y312658D02*
X218654D01*
X298993Y200053D02*
G03X301750I1378J1378D01*
G01Y205960*
X301751Y205958D02*
G03X298994Y205961I-1380J-1587D01*
G01X298993Y205960D02*
Y200053D01*
X278047Y204830D02*
G03X275291I-1378J-1378D01*
G01Y198924*
X275290Y198925D02*
G03X278046Y198922I1379J1587D01*
G01X278048Y198924D02*
X278047Y204830D01*
X440871Y166975D02*
X427765D01*
Y188510*
X427765D02*
X440871D01*
X440871D02*
Y166975D01*
X430200Y187014D02*
G03X430200I-864J0D01*
G01X464408Y167181D02*
G03Y169937I-1379J1378D01*
G01X458501*
X458502Y169939D02*
G03X458500Y167182I1587J-1380D01*
G01X458501Y167181D02*
X464408D01*
X441157Y209613D02*
X428051D01*
Y231148*
X441157*
Y209613*
X430487Y229652D02*
G03X430487I-865J0D01*
G01X443312Y303944D02*
X430206D01*
Y325479*
X443312*
Y303944*
X432641Y323983D02*
G03X432641I-864J0D01*
G01X364408Y176396D02*
X377514D01*
Y154861*
X364408*
Y176396*
X376808Y156357D02*
G03X376808I-864J0D01*
G01X456268Y161209D02*
G03Y158453I1378J-1378D01*
G01X462175Y158452*
X462174Y158451D02*
G03X462176Y161208I-1588J1380D01*
G01X462175Y161209D02*
X456268D01*
X309417Y305958D02*
Y300612D01*
X316898*
Y305958*
X309471Y311956D02*
Y317616D01*
X310271Y317619*
X316895*
X316898Y317617*
Y311958*
X324668Y308126D02*
Y302780D01*
X332148*
Y308126*
X324722Y314124D02*
Y319784D01*
X325522Y319787*
X332146*
X332148Y319785*
Y314126*
X414744Y278937D02*
Y273591D01*
X422224*
Y278937*
X414798Y284935D02*
Y290595D01*
X415598Y290598*
X422222*
X422224Y290596*
Y284937*
X350345Y307752D02*
Y302406D01*
X357825*
Y307752*
X350399Y313750D02*
Y319410D01*
X351199Y319413*
X357823*
X357825Y319411*
Y313752*
X269411Y308030D02*
Y302683D01*
X276891*
Y308030*
X269464Y314028D02*
Y319688D01*
X270265Y319691*
X276889*
X276891Y319689*
Y314030*
X358038Y283143D02*
Y288490D01*
X350558*
Y283143*
X357985Y277145D02*
Y271485D01*
X357184Y271482*
X350560*
X350558Y271484*
Y277143*
X288314Y178034D02*
Y172688D01*
X295794*
Y178034*
X288367Y184032D02*
Y189692D01*
X289168Y189696*
X295792*
X295794Y189693*
Y184034*
X338199Y307976D02*
Y302630D01*
X345680*
Y307976*
X338253Y313974D02*
Y319634D01*
X339053Y319638*
X345678*
X345680Y319635*
Y313976*
X279649Y308030D02*
Y302684D01*
X287129*
Y308030*
X279702Y314028D02*
Y319688D01*
X280503Y319692*
X287127*
X287129Y319689*
Y314030*
X459169Y309782D02*
Y304436D01*
X466650*
Y309782*
X459223Y315780D02*
Y321440D01*
X460023Y321444*
X466647*
X466650Y321441*
Y315782*
X224696Y308397D02*
Y305641D01*
X218397*
Y308397*
X224696*
X218464Y313974D02*
Y316730D01*
X224764*
Y313974*
X218464*
X173667Y171474D02*
X170911D01*
Y177773*
X173667*
Y171474*
X178047D02*
X175292D01*
Y177773*
X178047*
Y171474*
X182285D02*
X179530D01*
Y177773*
X182285*
Y171474*
X340855Y152919D02*
Y150163D01*
X334555*
Y152919*
X340855*
X334460Y153780D02*
Y156536D01*
X340759*
Y153780*
X334460*
X198330Y259755D02*
Y262511D01*
X204629*
Y259755*
X198330*
X190512Y259818D02*
Y262574D01*
X196811*
Y259818*
X190512*
X184889Y266564D02*
X187645D01*
Y260265*
X184889*
Y266564*
X178288Y266095D02*
X181044D01*
Y259795*
X178288*
Y266095*
X174443Y266005D02*
X177199D01*
Y259706*
X174443*
Y266005*
X170541Y266022D02*
X173297D01*
Y259723*
X170541*
Y266022*
X164725Y275046D02*
X167481D01*
Y268747*
X164725*
Y275046*
X167465Y259606D02*
X164709D01*
Y265906*
X167465*
Y259606*
X270669Y205122D02*
X273425D01*
Y198823*
X270669*
Y205122*
X455130Y223450D02*
X457886D01*
Y217151*
X455130*
Y223450*
X244624Y277693D02*
G03Y274937I1378J-1378D01*
G01X250530*
X250529Y274935D02*
G03X250532Y277692I-1587J1380D01*
G01X250530Y277693D02*
X244624D01*
X243730Y280177D02*
Y282933D01*
X250029*
Y280177*
X243730*
X252961Y286864D02*
X255717D01*
Y280564*
X252961*
Y286864*
X244290Y270509D02*
Y273265D01*
X250589*
Y270509*
X244290*
X400702Y149377D02*
Y166699D01*
X411726*
Y149377*
X400702*
X259326Y276507D02*
X256701D01*
X259326D02*
Y275688D01*
X259201Y275416*
X259076Y275325*
X258826Y275234*
X258576*
X258326Y275325*
X258201Y275416*
X258076Y275688*
Y276507*
Y275870D02*
X256701Y275234D01*
X258951Y273325D02*
X259201Y273416D01*
X259326Y273688*
Y273870*
X259201Y274143*
X258826Y274325*
X258201Y274416*
X257576*
X257076Y274325*
X256826Y274143*
X256701Y273870*
Y273779*
X256826Y273507*
X257076Y273325*
X257451Y273234*
X257576*
X257951Y273325*
X258201Y273507*
X258326Y273779*
Y273870*
X258201Y274143*
X257951Y274325*
X257576Y274416*
X259326Y271507D02*
X257576Y272416D01*
Y271052*
X259326Y271507D02*
X256701D01*
X236824Y285992D02*
X236710Y286305D01*
X236483Y286617*
X236256Y286773*
X235801*
X235574Y286617*
X235347Y286305*
X235233Y285992*
X235119Y285523*
Y284742*
X235233Y284273*
X235347Y283961*
X235574Y283648*
X235801Y283492*
X236256*
X236483Y283648*
X236710Y283961*
X236824Y284273*
X238074Y286773D02*
X239324D01*
X238642Y285523*
X238983*
X239210Y285367*
X239324Y285211*
X239438Y284742*
Y284430*
X239324Y283961*
X239097Y283648*
X238756Y283492*
X238415*
X238074Y283648*
X237960Y283805*
X237847Y284117*
X241597Y286773D02*
X240460Y284586D01*
X242165*
X241597Y286773D02*
Y283492D01*
X328766Y197484D02*
Y194859D01*
X328129Y197484D02*
X329402D01*
X330311Y196859D02*
Y196984D01*
X330311D02*
X330402Y197234D01*
X330402D02*
X330493Y197359D01*
X330493D02*
X330675Y197484D01*
X330675D02*
X331038D01*
X331038D02*
X331220Y197359D01*
X331220D02*
X331311Y197234D01*
X331311D02*
X331402Y196984D01*
X331402D02*
Y196734D01*
X331402D02*
X331311Y196484D01*
X331311D02*
X331129Y196109D01*
X331129D02*
X330220Y194859D01*
X330220D02*
X331493D01*
X332493Y197484D02*
X333493D01*
X333493D02*
X332948Y196484D01*
X332948D02*
X333220D01*
X333220D02*
X333402Y196359D01*
X333402D02*
X333493Y196234D01*
X333493D02*
X333584Y195859D01*
X333584D02*
Y195609D01*
X333584D02*
X333493Y195234D01*
X333493D02*
X333311Y194984D01*
X333311D02*
X333038Y194859D01*
X333038D02*
X332766D01*
X332766D02*
X332493Y194984D01*
X332493D02*
X332402Y195109D01*
X332402D02*
X332311Y195359D01*
X344579Y268373D02*
X344829Y268463D01*
X345079Y268645*
X345204Y268827*
Y269191*
X345079Y269373*
X344829Y269554*
X344579Y269645*
X344204Y269736*
X343579*
X343204Y269645*
X342954Y269554*
X342704Y269373*
X342579Y269191*
Y268827*
X342704Y268645*
X342954Y268463*
X343204Y268373*
X344579Y267463D02*
X344704D01*
X344954Y267373*
X345079Y267282*
X345204Y267100*
Y266736*
X345079Y266554*
X344954Y266463*
X344704Y266373*
X344454*
X344204Y266463*
X343829Y266645*
X342579Y267554*
Y266282*
X344704Y265463D02*
X344829Y265282D01*
X345204Y265009*
X342579*
X370094Y184031D02*
X369912Y183906D01*
X369730Y183656*
X369639Y183406*
X369549Y183031*
Y182406*
X369639Y182031*
X369730Y181781*
X369912Y181531*
X370094Y181406*
X370458*
X370639Y181531*
X370821Y181781*
X370912Y182031*
X371003Y182406*
Y183031*
X370912Y183406*
X370821Y183656*
X370639Y183906*
X370458Y184031*
X370094*
X370367Y181906D02*
X370912Y181156D01*
X371912Y183406D02*
Y183531D01*
X372003Y183781*
X372094Y183906*
X372276Y184031*
X372639*
X372821Y183906*
X372912Y183781*
X373003Y183531*
Y183281*
X372912Y183031*
X372730Y182656*
X371821Y181406*
X373094*
X202470Y251779D02*
Y249904D01*
X202561Y249529*
X202743Y249279*
X203015Y249154*
X203197*
X203470Y249279*
X203652Y249529*
X203743Y249904*
Y251779*
X204561Y251279D02*
X204743Y251404D01*
X205015Y251779*
Y249154*
X205924Y251154D02*
Y251279D01*
X206015Y251529*
X206106Y251654*
X206288Y251779*
X206652*
X206833Y251654*
X206924Y251529*
X207015Y251279*
Y251029*
X206924Y250779*
X206743Y250404*
X205833Y249154*
X207106*
X415966Y272717D02*
Y270092D01*
X415330Y272717D02*
X416602D01*
X417421Y272217D02*
X417602Y272342D01*
X417875Y272717*
Y270092*
X418875Y272717D02*
X419875D01*
X419330Y271717*
X419602*
X419784Y271592*
X419875Y271467*
X419966Y271092*
Y270842*
X419875Y270467*
X419693Y270217*
X419421Y270092*
X419148*
X418875Y270217*
X418784Y270342*
X418693Y270592*
X310939Y304418D02*
Y301793D01*
X310302Y304418D02*
X311575D01*
X312575D02*
X313575D01*
X313029Y303418*
X313302*
X313484Y303293*
X313575Y303168*
X313666Y302793*
Y302543*
X313575Y302168*
X313393Y301918*
X313120Y301793*
X312848*
X312575Y301918*
X312484Y302043*
X312393Y302293*
X315029Y304418D02*
X314757Y304293D01*
X314575Y303918*
X314484Y303293*
Y302918*
X314575Y302293*
X314757Y301918*
X315029Y301793*
X315211*
X315484Y301918*
X315666Y302293*
X315757Y302918*
Y303293*
X315666Y303918*
X315484Y304293*
X315211Y304418*
X315029*
X330106Y207625D02*
Y205000D01*
X329469Y207625D02*
X330742D01*
X331651Y207000D02*
Y207125D01*
X331742Y207375*
X331833Y207500*
X332015Y207625*
X332379*
X332560Y207500*
X332651Y207375*
X332742Y207125*
Y206875*
X332651Y206625*
X332469Y206250*
X331560Y205000*
X332833*
X334560Y207625D02*
X333651Y205875D01*
X335015*
X334560Y207625D02*
Y205000D01*
X309970Y274286D02*
Y271661D01*
X309333Y274286D02*
X310606D01*
X311424Y273786D02*
X311606Y273911D01*
X311879Y274286*
Y271661*
X313788Y273911D02*
X313697Y274161D01*
X313424Y274286*
X313242*
X312970Y274161*
X312788Y273786*
X312697Y273161*
Y272536*
X312788Y272036*
X312970Y271786*
X313242Y271661*
X313333*
X313606Y271786*
X313788Y272036*
X313879Y272411*
Y272536*
X313788Y272911*
X313606Y273161*
X313333Y273286*
X313242*
X312970Y273161*
X312788Y272911*
X312697Y272536*
X303043Y277742D02*
Y275117D01*
X302406Y277742D02*
X303679D01*
X304497Y277242D02*
X304679Y277367D01*
X304952Y277742*
Y275117*
X307043Y277742D02*
X306134Y275117D01*
X305770Y277742D02*
X307043D01*
X249330Y327392D02*
X246705D01*
X249330D02*
Y326756D01*
X249205Y326483*
X248955Y326301*
X248705Y326211*
X248330Y326120*
X247705*
X247330Y326211*
X247080Y326301*
X246830Y326483*
X246705Y326756*
Y327392*
X249330Y324120D02*
Y325029D01*
X248205Y325120*
X248330Y325029*
X248455Y324756*
Y324483*
X248330Y324211*
X248080Y324029*
X247705Y323938*
X247455Y324029*
X247080Y324120*
X246830Y324301*
X246705Y324574*
Y324847*
X246830Y325120*
X246955Y325211*
X247205Y325301*
X260693Y328140D02*
X258068D01*
X260693D02*
Y327504D01*
X260568Y327231*
X260318Y327050*
X260068Y326959*
X259693Y326868*
X259068*
X258693Y326959*
X258443Y327050*
X258193Y327231*
X258068Y327504*
Y328140*
X260693Y325140D02*
X258943Y326050D01*
Y324686*
X260693Y325140D02*
X258068D01*
X286287Y212575D02*
X287015Y211325D01*
Y209950*
X287742Y212575D02*
X287015Y211325D01*
X288560Y212075D02*
X288742Y212200D01*
X289015Y212575*
Y209950*
X314875Y282769D02*
Y280144D01*
X314239Y282769D02*
X315512D01*
X316330Y282269D02*
X316512Y282394D01*
X316784Y282769*
Y280144*
X318784Y282769D02*
X317875D01*
X317784Y281644*
X317875Y281769*
X318148Y281894*
X318421*
X318693Y281769*
X318875Y281519*
X318966Y281144*
X318875Y280894*
X318784Y280519*
X318603Y280269*
X318330Y280144*
X318057*
X317784Y280269*
X317693Y280394*
X317603Y280644*
X315449Y258602D02*
Y255977D01*
X314813Y258602D02*
X316085D01*
X316994Y257977D02*
Y258102D01*
X317085Y258352*
X317176Y258477*
X317358Y258602*
X317722*
X317904Y258477*
X317994Y258352*
X318085Y258102*
Y257852*
X317994Y257602*
X317813Y257227*
X316904Y255977*
X318176*
X318994Y258102D02*
X319176Y258227D01*
X319449Y258602*
Y255977*
X288198Y275117D02*
Y272492D01*
X287561Y275117D02*
X288834D01*
X289652Y274617D02*
X289834Y274742D01*
X290107Y275117*
Y272492*
X291834Y275117D02*
X290925Y273367D01*
X292289*
X291834Y275117D02*
Y272492D01*
X246030Y224985D02*
Y222360D01*
X245394Y224985D02*
X246666D01*
X247485Y224485D02*
X247666Y224610D01*
X247939Y224985*
Y222360*
X249939Y224110D02*
X249848Y223735D01*
X249666Y223485*
X249394Y223360*
X249303*
X249030Y223485*
X248848Y223735*
X248757Y224110*
Y224235*
X248848Y224610*
X249030Y224860*
X249303Y224985*
X249394*
X249666Y224860*
X249848Y224610*
X249939Y224110*
Y223485*
X249848Y222860*
X249666Y222485*
X249394Y222360*
X249212*
X248939Y222485*
X248848Y222735*
X244930Y228748D02*
X244817Y229061D01*
X244589Y229373*
X244362Y229529*
X243908*
X243680Y229373*
X243453Y229061*
X243339Y228748*
X243226Y228279*
Y227498*
X243339Y227029*
X243453Y226717*
X243680Y226404*
X243908Y226248*
X244362*
X244589Y226404*
X244817Y226717*
X244930Y227029*
X247544Y229529D02*
X246408Y226248D01*
X245953Y229529D02*
X247544D01*
X245543Y250628D02*
Y248003D01*
X246634*
X247452Y250128D02*
X247634Y250253D01*
X247907Y250628*
Y248003*
X219534Y199029D02*
Y196404D01*
X218898Y199029D02*
X220170D01*
X220989Y198529D02*
X221170Y198654D01*
X221443Y199029*
Y196404*
X222261Y198529D02*
X222443Y198654D01*
X222716Y199029*
Y196404*
X216550Y203886D02*
Y201261D01*
X215913Y203886D02*
X217186D01*
X218004Y203386D02*
X218186Y203511D01*
X218459Y203886*
Y201261*
X219822Y203886D02*
X219550Y203761D01*
X219368Y203386*
X219277Y202761*
Y202386*
X219368Y201761*
X219550Y201386*
X219822Y201261*
X220004*
X220277Y201386*
X220459Y201761*
X220550Y202386*
Y202761*
X220459Y203386*
X220277Y203761*
X220004Y203886*
X219822*
X171760Y185163D02*
Y182538D01*
X171123Y185163D02*
X172396D01*
X173305Y184538D02*
Y184663D01*
X173396Y184913*
X173487Y185038*
X173669Y185163*
X174032*
X174214Y185038*
X174305Y184913*
X174396Y184663*
Y184413*
X174305Y184163*
X174123Y183788*
X173214Y182538*
X174487*
X176396Y184788D02*
X176305Y185038D01*
X176032Y185163*
X175851*
X175578Y185038*
X175396Y184663*
X175305Y184038*
Y183413*
X175396Y182913*
X175578Y182663*
X175851Y182538*
X175942*
X176214Y182663*
X176396Y182913*
X176487Y183288*
Y183413*
X176396Y183788*
X176214Y184038*
X175942Y184163*
X175851*
X175578Y184038*
X175396Y183788*
X175305Y183413*
X195899Y279873D02*
X196626Y278623D01*
Y277248*
X197353Y279873D02*
X196626Y278623D01*
X198263Y279248D02*
Y279373D01*
X198353Y279623*
X198444Y279748*
X198626Y279873*
X198990*
X199172Y279748*
X199263Y279623*
X199353Y279373*
Y279123*
X199263Y278873*
X199081Y278498*
X198172Y277248*
X199444*
X316060Y142348D02*
Y139723D01*
X315424Y142348D02*
X316697D01*
X317606Y141723D02*
Y141848D01*
X317697Y142098*
X317788Y142223*
X317969Y142348*
X318333*
X318515Y142223*
X318606Y142098*
X318697Y141848*
Y141598*
X318606Y141348*
X318424Y140973*
X317515Y139723*
X318788*
X320788Y141473D02*
X320697Y141098D01*
X320515Y140848*
X320242Y140723*
X320151*
X319878Y140848*
X319697Y141098*
X319606Y141473*
Y141598*
X319697Y141973*
X319878Y142223*
X320151Y142348*
X320242*
X320515Y142223*
X320697Y141973*
X320788Y141473*
Y140848*
X320697Y140223*
X320515Y139848*
X320242Y139723*
X320060*
X319788Y139848*
X319697Y140098*
X312173Y137116D02*
Y134491D01*
X311537Y137116D02*
X312809D01*
X313719Y136491D02*
Y136616D01*
X313809Y136866*
X313900Y136991*
X314082Y137116*
X314446*
X314628Y136991*
X314719Y136866*
X314809Y136616*
Y136366*
X314719Y136116*
X314537Y135741*
X313628Y134491*
X314900*
X316173Y137116D02*
X315900Y136991D01*
X315809Y136741*
Y136491*
X315900Y136241*
X316082Y136116*
X316446Y135991*
X316719Y135866*
X316900Y135616*
X316991Y135366*
Y134991*
X316900Y134741*
X316809Y134616*
X316537Y134491*
X316173*
X315900Y134616*
X315809Y134741*
X315719Y134991*
Y135366*
X315809Y135616*
X315991Y135866*
X316264Y135991*
X316628Y136116*
X316809Y136241*
X316900Y136491*
Y136741*
X316809Y136991*
X316537Y137116*
X316173*
X304562Y183126D02*
X304874Y183240D01*
X305187Y183467*
X305343Y183694*
Y184149*
X305187Y184376*
X304874Y184603*
X304562Y184717*
X304093Y184831*
X303312*
X302843Y184717*
X302530Y184603*
X302218Y184376*
X302062Y184149*
Y183694*
X302218Y183467*
X302530Y183240*
X302843Y183126*
X305343Y181876D02*
Y180626D01*
X304093Y181308*
Y180967*
X303937Y180740*
X303780Y180626*
X303312Y180513*
X302999*
X302530Y180626*
X302218Y180853*
X302062Y181194*
Y181535*
X302218Y181876*
X302374Y181990*
X302687Y182103*
X305343Y177899D02*
X302062Y179035D01*
X305343Y179490D02*
Y177899D01*
X349215Y155672D02*
X349124Y155922D01*
X348943Y156172*
X348761Y156297*
X348397*
X348215Y156172*
X348034Y155922*
X347943Y155672*
X347852Y155297*
Y154672*
X347943Y154297*
X348034Y154047*
X348215Y153797*
X348397Y153672*
X348761*
X348943Y153797*
X349124Y154047*
X349215Y154297*
X351215Y156297D02*
X350306D01*
X350215Y155172*
X350306Y155297*
X350579Y155422*
X350852*
X351124Y155297*
X351306Y155047*
X351397Y154672*
X351306Y154422*
X351215Y154047*
X351034Y153797*
X350761Y153672*
X350488*
X350215Y153797*
X350124Y153922*
X350034Y154172*
X353397Y156297D02*
X352488D01*
X352397Y155172*
X352488Y155297*
X352761Y155422*
X353034*
X353306Y155297*
X353488Y155047*
X353579Y154672*
X353488Y154422*
X353397Y154047*
X353215Y153797*
X352943Y153672*
X352670*
X352397Y153797*
X352306Y153922*
X352215Y154172*
X327707Y143844D02*
X327525Y143719D01*
X327343Y143469*
X327252Y143219*
X327161Y142844*
Y142219*
X327252Y141844*
X327343Y141594*
X327525Y141344*
X327707Y141219*
X328071*
X328252Y141344*
X328434Y141594*
X328525Y141844*
X328616Y142219*
Y142844*
X328525Y143219*
X328434Y143469*
X328252Y143719*
X328071Y143844*
X327707*
X327980Y141719D02*
X328525Y140969D01*
X330343Y143844D02*
X329434Y142094D01*
X330798*
X330343Y143844D02*
Y141219D01*
X156733Y175668D02*
Y173043D01*
X156097Y175668D02*
X157370D01*
X158279Y175043D02*
Y175168D01*
X158370Y175418*
X158461Y175543*
X158643Y175668*
X159006*
X159188Y175543*
X159279Y175418*
X159370Y175168*
Y174918*
X159279Y174668*
X159097Y174293*
X158188Y173043*
X159461*
X161552Y175668D02*
X160643Y173043D01*
X160279Y175668D02*
X161552D01*
X209349Y283231D02*
X209662Y283345D01*
X209974Y283572*
X210130Y283799*
Y284254*
X209974Y284481*
X209662Y284708*
X209349Y284822*
X208880Y284936*
X208099*
X207630Y284822*
X207318Y284708*
X207005Y284481*
X206849Y284254*
Y283799*
X207005Y283572*
X207318Y283345*
X207630Y283231*
X210130Y280731D02*
Y281868D01*
X208724Y281981*
X208880Y281868*
X209037Y281527*
Y281186*
X208880Y280845*
X208568Y280618*
X208099Y280504*
X207787Y280618*
X207318Y280731*
X207005Y280958*
X206849Y281299*
Y281640*
X207005Y281981*
X207162Y282095*
X207474Y282208*
X210130Y279254D02*
Y278004D01*
X208880Y278686*
Y278345*
X208724Y278118*
X208568Y278004*
X208099Y277890*
X207787*
X207318Y278004*
X207005Y278231*
X206849Y278572*
Y278913*
X207005Y279254*
X207162Y279368*
X207474Y279481*
X183096Y273747D02*
X183408Y273861D01*
X183721Y274088*
X183877Y274315*
Y274770*
X183721Y274997*
X183408Y275224*
X183096Y275338*
X182627Y275451*
X181846*
X181377Y275338*
X181065Y275224*
X180752Y274997*
X180596Y274770*
Y274315*
X180752Y274088*
X181065Y273861*
X181377Y273747*
X183877Y271247D02*
Y272383D01*
X182471Y272497*
X182627Y272383*
X182783Y272042*
Y271701*
X182627Y271361*
X182315Y271133*
X181846Y271020*
X181533Y271133*
X181065Y271247*
X180752Y271474*
X180596Y271815*
Y272156*
X180752Y272497*
X180908Y272611*
X181221Y272724*
X183096Y269883D02*
X183252D01*
X183565Y269770*
X183721Y269656*
X183877Y269429*
Y268974*
X183721Y268747*
X183565Y268633*
X183252Y268520*
X182940*
X182627Y268633*
X182158Y268861*
X180596Y269997*
Y268406*
X258551Y218630D02*
Y216755D01*
X258642Y216380*
X258824Y216130*
X259097Y216005*
X259278*
X259551Y216130*
X259733Y216380*
X259824Y216755*
Y218630*
X260642Y218130D02*
X260824Y218255D01*
X261097Y218630*
Y216005*
X416917Y242598D02*
X417167Y242689D01*
X417417Y242871*
X417542Y243053*
Y243416*
X417417Y243598*
X417167Y243780*
X416917Y243871*
X416542Y243962*
X415917*
X415542Y243871*
X415292Y243780*
X415042Y243598*
X414917Y243416*
Y243053*
X415042Y242871*
X415292Y242689*
X415542Y242598*
X417542Y240598D02*
Y241507D01*
X416417Y241598*
X416542Y241507*
X416667Y241235*
Y240962*
X416542Y240689*
X416292Y240507*
X415917Y240416*
X415667Y240507*
X415292Y240598*
X415042Y240780*
X414917Y241053*
Y241326*
X415042Y241598*
X415167Y241689*
X415417Y241780*
X417542Y239144D02*
X417417Y239416D01*
X417167Y239507*
X416917*
X416667Y239416*
X416542Y239235*
X416417Y238871*
X416292Y238598*
X416042Y238416*
X415792Y238326*
X415417*
X415167Y238416*
X415042Y238507*
X414917Y238780*
Y239144*
X415042Y239416*
X415167Y239507*
X415417Y239598*
X415792*
X416042Y239507*
X416292Y239326*
X416417Y239053*
X416542Y238689*
X416667Y238507*
X416917Y238416*
X417167*
X417417Y238507*
X417542Y238780*
Y239144*
X406227Y242076D02*
X406477Y242167D01*
X406727Y242349*
X406852Y242531*
Y242894*
X406727Y243076*
X406477Y243258*
X406227Y243349*
X405852Y243440*
X405227*
X404852Y243349*
X404602Y243258*
X404352Y243076*
X404227Y242894*
Y242531*
X404352Y242349*
X404602Y242167*
X404852Y242076*
X406852Y240076D02*
Y240985D01*
X405727Y241076*
X405852Y240985*
X405977Y240712*
Y240440*
X405852Y240167*
X405602Y239985*
X405227Y239894*
X404977Y239985*
X404602Y240076*
X404352Y240258*
X404227Y240531*
Y240803*
X404352Y241076*
X404477Y241167*
X404727Y241258*
X405977Y237894D02*
X405602Y237985D01*
X405352Y238167*
X405227Y238440*
Y238531*
X405352Y238803*
X405602Y238985*
X405977Y239076*
X406102*
X406477Y238985*
X406727Y238803*
X406852Y238531*
Y238440*
X406727Y238167*
X406477Y237985*
X405977Y237894*
X405352*
X404727Y237985*
X404352Y238167*
X404227Y238440*
Y238621*
X404352Y238894*
X404602Y238985*
X408043Y298163D02*
X408356Y298277D01*
X408668Y298504*
X408825Y298731*
Y299186*
X408668Y299413*
X408356Y299640*
X408043Y299754*
X407575Y299867*
X406793*
X406325Y299754*
X406012Y299640*
X405700Y299413*
X405543Y299186*
Y298731*
X405700Y298504*
X406012Y298277*
X406325Y298163*
X408200Y297140D02*
X408356Y296913D01*
X408825Y296572*
X405543*
X408825Y295322D02*
Y294072D01*
X407575Y294754*
Y294413*
X407418Y294186*
X407262Y294072*
X406793Y293958*
X406481*
X406012Y294072*
X405700Y294299*
X405543Y294640*
Y294981*
X405700Y295322*
X405856Y295436*
X406168Y295549*
X435820Y295149D02*
Y291867D01*
X437184*
X438434Y295149D02*
X439684D01*
X439002Y293899*
X439343*
X439570Y293742*
X439684Y293586*
X439797Y293117*
Y292805*
X439684Y292336*
X439457Y292024*
X439116Y291867*
X438775*
X438434Y292024*
X438320Y292180*
X438207Y292492*
X493374Y313122D02*
X493283Y313372D01*
X493101Y313622*
X492920Y313747*
X492556*
X492374Y313622*
X492192Y313372*
X492101Y313122*
X492010Y312747*
X492010D02*
Y312122D01*
X492010D02*
X492101Y311747D01*
X492192Y311497*
X492374Y311247*
X492556Y311122*
X492920*
X493101Y311247*
X493283Y311497*
X493374Y311747*
X494192Y313247D02*
X494374Y313372D01*
X494647Y313747*
Y311122*
X496647Y312872D02*
X496556Y312497D01*
X496374Y312247*
X496101Y312122*
X496010*
X496010D02*
X495738Y312247D01*
X495556Y312497*
X495465Y312872*
Y312997*
X495556Y313372*
X495738Y313622*
X496010Y313747*
X496010D02*
X496101D01*
X496374Y313622*
X496556Y313372*
X496647Y312872*
Y312247*
X496556Y311622*
X496374Y311247*
X496101Y311122*
X495920*
X495647Y311247*
X495556Y311497*
X213014Y312319D02*
X212901Y312631D01*
X212673Y312944*
X212446Y313100*
X211992*
X211764Y312944*
X211537Y312631*
X211423Y312319*
X211310Y311850*
Y311069*
X211423Y310600*
X211537Y310288*
X211764Y309975*
X211992Y309819*
X212446*
X212673Y309975*
X212901Y310288*
X213014Y310600*
X214037Y312475D02*
X214264Y312631D01*
X214605Y313100*
Y309819*
X232143Y255772D02*
Y253772D01*
X232052Y253397*
X231961Y253272*
X231779Y253147*
X231597*
X231415Y253272*
X231325Y253397*
X231234Y253772*
Y254022*
X232961Y255272D02*
X233143Y255397D01*
X233415Y255772*
Y253147*
X305310Y203835D02*
X305622Y203948D01*
X305935Y204176*
X306091Y204403*
Y204858*
X305935Y205085*
X305622Y205312*
X305310Y205426*
X304841Y205539*
X304060*
X303591Y205426*
X303278Y205312*
X302966Y205085*
X302810Y204858*
Y204403*
X302966Y204176*
X303278Y203948*
X303591Y203835*
X304997Y201335D02*
X304528Y201448D01*
X304216Y201676*
X304060Y202017*
Y202130*
X304216Y202471*
X304528Y202698*
X304997Y202812*
X305153*
X305622Y202698*
X305935Y202471*
X306091Y202130*
Y202017*
X305935Y201676*
X305622Y201448*
X304997Y201335*
X304216*
X303435Y201448*
X302966Y201676*
X302810Y202017*
Y202244*
X302966Y202585*
X303278Y202698*
X277573Y194490D02*
X277886Y194603D01*
X278198Y194831*
X278355Y195058*
Y195512*
X278198Y195740*
X277886Y195967*
X277573Y196081*
X277105Y196194*
X276323*
X275855Y196081*
X275542Y195967*
X275230Y195740*
X275073Y195512*
Y195058*
X275230Y194831*
X275542Y194603*
X275855Y194490*
X277730Y193467D02*
X277886Y193240D01*
X278355Y192899*
X275073*
X278355Y191194D02*
X278198Y191535D01*
X277730Y191762*
X276948Y191876*
X276480*
X275698Y191762*
X275230Y191535*
X275073Y191194*
Y190967*
X275230Y190626*
X275698Y190399*
X276480Y190285*
X276948*
X277730Y190399*
X278198Y190626*
X278355Y190967*
Y191194*
X431928Y193565D02*
Y191690D01*
X432019Y191315*
X432201Y191065*
X432473Y190940*
X432655*
X432928Y191065*
X433110Y191315*
X433201Y191690*
Y193565*
X434928D02*
X434019Y191815D01*
X435382*
X434928Y193565D02*
Y190940D01*
X469744Y169211D02*
X469630Y169524D01*
X469403Y169836*
X469176Y169993*
X468721*
X468494Y169836*
X468267Y169524*
X468153Y169211*
X468039Y168743*
Y167961*
X468153Y167493*
X468267Y167180*
X468494Y166868*
X468721Y166711*
X469176*
X469403Y166868*
X469630Y167180*
X469744Y167493*
X470767Y169368D02*
X470994Y169524D01*
X471335Y169993*
Y166711*
X473948Y169993D02*
X472812Y166711D01*
X472358Y169993D02*
X473948D01*
X498818Y326423D02*
Y323798D01*
Y326423D02*
X499636D01*
X499908Y326298*
X499999Y326173*
X500090Y325923*
Y325673*
X499999Y325423*
X499908Y325298*
X499636Y325173*
X498818*
X499454D02*
X500090Y323798D01*
X502181Y326423D02*
X501272Y323798D01*
X500908Y326423D02*
X502181D01*
X431814Y235859D02*
Y233984D01*
X431905Y233609*
X432086Y233359*
X432359Y233234*
X432541*
X432814Y233359*
X432995Y233609*
X433086Y233984*
Y235859*
X435086D02*
X434177D01*
X434086Y234734*
X434177Y234859*
X434450Y234984*
X434723*
X434995Y234859*
X435177Y234609*
X435268Y234234*
X435177Y233984*
X435086Y233609*
X434905Y233359*
X434632Y233234*
X434359*
X434086Y233359*
X433995Y233484*
X433905Y233734*
X437345Y246513D02*
Y244638D01*
X437436Y244263*
X437618Y244013*
X437891Y243888*
X438072*
X438345Y244013*
X438527Y244263*
X438618Y244638*
Y246513*
X440527Y246138D02*
X440436Y246388D01*
X440163Y246513*
X439982*
X439709Y246388*
X439527Y246013*
X439436Y245388*
Y244763*
X439527Y244263*
X439709Y244013*
X439982Y243888*
X440072*
X440345Y244013*
X440527Y244263*
X440618Y244638*
Y244763*
X440527Y245138*
X440345Y245388*
X440072Y245513*
X439982*
X439709Y245388*
X439527Y245138*
X439436Y244763*
X436582Y330982D02*
X436400Y330857D01*
X436219Y330607*
X436128Y330357*
X436037Y329982*
Y329357*
X436128Y328982*
X436219Y328732*
X436400Y328482*
X436582Y328357*
X436946*
X437128Y328482*
X437309Y328732*
X437400Y328982*
X437491Y329357*
Y329982*
X437400Y330357*
X437309Y330607*
X437128Y330857*
X436946Y330982*
X436582*
X436855Y328857D02*
X437400Y328107D01*
X438309Y330482D02*
X438491Y330607D01*
X438764Y330982*
Y328357*
X526202Y262188D02*
Y260188D01*
X526111Y259813*
X526020Y259688*
X525838Y259563*
X525656*
X525474Y259688*
X525384Y259813*
X525293Y260188*
Y260438*
X527202Y262188D02*
X528202D01*
X527656Y261188*
X527929*
X528111Y261063*
X528202Y260938*
X528293Y260563*
Y260313*
X528202Y259938*
X528020Y259688*
X527747Y259563*
X527474*
X527202Y259688*
X527111Y259813*
X527020Y260063*
X379619Y108979D02*
Y106979D01*
X379528Y106604*
X379437Y106479*
X379255Y106354*
X379074*
X378892Y106479*
X378801Y106604*
X378710Y106979*
Y107229*
X381346Y108979D02*
X380437Y107229D01*
X381801*
X381346Y108979D02*
Y106354D01*
X368528Y153155D02*
Y151280D01*
X368618Y150905*
X368800Y150655*
X369073Y150530*
X369255*
X369528Y150655*
X369709Y150905*
X369800Y151280*
Y153155*
X370618Y152655D02*
X370800Y152780D01*
X371073Y153155*
Y150530*
X371891Y152655D02*
X372073Y152780D01*
X372346Y153155*
Y150530*
X278793Y279109D02*
Y276484D01*
X278157Y279109D02*
X279430D01*
X280248Y278609D02*
X280430Y278734D01*
X280703Y279109*
Y276484*
X281975Y279109D02*
X281703Y278984D01*
X281612Y278734*
Y278484*
X281703Y278234*
X281884Y278109*
X282248Y277984*
X282521Y277859*
X282703Y277609*
X282793Y277359*
Y276984*
X282703Y276734*
X282612Y276609*
X282339Y276484*
X281975*
X281703Y276609*
X281612Y276734*
X281521Y276984*
Y277359*
X281612Y277609*
X281793Y277859*
X282066Y277984*
X282430Y278109*
X282612Y278234*
X282703Y278484*
Y278734*
X282612Y278984*
X282339Y279109*
X281975*
X143239Y308546D02*
X141364D01*
X140989Y308455*
X140739Y308273*
X140614Y308000*
Y307819*
X140739Y307546*
X140989Y307364*
X141364Y307273*
X143239*
X142739Y306455D02*
X142864Y306273D01*
X143239Y306000*
X140614*
X143239Y305000D02*
Y304000D01*
X142239Y304546*
Y304273*
X142114Y304091*
X141989Y304000*
X141614Y303910*
X141364*
X140989Y304000*
X140739Y304182*
X140614Y304455*
Y304728*
X140739Y305000*
X140864Y305091*
X141114Y305182*
X470655Y160812D02*
X470541Y161125D01*
X470314Y161437*
X470086Y161594*
X469632*
X469405Y161437*
X469177Y161125*
X469064Y160812*
X468950Y160344*
Y159562*
X469064Y159094*
X469177Y158781*
X469405Y158469*
X469632Y158312*
X470086*
X470314Y158469*
X470541Y158781*
X470655Y159094*
X473155Y161594D02*
X472018D01*
X471905Y160187*
X472018Y160344*
X472359Y160500*
X472700*
X473041Y160344*
X473268Y160031*
X473382Y159562*
X473268Y159250*
X473155Y158781*
X472927Y158469*
X472586Y158312*
X472246*
X471905Y158469*
X471791Y158625*
X471677Y158937*
X475996Y161594D02*
X474859Y158312D01*
X474405Y161594D02*
X475996D01*
X373312Y331390D02*
Y328765D01*
X374403*
X376312Y331015D02*
X376221Y331265D01*
X375949Y331390*
X375767*
X375494Y331265*
X375312Y330890*
X375221Y330265*
Y329640*
X375312Y329140*
X375494Y328890*
X375767Y328765*
X375858*
X376131Y328890*
X376312Y329140*
X376403Y329515*
Y329640*
X376312Y330015*
X376131Y330265*
X375858Y330390*
X375767*
X375494Y330265*
X375312Y330015*
X375221Y329640*
X371486Y280961D02*
Y279086D01*
X371576Y278711*
X371758Y278461*
X372031Y278336*
X372213*
X372486Y278461*
X372667Y278711*
X372758Y279086*
Y280961*
X373576Y280461D02*
X373758Y280586D01*
X374031Y280961*
Y278336*
X376031Y280961D02*
X375122D01*
X375031Y279836*
X375122Y279961*
X375395Y280086*
X375667*
X375940Y279961*
X376122Y279711*
X376213Y279336*
X376122Y279086*
X376031Y278711*
X375849Y278461*
X375576Y278336*
X375304*
X375031Y278461*
X374940Y278586*
X374849Y278836*
X295522Y323962D02*
Y322087D01*
X295613Y321712*
X295795Y321462*
X296068Y321337*
X296250*
X296522Y321462*
X296704Y321712*
X296795Y322087*
Y323962*
X297613Y323462D02*
X297795Y323587D01*
X298068Y323962*
Y321337*
X300068Y323087D02*
X299977Y322712D01*
X299795Y322462*
X299522Y322337*
X299431*
X299159Y322462*
X298977Y322712*
X298886Y323087*
Y323212*
X298977Y323587*
X299159Y323837*
X299431Y323962*
X299522*
X299795Y323837*
X299977Y323587*
X300068Y323087*
Y322462*
X299977Y321837*
X299795Y321462*
X299522Y321337*
X299340*
X299068Y321462*
X298977Y321712*
X441219Y300642D02*
Y298017D01*
X440583Y300642D02*
X441855D01*
X442855D02*
X443855D01*
X443310Y299642*
X443583*
X443764Y299517*
X443855Y299392*
X443946Y299017*
Y298767*
X443855Y298392*
X443674Y298142*
X443401Y298017*
X443128*
X442855Y298142*
X442764Y298267*
X442674Y298517*
X444764Y300142D02*
X444946Y300267D01*
X445219Y300642*
Y298017*
X460843Y198448D02*
Y196573D01*
X460933Y196198*
X461115Y195948*
X461388Y195823*
X461570*
X461843Y195948*
X462024Y196198*
X462115Y196573*
Y198448*
X464206D02*
X463297Y195823D01*
X462933Y198448D02*
X464206D01*
X461269Y247147D02*
Y245272D01*
X461360Y244897*
X461542Y244647*
X461814Y244522*
X461996*
X462269Y244647*
X462451Y244897*
X462542Y245272*
Y247147*
X463814D02*
X463542Y247022D01*
X463451Y246772*
Y246522*
X463542Y246272*
X463724Y246147*
X464087Y246022*
X464360Y245897*
X464542Y245647*
X464633Y245397*
Y245022*
X464542Y244772*
X464451Y244647*
X464178Y244522*
X463814*
X463542Y244647*
X463451Y244772*
X463360Y245022*
Y245397*
X463451Y245647*
X463633Y245897*
X463905Y246022*
X464269Y246147*
X464451Y246272*
X464542Y246522*
Y246772*
X464451Y247022*
X464178Y247147*
X463814*
X312657Y325917D02*
X312907Y326008D01*
X313157Y326190*
X313282Y326372*
Y326735*
X313157Y326917*
X312907Y327099*
X312657Y327190*
X312282Y327281*
X311657*
X311282Y327190*
X311032Y327099*
X310782Y326917*
X310657Y326735*
Y326372*
X310782Y326190*
X311032Y326008*
X311282Y325917*
X312782Y325099D02*
X312907Y324917D01*
X313282Y324644*
X310657*
X312782Y323826D02*
X312907Y323644D01*
X313282Y323372*
X310657*
X328403Y327436D02*
X328653Y327526D01*
X328903Y327708*
X329028Y327890*
Y328254*
X328903Y328436*
X328653Y328617*
X328403Y328708*
X328028Y328799*
X327403*
X327028Y328708*
X326778Y328617*
X326528Y328436*
X326403Y328254*
Y327890*
X326528Y327708*
X326778Y327526*
X327028Y327436*
X328528Y326617D02*
X328653Y326436D01*
X329028Y326163*
X326403*
X328403Y325254D02*
X328528D01*
X328778Y325163*
X328903Y325072*
X329028Y324890*
Y324526*
X328903Y324345*
X328778Y324254*
X328528Y324163*
X328278*
X328028Y324254*
X327653Y324436*
X326403Y325345*
Y324072*
X416664Y297606D02*
X416914Y297697D01*
X417164Y297879*
X417289Y298061*
Y298424*
X417164Y298606*
X416914Y298788*
X416664Y298879*
X416289Y298970*
X415664*
X415289Y298879*
X415039Y298788*
X414789Y298606*
X414664Y298424*
Y298061*
X414789Y297879*
X415039Y297697*
X415289Y297606*
X416789Y296788D02*
X416914Y296606D01*
X417289Y296333*
X414664*
X417289Y294606D02*
X415539Y295515D01*
Y294152*
X417289Y294606D02*
X414664D01*
X353373Y327883D02*
X353623Y327974D01*
X353873Y328156*
X353998Y328338*
Y328701*
X353873Y328883*
X353623Y329065*
X353373Y329156*
X352998Y329247*
X352373*
X351998Y329156*
X351748Y329065*
X351498Y328883*
X351373Y328701*
Y328338*
X351498Y328156*
X351748Y327974*
X351998Y327883*
X353498Y327065D02*
X353623Y326883D01*
X353998Y326610*
X351373*
X353998Y324610D02*
Y325519D01*
X352873Y325610*
X352998Y325519*
X353123Y325247*
Y324974*
X352998Y324701*
X352748Y324519*
X352373Y324429*
X352123Y324519*
X351748Y324610*
X351498Y324792*
X351373Y325065*
Y325338*
X351498Y325610*
X351623Y325701*
X351873Y325792*
X272777Y328496D02*
X273027Y328587D01*
X273277Y328769*
X273402Y328950*
Y329314*
X273277Y329496*
X273027Y329678*
X272777Y329769*
X272402Y329860*
X271777*
X271402Y329769*
X271152Y329678*
X270902Y329496*
X270777Y329314*
Y328950*
X270902Y328769*
X271152Y328587*
X271402Y328496*
X272902Y327678D02*
X273027Y327496D01*
X273402Y327223*
X270777*
X273402Y325950D02*
X273277Y326223D01*
X273027Y326314*
X272777*
X272527Y326223*
X272402Y326041*
X272277Y325678*
X272152Y325405*
X271902Y325223*
X271652Y325132*
X271277*
X271027Y325223*
X270902Y325314*
X270777Y325587*
Y325950*
X270902Y326223*
X271027Y326314*
X271277Y326405*
X271652*
X271902Y326314*
X272152Y326132*
X272277Y325860*
X272402Y325496*
X272527Y325314*
X272777Y325223*
X273027*
X273277Y325314*
X273402Y325587*
Y325950*
X354912Y268516D02*
X355162Y268607D01*
X355412Y268788*
X355537Y268970*
Y269334*
X355412Y269516*
X355162Y269697*
X354912Y269788*
X354537Y269879*
X353912*
X353537Y269788*
X353287Y269697*
X353037Y269516*
X352912Y269334*
Y268970*
X353037Y268788*
X353287Y268607*
X353537Y268516*
X354912Y267607D02*
X355037D01*
X355287Y267516*
X355412Y267425*
X355537Y267243*
Y266879*
X355412Y266697*
X355287Y266607*
X355037Y266516*
X354787*
X354537Y266607*
X354162Y266788*
X352912Y267697*
Y266425*
X355537Y265061D02*
X355412Y265334D01*
X355037Y265516*
X354412Y265607*
X354037*
X353412Y265516*
X353037Y265334*
X352912Y265061*
Y264879*
X353037Y264607*
X353412Y264425*
X354037Y264334*
X354412*
X355037Y264425*
X355412Y264607*
X355537Y264879*
Y265061*
X290818Y193224D02*
X290727Y193474D01*
X290545Y193724*
X290363Y193849*
X290000*
X289818Y193724*
X289636Y193474*
X289545Y193224*
X289454Y192849*
Y192224*
X289545Y191849*
X289636Y191599*
X289818Y191349*
X290000Y191224*
X290363*
X290545Y191349*
X290727Y191599*
X290818Y191849*
X291818Y193849D02*
X292818D01*
X292272Y192849*
X292545*
X292727Y192724*
X292818Y192599*
X292909Y192224*
Y191974*
X292818Y191599*
X292636Y191349*
X292363Y191224*
X292090*
X291818Y191349*
X291727Y191474*
X291636Y191724*
X294818Y193474D02*
X294727Y193724D01*
X294454Y193849*
X294272*
X294000Y193724*
X293818Y193349*
X293727Y192724*
Y192099*
X293818Y191599*
X294000Y191349*
X294272Y191224*
X294363*
X294636Y191349*
X294818Y191599*
X294909Y191974*
Y192099*
X294818Y192474*
X294636Y192724*
X294363Y192849*
X294272*
X294000Y192724*
X293818Y192474*
X293727Y192099*
X341312Y328515D02*
X341625Y328628D01*
X341937Y328856*
X342094Y329083*
Y329537*
X341937Y329765*
X341625Y329992*
X341312Y330106*
X340844Y330219*
X340062*
X339594Y330106*
X339281Y329992*
X338969Y329765*
X338812Y329537*
Y329083*
X338969Y328856*
X339281Y328628*
X339594Y328515*
X341469Y327492D02*
X341625Y327265D01*
X342094Y326924*
X338812*
X341625Y324537D02*
X341937Y324651D01*
X342094Y324992*
Y325219*
X341937Y325560*
X341469Y325787*
X340687Y325901*
X339906*
X339281Y325787*
X338969Y325560*
X338812Y325219*
Y325106*
X338969Y324765*
X339281Y324537*
X339750Y324424*
X339906*
X340375Y324537*
X340687Y324765*
X340844Y325106*
Y325219*
X340687Y325560*
X340375Y325787*
X339906Y325901*
X283020Y329094D02*
X283270Y329185D01*
X283520Y329367*
X283645Y329549*
Y329913*
X283520Y330094*
X283270Y330276*
X283020Y330367*
X282645Y330458*
X282020*
X281645Y330367*
X281395Y330276*
X281145Y330094*
X281020Y329913*
Y329549*
X281145Y329367*
X281395Y329185*
X281645Y329094*
X283270Y327185D02*
X283520Y327276D01*
X283645Y327549*
Y327731*
X283520Y328003*
X283145Y328185*
X282520Y328276*
X281895*
X281395Y328185*
X281145Y328003*
X281020Y327731*
Y327640*
X281145Y327367*
X281395Y327185*
X281770Y327094*
X281895*
X282270Y327185*
X282520Y327367*
X282645Y327640*
Y327731*
X282520Y328003*
X282270Y328185*
X281895Y328276*
X283020Y326185D02*
X283145D01*
X283395Y326094*
X283520Y326003*
X283645Y325822*
Y325458*
X283520Y325276*
X283395Y325185*
X283145Y325094*
X282895*
X282645Y325185*
X282270Y325367*
X281020Y326276*
Y325003*
X460976Y328829D02*
X461226Y328920D01*
X461476Y329102*
X461601Y329284*
Y329647*
X461476Y329829*
X461226Y330011*
X460976Y330102*
X460601Y330193*
X459976*
X459601Y330102*
X459351Y330011*
X459101Y329829*
X458976Y329647*
Y329284*
X459101Y329102*
X459351Y328920*
X459601Y328829*
X461226Y326920D02*
X461476Y327011D01*
X461601Y327284*
Y327466*
X461476Y327738*
X461101Y327920*
X460476Y328011*
X459851*
X459351Y327920*
X459101Y327738*
X458976Y327466*
Y327375*
X459101Y327102*
X459351Y326920*
X459726Y326829*
X459851*
X460226Y326920*
X460476Y327102*
X460601Y327375*
Y327466*
X460476Y327738*
X460226Y327920*
X459851Y328011*
X461601Y325102D02*
X459851Y326011D01*
Y324647*
X461601Y325102D02*
X458976D01*
X486887Y107449D02*
Y105449D01*
X486796Y105074*
X486705Y104949*
X486523Y104824*
X486341*
X486160Y104949*
X486069Y105074*
X485978Y105449*
Y105699*
X487796Y106824D02*
Y106949D01*
X487887Y107199*
X487978Y107324*
X488160Y107449*
X488523*
X488705Y107324*
X488796Y107199*
X488887Y106949*
Y106699*
X488796Y106449*
X488614Y106074*
X487705Y104824*
X488978*
X523437Y138172D02*
Y136172D01*
X523346Y135797*
X523255Y135672*
X523073Y135547*
X522891*
X522709Y135672*
X522618Y135797*
X522528Y136172*
Y136422*
X525437Y138172D02*
X524528D01*
X524437Y137047*
X524528Y137172*
X524800Y137297*
X525073*
X525346Y137172*
X525528Y136922*
X525618Y136547*
X525528Y136297*
X525437Y135922*
X525255Y135672*
X524982Y135547*
X524709*
X524437Y135672*
X524346Y135797*
X524255Y136047*
X524727Y198429D02*
Y196429D01*
X524636Y196054*
X524545Y195929*
X524363Y195804*
X524181*
X523999Y195929*
X523908Y196054*
X523818Y196429*
Y196679*
X526636Y198054D02*
X526545Y198304D01*
X526272Y198429*
X526090*
X525818Y198304*
X525636Y197929*
X525545Y197304*
Y196679*
X525636Y196179*
X525818Y195929*
X526090Y195804*
X526181*
X526454Y195929*
X526636Y196179*
X526727Y196554*
Y196679*
X526636Y197054*
X526454Y197304*
X526181Y197429*
X526090*
X525818Y197304*
X525636Y197054*
X525545Y196679*
X313177Y162129D02*
Y160254D01*
X313268Y159879*
X313450Y159629*
X313723Y159504*
X313904*
X314177Y159629*
X314359Y159879*
X314450Y160254*
Y162129*
X316450Y161254D02*
X316359Y160879D01*
X316177Y160629*
X315904Y160504*
X315814*
X315541Y160629*
X315359Y160879*
X315268Y161254*
Y161379*
X315359Y161754*
X315541Y162004*
X315814Y162129*
X315904*
X316177Y162004*
X316359Y161754*
X316450Y161254*
Y160629*
X316359Y160004*
X316177Y159629*
X315904Y159504*
X315723*
X315450Y159629*
X315359Y159879*
X213304Y307866D02*
Y305241D01*
Y307866D02*
X214123D01*
X214395Y307741*
X214486Y307616*
X214577Y307366*
Y307116*
X214486Y306866*
X214395Y306741*
X214123Y306616*
X213304*
X213941D02*
X214577Y305241D01*
X215486Y307241D02*
Y307366D01*
X215577Y307616*
X215668Y307741*
X215850Y307866*
X216214*
X216395Y307741*
X216486Y307616*
X216577Y307366*
Y307116*
X216486Y306866*
X216304Y306491*
X215395Y305241*
X216668*
X213070Y316435D02*
Y313810D01*
Y316435D02*
X213888D01*
X214160Y316310*
X214251Y316185*
X214342Y315935*
Y315685*
X214251Y315435*
X214160Y315310*
X213888Y315185*
X213070*
X213706D02*
X214342Y313810D01*
X215160Y315935D02*
X215342Y316060D01*
X215615Y316435*
Y313810*
X173599Y168035D02*
X170974D01*
X173599D02*
Y167217D01*
X173474Y166945*
X173349Y166854*
X173099Y166763*
X172849*
X172599Y166854*
X172474Y166945*
X172349Y167217*
Y168035*
Y167399D02*
X170974Y166763D01*
X173599Y165035D02*
X171849Y165945D01*
Y164581*
X173599Y165035D02*
X170974D01*
X178010Y167961D02*
X175385D01*
X178010D02*
Y167142D01*
X177885Y166870*
X177760Y166779*
X177510Y166688*
X177260*
X177010Y166779*
X176885Y166870*
X176760Y167142*
Y167961*
Y167324D02*
X175385Y166688D01*
X178010Y164688D02*
Y165597D01*
X176885Y165688*
X177010Y165597*
X177135Y165324*
Y165052*
X177010Y164779*
X176760Y164597*
X176385Y164506*
X176135Y164597*
X175760Y164688*
X175510Y164870*
X175385Y165142*
Y165415*
X175510Y165688*
X175635Y165779*
X175885Y165870*
X182794Y168185D02*
X180169D01*
X182794D02*
Y167367D01*
X182669Y167094*
X182544Y167003*
X182294Y166912*
X182044*
X181794Y167003*
X181669Y167094*
X181544Y167367*
Y168185*
Y167549D02*
X180169Y166912D01*
X182294Y166094D02*
X182419Y165912D01*
X182794Y165640*
X180169*
X182794Y163549D02*
X180169Y164458D01*
X182794Y164821D02*
Y163549D01*
X325328Y152534D02*
Y149909D01*
Y152534D02*
X326146D01*
X326419Y152409*
X326510Y152284*
X326601Y152034*
Y151784*
X326510Y151534*
X326419Y151409*
X326146Y151284*
X325328*
X325964D02*
X326601Y149909D01*
X327601Y152534D02*
X328601D01*
X328055Y151534*
X328328*
X328510Y151409*
X328601Y151284*
X328692Y150909*
Y150659*
X328601Y150284*
X328419Y150034*
X328146Y149909*
X327874*
X327601Y150034*
X327510Y150159*
X327419Y150409*
X330692Y152534D02*
X329783D01*
X329692Y151409*
X329783Y151534*
X330055Y151659*
X330328*
X330601Y151534*
X330783Y151284*
X330874Y150909*
X330783Y150659*
X330692Y150284*
X330510Y150034*
X330237Y149909*
X329964*
X329692Y150034*
X329601Y150159*
X329510Y150409*
X327978Y156205D02*
Y153580D01*
Y156205D02*
X328796D01*
X329069Y156080*
X329160Y155955*
X329250Y155705*
Y155455*
X329160Y155205*
X329069Y155080*
X328796Y154955*
X327978*
X328614D02*
X329250Y153580D01*
X330250Y156205D02*
X331250D01*
X330705Y155205*
X330978*
X331160Y155080*
X331250Y154955*
X331341Y154580*
Y154330*
X331250Y153955*
X331069Y153705*
X330796Y153580*
X330523*
X330250Y153705*
X330160Y153830*
X330069Y154080*
X333069Y156205D02*
X332160Y154455D01*
X333523*
X333069Y156205D02*
Y153580D01*
X207591Y262234D02*
Y259609D01*
Y262234D02*
X208409D01*
X208681Y262109*
X208772Y261984*
X208863Y261734*
Y261484*
X208772Y261234*
X208681Y261109*
X208409Y260984*
X207591*
X208227D02*
X208863Y259609D01*
X210863Y262234D02*
X209954D01*
X209863Y261109*
X209954Y261234*
X210227Y261359*
X210500*
X210772Y261234*
X210954Y260984*
X211045Y260609*
X210954Y260359*
X210863Y259984*
X210681Y259734*
X210409Y259609*
X210136*
X209863Y259734*
X209772Y259859*
X209681Y260109*
X212409Y262234D02*
X212136Y262109D01*
X211954Y261734*
X211863Y261109*
Y260734*
X211954Y260109*
X212136Y259734*
X212409Y259609*
X212591*
X212863Y259734*
X213045Y260109*
X213136Y260734*
Y261109*
X213045Y261734*
X212863Y262109*
X212591Y262234*
X212409*
X190333Y259128D02*
Y256503D01*
Y259128D02*
X191152D01*
X191424Y259003*
X191515Y258878*
X191606Y258628*
Y258378*
X191515Y258128*
X191424Y258003*
X191152Y257878*
X190333*
X190970D02*
X191606Y256503D01*
X193333Y259128D02*
X192424Y257378D01*
X193788*
X193333Y259128D02*
Y256503D01*
X195788Y258253D02*
X195697Y257878D01*
X195515Y257628*
X195242Y257503*
X195152*
X194879Y257628*
X194697Y257878*
X194606Y258253*
Y258378*
X194697Y258753*
X194879Y259003*
X195152Y259128*
X195242*
X195515Y259003*
X195697Y258753*
X195788Y258253*
Y257628*
X195697Y257003*
X195515Y256628*
X195242Y256503*
X195061*
X194788Y256628*
X194697Y256878*
X184464Y265843D02*
X181839D01*
X184464D02*
Y265024D01*
X184339Y264752*
X184214Y264661*
X183964Y264570*
X183714*
X183464Y264661*
X183339Y264752*
X183214Y265024*
Y265843*
Y265206D02*
X181839Y264570D01*
X184464Y262843D02*
X182714Y263752D01*
Y262388*
X184464Y262843D02*
X181839D01*
X184089Y260479D02*
X184339Y260570D01*
X184464Y260843*
Y261024*
X184339Y261297*
X183964Y261479*
X183339Y261570*
X182714*
X182214Y261479*
X181964Y261297*
X181839Y261024*
Y260933*
X181964Y260661*
X182214Y260479*
X182589Y260388*
X182714*
X183089Y260479*
X183339Y260661*
X183464Y260933*
Y261024*
X183339Y261297*
X183089Y261479*
X182714Y261570*
X180999Y273572D02*
X178374D01*
X180999D02*
Y272754D01*
X180874Y272481*
X180749Y272390*
X180499Y272299*
X180249*
X179999Y272390*
X179874Y272481*
X179749Y272754*
Y273572*
Y272936D02*
X178374Y272299D01*
X180999Y270572D02*
X179249Y271481D01*
Y270118*
X180999Y270572D02*
X178374D01*
X180999Y268390D02*
X179249Y269299D01*
Y267936*
X180999Y268390D02*
X178374D01*
X176939Y273848D02*
X174314D01*
X176939D02*
Y273030D01*
X176814Y272757*
X176689Y272666*
X176439Y272575*
X176189*
X175939Y272666*
X175814Y272757*
X175689Y273030*
Y273848*
Y273211D02*
X174314Y272575D01*
X176939Y270848D02*
X175189Y271757D01*
Y270393*
X176939Y270848D02*
X174314D01*
X176939Y269393D02*
Y268393D01*
X175939Y268939*
Y268666*
X175814Y268484*
X175689Y268393*
X175314Y268302*
X175064*
X174689Y268393*
X174439Y268575*
X174314Y268848*
Y269120*
X174439Y269393*
X174564Y269484*
X174814Y269575*
X172603Y273923D02*
X169978D01*
X172603D02*
Y273104D01*
X172478Y272832*
X172353Y272741*
X172103Y272650*
X171853*
X171603Y272741*
X171478Y272832*
X171353Y273104*
Y273923*
Y273286D02*
X169978Y272650D01*
X172603Y270923D02*
X170853Y271832D01*
Y270468*
X172603Y270923D02*
X169978D01*
X171978Y269559D02*
X172103D01*
X172353Y269468*
X172478Y269377*
X172603Y269195*
Y268832*
X172478Y268650*
X172353Y268559*
X172103Y268468*
X171853*
X171603Y268559*
X171228Y268741*
X169978Y269650*
Y268377*
X166696Y281474D02*
X164071D01*
X166696D02*
Y280656D01*
X166571Y280383*
X166446Y280292*
X166196Y280201*
X165946*
X165696Y280292*
X165571Y280383*
X165446Y280656*
Y281474*
Y280837D02*
X164071Y280201D01*
X166696Y278474D02*
X164946Y279383D01*
Y278019*
X166696Y278474D02*
X164071D01*
X166196Y277201D02*
X166321Y277019D01*
X166696Y276746*
X164071*
X163166Y265759D02*
X160541D01*
X163166D02*
Y264940D01*
X163041Y264668*
X162916Y264577*
X162666Y264486*
X162416*
X162166Y264577*
X162041Y264668*
X161916Y264940*
Y265759*
Y265122D02*
X160541Y264486D01*
X163166Y262759D02*
X161416Y263668D01*
Y262304*
X163166Y262759D02*
X160541D01*
X163166Y260940D02*
X163041Y261213D01*
X162666Y261395*
X162041Y261486*
X161666*
X161041Y261395*
X160666Y261213*
X160541Y260940*
Y260759*
X160666Y260486*
X161041Y260304*
X161666Y260213*
X162041*
X162666Y260304*
X163041Y260486*
X163166Y260759*
Y260940*
X273063Y196419D02*
X270438D01*
X273063D02*
Y195600D01*
X272938Y195328*
X272813Y195237*
X272563Y195146*
X272313*
X272063Y195237*
X271938Y195328*
X271813Y195600*
Y196419*
Y195782D02*
X270438Y195146D01*
X273063Y194146D02*
Y193146D01*
X272063Y193691*
Y193419*
X271938Y193237*
X271813Y193146*
X271438Y193055*
X271188*
X270813Y193146*
X270563Y193328*
X270438Y193600*
Y193873*
X270563Y194146*
X270688Y194237*
X270938Y194328*
X457314Y229870D02*
X454689D01*
X457314D02*
Y229052D01*
X457189Y228779*
X457064Y228688*
X456814Y228597*
X456564*
X456314Y228688*
X456189Y228779*
X456064Y229052*
Y229870*
Y229234D02*
X454689Y228597D01*
X456814Y227779D02*
X456939Y227597D01*
X457314Y227325*
X454689*
X457314Y225597D02*
X455564Y226506D01*
Y225143*
X457314Y225597D02*
X454689D01*
X364063Y260250D02*
Y257625D01*
X365154*
X367154Y260250D02*
X366244D01*
X366154Y259125*
X366244Y259250*
X366517Y259375*
X366790*
X367063Y259250*
X367244Y259000*
X367335Y258625*
X367244Y258375*
X367154Y258000*
X366972Y257750*
X366699Y257625*
X366426*
X366154Y257750*
X366063Y257875*
X365972Y258125*
X237136Y277198D02*
X237023Y277511D01*
X236795Y277823*
X236568Y277979*
X236114*
X235886Y277823*
X235659Y277511*
X235545Y277198*
X235432Y276729*
Y275948*
X235545Y275479*
X235659Y275167*
X235886Y274854*
X236114Y274698*
X236568*
X236795Y274854*
X237023Y275167*
X237136Y275479*
X238386Y277979D02*
X239636D01*
X238954Y276729*
X239295*
X239523Y276573*
X239636Y276417*
X239750Y275948*
Y275636*
X239636Y275167*
X239409Y274854*
X239068Y274698*
X238727*
X238386Y274854*
X238273Y275011*
X238159Y275323*
X242250Y277979D02*
X241114D01*
X241000Y276573*
X241114Y276729*
X241454Y276886*
X241795*
X242136Y276729*
X242364Y276417*
X242477Y275948*
X242364Y275636*
X242250Y275167*
X242023Y274854*
X241682Y274698*
X241341*
X241000Y274854*
X240886Y275011*
X240773Y275323*
X235119Y282313D02*
Y279688D01*
Y282313D02*
X235938D01*
X236210Y282188*
X236301Y282063*
X236392Y281813*
Y281563*
X236301Y281313*
X236210Y281188*
X235938Y281063*
X235119*
X235756D02*
X236392Y279688D01*
X237210Y281813D02*
X237392Y281938D01*
X237665Y282313*
Y279688*
X238938Y282313D02*
X238665Y282188D01*
X238574Y281938*
Y281688*
X238665Y281438*
X238847Y281313*
X239210Y281188*
X239483Y281063*
X239665Y280813*
X239756Y280563*
Y280188*
X239665Y279938*
X239574Y279813*
X239301Y279688*
X238938*
X238665Y279813*
X238574Y279938*
X238483Y280188*
Y280563*
X238574Y280813*
X238756Y281063*
X239029Y281188*
X239392Y281313*
X239574Y281438*
X239665Y281688*
Y281938*
X239574Y282188*
X239301Y282313*
X238938*
X256519Y296217D02*
X253894D01*
X256519D02*
Y295398D01*
X256394Y295126*
X256269Y295035*
X256019Y294944*
X255769*
X255519Y295035*
X255394Y295126*
X255269Y295398*
Y296217*
Y295580D02*
X253894Y294944D01*
X255894Y294035D02*
X256019D01*
X256269Y293944*
X256394Y293853*
X256519Y293671*
Y293307*
X256394Y293126*
X256269Y293035*
X256019Y292944*
X255769*
X255519Y293035*
X255144Y293217*
X253894Y294126*
Y292853*
X255894Y291944D02*
X256019D01*
X256269Y291853*
X256394Y291762*
X256519Y291580*
Y291217*
X256394Y291035*
X256269Y290944*
X256019Y290853*
X255769*
X255519Y290944*
X255144Y291126*
X253894Y292035*
Y290762*
X255894Y289853D02*
X256019D01*
X256269Y289762*
X256394Y289671*
X256519Y289489*
Y289126*
X256394Y288944*
X256269Y288853*
X256019Y288762*
X255769*
X255519Y288853*
X255144Y289035*
X253894Y289944*
Y288671*
X235493Y273517D02*
Y270892D01*
Y273517D02*
X236312D01*
X236584Y273392*
X236675Y273267*
X236766Y273017*
Y272767*
X236675Y272517*
X236584Y272392*
X236312Y272267*
X235493*
X236130D02*
X236766Y270892D01*
X238675Y273142D02*
X238584Y273392D01*
X238312Y273517*
X238130*
X237857Y273392*
X237675Y273017*
X237584Y272392*
Y271767*
X237675Y271267*
X237857Y271017*
X238130Y270892*
X238221*
X238493Y271017*
X238675Y271267*
X238766Y271642*
Y271767*
X238675Y272142*
X238493Y272392*
X238221Y272517*
X238130*
X237857Y272392*
X237675Y272142*
X237584Y271767*
X240130Y273517D02*
X239857Y273392D01*
X239675Y273017*
X239584Y272392*
Y272017*
X239675Y271392*
X239857Y271017*
X240130Y270892*
X240312*
X240584Y271017*
X240766Y271392*
X240857Y272017*
Y272392*
X240766Y273017*
X240584Y273392*
X240312Y273517*
X240130*
X391654Y150499D02*
X394279D01*
X391654D02*
Y151317D01*
X391779Y151590*
X391904Y151681*
X392154Y151772*
X392404*
X392654Y151681*
X392779Y151590*
X392904Y151317*
Y150499*
Y151135D02*
X394279Y151772D01*
X392279Y152681D02*
X392154D01*
X391904Y152772*
X391779Y152863*
X391654Y153045*
Y153408*
X391779Y153590*
X391904Y153681*
X392154Y153772*
X392404*
X392654Y153681*
X393029Y153499*
X394279Y152590*
Y153863*
X391654Y155954D02*
X394279Y155045D01*
X391654Y154681D02*
Y155954D01*
G54D69*
X200584Y245297D02*
X151372D01*
Y199746*
X152669Y196991*
X153176Y196084*
X200584*
Y245297*
X296867Y257749D02*
Y257949D01*
X294769Y260482*
X263403*
Y227017*
X296867*
Y257949*
X435394Y259696D02*
X438839D01*
Y258957*
X439823*
Y259696*
X443268*
Y247885*
X435394*
Y259696*
X145600Y292651D02*
Y304622D01*
X148676*
Y308042*
X145600*
Y320013*
X194812*
Y292651*
X145600*
X369958Y295428D02*
X373403D01*
Y294690*
X374387*
Y295428*
X377832*
Y283617*
X369958*
Y295428*
X312229Y163821D02*
X327829D01*
Y177421*
X325990Y179221*
X312229*
Y163821*
G54D70*
X238596Y100693D02*
X364474D01*
Y129434*
X238596*
Y100693*
X532165Y264283D02*
X469157D01*
Y303102*
X532165*
Y264283*
X532157Y280693D02*
X528157D01*
Y287693*
X532157*
Y280693*
X436496Y103676D02*
Y127676D01*
X445496*
Y154676*
X473496*
Y128676*
X483496*
Y100676*
X436496*
Y103676*
X529118Y140904D02*
X505118D01*
Y149904*
X478118*
Y177904*
X504118*
Y187904*
X532118*
Y140904*
X529118*
X529125Y201109D02*
X505125D01*
Y210109*
X478125*
Y238109*
X504125*
Y248109*
X532125*
Y201109*
X529125*
G54D71*
X451829Y263507D02*
X426151D01*
Y289118*
X451829*
Y263507*
X386827Y301446D02*
X361148D01*
Y327058*
X386827*
Y301446*
G54D72*
X114047Y321219D02*
Y320516D01*
X114081Y320376*
X114150Y320282*
X114252Y320235*
X114320*
X114422Y320282*
X114490Y320376*
X114525Y320516*
Y321219*
X114831Y321032D02*
X114900Y321079D01*
X115002Y321219*
Y320235*
X115650Y321219D02*
X115309Y320563D01*
X115820*
X115650Y321219D02*
Y320235D01*
X515622Y321219D02*
Y320516D01*
X515656Y320376*
X515724Y320282*
X515827Y320235*
X515895*
X515997Y320282*
X516065Y320376*
X516099Y320516*
Y321219*
X516406Y321032D02*
X516474Y321079D01*
X516577Y321219*
Y320235*
X517293Y321079D02*
X517258Y321172D01*
X517156Y321219*
X517088*
X516986Y321172*
X516918Y321032*
X516918D02*
X516883Y320797D01*
Y320563*
X516918Y320376*
X516918D02*
X516986Y320282D01*
X517088Y320235*
X517122*
X517224Y320282*
X517293Y320376*
X517293D02*
X517327Y320516D01*
Y320563*
X517293Y320704*
X517293D02*
X517224Y320797D01*
X517122Y320844*
X517088*
X516986Y320797*
X516918Y320704*
X516918D02*
X516883Y320563D01*
X114047Y116495D02*
Y115792D01*
X114081Y115651*
X114150Y115557*
X114252Y115510*
X114252D02*
X114320D01*
X114320D02*
X114422Y115557D01*
X114490Y115651*
X114525Y115792*
Y116495*
X114831Y116307D02*
X114900Y116354D01*
X115002Y116495*
Y115510*
X115786Y116495D02*
X115445Y115510D01*
X115309Y116495D02*
X115786D01*
X515622D02*
Y115792D01*
X515656Y115651*
X515724Y115557*
X515827Y115510*
X515827D02*
X515895D01*
X515895D02*
X515997Y115557D01*
X516065Y115651*
X516099Y115792*
Y116495*
X516406Y116307D02*
X516474Y116354D01*
X516577Y116495*
Y115510*
X517054Y116495D02*
X516952Y116448D01*
X516918Y116354*
X516918D02*
Y116260D01*
X516918D02*
X516952Y116167D01*
X517020Y116120*
X517156Y116073*
X517258Y116026*
X517327Y115932*
X517361Y115839*
Y115698*
X517327Y115604*
X517293Y115557*
X517293D02*
X517190Y115510D01*
X517190D02*
X517054D01*
X517054D02*
X516952Y115557D01*
X516918Y115604*
X516918D02*
X516883Y115698D01*
Y115839*
X516918Y115932*
X516918D02*
X516986Y116026D01*
X517088Y116073*
X517224Y116120*
X517293Y116167*
X517293D02*
X517327Y116260D01*
X517327D02*
Y116354D01*
X517293Y116448*
X517293D02*
X517190Y116495D01*
X517054*
G54D73*
X472930Y186253D02*
Y184592D01*
X473020Y184260*
X473199Y184039*
X473467Y183928*
X473646*
X473915Y184039*
X474094Y184260*
X474183Y184592*
Y186253*
X475078Y185699D02*
Y185810D01*
X475167Y186032*
X475257Y186142*
X475436Y186253*
X475794*
X475973Y186142*
X476062Y186032*
X476152Y185810*
Y185589*
X476062Y185367*
X475883Y185035*
X474988Y183928*
X476241*
G74*
X0Y0D02*
M02*
