solid CATIA STL
  facet normal  0.000000e+000  0.000000e+000  1.000000e+000
    outer loop
      vertex -5.150000e+001  2.500000e+001  5.000000e+001
      vertex -1.015000e+002  2.600000e+001  5.000000e+001
      vertex -1.015000e+002  2.500000e+001  5.000000e+001
    endloop
  endfacet
  facet normal  0.000000e+000  0.000000e+000  1.000000e+000
    outer loop
      vertex  5.150000e+001 -2.500000e+001  5.000000e+001
      vertex  5.150000e+001  2.500000e+001  5.000000e+001
      vertex  5.050000e+001  2.500000e+001  5.000000e+001
    endloop
  endfacet
  facet normal  0.000000e+000  0.000000e+000  1.000000e+000
    outer loop
      vertex  5.150000e+001 -2.500000e+001  5.000000e+001
      vertex  5.050000e+001  2.500000e+001  5.000000e+001
      vertex  5.050000e+001 -2.500000e+001  5.000000e+001
    endloop
  endfacet
  facet normal  -0.000000e+000  0.000000e+000  1.000000e+000
    outer loop
      vertex  5.150000e+001 -2.500000e+001  5.000000e+001
      vertex  5.050000e+001 -2.500000e+001  5.000000e+001
      vertex  5.050000e+001 -2.600000e+001  5.000000e+001
    endloop
  endfacet
  facet normal  0.000000e+000  0.000000e+000  1.000000e+000
    outer loop
      vertex  5.150000e+001 -2.500000e+001  5.000000e+001
      vertex  5.050000e+001 -2.600000e+001  5.000000e+001
      vertex  5.150000e+001 -2.600000e+001  5.000000e+001
    endloop
  endfacet
  facet normal  0.000000e+000  0.000000e+000  1.000000e+000
    outer loop
      vertex  5.150000e+001 -2.500000e+001  5.000000e+001
      vertex  5.150000e+001 -2.600000e+001  5.000000e+001
      vertex  1.015000e+002 -2.600000e+001  5.000000e+001
    endloop
  endfacet
  facet normal  0.000000e+000  -0.000000e+000  1.000000e+000
    outer loop
      vertex  5.150000e+001 -2.500000e+001  5.000000e+001
      vertex  1.015000e+002 -2.600000e+001  5.000000e+001
      vertex  1.015000e+002 -2.500000e+001  5.000000e+001
    endloop
  endfacet
  facet normal  0.000000e+000  0.000000e+000  1.000000e+000
    outer loop
      vertex  5.000000e-001 -2.500000e+001  5.000000e+001
      vertex  5.000000e-001  2.500000e+001  5.000000e+001
      vertex -5.000000e-001  2.500000e+001  5.000000e+001
    endloop
  endfacet
  facet normal  0.000000e+000  0.000000e+000  1.000000e+000
    outer loop
      vertex  5.000000e-001 -2.500000e+001  5.000000e+001
      vertex -5.000000e-001  2.500000e+001  5.000000e+001
      vertex -5.000000e-001 -2.500000e+001  5.000000e+001
    endloop
  endfacet
  facet normal  -0.000000e+000  0.000000e+000  1.000000e+000
    outer loop
      vertex  5.000000e-001 -2.500000e+001  5.000000e+001
      vertex -5.000000e-001 -2.500000e+001  5.000000e+001
      vertex -5.000000e-001 -2.600000e+001  5.000000e+001
    endloop
  endfacet
  facet normal  0.000000e+000  0.000000e+000  1.000000e+000
    outer loop
      vertex  5.000000e-001 -2.500000e+001  5.000000e+001
      vertex -5.000000e-001 -2.600000e+001  5.000000e+001
      vertex  5.000000e-001 -2.600000e+001  5.000000e+001
    endloop
  endfacet
  facet normal  0.000000e+000  0.000000e+000  1.000000e+000
    outer loop
      vertex  5.000000e-001 -2.500000e+001  5.000000e+001
      vertex  5.000000e-001 -2.600000e+001  5.000000e+001
      vertex  5.050000e+001 -2.600000e+001  5.000000e+001
    endloop
  endfacet
  facet normal  0.000000e+000  -0.000000e+000  1.000000e+000
    outer loop
      vertex  5.000000e-001 -2.500000e+001  5.000000e+001
      vertex  5.050000e+001 -2.600000e+001  5.000000e+001
      vertex  5.050000e+001 -2.500000e+001  5.000000e+001
    endloop
  endfacet
  facet normal  0.000000e+000  0.000000e+000  1.000000e+000
    outer loop
      vertex -5.050000e+001 -2.500000e+001  5.000000e+001
      vertex -5.050000e+001  2.500000e+001  5.000000e+001
      vertex -5.150000e+001  2.500000e+001  5.000000e+001
    endloop
  endfacet
  facet normal  0.000000e+000  0.000000e+000  1.000000e+000
    outer loop
      vertex -5.050000e+001 -2.500000e+001  5.000000e+001
      vertex -5.150000e+001  2.500000e+001  5.000000e+001
      vertex -5.150000e+001 -2.500000e+001  5.000000e+001
    endloop
  endfacet
  facet normal  -0.000000e+000  0.000000e+000  1.000000e+000
    outer loop
      vertex -5.050000e+001 -2.500000e+001  5.000000e+001
      vertex -5.150000e+001 -2.500000e+001  5.000000e+001
      vertex -5.150000e+001 -2.600000e+001  5.000000e+001
    endloop
  endfacet
  facet normal  0.000000e+000  0.000000e+000  1.000000e+000
    outer loop
      vertex -5.050000e+001 -2.500000e+001  5.000000e+001
      vertex -5.150000e+001 -2.600000e+001  5.000000e+001
      vertex -5.050000e+001 -2.600000e+001  5.000000e+001
    endloop
  endfacet
  facet normal  0.000000e+000  0.000000e+000  1.000000e+000
    outer loop
      vertex -5.050000e+001 -2.500000e+001  5.000000e+001
      vertex -5.050000e+001 -2.600000e+001  5.000000e+001
      vertex -5.000000e-001 -2.600000e+001  5.000000e+001
    endloop
  endfacet
  facet normal  0.000000e+000  -0.000000e+000  1.000000e+000
    outer loop
      vertex -5.050000e+001 -2.500000e+001  5.000000e+001
      vertex -5.000000e-001 -2.600000e+001  5.000000e+001
      vertex -5.000000e-001 -2.500000e+001  5.000000e+001
    endloop
  endfacet
  facet normal  0.000000e+000  0.000000e+000  1.000000e+000
    outer loop
      vertex  5.000000e-001  2.600000e+001  5.000000e+001
      vertex  5.000000e-001  7.600000e+001  5.000000e+001
      vertex -5.000000e-001  7.600000e+001  5.000000e+001
    endloop
  endfacet
  facet normal  0.000000e+000  0.000000e+000  1.000000e+000
    outer loop
      vertex  5.000000e-001  2.600000e+001  5.000000e+001
      vertex -5.000000e-001  7.600000e+001  5.000000e+001
      vertex -5.000000e-001  2.600000e+001  5.000000e+001
    endloop
  endfacet
  facet normal  -0.000000e+000  0.000000e+000  1.000000e+000
    outer loop
      vertex  5.000000e-001  2.600000e+001  5.000000e+001
      vertex -5.000000e-001  2.600000e+001  5.000000e+001
      vertex -5.000000e-001  2.500000e+001  5.000000e+001
    endloop
  endfacet
  facet normal  0.000000e+000  0.000000e+000  1.000000e+000
    outer loop
      vertex  5.000000e-001  2.600000e+001  5.000000e+001
      vertex -5.000000e-001  2.500000e+001  5.000000e+001
      vertex  5.000000e-001  2.500000e+001  5.000000e+001
    endloop
  endfacet
  facet normal  0.000000e+000  0.000000e+000  1.000000e+000
    outer loop
      vertex  5.000000e-001  2.600000e+001  5.000000e+001
      vertex  5.000000e-001  2.500000e+001  5.000000e+001
      vertex  5.050000e+001  2.500000e+001  5.000000e+001
    endloop
  endfacet
  facet normal  0.000000e+000  -0.000000e+000  1.000000e+000
    outer loop
      vertex  5.000000e-001  2.600000e+001  5.000000e+001
      vertex  5.050000e+001  2.500000e+001  5.000000e+001
      vertex  5.150000e+001  2.500000e+001  5.000000e+001
    endloop
  endfacet
  facet normal  0.000000e+000  -0.000000e+000  1.000000e+000
    outer loop
      vertex  5.000000e-001  2.600000e+001  5.000000e+001
      vertex  5.150000e+001  2.500000e+001  5.000000e+001
      vertex  1.015000e+002  2.500000e+001  5.000000e+001
    endloop
  endfacet
  facet normal  0.000000e+000  -0.000000e+000  1.000000e+000
    outer loop
      vertex  5.000000e-001  2.600000e+001  5.000000e+001
      vertex  1.015000e+002  2.500000e+001  5.000000e+001
      vertex  1.015000e+002  2.600000e+001  5.000000e+001
    endloop
  endfacet
  facet normal  0.000000e+000  0.000000e+000  1.000000e+000
    outer loop
      vertex -1.035000e+002 -7.800000e+001  5.000000e+001
      vertex  1.035000e+002 -7.800000e+001  5.000000e+001
      vertex  1.015000e+002 -7.600000e+001  5.000000e+001
    endloop
  endfacet
  facet normal  0.000000e+000  0.000000e+000  1.000000e+000
    outer loop
      vertex -1.035000e+002 -7.800000e+001  5.000000e+001
      vertex  1.015000e+002 -7.600000e+001  5.000000e+001
      vertex  5.150000e+001 -7.600000e+001  5.000000e+001
    endloop
  endfacet
  facet normal  0.000000e+000  0.000000e+000  1.000000e+000
    outer loop
      vertex -1.035000e+002 -7.800000e+001  5.000000e+001
      vertex  5.150000e+001 -7.600000e+001  5.000000e+001
      vertex  5.050000e+001 -7.600000e+001  5.000000e+001
    endloop
  endfacet
  facet normal  0.000000e+000  0.000000e+000  1.000000e+000
    outer loop
      vertex -1.035000e+002 -7.800000e+001  5.000000e+001
      vertex  5.050000e+001 -7.600000e+001  5.000000e+001
      vertex  5.000000e-001 -7.600000e+001  5.000000e+001
    endloop
  endfacet
  facet normal  0.000000e+000  0.000000e+000  1.000000e+000
    outer loop
      vertex -1.035000e+002 -7.800000e+001  5.000000e+001
      vertex  5.000000e-001 -7.600000e+001  5.000000e+001
      vertex -5.000000e-001 -7.600000e+001  5.000000e+001
    endloop
  endfacet
  facet normal  0.000000e+000  0.000000e+000  1.000000e+000
    outer loop
      vertex -1.035000e+002 -7.800000e+001  5.000000e+001
      vertex -5.000000e-001 -7.600000e+001  5.000000e+001
      vertex -5.050000e+001 -7.600000e+001  5.000000e+001
    endloop
  endfacet
  facet normal  0.000000e+000  0.000000e+000  1.000000e+000
    outer loop
      vertex -1.035000e+002 -7.800000e+001  5.000000e+001
      vertex -5.050000e+001 -7.600000e+001  5.000000e+001
      vertex -5.150000e+001 -7.600000e+001  5.000000e+001
    endloop
  endfacet
  facet normal  0.000000e+000  0.000000e+000  1.000000e+000
    outer loop
      vertex -1.035000e+002 -7.800000e+001  5.000000e+001
      vertex -5.150000e+001 -7.600000e+001  5.000000e+001
      vertex -1.015000e+002 -7.600000e+001  5.000000e+001
    endloop
  endfacet
  facet normal  0.000000e+000  -0.000000e+000  1.000000e+000
    outer loop
      vertex -1.035000e+002 -7.800000e+001  5.000000e+001
      vertex -1.015000e+002 -7.600000e+001  5.000000e+001
      vertex -1.015000e+002 -2.600000e+001  5.000000e+001
    endloop
  endfacet
  facet normal  0.000000e+000  0.000000e+000  1.000000e+000
    outer loop
      vertex -1.035000e+002 -7.800000e+001  5.000000e+001
      vertex -1.015000e+002 -2.600000e+001  5.000000e+001
      vertex -1.035000e+002  7.800000e+001  5.000000e+001
    endloop
  endfacet
  facet normal  0.000000e+000  -0.000000e+000  1.000000e+000
    outer loop
      vertex -1.035000e+002  7.800000e+001  5.000000e+001
      vertex -1.015000e+002 -2.600000e+001  5.000000e+001
      vertex -1.015000e+002 -2.500000e+001  5.000000e+001
    endloop
  endfacet
  facet normal  0.000000e+000  -0.000000e+000  1.000000e+000
    outer loop
      vertex -1.035000e+002  7.800000e+001  5.000000e+001
      vertex -1.015000e+002 -2.500000e+001  5.000000e+001
      vertex -1.015000e+002  2.500000e+001  5.000000e+001
    endloop
  endfacet
  facet normal  0.000000e+000  -0.000000e+000  1.000000e+000
    outer loop
      vertex -1.035000e+002  7.800000e+001  5.000000e+001
      vertex -1.015000e+002  2.500000e+001  5.000000e+001
      vertex -1.015000e+002  2.600000e+001  5.000000e+001
    endloop
  endfacet
  facet normal  0.000000e+000  -0.000000e+000  1.000000e+000
    outer loop
      vertex -1.035000e+002  7.800000e+001  5.000000e+001
      vertex -1.015000e+002  2.600000e+001  5.000000e+001
      vertex -1.015000e+002  7.600000e+001  5.000000e+001
    endloop
  endfacet
  facet normal  0.000000e+000  -0.000000e+000  1.000000e+000
    outer loop
      vertex -1.035000e+002  7.800000e+001  5.000000e+001
      vertex -1.015000e+002  7.600000e+001  5.000000e+001
      vertex -5.000000e-001  7.600000e+001  5.000000e+001
    endloop
  endfacet
  facet normal  0.000000e+000  -0.000000e+000  1.000000e+000
    outer loop
      vertex -1.035000e+002  7.800000e+001  5.000000e+001
      vertex -5.000000e-001  7.600000e+001  5.000000e+001
      vertex  5.000000e-001  7.600000e+001  5.000000e+001
    endloop
  endfacet
  facet normal  0.000000e+000  -0.000000e+000  1.000000e+000
    outer loop
      vertex -1.035000e+002  7.800000e+001  5.000000e+001
      vertex  5.000000e-001  7.600000e+001  5.000000e+001
      vertex  1.015000e+002  7.600000e+001  5.000000e+001
    endloop
  endfacet
  facet normal  0.000000e+000  -0.000000e+000  1.000000e+000
    outer loop
      vertex -1.035000e+002  7.800000e+001  5.000000e+001
      vertex  1.015000e+002  7.600000e+001  5.000000e+001
      vertex  1.035000e+002  7.800000e+001  5.000000e+001
    endloop
  endfacet
  facet normal  -0.000000e+000  0.000000e+000  1.000000e+000
    outer loop
      vertex  1.035000e+002  7.800000e+001  5.000000e+001
      vertex  1.015000e+002  7.600000e+001  5.000000e+001
      vertex  1.015000e+002  2.600000e+001  5.000000e+001
    endloop
  endfacet
  facet normal  -0.000000e+000  0.000000e+000  1.000000e+000
    outer loop
      vertex  1.035000e+002  7.800000e+001  5.000000e+001
      vertex  1.015000e+002  2.600000e+001  5.000000e+001
      vertex  1.015000e+002  2.500000e+001  5.000000e+001
    endloop
  endfacet
  facet normal  -0.000000e+000  0.000000e+000  1.000000e+000
    outer loop
      vertex  1.035000e+002  7.800000e+001  5.000000e+001
      vertex  1.015000e+002  2.500000e+001  5.000000e+001
      vertex  1.015000e+002 -2.500000e+001  5.000000e+001
    endloop
  endfacet
  facet normal  -0.000000e+000  0.000000e+000  1.000000e+000
    outer loop
      vertex  1.035000e+002  7.800000e+001  5.000000e+001
      vertex  1.015000e+002 -2.500000e+001  5.000000e+001
      vertex  1.015000e+002 -2.600000e+001  5.000000e+001
    endloop
  endfacet
  facet normal  -0.000000e+000  0.000000e+000  1.000000e+000
    outer loop
      vertex  1.035000e+002  7.800000e+001  5.000000e+001
      vertex  1.015000e+002 -2.600000e+001  5.000000e+001
      vertex  1.015000e+002 -7.600000e+001  5.000000e+001
    endloop
  endfacet
  facet normal  -0.000000e+000  0.000000e+000  1.000000e+000
    outer loop
      vertex  1.035000e+002  7.800000e+001  5.000000e+001
      vertex  1.015000e+002 -7.600000e+001  5.000000e+001
      vertex  1.035000e+002 -7.800000e+001  5.000000e+001
    endloop
  endfacet
  facet normal  0.000000e+000  0.000000e+000  1.000000e+000
    outer loop
      vertex -1.015000e+002 -2.600000e+001  5.000000e+001
      vertex -5.150000e+001 -2.600000e+001  5.000000e+001
      vertex -1.015000e+002 -2.500000e+001  5.000000e+001
    endloop
  endfacet
  facet normal  -0.000000e+000  0.000000e+000  1.000000e+000
    outer loop
      vertex -1.015000e+002 -2.500000e+001  5.000000e+001
      vertex -5.150000e+001 -2.600000e+001  5.000000e+001
      vertex -5.150000e+001 -2.500000e+001  5.000000e+001
    endloop
  endfacet
  facet normal  0.000000e+000  0.000000e+000  1.000000e+000
    outer loop
      vertex -5.000000e-001  2.500000e+001  5.000000e+001
      vertex -5.000000e-001  2.600000e+001  5.000000e+001
      vertex -5.050000e+001  2.500000e+001  5.000000e+001
    endloop
  endfacet
  facet normal  0.000000e+000  -0.000000e+000  1.000000e+000
    outer loop
      vertex -5.050000e+001  2.500000e+001  5.000000e+001
      vertex -5.000000e-001  2.600000e+001  5.000000e+001
      vertex -1.015000e+002  2.600000e+001  5.000000e+001
    endloop
  endfacet
  facet normal  0.000000e+000  0.000000e+000  1.000000e+000
    outer loop
      vertex -5.050000e+001  2.500000e+001  5.000000e+001
      vertex -1.015000e+002  2.600000e+001  5.000000e+001
      vertex -5.150000e+001  2.500000e+001  5.000000e+001
    endloop
  endfacet
  facet normal  0.000000e+000  0.000000e+000  1.000000e+000
    outer loop
      vertex -5.150000e+001 -7.600000e+001  5.000000e+001
      vertex -5.050000e+001 -7.600000e+001  5.000000e+001
      vertex -5.150000e+001 -2.600000e+001  5.000000e+001
    endloop
  endfacet
  facet normal  -0.000000e+000  0.000000e+000  1.000000e+000
    outer loop
      vertex -5.150000e+001 -2.600000e+001  5.000000e+001
      vertex -5.050000e+001 -7.600000e+001  5.000000e+001
      vertex -5.050000e+001 -2.600000e+001  5.000000e+001
    endloop
  endfacet
  facet normal  0.000000e+000  0.000000e+000  1.000000e+000
    outer loop
      vertex  5.050000e+001 -7.600000e+001  5.000000e+001
      vertex  5.150000e+001 -7.600000e+001  5.000000e+001
      vertex  5.050000e+001 -2.600000e+001  5.000000e+001
    endloop
  endfacet
  facet normal  -0.000000e+000  0.000000e+000  1.000000e+000
    outer loop
      vertex  5.050000e+001 -2.600000e+001  5.000000e+001
      vertex  5.150000e+001 -7.600000e+001  5.000000e+001
      vertex  5.150000e+001 -2.600000e+001  5.000000e+001
    endloop
  endfacet
  facet normal  0.000000e+000  0.000000e+000  1.000000e+000
    outer loop
      vertex -5.000000e-001 -7.600000e+001  5.000000e+001
      vertex  5.000000e-001 -7.600000e+001  5.000000e+001
      vertex -5.000000e-001 -2.600000e+001  5.000000e+001
    endloop
  endfacet
  facet normal  -0.000000e+000  0.000000e+000  1.000000e+000
    outer loop
      vertex -5.000000e-001 -2.600000e+001  5.000000e+001
      vertex  5.000000e-001 -7.600000e+001  5.000000e+001
      vertex  5.000000e-001 -2.600000e+001  5.000000e+001
    endloop
  endfacet
  facet normal  0.000000e+000 -1.000000e+000  0.000000e+000
    outer loop
      vertex  5.150000e+001 -2.600000e+001  2.000000e+000
      vertex  1.015000e+002 -2.600000e+001  2.000000e+000
      vertex  5.150000e+001 -2.600000e+001  5.000000e+001
    endloop
  endfacet
  facet normal  0.000000e+000 -1.000000e+000  0.000000e+000
    outer loop
      vertex  5.150000e+001 -2.600000e+001  5.000000e+001
      vertex  1.015000e+002 -2.600000e+001  2.000000e+000
      vertex  1.015000e+002 -2.600000e+001  5.000000e+001
    endloop
  endfacet
  facet normal -1.000000e+000  0.000000e+000  0.000000e+000
    outer loop
      vertex  1.015000e+002 -7.600000e+001  2.000000e+000
      vertex  1.015000e+002 -7.600000e+001  5.000000e+001
      vertex  1.015000e+002 -2.600000e+001  2.000000e+000
    endloop
  endfacet
  facet normal -1.000000e+000  0.000000e+000  0.000000e+000
    outer loop
      vertex  1.015000e+002 -2.600000e+001  2.000000e+000
      vertex  1.015000e+002 -7.600000e+001  5.000000e+001
      vertex  1.015000e+002 -2.600000e+001  5.000000e+001
    endloop
  endfacet
  facet normal  0.000000e+000  1.000000e+000  0.000000e+000
    outer loop
      vertex  1.015000e+002 -7.600000e+001  2.000000e+000
      vertex  5.150000e+001 -7.600000e+001  2.000000e+000
      vertex  1.015000e+002 -7.600000e+001  5.000000e+001
    endloop
  endfacet
  facet normal  0.000000e+000  1.000000e+000  0.000000e+000
    outer loop
      vertex  1.015000e+002 -7.600000e+001  5.000000e+001
      vertex  5.150000e+001 -7.600000e+001  2.000000e+000
      vertex  5.150000e+001 -7.600000e+001  5.000000e+001
    endloop
  endfacet
  facet normal  1.000000e+000  0.000000e+000  0.000000e+000
    outer loop
      vertex  5.150000e+001 -2.600000e+001  2.000000e+000
      vertex  5.150000e+001 -2.600000e+001  5.000000e+001
      vertex  5.150000e+001 -7.600000e+001  2.000000e+000
    endloop
  endfacet
  facet normal  1.000000e+000  0.000000e+000  0.000000e+000
    outer loop
      vertex  5.150000e+001 -7.600000e+001  2.000000e+000
      vertex  5.150000e+001 -2.600000e+001  5.000000e+001
      vertex  5.150000e+001 -7.600000e+001  5.000000e+001
    endloop
  endfacet
  facet normal  0.000000e+000 -1.000000e+000  0.000000e+000
    outer loop
      vertex  5.000000e-001 -2.600000e+001  2.000000e+000
      vertex  5.050000e+001 -2.600000e+001  2.000000e+000
      vertex  5.000000e-001 -2.600000e+001  5.000000e+001
    endloop
  endfacet
  facet normal  0.000000e+000 -1.000000e+000  0.000000e+000
    outer loop
      vertex  5.000000e-001 -2.600000e+001  5.000000e+001
      vertex  5.050000e+001 -2.600000e+001  2.000000e+000
      vertex  5.050000e+001 -2.600000e+001  5.000000e+001
    endloop
  endfacet
  facet normal -1.000000e+000  0.000000e+000  0.000000e+000
    outer loop
      vertex  5.050000e+001 -7.600000e+001  2.000000e+000
      vertex  5.050000e+001 -7.600000e+001  5.000000e+001
      vertex  5.050000e+001 -2.600000e+001  2.000000e+000
    endloop
  endfacet
  facet normal -1.000000e+000  0.000000e+000  0.000000e+000
    outer loop
      vertex  5.050000e+001 -2.600000e+001  2.000000e+000
      vertex  5.050000e+001 -7.600000e+001  5.000000e+001
      vertex  5.050000e+001 -2.600000e+001  5.000000e+001
    endloop
  endfacet
  facet normal  0.000000e+000  1.000000e+000  0.000000e+000
    outer loop
      vertex  5.050000e+001 -7.600000e+001  2.000000e+000
      vertex  5.000000e-001 -7.600000e+001  2.000000e+000
      vertex  5.050000e+001 -7.600000e+001  5.000000e+001
    endloop
  endfacet
  facet normal  0.000000e+000  1.000000e+000  0.000000e+000
    outer loop
      vertex  5.050000e+001 -7.600000e+001  5.000000e+001
      vertex  5.000000e-001 -7.600000e+001  2.000000e+000
      vertex  5.000000e-001 -7.600000e+001  5.000000e+001
    endloop
  endfacet
  facet normal  1.000000e+000  0.000000e+000  0.000000e+000
    outer loop
      vertex  5.000000e-001 -2.600000e+001  2.000000e+000
      vertex  5.000000e-001 -2.600000e+001  5.000000e+001
      vertex  5.000000e-001 -7.600000e+001  2.000000e+000
    endloop
  endfacet
  facet normal  1.000000e+000  0.000000e+000  0.000000e+000
    outer loop
      vertex  5.000000e-001 -7.600000e+001  2.000000e+000
      vertex  5.000000e-001 -2.600000e+001  5.000000e+001
      vertex  5.000000e-001 -7.600000e+001  5.000000e+001
    endloop
  endfacet
  facet normal  0.000000e+000 -1.000000e+000  0.000000e+000
    outer loop
      vertex -5.050000e+001 -2.600000e+001  2.000000e+000
      vertex -5.000000e-001 -2.600000e+001  2.000000e+000
      vertex -5.050000e+001 -2.600000e+001  5.000000e+001
    endloop
  endfacet
  facet normal  0.000000e+000 -1.000000e+000  0.000000e+000
    outer loop
      vertex -5.050000e+001 -2.600000e+001  5.000000e+001
      vertex -5.000000e-001 -2.600000e+001  2.000000e+000
      vertex -5.000000e-001 -2.600000e+001  5.000000e+001
    endloop
  endfacet
  facet normal -1.000000e+000  0.000000e+000  0.000000e+000
    outer loop
      vertex -5.000000e-001 -7.600000e+001  2.000000e+000
      vertex -5.000000e-001 -7.600000e+001  5.000000e+001
      vertex -5.000000e-001 -2.600000e+001  2.000000e+000
    endloop
  endfacet
  facet normal -1.000000e+000  0.000000e+000  0.000000e+000
    outer loop
      vertex -5.000000e-001 -2.600000e+001  2.000000e+000
      vertex -5.000000e-001 -7.600000e+001  5.000000e+001
      vertex -5.000000e-001 -2.600000e+001  5.000000e+001
    endloop
  endfacet
  facet normal  0.000000e+000  1.000000e+000  0.000000e+000
    outer loop
      vertex -5.000000e-001 -7.600000e+001  2.000000e+000
      vertex -5.050000e+001 -7.600000e+001  2.000000e+000
      vertex -5.000000e-001 -7.600000e+001  5.000000e+001
    endloop
  endfacet
  facet normal  0.000000e+000  1.000000e+000  0.000000e+000
    outer loop
      vertex -5.000000e-001 -7.600000e+001  5.000000e+001
      vertex -5.050000e+001 -7.600000e+001  2.000000e+000
      vertex -5.050000e+001 -7.600000e+001  5.000000e+001
    endloop
  endfacet
  facet normal  1.000000e+000  0.000000e+000  0.000000e+000
    outer loop
      vertex -5.050000e+001 -2.600000e+001  2.000000e+000
      vertex -5.050000e+001 -2.600000e+001  5.000000e+001
      vertex -5.050000e+001 -7.600000e+001  2.000000e+000
    endloop
  endfacet
  facet normal  1.000000e+000  0.000000e+000  0.000000e+000
    outer loop
      vertex -5.050000e+001 -7.600000e+001  2.000000e+000
      vertex -5.050000e+001 -2.600000e+001  5.000000e+001
      vertex -5.050000e+001 -7.600000e+001  5.000000e+001
    endloop
  endfacet
  facet normal  0.000000e+000 -1.000000e+000  0.000000e+000
    outer loop
      vertex -1.015000e+002 -2.600000e+001  2.000000e+000
      vertex -5.150000e+001 -2.600000e+001  2.000000e+000
      vertex -1.015000e+002 -2.600000e+001  5.000000e+001
    endloop
  endfacet
  facet normal  0.000000e+000 -1.000000e+000  0.000000e+000
    outer loop
      vertex -1.015000e+002 -2.600000e+001  5.000000e+001
      vertex -5.150000e+001 -2.600000e+001  2.000000e+000
      vertex -5.150000e+001 -2.600000e+001  5.000000e+001
    endloop
  endfacet
  facet normal -1.000000e+000  0.000000e+000  0.000000e+000
    outer loop
      vertex -5.150000e+001 -7.600000e+001  2.000000e+000
      vertex -5.150000e+001 -7.600000e+001  5.000000e+001
      vertex -5.150000e+001 -2.600000e+001  2.000000e+000
    endloop
  endfacet
  facet normal -1.000000e+000  0.000000e+000  0.000000e+000
    outer loop
      vertex -5.150000e+001 -2.600000e+001  2.000000e+000
      vertex -5.150000e+001 -7.600000e+001  5.000000e+001
      vertex -5.150000e+001 -2.600000e+001  5.000000e+001
    endloop
  endfacet
  facet normal  0.000000e+000  1.000000e+000  0.000000e+000
    outer loop
      vertex -5.150000e+001 -7.600000e+001  2.000000e+000
      vertex -1.015000e+002 -7.600000e+001  2.000000e+000
      vertex -5.150000e+001 -7.600000e+001  5.000000e+001
    endloop
  endfacet
  facet normal  0.000000e+000  1.000000e+000  0.000000e+000
    outer loop
      vertex -5.150000e+001 -7.600000e+001  5.000000e+001
      vertex -1.015000e+002 -7.600000e+001  2.000000e+000
      vertex -1.015000e+002 -7.600000e+001  5.000000e+001
    endloop
  endfacet
  facet normal  1.000000e+000  0.000000e+000  0.000000e+000
    outer loop
      vertex -1.015000e+002 -2.600000e+001  2.000000e+000
      vertex -1.015000e+002 -2.600000e+001  5.000000e+001
      vertex -1.015000e+002 -7.600000e+001  2.000000e+000
    endloop
  endfacet
  facet normal  1.000000e+000  0.000000e+000  0.000000e+000
    outer loop
      vertex -1.015000e+002 -7.600000e+001  2.000000e+000
      vertex -1.015000e+002 -2.600000e+001  5.000000e+001
      vertex -1.015000e+002 -7.600000e+001  5.000000e+001
    endloop
  endfacet
  facet normal  0.000000e+000  0.000000e+000  1.000000e+000
    outer loop
      vertex  5.150000e+001 -7.600000e+001  2.000000e+000
      vertex  1.015000e+002 -7.600000e+001  2.000000e+000
      vertex  5.150000e+001 -2.600000e+001  2.000000e+000
    endloop
  endfacet
  facet normal  -0.000000e+000  0.000000e+000  1.000000e+000
    outer loop
      vertex  5.150000e+001 -2.600000e+001  2.000000e+000
      vertex  1.015000e+002 -7.600000e+001  2.000000e+000
      vertex  1.015000e+002 -2.600000e+001  2.000000e+000
    endloop
  endfacet
  facet normal  0.000000e+000  0.000000e+000  1.000000e+000
    outer loop
      vertex  5.000000e-001 -7.600000e+001  2.000000e+000
      vertex  5.050000e+001 -7.600000e+001  2.000000e+000
      vertex  5.000000e-001 -2.600000e+001  2.000000e+000
    endloop
  endfacet
  facet normal  -0.000000e+000  0.000000e+000  1.000000e+000
    outer loop
      vertex  5.000000e-001 -2.600000e+001  2.000000e+000
      vertex  5.050000e+001 -7.600000e+001  2.000000e+000
      vertex  5.050000e+001 -2.600000e+001  2.000000e+000
    endloop
  endfacet
  facet normal  0.000000e+000  0.000000e+000  1.000000e+000
    outer loop
      vertex -5.050000e+001 -7.600000e+001  2.000000e+000
      vertex -5.000000e-001 -7.600000e+001  2.000000e+000
      vertex -5.050000e+001 -2.600000e+001  2.000000e+000
    endloop
  endfacet
  facet normal  -0.000000e+000  0.000000e+000  1.000000e+000
    outer loop
      vertex -5.050000e+001 -2.600000e+001  2.000000e+000
      vertex -5.000000e-001 -7.600000e+001  2.000000e+000
      vertex -5.000000e-001 -2.600000e+001  2.000000e+000
    endloop
  endfacet
  facet normal  0.000000e+000  0.000000e+000  1.000000e+000
    outer loop
      vertex -1.015000e+002 -7.600000e+001  2.000000e+000
      vertex -5.150000e+001 -7.600000e+001  2.000000e+000
      vertex -1.015000e+002 -2.600000e+001  2.000000e+000
    endloop
  endfacet
  facet normal  -0.000000e+000  0.000000e+000  1.000000e+000
    outer loop
      vertex -1.015000e+002 -2.600000e+001  2.000000e+000
      vertex -5.150000e+001 -7.600000e+001  2.000000e+000
      vertex -5.150000e+001 -2.600000e+001  2.000000e+000
    endloop
  endfacet
  facet normal  0.000000e+000 -1.000000e+000  0.000000e+000
    outer loop
      vertex  5.150000e+001  2.500000e+001  2.000000e+000
      vertex  1.015000e+002  2.500000e+001  2.000000e+000
      vertex  5.150000e+001  2.500000e+001  5.000000e+001
    endloop
  endfacet
  facet normal  0.000000e+000 -1.000000e+000  0.000000e+000
    outer loop
      vertex  5.150000e+001  2.500000e+001  5.000000e+001
      vertex  1.015000e+002  2.500000e+001  2.000000e+000
      vertex  1.015000e+002  2.500000e+001  5.000000e+001
    endloop
  endfacet
  facet normal -1.000000e+000  0.000000e+000  0.000000e+000
    outer loop
      vertex  1.015000e+002 -2.500000e+001  2.000000e+000
      vertex  1.015000e+002 -2.500000e+001  5.000000e+001
      vertex  1.015000e+002  2.500000e+001  2.000000e+000
    endloop
  endfacet
  facet normal -1.000000e+000  0.000000e+000  0.000000e+000
    outer loop
      vertex  1.015000e+002  2.500000e+001  2.000000e+000
      vertex  1.015000e+002 -2.500000e+001  5.000000e+001
      vertex  1.015000e+002  2.500000e+001  5.000000e+001
    endloop
  endfacet
  facet normal  0.000000e+000  1.000000e+000  0.000000e+000
    outer loop
      vertex  1.015000e+002 -2.500000e+001  2.000000e+000
      vertex  5.150000e+001 -2.500000e+001  2.000000e+000
      vertex  1.015000e+002 -2.500000e+001  5.000000e+001
    endloop
  endfacet
  facet normal  0.000000e+000  1.000000e+000  0.000000e+000
    outer loop
      vertex  1.015000e+002 -2.500000e+001  5.000000e+001
      vertex  5.150000e+001 -2.500000e+001  2.000000e+000
      vertex  5.150000e+001 -2.500000e+001  5.000000e+001
    endloop
  endfacet
  facet normal  1.000000e+000  0.000000e+000  0.000000e+000
    outer loop
      vertex  5.150000e+001  2.500000e+001  2.000000e+000
      vertex  5.150000e+001  2.500000e+001  5.000000e+001
      vertex  5.150000e+001 -2.500000e+001  2.000000e+000
    endloop
  endfacet
  facet normal  1.000000e+000  0.000000e+000  0.000000e+000
    outer loop
      vertex  5.150000e+001 -2.500000e+001  2.000000e+000
      vertex  5.150000e+001  2.500000e+001  5.000000e+001
      vertex  5.150000e+001 -2.500000e+001  5.000000e+001
    endloop
  endfacet
  facet normal  0.000000e+000 -1.000000e+000  0.000000e+000
    outer loop
      vertex  5.000000e-001  2.500000e+001  2.000000e+000
      vertex  5.050000e+001  2.500000e+001  2.000000e+000
      vertex  5.000000e-001  2.500000e+001  5.000000e+001
    endloop
  endfacet
  facet normal  0.000000e+000 -1.000000e+000  0.000000e+000
    outer loop
      vertex  5.000000e-001  2.500000e+001  5.000000e+001
      vertex  5.050000e+001  2.500000e+001  2.000000e+000
      vertex  5.050000e+001  2.500000e+001  5.000000e+001
    endloop
  endfacet
  facet normal -1.000000e+000  0.000000e+000  0.000000e+000
    outer loop
      vertex  5.050000e+001 -2.500000e+001  2.000000e+000
      vertex  5.050000e+001 -2.500000e+001  5.000000e+001
      vertex  5.050000e+001  2.500000e+001  2.000000e+000
    endloop
  endfacet
  facet normal -1.000000e+000  0.000000e+000  0.000000e+000
    outer loop
      vertex  5.050000e+001  2.500000e+001  2.000000e+000
      vertex  5.050000e+001 -2.500000e+001  5.000000e+001
      vertex  5.050000e+001  2.500000e+001  5.000000e+001
    endloop
  endfacet
  facet normal  0.000000e+000  1.000000e+000  0.000000e+000
    outer loop
      vertex  5.050000e+001 -2.500000e+001  2.000000e+000
      vertex  5.000000e-001 -2.500000e+001  2.000000e+000
      vertex  5.050000e+001 -2.500000e+001  5.000000e+001
    endloop
  endfacet
  facet normal  0.000000e+000  1.000000e+000  0.000000e+000
    outer loop
      vertex  5.050000e+001 -2.500000e+001  5.000000e+001
      vertex  5.000000e-001 -2.500000e+001  2.000000e+000
      vertex  5.000000e-001 -2.500000e+001  5.000000e+001
    endloop
  endfacet
  facet normal  1.000000e+000  0.000000e+000  0.000000e+000
    outer loop
      vertex  5.000000e-001  2.500000e+001  2.000000e+000
      vertex  5.000000e-001  2.500000e+001  5.000000e+001
      vertex  5.000000e-001 -2.500000e+001  2.000000e+000
    endloop
  endfacet
  facet normal  1.000000e+000  0.000000e+000  0.000000e+000
    outer loop
      vertex  5.000000e-001 -2.500000e+001  2.000000e+000
      vertex  5.000000e-001  2.500000e+001  5.000000e+001
      vertex  5.000000e-001 -2.500000e+001  5.000000e+001
    endloop
  endfacet
  facet normal  0.000000e+000 -1.000000e+000  0.000000e+000
    outer loop
      vertex -5.050000e+001  2.500000e+001  2.000000e+000
      vertex -5.000000e-001  2.500000e+001  2.000000e+000
      vertex -5.050000e+001  2.500000e+001  5.000000e+001
    endloop
  endfacet
  facet normal  0.000000e+000 -1.000000e+000  0.000000e+000
    outer loop
      vertex -5.050000e+001  2.500000e+001  5.000000e+001
      vertex -5.000000e-001  2.500000e+001  2.000000e+000
      vertex -5.000000e-001  2.500000e+001  5.000000e+001
    endloop
  endfacet
  facet normal -1.000000e+000  0.000000e+000  0.000000e+000
    outer loop
      vertex -5.000000e-001 -2.500000e+001  2.000000e+000
      vertex -5.000000e-001 -2.500000e+001  5.000000e+001
      vertex -5.000000e-001  2.500000e+001  2.000000e+000
    endloop
  endfacet
  facet normal -1.000000e+000  0.000000e+000  0.000000e+000
    outer loop
      vertex -5.000000e-001  2.500000e+001  2.000000e+000
      vertex -5.000000e-001 -2.500000e+001  5.000000e+001
      vertex -5.000000e-001  2.500000e+001  5.000000e+001
    endloop
  endfacet
  facet normal  0.000000e+000  1.000000e+000  0.000000e+000
    outer loop
      vertex -5.000000e-001 -2.500000e+001  2.000000e+000
      vertex -5.050000e+001 -2.500000e+001  2.000000e+000
      vertex -5.000000e-001 -2.500000e+001  5.000000e+001
    endloop
  endfacet
  facet normal  0.000000e+000  1.000000e+000  0.000000e+000
    outer loop
      vertex -5.000000e-001 -2.500000e+001  5.000000e+001
      vertex -5.050000e+001 -2.500000e+001  2.000000e+000
      vertex -5.050000e+001 -2.500000e+001  5.000000e+001
    endloop
  endfacet
  facet normal  1.000000e+000  0.000000e+000  0.000000e+000
    outer loop
      vertex -5.050000e+001  2.500000e+001  2.000000e+000
      vertex -5.050000e+001  2.500000e+001  5.000000e+001
      vertex -5.050000e+001 -2.500000e+001  2.000000e+000
    endloop
  endfacet
  facet normal  1.000000e+000  0.000000e+000  0.000000e+000
    outer loop
      vertex -5.050000e+001 -2.500000e+001  2.000000e+000
      vertex -5.050000e+001  2.500000e+001  5.000000e+001
      vertex -5.050000e+001 -2.500000e+001  5.000000e+001
    endloop
  endfacet
  facet normal  0.000000e+000  0.000000e+000  1.000000e+000
    outer loop
      vertex  5.150000e+001 -2.500000e+001  2.000000e+000
      vertex  1.015000e+002 -2.500000e+001  2.000000e+000
      vertex  5.150000e+001  2.500000e+001  2.000000e+000
    endloop
  endfacet
  facet normal  -0.000000e+000  0.000000e+000  1.000000e+000
    outer loop
      vertex  5.150000e+001  2.500000e+001  2.000000e+000
      vertex  1.015000e+002 -2.500000e+001  2.000000e+000
      vertex  1.015000e+002  2.500000e+001  2.000000e+000
    endloop
  endfacet
  facet normal  0.000000e+000  0.000000e+000  1.000000e+000
    outer loop
      vertex  5.000000e-001 -2.500000e+001  2.000000e+000
      vertex  5.050000e+001 -2.500000e+001  2.000000e+000
      vertex  5.000000e-001  2.500000e+001  2.000000e+000
    endloop
  endfacet
  facet normal  -0.000000e+000  0.000000e+000  1.000000e+000
    outer loop
      vertex  5.000000e-001  2.500000e+001  2.000000e+000
      vertex  5.050000e+001 -2.500000e+001  2.000000e+000
      vertex  5.050000e+001  2.500000e+001  2.000000e+000
    endloop
  endfacet
  facet normal  0.000000e+000  0.000000e+000  1.000000e+000
    outer loop
      vertex -5.050000e+001 -2.500000e+001  2.000000e+000
      vertex -5.000000e-001 -2.500000e+001  2.000000e+000
      vertex -5.050000e+001  2.500000e+001  2.000000e+000
    endloop
  endfacet
  facet normal  -0.000000e+000  0.000000e+000  1.000000e+000
    outer loop
      vertex -5.050000e+001  2.500000e+001  2.000000e+000
      vertex -5.000000e-001 -2.500000e+001  2.000000e+000
      vertex -5.000000e-001  2.500000e+001  2.000000e+000
    endloop
  endfacet
  facet normal  0.000000e+000 -1.000000e+000  0.000000e+000
    outer loop
      vertex -1.015000e+002  2.500000e+001  2.000000e+000
      vertex -5.150000e+001  2.500000e+001  2.000000e+000
      vertex -1.015000e+002  2.500000e+001  5.000000e+001
    endloop
  endfacet
  facet normal  0.000000e+000 -1.000000e+000  0.000000e+000
    outer loop
      vertex -1.015000e+002  2.500000e+001  5.000000e+001
      vertex -5.150000e+001  2.500000e+001  2.000000e+000
      vertex -5.150000e+001  2.500000e+001  5.000000e+001
    endloop
  endfacet
  facet normal -1.000000e+000  0.000000e+000  0.000000e+000
    outer loop
      vertex -5.150000e+001 -2.500000e+001  2.000000e+000
      vertex -5.150000e+001 -2.500000e+001  5.000000e+001
      vertex -5.150000e+001  2.500000e+001  2.000000e+000
    endloop
  endfacet
  facet normal -1.000000e+000  0.000000e+000  0.000000e+000
    outer loop
      vertex -5.150000e+001  2.500000e+001  2.000000e+000
      vertex -5.150000e+001 -2.500000e+001  5.000000e+001
      vertex -5.150000e+001  2.500000e+001  5.000000e+001
    endloop
  endfacet
  facet normal  0.000000e+000  1.000000e+000  0.000000e+000
    outer loop
      vertex -5.150000e+001 -2.500000e+001  2.000000e+000
      vertex -1.015000e+002 -2.500000e+001  2.000000e+000
      vertex -5.150000e+001 -2.500000e+001  5.000000e+001
    endloop
  endfacet
  facet normal  0.000000e+000  1.000000e+000  0.000000e+000
    outer loop
      vertex -5.150000e+001 -2.500000e+001  5.000000e+001
      vertex -1.015000e+002 -2.500000e+001  2.000000e+000
      vertex -1.015000e+002 -2.500000e+001  5.000000e+001
    endloop
  endfacet
  facet normal  1.000000e+000  0.000000e+000  0.000000e+000
    outer loop
      vertex -1.015000e+002  2.500000e+001  2.000000e+000
      vertex -1.015000e+002  2.500000e+001  5.000000e+001
      vertex -1.015000e+002 -2.500000e+001  2.000000e+000
    endloop
  endfacet
  facet normal  1.000000e+000  0.000000e+000  0.000000e+000
    outer loop
      vertex -1.015000e+002 -2.500000e+001  2.000000e+000
      vertex -1.015000e+002  2.500000e+001  5.000000e+001
      vertex -1.015000e+002 -2.500000e+001  5.000000e+001
    endloop
  endfacet
  facet normal  0.000000e+000  0.000000e+000  1.000000e+000
    outer loop
      vertex -1.015000e+002 -2.500000e+001  2.000000e+000
      vertex -5.150000e+001 -2.500000e+001  2.000000e+000
      vertex -1.015000e+002  2.500000e+001  2.000000e+000
    endloop
  endfacet
  facet normal  -0.000000e+000  0.000000e+000  1.000000e+000
    outer loop
      vertex -1.015000e+002  2.500000e+001  2.000000e+000
      vertex -5.150000e+001 -2.500000e+001  2.000000e+000
      vertex -5.150000e+001  2.500000e+001  2.000000e+000
    endloop
  endfacet
  facet normal  0.000000e+000 -1.000000e+000  0.000000e+000
    outer loop
      vertex  5.000000e-001  7.600000e+001  2.000000e+000
      vertex  1.015000e+002  7.600000e+001  2.000000e+000
      vertex  5.000000e-001  7.600000e+001  5.000000e+001
    endloop
  endfacet
  facet normal  0.000000e+000 -1.000000e+000  0.000000e+000
    outer loop
      vertex  5.000000e-001  7.600000e+001  5.000000e+001
      vertex  1.015000e+002  7.600000e+001  2.000000e+000
      vertex  1.015000e+002  7.600000e+001  5.000000e+001
    endloop
  endfacet
  facet normal -1.000000e+000  0.000000e+000  0.000000e+000
    outer loop
      vertex  1.015000e+002  2.600000e+001  2.000000e+000
      vertex  1.015000e+002  2.600000e+001  5.000000e+001
      vertex  1.015000e+002  7.600000e+001  2.000000e+000
    endloop
  endfacet
  facet normal -1.000000e+000  0.000000e+000  0.000000e+000
    outer loop
      vertex  1.015000e+002  7.600000e+001  2.000000e+000
      vertex  1.015000e+002  2.600000e+001  5.000000e+001
      vertex  1.015000e+002  7.600000e+001  5.000000e+001
    endloop
  endfacet
  facet normal  0.000000e+000  1.000000e+000  0.000000e+000
    outer loop
      vertex  1.015000e+002  2.600000e+001  2.000000e+000
      vertex  5.000000e-001  2.600000e+001  2.000000e+000
      vertex  1.015000e+002  2.600000e+001  5.000000e+001
    endloop
  endfacet
  facet normal  0.000000e+000  1.000000e+000  0.000000e+000
    outer loop
      vertex  1.015000e+002  2.600000e+001  5.000000e+001
      vertex  5.000000e-001  2.600000e+001  2.000000e+000
      vertex  5.000000e-001  2.600000e+001  5.000000e+001
    endloop
  endfacet
  facet normal  1.000000e+000  0.000000e+000  0.000000e+000
    outer loop
      vertex  5.000000e-001  7.600000e+001  2.000000e+000
      vertex  5.000000e-001  7.600000e+001  5.000000e+001
      vertex  5.000000e-001  2.600000e+001  2.000000e+000
    endloop
  endfacet
  facet normal  1.000000e+000  0.000000e+000  0.000000e+000
    outer loop
      vertex  5.000000e-001  2.600000e+001  2.000000e+000
      vertex  5.000000e-001  7.600000e+001  5.000000e+001
      vertex  5.000000e-001  2.600000e+001  5.000000e+001
    endloop
  endfacet
  facet normal  0.000000e+000  0.000000e+000  1.000000e+000
    outer loop
      vertex  5.000000e-001  2.600000e+001  2.000000e+000
      vertex  1.015000e+002  2.600000e+001  2.000000e+000
      vertex  5.000000e-001  7.600000e+001  2.000000e+000
    endloop
  endfacet
  facet normal  -0.000000e+000  0.000000e+000  1.000000e+000
    outer loop
      vertex  5.000000e-001  7.600000e+001  2.000000e+000
      vertex  1.015000e+002  2.600000e+001  2.000000e+000
      vertex  1.015000e+002  7.600000e+001  2.000000e+000
    endloop
  endfacet
  facet normal  0.000000e+000 -1.000000e+000  0.000000e+000
    outer loop
      vertex -1.015000e+002  7.600000e+001  2.000000e+000
      vertex -5.000000e-001  7.600000e+001  2.000000e+000
      vertex -1.015000e+002  7.600000e+001  5.000000e+001
    endloop
  endfacet
  facet normal  0.000000e+000 -1.000000e+000  0.000000e+000
    outer loop
      vertex -1.015000e+002  7.600000e+001  5.000000e+001
      vertex -5.000000e-001  7.600000e+001  2.000000e+000
      vertex -5.000000e-001  7.600000e+001  5.000000e+001
    endloop
  endfacet
  facet normal -1.000000e+000  0.000000e+000  0.000000e+000
    outer loop
      vertex -5.000000e-001  2.600000e+001  2.000000e+000
      vertex -5.000000e-001  2.600000e+001  5.000000e+001
      vertex -5.000000e-001  7.600000e+001  2.000000e+000
    endloop
  endfacet
  facet normal -1.000000e+000  0.000000e+000  0.000000e+000
    outer loop
      vertex -5.000000e-001  7.600000e+001  2.000000e+000
      vertex -5.000000e-001  2.600000e+001  5.000000e+001
      vertex -5.000000e-001  7.600000e+001  5.000000e+001
    endloop
  endfacet
  facet normal  0.000000e+000  1.000000e+000  0.000000e+000
    outer loop
      vertex -5.000000e-001  2.600000e+001  2.000000e+000
      vertex -1.015000e+002  2.600000e+001  2.000000e+000
      vertex -5.000000e-001  2.600000e+001  5.000000e+001
    endloop
  endfacet
  facet normal  0.000000e+000  1.000000e+000  0.000000e+000
    outer loop
      vertex -5.000000e-001  2.600000e+001  5.000000e+001
      vertex -1.015000e+002  2.600000e+001  2.000000e+000
      vertex -1.015000e+002  2.600000e+001  5.000000e+001
    endloop
  endfacet
  facet normal  1.000000e+000  0.000000e+000  0.000000e+000
    outer loop
      vertex -1.015000e+002  7.600000e+001  2.000000e+000
      vertex -1.015000e+002  7.600000e+001  5.000000e+001
      vertex -1.015000e+002  2.600000e+001  2.000000e+000
    endloop
  endfacet
  facet normal  1.000000e+000  0.000000e+000  0.000000e+000
    outer loop
      vertex -1.015000e+002  2.600000e+001  2.000000e+000
      vertex -1.015000e+002  7.600000e+001  5.000000e+001
      vertex -1.015000e+002  2.600000e+001  5.000000e+001
    endloop
  endfacet
  facet normal  0.000000e+000  0.000000e+000  1.000000e+000
    outer loop
      vertex -1.015000e+002  2.600000e+001  2.000000e+000
      vertex -5.000000e-001  2.600000e+001  2.000000e+000
      vertex -1.015000e+002  7.600000e+001  2.000000e+000
    endloop
  endfacet
  facet normal  -0.000000e+000  0.000000e+000  1.000000e+000
    outer loop
      vertex -1.015000e+002  7.600000e+001  2.000000e+000
      vertex -5.000000e-001  2.600000e+001  2.000000e+000
      vertex -5.000000e-001  7.600000e+001  2.000000e+000
    endloop
  endfacet
  facet normal  0.000000e+000  0.000000e+000 -1.000000e+000
    outer loop
      vertex -1.035000e+002 -7.800000e+001  0.000000e+000
      vertex -1.035000e+002  7.800000e+001  0.000000e+000
      vertex  1.035000e+002 -7.800000e+001  0.000000e+000
    endloop
  endfacet
  facet normal  0.000000e+000  0.000000e+000 -1.000000e+000
    outer loop
      vertex  1.035000e+002 -7.800000e+001  0.000000e+000
      vertex -1.035000e+002  7.800000e+001  0.000000e+000
      vertex  1.035000e+002  7.800000e+001  0.000000e+000
    endloop
  endfacet
  facet normal  9.999999e-001  -0.000000e+000  0.000000e+000
    outer loop
      vertex  1.035000e+002  7.800000e+001  5.000000e+001
      vertex  1.035000e+002 -7.800000e+001  5.000000e+001
      vertex  1.035000e+002  7.800000e+001  0.000000e+000
    endloop
  endfacet
  facet normal  9.999999e-001  0.000000e+000  0.000000e+000
    outer loop
      vertex  1.035000e+002  7.800000e+001  0.000000e+000
      vertex  1.035000e+002 -7.800000e+001  5.000000e+001
      vertex  1.035000e+002 -7.800000e+001  0.000000e+000
    endloop
  endfacet
  facet normal  0.000000e+000 -1.000000e+000  0.000000e+000
    outer loop
      vertex  1.035000e+002 -7.800000e+001  5.000000e+001
      vertex -1.035000e+002 -7.800000e+001  5.000000e+001
      vertex  1.035000e+002 -7.800000e+001  0.000000e+000
    endloop
  endfacet
  facet normal  0.000000e+000 -1.000000e+000  0.000000e+000
    outer loop
      vertex  1.035000e+002 -7.800000e+001  0.000000e+000
      vertex -1.035000e+002 -7.800000e+001  5.000000e+001
      vertex -1.035000e+002 -7.800000e+001  0.000000e+000
    endloop
  endfacet
  facet normal -9.999999e-001  -0.000000e+000  0.000000e+000
    outer loop
      vertex -1.035000e+002 -7.800000e+001  5.000000e+001
      vertex -1.035000e+002  7.800000e+001  5.000000e+001
      vertex -1.035000e+002 -7.800000e+001  0.000000e+000
    endloop
  endfacet
  facet normal -9.999999e-001  0.000000e+000  0.000000e+000
    outer loop
      vertex -1.035000e+002 -7.800000e+001  0.000000e+000
      vertex -1.035000e+002  7.800000e+001  5.000000e+001
      vertex -1.035000e+002  7.800000e+001  0.000000e+000
    endloop
  endfacet
  facet normal  0.000000e+000  1.000000e+000  0.000000e+000
    outer loop
      vertex -1.035000e+002  7.800000e+001  5.000000e+001
      vertex  1.035000e+002  7.800000e+001  5.000000e+001
      vertex -1.035000e+002  7.800000e+001  0.000000e+000
    endloop
  endfacet
  facet normal  0.000000e+000  1.000000e+000  0.000000e+000
    outer loop
      vertex -1.035000e+002  7.800000e+001  0.000000e+000
      vertex  1.035000e+002  7.800000e+001  5.000000e+001
      vertex  1.035000e+002  7.800000e+001  0.000000e+000
    endloop
  endfacet
endsolid CATIA STL
