M48
;FILE_FORMAT=2:4
INCH,LZ
FMAT,2
ICI,OFF
;TYPE=PLATED
T1C.012
T2C.025
T3C.03543
T4C.037
T5C.04724
T6C.07874
%
M72
G90
G93X0Y0
T1C.012F095S3
X012785Y011673
X015015Y013395
X014998Y014179
X014981Y015748
X01533Y018739
X012785Y019466
X013474Y022294
X014055Y022314
X016431Y02289
X01972Y02049
X016312Y017115
X019097Y016503
X015958Y015889
X025161Y012896
X024942Y014024
X02174Y014974
X021124Y017332
X021235Y018134
X027513Y016332
X027235Y013773
X027925Y013762
X027836Y013498
X026518Y013152
X02785Y012534
X028524Y011655
X029186Y011661
X030119Y011822
X028823Y013823
T2C.025F197S55
X024002Y012432
X021393Y018901
X024046Y018901
X028059Y018982
X03004Y017592
X029239Y017571
X029703Y017139
X030036Y015552
X03003Y015018
X032494Y01558
X030861Y015801
X032254Y016204
X031588Y016633
X032194Y017371
X031593Y017597
X032473Y018266
X031641Y018361
X032342Y019156
X031588Y019204
T3C.03543F197S55
X0148Y021701
X011472Y021736
X012472Y021736
X014824Y024327
X017824Y024327
X016824Y024327
X015824Y024327
X0178Y021701
X0168Y021701
X0158Y021701
X024511Y010805
X026511Y010805
X025511Y010805
X027511Y010805
X029511Y010805
X028511Y010805
X030511Y010805
T4C.037F197S55
X012503Y010457
X011643Y013108
X010503Y014457
X011503Y015457
X011503Y016457
X010651Y018136
X010503Y021457
X010503Y022457
X010503Y023457
X012387Y023743
X01295Y024686
X016503Y023457
X015503Y020457
X015249Y017938
X017299Y017673
X01548Y016945
X015596Y015556
X017382Y015176
X017159Y012413
X016027Y012362
X01476Y012354
X013433Y012314
X018418Y012379
X018804Y015114
X018771Y017508
X019502Y022518
X018503Y023457
X019863Y025
X023766Y02017
X021021Y019625
X02464Y016178
X02422Y015254
X020955Y012083
X022311Y010842
X026473Y014608
X026694Y016284
X028835Y020889
X029929Y020951
X027471Y021146
X02809Y022237
X029951Y022253
X029063Y022338
X031738Y023462
X031705Y021874
X031503Y013457
X032503Y013457
X031325Y011984
T5C.04724F139S55
X020004Y023489
X022004Y023489
X024004Y023489
X026004Y023489
X028004Y023489
X030004Y023489
T6C.07874F081S55
X010989Y010983
X010989Y024763
X032248Y024763
X032248Y010983
M30
