*
*
G04 PADS VX.2.3 Build Number: 9191294 generated Gerber (RS-274-X) file*
G04 PC Version=2.1*
*
%IN "LockBase_ZM_V1.1_201808"*%
*
%MOIN*%
*
%FSLAX35Y35*%
*
*
*
*
G04 PC Standard Apertures*
*
*
G04 Thermal Relief Aperture macro.*
%AMTER*
1,1,$1,0,0*
1,0,$1-$2,0,0*
21,0,$3,$4,0,0,45*
21,0,$3,$4,0,0,135*
%
*
*
G04 Annular Aperture macro.*
%AMANN*
1,1,$1,0,0*
1,0,$2,0,0*
%
*
*
G04 Odd Aperture macro.*
%AMODD*
1,1,$1,0,0*
1,0,$1-0.005,0,0*
%
*
*
G04 PC Custom Aperture Macros*
*
*
*
*
*
*
G04 PC Aperture Table*
*
%ADD010C,0.001*%
%ADD033C,0.01*%
%ADD036C,0.005*%
%ADD037C,0.006*%
*
*
*
*
G04 PC Circuitry*
G04 Layer Name LockBase_ZM_V1.1_201808 - circuitry*
%LPD*%
*
*
G04 PC Custom Flashes*
G04 Layer Name LockBase_ZM_V1.1_201808 - flashes*
%LPD*%
*
*
G04 PC Circuitry*
G04 Layer Name LockBase_ZM_V1.1_201808 - circuitry*
%LPD*%
*
G54D10*
G54D33*
G01X238913Y113854D02*
X311790D01*
Y102154*
X238913*
Y113854*
X226094Y179026D02*
X223594D01*
Y174026*
X232094Y179026D02*
X234594D01*
Y174026*
X228594Y170026D02*
X229594D01*
X246360Y167642D02*
Y192542D01*
X257560*
Y167642*
X246360*
X309883Y214421D02*
X190198D01*
Y255760*
X309883*
Y214421*
X187850Y233427D02*
X138638D01*
Y256655*
X187850*
Y233427*
X166244Y233669D02*
X160444D01*
Y235269*
X166244*
Y233669*
X203289Y196168D02*
X195415D01*
X203289D02*
Y193018D01*
X148171Y196168D02*
X140297D01*
Y193018*
X203289Y101680D02*
Y126089D01*
X140297Y101680D02*
Y126089D01*
Y101680D02*
X203289D01*
X284689Y167411D02*
X282689D01*
X281676Y169311*
Y183159*
X284289*
X304383D02*
X305302D01*
Y167411*
X304176*
X311338Y126942D02*
Y152242D01*
X322938*
Y126942*
X311338*
X134560Y207517D02*
X105033D01*
Y230745*
X134560*
Y207517*
X122318Y207860D02*
X116518D01*
Y209560*
X122318*
Y207860*
X187609Y207165D02*
X138396D01*
Y230394*
X187609*
Y207165*
X166003Y207408D02*
X160203D01*
Y209008*
X166003*
Y207408*
X242317Y206279D02*
X268717D01*
Y195579*
X242317*
Y206279*
X253817Y204329D02*
X257217Y200929D01*
X253817Y197079*
Y204329*
X257617Y204679D02*
Y197079D01*
X279298Y129642D02*
X276798D01*
Y124642*
X285298Y129642D02*
X287798D01*
Y124642*
X281798Y120642D02*
X282798D01*
X294442Y129736D02*
X291942D01*
Y124736*
X300442Y129736D02*
X302942D01*
Y124736*
X296942Y120736D02*
X297942D01*
X132322Y154394D02*
X117755D01*
X132322Y130764D02*
X117755D01*
X132322Y154394D02*
Y130772D01*
X117755Y154394D02*
Y130772D01*
X101932Y130878D02*
X116499D01*
X101932Y154508D02*
X116499D01*
X101932Y130878D02*
Y154500D01*
X116499Y130878D02*
Y154500D01*
G54D36*
X236001Y119297D02*
G75*
G03Y123627I-2033J2165D01*
G01X226158*
G03Y119297I1916J-2165*
G01Y119296D02*
X236001Y119297D01*
X233576Y154368D02*
G03Y158698I-2033J2165D01*
G01X223733*
X223732D02*
G03Y154368I1916J-2165D01*
G01X223733Y154367D02*
X233576Y154368D01*
X275204Y190993D02*
G03X270874I-2165J-2033D01*
G01X270873Y181150*
X270874D02*
G03X275204I2165J1915D01*
G01X275205D02*
X275204Y190993D01*
X261455Y149832D02*
G03Y154162I-2033J2165D01*
G01X251612Y154163*
G03Y149832I1915J-2166*
G01X261455Y149833*
X251597Y160907D02*
G03Y156577I2033J-2165D01*
G01X251596D02*
X261439Y156576D01*
X261440Y156577D02*
G03Y160907I-1916J2165D01*
G01X261439D02*
X251596D01*
X301574Y141687D02*
G03X305904I2165J2033D01*
G01Y151530*
G03X301574I-2165J-1916*
G01X301573D02*
X301574Y141687D01*
X113201Y181392D02*
G03Y177062I2033J-2165D01*
G01X123044Y177061*
Y177062D02*
G03Y181392I-1915J2165D01*
G01Y181393D02*
X113201Y181392D01*
X295063Y141742D02*
G03X299393I2165J2033D01*
G01X299394Y151585*
G03X295063I-2166J-1916*
G01X295064Y141742*
X309825Y193903D02*
G03Y198233I-2033J2165D01*
G01X299982Y198234*
Y198233D02*
G03Y193903I1915J-2165D01*
G01X309825*
X288301Y193793D02*
G03Y198123I-2033J2165D01*
G01X288302D02*
X278459Y198124D01*
X278458Y198123D02*
G03Y193793I1916J-2165D01*
G01X278459Y193792D02*
X288302Y193793D01*
X240203Y130447D02*
Y127822D01*
Y130447D02*
X241022D01*
X241294Y130322*
X241385Y130197*
X241476Y129947*
Y129697*
X241385Y129447*
X241294Y129322*
X241022Y129197*
X240203*
X240840D02*
X241476Y127822D01*
X242294Y129947D02*
X242476Y130072D01*
X242749Y130447*
Y127822*
X244476Y130447D02*
X243567Y128697D01*
X244931*
X244476Y130447D02*
Y127822D01*
X260957Y140488D02*
X258332D01*
X260957D02*
Y139670D01*
X260957D02*
X260832Y139397D01*
X260707Y139306*
X260457Y139215*
X260207*
X259957Y139306*
X259832Y139397*
X259707Y139670*
X259707D02*
Y140488D01*
Y139851D02*
X258332Y139215D01*
X260957Y138215D02*
Y137215D01*
X259957Y137760*
Y137488*
X259832Y137306*
X259707Y137215*
X259332Y137124*
X259082*
X258707Y137215*
X258457Y137397*
X258332Y137670*
X258332D02*
Y137942D01*
X258457Y138215*
X258582Y138306*
X258832Y138397*
X271255Y139811D02*
X268630D01*
X271255D02*
Y138993D01*
X271130Y138720*
X271005Y138629*
X270755Y138538*
X270505*
X270255Y138629*
X270130Y138720*
X270005Y138993*
Y139811*
Y139174D02*
X268630Y138538D01*
X271255Y136811D02*
X269505Y137720D01*
Y136356*
X271255Y136811D02*
X268630D01*
X240387Y147158D02*
Y144533D01*
Y147158D02*
X241205D01*
X241478Y147033*
X241569Y146908*
X241660Y146658*
Y146408*
X241569Y146158*
X241478Y146033*
X241205Y145908*
X240387*
X241024D02*
X241660Y144533D01*
X242569Y146533D02*
Y146658D01*
X242660Y146908*
X242751Y147033*
X242933Y147158*
X243296*
X243478Y147033*
X243569Y146908*
X243660Y146658*
Y146408*
X243569Y146158*
X243387Y145783*
X242478Y144533*
X243751*
X241040Y122451D02*
X240949Y122701D01*
X240767Y122951*
X240585Y123076*
X240222*
X240040Y122951*
X239858Y122701*
X239767Y122451*
X239676Y122076*
Y121451*
X239767Y121076*
X239858Y120826*
X240040Y120576*
X240222Y120451*
X240585*
X240767Y120576*
X240949Y120826*
X241040Y121076*
X241858Y122576D02*
X242040Y122701D01*
X242313Y123076*
Y120451*
X239158Y113800D02*
Y111175D01*
Y113800D02*
X239976D01*
X240249Y113675*
X240340Y113550*
X240431Y113300*
Y113050*
X240340Y112800*
X240249Y112675*
X239976Y112550*
X239158*
X239794D02*
X240431Y111175D01*
X241249Y113300D02*
X241431Y113425D01*
X241704Y113800*
Y111175*
X234474Y104959D02*
Y102959D01*
X234383Y102584*
X234292Y102459*
X234110Y102334*
X233928*
X233746Y102459*
X233655Y102584*
X233565Y102959*
Y103209*
X236383Y104584D02*
X236292Y104834D01*
X236019Y104959*
X235837*
X235565Y104834*
X235383Y104459*
X235292Y103834*
Y103209*
X235383Y102709*
X235565Y102459*
X235837Y102334*
X235928*
X236201Y102459*
X236383Y102709*
X236474Y103084*
Y103209*
X236383Y103584*
X236201Y103834*
X235928Y103959*
X235837*
X235565Y103834*
X235383Y103584*
X235292Y103209*
X218929Y160081D02*
X216304D01*
X218929D02*
Y159262D01*
X218804Y158990*
X218679Y158899*
X218429Y158808*
X218179*
X217929Y158899*
X217804Y158990*
X217679Y159262*
Y160081*
Y159444D02*
X216304Y158808D01*
X218429Y157990D02*
X218554Y157808D01*
X218929Y157535*
X216304*
X218429Y156717D02*
X218554Y156535D01*
X218929Y156262*
X216304*
X237368Y157483D02*
X237277Y157733D01*
X237095Y157983*
X236913Y158108*
X236549*
X236368Y157983*
X236186Y157733*
X236095Y157483*
X236004Y157108*
Y156483*
X236095Y156108*
X236186Y155858*
X236368Y155608*
X236549Y155483*
X236913*
X237095Y155608*
X237277Y155858*
X237368Y156108*
X238186Y157608D02*
X238368Y157733D01*
X238640Y158108*
Y155483*
X239549Y157483D02*
Y157608D01*
X239640Y157858*
X239731Y157983*
X239913Y158108*
X240277*
X240458Y157983*
X240549Y157858*
X240640Y157608*
Y157358*
X240549Y157108*
X240368Y156733*
X239458Y155483*
X240731*
X236424Y166506D02*
Y163881D01*
Y166506D02*
X237242D01*
X237515Y166381*
X237606Y166256*
X237697Y166006*
Y165756*
X237606Y165506*
X237515Y165381*
X237242Y165256*
X236424*
X237060D02*
X237697Y163881D01*
X238515Y166006D02*
X238697Y166131D01*
X238969Y166506*
Y163881*
X239878Y165881D02*
Y166006D01*
X239969Y166256*
X240060Y166381*
X240242Y166506*
X240606*
X240788Y166381*
X240878Y166256*
X240969Y166006*
Y165756*
X240878Y165506*
X240697Y165131*
X239788Y163881*
X241060*
X225861Y186912D02*
X225680Y186787D01*
X225498Y186537*
X225407Y186287*
X225316Y185912*
Y185287*
X225407Y184912*
X225498Y184662*
X225680Y184412*
X225861Y184287*
X226225*
X226407Y184412*
X226589Y184662*
X226680Y184912*
X226771Y185287*
Y185912*
X226680Y186287*
X226589Y186537*
X226407Y186787*
X226225Y186912*
X225861*
X226134Y184787D02*
X226680Y184037D01*
X227589Y186412D02*
X227771Y186537D01*
X228043Y186912*
Y184287*
X250026Y165575D02*
Y163700D01*
X250117Y163325*
X250299Y163075*
X250572Y162950*
X250754*
X251026Y163075*
X251208Y163325*
X251299Y163700*
Y165575*
X252208Y164950D02*
Y165075D01*
X252299Y165325*
X252390Y165450*
X252572Y165575*
X252935*
X253117Y165450*
X253208Y165325*
X253299Y165075*
Y164825*
X253208Y164575*
X253026Y164200*
X252117Y162950*
X253390*
X272252Y176757D02*
X272002Y176666D01*
X271752Y176485*
X271627Y176303*
Y175939*
X271752Y175757*
X272002Y175576*
X272252Y175485*
X272627Y175394*
X273252*
X273627Y175485*
X273877Y175576*
X274127Y175757*
X274252Y175939*
Y176303*
X274127Y176485*
X273877Y176666*
X273627Y176757*
X272502Y178757D02*
X272877Y178666D01*
X273127Y178485*
X273252Y178212*
Y178121*
X273127Y177848*
X272877Y177666*
X272502Y177576*
X272377*
X272002Y177666*
X271752Y177848*
X271627Y178121*
Y178212*
X271752Y178485*
X272002Y178666*
X272502Y178757*
X273127*
X273752Y178666*
X274127Y178485*
X274252Y178212*
Y178030*
X274127Y177757*
X273877Y177666*
X265991Y153018D02*
X265900Y153268D01*
X265718Y153518*
X265536Y153643*
X265173*
X264991Y153518*
X264809Y153268*
X264718Y153018*
X264627Y152643*
Y152018*
X264718Y151643*
X264809Y151393*
X264991Y151143*
X265173Y151018*
X265536*
X265718Y151143*
X265900Y151393*
X265991Y151643*
X266809Y153143D02*
X266991Y153268D01*
X267264Y153643*
Y151018*
X268627Y153643D02*
X268355Y153518D01*
X268173Y153143*
X268082Y152518*
Y152143*
X268173Y151518*
X268355Y151143*
X268627Y151018*
X268809*
X269082Y151143*
X269264Y151518*
X269355Y152143*
Y152518*
X269264Y153143*
X269082Y153518*
X268809Y153643*
X268627*
X265886Y158896D02*
X265795Y159146D01*
X265613Y159396*
X265431Y159521*
X265068*
X264886Y159396*
X264704Y159146*
X264613Y158896*
X264522Y158521*
Y157896*
X264613Y157521*
X264704Y157271*
X264886Y157021*
X265068Y156896*
X265431*
X265613Y157021*
X265795Y157271*
X265886Y157521*
X266704Y159021D02*
X266886Y159146D01*
X267159Y159521*
Y156896*
X267977Y159021D02*
X268159Y159146D01*
X268431Y159521*
Y156896*
X192403Y212558D02*
Y210558D01*
X192312Y210183*
X192221Y210058*
X192039Y209933*
X191857*
X191675Y210058*
X191584Y210183*
X191493Y210558*
Y210808*
X193312Y211933D02*
Y212058D01*
X193403Y212308*
X193493Y212433*
X193675Y212558*
X194039*
X194221Y212433*
X194312Y212308*
X194403Y212058*
Y211808*
X194312Y211558*
X194130Y211183*
X193221Y209933*
X194493*
X305253Y137569D02*
X305503Y137660D01*
X305753Y137842*
X305878Y138024*
Y138388*
X305753Y138569*
X305503Y138751*
X305253Y138842*
X304878Y138933*
X304253*
X303878Y138842*
X303628Y138751*
X303378Y138569*
X303253Y138388*
Y138024*
X303378Y137842*
X303628Y137660*
X303878Y137569*
X305878Y136569D02*
Y135569D01*
X304878Y136115*
Y135842*
X304753Y135660*
X304628Y135569*
X304253Y135479*
X304003*
X303628Y135569*
X303378Y135751*
X303253Y136024*
Y136297*
X303378Y136569*
X303503Y136660*
X303753Y136751*
X135762Y237234D02*
Y235234D01*
X135671Y234859*
X135580Y234734*
X135398Y234609*
X135217*
X135035Y234734*
X134944Y234859*
X134853Y235234*
Y235484*
X136580Y236734D02*
X136762Y236859D01*
X137035Y237234*
Y234609*
X139770Y201345D02*
Y199470D01*
X139861Y199095*
X140043Y198845*
X140316Y198720*
X140498*
X140770Y198845*
X140952Y199095*
X141043Y199470*
Y201345*
X141861Y200845D02*
X142043Y200970D01*
X142316Y201345*
Y198720*
X126585Y198062D02*
Y195437D01*
Y198062D02*
X127403D01*
X127676Y197937*
X127767Y197812*
X127858Y197562*
Y197312*
X127767Y197062*
X127676Y196937*
X127403Y196812*
X126585*
X127222D02*
X127858Y195437D01*
X129858Y198062D02*
X128949D01*
X128858Y196937*
X128949Y197062*
X129222Y197187*
X129494*
X129767Y197062*
X129949Y196812*
X130040Y196437*
X129949Y196187*
X129858Y195812*
X129676Y195562*
X129403Y195437*
X129131*
X128858Y195562*
X128767Y195687*
X128676Y195937*
X126604Y180699D02*
X126513Y180949D01*
X126331Y181199*
X126149Y181324*
X125786*
X125604Y181199*
X125422Y180949*
X125331Y180699*
X125240Y180324*
Y179699*
X125331Y179324*
X125422Y179074*
X125604Y178824*
X125786Y178699*
X126149*
X126331Y178824*
X126513Y179074*
X126604Y179324*
X127513Y180699D02*
Y180824D01*
X127604Y181074*
X127695Y181199*
X127877Y181324*
X128240*
X128422Y181199*
X128513Y181074*
X128604Y180824*
Y180574*
X128513Y180324*
X128331Y179949*
X127422Y178699*
X128695*
X309931Y177685D02*
X308056D01*
X307681Y177594*
X307431Y177412*
X307306Y177140*
Y176958*
X307431Y176685*
X307681Y176503*
X308056Y176412*
X309931*
Y174685D02*
X308181Y175594D01*
Y174230*
X309931Y174685D02*
X307306D01*
X279718Y157580D02*
X277093D01*
X279718D02*
Y156762D01*
X279593Y156489*
X279468Y156398*
X279218Y156307*
X278968*
X278718Y156398*
X278593Y156489*
X278468Y156762*
Y157580*
Y156944D02*
X277093Y156307D01*
X279343Y154398D02*
X279593Y154489D01*
X279718Y154762*
Y154944*
X279593Y155216*
X279218Y155398*
X278593Y155489*
X277968*
X277468Y155398*
X277218Y155216*
X277093Y154944*
Y154853*
X277218Y154580*
X277468Y154398*
X277843Y154307*
X277968*
X278343Y154398*
X278593Y154580*
X278718Y154853*
Y154944*
X278593Y155216*
X278343Y155398*
X277968Y155489*
X298097Y138237D02*
X298347Y138328D01*
X298597Y138510*
X298722Y138692*
Y139056*
X298597Y139237*
X298347Y139419*
X298097Y139510*
X297722Y139601*
X297097*
X296722Y139510*
X296472Y139419*
X296222Y139237*
X296097Y139056*
Y138692*
X296222Y138510*
X296472Y138328*
X296722Y138237*
X298722Y136237D02*
Y137147D01*
X297597Y137237*
X297722Y137147*
X297847Y136874*
Y136601*
X297722Y136328*
X297472Y136147*
X297097Y136056*
X296847Y136147*
X296472Y136237*
X296222Y136419*
X296097Y136692*
Y136965*
X296222Y137237*
X296347Y137328*
X296597Y137419*
X288055Y156928D02*
X285430D01*
X288055D02*
Y156110D01*
X287930Y155837*
X287805Y155746*
X287555Y155655*
X287305*
X287055Y155746*
X286930Y155837*
X286805Y156110*
Y156928*
Y156291D02*
X285430Y155655D01*
X288055Y153564D02*
X285430Y154473D01*
X288055Y154837D02*
Y153564D01*
X313398Y196749D02*
X313307Y196999D01*
X313125Y197249*
X312943Y197374*
X312580*
X312398Y197249*
X312216Y196999*
X312125Y196749*
X312034Y196374*
Y195749*
X312125Y195374*
X312216Y195124*
X312398Y194874*
X312580Y194749*
X312943*
X313125Y194874*
X313307Y195124*
X313398Y195374*
X315125Y197374D02*
X314216Y195624D01*
X315580*
X315125Y197374D02*
Y194749D01*
X273932Y196394D02*
X273841Y196644D01*
X273659Y196894*
X273477Y197019*
X273114*
X272932Y196894*
X272750Y196644*
X272659Y196394*
X272568Y196019*
Y195394*
X272659Y195019*
X272750Y194769*
X272932Y194519*
X273114Y194394*
X273477*
X273659Y194519*
X273841Y194769*
X273932Y195019*
X275841Y196644D02*
X275750Y196894D01*
X275477Y197019*
X275296*
X275023Y196894*
X274841Y196519*
X274750Y195894*
Y195269*
X274841Y194769*
X275023Y194519*
X275296Y194394*
X275386*
X275659Y194519*
X275841Y194769*
X275932Y195144*
Y195269*
X275841Y195644*
X275659Y195894*
X275386Y196019*
X275296*
X275023Y195894*
X274841Y195644*
X274750Y195269*
X315083Y157835D02*
Y155210D01*
Y157835D02*
X315901D01*
X316174Y157710*
X316264Y157585*
X316355Y157335*
Y157085*
X316264Y156835*
X316174Y156710*
X315901Y156585*
X315083*
X315719D02*
X316355Y155210D01*
X317628Y157835D02*
X317355Y157710D01*
X317264Y157460*
Y157210*
X317355Y156960*
X317537Y156835*
X317901Y156710*
X318174Y156585*
X318355Y156335*
X318446Y156085*
Y155710*
X318355Y155460*
X318264Y155335*
X317992Y155210*
X317628*
X317355Y155335*
X317264Y155460*
X317174Y155710*
Y156085*
X317264Y156335*
X317446Y156585*
X317719Y156710*
X318083Y156835*
X318264Y156960*
X318355Y157210*
Y157460*
X318264Y157710*
X317992Y157835*
X317628*
X126424Y189343D02*
Y186718D01*
Y189343D02*
X127242D01*
X127515Y189218*
X127606Y189093*
X127697Y188843*
Y188593*
X127606Y188343*
X127515Y188218*
X127242Y188093*
X126424*
X127060D02*
X127697Y186718D01*
X128515Y188843D02*
X128697Y188968D01*
X128969Y189343*
Y186718*
X130333Y189343D02*
X130060Y189218D01*
X129878Y188843*
X129788Y188218*
Y187843*
X129878Y187218*
X130060Y186843*
X130333Y186718*
X130515*
X130788Y186843*
X130969Y187218*
X131060Y187843*
Y188218*
X130969Y188843*
X130788Y189218*
X130515Y189343*
X130333*
X129876Y206221D02*
Y204221D01*
X129785Y203846*
X129694Y203721*
X129513Y203596*
X129331*
X129149Y203721*
X129058Y203846*
X128967Y204221*
Y204471*
X130876Y206221D02*
X131876D01*
X131331Y205221*
X131604*
X131785Y205096*
X131876Y204971*
X131967Y204596*
Y204346*
X131876Y203971*
X131694Y203721*
X131422Y203596*
X131149*
X130876Y203721*
X130785Y203846*
X130694Y204096*
X240600Y139345D02*
Y136720D01*
Y139345D02*
X241418D01*
X241691Y139220*
X241782Y139095*
X241872Y138845*
Y138595*
X241782Y138345*
X241691Y138220*
X241418Y138095*
X240600*
X241236D02*
X241872Y136720D01*
X242691Y138845D02*
X242872Y138970D01*
X243145Y139345*
Y136720*
X244145Y139345D02*
X245145D01*
X244600Y138345*
X244872*
X245054Y138220*
X245145Y138095*
X245236Y137720*
Y137470*
X245145Y137095*
X244963Y136845*
X244691Y136720*
X244418*
X244145Y136845*
X244054Y136970*
X243963Y137220*
X139170Y205460D02*
Y203460D01*
X139079Y203085*
X138988Y202960*
X138807Y202835*
X138625*
X138443Y202960*
X138352Y203085*
X138261Y203460*
Y203710*
X141170Y205460D02*
X140261D01*
X140170Y204335*
X140261Y204460*
X140534Y204585*
X140807*
X141079Y204460*
X141261Y204210*
X141352Y203835*
X141261Y203585*
X141170Y203210*
X140988Y202960*
X140716Y202835*
X140443*
X140170Y202960*
X140079Y203085*
X139988Y203335*
X236825Y208163D02*
Y205538D01*
Y208163D02*
X237462D01*
X237735Y208038*
X237916Y207788*
X238007Y207538*
X238098Y207163*
Y206538*
X238007Y206163*
X237916Y205913*
X237735Y205663*
X237462Y205538*
X236825*
X239825Y208163D02*
X238916Y206413D01*
X240280*
X239825Y208163D02*
Y205538D01*
X276717Y134301D02*
X276536Y134176D01*
X276354Y133926*
X276263Y133676*
X276172Y133301*
Y132676*
X276263Y132301*
X276354Y132051*
X276536Y131801*
X276717Y131676*
X277081*
X277263Y131801*
X277445Y132051*
X277536Y132301*
X277626Y132676*
Y133301*
X277536Y133676*
X277445Y133926*
X277263Y134176*
X277081Y134301*
X276717*
X276990Y132176D02*
X277536Y131426D01*
X278536Y133676D02*
Y133801D01*
X278626Y134051*
X278717Y134176*
X278899Y134301*
X279263*
X279445Y134176*
X279536Y134051*
X279626Y133801*
Y133551*
X279536Y133301*
X279354Y132926*
X278445Y131676*
X279717*
X301863Y134393D02*
X301681Y134268D01*
X301499Y134018*
X301408Y133768*
X301318Y133393*
Y132768*
X301408Y132393*
X301499Y132143*
X301681Y131893*
X301863Y131768*
X302227*
X302408Y131893*
X302590Y132143*
X302681Y132393*
X302772Y132768*
Y133393*
X302681Y133768*
X302590Y134018*
X302408Y134268*
X302227Y134393*
X301863*
X302136Y132268D02*
X302681Y131518D01*
X303772Y134393D02*
X304772D01*
X304227Y133393*
X304499*
X304681Y133268*
X304772Y133143*
X304863Y132768*
Y132518*
X304772Y132143*
X304590Y131893*
X304318Y131768*
X304045*
X303772Y131893*
X303681Y132018*
X303590Y132268*
X124980Y159435D02*
X124798Y159685D01*
X124526Y159810*
X124162*
X123889Y159685*
X123707Y159435*
Y159185*
X123798Y158935*
X123889Y158810*
X124071Y158685*
X124616Y158435*
X124798Y158310*
X124889Y158185*
X124980Y157935*
Y157560*
X124798Y157310*
X124526Y157185*
X124162*
X123889Y157310*
X123707Y157560*
X125798Y159310D02*
X125980Y159435D01*
X126253Y159810*
Y157185*
G54D37*
X226091Y131427D02*
Y125427D01*
X238091*
Y131427*
X226091*
X263554Y134412D02*
X257554D01*
Y122412*
X263554*
Y134412*
X272879Y134345D02*
X266879D01*
Y122345*
X272879*
Y134345*
X238031Y142785D02*
Y148785D01*
X226031*
Y142785*
X238031*
X237092Y110225D02*
Y116225D01*
X225092*
Y110225*
X237092*
X215308Y162770D02*
X221308D01*
Y174770*
X215308*
Y162770*
X234447Y161671D02*
Y167671D01*
X222447*
Y161671*
X234447*
X124126Y193546D02*
Y199546D01*
X112126*
Y193546*
X124126*
X276256Y139508D02*
X282256D01*
Y151508*
X276256*
Y139508*
X285073Y139801D02*
X291073D01*
Y151801*
X285073*
Y139801*
X124198Y184684D02*
Y190684D01*
X112198*
Y184684*
X124198*
X238008Y134996D02*
Y140996D01*
X226008*
Y134996*
X238008*
G74*
X0Y0D02*
M02*
