%FSLAX25Y25*%
%MOIN*%
G70*
G01*
G75*
%ADD10R,0.02756X0.03347*%
%ADD11C,0.01000*%
%ADD12C,0.00500*%
%ADD13O,0.04724X0.06299*%
%ADD14R,0.04724X0.06299*%
%ADD15O,0.06299X0.04724*%
%ADD16R,0.06299X0.04724*%
%ADD17R,0.05906X0.05906*%
%ADD18C,0.05906*%
%ADD19C,0.02000*%
%ADD20C,0.00787*%
D11*
X39500Y-16500D02*
Y-10502D01*
X42499D01*
X43499Y-11502D01*
Y-13501D01*
X42499Y-14501D01*
X39500D01*
X49497Y-16500D02*
X45498D01*
X49497Y-12501D01*
Y-11502D01*
X48497Y-10502D01*
X46498D01*
X45498Y-11502D01*
X81000Y-31500D02*
Y-25502D01*
X83999D01*
X84999Y-26502D01*
Y-28501D01*
X83999Y-29501D01*
X81000D01*
X82999D02*
X84999Y-31500D01*
X90997Y-25502D02*
X88997Y-26502D01*
X86998Y-28501D01*
Y-30500D01*
X87998Y-31500D01*
X89997D01*
X90997Y-30500D01*
Y-29501D01*
X89997Y-28501D01*
X86998D01*
X81500Y-39500D02*
Y-33502D01*
X84499D01*
X85499Y-34502D01*
Y-36501D01*
X84499Y-37501D01*
X81500D01*
X83499D02*
X85499Y-39500D01*
X87498D02*
X89497D01*
X88498D01*
Y-33502D01*
X87498Y-34502D01*
X91000Y-84000D02*
Y-78002D01*
X93999D01*
X94999Y-79002D01*
Y-81001D01*
X93999Y-82001D01*
X91000D01*
X96998Y-84000D02*
X98997D01*
X97998D01*
Y-78002D01*
X96998Y-79002D01*
X80500Y-58500D02*
Y-52502D01*
X83499D01*
X84499Y-53502D01*
Y-55501D01*
X83499Y-56501D01*
X80500D01*
X82499D02*
X84499Y-58500D01*
X90497D02*
X86498D01*
X90497Y-54501D01*
Y-53502D01*
X89497Y-52502D01*
X87498D01*
X86498Y-53502D01*
X17500Y-83000D02*
Y-77002D01*
X20499D01*
X21499Y-78002D01*
Y-80001D01*
X20499Y-81001D01*
X17500D01*
X23498Y-78002D02*
X24498Y-77002D01*
X26497D01*
X27497Y-78002D01*
Y-79001D01*
X26497Y-80001D01*
X25497D01*
X26497D01*
X27497Y-81001D01*
Y-82000D01*
X26497Y-83000D01*
X24498D01*
X23498Y-82000D01*
X80500Y-48500D02*
Y-42502D01*
X83499D01*
X84499Y-43502D01*
Y-45501D01*
X83499Y-46501D01*
X80500D01*
X82499D02*
X84499Y-48500D01*
X86498Y-43502D02*
X87498Y-42502D01*
X89497D01*
X90497Y-43502D01*
Y-44501D01*
X89497Y-45501D01*
X88497D01*
X89497D01*
X90497Y-46501D01*
Y-47500D01*
X89497Y-48500D01*
X87498D01*
X86498Y-47500D01*
X109150Y-31650D02*
Y-25652D01*
X112149D01*
X113149Y-26652D01*
Y-28651D01*
X112149Y-29651D01*
X109150D01*
X118147Y-31650D02*
Y-25652D01*
X115148Y-28651D01*
X119147D01*
D12*
X56300Y-4386D02*
X87571D01*
Y-23283D02*
Y-4386D01*
X56300Y-23283D02*
X87571D01*
X56300Y-20700D02*
X87571Y-20724D01*
X68100Y-20600D02*
Y-4261D01*
X56300Y-23283D02*
Y-4386D01*
X66031Y-29835D02*
X75874D01*
X66031Y-34165D02*
X75874D01*
X66031D02*
Y-29835D01*
X75874Y-34165D02*
Y-29835D01*
X66031Y-37501D02*
X75874D01*
X66031Y-41832D02*
X75874D01*
X66031D02*
Y-37501D01*
X75874Y-41832D02*
Y-37501D01*
X55429Y-89614D02*
X86700D01*
X55429D02*
Y-70717D01*
X86700D01*
X55429Y-73276D02*
X86700Y-73300D01*
X74900Y-89739D02*
Y-73400D01*
X86700Y-89614D02*
Y-70717D01*
X66031Y-57165D02*
X75874D01*
X66031Y-52835D02*
X75874D01*
Y-57165D02*
Y-52835D01*
X66031Y-57165D02*
Y-52835D01*
X32783Y-71567D02*
Y-23929D01*
X13886D02*
X32783D01*
X13886Y-71567D02*
Y-23929D01*
Y-71567D02*
X32783D01*
X30224D02*
Y-23929D01*
X13886Y-35937D02*
X30224D01*
X66031Y-49499D02*
X75874D01*
X66031Y-45168D02*
X75874D01*
Y-49499D02*
Y-45168D01*
X66031Y-49499D02*
Y-45168D01*
X97166Y-58668D02*
X96499Y-58001D01*
X95166D01*
X94500Y-58668D01*
Y-61334D01*
X95166Y-62000D01*
X96499D01*
X97166Y-61334D01*
Y-60001D01*
X95833D01*
X98499Y-62000D02*
Y-58001D01*
X101164Y-62000D01*
Y-58001D01*
X102497D02*
Y-62000D01*
X104497D01*
X105163Y-61334D01*
Y-58668D01*
X104497Y-58001D01*
X102497D01*
X95000Y-47501D02*
X97666D01*
X96333D01*
Y-51500D01*
X98999Y-47501D02*
X101664Y-51500D01*
Y-47501D02*
X98999Y-51500D01*
X102997Y-47501D02*
Y-51500D01*
X104997D01*
X105663Y-50834D01*
Y-48168D01*
X104997Y-47501D01*
X102997D01*
X95000Y-41500D02*
Y-37501D01*
X96999D01*
X97666Y-38168D01*
Y-39501D01*
X96999Y-40167D01*
X95000D01*
X96333D02*
X97666Y-41500D01*
X98999Y-37501D02*
X101664Y-41500D01*
Y-37501D02*
X98999Y-41500D01*
X102997Y-37501D02*
Y-41500D01*
X104997D01*
X105663Y-40834D01*
Y-38168D01*
X104997Y-37501D01*
X102997D01*
X0Y0D02*
X125984D01*
X0Y-94488D02*
Y0D01*
Y-94488D02*
X125984D01*
Y0D01*
D20*
X118500Y-65000D02*
Y-35000D01*
X108500D02*
X118500D01*
X108500Y-65000D02*
Y-35000D01*
Y-65000D02*
X118500D01*
M02*
