M48
;Layer_Color=9474304
;FILE_FORMAT=2:5
INCH,LZ
;TYPE=PLATED
T1F00S00C0.01200
T2F00S00C0.03150
T3F00S00C0.03543
%
T01
X00565Y-0055
X0068Y-006
X008
X00785Y-00475
X0078Y-0032
X00565
T02
X00255Y-0063496
Y-0055622
Y-0047748
Y-0039874
X00635Y-0078
X0071374
X0079248
X0079248Y-0085874
X0071374
X00635
X0063752Y-0016
X0071626
X00795
Y-0008126
X0071626
X0063752
X00255Y-0032
T03
X01135Y-006
Y-005
Y-004
M30
