%FSLAX25Y25*%
%MOIN*%
G70*
G01*
G75*
G04 Layer_Physical_Order=3*
G04 Layer_Color=36540*
%ADD10C,0.02000*%
%ADD11C,0.03000*%
%ADD12R,0.01575X0.01181*%
%ADD13R,0.01181X0.01575*%
%ADD14O,0.05906X0.03150*%
%ADD15R,0.07087X0.03937*%
%ADD16C,0.03937*%
%ADD17R,0.02756X0.03347*%
%ADD18R,0.03347X0.02756*%
%ADD19R,0.03937X0.05906*%
%ADD20R,0.04724X0.03150*%
%ADD21R,0.02500X0.05906*%
%ADD22R,0.04803X0.02441*%
%ADD23R,0.04800X0.05600*%
%ADD24R,0.07480X0.11811*%
%ADD25O,0.06890X0.02362*%
%ADD26R,0.03937X0.05118*%
%ADD27R,0.08898X0.25590*%
%ADD28R,0.03937X0.02362*%
%ADD29R,0.04724X0.09843*%
%ADD30O,0.03937X0.01181*%
%ADD31R,0.03937X0.01181*%
%ADD32R,0.07874X0.07874*%
%ADD33R,0.10000X0.07000*%
%ADD34R,0.02362X0.03937*%
%ADD35R,0.07874X0.03937*%
%ADD36O,0.06693X0.01063*%
%ADD37R,0.06693X0.01063*%
%ADD38R,0.01063X0.06693*%
%ADD39O,0.03740X0.01378*%
%ADD40R,0.08661X0.16929*%
%ADD41R,0.07874X0.07874*%
%ADD42R,0.07087X0.07874*%
%ADD43R,0.02362X0.02362*%
%ADD44R,0.03150X0.02559*%
%ADD45R,0.03937X0.07087*%
%ADD46O,0.03150X0.05906*%
%ADD47O,0.01378X0.06693*%
%ADD48R,0.02362X0.02362*%
%ADD49R,0.13386X0.13386*%
%ADD50O,0.00984X0.03740*%
%ADD51O,0.03740X0.00984*%
%ADD52O,0.02362X0.07087*%
%ADD53O,0.07087X0.02362*%
%ADD54O,0.06299X0.02362*%
%ADD55R,0.00984X0.01575*%
%ADD56R,0.02362X0.01969*%
%ADD57R,0.00984X0.01299*%
G04:AMPARAMS|DCode=58|XSize=35.43mil|YSize=157.48mil|CornerRadius=1.77mil|HoleSize=0mil|Usage=FLASHONLY|Rotation=90.000|XOffset=0mil|YOffset=0mil|HoleType=Round|Shape=RoundedRectangle|*
%AMROUNDEDRECTD58*
21,1,0.03543,0.15394,0,0,90.0*
21,1,0.03189,0.15748,0,0,90.0*
1,1,0.00354,0.07697,0.01595*
1,1,0.00354,0.07697,-0.01595*
1,1,0.00354,-0.07697,-0.01595*
1,1,0.00354,-0.07697,0.01595*
%
%ADD58ROUNDEDRECTD58*%
%ADD59R,0.01200X0.01800*%
%ADD60R,0.01575X0.05906*%
%ADD61C,0.01000*%
%ADD62C,0.01200*%
%ADD63C,0.02500*%
%ADD64C,0.04000*%
%ADD65C,0.08000*%
%ADD66C,0.01500*%
%ADD67C,0.00800*%
%ADD68R,0.07500X0.15500*%
%ADD69R,0.07560X0.20391*%
%ADD70R,0.06000X0.09600*%
%ADD71R,0.06700X0.09800*%
%ADD72R,0.04200X0.18700*%
%ADD73R,0.08100X0.13300*%
%ADD74R,0.05700X0.21700*%
%ADD75R,0.18000X0.08400*%
%ADD76R,0.10500X0.06400*%
%ADD77R,0.16200X0.16000*%
%ADD78R,0.27300X0.16100*%
%ADD79R,0.06200X0.14700*%
%ADD80R,0.34969X0.11400*%
%ADD81R,0.06500X1.11800*%
%ADD82C,0.00500*%
%ADD83C,0.07874*%
%ADD84O,0.07874X0.11811*%
%ADD85R,0.07874X0.11811*%
%ADD86C,0.13780*%
%ADD87R,0.05906X0.05906*%
%ADD88C,0.05906*%
%ADD89R,0.07874X0.07874*%
G04:AMPARAMS|DCode=90|XSize=51.18mil|YSize=173.23mil|CornerRadius=2.56mil|HoleSize=0mil|Usage=FLASHONLY|Rotation=90.000|XOffset=0mil|YOffset=0mil|HoleType=Round|Shape=RoundedRectangle|*
%AMROUNDEDRECTD90*
21,1,0.05118,0.16811,0,0,90.0*
21,1,0.04606,0.17323,0,0,90.0*
1,1,0.00512,0.08406,0.02303*
1,1,0.00512,0.08406,-0.02303*
1,1,0.00512,-0.08406,-0.02303*
1,1,0.00512,-0.08406,0.02303*
%
%ADD90ROUNDEDRECTD90*%
%ADD91C,0.01969*%
%ADD92R,0.05315X0.07284*%
%ADD93C,0.04000*%
%ADD94C,0.02000*%
%ADD95C,0.03000*%
%ADD96C,0.05000*%
%ADD97C,0.02598*%
%ADD98C,0.01600*%
%ADD99C,0.07518*%
G04:AMPARAMS|DCode=100|XSize=111.181mil|YSize=111.181mil|CornerRadius=0mil|HoleSize=0mil|Usage=FLASHONLY|Rotation=0.000|XOffset=0mil|YOffset=0mil|HoleType=Round|Shape=Relief|Width=10mil|Gap=10mil|Entries=4|*
%AMTHD100*
7,0,0,0.11118,0.09118,0.01000,45*
%
%ADD100THD100*%
%ADD101C,0.07124*%
G04:AMPARAMS|DCode=102|XSize=107.244mil|YSize=107.244mil|CornerRadius=0mil|HoleSize=0mil|Usage=FLASHONLY|Rotation=0.000|XOffset=0mil|YOffset=0mil|HoleType=Round|Shape=Relief|Width=10mil|Gap=10mil|Entries=4|*
%AMTHD102*
7,0,0,0.10724,0.08724,0.01000,45*
%
%ADD102THD102*%
%ADD103C,0.04369*%
%ADD104C,0.11061*%
%ADD105C,0.05943*%
G04:AMPARAMS|DCode=106|XSize=95.433mil|YSize=95.433mil|CornerRadius=0mil|HoleSize=0mil|Usage=FLASHONLY|Rotation=0.000|XOffset=0mil|YOffset=0mil|HoleType=Round|Shape=Relief|Width=10mil|Gap=10mil|Entries=4|*
%AMTHD106*
7,0,0,0.09543,0.07543,0.01000,45*
%
%ADD106THD106*%
G04:AMPARAMS|DCode=107|XSize=79.685mil|YSize=79.685mil|CornerRadius=0mil|HoleSize=0mil|Usage=FLASHONLY|Rotation=0.000|XOffset=0mil|YOffset=0mil|HoleType=Round|Shape=Relief|Width=10mil|Gap=10mil|Entries=4|*
%AMTHD107*
7,0,0,0.07969,0.05969,0.01000,45*
%
%ADD107THD107*%
%ADD108C,0.06337*%
%ADD109C,0.05400*%
%ADD110C,0.03600*%
G04:AMPARAMS|DCode=111|XSize=72mil|YSize=72mil|CornerRadius=0mil|HoleSize=0mil|Usage=FLASHONLY|Rotation=0.000|XOffset=0mil|YOffset=0mil|HoleType=Round|Shape=Relief|Width=10mil|Gap=10mil|Entries=4|*
%AMTHD111*
7,0,0,0.07200,0.05200,0.01000,45*
%
%ADD111THD111*%
G04:AMPARAMS|DCode=112|XSize=80mil|YSize=80mil|CornerRadius=0mil|HoleSize=0mil|Usage=FLASHONLY|Rotation=0.000|XOffset=0mil|YOffset=0mil|HoleType=Round|Shape=Relief|Width=10mil|Gap=10mil|Entries=4|*
%AMTHD112*
7,0,0,0.08000,0.06000,0.01000,45*
%
%ADD112THD112*%
%ADD113C,0.04400*%
G04:AMPARAMS|DCode=114|XSize=99.37mil|YSize=99.37mil|CornerRadius=0mil|HoleSize=0mil|Usage=FLASHONLY|Rotation=0.000|XOffset=0mil|YOffset=0mil|HoleType=Round|Shape=Relief|Width=10mil|Gap=10mil|Entries=4|*
%AMTHD114*
7,0,0,0.09937,0.07937,0.01000,45*
%
%ADD114THD114*%
G04:AMPARAMS|DCode=115|XSize=72.992mil|YSize=72.992mil|CornerRadius=0mil|HoleSize=0mil|Usage=FLASHONLY|Rotation=0.000|XOffset=0mil|YOffset=0mil|HoleType=Round|Shape=Relief|Width=10mil|Gap=10mil|Entries=4|*
%AMTHD115*
7,0,0,0.07299,0.05299,0.01000,45*
%
%ADD115THD115*%
G04:AMPARAMS|DCode=116|XSize=68mil|YSize=68mil|CornerRadius=0mil|HoleSize=0mil|Usage=FLASHONLY|Rotation=0.000|XOffset=0mil|YOffset=0mil|HoleType=Round|Shape=Relief|Width=10mil|Gap=10mil|Entries=4|*
%AMTHD116*
7,0,0,0.06800,0.04800,0.01000,45*
%
%ADD116THD116*%
%ADD117C,0.05000*%
%ADD118C,0.06000*%
%ADD119R,0.08300X0.13500*%
%ADD120R,0.19700X0.09100*%
%ADD121R,0.09400X0.25200*%
%ADD122R,0.39000X0.13800*%
%ADD123R,0.06200X0.13300*%
G36*
X208592Y213645D02*
X207829Y213019D01*
X206780Y211741D01*
X206001Y210284D01*
X205521Y208702D01*
X205359Y207057D01*
X205521Y205413D01*
X206001Y203831D01*
X206780Y202374D01*
X207829Y201096D01*
X209106Y200048D01*
X210564Y199269D01*
X212145Y198789D01*
X213790Y198627D01*
X215435Y198789D01*
X217016Y199269D01*
X218473Y200048D01*
X219751Y201096D01*
X220176Y201615D01*
X220647Y201446D01*
Y193230D01*
X204739D01*
X204053Y193093D01*
X203473Y192705D01*
X203085Y192124D01*
X202948Y191439D01*
Y186833D01*
X203085Y186148D01*
X203473Y185567D01*
X204053Y185179D01*
X204739Y185043D01*
X220647D01*
Y172757D01*
X205136D01*
X204818Y173144D01*
X204949Y173800D01*
X204755Y174776D01*
X204202Y175602D01*
X203376Y176155D01*
X202400Y176349D01*
X201425Y176155D01*
X200598Y175602D01*
X200045Y174776D01*
X199851Y173800D01*
X200045Y172825D01*
X200598Y171998D01*
X201425Y171445D01*
X202400Y171251D01*
D01*
X202948Y170967D01*
D01*
Y166734D01*
X202562Y166417D01*
X202400Y166449D01*
X201425Y166255D01*
X200598Y165702D01*
X200045Y164875D01*
X199851Y163900D01*
X200045Y162925D01*
X200598Y162098D01*
X201425Y161545D01*
X202400Y161351D01*
X203376Y161545D01*
X204202Y162098D01*
X204755Y162925D01*
X204949Y163900D01*
X204892Y164184D01*
X205210Y164570D01*
X220647D01*
Y-3867D01*
X220176Y-4035D01*
X219751Y-3517D01*
X218473Y-2468D01*
X217016Y-1689D01*
X215435Y-1210D01*
X213790Y-1048D01*
X212145Y-1210D01*
X210564Y-1689D01*
X209106Y-2468D01*
X207829Y-3517D01*
X206780Y-4794D01*
X206001Y-6252D01*
X205521Y-7833D01*
X205359Y-9478D01*
X205521Y-11123D01*
X206001Y-12704D01*
X206780Y-14162D01*
X207829Y-15439D01*
X208323Y-15845D01*
X208155Y-16316D01*
X179604D01*
X179557Y-15834D01*
X179557D01*
X179555Y-15818D01*
X180376Y-15655D01*
X181202Y-15102D01*
X181755Y-14276D01*
X181949Y-13300D01*
X181755Y-12325D01*
X181202Y-11498D01*
X180376Y-10945D01*
X179400Y-10751D01*
X178425Y-10945D01*
X177598Y-11498D01*
X177045Y-12325D01*
X176851Y-13300D01*
X177045Y-14276D01*
X177598Y-15102D01*
X178425Y-15655D01*
X179245Y-15818D01*
X179212Y-16150D01*
X179046Y-16316D01*
X132247D01*
X132102Y-15837D01*
X132902Y-15302D01*
X133455Y-14476D01*
X133649Y-13500D01*
X133455Y-12525D01*
X132902Y-11698D01*
X132076Y-11145D01*
X131100Y-10951D01*
X130124Y-11145D01*
X129298Y-11698D01*
X128745Y-12525D01*
X128551Y-13500D01*
X128745Y-14476D01*
X129298Y-15302D01*
X130098Y-15837D01*
X129953Y-16316D01*
X-69103D01*
X-69248Y-15837D01*
X-68598Y-15402D01*
X-68045Y-14575D01*
X-67851Y-13600D01*
X-68045Y-12625D01*
X-68379Y-12125D01*
X-68101Y-11710D01*
X-67400Y-11849D01*
X-66425Y-11655D01*
X-65598Y-11102D01*
X-65045Y-10275D01*
X-64851Y-9300D01*
X-65045Y-8325D01*
X-65598Y-7498D01*
X-66425Y-6945D01*
X-67400Y-6751D01*
X-68375Y-6945D01*
X-69202Y-7498D01*
X-69755Y-8325D01*
X-69949Y-9300D01*
X-69755Y-10275D01*
X-69421Y-10775D01*
X-69699Y-11190D01*
X-70400Y-11051D01*
X-71376Y-11245D01*
X-72202Y-11798D01*
X-72755Y-12625D01*
X-72949Y-13600D01*
X-72755Y-14575D01*
X-72202Y-15402D01*
X-71552Y-15837D01*
X-71697Y-16316D01*
X-77154D01*
X-77299Y-15837D01*
X-77098Y-15702D01*
X-76545Y-14875D01*
X-76351Y-13900D01*
X-76545Y-12924D01*
X-76722Y-12660D01*
X-76600Y-12049D01*
X-75625Y-11855D01*
X-74798Y-11302D01*
X-74245Y-10475D01*
X-74051Y-9500D01*
X-74245Y-8525D01*
X-74798Y-7698D01*
X-75625Y-7145D01*
X-76600Y-6951D01*
X-77575Y-7145D01*
X-78402Y-7698D01*
X-78955Y-8525D01*
X-79149Y-9500D01*
X-78955Y-10475D01*
X-78778Y-10740D01*
X-78900Y-11351D01*
X-79875Y-11545D01*
X-80702Y-12098D01*
X-81255Y-12924D01*
X-81449Y-13900D01*
X-81255Y-14875D01*
X-80702Y-15702D01*
X-80501Y-15837D01*
X-80646Y-16316D01*
X-85509D01*
X-85745Y-15875D01*
X-85545Y-15575D01*
X-85351Y-14600D01*
X-85545Y-13624D01*
X-86098Y-12798D01*
X-86924Y-12245D01*
X-87900Y-12051D01*
X-88876Y-12245D01*
X-89702Y-12798D01*
X-90255Y-13624D01*
X-90449Y-14600D01*
X-90255Y-15575D01*
X-90055Y-15875D01*
X-90291Y-16316D01*
X-93899D01*
X-94216Y-15929D01*
X-94051Y-15100D01*
X-94245Y-14124D01*
X-94798Y-13298D01*
X-95625Y-12745D01*
X-96600Y-12551D01*
X-97575Y-12745D01*
X-98402Y-13298D01*
X-98955Y-14124D01*
X-99149Y-15100D01*
X-98984Y-15929D01*
X-99301Y-16316D01*
X-105593D01*
X-105642Y-15818D01*
X-105324Y-15755D01*
X-104498Y-15202D01*
X-103945Y-14376D01*
X-103751Y-13400D01*
X-103945Y-12425D01*
X-104498Y-11598D01*
X-105324Y-11045D01*
X-106300Y-10851D01*
X-107275Y-11045D01*
X-108102Y-11598D01*
X-108655Y-12425D01*
X-108849Y-13400D01*
X-108655Y-14376D01*
X-108102Y-15202D01*
X-107275Y-15755D01*
X-106958Y-15818D01*
X-107007Y-16316D01*
X-139924D01*
X-140085Y-15842D01*
X-139560Y-15440D01*
X-139079Y-14813D01*
X-138777Y-14083D01*
X-138674Y-13300D01*
X-138777Y-12517D01*
X-139079Y-11787D01*
X-139560Y-11160D01*
X-140187Y-10679D01*
X-140917Y-10377D01*
X-141700Y-10274D01*
X-142483Y-10377D01*
X-143213Y-10679D01*
X-143840Y-11160D01*
X-144320Y-11787D01*
X-144623Y-12517D01*
X-144726Y-13300D01*
X-144623Y-14083D01*
X-144320Y-14813D01*
X-143840Y-15440D01*
X-143315Y-15842D01*
X-143476Y-16316D01*
X-154591D01*
X-154759Y-15845D01*
X-154265Y-15439D01*
X-153216Y-14162D01*
X-152437Y-12704D01*
X-151958Y-11123D01*
X-151796Y-9478D01*
X-151958Y-7833D01*
X-152437Y-6252D01*
X-153216Y-4794D01*
X-154265Y-3517D01*
X-155542Y-2468D01*
X-157000Y-1689D01*
X-158581Y-1210D01*
X-160226Y-1048D01*
X-161871Y-1210D01*
X-163452Y-1689D01*
X-164910Y-2468D01*
X-166187Y-3517D01*
X-166813Y-4280D01*
X-167284Y-4112D01*
Y201691D01*
X-166813Y201859D01*
X-166187Y201096D01*
X-164910Y200048D01*
X-163452Y199269D01*
X-161871Y198789D01*
X-160226Y198627D01*
X-158581Y198789D01*
X-157000Y199269D01*
X-155542Y200048D01*
X-154265Y201096D01*
X-153216Y202374D01*
X-152437Y203831D01*
X-151958Y205413D01*
X-151796Y207057D01*
X-151958Y208702D01*
X-152437Y210284D01*
X-153216Y211741D01*
X-154265Y213019D01*
X-155542Y214067D01*
X-155530Y214116D01*
X71854D01*
X71999Y213637D01*
X71798Y213502D01*
X71245Y212675D01*
X71051Y211700D01*
X71245Y210724D01*
X71798Y209898D01*
X72624Y209345D01*
X73600Y209151D01*
X74576Y209345D01*
X75402Y209898D01*
X75955Y210724D01*
X76149Y211700D01*
X75955Y212675D01*
X75402Y213502D01*
X74576Y214055D01*
X74576Y214055D01*
X74576D01*
Y214055D01*
X74581Y214116D01*
X93684D01*
X93905Y213667D01*
X93480Y213113D01*
X93177Y212383D01*
X93074Y211600D01*
X93177Y210817D01*
X93480Y210087D01*
X93960Y209460D01*
X94587Y208980D01*
X95317Y208677D01*
X96100Y208574D01*
X96883Y208677D01*
X97613Y208980D01*
X98240Y209460D01*
X98721Y210087D01*
X99023Y210817D01*
X99089Y211319D01*
X99589D01*
X99655Y210817D01*
X99957Y210087D01*
X100438Y209460D01*
X101065Y208980D01*
X101795Y208677D01*
X102578Y208574D01*
X103361Y208677D01*
X104091Y208980D01*
X104717Y209460D01*
X105198Y210087D01*
X105501Y210817D01*
X105567Y211319D01*
X106067D01*
X106133Y210817D01*
X106435Y210087D01*
X106916Y209460D01*
X107543Y208980D01*
X108272Y208677D01*
X109055Y208574D01*
X109839Y208677D01*
X110568Y208980D01*
X111195Y209460D01*
X111676Y210087D01*
X111978Y210817D01*
X112044Y211319D01*
X112544D01*
X112610Y210817D01*
X112913Y210087D01*
X113394Y209460D01*
X114020Y208980D01*
X114750Y208677D01*
X115533Y208574D01*
X116316Y208677D01*
X117046Y208980D01*
X117673Y209460D01*
X118154Y210087D01*
X118456Y210817D01*
X118522Y211319D01*
X119022D01*
X119088Y210817D01*
X119391Y210087D01*
X119871Y209460D01*
X120498Y208980D01*
X121228Y208677D01*
X122011Y208574D01*
X122794Y208677D01*
X123524Y208980D01*
X124151Y209460D01*
X124632Y210087D01*
X124934Y210817D01*
X125000Y211319D01*
X125500D01*
X125566Y210817D01*
X125868Y210087D01*
X126349Y209460D01*
X126976Y208980D01*
X127706Y208677D01*
X128489Y208574D01*
X129272Y208677D01*
X130002Y208980D01*
X130629Y209460D01*
X131109Y210087D01*
X131412Y210817D01*
X131478Y211319D01*
X131978D01*
X132044Y210817D01*
X132346Y210087D01*
X132827Y209460D01*
X133454Y208980D01*
X134184Y208677D01*
X134967Y208574D01*
X135750Y208677D01*
X136480Y208980D01*
X137106Y209460D01*
X137587Y210087D01*
X137889Y210817D01*
X137955Y211319D01*
X138455D01*
X138522Y210817D01*
X138824Y210087D01*
X139305Y209460D01*
X139931Y208980D01*
X140661Y208677D01*
X141444Y208574D01*
X142227Y208677D01*
X142957Y208980D01*
X143584Y209460D01*
X144065Y210087D01*
X144367Y210817D01*
X144433Y211319D01*
X144933D01*
X144999Y210817D01*
X145302Y210087D01*
X145782Y209460D01*
X146409Y208980D01*
X147139Y208677D01*
X147922Y208574D01*
X148705Y208677D01*
X149435Y208980D01*
X150062Y209460D01*
X150543Y210087D01*
X150845Y210817D01*
X150911Y211319D01*
X151411D01*
X151477Y210817D01*
X151779Y210087D01*
X152260Y209460D01*
X152887Y208980D01*
X153617Y208677D01*
X154400Y208574D01*
X155183Y208677D01*
X155913Y208980D01*
X156540Y209460D01*
X157020Y210087D01*
X157323Y210817D01*
X157426Y211600D01*
X157323Y212383D01*
X157020Y213113D01*
X156540Y213740D01*
X156667Y214116D01*
X208423D01*
X208592Y213645D01*
D02*
G37*
%LPC*%
G36*
X38200Y72649D02*
X37225Y72455D01*
X36398Y71902D01*
X35845Y71075D01*
X35651Y70100D01*
X35845Y69125D01*
X36398Y68298D01*
X37225Y67745D01*
X38200Y67551D01*
X39176Y67745D01*
X40002Y68298D01*
X40555Y69125D01*
X40749Y70100D01*
X40555Y71075D01*
X40002Y71902D01*
X39176Y72455D01*
X38200Y72649D01*
D02*
G37*
G36*
X29400Y72449D02*
X28425Y72255D01*
X27598Y71702D01*
X27045Y70876D01*
X26851Y69900D01*
X27045Y68924D01*
X27598Y68098D01*
X28425Y67545D01*
X29400Y67351D01*
X30375Y67545D01*
X31202Y68098D01*
X31755Y68924D01*
X31949Y69900D01*
X31755Y70876D01*
X31202Y71702D01*
X30375Y72255D01*
X29400Y72449D01*
D02*
G37*
G36*
X-52100Y77049D02*
X-53075Y76855D01*
X-53902Y76302D01*
X-54455Y75476D01*
X-54649Y74500D01*
X-54455Y73524D01*
X-53902Y72698D01*
X-53075Y72145D01*
X-52100Y71951D01*
X-51125Y72145D01*
X-50298Y72698D01*
X-49745Y73524D01*
X-49551Y74500D01*
X-49745Y75476D01*
X-50298Y76302D01*
X-51125Y76855D01*
X-52100Y77049D01*
D02*
G37*
G36*
X-26200Y73449D02*
X-27176Y73255D01*
X-28002Y72702D01*
X-28555Y71876D01*
X-28749Y70900D01*
X-28555Y69924D01*
X-28002Y69098D01*
X-27176Y68545D01*
X-26200Y68351D01*
X-25225Y68545D01*
X-24398Y69098D01*
X-23845Y69924D01*
X-23651Y70900D01*
X-23845Y71876D01*
X-24398Y72702D01*
X-25225Y73255D01*
X-26200Y73449D01*
D02*
G37*
G36*
X58500Y68649D02*
X57525Y68455D01*
X56698Y67902D01*
X56145Y67076D01*
X55951Y66100D01*
X56145Y65124D01*
X56698Y64298D01*
X57525Y63745D01*
X58500Y63551D01*
X59475Y63745D01*
X60302Y64298D01*
X60855Y65124D01*
X61049Y66100D01*
X60855Y67076D01*
X60302Y67902D01*
X59475Y68455D01*
X58500Y68649D01*
D02*
G37*
G36*
X37400Y65549D02*
X36424Y65355D01*
X35598Y64802D01*
X35045Y63976D01*
X34851Y63000D01*
X35045Y62024D01*
X35598Y61198D01*
X36424Y60645D01*
X37400Y60451D01*
X38375Y60645D01*
X39202Y61198D01*
X39755Y62024D01*
X39949Y63000D01*
X39755Y63976D01*
X39202Y64802D01*
X38375Y65355D01*
X37400Y65549D01*
D02*
G37*
G36*
X211931Y72798D02*
X211026Y72679D01*
X210182Y72330D01*
X209458Y71774D01*
X208902Y71049D01*
X208552Y70205D01*
X208433Y69300D01*
X208552Y68395D01*
X208902Y67551D01*
X209458Y66826D01*
X210182Y66270D01*
X211026Y65921D01*
X211931Y65802D01*
X212837Y65921D01*
X213681Y66270D01*
X214405Y66826D01*
X214961Y67551D01*
X215311Y68395D01*
X215430Y69300D01*
X215311Y70205D01*
X214961Y71049D01*
X214405Y71774D01*
X213681Y72330D01*
X212837Y72679D01*
X211931Y72798D01*
D02*
G37*
G36*
X202955D02*
X202050Y72679D01*
X201206Y72330D01*
X200481Y71774D01*
X200148Y71339D01*
X132500D01*
X131720Y71184D01*
X131058Y70742D01*
X127158Y66842D01*
X126716Y66180D01*
X126561Y65400D01*
Y60545D01*
X126282Y60266D01*
X125724Y60155D01*
X124898Y59602D01*
X124345Y58776D01*
X124151Y57800D01*
X124345Y56824D01*
X124898Y55998D01*
X125724Y55445D01*
X126700Y55251D01*
X127675Y55445D01*
X128502Y55998D01*
X129055Y56824D01*
X129166Y57382D01*
X130042Y58258D01*
X130484Y58920D01*
X130639Y59700D01*
X130639Y59700D01*
Y64555D01*
X133345Y67261D01*
X200148D01*
X200481Y66826D01*
X201206Y66270D01*
X202050Y65921D01*
X202955Y65802D01*
X203861Y65921D01*
X204704Y66270D01*
X205429Y66826D01*
X205985Y67551D01*
X206334Y68395D01*
X206453Y69300D01*
X206334Y70205D01*
X205985Y71049D01*
X205429Y71774D01*
X204704Y72330D01*
X203861Y72679D01*
X202955Y72798D01*
D02*
G37*
G36*
X106700Y77149D02*
X105725Y76955D01*
X104898Y76402D01*
X104345Y75576D01*
X104151Y74600D01*
X104345Y73624D01*
X104898Y72798D01*
X105725Y72245D01*
X106700Y72051D01*
X107676Y72245D01*
X108502Y72798D01*
X109055Y73624D01*
X109249Y74600D01*
X109055Y75576D01*
X108502Y76402D01*
X107676Y76955D01*
X106700Y77149D01*
D02*
G37*
G36*
X187000Y82949D02*
X186024Y82755D01*
X185198Y82202D01*
X184645Y81375D01*
X184451Y80400D01*
X184645Y79425D01*
X185198Y78598D01*
X186024Y78045D01*
X187000Y77851D01*
X187976Y78045D01*
X188802Y78598D01*
X189355Y79425D01*
X189549Y80400D01*
X189355Y81375D01*
X188802Y82202D01*
X187976Y82755D01*
X187000Y82949D01*
D02*
G37*
G36*
X113800Y81826D02*
X113017Y81723D01*
X112287Y81420D01*
X111660Y80940D01*
X111179Y80313D01*
X110877Y79583D01*
X110774Y78800D01*
X110877Y78017D01*
X111179Y77287D01*
X111660Y76660D01*
X112287Y76179D01*
X113017Y75877D01*
X113800Y75774D01*
X114583Y75877D01*
X115313Y76179D01*
X115940Y76660D01*
X116420Y77287D01*
X116723Y78017D01*
X116826Y78800D01*
X116723Y79583D01*
X116420Y80313D01*
X115940Y80940D01*
X115313Y81420D01*
X114583Y81723D01*
X113800Y81826D01*
D02*
G37*
G36*
X198700Y83649D02*
X197724Y83455D01*
X196898Y82902D01*
X196345Y82076D01*
X196151Y81100D01*
X196345Y80124D01*
X196898Y79298D01*
X197724Y78745D01*
X198700Y78551D01*
X199676Y78745D01*
X200502Y79298D01*
X201055Y80124D01*
X201249Y81100D01*
X201055Y82076D01*
X200502Y82902D01*
X199676Y83455D01*
X198700Y83649D01*
D02*
G37*
G36*
X144400Y84526D02*
X143617Y84423D01*
X142887Y84121D01*
X142260Y83640D01*
X141779Y83013D01*
X141477Y82283D01*
X141374Y81500D01*
X141477Y80717D01*
X141779Y79987D01*
X142260Y79360D01*
X142887Y78879D01*
X143617Y78577D01*
X144400Y78474D01*
X145183Y78577D01*
X145913Y78879D01*
X146540Y79360D01*
X147020Y79987D01*
X147323Y80717D01*
X147426Y81500D01*
X147323Y82283D01*
X147020Y83013D01*
X146540Y83640D01*
X145913Y84121D01*
X145183Y84423D01*
X144400Y84526D01*
D02*
G37*
G36*
X89700Y77949D02*
X88724Y77755D01*
X87898Y77202D01*
X87345Y76376D01*
X87151Y75400D01*
X87345Y74424D01*
X87898Y73598D01*
X88724Y73045D01*
X89700Y72851D01*
X90675Y73045D01*
X91502Y73598D01*
X92055Y74424D01*
X92249Y75400D01*
X92055Y76376D01*
X91502Y77202D01*
X90675Y77755D01*
X89700Y77949D01*
D02*
G37*
G36*
X217400Y77549D02*
X216424Y77355D01*
X215598Y76802D01*
X215045Y75976D01*
X214851Y75000D01*
X215045Y74024D01*
X215598Y73198D01*
X216424Y72645D01*
X217400Y72451D01*
X218375Y72645D01*
X219202Y73198D01*
X219755Y74024D01*
X219949Y75000D01*
X219755Y75976D01*
X219202Y76802D01*
X218375Y77355D01*
X217400Y77549D01*
D02*
G37*
G36*
X75100Y80649D02*
X74124Y80455D01*
X73298Y79902D01*
X72745Y79075D01*
X72551Y78100D01*
X72745Y77125D01*
X73298Y76298D01*
X74124Y75745D01*
X75100Y75551D01*
X76076Y75745D01*
X76902Y76298D01*
X77455Y77125D01*
X77649Y78100D01*
X77455Y79075D01*
X76902Y79902D01*
X76076Y80455D01*
X75100Y80649D01*
D02*
G37*
G36*
X175800Y80726D02*
X175017Y80623D01*
X174287Y80321D01*
X173660Y79840D01*
X173179Y79213D01*
X172877Y78483D01*
X172774Y77700D01*
X172877Y76917D01*
X173179Y76187D01*
X173660Y75560D01*
X174287Y75080D01*
X175017Y74777D01*
X175800Y74674D01*
X176583Y74777D01*
X177313Y75080D01*
X177940Y75560D01*
X178420Y76187D01*
X178723Y76917D01*
X178826Y77700D01*
X178723Y78483D01*
X178420Y79213D01*
X177940Y79840D01*
X177313Y80321D01*
X176583Y80623D01*
X175800Y80726D01*
D02*
G37*
G36*
X25000Y65549D02*
X24024Y65355D01*
X23198Y64802D01*
X22645Y63976D01*
X22451Y63000D01*
X22645Y62024D01*
X23198Y61198D01*
X24024Y60645D01*
X25000Y60451D01*
X25975Y60645D01*
X26802Y61198D01*
X27355Y62024D01*
X27549Y63000D01*
X27355Y63976D01*
X26802Y64802D01*
X25975Y65355D01*
X25000Y65549D01*
D02*
G37*
G36*
X211931Y56548D02*
X211026Y56429D01*
X210182Y56080D01*
X209458Y55524D01*
X208902Y54799D01*
X208552Y53956D01*
X208433Y53050D01*
X208552Y52144D01*
X208902Y51301D01*
X209458Y50576D01*
X210182Y50020D01*
X211026Y49671D01*
X211931Y49552D01*
X212837Y49671D01*
X213681Y50020D01*
X214405Y50576D01*
X214961Y51301D01*
X215311Y52144D01*
X215430Y53050D01*
X215311Y53956D01*
X214961Y54799D01*
X214405Y55524D01*
X213681Y56080D01*
X212837Y56429D01*
X211931Y56548D01*
D02*
G37*
G36*
X202955D02*
X202050Y56429D01*
X201206Y56080D01*
X200481Y55524D01*
X199925Y54799D01*
X199576Y53956D01*
X199457Y53050D01*
X199576Y52144D01*
X199925Y51301D01*
X200481Y50576D01*
X201206Y50020D01*
X202050Y49671D01*
X202955Y49552D01*
X203861Y49671D01*
X204704Y50020D01*
X205429Y50576D01*
X205985Y51301D01*
X206334Y52144D01*
X206453Y53050D01*
X206334Y53956D01*
X205985Y54799D01*
X205429Y55524D01*
X204704Y56080D01*
X203861Y56429D01*
X202955Y56548D01*
D02*
G37*
G36*
X52700Y55149D02*
X51724Y54955D01*
X50898Y54402D01*
X50345Y53575D01*
X50151Y52600D01*
X50345Y51625D01*
X50898Y50798D01*
X51724Y50245D01*
X52700Y50051D01*
X53676Y50245D01*
X54502Y50798D01*
X55055Y51625D01*
X55249Y52600D01*
X55055Y53575D01*
X54502Y54402D01*
X53676Y54955D01*
X52700Y55149D01*
D02*
G37*
G36*
X13000Y59749D02*
X12025Y59555D01*
X11198Y59002D01*
X10645Y58175D01*
X10451Y57200D01*
X10645Y56225D01*
X11198Y55398D01*
X11474Y55213D01*
X11377Y54722D01*
X10693Y54586D01*
X9866Y54034D01*
X9313Y53207D01*
X9120Y52232D01*
X9313Y51256D01*
X9866Y50429D01*
X10693Y49876D01*
X11669Y49683D01*
X12644Y49876D01*
X13471Y50429D01*
X14023Y51256D01*
X14218Y52232D01*
X14023Y53207D01*
X13471Y54034D01*
X13194Y54219D01*
X13292Y54709D01*
X13975Y54845D01*
X14802Y55398D01*
X15355Y56225D01*
X15549Y57200D01*
X15355Y58175D01*
X14802Y59002D01*
X13975Y59555D01*
X13000Y59749D01*
D02*
G37*
G36*
X190800Y48649D02*
X189824Y48455D01*
X188998Y47902D01*
X188445Y47076D01*
X188251Y46100D01*
X188445Y45125D01*
X188998Y44298D01*
X189824Y43745D01*
X190800Y43551D01*
X191776Y43745D01*
X192602Y44298D01*
X193155Y45125D01*
X193349Y46100D01*
X193155Y47076D01*
X192602Y47902D01*
X191776Y48455D01*
X190800Y48649D01*
D02*
G37*
G36*
X-52700Y49230D02*
X-53614Y49110D01*
X-54465Y48757D01*
X-55196Y48196D01*
X-55757Y47465D01*
X-56110Y46614D01*
X-56230Y45700D01*
X-56110Y44786D01*
X-55757Y43935D01*
X-55196Y43204D01*
X-54465Y42643D01*
X-53614Y42290D01*
X-52700Y42170D01*
X-51786Y42290D01*
X-50935Y42643D01*
X-50204Y43204D01*
X-49643Y43935D01*
X-49290Y44786D01*
X-49170Y45700D01*
X-49290Y46614D01*
X-49643Y47465D01*
X-50204Y48196D01*
X-50935Y48757D01*
X-51786Y49110D01*
X-52700Y49230D01*
D02*
G37*
G36*
X60500Y50949D02*
X59525Y50755D01*
X58698Y50202D01*
X58145Y49376D01*
X57951Y48400D01*
X58145Y47425D01*
X58698Y46598D01*
X59525Y46045D01*
X60500Y45851D01*
X61475Y46045D01*
X62302Y46598D01*
X62855Y47425D01*
X63049Y48400D01*
X62855Y49376D01*
X62302Y50202D01*
X61475Y50755D01*
X60500Y50949D01*
D02*
G37*
G36*
X183200Y49926D02*
X182417Y49823D01*
X181687Y49520D01*
X181060Y49040D01*
X180579Y48413D01*
X180277Y47683D01*
X180174Y46900D01*
X180277Y46117D01*
X180579Y45387D01*
X181060Y44760D01*
X181687Y44280D01*
X182417Y43977D01*
X183200Y43874D01*
X183983Y43977D01*
X184713Y44280D01*
X185340Y44760D01*
X185820Y45387D01*
X186123Y46117D01*
X186226Y46900D01*
X186123Y47683D01*
X185820Y48413D01*
X185340Y49040D01*
X184713Y49520D01*
X183983Y49823D01*
X183200Y49926D01*
D02*
G37*
G36*
X-44900Y57730D02*
X-45814Y57610D01*
X-46665Y57257D01*
X-47396Y56696D01*
X-47957Y55965D01*
X-48310Y55114D01*
X-48430Y54200D01*
X-48310Y53286D01*
X-47957Y52435D01*
X-47396Y51704D01*
X-46665Y51143D01*
X-45814Y50790D01*
X-44900Y50670D01*
X-43986Y50790D01*
X-43135Y51143D01*
X-42404Y51704D01*
X-41843Y52435D01*
X-41490Y53286D01*
X-41370Y54200D01*
X-41490Y55114D01*
X-41843Y55965D01*
X-42404Y56696D01*
X-43135Y57257D01*
X-43986Y57610D01*
X-44900Y57730D01*
D02*
G37*
G36*
X134800Y60049D02*
X133825Y59855D01*
X132998Y59302D01*
X132445Y58476D01*
X132251Y57500D01*
X131901Y57149D01*
X131400Y57249D01*
X130424Y57055D01*
X129598Y56502D01*
X129045Y55676D01*
X128851Y54700D01*
X129045Y53724D01*
X129598Y52898D01*
X130424Y52345D01*
X131400Y52151D01*
X131727Y52216D01*
X131917Y52089D01*
X131966Y51591D01*
X131818Y51443D01*
X131600Y51486D01*
X130624Y51292D01*
X129798Y50739D01*
X129350Y50069D01*
X128850D01*
X128402Y50739D01*
X127576Y51292D01*
X126600Y51486D01*
X125625Y51292D01*
X124798Y50739D01*
X124550Y50369D01*
X124050D01*
X123802Y50739D01*
X122976Y51292D01*
X122000Y51486D01*
X121025Y51292D01*
X120198Y50739D01*
X119650Y49920D01*
X119150D01*
X118602Y50739D01*
X117775Y51292D01*
X116800Y51486D01*
X115824Y51292D01*
X114998Y50739D01*
X114445Y49913D01*
X114289Y49129D01*
X109046D01*
X108992Y49119D01*
X108938Y49125D01*
X108844Y49100D01*
X108748D01*
X108656Y49082D01*
X108584Y49052D01*
X108431Y49033D01*
X108421Y49029D01*
X102358D01*
X102285Y49015D01*
X102233D01*
X102158Y49000D01*
X102059D01*
X101987Y48986D01*
D01*
X101927Y48980D01*
X101897Y48971D01*
X101861Y48969D01*
X101793Y48952D01*
X101760Y48937D01*
X101744Y48935D01*
X101631Y49010D01*
X100655Y49204D01*
X99680Y49010D01*
X99519Y48903D01*
X99491Y48904D01*
X99456Y48919D01*
X99456D01*
X99265Y48957D01*
X99265D01*
X99265Y48957D01*
X99243Y48964D01*
X99168Y48971D01*
X99046Y49008D01*
X98971Y49015D01*
X98921Y49010D01*
X98896Y49015D01*
X98883Y49013D01*
X98799Y49029D01*
X97666D01*
X97632Y49292D01*
X97279Y50143D01*
X96718Y50875D01*
X95987Y51436D01*
X95135Y51788D01*
X94222Y51908D01*
X93308Y51788D01*
X92457Y51436D01*
X91725Y50875D01*
X91164Y50143D01*
X90812Y49292D01*
X90777Y49029D01*
X90448Y49034D01*
X90448Y49034D01*
Y49034D01*
X90258Y49058D01*
X90074Y49108D01*
X89965Y49095D01*
X89856Y49108D01*
X89672Y49058D01*
X89482Y49034D01*
X89467Y49029D01*
D01*
D01*
X89466Y49029D01*
X89374Y48976D01*
X89281Y48951D01*
X89170Y48864D01*
X89128Y48850D01*
X89093Y48830D01*
X89044Y48788D01*
X88948Y48734D01*
X88948Y48733D01*
X88948D01*
Y48733D01*
X88883Y48677D01*
X88848Y48657D01*
X87296Y47313D01*
X87296Y47313D01*
D01*
X85583Y45829D01*
X85555Y45794D01*
X85518Y45770D01*
X85518Y45769D01*
X85480Y45715D01*
X85473Y45710D01*
X85445Y45682D01*
X85391Y45601D01*
X85312Y45522D01*
X85298Y45501D01*
X85298Y45500D01*
X85298Y45500D01*
X85282Y45478D01*
X85253Y45406D01*
X85159Y45285D01*
X85154Y45276D01*
X85152Y45268D01*
X85150Y45264D01*
X85138Y45222D01*
X85114Y45186D01*
X85113Y45182D01*
X85109Y45176D01*
X85104Y45165D01*
X85074Y45015D01*
X85039Y44945D01*
X85025Y44894D01*
X85017Y44783D01*
X84991Y44689D01*
X84989Y44650D01*
X84994Y44610D01*
X84987Y44579D01*
X84988Y44577D01*
X84971Y44489D01*
Y35200D01*
Y34189D01*
X84987Y34104D01*
X84985Y34091D01*
X84990Y34066D01*
X84985Y34016D01*
X84992Y33941D01*
X85029Y33819D01*
X85036Y33744D01*
X85043Y33722D01*
X85043Y33722D01*
X85052Y33676D01*
X85053Y33676D01*
Y33676D01*
X85064Y33647D01*
X85067Y33636D01*
X85083Y33596D01*
X85101Y33506D01*
X85130Y33435D01*
X85139Y33422D01*
X85148Y33376D01*
X78213Y26441D01*
X54508D01*
X54191Y26828D01*
X54329Y27520D01*
X54135Y28496D01*
X53582Y29323D01*
X52755Y29875D01*
X51780Y30070D01*
X50804Y29875D01*
X49977Y29323D01*
X49425Y28496D01*
X49231Y27520D01*
X49368Y26828D01*
X49051Y26441D01*
X19843D01*
X19523Y26655D01*
X18548Y26849D01*
X17573Y26655D01*
X16746Y26102D01*
X16193Y25275D01*
X15999Y24300D01*
X16193Y23325D01*
X16746Y22498D01*
X17573Y21945D01*
X18548Y21751D01*
X19523Y21945D01*
X19843Y22159D01*
X79100D01*
X79919Y22322D01*
X80614Y22786D01*
X85538Y27710D01*
X86191Y27144D01*
X88087Y25501D01*
Y23229D01*
X87898Y23102D01*
X87345Y22275D01*
X86834Y22377D01*
X86755Y22775D01*
X86202Y23602D01*
X85375Y24155D01*
X84400Y24349D01*
X83425Y24155D01*
X82598Y23602D01*
X82045Y22775D01*
X81851Y21800D01*
X81886Y21626D01*
X81568Y21239D01*
X79598D01*
X79276Y21455D01*
X78300Y21649D01*
X77324Y21455D01*
X76498Y20902D01*
X75945Y20076D01*
X75751Y19100D01*
X75945Y18124D01*
X76498Y17298D01*
X77324Y16745D01*
X77551Y16700D01*
X77743Y16238D01*
X77233Y15475D01*
X77091Y14761D01*
X77029Y14720D01*
X77029Y14720D01*
Y14720D01*
X76054Y14526D01*
X75227Y13973D01*
X74674Y13146D01*
X74480Y12171D01*
X74674Y11195D01*
X75227Y10368D01*
X75303Y10318D01*
X75158Y9839D01*
X23448D01*
X22975Y10155D01*
X22000Y10349D01*
X21024Y10155D01*
X20198Y9602D01*
X19645Y8775D01*
X19451Y7800D01*
X19645Y6825D01*
X20198Y5998D01*
X21024Y5445D01*
X22000Y5251D01*
X22975Y5445D01*
X23448Y5761D01*
X86555D01*
X89458Y2858D01*
X90120Y2416D01*
X90900Y2261D01*
X177771D01*
X177916Y1782D01*
X177198Y1302D01*
X176645Y476D01*
X176451Y-500D01*
X176645Y-1476D01*
X177198Y-2302D01*
X178024Y-2855D01*
X179000Y-3049D01*
X179975Y-2855D01*
X180802Y-2302D01*
X181355Y-1476D01*
X181549Y-500D01*
X181355Y476D01*
X180802Y1302D01*
X180084Y1782D01*
X180229Y2261D01*
X186722D01*
X186867Y1782D01*
X186598Y1602D01*
X186045Y776D01*
X185851Y-200D01*
X186045Y-1175D01*
X186598Y-2002D01*
X187425Y-2555D01*
X188400Y-2749D01*
X189375Y-2555D01*
X190202Y-2002D01*
X190755Y-1175D01*
X190949Y-200D01*
X190755Y776D01*
X190202Y1602D01*
X189434Y2116D01*
Y2116D01*
X189434D01*
X189375Y2155D01*
Y2155D01*
X189386Y2261D01*
X200148D01*
X200481Y1826D01*
X201206Y1270D01*
X202050Y921D01*
X202955Y802D01*
X203861Y921D01*
X204704Y1270D01*
X205429Y1826D01*
X205985Y2551D01*
X206334Y3395D01*
X206453Y4300D01*
X206334Y5206D01*
X205985Y6049D01*
X205429Y6774D01*
X204704Y7330D01*
X203861Y7679D01*
X202955Y7798D01*
X202050Y7679D01*
X201206Y7330D01*
X200481Y6774D01*
X200148Y6339D01*
X191829D01*
X191684Y6818D01*
X192402Y7298D01*
X192955Y8125D01*
X193149Y9100D01*
X192955Y10075D01*
X192402Y10902D01*
X191576Y11455D01*
X190600Y11649D01*
X189625Y11455D01*
X188798Y10902D01*
X188245Y10075D01*
X188051Y9100D01*
X188245Y8125D01*
X188798Y7298D01*
X189516Y6818D01*
X189371Y6339D01*
X150734D01*
X150515Y6558D01*
X150397Y6780D01*
X150487Y6915D01*
X150494Y6921D01*
X150498Y6931D01*
X150607Y7063D01*
X150611Y7075D01*
X150640Y7114D01*
X150646Y7124D01*
X150648Y7132D01*
X150651Y7136D01*
X150662Y7178D01*
X150687Y7214D01*
X150687Y7218D01*
X150692Y7225D01*
X150696Y7236D01*
X150726Y7385D01*
X150761Y7455D01*
X150775Y7506D01*
X150783Y7617D01*
X150809Y7711D01*
X150811Y7750D01*
X150806Y7790D01*
X150812Y7821D01*
X150812Y7824D01*
X150829Y7911D01*
Y8400D01*
Y42680D01*
X151183Y43034D01*
X151483Y43033D01*
X163758Y30758D01*
X164420Y30316D01*
X165200Y30161D01*
X165200Y30161D01*
X190461D01*
X195852Y24769D01*
X195575Y24355D01*
X194600Y24549D01*
X193624Y24355D01*
X192798Y23802D01*
X192245Y22975D01*
X192051Y22000D01*
X192245Y21024D01*
X192798Y20198D01*
X193624Y19645D01*
X194600Y19451D01*
X195575Y19645D01*
X196402Y20198D01*
X196955Y21024D01*
X197149Y22000D01*
X196955Y22975D01*
X197369Y23252D01*
X199528Y21093D01*
X199457Y20550D01*
X199576Y19645D01*
X199925Y18801D01*
X200481Y18076D01*
X201206Y17520D01*
X202050Y17171D01*
X202955Y17052D01*
X203861Y17171D01*
X204704Y17520D01*
X205429Y18076D01*
X205985Y18801D01*
X206334Y19645D01*
X206453Y20550D01*
X206334Y21455D01*
X205985Y22299D01*
X205429Y23024D01*
X204704Y23580D01*
X203861Y23929D01*
X202955Y24048D01*
X202412Y23977D01*
X192747Y33642D01*
X192086Y34084D01*
X191305Y34239D01*
X166410D01*
X166132Y34655D01*
X166176Y34761D01*
X200148D01*
X200481Y34326D01*
X201206Y33770D01*
X202050Y33421D01*
X202955Y33302D01*
X203861Y33421D01*
X204704Y33770D01*
X205429Y34326D01*
X205985Y35051D01*
X206334Y35895D01*
X206453Y36800D01*
X206334Y37705D01*
X205985Y38549D01*
X205429Y39274D01*
X204704Y39830D01*
X203861Y40179D01*
X202955Y40298D01*
X202050Y40179D01*
X201206Y39830D01*
X200481Y39274D01*
X200148Y38839D01*
X197029D01*
X196883Y39318D01*
X197302Y39598D01*
X197855Y40424D01*
X198049Y41400D01*
X197855Y42375D01*
X197302Y43202D01*
X196476Y43755D01*
X195500Y43949D01*
X194525Y43755D01*
X193698Y43202D01*
X193145Y42375D01*
X192951Y41400D01*
X193145Y40424D01*
X193698Y39598D01*
X194117Y39318D01*
X193971Y38839D01*
X187093D01*
X186858Y39280D01*
X187355Y40025D01*
X187549Y41000D01*
X187355Y41976D01*
X186802Y42802D01*
X185976Y43355D01*
X185000Y43549D01*
X184025Y43355D01*
X183198Y42802D01*
X182645Y41976D01*
X182451Y41000D01*
X182645Y40025D01*
X183142Y39280D01*
X182907Y38839D01*
X165245D01*
X159405Y44679D01*
X159600Y45074D01*
X160383Y45177D01*
X161113Y45480D01*
X161740Y45960D01*
X162221Y46587D01*
X162523Y47317D01*
X162626Y48100D01*
X162523Y48883D01*
X162221Y49613D01*
X161740Y50240D01*
X161113Y50721D01*
X160383Y51023D01*
X159600Y51126D01*
X158817Y51023D01*
X158087Y50721D01*
X157460Y50240D01*
X156980Y49613D01*
X156677Y48883D01*
X156579Y48139D01*
X156106Y47978D01*
X153442Y50642D01*
X152780Y51084D01*
X152000Y51239D01*
X146372D01*
X146055Y51625D01*
X146055Y51625D01*
X146249Y52600D01*
X146055Y53575D01*
X145502Y54402D01*
X144676Y54955D01*
X144046Y55080D01*
X144149Y55600D01*
X143955Y56576D01*
X143402Y57402D01*
X142576Y57955D01*
X141600Y58149D01*
X140624Y57955D01*
X139798Y57402D01*
X139271Y56614D01*
X138781Y56517D01*
X138680Y56584D01*
X137900Y56739D01*
X137592D01*
X137275Y57126D01*
X137349Y57500D01*
X137155Y58476D01*
X136602Y59302D01*
X135775Y59855D01*
X134800Y60049D01*
D02*
G37*
G36*
X-63806Y57986D02*
X-64537Y57889D01*
X-65218Y57607D01*
X-65803Y57159D01*
X-65918Y57008D01*
X-66418D01*
X-66534Y57159D01*
X-67119Y57607D01*
X-67800Y57889D01*
X-68531Y57986D01*
X-69261Y57889D01*
X-69942Y57607D01*
X-70527Y57159D01*
X-70976Y56574D01*
X-71258Y55893D01*
X-71354Y55162D01*
X-71258Y54431D01*
X-70976Y53750D01*
X-70527Y53166D01*
X-70376Y53050D01*
Y52550D01*
X-70527Y52434D01*
X-70976Y51850D01*
X-71258Y51169D01*
X-71354Y50438D01*
X-71258Y49707D01*
X-70976Y49026D01*
X-70527Y48441D01*
X-69942Y47993D01*
X-69261Y47711D01*
X-68531Y47614D01*
X-67800Y47711D01*
X-67119Y47993D01*
X-66534Y48441D01*
X-66418Y48592D01*
X-65918D01*
X-65803Y48441D01*
X-65218Y47993D01*
X-64537Y47711D01*
X-63806Y47614D01*
X-63076Y47711D01*
X-62395Y47993D01*
X-61810Y48441D01*
X-61361Y49026D01*
X-61079Y49707D01*
X-60983Y50438D01*
X-61079Y51169D01*
X-61361Y51850D01*
X-61810Y52434D01*
X-61961Y52550D01*
Y53050D01*
X-61810Y53166D01*
X-61361Y53750D01*
X-61079Y54431D01*
X-60983Y55162D01*
X-61079Y55893D01*
X-61361Y56574D01*
X-61810Y57159D01*
X-62395Y57607D01*
X-63076Y57889D01*
X-63806Y57986D01*
D02*
G37*
G36*
X68700Y64949D02*
X67725Y64755D01*
X66898Y64202D01*
X66345Y63376D01*
X66151Y62400D01*
X66345Y61424D01*
X66898Y60598D01*
X67725Y60045D01*
X68700Y59851D01*
X69675Y60045D01*
X70502Y60598D01*
X71055Y61424D01*
X71249Y62400D01*
X71055Y63376D01*
X70502Y64202D01*
X69675Y64755D01*
X68700Y64949D01*
D02*
G37*
G36*
X77400Y63049D02*
X76424Y62855D01*
X75598Y62302D01*
X75045Y61475D01*
X74851Y60500D01*
X75045Y59525D01*
X75598Y58698D01*
X76424Y58145D01*
X77400Y57951D01*
X78376Y58145D01*
X79202Y58698D01*
X79755Y59525D01*
X79949Y60500D01*
X79755Y61475D01*
X79202Y62302D01*
X78376Y62855D01*
X77400Y63049D01*
D02*
G37*
G36*
X200800Y63349D02*
X174400D01*
X173424Y63155D01*
X172598Y62602D01*
X169033Y59038D01*
X168917Y59023D01*
X168187Y58720D01*
X167560Y58240D01*
X167079Y57613D01*
X166777Y56883D01*
X166674Y56100D01*
X166777Y55317D01*
X167079Y54587D01*
X167560Y53960D01*
X168187Y53479D01*
X168917Y53177D01*
X169700Y53074D01*
X170483Y53177D01*
X171213Y53479D01*
X171840Y53960D01*
X172320Y54587D01*
X172623Y55317D01*
X172638Y55433D01*
X175041Y57837D01*
X175457Y57559D01*
X175177Y56883D01*
X175074Y56100D01*
X175177Y55317D01*
X175479Y54587D01*
X175960Y53960D01*
X176587Y53479D01*
X177317Y53177D01*
X178100Y53074D01*
X178883Y53177D01*
X179613Y53479D01*
X180240Y53960D01*
X180720Y54587D01*
X181023Y55317D01*
X181126Y56100D01*
X181023Y56883D01*
X180720Y57613D01*
X180240Y58240D01*
X180244Y58251D01*
X200800D01*
X201776Y58445D01*
X202602Y58998D01*
X203155Y59825D01*
X203349Y60800D01*
X203155Y61775D01*
X202602Y62602D01*
X201776Y63155D01*
X200800Y63349D01*
D02*
G37*
G36*
X184000Y55949D02*
X183025Y55755D01*
X182198Y55202D01*
X181645Y54375D01*
X181451Y53400D01*
X181645Y52425D01*
X182198Y51598D01*
X183025Y51045D01*
X184000Y50851D01*
X184976Y51045D01*
X185802Y51598D01*
X186355Y52425D01*
X186549Y53400D01*
X186355Y54375D01*
X185802Y55202D01*
X184976Y55755D01*
X184000Y55949D01*
D02*
G37*
G36*
X162000Y59426D02*
X161217Y59323D01*
X160487Y59021D01*
X159860Y58540D01*
X159379Y57913D01*
X159077Y57183D01*
X158974Y56400D01*
X159077Y55617D01*
X159379Y54887D01*
X159860Y54260D01*
X160487Y53780D01*
X161217Y53477D01*
X162000Y53374D01*
X162783Y53477D01*
X163513Y53780D01*
X164140Y54260D01*
X164620Y54887D01*
X164923Y55617D01*
X165026Y56400D01*
X164923Y57183D01*
X164620Y57913D01*
X164140Y58540D01*
X163513Y59021D01*
X162783Y59323D01*
X162000Y59426D01*
D02*
G37*
G36*
X154100Y65326D02*
X153317Y65223D01*
X152587Y64921D01*
X151960Y64440D01*
X151479Y63813D01*
X151177Y63083D01*
X151074Y62300D01*
X151177Y61517D01*
X151479Y60787D01*
X151960Y60160D01*
X152587Y59680D01*
X152950Y59529D01*
Y59029D01*
X152687Y58921D01*
X152060Y58440D01*
X151579Y57813D01*
X151277Y57083D01*
X151174Y56300D01*
X151277Y55517D01*
X151579Y54787D01*
X152060Y54160D01*
X152687Y53680D01*
X153417Y53377D01*
X154200Y53274D01*
X154983Y53377D01*
X155713Y53680D01*
X156340Y54160D01*
X156820Y54787D01*
X157123Y55517D01*
X157226Y56300D01*
X157123Y57083D01*
X156820Y57813D01*
X156340Y58440D01*
X155713Y58921D01*
X154983Y59223D01*
X154883Y59236D01*
Y59377D01*
X155613Y59680D01*
X156240Y60160D01*
X156720Y60787D01*
X157023Y61517D01*
X157126Y62300D01*
X157023Y63083D01*
X156720Y63813D01*
X156240Y64440D01*
X155613Y64921D01*
X154883Y65223D01*
X154100Y65326D01*
D02*
G37*
G36*
X104100Y103349D02*
X103124Y103155D01*
X102298Y102602D01*
X101745Y101776D01*
X101551Y100800D01*
X101745Y99825D01*
X102298Y98998D01*
X103124Y98445D01*
X104100Y98251D01*
X105076Y98445D01*
X105902Y98998D01*
X106455Y99825D01*
X106649Y100800D01*
X106455Y101776D01*
X105902Y102602D01*
X105076Y103155D01*
X104100Y103349D01*
D02*
G37*
G36*
X170300Y103226D02*
X169517Y103123D01*
X168787Y102821D01*
X168160Y102340D01*
X167680Y101713D01*
X167377Y100983D01*
X167274Y100200D01*
X167377Y99417D01*
X167680Y98687D01*
X168160Y98060D01*
X168787Y97579D01*
X169517Y97277D01*
X170300Y97174D01*
X171083Y97277D01*
X171813Y97579D01*
X172440Y98060D01*
X172921Y98687D01*
X173223Y99417D01*
X173326Y100200D01*
X173223Y100983D01*
X172921Y101713D01*
X172440Y102340D01*
X171813Y102821D01*
X171083Y103123D01*
X170300Y103226D01*
D02*
G37*
G36*
X-38600Y110949D02*
X-39575Y110755D01*
X-40402Y110202D01*
X-40955Y109376D01*
X-41149Y108400D01*
X-40955Y107424D01*
X-40550Y106818D01*
X-41050Y106070D01*
X-41243Y105095D01*
X-41050Y104119D01*
X-40670Y103552D01*
X-40855Y103276D01*
X-41049Y102300D01*
X-40855Y101324D01*
X-40302Y100498D01*
X-39476Y99945D01*
X-38500Y99751D01*
X-37525Y99945D01*
X-36698Y100498D01*
X-36145Y101324D01*
X-35951Y102300D01*
X-36145Y103276D01*
X-36524Y103843D01*
X-36340Y104119D01*
X-36145Y105095D01*
X-36340Y106070D01*
X-36745Y106676D01*
X-36245Y107424D01*
X-36051Y108400D01*
X-36245Y109376D01*
X-36798Y110202D01*
X-37624Y110755D01*
X-38600Y110949D01*
D02*
G37*
G36*
X-13900Y104049D02*
X-14875Y103855D01*
X-15702Y103302D01*
X-16255Y102476D01*
X-16449Y101500D01*
X-16255Y100524D01*
X-15702Y99698D01*
X-14875Y99145D01*
X-13900Y98951D01*
X-12924Y99145D01*
X-12098Y99698D01*
X-11545Y100524D01*
X-11351Y101500D01*
X-11545Y102476D01*
X-12098Y103302D01*
X-12924Y103855D01*
X-13900Y104049D01*
D02*
G37*
G36*
X213900Y100249D02*
X212925Y100055D01*
X212098Y99502D01*
X211545Y98676D01*
X211351Y97700D01*
X211545Y96724D01*
X212098Y95898D01*
X212925Y95345D01*
X213900Y95151D01*
X214876Y95345D01*
X215702Y95898D01*
X216255Y96724D01*
X216449Y97700D01*
X216255Y98676D01*
X215702Y99502D01*
X214876Y100055D01*
X213900Y100249D01*
D02*
G37*
G36*
X85180Y99869D02*
X84205Y99675D01*
X83378Y99122D01*
X82825Y98295D01*
X82631Y97320D01*
X82825Y96345D01*
X83378Y95518D01*
X84205Y94965D01*
X85180Y94771D01*
X86155Y94965D01*
X86982Y95518D01*
X87535Y96345D01*
X87729Y97320D01*
X87535Y98295D01*
X86982Y99122D01*
X86155Y99675D01*
X85180Y99869D01*
D02*
G37*
G36*
X20400Y100449D02*
X19424Y100255D01*
X18598Y99702D01*
X18045Y98875D01*
X17851Y97900D01*
X18041Y96945D01*
X17891Y96822D01*
X17621Y96641D01*
X17183Y96823D01*
X16400Y96926D01*
X15617Y96823D01*
X14887Y96521D01*
X14260Y96040D01*
X13780Y95413D01*
X13596Y94971D01*
X13118Y94826D01*
X12475Y95255D01*
X11500Y95449D01*
X10525Y95255D01*
X9698Y94702D01*
X9145Y93875D01*
X8951Y92900D01*
X9145Y91925D01*
X9698Y91098D01*
X10525Y90545D01*
X11500Y90351D01*
X12475Y90545D01*
X13302Y91098D01*
X13747Y91762D01*
X14246Y91779D01*
X14260Y91760D01*
X14887Y91280D01*
X15617Y90977D01*
X16400Y90874D01*
X17183Y90977D01*
X17913Y91280D01*
X18540Y91760D01*
X19020Y92387D01*
X19323Y93117D01*
X19426Y93900D01*
X19323Y94683D01*
X19141Y95121D01*
X19322Y95391D01*
X19445Y95541D01*
X20400Y95351D01*
X21375Y95545D01*
X22202Y96098D01*
X22755Y96925D01*
X22949Y97900D01*
X22755Y98875D01*
X22202Y99702D01*
X21375Y100255D01*
X20400Y100449D01*
D02*
G37*
G36*
X72679Y100370D02*
X71703Y100176D01*
X70876Y99624D01*
X70324Y98797D01*
X70130Y97821D01*
X70324Y96846D01*
X70876Y96019D01*
X71703Y95466D01*
X72679Y95272D01*
X73654Y95466D01*
X74481Y96019D01*
X75034Y96846D01*
X75228Y97821D01*
X75034Y98797D01*
X74481Y99624D01*
X73654Y100176D01*
X72679Y100370D01*
D02*
G37*
G36*
X126900Y105049D02*
X125925Y104855D01*
X125098Y104302D01*
X124545Y103475D01*
X124351Y102500D01*
X124545Y101524D01*
X125098Y100698D01*
X125925Y100145D01*
X126900Y99951D01*
X127875Y100145D01*
X128702Y100698D01*
X129255Y101524D01*
X129449Y102500D01*
X129255Y103475D01*
X128702Y104302D01*
X127875Y104855D01*
X126900Y105049D01*
D02*
G37*
G36*
X210100Y109049D02*
X209124Y108855D01*
X208298Y108302D01*
X207745Y107475D01*
X207551Y106500D01*
X207745Y105525D01*
X208298Y104698D01*
X209124Y104145D01*
X210100Y103951D01*
X211075Y104145D01*
X211902Y104698D01*
X212455Y105525D01*
X212649Y106500D01*
X212455Y107475D01*
X211902Y108302D01*
X211075Y108855D01*
X210100Y109049D01*
D02*
G37*
G36*
X91290Y109039D02*
X90314Y108845D01*
X89487Y108292D01*
X88935Y107465D01*
X88741Y106490D01*
X88935Y105514D01*
X89487Y104687D01*
X90314Y104135D01*
X91290Y103941D01*
X92265Y104135D01*
X93092Y104687D01*
X93265Y104946D01*
X93765D01*
X93998Y104598D01*
X94824Y104045D01*
X95800Y103851D01*
X96776Y104045D01*
X97602Y104598D01*
X98155Y105424D01*
X98349Y106400D01*
X98155Y107376D01*
X97602Y108202D01*
X96776Y108755D01*
X95800Y108949D01*
X94824Y108755D01*
X93998Y108202D01*
X93825Y107944D01*
X93325D01*
X93092Y108292D01*
X92265Y108845D01*
X91290Y109039D01*
D02*
G37*
G36*
X-72700Y123429D02*
X-92400D01*
X-92985Y123313D01*
X-93481Y122981D01*
X-93813Y122485D01*
X-93929Y121900D01*
Y112800D01*
X-93827Y112285D01*
X-94105Y111869D01*
X-94385Y111813D01*
X-94881Y111481D01*
X-95213Y110985D01*
X-95329Y110400D01*
Y109566D01*
X-95627Y109322D01*
X-96603Y109128D01*
X-97430Y108575D01*
X-97982Y107748D01*
X-98176Y106773D01*
X-98443Y106448D01*
X-100002D01*
X-104077Y110523D01*
X-105226Y111404D01*
X-106564Y111958D01*
X-108000Y112147D01*
X-114770D01*
X-115006Y112588D01*
X-114545Y113278D01*
X-114351Y114253D01*
X-114545Y115229D01*
X-115098Y116056D01*
X-115925Y116608D01*
X-116900Y116802D01*
X-117876Y116608D01*
X-118702Y116056D01*
X-119255Y115229D01*
X-119449Y114253D01*
X-119255Y113278D01*
X-118794Y112588D01*
X-119030Y112147D01*
X-123207D01*
X-123524Y112534D01*
X-123451Y112900D01*
X-123645Y113875D01*
X-124198Y114702D01*
X-125024Y115255D01*
X-126000Y115449D01*
X-126976Y115255D01*
X-127802Y114702D01*
X-128355Y113875D01*
X-128549Y112900D01*
X-128355Y111925D01*
X-128259Y111781D01*
X-128374Y111404D01*
X-129523Y110523D01*
X-135091Y104954D01*
X-135973Y103805D01*
X-136527Y102467D01*
X-136716Y101031D01*
Y-3306D01*
X-136652Y-3789D01*
Y-5275D01*
X-136466Y-6694D01*
X-135918Y-8017D01*
X-135046Y-9153D01*
X-133911Y-10024D01*
X-132588Y-10572D01*
X-131168Y-10759D01*
X-129749Y-10572D01*
X-128427Y-10024D01*
X-127291Y-9153D01*
X-127079Y-8877D01*
X-126605Y-9037D01*
Y-11106D01*
X-115732D01*
Y3706D01*
X-125621D01*
Y60041D01*
X-125234Y60358D01*
X-125200Y60351D01*
X-124617Y60467D01*
X-124230Y60150D01*
Y40600D01*
X-124230Y40600D01*
X-124230D01*
X-124110Y39686D01*
X-123757Y38835D01*
X-123196Y38104D01*
X-118177Y33085D01*
X-118226Y32587D01*
X-118502Y32402D01*
X-119055Y31576D01*
X-119249Y30600D01*
X-119055Y29625D01*
X-118502Y28798D01*
X-117675Y28245D01*
X-116700Y28051D01*
X-115725Y28245D01*
X-114898Y28798D01*
X-114345Y29625D01*
X-114151Y30600D01*
X-114012Y30770D01*
X-98616D01*
X-98471Y30291D01*
X-99202Y29802D01*
X-99755Y28975D01*
X-99949Y28000D01*
X-99755Y27024D01*
X-99202Y26198D01*
X-98483Y25717D01*
Y25217D01*
X-99102Y24802D01*
X-99655Y23976D01*
X-99849Y23000D01*
X-99655Y22025D01*
X-99102Y21198D01*
X-98276Y20645D01*
X-97300Y20451D01*
X-96324Y20645D01*
X-95498Y21198D01*
X-94945Y22025D01*
X-94751Y23000D01*
X-94945Y23976D01*
X-95498Y24802D01*
X-96324Y25355D01*
X-96425Y25375D01*
Y25645D01*
X-95598Y26198D01*
X-95045Y27024D01*
X-94851Y28000D01*
X-95045Y28975D01*
X-95598Y29802D01*
X-96329Y30291D01*
X-96184Y30770D01*
X-94762D01*
X-88296Y24304D01*
X-87565Y23743D01*
X-86714Y23390D01*
X-85800Y23270D01*
X-12462D01*
X-3884Y14691D01*
X-4075Y14229D01*
X-7900D01*
X-8485Y14113D01*
X-8981Y13781D01*
X-9313Y13285D01*
X-9429Y12700D01*
Y-12500D01*
X-9313Y-13085D01*
X-8981Y-13581D01*
X-8485Y-13913D01*
X-7900Y-14029D01*
X1500D01*
X2085Y-13913D01*
X2581Y-13581D01*
X2913Y-13085D01*
X3029Y-12500D01*
Y-5721D01*
X3210Y-5285D01*
X3330Y-4372D01*
Y16000D01*
X3210Y16914D01*
X2857Y17765D01*
X2296Y18496D01*
X-8504Y29296D01*
X-9235Y29857D01*
X-10086Y30210D01*
X-11000Y30330D01*
X-84297D01*
X-84554Y30759D01*
X-84500Y30861D01*
X-84500Y30861D01*
X1500D01*
X2280Y31016D01*
X2942Y31458D01*
X7042Y35558D01*
X7042Y35558D01*
X7484Y36220D01*
X7484Y36220D01*
X7484Y36220D01*
X7639Y37000D01*
X7639Y37000D01*
Y94652D01*
X7955Y95125D01*
X8149Y96100D01*
X7955Y97075D01*
X7402Y97902D01*
X6575Y98455D01*
X5600Y98649D01*
X4625Y98455D01*
X3798Y97902D01*
X3245Y97075D01*
X3051Y96100D01*
X3245Y95125D01*
X3561Y94652D01*
Y75792D01*
X3174Y75475D01*
X2800Y75549D01*
X1825Y75355D01*
X998Y74802D01*
X445Y73975D01*
X251Y73000D01*
X445Y72025D01*
X998Y71198D01*
X1825Y70645D01*
X2800Y70451D01*
X3174Y70525D01*
X3561Y70208D01*
Y60841D01*
X2624Y60655D01*
X1798Y60102D01*
X1245Y59276D01*
X1051Y58300D01*
X1245Y57324D01*
X1798Y56498D01*
X2624Y55945D01*
X3561Y55759D01*
Y37845D01*
X655Y34939D01*
X-4024D01*
X-4215Y35401D01*
X-2358Y37258D01*
X-1916Y37920D01*
X-1761Y38700D01*
Y86418D01*
X-1374Y86735D01*
X-1137Y86688D01*
X-161Y86882D01*
X665Y87435D01*
X1218Y88261D01*
X1412Y89237D01*
X1218Y90213D01*
X665Y91039D01*
X-161Y91592D01*
X-1137Y91786D01*
X-1209Y91772D01*
X-1445Y92125D01*
X-1351Y92599D01*
X-935Y92877D01*
X-300Y92751D01*
X675Y92945D01*
X1502Y93498D01*
X2055Y94324D01*
X2249Y95300D01*
X2055Y96276D01*
X1502Y97102D01*
X675Y97655D01*
X-300Y97849D01*
X-1276Y97655D01*
X-2102Y97102D01*
X-2655Y96276D01*
X-2749Y95801D01*
X-3165Y95523D01*
X-3800Y95649D01*
X-4775Y95455D01*
X-5602Y94902D01*
X-6155Y94076D01*
X-6349Y93100D01*
X-6155Y92124D01*
X-5839Y91652D01*
Y39545D01*
X-8345Y37039D01*
X-9328D01*
X-9645Y37426D01*
X-9551Y37900D01*
X-9745Y38875D01*
X-10298Y39702D01*
X-10692Y39966D01*
Y40466D01*
X-10598Y40529D01*
X-10045Y41356D01*
X-9851Y42331D01*
X-10045Y43307D01*
X-10598Y44134D01*
X-11425Y44686D01*
X-12400Y44881D01*
X-13375Y44686D01*
X-14202Y44134D01*
X-14755Y43307D01*
X-14949Y42331D01*
X-14755Y41356D01*
X-14202Y40529D01*
X-13808Y40266D01*
Y39766D01*
X-13902Y39702D01*
X-14455Y38875D01*
X-14649Y37900D01*
X-14555Y37426D01*
X-14872Y37039D01*
X-33987D01*
X-34223Y37480D01*
X-34014Y37793D01*
X-33819Y38769D01*
X-34014Y39744D01*
X-34329Y40216D01*
Y61269D01*
X-34484Y62049D01*
X-34927Y62710D01*
X-38358Y66142D01*
X-39020Y66584D01*
X-39800Y66739D01*
X-42342D01*
X-42563Y67188D01*
X-42143Y67735D01*
X-41790Y68586D01*
X-41670Y69500D01*
X-41790Y70414D01*
X-42143Y71265D01*
X-42704Y71996D01*
X-43435Y72557D01*
X-44286Y72910D01*
X-45200Y73030D01*
X-46114Y72910D01*
X-46965Y72557D01*
X-47696Y71996D01*
X-48257Y71265D01*
X-48610Y70414D01*
X-48730Y69500D01*
X-48610Y68586D01*
X-48257Y67735D01*
X-47837Y67188D01*
X-48058Y66739D01*
X-72652D01*
X-73124Y67055D01*
X-74100Y67249D01*
X-75076Y67055D01*
X-75902Y66502D01*
X-76455Y65675D01*
X-76649Y64700D01*
X-76455Y63724D01*
X-75902Y62898D01*
X-75076Y62345D01*
X-74100Y62151D01*
X-73124Y62345D01*
X-72652Y62661D01*
X-55394D01*
X-55158Y62220D01*
X-55455Y61775D01*
X-55649Y60800D01*
X-55455Y59825D01*
X-54902Y58998D01*
X-54075Y58445D01*
X-53100Y58251D01*
X-52125Y58445D01*
X-51298Y58998D01*
X-50745Y59825D01*
X-50551Y60800D01*
X-50745Y61775D01*
X-51298Y62602D01*
X-51280Y62661D01*
X-40645D01*
X-38408Y60424D01*
Y40216D01*
X-38723Y39744D01*
X-38917Y38769D01*
X-38723Y37793D01*
X-38514Y37480D01*
X-38750Y37039D01*
X-59374D01*
X-59652Y37455D01*
X-59403Y38056D01*
X-59266Y39100D01*
X-59403Y40144D01*
X-59806Y41117D01*
X-60447Y41953D01*
X-61283Y42594D01*
X-62256Y42997D01*
X-63300Y43134D01*
X-74329D01*
X-94347Y63153D01*
X-95183Y63794D01*
X-96156Y64197D01*
X-97200Y64334D01*
X-97065Y64470D01*
X-92917D01*
X-92729Y63525D01*
X-92176Y62698D01*
X-91350Y62145D01*
X-90374Y61951D01*
X-89399Y62145D01*
X-88572Y62698D01*
X-88019Y63525D01*
X-87831Y64470D01*
X-86600D01*
X-85686Y64590D01*
X-84835Y64943D01*
X-84104Y65504D01*
X-83670Y65937D01*
X-83229Y65702D01*
X-83349Y65100D01*
X-83155Y64125D01*
X-82602Y63298D01*
X-81775Y62745D01*
X-80800Y62551D01*
X-79972Y62716D01*
X-79781Y62254D01*
X-80184Y61984D01*
X-80737Y61157D01*
X-80931Y60182D01*
X-80737Y59206D01*
X-80184Y58380D01*
X-79357Y57827D01*
X-78382Y57633D01*
X-77406Y57827D01*
X-76579Y58380D01*
X-76027Y59206D01*
X-75833Y60182D01*
X-76027Y61157D01*
X-76579Y61984D01*
X-77406Y62537D01*
X-78382Y62731D01*
X-79209Y62566D01*
X-79401Y63028D01*
X-78998Y63298D01*
X-78445Y64125D01*
X-78251Y65100D01*
X-78445Y66075D01*
X-78998Y66902D01*
X-79825Y67455D01*
X-80800Y67649D01*
X-81401Y67529D01*
X-81637Y67970D01*
X-70401Y79207D01*
X-69922Y79062D01*
X-69855Y78724D01*
X-69302Y77898D01*
X-68476Y77345D01*
X-67500Y77151D01*
X-66524Y77345D01*
X-65698Y77898D01*
X-65145Y78724D01*
X-64970Y79602D01*
X-64470D01*
X-64455Y79524D01*
X-63902Y78698D01*
X-63076Y78145D01*
X-62100Y77951D01*
X-61124Y78145D01*
X-60298Y78698D01*
X-59745Y79524D01*
X-59551Y80500D01*
X-59745Y81476D01*
X-60298Y82302D01*
X-61124Y82855D01*
X-62100Y83049D01*
X-63076Y82855D01*
X-63902Y82302D01*
X-64455Y81476D01*
X-64630Y80598D01*
X-65130D01*
X-65145Y80676D01*
X-65698Y81502D01*
X-66524Y82055D01*
X-66862Y82122D01*
X-67007Y82600D01*
X-65404Y84204D01*
X-64843Y84935D01*
X-64662Y85372D01*
X-64183Y85517D01*
X-63775Y85245D01*
X-62800Y85051D01*
X-61825Y85245D01*
X-60998Y85798D01*
X-60445Y86624D01*
X-60251Y87600D01*
X-60445Y88576D01*
X-60998Y89402D01*
X-61825Y89955D01*
X-62800Y90149D01*
X-63775Y89955D01*
X-63929Y89852D01*
X-64370Y90088D01*
Y99036D01*
X-63994Y99366D01*
X-63300Y99274D01*
X-62517Y99377D01*
X-61787Y99679D01*
X-61160Y100160D01*
X-60680Y100787D01*
X-60377Y101517D01*
X-60274Y102300D01*
X-60377Y103083D01*
X-60680Y103813D01*
X-61160Y104440D01*
X-61787Y104920D01*
X-62088Y105045D01*
X-62179Y105387D01*
X-61877Y106117D01*
X-61774Y106900D01*
X-61877Y107683D01*
X-62179Y108413D01*
X-62660Y109040D01*
X-63287Y109520D01*
X-64017Y109823D01*
X-64800Y109926D01*
X-65583Y109823D01*
X-66313Y109520D01*
X-66940Y109040D01*
X-67421Y108413D01*
X-67723Y107683D01*
X-67826Y106900D01*
X-67723Y106117D01*
X-67659Y105962D01*
X-67909Y105529D01*
X-68777Y105415D01*
X-69152Y105745D01*
Y116800D01*
X-69342Y118236D01*
X-69896Y119574D01*
X-70777Y120723D01*
X-71171Y121024D01*
Y121900D01*
X-71287Y122485D01*
X-71619Y122981D01*
X-72115Y123313D01*
X-72700Y123429D01*
D02*
G37*
G36*
X10800Y111149D02*
X9825Y110955D01*
X8998Y110402D01*
X8445Y109575D01*
X8251Y108600D01*
X8445Y107624D01*
X8998Y106798D01*
X9825Y106245D01*
X10800Y106051D01*
X11775Y106245D01*
X12602Y106798D01*
X13155Y107624D01*
X13349Y108600D01*
X13155Y109575D01*
X12602Y110402D01*
X11775Y110955D01*
X10800Y111149D01*
D02*
G37*
G36*
X202100Y106449D02*
X201125Y106255D01*
X200298Y105702D01*
X199745Y104876D01*
X199551Y103900D01*
X199745Y102925D01*
X200298Y102098D01*
X201125Y101545D01*
X202100Y101351D01*
X203076Y101545D01*
X203902Y102098D01*
X204455Y102925D01*
X204649Y103900D01*
X204455Y104876D01*
X203902Y105702D01*
X203076Y106255D01*
X202100Y106449D01*
D02*
G37*
G36*
X84980Y105729D02*
X84004Y105535D01*
X83178Y104982D01*
X82625Y104155D01*
X82431Y103180D01*
X82625Y102205D01*
X83178Y101378D01*
X84004Y100825D01*
X84980Y100631D01*
X85955Y100825D01*
X86782Y101378D01*
X87335Y102205D01*
X87529Y103180D01*
X87335Y104155D01*
X86782Y104982D01*
X85955Y105535D01*
X84980Y105729D01*
D02*
G37*
G36*
X-20000Y113149D02*
X-20976Y112955D01*
X-21802Y112402D01*
X-22355Y111575D01*
X-22549Y110600D01*
X-22355Y109625D01*
X-21802Y108798D01*
X-21590Y108656D01*
X-21639Y108158D01*
X-22213Y107921D01*
X-22840Y107440D01*
X-23321Y106813D01*
X-23623Y106083D01*
X-23726Y105300D01*
X-23623Y104517D01*
X-23321Y103787D01*
X-22840Y103160D01*
X-22213Y102680D01*
X-21483Y102377D01*
X-20700Y102274D01*
X-19917Y102377D01*
X-19187Y102680D01*
X-18560Y103160D01*
X-18079Y103787D01*
X-17777Y104517D01*
X-17674Y105300D01*
X-17777Y106083D01*
X-18079Y106813D01*
X-18560Y107440D01*
X-19187Y107921D01*
X-19158Y108219D01*
X-19025Y108245D01*
X-18198Y108798D01*
X-17645Y109625D01*
X-17451Y110600D01*
X-17645Y111575D01*
X-18198Y112402D01*
X-19025Y112955D01*
X-20000Y113149D01*
D02*
G37*
G36*
X140700Y105249D02*
X139725Y105055D01*
X138898Y104502D01*
X138345Y103675D01*
X138151Y102700D01*
X138247Y102218D01*
X138241Y102203D01*
X137907Y101846D01*
X137300Y101926D01*
X136517Y101823D01*
X135787Y101521D01*
X135160Y101040D01*
X134679Y100413D01*
X134377Y99683D01*
X134274Y98900D01*
X134377Y98117D01*
X134679Y97387D01*
X135160Y96760D01*
X135787Y96280D01*
X136517Y95977D01*
X137300Y95874D01*
X138083Y95977D01*
X138813Y96280D01*
X139440Y96760D01*
X139920Y97387D01*
X140223Y98117D01*
X140326Y98900D01*
X140223Y99683D01*
X140172Y99806D01*
X140489Y100193D01*
X140700Y100151D01*
X141675Y100345D01*
X142502Y100898D01*
X143055Y101725D01*
X143249Y102700D01*
X143055Y103675D01*
X142502Y104502D01*
X141675Y105055D01*
X140700Y105249D01*
D02*
G37*
G36*
X162400Y99926D02*
X161617Y99823D01*
X160887Y99520D01*
X160260Y99040D01*
X159780Y98413D01*
X159477Y97683D01*
X159374Y96900D01*
X159477Y96117D01*
X159780Y95387D01*
X160260Y94760D01*
X160887Y94279D01*
X161617Y93977D01*
X162400Y93874D01*
X163183Y93977D01*
X163913Y94279D01*
X164540Y94760D01*
X165021Y95387D01*
X165323Y96117D01*
X165426Y96900D01*
X165323Y97683D01*
X165021Y98413D01*
X164540Y99040D01*
X163913Y99520D01*
X163183Y99823D01*
X162400Y99926D01*
D02*
G37*
G36*
X170300Y91526D02*
X169517Y91423D01*
X168787Y91120D01*
X168160Y90640D01*
X167680Y90013D01*
X167377Y89283D01*
X167274Y88500D01*
X167377Y87717D01*
X167680Y86987D01*
X168160Y86360D01*
X168787Y85879D01*
X169517Y85577D01*
X170300Y85474D01*
X171083Y85577D01*
X171813Y85879D01*
X172440Y86360D01*
X172921Y86987D01*
X173223Y87717D01*
X173326Y88500D01*
X173223Y89283D01*
X172921Y90013D01*
X172440Y90640D01*
X171813Y91120D01*
X171083Y91423D01*
X170300Y91526D01*
D02*
G37*
G36*
X22532Y89780D02*
X21556Y89587D01*
X20729Y89034D01*
X20177Y88207D01*
X19983Y87231D01*
X20177Y86256D01*
X20729Y85429D01*
X21556Y84877D01*
X22532Y84683D01*
X23507Y84877D01*
X24334Y85429D01*
X24886Y86256D01*
X25080Y87231D01*
X24886Y88207D01*
X24334Y89034D01*
X23507Y89587D01*
X22532Y89780D01*
D02*
G37*
G36*
X-22700Y91349D02*
X-23675Y91155D01*
X-24502Y90602D01*
X-25055Y89776D01*
X-25249Y88800D01*
X-25055Y87824D01*
X-24502Y86998D01*
X-23675Y86445D01*
X-22700Y86251D01*
X-21724Y86445D01*
X-20898Y86998D01*
X-20345Y87824D01*
X-20151Y88800D01*
X-20345Y89776D01*
X-20898Y90602D01*
X-21724Y91155D01*
X-22700Y91349D01*
D02*
G37*
G36*
X-9011Y90860D02*
X-9986Y90666D01*
X-10813Y90113D01*
X-11366Y89287D01*
X-11560Y88311D01*
X-11366Y87336D01*
X-10813Y86509D01*
X-9986Y85956D01*
X-9011Y85762D01*
X-8036Y85956D01*
X-7209Y86509D01*
X-6656Y87336D01*
X-6462Y88311D01*
X-6656Y89287D01*
X-7209Y90113D01*
X-8036Y90666D01*
X-9011Y90860D01*
D02*
G37*
G36*
X38400Y84149D02*
X37424Y83955D01*
X36598Y83402D01*
X36045Y82576D01*
X35851Y81600D01*
X36045Y80625D01*
X36598Y79798D01*
X37424Y79245D01*
X38400Y79051D01*
X39375Y79245D01*
X40202Y79798D01*
X40755Y80625D01*
X40949Y81600D01*
X40755Y82576D01*
X40202Y83402D01*
X39375Y83955D01*
X38400Y84149D01*
D02*
G37*
G36*
X-57500Y87349D02*
X-58476Y87155D01*
X-59302Y86602D01*
X-59855Y85776D01*
X-60049Y84800D01*
X-59855Y83824D01*
X-59302Y82998D01*
X-58476Y82445D01*
X-57500Y82251D01*
X-56524Y82445D01*
X-56487Y82470D01*
X-56072Y82192D01*
X-56249Y81300D01*
X-56055Y80325D01*
X-55502Y79498D01*
X-54676Y78945D01*
X-53700Y78751D01*
X-52724Y78945D01*
X-51898Y79498D01*
X-51345Y80325D01*
X-51151Y81300D01*
X-51345Y82275D01*
X-51898Y83102D01*
X-52724Y83655D01*
X-53700Y83849D01*
X-54676Y83655D01*
X-54713Y83630D01*
X-55129Y83908D01*
X-54951Y84800D01*
X-55145Y85776D01*
X-55698Y86602D01*
X-56524Y87155D01*
X-57500Y87349D01*
D02*
G37*
G36*
X132200Y86849D02*
X131225Y86655D01*
X130398Y86102D01*
X129845Y85276D01*
X129651Y84300D01*
X129845Y83324D01*
X130398Y82498D01*
X131225Y81945D01*
X132200Y81751D01*
X133176Y81945D01*
X134002Y82498D01*
X134555Y83324D01*
X134749Y84300D01*
X134555Y85276D01*
X134002Y86102D01*
X133176Y86655D01*
X132200Y86849D01*
D02*
G37*
G36*
X162481Y86849D02*
X161496Y86720D01*
X160579Y86339D01*
X159791Y85735D01*
X159187Y84947D01*
X158807Y84030D01*
X158677Y83045D01*
X158807Y82060D01*
X159187Y81143D01*
X159791Y80355D01*
X160579Y79750D01*
X161496Y79370D01*
X162481Y79241D01*
X163466Y79370D01*
X164383Y79750D01*
X165171Y80355D01*
X165776Y81143D01*
X166156Y82060D01*
X166285Y83045D01*
X166156Y84030D01*
X165776Y84947D01*
X165171Y85735D01*
X164383Y86339D01*
X163466Y86720D01*
X162481Y86849D01*
D02*
G37*
G36*
X127600Y92526D02*
X126817Y92423D01*
X126087Y92120D01*
X125460Y91640D01*
X124979Y91013D01*
X124677Y90283D01*
X124574Y89500D01*
X124677Y88717D01*
X124979Y87987D01*
X125460Y87360D01*
X126087Y86879D01*
X126817Y86577D01*
X127600Y86474D01*
X128383Y86577D01*
X129113Y86879D01*
X129740Y87360D01*
X130220Y87987D01*
X130523Y88717D01*
X130626Y89500D01*
X130523Y90283D01*
X130220Y91013D01*
X129740Y91640D01*
X129113Y92120D01*
X128383Y92423D01*
X127600Y92526D01*
D02*
G37*
G36*
X145600Y96049D02*
X144624Y95855D01*
X143798Y95302D01*
X143245Y94476D01*
X143051Y93500D01*
X143245Y92524D01*
X143798Y91698D01*
X144624Y91145D01*
X145600Y90951D01*
X146575Y91145D01*
X147402Y91698D01*
X147955Y92524D01*
X148149Y93500D01*
X147955Y94476D01*
X147402Y95302D01*
X146575Y95855D01*
X145600Y96049D01*
D02*
G37*
G36*
X99700D02*
X98725Y95855D01*
X97898Y95302D01*
X97345Y94476D01*
X97151Y93500D01*
X97345Y92524D01*
X97898Y91698D01*
X98725Y91145D01*
X99700Y90951D01*
X100675Y91145D01*
X101502Y91698D01*
X102055Y92524D01*
X102249Y93500D01*
X102055Y94476D01*
X101502Y95302D01*
X100675Y95855D01*
X99700Y96049D01*
D02*
G37*
G36*
X-9600Y98526D02*
X-10383Y98423D01*
X-11113Y98120D01*
X-11740Y97640D01*
X-12220Y97013D01*
X-12523Y96283D01*
X-12626Y95500D01*
X-12523Y94717D01*
X-12220Y93987D01*
X-11740Y93360D01*
X-11113Y92879D01*
X-10383Y92577D01*
X-9600Y92474D01*
X-8817Y92577D01*
X-8087Y92879D01*
X-7460Y93360D01*
X-6979Y93987D01*
X-6677Y94717D01*
X-6574Y95500D01*
X-6677Y96283D01*
X-6979Y97013D01*
X-7460Y97640D01*
X-8087Y98120D01*
X-8817Y98423D01*
X-9600Y98526D01*
D02*
G37*
G36*
X199100Y97549D02*
X198125Y97355D01*
X197298Y96802D01*
X196745Y95976D01*
X196551Y95000D01*
X196745Y94024D01*
X197298Y93198D01*
X198125Y92645D01*
X199100Y92451D01*
X200076Y92645D01*
X200902Y93198D01*
X201455Y94024D01*
X201649Y95000D01*
X201455Y95976D01*
X200902Y96802D01*
X200076Y97355D01*
X199100Y97549D01*
D02*
G37*
G36*
X72700Y94049D02*
X71724Y93855D01*
X70898Y93302D01*
X70345Y92475D01*
X70151Y91500D01*
X70345Y90525D01*
X70898Y89698D01*
X71724Y89145D01*
X72700Y88951D01*
X73676Y89145D01*
X74502Y89698D01*
X75055Y90525D01*
X75249Y91500D01*
X75055Y92475D01*
X74502Y93302D01*
X73676Y93855D01*
X72700Y94049D01*
D02*
G37*
G36*
X205400Y93649D02*
X204425Y93455D01*
X203598Y92902D01*
X203045Y92076D01*
X202851Y91100D01*
X203045Y90124D01*
X203598Y89298D01*
X204425Y88745D01*
X205400Y88551D01*
X206376Y88745D01*
X207202Y89298D01*
X207755Y90124D01*
X207949Y91100D01*
X207755Y92076D01*
X207202Y92902D01*
X206376Y93455D01*
X205400Y93649D01*
D02*
G37*
G36*
X-17100Y95949D02*
X-18076Y95755D01*
X-18902Y95202D01*
X-19455Y94375D01*
X-19649Y93400D01*
X-19455Y92424D01*
X-18902Y91598D01*
X-18076Y91045D01*
X-17100Y90851D01*
X-16125Y91045D01*
X-15298Y91598D01*
X-14745Y92424D01*
X-14551Y93400D01*
X-14745Y94375D01*
X-15298Y95202D01*
X-16125Y95755D01*
X-17100Y95949D01*
D02*
G37*
G36*
X-55300Y95049D02*
X-56275Y94855D01*
X-57102Y94302D01*
X-57655Y93476D01*
X-57849Y92500D01*
X-57655Y91524D01*
X-57102Y90698D01*
X-56275Y90145D01*
X-55300Y89951D01*
X-54325Y90145D01*
X-53498Y90698D01*
X-52945Y91524D01*
X-52751Y92500D01*
X-52945Y93476D01*
X-53498Y94302D01*
X-54325Y94855D01*
X-55300Y95049D01*
D02*
G37*
G36*
X78700Y44849D02*
X77724Y44655D01*
X76898Y44102D01*
X76345Y43275D01*
X76151Y42300D01*
X76345Y41324D01*
X76898Y40498D01*
X77079Y40376D01*
X76745Y39876D01*
X76558Y38936D01*
X76068Y38839D01*
X75912Y39072D01*
X73342Y41642D01*
X72680Y42084D01*
X71900Y42239D01*
X56648D01*
X56176Y42555D01*
X55200Y42749D01*
X54224Y42555D01*
X53398Y42002D01*
X52845Y41175D01*
X52651Y40200D01*
X52845Y39224D01*
X53398Y38398D01*
X54224Y37845D01*
X55200Y37651D01*
X56176Y37845D01*
X56648Y38161D01*
X71055D01*
X72431Y36785D01*
Y33133D01*
X72044Y32815D01*
X71776Y32869D01*
X71655Y33476D01*
X71102Y34302D01*
X70275Y34855D01*
X69300Y35049D01*
X68325Y34855D01*
X67498Y34302D01*
X66945Y33476D01*
X66751Y32500D01*
X66945Y31525D01*
X67498Y30698D01*
X68325Y30145D01*
X69300Y29951D01*
X70275Y30145D01*
X71102Y30698D01*
X71504Y31299D01*
X71995Y31201D01*
X72115Y30595D01*
X72668Y29768D01*
X73495Y29215D01*
X74470Y29021D01*
X75445Y29215D01*
X76272Y29768D01*
X76478Y30075D01*
X77100Y29951D01*
X78075Y30145D01*
X78902Y30698D01*
X79455Y31525D01*
X79649Y32500D01*
X79455Y33476D01*
X78902Y34302D01*
X78075Y34855D01*
X77100Y35049D01*
X76896Y35008D01*
X76509Y35326D01*
Y37416D01*
X76988Y37561D01*
X77298Y37098D01*
X78124Y36545D01*
X79100Y36351D01*
X80076Y36545D01*
X80902Y37098D01*
X81455Y37925D01*
X81649Y38900D01*
X81455Y39876D01*
X80902Y40702D01*
X80721Y40824D01*
X81055Y41324D01*
X81249Y42300D01*
X81055Y43275D01*
X80502Y44102D01*
X79676Y44655D01*
X78700Y44849D01*
D02*
G37*
G36*
X183500Y-3651D02*
X182525Y-3845D01*
X181698Y-4398D01*
X181145Y-5224D01*
X180951Y-6200D01*
X181145Y-7175D01*
X181698Y-8002D01*
X182525Y-8555D01*
X183500Y-8749D01*
X184476Y-8555D01*
X185302Y-8002D01*
X185855Y-7175D01*
X186049Y-6200D01*
X185855Y-5224D01*
X185302Y-4398D01*
X184476Y-3845D01*
X183500Y-3651D01*
D02*
G37*
G36*
X174600Y-4151D02*
X173625Y-4345D01*
X172798Y-4898D01*
X172245Y-5725D01*
X172051Y-6700D01*
X172245Y-7675D01*
X172798Y-8502D01*
X173625Y-9055D01*
X174600Y-9249D01*
X175575Y-9055D01*
X176402Y-8502D01*
X176955Y-7675D01*
X177149Y-6700D01*
X176955Y-5725D01*
X176402Y-4898D01*
X175575Y-4345D01*
X174600Y-4151D01*
D02*
G37*
G36*
X119100Y-3451D02*
X118124Y-3645D01*
X117298Y-4198D01*
X116745Y-5024D01*
X116551Y-6000D01*
X116745Y-6975D01*
X117298Y-7802D01*
X118124Y-8355D01*
X119100Y-8549D01*
X120076Y-8355D01*
X120902Y-7802D01*
X121455Y-6975D01*
X121649Y-6000D01*
X121455Y-5024D01*
X120902Y-4198D01*
X120076Y-3645D01*
X119100Y-3451D01*
D02*
G37*
G36*
X-142000Y-2674D02*
X-142783Y-2777D01*
X-143513Y-3080D01*
X-144140Y-3560D01*
X-144621Y-4187D01*
X-144923Y-4917D01*
X-145026Y-5700D01*
X-144923Y-6483D01*
X-144621Y-7213D01*
X-144140Y-7840D01*
X-143513Y-8320D01*
X-142783Y-8623D01*
X-142000Y-8726D01*
X-141217Y-8623D01*
X-140487Y-8320D01*
X-139860Y-7840D01*
X-139380Y-7213D01*
X-139077Y-6483D01*
X-138974Y-5700D01*
X-139077Y-4917D01*
X-139380Y-4187D01*
X-139860Y-3560D01*
X-140487Y-3080D01*
X-141217Y-2777D01*
X-142000Y-2674D01*
D02*
G37*
G36*
X85632Y-5647D02*
X81679D01*
Y-9600D01*
X85632D01*
Y-5647D01*
D02*
G37*
G36*
X22800Y-4951D02*
X21824Y-5145D01*
X20998Y-5698D01*
X20445Y-6525D01*
X20251Y-7500D01*
X20445Y-8475D01*
X20998Y-9302D01*
X21824Y-9855D01*
X22800Y-10049D01*
X23776Y-9855D01*
X24602Y-9302D01*
X25155Y-8475D01*
X25349Y-7500D01*
X25155Y-6525D01*
X24602Y-5698D01*
X23776Y-5145D01*
X22800Y-4951D01*
D02*
G37*
G36*
X-105800Y-4451D02*
X-106775Y-4645D01*
X-107602Y-5198D01*
X-108155Y-6024D01*
X-108349Y-7000D01*
X-108155Y-7975D01*
X-107602Y-8802D01*
X-106775Y-9355D01*
X-105800Y-9549D01*
X-104824Y-9355D01*
X-103998Y-8802D01*
X-103445Y-7975D01*
X-103251Y-7000D01*
X-103445Y-6024D01*
X-103998Y-5198D01*
X-104824Y-4645D01*
X-105800Y-4451D01*
D02*
G37*
G36*
X90584Y-5647D02*
X86632D01*
Y-9600D01*
X90584D01*
Y-5647D01*
D02*
G37*
G36*
X134000Y-3351D02*
X133025Y-3545D01*
X132198Y-4098D01*
X131645Y-4924D01*
X131451Y-5900D01*
X131645Y-6875D01*
X132198Y-7702D01*
X133025Y-8255D01*
X134000Y-8449D01*
X134976Y-8255D01*
X135802Y-7702D01*
X136355Y-6875D01*
X136549Y-5900D01*
X136355Y-4924D01*
X135802Y-4098D01*
X134976Y-3545D01*
X134000Y-3351D01*
D02*
G37*
G36*
X143400Y-151D02*
X142424Y-345D01*
X141598Y-898D01*
X141045Y-1725D01*
X140851Y-2700D01*
X141045Y-3675D01*
X141598Y-4502D01*
X142424Y-5055D01*
X143400Y-5249D01*
X144376Y-5055D01*
X145202Y-4502D01*
X145755Y-3675D01*
X145949Y-2700D01*
X145755Y-1725D01*
X145202Y-898D01*
X144376Y-345D01*
X143400Y-151D01*
D02*
G37*
G36*
X125400D02*
X124425Y-345D01*
X123598Y-898D01*
X123045Y-1725D01*
X122851Y-2700D01*
X123045Y-3675D01*
X123598Y-4502D01*
X124425Y-5055D01*
X125400Y-5249D01*
X126375Y-5055D01*
X127202Y-4502D01*
X127755Y-3675D01*
X127949Y-2700D01*
X127755Y-1725D01*
X127202Y-898D01*
X126375Y-345D01*
X125400Y-151D01*
D02*
G37*
G36*
X33900Y1126D02*
X33117Y1023D01*
X32387Y721D01*
X31760Y240D01*
X31280Y-387D01*
X30977Y-1117D01*
X30874Y-1900D01*
X30977Y-2683D01*
X31280Y-3413D01*
X31760Y-4040D01*
X32387Y-4521D01*
X33117Y-4823D01*
X33900Y-4926D01*
X34683Y-4823D01*
X35413Y-4521D01*
X36040Y-4040D01*
X36520Y-3413D01*
X36823Y-2683D01*
X36926Y-1900D01*
X36823Y-1117D01*
X36520Y-387D01*
X36040Y240D01*
X35413Y721D01*
X34683Y1023D01*
X33900Y1126D01*
D02*
G37*
G36*
X-16997Y146D02*
X-17972Y-48D01*
X-18799Y-601D01*
X-19352Y-1428D01*
X-19546Y-2403D01*
X-19352Y-3379D01*
X-18799Y-4206D01*
X-17972Y-4758D01*
X-16997Y-4952D01*
X-16021Y-4758D01*
X-15194Y-4206D01*
X-14642Y-3379D01*
X-14448Y-2403D01*
X-14642Y-1428D01*
X-15194Y-601D01*
X-16021Y-48D01*
X-16997Y146D01*
D02*
G37*
G36*
X193900Y-2251D02*
X192924Y-2445D01*
X192098Y-2998D01*
X191545Y-3824D01*
X191351Y-4800D01*
X191545Y-5776D01*
X192098Y-6602D01*
X192924Y-7155D01*
X193900Y-7349D01*
X194876Y-7155D01*
X195702Y-6602D01*
X196255Y-5776D01*
X196449Y-4800D01*
X196255Y-3824D01*
X195702Y-2998D01*
X194876Y-2445D01*
X193900Y-2251D01*
D02*
G37*
G36*
X104900Y-2651D02*
X103925Y-2845D01*
X103098Y-3398D01*
X102545Y-4225D01*
X102351Y-5200D01*
X102545Y-6176D01*
X103098Y-7002D01*
X103925Y-7555D01*
X104900Y-7749D01*
X105876Y-7555D01*
X106702Y-7002D01*
X107255Y-6176D01*
X107449Y-5200D01*
X107255Y-4225D01*
X106702Y-3398D01*
X105876Y-2845D01*
X104900Y-2651D01*
D02*
G37*
G36*
X-96300Y-151D02*
X-97276Y-345D01*
X-98102Y-898D01*
X-98655Y-1725D01*
X-98849Y-2700D01*
X-98655Y-3675D01*
X-98102Y-4502D01*
X-97276Y-5055D01*
X-96300Y-5249D01*
X-95324Y-5055D01*
X-94498Y-4502D01*
X-93945Y-3675D01*
X-93751Y-2700D01*
X-93945Y-1725D01*
X-94498Y-898D01*
X-95324Y-345D01*
X-96300Y-151D01*
D02*
G37*
G36*
X51731Y-420D02*
X50756Y-614D01*
X49929Y-1166D01*
X49376Y-1993D01*
X49183Y-2968D01*
X49376Y-3944D01*
X49929Y-4771D01*
X50756Y-5323D01*
X51731Y-5517D01*
X52707Y-5323D01*
X53534Y-4771D01*
X54087Y-3944D01*
X54281Y-2968D01*
X54087Y-1993D01*
X53534Y-1166D01*
X52707Y-614D01*
X51731Y-420D01*
D02*
G37*
G36*
X-16991Y-5760D02*
X-17967Y-5954D01*
X-18794Y-6506D01*
X-19346Y-7333D01*
X-19540Y-8309D01*
X-19346Y-9284D01*
X-18794Y-10111D01*
X-17967Y-10664D01*
X-16991Y-10858D01*
X-16016Y-10664D01*
X-15189Y-10111D01*
X-14636Y-9284D01*
X-14442Y-8309D01*
X-14636Y-7333D01*
X-15189Y-6506D01*
X-16016Y-5954D01*
X-16991Y-5760D01*
D02*
G37*
G36*
X76131Y-5609D02*
X74969Y-5762D01*
X73886Y-6211D01*
X72956Y-6924D01*
X72242Y-7854D01*
X71793Y-8938D01*
X71640Y-10100D01*
X71793Y-11262D01*
X72242Y-12346D01*
X72956Y-13276D01*
X73886Y-13990D01*
X74969Y-14438D01*
X76131Y-14591D01*
X77294Y-14438D01*
X78377Y-13990D01*
X79307Y-13276D01*
X80021Y-12346D01*
X80470Y-11262D01*
X80623Y-10100D01*
X80470Y-8938D01*
X80021Y-7854D01*
X79307Y-6924D01*
X78377Y-6211D01*
X77294Y-5762D01*
X76131Y-5609D01*
D02*
G37*
G36*
X66132D02*
X64969Y-5762D01*
X63886Y-6211D01*
X62956Y-6924D01*
X62242Y-7854D01*
X61793Y-8938D01*
X61640Y-10100D01*
X61793Y-11262D01*
X62242Y-12346D01*
X62956Y-13276D01*
X63886Y-13990D01*
X64969Y-14438D01*
X66132Y-14591D01*
X67294Y-14438D01*
X68377Y-13990D01*
X69307Y-13276D01*
X70021Y-12346D01*
X70470Y-11262D01*
X70623Y-10100D01*
X70470Y-8938D01*
X70021Y-7854D01*
X69307Y-6924D01*
X68377Y-6211D01*
X67294Y-5762D01*
X66132Y-5609D01*
D02*
G37*
G36*
X90584Y-10600D02*
X86632D01*
Y-14553D01*
X90584D01*
Y-10600D01*
D02*
G37*
G36*
X85632D02*
X81679D01*
Y-14553D01*
X85632D01*
Y-10600D01*
D02*
G37*
G36*
X31100Y-8874D02*
X30317Y-8977D01*
X29587Y-9279D01*
X28960Y-9760D01*
X28479Y-10387D01*
X28177Y-11117D01*
X28074Y-11900D01*
X28177Y-12683D01*
X28479Y-13413D01*
X28960Y-14040D01*
X29587Y-14521D01*
X30317Y-14823D01*
X31100Y-14926D01*
X31883Y-14823D01*
X32613Y-14521D01*
X33240Y-14040D01*
X33720Y-13413D01*
X34023Y-12683D01*
X34126Y-11900D01*
X34023Y-11117D01*
X33720Y-10387D01*
X33240Y-9760D01*
X32613Y-9279D01*
X31883Y-8977D01*
X31100Y-8874D01*
D02*
G37*
G36*
X167500Y-5851D02*
X166525Y-6045D01*
X165698Y-6598D01*
X165145Y-7425D01*
X164951Y-8400D01*
X165145Y-9375D01*
X165698Y-10202D01*
X166093Y-10467D01*
Y-10967D01*
X165598Y-11298D01*
X165045Y-12125D01*
X164851Y-13100D01*
X165045Y-14075D01*
X165598Y-14902D01*
X166425Y-15455D01*
X167400Y-15649D01*
X168376Y-15455D01*
X169202Y-14902D01*
X169755Y-14075D01*
X169949Y-13100D01*
X169755Y-12125D01*
X169202Y-11298D01*
X168465Y-10805D01*
X168475Y-10755D01*
X169302Y-10202D01*
X169855Y-9375D01*
X170049Y-8400D01*
X169855Y-7425D01*
X169302Y-6598D01*
X168475Y-6045D01*
X167500Y-5851D01*
D02*
G37*
G36*
X56132Y-5609D02*
X54969Y-5762D01*
X53886Y-6211D01*
X52956Y-6924D01*
X52242Y-7854D01*
X51793Y-8938D01*
X51640Y-10100D01*
X51793Y-11262D01*
X52242Y-12346D01*
X52956Y-13276D01*
X53886Y-13990D01*
X54969Y-14438D01*
X56132Y-14591D01*
X57294Y-14438D01*
X58377Y-13990D01*
X59307Y-13276D01*
X60021Y-12346D01*
X60470Y-11262D01*
X60623Y-10100D01*
X60470Y-8938D01*
X60021Y-7854D01*
X59307Y-6924D01*
X58377Y-6211D01*
X57294Y-5762D01*
X56132Y-5609D01*
D02*
G37*
G36*
X102600Y-9751D02*
X101625Y-9945D01*
X100798Y-10498D01*
X100245Y-11325D01*
X100051Y-12300D01*
X100245Y-13275D01*
X100798Y-14102D01*
X101625Y-14655D01*
X102600Y-14849D01*
X103576Y-14655D01*
X104402Y-14102D01*
X104955Y-13275D01*
X105149Y-12300D01*
X104955Y-11325D01*
X104402Y-10498D01*
X103576Y-9945D01*
X102600Y-9751D01*
D02*
G37*
G36*
X118800Y-9451D02*
X117824Y-9645D01*
X116998Y-10198D01*
X116445Y-11025D01*
X116251Y-12000D01*
X116445Y-12976D01*
X116998Y-13802D01*
X117824Y-14355D01*
X118800Y-14549D01*
X119775Y-14355D01*
X120602Y-13802D01*
X121155Y-12976D01*
X121349Y-12000D01*
X121155Y-11025D01*
X120602Y-10198D01*
X119775Y-9645D01*
X118800Y-9451D01*
D02*
G37*
G36*
X-84100Y-6951D02*
X-85075Y-7145D01*
X-85902Y-7698D01*
X-86455Y-8525D01*
X-86649Y-9500D01*
X-86455Y-10475D01*
X-85902Y-11302D01*
X-85075Y-11855D01*
X-84100Y-12049D01*
X-83125Y-11855D01*
X-82298Y-11302D01*
X-81745Y-10475D01*
X-81551Y-9500D01*
X-81745Y-8525D01*
X-82298Y-7698D01*
X-83125Y-7145D01*
X-84100Y-6951D01*
D02*
G37*
G36*
X-147500D02*
X-148476Y-7145D01*
X-149302Y-7698D01*
X-149855Y-8525D01*
X-150049Y-9500D01*
X-149855Y-10475D01*
X-149302Y-11302D01*
X-148476Y-11855D01*
X-147500Y-12049D01*
X-146525Y-11855D01*
X-145698Y-11302D01*
X-145145Y-10475D01*
X-144951Y-9500D01*
X-145145Y-8525D01*
X-145698Y-7698D01*
X-146525Y-7145D01*
X-147500Y-6951D01*
D02*
G37*
G36*
X-99700Y-6451D02*
X-100675Y-6645D01*
X-101502Y-7198D01*
X-102055Y-8025D01*
X-102249Y-9000D01*
X-102055Y-9975D01*
X-101502Y-10802D01*
X-100675Y-11355D01*
X-99700Y-11549D01*
X-98725Y-11355D01*
X-97898Y-10802D01*
X-97345Y-9975D01*
X-97151Y-9000D01*
X-97345Y-8025D01*
X-97898Y-7198D01*
X-98725Y-6645D01*
X-99700Y-6451D01*
D02*
G37*
G36*
X-91700Y-6751D02*
X-92676Y-6945D01*
X-93502Y-7498D01*
X-94055Y-8325D01*
X-94249Y-9300D01*
X-94055Y-10275D01*
X-93502Y-11102D01*
X-92676Y-11655D01*
X-91700Y-11849D01*
X-90724Y-11655D01*
X-89898Y-11102D01*
X-89345Y-10275D01*
X-89151Y-9300D01*
X-89345Y-8325D01*
X-89898Y-7498D01*
X-90724Y-6945D01*
X-91700Y-6751D01*
D02*
G37*
G36*
X194500Y-8651D02*
X193525Y-8845D01*
X192698Y-9398D01*
X192145Y-10225D01*
X191951Y-11200D01*
X192145Y-12175D01*
X192698Y-13002D01*
X193525Y-13555D01*
X194500Y-13749D01*
X195475Y-13555D01*
X196302Y-13002D01*
X196855Y-12175D01*
X197049Y-11200D01*
X196855Y-10225D01*
X196302Y-9398D01*
X195475Y-8845D01*
X194500Y-8651D01*
D02*
G37*
G36*
X38400Y-8951D02*
X37424Y-9145D01*
X36598Y-9698D01*
X36045Y-10525D01*
X35851Y-11500D01*
X36045Y-12475D01*
X36598Y-13302D01*
X37424Y-13855D01*
X38400Y-14049D01*
X39375Y-13855D01*
X40202Y-13302D01*
X40755Y-12475D01*
X40949Y-11500D01*
X40755Y-10525D01*
X40202Y-9698D01*
X39375Y-9145D01*
X38400Y-8951D01*
D02*
G37*
G36*
X-54043Y-7308D02*
X-55019Y-7502D01*
X-55846Y-8054D01*
X-56398Y-8881D01*
X-56592Y-9857D01*
X-56398Y-10832D01*
X-55846Y-11659D01*
X-55019Y-12212D01*
X-54043Y-12406D01*
X-53068Y-12212D01*
X-52241Y-11659D01*
X-51688Y-10832D01*
X-51494Y-9857D01*
X-51688Y-8881D01*
X-52241Y-8054D01*
X-53068Y-7502D01*
X-54043Y-7308D01*
D02*
G37*
G36*
X-60135Y-7316D02*
X-61110Y-7510D01*
X-61937Y-8063D01*
X-62490Y-8890D01*
X-62684Y-9865D01*
X-62490Y-10841D01*
X-61937Y-11668D01*
X-61110Y-12220D01*
X-60135Y-12414D01*
X-59159Y-12220D01*
X-58332Y-11668D01*
X-57780Y-10841D01*
X-57586Y-9865D01*
X-57780Y-8890D01*
X-58332Y-8063D01*
X-59159Y-7510D01*
X-60135Y-7316D01*
D02*
G37*
G36*
X-21200Y21049D02*
X-22175Y20855D01*
X-23002Y20302D01*
X-23555Y19476D01*
X-23749Y18500D01*
X-23555Y17525D01*
X-23002Y16698D01*
X-22175Y16145D01*
X-21200Y15951D01*
X-20224Y16145D01*
X-19398Y16698D01*
X-18845Y17525D01*
X-18651Y18500D01*
X-18845Y19476D01*
X-19398Y20302D01*
X-20224Y20855D01*
X-21200Y21049D01*
D02*
G37*
G36*
X158500Y20849D02*
X157525Y20655D01*
X156698Y20102D01*
X156145Y19275D01*
X155951Y18300D01*
X156145Y17324D01*
X156698Y16498D01*
X157525Y15945D01*
X158500Y15751D01*
X159476Y15945D01*
X160302Y16498D01*
X160855Y17324D01*
X161049Y18300D01*
X160855Y19275D01*
X160302Y20102D01*
X159476Y20655D01*
X158500Y20849D01*
D02*
G37*
G36*
X185000Y24549D02*
X184025Y24355D01*
X183198Y23802D01*
X182645Y22975D01*
X182451Y22000D01*
X182645Y21024D01*
X183198Y20198D01*
X184025Y19645D01*
X185000Y19451D01*
X185976Y19645D01*
X186802Y20198D01*
X187355Y21024D01*
X187549Y22000D01*
X187355Y22975D01*
X186802Y23802D01*
X185976Y24355D01*
X185000Y24549D01*
D02*
G37*
G36*
X211931Y24048D02*
X211026Y23929D01*
X210182Y23580D01*
X209458Y23024D01*
X208902Y22299D01*
X208552Y21455D01*
X208433Y20550D01*
X208552Y19645D01*
X208902Y18801D01*
X209458Y18076D01*
X210182Y17520D01*
X211026Y17171D01*
X211931Y17052D01*
X212837Y17171D01*
X213681Y17520D01*
X214405Y18076D01*
X214961Y18801D01*
X215311Y19645D01*
X215430Y20550D01*
X215311Y21455D01*
X214961Y22299D01*
X214405Y23024D01*
X213681Y23580D01*
X212837Y23929D01*
X211931Y24048D01*
D02*
G37*
G36*
X-74700Y22530D02*
X-75614Y22410D01*
X-76465Y22057D01*
X-77196Y21496D01*
X-77757Y20765D01*
X-78110Y19914D01*
X-78230Y19000D01*
X-78110Y18086D01*
X-77757Y17235D01*
X-77196Y16504D01*
X-76465Y15943D01*
X-75614Y15590D01*
X-74700Y15470D01*
X-73786Y15590D01*
X-72935Y15943D01*
X-72204Y16504D01*
X-71643Y17235D01*
X-71290Y18086D01*
X-71170Y19000D01*
X-71290Y19914D01*
X-71643Y20765D01*
X-72204Y21496D01*
X-72935Y22057D01*
X-73786Y22410D01*
X-74700Y22530D01*
D02*
G37*
G36*
X-66900Y22430D02*
X-67814Y22310D01*
X-68665Y21957D01*
X-69396Y21396D01*
X-69957Y20665D01*
X-70310Y19814D01*
X-70430Y18900D01*
X-70310Y17986D01*
X-69957Y17135D01*
X-69396Y16404D01*
X-68665Y15843D01*
X-67814Y15490D01*
X-66900Y15370D01*
X-65986Y15490D01*
X-65135Y15843D01*
X-64404Y16404D01*
X-63843Y17135D01*
X-63490Y17986D01*
X-63370Y18900D01*
X-63490Y19814D01*
X-63843Y20665D01*
X-64404Y21396D01*
X-65135Y21957D01*
X-65986Y22310D01*
X-66900Y22430D01*
D02*
G37*
G36*
X-90100Y22730D02*
X-91014Y22610D01*
X-91865Y22257D01*
X-92596Y21696D01*
X-93157Y20965D01*
X-93510Y20114D01*
X-93630Y19200D01*
X-93510Y18286D01*
X-93157Y17435D01*
X-92596Y16704D01*
X-91865Y16143D01*
X-91014Y15790D01*
X-90100Y15670D01*
X-89186Y15790D01*
X-88335Y16143D01*
X-87604Y16704D01*
X-87043Y17435D01*
X-86690Y18286D01*
X-86570Y19200D01*
X-86690Y20114D01*
X-87043Y20965D01*
X-87604Y21696D01*
X-88335Y22257D01*
X-89186Y22610D01*
X-90100Y22730D01*
D02*
G37*
G36*
X-82300Y22630D02*
X-83214Y22510D01*
X-84065Y22157D01*
X-84796Y21596D01*
X-85357Y20865D01*
X-85710Y20014D01*
X-85830Y19100D01*
X-85710Y18186D01*
X-85357Y17335D01*
X-84796Y16604D01*
X-84065Y16043D01*
X-83214Y15690D01*
X-82300Y15570D01*
X-81386Y15690D01*
X-80535Y16043D01*
X-79804Y16604D01*
X-79243Y17335D01*
X-78890Y18186D01*
X-78770Y19100D01*
X-78890Y20014D01*
X-79243Y20865D01*
X-79804Y21596D01*
X-80535Y22157D01*
X-81386Y22510D01*
X-82300Y22630D01*
D02*
G37*
G36*
X-141200Y26749D02*
X-142175Y26555D01*
X-143002Y26002D01*
X-143555Y25175D01*
X-143749Y24200D01*
X-143555Y23224D01*
X-143002Y22398D01*
X-142175Y21845D01*
X-141200Y21651D01*
X-140225Y21845D01*
X-139398Y22398D01*
X-138845Y23224D01*
X-138651Y24200D01*
X-138845Y25175D01*
X-139398Y26002D01*
X-140225Y26555D01*
X-141200Y26749D01*
D02*
G37*
G36*
X47900Y36849D02*
X46924Y36655D01*
X46098Y36102D01*
X45545Y35276D01*
X45351Y34300D01*
X45545Y33325D01*
X46098Y32498D01*
X46924Y31945D01*
X47900Y31751D01*
X48875Y31945D01*
X49702Y32498D01*
X50255Y33325D01*
X50449Y34300D01*
X50255Y35276D01*
X49702Y36102D01*
X48875Y36655D01*
X47900Y36849D01*
D02*
G37*
G36*
X32300Y37326D02*
X31517Y37223D01*
X30787Y36920D01*
X30160Y36440D01*
X29680Y35813D01*
X29377Y35083D01*
X29274Y34300D01*
X29377Y33517D01*
X29680Y32787D01*
X30160Y32160D01*
X30787Y31679D01*
X31517Y31377D01*
X32300Y31274D01*
X33083Y31377D01*
X33813Y31679D01*
X34440Y32160D01*
X34920Y32787D01*
X35223Y33517D01*
X35326Y34300D01*
X35223Y35083D01*
X34920Y35813D01*
X34440Y36440D01*
X33813Y36920D01*
X33083Y37223D01*
X32300Y37326D01*
D02*
G37*
G36*
X-22400Y42949D02*
X-23376Y42755D01*
X-24202Y42202D01*
X-24755Y41375D01*
X-24949Y40400D01*
X-24755Y39424D01*
X-24202Y38598D01*
X-23376Y38045D01*
X-22400Y37851D01*
X-21425Y38045D01*
X-20598Y38598D01*
X-20045Y39424D01*
X-19851Y40400D01*
X-20045Y41375D01*
X-20598Y42202D01*
X-21425Y42755D01*
X-22400Y42949D01*
D02*
G37*
G36*
X211931Y40298D02*
X211026Y40179D01*
X210182Y39830D01*
X209458Y39274D01*
X208902Y38549D01*
X208552Y37705D01*
X208433Y36800D01*
X208552Y35895D01*
X208902Y35051D01*
X209458Y34326D01*
X210182Y33770D01*
X211026Y33421D01*
X211931Y33302D01*
X212837Y33421D01*
X213681Y33770D01*
X214405Y34326D01*
X214961Y35051D01*
X215311Y35895D01*
X215430Y36800D01*
X215311Y37705D01*
X214961Y38549D01*
X214405Y39274D01*
X213681Y39830D01*
X212837Y40179D01*
X211931Y40298D01*
D02*
G37*
G36*
X25100Y33749D02*
X24125Y33555D01*
X23298Y33002D01*
X22745Y32175D01*
X22551Y31200D01*
X22745Y30224D01*
X23298Y29398D01*
X24125Y28845D01*
X25100Y28651D01*
X26076Y28845D01*
X26902Y29398D01*
X27455Y30224D01*
X27649Y31200D01*
X27455Y32175D01*
X26902Y33002D01*
X26076Y33555D01*
X25100Y33749D01*
D02*
G37*
G36*
X6400Y28949D02*
X5424Y28755D01*
X4598Y28202D01*
X4045Y27376D01*
X3851Y26400D01*
X4045Y25425D01*
X4598Y24598D01*
X5424Y24045D01*
X6400Y23851D01*
X7375Y24045D01*
X8202Y24598D01*
X8755Y25425D01*
X8949Y26400D01*
X8755Y27376D01*
X8202Y28202D01*
X7375Y28755D01*
X6400Y28949D01*
D02*
G37*
G36*
X61600Y36249D02*
X60624Y36055D01*
X59798Y35502D01*
X59245Y34675D01*
X59051Y33700D01*
X59245Y32724D01*
X59798Y31898D01*
X60624Y31345D01*
X61600Y31151D01*
X62576Y31345D01*
X63402Y31898D01*
X63955Y32724D01*
X64149Y33700D01*
X63955Y34675D01*
X63402Y35502D01*
X62576Y36055D01*
X61600Y36249D01*
D02*
G37*
G36*
X39900Y35249D02*
X38925Y35055D01*
X38098Y34502D01*
X37545Y33676D01*
X37351Y32700D01*
X37545Y31725D01*
X38098Y30898D01*
X38925Y30345D01*
X39900Y30151D01*
X40876Y30345D01*
X41702Y30898D01*
X42255Y31725D01*
X42449Y32700D01*
X42255Y33676D01*
X41702Y34502D01*
X40876Y35055D01*
X39900Y35249D01*
D02*
G37*
G36*
X29500Y19549D02*
X28525Y19355D01*
X27698Y18802D01*
X27145Y17976D01*
X26951Y17000D01*
X27145Y16025D01*
X27698Y15198D01*
X28525Y14645D01*
X29500Y14451D01*
X30476Y14645D01*
X31302Y15198D01*
X31855Y16025D01*
X32049Y17000D01*
X31855Y17976D01*
X31302Y18802D01*
X30476Y19355D01*
X29500Y19549D01*
D02*
G37*
G36*
X-16400Y8949D02*
X-17376Y8755D01*
X-17848Y8439D01*
X-36300D01*
X-37080Y8284D01*
X-37742Y7842D01*
X-40331Y5253D01*
X-40773Y4591D01*
X-40928Y3811D01*
Y-463D01*
X-41244Y-935D01*
X-41438Y-1911D01*
X-41244Y-2886D01*
X-40692Y-3713D01*
X-39865Y-4266D01*
X-38889Y-4460D01*
X-37914Y-4266D01*
X-37087Y-3713D01*
X-36887Y-3414D01*
X-36534Y-3484D01*
X-35559Y-3290D01*
X-34732Y-2738D01*
X-34179Y-1911D01*
X-33985Y-935D01*
X-34179Y40D01*
X-34732Y867D01*
X-35559Y1420D01*
X-36534Y1614D01*
X-36850Y1873D01*
Y2966D01*
X-35455Y4361D01*
X-17848D01*
X-17376Y4045D01*
X-16400Y3851D01*
X-16159Y3899D01*
X-15623Y3541D01*
X-15817Y2565D01*
X-15623Y1590D01*
X-15070Y763D01*
X-14243Y210D01*
X-13268Y16D01*
X-12292Y210D01*
X-11465Y763D01*
X-10913Y1590D01*
X-10719Y2565D01*
X-10913Y3541D01*
X-11465Y4368D01*
X-12292Y4920D01*
X-13268Y5114D01*
X-13509Y5066D01*
X-14045Y5425D01*
X-13851Y6400D01*
X-14045Y7375D01*
X-14598Y8202D01*
X-15425Y8755D01*
X-16400Y8949D01*
D02*
G37*
G36*
X-60135Y5114D02*
X-61110Y4920D01*
X-61937Y4368D01*
X-62490Y3541D01*
X-62684Y2565D01*
X-62490Y1590D01*
X-61937Y763D01*
X-61110Y210D01*
X-60135Y16D01*
X-59159Y210D01*
X-58332Y763D01*
X-57780Y1590D01*
X-57586Y2565D01*
X-57780Y3541D01*
X-58332Y4368D01*
X-59159Y4920D01*
X-60135Y5114D01*
D02*
G37*
G36*
X-163000Y7626D02*
X-163783Y7523D01*
X-164513Y7220D01*
X-165140Y6740D01*
X-165621Y6113D01*
X-165923Y5383D01*
X-166026Y4600D01*
X-165923Y3817D01*
X-165621Y3087D01*
X-165140Y2460D01*
X-164513Y1980D01*
X-163783Y1677D01*
X-163000Y1574D01*
X-162217Y1677D01*
X-161487Y1980D01*
X-160860Y2460D01*
X-160380Y3087D01*
X-160077Y3817D01*
X-159974Y4600D01*
X-160077Y5383D01*
X-160380Y6113D01*
X-160860Y6740D01*
X-161487Y7220D01*
X-162217Y7523D01*
X-163000Y7626D01*
D02*
G37*
G36*
X211931Y7798D02*
X211026Y7679D01*
X210182Y7330D01*
X209458Y6774D01*
X208902Y6049D01*
X208552Y5206D01*
X208433Y4300D01*
X208552Y3395D01*
X208902Y2551D01*
X209458Y1826D01*
X210182Y1270D01*
X211026Y921D01*
X211931Y802D01*
X212837Y921D01*
X213681Y1270D01*
X214405Y1826D01*
X214961Y2551D01*
X215311Y3395D01*
X215430Y4300D01*
X215311Y5206D01*
X214961Y6049D01*
X214405Y6774D01*
X213681Y7330D01*
X212837Y7679D01*
X211931Y7798D01*
D02*
G37*
G36*
X69352Y1601D02*
X68376Y1407D01*
X67550Y854D01*
X66997Y27D01*
X66803Y-948D01*
X66997Y-1924D01*
X67550Y-2750D01*
X68376Y-3303D01*
X69352Y-3497D01*
X70327Y-3303D01*
X71154Y-2750D01*
X71707Y-1924D01*
X71901Y-948D01*
X71707Y27D01*
X71154Y854D01*
X70327Y1407D01*
X69352Y1601D01*
D02*
G37*
G36*
X26900Y1249D02*
X25925Y1055D01*
X25098Y502D01*
X24545Y-325D01*
X24351Y-1300D01*
X24545Y-2276D01*
X25098Y-3102D01*
X25925Y-3655D01*
X26900Y-3849D01*
X27876Y-3655D01*
X28702Y-3102D01*
X29255Y-2276D01*
X29449Y-1300D01*
X29255Y-325D01*
X28702Y502D01*
X27876Y1055D01*
X26900Y1249D01*
D02*
G37*
G36*
X-105800Y2749D02*
X-106775Y2555D01*
X-107602Y2002D01*
X-108155Y1175D01*
X-108349Y200D01*
X-108155Y-776D01*
X-107602Y-1602D01*
X-106775Y-2155D01*
X-105800Y-2349D01*
X-104824Y-2155D01*
X-103998Y-1602D01*
X-103445Y-776D01*
X-103251Y200D01*
X-103445Y1175D01*
X-103998Y2002D01*
X-104824Y2555D01*
X-105800Y2749D01*
D02*
G37*
G36*
X42400Y1749D02*
X41425Y1555D01*
X40598Y1002D01*
X40045Y175D01*
X39851Y-800D01*
X40045Y-1775D01*
X40598Y-2602D01*
X41425Y-3155D01*
X42400Y-3349D01*
X43376Y-3155D01*
X44202Y-2602D01*
X44755Y-1775D01*
X44949Y-800D01*
X44755Y175D01*
X44202Y1002D01*
X43376Y1555D01*
X42400Y1749D01*
D02*
G37*
G36*
X-152900Y8126D02*
X-153683Y8023D01*
X-154413Y7721D01*
X-155040Y7240D01*
X-155520Y6613D01*
X-155823Y5883D01*
X-155926Y5100D01*
X-155823Y4317D01*
X-155520Y3587D01*
X-155040Y2960D01*
X-154413Y2479D01*
X-153683Y2177D01*
X-152900Y2074D01*
X-152117Y2177D01*
X-151387Y2479D01*
X-150760Y2960D01*
X-150279Y3587D01*
X-149977Y4317D01*
X-149874Y5100D01*
X-149977Y5883D01*
X-150279Y6613D01*
X-150760Y7240D01*
X-151387Y7721D01*
X-152117Y8023D01*
X-152900Y8126D01*
D02*
G37*
G36*
X-155200Y112784D02*
X-156619Y112597D01*
X-157942Y112049D01*
X-159078Y111178D01*
X-159949Y110042D01*
X-160497Y108719D01*
X-160684Y107300D01*
X-160497Y105881D01*
X-159949Y104558D01*
X-159078Y103422D01*
X-157942Y102551D01*
X-157940Y102550D01*
Y102050D01*
X-157942Y102049D01*
X-159078Y101178D01*
X-159949Y100042D01*
X-160497Y98719D01*
X-160684Y97300D01*
X-160497Y95881D01*
X-159949Y94558D01*
X-159078Y93422D01*
X-157942Y92551D01*
X-157940Y92550D01*
Y92050D01*
X-157942Y92049D01*
X-159078Y91178D01*
X-159949Y90042D01*
X-160497Y88719D01*
X-160684Y87300D01*
X-160497Y85881D01*
X-159949Y84558D01*
X-159078Y83422D01*
X-157942Y82551D01*
X-157940Y82550D01*
Y82050D01*
X-157942Y82049D01*
X-159078Y81178D01*
X-159949Y80042D01*
X-160497Y78719D01*
X-160684Y77300D01*
X-160497Y75881D01*
X-159949Y74558D01*
X-159078Y73422D01*
X-157942Y72551D01*
X-157940Y72550D01*
Y72050D01*
X-157942Y72049D01*
X-159078Y71178D01*
X-159949Y70042D01*
X-160497Y68719D01*
X-160684Y67300D01*
X-160497Y65881D01*
X-159949Y64558D01*
X-159078Y63422D01*
X-157942Y62551D01*
X-157940Y62550D01*
Y62050D01*
X-157942Y62049D01*
X-159078Y61178D01*
X-159949Y60042D01*
X-160497Y58719D01*
X-160684Y57300D01*
X-160497Y55881D01*
X-159949Y54558D01*
X-159078Y53422D01*
X-157942Y52551D01*
X-157940Y52550D01*
Y52050D01*
X-157942Y52049D01*
X-159078Y51178D01*
X-159949Y50042D01*
X-160497Y48719D01*
X-160684Y47300D01*
X-160497Y45881D01*
X-159949Y44558D01*
X-159078Y43422D01*
X-157942Y42551D01*
X-157940Y42550D01*
Y42050D01*
X-157942Y42049D01*
X-159078Y41178D01*
X-159949Y40042D01*
X-160497Y38719D01*
X-160684Y37300D01*
X-160497Y35881D01*
X-159949Y34558D01*
X-159078Y33422D01*
X-157942Y32551D01*
X-157940Y32550D01*
Y32050D01*
X-157942Y32049D01*
X-159078Y31178D01*
X-159949Y30042D01*
X-160497Y28719D01*
X-160684Y27300D01*
X-160497Y25881D01*
X-159949Y24558D01*
X-159078Y23422D01*
X-158802Y23211D01*
X-158962Y22737D01*
X-160637D01*
Y11863D01*
X-149763D01*
Y22737D01*
X-151438D01*
X-151598Y23211D01*
X-151322Y23422D01*
X-150451Y24558D01*
X-149903Y25881D01*
X-149716Y27300D01*
X-149903Y28719D01*
X-150451Y30042D01*
X-151322Y31178D01*
X-152458Y32049D01*
X-152460Y32050D01*
Y32550D01*
X-152458Y32551D01*
X-151322Y33422D01*
X-150451Y34558D01*
X-149903Y35881D01*
X-149716Y37300D01*
X-149903Y38719D01*
X-150451Y40042D01*
X-151322Y41178D01*
X-152458Y42049D01*
X-152460Y42050D01*
Y42550D01*
X-152458Y42551D01*
X-151322Y43422D01*
X-150451Y44558D01*
X-149903Y45881D01*
X-149716Y47300D01*
X-149903Y48719D01*
X-150451Y50042D01*
X-151322Y51178D01*
X-152458Y52049D01*
X-152460Y52050D01*
Y52550D01*
X-152458Y52551D01*
X-151322Y53422D01*
X-150451Y54558D01*
X-149903Y55881D01*
X-149716Y57300D01*
X-149903Y58719D01*
X-150451Y60042D01*
X-151322Y61178D01*
X-152458Y62049D01*
X-152460Y62050D01*
Y62550D01*
X-152458Y62551D01*
X-151322Y63422D01*
X-150451Y64558D01*
X-149903Y65881D01*
X-149716Y67300D01*
X-149903Y68719D01*
X-150451Y70042D01*
X-151322Y71178D01*
X-152458Y72049D01*
X-152460Y72050D01*
Y72550D01*
X-152458Y72551D01*
X-151322Y73422D01*
X-150451Y74558D01*
X-149903Y75881D01*
X-149716Y77300D01*
X-149903Y78719D01*
X-150451Y80042D01*
X-151322Y81178D01*
X-152458Y82049D01*
X-152460Y82050D01*
Y82550D01*
X-152458Y82551D01*
X-151322Y83422D01*
X-150451Y84558D01*
X-149903Y85881D01*
X-149716Y87300D01*
X-149903Y88719D01*
X-150451Y90042D01*
X-151322Y91178D01*
X-152458Y92049D01*
X-152460Y92050D01*
Y92550D01*
X-152458Y92551D01*
X-151322Y93422D01*
X-150451Y94558D01*
X-149903Y95881D01*
X-149716Y97300D01*
X-149903Y98719D01*
X-150451Y100042D01*
X-151322Y101178D01*
X-152458Y102049D01*
X-152460Y102050D01*
Y102550D01*
X-152458Y102551D01*
X-151322Y103422D01*
X-150451Y104558D01*
X-149903Y105881D01*
X-149716Y107300D01*
X-149903Y108719D01*
X-150451Y110042D01*
X-151322Y111178D01*
X-152458Y112049D01*
X-153781Y112597D01*
X-155200Y112784D01*
D02*
G37*
G36*
X17500Y16949D02*
X16524Y16755D01*
X15698Y16202D01*
X15145Y15375D01*
X14951Y14400D01*
X15145Y13424D01*
X15698Y12598D01*
X16524Y12045D01*
X17500Y11851D01*
X18475Y12045D01*
X19302Y12598D01*
X19855Y13424D01*
X20049Y14400D01*
X19855Y15375D01*
X19302Y16202D01*
X18475Y16755D01*
X17500Y16949D01*
D02*
G37*
G36*
X185000Y17849D02*
X184025Y17655D01*
X183198Y17102D01*
X182645Y16275D01*
X182451Y15300D01*
X182645Y14324D01*
X183198Y13498D01*
X184025Y12945D01*
X185000Y12751D01*
X185976Y12945D01*
X186802Y13498D01*
X187355Y14324D01*
X187549Y15300D01*
X187355Y16275D01*
X186802Y17102D01*
X185976Y17655D01*
X185000Y17849D01*
D02*
G37*
G36*
X46400Y17049D02*
X45425Y16855D01*
X44598Y16302D01*
X44045Y15475D01*
X43851Y14500D01*
X44045Y13524D01*
X44598Y12698D01*
X45425Y12145D01*
X46400Y11951D01*
X47376Y12145D01*
X48202Y12698D01*
X48755Y13524D01*
X48949Y14500D01*
X48755Y15475D01*
X48202Y16302D01*
X47376Y16855D01*
X46400Y17049D01*
D02*
G37*
G36*
X37700Y17326D02*
X36917Y17223D01*
X36187Y16920D01*
X35560Y16440D01*
X35080Y15813D01*
X34777Y15083D01*
X34674Y14300D01*
X34777Y13517D01*
X35080Y12787D01*
X35560Y12160D01*
X36187Y11680D01*
X36917Y11377D01*
X37700Y11274D01*
X38483Y11377D01*
X39213Y11680D01*
X39840Y12160D01*
X40321Y12787D01*
X40623Y13517D01*
X40726Y14300D01*
X40623Y15083D01*
X40321Y15813D01*
X39840Y16440D01*
X39213Y16920D01*
X38483Y17223D01*
X37700Y17326D01*
D02*
G37*
G36*
X-141900Y6626D02*
X-142683Y6523D01*
X-143413Y6221D01*
X-144040Y5740D01*
X-144520Y5113D01*
X-144823Y4383D01*
X-144926Y3600D01*
X-144897Y3383D01*
X-145322Y3119D01*
X-146124Y3655D01*
X-147100Y3849D01*
X-148075Y3655D01*
X-148902Y3102D01*
X-149455Y2276D01*
X-149649Y1300D01*
X-149455Y325D01*
X-148902Y-502D01*
X-148075Y-1055D01*
X-147100Y-1249D01*
X-146124Y-1055D01*
X-145298Y-502D01*
X-144745Y325D01*
X-144551Y1300D01*
X-144558Y1336D01*
X-144103Y1543D01*
X-144040Y1460D01*
X-143413Y979D01*
X-142683Y677D01*
X-141900Y574D01*
X-141117Y677D01*
X-140387Y979D01*
X-139760Y1460D01*
X-139279Y2087D01*
X-138977Y2817D01*
X-138874Y3600D01*
X-138977Y4383D01*
X-139279Y5113D01*
X-139760Y5740D01*
X-140387Y6221D01*
X-141117Y6523D01*
X-141900Y6626D01*
D02*
G37*
G36*
X195800Y16749D02*
X194825Y16555D01*
X193998Y16002D01*
X193445Y15176D01*
X193251Y14200D01*
X193445Y13225D01*
X193998Y12398D01*
X194825Y11845D01*
X195800Y11651D01*
X196775Y11845D01*
X197602Y12398D01*
X198155Y13225D01*
X198349Y14200D01*
X198155Y15176D01*
X197602Y16002D01*
X196775Y16555D01*
X195800Y16749D01*
D02*
G37*
G36*
X68000Y16649D02*
X67024Y16455D01*
X66198Y15902D01*
X65645Y15076D01*
X65451Y14100D01*
X65645Y13125D01*
X66198Y12298D01*
X67024Y11745D01*
X68000Y11551D01*
X68976Y11745D01*
X69802Y12298D01*
X70355Y13125D01*
X70549Y14100D01*
X70355Y15076D01*
X69802Y15902D01*
X68976Y16455D01*
X68000Y16649D01*
D02*
G37*
G36*
X17500Y112926D02*
X16717Y112823D01*
X15987Y112521D01*
X15360Y112040D01*
X14879Y111413D01*
X14577Y110683D01*
X14474Y109900D01*
X14577Y109117D01*
X14879Y108387D01*
X15360Y107760D01*
X15987Y107280D01*
X16717Y106977D01*
X17500Y106874D01*
X18283Y106977D01*
X19013Y107280D01*
X19640Y107760D01*
X20121Y108387D01*
X20423Y109117D01*
X20526Y109900D01*
X20423Y110683D01*
X20121Y111413D01*
X19640Y112040D01*
X19013Y112521D01*
X18283Y112823D01*
X17500Y112926D01*
D02*
G37*
G36*
X-28500Y181849D02*
X-29476Y181655D01*
X-30302Y181102D01*
X-30855Y180275D01*
X-31049Y179300D01*
X-30855Y178324D01*
X-30302Y177498D01*
X-29476Y176945D01*
X-28500Y176751D01*
X-27525Y176945D01*
X-26698Y177498D01*
X-26145Y178324D01*
X-25951Y179300D01*
X-26145Y180275D01*
X-26698Y181102D01*
X-27525Y181655D01*
X-28500Y181849D01*
D02*
G37*
G36*
X39832Y181214D02*
X38934Y181035D01*
X38173Y180527D01*
X37665Y179766D01*
X37486Y178868D01*
X37665Y177971D01*
X38173Y177210D01*
X38934Y176702D01*
X39832Y176523D01*
X40729Y176702D01*
X41490Y177210D01*
X41998Y177971D01*
X42177Y178868D01*
X41998Y179766D01*
X41490Y180527D01*
X40729Y181035D01*
X39832Y181214D01*
D02*
G37*
G36*
X3531Y185791D02*
X2369Y185638D01*
X1286Y185189D01*
X356Y184476D01*
X-358Y183546D01*
X-807Y182462D01*
X-960Y181300D01*
X-807Y180138D01*
X-358Y179054D01*
X356Y178124D01*
X1286Y177410D01*
X2369Y176962D01*
X3531Y176809D01*
X4694Y176962D01*
X5777Y177410D01*
X6707Y178124D01*
X7421Y179054D01*
X7870Y180138D01*
X8023Y181300D01*
X7870Y182462D01*
X7421Y183546D01*
X6707Y184476D01*
X5777Y185189D01*
X4694Y185638D01*
X3531Y185791D01*
D02*
G37*
G36*
X-6469D02*
X-7631Y185638D01*
X-8714Y185189D01*
X-9644Y184476D01*
X-10358Y183546D01*
X-10807Y182462D01*
X-10960Y181300D01*
X-10807Y180138D01*
X-10358Y179054D01*
X-9644Y178124D01*
X-8714Y177410D01*
X-7631Y176962D01*
X-6469Y176809D01*
X-5306Y176962D01*
X-4223Y177410D01*
X-3293Y178124D01*
X-2579Y179054D01*
X-2130Y180138D01*
X-1977Y181300D01*
X-2130Y182462D01*
X-2579Y183546D01*
X-3293Y184476D01*
X-4223Y185189D01*
X-5306Y185638D01*
X-6469Y185791D01*
D02*
G37*
G36*
X-163200Y174749D02*
X-164175Y174555D01*
X-165002Y174002D01*
X-165555Y173176D01*
X-165749Y172200D01*
X-165555Y171224D01*
X-165002Y170398D01*
X-164175Y169845D01*
X-163200Y169651D01*
X-162224Y169845D01*
X-161398Y170398D01*
X-160845Y171224D01*
X-160651Y172200D01*
X-160845Y173176D01*
X-161398Y174002D01*
X-162224Y174555D01*
X-163200Y174749D01*
D02*
G37*
G36*
X18900Y209749D02*
X17924Y209555D01*
X17098Y209002D01*
X16545Y208175D01*
X16351Y207200D01*
X16545Y206224D01*
X17098Y205398D01*
X17924Y204845D01*
X18900Y204651D01*
X19875Y204845D01*
X20702Y205398D01*
X21255Y206224D01*
X21449Y207200D01*
X21255Y208175D01*
X20702Y209002D01*
X19875Y209555D01*
X18900Y209749D01*
D02*
G37*
G36*
X-73500Y181249D02*
X-96300D01*
X-97276Y181055D01*
X-98102Y180502D01*
X-98655Y179675D01*
X-98849Y178700D01*
X-98655Y177725D01*
X-98102Y176898D01*
X-97276Y176345D01*
X-96300Y176151D01*
X-73500D01*
X-72524Y176345D01*
X-71698Y176898D01*
X-71145Y177725D01*
X-70951Y178700D01*
X-71145Y179675D01*
X-71698Y180502D01*
X-72524Y181055D01*
X-73500Y181249D01*
D02*
G37*
G36*
X114980Y204906D02*
X114196Y204802D01*
X113467Y204500D01*
X112840Y204019D01*
X112359Y203393D01*
X112057Y202663D01*
X112041Y202546D01*
X111398Y201902D01*
X110845Y201076D01*
X110651Y200100D01*
Y177406D01*
X110580Y177313D01*
X110277Y176583D01*
X110174Y175800D01*
X110277Y175017D01*
X110580Y174287D01*
X111060Y173660D01*
X111687Y173179D01*
X112417Y172877D01*
X113200Y172774D01*
X113983Y172877D01*
X114713Y173179D01*
X115340Y173660D01*
X115821Y174287D01*
X116123Y175017D01*
X116226Y175800D01*
X116123Y176583D01*
X115821Y177313D01*
X115749Y177406D01*
Y198955D01*
X115763Y198957D01*
X116492Y199259D01*
X117119Y199740D01*
X117600Y200367D01*
X117902Y201096D01*
X118006Y201880D01*
X117902Y202663D01*
X117600Y203393D01*
X117119Y204019D01*
X116492Y204500D01*
X115763Y204802D01*
X114980Y204906D01*
D02*
G37*
G36*
X13532Y185791D02*
X12369Y185638D01*
X11286Y185189D01*
X10356Y184476D01*
X9642Y183546D01*
X9193Y182462D01*
X9040Y181300D01*
X9193Y180138D01*
X9642Y179054D01*
X10356Y178124D01*
X11286Y177410D01*
X12369Y176962D01*
X13532Y176809D01*
X14694Y176962D01*
X15777Y177410D01*
X16707Y178124D01*
X17421Y179054D01*
X17870Y180138D01*
X18023Y181300D01*
X17870Y182462D01*
X17421Y183546D01*
X16707Y184476D01*
X15777Y185189D01*
X14694Y185638D01*
X13532Y185791D01*
D02*
G37*
G36*
X-163200Y185249D02*
X-164175Y185055D01*
X-165002Y184502D01*
X-165555Y183676D01*
X-165749Y182700D01*
X-165555Y181725D01*
X-165002Y180898D01*
X-164175Y180345D01*
X-163200Y180151D01*
X-162224Y180345D01*
X-161398Y180898D01*
X-160845Y181725D01*
X-160651Y182700D01*
X-160845Y183676D01*
X-161398Y184502D01*
X-162224Y185055D01*
X-163200Y185249D01*
D02*
G37*
G36*
X120765Y182784D02*
X119789Y182590D01*
X118962Y182038D01*
X118410Y181211D01*
X118216Y180235D01*
X118410Y179260D01*
X118962Y178433D01*
X119789Y177881D01*
X120765Y177687D01*
X121740Y177881D01*
X122567Y178433D01*
X123119Y179260D01*
X123313Y180235D01*
X123119Y181211D01*
X122567Y182038D01*
X121740Y182590D01*
X120765Y182784D01*
D02*
G37*
G36*
X-126000Y186849D02*
X-126976Y186655D01*
X-127802Y186102D01*
X-128355Y185275D01*
X-128549Y184300D01*
X-128355Y183325D01*
X-127802Y182498D01*
X-126976Y181945D01*
X-126000Y181751D01*
X-125024Y181945D01*
X-124198Y182498D01*
X-123645Y183325D01*
X-123451Y184300D01*
X-123645Y185275D01*
X-124198Y186102D01*
X-125024Y186655D01*
X-126000Y186849D01*
D02*
G37*
G36*
X-63300Y209249D02*
X-64275Y209055D01*
X-65102Y208502D01*
X-65655Y207676D01*
X-65849Y206700D01*
X-65655Y205725D01*
X-65102Y204898D01*
X-64275Y204345D01*
X-63300Y204151D01*
X-62325Y204345D01*
X-61498Y204898D01*
X-60945Y205725D01*
X-60751Y206700D01*
X-60945Y207676D01*
X-61498Y208502D01*
X-62325Y209055D01*
X-63300Y209249D01*
D02*
G37*
G36*
X-12016Y180800D02*
X-15969D01*
Y176847D01*
X-12016D01*
Y180800D01*
D02*
G37*
G36*
X-16969D02*
X-20921D01*
Y176847D01*
X-16969D01*
Y180800D01*
D02*
G37*
G36*
X132569Y182718D02*
X131593Y182524D01*
X130766Y181971D01*
X130214Y181144D01*
X130019Y180168D01*
X130214Y179193D01*
X130766Y178366D01*
X131593Y177814D01*
X132569Y177620D01*
X133544Y177814D01*
X134371Y178366D01*
X134924Y179193D01*
X135117Y180168D01*
X134924Y181144D01*
X134371Y181971D01*
X133544Y182524D01*
X132569Y182718D01*
D02*
G37*
G36*
X27000Y182549D02*
X26024Y182355D01*
X25198Y181802D01*
X24645Y180975D01*
X24451Y180000D01*
X24645Y179025D01*
X25198Y178198D01*
X26024Y177645D01*
X27000Y177451D01*
X27975Y177645D01*
X28802Y178198D01*
X29355Y179025D01*
X29549Y180000D01*
X29355Y180975D01*
X28802Y181802D01*
X27975Y182355D01*
X27000Y182549D01*
D02*
G37*
G36*
X186300Y209749D02*
X185325Y209555D01*
X184498Y209002D01*
X183945Y208175D01*
X183751Y207200D01*
X183945Y206224D01*
X184498Y205398D01*
X185325Y204845D01*
X186300Y204651D01*
X187276Y204845D01*
X188102Y205398D01*
X188655Y206224D01*
X188849Y207200D01*
X188655Y208175D01*
X188102Y209002D01*
X187276Y209555D01*
X186300Y209749D01*
D02*
G37*
G36*
X-163000Y156349D02*
X-163976Y156155D01*
X-164802Y155602D01*
X-165355Y154776D01*
X-165549Y153800D01*
X-165355Y152824D01*
X-164802Y151998D01*
X-163976Y151445D01*
X-163000Y151251D01*
X-162024Y151445D01*
X-161198Y151998D01*
X-160645Y152824D01*
X-160451Y153800D01*
X-160645Y154776D01*
X-161198Y155602D01*
X-162024Y156155D01*
X-163000Y156349D01*
D02*
G37*
G36*
X191400Y200626D02*
X190617Y200523D01*
X189887Y200220D01*
X189260Y199740D01*
X188779Y199113D01*
X188477Y198383D01*
X188374Y197600D01*
X188477Y196817D01*
X188779Y196087D01*
X189260Y195460D01*
X189832Y195021D01*
Y194521D01*
X189260Y194082D01*
X188779Y193456D01*
X188477Y192726D01*
X188374Y191943D01*
X188477Y191160D01*
X188779Y190430D01*
X189260Y189803D01*
X189832Y189364D01*
Y188864D01*
X189260Y188425D01*
X188779Y187799D01*
X188477Y187069D01*
X188374Y186286D01*
X188477Y185503D01*
X188779Y184773D01*
X189260Y184146D01*
X189832Y183707D01*
Y183207D01*
X189260Y182768D01*
X188779Y182141D01*
X188477Y181412D01*
X188374Y180629D01*
X188477Y179845D01*
X188779Y179116D01*
X189260Y178489D01*
X189832Y178050D01*
Y177550D01*
X189260Y177111D01*
X188779Y176484D01*
X188477Y175755D01*
X188374Y174971D01*
X188477Y174188D01*
X188779Y173459D01*
X189260Y172832D01*
X189832Y172393D01*
Y171893D01*
X189260Y171454D01*
X188779Y170827D01*
X188477Y170097D01*
X188374Y169314D01*
X188477Y168531D01*
X188779Y167801D01*
X189260Y167175D01*
X189832Y166736D01*
Y166236D01*
X189260Y165797D01*
X188779Y165170D01*
X188477Y164440D01*
X188374Y163657D01*
X188477Y162874D01*
X188779Y162144D01*
X189260Y161518D01*
X189832Y161079D01*
Y160579D01*
X189260Y160140D01*
X188779Y159513D01*
X188477Y158783D01*
X188374Y158000D01*
X188477Y157217D01*
X188779Y156487D01*
X189260Y155860D01*
X189887Y155379D01*
X190617Y155077D01*
X191400Y154974D01*
X191763Y155022D01*
X192027Y154597D01*
X191545Y153876D01*
X191351Y152900D01*
X191545Y151925D01*
X192098Y151098D01*
X192924Y150545D01*
X193900Y150351D01*
X194876Y150545D01*
X195702Y151098D01*
X196255Y151925D01*
X196449Y152900D01*
X196255Y153876D01*
X195702Y154702D01*
X194876Y155255D01*
X193900Y155449D01*
X193861Y155441D01*
X193540Y155860D01*
X194020Y156487D01*
X194323Y157217D01*
X194426Y158000D01*
X194323Y158783D01*
X194020Y159513D01*
X193540Y160140D01*
X192913Y160620D01*
Y161037D01*
X193540Y161518D01*
X194020Y162144D01*
X194323Y162874D01*
X194426Y163657D01*
X194323Y164440D01*
X194020Y165170D01*
X193540Y165797D01*
X192913Y166278D01*
Y166694D01*
X193540Y167175D01*
X194020Y167801D01*
X194323Y168531D01*
X194426Y169314D01*
X194323Y170097D01*
X194020Y170827D01*
X193540Y171454D01*
X192913Y171935D01*
Y172351D01*
X193540Y172832D01*
X194020Y173459D01*
X194323Y174188D01*
X194426Y174971D01*
X194323Y175755D01*
X194020Y176484D01*
X193540Y177111D01*
X192913Y177592D01*
Y178008D01*
X193540Y178489D01*
X194020Y179116D01*
X194323Y179845D01*
X194426Y180629D01*
X194323Y181412D01*
X194020Y182141D01*
X193540Y182768D01*
X192913Y183249D01*
Y183665D01*
X193540Y184146D01*
X194020Y184773D01*
X194323Y185503D01*
X194426Y186286D01*
X194323Y187069D01*
X194020Y187799D01*
X193540Y188425D01*
X192913Y188906D01*
Y189322D01*
X193540Y189803D01*
X194020Y190430D01*
X194323Y191160D01*
X194426Y191943D01*
X194323Y192726D01*
X194020Y193456D01*
X193540Y194082D01*
X192913Y194563D01*
Y194980D01*
X193540Y195460D01*
X194020Y196087D01*
X194323Y196817D01*
X194426Y197600D01*
X194323Y198383D01*
X194020Y199113D01*
X193540Y199740D01*
X192913Y200220D01*
X192183Y200523D01*
X191400Y200626D01*
D02*
G37*
G36*
X206900Y160849D02*
X205925Y160655D01*
X205098Y160102D01*
X204545Y159275D01*
X204351Y158300D01*
X204545Y157325D01*
X205098Y156498D01*
X205925Y155945D01*
X206900Y155751D01*
X207875Y155945D01*
X208702Y156498D01*
X209255Y157325D01*
X209449Y158300D01*
X209255Y159275D01*
X208702Y160102D01*
X207875Y160655D01*
X206900Y160849D01*
D02*
G37*
G36*
X-96500Y158949D02*
X-97475Y158755D01*
X-98302Y158202D01*
X-98855Y157376D01*
X-99049Y156400D01*
X-98855Y155424D01*
X-98302Y154598D01*
X-97475Y154045D01*
X-96500Y153851D01*
X-95525Y154045D01*
X-94698Y154598D01*
X-94145Y155424D01*
X-93951Y156400D01*
X-94145Y157376D01*
X-94698Y158202D01*
X-95525Y158755D01*
X-96500Y158949D01*
D02*
G37*
G36*
X33400Y153649D02*
X32425Y153455D01*
X31598Y152902D01*
X31045Y152076D01*
X30851Y151100D01*
X31045Y150125D01*
X31598Y149298D01*
X32425Y148745D01*
X33400Y148551D01*
X34376Y148745D01*
X35202Y149298D01*
X35755Y150125D01*
X35949Y151100D01*
X35755Y152076D01*
X35202Y152902D01*
X34376Y153455D01*
X33400Y153649D01*
D02*
G37*
G36*
X112000Y153349D02*
X111024Y153155D01*
X110198Y152602D01*
X109645Y151776D01*
X109451Y150800D01*
X109645Y149825D01*
X110198Y148998D01*
X111024Y148445D01*
X112000Y148251D01*
X112976Y148445D01*
X113802Y148998D01*
X114355Y149825D01*
X114549Y150800D01*
X114355Y151776D01*
X113802Y152602D01*
X112976Y153155D01*
X112000Y153349D01*
D02*
G37*
G36*
X89100Y213249D02*
X88125Y213055D01*
X87298Y212502D01*
X86745Y211676D01*
X86551Y210700D01*
X86745Y209724D01*
X87298Y208898D01*
X88125Y208345D01*
X89100Y208151D01*
X90075Y208345D01*
X90902Y208898D01*
X91455Y209724D01*
X91649Y210700D01*
X91455Y211676D01*
X90902Y212502D01*
X90075Y213055D01*
X89100Y213249D01*
D02*
G37*
G36*
X75500Y154149D02*
X74524Y153955D01*
X73698Y153402D01*
X73145Y152576D01*
X72951Y151600D01*
X73145Y150625D01*
X73698Y149798D01*
X74524Y149245D01*
X75500Y149051D01*
X76476Y149245D01*
X77302Y149798D01*
X77855Y150625D01*
X78049Y151600D01*
X77855Y152576D01*
X77302Y153402D01*
X76476Y153955D01*
X75500Y154149D01*
D02*
G37*
G36*
X-162600Y165649D02*
X-163575Y165455D01*
X-164402Y164902D01*
X-164955Y164076D01*
X-165149Y163100D01*
X-164955Y162125D01*
X-164402Y161298D01*
X-163575Y160745D01*
X-162600Y160551D01*
X-161625Y160745D01*
X-160798Y161298D01*
X-160245Y162125D01*
X-160051Y163100D01*
X-160245Y164076D01*
X-160798Y164902D01*
X-161625Y165455D01*
X-162600Y165649D01*
D02*
G37*
G36*
X-96500Y169749D02*
X-97475Y169555D01*
X-98302Y169002D01*
X-98855Y168175D01*
X-99049Y167200D01*
X-98855Y166225D01*
X-98302Y165398D01*
X-97475Y164845D01*
X-96500Y164651D01*
X-95525Y164845D01*
X-94698Y165398D01*
X-94145Y166225D01*
X-93951Y167200D01*
X-94145Y168175D01*
X-94698Y169002D01*
X-95525Y169555D01*
X-96500Y169749D01*
D02*
G37*
G36*
X180431Y210012D02*
X179456Y209818D01*
X178629Y209265D01*
X178077Y208438D01*
X177883Y207463D01*
X178077Y206487D01*
X178629Y205661D01*
X179456Y205108D01*
X180431Y204914D01*
X181407Y205108D01*
X182234Y205661D01*
X182786Y206487D01*
X182981Y207463D01*
X182786Y208438D01*
X182234Y209265D01*
X181407Y209818D01*
X180431Y210012D01*
D02*
G37*
G36*
X-28300Y172649D02*
X-29276Y172455D01*
X-30102Y171902D01*
X-30655Y171075D01*
X-30849Y170100D01*
X-30655Y169124D01*
X-30102Y168298D01*
X-29276Y167745D01*
X-28300Y167551D01*
X-27325Y167745D01*
X-26498Y168298D01*
X-25945Y169124D01*
X-25751Y170100D01*
X-25945Y171075D01*
X-26498Y171902D01*
X-27325Y172455D01*
X-28300Y172649D01*
D02*
G37*
G36*
X-128068Y178384D02*
X-129488Y178197D01*
X-130810Y177649D01*
X-131946Y176778D01*
X-132818Y175642D01*
X-133366Y174319D01*
X-133552Y172900D01*
X-133366Y171481D01*
X-132818Y170158D01*
X-131946Y169022D01*
X-130810Y168151D01*
X-129488Y167603D01*
X-128068Y167416D01*
X-126649Y167603D01*
X-125327Y168151D01*
X-124191Y169022D01*
X-123319Y170158D01*
X-122771Y171481D01*
X-122585Y172900D01*
X-122771Y174319D01*
X-123319Y175642D01*
X-124191Y176778D01*
X-125327Y177649D01*
X-126649Y178197D01*
X-128068Y178384D01*
D02*
G37*
G36*
X-36100Y166849D02*
X-37075Y166655D01*
X-37902Y166102D01*
X-38455Y165276D01*
X-38649Y164300D01*
X-38455Y163324D01*
X-37902Y162498D01*
X-37075Y161945D01*
X-36100Y161751D01*
X-35124Y161945D01*
X-34298Y162498D01*
X-33745Y163324D01*
X-33551Y164300D01*
X-33745Y165276D01*
X-34298Y166102D01*
X-35124Y166655D01*
X-36100Y166849D01*
D02*
G37*
G36*
X-79568Y169591D02*
X-80731Y169438D01*
X-81814Y168990D01*
X-82744Y168276D01*
X-83458Y167346D01*
X-83907Y166262D01*
X-84060Y165100D01*
X-83907Y163938D01*
X-83458Y162854D01*
X-82744Y161924D01*
X-81814Y161211D01*
X-80731Y160762D01*
X-79568Y160609D01*
X-78406Y160762D01*
X-77323Y161211D01*
X-76393Y161924D01*
X-75679Y162854D01*
X-75230Y163938D01*
X-75077Y165100D01*
X-75230Y166262D01*
X-75679Y167346D01*
X-76393Y168276D01*
X-77323Y168990D01*
X-78406Y169438D01*
X-79568Y169591D01*
D02*
G37*
G36*
X193563Y210412D02*
X192587Y210218D01*
X191761Y209665D01*
X191208Y208838D01*
X191014Y207863D01*
X191208Y206888D01*
X191761Y206061D01*
X192587Y205508D01*
X193563Y205314D01*
X194538Y205508D01*
X195365Y206061D01*
X195918Y206888D01*
X196112Y207863D01*
X195918Y208838D01*
X195365Y209665D01*
X194538Y210218D01*
X193563Y210412D01*
D02*
G37*
G36*
X-84200Y211149D02*
X-85176Y210955D01*
X-86002Y210402D01*
X-86555Y209576D01*
X-86749Y208600D01*
X-86555Y207625D01*
X-86002Y206798D01*
X-85176Y206245D01*
X-84200Y206051D01*
X-83224Y206245D01*
X-82398Y206798D01*
X-81845Y207625D01*
X-81651Y208600D01*
X-81845Y209576D01*
X-82398Y210402D01*
X-83224Y210955D01*
X-84200Y211149D01*
D02*
G37*
G36*
X-16969Y185753D02*
X-20921D01*
Y181800D01*
X-16969D01*
Y185753D01*
D02*
G37*
G36*
X172300Y204249D02*
X171325Y204055D01*
X170498Y203502D01*
X169945Y202676D01*
X169751Y201700D01*
X169945Y200725D01*
X170498Y199898D01*
X171325Y199345D01*
X172300Y199151D01*
X173275Y199345D01*
X174102Y199898D01*
X174655Y200725D01*
X174849Y201700D01*
X174655Y202676D01*
X174102Y203502D01*
X173275Y204055D01*
X172300Y204249D01*
D02*
G37*
G36*
X201600Y204149D02*
X200624Y203955D01*
X199798Y203402D01*
X199245Y202575D01*
X199051Y201600D01*
X199245Y200624D01*
X199798Y199798D01*
X200624Y199245D01*
X201600Y199051D01*
X202575Y199245D01*
X203402Y199798D01*
X203955Y200624D01*
X204149Y201600D01*
X203955Y202575D01*
X203402Y203402D01*
X202575Y203955D01*
X201600Y204149D01*
D02*
G37*
G36*
X-126000Y204849D02*
X-126976Y204655D01*
X-127802Y204102D01*
X-128355Y203275D01*
X-128549Y202300D01*
X-128355Y201325D01*
X-127802Y200498D01*
X-126976Y199945D01*
X-126000Y199751D01*
X-125024Y199945D01*
X-124198Y200498D01*
X-123645Y201325D01*
X-123451Y202300D01*
X-123645Y203275D01*
X-124198Y204102D01*
X-125024Y204655D01*
X-126000Y204849D01*
D02*
G37*
G36*
X-73100Y205526D02*
X-73883Y205423D01*
X-74613Y205120D01*
X-75240Y204640D01*
X-75721Y204013D01*
X-76023Y203283D01*
X-76126Y202500D01*
X-76023Y201717D01*
X-75721Y200987D01*
X-75240Y200360D01*
X-74613Y199880D01*
X-73883Y199577D01*
X-73100Y199474D01*
X-72317Y199577D01*
X-71587Y199880D01*
X-70960Y200360D01*
X-70480Y200987D01*
X-70177Y201717D01*
X-70074Y202500D01*
X-70177Y203283D01*
X-70480Y204013D01*
X-70960Y204640D01*
X-71587Y205120D01*
X-72317Y205423D01*
X-73100Y205526D01*
D02*
G37*
G36*
X-88800Y203826D02*
X-89583Y203723D01*
X-90313Y203420D01*
X-90940Y202940D01*
X-91421Y202313D01*
X-91723Y201583D01*
X-91826Y200800D01*
X-91723Y200017D01*
X-91421Y199287D01*
X-90940Y198660D01*
X-90313Y198179D01*
X-89583Y197877D01*
X-88800Y197774D01*
X-88017Y197877D01*
X-87287Y198179D01*
X-86660Y198660D01*
X-86180Y199287D01*
X-85877Y200017D01*
X-85774Y200800D01*
X-85877Y201583D01*
X-86180Y202313D01*
X-86660Y202940D01*
X-87287Y203420D01*
X-88017Y203723D01*
X-88800Y203826D01*
D02*
G37*
G36*
X-81300Y202649D02*
X-82275Y202455D01*
X-83102Y201902D01*
X-83655Y201076D01*
X-83849Y200100D01*
X-83655Y199125D01*
X-83102Y198298D01*
X-82275Y197745D01*
X-81300Y197551D01*
X-80325Y197745D01*
X-79498Y198298D01*
X-78945Y199125D01*
X-78751Y200100D01*
X-78945Y201076D01*
X-79498Y201902D01*
X-80325Y202455D01*
X-81300Y202649D01*
D02*
G37*
G36*
X107500D02*
X106525Y202455D01*
X105698Y201902D01*
X105145Y201076D01*
X104951Y200100D01*
X105121Y199246D01*
X104705Y198968D01*
X104276Y199255D01*
X103300Y199449D01*
X102845Y199358D01*
X102492Y199712D01*
X102549Y200000D01*
X102355Y200975D01*
X101802Y201802D01*
X100976Y202355D01*
X100000Y202549D01*
X99024Y202355D01*
X98198Y201802D01*
X97645Y200975D01*
X97451Y200000D01*
X97645Y199024D01*
X98198Y198198D01*
X99024Y197645D01*
X100000Y197451D01*
X100455Y197541D01*
X100808Y197188D01*
X100751Y196900D01*
X100945Y195924D01*
X101498Y195098D01*
X102324Y194545D01*
X103300Y194351D01*
X104276Y194545D01*
X105102Y195098D01*
X105655Y195924D01*
X105849Y196900D01*
X105679Y197754D01*
X106095Y198032D01*
X106525Y197745D01*
X107500Y197551D01*
X108475Y197745D01*
X109302Y198298D01*
X109855Y199125D01*
X110049Y200100D01*
X109855Y201076D01*
X109302Y201902D01*
X108475Y202455D01*
X107500Y202649D01*
D02*
G37*
G36*
X-110300Y203649D02*
X-111275Y203455D01*
X-112102Y202902D01*
X-112655Y202076D01*
X-112849Y201100D01*
X-112655Y200125D01*
X-112102Y199298D01*
X-111275Y198745D01*
X-110300Y198551D01*
X-109325Y198745D01*
X-108498Y199298D01*
X-107945Y200125D01*
X-107751Y201100D01*
X-107945Y202076D01*
X-108498Y202902D01*
X-109325Y203455D01*
X-110300Y203649D01*
D02*
G37*
G36*
X-142400Y205249D02*
X-143376Y205055D01*
X-144202Y204502D01*
X-144755Y203676D01*
X-144949Y202700D01*
X-144755Y201725D01*
X-144202Y200898D01*
X-143376Y200345D01*
X-142400Y200151D01*
X-141425Y200345D01*
X-140598Y200898D01*
X-140045Y201725D01*
X-139851Y202700D01*
X-140045Y203676D01*
X-140598Y204502D01*
X-141425Y205055D01*
X-142400Y205249D01*
D02*
G37*
G36*
X-43000Y203626D02*
X-43783Y203523D01*
X-44513Y203221D01*
X-45140Y202740D01*
X-45567Y202183D01*
X-46067D01*
X-46494Y202740D01*
X-47120Y203221D01*
X-47850Y203523D01*
X-48633Y203626D01*
X-49417Y203523D01*
X-50146Y203221D01*
X-50773Y202740D01*
X-51200Y202183D01*
X-51700D01*
X-52127Y202740D01*
X-52754Y203221D01*
X-53483Y203523D01*
X-54267Y203626D01*
X-55050Y203523D01*
X-55780Y203221D01*
X-56406Y202740D01*
X-56833Y202183D01*
X-57333D01*
X-57760Y202740D01*
X-58387Y203221D01*
X-59117Y203523D01*
X-59900Y203626D01*
X-60683Y203523D01*
X-61413Y203221D01*
X-62040Y202740D01*
X-62520Y202113D01*
X-62823Y201383D01*
X-62926Y200600D01*
X-62823Y199817D01*
X-62520Y199087D01*
X-62040Y198460D01*
X-61413Y197979D01*
X-60683Y197677D01*
X-59900Y197574D01*
X-59117Y197677D01*
X-58387Y197979D01*
X-57760Y198460D01*
X-57333Y199017D01*
X-56833D01*
X-56406Y198460D01*
X-55780Y197979D01*
X-55050Y197677D01*
X-54267Y197574D01*
X-53483Y197677D01*
X-52754Y197979D01*
X-52127Y198460D01*
X-51700Y199017D01*
X-51200D01*
X-50773Y198460D01*
X-50146Y197979D01*
X-49417Y197677D01*
X-48633Y197574D01*
X-47850Y197677D01*
X-47120Y197979D01*
X-46494Y198460D01*
X-46067Y199017D01*
X-45567D01*
X-45140Y198460D01*
X-44513Y197979D01*
X-43783Y197677D01*
X-43000Y197574D01*
X-42217Y197677D01*
X-41487Y197979D01*
X-40860Y198460D01*
X-40380Y199087D01*
X-40077Y199817D01*
X-39974Y200600D01*
X-40077Y201383D01*
X-40380Y202113D01*
X-40860Y202740D01*
X-41487Y203221D01*
X-42217Y203523D01*
X-43000Y203626D01*
D02*
G37*
G36*
X-99100Y206849D02*
X-100075Y206655D01*
X-100902Y206102D01*
X-101455Y205276D01*
X-101649Y204300D01*
X-101455Y203325D01*
X-100902Y202498D01*
X-100075Y201945D01*
X-99100Y201751D01*
X-98124Y201945D01*
X-97298Y202498D01*
X-96745Y203325D01*
X-96551Y204300D01*
X-96745Y205276D01*
X-97298Y206102D01*
X-98124Y206655D01*
X-99100Y206849D01*
D02*
G37*
G36*
X-115300Y208849D02*
X-116276Y208655D01*
X-117102Y208102D01*
X-117655Y207276D01*
X-117849Y206300D01*
X-117655Y205325D01*
X-117102Y204498D01*
X-116276Y203945D01*
X-115300Y203751D01*
X-114324Y203945D01*
X-113498Y204498D01*
X-112945Y205325D01*
X-112751Y206300D01*
X-112945Y207276D01*
X-113498Y208102D01*
X-114324Y208655D01*
X-115300Y208849D01*
D02*
G37*
G36*
X75100Y206449D02*
X74124Y206255D01*
X73298Y205702D01*
X72745Y204875D01*
X72551Y203900D01*
X72745Y202925D01*
X72745D01*
X72700Y202906D01*
X72338Y202755D01*
X72338Y202755D01*
X72297Y202738D01*
X72275Y202745D01*
X71902Y203302D01*
X71075Y203855D01*
X70100Y204049D01*
X69125Y203855D01*
X68298Y203302D01*
X67745Y202476D01*
X67551Y201500D01*
X67745Y200524D01*
X68298Y199698D01*
X69125Y199145D01*
X70100Y198951D01*
X71075Y199145D01*
X71902Y199698D01*
X72455Y200524D01*
X72649Y201500D01*
X72455Y202475D01*
X72500Y202494D01*
X72861Y202645D01*
X72861Y202645D01*
X72903Y202662D01*
X72925Y202656D01*
X73298Y202098D01*
X74124Y201545D01*
X74568Y201457D01*
X74759Y200995D01*
X74345Y200376D01*
X74151Y199400D01*
X74345Y198424D01*
X74898Y197598D01*
X75725Y197045D01*
X76700Y196851D01*
X77675Y197045D01*
X77944Y197224D01*
X78360Y196947D01*
X78251Y196400D01*
X78445Y195424D01*
X78998Y194598D01*
X79825Y194045D01*
X80800Y193851D01*
X81775Y194045D01*
X82602Y194598D01*
X83155Y195424D01*
X83349Y196400D01*
X83155Y197376D01*
X82602Y198202D01*
X81775Y198755D01*
X80800Y198949D01*
X79825Y198755D01*
X79556Y198575D01*
X79140Y198853D01*
X79249Y199400D01*
X79055Y200376D01*
X78502Y201202D01*
X77675Y201755D01*
X76700Y201949D01*
X76902Y202098D01*
X76902Y202098D01*
X77455Y202924D01*
X77649Y203900D01*
X77455Y204875D01*
X76902Y205702D01*
X76076Y206255D01*
X75100Y206449D01*
D02*
G37*
G36*
X9300Y205949D02*
X8325Y205755D01*
X7498Y205202D01*
X6945Y204376D01*
X6751Y203400D01*
X6945Y202425D01*
X7498Y201598D01*
X8325Y201045D01*
X9300Y200851D01*
X10275Y201045D01*
X11102Y201598D01*
X11655Y202425D01*
X11849Y203400D01*
X11655Y204376D01*
X11102Y205202D01*
X10275Y205755D01*
X9300Y205949D01*
D02*
G37*
G36*
X84400Y205749D02*
X83425Y205555D01*
X82598Y205002D01*
X82045Y204175D01*
X81851Y203200D01*
X82045Y202224D01*
X82598Y201398D01*
X83425Y200845D01*
X84400Y200651D01*
X85375Y200845D01*
X86202Y201398D01*
X86755Y202224D01*
X86949Y203200D01*
X86755Y204175D01*
X86202Y205002D01*
X85375Y205555D01*
X84400Y205749D01*
D02*
G37*
G36*
X53929Y211475D02*
X45614D01*
Y201191D01*
X53929D01*
Y211475D01*
D02*
G37*
G36*
X31685D02*
X23370D01*
Y201191D01*
X31685D01*
Y211475D01*
D02*
G37*
G36*
X93900Y199049D02*
X92924Y198855D01*
X92098Y198302D01*
X91545Y197476D01*
X91351Y196500D01*
X91545Y195525D01*
X92098Y194698D01*
X92924Y194145D01*
X93900Y193951D01*
X94876Y194145D01*
X95702Y194698D01*
X96255Y195525D01*
X96449Y196500D01*
X96255Y197476D01*
X95702Y198302D01*
X94876Y198855D01*
X93900Y199049D01*
D02*
G37*
G36*
X5200Y192049D02*
X4225Y191855D01*
X3398Y191302D01*
X2845Y190475D01*
X2651Y189500D01*
X2845Y188524D01*
X3398Y187698D01*
X4225Y187145D01*
X5200Y186951D01*
X6176Y187145D01*
X7002Y187698D01*
X7555Y188524D01*
X7749Y189500D01*
X7555Y190475D01*
X7002Y191302D01*
X6176Y191855D01*
X5200Y192049D01*
D02*
G37*
G36*
X19400Y191649D02*
X18425Y191455D01*
X17598Y190902D01*
X17045Y190076D01*
X16851Y189100D01*
X17045Y188125D01*
X17598Y187298D01*
X18425Y186745D01*
X19400Y186551D01*
X20376Y186745D01*
X21202Y187298D01*
X21755Y188125D01*
X21949Y189100D01*
X21755Y190076D01*
X21202Y190902D01*
X20376Y191455D01*
X19400Y191649D01*
D02*
G37*
G36*
X-102900Y199826D02*
X-103683Y199723D01*
X-104413Y199420D01*
X-105040Y198940D01*
X-105520Y198313D01*
X-105823Y197583D01*
X-105926Y196800D01*
X-105823Y196017D01*
X-105520Y195287D01*
X-105040Y194660D01*
X-104413Y194179D01*
X-103683Y193877D01*
X-103749Y193380D01*
X-104183Y193323D01*
X-104913Y193020D01*
X-105540Y192540D01*
X-106020Y191913D01*
X-106323Y191183D01*
X-106426Y190400D01*
X-106323Y189617D01*
X-106020Y188887D01*
X-105540Y188260D01*
X-104913Y187779D01*
X-104183Y187477D01*
X-103400Y187374D01*
X-102617Y187477D01*
X-101887Y187779D01*
X-101260Y188260D01*
X-100779Y188887D01*
X-100477Y189617D01*
X-100374Y190400D01*
X-100477Y191183D01*
X-100779Y191913D01*
X-101260Y192540D01*
X-101887Y193020D01*
X-102617Y193323D01*
X-102551Y193820D01*
X-102117Y193877D01*
X-101387Y194179D01*
X-100760Y194660D01*
X-100279Y195287D01*
X-99977Y196017D01*
X-99874Y196800D01*
X-99977Y197583D01*
X-100279Y198313D01*
X-100760Y198940D01*
X-101387Y199420D01*
X-102117Y199723D01*
X-102900Y199826D01*
D02*
G37*
G36*
X-9400Y192249D02*
X-10375Y192055D01*
X-11202Y191502D01*
X-11755Y190675D01*
X-11949Y189700D01*
X-11755Y188725D01*
X-11202Y187898D01*
X-10375Y187345D01*
X-9400Y187151D01*
X-8425Y187345D01*
X-7598Y187898D01*
X-7045Y188725D01*
X-6851Y189700D01*
X-7045Y190675D01*
X-7598Y191502D01*
X-8425Y192055D01*
X-9400Y192249D01*
D02*
G37*
G36*
X27600Y189449D02*
X26625Y189255D01*
X25798Y188702D01*
X25245Y187875D01*
X25051Y186900D01*
X25245Y185924D01*
X25798Y185098D01*
X26625Y184545D01*
X27600Y184351D01*
X28576Y184545D01*
X29402Y185098D01*
X29955Y185924D01*
X30149Y186900D01*
X29955Y187875D01*
X29402Y188702D01*
X28576Y189255D01*
X27600Y189449D01*
D02*
G37*
G36*
X-12016Y185753D02*
X-15969D01*
Y181800D01*
X-12016D01*
Y185753D01*
D02*
G37*
G36*
X71200Y190449D02*
X70224Y190255D01*
X69398Y189702D01*
X68845Y188875D01*
X68651Y187900D01*
X68845Y186925D01*
X69398Y186098D01*
X70224Y185545D01*
X71200Y185351D01*
X72176Y185545D01*
X73002Y186098D01*
X73555Y186925D01*
X73749Y187900D01*
X73555Y188875D01*
X73002Y189702D01*
X72176Y190255D01*
X71200Y190449D01*
D02*
G37*
G36*
X-27700Y190149D02*
X-28675Y189955D01*
X-29502Y189402D01*
X-30055Y188575D01*
X-30249Y187600D01*
X-30055Y186625D01*
X-29502Y185798D01*
X-28675Y185245D01*
X-27700Y185051D01*
X-26724Y185245D01*
X-25898Y185798D01*
X-25345Y186625D01*
X-25151Y187600D01*
X-25345Y188575D01*
X-25898Y189402D01*
X-26724Y189955D01*
X-27700Y190149D01*
D02*
G37*
G36*
X-115600Y193926D02*
X-116383Y193823D01*
X-117113Y193520D01*
X-117740Y193040D01*
X-118220Y192413D01*
X-118523Y191683D01*
X-118626Y190900D01*
X-118523Y190117D01*
X-118220Y189387D01*
X-117740Y188760D01*
X-117113Y188279D01*
X-116383Y187977D01*
X-115600Y187874D01*
X-114817Y187977D01*
X-114087Y188279D01*
X-113460Y188760D01*
X-112979Y189387D01*
X-112677Y190117D01*
X-112574Y190900D01*
X-112677Y191683D01*
X-112979Y192413D01*
X-113460Y193040D01*
X-114087Y193520D01*
X-114817Y193823D01*
X-115600Y193926D01*
D02*
G37*
G36*
X148400Y202849D02*
X147424Y202655D01*
X146598Y202102D01*
X146045Y201275D01*
X145851Y200300D01*
X146045Y199325D01*
X146598Y198498D01*
X147343Y198000D01*
Y197500D01*
X147198Y197402D01*
X146645Y196575D01*
X146451Y195600D01*
X146645Y194624D01*
X147198Y193798D01*
X148024Y193245D01*
X149000Y193051D01*
X149976Y193245D01*
X150802Y193798D01*
X151355Y194624D01*
X151549Y195600D01*
X151355Y196575D01*
X150802Y197402D01*
X149976Y197955D01*
X149907Y198300D01*
X150202Y198498D01*
X150755Y199325D01*
X150949Y200300D01*
X150755Y201275D01*
X150202Y202102D01*
X149375Y202655D01*
X148400Y202849D01*
D02*
G37*
G36*
X-120600Y197549D02*
X-121575Y197355D01*
X-122402Y196802D01*
X-122955Y195975D01*
X-123149Y195000D01*
X-122955Y194025D01*
X-122402Y193198D01*
X-121575Y192645D01*
X-120600Y192451D01*
X-119624Y192645D01*
X-118798Y193198D01*
X-118245Y194025D01*
X-118051Y195000D01*
X-118245Y195975D01*
X-118798Y196802D01*
X-119624Y197355D01*
X-120600Y197549D01*
D02*
G37*
G36*
X46524Y198433D02*
X45554Y198240D01*
X44732Y197691D01*
X44183Y196869D01*
X43991Y195900D01*
X44183Y194931D01*
X44732Y194109D01*
X45554Y193560D01*
X46524Y193367D01*
X47493Y193560D01*
X48315Y194109D01*
X48864Y194931D01*
X49057Y195900D01*
X48864Y196869D01*
X48315Y197691D01*
X47493Y198240D01*
X46524Y198433D01*
D02*
G37*
G36*
X30776D02*
X29806Y198240D01*
X28984Y197691D01*
X28435Y196869D01*
X28243Y195900D01*
X28435Y194931D01*
X28984Y194109D01*
X29806Y193560D01*
X30776Y193367D01*
X31745Y193560D01*
X32567Y194109D01*
X33116Y194931D01*
X33309Y195900D01*
X33116Y196869D01*
X32567Y197691D01*
X31745Y198240D01*
X30776Y198433D01*
D02*
G37*
G36*
X74800Y195449D02*
X73825Y195255D01*
X72998Y194702D01*
X72445Y193876D01*
X72251Y192900D01*
X72445Y191925D01*
X72998Y191098D01*
X73825Y190545D01*
X74800Y190351D01*
X75775Y190545D01*
X76602Y191098D01*
X77155Y191925D01*
X77349Y192900D01*
X77155Y193876D01*
X76602Y194702D01*
X75775Y195255D01*
X74800Y195449D01*
D02*
G37*
G36*
X-97300Y193949D02*
X-98276Y193755D01*
X-99102Y193202D01*
X-99655Y192376D01*
X-99849Y191400D01*
X-99655Y190425D01*
X-99102Y189598D01*
X-98276Y189045D01*
X-97300Y188851D01*
X-96324Y189045D01*
X-95498Y189598D01*
X-94945Y190425D01*
X-94751Y191400D01*
X-94945Y192376D01*
X-95498Y193202D01*
X-96324Y193755D01*
X-97300Y193949D01*
D02*
G37*
G36*
X64100Y209849D02*
X63125Y209655D01*
X62298Y209102D01*
X61745Y208276D01*
X61551Y207300D01*
X61745Y206325D01*
X62061Y205852D01*
Y174545D01*
X61341Y173825D01*
X60862Y173970D01*
X60760Y174481D01*
X60208Y175308D01*
X59381Y175861D01*
X58406Y176055D01*
X57430Y175861D01*
X56949Y175539D01*
X9348D01*
X8875Y175855D01*
X7900Y176049D01*
X6925Y175855D01*
X6098Y175302D01*
X5545Y174476D01*
X5351Y173500D01*
X5545Y172524D01*
X6098Y171698D01*
X6925Y171145D01*
X7900Y170951D01*
X8875Y171145D01*
X9052Y171263D01*
X9468Y170985D01*
X9451Y170900D01*
X9645Y169924D01*
X10198Y169098D01*
X11025Y168545D01*
X12000Y168351D01*
X12976Y168545D01*
X13448Y168861D01*
X30139D01*
X30375Y168420D01*
X30145Y168076D01*
X29951Y167100D01*
X30024Y166734D01*
X29707Y166348D01*
X-24900D01*
X-24900Y166348D01*
X-26336Y166158D01*
X-27674Y165604D01*
X-28823Y164723D01*
X-45658Y147887D01*
X-46137Y148032D01*
X-46145Y148075D01*
X-46698Y148902D01*
X-47524Y149455D01*
X-48500Y149649D01*
X-49475Y149455D01*
X-50292Y148909D01*
X-50345Y148931D01*
X-50778Y149220D01*
X-50825Y149455D01*
X-51378Y150282D01*
X-52205Y150835D01*
X-53180Y151029D01*
X-54155Y150835D01*
X-54982Y150282D01*
X-55535Y149455D01*
X-55729Y148480D01*
X-55535Y147505D01*
X-55168Y146955D01*
X-55355Y146676D01*
X-55549Y145700D01*
X-55355Y144725D01*
X-54802Y143898D01*
X-53975Y143345D01*
X-53000Y143151D01*
X-52025Y143345D01*
X-51198Y143898D01*
X-50645Y144725D01*
X-50592Y144991D01*
X-50130Y145183D01*
X-49475Y144745D01*
X-49432Y144737D01*
X-49287Y144258D01*
X-52323Y141223D01*
X-53204Y140074D01*
X-53758Y138736D01*
X-53948Y137300D01*
Y97600D01*
X-53758Y96164D01*
X-53204Y94826D01*
X-52323Y93677D01*
X-51174Y92796D01*
X-49836Y92242D01*
X-49404Y92185D01*
X-41609Y84391D01*
X-40669Y83669D01*
X-39575Y83216D01*
X-38400Y83061D01*
X-37225Y83216D01*
X-36131Y83669D01*
X-35191Y84391D01*
X-34469Y85331D01*
X-34016Y86425D01*
X-33861Y87600D01*
X-34016Y88775D01*
X-34469Y89869D01*
X-35191Y90809D01*
X-36105Y91724D01*
X-35869Y92165D01*
X-35800Y92151D01*
X-34824Y92345D01*
X-33998Y92898D01*
X-33445Y93725D01*
X-33251Y94700D01*
X-33445Y95675D01*
X-33998Y96502D01*
X-34824Y97055D01*
X-35800Y97249D01*
X-36775Y97055D01*
X-37126Y96821D01*
X-37925Y97355D01*
X-38900Y97549D01*
X-39876Y97355D01*
X-40702Y96802D01*
X-41140Y96759D01*
X-42853Y98471D01*
Y128568D01*
X-42412Y128803D01*
X-41875Y128445D01*
X-40900Y128251D01*
X-39924Y128445D01*
X-39098Y128998D01*
X-38545Y129824D01*
X-38351Y130800D01*
X-38545Y131775D01*
X-39098Y132602D01*
X-39924Y133155D01*
X-40900Y133349D01*
X-41875Y133155D01*
X-42412Y132797D01*
X-42853Y133032D01*
Y135002D01*
X-39499Y138356D01*
X-39112Y138039D01*
X-39355Y137675D01*
X-39549Y136700D01*
X-39355Y135724D01*
X-38802Y134898D01*
X-37975Y134345D01*
X-37000Y134151D01*
X-36024Y134345D01*
X-35198Y134898D01*
X-34645Y135724D01*
X-34451Y136700D01*
X-34645Y137675D01*
X-35198Y138502D01*
X-36024Y139055D01*
X-37000Y139249D01*
X-37975Y139055D01*
X-38339Y138812D01*
X-38656Y139199D01*
X-22602Y155253D01*
X44739D01*
X44925Y155026D01*
X45119Y154051D01*
X45672Y153224D01*
X46499Y152671D01*
X47474Y152477D01*
X48450Y152671D01*
X49276Y153224D01*
X49829Y154051D01*
X50023Y155026D01*
X50209Y155253D01*
X118400D01*
X119836Y155442D01*
X121174Y155996D01*
X122323Y156877D01*
X122323Y156877D01*
X122323Y156877D01*
X125498Y160053D01*
X128217D01*
X128315Y159987D01*
X128900Y159871D01*
X165046D01*
X165281Y159430D01*
X165245Y159376D01*
X165051Y158400D01*
X165245Y157424D01*
X165798Y156598D01*
X166624Y156045D01*
X167600Y155851D01*
X168576Y156045D01*
X169402Y156598D01*
X169955Y157424D01*
X170149Y158400D01*
X169955Y159376D01*
X169402Y160202D01*
X169058Y160433D01*
X169313Y160815D01*
X169429Y161400D01*
Y175200D01*
X169313Y175785D01*
X168981Y176281D01*
X168485Y176613D01*
X167900Y176729D01*
X158829D01*
Y182900D01*
X158713Y183485D01*
X158381Y183981D01*
X157885Y184313D01*
X157300Y184429D01*
X151100D01*
X150515Y184313D01*
X150019Y183981D01*
X149687Y183485D01*
X149571Y182900D01*
Y176729D01*
X128900D01*
X128315Y176613D01*
X127819Y176281D01*
X127487Y175785D01*
X127371Y175200D01*
Y171148D01*
X123200D01*
X123200Y171148D01*
X121764Y170958D01*
X120981Y170634D01*
X120426Y170404D01*
X119277Y169523D01*
X119277Y169523D01*
X116102Y166348D01*
X75722D01*
X75699Y166575D01*
X75699D01*
X75677Y166798D01*
X75677D01*
X75673Y166845D01*
X76175Y166945D01*
X77002Y167498D01*
X77555Y168324D01*
X77749Y169300D01*
X77555Y170275D01*
X77002Y171102D01*
X76175Y171655D01*
X75200Y171849D01*
X74225Y171655D01*
X73398Y171102D01*
X72845Y170275D01*
X72651Y169300D01*
X72845Y168324D01*
X73398Y167498D01*
X74225Y166945D01*
X74727Y166845D01*
X74678Y166348D01*
X50674D01*
X50356Y166734D01*
X50449Y167200D01*
X50255Y168175D01*
X50092Y168420D01*
X50327Y168861D01*
X61300D01*
X62080Y169016D01*
X62742Y169458D01*
X65542Y172258D01*
X65984Y172920D01*
X66139Y173700D01*
Y193071D01*
X66618Y193216D01*
X67098Y192498D01*
X67924Y191945D01*
X68900Y191751D01*
X69876Y191945D01*
X70702Y192498D01*
X71255Y193324D01*
X71449Y194300D01*
X71255Y195275D01*
X70702Y196102D01*
X69876Y196655D01*
X68900Y196849D01*
X67924Y196655D01*
X67098Y196102D01*
X66618Y195384D01*
X66139Y195529D01*
Y205852D01*
X66455Y206325D01*
X66649Y207300D01*
X66455Y208276D01*
X65902Y209102D01*
X65075Y209655D01*
X64100Y209849D01*
D02*
G37*
G36*
X-109800Y195949D02*
X-110775Y195755D01*
X-111602Y195202D01*
X-112155Y194376D01*
X-112349Y193400D01*
X-112155Y192424D01*
X-111602Y191598D01*
X-110775Y191045D01*
X-109800Y190851D01*
X-108825Y191045D01*
X-107998Y191598D01*
X-107445Y192424D01*
X-107251Y193400D01*
X-107445Y194376D01*
X-107998Y195202D01*
X-108825Y195755D01*
X-109800Y195949D01*
D02*
G37*
G36*
X54000Y152349D02*
X53025Y152155D01*
X52198Y151602D01*
X51645Y150776D01*
X51451Y149800D01*
X51645Y148825D01*
X52198Y147998D01*
X53025Y147445D01*
X54000Y147251D01*
X54975Y147445D01*
X55802Y147998D01*
X56355Y148825D01*
X56549Y149800D01*
X56355Y150776D01*
X55802Y151602D01*
X54975Y152155D01*
X54000Y152349D01*
D02*
G37*
G36*
X7700Y129249D02*
X6725Y129055D01*
X5898Y128502D01*
X5345Y127675D01*
X5151Y126700D01*
X5345Y125724D01*
X5898Y124898D01*
X6725Y124345D01*
X7700Y124151D01*
X8675Y124345D01*
X9502Y124898D01*
X10055Y125724D01*
X10249Y126700D01*
X10055Y127675D01*
X9502Y128502D01*
X8675Y129055D01*
X7700Y129249D01*
D02*
G37*
G36*
X100400Y127749D02*
X99424Y127555D01*
X98598Y127002D01*
X98045Y126175D01*
X97851Y125200D01*
X98045Y124224D01*
X98598Y123398D01*
X99424Y122845D01*
X100400Y122651D01*
X101375Y122845D01*
X102202Y123398D01*
X102755Y124224D01*
X102949Y125200D01*
X102755Y126175D01*
X102202Y127002D01*
X101375Y127555D01*
X100400Y127749D01*
D02*
G37*
G36*
X-3800Y129749D02*
X-4775Y129555D01*
X-5602Y129002D01*
X-6155Y128175D01*
X-6349Y127200D01*
X-6155Y126225D01*
X-5602Y125398D01*
X-4775Y124845D01*
X-3800Y124651D01*
X-2825Y124845D01*
X-1998Y125398D01*
X-1445Y126225D01*
X-1251Y127200D01*
X-1445Y128175D01*
X-1998Y129002D01*
X-2825Y129555D01*
X-3800Y129749D01*
D02*
G37*
G36*
X-61000Y129649D02*
X-61976Y129455D01*
X-62802Y128902D01*
X-63355Y128076D01*
X-63549Y127100D01*
X-63355Y126125D01*
X-62802Y125298D01*
X-61976Y124745D01*
X-61000Y124551D01*
X-60024Y124745D01*
X-59198Y125298D01*
X-58645Y126125D01*
X-58451Y127100D01*
X-58645Y128076D01*
X-59198Y128902D01*
X-60024Y129455D01*
X-61000Y129649D01*
D02*
G37*
G36*
X108800Y127026D02*
X108017Y126923D01*
X107287Y126620D01*
X106660Y126140D01*
X106179Y125513D01*
X105877Y124783D01*
X105774Y124000D01*
X105877Y123217D01*
X106179Y122487D01*
X106660Y121860D01*
X107287Y121379D01*
X108017Y121077D01*
X108800Y120974D01*
X109583Y121077D01*
X110313Y121379D01*
X110940Y121860D01*
X111421Y122487D01*
X111723Y123217D01*
X111826Y124000D01*
X111723Y124783D01*
X111421Y125513D01*
X110940Y126140D01*
X110313Y126620D01*
X109583Y126923D01*
X108800Y127026D01*
D02*
G37*
G36*
X204200Y125949D02*
X203224Y125755D01*
X202398Y125202D01*
X201845Y124375D01*
X201651Y123400D01*
X201845Y122424D01*
X202398Y121598D01*
X203224Y121045D01*
X204200Y120851D01*
X205175Y121045D01*
X206002Y121598D01*
X206555Y122424D01*
X206749Y123400D01*
X206555Y124375D01*
X206002Y125202D01*
X205175Y125755D01*
X204200Y125949D01*
D02*
G37*
G36*
X70180Y128406D02*
X69397Y128303D01*
X68667Y128001D01*
X68041Y127520D01*
X67560Y126893D01*
X67257Y126163D01*
X67154Y125380D01*
X67257Y124597D01*
X67560Y123867D01*
X68041Y123241D01*
X68667Y122760D01*
X69397Y122458D01*
X70180Y122354D01*
X70964Y122458D01*
X71693Y122760D01*
X72320Y123241D01*
X72801Y123867D01*
X73103Y124597D01*
X73206Y125380D01*
X73103Y126163D01*
X72801Y126893D01*
X72320Y127520D01*
X71693Y128001D01*
X70964Y128303D01*
X70180Y128406D01*
D02*
G37*
G36*
X-163600Y126349D02*
X-164576Y126155D01*
X-165402Y125602D01*
X-165955Y124776D01*
X-166149Y123800D01*
X-165955Y122825D01*
X-165402Y121998D01*
X-164576Y121445D01*
X-163600Y121251D01*
X-162625Y121445D01*
X-161798Y121998D01*
X-161245Y122825D01*
X-161051Y123800D01*
X-161245Y124776D01*
X-161798Y125602D01*
X-162625Y126155D01*
X-163600Y126349D01*
D02*
G37*
G36*
X83300Y213549D02*
X82324Y213355D01*
X81498Y212802D01*
X80945Y211976D01*
X80751Y211000D01*
X80945Y210024D01*
X81498Y209198D01*
X82324Y208645D01*
X83300Y208451D01*
X84276Y208645D01*
X85102Y209198D01*
X85655Y210024D01*
X85849Y211000D01*
X85655Y211976D01*
X85102Y212802D01*
X84276Y213355D01*
X83300Y213549D01*
D02*
G37*
G36*
X112900Y133849D02*
X111925Y133655D01*
X111098Y133102D01*
X110545Y132275D01*
X110351Y131300D01*
X110545Y130324D01*
X111098Y129498D01*
X111925Y128945D01*
X112900Y128751D01*
X113875Y128945D01*
X114702Y129498D01*
X115255Y130324D01*
X115449Y131300D01*
X115255Y132275D01*
X114702Y133102D01*
X113875Y133655D01*
X112900Y133849D01*
D02*
G37*
G36*
X38800Y136819D02*
X37824Y136625D01*
X36998Y136072D01*
X36445Y135245D01*
X36251Y134270D01*
X36445Y133294D01*
X36769Y132810D01*
X36345Y132176D01*
X36151Y131200D01*
X36345Y130225D01*
X36898Y129398D01*
X37725Y128845D01*
X38700Y128651D01*
X39676Y128845D01*
X40502Y129398D01*
X41055Y130225D01*
X41249Y131200D01*
X41055Y132176D01*
X40731Y132660D01*
X41155Y133294D01*
X41349Y134270D01*
X41155Y135245D01*
X40602Y136072D01*
X39775Y136625D01*
X38800Y136819D01*
D02*
G37*
G36*
X129900Y133949D02*
X128925Y133755D01*
X128098Y133202D01*
X127545Y132376D01*
X127351Y131400D01*
X127545Y130424D01*
X128098Y129598D01*
X128925Y129045D01*
X129900Y128851D01*
X130876Y129045D01*
X131702Y129598D01*
X132255Y130424D01*
X132449Y131400D01*
X132255Y132376D01*
X131702Y133202D01*
X130876Y133755D01*
X129900Y133949D01*
D02*
G37*
G36*
X164500Y134826D02*
X163717Y134723D01*
X162987Y134421D01*
X162360Y133940D01*
X161880Y133313D01*
X161577Y132583D01*
X161474Y131800D01*
X161577Y131017D01*
X161880Y130287D01*
X162360Y129660D01*
X162987Y129180D01*
X163717Y128877D01*
X164500Y128774D01*
X165283Y128877D01*
X166013Y129180D01*
X166640Y129660D01*
X167121Y130287D01*
X167423Y131017D01*
X167526Y131800D01*
X167423Y132583D01*
X167121Y133313D01*
X166640Y133940D01*
X166013Y134421D01*
X165283Y134723D01*
X164500Y134826D01*
D02*
G37*
G36*
X193083Y131866D02*
X192107Y131672D01*
X191280Y131120D01*
X190728Y130293D01*
X190534Y129317D01*
X190728Y128342D01*
X191280Y127515D01*
X192107Y126962D01*
X193083Y126768D01*
X194058Y126962D01*
X194885Y127515D01*
X195438Y128342D01*
X195632Y129317D01*
X195438Y130293D01*
X194885Y131120D01*
X194058Y131672D01*
X193083Y131866D01*
D02*
G37*
G36*
X212400Y136349D02*
X211424Y136155D01*
X210598Y135602D01*
X210045Y134775D01*
X209851Y133800D01*
X210045Y132825D01*
X210598Y131998D01*
X211124Y131646D01*
X211027Y131155D01*
X211024Y131155D01*
X210198Y130602D01*
X209645Y129776D01*
X209451Y128800D01*
X209645Y127824D01*
X210198Y126998D01*
X211024Y126445D01*
X212000Y126251D01*
X212976Y126445D01*
X213802Y126998D01*
X214355Y127824D01*
X214549Y128800D01*
X214355Y129776D01*
X213802Y130602D01*
X212976Y131155D01*
Y131366D01*
X213375Y131445D01*
X214202Y131998D01*
X214755Y132825D01*
X214949Y133800D01*
X214755Y134775D01*
X214202Y135602D01*
X213375Y136155D01*
X212400Y136349D01*
D02*
G37*
G36*
X-125200Y135330D02*
X-126114Y135210D01*
X-126965Y134857D01*
X-127696Y134296D01*
X-128257Y133565D01*
X-128610Y132714D01*
X-128730Y131800D01*
X-128610Y130886D01*
X-128257Y130035D01*
X-127696Y129304D01*
X-126965Y128743D01*
X-126114Y128390D01*
X-125200Y128270D01*
X-124286Y128390D01*
X-123435Y128743D01*
X-122704Y129304D01*
X-122143Y130035D01*
X-121790Y130886D01*
X-121670Y131800D01*
X-121790Y132714D01*
X-122143Y133565D01*
X-122704Y134296D01*
X-123435Y134857D01*
X-124286Y135210D01*
X-125200Y135330D01*
D02*
G37*
G36*
X-98600Y132249D02*
X-99576Y132055D01*
X-100402Y131502D01*
X-100955Y130675D01*
X-101149Y129700D01*
X-100955Y128725D01*
X-100402Y127898D01*
X-99576Y127345D01*
X-98600Y127151D01*
X-97624Y127345D01*
X-96798Y127898D01*
X-96245Y128725D01*
X-96051Y129700D01*
X-96245Y130675D01*
X-96798Y131502D01*
X-97624Y132055D01*
X-98600Y132249D01*
D02*
G37*
G36*
X138800Y126826D02*
X138017Y126723D01*
X137287Y126420D01*
X136660Y125940D01*
X136179Y125313D01*
X135877Y124583D01*
X135774Y123800D01*
X135877Y123017D01*
X136179Y122287D01*
X136660Y121660D01*
X137287Y121179D01*
X138017Y120877D01*
X138800Y120774D01*
X139583Y120877D01*
X140313Y121179D01*
X140940Y121660D01*
X141420Y122287D01*
X141723Y123017D01*
X141826Y123800D01*
X141723Y124583D01*
X141420Y125313D01*
X140940Y125940D01*
X140313Y126420D01*
X139583Y126723D01*
X138800Y126826D01*
D02*
G37*
G36*
X53600Y117349D02*
X52624Y117155D01*
X51798Y116602D01*
X51245Y115776D01*
X51051Y114800D01*
X51245Y113824D01*
X51475Y113480D01*
X51240Y113039D01*
X48448D01*
X47976Y113355D01*
X47000Y113549D01*
X46025Y113355D01*
X45198Y112802D01*
X44645Y111976D01*
X44451Y111000D01*
X44645Y110024D01*
X45198Y109198D01*
X46025Y108645D01*
X47000Y108451D01*
X47976Y108645D01*
X48448Y108961D01*
X49342D01*
X49563Y108512D01*
X49180Y108013D01*
X48877Y107283D01*
X48774Y106500D01*
X48877Y105717D01*
X49180Y104987D01*
X49660Y104360D01*
X50287Y103879D01*
X51017Y103577D01*
X51800Y103474D01*
X52583Y103577D01*
X53313Y103879D01*
X53940Y104360D01*
X54421Y104987D01*
X54723Y105717D01*
X54826Y106500D01*
X54723Y107283D01*
X54421Y108013D01*
X53940Y108640D01*
X54049Y108961D01*
X59400D01*
X60180Y109116D01*
X60842Y109558D01*
X61745Y110461D01*
X69939D01*
X70175Y110020D01*
X70145Y109976D01*
X69951Y109000D01*
X70145Y108025D01*
X70698Y107198D01*
X71525Y106645D01*
X72500Y106451D01*
X73475Y106645D01*
X74302Y107198D01*
X74855Y108025D01*
X75049Y109000D01*
X74855Y109976D01*
X74825Y110020D01*
X75061Y110461D01*
X93552D01*
X94024Y110145D01*
X95000Y109951D01*
X95976Y110145D01*
X96802Y110698D01*
X97355Y111524D01*
X97549Y112500D01*
X97355Y113476D01*
X96802Y114302D01*
X95976Y114855D01*
X95000Y115049D01*
X94024Y114855D01*
X93552Y114539D01*
X60900D01*
X60120Y114384D01*
X59458Y113942D01*
X58555Y113039D01*
X55961D01*
X55725Y113480D01*
X55955Y113824D01*
X56149Y114800D01*
X55955Y115776D01*
X55402Y116602D01*
X54576Y117155D01*
X53600Y117349D01*
D02*
G37*
G36*
X162481Y120314D02*
X161496Y120184D01*
X160579Y119804D01*
X159791Y119199D01*
X159187Y118412D01*
X158807Y117494D01*
X158677Y116509D01*
X158807Y115525D01*
X159187Y114607D01*
X159791Y113820D01*
X160579Y113215D01*
X161496Y112835D01*
X162481Y112705D01*
X163466Y112835D01*
X164383Y113215D01*
X165171Y113820D01*
X165776Y114607D01*
X166156Y115525D01*
X166285Y116509D01*
X166156Y117494D01*
X165776Y118412D01*
X165171Y119199D01*
X164383Y119804D01*
X163466Y120184D01*
X162481Y120314D01*
D02*
G37*
G36*
X-61000Y122349D02*
X-61976Y122155D01*
X-62802Y121602D01*
X-63355Y120775D01*
X-63549Y119800D01*
X-63355Y118825D01*
X-63111Y118460D01*
X-63202Y118002D01*
X-63202Y118002D01*
X-63202D01*
X-63755Y117175D01*
X-63949Y116200D01*
X-63755Y115225D01*
X-63202Y114398D01*
X-62375Y113845D01*
X-61400Y113651D01*
X-60425Y113845D01*
X-59598Y114398D01*
X-59045Y115225D01*
X-58851Y116200D01*
X-59045Y117175D01*
X-59472Y117814D01*
X-59198Y117998D01*
X-58645Y118825D01*
X-58451Y119800D01*
X-58645Y120775D01*
X-59198Y121602D01*
X-60024Y122155D01*
X-61000Y122349D01*
D02*
G37*
G36*
X102700Y118349D02*
X101725Y118155D01*
X100898Y117602D01*
X100345Y116776D01*
X100151Y115800D01*
X100345Y114824D01*
X100898Y113998D01*
X101725Y113445D01*
X102700Y113251D01*
X103675Y113445D01*
X104502Y113998D01*
X105055Y114824D01*
X105249Y115800D01*
X105055Y116776D01*
X104502Y117602D01*
X103675Y118155D01*
X102700Y118349D01*
D02*
G37*
G36*
X202300Y115849D02*
X201325Y115655D01*
X200498Y115102D01*
X199945Y114276D01*
X199751Y113300D01*
X199945Y112325D01*
X200498Y111498D01*
X201325Y110945D01*
X202300Y110751D01*
X203275Y110945D01*
X204102Y111498D01*
X204655Y112325D01*
X204849Y113300D01*
X204655Y114276D01*
X204102Y115102D01*
X203275Y115655D01*
X202300Y115849D01*
D02*
G37*
G36*
X123100Y113649D02*
X122125Y113455D01*
X121298Y112902D01*
X120745Y112075D01*
X120551Y111100D01*
X120745Y110125D01*
X121298Y109298D01*
X122125Y108745D01*
X123100Y108551D01*
X124075Y108745D01*
X124902Y109298D01*
X125455Y110125D01*
X125649Y111100D01*
X125455Y112075D01*
X124902Y112902D01*
X124075Y113455D01*
X123100Y113649D01*
D02*
G37*
G36*
X133800Y117649D02*
X132825Y117455D01*
X131998Y116902D01*
X131445Y116076D01*
X131251Y115100D01*
X131445Y114125D01*
X131998Y113298D01*
X132825Y112745D01*
X133800Y112551D01*
X134775Y112745D01*
X135602Y113298D01*
X136155Y114125D01*
X136349Y115100D01*
X136155Y116076D01*
X135602Y116902D01*
X134775Y117455D01*
X133800Y117649D01*
D02*
G37*
G36*
X-132100Y116749D02*
X-133075Y116555D01*
X-133902Y116002D01*
X-134455Y115175D01*
X-134649Y114200D01*
X-134455Y113224D01*
X-133902Y112398D01*
X-133075Y111845D01*
X-132100Y111651D01*
X-131124Y111845D01*
X-130298Y112398D01*
X-129745Y113224D01*
X-129551Y114200D01*
X-129745Y115175D01*
X-130298Y116002D01*
X-131124Y116555D01*
X-132100Y116749D01*
D02*
G37*
G36*
X7600Y120249D02*
X6625Y120055D01*
X5798Y119502D01*
X5245Y118675D01*
X5051Y117700D01*
X5245Y116725D01*
X5798Y115898D01*
X6625Y115345D01*
X7600Y115151D01*
X8575Y115345D01*
X9402Y115898D01*
X9955Y116725D01*
X10149Y117700D01*
X9955Y118675D01*
X9402Y119502D01*
X8575Y120055D01*
X7600Y120249D01*
D02*
G37*
G36*
X-125300Y127230D02*
X-126214Y127110D01*
X-127065Y126757D01*
X-127796Y126196D01*
X-128357Y125465D01*
X-128710Y124614D01*
X-128830Y123700D01*
X-128710Y122786D01*
X-128357Y121935D01*
X-127796Y121204D01*
X-127065Y120643D01*
X-126214Y120290D01*
X-125300Y120170D01*
X-124386Y120290D01*
X-123535Y120643D01*
X-122804Y121204D01*
X-122243Y121935D01*
X-121890Y122786D01*
X-121770Y123700D01*
X-121890Y124614D01*
X-122243Y125465D01*
X-122804Y126196D01*
X-123535Y126757D01*
X-124386Y127110D01*
X-125300Y127230D01*
D02*
G37*
G36*
X-139400Y124249D02*
X-140375Y124055D01*
X-141202Y123502D01*
X-141755Y122676D01*
X-141949Y121700D01*
X-141755Y120724D01*
X-141202Y119898D01*
X-140375Y119345D01*
X-139400Y119151D01*
X-138425Y119345D01*
X-137598Y119898D01*
X-137045Y120724D01*
X-136851Y121700D01*
X-137045Y122676D01*
X-137598Y123502D01*
X-138425Y124055D01*
X-139400Y124249D01*
D02*
G37*
G36*
X37311Y125360D02*
X36336Y125166D01*
X35509Y124613D01*
X34956Y123786D01*
X34762Y122811D01*
X34956Y121835D01*
X35509Y121009D01*
X36336Y120456D01*
X37311Y120262D01*
X38287Y120456D01*
X39113Y121009D01*
X39666Y121835D01*
X39860Y122811D01*
X39666Y123786D01*
X39113Y124613D01*
X38287Y125166D01*
X37311Y125360D01*
D02*
G37*
G36*
X51100Y125349D02*
X50125Y125155D01*
X49298Y124602D01*
X48745Y123775D01*
X48551Y122800D01*
X48745Y121825D01*
X49298Y120998D01*
X50125Y120445D01*
X51100Y120251D01*
X52075Y120445D01*
X52902Y120998D01*
X53455Y121825D01*
X53649Y122800D01*
X53455Y123775D01*
X52902Y124602D01*
X52075Y125155D01*
X51100Y125349D01*
D02*
G37*
G36*
X-10200Y121549D02*
X-11175Y121355D01*
X-12002Y120802D01*
X-12555Y119975D01*
X-12749Y119000D01*
X-12555Y118025D01*
X-12002Y117198D01*
X-11175Y116645D01*
X-10200Y116451D01*
X-9225Y116645D01*
X-8398Y117198D01*
X-7845Y118025D01*
X-7651Y119000D01*
X-7845Y119975D01*
X-8398Y120802D01*
X-9225Y121355D01*
X-10200Y121549D01*
D02*
G37*
G36*
X216900Y121449D02*
X215925Y121255D01*
X215098Y120702D01*
X214545Y119876D01*
X214351Y118900D01*
X214545Y117924D01*
X215098Y117098D01*
X215925Y116545D01*
X216900Y116351D01*
X217876Y116545D01*
X218702Y117098D01*
X219255Y117924D01*
X219449Y118900D01*
X219255Y119876D01*
X218702Y120702D01*
X217876Y121255D01*
X216900Y121449D01*
D02*
G37*
G36*
X-39000Y123249D02*
X-39976Y123055D01*
X-40802Y122502D01*
X-41355Y121676D01*
X-41549Y120700D01*
X-41355Y119725D01*
X-40802Y118898D01*
X-39976Y118345D01*
X-39000Y118151D01*
X-38025Y118345D01*
X-37198Y118898D01*
X-36645Y119725D01*
X-36451Y120700D01*
X-36645Y121676D01*
X-37198Y122502D01*
X-38025Y123055D01*
X-39000Y123249D01*
D02*
G37*
G36*
X20000Y123149D02*
X19025Y122955D01*
X18198Y122402D01*
X17645Y121575D01*
X17451Y120600D01*
X17645Y119624D01*
X18198Y118798D01*
X19025Y118245D01*
X20000Y118051D01*
X20976Y118245D01*
X21802Y118798D01*
X22355Y119624D01*
X22549Y120600D01*
X22355Y121575D01*
X21802Y122402D01*
X20976Y122955D01*
X20000Y123149D01*
D02*
G37*
G36*
X-102100Y146949D02*
X-103076Y146755D01*
X-103902Y146202D01*
X-104455Y145376D01*
X-104649Y144400D01*
X-104455Y143424D01*
X-103902Y142598D01*
X-103076Y142045D01*
X-102100Y141851D01*
X-101125Y142045D01*
X-100298Y142598D01*
X-99745Y143424D01*
X-99551Y144400D01*
X-99745Y145376D01*
X-100298Y146202D01*
X-101125Y146755D01*
X-102100Y146949D01*
D02*
G37*
G36*
X122300Y146549D02*
X121325Y146355D01*
X120498Y145802D01*
X119945Y144975D01*
X119751Y144000D01*
X119945Y143025D01*
X120498Y142198D01*
X121325Y141645D01*
X122300Y141451D01*
X123275Y141645D01*
X124102Y142198D01*
X124655Y143025D01*
X124849Y144000D01*
X124655Y144975D01*
X124102Y145802D01*
X123275Y146355D01*
X122300Y146549D01*
D02*
G37*
G36*
X193200Y148249D02*
X192225Y148055D01*
X191398Y147502D01*
X190845Y146676D01*
X190651Y145700D01*
X190845Y144725D01*
X191398Y143898D01*
X192225Y143345D01*
X193200Y143151D01*
X194176Y143345D01*
X195002Y143898D01*
X195555Y144725D01*
X195749Y145700D01*
X195555Y146676D01*
X195002Y147502D01*
X194176Y148055D01*
X193200Y148249D01*
D02*
G37*
G36*
X114900Y148226D02*
X114117Y148123D01*
X113387Y147820D01*
X112760Y147340D01*
X112279Y146713D01*
X111977Y145983D01*
X111874Y145200D01*
X111977Y144417D01*
X112279Y143687D01*
X112760Y143060D01*
X113387Y142579D01*
X114117Y142277D01*
X114900Y142174D01*
X115683Y142277D01*
X116413Y142579D01*
X117040Y143060D01*
X117520Y143687D01*
X117823Y144417D01*
X117926Y145200D01*
X117823Y145983D01*
X117520Y146713D01*
X117040Y147340D01*
X116413Y147820D01*
X115683Y148123D01*
X114900Y148226D01*
D02*
G37*
G36*
X131500Y145426D02*
X130717Y145323D01*
X129987Y145020D01*
X129360Y144540D01*
X128879Y143913D01*
X128577Y143183D01*
X128474Y142400D01*
X128577Y141617D01*
X128879Y140887D01*
X129360Y140260D01*
X129987Y139779D01*
X130717Y139477D01*
X131500Y139374D01*
X132283Y139477D01*
X133013Y139779D01*
X133640Y140260D01*
X134121Y140887D01*
X134423Y141617D01*
X134526Y142400D01*
X134423Y143183D01*
X134121Y143913D01*
X133640Y144540D01*
X133013Y145020D01*
X132283Y145323D01*
X131500Y145426D01*
D02*
G37*
G36*
X107200Y144249D02*
X106225Y144055D01*
X105398Y143502D01*
X104845Y142675D01*
X104651Y141700D01*
X104845Y140725D01*
X105398Y139898D01*
X106225Y139345D01*
X107200Y139151D01*
X108176Y139345D01*
X109002Y139898D01*
X109555Y140725D01*
X109749Y141700D01*
X109555Y142675D01*
X109002Y143502D01*
X108176Y144055D01*
X107200Y144249D01*
D02*
G37*
G36*
X28900Y145949D02*
X27924Y145755D01*
X27098Y145202D01*
X26545Y144376D01*
X26351Y143400D01*
X26545Y142424D01*
X27098Y141598D01*
X27924Y141045D01*
X28900Y140851D01*
X29875Y141045D01*
X30702Y141598D01*
X31255Y142424D01*
X31449Y143400D01*
X31255Y144376D01*
X30702Y145202D01*
X29875Y145755D01*
X28900Y145949D01*
D02*
G37*
G36*
X-164200Y145049D02*
X-165175Y144855D01*
X-166002Y144302D01*
X-166555Y143475D01*
X-166749Y142500D01*
X-166555Y141525D01*
X-166002Y140698D01*
X-165175Y140145D01*
X-164200Y139951D01*
X-163224Y140145D01*
X-162398Y140698D01*
X-161845Y141525D01*
X-161651Y142500D01*
X-161845Y143475D01*
X-162398Y144302D01*
X-163224Y144855D01*
X-164200Y145049D01*
D02*
G37*
G36*
X-59300Y148449D02*
X-60276Y148255D01*
X-61102Y147702D01*
X-61655Y146876D01*
X-61849Y145900D01*
X-61655Y144924D01*
X-61102Y144098D01*
X-60276Y143545D01*
X-59300Y143351D01*
X-58324Y143545D01*
X-57498Y144098D01*
X-56945Y144924D01*
X-56751Y145900D01*
X-56945Y146876D01*
X-57498Y147702D01*
X-58324Y148255D01*
X-59300Y148449D01*
D02*
G37*
G36*
X168500Y151149D02*
X167525Y150955D01*
X166698Y150402D01*
X166145Y149575D01*
X165951Y148600D01*
X166145Y147625D01*
X166698Y146798D01*
X167525Y146245D01*
X168500Y146051D01*
X169475Y146245D01*
X170302Y146798D01*
X170855Y147625D01*
X171049Y148600D01*
X170855Y149575D01*
X170302Y150402D01*
X169475Y150955D01*
X168500Y151149D01*
D02*
G37*
G36*
X200300Y150349D02*
X199325Y150155D01*
X198498Y149602D01*
X197945Y148775D01*
X197751Y147800D01*
X197945Y146825D01*
X198498Y145998D01*
X199325Y145445D01*
X200300Y145251D01*
X201275Y145445D01*
X202102Y145998D01*
X202655Y146825D01*
X202849Y147800D01*
X202655Y148775D01*
X202102Y149602D01*
X201275Y150155D01*
X200300Y150349D01*
D02*
G37*
G36*
X86300Y152626D02*
X85517Y152523D01*
X84787Y152220D01*
X84160Y151740D01*
X83679Y151113D01*
X83377Y150383D01*
X83274Y149600D01*
X83377Y148817D01*
X83679Y148087D01*
X84160Y147460D01*
X84787Y146979D01*
X85517Y146677D01*
X86300Y146574D01*
X87083Y146677D01*
X87813Y146979D01*
X88440Y147460D01*
X88920Y148087D01*
X89223Y148817D01*
X89326Y149600D01*
X89223Y150383D01*
X88920Y151113D01*
X88440Y151740D01*
X87813Y152220D01*
X87083Y152523D01*
X86300Y152626D01*
D02*
G37*
G36*
X-20822Y151671D02*
X-21798Y151477D01*
X-22624Y150924D01*
X-23177Y150098D01*
X-23371Y149122D01*
X-23177Y148147D01*
X-22624Y147320D01*
X-21798Y146767D01*
X-20822Y146573D01*
X-19847Y146767D01*
X-19020Y147320D01*
X-18467Y148147D01*
X-18273Y149122D01*
X-18467Y150098D01*
X-19020Y150924D01*
X-19847Y151477D01*
X-20822Y151671D01*
D02*
G37*
G36*
X206300Y149449D02*
X205325Y149255D01*
X204498Y148702D01*
X203945Y147875D01*
X203751Y146900D01*
X203945Y145924D01*
X204498Y145098D01*
X205325Y144545D01*
X206300Y144351D01*
X207276Y144545D01*
X208102Y145098D01*
X208655Y145924D01*
X208849Y146900D01*
X208655Y147875D01*
X208102Y148702D01*
X207276Y149255D01*
X206300Y149449D01*
D02*
G37*
G36*
X101600Y154649D02*
X100625Y154455D01*
X99798Y153902D01*
X99245Y153076D01*
X99051Y152100D01*
X99245Y151125D01*
X99798Y150298D01*
X100241Y150002D01*
X100316Y149432D01*
X100314Y149422D01*
X99587Y149120D01*
X98960Y148640D01*
X98479Y148013D01*
X98177Y147283D01*
X98074Y146500D01*
X98177Y145717D01*
X98479Y144987D01*
X98960Y144360D01*
X99587Y143879D01*
X100317Y143577D01*
X101100Y143474D01*
X101883Y143577D01*
X102613Y143879D01*
X103240Y144360D01*
X103720Y144987D01*
X104023Y145717D01*
X104126Y146500D01*
X104023Y147283D01*
X103720Y148013D01*
X103240Y148640D01*
X102613Y149120D01*
X102378Y149218D01*
X102427Y149715D01*
X102576Y149745D01*
X103402Y150298D01*
X103955Y151125D01*
X104149Y152100D01*
X103955Y153076D01*
X103402Y153902D01*
X102576Y154455D01*
X101600Y154649D01*
D02*
G37*
G36*
X-10869Y151057D02*
X-11652Y150954D01*
X-12381Y150652D01*
X-13008Y150171D01*
X-13489Y149544D01*
X-13791Y148815D01*
X-13894Y148031D01*
X-13791Y147248D01*
X-13489Y146519D01*
X-13008Y145892D01*
X-12381Y145411D01*
X-11652Y145109D01*
X-10869Y145006D01*
X-10085Y145109D01*
X-9356Y145411D01*
X-8729Y145892D01*
X-8248Y146519D01*
X-8222Y146580D01*
X-7722D01*
X-7694Y146513D01*
X-7214Y145886D01*
X-6587Y145405D01*
X-5857Y145103D01*
X-5074Y145000D01*
X-4291Y145103D01*
X-3561Y145405D01*
X-2934Y145886D01*
X-2454Y146513D01*
X-2151Y147243D01*
X-2048Y148026D01*
X-2151Y148809D01*
X-2454Y149539D01*
X-2934Y150166D01*
X-3561Y150646D01*
X-4291Y150949D01*
X-5074Y151052D01*
X-5857Y150949D01*
X-6587Y150646D01*
X-7214Y150166D01*
X-7694Y149539D01*
X-7720Y149477D01*
X-8220D01*
X-8248Y149544D01*
X-8729Y150171D01*
X-9356Y150652D01*
X-10085Y150954D01*
X-10869Y151057D01*
D02*
G37*
G36*
X144000Y146626D02*
X143217Y146523D01*
X142487Y146221D01*
X141860Y145740D01*
X141379Y145113D01*
X141155Y144571D01*
X140657Y144522D01*
X140202Y145202D01*
X139375Y145755D01*
X138400Y145949D01*
X137425Y145755D01*
X136598Y145202D01*
X136045Y144376D01*
X135851Y143400D01*
X136045Y142424D01*
X136598Y141598D01*
X137425Y141045D01*
X138400Y140851D01*
X139375Y141045D01*
X140202Y141598D01*
X140755Y142424D01*
X141283Y142320D01*
X141379Y142087D01*
X141860Y141460D01*
X142487Y140980D01*
X143217Y140677D01*
X144000Y140574D01*
X144783Y140677D01*
X145513Y140980D01*
X146140Y141460D01*
X146621Y142087D01*
X146923Y142817D01*
X147026Y143600D01*
X146923Y144383D01*
X146621Y145113D01*
X146140Y145740D01*
X145513Y146221D01*
X144783Y146523D01*
X144000Y146626D01*
D02*
G37*
G36*
X-164000Y137749D02*
X-164976Y137555D01*
X-165802Y137002D01*
X-166355Y136176D01*
X-166549Y135200D01*
X-166355Y134224D01*
X-165802Y133398D01*
X-164976Y132845D01*
X-164000Y132651D01*
X-163024Y132845D01*
X-162198Y133398D01*
X-161645Y134224D01*
X-161451Y135200D01*
X-161645Y136176D01*
X-162198Y137002D01*
X-163024Y137555D01*
X-164000Y137749D01*
D02*
G37*
G36*
X5400Y137349D02*
X4425Y137155D01*
X3598Y136602D01*
X3045Y135775D01*
X2851Y134800D01*
X3045Y133825D01*
X3598Y132998D01*
X4425Y132445D01*
X5400Y132251D01*
X6375Y132445D01*
X7202Y132998D01*
X7755Y133825D01*
X7949Y134800D01*
X7755Y135775D01*
X7202Y136602D01*
X6375Y137155D01*
X5400Y137349D01*
D02*
G37*
G36*
X143500Y138149D02*
X142525Y137955D01*
X141698Y137402D01*
X141145Y136575D01*
X140951Y135600D01*
X141145Y134625D01*
X141698Y133798D01*
X142525Y133245D01*
X143500Y133051D01*
X144475Y133245D01*
X145302Y133798D01*
X145855Y134625D01*
X146049Y135600D01*
X145855Y136575D01*
X145302Y137402D01*
X144475Y137955D01*
X143500Y138149D01*
D02*
G37*
G36*
X-61200Y137949D02*
X-62176Y137755D01*
X-63002Y137202D01*
X-63555Y136375D01*
X-63749Y135400D01*
X-63555Y134424D01*
X-63002Y133598D01*
X-62176Y133045D01*
X-61200Y132851D01*
X-60224Y133045D01*
X-59398Y133598D01*
X-58845Y134424D01*
X-58651Y135400D01*
X-58845Y136375D01*
X-59398Y137202D01*
X-60224Y137755D01*
X-61200Y137949D01*
D02*
G37*
G36*
X51100Y136949D02*
X50125Y136755D01*
X49298Y136202D01*
X48745Y135375D01*
X48551Y134400D01*
X48745Y133424D01*
X49298Y132598D01*
X50125Y132045D01*
X51100Y131851D01*
X52075Y132045D01*
X52902Y132598D01*
X53455Y133424D01*
X53649Y134400D01*
X53455Y135375D01*
X52902Y136202D01*
X52075Y136755D01*
X51100Y136949D01*
D02*
G37*
G36*
X11500Y134949D02*
X10525Y134755D01*
X9698Y134202D01*
X9145Y133376D01*
X8951Y132400D01*
X9145Y131424D01*
X9698Y130598D01*
X10525Y130045D01*
X11500Y129851D01*
X12475Y130045D01*
X13302Y130598D01*
X13855Y131424D01*
X14049Y132400D01*
X13855Y133376D01*
X13302Y134202D01*
X12475Y134755D01*
X11500Y134949D01*
D02*
G37*
G36*
X19300Y134549D02*
X18325Y134355D01*
X17498Y133802D01*
X16945Y132975D01*
X16751Y132000D01*
X16945Y131025D01*
X17498Y130198D01*
X18325Y129645D01*
X19300Y129451D01*
X20276Y129645D01*
X21102Y130198D01*
X21655Y131025D01*
X21849Y132000D01*
X21655Y132975D01*
X21102Y133802D01*
X20276Y134355D01*
X19300Y134549D01*
D02*
G37*
G36*
X74900Y136826D02*
X74117Y136723D01*
X73387Y136421D01*
X72760Y135940D01*
X72280Y135313D01*
X71977Y134583D01*
X71874Y133800D01*
X71977Y133017D01*
X72280Y132287D01*
X72760Y131660D01*
X73387Y131179D01*
X74117Y130877D01*
X74900Y130774D01*
X75683Y130877D01*
X76413Y131179D01*
X77040Y131660D01*
X77521Y132287D01*
X77823Y133017D01*
X77926Y133800D01*
X77823Y134583D01*
X77521Y135313D01*
X77040Y135940D01*
X76413Y136421D01*
X75683Y136723D01*
X74900Y136826D01*
D02*
G37*
G36*
X-77538Y135849D02*
X-78513Y135655D01*
X-79340Y135102D01*
X-79893Y134275D01*
X-80087Y133300D01*
X-79893Y132325D01*
X-79340Y131498D01*
X-78513Y130945D01*
X-77538Y130751D01*
X-76562Y130945D01*
X-75735Y131498D01*
X-75183Y132325D01*
X-74989Y133300D01*
X-75183Y134275D01*
X-75735Y135102D01*
X-76562Y135655D01*
X-77538Y135849D01*
D02*
G37*
G36*
X-128068Y148384D02*
X-129488Y148197D01*
X-130810Y147649D01*
X-131946Y146778D01*
X-132818Y145642D01*
X-133366Y144319D01*
X-133552Y142900D01*
X-133366Y141481D01*
X-132818Y140158D01*
X-131946Y139022D01*
X-130810Y138151D01*
X-129488Y137603D01*
X-128068Y137416D01*
X-126649Y137603D01*
X-125327Y138151D01*
X-124191Y139022D01*
X-123319Y140158D01*
X-122771Y141481D01*
X-122585Y142900D01*
X-122771Y144319D01*
X-123319Y145642D01*
X-124191Y146778D01*
X-125327Y147649D01*
X-126649Y148197D01*
X-128068Y148384D01*
D02*
G37*
G36*
X163600Y144149D02*
X162625Y143955D01*
X161798Y143402D01*
X161245Y142576D01*
X161051Y141600D01*
X161245Y140624D01*
X161798Y139798D01*
X162625Y139245D01*
X163600Y139051D01*
X164576Y139245D01*
X165402Y139798D01*
X165955Y140624D01*
X166149Y141600D01*
X165955Y142576D01*
X165402Y143402D01*
X164576Y143955D01*
X163600Y144149D01*
D02*
G37*
G36*
X-94800Y146749D02*
X-95776Y146555D01*
X-96602Y146002D01*
X-97155Y145176D01*
X-97349Y144200D01*
X-97155Y143225D01*
X-96602Y142398D01*
X-95776Y141845D01*
X-94800Y141651D01*
X-94178Y141775D01*
X-93987Y141313D01*
X-94002Y141302D01*
X-94555Y140475D01*
X-94749Y139500D01*
X-94668Y139094D01*
X-95130Y138903D01*
X-95598Y139602D01*
X-96425Y140155D01*
X-97400Y140349D01*
X-98375Y140155D01*
X-99202Y139602D01*
X-99755Y138776D01*
X-99949Y137800D01*
X-99755Y136825D01*
X-99202Y135998D01*
X-98375Y135445D01*
X-97400Y135251D01*
X-96425Y135445D01*
X-95598Y135998D01*
X-95045Y136825D01*
X-94851Y137800D01*
X-94932Y138206D01*
X-94470Y138397D01*
X-94002Y137698D01*
X-93176Y137145D01*
X-92200Y136951D01*
X-91224Y137145D01*
X-90398Y137698D01*
X-89845Y138524D01*
X-89651Y139500D01*
X-89845Y140475D01*
X-90398Y141302D01*
X-91224Y141855D01*
X-92200Y142049D01*
X-92822Y141925D01*
X-93013Y142387D01*
X-92998Y142398D01*
X-92445Y143225D01*
X-92251Y144200D01*
X-92445Y145176D01*
X-92998Y146002D01*
X-93824Y146555D01*
X-94800Y146749D01*
D02*
G37*
G36*
X78200Y143726D02*
X77417Y143623D01*
X76687Y143321D01*
X76060Y142840D01*
X75580Y142213D01*
X75277Y141483D01*
X75174Y140700D01*
X75277Y139917D01*
X75580Y139187D01*
X76060Y138560D01*
X76687Y138080D01*
X77417Y137777D01*
X78200Y137674D01*
X78983Y137777D01*
X79713Y138080D01*
X80340Y138560D01*
X80821Y139187D01*
X81123Y139917D01*
X81226Y140700D01*
X81123Y141483D01*
X80821Y142213D01*
X80340Y142840D01*
X79713Y143321D01*
X78983Y143623D01*
X78200Y143726D01*
D02*
G37*
G36*
X-108700Y146949D02*
X-109676Y146755D01*
X-110502Y146202D01*
X-111055Y145376D01*
X-111249Y144400D01*
X-111055Y143424D01*
X-110502Y142598D01*
X-110228Y142414D01*
X-110326Y141924D01*
X-111176Y141755D01*
X-112002Y141202D01*
X-112555Y140375D01*
X-112749Y139400D01*
X-112555Y138425D01*
X-112002Y137598D01*
X-111176Y137045D01*
X-110200Y136851D01*
X-109224Y137045D01*
X-108472Y137548D01*
X-108056Y137270D01*
X-108249Y136300D01*
X-108055Y135325D01*
X-107502Y134498D01*
X-106676Y133945D01*
X-105700Y133751D01*
X-104725Y133945D01*
X-103898Y134498D01*
X-103345Y135325D01*
X-103151Y136300D01*
X-103345Y137276D01*
X-103898Y138102D01*
X-104725Y138655D01*
X-105700Y138849D01*
X-106676Y138655D01*
X-107428Y138152D01*
X-107844Y138430D01*
X-107651Y139400D01*
X-107845Y140375D01*
X-108398Y141202D01*
X-108672Y141386D01*
X-108574Y141876D01*
X-107724Y142045D01*
X-106898Y142598D01*
X-106345Y143424D01*
X-106151Y144400D01*
X-106345Y145376D01*
X-106898Y146202D01*
X-107724Y146755D01*
X-108700Y146949D01*
D02*
G37*
G36*
X99200Y139726D02*
X98417Y139623D01*
X97687Y139321D01*
X97060Y138840D01*
X96579Y138213D01*
X96277Y137483D01*
X96174Y136700D01*
X96277Y135917D01*
X96579Y135187D01*
X97060Y134560D01*
X97687Y134080D01*
X98417Y133777D01*
X99200Y133674D01*
X99983Y133777D01*
X100713Y134080D01*
X101340Y134560D01*
X101821Y135187D01*
X102123Y135917D01*
X102226Y136700D01*
X102123Y137483D01*
X101821Y138213D01*
X101340Y138840D01*
X100713Y139321D01*
X99983Y139623D01*
X99200Y139726D01*
D02*
G37*
G36*
X200200Y141749D02*
X199224Y141555D01*
X198398Y141002D01*
X197845Y140175D01*
X197651Y139200D01*
X197845Y138224D01*
X198398Y137398D01*
X199224Y136845D01*
X200200Y136651D01*
X201175Y136845D01*
X202002Y137398D01*
X202555Y138224D01*
X202749Y139200D01*
X202555Y140175D01*
X202002Y141002D01*
X201175Y141555D01*
X200200Y141749D01*
D02*
G37*
G36*
X118400Y141249D02*
X117424Y141055D01*
X116598Y140502D01*
X116045Y139675D01*
X115851Y138700D01*
X116045Y137724D01*
X116598Y136898D01*
X117424Y136345D01*
X118400Y136151D01*
X119376Y136345D01*
X120202Y136898D01*
X120755Y137724D01*
X120949Y138700D01*
X120755Y139675D01*
X120202Y140502D01*
X119376Y141055D01*
X118400Y141249D01*
D02*
G37*
%LPD*%
G36*
X-80247Y97098D02*
X-85598Y91747D01*
X-107900D01*
X-107923Y91744D01*
X-108320Y92049D01*
X-108377Y92483D01*
X-108679Y93213D01*
X-109160Y93840D01*
X-109787Y94320D01*
X-109789Y94338D01*
X-109760Y94360D01*
X-109280Y94987D01*
X-108977Y95717D01*
X-108874Y96500D01*
X-108977Y97283D01*
X-109280Y98013D01*
X-109760Y98640D01*
X-110387Y99120D01*
X-111117Y99423D01*
X-111900Y99526D01*
X-112683Y99423D01*
X-113413Y99120D01*
X-114040Y98640D01*
X-114521Y98013D01*
X-114823Y97283D01*
X-114926Y96500D01*
X-114823Y95717D01*
X-114521Y94987D01*
X-114040Y94360D01*
X-113691Y94093D01*
X-113626Y93597D01*
X-113920Y93213D01*
X-114223Y92483D01*
X-114326Y91700D01*
X-114223Y90917D01*
X-114018Y90424D01*
X-114269Y89991D01*
X-114783Y89923D01*
X-115513Y89621D01*
X-116140Y89140D01*
X-116621Y88513D01*
X-116923Y87783D01*
X-117026Y87000D01*
X-116923Y86217D01*
X-116621Y85487D01*
X-116140Y84860D01*
X-115765Y84573D01*
X-115732Y84074D01*
X-117371Y82434D01*
X-123600D01*
X-124644Y82297D01*
X-125205Y82065D01*
X-125621Y82342D01*
Y98734D01*
X-123302Y101052D01*
X-110298D01*
X-106223Y96977D01*
X-106223Y96977D01*
X-105074Y96096D01*
X-104682Y95933D01*
X-103736Y95542D01*
X-102300Y95353D01*
X-102300Y95353D01*
X-94000D01*
X-93825Y95376D01*
X-93800Y95371D01*
X-85500D01*
X-84915Y95487D01*
X-84419Y95819D01*
X-84087Y96315D01*
X-83971Y96900D01*
Y110400D01*
X-84087Y110985D01*
X-83934Y111271D01*
X-80247D01*
Y97098D01*
D02*
G37*
G36*
X142279Y45979D02*
X142279D01*
X142279Y45979D01*
X142279Y45979D01*
Y45979D01*
X142610Y45758D01*
X143000Y45680D01*
X146783D01*
X148377Y44300D01*
X149300Y43500D01*
D01*
X149300Y43033D01*
X149300Y43033D01*
X149300D01*
Y8400D01*
Y7911D01*
X149286Y7860D01*
X149283Y7821D01*
X149278Y7810D01*
X149273Y7799D01*
X149258Y7784D01*
X149217Y7750D01*
X149195Y7709D01*
X146437Y5320D01*
X91322D01*
X89617Y7025D01*
Y14271D01*
X89713Y14415D01*
X89829Y15000D01*
X89713Y15585D01*
X89617Y15729D01*
Y19702D01*
X89700Y19771D01*
X90285Y19887D01*
X90781Y20219D01*
X91113Y20715D01*
X91229Y21300D01*
X91113Y21885D01*
X90781Y22381D01*
X90285Y22713D01*
X89700Y22829D01*
X89617Y22898D01*
Y26200D01*
X87193Y28300D01*
X86500Y28900D01*
Y30114D01*
X88070Y31684D01*
X96579D01*
X97015Y31392D01*
X97600Y31276D01*
X98185Y31392D01*
X98681Y31724D01*
X99013Y32220D01*
X99129Y32805D01*
X99013Y33391D01*
X98681Y33887D01*
X98185Y34218D01*
X97600Y34335D01*
X97015Y34218D01*
X96579Y33927D01*
X87606D01*
X87606Y33927D01*
X87176Y33842D01*
X87072Y33772D01*
X86784Y33844D01*
X86567Y33934D01*
X86561Y33961D01*
X86552Y33975D01*
X86543Y34021D01*
X86514Y34091D01*
X86507Y34166D01*
X86500Y34189D01*
Y35200D01*
Y44489D01*
X86514Y44540D01*
X86517Y44579D01*
X86522Y44591D01*
X86527Y44600D01*
X86554Y44628D01*
X86569Y44651D01*
X86584Y44673D01*
X86584Y44673D01*
X88297Y46157D01*
X89849Y47501D01*
X89884Y47521D01*
X89949Y47578D01*
X89965Y47583D01*
X89994Y47573D01*
X90079Y47500D01*
X91847D01*
X91867Y47403D01*
X92419Y46576D01*
X93246Y46023D01*
X94222Y45829D01*
X95197Y46023D01*
X96024Y46576D01*
X96577Y47403D01*
X96596Y47500D01*
X98799D01*
X98821Y47493D01*
X98896Y47486D01*
X98966Y47457D01*
X99158Y47419D01*
X99158Y47419D01*
X99215Y47381D01*
X99243Y47241D01*
X99126Y46655D01*
X99243Y46070D01*
X99574Y45574D01*
X100070Y45243D01*
X100655Y45126D01*
X101241Y45243D01*
X101737Y45574D01*
X102068Y46070D01*
X102185Y46655D01*
X102068Y47241D01*
X101942Y47430D01*
X101942Y47430D01*
X101977Y47440D01*
X102034D01*
X102076Y47458D01*
X102137Y47464D01*
X102150Y47468D01*
X102164Y47468D01*
X102233Y47486D01*
X102285D01*
X102358Y47500D01*
X108780D01*
X108850Y47560D01*
X108914Y47582D01*
X108954D01*
X109046Y47600D01*
X109046Y47600D01*
X109046D01*
X116101D01*
X116215Y47524D01*
X116800Y47408D01*
X117385Y47524D01*
X117499Y47600D01*
X121301D01*
X121415Y47524D01*
X122000Y47408D01*
X122585Y47524D01*
X122699Y47600D01*
X125901D01*
X126015Y47524D01*
X126600Y47408D01*
X127185Y47524D01*
X127299Y47600D01*
X130901D01*
X131015Y47524D01*
X131600Y47408D01*
X132185Y47524D01*
X132299Y47600D01*
X140658D01*
X142279Y45979D01*
D02*
G37*
%LPC*%
G36*
X111600Y26939D02*
X110820Y26784D01*
X110158Y26342D01*
X109716Y25680D01*
X109561Y24900D01*
X109716Y24120D01*
X110158Y23458D01*
X110820Y23016D01*
X111600Y22861D01*
X112380Y23016D01*
X113042Y23458D01*
X113484Y24120D01*
X113639Y24900D01*
X113484Y25680D01*
X113042Y26342D01*
X112380Y26784D01*
X111600Y26939D01*
D02*
G37*
G36*
X104100D02*
X103320Y26784D01*
X102658Y26342D01*
X102216Y25680D01*
X102061Y24900D01*
X102216Y24120D01*
X102658Y23458D01*
X103320Y23016D01*
X104100Y22861D01*
X104880Y23016D01*
X105542Y23458D01*
X105984Y24120D01*
X106139Y24900D01*
X105984Y25680D01*
X105542Y26342D01*
X104880Y26784D01*
X104100Y26939D01*
D02*
G37*
G36*
X-119200Y99626D02*
X-119983Y99523D01*
X-120713Y99221D01*
X-121340Y98740D01*
X-121820Y98113D01*
X-122123Y97383D01*
X-122226Y96600D01*
X-122123Y95817D01*
X-121820Y95087D01*
X-121340Y94460D01*
X-121131Y94300D01*
Y93800D01*
X-121340Y93640D01*
X-121820Y93013D01*
X-122123Y92283D01*
X-122226Y91500D01*
X-122123Y90717D01*
X-121820Y89987D01*
X-121340Y89360D01*
X-120713Y88880D01*
X-119983Y88577D01*
X-119200Y88474D01*
X-118417Y88577D01*
X-117687Y88880D01*
X-117060Y89360D01*
X-116579Y89987D01*
X-116277Y90717D01*
X-116174Y91500D01*
X-116277Y92283D01*
X-116579Y93013D01*
X-117060Y93640D01*
X-117269Y93800D01*
Y94300D01*
X-117060Y94460D01*
X-116579Y95087D01*
X-116277Y95817D01*
X-116174Y96600D01*
X-116277Y97383D01*
X-116579Y98113D01*
X-117060Y98740D01*
X-117687Y99221D01*
X-118417Y99523D01*
X-119200Y99626D01*
D02*
G37*
G36*
X128100Y39229D02*
X127515Y39113D01*
X127019Y38781D01*
X126687Y38285D01*
X126571Y37700D01*
X126687Y37115D01*
X127019Y36619D01*
X127515Y36287D01*
X128100Y36171D01*
X128685Y36287D01*
X129181Y36619D01*
X129513Y37115D01*
X129629Y37700D01*
X129513Y38285D01*
X129181Y38781D01*
X128685Y39113D01*
X128100Y39229D01*
D02*
G37*
G36*
X111600Y20139D02*
X110820Y19984D01*
X110158Y19542D01*
X109716Y18880D01*
X109561Y18100D01*
X109716Y17320D01*
X110158Y16658D01*
X110820Y16216D01*
X111600Y16061D01*
X112380Y16216D01*
X113042Y16658D01*
X113484Y17320D01*
X113639Y18100D01*
X113484Y18880D01*
X113042Y19542D01*
X112380Y19984D01*
X111600Y20139D01*
D02*
G37*
G36*
X109600Y9729D02*
X109015Y9613D01*
X108519Y9281D01*
X108187Y8785D01*
X108071Y8200D01*
X108187Y7615D01*
X108519Y7119D01*
X109015Y6787D01*
X109600Y6671D01*
X110185Y6787D01*
X110681Y7119D01*
X111013Y7615D01*
X111129Y8200D01*
X111013Y8785D01*
X110681Y9281D01*
X110185Y9613D01*
X109600Y9729D01*
D02*
G37*
G36*
X129500Y25429D02*
X128915Y25313D01*
X128419Y24981D01*
X128087Y24485D01*
X127971Y23900D01*
X128087Y23315D01*
X128419Y22819D01*
X128915Y22487D01*
X129500Y22371D01*
X130085Y22487D01*
X130581Y22819D01*
X130913Y23315D01*
X131029Y23900D01*
X130913Y24485D01*
X130581Y24981D01*
X130085Y25313D01*
X129500Y25429D01*
D02*
G37*
G36*
X104500Y20339D02*
X103720Y20184D01*
X103058Y19742D01*
X102616Y19080D01*
X102461Y18300D01*
X102616Y17520D01*
X103058Y16858D01*
X103720Y16416D01*
X104500Y16261D01*
X105280Y16416D01*
X105942Y16858D01*
X106384Y17520D01*
X106539Y18300D01*
X106384Y19080D01*
X105942Y19742D01*
X105280Y20184D01*
X104500Y20339D01*
D02*
G37*
%LPD*%
D10*
X-96300Y178700D02*
X-73500D01*
X174400Y60800D02*
X200800D01*
X169700Y56100D02*
X174400Y60800D01*
X113200Y175800D02*
Y200100D01*
X114980Y201880D01*
D16*
X202955Y4300D02*
D03*
X211931D02*
D03*
X202955Y20550D02*
D03*
X211931D02*
D03*
X202955Y36800D02*
D03*
X211931D02*
D03*
X202955Y53050D02*
D03*
X211931D02*
D03*
X202955Y69300D02*
D03*
X211931D02*
D03*
D61*
X1500Y32900D02*
X5600Y37000D01*
X-7500Y35000D02*
X-3800Y38700D01*
X-36300Y6400D02*
X-16400D01*
X-38889Y3811D02*
X-36300Y6400D01*
X-38889Y-1911D02*
Y3811D01*
X-83300Y35000D02*
X-7500D01*
X-84500Y32900D02*
X1500D01*
X-3800Y38700D02*
Y93100D01*
X-39800Y64700D02*
X-36369Y61269D01*
Y38769D02*
Y61269D01*
X-92300Y44000D02*
X-83300Y35000D01*
X-112400Y44000D02*
X-92300D01*
X-98500Y40700D02*
X-92300D01*
X-84500Y32900D01*
X5600Y37000D02*
Y96100D01*
X-74100Y64700D02*
X-39800D01*
X150700Y46700D02*
X165200Y32200D01*
X191305D01*
X143000Y46700D02*
X150700D01*
X137300Y52400D02*
X143000Y46700D01*
X164400Y36800D02*
X202955D01*
X152000Y49200D02*
X164400Y36800D01*
X143400Y49200D02*
X152000D01*
X137900Y54700D02*
X143400Y49200D01*
X134600Y52400D02*
X137300D01*
X131400Y54700D02*
X137900D01*
X84100Y19200D02*
X88300Y15000D01*
X78400Y19200D02*
X84100D01*
X78300Y19100D02*
X78400Y19200D01*
X126700Y57800D02*
X128600Y59700D01*
X55200Y40200D02*
X71900D01*
X74470Y31570D02*
Y37630D01*
X71900Y40200D02*
X74470Y37630D01*
X191305Y32200D02*
X202955Y20550D01*
X87400Y7800D02*
X90900Y4300D01*
X202955D01*
X128600Y59700D02*
Y65400D01*
X64100Y173700D02*
Y207300D01*
X12000Y170900D02*
X61300D01*
X64100Y173700D01*
X22000Y7800D02*
X87400D01*
X7900Y173500D02*
X58406D01*
X132500Y69300D02*
X202955D01*
X128600Y65400D02*
X132500Y69300D01*
X60900Y112500D02*
X95000D01*
X47000Y111000D02*
X59400D01*
X60900Y112500D01*
D62*
X79100Y24300D02*
X87606Y32805D01*
X97600D01*
X18548Y24300D02*
X79100D01*
D64*
X-67900Y86700D02*
Y102000D01*
X-200Y-4372D02*
Y16000D01*
X-11000Y26800D02*
X-200Y16000D01*
X-85800Y26800D02*
X-11000D01*
X-93300Y34300D02*
X-85800Y26800D01*
X-114400Y34300D02*
X-93300D01*
X-86600Y68000D02*
X-67900Y86700D01*
X-114500Y68000D02*
X-86600D01*
X-120700Y61800D02*
X-114500Y68000D01*
X-120700Y40600D02*
Y61800D01*
Y40600D02*
X-114400Y34300D01*
D65*
X-131168Y101031D02*
X-125600Y106600D01*
X-108000D02*
X-102300Y100900D01*
X-94000D01*
X-125600Y106600D02*
X-108000D01*
X-89700Y102000D02*
Y104400D01*
X-74700Y94800D02*
Y116800D01*
X-83300Y86200D02*
X-74700Y94800D01*
X-107900Y86200D02*
X-83300D01*
X-48400Y97600D02*
Y137300D01*
X-131168Y-3306D02*
Y101031D01*
X-48400Y137300D02*
X-24900Y160800D01*
X118400D02*
X123200Y165600D01*
X134100D01*
X-24900Y160800D02*
X118400D01*
D82*
X-170069Y-19320D02*
Y216900D01*
X223632D01*
X-170069Y-19320D02*
X223632D01*
Y216900D01*
D83*
X-128068Y142900D02*
D03*
Y172900D02*
D03*
X-155200Y107300D02*
D03*
Y97300D02*
D03*
Y87300D02*
D03*
Y77300D02*
D03*
Y67300D02*
D03*
Y57300D02*
D03*
Y47300D02*
D03*
Y37300D02*
D03*
Y27300D02*
D03*
D84*
X-131168Y-3306D02*
D03*
D85*
X-121168Y-3700D02*
D03*
D86*
X-160226Y207057D02*
D03*
Y-9478D02*
D03*
X213790Y207057D02*
D03*
Y-9478D02*
D03*
D87*
X-16468Y181300D02*
D03*
X86132Y-10100D02*
D03*
D88*
X-6469Y181300D02*
D03*
X3531D02*
D03*
X13532D02*
D03*
X76131Y-10100D02*
D03*
X66132D02*
D03*
X56132D02*
D03*
X-79568Y165100D02*
D03*
D89*
X-155200Y17300D02*
D03*
D90*
X213144Y189136D02*
D03*
Y168664D02*
D03*
D91*
X30776Y195900D02*
D03*
X46524D02*
D03*
D92*
X49772Y206333D02*
D03*
X27527D02*
D03*
D93*
X-125300Y123700D02*
D03*
X-125200Y131800D02*
D03*
X-88100Y116800D02*
D03*
X-38400Y87600D02*
D03*
X-101300Y93000D02*
D03*
X-81400Y116800D02*
D03*
X-74700D02*
D03*
X-56300Y137700D02*
D03*
Y130900D02*
D03*
X-90100Y19200D02*
D03*
X-82300Y19100D02*
D03*
X-74700Y19000D02*
D03*
X-66900Y18900D02*
D03*
X-45200Y69500D02*
D03*
X-44900Y54200D02*
D03*
X-52700Y45700D02*
D03*
X-63300Y39100D02*
D03*
X94222Y48378D02*
D03*
X82300Y35000D02*
D03*
X189100Y28000D02*
D03*
D94*
X-139400Y121700D02*
D03*
X-110200Y139400D02*
D03*
X-163200Y182700D02*
D03*
Y172200D02*
D03*
X-162600Y163100D02*
D03*
X-163000Y153800D02*
D03*
X-164200Y142500D02*
D03*
X-164000Y135200D02*
D03*
X-163600Y123800D02*
D03*
X-126000Y184300D02*
D03*
X-120600Y195000D02*
D03*
X-110300Y201100D02*
D03*
X-94553Y73547D02*
D03*
X-77538Y133300D02*
D03*
X-95627Y106773D02*
D03*
X-73500Y178700D02*
D03*
X-96300D02*
D03*
X-96500Y167200D02*
D03*
Y156400D02*
D03*
X-38695Y105095D02*
D03*
X-38500Y102300D02*
D03*
X-38600Y108400D02*
D03*
X-116900Y114253D02*
D03*
X-57500Y84800D02*
D03*
X-38900Y95000D02*
D03*
X-132100Y114200D02*
D03*
X-53180Y148480D02*
D03*
X-89400Y144400D02*
D03*
X-61600Y93200D02*
D03*
X-126000Y112900D02*
D03*
X-98600Y129700D02*
D03*
X-55300Y92500D02*
D03*
X-62800Y87600D02*
D03*
X-61400Y116200D02*
D03*
X-39000Y120700D02*
D03*
X-40900Y130800D02*
D03*
X-37000Y136700D02*
D03*
X-108700Y144400D02*
D03*
X-102100D02*
D03*
X-94800Y144200D02*
D03*
X-92200Y139500D02*
D03*
X-97400Y137800D02*
D03*
X-105700Y136300D02*
D03*
X-36100Y164300D02*
D03*
X-59300Y145900D02*
D03*
X-53000Y145700D02*
D03*
X-48500Y147100D02*
D03*
X-61200Y135400D02*
D03*
X-61000Y127100D02*
D03*
Y119800D02*
D03*
X-53700Y81300D02*
D03*
X-52100Y74500D02*
D03*
X-62100Y80500D02*
D03*
X-67500Y79700D02*
D03*
X-35800Y94700D02*
D03*
X18548Y24300D02*
D03*
X-36534Y-935D02*
D03*
X-16991Y-8309D02*
D03*
X-16997Y-2403D02*
D03*
X-97400Y28000D02*
D03*
X-60135Y2565D02*
D03*
X-13268D02*
D03*
X-60135Y-9865D02*
D03*
X-54043Y-9857D02*
D03*
X-63900Y-700D02*
D03*
X-21200Y18500D02*
D03*
X-38889Y-1911D02*
D03*
X-16400Y6400D02*
D03*
X-36369Y38769D02*
D03*
X-116700Y30600D02*
D03*
X-97300Y23000D02*
D03*
X-105800Y200D02*
D03*
Y-7000D02*
D03*
X-106300Y-13400D02*
D03*
X-99700Y-9000D02*
D03*
X-91700Y-9300D02*
D03*
X-84100Y-9500D02*
D03*
X-76600D02*
D03*
X-67400Y-9300D02*
D03*
X-70400Y-13600D02*
D03*
X-78900Y-13900D02*
D03*
X-87900Y-14600D02*
D03*
X-96600Y-15100D02*
D03*
X-96300Y-2700D02*
D03*
X-12100Y37900D02*
D03*
X6400Y26400D02*
D03*
X17500Y14400D02*
D03*
X-22700Y88800D02*
D03*
X-90374Y64500D02*
D03*
X-12400Y42331D02*
D03*
X13000Y57200D02*
D03*
X11669Y52232D02*
D03*
X3600Y58300D02*
D03*
X12000Y170900D02*
D03*
X7900Y173500D02*
D03*
X-1137Y89237D02*
D03*
X-9011Y88311D02*
D03*
X-78382Y60182D02*
D03*
X-112400Y44000D02*
D03*
X-98500Y40700D02*
D03*
X5400Y134800D02*
D03*
X-80800Y65100D02*
D03*
X-26200Y70900D02*
D03*
X2800Y73000D02*
D03*
X22000Y7800D02*
D03*
X28900Y143400D02*
D03*
X-10200Y119000D02*
D03*
X36300Y136200D02*
D03*
X22532Y87231D02*
D03*
X-18854Y88653D02*
D03*
X-21600Y99200D02*
D03*
X-21700Y93300D02*
D03*
X-4868Y133932D02*
D03*
X-115100Y55400D02*
D03*
X-3800Y93100D02*
D03*
X5600Y96100D02*
D03*
X-3800Y127200D02*
D03*
X32500Y167100D02*
D03*
X-21000Y201500D02*
D03*
X-19963Y48037D02*
D03*
X-138900Y71000D02*
D03*
X-95300Y49100D02*
D03*
X-125200Y62900D02*
D03*
X-141200Y24200D02*
D03*
X33400Y151100D02*
D03*
X-17100Y93400D02*
D03*
X-20000Y110600D02*
D03*
X-13900Y101500D02*
D03*
X-300Y95300D02*
D03*
X11500Y92900D02*
D03*
X20400Y97900D02*
D03*
X10800Y108600D02*
D03*
X11500Y132400D02*
D03*
X20000Y120600D02*
D03*
X-115200Y50600D02*
D03*
X-115300Y42300D02*
D03*
X-147100Y1300D02*
D03*
X-147500Y-9500D02*
D03*
X-142400Y202700D02*
D03*
X-126000Y202300D02*
D03*
X-109800Y193400D02*
D03*
X-99100Y204300D02*
D03*
X-115300Y206300D02*
D03*
X-81300Y200100D02*
D03*
X-63300Y206700D02*
D03*
X-84200Y208600D02*
D03*
X-97300Y191400D02*
D03*
X-28300Y170100D02*
D03*
X-27700Y187600D02*
D03*
X-53100Y60800D02*
D03*
X-97300Y53200D02*
D03*
X-22400Y40400D02*
D03*
X22800Y-7500D02*
D03*
X26900Y-1300D02*
D03*
X29500Y17000D02*
D03*
X25100Y31200D02*
D03*
X25000Y63000D02*
D03*
X29400Y69900D02*
D03*
X-28500Y179300D02*
D03*
X-9400Y189700D02*
D03*
X5200Y189500D02*
D03*
X19400Y189100D02*
D03*
X18900Y207200D02*
D03*
X9300Y203400D02*
D03*
X27600Y186900D02*
D03*
X27000Y180000D02*
D03*
X7600Y117700D02*
D03*
X7700Y126700D02*
D03*
X19300Y132000D02*
D03*
X-20822Y149122D02*
D03*
X-74100Y64700D02*
D03*
X-86300Y40900D02*
D03*
X77100Y32500D02*
D03*
X129500Y23900D02*
D03*
X131600Y48937D02*
D03*
X126600D02*
D03*
X122000D02*
D03*
X116800D02*
D03*
X100655Y46655D02*
D03*
X88800Y29100D02*
D03*
X97400Y30300D02*
D03*
X114790Y34890D02*
D03*
X122900Y30000D02*
D03*
X103900Y6900D02*
D03*
X115100Y8237D02*
D03*
X109600Y8200D02*
D03*
X89700Y21300D02*
D03*
X84400Y21800D02*
D03*
X79100Y38900D02*
D03*
X88300Y15000D02*
D03*
X78300Y19100D02*
D03*
X97600Y32805D02*
D03*
X125400Y-2700D02*
D03*
X77029Y12171D02*
D03*
X79588Y14500D02*
D03*
X51780Y27520D02*
D03*
X61600Y33700D02*
D03*
X68000Y14100D02*
D03*
X69352Y-948D02*
D03*
X69300Y32500D02*
D03*
X78700Y42300D02*
D03*
X51731Y-2968D02*
D03*
X55200Y40200D02*
D03*
X74470Y31570D02*
D03*
X47900Y34300D02*
D03*
X143400Y-2700D02*
D03*
X134000Y-5900D02*
D03*
X119100Y-6000D02*
D03*
X104900Y-5200D02*
D03*
X102600Y-12300D02*
D03*
X118800Y-12000D02*
D03*
X131100Y-13500D02*
D03*
X167400Y-13100D02*
D03*
X158500Y18300D02*
D03*
X167500Y-8400D02*
D03*
X60500Y48400D02*
D03*
X128100Y37700D02*
D03*
X134600Y52400D02*
D03*
X131400Y54700D02*
D03*
X126700Y57800D02*
D03*
X200800Y60800D02*
D03*
X38400Y-11500D02*
D03*
X42400Y-800D02*
D03*
X46400Y14500D02*
D03*
X39900Y32700D02*
D03*
X37400Y63000D02*
D03*
X68700Y62400D02*
D03*
X179400Y-13300D02*
D03*
X174600Y-6700D02*
D03*
X179000Y-500D02*
D03*
X193900Y-4800D02*
D03*
X194500Y-11200D02*
D03*
X183500Y-6200D02*
D03*
X188400Y-200D02*
D03*
X185000Y22000D02*
D03*
X195800Y14200D02*
D03*
X190600Y9100D02*
D03*
X185000Y15300D02*
D03*
X184000Y53400D02*
D03*
X190800Y46100D02*
D03*
X195500Y41400D02*
D03*
X52700Y52600D02*
D03*
X77400Y60500D02*
D03*
X143700Y52600D02*
D03*
X134800Y57500D02*
D03*
X141600Y55600D02*
D03*
X185000Y41000D02*
D03*
X194600Y22000D02*
D03*
X47474Y155026D02*
D03*
X213900Y97700D02*
D03*
X217400Y75000D02*
D03*
X199100Y95000D02*
D03*
X206300Y146900D02*
D03*
X202400Y163900D02*
D03*
X72500Y109000D02*
D03*
X72679Y97821D02*
D03*
X72700Y91500D02*
D03*
X99700Y93500D02*
D03*
X91290Y106490D02*
D03*
X102700Y115800D02*
D03*
X85180Y97320D02*
D03*
X104100Y100800D02*
D03*
X53600Y114800D02*
D03*
X120765Y180235D02*
D03*
X132569Y180168D02*
D03*
X47000Y111000D02*
D03*
X123100Y111100D02*
D03*
X193083Y129317D02*
D03*
X64100Y207300D02*
D03*
X58406Y173505D02*
D03*
X51100Y134400D02*
D03*
Y122800D02*
D03*
X47900Y167200D02*
D03*
X38700Y131200D02*
D03*
X38800Y134270D02*
D03*
X54000Y149800D02*
D03*
X37311Y122811D02*
D03*
X95000Y112500D02*
D03*
X100800Y193400D02*
D03*
X146195Y192694D02*
D03*
X201200Y77200D02*
D03*
X84980Y103180D02*
D03*
X95800Y106400D02*
D03*
X193563Y207863D02*
D03*
X172300Y201700D02*
D03*
X38200Y70100D02*
D03*
X38400Y81600D02*
D03*
X75500Y151600D02*
D03*
X75200Y169300D02*
D03*
X101600Y152100D02*
D03*
X112000Y150800D02*
D03*
X122300Y144000D02*
D03*
X138400Y143400D02*
D03*
X143500Y135600D02*
D03*
X129900Y131400D02*
D03*
X112900Y131300D02*
D03*
X107200Y141700D02*
D03*
X118400Y138700D02*
D03*
X163600Y141600D02*
D03*
X168500Y148600D02*
D03*
X167600Y158400D02*
D03*
X100400Y125200D02*
D03*
X126900Y102500D02*
D03*
X75100Y78100D02*
D03*
X89700Y75400D02*
D03*
X106700Y74600D02*
D03*
X132200Y84300D02*
D03*
X145600Y93500D02*
D03*
X140700Y102700D02*
D03*
X133800Y115100D02*
D03*
X204200Y123400D02*
D03*
X202300Y113300D02*
D03*
X202100Y103900D02*
D03*
X210100Y106500D02*
D03*
X216900Y118900D02*
D03*
X212400Y133800D02*
D03*
X193200Y145700D02*
D03*
X200200Y139200D02*
D03*
X212000Y128800D02*
D03*
X193900Y152900D02*
D03*
X200300Y147800D02*
D03*
X206900Y158300D02*
D03*
X201600Y201600D02*
D03*
X186300Y207200D02*
D03*
X84400Y203200D02*
D03*
X80800Y196400D02*
D03*
X93900Y196500D02*
D03*
X100000Y200000D02*
D03*
X107500Y200100D02*
D03*
X103300Y196900D02*
D03*
X76700Y199400D02*
D03*
X74800Y192900D02*
D03*
X71200Y187900D02*
D03*
X70100Y201500D02*
D03*
X68900Y194300D02*
D03*
X75100Y203900D02*
D03*
X73600Y211700D02*
D03*
X83300Y211000D02*
D03*
X89100Y210700D02*
D03*
X148400Y200300D02*
D03*
X149000Y195600D02*
D03*
X202400Y173800D02*
D03*
X187000Y80400D02*
D03*
X198700Y81100D02*
D03*
X205400Y91100D02*
D03*
X58500Y66100D02*
D03*
X180431Y207463D02*
D03*
D95*
X-115600Y190900D02*
D03*
X-88200Y108800D02*
D03*
X-111300Y91700D02*
D03*
X-111900Y96500D02*
D03*
X-114000Y87000D02*
D03*
X-119200Y91500D02*
D03*
Y96600D02*
D03*
X-118500Y78400D02*
D03*
X-63300Y102300D02*
D03*
X-67900Y102000D02*
D03*
X-64800Y106900D02*
D03*
X-92400Y104400D02*
D03*
X-92300Y99600D02*
D03*
X-123600Y78350D02*
D03*
X-6000Y-7300D02*
D03*
X-2000Y-10100D02*
D03*
X-200Y-4372D02*
D03*
X-110600Y6400D02*
D03*
X-141700Y-13300D02*
D03*
X-142000Y-5700D02*
D03*
X-141900Y3600D02*
D03*
X-152900Y5100D02*
D03*
X-163000Y4600D02*
D03*
X-103400Y190400D02*
D03*
X-73100Y202500D02*
D03*
X-88800Y200800D02*
D03*
X-102900Y196800D02*
D03*
X17500Y109900D02*
D03*
X16400Y93900D02*
D03*
X-20700Y105300D02*
D03*
X-9600Y95500D02*
D03*
X33900Y-1900D02*
D03*
X31100Y-11900D02*
D03*
X32300Y34300D02*
D03*
X-43000Y200600D02*
D03*
X-48633D02*
D03*
X-54267D02*
D03*
X-59900D02*
D03*
X-22600Y119900D02*
D03*
X-22791Y134590D02*
D03*
X-10869Y148031D02*
D03*
X-5074Y148026D02*
D03*
X32794Y80094D02*
D03*
X27000Y42232D02*
D03*
X20900Y126200D02*
D03*
X104100Y24900D02*
D03*
X111600D02*
D03*
X104500Y18300D02*
D03*
X111600Y18100D02*
D03*
X122600Y8900D02*
D03*
X143600Y42300D02*
D03*
X131500Y45000D02*
D03*
X121900D02*
D03*
X159600Y48100D02*
D03*
X37700Y14300D02*
D03*
X183200Y46900D02*
D03*
X178100Y56100D02*
D03*
X154100Y62300D02*
D03*
X154200Y56300D02*
D03*
X162000Y56400D02*
D03*
X169700Y56100D02*
D03*
X51800Y106500D02*
D03*
X170300Y100200D02*
D03*
Y88500D02*
D03*
X175800Y77700D02*
D03*
X113800Y78800D02*
D03*
X127600Y89500D02*
D03*
X137300Y98900D02*
D03*
X162400Y96900D02*
D03*
X144400Y81500D02*
D03*
X164500Y131800D02*
D03*
X144000Y143600D02*
D03*
X101100Y146500D02*
D03*
X114900Y145200D02*
D03*
X131500Y142400D02*
D03*
X138800Y123800D02*
D03*
X108800Y124000D02*
D03*
X74900Y133800D02*
D03*
X99200Y136700D02*
D03*
X86300Y149600D02*
D03*
X78200Y140700D02*
D03*
X70180Y125380D02*
D03*
X154300Y180000D02*
D03*
X165100Y166000D02*
D03*
X134100Y165600D02*
D03*
X134000Y172600D02*
D03*
X149000D02*
D03*
X149200Y165600D02*
D03*
X165500Y173000D02*
D03*
X113200Y175800D02*
D03*
X114980Y201880D02*
D03*
X179300Y197200D02*
D03*
X191400Y197600D02*
D03*
Y191943D02*
D03*
Y186286D02*
D03*
Y180629D02*
D03*
Y174971D02*
D03*
Y169314D02*
D03*
Y163657D02*
D03*
Y158000D02*
D03*
X147922Y211600D02*
D03*
X96100D02*
D03*
X102578D02*
D03*
X109055D02*
D03*
X115533D02*
D03*
X122011D02*
D03*
X128489D02*
D03*
X134967D02*
D03*
X141444D02*
D03*
X154400D02*
D03*
D96*
X-112200Y60300D02*
D03*
D97*
X-63806Y50438D02*
D03*
Y55162D02*
D03*
X-68531Y50438D02*
D03*
Y55162D02*
D03*
X-108831Y78862D02*
D03*
X-104106D02*
D03*
X-108831Y74138D02*
D03*
X-104106D02*
D03*
D98*
X39832Y178868D02*
D03*
D117*
X-97200Y60300D02*
X-76000Y39100D01*
X-123600Y78400D02*
X-118500D01*
X-112200Y60300D02*
X-97200D01*
X-115700Y78400D02*
X-107900Y86200D01*
X-118500Y78400D02*
X-115700D01*
X-76000Y39100D02*
X-63300D01*
D118*
X-48400Y97600D02*
X-38400Y87600D01*
D119*
X-89650Y103650D02*
D03*
D120*
X-82550Y117350D02*
D03*
D121*
X-3200Y100D02*
D03*
D122*
X148400Y168300D02*
D03*
D123*
X154200Y176250D02*
D03*
M02*
