%FSLAX25Y25*%
%MOIN*%
G70*
G01*
G75*
%ADD10C,0.02000*%
%ADD11C,0.03000*%
%ADD12R,0.01575X0.01181*%
%ADD13R,0.01181X0.01575*%
%ADD14O,0.05906X0.03150*%
%ADD15R,0.07087X0.03937*%
%ADD16C,0.03937*%
%ADD17R,0.02756X0.03347*%
%ADD18R,0.03347X0.02756*%
%ADD19R,0.03937X0.05906*%
%ADD20R,0.04724X0.03150*%
%ADD21R,0.02500X0.05906*%
%ADD22R,0.04803X0.02441*%
%ADD23R,0.04800X0.05600*%
%ADD24R,0.07480X0.11811*%
%ADD25O,0.06890X0.02362*%
%ADD26R,0.03937X0.05118*%
%ADD27R,0.08898X0.25590*%
%ADD28R,0.03937X0.02362*%
%ADD29R,0.04724X0.09843*%
%ADD30O,0.03937X0.01181*%
%ADD31R,0.03937X0.01181*%
%ADD32R,0.07874X0.07874*%
%ADD33R,0.10000X0.07000*%
%ADD34R,0.02362X0.03937*%
%ADD35R,0.07874X0.03937*%
%ADD36O,0.06693X0.01063*%
%ADD37R,0.06693X0.01063*%
%ADD38R,0.01063X0.06693*%
%ADD39O,0.03740X0.01378*%
%ADD40R,0.08661X0.16929*%
%ADD41R,0.07874X0.07874*%
%ADD42R,0.07087X0.07874*%
%ADD43R,0.02362X0.02362*%
%ADD44R,0.03150X0.02559*%
%ADD45R,0.03937X0.07087*%
%ADD46O,0.03150X0.05906*%
%ADD47O,0.01378X0.06693*%
%ADD48R,0.02362X0.02362*%
%ADD49R,0.13386X0.13386*%
%ADD50O,0.00984X0.03740*%
%ADD51O,0.03740X0.00984*%
%ADD52O,0.02362X0.07087*%
%ADD53O,0.07087X0.02362*%
%ADD54O,0.06299X0.02362*%
%ADD55R,0.00984X0.01575*%
%ADD56R,0.02362X0.01969*%
%ADD57R,0.00984X0.01299*%
G04:AMPARAMS|DCode=58|XSize=35.43mil|YSize=157.48mil|CornerRadius=1.77mil|HoleSize=0mil|Usage=FLASHONLY|Rotation=90.000|XOffset=0mil|YOffset=0mil|HoleType=Round|Shape=RoundedRectangle|*
%AMROUNDEDRECTD58*
21,1,0.03543,0.15394,0,0,90.0*
21,1,0.03189,0.15748,0,0,90.0*
1,1,0.00354,0.07697,0.01595*
1,1,0.00354,0.07697,-0.01595*
1,1,0.00354,-0.07697,-0.01595*
1,1,0.00354,-0.07697,0.01595*
%
%ADD58ROUNDEDRECTD58*%
%ADD59R,0.01200X0.01800*%
%ADD60R,0.01575X0.05906*%
%ADD61C,0.01000*%
%ADD62C,0.01200*%
%ADD63C,0.02500*%
%ADD64C,0.04000*%
%ADD65C,0.08000*%
%ADD66C,0.01500*%
%ADD67C,0.00800*%
%ADD68R,0.07500X0.15500*%
%ADD69R,0.07560X0.20391*%
%ADD70R,0.06000X0.09600*%
%ADD71R,0.06700X0.09800*%
%ADD72R,0.04200X0.18700*%
%ADD73R,0.08100X0.13300*%
%ADD74R,0.05700X0.21700*%
%ADD75R,0.18000X0.08400*%
%ADD76R,0.10500X0.06400*%
%ADD77R,0.16200X0.16000*%
%ADD78R,0.27300X0.16100*%
%ADD79R,0.06200X0.14700*%
%ADD80R,0.34969X0.11400*%
%ADD81R,0.06500X1.11800*%
%ADD82C,0.00500*%
%ADD83C,0.07874*%
%ADD84O,0.07874X0.11811*%
%ADD85R,0.07874X0.11811*%
%ADD86C,0.13780*%
%ADD87R,0.05906X0.05906*%
%ADD88C,0.05906*%
%ADD89R,0.07874X0.07874*%
G04:AMPARAMS|DCode=90|XSize=51.18mil|YSize=173.23mil|CornerRadius=2.56mil|HoleSize=0mil|Usage=FLASHONLY|Rotation=90.000|XOffset=0mil|YOffset=0mil|HoleType=Round|Shape=RoundedRectangle|*
%AMROUNDEDRECTD90*
21,1,0.05118,0.16811,0,0,90.0*
21,1,0.04606,0.17323,0,0,90.0*
1,1,0.00512,0.08406,0.02303*
1,1,0.00512,0.08406,-0.02303*
1,1,0.00512,-0.08406,-0.02303*
1,1,0.00512,-0.08406,0.02303*
%
%ADD90ROUNDEDRECTD90*%
%ADD91C,0.01969*%
%ADD92R,0.05315X0.07284*%
%ADD93C,0.04000*%
%ADD94C,0.02000*%
%ADD95C,0.03000*%
%ADD96C,0.05000*%
%ADD97C,0.02598*%
%ADD98C,0.01600*%
%ADD99C,0.07518*%
G04:AMPARAMS|DCode=100|XSize=111.181mil|YSize=111.181mil|CornerRadius=0mil|HoleSize=0mil|Usage=FLASHONLY|Rotation=0.000|XOffset=0mil|YOffset=0mil|HoleType=Round|Shape=Relief|Width=10mil|Gap=10mil|Entries=4|*
%AMTHD100*
7,0,0,0.11118,0.09118,0.01000,45*
%
%ADD100THD100*%
%ADD101C,0.07124*%
G04:AMPARAMS|DCode=102|XSize=107.244mil|YSize=107.244mil|CornerRadius=0mil|HoleSize=0mil|Usage=FLASHONLY|Rotation=0.000|XOffset=0mil|YOffset=0mil|HoleType=Round|Shape=Relief|Width=10mil|Gap=10mil|Entries=4|*
%AMTHD102*
7,0,0,0.10724,0.08724,0.01000,45*
%
%ADD102THD102*%
%ADD103C,0.04369*%
%ADD104C,0.11061*%
%ADD105C,0.05943*%
G04:AMPARAMS|DCode=106|XSize=95.433mil|YSize=95.433mil|CornerRadius=0mil|HoleSize=0mil|Usage=FLASHONLY|Rotation=0.000|XOffset=0mil|YOffset=0mil|HoleType=Round|Shape=Relief|Width=10mil|Gap=10mil|Entries=4|*
%AMTHD106*
7,0,0,0.09543,0.07543,0.01000,45*
%
%ADD106THD106*%
G04:AMPARAMS|DCode=107|XSize=79.685mil|YSize=79.685mil|CornerRadius=0mil|HoleSize=0mil|Usage=FLASHONLY|Rotation=0.000|XOffset=0mil|YOffset=0mil|HoleType=Round|Shape=Relief|Width=10mil|Gap=10mil|Entries=4|*
%AMTHD107*
7,0,0,0.07969,0.05969,0.01000,45*
%
%ADD107THD107*%
%ADD108C,0.06337*%
%ADD109C,0.05400*%
%ADD110C,0.03600*%
G04:AMPARAMS|DCode=111|XSize=72mil|YSize=72mil|CornerRadius=0mil|HoleSize=0mil|Usage=FLASHONLY|Rotation=0.000|XOffset=0mil|YOffset=0mil|HoleType=Round|Shape=Relief|Width=10mil|Gap=10mil|Entries=4|*
%AMTHD111*
7,0,0,0.07200,0.05200,0.01000,45*
%
%ADD111THD111*%
G04:AMPARAMS|DCode=112|XSize=80mil|YSize=80mil|CornerRadius=0mil|HoleSize=0mil|Usage=FLASHONLY|Rotation=0.000|XOffset=0mil|YOffset=0mil|HoleType=Round|Shape=Relief|Width=10mil|Gap=10mil|Entries=4|*
%AMTHD112*
7,0,0,0.08000,0.06000,0.01000,45*
%
%ADD112THD112*%
%ADD113C,0.04400*%
G04:AMPARAMS|DCode=114|XSize=99.37mil|YSize=99.37mil|CornerRadius=0mil|HoleSize=0mil|Usage=FLASHONLY|Rotation=0.000|XOffset=0mil|YOffset=0mil|HoleType=Round|Shape=Relief|Width=10mil|Gap=10mil|Entries=4|*
%AMTHD114*
7,0,0,0.09937,0.07937,0.01000,45*
%
%ADD114THD114*%
G04:AMPARAMS|DCode=115|XSize=72.992mil|YSize=72.992mil|CornerRadius=0mil|HoleSize=0mil|Usage=FLASHONLY|Rotation=0.000|XOffset=0mil|YOffset=0mil|HoleType=Round|Shape=Relief|Width=10mil|Gap=10mil|Entries=4|*
%AMTHD115*
7,0,0,0.07299,0.05299,0.01000,45*
%
%ADD115THD115*%
G04:AMPARAMS|DCode=116|XSize=68mil|YSize=68mil|CornerRadius=0mil|HoleSize=0mil|Usage=FLASHONLY|Rotation=0.000|XOffset=0mil|YOffset=0mil|HoleType=Round|Shape=Relief|Width=10mil|Gap=10mil|Entries=4|*
%AMTHD116*
7,0,0,0.06800,0.04800,0.01000,45*
%
%ADD116THD116*%
%ADD117C,0.05000*%
%ADD118C,0.06000*%
%ADD119R,0.08300X0.13500*%
%ADD120R,0.19700X0.09100*%
%ADD121R,0.09400X0.25200*%
%ADD122R,0.39000X0.13800*%
%ADD123R,0.06200X0.13300*%
%ADD124R,0.03347X0.01575*%
%ADD125R,0.03937X0.07087*%
%ADD126R,0.05118X0.13780*%
%ADD127R,0.08661X0.11024*%
%ADD128R,0.07000X0.10000*%
%ADD129R,0.19685X0.05118*%
%ADD130R,0.05500X0.02500*%
%ADD131R,0.01969X0.06299*%
%ADD132R,0.14410X0.07874*%
%ADD133R,0.01969X0.07874*%
%ADD134R,0.07087X0.03937*%
%ADD135R,0.03150X0.04724*%
%ADD136R,0.09843X0.01969*%
%ADD137O,0.08661X0.02362*%
%ADD138O,0.09843X0.02362*%
%ADD139O,0.01378X0.03740*%
%ADD140R,0.16929X0.08661*%
%ADD141R,0.03937X0.03150*%
%ADD142R,0.04843X0.02559*%
%ADD143R,0.08268X0.02756*%
%ADD144O,0.03543X0.01969*%
%ADD145O,0.03543X0.01969*%
%ADD146R,0.03543X0.01969*%
%ADD147R,0.07874X0.01969*%
%ADD148R,0.21349X0.07288*%
%ADD149R,0.14400X0.12900*%
%ADD150R,0.29900X0.09831*%
%ADD151R,0.11032X0.11400*%
%ADD152R,0.10000X0.37866*%
%ADD153R,0.16500X0.11800*%
%ADD154R,0.09800X0.45300*%
%ADD155R,0.05400X0.09900*%
%ADD156R,0.03600X0.06700*%
%ADD157R,0.20400X0.10800*%
%ADD158R,0.16400X0.04300*%
%ADD159R,0.04900X0.17100*%
%ADD160R,0.07600X0.08300*%
%ADD161R,0.08900X0.10200*%
%ADD162R,0.08600X0.09700*%
%ADD163R,0.17500X0.06700*%
%ADD164R,0.08965X0.03474*%
%ADD165R,0.29300X0.15600*%
%ADD166R,0.14700X0.03700*%
%ADD167R,0.07300X0.37900*%
%ADD168R,0.26931X0.16000*%
%ADD169R,0.48700X0.11300*%
%ADD170C,0.00700*%
%ADD171C,0.00984*%
%ADD172C,0.02362*%
%ADD173C,0.00300*%
%ADD174C,0.00600*%
%ADD175C,0.00787*%
%ADD176R,0.05417X0.06634*%
D10*
X-28868Y141500D02*
G03*
X-28868Y141500I-1000J0D01*
G01*
D61*
X212026Y7010D02*
G03*
X202637Y7010I-4694J-2710D01*
G01*
X202329Y1347D02*
G03*
X212558Y1347I5114J2953D01*
G01*
X212026Y23260D02*
G03*
X202637Y23260I-4694J-2710D01*
G01*
X202329Y17597D02*
G03*
X212558Y17597I5114J2953D01*
G01*
X212026Y39510D02*
G03*
X202637Y39510I-4694J-2710D01*
G01*
X202329Y33847D02*
G03*
X212558Y33847I5114J2953D01*
G01*
X212026Y55760D02*
G03*
X202637Y55760I-4694J-2710D01*
G01*
X202329Y50097D02*
G03*
X212558Y50097I5114J2953D01*
G01*
X212026Y72010D02*
G03*
X202637Y72010I-4694J-2710D01*
G01*
X202329Y66347D02*
G03*
X212558Y66347I5114J2953D01*
G01*
X-27047Y-1419D02*
G03*
X-27047Y-1419I-787J0D01*
G01*
X-167439Y127900D02*
Y187900D01*
X-120194Y127900D02*
Y187900D01*
X-167439Y127900D02*
X-120194D01*
X-167439Y187900D02*
X-120194D01*
D62*
X-40894Y102926D02*
G03*
X-40894Y102926I-400J0D01*
G01*
X108800Y46300D02*
G03*
X108800Y46300I-400J0D01*
G01*
D66*
X162609Y1300D02*
Y7365D01*
X86231Y52931D02*
Y59961D01*
X162609Y27500D02*
Y39600D01*
X86231Y1300D02*
Y35200D01*
Y59961D02*
X162609D01*
X86231Y1300D02*
X162609D01*
D67*
X-87800Y-5400D02*
X-84800D01*
X-92300D02*
X-89300D01*
X-83300D02*
X-80300D01*
X-92300Y17600D02*
X-89300D01*
X-83300D02*
X-80300D01*
Y-5400D02*
Y17600D01*
X-92300Y-5400D02*
Y17600D01*
X-86300Y16600D02*
Y18600D01*
X-87800Y17600D02*
X-84800D01*
X-73400Y-5200D02*
X-70400D01*
X-77900D02*
X-74900D01*
X-68900D02*
X-65900D01*
X-77900Y17800D02*
X-74900D01*
X-68900D02*
X-65900D01*
Y-5200D02*
Y17800D01*
X-77900Y-5200D02*
Y17800D01*
X-71900Y16800D02*
Y18800D01*
X-73400Y17800D02*
X-70400D01*
D82*
X-1568Y196900D02*
G03*
X-1568Y196900I-1000J0D01*
G01*
X-127475Y94179D02*
Y97565D01*
X-124325Y94179D02*
Y97565D01*
X-127199Y96643D02*
X-124601D01*
X-138543Y42701D02*
Y45299D01*
X-139465Y45575D02*
X-136079D01*
X-139465Y42425D02*
X-136079D01*
X-139565Y33725D02*
X-136179D01*
X-139565Y36875D02*
X-136179D01*
X-138643Y34001D02*
Y36599D01*
X217652Y149196D02*
Y155287D01*
X209396Y149196D02*
X217652D01*
X209396D02*
Y155287D01*
X217652D01*
X218421Y82907D02*
Y88997D01*
X210165Y82907D02*
X218421D01*
X210165D02*
Y88997D01*
X218421D01*
X-118800Y13800D02*
Y58000D01*
Y13800D02*
X-103500D01*
Y58000D01*
X-118800D02*
X-103500D01*
X-126169Y-11180D02*
Y12442D01*
X-109358Y-15117D02*
Y12442D01*
X-141368Y-15117D02*
Y12442D01*
X-109358D01*
X-141368Y-15117D02*
X-109358D01*
X-141368Y-11180D02*
X-109358D01*
X-139974Y115135D02*
Y119465D01*
X-130131Y115135D02*
Y119465D01*
X-139974D02*
X-130131D01*
X-139974Y115135D02*
X-130131D01*
X-139974Y100230D02*
X-130131D01*
X-139974Y95899D02*
X-130131D01*
X-139974D02*
Y100230D01*
X-130131Y95899D02*
Y100230D01*
X-53855Y127346D02*
X-45587D01*
X-54642Y123803D02*
Y126559D01*
X-44800Y123803D02*
Y126559D01*
X-53855Y123016D02*
X-45587D01*
X-44800Y123803D01*
X-45587Y127346D02*
X-44800Y126559D01*
X-54642D02*
X-53855Y127346D01*
X-54642Y123803D02*
X-53855Y123016D01*
X-52950Y90335D02*
X-44682D01*
X-43894Y91122D02*
Y93878D01*
X-53737Y91122D02*
Y93878D01*
X-52950Y94665D02*
X-44682D01*
X-53737Y93878D02*
X-52950Y94665D01*
X-53737Y91122D02*
X-52950Y90335D01*
X-44682D02*
X-43894Y91122D01*
X-44682Y94665D02*
X-43894Y93878D01*
X-52881Y97535D02*
X-44613D01*
X-43826Y98322D02*
Y101078D01*
X-53668Y98322D02*
Y101078D01*
X-52881Y101865D02*
X-44613D01*
X-53668Y101078D02*
X-52881Y101865D01*
X-53668Y98322D02*
X-52881Y97535D01*
X-44613D02*
X-43826Y98322D01*
X-44613Y101865D02*
X-43826Y101078D01*
X-131287Y91265D02*
X-123019D01*
X-132074Y87722D02*
Y90478D01*
X-122231Y87722D02*
Y90478D01*
X-131287Y86935D02*
X-123019D01*
X-122231Y87722D01*
X-123019Y91265D02*
X-122231Y90478D01*
X-132074D02*
X-131287Y91265D01*
X-132074Y87722D02*
X-131287Y86935D01*
Y84865D02*
X-123019D01*
X-132074Y81322D02*
Y84078D01*
X-122231Y81322D02*
Y84078D01*
X-131287Y80535D02*
X-123019D01*
X-122231Y81322D01*
X-123019Y84865D02*
X-122231Y84078D01*
X-132074D02*
X-131287Y84865D01*
X-132074Y81322D02*
X-131287Y80535D01*
X-67334Y109113D02*
Y117381D01*
X-66546Y108326D02*
X-63791D01*
X-66546Y118168D02*
X-63791D01*
X-63003Y109113D02*
Y117381D01*
X-63791Y118168D02*
X-63003Y117381D01*
X-67334D02*
X-66546Y118168D01*
X-67334Y109113D02*
X-66546Y108326D01*
X-63791D02*
X-63003Y109113D01*
X-118535Y107219D02*
Y115487D01*
X-122078Y116274D02*
X-119322D01*
X-122078Y106431D02*
X-119322D01*
X-122865Y107219D02*
Y115487D01*
Y107219D02*
X-122078Y106431D01*
X-119322D02*
X-118535Y107219D01*
X-119322Y116274D02*
X-118535Y115487D01*
X-122865D02*
X-122078Y116274D01*
X-74168Y137313D02*
Y145581D01*
X-73381Y136526D02*
X-70625D01*
X-73381Y146369D02*
X-70625D01*
X-69838Y137313D02*
Y145581D01*
X-70625Y146369D02*
X-69838Y145581D01*
X-74168D02*
X-73381Y146369D01*
X-74168Y137313D02*
X-73381Y136526D01*
X-70625D02*
X-69838Y137313D01*
X-105074Y123500D02*
X-102712Y125862D01*
X-105074Y123500D02*
X-102712Y121138D01*
X-105074D02*
Y125862D01*
X-102712Y121138D02*
Y125862D01*
X-94641Y119957D02*
Y127043D01*
X-113539D02*
X-94641D01*
X-113539Y119957D02*
Y127043D01*
Y119957D02*
X-94641D01*
X-91879Y76600D02*
X-89669D01*
X-91879Y90900D02*
X-89569D01*
X-82669Y76600D02*
X-80068D01*
X-82569Y90900D02*
X-80068D01*
X-91879Y76600D02*
Y90900D01*
X-80068Y76600D02*
Y90900D01*
X-139974Y102311D02*
Y106642D01*
X-130131Y102311D02*
Y106642D01*
X-139974D02*
X-130131D01*
X-139974Y102311D02*
X-130131D01*
X-53843Y84235D02*
Y88565D01*
X-44000Y84235D02*
Y88565D01*
X-53843D02*
X-44000D01*
X-53843Y84235D02*
X-44000D01*
X-139974Y108723D02*
Y113054D01*
X-130131Y108723D02*
Y113054D01*
X-139974D02*
X-130131D01*
X-139974Y108723D02*
X-130131D01*
X-87269Y146369D02*
X-82938D01*
X-87269Y136526D02*
X-82938D01*
Y146369D01*
X-87269Y136526D02*
Y146369D01*
X-102607Y171613D02*
Y179881D01*
X-101820Y170826D02*
X-99064D01*
X-101820Y180668D02*
X-99064D01*
X-98276Y171613D02*
Y179881D01*
X-99064Y180668D02*
X-98276Y179881D01*
X-102607D02*
X-101820Y180668D01*
X-102607Y171613D02*
X-101820Y170826D01*
X-99064D02*
X-98276Y171613D01*
X-47315Y161635D02*
X-39047D01*
X-38260Y162422D02*
Y165178D01*
X-48102Y162422D02*
Y165178D01*
X-47315Y165965D02*
X-39047D01*
X-48102Y165178D02*
X-47315Y165965D01*
X-48102Y162422D02*
X-47315Y161635D01*
X-39047D02*
X-38260Y162422D01*
X-39047Y165965D02*
X-38260Y165178D01*
X-38168Y150713D02*
Y158981D01*
X-41712Y159768D02*
X-38956D01*
X-41712Y149926D02*
X-38956D01*
X-42499Y150713D02*
Y158981D01*
Y150713D02*
X-41712Y149926D01*
X-38956D02*
X-38168Y150713D01*
X-38956Y159768D02*
X-38168Y158981D01*
X-42499D02*
X-41712Y159768D01*
X-55345Y149926D02*
X-51015D01*
X-55345Y159768D02*
X-51015D01*
X-55345Y149926D02*
Y159768D01*
X-51015Y149926D02*
Y159768D01*
X-102734Y164274D02*
X-98403D01*
X-102734Y154431D02*
X-98403D01*
Y164274D01*
X-102734Y154431D02*
Y164274D01*
X-108734Y154426D02*
X-104403D01*
X-108734Y164269D02*
X-104403D01*
X-108734Y154426D02*
Y164269D01*
X-104403Y154426D02*
Y164269D01*
X-108642Y148035D02*
Y152365D01*
X-98800Y148035D02*
Y152365D01*
X-108642D02*
X-98800D01*
X-108642Y148035D02*
X-98800D01*
X-48922Y149926D02*
X-44592D01*
X-48922Y159768D02*
X-44592D01*
X-48922Y149926D02*
Y159768D01*
X-44592Y149926D02*
Y159768D01*
X-61769Y149926D02*
X-57438D01*
X-61769Y159768D02*
X-57438D01*
X-61769Y149926D02*
Y159768D01*
X-57438Y149926D02*
Y159768D01*
X-80565Y146274D02*
X-76235D01*
X-80565Y136432D02*
X-76235D01*
Y146274D01*
X-80565Y136432D02*
Y146274D01*
X-3154Y7250D02*
X-2170Y8235D01*
X-3154Y7250D02*
Y7250D01*
Y13550D02*
X-2170Y12565D01*
X-15556Y8235D02*
X-14572Y7250D01*
X-15556Y12565D02*
X-14572Y13550D01*
X-15556Y8235D02*
Y12565D01*
X-14572Y13550D02*
X-3154D01*
X-2170Y8235D02*
Y12565D01*
X-14572Y7250D02*
X-3154D01*
X-5965Y-5587D02*
Y2681D01*
X-5178Y-6374D02*
X-2422D01*
X-5178Y3469D02*
X-2422D01*
X-1635Y-5587D02*
Y2681D01*
X-2422Y3469D02*
X-1635Y2681D01*
X-5965D02*
X-5178Y3469D01*
X-5965Y-5587D02*
X-5178Y-6374D01*
X-2422D02*
X-1635Y-5587D01*
X-48681Y-8565D02*
X-40413D01*
X-39626Y-7778D02*
Y-5022D01*
X-49468Y-7778D02*
Y-5022D01*
X-48681Y-4235D02*
X-40413D01*
X-49468Y-5022D02*
X-48681Y-4235D01*
X-49468Y-7778D02*
X-48681Y-8565D01*
X-40413D02*
X-39626Y-7778D01*
X-40413Y-4235D02*
X-39626Y-5022D01*
X-63769Y36605D02*
X-35669D01*
Y8805D02*
Y36605D01*
X-63769Y8805D02*
Y36605D01*
Y8805D02*
X-35669D01*
X-56209Y465D02*
X-55421Y1252D01*
X-54043Y-4555D02*
Y-3177D01*
X-52665Y-4555D01*
X-55421D02*
X-54043Y-3177D01*
X-55421Y-4555D02*
X-52665D01*
X-55421Y-3177D02*
X-52665D01*
X-52665Y1252D02*
X-51878Y465D01*
X-56209Y-8591D02*
Y465D01*
X-55421Y1252D02*
X-52665D01*
X-51878Y-8591D02*
Y465D01*
X-56209Y-8591D02*
X-51878D01*
X-62300Y442D02*
X-61513Y1229D01*
X-60135Y-4578D02*
Y-3200D01*
X-58757Y-4578D01*
X-61513D02*
X-60135Y-3200D01*
X-61513Y-4578D02*
X-58757D01*
X-61513Y-3200D02*
X-58757D01*
X-58757Y1229D02*
X-57969Y442D01*
X-62300Y-8613D02*
Y442D01*
X-61513Y1229D02*
X-58757D01*
X-57969Y-8613D02*
Y442D01*
X-62300Y-8613D02*
X-57969D01*
X-29232Y17469D02*
X-22932D01*
X-29232Y5658D02*
X-22932D01*
X-29232Y9791D02*
Y13335D01*
X-22932Y14516D02*
Y17469D01*
Y5658D02*
Y8610D01*
X-24450Y32605D02*
X1535D01*
Y20795D02*
Y32605D01*
X-24450Y20795D02*
X1535D01*
X-24450D02*
Y32605D01*
X-34823Y943D02*
X-10413D01*
X-34823Y-9687D02*
X-10413D01*
X-34823D02*
Y943D01*
X-10413Y-9687D02*
Y943D01*
X895Y-10118D02*
X12706D01*
Y15866D01*
X895D02*
X12706D01*
X895Y-10118D02*
Y15866D01*
X2863Y905D02*
X10737D01*
X2863Y4843D02*
X10737D01*
X2863Y905D02*
X6800Y4843D01*
X10737Y905D01*
X-32235Y194319D02*
Y202587D01*
X-35778Y203374D02*
X-33022D01*
X-35778Y193532D02*
X-33022D01*
X-36565Y194319D02*
Y202587D01*
Y194319D02*
X-35778Y193532D01*
X-33022D02*
X-32235Y194319D01*
X-33022Y203374D02*
X-32235Y202587D01*
X-36565D02*
X-35778Y203374D01*
X-71134Y69113D02*
Y77381D01*
X-70346Y68326D02*
X-67591D01*
X-70346Y78168D02*
X-67591D01*
X-66803Y69113D02*
Y77381D01*
X-67591Y78168D02*
X-66803Y77381D01*
X-71134D02*
X-70346Y78168D01*
X-71134Y69113D02*
X-70346Y68326D01*
X-67591D02*
X-66803Y69113D01*
X-65134D02*
Y77381D01*
X-64346Y68326D02*
X-61591D01*
X-64346Y78168D02*
X-61591D01*
X-60803Y69113D02*
Y77381D01*
X-61591Y78168D02*
X-60803Y77381D01*
X-65134D02*
X-64346Y78168D01*
X-65134Y69113D02*
X-64346Y68326D01*
X-61591D02*
X-60803Y69113D01*
X-91487Y63565D02*
X-83219D01*
X-92274Y60022D02*
Y62778D01*
X-82432Y60022D02*
Y62778D01*
X-91487Y59235D02*
X-83219D01*
X-82432Y60022D01*
X-83219Y63565D02*
X-82432Y62778D01*
X-92274D02*
X-91487Y63565D01*
X-92274Y60022D02*
X-91487Y59235D01*
X-103381Y58835D02*
X-95113D01*
X-94326Y59622D02*
Y62378D01*
X-104168Y59622D02*
Y62378D01*
X-103381Y63165D02*
X-95113D01*
X-104168Y62378D02*
X-103381Y63165D01*
X-104168Y59622D02*
X-103381Y58835D01*
X-95113D02*
X-94326Y59622D01*
X-95113Y63165D02*
X-94326Y62378D01*
X-166617Y8166D02*
Y116434D01*
X-143783D01*
Y8166D02*
Y116434D01*
X-166617Y8166D02*
X-143783D01*
X16632Y162469D02*
Y168768D01*
X28442Y162469D02*
Y168768D01*
X20765Y162469D02*
X24309D01*
X16632Y168768D02*
X19584D01*
X25490D02*
X28442D01*
X-77134Y68326D02*
X-72803D01*
X-77134Y78168D02*
X-72803D01*
X-77134Y68326D02*
Y78168D01*
X-72803Y68326D02*
Y78168D01*
X-72742Y59335D02*
Y63665D01*
X-62900Y59335D02*
Y63665D01*
X-72742D02*
X-62900D01*
X-72742Y59335D02*
X-62900D01*
X-122426Y70035D02*
Y74365D01*
X-132269Y70035D02*
Y74365D01*
Y70035D02*
X-122426D01*
X-132269Y74365D02*
X-122426D01*
X-82432Y65235D02*
Y69565D01*
X-92274Y65235D02*
Y69565D01*
Y65235D02*
X-82432D01*
X-92274Y69565D02*
X-82432D01*
X-86565Y47226D02*
X-82235D01*
X-86565Y57069D02*
X-82235D01*
X-86565Y47226D02*
Y57069D01*
X-82235Y47226D02*
Y57069D01*
X-132074Y64135D02*
Y68465D01*
X-122231Y64135D02*
Y68465D01*
X-132074D02*
X-122231D01*
X-132074Y64135D02*
X-122231D01*
X-132074Y56935D02*
Y61265D01*
X-122231Y56935D02*
Y61265D01*
X-132074D02*
X-122231D01*
X-132074Y56935D02*
X-122231D01*
X-93165Y56974D02*
X-88835D01*
X-93165Y47131D02*
X-88835D01*
Y56974D01*
X-93165Y47131D02*
Y56974D01*
X26406Y152135D02*
Y156465D01*
X16563Y152135D02*
Y156465D01*
Y152135D02*
X26406D01*
X16563Y156465D02*
X26406D01*
X-29665Y193626D02*
X-25335D01*
X-29665Y203468D02*
X-25335D01*
X-29665Y193626D02*
Y203468D01*
X-25335Y193626D02*
Y203468D01*
X-12085Y194300D02*
X-569D01*
Y210000D01*
X-12085D02*
X-569D01*
X-12085Y194300D02*
Y210000D01*
X-104205Y66658D02*
X-98594D01*
X-114342Y86343D02*
X-108732D01*
X-114342Y85000D02*
Y86343D01*
Y66658D02*
X-108732D01*
X-114342D02*
Y67700D01*
X-98594Y66658D02*
Y67700D01*
X-104205Y86343D02*
X-98594D01*
Y85000D02*
Y86343D01*
X-91287Y181194D02*
Y193006D01*
Y181194D02*
X-65302D01*
Y193006D01*
X-91287D02*
X-65302D01*
X-80263Y183163D02*
Y191037D01*
X-76326Y183163D02*
Y191037D01*
X-80263D02*
X-76326Y187100D01*
X-80263Y183163D02*
X-76326Y187100D01*
X-45405Y192191D02*
X-39932D01*
X-60405Y171325D02*
Y192191D01*
X-55568D01*
X-39932Y171325D02*
Y192191D01*
X-45405Y171325D02*
X-39932D01*
X-60405D02*
X-54869D01*
X-24765Y58626D02*
X-20435D01*
X-24765Y68468D02*
X-20435D01*
X-24765Y58626D02*
Y68468D01*
X-20435Y58626D02*
Y68468D01*
X67626Y34322D02*
X68413Y33535D01*
X67626Y37078D02*
X68413Y37865D01*
X76681D02*
X77469Y37078D01*
X76681Y33535D02*
X77469Y34322D01*
X68413Y33535D02*
X76681D01*
X77469Y34322D02*
Y37078D01*
X67626Y34322D02*
Y37078D01*
X68413Y37865D02*
X76681D01*
X141288Y6881D02*
X141682Y7275D01*
X141288Y6881D02*
X141288D01*
Y4519D02*
X141682Y4125D01*
X141288Y4519D02*
X141288D01*
X147981Y7275D02*
X148375Y6881D01*
X148375D01*
X147981Y4125D02*
X148375Y4519D01*
Y4519D01*
X141682Y4125D02*
X147981D01*
X141288Y4519D02*
Y6881D01*
X141682Y7275D02*
X147981D01*
X148375Y4519D02*
Y6881D01*
X141682Y7275D02*
Y7275D01*
X141288Y11581D02*
X141682Y11975D01*
X141288Y11581D02*
X141288D01*
Y9219D02*
X141682Y8825D01*
X141288Y9219D02*
X141288D01*
X147981Y11975D02*
X148375Y11581D01*
X148375D01*
X147981Y8825D02*
X148375Y9219D01*
Y9219D01*
X141682Y8825D02*
X147981D01*
X141288Y9219D02*
Y11581D01*
X141682Y11975D02*
X147981D01*
X148375Y9219D02*
Y11581D01*
X141682Y11975D02*
Y11975D01*
X161287Y-15821D02*
Y-7565D01*
X155196D02*
X161287D01*
X155196Y-15821D02*
Y-7565D01*
Y-15821D02*
X161287D01*
X139465Y5726D02*
Y15568D01*
X135135Y5726D02*
Y15568D01*
X139465D01*
X135135Y5726D02*
X139465D01*
X126425Y11825D02*
X133512D01*
X126425Y14975D02*
X133512D01*
X126425Y11825D02*
Y14975D01*
X133512Y11825D02*
Y14975D01*
X143688Y21175D02*
X150775D01*
X143688Y18025D02*
X150775D01*
Y21175D01*
X143688Y18025D02*
Y21175D01*
X156175Y4725D02*
Y11812D01*
X153025Y4725D02*
Y11812D01*
Y4725D02*
X156175D01*
X153025Y11812D02*
X156175D01*
X155975Y18725D02*
Y25812D01*
X152825Y18725D02*
Y25812D01*
Y18725D02*
X155975D01*
X152825Y25812D02*
X155975D01*
X135288Y25975D02*
X142375D01*
X135288Y22825D02*
X142375D01*
Y25975D01*
X135288Y22825D02*
Y25975D01*
X131025Y23388D02*
Y30475D01*
X134175Y23388D02*
Y30475D01*
X131025D02*
X134175D01*
X131025Y23388D02*
X134175D01*
X131161Y32288D02*
Y39375D01*
X134310Y32288D02*
Y39375D01*
X131161D02*
X134310D01*
X131161Y32288D02*
X134310D01*
X140225Y27888D02*
Y34975D01*
X143375Y27888D02*
Y34975D01*
X140225D02*
X143375D01*
X140225Y27888D02*
X143375D01*
X132918Y7325D02*
X133312Y7719D01*
X133312D01*
X132918Y10475D02*
X133312Y10081D01*
X133312D01*
X126225Y7719D02*
X126619Y7325D01*
X126225Y7719D02*
X126225D01*
X126225Y10081D02*
X126619Y10475D01*
X126225Y10081D02*
Y10081D01*
X126619Y10475D02*
X132918D01*
X133312Y7719D02*
Y10081D01*
X126619Y7325D02*
X132918D01*
X126225Y7719D02*
Y10081D01*
X132918Y7325D02*
Y7325D01*
X94818Y21525D02*
X95212Y21919D01*
X95212D01*
X94818Y24675D02*
X95212Y24281D01*
X95212D01*
X88125Y21919D02*
X88519Y21525D01*
X88125Y21919D02*
X88125D01*
X88125Y24281D02*
X88519Y24675D01*
X88125Y24281D02*
Y24281D01*
X88519Y24675D02*
X94818D01*
X95212Y21919D02*
Y24281D01*
X88519Y21525D02*
X94818D01*
X88125Y21919D02*
Y24281D01*
X94818Y21525D02*
Y21525D01*
X119081Y9812D02*
X119475Y9418D01*
X119081Y9812D02*
Y9812D01*
X116325Y9418D02*
X116719Y9812D01*
Y9812D01*
X119081Y2725D02*
X119475Y3119D01*
X119081Y2725D02*
Y2725D01*
X116325Y3119D02*
X116719Y2725D01*
X116719D01*
X116325Y3119D02*
Y9418D01*
X116719Y9812D02*
X119081D01*
X119475Y3119D02*
Y9418D01*
X116719Y2725D02*
X119081D01*
X119475Y9418D02*
X119475D01*
X108056Y9612D02*
X108450Y9218D01*
X108056Y9612D02*
Y9612D01*
X105300Y9218D02*
X105694Y9612D01*
Y9612D01*
X108056Y2525D02*
X108450Y2919D01*
X108056Y2525D02*
Y2525D01*
X105300Y2919D02*
X105694Y2525D01*
X105694D01*
X105300Y2919D02*
Y9218D01*
X105694Y9612D02*
X108056D01*
X108450Y2919D02*
Y9218D01*
X105694Y2525D02*
X108056D01*
X108450Y9218D02*
X108450D01*
X152988Y16381D02*
X153382Y16775D01*
X152988Y16381D02*
X152988D01*
Y14019D02*
X153382Y13625D01*
X152988Y14019D02*
X152988D01*
X159681Y16775D02*
X160075Y16381D01*
X160075D01*
X159681Y13625D02*
X160075Y14019D01*
Y14019D01*
X153382Y13625D02*
X159681D01*
X152988Y14019D02*
Y16381D01*
X153382Y16775D02*
X159681D01*
X160075Y14019D02*
Y16381D01*
X153382Y16775D02*
Y16775D01*
X157925Y5082D02*
X158319Y4688D01*
Y4688D02*
Y4688D01*
X160681D02*
X161075Y5082D01*
X160681Y4688D02*
Y4688D01*
X157925Y11381D02*
X158319Y11775D01*
Y11775D01*
X160681D02*
X161075Y11381D01*
X160681Y11775D02*
X160681D01*
X161075Y5082D02*
Y11381D01*
X158319Y4688D02*
X160681D01*
X157925Y5082D02*
Y11381D01*
X158319Y11775D02*
X160681D01*
X157925Y5082D02*
X157925D01*
X150418Y13525D02*
X150812Y13919D01*
X150812D01*
X150418Y16675D02*
X150812Y16281D01*
X150812D01*
X143725Y13919D02*
X144119Y13525D01*
X143725Y13919D02*
X143725D01*
X143725Y16281D02*
X144119Y16675D01*
X143725Y16281D02*
Y16281D01*
X144119Y16675D02*
X150418D01*
X150812Y13919D02*
Y16281D01*
X144119Y13525D02*
X150418D01*
X143725Y13919D02*
Y16281D01*
X150418Y13525D02*
Y13525D01*
X133118Y16325D02*
X133512Y16719D01*
X133512D01*
X133118Y19475D02*
X133512Y19081D01*
X133512D01*
X126425Y16719D02*
X126819Y16325D01*
X126425Y16719D02*
X126425D01*
X126425Y19081D02*
X126819Y19475D01*
X126425Y19081D02*
Y19081D01*
X126819Y19475D02*
X133118D01*
X133512Y16719D02*
Y19081D01*
X126819Y16325D02*
X133118D01*
X126425Y16719D02*
Y19081D01*
X133118Y16325D02*
Y16325D01*
X143688Y25481D02*
X144082Y25875D01*
X143688Y25481D02*
X143688D01*
Y23119D02*
X144082Y22725D01*
X143688Y23119D02*
X143688D01*
X150381Y25875D02*
X150775Y25481D01*
X150775D01*
X150381Y22725D02*
X150775Y23119D01*
Y23119D01*
X144082Y22725D02*
X150381D01*
X143688Y23119D02*
Y25481D01*
X144082Y25875D02*
X150381D01*
X150775Y23119D02*
Y25481D01*
X144082Y25875D02*
Y25875D01*
X94718Y17225D02*
X95112Y17619D01*
X95112D01*
X94718Y20375D02*
X95112Y19981D01*
X95112D01*
X88025Y17619D02*
X88419Y17225D01*
X88025Y17619D02*
X88025D01*
X88025Y19981D02*
X88419Y20375D01*
X88025Y19981D02*
Y19981D01*
X88419Y20375D02*
X94718D01*
X95112Y17619D02*
Y19981D01*
X88419Y17225D02*
X94718D01*
X88025Y17619D02*
Y19981D01*
X94718Y17225D02*
Y17225D01*
X113481Y9812D02*
X113875Y9418D01*
X113481Y9812D02*
Y9812D01*
X110725Y9418D02*
X111119Y9812D01*
Y9812D01*
X113481Y2725D02*
X113875Y3119D01*
X113481Y2725D02*
Y2725D01*
X110725Y3119D02*
X111119Y2725D01*
X111119D01*
X110725Y3119D02*
Y9418D01*
X111119Y9812D02*
X113481D01*
X113875Y3119D02*
Y9418D01*
X111119Y2725D02*
X113481D01*
X113875Y9418D02*
X113875D01*
X138181Y35012D02*
X138575Y34618D01*
X138181Y35012D02*
Y35012D01*
X135425Y34618D02*
X135819Y35012D01*
Y35012D01*
X138181Y27925D02*
X138575Y28319D01*
X138181Y27925D02*
Y27925D01*
X135425Y28319D02*
X135819Y27925D01*
X135819D01*
X135425Y28319D02*
Y34618D01*
X135819Y35012D02*
X138181D01*
X138575Y28319D02*
Y34618D01*
X135819Y27925D02*
X138181D01*
X138575Y34618D02*
X138575D01*
X126181Y38912D02*
X126575Y38518D01*
X126181Y38912D02*
Y38912D01*
X123425Y38518D02*
X123819Y38912D01*
Y38912D01*
X126181Y31825D02*
X126575Y32219D01*
X126181Y31825D02*
Y31825D01*
X123425Y32219D02*
X123819Y31825D01*
X123819D01*
X123425Y32219D02*
Y38518D01*
X123819Y38912D02*
X126181D01*
X126575Y32219D02*
Y38518D01*
X123819Y31825D02*
X126181D01*
X126575Y38518D02*
X126575D01*
X120531Y50512D02*
X120925Y50118D01*
X120531Y50512D02*
Y50512D01*
X117775Y50118D02*
X118169Y50512D01*
Y50512D01*
X120531Y43425D02*
X120925Y43819D01*
X120531Y43425D02*
Y43425D01*
X117775Y43819D02*
X118169Y43425D01*
X118169D01*
X117775Y43819D02*
Y50118D01*
X118169Y50512D02*
X120531D01*
X120925Y43819D02*
Y50118D01*
X118169Y43425D02*
X120531D01*
X120925Y50118D02*
X120925D01*
X140488Y38981D02*
X140882Y39375D01*
X140488Y38981D02*
X140488D01*
Y36619D02*
X140882Y36225D01*
X140488Y36619D02*
X140488D01*
X147181Y39375D02*
X147575Y38981D01*
X147575D01*
X147181Y36225D02*
X147575Y36619D01*
Y36619D01*
X140882Y36225D02*
X147181D01*
X140488Y36619D02*
Y38981D01*
X140882Y39375D02*
X147181D01*
X147575Y36619D02*
Y38981D01*
X140882Y39375D02*
Y39375D01*
X121681Y39012D02*
X122075Y38618D01*
X121681Y39012D02*
Y39012D01*
X118925Y38618D02*
X119319Y39012D01*
Y39012D01*
X121681Y31925D02*
X122075Y32319D01*
X121681Y31925D02*
Y31925D01*
X118925Y32319D02*
X119319Y31925D01*
X119319D01*
X118925Y32319D02*
Y38618D01*
X119319Y39012D02*
X121681D01*
X122075Y32319D02*
Y38618D01*
X119319Y31925D02*
X121681D01*
X122075Y38618D02*
X122075D01*
X122625Y43819D02*
X123019Y43425D01*
Y43425D02*
Y43425D01*
X125381D02*
X125775Y43819D01*
X125381Y43425D02*
Y43425D01*
X122625Y50118D02*
X123019Y50512D01*
Y50512D01*
X125381D02*
X125775Y50118D01*
X125381Y50512D02*
X125381D01*
X125775Y43819D02*
Y50118D01*
X123019Y43425D02*
X125381D01*
X122625Y43819D02*
Y50118D01*
X123019Y50512D02*
X125381D01*
X122625Y43819D02*
X122625D01*
X144781Y50512D02*
X145175Y50118D01*
X144781Y50512D02*
Y50512D01*
X142025Y50118D02*
X142419Y50512D01*
Y50512D01*
X144781Y43425D02*
X145175Y43819D01*
X144781Y43425D02*
Y43425D01*
X142025Y43819D02*
X142419Y43425D01*
X142419D01*
X142025Y43819D02*
Y50118D01*
X142419Y50512D02*
X144781D01*
X145175Y43819D02*
Y50118D01*
X142419Y43425D02*
X144781D01*
X145175Y50118D02*
X145175D01*
X139981Y50612D02*
X140375Y50218D01*
X139981Y50612D02*
Y50612D01*
X137225Y50218D02*
X137619Y50612D01*
Y50612D01*
X139981Y43525D02*
X140375Y43919D01*
X139981Y43525D02*
Y43525D01*
X137225Y43919D02*
X137619Y43525D01*
X137619D01*
X137225Y43919D02*
Y50218D01*
X137619Y50612D02*
X139981D01*
X140375Y43919D02*
Y50218D01*
X137619Y43525D02*
X139981D01*
X140375Y50218D02*
X140375D01*
X135081Y50512D02*
X135475Y50118D01*
X135081Y50512D02*
Y50512D01*
X132325Y50118D02*
X132719Y50512D01*
Y50512D01*
X135081Y43425D02*
X135475Y43819D01*
X135081Y43425D02*
Y43425D01*
X132325Y43819D02*
X132719Y43425D01*
X132719D01*
X132325Y43819D02*
Y50118D01*
X132719Y50512D02*
X135081D01*
X135475Y43819D02*
Y50118D01*
X132719Y43425D02*
X135081D01*
X135475Y50118D02*
X135475D01*
X130231Y50512D02*
X130625Y50118D01*
X130231Y50512D02*
Y50512D01*
X127475Y50118D02*
X127869Y50512D01*
Y50512D01*
X130231Y43425D02*
X130625Y43819D01*
X130231Y43425D02*
Y43425D01*
X127475Y43819D02*
X127869Y43425D01*
X127869D01*
X127475Y43819D02*
Y50118D01*
X127869Y50512D02*
X130231D01*
X130625Y43819D02*
Y50118D01*
X127869Y43425D02*
X130231D01*
X130625Y50118D02*
X130625D01*
X115681Y50512D02*
X116075Y50118D01*
X115681Y50512D02*
Y50512D01*
X112925Y50118D02*
X113319Y50512D01*
Y50512D01*
X115681Y43425D02*
X116075Y43819D01*
X115681Y43425D02*
Y43425D01*
X112925Y43819D02*
X113319Y43425D01*
X113319D01*
X112925Y43819D02*
Y50118D01*
X113319Y50512D02*
X115681D01*
X116075Y43819D02*
Y50118D01*
X113319Y43425D02*
X115681D01*
X116075Y50118D02*
X116075D01*
X99688Y50081D02*
X100082Y50475D01*
X99688Y50081D02*
X99688D01*
Y47719D02*
X100082Y47325D01*
X99688Y47719D02*
X99688D01*
X106381Y50475D02*
X106775Y50081D01*
X106775D01*
X106381Y47325D02*
X106775Y47719D01*
Y47719D01*
X100082Y47325D02*
X106381D01*
X99688Y47719D02*
Y50081D01*
X100082Y50475D02*
X106381D01*
X106775Y47719D02*
Y50081D01*
X100082Y50475D02*
Y50475D01*
X94881Y44612D02*
X95275Y44218D01*
X94881Y44612D02*
Y44612D01*
X92125Y44218D02*
X92519Y44612D01*
Y44612D01*
X94881Y37525D02*
X95275Y37919D01*
X94881Y37525D02*
Y37525D01*
X92125Y37919D02*
X92519Y37525D01*
X92519D01*
X92125Y37919D02*
Y44218D01*
X92519Y44612D02*
X94881D01*
X95275Y37919D02*
Y44218D01*
X92519Y37525D02*
X94881D01*
X95275Y44218D02*
X95275D01*
X67568Y40922D02*
X68356Y40135D01*
X71998Y42300D02*
X73376D01*
X71998D02*
X73376Y43678D01*
X71998Y42300D02*
X73376Y40922D01*
Y43678D01*
X71998Y40922D02*
Y43678D01*
X67568Y43678D02*
X68356Y44465D01*
X68356Y40135D02*
X77411D01*
X67568Y40922D02*
Y43678D01*
X68356Y44465D02*
X77411D01*
Y40135D02*
Y44465D01*
X50466Y20774D02*
X54797D01*
X50466Y10932D02*
X54797D01*
Y20774D01*
X50466Y10932D02*
Y20774D01*
X63678Y183704D02*
X66378Y186404D01*
X63678Y68294D02*
Y83300D01*
Y68294D02*
X79132D01*
X166131D02*
X181788D01*
X181788Y82800D02*
X181788Y68294D01*
X181788Y171200D02*
X181788Y186404D01*
X166832D02*
X181788D01*
X66378D02*
X78332D01*
X63678Y167600D02*
Y183704D01*
X114926Y195435D02*
Y199765D01*
X124768Y195435D02*
Y199765D01*
X114926D02*
X124768D01*
X114926Y195435D02*
X124768D01*
X161545Y207365D02*
X169813D01*
X160758Y203822D02*
Y206578D01*
X170600Y203822D02*
Y206578D01*
X161545Y203035D02*
X169813D01*
X170600Y203822D01*
X169813Y207365D02*
X170600Y206578D01*
X160758D02*
X161545Y207365D01*
X160758Y203822D02*
X161545Y203035D01*
X173213Y212765D02*
X181481D01*
X172426Y209222D02*
Y211978D01*
X182269Y209222D02*
Y211978D01*
X173213Y208435D02*
X181481D01*
X182269Y209222D01*
X181481Y212765D02*
X182269Y211978D01*
X172426D02*
X173213Y212765D01*
X172426Y209222D02*
X173213Y208435D01*
X199697Y189819D02*
Y198087D01*
X196153Y198874D02*
X198909D01*
X196153Y189032D02*
X198909D01*
X195366Y189819D02*
Y198087D01*
Y189819D02*
X196153Y189032D01*
X198909D02*
X199697Y189819D01*
X198909Y198874D02*
X199697Y198087D01*
X195366D02*
X196153Y198874D01*
X195335Y186874D02*
X199665D01*
X195335Y177032D02*
X199665D01*
Y186874D01*
X195335Y177032D02*
Y186874D01*
X193679Y173075D02*
X197065D01*
X193679Y169925D02*
X197065D01*
X196143Y170201D02*
Y172799D01*
X40763Y124965D02*
X50605D01*
X40763Y120635D02*
X50605D01*
X40763D02*
Y124965D01*
X50605Y120635D02*
Y124965D01*
X40763Y131165D02*
X50605D01*
X40763Y126835D02*
X50605D01*
X40763D02*
Y131165D01*
X50605Y126835D02*
Y131165D01*
X39800Y150669D02*
X46099D01*
X39800Y138857D02*
X46099D01*
X39800Y142991D02*
Y146535D01*
X46099Y147716D02*
Y150669D01*
Y138857D02*
Y141810D01*
X39600Y164269D02*
X45899D01*
X39600Y152457D02*
X45899D01*
X39600Y156591D02*
Y160135D01*
X45899Y161316D02*
Y164269D01*
Y152457D02*
Y155410D01*
X40466Y179726D02*
X44797D01*
X40466Y189568D02*
X44797D01*
X40466Y179726D02*
Y189568D01*
X44797Y179726D02*
Y189568D01*
X34566Y179726D02*
X38897D01*
X34566Y189568D02*
X38897D01*
X34566Y179726D02*
Y189568D01*
X38897Y179726D02*
Y189568D01*
X201175Y87335D02*
Y90721D01*
X198025Y87335D02*
Y90721D01*
X198301Y88257D02*
X200899D01*
X52001Y158257D02*
X54599D01*
X51725Y157335D02*
Y160721D01*
X54875Y157335D02*
Y160721D01*
X-122300Y97499D02*
Y94500D01*
X-120800D01*
X-120301Y95000D01*
Y96999D01*
X-120800Y97499D01*
X-122300D01*
X-119301Y94500D02*
X-118301D01*
X-118801D01*
Y97499D01*
X-119301Y96999D01*
X-115302Y94500D02*
Y97499D01*
X-116802Y95999D01*
X-114802D01*
X-129600Y45699D02*
Y42700D01*
X-128101D01*
X-127601Y43200D01*
Y45199D01*
X-128101Y45699D01*
X-129600D01*
X-124602D02*
X-126601D01*
Y44199D01*
X-125601Y44699D01*
X-125101D01*
X-124602Y44199D01*
Y43200D01*
X-125101Y42700D01*
X-126101D01*
X-126601Y43200D01*
X203599Y208200D02*
X201100D01*
X200600Y207700D01*
Y206700D01*
X201100Y206201D01*
X203599D01*
X200600Y205201D02*
Y204201D01*
Y204701D01*
X203599D01*
X203099Y205201D01*
Y202702D02*
X203599Y202202D01*
Y201202D01*
X203099Y200702D01*
X201100D01*
X200600Y201202D01*
Y202202D01*
X201100Y202702D01*
X203099D01*
X171601Y201600D02*
X174100D01*
X174600Y202100D01*
Y203099D01*
X174100Y203599D01*
X171601D01*
X174100Y204599D02*
X174600Y205099D01*
Y206099D01*
X174100Y206598D01*
X172101D01*
X171601Y206099D01*
Y205099D01*
X172101Y204599D01*
X172601D01*
X173100Y205099D01*
Y206598D01*
X29800Y159599D02*
Y157600D01*
X30800Y156600D01*
X31799Y157600D01*
Y159599D01*
X34299Y156600D02*
Y159599D01*
X32799Y158099D01*
X34798D01*
X28900Y146399D02*
Y144400D01*
X29900Y143400D01*
X30899Y144400D01*
Y146399D01*
X33898Y143400D02*
X31899D01*
X33898Y145399D01*
Y145899D01*
X33399Y146399D01*
X32399D01*
X31899Y145899D01*
X14300Y200899D02*
Y198400D01*
X14800Y197900D01*
X15800D01*
X16299Y198400D01*
Y200899D01*
X19298Y200399D02*
X18799Y200899D01*
X17799D01*
X17299Y200399D01*
Y199899D01*
X17799Y199399D01*
X18799D01*
X19298Y198900D01*
Y198400D01*
X18799Y197900D01*
X17799D01*
X17299Y198400D01*
X20298Y200899D02*
Y197900D01*
X21798D01*
X22297Y198400D01*
Y198900D01*
X21798Y199399D01*
X20298D01*
X21798D01*
X22297Y199899D01*
Y200399D01*
X21798Y200899D01*
X20298D01*
X59900Y191199D02*
Y188700D01*
X60400Y188200D01*
X61400D01*
X61899Y188700D01*
Y191199D01*
X64898D02*
X62899D01*
Y189699D01*
X63899Y190199D01*
X64399D01*
X64898Y189699D01*
Y188700D01*
X64399Y188200D01*
X63399D01*
X62899Y188700D01*
X34699Y176100D02*
X32200D01*
X31700Y175600D01*
Y174601D01*
X32200Y174101D01*
X34699D01*
X34199Y173101D02*
X34699Y172601D01*
Y171601D01*
X34199Y171102D01*
X33699D01*
X33200Y171601D01*
Y172101D01*
Y171601D01*
X32700Y171102D01*
X32200D01*
X31700Y171601D01*
Y172601D01*
X32200Y173101D01*
X189400Y185500D02*
X192399D01*
Y184001D01*
X191899Y183501D01*
X190900D01*
X190400Y184001D01*
Y185500D01*
Y184500D02*
X189400Y183501D01*
Y180502D02*
Y182501D01*
X191399Y180502D01*
X191899D01*
X192399Y181001D01*
Y182001D01*
X191899Y182501D01*
X189400Y177503D02*
Y179502D01*
X191399Y177503D01*
X191899D01*
X192399Y178002D01*
Y179002D01*
X191899Y179502D01*
X46900Y188000D02*
X49899D01*
Y186501D01*
X49399Y186001D01*
X48399D01*
X47900Y186501D01*
Y188000D01*
Y187000D02*
X46900Y186001D01*
Y185001D02*
Y184001D01*
Y184501D01*
X49899D01*
X49399Y185001D01*
Y182502D02*
X49899Y182002D01*
Y181002D01*
X49399Y180502D01*
X48899D01*
X48399Y181002D01*
X47900Y180502D01*
X47400D01*
X46900Y181002D01*
Y182002D01*
X47400Y182502D01*
X47900D01*
X48399Y182002D01*
X48899Y182502D01*
X49399D01*
X48399Y182002D02*
Y181002D01*
X29700Y188000D02*
X32699D01*
Y186501D01*
X32199Y186001D01*
X31199D01*
X30700Y186501D01*
Y188000D01*
Y187000D02*
X29700Y186001D01*
Y185001D02*
Y184001D01*
Y184501D01*
X32699D01*
X32199Y185001D01*
X32699Y182502D02*
Y180502D01*
X32199D01*
X30200Y182502D01*
X29700D01*
X128100Y196400D02*
Y199399D01*
X129599D01*
X130099Y198899D01*
Y197899D01*
X129599Y197400D01*
X128100D01*
X129100D02*
X130099Y196400D01*
X131099Y198899D02*
X131599Y199399D01*
X132599D01*
X133098Y198899D01*
Y198399D01*
X132599Y197899D01*
X132099D01*
X132599D01*
X133098Y197400D01*
Y196900D01*
X132599Y196400D01*
X131599D01*
X131099Y196900D01*
X186000Y209099D02*
Y206100D01*
X187999D01*
X188999Y208599D02*
X189499Y209099D01*
X190499D01*
X190998Y208599D01*
Y208099D01*
X190499Y207599D01*
X190998Y207100D01*
Y206600D01*
X190499Y206100D01*
X189499D01*
X188999Y206600D01*
Y207100D01*
X189499Y207599D01*
X188999Y208099D01*
Y208599D01*
X189499Y207599D02*
X190499D01*
X193900Y167499D02*
Y164500D01*
X195399D01*
X195899Y165000D01*
Y166999D01*
X195399Y167499D01*
X193900D01*
X196899D02*
X198898D01*
Y166999D01*
X196899Y165000D01*
Y164500D01*
X198231Y97299D02*
Y94300D01*
X199731D01*
X200231Y94800D01*
Y96799D01*
X199731Y97299D01*
X198231D01*
X203230D02*
X202230Y96799D01*
X201231Y95799D01*
Y94800D01*
X201730Y94300D01*
X202730D01*
X203230Y94800D01*
Y95300D01*
X202730Y95799D01*
X201231D01*
X51932Y167299D02*
Y164300D01*
X53431D01*
X53931Y164800D01*
Y166799D01*
X53431Y167299D01*
X51932D01*
X56430Y164300D02*
Y167299D01*
X54931Y165799D01*
X56930D01*
X163399Y211599D02*
X162899Y212099D01*
X161900D01*
X161400Y211599D01*
Y209600D01*
X161900Y209100D01*
X162899D01*
X163399Y209600D01*
X164399Y211599D02*
X164899Y212099D01*
X165899D01*
X166398Y211599D01*
Y211099D01*
X165899Y210599D01*
X165399D01*
X165899D01*
X166398Y210100D01*
Y209600D01*
X165899Y209100D01*
X164899D01*
X164399Y209600D01*
X169397Y212099D02*
X168398Y211599D01*
X167398Y210599D01*
Y209600D01*
X167898Y209100D01*
X168898D01*
X169397Y209600D01*
Y210100D01*
X168898Y210599D01*
X167398D01*
X193299Y196101D02*
X193799Y196600D01*
Y197600D01*
X193299Y198100D01*
X191300D01*
X190800Y197600D01*
Y196600D01*
X191300Y196101D01*
X193299Y195101D02*
X193799Y194601D01*
Y193601D01*
X193299Y193102D01*
X192799D01*
X192299Y193601D01*
Y194101D01*
Y193601D01*
X191800Y193102D01*
X191300D01*
X190800Y193601D01*
Y194601D01*
X191300Y195101D01*
X193799Y190103D02*
Y192102D01*
X192299D01*
X192799Y191102D01*
Y190602D01*
X192299Y190103D01*
X191300D01*
X190800Y190602D01*
Y191602D01*
X191300Y192102D01*
X186699Y212699D02*
X186199Y213199D01*
X185200D01*
X184700Y212699D01*
Y210700D01*
X185200Y210200D01*
X186199D01*
X186699Y210700D01*
X187699Y212699D02*
X188199Y213199D01*
X189199D01*
X189698Y212699D01*
Y212199D01*
X189199Y211700D01*
X188699D01*
X189199D01*
X189698Y211200D01*
Y210700D01*
X189199Y210200D01*
X188199D01*
X187699Y210700D01*
X190698Y212699D02*
X191198Y213199D01*
X192198D01*
X192697Y212699D01*
Y212199D01*
X192198Y211700D01*
X191698D01*
X192198D01*
X192697Y211200D01*
Y210700D01*
X192198Y210200D01*
X191198D01*
X190698Y210700D01*
X208499Y196499D02*
X207999Y196999D01*
X207000D01*
X206500Y196499D01*
Y194500D01*
X207000Y194000D01*
X207999D01*
X208499Y194500D01*
Y195500D01*
X207500D01*
X209499Y194000D02*
Y196999D01*
X210999D01*
X211498Y196499D01*
Y195500D01*
X210999Y195000D01*
X209499D01*
X214497Y196499D02*
X213998Y196999D01*
X212998D01*
X212498Y196499D01*
Y195999D01*
X212998Y195500D01*
X213998D01*
X214497Y195000D01*
Y194500D01*
X213998Y194000D01*
X212998D01*
X212498Y194500D01*
X218496Y194000D02*
Y195999D01*
X219496Y196999D01*
X220496Y195999D01*
Y194000D01*
Y195500D01*
X218496D01*
X41599Y106499D02*
X41100Y106999D01*
X40100D01*
X39600Y106499D01*
Y104500D01*
X40100Y104000D01*
X41100D01*
X41599Y104500D01*
X44598Y106999D02*
X42599D01*
Y104000D01*
X44598D01*
X42599Y105499D02*
X43599D01*
X42800Y115400D02*
Y118399D01*
X44300D01*
X44799Y117899D01*
Y116900D01*
X44300Y116400D01*
X42800D01*
X43800D02*
X44799Y115400D01*
X47798D02*
X45799D01*
X47798Y117399D01*
Y117899D01*
X47299Y118399D01*
X46299D01*
X45799Y117899D01*
X48798D02*
X49298Y118399D01*
X50298D01*
X50797Y117899D01*
Y115900D01*
X50298Y115400D01*
X49298D01*
X48798Y115900D01*
Y117899D01*
X41500Y133000D02*
Y135999D01*
X43000D01*
X43499Y135499D01*
Y134500D01*
X43000Y134000D01*
X41500D01*
X42500D02*
X43499Y133000D01*
X46498D02*
X44499D01*
X46498Y134999D01*
Y135499D01*
X45999Y135999D01*
X44999D01*
X44499Y135499D01*
X47498D02*
X47998Y135999D01*
X48998D01*
X49497Y135499D01*
Y134999D01*
X48998Y134500D01*
X48498D01*
X48998D01*
X49497Y134000D01*
Y133500D01*
X48998Y133000D01*
X47998D01*
X47498Y133500D01*
X95500Y5899D02*
Y3400D01*
X96000Y2900D01*
X97000D01*
X97499Y3400D01*
Y5899D01*
X98499Y2900D02*
X99499D01*
X98999D01*
Y5899D01*
X98499Y5399D01*
X102498Y2900D02*
Y5899D01*
X100998Y4400D01*
X102998D01*
X44600Y19800D02*
X47599D01*
Y18301D01*
X47099Y17801D01*
X46099D01*
X45600Y18301D01*
Y19800D01*
Y18800D02*
X44600Y17801D01*
X47599Y14802D02*
X47099Y15801D01*
X46099Y16801D01*
X45100D01*
X44600Y16301D01*
Y15301D01*
X45100Y14802D01*
X45600D01*
X46099Y15301D01*
Y16801D01*
X47099Y13802D02*
X47599Y13302D01*
Y12302D01*
X47099Y11803D01*
X46599D01*
X46099Y12302D01*
X45600Y11803D01*
X45100D01*
X44600Y12302D01*
Y13302D01*
X45100Y13802D01*
X45600D01*
X46099Y13302D01*
X46599Y13802D01*
X47099D01*
X46099Y13302D02*
Y12302D01*
X51231Y-2200D02*
Y799D01*
X52731D01*
X53231Y299D01*
Y-701D01*
X52731Y-1200D01*
X51231D01*
X54230Y299D02*
X54730Y799D01*
X55730D01*
X56230Y299D01*
Y-201D01*
X55730Y-701D01*
X55230D01*
X55730D01*
X56230Y-1200D01*
Y-1700D01*
X55730Y-2200D01*
X54730D01*
X54230Y-1700D01*
X58000Y43799D02*
X59000D01*
X58500D01*
Y40800D01*
X58000D01*
X59000D01*
X60499D02*
Y43799D01*
X61999D01*
X62498Y43299D01*
Y42300D01*
X61999Y41800D01*
X60499D01*
X61499D02*
X62498Y40800D01*
X65498Y41300D02*
Y43299D01*
X64998Y43799D01*
X63998D01*
X63498Y43299D01*
Y41300D01*
X63998Y40800D01*
X64998D01*
X64498Y41800D02*
X65498Y40800D01*
X64998D02*
X65498Y41300D01*
X91199Y48599D02*
X90699Y49099D01*
X89700D01*
X89200Y48599D01*
Y46600D01*
X89700Y46100D01*
X90699D01*
X91199Y46600D01*
X94198Y46100D02*
X92199D01*
X94198Y48099D01*
Y48599D01*
X93699Y49099D01*
X92699D01*
X92199Y48599D01*
X105099Y53799D02*
X104599Y54299D01*
X103600D01*
X103100Y53799D01*
Y51800D01*
X103600Y51300D01*
X104599D01*
X105099Y51800D01*
X106099Y53799D02*
X106599Y54299D01*
X107599D01*
X108098Y53799D01*
Y53299D01*
X107599Y52799D01*
X107099D01*
X107599D01*
X108098Y52300D01*
Y51800D01*
X107599Y51300D01*
X106599D01*
X106099Y51800D01*
X114999Y55001D02*
X115499Y55501D01*
Y56500D01*
X114999Y57000D01*
X113000D01*
X112500Y56500D01*
Y55501D01*
X113000Y55001D01*
X112500Y52501D02*
X115499D01*
X113999Y54001D01*
Y52002D01*
X130829Y54737D02*
X131329Y55237D01*
Y56236D01*
X130829Y56736D01*
X128830D01*
X128330Y56236D01*
Y55237D01*
X128830Y54737D01*
X131329Y51738D02*
Y53737D01*
X129829D01*
X130329Y52737D01*
Y52237D01*
X129829Y51738D01*
X128830D01*
X128330Y52237D01*
Y53237D01*
X128830Y53737D01*
X135679Y54800D02*
X136179Y55300D01*
Y56299D01*
X135679Y56799D01*
X133680D01*
X133180Y56299D01*
Y55300D01*
X133680Y54800D01*
X136179Y51801D02*
X135679Y52800D01*
X134679Y53800D01*
X133680D01*
X133180Y53300D01*
Y52301D01*
X133680Y51801D01*
X134180D01*
X134679Y52301D01*
Y53800D01*
X139999Y55001D02*
X140499Y55501D01*
Y56500D01*
X139999Y57000D01*
X138000D01*
X137500Y56500D01*
Y55501D01*
X138000Y55001D01*
X140499Y54001D02*
Y52002D01*
X139999D01*
X138000Y54001D01*
X137500D01*
X145399Y55301D02*
X145899Y55800D01*
Y56800D01*
X145399Y57300D01*
X143400D01*
X142900Y56800D01*
Y55800D01*
X143400Y55301D01*
X145399Y54301D02*
X145899Y53801D01*
Y52801D01*
X145399Y52302D01*
X144899D01*
X144399Y52801D01*
X143900Y52302D01*
X143400D01*
X142900Y52801D01*
Y53801D01*
X143400Y54301D01*
X143900D01*
X144399Y53801D01*
X144899Y54301D01*
X145399D01*
X144399Y53801D02*
Y52801D01*
X125199Y55101D02*
X125699Y55601D01*
Y56600D01*
X125199Y57100D01*
X123200D01*
X122700Y56600D01*
Y55601D01*
X123200Y55101D01*
Y54101D02*
X122700Y53601D01*
Y52601D01*
X123200Y52102D01*
X125199D01*
X125699Y52601D01*
Y53601D01*
X125199Y54101D01*
X124699D01*
X124199Y53601D01*
Y52102D01*
X116899Y37901D02*
X117399Y38401D01*
Y39400D01*
X116899Y39900D01*
X114900D01*
X114400Y39400D01*
Y38401D01*
X114900Y37901D01*
X114400Y36901D02*
Y35901D01*
Y36401D01*
X117399D01*
X116899Y36901D01*
X114400Y34402D02*
Y33402D01*
Y33902D01*
X117399D01*
X116899Y34402D01*
X151199Y38699D02*
X150699Y39199D01*
X149700D01*
X149200Y38699D01*
Y36700D01*
X149700Y36200D01*
X150699D01*
X151199Y36700D01*
X152199Y36200D02*
X153199D01*
X152699D01*
Y39199D01*
X152199Y38699D01*
X156698Y36200D02*
X154698D01*
X156698Y38199D01*
Y38699D01*
X156198Y39199D01*
X155198D01*
X154698Y38699D01*
X120399Y57962D02*
X120899Y58462D01*
Y59462D01*
X120399Y59961D01*
X118400D01*
X117900Y59462D01*
Y58462D01*
X118400Y57962D01*
X117900Y56962D02*
Y55963D01*
Y56463D01*
X120899D01*
X120399Y56962D01*
Y54463D02*
X120899Y53963D01*
Y52964D01*
X120399Y52464D01*
X119899D01*
X119399Y52964D01*
Y53464D01*
Y52964D01*
X118900Y52464D01*
X118400D01*
X117900Y52964D01*
Y53963D01*
X118400Y54463D01*
X124999Y28201D02*
X125499Y28701D01*
Y29700D01*
X124999Y30200D01*
X123000D01*
X122500Y29700D01*
Y28701D01*
X123000Y28201D01*
X122500Y27201D02*
Y26201D01*
Y26701D01*
X125499D01*
X124999Y27201D01*
X122500Y23202D02*
X125499D01*
X124000Y24702D01*
Y22702D01*
X174499Y37799D02*
X174000Y38299D01*
X173000D01*
X172500Y37799D01*
Y35800D01*
X173000Y35300D01*
X174000D01*
X174499Y35800D01*
X175499Y35300D02*
X176499D01*
X175999D01*
Y38299D01*
X175499Y37799D01*
X179998Y38299D02*
X177998D01*
Y36799D01*
X178998Y37299D01*
X179498D01*
X179998Y36799D01*
Y35800D01*
X179498Y35300D01*
X178498D01*
X177998Y35800D01*
X113199Y-3599D02*
X113699Y-3100D01*
Y-2100D01*
X113199Y-1600D01*
X111200D01*
X110700Y-2100D01*
Y-3100D01*
X111200Y-3599D01*
X110700Y-4599D02*
Y-5599D01*
Y-5099D01*
X113699D01*
X113199Y-4599D01*
X113699Y-9098D02*
X113199Y-8098D01*
X112199Y-7098D01*
X111200D01*
X110700Y-7598D01*
Y-8598D01*
X111200Y-9098D01*
X111700D01*
X112199Y-8598D01*
Y-7098D01*
X90099Y8399D02*
X89600Y8899D01*
X88600D01*
X88100Y8399D01*
Y6400D01*
X88600Y5900D01*
X89600D01*
X90099Y6400D01*
X91099Y5900D02*
X92099D01*
X91599D01*
Y8899D01*
X91099Y8399D01*
X93598Y8899D02*
X95598D01*
Y8399D01*
X93598Y6400D01*
Y5900D01*
X175899Y24299D02*
X175399Y24799D01*
X174400D01*
X173900Y24299D01*
Y22300D01*
X174400Y21800D01*
X175399D01*
X175899Y22300D01*
X176899Y21800D02*
X177899D01*
X177399D01*
Y24799D01*
X176899Y24299D01*
X179398D02*
X179898Y24799D01*
X180898D01*
X181398Y24299D01*
Y23799D01*
X180898Y23300D01*
X181398Y22800D01*
Y22300D01*
X180898Y21800D01*
X179898D01*
X179398Y22300D01*
Y22800D01*
X179898Y23300D01*
X179398Y23799D01*
Y24299D01*
X179898Y23300D02*
X180898D01*
X127699Y-1901D02*
X127199Y-1401D01*
X126200D01*
X125700Y-1901D01*
Y-3900D01*
X126200Y-4400D01*
X127199D01*
X127699Y-3900D01*
X128699Y-4400D02*
X129699D01*
X129199D01*
Y-1401D01*
X128699Y-1901D01*
X131198Y-3900D02*
X131698Y-4400D01*
X132698D01*
X133198Y-3900D01*
Y-1901D01*
X132698Y-1401D01*
X131698D01*
X131198Y-1901D01*
Y-2401D01*
X131698Y-2901D01*
X133198D01*
X176399Y14199D02*
X175900Y14699D01*
X174900D01*
X174400Y14199D01*
Y12200D01*
X174900Y11700D01*
X175900D01*
X176399Y12200D01*
X179398Y11700D02*
X177399D01*
X179398Y13699D01*
Y14199D01*
X178899Y14699D01*
X177899D01*
X177399Y14199D01*
X180398D02*
X180898Y14699D01*
X181898D01*
X182397Y14199D01*
Y12200D01*
X181898Y11700D01*
X180898D01*
X180398Y12200D01*
Y14199D01*
X192499Y7501D02*
X192999Y8000D01*
Y9000D01*
X192499Y9500D01*
X190500D01*
X190000Y9000D01*
Y8000D01*
X190500Y7501D01*
X190000Y4502D02*
Y6501D01*
X191999Y4502D01*
X192499D01*
X192999Y5001D01*
Y6001D01*
X192499Y6501D01*
X190000Y3502D02*
Y2502D01*
Y3002D01*
X192999D01*
X192499Y3502D01*
X186999Y13699D02*
X186500Y14199D01*
X185500D01*
X185000Y13699D01*
Y11700D01*
X185500Y11200D01*
X186500D01*
X186999Y11700D01*
X189998Y11200D02*
X187999D01*
X189998Y13199D01*
Y13699D01*
X189499Y14199D01*
X188499D01*
X187999Y13699D01*
X190998D02*
X191498Y14199D01*
X192498D01*
X192997Y13699D01*
Y13199D01*
X192498Y12699D01*
X191998D01*
X192498D01*
X192997Y12200D01*
Y11700D01*
X192498Y11200D01*
X191498D01*
X190998Y11700D01*
X107299Y-3699D02*
X107799Y-3199D01*
Y-2200D01*
X107299Y-1700D01*
X105300D01*
X104800Y-2200D01*
Y-3199D01*
X105300Y-3699D01*
X104800Y-6698D02*
Y-4699D01*
X106799Y-6698D01*
X107299D01*
X107799Y-6199D01*
Y-5199D01*
X107299Y-4699D01*
X104800Y-9198D02*
X107799D01*
X106299Y-7698D01*
Y-9697D01*
X118599Y-3899D02*
X119099Y-3399D01*
Y-2400D01*
X118599Y-1900D01*
X116600D01*
X116100Y-2400D01*
Y-3399D01*
X116600Y-3899D01*
X116100Y-6399D02*
X119099D01*
X117599Y-4899D01*
Y-6898D01*
X119099Y-9897D02*
X118599Y-8898D01*
X117599Y-7898D01*
X116600D01*
X116100Y-8398D01*
Y-9398D01*
X116600Y-9897D01*
X117100D01*
X117599Y-9398D01*
Y-7898D01*
X90099Y14099D02*
X89600Y14599D01*
X88600D01*
X88100Y14099D01*
Y12100D01*
X88600Y11600D01*
X89600D01*
X90099Y12100D01*
X91099Y14599D02*
X93098D01*
Y14099D01*
X91099Y12100D01*
Y11600D01*
X96097D02*
X94098D01*
X96097Y13599D01*
Y14099D01*
X95598Y14599D01*
X94598D01*
X94098Y14099D01*
X127699Y-11301D02*
X127199Y-10801D01*
X126200D01*
X125700Y-11301D01*
Y-13300D01*
X126200Y-13800D01*
X127199D01*
X127699Y-13300D01*
X128699Y-10801D02*
X130698D01*
Y-11301D01*
X128699Y-13300D01*
Y-13800D01*
X131698Y-11301D02*
X132198Y-10801D01*
X133198D01*
X133697Y-11301D01*
Y-11801D01*
X133198Y-12301D01*
X132698D01*
X133198D01*
X133697Y-12800D01*
Y-13300D01*
X133198Y-13800D01*
X132198D01*
X131698Y-13300D01*
X148099Y32100D02*
X145100D01*
Y30101D01*
Y29101D02*
Y28101D01*
Y28601D01*
X148099D01*
X147599Y29101D01*
X130599Y37500D02*
X127600D01*
Y35501D01*
Y32502D02*
Y34501D01*
X129599Y32502D01*
X130099D01*
X130599Y33001D01*
Y34001D01*
X130099Y34501D01*
X129399Y29300D02*
X126400D01*
Y27301D01*
X128899Y26301D02*
X129399Y25801D01*
Y24801D01*
X128899Y24302D01*
X128399D01*
X127900Y24801D01*
Y25301D01*
Y24801D01*
X127400Y24302D01*
X126900D01*
X126400Y24801D01*
Y25801D01*
X126900Y26301D01*
X135800Y21999D02*
Y19000D01*
X137799D01*
X140299D02*
Y21999D01*
X138799Y20500D01*
X140798D01*
X186100Y19099D02*
Y16100D01*
X188099D01*
X191098Y19099D02*
X190099Y18599D01*
X189099Y17600D01*
Y16600D01*
X189599Y16100D01*
X190599D01*
X191098Y16600D01*
Y17100D01*
X190599Y17600D01*
X189099D01*
X187799Y8700D02*
X184800D01*
Y6701D01*
X187799Y5701D02*
Y3702D01*
X187299D01*
X185300Y5701D01*
X184800D01*
X174700Y19599D02*
Y16600D01*
X176699D01*
X179698Y19599D02*
X177699D01*
Y18100D01*
X178699Y18599D01*
X179199D01*
X179698Y18100D01*
Y17100D01*
X179199Y16600D01*
X178199D01*
X177699Y17100D01*
X126100Y-6101D02*
Y-9100D01*
X128099D01*
X129099D02*
X130099D01*
X129599D01*
Y-6101D01*
X129099Y-6601D01*
X133598Y-9100D02*
X131598D01*
X133598Y-7101D01*
Y-6601D01*
X133098Y-6101D01*
X132098D01*
X131598Y-6601D01*
X168400Y10000D02*
X171399D01*
Y8501D01*
X170899Y8001D01*
X169899D01*
X169400Y8501D01*
Y10000D01*
Y9000D02*
X168400Y8001D01*
X170899Y7001D02*
X171399Y6501D01*
Y5501D01*
X170899Y5002D01*
X170399D01*
X169899Y5501D01*
X169400Y5002D01*
X168900D01*
X168400Y5501D01*
Y6501D01*
X168900Y7001D01*
X169400D01*
X169899Y6501D01*
X170399Y7001D01*
X170899D01*
X169899Y6501D02*
Y5501D01*
X170899Y4002D02*
X171399Y3502D01*
Y2502D01*
X170899Y2003D01*
X168900D01*
X168400Y2502D01*
Y3502D01*
X168900Y4002D01*
X170899D01*
X68300Y16199D02*
Y13700D01*
X68800Y13200D01*
X69800D01*
X70299Y13700D01*
Y16199D01*
X72799Y13200D02*
Y16199D01*
X71299Y14699D01*
X73298D01*
X170836Y-11498D02*
Y-8499D01*
X169336Y-9998D01*
X171335D01*
X172335Y-8998D02*
X172835Y-8499D01*
X173835D01*
X174334Y-8998D01*
Y-9498D01*
X173835Y-9998D01*
X173335D01*
X173835D01*
X174334Y-10498D01*
Y-10998D01*
X173835Y-11498D01*
X172835D01*
X172335Y-10998D01*
X175334Y-8998D02*
X175834Y-8499D01*
X176834D01*
X177333Y-8998D01*
Y-9498D01*
X176834Y-9998D01*
X176334D01*
X176834D01*
X177333Y-10498D01*
Y-10998D01*
X176834Y-11498D01*
X175834D01*
X175334Y-10998D01*
X178333Y-11498D02*
Y-8499D01*
X179333Y-9498D01*
X180333Y-8499D01*
Y-11498D01*
X181332Y-8499D02*
Y-11498D01*
Y-9998D01*
X183332D01*
Y-8499D01*
Y-11498D01*
X184331Y-9498D02*
X186330D01*
X184331Y-11498D01*
X186330D01*
X109200Y41599D02*
Y41099D01*
X110200Y40099D01*
X111199Y41099D01*
Y41599D01*
X110200Y40099D02*
Y38600D01*
X112199D02*
X113199D01*
X112699D01*
Y41599D01*
X112199Y41099D01*
X174799Y9899D02*
X174300Y10399D01*
X173300D01*
X172800Y9899D01*
Y7900D01*
X173300Y7400D01*
X174300D01*
X174799Y7900D01*
X175799Y10399D02*
X177798D01*
Y9899D01*
X175799Y7900D01*
Y7400D01*
X180298D02*
Y10399D01*
X178798Y8900D01*
X180797D01*
X175099Y5199D02*
X174600Y5699D01*
X173600D01*
X173100Y5199D01*
Y3200D01*
X173600Y2700D01*
X174600D01*
X175099Y3200D01*
X176099Y5199D02*
X176599Y5699D01*
X177599D01*
X178098Y5199D01*
Y4699D01*
X177599Y4200D01*
X178098Y3700D01*
Y3200D01*
X177599Y2700D01*
X176599D01*
X176099Y3200D01*
Y3700D01*
X176599Y4200D01*
X176099Y4699D01*
Y5199D01*
X176599Y4200D02*
X177599D01*
X179098Y5199D02*
X179598Y5699D01*
X180598D01*
X181097Y5199D01*
Y4699D01*
X180598Y4200D01*
X180098D01*
X180598D01*
X181097Y3700D01*
Y3200D01*
X180598Y2700D01*
X179598D01*
X179098Y3200D01*
X61170Y36799D02*
X60670Y37299D01*
X59670D01*
X59170Y36799D01*
Y34800D01*
X59670Y34300D01*
X60670D01*
X61170Y34800D01*
X62169D02*
X62669Y34300D01*
X63669D01*
X64169Y34800D01*
Y36799D01*
X63669Y37299D01*
X62669D01*
X62169Y36799D01*
Y36299D01*
X62669Y35800D01*
X64169D01*
X65168Y34300D02*
X66168D01*
X65668D01*
Y37299D01*
X65168Y36799D01*
X-29500Y68100D02*
X-26501D01*
Y66601D01*
X-27001Y66101D01*
X-28001D01*
X-28500Y66601D01*
Y68100D01*
Y67100D02*
X-29500Y66101D01*
X-26501Y63102D02*
Y65101D01*
X-28001D01*
X-27501Y64101D01*
Y63601D01*
X-28001Y63102D01*
X-29000D01*
X-29500Y63601D01*
Y64601D01*
X-29000Y65101D01*
X-29500Y60103D02*
Y62102D01*
X-27501Y60103D01*
X-27001D01*
X-26501Y60602D01*
Y61602D01*
X-27001Y62102D01*
X-61100Y196699D02*
Y193700D01*
X-59101D01*
X-58101Y194200D02*
X-57601Y193700D01*
X-56601D01*
X-56102Y194200D01*
Y196199D01*
X-56601Y196699D01*
X-57601D01*
X-58101Y196199D01*
Y195699D01*
X-57601Y195200D01*
X-56102D01*
X-91069Y198799D02*
Y195800D01*
X-89569D01*
X-89069Y196300D01*
Y198299D01*
X-89569Y198799D01*
X-91069D01*
X-88069Y196300D02*
X-87570Y195800D01*
X-86570D01*
X-86070Y196300D01*
Y198299D01*
X-86570Y198799D01*
X-87570D01*
X-88069Y198299D01*
Y197799D01*
X-87570Y197300D01*
X-86070D01*
X-109700Y91399D02*
Y88900D01*
X-109200Y88400D01*
X-108201D01*
X-107701Y88900D01*
Y91399D01*
X-106701Y88400D02*
X-105701D01*
X-106201D01*
Y91399D01*
X-106701Y90899D01*
X-104202Y91399D02*
X-102202D01*
Y90899D01*
X-104202Y88900D01*
Y88400D01*
X-33369Y151199D02*
Y148700D01*
X-32869Y148200D01*
X-31869D01*
X-31369Y148700D01*
Y151199D01*
X-30369Y148200D02*
X-29370D01*
X-29870D01*
Y151199D01*
X-30369Y150699D01*
X-27870D02*
X-27370Y151199D01*
X-26371D01*
X-25871Y150699D01*
Y150199D01*
X-26371Y149699D01*
X-26871D01*
X-26371D01*
X-25871Y149200D01*
Y148700D01*
X-26371Y148200D01*
X-27370D01*
X-27870Y148700D01*
X-6601Y204599D02*
X-7101Y205099D01*
X-8100D01*
X-8600Y204599D01*
Y204099D01*
X-8100Y203600D01*
X-7101D01*
X-6601Y203100D01*
Y202600D01*
X-7101Y202100D01*
X-8100D01*
X-8600Y202600D01*
X-5601Y202100D02*
X-4601D01*
X-5101D01*
Y205099D01*
X-5601Y204599D01*
X-29368Y206200D02*
Y209199D01*
X-27869D01*
X-27369Y208699D01*
Y207699D01*
X-27869Y207200D01*
X-29368D01*
X-28369D02*
X-27369Y206200D01*
X-26370Y209199D02*
X-24370D01*
Y208699D01*
X-26370Y206700D01*
Y206200D01*
X-23370Y208699D02*
X-22871Y209199D01*
X-21871D01*
X-21371Y208699D01*
Y208199D01*
X-21871Y207699D01*
X-21371Y207200D01*
Y206700D01*
X-21871Y206200D01*
X-22871D01*
X-23370Y206700D01*
Y207200D01*
X-22871Y207699D01*
X-23370Y208199D01*
Y208699D01*
X-22871Y207699D02*
X-21871D01*
X18548Y147400D02*
Y150399D01*
X20048D01*
X20547Y149899D01*
Y148899D01*
X20048Y148400D01*
X18548D01*
X19548D02*
X20547Y147400D01*
X21547Y150399D02*
X23546D01*
Y149899D01*
X21547Y147900D01*
Y147400D01*
X24546Y150399D02*
X26545D01*
Y149899D01*
X24546Y147900D01*
Y147400D01*
X-91800Y45100D02*
X-88801D01*
Y43600D01*
X-89301Y43101D01*
X-90301D01*
X-90800Y43600D01*
Y45100D01*
Y44100D02*
X-91800Y43101D01*
X-88801Y40102D02*
X-89301Y41101D01*
X-90301Y42101D01*
X-91300D01*
X-91800Y41601D01*
Y40601D01*
X-91300Y40102D01*
X-90800D01*
X-90301Y40601D01*
Y42101D01*
X-88801Y37103D02*
X-89301Y38102D01*
X-90301Y39102D01*
X-91300D01*
X-91800Y38602D01*
Y37602D01*
X-91300Y37103D01*
X-90800D01*
X-90301Y37602D01*
Y39102D01*
X-141500Y57400D02*
Y60399D01*
X-140000D01*
X-139501Y59899D01*
Y58899D01*
X-140000Y58400D01*
X-141500D01*
X-140500D02*
X-139501Y57400D01*
X-136502Y60399D02*
X-137501Y59899D01*
X-138501Y58899D01*
Y57900D01*
X-138001Y57400D01*
X-137001D01*
X-136502Y57900D01*
Y58400D01*
X-137001Y58899D01*
X-138501D01*
X-133503Y60399D02*
X-135502D01*
Y58899D01*
X-134502Y59399D01*
X-134002D01*
X-133503Y58899D01*
Y57900D01*
X-134002Y57400D01*
X-135002D01*
X-135502Y57900D01*
X-141800Y64500D02*
Y67499D01*
X-140301D01*
X-139801Y66999D01*
Y66000D01*
X-140301Y65500D01*
X-141800D01*
X-140800D02*
X-139801Y64500D01*
X-137301D02*
Y67499D01*
X-138801Y66000D01*
X-136802D01*
X-135802Y66999D02*
X-135302Y67499D01*
X-134302D01*
X-133803Y66999D01*
Y66499D01*
X-134302Y66000D01*
X-133803Y65500D01*
Y65000D01*
X-134302Y64500D01*
X-135302D01*
X-135802Y65000D01*
Y65500D01*
X-135302Y66000D01*
X-135802Y66499D01*
Y66999D01*
X-135302Y66000D02*
X-134302D01*
X-85000Y45600D02*
X-82001D01*
Y44100D01*
X-82501Y43601D01*
X-83500D01*
X-84000Y44100D01*
Y45600D01*
Y44600D02*
X-85000Y43601D01*
X-82001Y40602D02*
X-82501Y41601D01*
X-83500Y42601D01*
X-84500D01*
X-85000Y42101D01*
Y41101D01*
X-84500Y40602D01*
X-84000D01*
X-83500Y41101D01*
Y42601D01*
X-82501Y39602D02*
X-82001Y39102D01*
Y38102D01*
X-82501Y37603D01*
X-83001D01*
X-83500Y38102D01*
Y38602D01*
Y38102D01*
X-84000Y37603D01*
X-84500D01*
X-85000Y38102D01*
Y39102D01*
X-84500Y39602D01*
X-78700Y53900D02*
Y56899D01*
X-77201D01*
X-76701Y56399D01*
Y55400D01*
X-77201Y54900D01*
X-78700D01*
X-77700D02*
X-76701Y53900D01*
X-73702Y56899D02*
X-74701Y56399D01*
X-75701Y55400D01*
Y54400D01*
X-75201Y53900D01*
X-74201D01*
X-73702Y54400D01*
Y54900D01*
X-74201Y55400D01*
X-75701D01*
X-72702Y53900D02*
X-71702D01*
X-72202D01*
Y56899D01*
X-72702Y56399D01*
X-142000Y70500D02*
Y73499D01*
X-140500D01*
X-140001Y72999D01*
Y72000D01*
X-140500Y71500D01*
X-142000D01*
X-141000D02*
X-140001Y70500D01*
X-137002Y73499D02*
X-139001D01*
Y72000D01*
X-138001Y72499D01*
X-137501D01*
X-137002Y72000D01*
Y71000D01*
X-137501Y70500D01*
X-138501D01*
X-139001Y71000D01*
X-136002D02*
X-135502Y70500D01*
X-134502D01*
X-134003Y71000D01*
Y72999D01*
X-134502Y73499D01*
X-135502D01*
X-136002Y72999D01*
Y72499D01*
X-135502Y72000D01*
X-134003D01*
X-60600Y60400D02*
Y63399D01*
X-59101D01*
X-58601Y62899D01*
Y61900D01*
X-59101Y61400D01*
X-60600D01*
X-59600D02*
X-58601Y60400D01*
X-55602Y63399D02*
X-57601D01*
Y61900D01*
X-56601Y62399D01*
X-56101D01*
X-55602Y61900D01*
Y60900D01*
X-56101Y60400D01*
X-57101D01*
X-57601Y60900D01*
X-54602Y62899D02*
X-54102Y63399D01*
X-53102D01*
X-52603Y62899D01*
Y62399D01*
X-53102Y61900D01*
X-52603Y61400D01*
Y60900D01*
X-53102Y60400D01*
X-54102D01*
X-54602Y60900D01*
Y61400D01*
X-54102Y61900D01*
X-54602Y62399D01*
Y62899D01*
X-54102Y61900D02*
X-53102D01*
X-76300Y88400D02*
X-73301D01*
Y86901D01*
X-73801Y86401D01*
X-74800D01*
X-75300Y86901D01*
Y88400D01*
Y87400D02*
X-76300Y86401D01*
X-73301Y83402D02*
Y85401D01*
X-74800D01*
X-74301Y84401D01*
Y83901D01*
X-74800Y83402D01*
X-75800D01*
X-76300Y83901D01*
Y84901D01*
X-75800Y85401D01*
X-73301Y80403D02*
Y82402D01*
X-74800D01*
X-74301Y81402D01*
Y80902D01*
X-74800Y80403D01*
X-75800D01*
X-76300Y80902D01*
Y81902D01*
X-75800Y82402D01*
X12199Y164500D02*
Y166499D01*
X11699Y166999D01*
X10700D01*
X10200Y166499D01*
Y164500D01*
X10700Y164000D01*
X11699D01*
X11200Y165000D02*
X12199Y164000D01*
X11699D02*
X12199Y164500D01*
X15198Y164000D02*
X13199D01*
X15198Y165999D01*
Y166499D01*
X14699Y166999D01*
X13699D01*
X13199Y166499D01*
X-166368Y119200D02*
Y122199D01*
X-164869D01*
X-164369Y121699D01*
Y120700D01*
X-164869Y120200D01*
X-166368D01*
X-161370Y119200D02*
X-163370D01*
X-161370Y121199D01*
Y121699D01*
X-161870Y122199D01*
X-162870D01*
X-163370Y121699D01*
X-21369Y189200D02*
Y192199D01*
X-19869D01*
X-19369Y191699D01*
Y190700D01*
X-19869Y190200D01*
X-21369D01*
X-18370Y189200D02*
X-17370D01*
X-17870D01*
Y192199D01*
X-18370Y191699D01*
X-112901Y62299D02*
X-113400Y62799D01*
X-114400D01*
X-114900Y62299D01*
Y60300D01*
X-114400Y59800D01*
X-113400D01*
X-112901Y60300D01*
X-111901Y62299D02*
X-111401Y62799D01*
X-110401D01*
X-109902Y62299D01*
Y61799D01*
X-110401Y61300D01*
X-109902Y60800D01*
Y60300D01*
X-110401Y59800D01*
X-111401D01*
X-111901Y60300D01*
Y60800D01*
X-111401Y61300D01*
X-111901Y61799D01*
Y62299D01*
X-111401Y61300D02*
X-110401D01*
X-108902Y62299D02*
X-108402Y62799D01*
X-107402D01*
X-106903Y62299D01*
Y61799D01*
X-107402Y61300D01*
X-106903Y60800D01*
Y60300D01*
X-107402Y59800D01*
X-108402D01*
X-108902Y60300D01*
Y60800D01*
X-108402Y61300D01*
X-108902Y61799D01*
Y62299D01*
X-108402Y61300D02*
X-107402D01*
X-76801Y51699D02*
X-77301Y52199D01*
X-78300D01*
X-78800Y51699D01*
Y49700D01*
X-78300Y49200D01*
X-77301D01*
X-76801Y49700D01*
X-75801Y51699D02*
X-75301Y52199D01*
X-74301D01*
X-73802Y51699D01*
Y51199D01*
X-74301Y50700D01*
X-73802Y50200D01*
Y49700D01*
X-74301Y49200D01*
X-75301D01*
X-75801Y49700D01*
Y50200D01*
X-75301Y50700D01*
X-75801Y51199D01*
Y51699D01*
X-75301Y50700D02*
X-74301D01*
X-72802Y52199D02*
X-70803D01*
Y51699D01*
X-72802Y49700D01*
Y49200D01*
X-61601Y85901D02*
X-61101Y86401D01*
Y87400D01*
X-61601Y87900D01*
X-63600D01*
X-64100Y87400D01*
Y86401D01*
X-63600Y85901D01*
X-61601Y84901D02*
X-61101Y84401D01*
Y83401D01*
X-61601Y82902D01*
X-62101D01*
X-62600Y83401D01*
X-63100Y82902D01*
X-63600D01*
X-64100Y83401D01*
Y84401D01*
X-63600Y84901D01*
X-63100D01*
X-62600Y84401D01*
X-62101Y84901D01*
X-61601D01*
X-62600Y84401D02*
Y83401D01*
X-64100Y79903D02*
Y81902D01*
X-62101Y79903D01*
X-61601D01*
X-61101Y80402D01*
Y81402D01*
X-61601Y81902D01*
X-67601Y85601D02*
X-67101Y86101D01*
Y87100D01*
X-67601Y87600D01*
X-69600D01*
X-70100Y87100D01*
Y86101D01*
X-69600Y85601D01*
X-67601Y84601D02*
X-67101Y84101D01*
Y83101D01*
X-67601Y82602D01*
X-68101D01*
X-68600Y83101D01*
X-69100Y82602D01*
X-69600D01*
X-70100Y83101D01*
Y84101D01*
X-69600Y84601D01*
X-69100D01*
X-68600Y84101D01*
X-68101Y84601D01*
X-67601D01*
X-68600Y84101D02*
Y83101D01*
X-70100Y81602D02*
Y80602D01*
Y81102D01*
X-67101D01*
X-67601Y81602D01*
X-34269Y208599D02*
X-34769Y209099D01*
X-35769D01*
X-36268Y208599D01*
Y206600D01*
X-35769Y206100D01*
X-34769D01*
X-34269Y206600D01*
X-33270Y206100D02*
X-32270D01*
X-32770D01*
Y209099D01*
X-33270Y208599D01*
X1299Y155099D02*
X800Y155599D01*
X-200D01*
X-700Y155099D01*
Y154599D01*
X-200Y154100D01*
X800D01*
X1299Y153600D01*
Y153100D01*
X800Y152600D01*
X-200D01*
X-700Y153100D01*
X2299Y152100D02*
X4298D01*
X5298Y152600D02*
Y155599D01*
X6798D01*
X7297Y155099D01*
Y154100D01*
X6798Y153600D01*
X5298D01*
X6298D02*
X7297Y152600D01*
X8297Y155599D02*
X10296Y152600D01*
Y155599D02*
X8297Y152600D01*
X-1240Y160199D02*
X-1740Y160699D01*
X-2739D01*
X-3239Y160199D01*
Y159699D01*
X-2739Y159200D01*
X-1740D01*
X-1240Y158700D01*
Y158200D01*
X-1740Y157700D01*
X-2739D01*
X-3239Y158200D01*
X-240Y157200D02*
X1759D01*
X2759Y160699D02*
X4758D01*
X3759D01*
Y157700D01*
X5758Y160699D02*
X7757Y157700D01*
Y160699D02*
X5758Y157700D01*
X-75769Y24199D02*
X-76269Y24699D01*
X-77269D01*
X-77768Y24199D01*
Y22200D01*
X-77269Y21700D01*
X-76269D01*
X-75769Y22200D01*
X-73270Y21700D02*
Y24699D01*
X-74770Y23200D01*
X-72770D01*
X-71770Y21700D02*
X-70771D01*
X-71271D01*
Y24699D01*
X-71770Y24199D01*
X-90169Y23999D02*
X-90669Y24499D01*
X-91669D01*
X-92168Y23999D01*
Y22000D01*
X-91669Y21500D01*
X-90669D01*
X-90169Y22000D01*
X-87670Y21500D02*
Y24499D01*
X-89170Y22999D01*
X-87170D01*
X-86170Y23999D02*
X-85671Y24499D01*
X-84671D01*
X-84171Y23999D01*
Y22000D01*
X-84671Y21500D01*
X-85671D01*
X-86170Y22000D01*
Y23999D01*
X3600Y20499D02*
Y17500D01*
X5099D01*
X5599Y18000D01*
Y19999D01*
X5099Y20499D01*
X3600D01*
X6599Y17500D02*
X7599D01*
X7099D01*
Y20499D01*
X6599Y19999D01*
X9098Y17500D02*
X10098D01*
X9598D01*
Y20499D01*
X9098Y19999D01*
X-26400Y-11601D02*
Y-14100D01*
X-25900Y-14600D01*
X-24901D01*
X-24401Y-14100D01*
Y-11601D01*
X-21402Y-14600D02*
X-23401D01*
X-21402Y-12601D01*
Y-12101D01*
X-21901Y-11601D01*
X-22901D01*
X-23401Y-12101D01*
X-20402Y-14600D02*
X-19402D01*
X-19902D01*
Y-11601D01*
X-20402Y-12101D01*
X-24169Y35400D02*
Y38399D01*
X-22669D01*
X-22169Y37899D01*
Y36900D01*
X-22669Y36400D01*
X-24169D01*
X-23169D02*
X-22169Y35400D01*
X-21170Y38399D02*
X-19170D01*
Y37899D01*
X-21170Y35900D01*
Y35400D01*
X-18170D02*
X-17171D01*
X-17671D01*
Y38399D01*
X-18170Y37899D01*
X-31069Y20700D02*
Y22699D01*
X-31569Y23199D01*
X-32569D01*
X-33068Y22699D01*
Y20700D01*
X-32569Y20200D01*
X-31569D01*
X-32069Y21200D02*
X-31069Y20200D01*
X-31569D02*
X-31069Y20700D01*
X-28070Y23199D02*
X-30070D01*
Y21700D01*
X-29070Y22199D01*
X-28570D01*
X-28070Y21700D01*
Y20700D01*
X-28570Y20200D01*
X-29570D01*
X-30070Y20700D01*
X-69000Y-14200D02*
Y-12201D01*
X-68000Y-11201D01*
X-67001Y-12201D01*
Y-14200D01*
Y-12700D01*
X-69000D01*
X-64002Y-11701D02*
X-64501Y-11201D01*
X-65501D01*
X-66001Y-11701D01*
Y-13700D01*
X-65501Y-14200D01*
X-64501D01*
X-64002Y-13700D01*
X-63002Y-14200D02*
Y-11201D01*
X-61502D01*
X-61003Y-11701D01*
Y-12700D01*
X-61502Y-13200D01*
X-63002D01*
X-60003Y-14200D02*
Y-11201D01*
X-58503D01*
X-58004Y-11701D01*
Y-12700D01*
X-58503Y-13200D01*
X-60003D01*
X-59003D02*
X-58004Y-14200D01*
X-53701Y-11401D02*
X-54201Y-10901D01*
X-55200D01*
X-55700Y-11401D01*
Y-13400D01*
X-55200Y-13900D01*
X-54201D01*
X-53701Y-13400D01*
X-52701Y-10901D02*
Y-13900D01*
Y-12400D01*
X-50702D01*
Y-10901D01*
Y-13900D01*
X-47703Y-11401D02*
X-48202Y-10901D01*
X-49202D01*
X-49702Y-11401D01*
Y-13400D01*
X-49202Y-13900D01*
X-48202D01*
X-47703Y-13400D01*
Y-12400D01*
X-48702D01*
X-63468Y42399D02*
Y39400D01*
X-61469D01*
X-60470D02*
X-59470D01*
X-59970D01*
Y42399D01*
X-60470Y41899D01*
X-57970Y42399D02*
X-55971D01*
Y41899D01*
X-57970Y39900D01*
Y39400D01*
X-47269Y999D02*
X-47769Y1499D01*
X-48769D01*
X-49268Y999D01*
Y-1000D01*
X-48769Y-1500D01*
X-47769D01*
X-47269Y-1000D01*
X-46270Y-1500D02*
X-45270D01*
X-45770D01*
Y1499D01*
X-46270Y999D01*
X-43770D02*
X-43270Y1499D01*
X-42271D01*
X-41771Y999D01*
Y-1000D01*
X-42271Y-1500D01*
X-43270D01*
X-43770Y-1000D01*
Y999D01*
X-40771Y1499D02*
X-38772D01*
Y999D01*
X-40771Y-1000D01*
Y-1500D01*
X-7201Y1201D02*
X-6701Y1701D01*
Y2700D01*
X-7201Y3200D01*
X-9200D01*
X-9700Y2700D01*
Y1701D01*
X-9200Y1201D01*
X-9700Y201D02*
Y-799D01*
Y-299D01*
X-6701D01*
X-7201Y201D01*
Y-2298D02*
X-6701Y-2798D01*
Y-3798D01*
X-7201Y-4298D01*
X-9200D01*
X-9700Y-3798D01*
Y-2798D01*
X-9200Y-2298D01*
X-7201D01*
X-6701Y-7297D02*
X-7201Y-6297D01*
X-8201Y-5297D01*
X-9200D01*
X-9700Y-5797D01*
Y-6797D01*
X-9200Y-7297D01*
X-8700D01*
X-8201Y-6797D01*
Y-5297D01*
X-13269Y18799D02*
X-13769Y19299D01*
X-14769D01*
X-15269Y18799D01*
Y16800D01*
X-14769Y16300D01*
X-13769D01*
X-13269Y16800D01*
X-12269Y16300D02*
X-11270D01*
X-11770D01*
Y19299D01*
X-12269Y18799D01*
X-9770D02*
X-9270Y19299D01*
X-8271D01*
X-7771Y18799D01*
Y16800D01*
X-8271Y16300D01*
X-9270D01*
X-9770Y16800D01*
Y18799D01*
X-4772Y19299D02*
X-6771D01*
Y17799D01*
X-5772Y18299D01*
X-5272D01*
X-4772Y17799D01*
Y16800D01*
X-5272Y16300D01*
X-6271D01*
X-6771Y16800D01*
X-59600Y144700D02*
X-56601D01*
Y143201D01*
X-57101Y142701D01*
X-58100D01*
X-58600Y143201D01*
Y144700D01*
Y143700D02*
X-59600Y142701D01*
Y141701D02*
Y140701D01*
Y141201D01*
X-56601D01*
X-57101Y141701D01*
X-59600Y139202D02*
Y138202D01*
Y138702D01*
X-56601D01*
X-57101Y139202D01*
Y136703D02*
X-56601Y136203D01*
Y135203D01*
X-57101Y134703D01*
X-57601D01*
X-58100Y135203D01*
X-58600Y134703D01*
X-59100D01*
X-59600Y135203D01*
Y136203D01*
X-59100Y136703D01*
X-58600D01*
X-58100Y136203D01*
X-57601Y136703D01*
X-57101D01*
X-58100Y136203D02*
Y135203D01*
X-83100Y179499D02*
Y177000D01*
X-82600Y176500D01*
X-81600D01*
X-81101Y177000D01*
Y179499D01*
X-78102D02*
X-79101Y178999D01*
X-80101Y177999D01*
Y177000D01*
X-79601Y176500D01*
X-78601D01*
X-78102Y177000D01*
Y177500D01*
X-78601Y177999D01*
X-80101D01*
X-33900Y162100D02*
X-30901D01*
Y160600D01*
X-31401Y160101D01*
X-32401D01*
X-32900Y160600D01*
Y162100D01*
Y161100D02*
X-33900Y160101D01*
X-30901Y157102D02*
X-31401Y158101D01*
X-32401Y159101D01*
X-33400D01*
X-33900Y158601D01*
Y157601D01*
X-33400Y157102D01*
X-32900D01*
X-32401Y157601D01*
Y159101D01*
X-33900Y154602D02*
X-30901D01*
X-32401Y156102D01*
Y154103D01*
X-24600Y162300D02*
X-21601D01*
Y160801D01*
X-22101Y160301D01*
X-23100D01*
X-23600Y160801D01*
Y162300D01*
Y161300D02*
X-24600Y160301D01*
Y157801D02*
X-21601D01*
X-23100Y159301D01*
Y157302D01*
X-21601Y156302D02*
Y154303D01*
X-22101D01*
X-24100Y156302D01*
X-24600D01*
X-106800Y143300D02*
Y146299D01*
X-105300D01*
X-104801Y145799D01*
Y144799D01*
X-105300Y144300D01*
X-106800D01*
X-105800D02*
X-104801Y143300D01*
X-102301D02*
Y146299D01*
X-103801Y144799D01*
X-101802D01*
X-98803Y146299D02*
X-99802Y145799D01*
X-100802Y144799D01*
Y143800D01*
X-100302Y143300D01*
X-99302D01*
X-98803Y143800D01*
Y144300D01*
X-99302Y144799D01*
X-100802D01*
X-114200Y162900D02*
X-111201D01*
Y161400D01*
X-111701Y160901D01*
X-112700D01*
X-113200Y161400D01*
Y162900D01*
Y161900D02*
X-114200Y160901D01*
Y158401D02*
X-111201D01*
X-112700Y159901D01*
Y157902D01*
X-111201Y154903D02*
Y156902D01*
X-112700D01*
X-112201Y155902D01*
Y155402D01*
X-112700Y154903D01*
X-113700D01*
X-114200Y155402D01*
Y156402D01*
X-113700Y156902D01*
X-97475Y164845D02*
X-94476D01*
Y163346D01*
X-94976Y162846D01*
X-95976D01*
X-96476Y163346D01*
Y164845D01*
Y163845D02*
X-97475Y162846D01*
Y160346D02*
X-94476D01*
X-95976Y161846D01*
Y159847D01*
X-97475Y157348D02*
X-94476D01*
X-95976Y158847D01*
Y156848D01*
X-29400Y162300D02*
X-26401D01*
Y160801D01*
X-26901Y160301D01*
X-27900D01*
X-28400Y160801D01*
Y162300D01*
Y161300D02*
X-29400Y160301D01*
Y157801D02*
X-26401D01*
X-27900Y159301D01*
Y157302D01*
X-29400Y154303D02*
Y156302D01*
X-27401Y154303D01*
X-26901D01*
X-26401Y154802D01*
Y155802D01*
X-26901Y156302D01*
X-17201Y160401D02*
X-16701Y160900D01*
Y161900D01*
X-17201Y162400D01*
X-19200D01*
X-19700Y161900D01*
Y160900D01*
X-19200Y160401D01*
X-16701Y159401D02*
Y157402D01*
X-17201D01*
X-19200Y159401D01*
X-19700D01*
Y156402D02*
Y155402D01*
Y155902D01*
X-16701D01*
X-17201Y156402D01*
X-34601Y167799D02*
X-35100Y168299D01*
X-36100D01*
X-36600Y167799D01*
Y165800D01*
X-36100Y165300D01*
X-35100D01*
X-34601Y165800D01*
X-33601Y168299D02*
X-31602D01*
Y167799D01*
X-33601Y165800D01*
Y165300D01*
X-30602Y167799D02*
X-30102Y168299D01*
X-29102D01*
X-28603Y167799D01*
Y165800D01*
X-29102Y165300D01*
X-30102D01*
X-30602Y165800D01*
Y167799D01*
X-100201Y189701D02*
X-99701Y190200D01*
Y191200D01*
X-100201Y191700D01*
X-102200D01*
X-102700Y191200D01*
Y190200D01*
X-102200Y189701D01*
X-100201Y188701D02*
X-99701Y188201D01*
Y187201D01*
X-100201Y186702D01*
X-100701D01*
X-101200Y187201D01*
Y187701D01*
Y187201D01*
X-101700Y186702D01*
X-102200D01*
X-102700Y187201D01*
Y188201D01*
X-102200Y188701D01*
X-99701Y185702D02*
Y183703D01*
X-100201D01*
X-102200Y185702D01*
X-102700D01*
X-40700Y120599D02*
Y120099D01*
X-39700Y119099D01*
X-38701Y120099D01*
Y120599D01*
X-39700Y119099D02*
Y117600D01*
X-37701Y120099D02*
X-37201Y120599D01*
X-36201D01*
X-35702Y120099D01*
Y119599D01*
X-36201Y119099D01*
X-36701D01*
X-36201D01*
X-35702Y118600D01*
Y118100D01*
X-36201Y117600D01*
X-37201D01*
X-37701Y118100D01*
X-109000Y102199D02*
Y99700D01*
X-108500Y99200D01*
X-107501D01*
X-107001Y99700D01*
Y102199D01*
X-106001Y101699D02*
X-105501Y102199D01*
X-104501D01*
X-104002Y101699D01*
Y101199D01*
X-104501Y100699D01*
X-105001D01*
X-104501D01*
X-104002Y100200D01*
Y99700D01*
X-104501Y99200D01*
X-105501D01*
X-106001Y99700D01*
X-103002Y101699D02*
X-102502Y102199D01*
X-101502D01*
X-101003Y101699D01*
Y99700D01*
X-101502Y99200D01*
X-102502D01*
X-103002Y99700D01*
Y101699D01*
X-64400Y144200D02*
X-61401D01*
Y142701D01*
X-61901Y142201D01*
X-62901D01*
X-63400Y142701D01*
Y144200D01*
Y143200D02*
X-64400Y142201D01*
X-61401Y139202D02*
X-61901Y140201D01*
X-62901Y141201D01*
X-63900D01*
X-64400Y140701D01*
Y139701D01*
X-63900Y139202D01*
X-63400D01*
X-62901Y139701D01*
Y141201D01*
X-63900Y138202D02*
X-64400Y137702D01*
Y136702D01*
X-63900Y136203D01*
X-61901D01*
X-61401Y136702D01*
Y137702D01*
X-61901Y138202D01*
X-62401D01*
X-62901Y137702D01*
Y136203D01*
X-128800Y115000D02*
X-125801D01*
Y113500D01*
X-126301Y113001D01*
X-127301D01*
X-127800Y113500D01*
Y115000D01*
Y114000D02*
X-128800Y113001D01*
Y110501D02*
X-125801D01*
X-127301Y112001D01*
Y110002D01*
X-126301Y109002D02*
X-125801Y108502D01*
Y107502D01*
X-126301Y107003D01*
X-126801D01*
X-127301Y107502D01*
Y108002D01*
Y107502D01*
X-127800Y107003D01*
X-128300D01*
X-128800Y107502D01*
Y108502D01*
X-128300Y109002D01*
X-50400Y79900D02*
Y82899D01*
X-48900D01*
X-48401Y82399D01*
Y81400D01*
X-48900Y80900D01*
X-50400D01*
X-49400D02*
X-48401Y79900D01*
X-45402Y82899D02*
X-46401Y82399D01*
X-47401Y81400D01*
Y80400D01*
X-46901Y79900D01*
X-45901D01*
X-45402Y80400D01*
Y80900D01*
X-45901Y81400D01*
X-47401D01*
X-128000Y103100D02*
Y106099D01*
X-126500D01*
X-126001Y105599D01*
Y104599D01*
X-126500Y104100D01*
X-128000D01*
X-127000D02*
X-126001Y103100D01*
X-125001D02*
X-124001D01*
X-124501D01*
Y106099D01*
X-125001Y105599D01*
X-93500Y114401D02*
X-91501D01*
X-91001Y114901D01*
Y115900D01*
X-91501Y116400D01*
X-93500D01*
X-94000Y115900D01*
Y114901D01*
X-93000Y115400D02*
X-94000Y114401D01*
Y114901D02*
X-93500Y114401D01*
X-94000Y113401D02*
Y112401D01*
Y112901D01*
X-91001D01*
X-91501Y113401D01*
X-96700Y95499D02*
Y92500D01*
X-94701D01*
X-93701D02*
X-92701D01*
X-93201D01*
Y95499D01*
X-93701Y94999D01*
X-91202Y92500D02*
X-90202D01*
X-90702D01*
Y95499D01*
X-91202Y94999D01*
X-113268Y132799D02*
Y129800D01*
X-111769D01*
X-111269Y130300D01*
Y132299D01*
X-111769Y132799D01*
X-113268D01*
X-110269Y129800D02*
X-109270D01*
X-109770D01*
Y132799D01*
X-110269Y132299D01*
X-105771Y129800D02*
X-107770D01*
X-105771Y131799D01*
Y132299D01*
X-106271Y132799D01*
X-107270D01*
X-107770Y132299D01*
X-53001Y143001D02*
X-52501Y143500D01*
Y144500D01*
X-53001Y145000D01*
X-55000D01*
X-55500Y144500D01*
Y143500D01*
X-55000Y143001D01*
X-55500Y142001D02*
Y141001D01*
Y141501D01*
X-52501D01*
X-53001Y142001D01*
X-52501Y137502D02*
X-53001Y138502D01*
X-54001Y139502D01*
X-55000D01*
X-55500Y139002D01*
Y138002D01*
X-55000Y137502D01*
X-54500D01*
X-54001Y138002D01*
Y139502D01*
X-55500Y134503D02*
Y136503D01*
X-53501Y134503D01*
X-53001D01*
X-52501Y135003D01*
Y136003D01*
X-53001Y136503D01*
X-121601Y102399D02*
X-122100Y102899D01*
X-123100D01*
X-123600Y102399D01*
Y100400D01*
X-123100Y99900D01*
X-122100D01*
X-121601Y100400D01*
X-120601Y99900D02*
X-119601D01*
X-120101D01*
Y102899D01*
X-120601Y102399D01*
X-116102Y102899D02*
X-117102Y102399D01*
X-118102Y101400D01*
Y100400D01*
X-117602Y99900D01*
X-116602D01*
X-116102Y100400D01*
Y100900D01*
X-116602Y101400D01*
X-118102D01*
X-115103Y99900D02*
X-114103D01*
X-114603D01*
Y102899D01*
X-115103Y102399D01*
X-64301Y128301D02*
X-63801Y128800D01*
Y129800D01*
X-64301Y130300D01*
X-66300D01*
X-66800Y129800D01*
Y128800D01*
X-66300Y128301D01*
X-66800Y127301D02*
Y126301D01*
Y126801D01*
X-63801D01*
X-64301Y127301D01*
X-63801Y122802D02*
X-64301Y123802D01*
X-65301Y124802D01*
X-66300D01*
X-66800Y124302D01*
Y123302D01*
X-66300Y122802D01*
X-65800D01*
X-65301Y123302D01*
Y124802D01*
X-64301Y121803D02*
X-63801Y121303D01*
Y120303D01*
X-64301Y119803D01*
X-66300D01*
X-66800Y120303D01*
Y121303D01*
X-66300Y121803D01*
X-64301D01*
X-139901Y83799D02*
X-140401Y84299D01*
X-141400D01*
X-141900Y83799D01*
Y81800D01*
X-141400Y81300D01*
X-140401D01*
X-139901Y81800D01*
X-138901Y83799D02*
X-138401Y84299D01*
X-137401D01*
X-136902Y83799D01*
Y83299D01*
X-137401Y82800D01*
X-136902Y82300D01*
Y81800D01*
X-137401Y81300D01*
X-138401D01*
X-138901Y81800D01*
Y82300D01*
X-138401Y82800D01*
X-138901Y83299D01*
Y83799D01*
X-138401Y82800D02*
X-137401D01*
X-133903Y84299D02*
X-134902Y83799D01*
X-135902Y82800D01*
Y81800D01*
X-135402Y81300D01*
X-134402D01*
X-133903Y81800D01*
Y82300D01*
X-134402Y82800D01*
X-135902D01*
X-138701Y89599D02*
X-139200Y90099D01*
X-140200D01*
X-140700Y89599D01*
Y87600D01*
X-140200Y87100D01*
X-139200D01*
X-138701Y87600D01*
X-137701Y89599D02*
X-137201Y90099D01*
X-136201D01*
X-135702Y89599D01*
Y89099D01*
X-136201Y88599D01*
X-135702Y88100D01*
Y87600D01*
X-136201Y87100D01*
X-137201D01*
X-137701Y87600D01*
Y88100D01*
X-137201Y88599D01*
X-137701Y89099D01*
Y89599D01*
X-137201Y88599D02*
X-136201D01*
X-133202Y87100D02*
Y90099D01*
X-134702Y88599D01*
X-132703D01*
X-61401Y100799D02*
X-61901Y101299D01*
X-62900D01*
X-63400Y100799D01*
Y98800D01*
X-62900Y98300D01*
X-61901D01*
X-61401Y98800D01*
X-58402Y101299D02*
X-59401Y100799D01*
X-60401Y99800D01*
Y98800D01*
X-59901Y98300D01*
X-58901D01*
X-58402Y98800D01*
Y99300D01*
X-58901Y99800D01*
X-60401D01*
X-57402Y100799D02*
X-56902Y101299D01*
X-55902D01*
X-55403Y100799D01*
Y98800D01*
X-55902Y98300D01*
X-56902D01*
X-57402Y98800D01*
Y100799D01*
X-61601Y93399D02*
X-62100Y93899D01*
X-63100D01*
X-63600Y93399D01*
Y91400D01*
X-63100Y90900D01*
X-62100D01*
X-61601Y91400D01*
X-58602Y93899D02*
X-60601D01*
Y92400D01*
X-59601Y92899D01*
X-59101D01*
X-58602Y92400D01*
Y91400D01*
X-59101Y90900D01*
X-60101D01*
X-60601Y91400D01*
X-57602D02*
X-57102Y90900D01*
X-56102D01*
X-55603Y91400D01*
Y93399D01*
X-56102Y93899D01*
X-57102D01*
X-57602Y93399D01*
Y92899D01*
X-57102Y92400D01*
X-55603D01*
X-52369Y132599D02*
X-52869Y133099D01*
X-53869D01*
X-54369Y132599D01*
Y130600D01*
X-53869Y130100D01*
X-52869D01*
X-52369Y130600D01*
X-49370Y133099D02*
X-51370D01*
Y131599D01*
X-50370Y132099D01*
X-49870D01*
X-49370Y131599D01*
Y130600D01*
X-49870Y130100D01*
X-50870D01*
X-51370Y130600D01*
X-48370Y132599D02*
X-47871Y133099D01*
X-46871D01*
X-46371Y132599D01*
Y132099D01*
X-46871Y131599D01*
X-46371Y131100D01*
Y130600D01*
X-46871Y130100D01*
X-47871D01*
X-48370Y130600D01*
Y131100D01*
X-47871Y131599D01*
X-48370Y132099D01*
Y132599D01*
X-47871Y131599D02*
X-46871D01*
X-140000Y91900D02*
Y94899D01*
X-138500D01*
X-138001Y94399D01*
Y93400D01*
X-138500Y92900D01*
X-140000D01*
X-139000D02*
X-138001Y91900D01*
X-137001Y94899D02*
X-135002D01*
Y94399D01*
X-137001Y92400D01*
Y91900D01*
X-139500Y121000D02*
Y123999D01*
X-138001D01*
X-137501Y123499D01*
Y122500D01*
X-138001Y122000D01*
X-139500D01*
X-138500D02*
X-137501Y121000D01*
X-135001D02*
Y123999D01*
X-136501Y122500D01*
X-134502D01*
X-133502Y121000D02*
X-132502D01*
X-133002D01*
Y123999D01*
X-133502Y123499D01*
X-6201Y55299D02*
X-8200D01*
Y53799D01*
X-7200D01*
X-8200D01*
Y52300D01*
X-5201Y55299D02*
Y52300D01*
X-3202D01*
X-2202D02*
Y54299D01*
X-1202Y55299D01*
X-203Y54299D01*
Y52300D01*
Y53799D01*
X-2202D01*
X2796Y54799D02*
X2297Y55299D01*
X1297D01*
X797Y54799D01*
Y54299D01*
X1297Y53799D01*
X2297D01*
X2796Y53300D01*
Y52800D01*
X2297Y52300D01*
X1297D01*
X797Y52800D01*
X3796Y55299D02*
Y52300D01*
Y53799D01*
X5796D01*
Y55299D01*
Y52300D01*
X6795Y51800D02*
X8794D01*
X11794Y54799D02*
X11294Y55299D01*
X10294D01*
X9794Y54799D01*
Y54299D01*
X10294Y53799D01*
X11294D01*
X11794Y53300D01*
Y52800D01*
X11294Y52300D01*
X10294D01*
X9794Y52800D01*
X14793Y54799D02*
X14293Y55299D01*
X13293D01*
X12793Y54799D01*
Y52800D01*
X13293Y52300D01*
X14293D01*
X14793Y52800D01*
X15792Y55299D02*
Y52300D01*
X17792D01*
X18791Y55299D02*
Y52300D01*
Y53300D01*
X20791Y55299D01*
X19291Y53799D01*
X20791Y52300D01*
X-3990Y63035D02*
X-5989D01*
Y61535D01*
X-4989D01*
X-5989D01*
Y60036D01*
X-2990Y63035D02*
Y60036D01*
X-991D01*
X9D02*
Y62035D01*
X1009Y63035D01*
X2008Y62035D01*
Y60036D01*
Y61535D01*
X9D01*
X5007Y62535D02*
X4508Y63035D01*
X3508D01*
X3008Y62535D01*
Y62035D01*
X3508Y61535D01*
X4508D01*
X5007Y61035D01*
Y60536D01*
X4508Y60036D01*
X3508D01*
X3008Y60536D01*
X6007Y63035D02*
Y60036D01*
Y61535D01*
X8006D01*
Y63035D01*
Y60036D01*
X9006Y59536D02*
X11005D01*
X14005Y62535D02*
X13505Y63035D01*
X12505D01*
X12005Y62535D01*
Y62035D01*
X12505Y61535D01*
X13505D01*
X14005Y61035D01*
Y60536D01*
X13505Y60036D01*
X12505D01*
X12005Y60536D01*
X15004Y63035D02*
Y60036D01*
X16504D01*
X17004Y60536D01*
Y62535D01*
X16504Y63035D01*
X15004D01*
X19503D02*
X18503D01*
X18003Y62535D01*
Y60536D01*
X18503Y60036D01*
X19503D01*
X20003Y60536D01*
Y62535D01*
X19503Y63035D01*
X184699Y67500D02*
Y70499D01*
X183200Y68999D01*
X185199D01*
X186199Y69999D02*
X186699Y70499D01*
X187699D01*
X188198Y69999D01*
Y69499D01*
X187699Y68999D01*
X187199D01*
X187699D01*
X188198Y68500D01*
Y68000D01*
X187699Y67500D01*
X186699D01*
X186199Y68000D01*
X189198Y69999D02*
X189698Y70499D01*
X190698D01*
X191197Y69999D01*
Y69499D01*
X190698Y68999D01*
X190198D01*
X190698D01*
X191197Y68500D01*
Y68000D01*
X190698Y67500D01*
X189698D01*
X189198Y68000D01*
X192599Y51400D02*
Y54399D01*
X191100Y52899D01*
X193099D01*
X196098Y53899D02*
X195599Y54399D01*
X194599D01*
X194099Y53899D01*
Y51900D01*
X194599Y51400D01*
X195599D01*
X196098Y51900D01*
Y52899D01*
X195099D01*
X189699Y37099D02*
X189199Y37599D01*
X188200D01*
X187700Y37099D01*
Y35100D01*
X188200Y34600D01*
X189199D01*
X189699Y35100D01*
Y36099D01*
X188700D01*
X190699Y34600D02*
Y37599D01*
X192199D01*
X192698Y37099D01*
Y36099D01*
X192199Y35600D01*
X190699D01*
X195697Y37099D02*
X195198Y37599D01*
X194198D01*
X193698Y37099D01*
Y36599D01*
X194198Y36099D01*
X195198D01*
X195697Y35600D01*
Y35100D01*
X195198Y34600D01*
X194198D01*
X193698Y35100D01*
X188500Y22100D02*
Y25099D01*
X189999D01*
X190499Y24599D01*
Y23599D01*
X189999Y23100D01*
X188500D01*
X191499Y25099D02*
Y22100D01*
X192499Y23100D01*
X193498Y22100D01*
Y25099D01*
X194498Y22100D02*
Y25099D01*
X195998D01*
X196497Y24599D01*
Y23599D01*
X195998Y23100D01*
X194498D01*
X195498D02*
X196497Y22100D01*
X191545Y-826D02*
Y-3824D01*
X193045D01*
X193544Y-3325D01*
Y-2825D01*
X193045Y-2325D01*
X191545D01*
X193045D01*
X193544Y-1825D01*
Y-1325D01*
X193045Y-826D01*
X191545D01*
X194544Y-3824D02*
Y-1825D01*
X195544Y-826D01*
X196543Y-1825D01*
Y-3824D01*
Y-2325D01*
X194544D01*
X199542Y-1325D02*
X199043Y-826D01*
X198043D01*
X197543Y-1325D01*
Y-3325D01*
X198043Y-3824D01*
X199043D01*
X199542Y-3325D01*
X200542Y-826D02*
Y-3824D01*
Y-2825D01*
X202541Y-826D01*
X201042Y-2325D01*
X202541Y-3824D01*
X-104600Y-8601D02*
Y-10600D01*
X-103600Y-11600D01*
X-102601Y-10600D01*
Y-8601D01*
X-101601D02*
Y-11600D01*
X-100101D01*
X-99602Y-11100D01*
Y-10600D01*
X-100101Y-10101D01*
X-101601D01*
X-100101D01*
X-99602Y-9601D01*
Y-9101D01*
X-100101Y-8601D01*
X-101601D01*
X-98602Y-11600D02*
Y-9601D01*
X-97602Y-8601D01*
X-96603Y-9601D01*
Y-11600D01*
Y-10101D01*
X-98602D01*
X-95603Y-8601D02*
X-93604D01*
X-94603D01*
Y-11600D01*
X-165200Y190900D02*
Y192899D01*
X-164200Y193899D01*
X-163201Y192899D01*
Y190900D01*
Y192400D01*
X-165200D01*
X-160202Y193899D02*
Y190900D01*
X-161701D01*
X-162201Y191400D01*
Y192400D01*
X-161701Y192899D01*
X-160202D01*
X-158702D02*
X-157702D01*
X-157203Y192400D01*
Y190900D01*
X-158702D01*
X-159202Y191400D01*
X-158702Y191900D01*
X-157203D01*
X-156203Y189900D02*
Y192899D01*
X-154703D01*
X-154204Y192400D01*
Y191400D01*
X-154703Y190900D01*
X-156203D01*
X-152704Y193399D02*
Y192899D01*
X-153204D01*
X-152204D01*
X-152704D01*
Y191400D01*
X-152204Y190900D01*
X-149205D02*
X-150205D01*
X-150705Y191400D01*
Y192400D01*
X-150205Y192899D01*
X-149205D01*
X-148705Y192400D01*
Y191900D01*
X-150705D01*
X-147706Y192899D02*
Y190900D01*
Y191900D01*
X-147206Y192400D01*
X-146706Y192899D01*
X-146206D01*
X211500Y97100D02*
Y100099D01*
X210000Y98599D01*
X211999D01*
X214998Y99599D02*
X214498Y100099D01*
X213499D01*
X212999Y99599D01*
Y97600D01*
X213499Y97100D01*
X214498D01*
X214998Y97600D01*
Y98599D01*
X213999D01*
X206199Y141099D02*
X205699Y141599D01*
X204700D01*
X204200Y141099D01*
Y139100D01*
X204700Y138600D01*
X205699D01*
X206199Y139100D01*
Y140100D01*
X205200D01*
X207199Y138600D02*
Y141599D01*
X208699D01*
X209198Y141099D01*
Y140100D01*
X208699Y139600D01*
X207199D01*
X212197Y141099D02*
X211698Y141599D01*
X210698D01*
X210198Y141099D01*
Y140599D01*
X210698Y140100D01*
X211698D01*
X212197Y139600D01*
Y139100D01*
X211698Y138600D01*
X210698D01*
X210198Y139100D01*
X216196Y141599D02*
Y138600D01*
X217696D01*
X218196Y139100D01*
Y139600D01*
X217696Y140100D01*
X216196D01*
X217696D01*
X218196Y140599D01*
Y141099D01*
X217696Y141599D01*
X216196D01*
X-132000Y34999D02*
Y32000D01*
X-130500D01*
X-130001Y32500D01*
Y34499D01*
X-130500Y34999D01*
X-132000D01*
X-129001Y32000D02*
X-128001D01*
X-128501D01*
Y34999D01*
X-129001Y34499D01*
X-126502D02*
X-126002Y34999D01*
X-125002D01*
X-124502Y34499D01*
Y33999D01*
X-125002Y33500D01*
X-125502D01*
X-125002D01*
X-124502Y33000D01*
Y32500D01*
X-125002Y32000D01*
X-126002D01*
X-126502Y32500D01*
X-113100Y171800D02*
Y173799D01*
X-116000Y141499D02*
X-114001D01*
X-115000Y142499D02*
Y140500D01*
X-136900Y15599D02*
X-134901D01*
X-135900Y16599D02*
Y14600D01*
X-116000Y17499D02*
X-114001D01*
X-115000D01*
Y14500D01*
X-113001Y17499D02*
X-111002Y14500D01*
Y17499D02*
X-113001Y14500D01*
X-115700Y19000D02*
Y21999D01*
X-114200D01*
X-113701Y21499D01*
Y20500D01*
X-114200Y20000D01*
X-115700D01*
X-114700D02*
X-113701Y19000D01*
X-112701Y21999D02*
X-110702Y19000D01*
Y21999D02*
X-112701Y19000D01*
X-114101Y25899D02*
X-114601Y26399D01*
X-115600D01*
X-116100Y25899D01*
Y23900D01*
X-115600Y23400D01*
X-114601D01*
X-114101Y23900D01*
Y24900D01*
X-115100D01*
X-116200Y30299D02*
X-115700Y30799D01*
X-114700D01*
X-114201Y30299D01*
Y29799D01*
X-114700Y29300D01*
X-115200D01*
X-114700D01*
X-114201Y28800D01*
Y28300D01*
X-114700Y27800D01*
X-115700D01*
X-116200Y28300D01*
X-113201Y27800D02*
Y28300D01*
X-112701D01*
Y27800D01*
X-113201D01*
X-110702Y30299D02*
X-110202Y30799D01*
X-109202D01*
X-108702Y30299D01*
Y29799D01*
X-109202Y29300D01*
X-109702D01*
X-109202D01*
X-108702Y28800D01*
Y28300D01*
X-109202Y27800D01*
X-110202D01*
X-110702Y28300D01*
X-107703Y30799D02*
Y28800D01*
X-106703Y27800D01*
X-105703Y28800D01*
Y30799D01*
X-115900Y34899D02*
Y31900D01*
X-114400D01*
X-113901Y32400D01*
Y34399D01*
X-114400Y34899D01*
X-115900D01*
X-110902Y32400D02*
Y34399D01*
X-111401Y34899D01*
X-112401D01*
X-112901Y34399D01*
Y32400D01*
X-112401Y31900D01*
X-111401D01*
X-111901Y32900D02*
X-110902Y31900D01*
X-111401D02*
X-110902Y32400D01*
X-113901Y38899D02*
X-114400Y39399D01*
X-115400D01*
X-115900Y38899D01*
Y36900D01*
X-115400Y36400D01*
X-114400D01*
X-113901Y36900D01*
Y37900D01*
X-114900D01*
X-116300Y43299D02*
X-115800Y43799D01*
X-114801D01*
X-114301Y43299D01*
Y42799D01*
X-114801Y42300D01*
X-115300D01*
X-114801D01*
X-114301Y41800D01*
Y41300D01*
X-114801Y40800D01*
X-115800D01*
X-116300Y41300D01*
X-113301Y40800D02*
Y41300D01*
X-112801D01*
Y40800D01*
X-113301D01*
X-110802Y43299D02*
X-110302Y43799D01*
X-109302D01*
X-108802Y43299D01*
Y42799D01*
X-109302Y42300D01*
X-109802D01*
X-109302D01*
X-108802Y41800D01*
Y41300D01*
X-109302Y40800D01*
X-110302D01*
X-110802Y41300D01*
X-107803Y43799D02*
Y41800D01*
X-106803Y40800D01*
X-105803Y41800D01*
Y43799D01*
X-116000Y44900D02*
Y47899D01*
X-115000Y46899D01*
X-114001Y47899D01*
Y44900D01*
X-111501Y47899D02*
X-112501D01*
X-113001Y47399D01*
Y45400D01*
X-112501Y44900D01*
X-111501D01*
X-111002Y45400D01*
Y47399D01*
X-111501Y47899D01*
X-110002D02*
X-108003D01*
X-109002D01*
Y44900D01*
X-105503Y47899D02*
X-106503D01*
X-107003Y47399D01*
Y45400D01*
X-106503Y44900D01*
X-105503D01*
X-105004Y45400D01*
Y47399D01*
X-105503Y47899D01*
X-114001Y51899D02*
X-114500Y52399D01*
X-115500D01*
X-116000Y51899D01*
Y49900D01*
X-115500Y49400D01*
X-114500D01*
X-114001Y49900D01*
Y50899D01*
X-115000D01*
X-114001Y56199D02*
X-114500Y56699D01*
X-115500D01*
X-116000Y56199D01*
Y54200D01*
X-115500Y53700D01*
X-114500D01*
X-114001Y54200D01*
Y55199D01*
X-115000D01*
X-113001Y53700D02*
Y55699D01*
X-112001Y56699D01*
X-111002Y55699D01*
Y53700D01*
Y55199D01*
X-113001D01*
X-108003Y56199D02*
X-108502Y56699D01*
X-109502D01*
X-110002Y56199D01*
Y55699D01*
X-109502Y55199D01*
X-108502D01*
X-108003Y54700D01*
Y54200D01*
X-108502Y53700D01*
X-109502D01*
X-110002Y54200D01*
X-149700Y206999D02*
X-147701D01*
X-148700Y207999D02*
Y206000D01*
X-146701Y207499D02*
X-146201D01*
Y206999D01*
X-146701D01*
Y207499D01*
Y206000D02*
X-146201D01*
Y205500D01*
X-146701D01*
Y206000D01*
X-141203Y208499D02*
Y205500D01*
X-139703D01*
X-139203Y206000D01*
Y207999D01*
X-139703Y208499D01*
X-141203D01*
X-136204Y207999D02*
X-136704Y208499D01*
X-137704D01*
X-138204Y207999D01*
Y206000D01*
X-137704Y205500D01*
X-136704D01*
X-136204Y206000D01*
X-130206Y208499D02*
X-131206Y207999D01*
X-132206Y206999D01*
Y206000D01*
X-131706Y205500D01*
X-130706D01*
X-130206Y206000D01*
Y206500D01*
X-130706Y206999D01*
X-132206D01*
X-129207D02*
X-127207D01*
X-126208D02*
X-124208D01*
X-123209Y207999D02*
X-122709Y208499D01*
X-121709D01*
X-121209Y207999D01*
Y207499D01*
X-121709Y206999D01*
X-122209D01*
X-121709D01*
X-121209Y206500D01*
Y206000D01*
X-121709Y205500D01*
X-122709D01*
X-123209Y206000D01*
X-118210Y208499D02*
X-119210Y207999D01*
X-120210Y206999D01*
Y206000D01*
X-119710Y205500D01*
X-118710D01*
X-118210Y206000D01*
Y206500D01*
X-118710Y206999D01*
X-120210D01*
X-117210Y208499D02*
Y206500D01*
X-116211Y205500D01*
X-115211Y206500D01*
Y208499D01*
X219232Y5700D02*
X217232D01*
X218232Y4701D02*
Y6700D01*
X219232Y21950D02*
X217232D01*
X218232Y20951D02*
Y22950D01*
X219232Y38201D02*
X217232D01*
X218232Y37201D02*
Y39200D01*
X219232Y54451D02*
X217232D01*
X218232Y53451D02*
Y55450D01*
X219232Y70701D02*
X217232D01*
X218232Y69701D02*
Y71700D01*
X-170069Y-19320D02*
Y216900D01*
X223632D01*
X-170069Y-19320D02*
X223632D01*
Y216900D01*
D170*
X-69782Y116597D02*
G03*
X-69782Y112661I0J-1969D01*
G01*
X-108658Y117474D02*
G03*
X-103097Y117474I2780J0D01*
G01*
X-69782Y106755D02*
Y112661D01*
X-90254Y106755D02*
X-69782D01*
X-90254D02*
Y122503D01*
X-69782D01*
Y116597D02*
Y122503D01*
X-115097Y104253D02*
Y115474D01*
X-97097Y104253D02*
Y115474D01*
X-115097Y104253D02*
X-97097D01*
X-115097Y115474D02*
Y117474D01*
X-97097D01*
Y115474D02*
Y117474D01*
D171*
X-89313Y175946D02*
G03*
X-89313Y175946I-492J0D01*
G01*
X-117394Y83390D02*
G03*
X-117394Y83390I-492J0D01*
G01*
X56722Y4279D02*
G03*
X56722Y4279I-492J0D01*
G01*
X95006Y28590D02*
G03*
X95006Y28590I-492J0D01*
G01*
D172*
X62726Y13138D02*
G03*
X62726Y13138I-1181J0D01*
G01*
D173*
X176432Y200900D02*
G03*
X176432Y200900I-197J0D01*
G01*
X175447Y206245D02*
X181353D01*
Y201717D02*
Y206245D01*
X175447Y201717D02*
Y206245D01*
Y201717D02*
X181353D01*
X198189Y201733D02*
Y204878D01*
X197200Y205867D02*
X198189Y204878D01*
X192697Y205867D02*
X197200D01*
X192697Y201733D02*
X198189D01*
X192697D02*
Y205867D01*
D174*
X41806Y174687D02*
G03*
X41806Y174687I-400J0D01*
G01*
X-56269Y104894D02*
X-55168Y103713D01*
X-56269Y104894D02*
Y119081D01*
X-55168Y120281D01*
X-43263Y120281D01*
X-42082Y119081D01*
Y104894D02*
Y119081D01*
X-43263Y103713D02*
X-42082Y104894D01*
X-55168Y103713D02*
X-43263D01*
X-49169Y110800D02*
X-48381Y111587D01*
X97379Y36963D02*
Y44837D01*
Y36963D02*
X107221D01*
Y44700D01*
X107084Y44837D02*
X107221Y44700D01*
X97379Y44837D02*
X107084D01*
X36632Y171500D02*
Y176262D01*
X42981Y171500D02*
Y176262D01*
D175*
X54398Y215782D02*
G03*
X53216Y214601I0J-1181D01*
G01*
X24083D02*
G03*
X22902Y215782I-1181J0D01*
G01*
X-84785Y155257D02*
X-74352D01*
X-84785Y174943D02*
X-74352D01*
X18531Y176300D02*
Y186300D01*
X-21468Y176300D02*
X18531D01*
X-21468Y186300D02*
X18531D01*
X-21468Y176300D02*
Y186300D01*
X-24621Y85547D02*
Y131000D01*
Y85547D02*
X26284D01*
Y136453D01*
X-19169D02*
X26284D01*
X-24621Y131000D02*
X-19169Y136453D01*
X83592Y9201D02*
Y21799D01*
X57608Y9201D02*
Y21799D01*
X83592D01*
X57608Y9201D02*
X83592D01*
X51131Y-15100D02*
Y-5100D01*
X91132D01*
X51131Y-15100D02*
X91132D01*
Y-5100D01*
X98058Y11759D02*
Y11857D01*
X97959D02*
X98058D01*
X117743D02*
X117841D01*
X117743Y11759D02*
Y11857D01*
Y31543D02*
Y31641D01*
Y31543D02*
X117841D01*
X97959D02*
X98058D01*
Y31641D01*
X183869Y202209D02*
Y203391D01*
X24083Y214601D02*
X53216D01*
X29594Y206530D02*
Y213223D01*
Y206530D02*
X31563D01*
Y213223D01*
X29594D02*
X31563D01*
X45736Y206530D02*
Y213223D01*
Y206530D02*
X47705D01*
Y213223D01*
X45736D02*
X47705D01*
X24083Y193144D02*
X53216D01*
Y214798D01*
X24083Y193144D02*
Y214798D01*
X51642Y214601D02*
Y215979D01*
X25657D02*
X51642D01*
X25657Y214601D02*
Y215979D01*
D176*
X-163924Y11483D02*
D03*
M02*
