*
*
G04 PADS VX.1.2 Build Number: 698008 generated Gerber (RS-274-X) file*
G04 PC Version=2.1*
*
%IN "PositionDecion_ZM_V1.0_"*%
*
%MOIN*%
*
%FSLAX35Y35*%
*
*
*
*
G04 PC Standard Apertures*
*
*
G04 Thermal Relief Aperture macro.*
%AMTER*
1,1,$1,0,0*
1,0,$1-$2,0,0*
21,0,$3,$4,0,0,45*
21,0,$3,$4,0,0,135*
%
*
*
G04 Annular Aperture macro.*
%AMANN*
1,1,$1,0,0*
1,0,$2,0,0*
%
*
*
G04 Odd Aperture macro.*
%AMODD*
1,1,$1,0,0*
1,0,$1-0.005,0,0*
%
*
*
G04 PC Custom Aperture Macros*
*
*
*
*
*
*
G04 PC Aperture Table*
*
%ADD010C,0.001*%
%ADD011C,0.005*%
%ADD013ANN,0.05906X0.0315*%
%ADD014ANN,0.23622X0.15748*%
%ADD015ANN,0.05906X0.03543*%
%ADD017C,0.02*%
*
*
*
*
G04 PC Circuitry*
G04 Layer Name PositionDecion_ZM_V1.0_ - circuitry*
%LPD*%
*
*
G04 PC Custom Flashes*
G04 Layer Name PositionDecion_ZM_V1.0_ - flashes*
%LPD*%
*
*
G04 PC Circuitry*
G04 Layer Name PositionDecion_ZM_V1.0_ - circuitry*
%LPD*%
*
G54D10*
G54D11*
G01X511625Y444809D02*
X509625D01*
X509250Y444718*
X509125Y444627*
X509000Y444445*
Y444264*
X509125Y444082*
X509250Y443991*
X509625Y443900*
X509875*
X511125Y445627D02*
X511250Y445809D01*
X511625Y446082*
X509000*
Y476825D02*
Y474200D01*
X507727Y476825D02*
X509000Y475075D01*
X508545Y475700D02*
X507727Y474200D01*
X506727Y476825D02*
X505727D01*
X506273Y475825*
X506000*
X505818Y475700*
X505727Y475575*
X505636Y475200*
Y474950*
X505727Y474575*
X505909Y474325*
X506182Y474200*
X506455*
X506727Y474325*
X506818Y474450*
X506909Y474700*
X508900Y467525D02*
Y464900D01*
X507627Y467525D02*
X508900Y465775D01*
X508445Y466400D02*
X507627Y464900D01*
X506718Y466900D02*
Y467025D01*
X506627Y467275*
X506536Y467400*
X506355Y467525*
X505991*
X505809Y467400*
X505718Y467275*
X505627Y467025*
Y466775*
X505718Y466525*
X505900Y466150*
X506809Y464900*
X505536*
X508400Y463225D02*
Y460600D01*
X507127Y463225D02*
X508400Y461475D01*
X507945Y462100D02*
X507127Y460600D01*
X506309Y462725D02*
X506127Y462850D01*
X505855Y463225*
Y460600*
X505836Y471300D02*
X505927Y471550D01*
X506109Y471800*
X506291Y471925*
X506655*
X506836Y471800*
X507018Y471550*
X507109Y471300*
X507200Y470925*
Y470300*
X507109Y469925*
X507018Y469675*
X506836Y469425*
X506655Y469300*
X506291*
X506109Y469425*
X505927Y469675*
X505836Y469925*
Y470300*
X506291D02*
X505836D01*
G54D13*
X582677Y417717D03*
Y427717D03*
Y392126D03*
Y402126D03*
X527559Y428056D03*
Y418056D03*
Y402126D03*
Y392126D03*
G54D14*
Y488189D03*
X582677D03*
G54D15*
X514000Y402200D03*
Y412200D03*
Y422200D03*
Y432200D03*
G54D17*
X525738Y419877D02*
X523415Y422200D01*
X516772*
X511228D02*
X508800D01*
X505600Y425400*
Y450200*
X582677Y430291D02*
Y435391D01*
X582600Y435468*
Y452300*
X578800Y456100*
X505600Y450200D02*
X511500Y456100D01*
X578800*
X0Y0D02*
M02*
