*
*
G04 PADS VX.1.2 Build Number: 698008 generated Gerber (RS-274-X) file*
G04 PC Version=2.1*
*
%IN "PositionDecion_ZM_V1.0_"*%
*
%MOIN*%
*
%FSLAX35Y35*%
*
*
*
*
G04 PC Standard Apertures*
*
*
G04 Thermal Relief Aperture macro.*
%AMTER*
1,1,$1,0,0*
1,0,$1-$2,0,0*
21,0,$3,$4,0,0,45*
21,0,$3,$4,0,0,135*
%
*
*
G04 Annular Aperture macro.*
%AMANN*
1,1,$1,0,0*
1,0,$2,0,0*
%
*
*
G04 Odd Aperture macro.*
%AMODD*
1,1,$1,0,0*
1,0,$1-0.005,0,0*
%
*
*
G04 PC Custom Aperture Macros*
*
*
*
*
*
*
G04 PC Aperture Table*
*
%ADD010C,0.001*%
%ADD016C,0.01*%
*
*
*
*
G04 PC Circuitry*
G04 Layer Name PositionDecion_ZM_V1.0_ - circuitry*
%LPD*%
*
*
G04 PC Custom Flashes*
G04 Layer Name PositionDecion_ZM_V1.0_ - flashes*
%LPD*%
*
*
G04 PC Circuitry*
G04 Layer Name PositionDecion_ZM_V1.0_ - circuitry*
%LPD*%
*
G54D10*
G54D16*
G01X831200Y772763D02*
Y766200D01*
Y772763D02*
X833245D01*
X833245D02*
X833927Y772450D01*
X834155Y772138*
X834155D02*
X834382Y771513D01*
X834382D02*
Y770575D01*
X834155Y769950*
X833927Y769638*
X833927D02*
X833245Y769325D01*
X831200*
X837564Y770575D02*
X837109Y770263D01*
X837109D02*
X836655Y769638D01*
X836655D02*
X836427Y768700D01*
Y768075*
X836655Y767138*
X836655D02*
X837109Y766513D01*
X837109D02*
X837564Y766200D01*
X838245*
X838700Y766513*
X838700D02*
X839155Y767138D01*
X839155D02*
X839382Y768075D01*
Y768700*
X839155Y769638*
X839155D02*
X838700Y770263D01*
X838700D02*
X838245Y770575D01*
X837564*
X843927Y769638D02*
X843700Y770263D01*
X843700D02*
X843018Y770575D01*
X842336*
X841655Y770263*
X841655D02*
X841427Y769638D01*
X841427D02*
X841655Y769013D01*
X841655D02*
X842109Y768700D01*
X843245Y768388*
X843245D02*
X843700Y768075D01*
X843927Y767450*
Y767138*
X843927D02*
X843700Y766513D01*
X843700D02*
X843018Y766200D01*
X842336*
X841655Y766513*
X841655D02*
X841427Y767138D01*
X845973Y772763D02*
X846200Y772450D01*
X846427Y772763*
X846427D02*
X846200Y773075D01*
X845973Y772763*
X846200Y770575D02*
Y766200D01*
X849155Y772763D02*
Y767450D01*
X849382Y766513*
X849382D02*
X849836Y766200D01*
X850291*
X848473Y770575D02*
X850064D01*
X852336Y772763D02*
X852564Y772450D01*
X852791Y772763*
X852791D02*
X852564Y773075D01*
X852336Y772763*
X852564Y770575D02*
Y766200D01*
X855973Y770575D02*
X855518Y770263D01*
X855518D02*
X855064Y769638D01*
X855064D02*
X854836Y768700D01*
Y768075*
X855064Y767138*
X855064D02*
X855518Y766513D01*
X855518D02*
X855973Y766200D01*
X856655*
X857109Y766513*
X857109D02*
X857564Y767138D01*
X857564D02*
X857791Y768075D01*
Y768700*
X857564Y769638*
X857564D02*
X857109Y770263D01*
X857109D02*
X856655Y770575D01*
X855973*
X859836D02*
Y766200D01*
Y769325D02*
X860518Y770263D01*
X860518D02*
X860973Y770575D01*
X861655*
X862109Y770263*
X862109D02*
X862336Y769325D01*
Y766200*
X869609Y772763D02*
X871427Y766200D01*
X873245Y772763D02*
X871427Y766200D01*
X875291Y771513D02*
X875745Y771825D01*
X876427Y772763*
X876427D02*
Y766200D01*
X878700Y766825D02*
X878473Y766513D01*
X878473D02*
X878700Y766200D01*
X878927Y766513*
X878927D02*
X878700Y766825D01*
X882336Y772763D02*
X881655Y772450D01*
X881200Y771513*
X881200D02*
X880973Y769950D01*
Y769013*
X880973D02*
X881200Y767450D01*
X881655Y766513*
X881655D02*
X882336Y766200D01*
X882791*
X883473Y766513*
X883473D02*
X883927Y767450D01*
X884155Y769013*
X884155D02*
Y769950D01*
X883927Y771513*
X883927D02*
X883473Y772450D01*
X882791Y772763*
X882791D02*
X882336D01*
X878677Y717717D02*
X886677D01*
X882677Y713717D02*
Y721717D01*
X878677Y727717D02*
X886677D01*
X882677Y723717D02*
Y731717D01*
X823559Y784189D02*
X831559D01*
Y792189*
X823559*
Y784189*
X827559Y788189D02*
Y792189D01*
X878677Y784189D02*
X886677D01*
Y792189*
X878677*
Y784189*
X882677Y788189D02*
Y792189D01*
X878677Y692126D02*
X886677D01*
X882677Y688126D02*
Y696126D01*
X878677Y702126D02*
X886677D01*
X882677Y698126D02*
Y706126D01*
X823559Y728056D02*
X831559D01*
X827559Y724056D02*
Y732056D01*
X823559Y718056D02*
X831559D01*
X827559Y714056D02*
Y722056D01*
X823559Y702126D02*
X831559D01*
X827559Y698126D02*
Y706126D01*
X823559Y692126D02*
X831559D01*
X827559Y688126D02*
Y696126D01*
X810000Y698200D02*
X818000Y706200D01*
X810000D02*
X818000Y698200D01*
X810000Y708200D02*
X818000Y716200D01*
X810000D02*
X818000Y708200D01*
X810000Y718200D02*
X818000Y726200D01*
X810000D02*
X818000Y718200D01*
X810000Y728200D02*
X818000Y736200D01*
X810000D02*
X818000Y728200D01*
X800000Y800000D02*
Y685039D01*
X835433*
Y742126*
X874803*
Y685039*
X910236*
Y800000*
X800000*
Y896000D02*
X1058000D01*
X800000Y872000D02*
X1058000D01*
X800000Y848000D02*
X1058000D01*
X800000Y824000D02*
X1058000D01*
X800000Y800000D02*
X1058000D01*
X800000Y896000D02*
Y800000D01*
X884000Y896000D02*
Y800000D01*
X920000Y896000D02*
Y800000D01*
X956000Y896000D02*
Y800000D01*
X1010000Y896000D02*
Y800000D01*
X1058000Y896000D02*
Y800000D01*
X828818Y878000D02*
X830364Y880375D01*
X830727Y882375*
Y885625*
X831091Y885875*
X838182*
X838545Y885625*
Y883000*
X838182Y882750*
X830727*
X834818D02*
X835545Y881000D01*
X837455Y879125*
X839727Y878000*
X845545Y880625D02*
X844818Y881875D01*
X843727Y882750*
X842182Y884500D02*
X852273D01*
X850091Y886250D02*
Y878000D01*
X849727Y877750*
X847091Y878250*
X888818Y881000D02*
X894091D01*
X893364D02*
X892545Y879500D01*
X891455Y878625*
X889182Y877750*
X893364D02*
X891455Y878875D01*
X889545Y879500*
Y879750*
X890727Y880625*
X891455Y881875*
Y882125D02*
Y886250D01*
X889182D02*
X889909Y885000D01*
X892545D02*
X893364Y886250D01*
X894091Y884500D02*
X889182D01*
X888818Y882375D02*
X890364Y883250D01*
X891455Y884500*
X893727Y883000*
X894455D02*
X895182Y884750D01*
Y886250*
Y884750D02*
X900091D01*
X899364D02*
X898545Y882125D01*
X896727Y879125*
X894818Y877750*
X899727D02*
X898182Y879125D01*
X896364Y882125*
X895545Y884750*
X902182Y878000D02*
X913091D01*
X912273Y879125D02*
X902909D01*
X903727Y880625D02*
Y882375D01*
X904091Y882750*
X911545*
X911909Y882375*
Y880625*
X911545Y880375*
X904091*
X903727Y880625*
Y881500D02*
X911909D01*
X907818Y882750D02*
Y878000D01*
X902545Y883625D02*
X913455D01*
X903727Y884750D02*
Y885875D01*
X904091Y886250*
X911545*
X911909Y885875*
Y884750*
X911545Y884500*
X904091*
X903727Y884750*
Y885375D02*
X911909D01*
X925545Y881500D02*
X927091Y882750D01*
X928182Y884125*
X927091Y882750D02*
Y877750D01*
X931545Y879750D02*
X930091Y881250D01*
X929364Y882750D02*
X936091D01*
X934545Y883875D02*
Y878000D01*
X934182Y877750*
X932727Y878000*
X931545Y879750D02*
X930091Y881250D01*
X924818Y884750D02*
X926364Y885625D01*
X926727Y886500*
X926364Y885625D02*
X930455D01*
X928909Y884500D02*
X927455Y885625D01*
X932364Y886500D02*
X931909Y885625D01*
X930818Y884750*
X931909Y885625D02*
X936091D01*
X934545Y884500D02*
X933455Y885625D01*
X938182Y882125D02*
X948727D01*
X941182D02*
X940455Y880625D01*
X940818Y880375*
X946818*
X947182Y880125*
X946818Y878000*
X946455Y877750*
X943455Y878000*
X940091Y883875D02*
Y885625D01*
X940455Y885875*
X946818*
X947182Y885625*
Y883875*
X946818Y883625*
X940455*
X940091Y883875*
X985500Y884000D02*
Y884375D01*
X985773Y885125*
X986045Y885500*
X986591Y885875*
X987682*
X988227Y885500*
X988500Y885125*
X988773Y884375*
Y883625*
X988500Y882875*
X988227Y882500*
X987136Y881750*
Y880625*
Y878750D02*
X986864Y878375D01*
X987136Y878000*
X987409Y878375*
X987136Y878750*
X991227Y884000D02*
Y884375D01*
X991500Y885125*
X991773Y885500*
X992318Y885875*
X993409*
X993955Y885500*
X994227Y885125*
X994500Y884375*
Y883625*
X994227Y882875*
X993955Y882500*
X992864Y881750*
Y880625*
Y878750D02*
X992591Y878375D01*
X992864Y878000*
X993136Y878375*
X992864Y878750*
X1026682Y885875D02*
Y878000D01*
X1024773Y885875D02*
X1028591D01*
X1032682D02*
X1032136Y885500D01*
X1031591Y884750*
X1031318Y884000*
X1031045Y882875*
Y881000*
X1031318Y879875*
X1031591Y879125*
X1032136Y878375*
X1032682Y878000*
X1033773*
X1034318Y878375*
X1034864Y879125*
X1035136Y879875*
X1035409Y881000*
Y882875*
X1035136Y884000*
X1034864Y884750*
X1034318Y885500*
X1033773Y885875*
X1032682*
X1037864D02*
Y878000D01*
X1041136*
X807636Y861875D02*
X806818Y861500D01*
X806273Y860375*
X806000Y858500*
Y857375*
X806273Y855500*
X806818Y854375*
X807636Y854000*
X808182*
X809000Y854375*
X809545Y855500*
X809818Y857375*
Y858500*
X809545Y860375*
X809000Y861500*
X808182Y861875*
X807636*
X812545Y854750D02*
X812273Y854375D01*
X812545Y854000*
X812818Y854375*
X812545Y854750*
X816636Y861875D02*
X815818Y861500D01*
X815545Y860750*
Y860000*
X815818Y859250*
X816364Y858875*
X817455Y858500*
X818273Y858125*
X818818Y857375*
X819091Y856625*
Y855500*
X818818Y854750*
X818545Y854375*
X817727Y854000*
X816636*
X815818Y854375*
X815545Y854750*
X815273Y855500*
Y856625*
X815545Y857375*
X816091Y858125*
X816909Y858500*
X818000Y858875*
X818545Y859250*
X818818Y860000*
Y860750*
X818545Y861500*
X817727Y861875*
X816636*
X900409D02*
X899591Y861500D01*
X899318Y860750*
Y860000*
X899591Y859250*
X900136Y858875*
X901227Y858500*
X902045Y858125*
X902591Y857375*
X902864Y856625*
Y855500*
X902591Y854750*
X902318Y854375*
X901500Y854000*
X900409*
X899591Y854375*
X899318Y854750*
X899045Y855500*
Y856625*
X899318Y857375*
X899864Y858125*
X900682Y858500*
X901773Y858875*
X902318Y859250*
X902591Y860000*
Y860750*
X902318Y861500*
X901500Y861875*
X900409*
X932000Y860000D02*
X944000D01*
X938000Y854000D02*
Y866000D01*
X964636Y861875D02*
X966818Y858125D01*
Y854000*
X969000Y861875D02*
X966818Y858125D01*
X971455Y861875D02*
Y854000D01*
Y861875D02*
X975000D01*
X971455Y858125D02*
X973636D01*
X971455Y854000D02*
X975000D01*
X981273Y860750D02*
X980727Y861500D01*
X979909Y861875*
X978818*
X978000Y861500*
X977455Y860750*
Y860000*
X977727Y859250*
X978000Y858875*
X978545Y858500*
X980182Y857750*
X980727Y857375*
X981000Y857000*
X981273Y856250*
Y855125*
X980727Y854375*
X979909Y854000*
X978818*
X978000Y854375*
X977455Y855125*
X1017818Y860750D02*
Y854000D01*
X1015364Y857375D02*
X1020273D01*
X1027636Y863375D02*
X1022727Y851375D01*
X1030091Y857375D02*
X1035000D01*
X1039091Y861875D02*
X1038273Y861500D01*
X1037727Y860375*
X1037455Y858500*
Y857375*
X1037727Y855500*
X1038273Y854375*
X1039091Y854000*
X1039636*
X1040455Y854375*
X1041000Y855500*
X1041273Y857375*
Y858500*
X1041000Y860375*
X1040455Y861500*
X1039636Y861875*
X1039091*
X1044000Y854750D02*
X1043727Y854375D01*
X1044000Y854000*
X1044273Y854375*
X1044000Y854750*
X1048364Y861875D02*
X1047545Y861500D01*
X1047000Y860375*
X1046727Y858500*
Y857375*
X1047000Y855500*
X1047545Y854375*
X1048364Y854000*
X1048909*
X1049727Y854375*
X1050273Y855500*
X1050545Y857375*
Y858500*
X1050273Y860375*
X1049727Y861500*
X1048909Y861875*
X1048364*
X807636Y837875D02*
X806818Y837500D01*
X806273Y836375*
X806000Y834500*
Y833375*
X806273Y831500*
X806818Y830375*
X807636Y830000*
X808182*
X809000Y830375*
X809545Y831500*
X809818Y833375*
Y834500*
X809545Y836375*
X809000Y837500*
X808182Y837875*
X807636*
X812545Y830750D02*
X812273Y830375D01*
X812545Y830000*
X812818Y830375*
X812545Y830750*
X818818Y835250D02*
X818545Y834125D01*
X818000Y833375*
X817182Y833000*
X816909*
X816091Y833375*
X815545Y834125*
X815273Y835250*
Y835625*
X815545Y836750*
X816091Y837500*
X816909Y837875*
X817182*
X818000Y837500*
X818545Y836750*
X818818Y835250*
Y833375*
X818545Y831500*
X818000Y830375*
X817182Y830000*
X816636*
X815818Y830375*
X815545Y831125*
X901636Y837875D02*
X898909Y832625D01*
X903000*
X901636Y837875D02*
Y830000D01*
X932000D02*
X944000Y842000D01*
X932000D02*
X944000Y830000D01*
X964636Y837875D02*
X966818Y834125D01*
Y830000*
X969000Y837875D02*
X966818Y834125D01*
X971455Y837875D02*
Y830000D01*
Y837875D02*
X975000D01*
X971455Y834125D02*
X973636D01*
X971455Y830000D02*
X975000D01*
X981273Y836750D02*
X980727Y837500D01*
X979909Y837875*
X978818*
X978000Y837500*
X977455Y836750*
Y836000*
X977727Y835250*
X978000Y834875*
X978545Y834500*
X980182Y833750*
X980727Y833375*
X981000Y833000*
X981273Y832250*
Y831125*
X980727Y830375*
X979909Y830000*
X978818*
X978000Y830375*
X977455Y831125*
X1017818Y836750D02*
Y830000D01*
X1015364Y833375D02*
X1020273D01*
X1027636Y839375D02*
X1022727Y827375D01*
X1030091Y833375D02*
X1035000D01*
X1039091Y837875D02*
X1038273Y837500D01*
X1037727Y836375*
X1037455Y834500*
Y833375*
X1037727Y831500*
X1038273Y830375*
X1039091Y830000*
X1039636*
X1040455Y830375*
X1041000Y831500*
X1041273Y833375*
Y834500*
X1041000Y836375*
X1040455Y837500*
X1039636Y837875*
X1039091*
X1044000Y830750D02*
X1043727Y830375D01*
X1044000Y830000*
X1044273Y830375*
X1044000Y830750*
X1048364Y837875D02*
X1047545Y837500D01*
X1047000Y836375*
X1046727Y834500*
Y833375*
X1047000Y831500*
X1047545Y830375*
X1048364Y830000*
X1048909*
X1049727Y830375*
X1050273Y831500*
X1050545Y833375*
Y834500*
X1050273Y836375*
X1049727Y837500*
X1048909Y837875*
X1048364*
X808727Y813875D02*
X806000Y808625D01*
X810091*
X808727Y813875D02*
Y806000D01*
X899318Y812000D02*
Y812375D01*
X899591Y813125*
X899864Y813500*
X900409Y813875*
X901500*
X902045Y813500*
X902318Y813125*
X902591Y812375*
Y811625*
X902318Y810875*
X901773Y809750*
X899045Y806000*
X902864*
X932000D02*
X944000D01*
Y818000*
X932000*
Y806000*
X938000Y812000D02*
Y818000D01*
X967636Y813875D02*
Y806000D01*
Y813875D02*
X971455Y806000D01*
Y813875D02*
Y806000D01*
X975545Y813875D02*
X975000Y813500D01*
X974455Y812750*
X974182Y812000*
X973909Y810875*
Y809000*
X974182Y807875*
X974455Y807125*
X975000Y806375*
X975545Y806000*
X976636*
X977182Y806375*
X977727Y807125*
X978000Y807875*
X978273Y809000*
Y810875*
X978000Y812000*
X977727Y812750*
X977182Y813500*
X976636Y813875*
X975545*
X1017818Y812750D02*
Y806000D01*
X1015364Y809375D02*
X1020273D01*
X1027636Y815375D02*
X1022727Y803375D01*
X1030091Y809375D02*
X1035000D01*
X1039091Y813875D02*
X1038273Y813500D01*
X1037727Y812375*
X1037455Y810500*
Y809375*
X1037727Y807500*
X1038273Y806375*
X1039091Y806000*
X1039636*
X1040455Y806375*
X1041000Y807500*
X1041273Y809375*
Y810500*
X1041000Y812375*
X1040455Y813500*
X1039636Y813875*
X1039091*
X1044000Y806750D02*
X1043727Y806375D01*
X1044000Y806000*
X1044273Y806375*
X1044000Y806750*
X1048364Y813875D02*
X1047545Y813500D01*
X1047000Y812375*
X1046727Y810500*
Y809375*
X1047000Y807500*
X1047545Y806375*
X1048364Y806000*
X1048909*
X1049727Y806375*
X1050273Y807500*
X1050545Y809375*
Y810500*
X1050273Y812375*
X1049727Y813500*
X1048909Y813875*
X1048364*
X0Y0D02*
M02*
