M48
;Layer_Color=9474304
;FILE_FORMAT=2:5
INCH,LZ
;TYPE=PLATED
T1F00S00C0.01200
T2F00S00C0.02000
T3F00S00C0.02500
T4F00S00C0.02559
T5F00S00C0.03000
T6F00S00C0.03543
T7F00S00C0.03937
T8F00S00C0.04724
%
T01
X02114Y-0575
X02025Y-05557
X00504Y-04968
X00519Y-04828
X0023494Y-0482906
X00215Y-04306
X00314
X00414Y-04199
X00436Y-04031
X00547Y-03973
X0063837Y-0399637
X0067992Y-0396492
X00216Y-0398
X00413Y-04435
X00748Y-04108
X00811Y-03984
X0106725Y-0378475
X0151Y-03813
X01474Y-03853
X01605Y-04074
Y-04435
X01636Y-04578
X01395Y-04435
X01236Y-04514
X0154994Y-04893
X00811
X02067Y-04144
X02081Y-03675
X0197975Y-0348225
X01651Y-03451
X01472Y-03473
X01446Y-03526
X01386Y-03443
X01211Y-03524
X01005Y-03465
X01022Y-03423
X01074Y-03339
X00996Y-03252
X01211Y-03179
X01352Y-02923
X01378Y-02719
X01543Y-02783
X01712Y-02928
X01755Y-02943
Y-03205
X01712Y-03179
X0160406Y-0308906
X02035Y-03043
X02009Y-02712
X01815Y-02524
X01574Y-02308
X01352Y-02477
X01181Y-02405
Y-02354
X01157Y-02556
X00974Y-02517
X00956Y-02605
X00966Y-02645
X00977Y-02682
X01053
X007773Y-026833
X00801Y-027105
X00749Y-02726
X0074803Y-030315
X00895Y-02934
X00951Y-02935
X01024Y-02968
X00811Y-0346
X00748Y-03529
X0104124Y-0372176
X01447Y-03704
X01474Y-03647
X01651Y-03663
X0162Y-03746
X0078882Y-0234418
X00783Y-02255
X0060118Y-0230382
X00496Y-02263
X00286Y-0233265
X002868Y-024862
X0028926Y-0263974
X00278Y-02755
X00336Y-02721
X00361Y-02695
X0039Y-02722
X00436Y-02826
Y-02925
X00586Y-02976
X00642Y-02923
X00662Y-02804
X00581
X00575Y-02755
X00512Y-02787
X00467Y-02635
Y-0254
X0054894Y-0260394
X00105Y-02614
X00134Y-02855
X00251Y-029
X00283Y-03251
X00252Y-03285
X00327Y-03386
X00369Y-03355
X00408Y-03444
X00547Y-03308
X00727Y-03422
X00381Y-03167
X00216Y-02188
X00175Y-02154
X00708Y-02155
X0054894Y-0198506
X00854Y-02011
X00818Y-02102
X00799Y-02205
X01191Y-02154
X01336Y-02152
X01241Y-02034
X01387Y-01846
X01553Y-0174
X01681Y-0172
X01716Y-01759
X0161142Y-01629
X01505Y-01549
X01477Y-01495
X01238
X01225Y-01549
X01164Y-01588
X01189Y-0163
X01055Y-0174
Y-0181
X01604Y-02
X01881Y-0196
X0209016Y-01844
X02009Y-01759
X01982Y-0172
X0192283Y-01587
X01881Y-01444
X02034Y-01483
X02067Y-02152
X01716Y-00937
X0168Y-00905
X0108518Y-0109518
X00949Y-00633
X00853Y-00406
X00764Y-00346
Y-00103
X01274Y-00406
X0147
X0168Y-00376
X01716Y-00368
X0168Y-00237
X01716Y-00184
Y-00035
X0168Y-00065
X01862Y-00406
X00106Y-0029506
T02
X00825Y-05784
X00991Y-05774
X01117Y-05817
X0125Y-05847
X01303Y-0577
X01299Y-05595
X0119Y-05588
X01054Y-05618
X00898Y-05575
X01263Y-05376
X01498Y-05814
X01601Y-059
X01575Y-05996
X01392Y-05983
X01243Y-06036
X01143Y-0598
X0181Y-05993
X01774Y-05863
X01883Y-05624
X01986Y-05664
X02069Y-05671
X01963Y-05415
X00689Y-05356
X00674Y-0561
X00664Y-05821
X00547Y-05908
X00384Y-05989
X00363Y-05826
X00367Y-05606
X00368Y-05405
X00095Y-0542
X00086Y-0564
X00163Y-0574
X00682Y-06043
X00742Y-0521
X00354Y-05228
X00362Y-05103
X00441Y-05089
X00451Y-04886
X00352Y-04902
X00137Y-04896
X00041Y-05016
X00132Y-05157
X00209Y-04731
X00095Y-04678
X00073Y-04519
X00155Y-04391
X00308Y-04374
X00315Y-04471
X00471Y-0437
X00096Y-04211
Y-03972
X00296Y-0395
X00908Y-03977
X01021Y-03838
X0111Y-03839
X01159Y-03846
X01341Y-04255
X01413Y-04358
X01692Y-04437
X0178Y-04344
X01976Y-04397
X01757Y-03977
X01732Y-03938
X01695Y-03905
X01781Y-04881
X01839Y-05004
X01942Y-05005
X01887Y-05094
X0194Y-0522
X01439Y-0524
X01373Y-05086
X01243Y-04956
X0126Y-04801
X01209Y-0472
X00799Y-04959
X00809Y-05087
X01002Y-05191
X00908Y-04235
X01008Y-03754
X01123Y-03753
X01079Y-03688
X0114209Y-0352391
X01274Y-03563
X01336Y-03528
X01517Y-03321
X01685Y-03257
X01793Y-03255
X0183Y-03188
X01774Y-0357
X0189Y-027
X01949Y-02628
X01852Y-02347
X0140213Y-02342
X01402Y-02588
X01395Y-02848
X01392Y-02951
X01238Y-02919
X01052Y-02861
X01073Y-02755
X00763Y-03309
X00735Y-03204
X00733Y-03486
X00426Y-036
X00086Y-03729
X00078Y-02371
X00586Y-02548
X00072Y-02061
X00088Y-01811
X00211Y-01719
X0041Y-01716
X00537Y-01517
X00613Y-01425
X00612Y-01247
X00571Y-01157
Y-01013
X0041Y-01045
X00382Y-01184
X00243Y-01169
X00255Y-01434
X00398Y-01396
X00078Y-01314
X00736Y-00914
X0076Y-01043
X00781Y-01171
X00978Y-0106
X0113Y-0099
X01143Y-01148
X01233Y-0108
X01532Y-01028
X01506Y-00903
X01542Y-01184
X01536Y-01295
X01555Y-01418
X01462Y-0142
X01563Y-0154
X01552Y-0168
X01796Y-01658
X01928Y-01665
X0202Y-01614
X01927Y-01921
X01764Y-01919
X01742Y-02006
X01493Y-02105
X01138Y-01882
X01089Y-01662
X01236Y-0169
X00777Y-01767
X00784Y-01523
X00791Y-02044
X01755Y-01459
X01844Y-01177
X01981Y-01173
X01994Y-01011
X02033Y-00912
X01977Y-0062
X02092Y-00587
X02078Y-00372
X02002Y-00369
X02025Y-00232
X02104Y-00177
X02009Y-00114
X01792Y-00039
X01521Y-00218
X01432Y-00265
X01442Y-00156
X01389Y-00343
X01183Y-00339
X01195Y-00226
X01049Y-00255
X01047Y-00341
X00919Y-00271
X0081Y-00261
X01498Y-00473
X01515Y-00561
X01777Y-00597
X01755Y-0046
X00645Y-00345
X00568Y-00249
X00595Y-00132
X0071Y-00204
X00435Y-00211
X00404Y-00105
X00334Y-00417
X00336Y-0052
X00571Y-00502
X00216Y-0036
X00097Y-00384
T03
X0160354Y-0568898
X0170354
X016626Y-0551181
X017626
X0174291Y-05335
X0164291
X0052244Y-0533465
X0042244
X0040276Y-0551181
X0050276
X0046181Y-0568898
X0056181
Y-0517717
X0046181
X0057992Y-0501968
X0067992
X00582Y-0462
X00482
X0050118Y-0413386
X0060118
X0156417
X0166417
X0158543Y-0501968
X0148543
X0160354Y-0517717
X0170354
X0166417Y-030315
X0156417
X01489Y-02855
X01459Y-02606
X0060118Y-030315
X0050118
Y-0192913
X0060118
X0034528Y-009252
X0024528
X0031457Y-0070866
X0041457
X0055394
X0065394
X001752Y-0070866
X000752
X0079331Y-0070866
X0089331
X0103268
X0113268
X0127205
X0137205
X0151142Y-0070866
X0161142
X0175079
X0185079
X0199016Y-0070803
X0209016
X0192283Y-009252
X0182283
X0166417Y-0192913
X0156417
X0182283Y-0023622
X0192283
X0034528
X0024528
T04
X00294Y-03787
X00394
X00494
T05
X0083268Y-01267
X0093268
X0103268
X0113268
X0123268
X0133268
Y-00867
X0123268
X0113268
X0103268
X0093268
X0083268
X00833Y-00551
X00933
X01033
X01133
X01233
X01333
Y-00151
X01233
X01133
X01033
X00933
X00833
T06
X00094Y-03446
Y-03346
Y-03246
Y-03146
X01813Y-01272
X0200985
T07
X01875Y-04823
Y-0472457
Y-0462615
Y-0452772
X01874Y-04293
Y-0419457
Y-0409615
Y-0399772
Y-03732
Y-0363357
Y-0353515
Y-0343672
X01879Y-033383
X01876Y-03096
Y-0299757
Y-0289915
X01889Y-02554
Y-0245557
X01882Y-02198
Y-0209957
T08
X00853Y-06048
X0033915Y-04624
X0035433Y-0413386
X0141732
Y-030315
X0035433
Y-0192913
X0141732
M30
