*
*
G04 PADS VX.2.3 Build Number: 9191294 generated Gerber (RS-274-X) file*
G04 PC Version=2.1*
*
%IN "GETWAY_EXE_MCU_ZM_V1.0_"*%
*
%MOIN*%
*
%FSLAX35Y35*%
*
*
*
*
G04 PC Standard Apertures*
*
*
G04 Thermal Relief Aperture macro.*
%AMTER*
1,1,$1,0,0*
1,0,$1-$2,0,0*
21,0,$3,$4,0,0,45*
21,0,$3,$4,0,0,135*
%
*
*
G04 Annular Aperture macro.*
%AMANN*
1,1,$1,0,0*
1,0,$2,0,0*
%
*
*
G04 Odd Aperture macro.*
%AMODD*
1,1,$1,0,0*
1,0,$1-0.005,0,0*
%
*
*
G04 PC Custom Aperture Macros*
*
*
*
*
*
*
G04 PC Aperture Table*
*
%ADD010C,0.001*%
%ADD033C,0.01*%
*
*
*
*
G04 PC Circuitry*
G04 Layer Name GETWAY_EXE_MCU_ZM_V1.0_ - circuitry*
%LPD*%
*
*
G04 PC Custom Flashes*
G04 Layer Name GETWAY_EXE_MCU_ZM_V1.0_ - flashes*
%LPD*%
*
*
G04 PC Circuitry*
G04 Layer Name GETWAY_EXE_MCU_ZM_V1.0_ - circuitry*
%LPD*%
*
G54D10*
G54D33*
G01X421548Y438053D02*
X425548Y442053D01*
X421548Y446053*
X417548Y442053*
X421548Y438053*
Y442053D02*
Y446053D01*
Y428053D02*
X425548Y432053D01*
X421548Y436053*
X417548Y432053*
X421548Y428053*
Y432053D02*
Y436053D01*
Y418053D02*
X425548Y422053D01*
X421548Y426053*
X417548Y422053*
X421548Y418053*
Y422053D02*
Y426053D01*
X407219Y311885D02*
X415219Y319885D01*
X407219D02*
X415219Y311885D01*
X311943D02*
X319943Y319885D01*
X311943D02*
X319943Y311885D01*
X310436Y417443D02*
X314436Y421443D01*
X310436Y425443*
X306436Y421443*
X310436Y417443*
Y421443D02*
Y425443D01*
Y427443D02*
X314436Y431443D01*
X310436Y435443*
X306436Y431443*
X310436Y427443*
Y431443D02*
Y435443D01*
Y437443D02*
X314436Y441443D01*
X310436Y445443*
X306436Y441443*
X310436Y437443*
Y441443D02*
Y445443D01*
Y447443D02*
X314436Y451443D01*
X310436Y455443*
X306436Y451443*
X310436Y447443*
Y451443D02*
Y455443D01*
X299230Y303200D02*
X307230D01*
X303230Y299200D02*
Y307200D01*
X309230Y303200D02*
X317230D01*
X313230Y299200D02*
Y307200D01*
X319230Y303200D02*
X327230D01*
X323230Y299200D02*
Y307200D01*
X329230Y303200D02*
X337230D01*
X333230Y299200D02*
Y307200D01*
X339230Y303200D02*
X347230D01*
X343230Y299200D02*
Y307200D01*
X349230Y303200D02*
X357230D01*
X353230Y299200D02*
Y307200D01*
X359230Y303200D02*
X367230D01*
X363230Y299200D02*
Y307200D01*
X369230Y303200D02*
X377230D01*
X373230Y299200D02*
Y307200D01*
X379230Y303200D02*
X387230D01*
X383230Y299200D02*
Y307200D01*
X389230Y303200D02*
X397230D01*
X393230Y299200D02*
Y307200D01*
X399230Y303200D02*
X407230D01*
X403230Y299200D02*
Y307200D01*
X409230Y303200D02*
X417230D01*
X413230Y299200D02*
Y307200D01*
X419230Y303200D02*
X427230D01*
X423230Y299200D02*
Y307200D01*
X329230Y313200D02*
X337230D01*
X333230Y309200D02*
Y317200D01*
X339230Y313200D02*
X347230D01*
X343230Y309200D02*
Y317200D01*
X349230Y313200D02*
X357230D01*
X353230Y309200D02*
Y317200D01*
X359230Y313200D02*
X367230D01*
X363230Y309200D02*
Y317200D01*
X369230Y313200D02*
X377230D01*
X373230Y309200D02*
Y317200D01*
X379230Y313200D02*
X387230D01*
X383230Y309200D02*
Y317200D01*
X389230Y313200D02*
X397230D01*
X393230Y309200D02*
Y317200D01*
X419230Y313200D02*
X427230D01*
X423230Y309200D02*
Y317200D01*
X329230Y323200D02*
X337230D01*
X333230Y319200D02*
Y327200D01*
X339230Y323200D02*
X347230D01*
X343230Y319200D02*
Y327200D01*
X349230Y323200D02*
X357230D01*
X353230Y319200D02*
Y327200D01*
X359230Y323200D02*
X367230D01*
X363230Y319200D02*
Y327200D01*
X369230Y323200D02*
X377230D01*
X373230Y319200D02*
Y327200D01*
X379230Y323200D02*
X387230D01*
X383230Y319200D02*
Y327200D01*
X389230Y323200D02*
X397230D01*
X393230Y319200D02*
Y327200D01*
X419230Y323200D02*
X427230D01*
X423230Y319200D02*
Y327200D01*
X309230Y333200D02*
X317230D01*
X313230Y329200D02*
Y337200D01*
X319230Y333200D02*
X327230D01*
X323230Y329200D02*
Y337200D01*
X329230Y333200D02*
X337230D01*
X333230Y329200D02*
Y337200D01*
X339230Y333200D02*
X347230D01*
X343230Y329200D02*
Y337200D01*
X349230Y333200D02*
X357230D01*
X353230Y329200D02*
Y337200D01*
X359230Y333200D02*
X367230D01*
X363230Y329200D02*
Y337200D01*
X369230Y333200D02*
X377230D01*
X373230Y329200D02*
Y337200D01*
X379230Y333200D02*
X387230D01*
X383230Y329200D02*
Y337200D01*
X389230Y333200D02*
X397230D01*
X393230Y329200D02*
Y337200D01*
X399230Y333200D02*
X407230D01*
X403230Y329200D02*
Y337200D01*
X409230Y333200D02*
X417230D01*
X413230Y329200D02*
Y337200D01*
X419230Y333200D02*
X427230D01*
X423230Y329200D02*
Y337200D01*
X309230Y343200D02*
X317230D01*
X313230Y339200D02*
Y347200D01*
X319230Y343200D02*
X327230D01*
X323230Y339200D02*
Y347200D01*
X329230Y343200D02*
X337230D01*
X333230Y339200D02*
Y347200D01*
X339230Y343200D02*
X347230D01*
X343230Y339200D02*
Y347200D01*
X349230Y343200D02*
X357230D01*
X353230Y339200D02*
Y347200D01*
X359230Y343200D02*
X367230D01*
X363230Y339200D02*
Y347200D01*
X369230Y343200D02*
X377230D01*
X373230Y339200D02*
Y347200D01*
X379230Y343200D02*
X387230D01*
X383230Y339200D02*
Y347200D01*
X389230Y343200D02*
X397230D01*
X393230Y339200D02*
Y347200D01*
X399230Y343200D02*
X407230D01*
X403230Y339200D02*
Y347200D01*
X409230Y343200D02*
X417230D01*
X413230Y339200D02*
Y347200D01*
X419230Y343200D02*
X427230D01*
X423230Y339200D02*
Y347200D01*
X309230Y353200D02*
X317230D01*
X313230Y349200D02*
Y357200D01*
X409230Y353200D02*
X417230D01*
X413230Y349200D02*
Y357200D01*
X419230Y353200D02*
X427230D01*
X423230Y349200D02*
Y357200D01*
X309230Y363200D02*
X317230D01*
X313230Y359200D02*
Y367200D01*
X319737Y352319D02*
X327737D01*
Y360319*
X319737*
Y352319*
X323737Y356319D02*
Y360319D01*
X329230Y363200D02*
X337230D01*
X333230Y359200D02*
Y367200D01*
X359230Y363200D02*
X367230D01*
X363230Y359200D02*
Y367200D01*
X379230Y363200D02*
X387230D01*
X383230Y359200D02*
Y367200D01*
X389230Y363200D02*
X397230D01*
X393230Y359200D02*
Y367200D01*
X399230Y363200D02*
X407230D01*
X403230Y359200D02*
Y367200D01*
X405053Y356221D02*
X413053D01*
Y364221*
X405053*
Y356221*
X409053Y360221D02*
Y364221D01*
X419230Y363200D02*
X427230D01*
X423230Y359200D02*
Y367200D01*
X309230Y373200D02*
X317230D01*
X313230Y369200D02*
Y377200D01*
X329230Y373200D02*
X337230D01*
X333230Y369200D02*
Y377200D01*
X379230Y373200D02*
X387230D01*
X383230Y369200D02*
Y377200D01*
X389230Y373200D02*
X397230D01*
X393230Y369200D02*
Y377200D01*
X399230Y373200D02*
X407230D01*
X403230Y369200D02*
Y377200D01*
X419230Y373200D02*
X427230D01*
X423230Y369200D02*
Y377200D01*
X309230Y383200D02*
X317230D01*
X313230Y379200D02*
Y387200D01*
X329230Y383200D02*
X337230D01*
X333230Y379200D02*
Y387200D01*
X339230Y383200D02*
X347230D01*
X343230Y379200D02*
Y387200D01*
X405025Y378372D02*
X413025D01*
Y386372*
X405025*
Y378372*
X409025Y382372D02*
Y386372D01*
X419230Y383200D02*
X427230D01*
X423230Y379200D02*
Y387200D01*
X309230Y393200D02*
X317230D01*
X313230Y389200D02*
Y397200D01*
X319751Y387202D02*
X327751D01*
Y395202*
X319751*
Y387202*
X323751Y391202D02*
Y395202D01*
X383006Y388688D02*
X391006D01*
Y396688*
X383006*
Y388688*
X387006Y392688D02*
Y396688D01*
X389230Y393200D02*
X397230D01*
X393230Y389200D02*
Y397200D01*
X405085Y391499D02*
X413085D01*
Y399499*
X405085*
Y391499*
X409085Y395499D02*
Y399499D01*
X419230Y393200D02*
X427230D01*
X423230Y389200D02*
Y397200D01*
X309230Y403200D02*
X317230D01*
X313230Y399200D02*
Y407200D01*
X329230Y403200D02*
X337230D01*
X333230Y399200D02*
Y407200D01*
X349230Y403200D02*
X357230D01*
X353230Y399200D02*
Y407200D01*
X359230Y403200D02*
X367230D01*
X363230Y399200D02*
Y407200D01*
X369230Y403200D02*
X377230D01*
X373230Y399200D02*
Y407200D01*
X386156Y396081D02*
X394156D01*
Y404081*
X386156*
Y396081*
X390156Y400081D02*
Y404081D01*
X419230Y403200D02*
X427230D01*
X423230Y399200D02*
Y407200D01*
X309230Y413200D02*
X317230D01*
X313230Y409200D02*
Y417200D01*
X329230Y413200D02*
X337230D01*
X333230Y409200D02*
Y417200D01*
X349230Y413200D02*
X357230D01*
X353230Y409200D02*
Y417200D01*
X359230Y413200D02*
X367230D01*
X363230Y409200D02*
Y417200D01*
X369230Y413200D02*
X377230D01*
X373230Y409200D02*
Y417200D01*
X390909Y408626D02*
X398909D01*
Y416626*
X390909*
Y408626*
X394909Y412626D02*
Y416626D01*
X399553Y408619D02*
X407553D01*
Y416619*
X399553*
Y408619*
X403553Y412619D02*
Y416619D01*
X419230Y413200D02*
X427230D01*
X423230Y409200D02*
Y417200D01*
X329230Y423200D02*
X337230D01*
X333230Y419200D02*
Y427200D01*
X349230Y423200D02*
X357230D01*
X353230Y419200D02*
Y427200D01*
X359230Y423200D02*
X367230D01*
X363230Y419200D02*
Y427200D01*
X369230Y423200D02*
X377230D01*
X373230Y419200D02*
Y427200D01*
X405136Y414264D02*
X413136D01*
Y422264*
X405136*
Y414264*
X409136Y418264D02*
Y422264D01*
X332663Y429618D02*
X340663D01*
Y437618*
X332663*
Y429618*
X336663Y433618D02*
Y437618D01*
X319852Y432980D02*
X327852D01*
Y440980*
X319852*
Y432980*
X323852Y436980D02*
Y440980D01*
X329230Y443200D02*
X337230D01*
X333230Y439200D02*
Y447200D01*
X360413Y439480D02*
X368413D01*
Y447480*
X360413*
Y439480*
X364413Y443480D02*
Y447480D01*
X377239Y442418D02*
X385239D01*
X381239Y438418D02*
Y446418D01*
X392583Y435518D02*
X400583D01*
Y443518*
X392583*
Y435518*
X396583Y439518D02*
Y443518D01*
X399478Y439489D02*
X407478D01*
X403478Y435489D02*
Y443489D01*
X326303Y447443D02*
X334303D01*
Y455443*
X326303*
Y447443*
X330303Y451443D02*
Y455443D01*
X348091Y443694D02*
X356091D01*
Y451694*
X348091*
Y443694*
X352091Y447694D02*
Y451694D01*
X355941Y443701D02*
X363941D01*
Y451701*
X355941*
Y443701*
X359941Y447701D02*
Y451701D01*
X363514Y442680D02*
X371514D01*
Y450680*
X363514*
Y442680*
X367514Y446680D02*
Y450680D01*
X358289Y442050D02*
X366289D01*
Y450050*
X358289*
Y442050*
X362289Y446050D02*
Y450050D01*
X390323Y448455D02*
X398323D01*
Y456455*
X390323*
Y448455*
X394323Y452455D02*
Y456455D01*
X398754Y449446D02*
X406754D01*
Y457446*
X398754*
Y449446*
X402754Y453446D02*
Y457446D01*
X404995Y441608D02*
X412995D01*
Y449608*
X404995*
Y441608*
X408995Y445608D02*
Y449608D01*
X419230Y453200D02*
X427230D01*
X423230Y449200D02*
Y457200D01*
X309230Y463200D02*
X317230D01*
X313230Y459200D02*
Y467200D01*
X419230Y463200D02*
X427230D01*
X423230Y459200D02*
Y467200D01*
X309230Y473200D02*
X317230D01*
X313230Y469200D02*
Y477200D01*
X326792Y470533D02*
X334792D01*
Y478533*
X326792*
Y470533*
X330792Y474533D02*
Y478533D01*
X319671Y470533D02*
X327671D01*
Y478533*
X319671*
Y470533*
X323671Y474533D02*
Y478533D01*
X335406Y470533D02*
X343406D01*
Y478533*
X335406*
Y470533*
X339406Y474533D02*
Y478533D01*
X343835Y466563D02*
X351835D01*
Y474563*
X343835*
Y466563*
X347835Y470563D02*
Y474563D01*
X337433Y466684D02*
X345433D01*
Y474684*
X337433*
Y466684*
X341433Y470684D02*
Y474684D01*
X346157Y470526D02*
X354157D01*
Y478526*
X346157*
Y470526*
X350157Y474526D02*
Y478526D01*
X355944Y465806D02*
X363944D01*
Y473806*
X355944*
Y465806*
X359944Y469806D02*
Y473806D01*
X371195Y469402D02*
X379195D01*
X375195Y465402D02*
Y473402D01*
X419230Y473200D02*
X427230D01*
X423230Y469200D02*
Y477200D01*
X340774Y481442D02*
X348774D01*
X344774Y477442D02*
Y485442D01*
X361219Y476632D02*
X369219D01*
Y484632*
X361219*
Y476632*
X365219Y480632D02*
Y484632D01*
X357702Y475801D02*
X365702D01*
Y483801*
X357702*
Y475801*
X361702Y479801D02*
Y483801D01*
X325707Y483259D02*
X333707D01*
Y491259*
X325707*
Y483259*
X329707Y487259D02*
Y491259D01*
X332142Y481822D02*
X340142D01*
Y489822*
X332142*
Y481822*
X336142Y485822D02*
Y489822D01*
X339102Y483955D02*
X347102D01*
Y491955*
X339102*
Y483955*
X343102Y487955D02*
Y491955D01*
X351205Y483408D02*
X359205D01*
Y491408*
X351205*
Y483408*
X355205Y487408D02*
Y491408D01*
X362822Y484275D02*
X370822D01*
Y492275*
X362822*
Y484275*
X366822Y488275D02*
Y492275D01*
X394189Y482752D02*
X402189D01*
Y490752*
X394189*
Y482752*
X398189Y486752D02*
Y490752D01*
X400924Y483338D02*
X408924D01*
Y491338*
X400924*
Y483338*
X404924Y487338D02*
Y491338D01*
X415581Y488162D02*
G75*
G03X418731Y485013I3150J0D01*
G01X415581Y488162D02*
Y500761D01*
X382313*
Y484225*
X376408D02*
G03X382313I2953J0D01*
G01X376408D02*
X376408D01*
Y500761*
X314400*
Y488162*
X311250Y485013D02*
G03X314400Y488162I0J3149D01*
G01X311250Y485013D02*
X300030D01*
Y300000*
X429951*
Y345658*
X429951*
Y485013*
X418731*
X300000Y420000D02*
X558000D01*
X300000Y396000D02*
X558000D01*
X300000Y372000D02*
X558000D01*
X300000Y348000D02*
X558000D01*
X300000Y324000D02*
X558000D01*
X300000Y300000D02*
X558000D01*
X300000Y420000D02*
Y300000D01*
X384000Y420000D02*
Y300000D01*
X420000Y420000D02*
Y300000D01*
X456000Y420000D02*
Y300000D01*
X510000Y420000D02*
Y300000D01*
X558000Y420000D02*
Y300000D01*
X335500Y408750D02*
X334955Y409500D01*
X334136Y409875*
X333045*
X332227Y409500*
X331682Y408750*
Y408000*
X331955Y407250*
X332227Y406875*
X332773Y406500*
X334409Y405750*
X334955Y405375*
X335227Y405000*
X335500Y404250*
Y403125*
X334955Y402375*
X334136Y402000*
X333045*
X332227Y402375*
X331682Y403125*
X337955Y409875D02*
Y402000D01*
X344227Y409875D02*
X340409Y402000D01*
Y409875D02*
X344227D01*
X340409Y402000D02*
X344227D01*
X346682Y409875D02*
Y402000D01*
Y409875D02*
X350227D01*
X346682Y406125D02*
X348864D01*
X346682Y402000D02*
X350227D01*
X393864Y409875D02*
X393318Y409500D01*
X392773Y408750*
X392500Y408000*
X392227Y406875*
Y405000*
X392500Y403875*
X392773Y403125*
X393318Y402375*
X393864Y402000*
X394955*
X395500Y402375*
X396045Y403125*
X396318Y403875*
X396591Y405000*
Y406875*
X396318Y408000*
X396045Y408750*
X395500Y409500*
X394955Y409875*
X393864*
X394682Y403500D02*
X396318Y401250D01*
X400955Y409875D02*
Y402000D01*
X399045Y409875D02*
X402864D01*
X405318D02*
X407500Y406125D01*
Y402000*
X409682Y409875D02*
X407500Y406125D01*
X432045Y408750D02*
X431500Y409500D01*
X430682Y409875*
X429591*
X428773Y409500*
X428227Y408750*
Y408000*
X428500Y407250*
X428773Y406875*
X429318Y406500*
X430955Y405750*
X431500Y405375*
X431773Y405000*
X432045Y404250*
Y403125*
X431500Y402375*
X430682Y402000*
X429591*
X428773Y402375*
X428227Y403125*
X434500Y409875D02*
X436682Y406125D01*
Y402000*
X438864Y409875D02*
X436682Y406125D01*
X441318Y409875D02*
Y402000D01*
Y409875D02*
X443500Y402000D01*
X445682Y409875D02*
X443500Y402000D01*
X445682Y409875D02*
Y402000D01*
X467500Y409875D02*
Y402000D01*
Y409875D02*
X469955D01*
X470773Y409500*
X471045Y409125*
X471318Y408375*
Y407250*
X471045Y406500*
X470773Y406125*
X469955Y405750*
X467500*
X473773Y409875D02*
Y402000D01*
X477045*
X481682Y409875D02*
X479500Y402000D01*
X481682Y409875D02*
X483864Y402000D01*
X480318Y404625D02*
X483045D01*
X488227Y409875D02*
Y402000D01*
X486318Y409875D02*
X490136D01*
X492591D02*
Y402000D01*
Y409875D02*
X496136D01*
X492591Y406125D02*
X494773D01*
X492591Y402000D02*
X496136D01*
X498591Y409875D02*
Y402000D01*
Y409875D02*
X500500D01*
X501318Y409500*
X501864Y408750*
X502136Y408000*
X502409Y406875*
Y405000*
X502136Y403875*
X501864Y403125*
X501318Y402375*
X500500Y402000*
X498591*
X526682Y409875D02*
Y402000D01*
X524773Y409875D02*
X528591D01*
X532682D02*
X532136Y409500D01*
X531591Y408750*
X531318Y408000*
X531045Y406875*
Y405000*
X531318Y403875*
X531591Y403125*
X532136Y402375*
X532682Y402000*
X533773*
X534318Y402375*
X534864Y403125*
X535136Y403875*
X535409Y405000*
Y406875*
X535136Y408000*
X534864Y408750*
X534318Y409500*
X533773Y409875*
X532682*
X537864D02*
Y402000D01*
X541136*
X306273Y384000D02*
Y384375D01*
X306545Y385125*
X306818Y385500*
X307364Y385875*
X308455*
X309000Y385500*
X309273Y385125*
X309545Y384375*
Y383625*
X309273Y382875*
X308727Y381750*
X306000Y378000*
X309818*
X315818Y385875D02*
X313091D01*
X312818Y382500*
X313091Y382875*
X313909Y383250*
X314727*
X315545Y382875*
X316091Y382125*
X316364Y381000*
X316091Y380250*
X315818Y379125*
X315273Y378375*
X314455Y378000*
X313636*
X312818Y378375*
X312545Y378750*
X312273Y379500*
X394000Y384375D02*
X394545Y384750D01*
X395364Y385875*
Y378000*
X399455Y385875D02*
X398636Y385500D01*
X398091Y384375*
X397818Y382500*
Y381375*
X398091Y379500*
X398636Y378375*
X399455Y378000*
X400000*
X400818Y378375*
X401364Y379500*
X401636Y381375*
Y382500*
X401364Y384375*
X400818Y385500*
X400000Y385875*
X399455*
X404364Y384000D02*
Y384375D01*
X404636Y385125*
X404909Y385500*
X405455Y385875*
X406545*
X407091Y385500*
X407364Y385125*
X407636Y384375*
Y383625*
X407364Y382875*
X406818Y381750*
X404091Y378000*
X407909*
X432000Y384000D02*
X444000D01*
X438000Y378000D02*
Y390000D01*
X464636Y385875D02*
X466818Y382125D01*
Y378000*
X469000Y385875D02*
X466818Y382125D01*
X471455Y385875D02*
Y378000D01*
Y385875D02*
X475000D01*
X471455Y382125D02*
X473636D01*
X471455Y378000D02*
X475000D01*
X481273Y384750D02*
X480727Y385500D01*
X479909Y385875*
X478818*
X478000Y385500*
X477455Y384750*
Y384000*
X477727Y383250*
X478000Y382875*
X478545Y382500*
X480182Y381750*
X480727Y381375*
X481000Y381000*
X481273Y380250*
Y379125*
X480727Y378375*
X479909Y378000*
X478818*
X478000Y378375*
X477455Y379125*
X517818Y384750D02*
Y378000D01*
X515364Y381375D02*
X520273D01*
X527636Y387375D02*
X522727Y375375D01*
X530091Y381375D02*
X535000D01*
X539091Y385875D02*
X538273Y385500D01*
X537727Y384375*
X537455Y382500*
Y381375*
X537727Y379500*
X538273Y378375*
X539091Y378000*
X539636*
X540455Y378375*
X541000Y379500*
X541273Y381375*
Y382500*
X541000Y384375*
X540455Y385500*
X539636Y385875*
X539091*
X544000Y378750D02*
X543727Y378375D01*
X544000Y378000*
X544273Y378375*
X544000Y378750*
X548364Y385875D02*
X547545Y385500D01*
X547000Y384375*
X546727Y382500*
Y381375*
X547000Y379500*
X547545Y378375*
X548364Y378000*
X548909*
X549727Y378375*
X550273Y379500*
X550545Y381375*
Y382500*
X550273Y384375*
X549727Y385500*
X548909Y385875*
X548364*
X307364Y361875D02*
X306545Y361500D01*
X306273Y360750*
Y360000*
X306545Y359250*
X307091Y358875*
X308182Y358500*
X309000Y358125*
X309545Y357375*
X309818Y356625*
Y355500*
X309545Y354750*
X309273Y354375*
X308455Y354000*
X307364*
X306545Y354375*
X306273Y354750*
X306000Y355500*
Y356625*
X306273Y357375*
X306818Y358125*
X307636Y358500*
X308727Y358875*
X309273Y359250*
X309545Y360000*
Y360750*
X309273Y361500*
X308455Y361875*
X307364*
X315545Y360750D02*
X315273Y361500D01*
X314455Y361875*
X313909*
X313091Y361500*
X312545Y360375*
X312273Y358500*
Y356625*
X312545Y355125*
X313091Y354375*
X313909Y354000*
X314182*
X315000Y354375*
X315545Y355125*
X315818Y356250*
Y356625*
X315545Y357750*
X315000Y358500*
X314182Y358875*
X313909*
X313091Y358500*
X312545Y357750*
X312273Y356625*
X318545Y354750D02*
X318273Y354375D01*
X318545Y354000*
X318818Y354375*
X318545Y354750*
X324545Y360750D02*
X324273Y361500D01*
X323455Y361875*
X322909*
X322091Y361500*
X321545Y360375*
X321273Y358500*
Y356625*
X321545Y355125*
X322091Y354375*
X322909Y354000*
X323182*
X324000Y354375*
X324545Y355125*
X324818Y356250*
Y356625*
X324545Y357750*
X324000Y358500*
X323182Y358875*
X322909*
X322091Y358500*
X321545Y357750*
X321273Y356625*
X327273Y360375D02*
X327818Y360750D01*
X328636Y361875*
Y354000*
X399318Y360000D02*
Y360375D01*
X399591Y361125*
X399864Y361500*
X400409Y361875*
X401500*
X402045Y361500*
X402318Y361125*
X402591Y360375*
Y359625*
X402318Y358875*
X401773Y357750*
X399045Y354000*
X402864*
X432000D02*
X444000Y366000D01*
X432000D02*
X444000Y354000D01*
X464636Y361875D02*
X466818Y358125D01*
Y354000*
X469000Y361875D02*
X466818Y358125D01*
X471455Y361875D02*
Y354000D01*
Y361875D02*
X475000D01*
X471455Y358125D02*
X473636D01*
X471455Y354000D02*
X475000D01*
X481273Y360750D02*
X480727Y361500D01*
X479909Y361875*
X478818*
X478000Y361500*
X477455Y360750*
Y360000*
X477727Y359250*
X478000Y358875*
X478545Y358500*
X480182Y357750*
X480727Y357375*
X481000Y357000*
X481273Y356250*
Y355125*
X480727Y354375*
X479909Y354000*
X478818*
X478000Y354375*
X477455Y355125*
X517818Y360750D02*
Y354000D01*
X515364Y357375D02*
X520273D01*
X527636Y363375D02*
X522727Y351375D01*
X530091Y357375D02*
X535000D01*
X539091Y361875D02*
X538273Y361500D01*
X537727Y360375*
X537455Y358500*
Y357375*
X537727Y355500*
X538273Y354375*
X539091Y354000*
X539636*
X540455Y354375*
X541000Y355500*
X541273Y357375*
Y358500*
X541000Y360375*
X540455Y361500*
X539636Y361875*
X539091*
X544000Y354750D02*
X543727Y354375D01*
X544000Y354000*
X544273Y354375*
X544000Y354750*
X548364Y361875D02*
X547545Y361500D01*
X547000Y360375*
X546727Y358500*
Y357375*
X547000Y355500*
X547545Y354375*
X548364Y354000*
X548909*
X549727Y354375*
X550273Y355500*
X550545Y357375*
Y358500*
X550273Y360375*
X549727Y361500*
X548909Y361875*
X548364*
X306000Y336375D02*
X306545Y336750D01*
X307364Y337875*
Y330000*
X310091Y336000D02*
Y336375D01*
X310364Y337125*
X310636Y337500*
X311182Y337875*
X312273*
X312818Y337500*
X313091Y337125*
X313364Y336375*
Y335625*
X313091Y334875*
X312545Y333750*
X309818Y330000*
X313636*
X396455Y337875D02*
X399455D01*
X397818Y334875*
X398636*
X399182Y334500*
X399455Y334125*
X399727Y333000*
Y332250*
X399455Y331125*
X398909Y330375*
X398091Y330000*
X397273*
X396455Y330375*
X396182Y330750*
X395909Y331500*
X403545Y337875D02*
X402727Y337500D01*
X402455Y336750*
Y336000*
X402727Y335250*
X403273Y334875*
X404364Y334500*
X405182Y334125*
X405727Y333375*
X406000Y332625*
Y331500*
X405727Y330750*
X405455Y330375*
X404636Y330000*
X403545*
X402727Y330375*
X402455Y330750*
X402182Y331500*
Y332625*
X402455Y333375*
X403000Y334125*
X403818Y334500*
X404909Y334875*
X405455Y335250*
X405727Y336000*
Y336750*
X405455Y337500*
X404636Y337875*
X403545*
X432000Y330000D02*
X444000D01*
Y342000*
X432000*
Y330000*
X438000Y336000D02*
Y342000D01*
X464636Y337875D02*
X466818Y334125D01*
Y330000*
X469000Y337875D02*
X466818Y334125D01*
X471455Y337875D02*
Y330000D01*
Y337875D02*
X475000D01*
X471455Y334125D02*
X473636D01*
X471455Y330000D02*
X475000D01*
X481273Y336750D02*
X480727Y337500D01*
X479909Y337875*
X478818*
X478000Y337500*
X477455Y336750*
Y336000*
X477727Y335250*
X478000Y334875*
X478545Y334500*
X480182Y333750*
X480727Y333375*
X481000Y333000*
X481273Y332250*
Y331125*
X480727Y330375*
X479909Y330000*
X478818*
X478000Y330375*
X477455Y331125*
X517818Y336750D02*
Y330000D01*
X515364Y333375D02*
X520273D01*
X527636Y339375D02*
X522727Y327375D01*
X530091Y333375D02*
X535000D01*
X539091Y337875D02*
X538273Y337500D01*
X537727Y336375*
X537455Y334500*
Y333375*
X537727Y331500*
X538273Y330375*
X539091Y330000*
X539636*
X540455Y330375*
X541000Y331500*
X541273Y333375*
Y334500*
X541000Y336375*
X540455Y337500*
X539636Y337875*
X539091*
X544000Y330750D02*
X543727Y330375D01*
X544000Y330000*
X544273Y330375*
X544000Y330750*
X548364Y337875D02*
X547545Y337500D01*
X547000Y336375*
X546727Y334500*
Y333375*
X547000Y331500*
X547545Y330375*
X548364Y330000*
X548909*
X549727Y330375*
X550273Y331500*
X550545Y333375*
Y334500*
X550273Y336375*
X549727Y337500*
X548909Y337875*
X548364*
X306545Y313875D02*
X309545D01*
X307909Y310875*
X308727*
X309273Y310500*
X309545Y310125*
X309818Y309000*
Y308250*
X309545Y307125*
X309000Y306375*
X308182Y306000*
X307364*
X306545Y306375*
X306273Y306750*
X306000Y307500*
X315818Y313875D02*
X313091D01*
X312818Y310500*
X313091Y310875*
X313909Y311250*
X314727*
X315545Y310875*
X316091Y310125*
X316364Y309000*
X316091Y308250*
X315818Y307125*
X315273Y306375*
X314455Y306000*
X313636*
X312818Y306375*
X312545Y306750*
X312273Y307500*
X319091Y306750D02*
X318818Y306375D01*
X319091Y306000*
X319364Y306375*
X319091Y306750*
X324545Y313875D02*
X321818Y308625D01*
X325909*
X324545Y313875D02*
Y306000D01*
X328909Y313875D02*
X331909D01*
X330273Y310875*
X331091*
X331636Y310500*
X331909Y310125*
X332182Y309000*
Y308250*
X331909Y307125*
X331364Y306375*
X330545Y306000*
X329727*
X328909Y306375*
X328636Y306750*
X328364Y307500*
X402864Y313875D02*
X400136Y306000D01*
X399045Y313875D02*
X402864D01*
X438000Y306000D02*
X444000Y312000D01*
X438000Y318000*
X432000Y312000*
X438000Y306000*
Y312000D02*
Y318000D01*
X464636Y313875D02*
X466818Y310125D01*
Y306000*
X469000Y313875D02*
X466818Y310125D01*
X471455Y313875D02*
Y306000D01*
Y313875D02*
X475000D01*
X471455Y310125D02*
X473636D01*
X471455Y306000D02*
X475000D01*
X481273Y312750D02*
X480727Y313500D01*
X479909Y313875*
X478818*
X478000Y313500*
X477455Y312750*
Y312000*
X477727Y311250*
X478000Y310875*
X478545Y310500*
X480182Y309750*
X480727Y309375*
X481000Y309000*
X481273Y308250*
Y307125*
X480727Y306375*
X479909Y306000*
X478818*
X478000Y306375*
X477455Y307125*
X517818Y312750D02*
Y306000D01*
X515364Y309375D02*
X520273D01*
X527636Y315375D02*
X522727Y303375D01*
X530091Y309375D02*
X535000D01*
X539091Y313875D02*
X538273Y313500D01*
X537727Y312375*
X537455Y310500*
Y309375*
X537727Y307500*
X538273Y306375*
X539091Y306000*
X539636*
X540455Y306375*
X541000Y307500*
X541273Y309375*
Y310500*
X541000Y312375*
X540455Y313500*
X539636Y313875*
X539091*
X544000Y306750D02*
X543727Y306375D01*
X544000Y306000*
X544273Y306375*
X544000Y306750*
X548364Y313875D02*
X547545Y313500D01*
X547000Y312375*
X546727Y310500*
Y309375*
X547000Y307500*
X547545Y306375*
X548364Y306000*
X548909*
X549727Y306375*
X550273Y307500*
X550545Y309375*
Y310500*
X550273Y312375*
X549727Y313500*
X548909Y313875*
X548364*
G74*
X0Y0D02*
M02*
