*
*
G04 PADS VX.2.3 Build Number: 9191294 generated Gerber (RS-274-X) file*
G04 PC Version=2.1*
*
%IN "GETWAY_EXE_MCU_ZM_V1.0_"*%
*
%MOIN*%
*
%FSLAX35Y35*%
*
*
*
*
G04 PC Standard Apertures*
*
*
G04 Thermal Relief Aperture macro.*
%AMTER*
1,1,$1,0,0*
1,0,$1-$2,0,0*
21,0,$3,$4,0,0,45*
21,0,$3,$4,0,0,135*
%
*
*
G04 Annular Aperture macro.*
%AMANN*
1,1,$1,0,0*
1,0,$2,0,0*
%
*
*
G04 Odd Aperture macro.*
%AMODD*
1,1,$1,0,0*
1,0,$1-0.005,0,0*
%
*
*
G04 PC Custom Aperture Macros*
*
*
*
*
*
*
G04 PC Aperture Table*
*
%ADD010C,0.001*%
%ADD042R,0.04149X0.0478*%
%ADD045R,0.0478X0.04149*%
%ADD049ANN,0.06906X0.04543*%
%ADD050R,0.048X0.048*%
%ADD068R,0.06512X0.05528*%
%ADD069R,0.02969X0.02969*%
%ADD070R,0.02968X0.02969*%
%ADD071R,0.02063X0.07102*%
%ADD072R,0.07102X0.02063*%
%ADD073R,0.03362X0.10055*%
%ADD074C,0.16748*%
%ADD075R,0.03559X0.10055*%
*
*
*
*
G04 PC Circuitry*
G04 Layer Name GETWAY_EXE_MCU_ZM_V1.0_ - circuitry*
%LPD*%
*
*
G04 PC Custom Flashes*
G04 Layer Name GETWAY_EXE_MCU_ZM_V1.0_ - flashes*
%LPD*%
*
*
G04 PC Circuitry*
G04 Layer Name GETWAY_EXE_MCU_ZM_V1.0_ - circuitry*
%LPD*%
*
G54D10*
G54D42*
G01X143447Y259550D03*
Y265849D03*
X149128Y259550D03*
Y265849D03*
X178291Y170567D03*
Y164268D03*
G54D45*
X127573Y200098D03*
X121274D03*
X196771Y233003D03*
X203070D03*
X196771Y202015D03*
X203070D03*
X196771Y227677D03*
X203070D03*
X196771Y207685D03*
X203070D03*
G54D49*
X221548Y242053D03*
Y232053D03*
Y222053D03*
X110436Y221443D03*
Y231443D03*
Y241443D03*
Y251443D03*
G54D50*
X174477Y258789D03*
Y252489D03*
X136142Y260039D03*
Y266339D03*
X127421Y208000D03*
X121121D03*
X171020Y170415D03*
Y164115D03*
X202924Y218264D03*
X196624D03*
X125964Y266339D03*
Y260039D03*
X183387Y252455D03*
Y258755D03*
G54D68*
X155271Y171585D03*
X145035D03*
Y165285D03*
X155271D03*
G54D69*
X138374Y171454D03*
X162513Y167854D03*
G54D70*
X138374Y167910D03*
X162513Y171398D03*
G54D71*
X148088Y192689D03*
X150057D03*
X152025D03*
X153994D03*
X155962D03*
X157931D03*
X159899D03*
X161868D03*
X163836D03*
X165805D03*
X167773D03*
X169742D03*
X171710D03*
X173679D03*
X175647D03*
X177616D03*
Y236980D03*
X175647D03*
X173679D03*
X171710D03*
X169742D03*
X167773D03*
X165805D03*
X163836D03*
X161868D03*
X159899D03*
X157931D03*
X155962D03*
X153994D03*
X152025D03*
X150057D03*
X148088D03*
G54D72*
X184997Y200071D03*
Y202039D03*
Y204008D03*
Y205976D03*
Y207945D03*
Y209913D03*
Y211882D03*
Y213850D03*
Y215819D03*
Y217787D03*
Y219756D03*
Y221724D03*
Y223693D03*
Y225661D03*
Y227630D03*
Y229598D03*
X140706D03*
Y227630D03*
Y225661D03*
Y223693D03*
Y221724D03*
Y219756D03*
Y217787D03*
Y215819D03*
Y213850D03*
Y211882D03*
Y209913D03*
Y207945D03*
Y205976D03*
Y204008D03*
Y202039D03*
Y200071D03*
G54D73*
X210628Y295413D03*
X207478D03*
G54D74*
X211219Y115885D03*
X115943D03*
G54D75*
X204329Y295413D03*
X201179D03*
X198030D03*
X194880D03*
X191730D03*
X188581D03*
X172833D03*
X169683D03*
X166533D03*
X163384D03*
X160234D03*
X157085D03*
X153935D03*
X150785D03*
X147636D03*
X144486D03*
X141337D03*
X138187D03*
X135037D03*
X131888D03*
X128738D03*
X125589D03*
X122439D03*
X119289D03*
X0Y0D02*
M02*
