*
*
G04 PADS VX.1.2 Build Number: 698008 generated Gerber (RS-274-X) file*
G04 PC Version=2.1*
*
%IN "GetWay_Power_ZM_V1.0_20"*%
*
%MOIN*%
*
%FSLAX35Y35*%
*
*
*
*
G04 PC Standard Apertures*
*
*
G04 Thermal Relief Aperture macro.*
%AMTER*
1,1,$1,0,0*
1,0,$1-$2,0,0*
21,0,$3,$4,0,0,45*
21,0,$3,$4,0,0,135*
%
*
*
G04 Annular Aperture macro.*
%AMANN*
1,1,$1,0,0*
1,0,$2,0,0*
%
*
*
G04 Odd Aperture macro.*
%AMODD*
1,1,$1,0,0*
1,0,$1-0.005,0,0*
%
*
*
G04 PC Custom Aperture Macros*
*
*
*
*
*
*
G04 PC Aperture Table*
*
%ADD010C,0.001*%
%ADD020C,0.01*%
*
*
*
*
G04 PC Circuitry*
G04 Layer Name GetWay_Power_ZM_V1.0_20 - circuitry*
%LPD*%
*
*
G04 PC Custom Flashes*
G04 Layer Name GetWay_Power_ZM_V1.0_20 - flashes*
%LPD*%
*
*
G04 PC Circuitry*
G04 Layer Name GetWay_Power_ZM_V1.0_20 - circuitry*
%LPD*%
*
G54D10*
G54D20*
G01X887950Y692411D02*
X891950Y696411D01*
X887950Y700411*
X883950Y696411*
X887950Y692411*
Y696411D02*
Y700411D01*
X927520Y692611D02*
X931520Y696611D01*
X927520Y700611*
X923520Y696611*
X927520Y692611*
Y696611D02*
Y700611D01*
Y710327D02*
X931520Y714327D01*
X927520Y718327*
X923520Y714327*
X927520Y710327*
Y714327D02*
Y718327D01*
X888150Y710327D02*
X892150Y714327D01*
X888150Y718327*
X884150Y714327*
X888150Y710327*
Y714327D02*
Y718327D01*
X857857Y713218D02*
X861857Y717218D01*
X857857Y721218*
X853857Y717218*
X857857Y713218*
Y717218D02*
Y721218D01*
X858057Y673648D02*
X862057Y677648D01*
X858057Y681648*
X854057Y677648*
X858057Y673648*
Y677648D02*
Y681648D01*
X816426Y685387D02*
X824426Y693387D01*
Y685387*
X816426Y693387*
Y685387*
Y705387D02*
X824426Y713387D01*
Y705387*
X816426Y713387*
Y705387*
Y725387D02*
X824426Y733387D01*
Y725387*
X816426Y733387*
Y725387*
X853300Y641900D02*
X861300D01*
X853300Y649900*
X861300*
X853300Y641900*
X865111D02*
X873111D01*
X865111Y649900*
X873111*
X865111Y641900*
X1193638Y618898D02*
X1201638D01*
X1197638Y614898D02*
Y622898D01*
X1193638Y784252D02*
X1201638D01*
X1197638Y780252D02*
Y788252D01*
X811748Y618898D02*
X819748D01*
X815748Y614898D02*
Y622898D01*
X811748Y784252D02*
X819748D01*
X815748Y780252D02*
Y788252D01*
X959476Y766581D02*
X967476Y774581D01*
X959476D02*
X967476Y766581D01*
X959476Y697683D02*
X967476Y705683D01*
X959476D02*
X967476Y697683D01*
X959476Y628786D02*
X967476Y636786D01*
X959476D02*
X967476Y628786D01*
X1144515Y737053D02*
X1152515Y745053D01*
X1144515D02*
X1152515Y737053D01*
X1144515Y658313D02*
X1152515Y666313D01*
X1144515D02*
X1152515Y658313D01*
X817000Y641800D02*
X821000Y645800D01*
X817000Y649800*
X813000Y645800*
X817000Y641800*
Y645800D02*
Y649800D01*
X837200Y642000D02*
X841200Y646000D01*
X837200Y650000*
X833200Y646000*
X837200Y642000*
Y646000D02*
Y650000D01*
X837210Y663187D02*
X841210Y667187D01*
X837210Y671187*
X833210Y667187*
X837210Y663187*
Y667187D02*
Y671187D01*
X817010Y662987D02*
X821010Y666987D01*
X817010Y670987*
X813010Y666987*
X817010Y662987*
Y666987D02*
Y670987D01*
X1184983Y687522D02*
X1192983Y695522D01*
Y687522*
X1184983Y695522*
Y687522*
Y707522D02*
X1192983Y715522D01*
Y707522*
X1184983Y715522*
Y707522*
X888046Y671689D02*
X892046Y675689D01*
X888046Y679689*
X884046Y675689*
X888046Y671689*
Y675689D02*
Y679689D01*
X927616Y671889D02*
X931616Y675889D01*
X927616Y679889*
X923616Y675889*
X927616Y671889*
Y675889D02*
Y679889D01*
X927720Y731256D02*
X931720Y735256D01*
X927720Y739256*
X923720Y735256*
X927720Y731256*
Y735256D02*
Y739256D01*
X888150Y731056D02*
X892150Y735056D01*
X888150Y739056*
X884150Y735056*
X888150Y731056*
Y735056D02*
Y739056D01*
X1046271Y618771D02*
X1054271D01*
Y626771*
X1046271*
Y618771*
X1050271Y622771D02*
Y626771D01*
X1039200Y625842D02*
X1047200D01*
Y633842*
X1039200*
Y625842*
X1043200Y629842D02*
Y633842D01*
X1039200Y611700D02*
X1047200D01*
Y619700*
X1039200*
Y611700*
X1043200Y615700D02*
Y619700D01*
X1067484Y625842D02*
X1075484D01*
Y633842*
X1067484*
Y625842*
X1071484Y629842D02*
Y633842D01*
X1067484Y611700D02*
X1075484D01*
Y619700*
X1067484*
Y611700*
X1071484Y615700D02*
Y619700D01*
X1060413Y618771D02*
X1068413D01*
Y626771*
X1060413*
Y618771*
X1064413Y622771D02*
Y626771D01*
X1053342Y625842D02*
X1061342D01*
Y633842*
X1053342*
Y625842*
X1057342Y629842D02*
Y633842D01*
X1053342Y611700D02*
X1061342D01*
Y619700*
X1053342*
Y611700*
X1057342Y615700D02*
Y619700D01*
X1088697Y618771D02*
X1096697D01*
Y626771*
X1088697*
Y618771*
X1092697Y622771D02*
Y626771D01*
X1081626Y625842D02*
X1089626D01*
Y633842*
X1081626*
Y625842*
X1085626Y629842D02*
Y633842D01*
X1081626Y611700D02*
X1089626D01*
Y619700*
X1081626*
Y611700*
X1085626Y615700D02*
Y619700D01*
X1074555Y618771D02*
X1082555D01*
Y626771*
X1074555*
Y618771*
X1078555Y622771D02*
Y626771D01*
X1109911Y625842D02*
X1117911D01*
Y633842*
X1109911*
Y625842*
X1113911Y629842D02*
Y633842D01*
X1109911Y611700D02*
X1117911D01*
Y619700*
X1109911*
Y611700*
X1113911Y615700D02*
Y619700D01*
X1102840Y618771D02*
X1110840D01*
Y626771*
X1102840*
Y618771*
X1106840Y622771D02*
Y626771D01*
X1095769Y625842D02*
X1103769D01*
Y633842*
X1095769*
Y625842*
X1099769Y629842D02*
Y633842D01*
X1095769Y611700D02*
X1103769D01*
Y619700*
X1095769*
Y611700*
X1099769Y615700D02*
Y619700D01*
X1131124Y618771D02*
X1139124D01*
Y626771*
X1131124*
Y618771*
X1135124Y622771D02*
Y626771D01*
X1124053Y625842D02*
X1132053D01*
Y633842*
X1124053*
Y625842*
X1128053Y629842D02*
Y633842D01*
X1124053Y611700D02*
X1132053D01*
Y619700*
X1124053*
Y611700*
X1128053Y615700D02*
Y619700D01*
X1116982Y618771D02*
X1124982D01*
Y626771*
X1116982*
Y618771*
X1120982Y622771D02*
Y626771D01*
X1145266Y618771D02*
X1153266D01*
Y626771*
X1145266*
Y618771*
X1149266Y622771D02*
Y626771D01*
X1138195Y625842D02*
X1146195D01*
Y633842*
X1138195*
Y625842*
X1142195Y629842D02*
Y633842D01*
X1138195Y611700D02*
X1146195D01*
Y619700*
X1138195*
Y611700*
X1142195Y615700D02*
Y619700D01*
X1152337Y625842D02*
X1160337D01*
Y633842*
X1152337*
Y625842*
X1156337Y629842D02*
Y633842D01*
X1152337Y611700D02*
X1160337D01*
Y619700*
X1152337*
Y611700*
X1156337Y615700D02*
Y619700D01*
X1046271Y647055D02*
X1054271D01*
Y655055*
X1046271*
Y647055*
X1050271Y651055D02*
Y655055D01*
X1046271Y632913D02*
X1054271D01*
Y640913*
X1046271*
Y632913*
X1050271Y636913D02*
Y640913D01*
X1039200Y639984D02*
X1047200D01*
Y647984*
X1039200*
Y639984*
X1043200Y643984D02*
Y647984D01*
X1067484Y639984D02*
X1075484D01*
Y647984*
X1067484*
Y639984*
X1071484Y643984D02*
Y647984D01*
X1060413Y647055D02*
X1068413D01*
Y655055*
X1060413*
Y647055*
X1064413Y651055D02*
Y655055D01*
X1060413Y632913D02*
X1068413D01*
Y640913*
X1060413*
Y632913*
X1064413Y636913D02*
Y640913D01*
X1053342Y639984D02*
X1061342D01*
Y647984*
X1053342*
Y639984*
X1057342Y643984D02*
Y647984D01*
X1088697Y647055D02*
X1096697D01*
Y655055*
X1088697*
Y647055*
X1092697Y651055D02*
Y655055D01*
X1088697Y632913D02*
X1096697D01*
Y640913*
X1088697*
Y632913*
X1092697Y636913D02*
Y640913D01*
X1081626Y639984D02*
X1089626D01*
Y647984*
X1081626*
Y639984*
X1085626Y643984D02*
Y647984D01*
X1074555Y647055D02*
X1082555D01*
Y655055*
X1074555*
Y647055*
X1078555Y651055D02*
Y655055D01*
X1074555Y632913D02*
X1082555D01*
Y640913*
X1074555*
Y632913*
X1078555Y636913D02*
Y640913D01*
X1109911Y639984D02*
X1117911D01*
Y647984*
X1109911*
Y639984*
X1113911Y643984D02*
Y647984D01*
X1102840Y647055D02*
X1110840D01*
Y655055*
X1102840*
Y647055*
X1106840Y651055D02*
Y655055D01*
X1102840Y632913D02*
X1110840D01*
Y640913*
X1102840*
Y632913*
X1106840Y636913D02*
Y640913D01*
X1095769Y639984D02*
X1103769D01*
Y647984*
X1095769*
Y639984*
X1099769Y643984D02*
Y647984D01*
X1131124Y647055D02*
X1139124D01*
Y655055*
X1131124*
Y647055*
X1135124Y651055D02*
Y655055D01*
X1131124Y632913D02*
X1139124D01*
Y640913*
X1131124*
Y632913*
X1135124Y636913D02*
Y640913D01*
X1124053Y639984D02*
X1132053D01*
Y647984*
X1124053*
Y639984*
X1128053Y643984D02*
Y647984D01*
X1116982Y647055D02*
X1124982D01*
Y655055*
X1116982*
Y647055*
X1120982Y651055D02*
Y655055D01*
X1116982Y632913D02*
X1124982D01*
Y640913*
X1116982*
Y632913*
X1120982Y636913D02*
Y640913D01*
X1145266Y647055D02*
X1153266D01*
Y655055*
X1145266*
Y647055*
X1149266Y651055D02*
Y655055D01*
X1145266Y632913D02*
X1153266D01*
Y640913*
X1145266*
Y632913*
X1149266Y636913D02*
Y640913D01*
X1138195Y639984D02*
X1146195D01*
Y647984*
X1138195*
Y639984*
X1142195Y643984D02*
Y647984D01*
X1166479Y639984D02*
X1174479D01*
Y647984*
X1166479*
Y639984*
X1170479Y643984D02*
Y647984D01*
X1159408Y647055D02*
X1167408D01*
Y655055*
X1159408*
Y647055*
X1163408Y651055D02*
Y655055D01*
X1152337Y639984D02*
X1160337D01*
Y647984*
X1152337*
Y639984*
X1156337Y643984D02*
Y647984D01*
X1180621Y639984D02*
X1188621D01*
Y647984*
X1180621*
Y639984*
X1184621Y643984D02*
Y647984D01*
X1173550Y647055D02*
X1181550D01*
Y655055*
X1173550*
Y647055*
X1177550Y651055D02*
Y655055D01*
X1201835Y647055D02*
X1209835D01*
Y655055*
X1201835*
Y647055*
X1205835Y651055D02*
Y655055D01*
X1194764Y639984D02*
X1202764D01*
X1202764D02*
Y647984D01*
X1202764D02*
X1194764D01*
X1194764D02*
Y639984D01*
X1198764Y643984D02*
Y647984D01*
X1046271Y661197D02*
X1054271D01*
Y669197*
X1046271*
Y661197*
X1050271Y665197D02*
Y669197D01*
X1039200Y668269D02*
X1047200D01*
Y676269*
X1039200*
Y668269*
X1043200Y672269D02*
Y676269D01*
X1039200Y654126D02*
X1047200D01*
Y662126*
X1039200*
Y654126*
X1043200Y658126D02*
Y662126D01*
X1067484Y668269D02*
X1075484D01*
Y676269*
X1067484*
Y668269*
X1071484Y672269D02*
Y676269D01*
X1067484Y654126D02*
X1075484D01*
Y662126*
X1067484*
Y654126*
X1071484Y658126D02*
Y662126D01*
X1060413Y661197D02*
X1068413D01*
Y669197*
X1060413*
Y661197*
X1064413Y665197D02*
Y669197D01*
X1053342Y668269D02*
X1061342D01*
Y676269*
X1053342*
Y668269*
X1057342Y672269D02*
Y676269D01*
X1053342Y654126D02*
X1061342D01*
Y662126*
X1053342*
Y654126*
X1057342Y658126D02*
Y662126D01*
X1088697Y661197D02*
X1096697D01*
Y669197*
X1088697*
Y661197*
X1092697Y665197D02*
Y669197D01*
X1081626Y668269D02*
X1089626D01*
Y676269*
X1081626*
Y668269*
X1085626Y672269D02*
Y676269D01*
X1081626Y654126D02*
X1089626D01*
Y662126*
X1081626*
Y654126*
X1085626Y658126D02*
Y662126D01*
X1074555Y661197D02*
X1082555D01*
Y669197*
X1074555*
Y661197*
X1078555Y665197D02*
Y669197D01*
X1109911Y668269D02*
X1117911D01*
Y676269*
X1109911*
Y668269*
X1113911Y672269D02*
Y676269D01*
X1109911Y654126D02*
X1117911D01*
Y662126*
X1109911*
Y654126*
X1113911Y658126D02*
Y662126D01*
X1102840Y661197D02*
X1110840D01*
Y669197*
X1102840*
Y661197*
X1106840Y665197D02*
Y669197D01*
X1095769Y668269D02*
X1103769D01*
Y676269*
X1095769*
Y668269*
X1099769Y672269D02*
Y676269D01*
X1095769Y654126D02*
X1103769D01*
Y662126*
X1095769*
Y654126*
X1099769Y658126D02*
Y662126D01*
X1131124Y661197D02*
X1139124D01*
Y669197*
X1131124*
Y661197*
X1135124Y665197D02*
Y669197D01*
X1124053Y668269D02*
X1132053D01*
Y676269*
X1124053*
Y668269*
X1128053Y672269D02*
Y676269D01*
X1124053Y654126D02*
X1132053D01*
Y662126*
X1124053*
Y654126*
X1128053Y658126D02*
Y662126D01*
X1116982Y661197D02*
X1124982D01*
Y669197*
X1116982*
Y661197*
X1120982Y665197D02*
Y669197D01*
X1138195Y668269D02*
X1146195D01*
Y676269*
X1138195*
Y668269*
X1142195Y672269D02*
Y676269D01*
X1166479Y668269D02*
X1174479D01*
Y676269*
X1166479*
Y668269*
X1170479Y672269D02*
Y676269D01*
X1166479Y654126D02*
X1174479D01*
Y662126*
X1166479*
Y654126*
X1170479Y658126D02*
Y662126D01*
X1159408Y661197D02*
X1167408D01*
Y669197*
X1159408*
Y661197*
X1163408Y665197D02*
Y669197D01*
X1152337Y654126D02*
X1160337D01*
Y662126*
X1152337*
Y654126*
X1156337Y658126D02*
Y662126D01*
X1173550Y661197D02*
X1181550D01*
Y669197*
X1173550*
Y661197*
X1177550Y665197D02*
Y669197D01*
X1201835Y661197D02*
X1209835D01*
Y669197*
X1201835*
Y661197*
X1205835Y665197D02*
Y669197D01*
X1194764Y668269D02*
X1202764D01*
X1202764D02*
Y676269D01*
X1202764D02*
X1194764D01*
X1194764D02*
Y668269D01*
X1198764Y672269D02*
Y676269D01*
X1194764Y654126D02*
X1202764D01*
X1202764D02*
Y662126D01*
X1202764D02*
X1194764D01*
X1194764D02*
Y654126D01*
X1198764Y658126D02*
Y662126D01*
X1046271Y675340D02*
X1054271D01*
Y683340*
X1046271*
Y675340*
X1050271Y679340D02*
Y683340D01*
X1039200Y682411D02*
X1047200D01*
Y690411*
X1039200*
Y682411*
X1043200Y686411D02*
Y690411D01*
X1067484Y682411D02*
X1075484D01*
Y690411*
X1067484*
Y682411*
X1071484Y686411D02*
Y690411D01*
X1060413Y675340D02*
X1068413D01*
Y683340*
X1060413*
Y675340*
X1064413Y679340D02*
Y683340D01*
X1053342Y682411D02*
X1061342D01*
Y690411*
X1053342*
Y682411*
X1057342Y686411D02*
Y690411D01*
X1088697Y675340D02*
X1096697D01*
Y683340*
X1088697*
Y675340*
X1092697Y679340D02*
Y683340D01*
X1081626Y682411D02*
X1089626D01*
Y690411*
X1081626*
Y682411*
X1085626Y686411D02*
Y690411D01*
X1074555Y675340D02*
X1082555D01*
Y683340*
X1074555*
Y675340*
X1078555Y679340D02*
Y683340D01*
X1109911Y682411D02*
X1117911D01*
Y690411*
X1109911*
Y682411*
X1113911Y686411D02*
Y690411D01*
X1102840Y675340D02*
X1110840D01*
Y683340*
X1102840*
Y675340*
X1106840Y679340D02*
Y683340D01*
X1095769Y682411D02*
X1103769D01*
Y690411*
X1095769*
Y682411*
X1099769Y686411D02*
Y690411D01*
X1131124Y675340D02*
X1139124D01*
Y683340*
X1131124*
Y675340*
X1135124Y679340D02*
Y683340D01*
X1124053Y682411D02*
X1132053D01*
Y690411*
X1124053*
Y682411*
X1128053Y686411D02*
Y690411D01*
X1116982Y675340D02*
X1124982D01*
Y683340*
X1116982*
Y675340*
X1120982Y679340D02*
Y683340D01*
X1145266Y675340D02*
X1153266D01*
Y683340*
X1145266*
Y675340*
X1149266Y679340D02*
Y683340D01*
X1138195Y682411D02*
X1146195D01*
Y690411*
X1138195*
Y682411*
X1142195Y686411D02*
Y690411D01*
X1152337Y682411D02*
X1160337D01*
Y690411*
X1152337*
Y682411*
X1156337Y686411D02*
Y690411D01*
X1173550Y675340D02*
X1181550D01*
Y683340*
X1173550*
Y675340*
X1177550Y679340D02*
Y683340D01*
X1201835Y675340D02*
X1209835D01*
Y683340*
X1201835*
Y675340*
X1205835Y679340D02*
Y683340D01*
X1194764Y682411D02*
X1202764D01*
X1202764D02*
Y690411D01*
X1202764D02*
X1194764D01*
X1194764D02*
Y682411D01*
X1198764Y686411D02*
Y690411D01*
X1046271Y703624D02*
X1054271D01*
Y711624*
X1046271*
Y703624*
X1050271Y707624D02*
Y711624D01*
X1046271Y689482D02*
X1054271D01*
Y697482*
X1046271*
Y689482*
X1050271Y693482D02*
Y697482D01*
X1039200Y696553D02*
X1047200D01*
Y704553*
X1039200*
Y696553*
X1043200Y700553D02*
Y704553D01*
X1067484Y696553D02*
X1075484D01*
Y704553*
X1067484*
Y696553*
X1071484Y700553D02*
Y704553D01*
X1060413Y703624D02*
X1068413D01*
Y711624*
X1060413*
Y703624*
X1064413Y707624D02*
Y711624D01*
X1060413Y689482D02*
X1068413D01*
Y697482*
X1060413*
Y689482*
X1064413Y693482D02*
Y697482D01*
X1053342Y696553D02*
X1061342D01*
Y704553*
X1053342*
Y696553*
X1057342Y700553D02*
Y704553D01*
X1088697Y703624D02*
X1096697D01*
Y711624*
X1088697*
Y703624*
X1092697Y707624D02*
Y711624D01*
X1088697Y689482D02*
X1096697D01*
Y697482*
X1088697*
Y689482*
X1092697Y693482D02*
Y697482D01*
X1081626Y696553D02*
X1089626D01*
Y704553*
X1081626*
Y696553*
X1085626Y700553D02*
Y704553D01*
X1074555Y703624D02*
X1082555D01*
Y711624*
X1074555*
Y703624*
X1078555Y707624D02*
Y711624D01*
X1074555Y689482D02*
X1082555D01*
Y697482*
X1074555*
Y689482*
X1078555Y693482D02*
Y697482D01*
X1109911Y696553D02*
X1117911D01*
Y704553*
X1109911*
Y696553*
X1113911Y700553D02*
Y704553D01*
X1102840Y703624D02*
X1110840D01*
Y711624*
X1102840*
Y703624*
X1106840Y707624D02*
Y711624D01*
X1102840Y689482D02*
X1110840D01*
Y697482*
X1102840*
Y689482*
X1106840Y693482D02*
Y697482D01*
X1095769Y696553D02*
X1103769D01*
Y704553*
X1095769*
Y696553*
X1099769Y700553D02*
Y704553D01*
X1131124Y703624D02*
X1139124D01*
Y711624*
X1131124*
Y703624*
X1135124Y707624D02*
Y711624D01*
X1131124Y689482D02*
X1139124D01*
Y697482*
X1131124*
Y689482*
X1135124Y693482D02*
Y697482D01*
X1124053Y696553D02*
X1132053D01*
Y704553*
X1124053*
Y696553*
X1128053Y700553D02*
Y704553D01*
X1116982Y703624D02*
X1124982D01*
Y711624*
X1116982*
Y703624*
X1120982Y707624D02*
Y711624D01*
X1116982Y689482D02*
X1124982D01*
Y697482*
X1116982*
Y689482*
X1120982Y693482D02*
Y697482D01*
X1145266Y703624D02*
X1153266D01*
Y711624*
X1145266*
Y703624*
X1149266Y707624D02*
Y711624D01*
X1145266Y689482D02*
X1153266D01*
Y697482*
X1145266*
Y689482*
X1149266Y693482D02*
Y697482D01*
X1138195Y696553D02*
X1146195D01*
Y704553*
X1138195*
Y696553*
X1142195Y700553D02*
Y704553D01*
X1166479Y696553D02*
X1174479D01*
Y704553*
X1166479*
Y696553*
X1170479Y700553D02*
Y704553D01*
X1159408Y703624D02*
X1167408D01*
Y711624*
X1159408*
Y703624*
X1163408Y707624D02*
Y711624D01*
X1159408Y689482D02*
X1167408D01*
Y697482*
X1159408*
Y689482*
X1163408Y693482D02*
Y697482D01*
X1152337Y696553D02*
X1160337D01*
Y704553*
X1152337*
Y696553*
X1156337Y700553D02*
Y704553D01*
X1180621Y696553D02*
X1188621D01*
Y704553*
X1180621*
Y696553*
X1184621Y700553D02*
Y704553D01*
X1173550Y703624D02*
X1181550D01*
Y711624*
X1173550*
Y703624*
X1177550Y707624D02*
Y711624D01*
X1201835Y703624D02*
X1209835D01*
Y711624*
X1201835*
Y703624*
X1205835Y707624D02*
Y711624D01*
X1201835Y689482D02*
X1209835D01*
Y697482*
X1201835*
Y689482*
X1205835Y693482D02*
Y697482D01*
X1194764Y696553D02*
X1202764D01*
X1202764D02*
Y704553D01*
X1202764D02*
X1194764D01*
X1194764D02*
Y696553D01*
X1198764Y700553D02*
Y704553D01*
X1046271Y717766D02*
X1054271D01*
Y725766*
X1046271*
Y717766*
X1050271Y721766D02*
Y725766D01*
X1039200Y724837D02*
X1047200D01*
Y732837*
X1039200*
Y724837*
X1043200Y728837D02*
Y732837D01*
X1039200Y710695D02*
X1047200D01*
Y718695*
X1039200*
Y710695*
X1043200Y714695D02*
Y718695D01*
X1067484Y724837D02*
X1075484D01*
Y732837*
X1067484*
Y724837*
X1071484Y728837D02*
Y732837D01*
X1067484Y710695D02*
X1075484D01*
Y718695*
X1067484*
Y710695*
X1071484Y714695D02*
Y718695D01*
X1060413Y717766D02*
X1068413D01*
Y725766*
X1060413*
Y717766*
X1064413Y721766D02*
Y725766D01*
X1053342Y724837D02*
X1061342D01*
Y732837*
X1053342*
Y724837*
X1057342Y728837D02*
Y732837D01*
X1053342Y710695D02*
X1061342D01*
Y718695*
X1053342*
Y710695*
X1057342Y714695D02*
Y718695D01*
X1088697Y717766D02*
X1096697D01*
Y725766*
X1088697*
Y717766*
X1092697Y721766D02*
Y725766D01*
X1081626Y724837D02*
X1089626D01*
Y732837*
X1081626*
Y724837*
X1085626Y728837D02*
Y732837D01*
X1081626Y710695D02*
X1089626D01*
Y718695*
X1081626*
Y710695*
X1085626Y714695D02*
Y718695D01*
X1074555Y717766D02*
X1082555D01*
Y725766*
X1074555*
Y717766*
X1078555Y721766D02*
Y725766D01*
X1109911Y724837D02*
X1117911D01*
Y732837*
X1109911*
Y724837*
X1113911Y728837D02*
Y732837D01*
X1109911Y710695D02*
X1117911D01*
Y718695*
X1109911*
Y710695*
X1113911Y714695D02*
Y718695D01*
X1102840Y717766D02*
X1110840D01*
Y725766*
X1102840*
Y717766*
X1106840Y721766D02*
Y725766D01*
X1095769Y724837D02*
X1103769D01*
Y732837*
X1095769*
Y724837*
X1099769Y728837D02*
Y732837D01*
X1095769Y710695D02*
X1103769D01*
Y718695*
X1095769*
Y710695*
X1099769Y714695D02*
Y718695D01*
X1131124Y717766D02*
X1139124D01*
Y725766*
X1131124*
Y717766*
X1135124Y721766D02*
Y725766D01*
X1124053Y724837D02*
X1132053D01*
Y732837*
X1124053*
Y724837*
X1128053Y728837D02*
Y732837D01*
X1124053Y710695D02*
X1132053D01*
Y718695*
X1124053*
Y710695*
X1128053Y714695D02*
Y718695D01*
X1116982Y717766D02*
X1124982D01*
Y725766*
X1116982*
Y717766*
X1120982Y721766D02*
Y725766D01*
X1145266Y717766D02*
X1153266D01*
Y725766*
X1145266*
Y717766*
X1149266Y721766D02*
Y725766D01*
X1138195Y724837D02*
X1146195D01*
Y732837*
X1138195*
Y724837*
X1142195Y728837D02*
Y732837D01*
X1138195Y710695D02*
X1146195D01*
Y718695*
X1138195*
Y710695*
X1142195Y714695D02*
Y718695D01*
X1166479Y710695D02*
X1174479D01*
Y718695*
X1166479*
Y710695*
X1170479Y714695D02*
Y718695D01*
X1159408Y717766D02*
X1167408D01*
Y725766*
X1159408*
Y717766*
X1163408Y721766D02*
Y725766D01*
X1152337Y724837D02*
X1160337D01*
Y732837*
X1152337*
Y724837*
X1156337Y728837D02*
Y732837D01*
X1152337Y710695D02*
X1160337D01*
Y718695*
X1152337*
Y710695*
X1156337Y714695D02*
Y718695D01*
X1173550Y717766D02*
X1181550D01*
Y725766*
X1173550*
Y717766*
X1177550Y721766D02*
Y725766D01*
X1201835Y717766D02*
X1209835D01*
Y725766*
X1201835*
Y717766*
X1205835Y721766D02*
Y725766D01*
X1194764Y710695D02*
X1202764D01*
X1202764D02*
Y718695D01*
X1202764D02*
X1194764D01*
X1194764D02*
Y710695D01*
X1198764Y714695D02*
Y718695D01*
X1192400Y719700D02*
X1200400D01*
Y727700*
X1192400*
Y719700*
X1196400Y723700D02*
Y727700D01*
X1046271Y746050D02*
X1054271D01*
Y754050*
X1046271*
Y746050*
X1050271Y750050D02*
Y754050D01*
X1046271Y731908D02*
X1054271D01*
Y739908*
X1046271*
Y731908*
X1050271Y735908D02*
Y739908D01*
X1039200Y738979D02*
X1047200D01*
Y746979*
X1039200*
Y738979*
X1043200Y742979D02*
Y746979D01*
X1067484Y738979D02*
X1075484D01*
Y746979*
X1067484*
Y738979*
X1071484Y742979D02*
Y746979D01*
X1060413Y746050D02*
X1068413D01*
Y754050*
X1060413*
Y746050*
X1064413Y750050D02*
Y754050D01*
X1060413Y731908D02*
X1068413D01*
Y739908*
X1060413*
Y731908*
X1064413Y735908D02*
Y739908D01*
X1053342Y738979D02*
X1061342D01*
Y746979*
X1053342*
Y738979*
X1057342Y742979D02*
Y746979D01*
X1088697Y746050D02*
X1096697D01*
Y754050*
X1088697*
Y746050*
X1092697Y750050D02*
Y754050D01*
X1088697Y731908D02*
X1096697D01*
Y739908*
X1088697*
Y731908*
X1092697Y735908D02*
Y739908D01*
X1081626Y738979D02*
X1089626D01*
Y746979*
X1081626*
Y738979*
X1085626Y742979D02*
Y746979D01*
X1074555Y746050D02*
X1082555D01*
Y754050*
X1074555*
Y746050*
X1078555Y750050D02*
Y754050D01*
X1074555Y731908D02*
X1082555D01*
Y739908*
X1074555*
Y731908*
X1078555Y735908D02*
Y739908D01*
X1109911Y738979D02*
X1117911D01*
Y746979*
X1109911*
Y738979*
X1113911Y742979D02*
Y746979D01*
X1102840Y746050D02*
X1110840D01*
Y754050*
X1102840*
Y746050*
X1106840Y750050D02*
Y754050D01*
X1102840Y731908D02*
X1110840D01*
Y739908*
X1102840*
Y731908*
X1106840Y735908D02*
Y739908D01*
X1095769Y738979D02*
X1103769D01*
Y746979*
X1095769*
Y738979*
X1099769Y742979D02*
Y746979D01*
X1131124Y746050D02*
X1139124D01*
Y754050*
X1131124*
Y746050*
X1135124Y750050D02*
Y754050D01*
X1131124Y731908D02*
X1139124D01*
Y739908*
X1131124*
Y731908*
X1135124Y735908D02*
Y739908D01*
X1124053Y738979D02*
X1132053D01*
Y746979*
X1124053*
Y738979*
X1128053Y742979D02*
Y746979D01*
X1116982Y746050D02*
X1124982D01*
Y754050*
X1116982*
Y746050*
X1120982Y750050D02*
Y754050D01*
X1116982Y731908D02*
X1124982D01*
Y739908*
X1116982*
Y731908*
X1120982Y735908D02*
Y739908D01*
X1145266Y746050D02*
X1153266D01*
Y754050*
X1145266*
Y746050*
X1149266Y750050D02*
Y754050D01*
X1152337Y738979D02*
X1160337D01*
Y746979*
X1152337*
Y738979*
X1156337Y742979D02*
Y746979D01*
X1046271Y760192D02*
X1054271D01*
Y768192*
X1046271*
Y760192*
X1050271Y764192D02*
Y768192D01*
X1039200Y767264D02*
X1047200D01*
X1047200D02*
Y775264D01*
X1047200D02*
X1039200D01*
X1039200D02*
Y767264D01*
X1043200Y771264D02*
Y775264D01*
X1039200Y753121D02*
X1047200D01*
Y761121*
X1039200*
Y753121*
X1043200Y757121D02*
Y761121D01*
X1067484Y767264D02*
X1075484D01*
X1075484D02*
Y775264D01*
X1075484D02*
X1067484D01*
X1067484D02*
Y767264D01*
X1071484Y771264D02*
Y775264D01*
X1067484Y753121D02*
X1075484D01*
Y761121*
X1067484*
Y753121*
X1071484Y757121D02*
Y761121D01*
X1060413Y760192D02*
X1068413D01*
Y768192*
X1060413*
Y760192*
X1064413Y764192D02*
Y768192D01*
X1053342Y767264D02*
X1061342D01*
X1061342D02*
Y775264D01*
X1061342D02*
X1053342D01*
X1053342D02*
Y767264D01*
X1057342Y771264D02*
Y775264D01*
X1053342Y753121D02*
X1061342D01*
Y761121*
X1053342*
Y753121*
X1057342Y757121D02*
Y761121D01*
X1088697Y760192D02*
X1096697D01*
Y768192*
X1088697*
Y760192*
X1092697Y764192D02*
Y768192D01*
X1081626Y767264D02*
X1089626D01*
X1089626D02*
Y775264D01*
X1089626D02*
X1081626D01*
X1081626D02*
Y767264D01*
X1085626Y771264D02*
Y775264D01*
X1081626Y753121D02*
X1089626D01*
Y761121*
X1081626*
Y753121*
X1085626Y757121D02*
Y761121D01*
X1074555Y760192D02*
X1082555D01*
Y768192*
X1074555*
Y760192*
X1078555Y764192D02*
Y768192D01*
X1109911Y767264D02*
X1117911D01*
X1117911D02*
Y775264D01*
X1117911D02*
X1109911D01*
X1109911D02*
Y767264D01*
X1113911Y771264D02*
Y775264D01*
X1109911Y753121D02*
X1117911D01*
Y761121*
X1109911*
Y753121*
X1113911Y757121D02*
Y761121D01*
X1102840Y760192D02*
X1110840D01*
Y768192*
X1102840*
Y760192*
X1106840Y764192D02*
Y768192D01*
X1095769Y767264D02*
X1103769D01*
X1103769D02*
Y775264D01*
X1103769D02*
X1095769D01*
X1095769D02*
Y767264D01*
X1099769Y771264D02*
Y775264D01*
X1095769Y753121D02*
X1103769D01*
Y761121*
X1095769*
Y753121*
X1099769Y757121D02*
Y761121D01*
X1131124Y760192D02*
X1139124D01*
Y768192*
X1131124*
Y760192*
X1135124Y764192D02*
Y768192D01*
X1124053Y767264D02*
X1132053D01*
X1132053D02*
Y775264D01*
X1132053D02*
X1124053D01*
X1124053D02*
Y767264D01*
X1128053Y771264D02*
Y775264D01*
X1124053Y753121D02*
X1132053D01*
Y761121*
X1124053*
Y753121*
X1128053Y757121D02*
Y761121D01*
X1116982Y760192D02*
X1124982D01*
Y768192*
X1116982*
Y760192*
X1120982Y764192D02*
Y768192D01*
X1145266Y760192D02*
X1153266D01*
Y768192*
X1145266*
Y760192*
X1149266Y764192D02*
Y768192D01*
X1138195Y767264D02*
X1146195D01*
X1146195D02*
Y775264D01*
X1146195D02*
X1138195D01*
X1138195D02*
Y767264D01*
X1142195Y771264D02*
Y775264D01*
X1138195Y753121D02*
X1146195D01*
Y761121*
X1138195*
Y753121*
X1142195Y757121D02*
Y761121D01*
X1152337Y767264D02*
X1160337D01*
X1160337D02*
Y775264D01*
X1160337D02*
X1152337D01*
X1152337D02*
Y767264D01*
X1156337Y771264D02*
Y775264D01*
X1152337Y753121D02*
X1160337D01*
Y761121*
X1152337*
Y753121*
X1156337Y757121D02*
Y761121D01*
X1046271Y774335D02*
X1054271D01*
Y782335*
X1046271*
Y774335*
X1050271Y778335D02*
Y782335D01*
X1039200Y781406D02*
X1047200D01*
Y789406*
X1039200*
Y781406*
X1043200Y785406D02*
Y789406D01*
X1067484Y781406D02*
X1075484D01*
Y789406*
X1067484*
Y781406*
X1071484Y785406D02*
Y789406D01*
X1060413Y774335D02*
X1068413D01*
Y782335*
X1060413*
Y774335*
X1064413Y778335D02*
Y782335D01*
X1053342Y781406D02*
X1061342D01*
Y789406*
X1053342*
Y781406*
X1057342Y785406D02*
Y789406D01*
X1088697Y774335D02*
X1096697D01*
Y782335*
X1088697*
Y774335*
X1092697Y778335D02*
Y782335D01*
X1081626Y781406D02*
X1089626D01*
Y789406*
X1081626*
Y781406*
X1085626Y785406D02*
Y789406D01*
X1074555Y774335D02*
X1082555D01*
Y782335*
X1074555*
Y774335*
X1078555Y778335D02*
Y782335D01*
X1109911Y781406D02*
X1117911D01*
Y789406*
X1109911*
Y781406*
X1113911Y785406D02*
Y789406D01*
X1102840Y774335D02*
X1110840D01*
Y782335*
X1102840*
Y774335*
X1106840Y778335D02*
Y782335D01*
X1095769Y781406D02*
X1103769D01*
Y789406*
X1095769*
Y781406*
X1099769Y785406D02*
Y789406D01*
X1131124Y774335D02*
X1139124D01*
Y782335*
X1131124*
Y774335*
X1135124Y778335D02*
Y782335D01*
X1124053Y781406D02*
X1132053D01*
Y789406*
X1124053*
Y781406*
X1128053Y785406D02*
Y789406D01*
X1116982Y774335D02*
X1124982D01*
Y782335*
X1116982*
Y774335*
X1120982Y778335D02*
Y782335D01*
X1145266Y774335D02*
X1153266D01*
Y782335*
X1145266*
Y774335*
X1149266Y778335D02*
Y782335D01*
X1138195Y781406D02*
X1146195D01*
Y789406*
X1138195*
Y781406*
X1142195Y785406D02*
Y789406D01*
X1152337Y781406D02*
X1160337D01*
Y789406*
X1152337*
Y781406*
X1156337Y785406D02*
Y789406D01*
X800000Y800000D02*
X1213386D01*
Y603150*
X800000*
Y800000*
X1003898Y711505D02*
G75*
G03X992898Y711496I-5498J-2505D01*
G01X1003900Y711500D02*
Y625800D01*
X992896Y625806D02*
G03X1003898Y625797I5504J3051D01*
G01X992900Y625800D02*
Y711500D01*
X800000Y968000D02*
X1058000D01*
X800000Y944000D02*
X1058000D01*
X800000Y920000D02*
X1058000D01*
X800000Y896000D02*
X1058000D01*
X800000Y872000D02*
X1058000D01*
X800000Y848000D02*
X1058000D01*
X800000Y824000D02*
X1058000D01*
X800000Y800000D02*
X1058000D01*
X800000Y968000D02*
Y800000D01*
X884000Y968000D02*
Y800000D01*
X920000Y968000D02*
Y800000D01*
X956000Y968000D02*
Y800000D01*
X1010000Y968000D02*
Y800000D01*
X1058000Y968000D02*
Y800000D01*
X828818Y950000D02*
X830364Y952375D01*
X830727Y954375*
Y957625*
X831091Y957875*
X838182*
X838545Y957625*
Y955000*
X838182Y954750*
X830727*
X834818D02*
X835545Y953000D01*
X837455Y951125*
X839727Y950000*
X845545Y952625D02*
X844818Y953875D01*
X843727Y954750*
X842182Y956500D02*
X852273D01*
X850091Y958250D02*
Y950000D01*
X849727Y949750*
X847091Y950250*
X888818Y953000D02*
X894091D01*
X893364D02*
X892545Y951500D01*
X891455Y950625*
X889182Y949750*
X893364D02*
X891455Y950875D01*
X889545Y951500*
Y951750*
X890727Y952625*
X891455Y953875*
Y954125D02*
Y958250D01*
X889182D02*
X889909Y957000D01*
X892545D02*
X893364Y958250D01*
X894091Y956500D02*
X889182D01*
X888818Y954375D02*
X890364Y955250D01*
X891455Y956500*
X893727Y955000*
X894455D02*
X895182Y956750D01*
Y958250*
Y956750D02*
X900091D01*
X899364D02*
X898545Y954125D01*
X896727Y951125*
X894818Y949750*
X899727D02*
X898182Y951125D01*
X896364Y954125*
X895545Y956750*
X902182Y950000D02*
X913091D01*
X912273Y951125D02*
X902909D01*
X903727Y952625D02*
Y954375D01*
X904091Y954750*
X911545*
X911909Y954375*
Y952625*
X911545Y952375*
X904091*
X903727Y952625*
Y953500D02*
X911909D01*
X907818Y954750D02*
Y950000D01*
X902545Y955625D02*
X913455D01*
X903727Y956750D02*
Y957875D01*
X904091Y958250*
X911545*
X911909Y957875*
Y956750*
X911545Y956500*
X904091*
X903727Y956750*
Y957375D02*
X911909D01*
X925545Y953500D02*
X927091Y954750D01*
X928182Y956125*
X927091Y954750D02*
Y949750D01*
X931545Y951750D02*
X930091Y953250D01*
X929364Y954750D02*
X936091D01*
X934545Y955875D02*
Y950000D01*
X934182Y949750*
X932727Y950000*
X931545Y951750D02*
X930091Y953250D01*
X924818Y956750D02*
X926364Y957625D01*
X926727Y958500*
X926364Y957625D02*
X930455D01*
X928909Y956500D02*
X927455Y957625D01*
X932364Y958500D02*
X931909Y957625D01*
X930818Y956750*
X931909Y957625D02*
X936091D01*
X934545Y956500D02*
X933455Y957625D01*
X938182Y954125D02*
X948727D01*
X941182D02*
X940455Y952625D01*
X940818Y952375*
X946818*
X947182Y952125*
X946818Y950000*
X946455Y949750*
X943455Y950000*
X940091Y955875D02*
Y957625D01*
X940455Y957875*
X946818*
X947182Y957625*
Y955875*
X946818Y955625*
X940455*
X940091Y955875*
X985500Y956000D02*
Y956375D01*
X985773Y957125*
X986045Y957500*
X986591Y957875*
X987682*
X988227Y957500*
X988500Y957125*
X988773Y956375*
Y955625*
X988500Y954875*
X988227Y954500*
X987136Y953750*
Y952625*
Y950750D02*
X986864Y950375D01*
X987136Y950000*
X987409Y950375*
X987136Y950750*
X991227Y956000D02*
Y956375D01*
X991500Y957125*
X991773Y957500*
X992318Y957875*
X993409*
X993955Y957500*
X994227Y957125*
X994500Y956375*
Y955625*
X994227Y954875*
X993955Y954500*
X992864Y953750*
Y952625*
Y950750D02*
X992591Y950375D01*
X992864Y950000*
X993136Y950375*
X992864Y950750*
X1026682Y957875D02*
Y950000D01*
X1024773Y957875D02*
X1028591D01*
X1032682D02*
X1032136Y957500D01*
X1031591Y956750*
X1031318Y956000*
X1031045Y954875*
Y953000*
X1031318Y951875*
X1031591Y951125*
X1032136Y950375*
X1032682Y950000*
X1033773*
X1034318Y950375*
X1034864Y951125*
X1035136Y951875*
X1035409Y953000*
Y954875*
X1035136Y956000*
X1034864Y956750*
X1034318Y957500*
X1033773Y957875*
X1032682*
X1037864D02*
Y950000D01*
X1041136*
X806000Y932375D02*
X806545Y932750D01*
X807364Y933875*
Y926000*
X813364Y933875D02*
X810636D01*
X810364Y930500*
X810636Y930875*
X811455Y931250*
X812273*
X813091Y930875*
X813636Y930125*
X813909Y929000*
X813636Y928250*
X813364Y927125*
X812818Y926375*
X812000Y926000*
X811182*
X810364Y926375*
X810091Y926750*
X809818Y927500*
X820182Y933875D02*
X817455Y926000D01*
X816364Y933875D02*
X820182D01*
X822909Y926750D02*
X822636Y926375D01*
X822909Y926000*
X823182Y926375*
X822909Y926750*
X828364Y933875D02*
X825636Y928625D01*
X829727*
X828364Y933875D02*
Y926000D01*
X833545Y933875D02*
X832727Y933500D01*
X832455Y932750*
Y932000*
X832727Y931250*
X833273Y930875*
X834364Y930500*
X835182Y930125*
X835727Y929375*
X836000Y928625*
Y927500*
X835727Y926750*
X835455Y926375*
X834636Y926000*
X833545*
X832727Y926375*
X832455Y926750*
X832182Y927500*
Y928625*
X832455Y929375*
X833000Y930125*
X833818Y930500*
X834909Y930875*
X835455Y931250*
X835727Y932000*
Y932750*
X835455Y933500*
X834636Y933875*
X833545*
X901636D02*
X898909Y928625D01*
X903000*
X901636Y933875D02*
Y926000D01*
X932000Y932000D02*
X944000D01*
X938000Y926000D02*
Y938000D01*
X967636Y933875D02*
Y926000D01*
Y933875D02*
X971455Y926000D01*
Y933875D02*
Y926000D01*
X975545Y933875D02*
X975000Y933500D01*
X974455Y932750*
X974182Y932000*
X973909Y930875*
Y929000*
X974182Y927875*
X974455Y927125*
X975000Y926375*
X975545Y926000*
X976636*
X977182Y926375*
X977727Y927125*
X978000Y927875*
X978273Y929000*
Y930875*
X978000Y932000*
X977727Y932750*
X977182Y933500*
X976636Y933875*
X975545*
X1017818Y932750D02*
Y926000D01*
X1015364Y929375D02*
X1020273D01*
X1027636Y935375D02*
X1022727Y923375D01*
X1030091Y929375D02*
X1035000D01*
X1039091Y933875D02*
X1038273Y933500D01*
X1037727Y932375*
X1037455Y930500*
Y929375*
X1037727Y927500*
X1038273Y926375*
X1039091Y926000*
X1039636*
X1040455Y926375*
X1041000Y927500*
X1041273Y929375*
Y930500*
X1041000Y932375*
X1040455Y933500*
X1039636Y933875*
X1039091*
X1044000Y926750D02*
X1043727Y926375D01*
X1044000Y926000*
X1044273Y926375*
X1044000Y926750*
X1048364Y933875D02*
X1047545Y933500D01*
X1047000Y932375*
X1046727Y930500*
Y929375*
X1047000Y927500*
X1047545Y926375*
X1048364Y926000*
X1048909*
X1049727Y926375*
X1050273Y927500*
X1050545Y929375*
Y930500*
X1050273Y932375*
X1049727Y933500*
X1048909Y933875*
X1048364*
X809545Y909875D02*
X806818D01*
X806545Y906500*
X806818Y906875*
X807636Y907250*
X808455*
X809273Y906875*
X809818Y906125*
X810091Y905000*
X809818Y904250*
X809545Y903125*
X809000Y902375*
X808182Y902000*
X807364*
X806545Y902375*
X806273Y902750*
X806000Y903500*
X812545Y908375D02*
X813091Y908750D01*
X813909Y909875*
Y902000*
X816636Y902750D02*
X816364Y902375D01*
X816636Y902000*
X816909Y902375*
X816636Y902750*
X819364Y908375D02*
X819909Y908750D01*
X820727Y909875*
Y902000*
X824545Y909875D02*
X823727Y909500D01*
X823455Y908750*
Y908000*
X823727Y907250*
X824273Y906875*
X825364Y906500*
X826182Y906125*
X826727Y905375*
X827000Y904625*
Y903500*
X826727Y902750*
X826455Y902375*
X825636Y902000*
X824545*
X823727Y902375*
X823455Y902750*
X823182Y903500*
Y904625*
X823455Y905375*
X824000Y906125*
X824818Y906500*
X825909Y906875*
X826455Y907250*
X826727Y908000*
Y908750*
X826455Y909500*
X825636Y909875*
X824545*
X902455D02*
X899727D01*
X899455Y906500*
X899727Y906875*
X900545Y907250*
X901364*
X902182Y906875*
X902727Y906125*
X903000Y905000*
X902727Y904250*
X902455Y903125*
X901909Y902375*
X901091Y902000*
X900273*
X899455Y902375*
X899182Y902750*
X898909Y903500*
X932000Y902000D02*
X944000Y914000D01*
X932000D02*
X944000Y902000D01*
X964636Y909875D02*
X966818Y906125D01*
Y902000*
X969000Y909875D02*
X966818Y906125D01*
X971455Y909875D02*
Y902000D01*
Y909875D02*
X975000D01*
X971455Y906125D02*
X973636D01*
X971455Y902000D02*
X975000D01*
X981273Y908750D02*
X980727Y909500D01*
X979909Y909875*
X978818*
X978000Y909500*
X977455Y908750*
Y908000*
X977727Y907250*
X978000Y906875*
X978545Y906500*
X980182Y905750*
X980727Y905375*
X981000Y905000*
X981273Y904250*
Y903125*
X980727Y902375*
X979909Y902000*
X978818*
X978000Y902375*
X977455Y903125*
X1017818Y908750D02*
Y902000D01*
X1015364Y905375D02*
X1020273D01*
X1027636Y911375D02*
X1022727Y899375D01*
X1030091Y905375D02*
X1035000D01*
X1039091Y909875D02*
X1038273Y909500D01*
X1037727Y908375*
X1037455Y906500*
Y905375*
X1037727Y903500*
X1038273Y902375*
X1039091Y902000*
X1039636*
X1040455Y902375*
X1041000Y903500*
X1041273Y905375*
Y906500*
X1041000Y908375*
X1040455Y909500*
X1039636Y909875*
X1039091*
X1044000Y902750D02*
X1043727Y902375D01*
X1044000Y902000*
X1044273Y902375*
X1044000Y902750*
X1048364Y909875D02*
X1047545Y909500D01*
X1047000Y908375*
X1046727Y906500*
Y905375*
X1047000Y903500*
X1047545Y902375*
X1048364Y902000*
X1048909*
X1049727Y902375*
X1050273Y903500*
X1050545Y905375*
Y906500*
X1050273Y908375*
X1049727Y909500*
X1048909Y909875*
X1048364*
X806273Y884000D02*
Y884375D01*
X806545Y885125*
X806818Y885500*
X807364Y885875*
X808455*
X809000Y885500*
X809273Y885125*
X809545Y884375*
Y883625*
X809273Y882875*
X808727Y881750*
X806000Y878000*
X809818*
X813909Y885875D02*
X813091Y885500D01*
X812545Y884375*
X812273Y882500*
Y881375*
X812545Y879500*
X813091Y878375*
X813909Y878000*
X814455*
X815273Y878375*
X815818Y879500*
X816091Y881375*
Y882500*
X815818Y884375*
X815273Y885500*
X814455Y885875*
X813909*
X893045Y884000D02*
Y884375D01*
X893318Y885125*
X893591Y885500*
X894136Y885875*
X895227*
X895773Y885500*
X896045Y885125*
X896318Y884375*
Y883625*
X896045Y882875*
X895500Y881750*
X892773Y878000*
X896591*
X899591Y885875D02*
X902591D01*
X900955Y882875*
X901773*
X902318Y882500*
X902591Y882125*
X902864Y881000*
Y880250*
X902591Y879125*
X902045Y878375*
X901227Y878000*
X900409*
X899591Y878375*
X899318Y878750*
X899045Y879500*
X906682Y885875D02*
X905864Y885500D01*
X905591Y884750*
Y884000*
X905864Y883250*
X906409Y882875*
X907500Y882500*
X908318Y882125*
X908864Y881375*
X909136Y880625*
Y879500*
X908864Y878750*
X908591Y878375*
X907773Y878000*
X906682*
X905864Y878375*
X905591Y878750*
X905318Y879500*
Y880625*
X905591Y881375*
X906136Y882125*
X906955Y882500*
X908045Y882875*
X908591Y883250*
X908864Y884000*
Y884750*
X908591Y885500*
X907773Y885875*
X906682*
X932000Y878000D02*
X944000D01*
Y890000*
X932000*
Y878000*
X938000Y884000D02*
Y890000D01*
X964636Y885875D02*
X966818Y882125D01*
Y878000*
X969000Y885875D02*
X966818Y882125D01*
X971455Y885875D02*
Y878000D01*
Y885875D02*
X975000D01*
X971455Y882125D02*
X973636D01*
X971455Y878000D02*
X975000D01*
X981273Y884750D02*
X980727Y885500D01*
X979909Y885875*
X978818*
X978000Y885500*
X977455Y884750*
Y884000*
X977727Y883250*
X978000Y882875*
X978545Y882500*
X980182Y881750*
X980727Y881375*
X981000Y881000*
X981273Y880250*
Y879125*
X980727Y878375*
X979909Y878000*
X978818*
X978000Y878375*
X977455Y879125*
X1017818Y884750D02*
Y878000D01*
X1015364Y881375D02*
X1020273D01*
X1027636Y887375D02*
X1022727Y875375D01*
X1030091Y881375D02*
X1035000D01*
X1039091Y885875D02*
X1038273Y885500D01*
X1037727Y884375*
X1037455Y882500*
Y881375*
X1037727Y879500*
X1038273Y878375*
X1039091Y878000*
X1039636*
X1040455Y878375*
X1041000Y879500*
X1041273Y881375*
Y882500*
X1041000Y884375*
X1040455Y885500*
X1039636Y885875*
X1039091*
X1044000Y878750D02*
X1043727Y878375D01*
X1044000Y878000*
X1044273Y878375*
X1044000Y878750*
X1048364Y885875D02*
X1047545Y885500D01*
X1047000Y884375*
X1046727Y882500*
Y881375*
X1047000Y879500*
X1047545Y878375*
X1048364Y878000*
X1048909*
X1049727Y878375*
X1050273Y879500*
X1050545Y881375*
Y882500*
X1050273Y884375*
X1049727Y885500*
X1048909Y885875*
X1048364*
X806545Y861875D02*
X809545D01*
X807909Y858875*
X808727*
X809273Y858500*
X809545Y858125*
X809818Y857000*
Y856250*
X809545Y855125*
X809000Y854375*
X808182Y854000*
X807364*
X806545Y854375*
X806273Y854750*
X806000Y855500*
X815818Y861875D02*
X813091D01*
X812818Y858500*
X813091Y858875*
X813909Y859250*
X814727*
X815545Y858875*
X816091Y858125*
X816364Y857000*
X816091Y856250*
X815818Y855125*
X815273Y854375*
X814455Y854000*
X813636*
X812818Y854375*
X812545Y854750*
X812273Y855500*
X819091Y854750D02*
X818818Y854375D01*
X819091Y854000*
X819364Y854375*
X819091Y854750*
X824545Y861875D02*
X821818Y856625D01*
X825909*
X824545Y861875D02*
Y854000D01*
X828909Y861875D02*
X831909D01*
X830273Y858875*
X831091*
X831636Y858500*
X831909Y858125*
X832182Y857000*
Y856250*
X831909Y855125*
X831364Y854375*
X830545Y854000*
X829727*
X828909Y854375*
X828636Y854750*
X828364Y855500*
X897000Y860375D02*
X897545Y860750D01*
X898364Y861875*
Y854000*
X903545Y861875D02*
X900818Y856625D01*
X904909*
X903545Y861875D02*
Y854000D01*
X938000D02*
X944000Y860000D01*
X938000Y866000*
X932000Y860000*
X938000Y854000*
Y860000D02*
Y866000D01*
X964636Y861875D02*
X966818Y858125D01*
Y854000*
X969000Y861875D02*
X966818Y858125D01*
X971455Y861875D02*
Y854000D01*
Y861875D02*
X975000D01*
X971455Y858125D02*
X973636D01*
X971455Y854000D02*
X975000D01*
X981273Y860750D02*
X980727Y861500D01*
X979909Y861875*
X978818*
X978000Y861500*
X977455Y860750*
Y860000*
X977727Y859250*
X978000Y858875*
X978545Y858500*
X980182Y857750*
X980727Y857375*
X981000Y857000*
X981273Y856250*
Y855125*
X980727Y854375*
X979909Y854000*
X978818*
X978000Y854375*
X977455Y855125*
X1017818Y860750D02*
Y854000D01*
X1015364Y857375D02*
X1020273D01*
X1027636Y863375D02*
X1022727Y851375D01*
X1030091Y857375D02*
X1035000D01*
X1039091Y861875D02*
X1038273Y861500D01*
X1037727Y860375*
X1037455Y858500*
Y857375*
X1037727Y855500*
X1038273Y854375*
X1039091Y854000*
X1039636*
X1040455Y854375*
X1041000Y855500*
X1041273Y857375*
Y858500*
X1041000Y860375*
X1040455Y861500*
X1039636Y861875*
X1039091*
X1044000Y854750D02*
X1043727Y854375D01*
X1044000Y854000*
X1044273Y854375*
X1044000Y854750*
X1048364Y861875D02*
X1047545Y861500D01*
X1047000Y860375*
X1046727Y858500*
Y857375*
X1047000Y855500*
X1047545Y854375*
X1048364Y854000*
X1048909*
X1049727Y854375*
X1050273Y855500*
X1050545Y857375*
Y858500*
X1050273Y860375*
X1049727Y861500*
X1048909Y861875*
X1048364*
X806545Y837875D02*
X809545D01*
X807909Y834875*
X808727*
X809273Y834500*
X809545Y834125*
X809818Y833000*
Y832250*
X809545Y831125*
X809000Y830375*
X808182Y830000*
X807364*
X806545Y830375*
X806273Y830750*
X806000Y831500*
X815818Y835250D02*
X815545Y834125D01*
X815000Y833375*
X814182Y833000*
X813909*
X813091Y833375*
X812545Y834125*
X812273Y835250*
Y835625*
X812545Y836750*
X813091Y837500*
X813909Y837875*
X814182*
X815000Y837500*
X815545Y836750*
X815818Y835250*
Y833375*
X815545Y831500*
X815000Y830375*
X814182Y830000*
X813636*
X812818Y830375*
X812545Y831125*
X818545Y830750D02*
X818273Y830375D01*
X818545Y830000*
X818818Y830375*
X818545Y830750*
X821818Y837875D02*
X824818D01*
X823182Y834875*
X824000*
X824545Y834500*
X824818Y834125*
X825091Y833000*
Y832250*
X824818Y831125*
X824273Y830375*
X823455Y830000*
X822636*
X821818Y830375*
X821545Y830750*
X821273Y831500*
X831364Y837875D02*
X828636Y830000D01*
X827545Y837875D02*
X831364D01*
X899318Y836000D02*
Y836375D01*
X899591Y837125*
X899864Y837500*
X900409Y837875*
X901500*
X902045Y837500*
X902318Y837125*
X902591Y836375*
Y835625*
X902318Y834875*
X901773Y833750*
X899045Y830000*
X902864*
X932000D02*
X944000D01*
X932000Y842000*
X944000*
X932000Y830000*
X964636Y837875D02*
X966818Y834125D01*
Y830000*
X969000Y837875D02*
X966818Y834125D01*
X971455Y837875D02*
Y830000D01*
Y837875D02*
X975000D01*
X971455Y834125D02*
X973636D01*
X971455Y830000D02*
X975000D01*
X981273Y836750D02*
X980727Y837500D01*
X979909Y837875*
X978818*
X978000Y837500*
X977455Y836750*
Y836000*
X977727Y835250*
X978000Y834875*
X978545Y834500*
X980182Y833750*
X980727Y833375*
X981000Y833000*
X981273Y832250*
Y831125*
X980727Y830375*
X979909Y830000*
X978818*
X978000Y830375*
X977455Y831125*
X1017818Y836750D02*
Y830000D01*
X1015364Y833375D02*
X1020273D01*
X1027636Y839375D02*
X1022727Y827375D01*
X1030091Y833375D02*
X1035000D01*
X1039091Y837875D02*
X1038273Y837500D01*
X1037727Y836375*
X1037455Y834500*
Y833375*
X1037727Y831500*
X1038273Y830375*
X1039091Y830000*
X1039636*
X1040455Y830375*
X1041000Y831500*
X1041273Y833375*
Y834500*
X1041000Y836375*
X1040455Y837500*
X1039636Y837875*
X1039091*
X1044000Y830750D02*
X1043727Y830375D01*
X1044000Y830000*
X1044273Y830375*
X1044000Y830750*
X1048364Y837875D02*
X1047545Y837500D01*
X1047000Y836375*
X1046727Y834500*
Y833375*
X1047000Y831500*
X1047545Y830375*
X1048364Y830000*
X1048909*
X1049727Y830375*
X1050273Y831500*
X1050545Y833375*
Y834500*
X1050273Y836375*
X1049727Y837500*
X1048909Y837875*
X1048364*
X808727Y813875D02*
X806000Y808625D01*
X810091*
X808727Y813875D02*
Y806000D01*
X816364Y813875D02*
X813636Y806000D01*
X812545Y813875D02*
X816364D01*
X819091Y806750D02*
X818818Y806375D01*
X819091Y806000*
X819364Y806375*
X819091Y806750*
X822091Y812000D02*
Y812375D01*
X822364Y813125*
X822636Y813500*
X823182Y813875*
X824273*
X824818Y813500*
X825091Y813125*
X825364Y812375*
Y811625*
X825091Y810875*
X824545Y809750*
X821818Y806000*
X825636*
X830818Y813875D02*
X828091Y808625D01*
X832182*
X830818Y813875D02*
Y806000D01*
X902455Y813875D02*
X899727D01*
X899455Y810500*
X899727Y810875*
X900545Y811250*
X901364*
X902182Y810875*
X902727Y810125*
X903000Y809000*
X902727Y808250*
X902455Y807125*
X901909Y806375*
X901091Y806000*
X900273*
X899455Y806375*
X899182Y806750*
X898909Y807500*
X932000Y806000D02*
X944000Y818000D01*
Y806000*
X932000Y818000*
Y806000*
X964636Y813875D02*
X966818Y810125D01*
Y806000*
X969000Y813875D02*
X966818Y810125D01*
X971455Y813875D02*
Y806000D01*
Y813875D02*
X975000D01*
X971455Y810125D02*
X973636D01*
X971455Y806000D02*
X975000D01*
X981273Y812750D02*
X980727Y813500D01*
X979909Y813875*
X978818*
X978000Y813500*
X977455Y812750*
Y812000*
X977727Y811250*
X978000Y810875*
X978545Y810500*
X980182Y809750*
X980727Y809375*
X981000Y809000*
X981273Y808250*
Y807125*
X980727Y806375*
X979909Y806000*
X978818*
X978000Y806375*
X977455Y807125*
X1017818Y812750D02*
Y806000D01*
X1015364Y809375D02*
X1020273D01*
X1027636Y815375D02*
X1022727Y803375D01*
X1030091Y809375D02*
X1035000D01*
X1039091Y813875D02*
X1038273Y813500D01*
X1037727Y812375*
X1037455Y810500*
Y809375*
X1037727Y807500*
X1038273Y806375*
X1039091Y806000*
X1039636*
X1040455Y806375*
X1041000Y807500*
X1041273Y809375*
Y810500*
X1041000Y812375*
X1040455Y813500*
X1039636Y813875*
X1039091*
X1044000Y806750D02*
X1043727Y806375D01*
X1044000Y806000*
X1044273Y806375*
X1044000Y806750*
X1048364Y813875D02*
X1047545Y813500D01*
X1047000Y812375*
X1046727Y810500*
Y809375*
X1047000Y807500*
X1047545Y806375*
X1048364Y806000*
X1048909*
X1049727Y806375*
X1050273Y807500*
X1050545Y809375*
Y810500*
X1050273Y812375*
X1049727Y813500*
X1048909Y813875*
X1048364*
G74*
X0Y0D02*
M02*
