*
*
G04 PADS VX.2.3 Build Number: 9191294 generated Gerber (RS-274-X) file*
G04 PC Version=2.1*
*
%IN "GETWAY_Base_ZM_V1.2_201"*%
*
%MOIN*%
*
%FSLAX35Y35*%
*
*
*
*
G04 PC Standard Apertures*
*
*
G04 Thermal Relief Aperture macro.*
%AMTER*
1,1,$1,0,0*
1,0,$1-$2,0,0*
21,0,$3,$4,0,0,45*
21,0,$3,$4,0,0,135*
%
*
*
G04 Annular Aperture macro.*
%AMANN*
1,1,$1,0,0*
1,0,$2,0,0*
%
*
*
G04 Odd Aperture macro.*
%AMODD*
1,1,$1,0,0*
1,0,$1-0.005,0,0*
%
*
*
G04 PC Custom Aperture Macros*
*
*
*
*
*
*
G04 PC Aperture Table*
*
%ADD010C,0.001*%
%ADD027ANN,0.05906X0.03543*%
%ADD031ANN,0.07087X0.04724*%
%ADD037ANN,0.15748X0.07874*%
%ADD039C,0.0374*%
%ADD040C,0.05709*%
%ADD042C,0.15748*%
%ADD055C,0.03*%
%ADD056C,0.012*%
%ADD057C,0.05*%
%ADD058C,0.08*%
%ADD060C,0.01181*%
%ADD061C,0.008*%
%ADD062C,0.02*%
%ADD063C,0.01*%
%ADD064C,0.04*%
%ADD066C,0.015*%
%ADD067C,0.045*%
*
*
*
*
G04 PC Circuitry*
G04 Layer Name GETWAY_Base_ZM_V1.2_201 - circuitry*
%LPD*%
*
*
G04 PC Custom Flashes*
G04 Layer Name GETWAY_Base_ZM_V1.2_201 - flashes*
%LPD*%
*
*
G04 PC Circuitry*
G04 Layer Name GETWAY_Base_ZM_V1.2_201 - circuitry*
%LPD*%
*
G54D10*
G54D27*
G01X1157441Y655098D03*
X1125315D03*
X1361772Y675157D03*
Y665157D03*
Y655157D03*
Y645157D03*
Y635157D03*
Y625157D03*
Y615157D03*
G54D31*
X1308268Y415906D03*
X1328268D03*
G54D37*
X834646Y409449D03*
Y574803D03*
X1216535D03*
Y409449D03*
X1362205Y771654D03*
Y409449D03*
X803150Y771654D03*
Y409449D03*
G54D39*
X1084922Y445748D03*
X992322Y735390D03*
X995078Y543937D03*
G54D40*
X1084922Y544173D03*
X992322Y636965D03*
X995078Y445512D03*
G54D42*
X1273898Y542598D03*
Y447323D03*
X803346Y638540D03*
Y733815D03*
X806102Y447087D03*
Y542362D03*
G54D55*
X1298575Y595654D02*
Y596417D01*
X1303602Y601445*
X1334138*
X1341783Y609091*
X1211339Y699134D02*
X1224024D01*
X1235851Y710961*
X1239350*
X1240709Y712319*
X1210839Y726874D02*
X1214205D01*
X1215226Y727895*
X1226423*
X1230027Y731500*
X1239433*
X1249839Y736787D02*
X1257360D01*
X1257384Y736811*
X1267673*
X1239433Y731500D02*
Y733244D01*
X1242976Y736787*
X1249839*
G54D56*
X922402Y449724D02*
Y449803D01*
X960433*
X964370Y449921*
X1040433Y473858D02*
Y602772D01*
X1040543Y602882*
Y618165*
X1124800Y449906D02*
G75*
G03X1125902Y452374I-2214J2468D01*
X1127202Y449115I4734J0*
G01X1125557Y450150D02*
G03X1125902Y452374I-7006J2224D01*
X1126194Y450068I9250J0*
G01X1125669Y448504D02*
X1125902D01*
Y487402*
X1025630Y487751D02*
G03X1025905Y487102I904J0D01*
G01X1025355D02*
G03X1025630Y487751I-630J649D01*
G01Y486811D02*
Y595354D01*
X1021654Y489921D02*
X1021614Y490866D01*
Y575197*
X1030079Y482633D02*
G03X1030354Y481984I904J-0D01*
G01X1029804D02*
G03X1030079Y482633I-630J649D01*
G01X1030393Y598725D02*
G03X1030118Y598076I630J-649D01*
X1029843Y598725I-904J-0*
G01X1030079Y481693D02*
Y487598D01*
X1030118Y487638*
Y599016*
X1125669Y487323D02*
X1125748Y487402D01*
X1125669Y494921D02*
X1125748Y495000D01*
X1126176Y534611D02*
G03X1125902Y533962I630J-649D01*
X1125627Y534611I-905J-0*
G01X1125748Y495000D02*
X1125902Y495154D01*
Y534902*
Y487402D02*
Y494846D01*
X1125748Y495000*
X1125669Y487402D02*
X1125748D01*
X1125902*
X1125669Y494921D02*
G03X1126467Y494043I883J0D01*
G01X1124871D02*
G03X1125669Y494921I-84J878D01*
G01Y494248D02*
Y494921D01*
Y492598*
X1125906Y539685D02*
X1125748Y539843D01*
X1021890Y575472D02*
X1021614Y575197D01*
Y590866*
X1171783Y595469D02*
X1171732Y595354D01*
Y632638*
X1175000Y590866D02*
Y627953D01*
X1179724Y599016D02*
Y623150D01*
X1178646Y633578D02*
G03X1178920Y632928I904J-0D01*
G01X1178371D02*
G03X1178646Y633578I-630J650D01*
G01Y632638D02*
Y710906D01*
X1183618Y715878*
X1217358*
X1217366Y715886*
X1230752*
X1233173Y718307*
X1264154*
X1161098Y618857D02*
G03X1161373Y618208I905J0D01*
G01X1160824D02*
G03X1161098Y618857I-630J649D01*
G01X1220300Y735366D02*
G03X1220950Y735641I0J905D01*
G01Y735091D02*
G03X1220300Y735366I-650J-629D01*
G01X1161098Y617917D02*
Y637173D01*
X1165492Y641567*
Y727685*
X1169783Y731976*
X1185709*
X1189098Y735366*
X1221240*
X1175000Y627953D02*
Y673228D01*
X1346315Y627932D02*
G03X1346590Y627283I905J0D01*
G01X1346040D02*
G03X1346315Y627932I-630J649D01*
G01Y626992D02*
Y643433D01*
X1348083Y645201*
X1361728*
X1320173Y613849D02*
G03X1320448Y613200I905J0D01*
G01X1319898D02*
G03X1320173Y613849I-629J649D01*
G01X1320373Y648556D02*
G03X1320098Y647906I630J-650D01*
X1319824Y648556I-904J0*
G01X1320173Y612909D02*
Y620272D01*
X1320098Y620346*
Y648846*
X1225421Y664094D02*
G03X1226070Y663819I649J629D01*
X1225421Y663544I-0J-905*
G01X1359400Y615157D02*
X1331425D01*
X1323732Y622850*
Y655217*
X1315130Y663819*
X1225130*
X966260Y660197D02*
X1067441D01*
X1067480Y660236*
X1092795*
X1096575Y664016*
Y759685*
X968991Y657322D02*
G03X969641Y657047I650J630D01*
X968991Y656772I-0J-904*
G01X968701Y657047D02*
X1098465D01*
X1103504Y662087*
X966457Y653898D02*
X1102323D01*
X1109449Y661024*
Y751969*
X969016Y650748D02*
X1105354D01*
X1114921Y660315*
Y731024*
X1118268Y734370*
X1131378*
X955315Y641339D02*
Y644252D01*
X955472Y644409*
X1103582Y762780D02*
G03X1103307Y762131I630J-649D01*
X1103032Y762780I-904J-0*
G01X1103504Y662087D02*
Y723467D01*
X1103307Y723664*
Y763071*
X1175000Y673228D02*
Y712484D01*
X1180634Y718118*
X1229980*
X1232669Y720807*
X1258591*
X1260783Y723000*
X1316647*
X1174984Y673228D02*
X1175000D01*
X1219460Y671535D02*
G03X1220109Y671260I649J629D01*
X1219460Y670985I0J-905*
G01X1334103Y671260D02*
G03X1334753Y671535I0J904D01*
G01Y670985D02*
G03X1334103Y671260I-650J-630D01*
G01X1219169D02*
X1335043D01*
X1344354Y659031D02*
G03X1344629Y658381I905J-0D01*
G01X1344080D02*
G03X1344354Y659031I-630J650D01*
G01X1222783Y667877D02*
G03X1223432Y667602I649J630D01*
X1222783Y667328I0J-904*
G01X1344354Y658091D02*
Y664780D01*
X1341531Y667602*
X1222492*
X1361772Y645157D02*
X1361728Y645201D01*
X914976Y773031D02*
G03X915625Y772756I649J629D01*
X914976Y772481I0J-905*
G01X973740Y712795D02*
Y768881D01*
X973062Y769559*
Y769722*
X970028Y772756*
X914685*
X976220Y709764D02*
Y771811D01*
X972874Y775157*
X966629Y710865D02*
G03X967279Y710591I650J630D01*
X966629Y710316I-0J-905*
G01X966339Y710591D02*
X971535D01*
X973740Y712795*
X967062Y707716D02*
G03X967712Y707441I650J630D01*
X967062Y707166I-0J-905*
G01X966772Y707441D02*
X973898D01*
X976220Y709764*
X1137362Y717594D02*
G03X1137637Y716944I905J-0D01*
G01X1137087D02*
G03X1137362Y717594I-629J650D01*
G01X1138587Y737918D02*
G03X1138852Y738571I-639J640D01*
G01X1139241Y738183D02*
G03X1138587Y737918I-14J-905D01*
G01X1137362Y716654D02*
Y736693D01*
X1139252Y738583*
X1143706Y709803D02*
G03X1144355Y710078I-0J905D01*
G01Y709528D02*
G03X1143706Y709803I-649J-629D01*
G01X1131653Y734079D02*
G03X1131378Y733430I630J-649D01*
X1131103Y734079I-905J0*
G01X1144646Y709803D02*
X1133701D01*
X1131378Y712126*
Y734370*
X1153779Y734040D02*
G03X1153504Y733391I630J-649D01*
X1153229Y734040I-905J-0*
G01X1149646Y707323D02*
X1153504Y711181D01*
Y734331*
X1124936Y708582D02*
G03X1125586Y708307I650J630D01*
X1124936Y708032I-0J-904*
G01X1149646Y707323D02*
X1130748D01*
X1129764Y708307*
X1124646*
X1227606Y693208D02*
G03X1228255Y692933I649J630D01*
X1227606Y692658I-0J-905*
G01X1336948Y750859D02*
G03X1336673Y750210I630J-649D01*
X1336398Y750859I-904J-0*
G01X1227315Y692933D02*
X1330240D01*
X1336673Y699366*
Y751150*
X1285466Y706618D02*
G03X1286115Y706893I-0J905D01*
G01Y706343D02*
G03X1285466Y706618I-649J-629D01*
G01X1278276Y702382D02*
X1282512Y706618D01*
X1286406*
X1252034Y708375D02*
G03X1252299Y707721I904J-14D01*
X1251645Y707986I-640J-639*
G01X1278276Y702382D02*
X1257638D01*
X1251634Y708386*
X1322217Y718138D02*
G03X1322867Y718413I0J904D01*
G01Y717863D02*
G03X1322217Y718138I-650J-630D01*
G01X1317697Y715886D02*
X1319949Y718138D01*
X1323157*
X1317697Y715886D02*
X1293260D01*
X1292862Y716283*
X1266177*
X1264154Y718307*
X1328197Y700779D02*
G03X1328472Y700129I904J-0D01*
G01X1327922D02*
G03X1328197Y700779I-630J650D01*
G01X1328373Y733824D02*
G03X1328098Y733174I630J-650D01*
X1327824Y733824I-904J0*
G01X1328197Y699839D02*
Y716927D01*
X1328098Y717026*
Y734114*
X966929Y723661D02*
X967126D01*
X899346Y772952D02*
G03X899995Y772677I649J630D01*
X899346Y772402I0J-904*
G01X969764Y729488D02*
Y732290D01*
X967802Y734252*
Y762198*
X964933Y765067*
X907717*
X900107Y772677*
X899055*
X967126Y724601D02*
G03X967401Y723952I905J0D01*
G01X966851D02*
G03X967126Y724601I-630J649D01*
G01Y723661D02*
Y726850D01*
X969764Y729488*
X1081378Y717480D02*
Y734016D01*
Y760984*
X1081260Y761102*
X1133780Y719877D02*
G03X1134054Y719228I904J0D01*
G01X1133505D02*
G03X1133780Y719877I-630J649D01*
G01X1134054Y737465D02*
G03X1133780Y736816I630J-649D01*
X1133505Y737465I-905J-0*
G01X1133780Y718937D02*
Y737756D01*
X1181944Y735069D02*
G03X1182598Y735334I14J905D01*
X1182333Y734680I639J-640*
G01X1221753Y738906D02*
G03X1222402Y739180I-0J904D01*
G01Y738631D02*
G03X1221753Y738906I-649J-630D01*
G01X1181933Y734669D02*
X1186169Y738906D01*
X1222693*
X1250135Y748821D02*
G03X1249839Y748024I925J-797D01*
X1249557Y748616I-764J-0*
G01X1249839Y736787D02*
Y748882D01*
X1249760Y748961*
X1300741Y734484D02*
G03X1301394Y734219I639J639D01*
G01X1301006Y733830D02*
G03X1300741Y734484I-905J14D01*
G01X1270073Y745638D02*
G03X1270338Y744985I905J-13D01*
X1269684Y745250I-640J-640*
G01X1301406Y733819D02*
X1291201Y744023D01*
X1271300*
X1269673Y745650*
X1280237Y730283D02*
G03X1280887Y730558I0J905D01*
G01Y730009D02*
G03X1280237Y730283I-650J-630D01*
G01X1273362Y739641D02*
G03X1274011Y739366I649J630D01*
X1273362Y739091I-0J-904*
G01X1281177Y730283D02*
X1279520D01*
Y739366*
X1273071*
X1304299Y729680D02*
G03X1304574Y729031I905J0D01*
G01X1304024D02*
G03X1304299Y729680I-629J649D01*
G01X1305267Y745698D02*
G03X1304992Y745048I630J-650D01*
X1304717Y745698I-904J0*
G01X1304299Y728740D02*
Y743295D01*
X1304992Y743988*
Y745988*
X1312525Y718087D02*
G03X1313174Y718361I-0J904D01*
G01Y717812D02*
G03X1312525Y718087I-649J-630D01*
G01X1268105Y719638D02*
G03X1268369Y718985I904J-13D01*
X1267716Y719250I-639J-640*
G01X1313465Y718087D02*
X1269268D01*
X1267705Y719650*
X1310603Y720697D02*
G03X1311253Y720972I0J904D01*
G01Y720422D02*
G03X1310603Y720697I-650J-630D01*
G01X1278901Y721074D02*
G03X1279550Y720799I649J630D01*
X1278901Y720524I0J-904*
G01X1311543Y720697D02*
X1295128D01*
X1295026Y720799*
X1278610*
X1323280Y722862D02*
X1316784D01*
X1316647Y723000*
X906862Y773077D02*
G03X907515Y773342I13J904D01*
X907250Y772688I640J-640*
G01X906850Y772677D02*
X909331Y775157D01*
X972874*
G54D57*
X1055118Y411535D02*
Y468189D01*
X964370Y449921D02*
Y541181D01*
X1055118Y468189D02*
Y522047D01*
X1055079*
X1055118Y468189D02*
X1055236D01*
X1125669Y487323D02*
Y487402D01*
Y494921D02*
Y539843D01*
Y487402D02*
Y492598D01*
X1055079Y522047D02*
X1055118Y525512D01*
Y570630*
X1054843Y521378D02*
X1055079Y522047D01*
X1125669Y570591D02*
Y539843D01*
X1125748*
X1187520Y570591D02*
X1203803Y586874D01*
Y622031*
X1221299Y639528*
Y646181*
X1203717Y663776D02*
Y691512D01*
X1211339Y699134*
X1221299Y646181D02*
X1214366Y653114D01*
Y653126*
X1203717Y663776*
X955394Y693189D02*
X955472D01*
X1081260Y761102D02*
X1027323D01*
X1035669Y769449*
X1170197*
X998386Y761102D02*
X1027323D01*
X1178543D02*
X1170197Y769449D01*
G54D58*
X955472Y609764D02*
Y644409D01*
Y693189*
Y727323*
X960787Y732638*
G54D60*
X1356220Y615157D02*
G03X1360055Y616780I0J5342D01*
G01Y613535D02*
G03X1356220Y615157I-3835J-3719D01*
X1359515Y615855I0J8133*
G01X1356220Y615157D02*
X1359409D01*
X1359515Y614460D02*
G03X1356220Y615157I-3295J-7435D01*
G01X1356221Y645201D02*
G03X1360119Y646845I-0J5443D01*
G01X1359998Y643597D02*
G03X1356221Y645201I-3777J-3647D01*
X1359529Y645900I-0J8180*
G01X1356221Y645201D02*
X1359410D01*
X1359501Y644505D02*
G03X1356221Y645201I-3280J-7391D01*
G54D61*
G01X1265000Y710008D02*
X1267476Y712484D01*
X1281492*
X1259164Y713981D02*
G03X1258752Y713007I945J-974D01*
X1258340Y713981I-1357J0*
G01X1258752Y713007D02*
Y713817D01*
X1265000Y710008D02*
X1261739D01*
X1258752Y712995*
Y714417*
X1262613Y713093D02*
G03X1263587Y712681I974J945D01*
X1262613Y712269I0J-1357*
G01X1263587Y712681D02*
X1262777D01*
X1262177D02*
X1265002D01*
X1266593Y714272*
X1288720*
X1286471Y701952D02*
G03X1286869Y702932I-959J959D01*
G01X1287452Y702349D02*
G03X1286471Y701952I-21J-1357D01*
G01X1287044Y702525*
X1283189Y698669D02*
X1287469Y702949D01*
X1246861Y702680D02*
G03X1247835Y702268I974J945D01*
X1246861Y701856I0J-1357*
G01X1247835Y702268D02*
X1247025D01*
X1283189Y698669D02*
X1253917D01*
X1250319Y702268*
X1246425*
X1283188Y703027D02*
G03X1283585Y704007I-959J959D01*
G01X1284168Y703424D02*
G03X1283188Y703027I-21J-1357D01*
G01X1283761Y703599*
X1280358Y700197D02*
X1284185Y704024D01*
X1249747Y705270D02*
G03X1250677Y704862I930J856D01*
X1249747Y704455I0J-1264*
G01X1250677Y704862D02*
X1249907D01*
X1280358Y700197D02*
X1255343D01*
X1250677Y704862*
X1249307*
X1282971Y711005D02*
G03X1283952Y710608I960J959D01*
G01X1283369Y710025D02*
G03X1282971Y711005I-1357J20D01*
G01X1283544Y710432*
X1283969Y710008D02*
X1281492Y712484D01*
X1292572Y704568D02*
G03X1293535Y704131I997J920D01*
G01X1292929Y703573D02*
G03X1292572Y704568I-1355J75D01*
G01X1293121Y703973*
X1293528Y703531D02*
X1292547Y704594D01*
Y710445*
X1288720Y714272*
G54D62*
X1045906Y700551D02*
Y718780D01*
Y735591*
X1268126Y729843D02*
X1267900D01*
Y736811*
X1267673*
X1296075Y726130D02*
X1298264Y728319D01*
X1304299*
Y728740*
X1296075Y726130D02*
X1275252D01*
X1271539Y729843*
X1268126*
X820602Y396901D03*
X810602D03*
X800602D03*
X790602D03*
X860602D03*
X850602D03*
X840602D03*
X830602D03*
X900602D03*
X890602D03*
X880602D03*
X870602D03*
X940602D03*
X930602D03*
X920602D03*
X910602D03*
X980602D03*
X970602D03*
X960602D03*
X950602D03*
X1020602D03*
X1010602D03*
X1000602D03*
X990602D03*
X1060602D03*
X1050602D03*
X1040602D03*
X1030602D03*
X1100602D03*
X1090602D03*
X1080602D03*
X1070602D03*
X1140602D03*
X1130602D03*
X1120602D03*
X1110602D03*
X1180602D03*
X1170602D03*
X1160602D03*
X1150602D03*
X1220602D03*
X1210602D03*
X1200602D03*
X1190602D03*
X1260602D03*
X1250602D03*
X1240602D03*
X1230602D03*
X1300602D03*
X1290602D03*
X1280602D03*
X1270602D03*
X1340602D03*
X1330602D03*
X1320602D03*
X1310602D03*
X1370602D03*
X1360602D03*
X1350602D03*
X820602Y436901D03*
Y426901D03*
Y416901D03*
Y406901D03*
X810602Y426901D03*
X800602Y436901D03*
Y426901D03*
X790602Y436901D03*
Y426901D03*
Y416901D03*
Y406901D03*
X860602Y436901D03*
Y426901D03*
Y416901D03*
Y406901D03*
X850602Y436901D03*
Y426901D03*
Y416901D03*
Y406901D03*
X840602Y436901D03*
Y426901D03*
X830602Y436901D03*
Y426901D03*
X900602Y436901D03*
Y426901D03*
Y416901D03*
Y406901D03*
X890602Y436901D03*
Y426901D03*
Y416901D03*
Y406901D03*
X880602Y436901D03*
Y426901D03*
Y416901D03*
Y406901D03*
X870602Y436901D03*
Y426901D03*
Y416901D03*
Y406901D03*
X940602Y436901D03*
Y426901D03*
Y416901D03*
Y406901D03*
X930602Y436901D03*
Y426901D03*
Y416901D03*
Y406901D03*
X920602D03*
X910602Y436901D03*
Y426901D03*
Y416901D03*
Y406901D03*
X980602Y436901D03*
Y426901D03*
Y416901D03*
Y406901D03*
X970602Y436901D03*
Y426901D03*
Y416901D03*
Y406901D03*
X960602Y436901D03*
Y426901D03*
Y416901D03*
Y406901D03*
X950602Y436901D03*
Y426901D03*
Y416901D03*
Y406901D03*
X1020602Y436901D03*
Y426901D03*
Y416901D03*
Y406901D03*
X1010602Y426901D03*
Y416901D03*
Y406901D03*
X1000602Y436901D03*
Y426901D03*
Y416901D03*
Y406901D03*
X990602Y436901D03*
Y426901D03*
Y416901D03*
Y406901D03*
X1060602D03*
X1050602D03*
X1040602Y436901D03*
Y426901D03*
Y416901D03*
Y406901D03*
X1030602Y436901D03*
Y426901D03*
Y416901D03*
Y406901D03*
X1100602Y436901D03*
Y426901D03*
Y416901D03*
Y406901D03*
X1090602Y416901D03*
Y406901D03*
X1080602Y436901D03*
Y426901D03*
Y416901D03*
Y406901D03*
X1070602Y426901D03*
Y416901D03*
Y406901D03*
X1140602Y436901D03*
Y426901D03*
Y416901D03*
Y406901D03*
X1130602Y436901D03*
Y426901D03*
Y416901D03*
Y406901D03*
X1120602Y436901D03*
Y426901D03*
Y416901D03*
Y406901D03*
X1110602Y436901D03*
Y426901D03*
Y416901D03*
Y406901D03*
X1180602Y436901D03*
Y426901D03*
Y416901D03*
Y406901D03*
X1170602Y436901D03*
Y426901D03*
Y416901D03*
Y406901D03*
X1160602Y436901D03*
Y426901D03*
Y416901D03*
Y406901D03*
X1150602Y436901D03*
Y426901D03*
Y416901D03*
Y406901D03*
X1220602Y436901D03*
Y426901D03*
X1210602Y436901D03*
Y426901D03*
X1200602Y436901D03*
Y426901D03*
Y416901D03*
Y406901D03*
X1190602Y436901D03*
Y426901D03*
Y416901D03*
Y406901D03*
X1260602Y436901D03*
Y426901D03*
Y416901D03*
Y406901D03*
X1250602Y436901D03*
Y426901D03*
Y416901D03*
Y406901D03*
X1240602Y436901D03*
Y426901D03*
Y416901D03*
Y406901D03*
X1230602Y436901D03*
Y426901D03*
Y416901D03*
Y406901D03*
X1300602D03*
X1290602Y436901D03*
Y426901D03*
Y416901D03*
Y406901D03*
X1280602Y436901D03*
Y426901D03*
Y416901D03*
Y406901D03*
X1270602Y426901D03*
Y416901D03*
Y406901D03*
X1340602Y436901D03*
Y426901D03*
Y416901D03*
Y406901D03*
X1330602Y436901D03*
Y426901D03*
Y406901D03*
X1320602Y436901D03*
Y426901D03*
Y416901D03*
Y406901D03*
X1310602D03*
X1370602Y436901D03*
Y426901D03*
X1360602Y436901D03*
Y426901D03*
X1350602Y436901D03*
Y426901D03*
Y416901D03*
Y406901D03*
X820602Y476901D03*
Y466901D03*
Y456901D03*
Y446901D03*
X810602Y476901D03*
Y466901D03*
X800602Y476901D03*
Y466901D03*
X790602Y476901D03*
Y466901D03*
Y456901D03*
Y446901D03*
X860602Y476901D03*
Y466901D03*
Y456901D03*
Y446901D03*
X850602Y476901D03*
Y466901D03*
Y456901D03*
Y446901D03*
X840602Y476901D03*
Y466901D03*
Y456901D03*
Y446901D03*
X830602Y476901D03*
Y466901D03*
Y456901D03*
Y446901D03*
X900602Y476901D03*
Y466901D03*
Y456901D03*
Y446901D03*
X890602Y476901D03*
Y466901D03*
Y456901D03*
Y446901D03*
X880602Y476901D03*
Y466901D03*
Y456901D03*
Y446901D03*
X870602Y476901D03*
Y466901D03*
Y456901D03*
Y446901D03*
X940602Y476901D03*
Y466901D03*
Y456901D03*
X930602Y476901D03*
Y466901D03*
Y456901D03*
X920602Y476901D03*
Y466901D03*
Y456901D03*
X910602Y476901D03*
Y466901D03*
Y456901D03*
Y446901D03*
X922402Y449724D03*
X980602Y476901D03*
Y446901D03*
X970602Y476901D03*
Y466901D03*
Y456901D03*
Y446901D03*
X950602Y476901D03*
Y466901D03*
Y456901D03*
X1020602Y466901D03*
Y456901D03*
Y446901D03*
X1010602D03*
X1000602Y466901D03*
Y456901D03*
Y446901D03*
X990602Y456901D03*
X1040433Y473858D03*
X1040602Y466901D03*
Y456901D03*
Y446901D03*
X1030602Y466901D03*
Y456901D03*
Y446901D03*
X1090602Y476901D03*
Y466901D03*
X1080602Y476901D03*
Y466901D03*
Y456901D03*
Y446901D03*
X1070602D03*
X1140602Y476901D03*
Y466901D03*
Y456901D03*
Y446901D03*
X1130602Y476901D03*
Y466901D03*
Y456901D03*
X1120602Y476901D03*
Y466901D03*
Y456901D03*
X1110602Y476901D03*
Y466901D03*
Y456901D03*
X1180602Y476901D03*
Y466901D03*
Y456901D03*
Y446901D03*
X1170602Y476901D03*
Y466901D03*
Y456901D03*
Y446901D03*
X1160602Y476901D03*
Y466901D03*
Y456901D03*
Y446901D03*
X1150602Y476901D03*
Y466901D03*
Y456901D03*
Y446901D03*
X1220602Y476901D03*
Y466901D03*
Y456901D03*
Y446901D03*
X1210602Y476901D03*
Y466901D03*
Y456901D03*
Y446901D03*
X1200602Y476901D03*
Y466901D03*
Y456901D03*
Y446901D03*
X1190602Y476901D03*
Y466901D03*
Y456901D03*
Y446901D03*
X1260602Y476901D03*
Y466901D03*
Y456901D03*
Y446901D03*
X1250602Y476901D03*
Y466901D03*
Y456901D03*
Y446901D03*
X1240602Y476901D03*
Y466901D03*
Y456901D03*
Y446901D03*
X1230602Y476901D03*
Y466901D03*
Y456901D03*
Y446901D03*
X1300602Y476901D03*
Y466901D03*
Y456901D03*
Y446901D03*
X1290602Y476901D03*
Y466901D03*
Y456901D03*
Y446901D03*
X1280602Y476901D03*
Y466901D03*
Y456901D03*
X1270602Y476901D03*
Y466901D03*
X1340602Y476901D03*
Y466901D03*
Y456901D03*
Y446901D03*
X1330602Y476901D03*
Y466901D03*
Y456901D03*
Y446901D03*
X1320602Y476901D03*
Y466901D03*
Y456901D03*
Y446901D03*
X1370602Y476901D03*
Y466901D03*
Y456901D03*
Y446901D03*
X1360602Y476901D03*
Y466901D03*
Y456901D03*
Y446901D03*
X1350602Y476901D03*
Y466901D03*
Y456901D03*
Y446901D03*
X820602Y516901D03*
Y506901D03*
Y496901D03*
Y486901D03*
X810602Y516901D03*
Y506901D03*
Y496901D03*
Y486901D03*
X800602Y516901D03*
Y506901D03*
Y496901D03*
Y486901D03*
X790602Y516901D03*
Y506901D03*
Y496901D03*
Y486901D03*
X860602Y516901D03*
Y506901D03*
Y496901D03*
Y486901D03*
X850602Y516901D03*
Y506901D03*
Y496901D03*
Y486901D03*
X840602Y516901D03*
Y506901D03*
Y496901D03*
Y486901D03*
X830602Y516901D03*
Y506901D03*
Y496901D03*
Y486901D03*
X900602Y516901D03*
Y506901D03*
Y496901D03*
Y486901D03*
X890602Y516901D03*
Y506901D03*
Y496901D03*
Y486901D03*
X880602Y516901D03*
Y506901D03*
Y496901D03*
Y486901D03*
X870602Y516901D03*
Y506901D03*
Y496901D03*
Y486901D03*
X940602Y516901D03*
Y506901D03*
Y496901D03*
Y486901D03*
X930602Y516901D03*
Y506901D03*
Y496901D03*
Y486901D03*
X920602Y516901D03*
Y506901D03*
Y496901D03*
Y486901D03*
X910602Y516901D03*
Y506901D03*
Y496901D03*
Y486901D03*
X970602Y516901D03*
Y506901D03*
Y486901D03*
X950602Y516901D03*
Y506901D03*
Y496901D03*
Y486901D03*
X1025630Y486811D03*
X1000602Y516901D03*
Y506901D03*
Y496901D03*
Y486901D03*
X990602Y516901D03*
Y506901D03*
Y496901D03*
Y486901D03*
X1021654Y489921D03*
X1030079Y481693D03*
X1100602Y506901D03*
X1090602D03*
Y496901D03*
Y486901D03*
X1080602Y516901D03*
Y486901D03*
X1070602Y516901D03*
X1140602D03*
Y506901D03*
Y496901D03*
Y486901D03*
X1110602Y516901D03*
Y506901D03*
Y496901D03*
Y486901D03*
X1180602Y516901D03*
Y506901D03*
Y496901D03*
Y486901D03*
X1170602Y516901D03*
Y506901D03*
Y496901D03*
Y486901D03*
X1160602Y516901D03*
Y506901D03*
Y496901D03*
Y486901D03*
X1150602Y516901D03*
Y506901D03*
Y496901D03*
Y486901D03*
X1220602Y516901D03*
Y506901D03*
Y496901D03*
Y486901D03*
X1210602Y516901D03*
Y506901D03*
Y496901D03*
Y486901D03*
X1200602Y516901D03*
Y506901D03*
Y496901D03*
Y486901D03*
X1190602Y516901D03*
Y506901D03*
Y496901D03*
Y486901D03*
X1260602Y516901D03*
Y506901D03*
Y496901D03*
Y486901D03*
X1250602Y516901D03*
Y506901D03*
Y496901D03*
Y486901D03*
X1240602Y516901D03*
Y506901D03*
Y496901D03*
Y486901D03*
X1230602Y516901D03*
Y506901D03*
Y496901D03*
Y486901D03*
X1300602Y516901D03*
Y506901D03*
Y496901D03*
Y486901D03*
X1290602Y516901D03*
Y506901D03*
Y496901D03*
Y486901D03*
X1280602Y516901D03*
Y506901D03*
Y496901D03*
Y486901D03*
X1270602Y516901D03*
Y506901D03*
Y496901D03*
Y486901D03*
X1340602Y516901D03*
Y506901D03*
Y496901D03*
Y486901D03*
X1330602Y516901D03*
Y506901D03*
Y496901D03*
Y486901D03*
X1320602Y516901D03*
Y506901D03*
Y496901D03*
Y486901D03*
X1370602Y516901D03*
Y506901D03*
Y496901D03*
Y486901D03*
X1360602Y516901D03*
Y506901D03*
Y496901D03*
Y486901D03*
X1350602Y516901D03*
Y506901D03*
Y496901D03*
Y486901D03*
X820602Y556901D03*
Y546901D03*
Y536901D03*
Y526901D03*
X810602Y556901D03*
Y526901D03*
X800602Y556901D03*
Y526901D03*
X790602Y556901D03*
Y546901D03*
Y536901D03*
Y526901D03*
X860602Y556901D03*
Y546901D03*
Y536901D03*
Y526901D03*
X850602Y556901D03*
Y546901D03*
Y536901D03*
Y526901D03*
X840602Y556901D03*
Y546901D03*
Y536901D03*
Y526901D03*
X830602Y556901D03*
Y546901D03*
Y536901D03*
Y526901D03*
X900602Y556901D03*
Y546901D03*
Y536901D03*
Y526901D03*
X890602Y556901D03*
Y546901D03*
Y536901D03*
Y526901D03*
X880602Y556901D03*
Y546901D03*
Y536901D03*
Y526901D03*
X870602Y556901D03*
Y546901D03*
Y536901D03*
Y526901D03*
X940602Y556901D03*
Y546901D03*
Y536901D03*
Y526901D03*
X930602Y556901D03*
Y546901D03*
Y536901D03*
Y526901D03*
X920602Y556901D03*
Y546901D03*
Y536901D03*
Y526901D03*
X910602Y556901D03*
Y546901D03*
Y536901D03*
Y526901D03*
X980602Y556901D03*
Y546901D03*
X970602Y556901D03*
Y546901D03*
Y536901D03*
X950602Y556901D03*
Y546901D03*
Y536901D03*
Y526901D03*
X1010602Y556901D03*
X1000602D03*
Y546901D03*
Y536901D03*
Y526901D03*
X990602Y556901D03*
Y546901D03*
Y536901D03*
Y526901D03*
X1100602Y556901D03*
Y546901D03*
X1090602Y556901D03*
Y546901D03*
Y536901D03*
Y526901D03*
X1080602Y556901D03*
Y536901D03*
Y526901D03*
X1070602Y556901D03*
X1140602D03*
Y546901D03*
Y536901D03*
Y526901D03*
X1110602Y556901D03*
Y546901D03*
Y536901D03*
Y526901D03*
X1125902Y534902D03*
X1180602Y556901D03*
Y546901D03*
Y536901D03*
Y526901D03*
X1170602Y556901D03*
Y546901D03*
Y536901D03*
Y526901D03*
X1160602Y556901D03*
Y546901D03*
Y536901D03*
Y526901D03*
X1150602Y556901D03*
Y546901D03*
Y536901D03*
Y526901D03*
X1220602Y556901D03*
Y546901D03*
Y536901D03*
Y526901D03*
X1210602Y556901D03*
Y546901D03*
Y536901D03*
Y526901D03*
X1200602Y556901D03*
Y546901D03*
Y536901D03*
Y526901D03*
X1190602Y556901D03*
Y546901D03*
Y536901D03*
Y526901D03*
X1260602Y556901D03*
Y546901D03*
Y536901D03*
Y526901D03*
X1250602Y556901D03*
Y546901D03*
Y536901D03*
Y526901D03*
X1240602Y556901D03*
Y546901D03*
Y536901D03*
Y526901D03*
X1230602Y556901D03*
Y546901D03*
Y536901D03*
Y526901D03*
X1300602Y556901D03*
Y546901D03*
Y536901D03*
Y526901D03*
X1290602Y556901D03*
Y546901D03*
Y536901D03*
Y526901D03*
X1280602Y556901D03*
Y526901D03*
X1270602Y556901D03*
Y526901D03*
X1340602Y556901D03*
Y536901D03*
Y526901D03*
X1330602Y556901D03*
Y546901D03*
Y536901D03*
Y526901D03*
X1320602Y556901D03*
Y546901D03*
Y536901D03*
Y526901D03*
X1370602Y556901D03*
Y546901D03*
Y536901D03*
Y526901D03*
X1360602Y556901D03*
Y536901D03*
Y526901D03*
X1350602Y556901D03*
Y546901D03*
Y536901D03*
Y526901D03*
X820602Y596901D03*
Y586901D03*
Y576901D03*
Y566901D03*
X810602Y596901D03*
Y586901D03*
Y576901D03*
Y566901D03*
X800602Y596901D03*
Y586901D03*
Y576901D03*
Y566901D03*
X790602Y596901D03*
Y586901D03*
Y576901D03*
Y566901D03*
X860602Y596901D03*
Y586901D03*
Y576901D03*
Y566901D03*
X850602Y596901D03*
Y586901D03*
Y576901D03*
Y566901D03*
X840602Y596901D03*
Y586901D03*
X830602Y596901D03*
Y586901D03*
X900602Y596901D03*
Y586901D03*
Y576901D03*
Y566901D03*
X890602Y596901D03*
Y586901D03*
Y576901D03*
Y566901D03*
X880602Y596901D03*
Y586901D03*
Y576901D03*
Y566901D03*
X870602Y596901D03*
Y586901D03*
Y576901D03*
Y566901D03*
X940602Y596901D03*
Y586901D03*
Y576901D03*
Y566901D03*
X930602Y596901D03*
Y586901D03*
Y576901D03*
Y566901D03*
X920602Y596901D03*
Y586901D03*
Y576901D03*
Y566901D03*
X910602Y596901D03*
Y586901D03*
Y576901D03*
Y566901D03*
X980602Y596901D03*
Y586901D03*
Y576901D03*
X970602Y596901D03*
Y586901D03*
Y576901D03*
X960602Y596901D03*
Y586901D03*
Y576901D03*
Y566901D03*
X950602Y596901D03*
Y586901D03*
Y576901D03*
Y566901D03*
X1025630Y595354D03*
X1020602Y596901D03*
X1010602D03*
Y586901D03*
Y576901D03*
X1000602Y596901D03*
Y586901D03*
Y576901D03*
X990602Y596901D03*
Y586901D03*
Y576901D03*
X1021614Y590866D03*
X1060602Y586901D03*
Y576901D03*
X1050602Y586901D03*
Y576901D03*
X1100602Y586901D03*
Y576901D03*
X1090602Y586901D03*
Y576901D03*
X1080602Y586901D03*
Y576901D03*
X1070602Y586901D03*
Y576901D03*
X1140602Y586901D03*
Y576901D03*
X1130602Y586901D03*
Y576901D03*
X1120602Y586901D03*
Y576901D03*
X1110602Y586901D03*
Y576901D03*
X1171783Y595469D03*
X1180602Y586901D03*
Y576901D03*
X1170602Y586901D03*
Y576901D03*
X1160602Y586901D03*
Y576901D03*
X1150602Y586901D03*
Y576901D03*
X1175000Y590866D03*
X1220602Y586901D03*
X1210602D03*
X1200602Y566901D03*
X1190602Y596901D03*
Y586901D03*
X1260602Y596901D03*
Y586901D03*
Y576901D03*
Y566901D03*
X1250602Y586901D03*
Y576901D03*
Y566901D03*
X1240602Y586901D03*
Y576901D03*
Y566901D03*
X1230602Y586901D03*
Y576901D03*
Y566901D03*
X1298575Y595654D03*
X1300602Y576901D03*
Y566901D03*
X1290602Y586901D03*
Y576901D03*
Y566901D03*
X1280602Y596901D03*
Y586901D03*
Y576901D03*
Y566901D03*
X1270602Y596901D03*
Y586901D03*
Y576901D03*
Y566901D03*
X1340602Y596901D03*
Y566901D03*
X1330602Y586901D03*
Y576901D03*
Y566901D03*
X1320602Y586901D03*
Y576901D03*
Y566901D03*
X1370602Y596901D03*
Y586901D03*
Y576901D03*
Y566901D03*
X1360602D03*
X1350602Y596901D03*
Y586901D03*
Y576901D03*
Y566901D03*
X820602Y636901D03*
Y626901D03*
Y616901D03*
Y606901D03*
X810602Y626901D03*
Y616901D03*
Y606901D03*
X800602Y626901D03*
Y616901D03*
Y606901D03*
X790602Y636901D03*
Y626901D03*
Y616901D03*
Y606901D03*
X860602Y636901D03*
Y626901D03*
Y616901D03*
Y606901D03*
X850602Y636901D03*
Y626901D03*
Y616901D03*
Y606901D03*
X840602Y636901D03*
Y626901D03*
Y616901D03*
Y606901D03*
X830602Y636901D03*
Y626901D03*
Y616901D03*
Y606901D03*
X900602Y636901D03*
Y626901D03*
Y616901D03*
Y606901D03*
X890602Y636901D03*
Y626901D03*
Y616901D03*
Y606901D03*
X880602Y636901D03*
Y626901D03*
Y616901D03*
Y606901D03*
X870602Y636901D03*
Y626901D03*
Y616901D03*
Y606901D03*
X940602Y636901D03*
Y626901D03*
Y616901D03*
Y606901D03*
X930602Y636901D03*
Y626901D03*
Y616901D03*
Y606901D03*
X920602Y636901D03*
Y626901D03*
Y616901D03*
Y606901D03*
X910602Y636901D03*
Y626901D03*
Y616901D03*
Y606901D03*
X980602Y636901D03*
Y626901D03*
Y616901D03*
X970602Y636901D03*
Y626901D03*
Y616901D03*
X1020602Y636901D03*
Y626901D03*
Y616901D03*
X1010602Y636901D03*
Y616901D03*
X1000602Y636901D03*
Y626901D03*
Y616901D03*
X990602Y626901D03*
Y616901D03*
X1030118Y599016D03*
X1040543Y618165D03*
X1060602Y636901D03*
Y626901D03*
X1050602Y636901D03*
Y626901D03*
X1040602Y636901D03*
Y626901D03*
X1030602Y636901D03*
Y626901D03*
Y616901D03*
X1090602Y636901D03*
Y626901D03*
X1080602Y636901D03*
Y626901D03*
X1070602Y636901D03*
Y626901D03*
X1140602Y636901D03*
X1130602D03*
X1120602D03*
X1179724Y599016D03*
Y623150D03*
X1178646Y632638D03*
X1171732D03*
X1161098Y617917D03*
X1150602Y636901D03*
X1175000Y627953D03*
X1220602Y626901D03*
Y616901D03*
Y606901D03*
X1210602Y616901D03*
X1200602Y636901D03*
X1190602D03*
Y626901D03*
Y616901D03*
X1260602Y626901D03*
Y616901D03*
X1250602Y636901D03*
X1240602Y606901D03*
X1230602Y636901D03*
Y616901D03*
Y606901D03*
X1300602Y636901D03*
Y626901D03*
Y616901D03*
Y606901D03*
X1290602Y636901D03*
Y626901D03*
Y616901D03*
X1280602Y636901D03*
Y626901D03*
Y616901D03*
X1270602Y626901D03*
Y616901D03*
X1346315Y626992D03*
X1320173Y612909D03*
X1341783Y609091D03*
X1330602Y606901D03*
X1310602Y636901D03*
Y626901D03*
Y616901D03*
Y606901D03*
X1370602Y636901D03*
Y626901D03*
Y616901D03*
Y606901D03*
X1360602D03*
X1350602D03*
X820602Y676901D03*
Y666901D03*
Y656901D03*
Y646901D03*
X810602Y676901D03*
Y666901D03*
Y656901D03*
X800602Y676901D03*
Y666901D03*
Y656901D03*
X790602Y676901D03*
Y666901D03*
Y656901D03*
Y646901D03*
X860602Y676901D03*
Y666901D03*
Y656901D03*
Y646901D03*
X850602Y676901D03*
Y666901D03*
Y656901D03*
Y646901D03*
X840602Y676901D03*
Y666901D03*
Y656901D03*
Y646901D03*
X830602Y676901D03*
Y666901D03*
Y656901D03*
Y646901D03*
X900602Y676901D03*
Y666901D03*
Y656901D03*
Y646901D03*
X890602Y676901D03*
Y666901D03*
Y656901D03*
Y646901D03*
X880602Y676901D03*
Y666901D03*
Y656901D03*
Y646901D03*
X870602Y676901D03*
Y666901D03*
Y656901D03*
Y646901D03*
X940602Y676901D03*
Y666901D03*
Y656901D03*
Y646901D03*
X930602Y676901D03*
Y666901D03*
Y656901D03*
Y646901D03*
X920602Y676901D03*
Y666901D03*
Y656901D03*
Y646901D03*
X910602Y676901D03*
Y666901D03*
Y656901D03*
Y646901D03*
X966260Y660197D03*
X968701Y657047D03*
X966457Y653898D03*
X969016Y650748D03*
X980602Y676901D03*
Y666901D03*
X970602Y676901D03*
Y666901D03*
X990602D03*
X1060602D03*
X1050602Y676901D03*
Y666901D03*
X1040602D03*
X1090602Y676901D03*
Y666901D03*
X1080602Y676901D03*
Y666901D03*
X1070602D03*
X1140602Y676901D03*
Y666901D03*
Y656901D03*
Y646901D03*
X1130602Y676901D03*
Y666901D03*
Y646901D03*
X1120602Y676901D03*
Y666901D03*
X1160602Y676901D03*
Y666901D03*
Y646901D03*
X1150602Y676901D03*
Y666901D03*
Y656901D03*
Y646901D03*
X1222492Y667602D03*
X1225130Y663819D03*
X1219169Y671260D03*
X1220602Y656901D03*
X1210602Y676901D03*
Y666901D03*
Y646901D03*
X1200602Y656901D03*
Y646901D03*
X1190602Y676901D03*
Y666901D03*
Y656901D03*
Y646901D03*
X1260602Y676901D03*
Y656901D03*
Y646901D03*
X1250602Y676901D03*
Y656901D03*
X1240602Y676901D03*
Y656901D03*
X1230602D03*
X1300602Y676901D03*
Y656901D03*
Y646901D03*
X1290602Y676901D03*
Y656901D03*
Y646901D03*
X1280602Y676901D03*
Y656901D03*
Y646901D03*
X1270602Y676901D03*
Y656901D03*
Y646901D03*
X1344354Y658091D03*
X1320098Y648846D03*
X1335043Y671260D03*
X1340602Y676901D03*
Y646901D03*
X1330602Y676901D03*
Y646901D03*
X1310602Y676901D03*
Y656901D03*
Y646901D03*
X1370602Y676901D03*
Y666901D03*
Y656901D03*
Y646901D03*
X1350602Y676901D03*
Y666901D03*
Y656901D03*
X820602Y716901D03*
Y706901D03*
Y696901D03*
Y686901D03*
X810602Y716901D03*
Y706901D03*
Y696901D03*
Y686901D03*
X800602Y716901D03*
Y706901D03*
Y696901D03*
Y686901D03*
X790602Y716901D03*
Y706901D03*
Y696901D03*
Y686901D03*
X860602Y716901D03*
Y706901D03*
Y696901D03*
Y686901D03*
X850602Y716901D03*
Y706901D03*
Y696901D03*
Y686901D03*
X840602Y716901D03*
Y706901D03*
Y696901D03*
Y686901D03*
X830602Y716901D03*
Y706901D03*
Y696901D03*
Y686901D03*
X900602Y716901D03*
Y706901D03*
Y696901D03*
Y686901D03*
X890602Y716901D03*
Y706901D03*
Y696901D03*
Y686901D03*
X880602Y716901D03*
Y706901D03*
Y696901D03*
Y686901D03*
X870602Y716901D03*
Y706901D03*
Y696901D03*
Y686901D03*
X940602Y716901D03*
Y706901D03*
Y696901D03*
Y686901D03*
X930602Y716901D03*
Y706901D03*
Y696901D03*
Y686901D03*
X920602Y716901D03*
Y706901D03*
Y696901D03*
Y686901D03*
X910602Y716901D03*
Y706901D03*
Y696901D03*
Y686901D03*
X966339Y710591D03*
X966772Y707441D03*
X970602Y696901D03*
X1020602Y716901D03*
Y706901D03*
Y696901D03*
Y686901D03*
X1000602Y706901D03*
Y696901D03*
Y686901D03*
X990602Y706901D03*
Y696901D03*
X1060602Y716901D03*
Y706901D03*
Y686901D03*
X1050602Y696901D03*
Y686901D03*
X1040602Y716901D03*
Y696901D03*
X1090602Y716901D03*
Y706901D03*
Y696901D03*
Y686901D03*
X1080602Y706901D03*
Y696901D03*
X1070602Y716901D03*
Y706901D03*
Y686901D03*
X1079843Y688268D03*
X1124646Y708307D03*
X1137362Y716654D03*
X1144646Y709803D03*
X1140602Y696901D03*
Y686901D03*
X1130602Y696901D03*
Y686901D03*
X1120602Y716901D03*
Y686901D03*
X1160602Y716901D03*
Y706901D03*
Y696901D03*
Y686901D03*
X1150602Y696901D03*
Y686901D03*
X1227315Y692933D03*
X1210602Y686901D03*
X1200602Y706901D03*
Y696901D03*
X1190602Y706901D03*
Y696901D03*
Y686901D03*
X1249307Y704862D03*
X1246425Y702268D03*
X1258752Y714417D03*
X1262177Y712681D03*
X1251634Y708386D03*
X1266307Y706362D03*
X1260157Y706594D03*
X1233335Y714327D03*
X1260602Y686901D03*
X1250602D03*
X1240602D03*
X1235528Y704051D03*
X1241909Y705142D03*
X1235728Y699567D03*
X1240709Y712319D03*
X1284185Y704024D03*
X1287469Y702949D03*
X1283969Y710008D03*
X1293528Y703531D03*
X1286406Y706618D03*
X1300602Y686901D03*
X1290602D03*
X1280602D03*
X1270602D03*
X1328197Y699839D03*
X1340602Y696901D03*
Y686901D03*
X1330602D03*
X1310602D03*
X1370602Y716901D03*
Y706901D03*
Y696901D03*
Y686901D03*
X1360602Y716901D03*
X1350602Y706901D03*
Y696901D03*
Y686901D03*
X820602Y756901D03*
Y746901D03*
Y736901D03*
Y726901D03*
X810602Y756901D03*
Y746901D03*
X800602Y756901D03*
Y746901D03*
X790602Y756901D03*
Y746901D03*
Y736901D03*
Y726901D03*
X860602Y756901D03*
Y746901D03*
Y736901D03*
Y726901D03*
X850602Y756901D03*
Y746901D03*
Y736901D03*
Y726901D03*
X840602Y756901D03*
Y746901D03*
Y736901D03*
Y726901D03*
X830602Y756901D03*
Y746901D03*
Y736901D03*
Y726901D03*
X900602Y756901D03*
Y746901D03*
Y736901D03*
Y726901D03*
X890602Y756901D03*
Y746901D03*
Y736901D03*
Y726901D03*
X880602Y756901D03*
Y746901D03*
Y736901D03*
Y726901D03*
X870602Y756901D03*
Y746901D03*
Y736901D03*
Y726901D03*
X940602Y756901D03*
Y746901D03*
Y736901D03*
Y726901D03*
X930602Y756901D03*
Y746901D03*
Y736901D03*
Y726901D03*
X920602Y756901D03*
Y746901D03*
Y736901D03*
Y726901D03*
X910602Y756901D03*
Y746901D03*
Y736901D03*
Y726901D03*
X967126Y723661D03*
X980602Y756901D03*
Y746901D03*
Y736901D03*
X960602Y756901D03*
Y746901D03*
X963701Y725906D03*
X1020602Y746901D03*
Y736901D03*
Y726901D03*
X1000602Y746901D03*
Y736901D03*
Y726901D03*
X990602Y756901D03*
Y746901D03*
X1060602D03*
Y736901D03*
X1050602Y746901D03*
Y726901D03*
X1040602Y746901D03*
Y726901D03*
X1030602Y746901D03*
Y736901D03*
Y726901D03*
X1090602Y756901D03*
Y746901D03*
Y736901D03*
X1070602Y746901D03*
Y736901D03*
X1081378Y717480D03*
Y734016D03*
X1133780Y718937D03*
Y737756D03*
X1139252Y738583D03*
X1109449Y751969D03*
X1131378Y734370D03*
X1140602Y756901D03*
X1145563Y739248D03*
X1120602Y726901D03*
X1141157Y720488D03*
X1153504Y734331D03*
X1181933Y734669D03*
X1180602Y746901D03*
X1170602Y756901D03*
Y746901D03*
Y736901D03*
X1160602Y726901D03*
X1150602Y756901D03*
X1222693Y738906D03*
X1221240Y735366D03*
X1195165Y727850D03*
X1190157Y727728D03*
X1200374Y727606D03*
X1220602Y756901D03*
Y746901D03*
X1210602Y756901D03*
Y746901D03*
X1200602Y756901D03*
Y746901D03*
X1190602Y756901D03*
X1210839Y726874D03*
X1267705Y719650D03*
X1258453Y727339D03*
X1255453Y732079D03*
X1254480Y728213D03*
X1251480Y731697D03*
X1251047Y725236D03*
X1233803Y726610D03*
X1251256Y727461D03*
X1258000Y731783D03*
X1230122Y726362D03*
X1230602Y756901D03*
Y746901D03*
X1239433Y731500D03*
X1249760Y748961D03*
X1267673Y736811D03*
X1268126Y729843D03*
X1269673Y745650D03*
X1301406Y733819D03*
X1278610Y720799D03*
X1300602Y746901D03*
X1290602D03*
X1280602Y756901D03*
X1270602D03*
X1281177Y730283D03*
X1273071Y739366D03*
X1304992Y745988D03*
X1304299Y728740D03*
X1328098Y734114D03*
X1336673Y751150D03*
X1313465Y718087D03*
X1323157Y718138D03*
X1311543Y720697D03*
X1340602Y756901D03*
X1330602Y746901D03*
X1320602D03*
X1310602D03*
Y736901D03*
X1323280Y722862D03*
X1370602Y756901D03*
Y746901D03*
Y736901D03*
Y726901D03*
X1360602Y756901D03*
Y746901D03*
Y736901D03*
Y726901D03*
X1350602Y756901D03*
Y746901D03*
Y736901D03*
Y726901D03*
X820602Y776901D03*
Y766901D03*
X790602Y776901D03*
Y766901D03*
X860602Y776901D03*
Y766901D03*
X850602Y776901D03*
Y766901D03*
X840602Y776901D03*
Y766901D03*
X830602Y776901D03*
Y766901D03*
X899055Y772677D03*
X906850D03*
X890602Y776901D03*
Y766901D03*
X880602Y776901D03*
Y766901D03*
X870602Y776901D03*
Y766901D03*
X914685Y772756D03*
X980602Y766901D03*
X1020602Y776901D03*
X1010602D03*
X990602Y766901D03*
X1060602Y776901D03*
X1050602D03*
X1096575Y759685D03*
X1103307Y763071D03*
X1100602Y776901D03*
X1090602D03*
X1080602D03*
X1140602D03*
X1130602D03*
X1120602D03*
X1110602D03*
X1180602D03*
X1170602D03*
X1160602D03*
X1150602D03*
X1220602D03*
Y766901D03*
X1210602Y776901D03*
Y766901D03*
X1200602Y776901D03*
Y766901D03*
X1190602Y776901D03*
Y766901D03*
X1230602Y776901D03*
Y766901D03*
X1340602Y776901D03*
Y766901D03*
X1330602Y776901D03*
Y766901D03*
X1320602Y776901D03*
Y766901D03*
X1310602Y776901D03*
Y766901D03*
X1350602Y776901D03*
Y766901D03*
G54D63*
X789102Y395901D02*
G03X789602Y395401I500J-0D01*
G01X1375753*
G03X1376253Y395901I-0J500*
G01Y785202*
G03X1375753Y785702I-500J-0*
G01X789602*
G03X789102Y785202I-0J-500*
G01Y395901*
X1226462Y696415D02*
G03X1227013Y695918I500J0D01*
G01X1228708Y695590D02*
G03X1227013Y695918I-1393J-2657D01*
G01X1228708Y695590D02*
G03X1228940Y695533I232J443D01*
G01X1252709*
G03X1253209Y696033I-0J500*
X1252917Y696488I-500J0*
G01X1252220Y696972D02*
G03X1252917Y696488I1697J1697D01*
G01X1252220Y696972D02*
X1249471Y699721D01*
G03X1249118Y699868I-353J-353*
G01X1248385*
G03X1248105Y699782I-0J-500*
G01X1243425Y702268D02*
G03X1248105Y699782I3000J-0D01*
G01X1245989Y705236D02*
G03X1243425Y702268I436J-2968D01*
G01X1245989Y705236D02*
G03X1246401Y705607I-72J495D01*
G01X1248308Y707691D02*
G03X1246401Y705607I999J-2829D01*
G01X1248308Y707691D02*
G03X1248641Y708162I-167J471D01*
G01X1248641*
G03X1248640Y708194I-500J0*
G01X1248634Y708386D02*
G03X1248640Y708194I3000J-0D01*
G01X1254498Y709280D02*
G03X1248634Y708386I-2864J-894D01*
G01X1254498Y709280D02*
G03X1254621Y709075I477J149D01*
G01X1258568Y705128*
G03X1258922Y704982I354J354*
G01X1276992*
G03X1277345Y705128I-0J500*
G01X1280673Y708457*
X1280908Y708665D02*
G03X1280673Y708457I1604J-2047D01*
G01X1280908Y708665D02*
G03X1281100Y709058I-308J393D01*
X1281081Y709194I-500J0*
G01X1281023Y709438D02*
G03X1281081Y709194I2946J570D01*
G01X1281023Y709438D02*
G03X1280886Y709696I-491J-95D01*
G01X1280644Y709938*
G03X1280291Y710084I-353J-354*
G01X1268678*
G03X1268324Y709938I-0J-500*
G01X1266697Y708311*
X1265000Y707608D02*
G03X1266697Y708311I0J2400D01*
G01X1265000Y707608D02*
X1261739D01*
X1260042Y708311D02*
G03X1261739Y707608I1697J1697D01*
G01X1260042Y708311D02*
X1257055Y711298D01*
X1256411Y712466D02*
G03X1257055Y711298I2341J529D01*
G01X1256411Y712466D02*
G03X1256327Y712651I-488J-110D01*
G01X1255752Y714417D02*
G03X1256327Y712651I3000J0D01*
G01X1255829Y715094D02*
G03X1255752Y714417I2923J-677D01*
G01X1255829Y715094D02*
G03X1255842Y715207I-487J113D01*
G01X1255842*
G03X1255342Y715707I-500J0*
G01X1243476*
G03X1242976Y715207I0J-500*
X1243130Y714846I500J0*
G01X1244209Y712319D02*
G03X1243130Y714846I-3500J-0D01*
G01X1243184Y709844D02*
G03X1244209Y712319I-2475J2475D01*
G01X1243184Y709844D02*
X1241825Y708486D01*
X1239350Y707461D02*
G03X1241825Y708486I0J3500D01*
G01X1239350Y707461D02*
X1237508D01*
G03X1237154Y707314I-0J-500*
G01X1226609Y696769*
G03X1226462Y696415I353J-354*
G01X1372079Y771654D02*
G03X1352331I-9874J-0D01*
X1372079I9874J-0*
G01Y409449D02*
G03X1352331I-9874J-0D01*
X1372079I9874J-0*
G01X1333811Y415906D02*
G03X1322724I-5543J-0D01*
X1333811I5544J-0*
G01X1313811D02*
G03X1302724I-5543J-0D01*
X1313811I5544J-0*
G01X1283772Y542598D02*
G03X1264024I-9874J0D01*
X1283772I9874J0*
G01Y447323D02*
G03X1264024I-9874J-0D01*
X1283772I9874J-0*
G01X1220562Y673917D02*
G03X1216169Y671260I-1393J-2657D01*
G01X1220562Y673917D02*
G03X1220794Y673860I232J443D01*
G01X1333418*
X1333419D02*
G03X1333651Y673917I-0J500D01*
G01X1338043Y671260D02*
G03X1333651Y673917I-3000J-0D01*
G01X1338043Y671260D02*
X1338043D01*
X1338005Y670782D02*
G03X1338043Y671260I-2962J478D01*
G01X1338005Y670782D02*
G03X1337999Y670702I494J-80D01*
X1338499Y670202I500J0*
G01X1341531*
X1343370Y669441D02*
G03X1341531Y670202I-1839J-1839D01*
G01X1343370Y669441D02*
X1346193Y666618D01*
X1346954Y664780D02*
G03X1346193Y666618I-2600J-0D01*
G01X1346954Y664780D02*
Y659715D01*
G03X1347011Y659483I500J0*
G01X1347354Y658091D02*
G03X1347011Y659483I-3000J-0D01*
G01X1341354Y658091D02*
G03X1347354I3000J-0D01*
G01X1341697Y659483D02*
G03X1341354Y658091I2657J-1392D01*
G01X1341697Y659483D02*
G03X1341754Y659715I-443J232D01*
G01Y663495*
G03X1341608Y663849I-500J0*
G01X1340601Y664856*
G03X1340247Y665002I-354J-354*
G01X1318831*
G03X1318331Y664502I-0J-500*
X1318477Y664149I500J0*
G01X1325571Y657055*
X1326332Y655217D02*
G03X1325571Y657055I-2600J-0D01*
G01X1326332Y655217D02*
Y624134D01*
G03X1326479Y623781I500J0*
G01X1332356Y617904*
G03X1332709Y617757I353J353*
G01X1356220*
G03X1358189Y618590I0J2742*
G01X1358391Y618778D02*
G03X1358189Y618590I1664J-1998D01*
G01X1358391Y618778D02*
G03X1358410Y618795I-320J384D01*
G01X1359796Y619699D02*
G03X1358410Y618795I1976J-4542D01*
G01X1359796Y619699D02*
G03X1360096Y620157I-200J458D01*
X1359796Y620616I-500J0*
G01X1356819Y625157D02*
G03X1359796Y620616I4953J0D01*
G01Y629699D02*
G03X1356819Y625157I1976J-4542D01*
G01X1359796Y629699D02*
G03X1360096Y630157I-200J458D01*
X1359796Y630616I-500J0*
G01X1356819Y635157D02*
G03X1359796Y630616I4953J0D01*
G01Y639699D02*
G03X1356819Y635157I1976J-4542D01*
G01X1359796Y639699D02*
G03X1360096Y640157I-200J458D01*
X1359796Y640616I-500J0*
G01X1358283Y641642D02*
G03X1359796Y640616I3489J3515D01*
G01X1358283Y641642D02*
G03X1358264Y641660I-353J-355D01*
G01X1358128Y641791D02*
G03X1358264Y641660I1870J1806D01*
G01X1358128Y641791D02*
G03X1356221Y642601I-1907J-1841D01*
G01X1349415*
G03X1348915Y642101I-0J-500*
G01Y628617*
G03X1348972Y628385I500J-0*
G01X1349315Y626992D02*
G03X1348972Y628385I-3000J0D01*
G01X1343315Y626992D02*
G03X1349315I3000J0D01*
G01X1343658Y628385D02*
G03X1343315Y626992I2657J-1393D01*
G01X1343658Y628385D02*
G03X1343715Y628617I-443J232D01*
G01Y643433*
X1344476Y645272D02*
G03X1343715Y643433I1839J-1839D01*
G01X1344476Y645272D02*
X1346244Y647039D01*
X1348083Y647801D02*
G03X1346244Y647039I-0J-2600D01*
G01X1348083Y647801D02*
X1356221D01*
G03X1358257Y648660I-0J2843*
G01X1358532Y648905D02*
G03X1358257Y648660I1587J-2060D01*
G01X1358532Y648905D02*
G03X1358552Y648921I-305J396D01*
G01X1359796Y649699D02*
G03X1358552Y648921I1976J-4542D01*
G01X1359796Y649699D02*
G03X1360096Y650157I-200J458D01*
X1359796Y650616I-500J0*
G01X1356819Y655157D02*
G03X1359796Y650616I4953J0D01*
G01Y659699D02*
G03X1356819Y655157I1976J-4542D01*
G01X1359796Y659699D02*
G03X1360096Y660157I-200J458D01*
X1359796Y660616I-500J0*
G01X1356819Y665157D02*
G03X1359796Y660616I4953J0D01*
G01Y669699D02*
G03X1356819Y665157I1976J-4542D01*
G01X1359796Y669699D02*
G03X1360096Y670157I-200J458D01*
X1359796Y670616I-500J0*
G01X1356819Y675157D02*
G03X1359796Y670616I4953J0D01*
G01X1366724Y675157D02*
G03X1356819I-4952J0D01*
G01X1363748Y670616D02*
G03X1366724Y675157I-1976J4541D01*
G01X1363748Y670616D02*
G03X1363447Y670157I199J-459D01*
X1363748Y669699I500J0*
G01X1366724Y665157D02*
G03X1363748Y669699I-4952J0D01*
G01Y660616D02*
G03X1366724Y665157I-1976J4541D01*
G01X1363748Y660616D02*
G03X1363447Y660157I199J-459D01*
X1363748Y659699I500J0*
G01X1366724Y655157D02*
G03X1363748Y659699I-4952J0D01*
G01Y650616D02*
G03X1366724Y655157I-1976J4541D01*
G01X1363748Y650616D02*
G03X1363447Y650157I199J-459D01*
X1363748Y649699I500J0*
G01X1366724Y645157D02*
G03X1363748Y649699I-4952J0D01*
G01Y640616D02*
G03X1366724Y645157I-1976J4541D01*
G01X1363748Y640616D02*
G03X1363447Y640157I199J-459D01*
X1363748Y639699I500J0*
G01X1366724Y635157D02*
G03X1363748Y639699I-4952J0D01*
G01Y630616D02*
G03X1366724Y635157I-1976J4541D01*
G01X1363748Y630616D02*
G03X1363447Y630157I199J-459D01*
X1363748Y629699I500J0*
G01X1366724Y625157D02*
G03X1363748Y629699I-4952J0D01*
G01Y620616D02*
G03X1366724Y625157I-1976J4541D01*
G01X1363748Y620616D02*
G03X1363447Y620157I199J-459D01*
X1363748Y619699I500J0*
G01X1366724Y615157D02*
G03X1363748Y619699I-4952J0D01*
G01X1358410Y611520D02*
G03X1366724Y615157I3362J3637D01*
G01X1358410Y611520D02*
G03X1358391Y611537I-339J-367D01*
G01X1358189Y611724D02*
G03X1358391Y611537I1866J1811D01*
G01X1358189Y611724D02*
G03X1356220Y612557I-1969J-1908D01*
G01X1344466*
G03X1343966Y612057I0J-500*
X1344131Y611687I500J0*
G01X1345283Y609091D02*
G03X1344131Y611687I-3500J-0D01*
G01X1344258Y606616D02*
G03X1345283Y609091I-2475J2475D01*
G01X1344258Y606616D02*
X1336613Y598970D01*
X1334138Y597945D02*
G03X1336613Y598970I-0J3500D01*
G01X1334138Y597945D02*
X1305259D01*
G03X1304906Y597798I0J-500*
G01X1302087Y594980*
G03X1301957Y594755I354J-354*
G01X1295075Y595654D02*
G03X1301957Y594755I3500J-0D01*
G01X1295075Y595654D02*
Y596417D01*
X1296100Y598892D02*
G03X1295075Y596417I2475J-2475D01*
G01X1296100Y598892D02*
X1301127Y603920D01*
X1303602Y604945D02*
G03X1301127Y603920I0J-3500D01*
G01X1303602Y604945D02*
X1332481D01*
G03X1332834Y605091I-0J500*
G01X1339309Y611565*
X1339436Y611687D02*
G03X1339309Y611565I2347J-2596D01*
G01X1339436Y611687D02*
G03X1339601Y612057I-335J370D01*
X1339101Y612557I-500J0*
G01X1331425*
X1329587Y613319D02*
G03X1331425Y612557I1838J1838D01*
G01X1329587Y613319D02*
X1323627Y619279D01*
G03X1322773Y618925I-354J-354*
G01Y614534*
G03X1322830Y614302I500J0*
G01X1323173Y612909D02*
G03X1322830Y614302I-3000J0D01*
G01X1317173Y612909D02*
G03X1323173I3000J0D01*
G01X1317516Y614302D02*
G03X1317173Y612909I2657J-1393D01*
G01X1317516Y614302D02*
G03X1317573Y614534I-443J232D01*
G01Y619670*
G03X1317561Y619779I-500J-0*
G01X1317498Y620346D02*
G03X1317561Y619779I2600J0D01*
G01X1317498Y620346D02*
Y647222D01*
G03X1317441Y647454I-500J-0*
G01X1317098Y648846D02*
G03X1317441Y647454I3000J0D01*
G01X1320556Y651811D02*
G03X1317098Y648846I-458J-2965D01*
G01X1320556Y651811D02*
G03X1321132Y652306I76J495D01*
G01X1321132D02*
Y653932D01*
G03X1320986Y654286I-500J0*
G01X1314199Y661072*
G03X1313846Y661219I-353J-353*
G01X1226755*
G03X1226523Y661162I-0J-500*
G01X1222130Y663819D02*
G03X1226523Y661162I3000J-0D01*
G01X1222130Y663819D02*
X1222130D01*
X1222148Y664150D02*
G03X1222130Y663819I2982J-331D01*
G01X1222148Y664150D02*
G03X1222151Y664205I-497J55D01*
X1221771Y664690I-500J-0*
G01X1219492Y667602D02*
G03X1221771Y664690I3000J0D01*
G01X1219492Y667602D02*
X1219492D01*
X1219495Y667741D02*
G03X1219492Y667602I2997J-139D01*
G01X1219495Y667741D02*
G03X1219496Y667764I-499J23D01*
X1219021Y668264I-500J0*
G01X1216169Y671260D02*
G03X1219021Y668264I3000J-0D01*
G01X1226409Y574803D02*
G03X1206661I-9874J0D01*
X1226409I9874J0*
G01Y409449D02*
G03X1206661I-9874J-0D01*
X1226409I9874J-0*
G01X1171876Y635634D02*
G03X1168732Y632638I-144J-2996D01*
G01X1171876Y635634D02*
G03X1172400Y636134I24J500D01*
G01Y672916*
G03X1172397Y672967I-500J0*
G01X1172384Y673228D02*
G03X1172397Y672967I2600J0D01*
G01X1172384Y673228D02*
X1172384D01*
X1172397Y673490D02*
G03X1172384Y673228I2587J-262D01*
G01X1172397Y673490D02*
G03X1172400Y673540I-497J50D01*
G01Y712484*
X1173162Y714323D02*
G03X1172400Y712484I1838J-1839D01*
G01X1173162Y714323D02*
X1178795Y719957D01*
X1180634Y720718D02*
G03X1178795Y719957I-0J-2600D01*
G01X1180634Y720718D02*
X1228696D01*
G03X1229050Y720865I0J500*
G01X1230831Y722646*
X1232669Y723407D02*
G03X1230831Y722646I0J-2600D01*
G01X1232669Y723407D02*
X1257306D01*
G03X1257660Y723554I0J500*
G01X1258945Y724838*
X1260783Y725600D02*
G03X1258945Y724838I0J-2600D01*
G01X1260783Y725600D02*
X1270332D01*
G03X1270832Y726100I0J500*
X1270686Y726454I-500J0*
G01X1270443Y726696*
G03X1270090Y726843I-353J-353*
G01X1267900*
X1264900Y729843D02*
G03X1267900Y726843I3000J-0D01*
G01X1264900Y729843D02*
Y732811D01*
G03X1264400Y733311I-500J0*
G01X1257795*
G03X1257740Y733308I-0J-500*
G01X1257360Y733287D02*
G03X1257740Y733308I0J3500D01*
G01X1257360Y733287D02*
X1244633D01*
G03X1244280Y733141I0J-500*
G01X1243080Y731941*
G03X1242933Y731587I353J-354*
G01Y731500*
X1239433Y728000D02*
G03X1242933Y731500I0J3500D01*
G01X1239433Y728000D02*
X1231684D01*
G03X1231331Y727854I0J-500*
G01X1228897Y725420*
X1226423Y724395D02*
G03X1228897Y725420I-0J3500D01*
G01X1226423Y724395D02*
X1216874D01*
G03X1216541Y724268I0J-500*
G01X1214205Y723374D02*
G03X1216541Y724268I-0J3500D01*
G01X1214205Y723374D02*
X1210839D01*
X1207339Y726874D02*
G03X1210839Y723374I3500J0D01*
G01Y730374D02*
G03X1207339Y726874I-0J-3500D01*
G01X1210839Y730374D02*
X1212556D01*
G03X1212890Y730502I0J500*
G01X1215226Y731395D02*
G03X1212890Y730502I0J-3500D01*
G01X1215226Y731395D02*
X1220789D01*
G03X1221240Y731680I-0J500*
X1221691Y731395I451J215*
G01X1224766*
G03X1225119Y731542I-0J500*
G01X1227552Y733975*
X1230027Y735000D02*
G03X1227552Y733975I0J-3500D01*
G01X1230027Y735000D02*
X1236130D01*
G03X1236543Y735218I-0J500*
G01X1236958Y735719D02*
G03X1236543Y735218I2475J-2475D01*
G01X1236958Y735719D02*
X1240502Y739262D01*
X1242976Y740287D02*
G03X1240502Y739262I0J-3500D01*
G01X1242976Y740287D02*
X1246739D01*
G03X1247239Y740787I-0J500*
G01Y747194*
G03X1247170Y747446I-500J-0*
G01X1246760Y748961D02*
G03X1247170Y747446I3000J-0D01*
G01X1252760Y748961D02*
G03X1246760I-3000J-0D01*
G01X1252574Y747921D02*
G03X1252760Y748961I-2814J1040D01*
G01X1252574Y747921D02*
X1252570Y747911D01*
X1252484Y747705D02*
G03X1252570Y747911I-2724J1256D01*
G01X1252484Y747705D02*
G03X1252439Y747496I455J-209D01*
G01Y740787*
G03X1252939Y740287I500J0*
G01X1256950*
G03X1257004Y740290I0J500*
G01X1257384Y740311D02*
G03X1257004Y740290I0J-3500D01*
G01X1257384Y740311D02*
X1267673D01*
X1271173Y736811D02*
G03X1267673Y740311I-3500J0D01*
G01X1270934Y735539D02*
G03X1271173Y736811I-3261J1272D01*
G01X1270934Y735539D02*
G03X1270900Y735357I466J-182D01*
G01Y733343*
G03X1271400Y732843I500J-0*
G01X1271539*
X1273661Y731964D02*
G03X1271539Y732843I-2122J-2121D01*
G01X1273661Y731964D02*
X1276348Y729276D01*
G03X1276702Y729130I354J354*
G01X1294625*
G03X1294979Y729276I0J500*
G01X1296142Y730440*
X1298264Y731319D02*
G03X1296142Y730440I-0J-3000D01*
G01X1298264Y731319D02*
X1298533D01*
G03X1299033Y731819I0J500*
X1298944Y732105I-500J-0*
G01X1298542Y732925D02*
G03X1298944Y732105I2864J894D01*
G01X1298542Y732925D02*
G03X1298418Y733129I-477J-149D01*
G01X1290271Y741277*
G03X1289917Y741423I-354J-354*
G01X1271300*
X1269461Y742185D02*
G03X1271300Y741423I1839J1838D01*
G01X1269461Y742185D02*
X1268984Y742662D01*
G03X1268779Y742786I-354J-353*
G01X1266673Y745650D02*
G03X1268779Y742786I3000J-0D01*
G01X1272394Y746913D02*
G03X1266673Y745650I-2721J-1263D01*
G01X1272394Y746913D02*
G03X1272848Y746623I454J210D01*
G01X1291201*
X1293040Y745862D02*
G03X1291201Y746623I-1839J-1839D01*
G01X1293040Y745862D02*
X1300846Y738056D01*
G03X1301699Y738409I353J353*
G01Y743295*
X1302085Y744658D02*
G03X1301699Y743295I2214J-1363D01*
G01X1302085Y744658D02*
G03X1302159Y744920I-426J262D01*
G01X1302159*
G03X1302135Y745073I-500J0*
G01X1301992Y745988D02*
G03X1302135Y745073I3000J0D01*
G01X1307992Y745988D02*
G03X1301992I-3000J0D01*
G01X1307649Y744595D02*
G03X1307992Y745988I-2657J1393D01*
G01X1307649Y744595D02*
G03X1307592Y744363I443J-232D01*
G01Y743988*
X1307011Y742350D02*
G03X1307592Y743988I-2019J1638D01*
G01X1307011Y742350D02*
G03X1306899Y742035I388J-315D01*
G01Y730365*
G03X1306956Y730133I500J-0*
G01X1307299Y728740D02*
G03X1306956Y730133I-3000J0D01*
G01X1307299Y728740D02*
Y728319D01*
X1306619Y726417D02*
G03X1307299Y728319I-2320J1902D01*
G01X1306619Y726417D02*
G03X1306506Y726100I387J-317D01*
X1307006Y725600I500J0*
G01X1316647*
X1317413Y725484D02*
G03X1316647Y725600I-766J-2484D01*
G01X1317413Y725484D02*
G03X1317561Y725462I148J478D01*
G01X1321655*
G03X1321887Y725519I-0J500*
G01X1324753Y725475D02*
G03X1321887Y725519I-1473J-2613D01*
G01X1324753Y725475D02*
G03X1325498Y725911I245J436D01*
G01Y732489*
G03X1325441Y732721I-500J0*
G01X1325098Y734114D02*
G03X1325441Y732721I3000J0D01*
G01X1331098Y734114D02*
G03X1325098I-3000J0D01*
G01X1330756Y732721D02*
G03X1331098Y734114I-2658J1393D01*
G01X1330756Y732721D02*
G03X1330698Y732489I442J-232D01*
G01Y717702*
G03X1330714Y717577I500J0*
G01X1330797Y716927D02*
G03X1330714Y717577I-2600J0D01*
G01X1330797Y716927D02*
Y701463D01*
G03X1330854Y701231I500J0*
G01X1331197Y699839D02*
G03X1330854Y701231I-3000J-0D01*
G01X1330973Y698703D02*
G03X1331197Y699839I-2776J1136D01*
G01X1330973Y698702D02*
G03X1330936Y698513I463J-189D01*
X1331790Y698160I500J0*
G01X1333927Y700297*
G03X1334073Y700650I-354J353*
G01Y749525*
G03X1334016Y749757I-500J-0*
G01X1333673Y751150D02*
G03X1334016Y749757I3000J-0D01*
G01X1339673Y751150D02*
G03X1333673I-3000J-0D01*
G01X1339330Y749757D02*
G03X1339673Y751150I-2657J1393D01*
G01X1339330Y749757D02*
G03X1339273Y749525I443J-232D01*
G01Y699366*
X1338512Y697528D02*
G03X1339273Y699366I-1839J1838D01*
G01X1338512Y697528D02*
X1332079Y691095D01*
X1330240Y690333D02*
G03X1332079Y691095I0J2600D01*
G01X1330240Y690333D02*
X1228940D01*
G03X1228708Y690276I-0J-500*
G01X1224315Y692933D02*
G03X1228708Y690276I3000J0D01*
G01X1225015Y694859D02*
G03X1224315Y692933I2300J-1926D01*
G01X1225015Y694859D02*
G03X1225132Y695180I-383J321D01*
X1224556Y695674I-500J0*
G01X1224024Y695634D02*
G03X1224556Y695674I-0J3500D01*
G01X1224024Y695634D02*
X1214410D01*
G03X1214056Y695487I-0J-500*
G01X1208363Y689794*
G03X1208217Y689441I354J-353*
G01Y665847*
G03X1208363Y665493I500J-0*
G01X1217548Y656308*
X1217727Y656119D02*
G03X1217548Y656308I-3361J-2993D01*
G01X1217727Y656119D02*
G03X1217746Y656098I373J332D01*
G01X1224481Y649363*
X1225799Y646181D02*
G03X1224481Y649363I-4500J0D01*
G01X1225799Y646181D02*
Y639528D01*
X1224481Y636346D02*
G03X1225799Y639528I-3182J3182D01*
G01X1224481Y636346D02*
X1208450Y620314D01*
G03X1208303Y619960I353J-354*
G01Y586874*
X1206985Y583692D02*
G03X1208303Y586874I-3182J3182D01*
G01X1206985Y583692D02*
X1190702Y567409D01*
X1183020Y570591D02*
G03X1190702Y567409I4500J-0D01*
G01X1183020Y570591D02*
X1183020D01*
X1184338Y573773D02*
G03X1183020Y570591I3182J-3182D01*
G01X1184338Y573773D02*
X1199157Y588592D01*
G03X1199303Y588945I-354J353*
G01Y622031*
X1200621Y625213D02*
G03X1199303Y622031I3182J-3182D01*
G01X1200621Y625213D02*
X1216653Y641245D01*
G03X1216799Y641599I-354J354*
G01Y644110*
G03X1216653Y644464I-500J0*
G01X1211184Y649932*
X1211006Y650121D02*
G03X1211184Y649932I3360J2993D01*
G01X1211006Y650121D02*
G03X1210986Y650142I-374J-332D01*
G01X1200535Y660594*
X1199217Y663776D02*
G03X1200535Y660594I4500J-0D01*
G01X1199217Y663776D02*
Y691512D01*
X1200535Y694694D02*
G03X1199217Y691512I3182J-3182D01*
G01X1200535Y694694D02*
X1208157Y702316D01*
X1214039Y702734D02*
G03X1208157Y702316I-2700J-3600D01*
G01X1214039Y702734D02*
G03X1214339Y702634I300J400D01*
G01X1222367*
G03X1222721Y702780I0J500*
G01X1233096Y713156*
G03X1233243Y713500I-353J353*
X1233575Y713620I7J500*
G01X1235851Y714461D02*
G03X1233575Y713620I-0J-3500D01*
G01X1235851Y714461D02*
X1237694D01*
G03X1238047Y714607I-0J500*
G01X1238234Y714794*
X1238287Y714846D02*
G03X1238234Y714794I2422J-2527D01*
G01X1238287Y714846D02*
G03X1238441Y715207I-346J361D01*
X1237941Y715707I-500J0*
G01X1234457*
G03X1234104Y715561I0J-500*
G01X1232896Y714353*
G03X1232750Y714009I354J-353*
X1232422Y713893I-7J-500*
G01X1230752Y713286D02*
G03X1232422Y713893I-0J2600D01*
G01X1230752Y713286D02*
X1217579D01*
G03X1217543Y713285I0J-500*
G01X1217358Y713278D02*
G03X1217543Y713285I0J2600D01*
G01X1217358Y713278D02*
X1184902D01*
G03X1184549Y713132I0J-500*
G01X1181392Y709975*
G03X1181246Y709621I354J-354*
G01Y634263*
G03X1181303Y634030I500J-0*
G01X1181646Y632638D02*
G03X1181303Y634030I-3000J-0D01*
G01X1178338Y629654D02*
G03X1181646Y632638I308J2984D01*
G01X1178338Y629654D02*
G03X1177787Y629156I-51J-498D01*
G01X1177787*
G03X1177817Y628984I500J0*
G01X1178000Y627953D02*
G03X1177817Y628984I-3000J-0D01*
G01X1177657Y626560D02*
G03X1178000Y627953I-2657J1393D01*
G01X1177657Y626560D02*
G03X1177600Y626328I443J-232D01*
G01Y626250*
G03X1178332Y625807I500J-0*
G01X1182724Y623150D02*
G03X1178332Y625807I-3000J-0D01*
G01X1182382Y621757D02*
G03X1182724Y623150I-2658J1393D01*
G01X1182382Y621757D02*
G03X1182324Y621525I442J-232D01*
G01Y600641*
G03X1182382Y600408I500J-0*
G01X1182724Y599016D02*
G03X1182382Y600408I-3000J-0D01*
G01X1178332Y596358D02*
G03X1182724Y599016I1392J2658D01*
G01X1178332Y596358D02*
G03X1177600Y595916I-232J-442D01*
G01Y592491*
G03X1177657Y592259I500J-0*
G01X1178000Y590866D02*
G03X1177657Y592259I-3000J0D01*
G01X1172000Y590866D02*
G03X1178000I3000J0D01*
G01X1172000D02*
X1172000D01*
X1172153Y591812D02*
G03X1172000Y590866I2847J-946D01*
G01X1172153Y591812D02*
G03X1172179Y591970I-474J158D01*
X1171694Y592470I-500J0*
G01X1168783Y595469D02*
G03X1171694Y592470I3000J-0D01*
G01X1168783Y595469D02*
X1168783D01*
X1169082Y596774D02*
G03X1168783Y595469I2701J-1305D01*
G01X1169082Y596774D02*
G03X1169132Y596992I-450J218D01*
G01Y631013*
G03X1169075Y631245I-500J-0*
G01X1168732Y632638D02*
G03X1169075Y631245I3000J-0D01*
G01X1161938Y657173D02*
G03X1152488Y655098I-4497J-2075D01*
G01X1161938Y657173D02*
G03X1162892Y657383I454J210D01*
G01Y727685*
X1163654Y729524D02*
G03X1162892Y727685I1838J-1839D01*
G01X1163654Y729524D02*
X1167945Y733815D01*
X1169783Y734576D02*
G03X1167945Y733815I0J-2600D01*
G01X1169783Y734576D02*
X1178457D01*
G03X1178953Y735018I-0J500*
G01X1181039Y737533D02*
G03X1178953Y735018I894J-2864D01*
G01X1181039Y737533D02*
G03X1181244Y737657I-149J477D01*
G01X1184331Y740744*
X1186169Y741506D02*
G03X1184331Y740744I0J-2600D01*
G01X1186169Y741506D02*
X1221068D01*
G03X1221300Y741563I0J500*
G01X1225693Y738906D02*
G03X1221300Y741563I-3000J-0D01*
G01X1224394Y736435D02*
G03X1225693Y738906I-1701J2471D01*
G01X1224394Y736435D02*
G03X1224178Y736023I284J-412D01*
X1224187Y735929I500J-0*
G01X1224240Y735366D02*
G03X1224187Y735929I-3000J0D01*
G01X1224240Y735366D02*
X1224240D01*
X1221627Y732391D02*
G03X1224240Y735366I-387J2975D01*
G01X1221627Y732391D02*
G03X1221240Y732111I64J-496D01*
X1220853Y732391I-451J-216*
G01X1219847Y732709D02*
G03X1220853Y732391I1393J2657D01*
G01X1219847Y732709D02*
G03X1219615Y732766I-232J-443D01*
G01X1190382*
G03X1190029Y732620I0J-500*
G01X1187547Y730138*
X1185709Y729376D02*
G03X1187547Y730138I-0J2600D01*
G01X1185709Y729376D02*
X1171068D01*
G03X1170714Y729230I-0J-500*
G01X1168239Y726755*
G03X1168092Y726401I353J-354*
G01Y641567*
X1167331Y639728D02*
G03X1168092Y641567I-1839J1839D01*
G01X1167331Y639728D02*
X1163845Y636243D01*
G03X1163698Y635889I353J-354*
G01Y619542*
G03X1163756Y619310I500J0*
G01X1164098Y617917D02*
G03X1163756Y619310I-3000J0D01*
G01X1158098Y617917D02*
G03X1164098I3000J0D01*
G01X1158441Y619310D02*
G03X1158098Y617917I2657J-1393D01*
G01X1158441Y619310D02*
G03X1158498Y619542I-443J232D01*
G01Y637173*
X1159260Y639012D02*
G03X1158498Y637173I1838J-1839D01*
G01X1159260Y639012D02*
X1162746Y642497D01*
G03X1162892Y642851I-354J354*
G01Y652814*
G03X1161938Y653024I-500J0*
G01X1152488Y655098D02*
G03X1161938Y653024I4953J0D01*
G01X1121169Y487323D02*
Y492598D01*
X1121292Y493644D02*
G03X1121169Y492598I4377J-1046D01*
G01X1121292Y493644D02*
G03X1121306Y493760I-486J116D01*
G01X1121306*
G03X1121292Y493876I-500J-0*
G01X1121169Y494921D02*
G03X1121292Y493876I4500J0D01*
G01X1121169Y494921D02*
Y570591D01*
X1130169D02*
G03X1121169I-4500J-0D01*
G01X1130169D02*
Y540726D01*
G03X1130177Y540638I500J0*
G01X1130248Y539843D02*
G03X1130177Y540638I-4500J-0D01*
G01Y539047D02*
G03X1130248Y539843I-4429J796D01*
G01X1130177Y539047D02*
G03X1130169Y538959I492J-88D01*
G01Y494921*
X1130046Y493876D02*
G03X1130169Y494921I-4377J1045D01*
G01X1130046Y493876D02*
G03X1130033Y493760I487J-116D01*
G01X1130033*
G03X1130046Y493644I500J-0*
G01X1130169Y492598D02*
G03X1130046Y493644I-4500J0D01*
G01X1130169Y492598D02*
Y487323D01*
X1128668Y483968D02*
G03X1130169Y487323I-2999J3355D01*
G01X1128668Y483968D02*
G03X1128502Y483595I334J-373D01*
G01Y452374*
G03X1128652Y451587I2134J0*
X1128754Y451428I465J184*
G01X1129919Y448504D02*
G03X1128754Y451428I-4250J-0D01*
G01X1121419Y448504D02*
G03X1129919I4250J-0D01*
G01X1123079Y451874D02*
G03X1121419Y448504I2590J-3370D01*
G01X1123079Y451874D02*
G03X1123212Y452028I-304J396D01*
X1123302Y452374I-626J346*
G01Y483227*
G03X1123088Y483637I-500J-0*
G01X1121169Y487323D02*
G03X1123088Y483637I4500J-0D01*
G01X1130268Y655098D02*
G03X1120362I-4953J0D01*
X1130268I4953J0*
G01X1087892Y445748D02*
G03X1081952I-2970J-0D01*
X1087892I2970J-0*
G01X1088876Y544173D02*
G03X1080967I-3954J0D01*
X1088876I3955J0*
G01X1050564Y522772D02*
G03X1050343Y521378I4279J-1394D01*
G01X1050564Y522772D02*
G03X1050588Y522921I-476J155D01*
G01X1050618Y525535*
G03Y525540I-500J5*
G01Y570630*
X1059618D02*
G03X1050618I-4500J-0D01*
G01X1059618D02*
Y525512D01*
Y525461D02*
G03Y525512I-4500J51D01*
G01Y525461D02*
X1059586Y522623D01*
G03Y522617I500J-6*
G01X1059586*
G03X1059589Y522560I500J0*
G01X1059618Y522047D02*
G03X1059589Y522560I-4500J0D01*
G01X1059618Y522047D02*
Y469269D01*
G03X1059630Y469161I500J0*
G01X1059736Y468189D02*
G03X1059630Y469161I-4500J-0D01*
G01Y467217D02*
G03X1059736Y468189I-4394J972D01*
G01X1059630Y467217D02*
G03X1059618Y467109I488J-108D01*
G01Y411535*
X1050618D02*
G03X1059618I4500J0D01*
G01X1050618D02*
Y519741D01*
G03X1050591Y519905I-500J-0*
G01X1050343Y521378D02*
G03X1050591Y519905I4500J-0D01*
G01X1042794Y703065D02*
G03X1041906Y700551I3112J-2514D01*
G01X1042794Y703065D02*
G03X1042906Y703380I-388J315D01*
G01Y715951*
G03X1042794Y716265I-500J0*
G01X1041906Y718780D02*
G03X1042794Y716265I4000J-0D01*
G01Y721294D02*
G03X1041906Y718780I3112J-2514D01*
G01X1042794Y721294D02*
G03X1042906Y721608I-388J314D01*
G01Y732762*
G03X1042794Y733076I-500J0*
G01X1041906Y735591D02*
G03X1042794Y733076I4000J-0D01*
G01X1049906Y735591D02*
G03X1041906I-4000J-0D01*
G01X1049017Y733076D02*
G03X1049906Y735591I-3111J2515D01*
G01X1049017Y733076D02*
G03X1048906Y732762I389J-314D01*
G01Y721608*
G03X1049017Y721294I500J-0*
G01X1049906Y718780D02*
G03X1049017Y721294I-4000J-0D01*
G01Y716265D02*
G03X1049906Y718780I-3111J2515D01*
G01X1049017Y716265D02*
G03X1048906Y715951I389J-314D01*
G01Y703380*
G03X1049017Y703065I500J-0*
G01X1049906Y700551D02*
G03X1049017Y703065I-4000J0D01*
G01X1041906Y700551D02*
G03X1049906I4000J0D01*
G01X1037776Y475251D02*
G03X1037433Y473858I2657J-1393D01*
G01X1037776Y475251D02*
G03X1037833Y475483I-443J232D01*
G01Y602772*
X1037926Y603459D02*
G03X1037833Y602772I2507J-687D01*
G01X1037926Y603459D02*
G03X1037943Y603591I-483J132D01*
G01Y616541*
G03X1037886Y616773I-500J-0*
G01X1037543Y618165D02*
G03X1037886Y616773I3000J0D01*
G01X1043543Y618165D02*
G03X1037543I-3000J0D01*
G01X1043200Y616773D02*
G03X1043543Y618165I-2657J1392D01*
G01X1043200Y616773D02*
G03X1043143Y616541I443J-232D01*
G01Y602882*
X1043051Y602195D02*
G03X1043143Y602882I-2508J687D01*
G01X1043051Y602195D02*
G03X1043033Y602063I482J-132D01*
G01Y475483*
G03X1043090Y475251I500J0*
G01X1043433Y473858D02*
G03X1043090Y475251I-3000J0D01*
G01X1037433Y473858D02*
G03X1043433I3000J0D01*
G01X1022196Y593809D02*
G03X1018614Y590866I-582J-2943D01*
G01X1022196Y593809D02*
G03X1022793Y594300I97J491D01*
X1022769Y594450I-500J-0*
G01X1022630Y595354D02*
G03X1022769Y594450I3000J0D01*
G01X1022630Y595354D02*
X1022630D01*
X1026489Y598229D02*
G03X1022630Y595354I-859J-2875D01*
G01X1026489Y598229D02*
G03X1027132Y598708I143J479D01*
G01X1027132*
G03X1027130Y598752I-500J-0*
G01X1027118Y599016D02*
G03X1027130Y598752I3000J-0D01*
G01X1033118Y599016D02*
G03X1027118I-3000J-0D01*
G01X1032775Y597623D02*
G03X1033118Y599016I-2657J1393D01*
G01X1032775Y597623D02*
G03X1032718Y597391I443J-232D01*
G01Y487638*
X1032685Y487225D02*
G03X1032718Y487638I-2567J413D01*
G01X1032685Y487225D02*
G03X1032679Y487145I494J-80D01*
G01Y483318*
G03X1032736Y483086I500J-0*
G01X1033079Y481693D02*
G03X1032736Y483086I-3000J-0D01*
G01X1027079Y481693D02*
G03X1033079I3000J-0D01*
G01X1027422Y483086D02*
G03X1027079Y481693I2657J-1393D01*
G01X1027422Y483086D02*
G03X1027479Y483318I-443J232D01*
G01Y483581*
G03X1026786Y484043I-500J0*
G01X1022645Y486507D02*
G03X1026786Y484043I2985J304D01*
G01X1022645Y486507D02*
G03X1022077Y486951I-497J-51D01*
G01X1018654Y489921D02*
G03X1022077Y486951I3000J0D01*
G01X1018654Y489921D02*
X1018654D01*
X1018963Y491248D02*
G03X1018654Y489921I2691J-1327D01*
G01X1018963Y491248D02*
G03X1019014Y491469I-449J221D01*
G01Y589241*
G03X1018957Y589473I-500J0*
G01X1018614Y590866D02*
G03X1018957Y589473I3000J0D01*
G01X998049Y543937D02*
G03X992108I-2971J0D01*
X998049I2970J0*
G01X999033Y445512D02*
G03X991124I-3955J-0D01*
X999033I3954J-0*
G01X995293Y735390D02*
G03X989352I-2971J0D01*
X995293I2970J0*
G01X996277Y636965D02*
G03X988368I-3955J-0D01*
X996277I3954J-0*
G01X967653Y662854D02*
G03X963260Y660197I-1393J-2657D01*
G01X967653Y662854D02*
G03X967885Y662797I232J443D01*
G01X1066988*
G03X1067067Y662803I-0J500*
G01X1067480Y662836D02*
G03X1067067Y662803I0J-2600D01*
G01X1067480Y662836D02*
X1091511D01*
G03X1091865Y662983I0J500*
G01X1093828Y664946*
G03X1093975Y665300I-353J354*
G01Y758060*
G03X1093918Y758292I-500J0*
G01X1093575Y759685D02*
G03X1093918Y758292I3000J0D01*
G01X1099575Y759685D02*
G03X1093575I-3000J0D01*
G01X1099232Y758292D02*
G03X1099575Y759685I-2657J1393D01*
G01X1099232Y758292D02*
G03X1099175Y758060I443J-232D01*
G01Y664016*
X1098413Y662177D02*
G03X1099175Y664016I-1838J1839D01*
G01X1098413Y662177D02*
X1096737Y660501D01*
G03X1096590Y660147I353J-354*
X1097090Y659647I500J0*
G01X1097181*
G03X1097534Y659794I-0J500*
G01X1100757Y663017*
G03X1100904Y663371I-353J354*
G01Y722577*
G03X1100872Y722752I-500J-0*
G01X1100707Y723664D02*
G03X1100872Y722752I2600J-0D01*
G01X1100707Y723664D02*
Y761446D01*
G03X1100650Y761678I-500J0*
G01X1100307Y763071D02*
G03X1100650Y761678I3000J-0D01*
G01X1100549Y764252D02*
G03X1100307Y763071I2758J-1181D01*
G01X1100549Y764252D02*
G03X1100590Y764449I-459J197D01*
X1100090Y764949I-500J-0*
G01X1084975*
G03X1084475Y764449I-0J-500*
X1084603Y764114I500J-0*
G01X1085760Y761102D02*
G03X1084603Y764114I-4500J0D01*
G01X1084156Y757658D02*
G03X1085760Y761102I-2896J3444D01*
G01X1084156Y757658D02*
G03X1083978Y757276I322J-382D01*
G01Y735641*
G03X1084035Y735408I500J-0*
G01X1084378Y734016D02*
G03X1084035Y735408I-3000J-0D01*
G01Y732623D02*
G03X1084378Y734016I-2657J1393D01*
G01X1084035Y732623D02*
G03X1083978Y732391I443J-232D01*
G01Y719105*
G03X1084035Y718873I500J0*
G01X1084378Y717480D02*
G03X1084035Y718873I-3000J0D01*
G01X1078378Y717480D02*
G03X1084378I3000J0D01*
G01X1078721Y718873D02*
G03X1078378Y717480I2657J-1393D01*
G01X1078721Y718873D02*
G03X1078778Y719105I-443J232D01*
G01Y732391*
G03X1078721Y732623I-500J-0*
G01X1078378Y734016D02*
G03X1078721Y732623I3000J-0D01*
G01Y735408D02*
G03X1078378Y734016I2657J-1392D01*
G01X1078721Y735408D02*
G03X1078778Y735641I-443J233D01*
G01Y756102*
G03X1078278Y756602I-500J0*
G01X998386*
X993886Y761102D02*
G03X998386Y756602I4500J0D01*
G01Y765602D02*
G03X993886Y761102I-0J-4500D01*
G01X998386Y765602D02*
X1025252D01*
G03X1025605Y765749I-0J500*
G01X1032487Y772631*
X1035669Y773949D02*
G03X1032487Y772631I0J-4500D01*
G01X1035669Y773949D02*
X1170197D01*
X1173379Y772631D02*
G03X1170197Y773949I-3182J-3182D01*
G01X1173379Y772631D02*
X1181725Y764284D01*
X1183043Y761102D02*
G03X1181725Y764284I-4500J0D01*
G01X1183043Y761102D02*
X1183043D01*
X1175361Y757920D02*
G03X1183043Y761102I3182J3182D01*
G01X1175361Y757920D02*
X1168479Y764802D01*
G03X1168126Y764949I-353J-353*
G01X1106524*
G03X1106024Y764449I0J-500*
X1106065Y764252I500J-0*
G01X1106307Y763071D02*
G03X1106065Y764252I-3000J-0D01*
G01X1106307Y763071D02*
X1106307D01*
X1105964Y761678D02*
G03X1106307Y763071I-2657J1393D01*
G01X1105964Y761678D02*
G03X1105907Y761446I443J-232D01*
G01Y753700*
G03X1106842Y753453I500J-0*
G01X1112449Y751969D02*
G03X1106842Y753453I-3000J-0D01*
G01X1112106Y750576D02*
G03X1112449Y751969I-2657J1393D01*
G01X1112106Y750576D02*
G03X1112049Y750344I443J-232D01*
G01Y733019*
G03X1112931Y732697I500J-0*
G01X1113083Y732862D02*
G03X1112931Y732697I1838J-1838D01*
G01X1113083Y732862D02*
X1116429Y736209D01*
X1118268Y736970D02*
G03X1116429Y736209I-0J-2600D01*
G01X1118268Y736970D02*
X1129753D01*
G03X1129985Y737027I0J500*
G01X1130437Y737219D02*
G03X1129985Y737027I941J-2849D01*
G01X1130437Y737219D02*
G03X1130780Y737693I-157J474D01*
G01X1130780*
G03Y737702I-500J0*
G01Y737756D02*
G03Y737702I3000J-0D01*
G01Y737756D02*
X1130780D01*
X1135850Y739926D02*
G03X1130780Y737756I-2070J-2170D01*
G01X1135850Y739926D02*
G03X1136632Y740045I346J362D01*
G01X1142252Y738583D02*
G03X1136632Y740045I-3000J-0D01*
G01X1140289Y735768D02*
G03X1142252Y738583I-1037J2815D01*
G01X1140289Y735768D02*
G03X1139962Y735299I173J-469D01*
G01Y718278*
G03X1140019Y718046I500J0*
G01X1140362Y716654D02*
G03X1140019Y718046I-3000J-0D01*
G01X1134890Y714954D02*
G03X1140362Y716654I2472J1700D01*
G01X1134890Y714954D02*
G03X1133978Y714671I-412J-283D01*
G01Y713410*
G03X1134124Y713056I500J0*
G01X1134631Y712550*
G03X1134985Y712403I354J353*
G01X1143021*
G03X1143253Y712460I-0J500*
G01X1147598Y710334D02*
G03X1143253Y712460I-2952J-531D01*
G01X1147598Y710334D02*
G03X1148090Y709923I492J89D01*
G01X1148362*
G03X1148715Y710069I-0J500*
G01X1150757Y712112*
G03X1150904Y712465I-353J353*
G01Y732706*
G03X1150847Y732938I-500J-0*
G01X1150504Y734331D02*
G03X1150847Y732938I3000J-0D01*
G01X1156504Y734331D02*
G03X1150504I-3000J-0D01*
G01X1156161Y732938D02*
G03X1156504Y734331I-2657J1393D01*
G01X1156161Y732938D02*
G03X1156104Y732706I443J-232D01*
G01Y711181*
X1155342Y709343D02*
G03X1156104Y711181I-1838J1838D01*
G01X1155342Y709343D02*
X1151484Y705484D01*
X1149646Y704723D02*
G03X1151484Y705484I-0J2600D01*
G01X1149646Y704723D02*
X1130748D01*
X1128910Y705484D02*
G03X1130748Y704723I1838J1839D01*
G01X1128910Y705484D02*
X1128833Y705561D01*
G03X1128480Y705707I-353J-354*
G01X1126270*
G03X1126038Y705650I0J-500*
G01X1121646Y708307D02*
G03X1126038Y705650I3000J0D01*
G01Y710964D02*
G03X1121646Y708307I-1392J-2657D01*
G01X1126038Y710964D02*
G03X1126270Y710907I232J443D01*
G01X1128362*
G03X1128862Y711407I0J500*
X1128849Y711523I-500J0*
G01X1128778Y712126D02*
G03X1128849Y711523I2600J-0D01*
G01X1128778Y712126D02*
Y731270D01*
G03X1128278Y731770I-500J0*
G01X1119552*
G03X1119198Y731624I-0J-500*
G01X1117668Y730093*
G03X1117521Y729740I353J-353*
G01Y660315*
X1116760Y658476D02*
G03X1117521Y660315I-1839J1839D01*
G01X1116760Y658476D02*
X1107193Y648910D01*
X1105354Y648148D02*
G03X1107193Y648910I0J2600D01*
G01X1105354Y648148D02*
X970641D01*
G03X970408Y648091I-0J-500*
G01X966022Y650556D02*
G03X970408Y648091I2994J192D01*
G01X966022Y650556D02*
G03X965656Y651006I-499J-31D01*
G01X963457Y653898D02*
G03X965656Y651006I3000J-0D01*
G01X965067Y656557D02*
G03X963457Y653898I1390J-2659D01*
G01X965067Y656557D02*
G03X965336Y657000I-231J443D01*
X965039Y657456I-500J-0*
G01X963260Y660197D02*
G03X965039Y657456I3000J-0D01*
G01X923657Y452449D02*
G03X919402Y449724I-1255J-2725D01*
G01X923657Y452449D02*
G03X923866Y452403I209J454D01*
G01X959370*
G03X959870Y452903I0J500*
G01Y541181*
X968870D02*
G03X959870I-4500J0D01*
G01X968870D02*
Y449921D01*
X960925Y447027D02*
G03X968870Y449921I3445J2894D01*
G01X960925Y447027D02*
G03X960527Y447205I-383J-322D01*
G01X960511Y447204*
X960433Y447203D02*
G03X960511Y447204I0J2600D01*
G01X960433Y447203D02*
X924168D01*
G03X923916Y447135I0J-500*
G01X919402Y449724D02*
G03X923916Y447135I3000J0D01*
G01X900582Y775260D02*
G03X896055Y772677I-1527J-2583D01*
G01X900582Y775260D02*
G03X900719Y775204I254J430D01*
G01X901945Y774516D02*
G03X900719Y775204I-1838J-1839D01*
G01X901945Y774516D02*
X903141Y773319D01*
G03X903974Y773531I354J354*
G01X905956Y775541D02*
G03X903974Y773531I894J-2864D01*
G01X905956Y775541D02*
G03X906161Y775665I-149J477D01*
G01X907492Y776996*
X909331Y777757D02*
G03X907492Y776996I-0J-2600D01*
G01X909331Y777757D02*
X972874D01*
X974712Y776996D02*
G03X972874Y777757I-1838J-1839D01*
G01X974712Y776996D02*
X978059Y773650D01*
X978820Y771811D02*
G03X978059Y773649I-2600J0D01*
G01X978820Y771811D02*
Y709763D01*
X978059Y707925D02*
G03X978820Y709763I-1839J1839D01*
G01X978059Y707925D02*
X975736Y705602D01*
X973898Y704841D02*
G03X975736Y705602I-0J2600D01*
G01X973898Y704841D02*
X968396D01*
G03X968164Y704784I0J-500*
G01X963772Y707441D02*
G03X968164Y704784I3000J-0D01*
G01X963772Y707441D02*
X963772D01*
X963938Y708427D02*
G03X963772Y707441I2834J-986D01*
G01X963938Y708427D02*
G03X963966Y708591I-472J164D01*
X963876Y708877I-500J-0*
G01X963339Y710591D02*
G03X963876Y708877I3000J-0D01*
G01X967731Y713248D02*
G03X963339Y710591I-1392J-2657D01*
G01X967731Y713248D02*
G03X967963Y713191I232J443D01*
G01X970251*
G03X970605Y713337I0J500*
G01X970994Y713726*
G03X971140Y714079I-354J353*
G01Y725981*
G03X970287Y726334I-500J-0*
G01X969872Y725920*
G03X969726Y725566I354J-354*
G01Y725286*
G03X969783Y725054I500J0*
G01X970126Y723661D02*
G03X969783Y725054I-3000J0D01*
G01X964126Y723661D02*
G03X970126I3000J0D01*
G01X964469Y725054D02*
G03X964126Y723661I2657J-1393D01*
G01X964469Y725054D02*
G03X964526Y725286I-443J232D01*
G01Y726684*
G03X963672Y727038I-500J-0*
G01X961619Y724984*
G03X961472Y724630I353J-354*
G01Y609764*
X949472D02*
G03X961472I6000J-0D01*
G01X949472D02*
Y727323D01*
X951230Y731565D02*
G03X949472Y727323I4242J-4242D01*
G01X951230Y731565D02*
X956545Y736880D01*
X964401Y737428D02*
G03X956545Y736880I-3614J-4790D01*
G01X964401Y737428D02*
G03X965202Y737827I301J399D01*
G01Y760914*
G03X965055Y761268I-500J0*
G01X964002Y762321*
G03X963649Y762467I-353J-354*
G01X907717*
X905878Y763229D02*
G03X907717Y762467I1839J1838D01*
G01X905878Y763229D02*
X899572Y769535D01*
G03X899195Y769680I-353J-354*
G01X896055Y772677D02*
G03X899195Y769680I3000J0D01*
G01X844520Y574803D02*
G03X824772I-9874J0D01*
X844520I9874J0*
G01Y409449D02*
G03X824772I-9874J-0D01*
X844520I9874J-0*
G01X815976Y542362D02*
G03X796228I-9874J0D01*
X815976I9874J0*
G01Y447087D02*
G03X796228I-9874J-0D01*
X815976I9874J-0*
G01X813220Y733815D02*
G03X793472I-9874J0D01*
X813220I9874J0*
G01Y638540D02*
G03X793472I-9874J-0D01*
X813220I9874J-0*
G01X813024Y771654D02*
G03X793276I-9874J-0D01*
X813024I9874J-0*
G01Y409449D02*
G03X793276I-9874J-0D01*
X813024I9874J-0*
G01X789102Y785099D02*
X1376253D01*
X789102Y784199D02*
X1376253D01*
X789102Y783299D02*
X1376253D01*
X789102Y782399D02*
X1376253D01*
X1362949Y781499D02*
X1376253D01*
X1366384Y780599D02*
X1376253D01*
X1367928Y779699D02*
X1376253D01*
X1369019Y778799D02*
X1376253D01*
X1369852Y777899D02*
X1376253D01*
X1370506Y776999D02*
X1376253D01*
X1371021Y776099D02*
X1376253D01*
X1371420Y775199D02*
X1376253D01*
X1371718Y774299D02*
X1376253D01*
X1371923Y773399D02*
X1376253D01*
X1372042Y772499D02*
X1376253D01*
X1372079Y771599D02*
X1376253D01*
X1372033Y770699D02*
X1376253D01*
X1371903Y769799D02*
X1376253D01*
X1371687Y768899D02*
X1376253D01*
X1371378Y767999D02*
X1376253D01*
X1370966Y767099D02*
X1376253D01*
X1370436Y766199D02*
X1376253D01*
X1369763Y765299D02*
X1376253D01*
X1368904Y764399D02*
X1376253D01*
X1367773Y763499D02*
X1376253D01*
X1366144Y762599D02*
X1376253D01*
X1183004Y761699D02*
X1376253D01*
X1183033Y760799D02*
X1376253D01*
X1182880Y759899D02*
X1376253D01*
X1182522Y758999D02*
X1376253D01*
X1181895Y758099D02*
X1376253D01*
X1180783Y757199D02*
X1376253D01*
X1105907Y756299D02*
X1376253D01*
X1105907Y755399D02*
X1376253D01*
X1111059Y754499D02*
X1376253D01*
X1338405Y753599D02*
X1376253D01*
X1339242Y752699D02*
X1376253D01*
X1339602Y751799D02*
X1376253D01*
X1339663Y750899D02*
X1376253D01*
X1339444Y749999D02*
X1376253D01*
X1339273Y749099D02*
X1376253D01*
X1339273Y748199D02*
X1376253D01*
X1339273Y747299D02*
X1376253D01*
X1339273Y746399D02*
X1376253D01*
X1339273Y745499D02*
X1376253D01*
X1339273Y744599D02*
X1376253D01*
X1339273Y743699D02*
X1376253D01*
X1339273Y742799D02*
X1376253D01*
X1339273Y741899D02*
X1376253D01*
X1339273Y740999D02*
X1376253D01*
X1339273Y740099D02*
X1376253D01*
X1339273Y739199D02*
X1376253D01*
X1339273Y738299D02*
X1376253D01*
X1339273Y737399D02*
X1376253D01*
X1339273Y736499D02*
X1376253D01*
X1339273Y735599D02*
X1376253D01*
X1339273Y734699D02*
X1376253D01*
X1339273Y733799D02*
X1376253D01*
X1339273Y732899D02*
X1376253D01*
X1339273Y731999D02*
X1376253D01*
X1339273Y731099D02*
X1376253D01*
X1339273Y730199D02*
X1376253D01*
X1339273Y729299D02*
X1376253D01*
X1339273Y728399D02*
X1376253D01*
X1339273Y727499D02*
X1376253D01*
X1339273Y726599D02*
X1376253D01*
X1339273Y725699D02*
X1376253D01*
X1339273Y724799D02*
X1376253D01*
X1339273Y723899D02*
X1376253D01*
X1339273Y722999D02*
X1376253D01*
X1339273Y722099D02*
X1376253D01*
X1339273Y721199D02*
X1376253D01*
X1339273Y720299D02*
X1376253D01*
X1339273Y719399D02*
X1376253D01*
X1339273Y718499D02*
X1376253D01*
X1339273Y717599D02*
X1376253D01*
X1339273Y716699D02*
X1376253D01*
X1339273Y715799D02*
X1376253D01*
X1339273Y714899D02*
X1376253D01*
X1339273Y713999D02*
X1376253D01*
X1339273Y713099D02*
X1376253D01*
X1339273Y712199D02*
X1376253D01*
X1339273Y711299D02*
X1376253D01*
X1339273Y710399D02*
X1376253D01*
X1339273Y709499D02*
X1376253D01*
X1339273Y708599D02*
X1376253D01*
X1339273Y707699D02*
X1376253D01*
X1339273Y706799D02*
X1376253D01*
X1339273Y705899D02*
X1376253D01*
X1339273Y704999D02*
X1376253D01*
X1339273Y704099D02*
X1376253D01*
X1339273Y703199D02*
X1376253D01*
X1339273Y702299D02*
X1376253D01*
X1339273Y701399D02*
X1376253D01*
X1339273Y700499D02*
X1376253D01*
X1339273Y699599D02*
X1376253D01*
X1339186Y698699D02*
X1376253D01*
X1338748Y697799D02*
X1376253D01*
X1337884Y696899D02*
X1376253D01*
X1336984Y695999D02*
X1376253D01*
X1336084Y695099D02*
X1376253D01*
X1335184Y694199D02*
X1376253D01*
X1334284Y693299D02*
X1376253D01*
X1333384Y692399D02*
X1376253D01*
X1332484Y691499D02*
X1376253D01*
X1331387Y690599D02*
X1376253D01*
X1208289Y689699D02*
X1376253D01*
X1208217Y688799D02*
X1376253D01*
X1208217Y687899D02*
X1376253D01*
X1208217Y686999D02*
X1376253D01*
X1208217Y686099D02*
X1376253D01*
X1208217Y685199D02*
X1376253D01*
X1208217Y684299D02*
X1376253D01*
X1208217Y683399D02*
X1376253D01*
X1208217Y682499D02*
X1376253D01*
X1208217Y681599D02*
X1376253D01*
X1208217Y680699D02*
X1376253D01*
X1363498Y679799D02*
X1376253D01*
X1365016Y678899D02*
X1376253D01*
X1365828Y677999D02*
X1376253D01*
X1366328Y677099D02*
X1376253D01*
X1366614Y676199D02*
X1376253D01*
X1366722Y675299D02*
X1376253D01*
X1366666Y674399D02*
X1376253D01*
X1366439Y673499D02*
X1376253D01*
X1366013Y672599D02*
X1376253D01*
X1365317Y671699D02*
X1376253D01*
X1364125Y670799D02*
X1376253D01*
X1363519Y669899D02*
X1376253D01*
X1364897Y668999D02*
X1376253D01*
X1365756Y668099D02*
X1376253D01*
X1366284Y667199D02*
X1376253D01*
X1366591Y666299D02*
X1376253D01*
X1366718Y665399D02*
X1376253D01*
X1366681Y664499D02*
X1376253D01*
X1366473Y663599D02*
X1376253D01*
X1366071Y662699D02*
X1376253D01*
X1365412Y661799D02*
X1376253D01*
X1364301Y660899D02*
X1376253D01*
X1363473Y659999D02*
X1376253D01*
X1364770Y659099D02*
X1376253D01*
X1365680Y658199D02*
X1376253D01*
X1366237Y657299D02*
X1376253D01*
X1366566Y656399D02*
X1376253D01*
X1366713Y655499D02*
X1376253D01*
X1366693Y654599D02*
X1376253D01*
X1366505Y653699D02*
X1376253D01*
X1366127Y652799D02*
X1376253D01*
X1365502Y651899D02*
X1376253D01*
X1364463Y650999D02*
X1376253D01*
X1363450Y650099D02*
X1376253D01*
X1364634Y649199D02*
X1376253D01*
X1365600Y648299D02*
X1376253D01*
X1366188Y647399D02*
X1376253D01*
X1366539Y646499D02*
X1376253D01*
X1366705Y645599D02*
X1376253D01*
X1366703Y644699D02*
X1376253D01*
X1366535Y643799D02*
X1376253D01*
X1366180Y642899D02*
X1376253D01*
X1365587Y641999D02*
X1376253D01*
X1364611Y641099D02*
X1376253D01*
X1363449Y640199D02*
X1376253D01*
X1364487Y639299D02*
X1376253D01*
X1365516Y638399D02*
X1376253D01*
X1366136Y637499D02*
X1376253D01*
X1366510Y636599D02*
X1376253D01*
X1366695Y635699D02*
X1376253D01*
X1366711Y634799D02*
X1376253D01*
X1366562Y633899D02*
X1376253D01*
X1366230Y632999D02*
X1376253D01*
X1365668Y632099D02*
X1376253D01*
X1364749Y631199D02*
X1376253D01*
X1363468Y630299D02*
X1376253D01*
X1364328Y629399D02*
X1376253D01*
X1365427Y628499D02*
X1376253D01*
X1366081Y627599D02*
X1376253D01*
X1366478Y626699D02*
X1376253D01*
X1366683Y625799D02*
X1376253D01*
X1366718Y624899D02*
X1376253D01*
X1366587Y623999D02*
X1376253D01*
X1366277Y623099D02*
X1376253D01*
X1365744Y622199D02*
X1376253D01*
X1364877Y621299D02*
X1376253D01*
X1363510Y620399D02*
X1376253D01*
X1364154Y619499D02*
X1376253D01*
X1365333Y618599D02*
X1376253D01*
X1366022Y617699D02*
X1376253D01*
X1366444Y616799D02*
X1376253D01*
X1366669Y615899D02*
X1376253D01*
X1366722Y614999D02*
X1376253D01*
X1366610Y614099D02*
X1376253D01*
X1366321Y613199D02*
X1376253D01*
X1365817Y612299D02*
X1376253D01*
X1364998Y611399D02*
X1376253D01*
X1363455Y610499D02*
X1376253D01*
X1345246Y609599D02*
X1376253D01*
X1345262Y608699D02*
X1376253D01*
X1345037Y607799D02*
X1376253D01*
X1344513Y606899D02*
X1376253D01*
X1343642Y605999D02*
X1376253D01*
X1342742Y605099D02*
X1376253D01*
X1341842Y604199D02*
X1376253D01*
X1340942Y603299D02*
X1376253D01*
X1340042Y602399D02*
X1376253D01*
X1339142Y601499D02*
X1376253D01*
X1338242Y600599D02*
X1376253D01*
X1337342Y599699D02*
X1376253D01*
X1336429Y598799D02*
X1376253D01*
X1305051Y597899D02*
X1376253D01*
X1304107Y596999D02*
X1376253D01*
X1303207Y596099D02*
X1376253D01*
X1302307Y595199D02*
X1376253D01*
X1301802Y594299D02*
X1376253D01*
X1301252Y593399D02*
X1376253D01*
X1300092Y592499D02*
X1376253D01*
X1208303Y591599D02*
X1376253D01*
X1208303Y590699D02*
X1376253D01*
X1208303Y589799D02*
X1376253D01*
X1208303Y588899D02*
X1376253D01*
X1208303Y587999D02*
X1376253D01*
X1208303Y587099D02*
X1376253D01*
X1208252Y586199D02*
X1376253D01*
X1208019Y585299D02*
X1376253D01*
X1218861Y584399D02*
X1376253D01*
X1221212Y583499D02*
X1376253D01*
X1222595Y582599D02*
X1376253D01*
X1223602Y581699D02*
X1376253D01*
X1224380Y580799D02*
X1376253D01*
X1224993Y579899D02*
X1376253D01*
X1225473Y578999D02*
X1376253D01*
X1225843Y578099D02*
X1376253D01*
X1226114Y577199D02*
X1376253D01*
X1226295Y576299D02*
X1376253D01*
X1226391Y575399D02*
X1376253D01*
X1226405Y574499D02*
X1376253D01*
X1226336Y573599D02*
X1376253D01*
X1226183Y572699D02*
X1376253D01*
X1225942Y571799D02*
X1376253D01*
X1225605Y570899D02*
X1376253D01*
X1225162Y569999D02*
X1376253D01*
X1224595Y569099D02*
X1376253D01*
X1223876Y568199D02*
X1376253D01*
X1222953Y567299D02*
X1376253D01*
X1221719Y566399D02*
X1376253D01*
X1219843Y565499D02*
X1376253D01*
X1130169Y564599D02*
X1376253D01*
X1130169Y563699D02*
X1376253D01*
X1130169Y562799D02*
X1376253D01*
X1130169Y561899D02*
X1376253D01*
X1130169Y560999D02*
X1376253D01*
X1130169Y560099D02*
X1376253D01*
X1130169Y559199D02*
X1376253D01*
X1130169Y558299D02*
X1376253D01*
X1130169Y557399D02*
X1376253D01*
X1130169Y556499D02*
X1376253D01*
X1130169Y555599D02*
X1376253D01*
X1130169Y554699D02*
X1376253D01*
X1130169Y553799D02*
X1376253D01*
X1130169Y552899D02*
X1376253D01*
X1276917Y551999D02*
X1376253D01*
X1278921Y551099D02*
X1376253D01*
X1280200Y550199D02*
X1376253D01*
X1281150Y549299D02*
X1376253D01*
X1281888Y548399D02*
X1376253D01*
X1282470Y547499D02*
X1376253D01*
X1282925Y546599D02*
X1376253D01*
X1283272Y545699D02*
X1376253D01*
X1283524Y544799D02*
X1376253D01*
X1283686Y543899D02*
X1376253D01*
X1283764Y542999D02*
X1376253D01*
X1283760Y542099D02*
X1376253D01*
X1283673Y541199D02*
X1376253D01*
X1283501Y540299D02*
X1376253D01*
X1283240Y539399D02*
X1376253D01*
X1282881Y538499D02*
X1376253D01*
X1282413Y537599D02*
X1376253D01*
X1281816Y536699D02*
X1376253D01*
X1281059Y535799D02*
X1376253D01*
X1280081Y534899D02*
X1376253D01*
X1278751Y533999D02*
X1376253D01*
X1276594Y533099D02*
X1376253D01*
X1130169Y532199D02*
X1376253D01*
X1130169Y531299D02*
X1376253D01*
X1130169Y530399D02*
X1376253D01*
X1130169Y529499D02*
X1376253D01*
X1130169Y528599D02*
X1376253D01*
X1130169Y527699D02*
X1376253D01*
X1130169Y526799D02*
X1376253D01*
X1130169Y525899D02*
X1376253D01*
X1130169Y524999D02*
X1376253D01*
X1130169Y524099D02*
X1376253D01*
X1130169Y523199D02*
X1376253D01*
X1130169Y522299D02*
X1376253D01*
X1130169Y521399D02*
X1376253D01*
X1130169Y520499D02*
X1376253D01*
X1130169Y519599D02*
X1376253D01*
X1130169Y518699D02*
X1376253D01*
X1130169Y517799D02*
X1376253D01*
X1130169Y516899D02*
X1376253D01*
X1130169Y515999D02*
X1376253D01*
X1130169Y515099D02*
X1376253D01*
X1130169Y514199D02*
X1376253D01*
X1130169Y513299D02*
X1376253D01*
X1130169Y512399D02*
X1376253D01*
X1130169Y511499D02*
X1376253D01*
X1130169Y510599D02*
X1376253D01*
X1130169Y509699D02*
X1376253D01*
X1130169Y508799D02*
X1376253D01*
X1130169Y507899D02*
X1376253D01*
X1130169Y506999D02*
X1376253D01*
X1130169Y506099D02*
X1376253D01*
X1130169Y505199D02*
X1376253D01*
X1130169Y504299D02*
X1376253D01*
X1130169Y503399D02*
X1376253D01*
X1130169Y502499D02*
X1376253D01*
X1130169Y501599D02*
X1376253D01*
X1130169Y500699D02*
X1376253D01*
X1130169Y499799D02*
X1376253D01*
X1130169Y498899D02*
X1376253D01*
X1130169Y497999D02*
X1376253D01*
X1130169Y497099D02*
X1376253D01*
X1130169Y496199D02*
X1376253D01*
X1130169Y495299D02*
X1376253D01*
X1130139Y494399D02*
X1376253D01*
X1130078Y493499D02*
X1376253D01*
X1130169Y492599D02*
X1376253D01*
X1130169Y491699D02*
X1376253D01*
X1130169Y490799D02*
X1376253D01*
X1130169Y489899D02*
X1376253D01*
X1130169Y488999D02*
X1376253D01*
X1130169Y488099D02*
X1376253D01*
X1130168Y487199D02*
X1376253D01*
X1130051Y486299D02*
X1376253D01*
X1129738Y485399D02*
X1376253D01*
X1129173Y484499D02*
X1376253D01*
X1128502Y483599D02*
X1376253D01*
X1128502Y482699D02*
X1376253D01*
X1128502Y481799D02*
X1376253D01*
X1128502Y480899D02*
X1376253D01*
X1128502Y479999D02*
X1376253D01*
X1128502Y479099D02*
X1376253D01*
X1128502Y478199D02*
X1376253D01*
X1128502Y477299D02*
X1376253D01*
X1128502Y476399D02*
X1376253D01*
X1128502Y475499D02*
X1376253D01*
X1128502Y474599D02*
X1376253D01*
X1128502Y473699D02*
X1376253D01*
X1128502Y472799D02*
X1376253D01*
X1128502Y471899D02*
X1376253D01*
X1128502Y470999D02*
X1376253D01*
X1128502Y470099D02*
X1376253D01*
X1128502Y469199D02*
X1376253D01*
X1128502Y468299D02*
X1376253D01*
X1128502Y467399D02*
X1376253D01*
X1128502Y466499D02*
X1376253D01*
X1128502Y465599D02*
X1376253D01*
X1128502Y464699D02*
X1376253D01*
X1128502Y463799D02*
X1376253D01*
X1128502Y462899D02*
X1376253D01*
X1128502Y461999D02*
X1376253D01*
X1128502Y461099D02*
X1376253D01*
X1128502Y460199D02*
X1376253D01*
X1128502Y459299D02*
X1376253D01*
X1128502Y458399D02*
X1376253D01*
X1128502Y457499D02*
X1376253D01*
X1277280Y456599D02*
X1376253D01*
X1279126Y455699D02*
X1376253D01*
X1280348Y454799D02*
X1376253D01*
X1281263Y453899D02*
X1376253D01*
X1281977Y452999D02*
X1376253D01*
X1282540Y452099D02*
X1376253D01*
X1282979Y451199D02*
X1376253D01*
X1283313Y450299D02*
X1376253D01*
X1283551Y449399D02*
X1376253D01*
X1283702Y448499D02*
X1376253D01*
X1283768Y447599D02*
X1376253D01*
X1283752Y446699D02*
X1376253D01*
X1283654Y445799D02*
X1376253D01*
X1283470Y444899D02*
X1376253D01*
X1283196Y443999D02*
X1376253D01*
X1282823Y443099D02*
X1376253D01*
X1282339Y442199D02*
X1376253D01*
X1281722Y441299D02*
X1376253D01*
X1280938Y440399D02*
X1376253D01*
X1279922Y439499D02*
X1376253D01*
X1278524Y438599D02*
X1376253D01*
X1276109Y437699D02*
X1376253D01*
X1059618Y436799D02*
X1376253D01*
X1059618Y435899D02*
X1376253D01*
X1059618Y434999D02*
X1376253D01*
X1059618Y434099D02*
X1376253D01*
X1059618Y433199D02*
X1376253D01*
X1059618Y432299D02*
X1376253D01*
X1059618Y431399D02*
X1376253D01*
X1059618Y430499D02*
X1376253D01*
X1059618Y429599D02*
X1376253D01*
X1059618Y428699D02*
X1376253D01*
X1059618Y427799D02*
X1376253D01*
X1059618Y426899D02*
X1376253D01*
X1059618Y425999D02*
X1376253D01*
X1059618Y425099D02*
X1376253D01*
X1059618Y424199D02*
X1376253D01*
X1059618Y423299D02*
X1376253D01*
X1059618Y422399D02*
X1376253D01*
X1059618Y421499D02*
X1376253D01*
X1331216Y420599D02*
X1376253D01*
X1332309Y419699D02*
X1376253D01*
X1365377Y418799D02*
X1376253D01*
X1367312Y417899D02*
X1376253D01*
X1368567Y416999D02*
X1376253D01*
X1369503Y416099D02*
X1376253D01*
X1370231Y415199D02*
X1376253D01*
X1370805Y414299D02*
X1376253D01*
X1371254Y413399D02*
X1376253D01*
X1371596Y412499D02*
X1376253D01*
X1371842Y411599D02*
X1376253D01*
X1371999Y410699D02*
X1376253D01*
X1372073Y409799D02*
X1376253D01*
X1372063Y408899D02*
X1376253D01*
X1371972Y407999D02*
X1376253D01*
X1371795Y407099D02*
X1376253D01*
X1371529Y406199D02*
X1376253D01*
X1371165Y405299D02*
X1376253D01*
X1370690Y404399D02*
X1376253D01*
X1370085Y403499D02*
X1376253D01*
X1369317Y402599D02*
X1376253D01*
X1368324Y401699D02*
X1376253D01*
X1366968Y400799D02*
X1376253D01*
X1364716Y399899D02*
X1376253D01*
X789102Y398999D02*
X1376253D01*
X789102Y398099D02*
X1376253D01*
X789102Y397199D02*
X1376253D01*
X789102Y396299D02*
X1376253D01*
X803894Y781499D02*
X1361461D01*
X1348915Y640199D02*
X1360094D01*
X1326332Y650099D02*
X1360093D01*
X1344987Y610499D02*
X1360089D01*
X1348915Y630299D02*
X1360076D01*
X1346954Y659999D02*
X1360071D01*
X1208217Y679799D02*
X1360045D01*
X1329860Y620399D02*
X1360034D01*
X1342749Y669899D02*
X1360025D01*
X1219047Y399899D02*
X1359694D01*
X1338008Y670799D02*
X1359418D01*
X1330760Y619499D02*
X1359389D01*
X1346954Y660899D02*
X1359242D01*
X1348915Y629399D02*
X1359215D01*
X1326332Y650999D02*
X1359081D01*
X1348915Y639299D02*
X1359056D01*
X1332996Y418799D02*
X1359033D01*
X1348915Y641099D02*
X1358932D01*
X1326332Y649199D02*
X1358909D01*
X1348915Y631199D02*
X1358794D01*
X1347180Y659099D02*
X1358773D01*
X1328960Y621299D02*
X1358666D01*
X1343811Y668999D02*
X1358646D01*
X1344414Y611399D02*
X1358546D01*
X1208217Y678899D02*
X1358527D01*
X1182787Y762599D02*
X1358265D01*
X1338011Y671699D02*
X1358226D01*
X1331660Y618599D02*
X1358198D01*
X1346954Y661799D02*
X1358131D01*
X1348929Y628499D02*
X1358116D01*
X1326332Y651899D02*
X1358041D01*
X1348915Y638399D02*
X1358027D01*
X807329Y780599D02*
X1358025D01*
X1348915Y641999D02*
X1357902D01*
X1348915Y632099D02*
X1357876D01*
X1347352Y658199D02*
X1357863D01*
X1326332Y648299D02*
X1357829D01*
X1328060Y622199D02*
X1357799D01*
X1344711Y668099D02*
X1357787D01*
X1208217Y677999D02*
X1357715D01*
X1337728Y672599D02*
X1357531D01*
X1346954Y662699D02*
X1357472D01*
X1349253Y627599D02*
X1357463D01*
X1221298Y400799D02*
X1357442D01*
X1326332Y652799D02*
X1357416D01*
X1348915Y637499D02*
X1357408D01*
X1344029Y612299D02*
X1357382D01*
X1348915Y632999D02*
X1357314D01*
X1347248Y657299D02*
X1357306D01*
X1327160Y623099D02*
X1357267D01*
X1345611Y667199D02*
X1357259D01*
X1208217Y677099D02*
X1357216D01*
X1337039Y673499D02*
X1357105D01*
X1333440Y417899D02*
X1357098D01*
X1346954Y663599D02*
X1357070D01*
X1349301Y626699D02*
X1357065D01*
X1326332Y653699D02*
X1357038D01*
X1348915Y636599D02*
X1357033D01*
X1348915Y633899D02*
X1356981D01*
X1346832Y656399D02*
X1356977D01*
X1346525Y623999D02*
X1356956D01*
X1346464Y666299D02*
X1356952D01*
X1208217Y676199D02*
X1356930D01*
X1208217Y674399D02*
X1356877D01*
X1346954Y664499D02*
X1356863D01*
X1349068Y625799D02*
X1356861D01*
X1326332Y654599D02*
X1356850D01*
X1348915Y635699D02*
X1356849D01*
X1348915Y634799D02*
X1356832D01*
X1345866Y655499D02*
X1356831D01*
X1348465Y624899D02*
X1356826D01*
X1346879Y665399D02*
X1356825D01*
X1208217Y675299D02*
X1356821D01*
X1182352Y763499D02*
X1356636D01*
X808873Y779699D02*
X1356481D01*
X1222655Y401699D02*
X1356086D01*
X1333702Y416999D02*
X1355842D01*
X1181610Y764399D02*
X1355506D01*
X809964Y778799D02*
X1355391D01*
X1223648Y402599D02*
X1355093D01*
X1333808Y416099D02*
X1354906D01*
X1180710Y765299D02*
X1354647D01*
X810797Y777899D02*
X1354557D01*
X1224416Y403499D02*
X1354324D01*
X1333766Y415199D02*
X1354178D01*
X1179810Y766199D02*
X1353974D01*
X974709Y776999D02*
X1353903D01*
X1225021Y404399D02*
X1353719D01*
X1333573Y414299D02*
X1353604D01*
X1178910Y767099D02*
X1353444D01*
X975609Y776099D02*
X1353388D01*
X1225495Y405299D02*
X1353245D01*
X1333212Y413399D02*
X1353155D01*
X1178010Y767999D02*
X1353032D01*
X976509Y775199D02*
X1352989D01*
X1225859Y406199D02*
X1352881D01*
X1332641Y412499D02*
X1352814D01*
X1177110Y768899D02*
X1352723D01*
X977409Y774299D02*
X1352692D01*
X1226126Y407099D02*
X1352614D01*
X1331759Y411599D02*
X1352568D01*
X1176210Y769799D02*
X1352506D01*
X1172351Y773399D02*
X1352486D01*
X1226302Y407999D02*
X1352438D01*
X1330172Y410699D02*
X1352410D01*
X1175310Y770699D02*
X1352377D01*
X1173510Y772499D02*
X1352367D01*
X1226394Y408899D02*
X1352346D01*
X1226403Y409799D02*
X1352337D01*
X1174410Y771599D02*
X1352331D01*
X1326332Y647399D02*
X1346695D01*
X1326351Y623999D02*
X1346105D01*
X1326332Y646499D02*
X1345704D01*
X1326332Y645599D02*
X1344804D01*
X1326332Y624899D02*
X1344165D01*
X1326332Y644699D02*
X1344044D01*
X1326332Y643799D02*
X1343741D01*
X1326332Y642899D02*
X1343715D01*
X1326332Y641999D02*
X1343715D01*
X1326332Y641099D02*
X1343715D01*
X1326332Y640199D02*
X1343715D01*
X1326332Y639299D02*
X1343715D01*
X1326332Y638399D02*
X1343715D01*
X1326332Y637499D02*
X1343715D01*
X1326332Y636599D02*
X1343715D01*
X1326332Y635699D02*
X1343715D01*
X1326332Y634799D02*
X1343715D01*
X1326332Y633899D02*
X1343715D01*
X1326332Y632999D02*
X1343715D01*
X1326332Y632099D02*
X1343715D01*
X1326332Y631199D02*
X1343715D01*
X1326332Y630299D02*
X1343715D01*
X1326332Y629399D02*
X1343715D01*
X1326332Y628499D02*
X1343701D01*
X1326332Y625799D02*
X1343562D01*
X1326332Y627599D02*
X1343377D01*
X1326332Y626699D02*
X1343329D01*
X1326317Y655499D02*
X1342842D01*
X1326048Y656399D02*
X1341876D01*
X1319926Y662699D02*
X1341754D01*
X1320826Y661799D02*
X1341754D01*
X1321726Y660899D02*
X1341754D01*
X1322626Y659999D02*
X1341754D01*
X1319026Y663599D02*
X1341743D01*
X1323526Y659099D02*
X1341529D01*
X1325326Y657299D02*
X1341461D01*
X1324426Y658199D02*
X1341356D01*
X1318331Y664499D02*
X1340957D01*
X1323111Y612299D02*
X1339538D01*
X1322766Y611399D02*
X1339143D01*
X1321960Y610499D02*
X1338243D01*
X1208303Y609599D02*
X1337343D01*
X1208303Y608699D02*
X1336443D01*
X1208303Y607799D02*
X1335543D01*
X1111967Y753599D02*
X1334942D01*
X1208303Y606899D02*
X1334643D01*
X1112358Y752699D02*
X1334105D01*
X1252757Y749099D02*
X1334073D01*
X1307019Y748199D02*
X1334073D01*
X1307690Y747299D02*
X1334073D01*
X1307964Y746399D02*
X1334073D01*
X1307952Y745499D02*
X1334073D01*
X1307651Y744599D02*
X1334073D01*
X1307576Y743699D02*
X1334073D01*
X1307304Y742799D02*
X1334073D01*
X1306899Y741899D02*
X1334073D01*
X1306899Y740999D02*
X1334073D01*
X1306899Y740099D02*
X1334073D01*
X1306899Y739199D02*
X1334073D01*
X1306899Y738299D02*
X1334073D01*
X1306899Y737399D02*
X1334073D01*
X1329918Y736499D02*
X1334073D01*
X1330705Y735599D02*
X1334073D01*
X1331041Y734699D02*
X1334073D01*
X1331082Y733799D02*
X1334073D01*
X1330842Y732899D02*
X1334073D01*
X1330698Y731999D02*
X1334073D01*
X1330698Y731099D02*
X1334073D01*
X1330698Y730199D02*
X1334073D01*
X1330698Y729299D02*
X1334073D01*
X1330698Y728399D02*
X1334073D01*
X1330698Y727499D02*
X1334073D01*
X1330698Y726599D02*
X1334073D01*
X1330698Y725699D02*
X1334073D01*
X1330698Y724799D02*
X1334073D01*
X1330698Y723899D02*
X1334073D01*
X1330698Y722999D02*
X1334073D01*
X1330698Y722099D02*
X1334073D01*
X1330698Y721199D02*
X1334073D01*
X1330698Y720299D02*
X1334073D01*
X1330698Y719399D02*
X1334073D01*
X1330698Y718499D02*
X1334073D01*
X1330709Y717599D02*
X1334073D01*
X1330797Y716699D02*
X1334073D01*
X1330797Y715799D02*
X1334073D01*
X1330797Y714899D02*
X1334073D01*
X1330797Y713999D02*
X1334073D01*
X1330797Y713099D02*
X1334073D01*
X1330797Y712199D02*
X1334073D01*
X1330797Y711299D02*
X1334073D01*
X1330797Y710399D02*
X1334073D01*
X1330797Y709499D02*
X1334073D01*
X1330797Y708599D02*
X1334073D01*
X1330797Y707699D02*
X1334073D01*
X1330797Y706799D02*
X1334073D01*
X1330797Y705899D02*
X1334073D01*
X1330797Y704999D02*
X1334073D01*
X1330797Y704099D02*
X1334073D01*
X1330797Y703199D02*
X1334073D01*
X1330797Y702299D02*
X1334073D01*
X1330801Y701399D02*
X1334073D01*
X1331123Y700499D02*
X1334050D01*
X1252574Y749999D02*
X1333902D01*
X1250730Y751799D02*
X1333744D01*
X1208303Y605999D02*
X1333743D01*
X1252049Y750899D02*
X1333684D01*
X1331187Y699599D02*
X1333230D01*
X1208303Y605099D02*
X1332843D01*
X1330972Y698699D02*
X1332330D01*
X1323159Y613199D02*
X1329715D01*
X1322927Y614099D02*
X1328806D01*
X1322773Y614999D02*
X1327906D01*
X1322773Y615899D02*
X1327006D01*
X1310172Y410699D02*
X1326364D01*
X1306899Y736499D02*
X1326279D01*
X1322773Y616799D02*
X1326106D01*
X1306899Y731999D02*
X1325498D01*
X1306899Y731099D02*
X1325498D01*
X1306927Y730199D02*
X1325498D01*
X1307247Y729299D02*
X1325498D01*
X1307299Y728399D02*
X1325498D01*
X1307185Y727499D02*
X1325498D01*
X1306758Y726599D02*
X1325498D01*
X1306899Y735599D02*
X1325492D01*
X1324254Y725699D02*
X1325451D01*
X1306899Y732899D02*
X1325355D01*
X1311216Y420599D02*
X1325319D01*
X1322773Y617699D02*
X1325206D01*
X1306899Y734699D02*
X1325156D01*
X1306899Y733799D02*
X1325115D01*
X1311759Y411599D02*
X1324777D01*
X1322773Y618599D02*
X1324306D01*
X1312309Y419699D02*
X1324226D01*
X1312641Y412499D02*
X1323894D01*
X1312996Y418799D02*
X1323540D01*
X1313212Y413399D02*
X1323323D01*
X1313440Y417899D02*
X1323095D01*
X1313573Y414299D02*
X1322962D01*
X1313702Y416999D02*
X1322833D01*
X1313766Y415199D02*
X1322770D01*
X1313808Y416099D02*
X1322728D01*
X1306707Y725699D02*
X1322305D01*
X1220145Y653699D02*
X1321132D01*
X1221045Y652799D02*
X1321132D01*
X1221945Y651899D02*
X1320924D01*
X1219245Y654599D02*
X1320672D01*
X1218345Y655499D02*
X1319772D01*
X1217457Y656399D02*
X1318872D01*
X1208303Y610499D02*
X1318387D01*
X1222845Y650999D02*
X1318009D01*
X1216557Y657299D02*
X1317972D01*
X1208303Y611399D02*
X1317581D01*
X1208303Y619499D02*
X1317573D01*
X1208303Y618599D02*
X1317573D01*
X1208303Y617699D02*
X1317573D01*
X1208303Y616799D02*
X1317573D01*
X1208303Y615899D02*
X1317573D01*
X1208303Y614999D02*
X1317573D01*
X1225788Y646499D02*
X1317498D01*
X1225799Y645599D02*
X1317498D01*
X1225799Y644699D02*
X1317498D01*
X1225799Y643799D02*
X1317498D01*
X1225799Y642899D02*
X1317498D01*
X1225799Y641999D02*
X1317498D01*
X1225799Y641099D02*
X1317498D01*
X1225799Y640199D02*
X1317498D01*
X1225793Y639299D02*
X1317498D01*
X1225656Y638399D02*
X1317498D01*
X1225316Y637499D02*
X1317498D01*
X1224716Y636599D02*
X1317498D01*
X1223835Y635699D02*
X1317498D01*
X1222935Y634799D02*
X1317498D01*
X1222035Y633899D02*
X1317498D01*
X1221135Y632999D02*
X1317498D01*
X1220235Y632099D02*
X1317498D01*
X1219335Y631199D02*
X1317498D01*
X1218435Y630299D02*
X1317498D01*
X1217535Y629399D02*
X1317498D01*
X1216635Y628499D02*
X1317498D01*
X1215735Y627599D02*
X1317498D01*
X1214835Y626699D02*
X1317498D01*
X1213935Y625799D02*
X1317498D01*
X1213035Y624899D02*
X1317498D01*
X1212135Y623999D02*
X1317498D01*
X1211235Y623099D02*
X1317498D01*
X1210335Y622199D02*
X1317498D01*
X1209435Y621299D02*
X1317498D01*
X1208535Y620399D02*
X1317498D01*
X1225631Y647399D02*
X1317466D01*
X1208303Y614099D02*
X1317419D01*
X1223745Y650099D02*
X1317373D01*
X1208303Y612299D02*
X1317236D01*
X1208303Y613199D02*
X1317187D01*
X1225269Y648299D02*
X1317149D01*
X1224637Y649199D02*
X1317119D01*
X1215657Y658199D02*
X1317072D01*
X1214757Y659099D02*
X1316172D01*
X1213857Y659999D02*
X1315272D01*
X1225821Y660899D02*
X1314372D01*
X1226330Y410699D02*
X1306364D01*
X1059618Y420599D02*
X1305319D01*
X1226172Y411599D02*
X1304777D01*
X1059618Y419699D02*
X1304226D01*
X1225926Y412499D02*
X1303894D01*
X1219707Y418799D02*
X1303540D01*
X1225585Y413399D02*
X1303323D01*
X1221643Y417899D02*
X1303095D01*
X1271254Y748199D02*
X1302965D01*
X1225136Y414299D02*
X1302962D01*
X1222898Y416999D02*
X1302833D01*
X1224562Y415199D02*
X1302770D01*
X1223834Y416099D02*
X1302728D01*
X1272179Y747299D02*
X1302294D01*
X1294302Y744599D02*
X1302050D01*
X1293402Y745499D02*
X1302032D01*
X1292256Y746399D02*
X1302020D01*
X1295202Y743699D02*
X1301731D01*
X1296102Y742799D02*
X1301699D01*
X1297002Y741899D02*
X1301699D01*
X1297902Y740999D02*
X1301699D01*
X1298802Y740099D02*
X1301699D01*
X1299702Y739199D02*
X1301699D01*
X1300602Y738299D02*
X1301687D01*
X1208303Y604199D02*
X1301443D01*
X1208303Y603299D02*
X1300507D01*
X1208303Y602399D02*
X1299607D01*
X1273624Y731999D02*
X1298999D01*
X1208303Y601499D02*
X1298707D01*
X1271168Y732899D02*
X1298550D01*
X1208303Y600599D02*
X1297807D01*
X1270900Y733799D02*
X1297748D01*
X1274525Y731099D02*
X1297138D01*
X1208303Y592499D02*
X1297058D01*
X1208303Y599699D02*
X1296907D01*
X1270900Y734699D02*
X1296848D01*
X1208303Y598799D02*
X1296011D01*
X1270957Y735599D02*
X1295948D01*
X1275425Y730199D02*
X1295902D01*
X1208303Y593399D02*
X1295897D01*
X1208303Y597899D02*
X1295404D01*
X1208303Y594299D02*
X1295347D01*
X1208303Y596999D02*
X1295124D01*
X1208303Y595199D02*
X1295104D01*
X1208303Y596099D02*
X1295075D01*
X1271159Y736499D02*
X1295048D01*
X1276325Y729299D02*
X1295002D01*
X1271123Y737399D02*
X1294148D01*
X1270841Y738299D02*
X1293248D01*
X1270232Y739199D02*
X1292348D01*
X1268872Y740099D02*
X1291448D01*
X1252439Y740999D02*
X1290548D01*
X1059618Y437699D02*
X1271687D01*
X1130169Y533099D02*
X1271202D01*
X1130169Y551999D02*
X1270879D01*
X1229176Y725699D02*
X1270631D01*
X1230076Y726599D02*
X1270540D01*
X1128502Y456599D02*
X1270516D01*
X1252439Y741899D02*
X1269800D01*
X1059618Y438599D02*
X1269272D01*
X1130169Y533999D02*
X1269045D01*
X1130169Y551099D02*
X1268875D01*
X1252439Y742799D02*
X1268737D01*
X1128502Y455699D02*
X1268671D01*
X1252662Y748199D02*
X1268093D01*
X1059618Y439499D02*
X1267874D01*
X1130169Y534899D02*
X1267716D01*
X1130169Y550199D02*
X1267596D01*
X1128502Y454799D02*
X1267449D01*
X1252439Y743699D02*
X1267394D01*
X1252439Y747299D02*
X1267168D01*
X1252439Y744599D02*
X1266863D01*
X1059618Y440399D02*
X1266858D01*
X1252439Y746399D02*
X1266768D01*
X1130169Y535799D02*
X1266738D01*
X1252439Y745499D02*
X1266677D01*
X1130169Y549299D02*
X1266646D01*
X1128502Y453899D02*
X1266533D01*
X1059618Y441299D02*
X1266074D01*
X1230976Y727499D02*
X1266026D01*
X1130169Y536699D02*
X1265980D01*
X1130169Y548399D02*
X1265908D01*
X1128502Y452999D02*
X1265819D01*
X1059618Y442199D02*
X1265457D01*
X1130169Y537599D02*
X1265383D01*
X1130169Y547499D02*
X1265326D01*
X1241057Y728399D02*
X1265269D01*
X1128519Y452099D02*
X1265256D01*
X1086266Y443099D02*
X1264973D01*
X1242155Y729299D02*
X1264949D01*
X1130169Y538499D02*
X1264915D01*
X1243138Y731999D02*
X1264900D01*
X1242910Y731099D02*
X1264900D01*
X1242682Y730199D02*
X1264900D01*
X1244038Y732899D02*
X1264892D01*
X1130169Y546599D02*
X1264871D01*
X1128955Y451199D02*
X1264817D01*
X1087323Y443999D02*
X1264600D01*
X1130226Y539399D02*
X1264557D01*
X1130169Y545699D02*
X1264524D01*
X1129521Y450299D02*
X1264483D01*
X1127921Y444899D02*
X1264326D01*
X1130225Y540299D02*
X1264295D01*
X1130169Y544799D02*
X1264273D01*
X1129824Y449399D02*
X1264245D01*
X1128948Y445799D02*
X1264142D01*
X1130169Y541199D02*
X1264124D01*
X1130169Y543899D02*
X1264110D01*
X1129919Y448499D02*
X1264094D01*
X1129517Y446699D02*
X1264044D01*
X1130169Y542099D02*
X1264037D01*
X1130169Y542999D02*
X1264032D01*
X1129822Y447599D02*
X1264028D01*
X1228055Y724799D02*
X1258906D01*
X1216049Y723899D02*
X1258006D01*
X1112444Y751799D02*
X1248790D01*
X1112252Y750899D02*
X1247471D01*
X1112049Y746399D02*
X1247239D01*
X1112049Y745499D02*
X1247239D01*
X1112049Y744599D02*
X1247239D01*
X1112049Y743699D02*
X1247239D01*
X1112049Y742799D02*
X1247239D01*
X1222883Y741899D02*
X1247239D01*
X1224841Y740999D02*
X1247239D01*
X1112049Y747299D02*
X1247227D01*
X1112049Y749999D02*
X1246945D01*
X1112049Y748199D02*
X1246858D01*
X1112049Y749099D02*
X1246763D01*
X1225445Y740099D02*
X1241845D01*
X1225678Y739199D02*
X1240439D01*
X1225631Y738299D02*
X1239539D01*
X1225287Y737399D02*
X1238639D01*
X1233443Y714899D02*
X1238335D01*
X1224485Y736499D02*
X1237739D01*
X1224231Y735599D02*
X1236844D01*
X1232643Y713999D02*
X1234114D01*
X1184517Y713099D02*
X1233040D01*
X1183617Y712199D02*
X1232140D01*
X1168092Y722999D02*
X1231272D01*
X1182717Y711299D02*
X1231240D01*
X1181817Y710399D02*
X1230340D01*
X1168092Y722099D02*
X1230285D01*
X1181246Y709499D02*
X1229440D01*
X1168092Y721199D02*
X1229385D01*
X1224165Y734699D02*
X1228608D01*
X1181246Y708599D02*
X1228540D01*
X1181246Y707699D02*
X1227640D01*
X1223799Y733799D02*
X1227377D01*
X1181246Y706799D02*
X1226740D01*
X1222948Y732899D02*
X1226477D01*
X1181246Y705899D02*
X1225840D01*
X1189409Y731999D02*
X1225577D01*
X1209168Y690599D02*
X1225430D01*
X1213668Y695099D02*
X1225125D01*
X1181246Y704999D02*
X1224940D01*
X1210068Y691499D02*
X1224680D01*
X1212768Y694199D02*
X1224595D01*
X1212957Y660899D02*
X1224439D01*
X1210968Y692399D02*
X1224363D01*
X1211868Y693299D02*
X1224337D01*
X1181246Y704099D02*
X1224040D01*
X1213268Y703199D02*
X1223140D01*
X1212057Y661799D02*
X1222911D01*
X1112049Y741899D02*
X1222503D01*
X1211157Y662699D02*
X1222347D01*
X1210257Y663599D02*
X1222138D01*
X1209357Y664499D02*
X1222055D01*
X1208457Y665399D02*
X1220456D01*
X1208217Y666299D02*
X1219790D01*
X1208217Y667199D02*
X1219519D01*
X1208217Y668099D02*
X1219367D01*
X1208217Y668999D02*
X1217197D01*
X1208217Y673499D02*
X1217173D01*
X1181246Y643799D02*
X1216799D01*
X1181246Y642899D02*
X1216799D01*
X1181246Y641999D02*
X1216799D01*
X1181246Y641099D02*
X1216507D01*
X1208217Y669899D02*
X1216495D01*
X1208217Y672599D02*
X1216485D01*
X1181246Y644699D02*
X1216417D01*
X1208217Y670799D02*
X1216205D01*
X1208217Y671699D02*
X1216202D01*
X1181246Y640199D02*
X1215607D01*
X1181246Y645599D02*
X1215517D01*
X1181246Y639299D02*
X1214707D01*
X1181246Y646499D02*
X1214617D01*
X1207562Y584399D02*
X1214210D01*
X837157Y399899D02*
X1214024D01*
X1188509Y731099D02*
X1213818D01*
X1181246Y638399D02*
X1213807D01*
X1181246Y647399D02*
X1213717D01*
X1059618Y418799D02*
X1213363D01*
X1130169Y565499D02*
X1213228D01*
X1181246Y637499D02*
X1212907D01*
X1181246Y648299D02*
X1212817D01*
X1181246Y636599D02*
X1212007D01*
X1181246Y649199D02*
X1211917D01*
X1206793Y583499D02*
X1211859D01*
X839409Y400799D02*
X1211773D01*
X1059618Y417899D02*
X1211428D01*
X1189158Y566399D02*
X1211351D01*
X1181246Y635699D02*
X1211107D01*
X1181246Y650099D02*
X1211025D01*
X1205893Y582599D02*
X1210476D01*
X840765Y401699D02*
X1210416D01*
X1181246Y634799D02*
X1210207D01*
X1059618Y416999D02*
X1210173D01*
X1181246Y650999D02*
X1210129D01*
X1190589Y567299D02*
X1210117D01*
X1187609Y730199D02*
X1209747D01*
X1204993Y581699D02*
X1209469D01*
X841758Y402599D02*
X1209423D01*
X1181246Y703199D02*
X1209410D01*
X1181367Y633899D02*
X1209307D01*
X1059618Y416099D02*
X1209237D01*
X1181246Y651899D02*
X1209229D01*
X1191493Y568199D02*
X1209195D01*
X1168092Y723899D02*
X1208994D01*
X1204093Y580799D02*
X1208691D01*
X842526Y403499D02*
X1208655D01*
X1059618Y415199D02*
X1208509D01*
X1192393Y569099D02*
X1208475D01*
X1181624Y632999D02*
X1208407D01*
X1181246Y652799D02*
X1208329D01*
X1170801Y729299D02*
X1208315D01*
X1181246Y702299D02*
X1208140D01*
X1203193Y579899D02*
X1208078D01*
X843131Y404399D02*
X1208050D01*
X1168092Y724799D02*
X1208020D01*
X1059618Y414299D02*
X1207935D01*
X1193293Y569999D02*
X1207909D01*
X1169884Y728399D02*
X1207689D01*
X1202293Y578999D02*
X1207597D01*
X843606Y405299D02*
X1207576D01*
X1168092Y725699D02*
X1207542D01*
X1181597Y632099D02*
X1207507D01*
X1059618Y413399D02*
X1207486D01*
X1194193Y570899D02*
X1207466D01*
X1181246Y653699D02*
X1207429D01*
X1168984Y727499D02*
X1207395D01*
X1168133Y726599D02*
X1207349D01*
X1181246Y701399D02*
X1207240D01*
X1201393Y578099D02*
X1207228D01*
X843970Y406199D02*
X1207211D01*
X1059618Y412499D02*
X1207144D01*
X1195093Y571799D02*
X1207129D01*
X1200493Y577199D02*
X1206957D01*
X1055875Y407099D02*
X1206945D01*
X1059618Y411599D02*
X1206898D01*
X1195993Y572699D02*
X1206888D01*
X1199593Y576299D02*
X1206775D01*
X1057901Y407999D02*
X1206768D01*
X1059540Y410699D02*
X1206741D01*
X1196893Y573599D02*
X1206735D01*
X1198693Y575399D02*
X1206679D01*
X1058765Y408899D02*
X1206677D01*
X1059270Y409799D02*
X1206668D01*
X1197793Y574499D02*
X1206666D01*
X1181278Y631199D02*
X1206607D01*
X1181246Y654599D02*
X1206529D01*
X1181246Y700499D02*
X1206340D01*
X1180525Y630299D02*
X1205707D01*
X1181246Y655499D02*
X1205629D01*
X1181246Y699599D02*
X1205440D01*
X1177850Y629399D02*
X1204807D01*
X1181246Y656399D02*
X1204729D01*
X1181246Y698699D02*
X1204540D01*
X1177950Y628499D02*
X1203907D01*
X1181246Y657299D02*
X1203829D01*
X1181246Y697799D02*
X1203640D01*
X1177979Y627599D02*
X1203007D01*
X1181246Y658199D02*
X1202929D01*
X1181246Y696899D02*
X1202740D01*
X1177726Y626699D02*
X1202107D01*
X1181246Y659099D02*
X1202029D01*
X1181246Y695999D02*
X1201840D01*
X1181131Y625799D02*
X1201207D01*
X1181246Y659999D02*
X1201129D01*
X1181246Y695099D02*
X1200940D01*
X1182161Y624899D02*
X1200335D01*
X1181246Y660899D02*
X1200256D01*
X1181246Y694199D02*
X1200107D01*
X1182602Y623999D02*
X1199756D01*
X1181246Y661799D02*
X1199674D01*
X1181246Y693299D02*
X1199587D01*
X1182724Y623099D02*
X1199432D01*
X1181246Y662699D02*
X1199347D01*
X1182570Y622199D02*
X1199306D01*
X1181246Y692399D02*
X1199305D01*
X1182324Y621299D02*
X1199303D01*
X1182324Y620399D02*
X1199303D01*
X1182324Y619499D02*
X1199303D01*
X1182324Y618599D02*
X1199303D01*
X1182324Y617699D02*
X1199303D01*
X1182324Y616799D02*
X1199303D01*
X1182324Y615899D02*
X1199303D01*
X1182324Y614999D02*
X1199303D01*
X1182324Y614099D02*
X1199303D01*
X1182324Y613199D02*
X1199303D01*
X1182324Y612299D02*
X1199303D01*
X1182324Y611399D02*
X1199303D01*
X1182324Y610499D02*
X1199303D01*
X1182324Y609599D02*
X1199303D01*
X1182324Y608699D02*
X1199303D01*
X1182324Y607799D02*
X1199303D01*
X1182324Y606899D02*
X1199303D01*
X1182324Y605999D02*
X1199303D01*
X1182324Y605099D02*
X1199303D01*
X1182324Y604199D02*
X1199303D01*
X1182324Y603299D02*
X1199303D01*
X1182324Y602399D02*
X1199303D01*
X1182324Y601499D02*
X1199303D01*
X1182326Y600599D02*
X1199303D01*
X1182645Y599699D02*
X1199303D01*
X1182717Y598799D02*
X1199303D01*
X1182509Y597899D02*
X1199303D01*
X1181946Y596999D02*
X1199303D01*
X1180428Y596099D02*
X1199303D01*
X1177600Y595199D02*
X1199303D01*
X1177600Y594299D02*
X1199303D01*
X1177600Y593399D02*
X1199303D01*
X1177600Y592499D02*
X1199303D01*
X1177909Y591599D02*
X1199303D01*
X1177995Y590699D02*
X1199303D01*
X1177804Y589799D02*
X1199303D01*
X1177265Y588899D02*
X1199301D01*
X1181246Y663599D02*
X1199220D01*
X1181246Y691499D02*
X1199217D01*
X1181246Y690599D02*
X1199217D01*
X1181246Y689699D02*
X1199217D01*
X1181246Y688799D02*
X1199217D01*
X1181246Y687899D02*
X1199217D01*
X1181246Y686999D02*
X1199217D01*
X1181246Y686099D02*
X1199217D01*
X1181246Y685199D02*
X1199217D01*
X1181246Y684299D02*
X1199217D01*
X1181246Y683399D02*
X1199217D01*
X1181246Y682499D02*
X1199217D01*
X1181246Y681599D02*
X1199217D01*
X1181246Y680699D02*
X1199217D01*
X1181246Y679799D02*
X1199217D01*
X1181246Y678899D02*
X1199217D01*
X1181246Y677999D02*
X1199217D01*
X1181246Y677099D02*
X1199217D01*
X1181246Y676199D02*
X1199217D01*
X1181246Y675299D02*
X1199217D01*
X1181246Y674399D02*
X1199217D01*
X1181246Y673499D02*
X1199217D01*
X1181246Y672599D02*
X1199217D01*
X1181246Y671699D02*
X1199217D01*
X1181246Y670799D02*
X1199217D01*
X1181246Y669899D02*
X1199217D01*
X1181246Y668999D02*
X1199217D01*
X1181246Y668099D02*
X1199217D01*
X1181246Y667199D02*
X1199217D01*
X1181246Y666299D02*
X1199217D01*
X1181246Y665399D02*
X1199217D01*
X1181246Y664499D02*
X1199217D01*
X1175884Y587999D02*
X1198565D01*
X1043033Y587099D02*
X1197665D01*
X1043033Y586199D02*
X1196765D01*
X1043033Y585299D02*
X1195865D01*
X1043033Y584399D02*
X1194965D01*
X1043033Y583499D02*
X1194065D01*
X1043033Y582599D02*
X1193165D01*
X1043033Y581699D02*
X1192265D01*
X1043033Y580799D02*
X1191365D01*
X1043033Y579899D02*
X1190465D01*
X1043033Y578999D02*
X1189565D01*
X1043033Y578099D02*
X1188665D01*
X1043033Y577199D02*
X1187765D01*
X1043033Y576299D02*
X1186865D01*
X1043033Y575399D02*
X1185965D01*
X1130169Y566399D02*
X1185881D01*
X1127899Y574499D02*
X1185065D01*
X1141029Y740999D02*
X1184628D01*
X1130169Y567299D02*
X1184451D01*
X1129015Y573599D02*
X1184174D01*
X1130169Y568199D02*
X1183707D01*
X1141840Y740099D02*
X1183686D01*
X1129645Y572699D02*
X1183544D01*
X1130169Y569099D02*
X1183274D01*
X1130004Y571799D02*
X1183185D01*
X1130169Y569999D02*
X1183059D01*
X1130159Y570899D02*
X1183030D01*
X1142188Y739199D02*
X1182786D01*
X1142239Y738299D02*
X1181886D01*
X1142009Y737399D02*
X1180690D01*
X1155577Y736499D02*
X1179556D01*
X1168092Y720299D02*
X1179219D01*
X1156222Y735599D02*
X1179081D01*
X1177635Y596099D02*
X1179021D01*
X1156481Y734699D02*
X1178785D01*
X1177883Y625799D02*
X1178317D01*
X1168092Y719399D02*
X1178238D01*
X1168092Y718499D02*
X1177338D01*
X1168092Y717599D02*
X1176438D01*
X1105907Y757199D02*
X1176303D01*
X1168092Y716699D02*
X1175538D01*
X1105907Y758099D02*
X1175182D01*
X1168092Y715799D02*
X1174638D01*
X1105907Y758999D02*
X1174282D01*
X1043033Y587999D02*
X1174116D01*
X1168092Y714899D02*
X1173738D01*
X1105907Y759899D02*
X1173382D01*
X1168092Y713999D02*
X1172887D01*
X1043033Y588899D02*
X1172735D01*
X1105907Y760799D02*
X1172482D01*
X1168092Y713099D02*
X1172474D01*
X1168092Y712199D02*
X1172400D01*
X1168092Y711299D02*
X1172400D01*
X1168092Y710399D02*
X1172400D01*
X1168092Y709499D02*
X1172400D01*
X1168092Y708599D02*
X1172400D01*
X1168092Y707699D02*
X1172400D01*
X1168092Y706799D02*
X1172400D01*
X1168092Y705899D02*
X1172400D01*
X1168092Y704999D02*
X1172400D01*
X1168092Y704099D02*
X1172400D01*
X1168092Y703199D02*
X1172400D01*
X1168092Y702299D02*
X1172400D01*
X1168092Y701399D02*
X1172400D01*
X1168092Y700499D02*
X1172400D01*
X1168092Y699599D02*
X1172400D01*
X1168092Y698699D02*
X1172400D01*
X1168092Y697799D02*
X1172400D01*
X1168092Y696899D02*
X1172400D01*
X1168092Y695999D02*
X1172400D01*
X1168092Y695099D02*
X1172400D01*
X1168092Y694199D02*
X1172400D01*
X1168092Y693299D02*
X1172400D01*
X1168092Y692399D02*
X1172400D01*
X1168092Y691499D02*
X1172400D01*
X1168092Y690599D02*
X1172400D01*
X1168092Y689699D02*
X1172400D01*
X1168092Y688799D02*
X1172400D01*
X1168092Y687899D02*
X1172400D01*
X1168092Y686999D02*
X1172400D01*
X1168092Y686099D02*
X1172400D01*
X1168092Y685199D02*
X1172400D01*
X1168092Y684299D02*
X1172400D01*
X1168092Y683399D02*
X1172400D01*
X1168092Y682499D02*
X1172400D01*
X1168092Y681599D02*
X1172400D01*
X1168092Y680699D02*
X1172400D01*
X1168092Y679799D02*
X1172400D01*
X1168092Y678899D02*
X1172400D01*
X1168092Y677999D02*
X1172400D01*
X1168092Y677099D02*
X1172400D01*
X1168092Y676199D02*
X1172400D01*
X1168092Y675299D02*
X1172400D01*
X1168092Y674399D02*
X1172400D01*
X1168092Y672599D02*
X1172400D01*
X1168092Y671699D02*
X1172400D01*
X1168092Y670799D02*
X1172400D01*
X1168092Y669899D02*
X1172400D01*
X1168092Y668999D02*
X1172400D01*
X1168092Y668099D02*
X1172400D01*
X1168092Y667199D02*
X1172400D01*
X1168092Y666299D02*
X1172400D01*
X1168092Y665399D02*
X1172400D01*
X1168092Y664499D02*
X1172400D01*
X1168092Y663599D02*
X1172400D01*
X1168092Y662699D02*
X1172400D01*
X1168092Y661799D02*
X1172400D01*
X1168092Y660899D02*
X1172400D01*
X1168092Y659999D02*
X1172400D01*
X1168092Y659099D02*
X1172400D01*
X1168092Y658199D02*
X1172400D01*
X1168092Y657299D02*
X1172400D01*
X1168092Y656399D02*
X1172400D01*
X1168092Y655499D02*
X1172400D01*
X1168092Y654599D02*
X1172400D01*
X1168092Y653699D02*
X1172400D01*
X1168092Y652799D02*
X1172400D01*
X1168092Y651899D02*
X1172400D01*
X1168092Y650999D02*
X1172400D01*
X1168092Y650099D02*
X1172400D01*
X1168092Y649199D02*
X1172400D01*
X1168092Y648299D02*
X1172400D01*
X1168092Y647399D02*
X1172400D01*
X1168092Y646499D02*
X1172400D01*
X1168092Y645599D02*
X1172400D01*
X1168092Y644699D02*
X1172400D01*
X1168092Y643799D02*
X1172400D01*
X1168092Y642899D02*
X1172400D01*
X1168092Y641999D02*
X1172400D01*
X1168050Y641099D02*
X1172400D01*
X1167703Y640199D02*
X1172400D01*
X1166902Y639299D02*
X1172400D01*
X1166002Y638399D02*
X1172400D01*
X1165102Y637499D02*
X1172400D01*
X1164202Y636599D02*
X1172400D01*
X1168092Y673499D02*
X1172398D01*
X1043033Y589799D02*
X1172196D01*
X1163698Y635699D02*
X1172148D01*
X1043033Y591599D02*
X1172091D01*
X1043033Y590699D02*
X1172005D01*
X1105975Y761699D02*
X1171582D01*
X1043033Y592499D02*
X1171354D01*
X1106270Y762599D02*
X1170682D01*
X1106276Y763499D02*
X1169782D01*
X1163698Y634799D02*
X1169652D01*
X1043033Y593399D02*
X1169611D01*
X1163698Y630299D02*
X1169132D01*
X1163698Y629399D02*
X1169132D01*
X1163698Y628499D02*
X1169132D01*
X1163698Y627599D02*
X1169132D01*
X1163698Y626699D02*
X1169132D01*
X1163698Y625799D02*
X1169132D01*
X1163698Y624899D02*
X1169132D01*
X1163698Y623999D02*
X1169132D01*
X1163698Y623099D02*
X1169132D01*
X1163698Y622199D02*
X1169132D01*
X1163698Y621299D02*
X1169132D01*
X1163698Y620399D02*
X1169132D01*
X1163700Y619499D02*
X1169132D01*
X1164020Y618599D02*
X1169132D01*
X1164091Y617699D02*
X1169132D01*
X1163882Y616799D02*
X1169132D01*
X1163318Y615899D02*
X1169132D01*
X1161796Y614999D02*
X1169132D01*
X1043143Y614099D02*
X1169132D01*
X1043143Y613199D02*
X1169132D01*
X1043143Y612299D02*
X1169132D01*
X1043143Y611399D02*
X1169132D01*
X1043143Y610499D02*
X1169132D01*
X1043143Y609599D02*
X1169132D01*
X1043143Y608699D02*
X1169132D01*
X1043143Y607799D02*
X1169132D01*
X1043143Y606899D02*
X1169132D01*
X1043143Y605999D02*
X1169132D01*
X1043143Y605099D02*
X1169132D01*
X1043143Y604199D02*
X1169132D01*
X1043143Y603299D02*
X1169132D01*
X1043098Y602399D02*
X1169132D01*
X1043033Y601499D02*
X1169132D01*
X1043033Y600599D02*
X1169132D01*
X1043033Y599699D02*
X1169132D01*
X1043033Y598799D02*
X1169132D01*
X1043033Y597899D02*
X1169132D01*
X1043033Y596999D02*
X1169132D01*
X1163698Y631199D02*
X1169096D01*
X1043033Y594299D02*
X1169021D01*
X1163698Y633899D02*
X1169010D01*
X1106027Y764399D02*
X1168882D01*
X1043033Y596099D02*
X1168851D01*
X1043033Y595199D02*
X1168796D01*
X1163698Y632099D02*
X1168781D01*
X1163698Y632999D02*
X1168754D01*
X1156457Y733799D02*
X1167930D01*
X1156143Y732899D02*
X1167030D01*
X1156104Y731999D02*
X1166130D01*
X1156104Y731099D02*
X1165230D01*
X1156104Y730199D02*
X1164330D01*
X1156104Y729299D02*
X1163454D01*
X1156104Y728399D02*
X1162992D01*
X1156104Y727499D02*
X1162892D01*
X1156104Y726599D02*
X1162892D01*
X1156104Y725699D02*
X1162892D01*
X1156104Y724799D02*
X1162892D01*
X1156104Y723899D02*
X1162892D01*
X1156104Y722999D02*
X1162892D01*
X1156104Y722099D02*
X1162892D01*
X1156104Y721199D02*
X1162892D01*
X1156104Y720299D02*
X1162892D01*
X1156104Y719399D02*
X1162892D01*
X1156104Y718499D02*
X1162892D01*
X1156104Y717599D02*
X1162892D01*
X1156104Y716699D02*
X1162892D01*
X1156104Y715799D02*
X1162892D01*
X1156104Y714899D02*
X1162892D01*
X1156104Y713999D02*
X1162892D01*
X1156104Y713099D02*
X1162892D01*
X1156104Y712199D02*
X1162892D01*
X1156104Y711299D02*
X1162892D01*
X1155984Y710399D02*
X1162892D01*
X1155487Y709499D02*
X1162892D01*
X1154599Y708599D02*
X1162892D01*
X1153699Y707699D02*
X1162892D01*
X1152799Y706799D02*
X1162892D01*
X1151899Y705899D02*
X1162892D01*
X1150813Y704999D02*
X1162892D01*
X1117521Y704099D02*
X1162892D01*
X1117521Y703199D02*
X1162892D01*
X1117521Y702299D02*
X1162892D01*
X1117521Y701399D02*
X1162892D01*
X1117521Y700499D02*
X1162892D01*
X1117521Y699599D02*
X1162892D01*
X1117521Y698699D02*
X1162892D01*
X1117521Y697799D02*
X1162892D01*
X1117521Y696899D02*
X1162892D01*
X1117521Y695999D02*
X1162892D01*
X1117521Y695099D02*
X1162892D01*
X1117521Y694199D02*
X1162892D01*
X1117521Y693299D02*
X1162892D01*
X1117521Y692399D02*
X1162892D01*
X1117521Y691499D02*
X1162892D01*
X1117521Y690599D02*
X1162892D01*
X1117521Y689699D02*
X1162892D01*
X1117521Y688799D02*
X1162892D01*
X1117521Y687899D02*
X1162892D01*
X1117521Y686999D02*
X1162892D01*
X1117521Y686099D02*
X1162892D01*
X1117521Y685199D02*
X1162892D01*
X1117521Y684299D02*
X1162892D01*
X1117521Y683399D02*
X1162892D01*
X1117521Y682499D02*
X1162892D01*
X1117521Y681599D02*
X1162892D01*
X1117521Y680699D02*
X1162892D01*
X1117521Y679799D02*
X1162892D01*
X1117521Y678899D02*
X1162892D01*
X1117521Y677999D02*
X1162892D01*
X1117521Y677099D02*
X1162892D01*
X1117521Y676199D02*
X1162892D01*
X1117521Y675299D02*
X1162892D01*
X1117521Y674399D02*
X1162892D01*
X1117521Y673499D02*
X1162892D01*
X1117521Y672599D02*
X1162892D01*
X1117521Y671699D02*
X1162892D01*
X1117521Y670799D02*
X1162892D01*
X1117521Y669899D02*
X1162892D01*
X1117521Y668999D02*
X1162892D01*
X1117521Y668099D02*
X1162892D01*
X1117521Y667199D02*
X1162892D01*
X1117521Y666299D02*
X1162892D01*
X1117521Y665399D02*
X1162892D01*
X1117521Y664499D02*
X1162892D01*
X1117521Y663599D02*
X1162892D01*
X1117521Y662699D02*
X1162892D01*
X1117521Y661799D02*
X1162892D01*
X1117521Y660899D02*
X1162892D01*
X1158155Y659999D02*
X1162892D01*
X1160360Y659099D02*
X1162892D01*
X1161303Y658199D02*
X1162892D01*
X1161828Y652799D02*
X1162892D01*
X1161222Y651899D02*
X1162892D01*
X1160221Y650999D02*
X1162892D01*
X1108383Y650099D02*
X1162892D01*
X1107483Y649199D02*
X1162892D01*
X1106229Y648299D02*
X1162892D01*
X961472Y647399D02*
X1162892D01*
X961472Y646499D02*
X1162892D01*
X961472Y645599D02*
X1162892D01*
X961472Y644699D02*
X1162892D01*
X961472Y643799D02*
X1162892D01*
X961472Y642899D02*
X1162892D01*
X1161878Y657299D02*
X1162885D01*
X961472Y641999D02*
X1162248D01*
X961472Y641099D02*
X1161348D01*
X994597Y640199D02*
X1160448D01*
X1043143Y614999D02*
X1160401D01*
X995514Y639299D02*
X1159548D01*
X1043143Y615899D02*
X1158878D01*
X996007Y638399D02*
X1158806D01*
X996240Y637499D02*
X1158519D01*
X996260Y636599D02*
X1158498D01*
X996069Y635699D02*
X1158498D01*
X995631Y634799D02*
X1158498D01*
X994820Y633899D02*
X1158498D01*
X961472Y632999D02*
X1158498D01*
X961472Y632099D02*
X1158498D01*
X961472Y631199D02*
X1158498D01*
X961472Y630299D02*
X1158498D01*
X961472Y629399D02*
X1158498D01*
X961472Y628499D02*
X1158498D01*
X961472Y627599D02*
X1158498D01*
X961472Y626699D02*
X1158498D01*
X961472Y625799D02*
X1158498D01*
X961472Y624899D02*
X1158498D01*
X961472Y623999D02*
X1158498D01*
X961472Y623099D02*
X1158498D01*
X961472Y622199D02*
X1158498D01*
X961472Y621299D02*
X1158498D01*
X1042545Y620399D02*
X1158498D01*
X1043230Y619499D02*
X1158497D01*
X1043214Y616799D02*
X1158314D01*
X1043512Y618599D02*
X1158177D01*
X1043507Y617699D02*
X1158106D01*
X1126029Y659999D02*
X1156727D01*
X1128095Y650999D02*
X1154661D01*
X1128234Y659099D02*
X1154522D01*
X1129096Y651899D02*
X1153660D01*
X1129177Y658199D02*
X1153579D01*
X1129702Y652799D02*
X1153054D01*
X1129752Y657299D02*
X1153004D01*
X1130066Y653699D02*
X1152690D01*
X1130094Y656399D02*
X1152662D01*
X1130243Y654599D02*
X1152513D01*
X1130251Y655499D02*
X1152504D01*
X1141411Y736499D02*
X1151431D01*
X1139962Y731999D02*
X1150904D01*
X1139962Y731099D02*
X1150904D01*
X1139962Y730199D02*
X1150904D01*
X1139962Y729299D02*
X1150904D01*
X1139962Y728399D02*
X1150904D01*
X1139962Y727499D02*
X1150904D01*
X1139962Y726599D02*
X1150904D01*
X1139962Y725699D02*
X1150904D01*
X1139962Y724799D02*
X1150904D01*
X1139962Y723899D02*
X1150904D01*
X1139962Y722999D02*
X1150904D01*
X1139962Y722099D02*
X1150904D01*
X1139962Y721199D02*
X1150904D01*
X1139962Y720299D02*
X1150904D01*
X1139962Y719399D02*
X1150904D01*
X1139962Y718499D02*
X1150904D01*
X1140209Y717599D02*
X1150904D01*
X1140362Y716699D02*
X1150904D01*
X1140238Y715799D02*
X1150904D01*
X1139796Y714899D02*
X1150904D01*
X1138761Y713999D02*
X1150904D01*
X1134086Y713099D02*
X1150904D01*
X1139962Y732899D02*
X1150865D01*
X1146451Y712199D02*
X1150828D01*
X1140063Y735599D02*
X1150785D01*
X1139962Y733799D02*
X1150551D01*
X1139962Y734699D02*
X1150527D01*
X1147246Y711299D02*
X1149945D01*
X1147586Y710399D02*
X1149045D01*
X1112049Y740999D02*
X1137475D01*
X1135652Y740099D02*
X1136664D01*
X1133978Y713999D02*
X1135964D01*
X1134033Y714899D02*
X1134928D01*
X1112049Y740099D02*
X1131907D01*
X1112049Y739199D02*
X1131150D01*
X1112049Y738299D02*
X1130829D01*
X1112049Y737399D02*
X1130685D01*
X1117521Y704999D02*
X1129581D01*
X1124859Y711299D02*
X1128851D01*
X1118674Y731099D02*
X1128778D01*
X1117774Y730199D02*
X1128778D01*
X1117521Y729299D02*
X1128778D01*
X1117521Y728399D02*
X1128778D01*
X1117521Y727499D02*
X1128778D01*
X1117521Y726599D02*
X1128778D01*
X1117521Y725699D02*
X1128778D01*
X1117521Y724799D02*
X1128778D01*
X1117521Y723899D02*
X1128778D01*
X1117521Y722999D02*
X1128778D01*
X1117521Y722099D02*
X1128778D01*
X1117521Y721199D02*
X1128778D01*
X1117521Y720299D02*
X1128778D01*
X1117521Y719399D02*
X1128778D01*
X1117521Y718499D02*
X1128778D01*
X1117521Y717599D02*
X1128778D01*
X1117521Y716699D02*
X1128778D01*
X1117521Y715799D02*
X1128778D01*
X1117521Y714899D02*
X1128778D01*
X1117521Y713999D02*
X1128778D01*
X1117521Y713099D02*
X1128778D01*
X1117521Y712199D02*
X1128778D01*
X1117502Y659999D02*
X1124601D01*
X1117521Y711299D02*
X1124432D01*
X1057415Y574499D02*
X1123440D01*
X1087768Y444899D02*
X1123418D01*
X1059618Y482699D02*
X1123302D01*
X1059618Y481799D02*
X1123302D01*
X1059618Y480899D02*
X1123302D01*
X1059618Y479999D02*
X1123302D01*
X1059618Y479099D02*
X1123302D01*
X1059618Y478199D02*
X1123302D01*
X1059618Y477299D02*
X1123302D01*
X1059618Y476399D02*
X1123302D01*
X1059618Y475499D02*
X1123302D01*
X1059618Y474599D02*
X1123302D01*
X1059618Y473699D02*
X1123302D01*
X1059618Y472799D02*
X1123302D01*
X1059618Y471899D02*
X1123302D01*
X1059618Y470999D02*
X1123302D01*
X1059618Y470099D02*
X1123302D01*
X1059623Y469199D02*
X1123302D01*
X1059735Y468299D02*
X1123302D01*
X1059666Y467399D02*
X1123302D01*
X1059618Y466499D02*
X1123302D01*
X1059618Y465599D02*
X1123302D01*
X1059618Y464699D02*
X1123302D01*
X1059618Y463799D02*
X1123302D01*
X1059618Y462899D02*
X1123302D01*
X1059618Y461999D02*
X1123302D01*
X1059618Y461099D02*
X1123302D01*
X1059618Y460199D02*
X1123302D01*
X1059618Y459299D02*
X1123302D01*
X1059618Y458399D02*
X1123302D01*
X1059618Y457499D02*
X1123302D01*
X1059618Y456599D02*
X1123302D01*
X1059618Y455699D02*
X1123302D01*
X1059618Y454799D02*
X1123302D01*
X1059618Y453899D02*
X1123302D01*
X1059618Y452999D02*
X1123302D01*
X1059618Y452099D02*
X1123247D01*
X1059618Y483599D02*
X1123135D01*
X1117521Y705899D02*
X1122856D01*
X1109283Y650999D02*
X1122535D01*
X1117521Y710399D02*
X1122496D01*
X1117220Y659099D02*
X1122396D01*
X1087891Y445799D02*
X1122391D01*
X1059618Y451199D02*
X1122383D01*
X1058499Y573599D02*
X1122323D01*
X1059618Y484499D02*
X1122165D01*
X1117521Y706799D02*
X1122052D01*
X1117521Y709499D02*
X1121893D01*
X1087735Y446699D02*
X1121821D01*
X1059618Y450299D02*
X1121817D01*
X1117521Y707699D02*
X1121708D01*
X1059114Y572699D02*
X1121694D01*
X1117521Y708599D02*
X1121660D01*
X1059618Y485399D02*
X1121601D01*
X1110183Y651899D02*
X1121534D01*
X1087244Y447599D02*
X1121517D01*
X1059618Y449399D02*
X1121515D01*
X1116483Y658199D02*
X1121453D01*
X1086040Y448499D02*
X1121419D01*
X1059463Y571799D02*
X1121335D01*
X1059618Y486299D02*
X1121287D01*
X1059618Y493499D02*
X1121260D01*
X1059618Y494399D02*
X1121200D01*
X1059610Y570899D02*
X1121180D01*
X1059618Y487199D02*
X1121171D01*
X1059618Y569999D02*
X1121169D01*
X1059618Y569099D02*
X1121169D01*
X1059618Y568199D02*
X1121169D01*
X1059618Y567299D02*
X1121169D01*
X1059618Y566399D02*
X1121169D01*
X1059618Y565499D02*
X1121169D01*
X1059618Y564599D02*
X1121169D01*
X1059618Y563699D02*
X1121169D01*
X1059618Y562799D02*
X1121169D01*
X1059618Y561899D02*
X1121169D01*
X1059618Y560999D02*
X1121169D01*
X1059618Y560099D02*
X1121169D01*
X1059618Y559199D02*
X1121169D01*
X1059618Y558299D02*
X1121169D01*
X1059618Y557399D02*
X1121169D01*
X1059618Y556499D02*
X1121169D01*
X1059618Y555599D02*
X1121169D01*
X1059618Y554699D02*
X1121169D01*
X1059618Y553799D02*
X1121169D01*
X1059618Y552899D02*
X1121169D01*
X1059618Y551999D02*
X1121169D01*
X1059618Y551099D02*
X1121169D01*
X1059618Y550199D02*
X1121169D01*
X1059618Y549299D02*
X1121169D01*
X1059618Y548399D02*
X1121169D01*
X1087060Y547499D02*
X1121169D01*
X1088044Y546599D02*
X1121169D01*
X1088570Y545699D02*
X1121169D01*
X1088826Y544799D02*
X1121169D01*
X1088867Y543899D02*
X1121169D01*
X1088698Y542999D02*
X1121169D01*
X1088289Y542099D02*
X1121169D01*
X1087528Y541199D02*
X1121169D01*
X1085716Y540299D02*
X1121169D01*
X1059618Y539399D02*
X1121169D01*
X1059618Y538499D02*
X1121169D01*
X1059618Y537599D02*
X1121169D01*
X1059618Y536699D02*
X1121169D01*
X1059618Y535799D02*
X1121169D01*
X1059618Y534899D02*
X1121169D01*
X1059618Y533999D02*
X1121169D01*
X1059618Y533099D02*
X1121169D01*
X1059618Y532199D02*
X1121169D01*
X1059618Y531299D02*
X1121169D01*
X1059618Y530399D02*
X1121169D01*
X1059618Y529499D02*
X1121169D01*
X1059618Y528599D02*
X1121169D01*
X1059618Y527699D02*
X1121169D01*
X1059618Y526799D02*
X1121169D01*
X1059618Y525899D02*
X1121169D01*
X1059613Y524999D02*
X1121169D01*
X1059602Y524099D02*
X1121169D01*
X1059592Y523199D02*
X1121169D01*
X1059611Y522299D02*
X1121169D01*
X1059618Y521399D02*
X1121169D01*
X1059618Y520499D02*
X1121169D01*
X1059618Y519599D02*
X1121169D01*
X1059618Y518699D02*
X1121169D01*
X1059618Y517799D02*
X1121169D01*
X1059618Y516899D02*
X1121169D01*
X1059618Y515999D02*
X1121169D01*
X1059618Y515099D02*
X1121169D01*
X1059618Y514199D02*
X1121169D01*
X1059618Y513299D02*
X1121169D01*
X1059618Y512399D02*
X1121169D01*
X1059618Y511499D02*
X1121169D01*
X1059618Y510599D02*
X1121169D01*
X1059618Y509699D02*
X1121169D01*
X1059618Y508799D02*
X1121169D01*
X1059618Y507899D02*
X1121169D01*
X1059618Y506999D02*
X1121169D01*
X1059618Y506099D02*
X1121169D01*
X1059618Y505199D02*
X1121169D01*
X1059618Y504299D02*
X1121169D01*
X1059618Y503399D02*
X1121169D01*
X1059618Y502499D02*
X1121169D01*
X1059618Y501599D02*
X1121169D01*
X1059618Y500699D02*
X1121169D01*
X1059618Y499799D02*
X1121169D01*
X1059618Y498899D02*
X1121169D01*
X1059618Y497999D02*
X1121169D01*
X1059618Y497099D02*
X1121169D01*
X1059618Y496199D02*
X1121169D01*
X1059618Y495299D02*
X1121169D01*
X1059618Y492599D02*
X1121169D01*
X1059618Y491699D02*
X1121169D01*
X1059618Y490799D02*
X1121169D01*
X1059618Y489899D02*
X1121169D01*
X1059618Y488999D02*
X1121169D01*
X1059618Y488099D02*
X1121169D01*
X1111083Y652799D02*
X1120928D01*
X1115583Y657299D02*
X1120878D01*
X1111983Y653699D02*
X1120564D01*
X1114683Y656399D02*
X1120536D01*
X1112883Y654599D02*
X1120387D01*
X1113783Y655499D02*
X1120378D01*
X1112049Y736499D02*
X1116776D01*
X1112049Y735599D02*
X1115820D01*
X1112049Y734699D02*
X1114920D01*
X1112049Y733799D02*
X1114020D01*
X1112063Y732899D02*
X1113120D01*
X1105907Y754499D02*
X1107838D01*
X1105917Y753599D02*
X1106931D01*
X1099175Y722099D02*
X1100904D01*
X1099175Y721199D02*
X1100904D01*
X1099175Y720299D02*
X1100904D01*
X1099175Y719399D02*
X1100904D01*
X1099175Y718499D02*
X1100904D01*
X1099175Y717599D02*
X1100904D01*
X1099175Y716699D02*
X1100904D01*
X1099175Y715799D02*
X1100904D01*
X1099175Y714899D02*
X1100904D01*
X1099175Y713999D02*
X1100904D01*
X1099175Y713099D02*
X1100904D01*
X1099175Y712199D02*
X1100904D01*
X1099175Y711299D02*
X1100904D01*
X1099175Y710399D02*
X1100904D01*
X1099175Y709499D02*
X1100904D01*
X1099175Y708599D02*
X1100904D01*
X1099175Y707699D02*
X1100904D01*
X1099175Y706799D02*
X1100904D01*
X1099175Y705899D02*
X1100904D01*
X1099175Y704999D02*
X1100904D01*
X1099175Y704099D02*
X1100904D01*
X1099175Y703199D02*
X1100904D01*
X1099175Y702299D02*
X1100904D01*
X1099175Y701399D02*
X1100904D01*
X1099175Y700499D02*
X1100904D01*
X1099175Y699599D02*
X1100904D01*
X1099175Y698699D02*
X1100904D01*
X1099175Y697799D02*
X1100904D01*
X1099175Y696899D02*
X1100904D01*
X1099175Y695999D02*
X1100904D01*
X1099175Y695099D02*
X1100904D01*
X1099175Y694199D02*
X1100904D01*
X1099175Y693299D02*
X1100904D01*
X1099175Y692399D02*
X1100904D01*
X1099175Y691499D02*
X1100904D01*
X1099175Y690599D02*
X1100904D01*
X1099175Y689699D02*
X1100904D01*
X1099175Y688799D02*
X1100904D01*
X1099175Y687899D02*
X1100904D01*
X1099175Y686999D02*
X1100904D01*
X1099175Y686099D02*
X1100904D01*
X1099175Y685199D02*
X1100904D01*
X1099175Y684299D02*
X1100904D01*
X1099175Y683399D02*
X1100904D01*
X1099175Y682499D02*
X1100904D01*
X1099175Y681599D02*
X1100904D01*
X1099175Y680699D02*
X1100904D01*
X1099175Y679799D02*
X1100904D01*
X1099175Y678899D02*
X1100904D01*
X1099175Y677999D02*
X1100904D01*
X1099175Y677099D02*
X1100904D01*
X1099175Y676199D02*
X1100904D01*
X1099175Y675299D02*
X1100904D01*
X1099175Y674399D02*
X1100904D01*
X1099175Y673499D02*
X1100904D01*
X1099175Y672599D02*
X1100904D01*
X1099175Y671699D02*
X1100904D01*
X1099175Y670799D02*
X1100904D01*
X1099175Y669899D02*
X1100904D01*
X1099175Y668999D02*
X1100904D01*
X1099175Y668099D02*
X1100904D01*
X1099175Y667199D02*
X1100904D01*
X1099175Y666299D02*
X1100904D01*
X1099175Y665399D02*
X1100904D01*
X1099175Y664499D02*
X1100904D01*
X1099141Y663599D02*
X1100904D01*
X1099175Y722999D02*
X1100793D01*
X1099360Y760799D02*
X1100707D01*
X1099567Y759899D02*
X1100707D01*
X1099495Y758999D02*
X1100707D01*
X1099176Y758099D02*
X1100707D01*
X1099175Y757199D02*
X1100707D01*
X1099175Y756299D02*
X1100707D01*
X1099175Y755399D02*
X1100707D01*
X1099175Y754499D02*
X1100707D01*
X1099175Y753599D02*
X1100707D01*
X1099175Y752699D02*
X1100707D01*
X1099175Y751799D02*
X1100707D01*
X1099175Y750899D02*
X1100707D01*
X1099175Y749999D02*
X1100707D01*
X1099175Y749099D02*
X1100707D01*
X1099175Y748199D02*
X1100707D01*
X1099175Y747299D02*
X1100707D01*
X1099175Y746399D02*
X1100707D01*
X1099175Y745499D02*
X1100707D01*
X1099175Y744599D02*
X1100707D01*
X1099175Y743699D02*
X1100707D01*
X1099175Y742799D02*
X1100707D01*
X1099175Y741899D02*
X1100707D01*
X1099175Y740999D02*
X1100707D01*
X1099175Y740099D02*
X1100707D01*
X1099175Y739199D02*
X1100707D01*
X1099175Y738299D02*
X1100707D01*
X1099175Y737399D02*
X1100707D01*
X1099175Y736499D02*
X1100707D01*
X1099175Y735599D02*
X1100707D01*
X1099175Y734699D02*
X1100707D01*
X1099175Y733799D02*
X1100707D01*
X1099175Y732899D02*
X1100707D01*
X1099175Y731999D02*
X1100707D01*
X1099175Y731099D02*
X1100707D01*
X1099175Y730199D02*
X1100707D01*
X1099175Y729299D02*
X1100707D01*
X1099175Y728399D02*
X1100707D01*
X1099175Y727499D02*
X1100707D01*
X1099175Y726599D02*
X1100707D01*
X1099175Y725699D02*
X1100707D01*
X1099175Y724799D02*
X1100707D01*
X1099175Y723899D02*
X1100707D01*
X1098798Y761699D02*
X1100639D01*
X1084477Y764399D02*
X1100587D01*
X1098817Y662699D02*
X1100440D01*
X1097286Y762599D02*
X1100344D01*
X1085068Y763499D02*
X1100338D01*
X1098035Y661799D02*
X1099540D01*
X1097135Y660899D02*
X1098640D01*
X1096613Y659999D02*
X1097740D01*
X1085504Y762599D02*
X1095863D01*
X1085720Y761699D02*
X1094352D01*
X1083978Y757199D02*
X1093975D01*
X1083978Y756299D02*
X1093975D01*
X1083978Y755399D02*
X1093975D01*
X1083978Y754499D02*
X1093975D01*
X1083978Y753599D02*
X1093975D01*
X1083978Y752699D02*
X1093975D01*
X1083978Y751799D02*
X1093975D01*
X1083978Y750899D02*
X1093975D01*
X1083978Y749999D02*
X1093975D01*
X1083978Y749099D02*
X1093975D01*
X1083978Y748199D02*
X1093975D01*
X1083978Y747299D02*
X1093975D01*
X1083978Y746399D02*
X1093975D01*
X1083978Y745499D02*
X1093975D01*
X1083978Y744599D02*
X1093975D01*
X1083978Y743699D02*
X1093975D01*
X1083978Y742799D02*
X1093975D01*
X1083978Y741899D02*
X1093975D01*
X1083978Y740999D02*
X1093975D01*
X1083978Y740099D02*
X1093975D01*
X1083978Y739199D02*
X1093975D01*
X1083978Y738299D02*
X1093975D01*
X1083978Y737399D02*
X1093975D01*
X1083978Y736499D02*
X1093975D01*
X1083980Y735599D02*
X1093975D01*
X1084299Y734699D02*
X1093975D01*
X1084370Y733799D02*
X1093975D01*
X1084163Y732899D02*
X1093975D01*
X1083978Y731999D02*
X1093975D01*
X1083978Y731099D02*
X1093975D01*
X1083978Y730199D02*
X1093975D01*
X1083978Y729299D02*
X1093975D01*
X1083978Y728399D02*
X1093975D01*
X1083978Y727499D02*
X1093975D01*
X1083978Y726599D02*
X1093975D01*
X1083978Y725699D02*
X1093975D01*
X1083978Y724799D02*
X1093975D01*
X1083978Y723899D02*
X1093975D01*
X1083978Y722999D02*
X1093975D01*
X1083978Y722099D02*
X1093975D01*
X1083978Y721199D02*
X1093975D01*
X1083978Y720299D02*
X1093975D01*
X1083978Y719399D02*
X1093975D01*
X1084200Y718499D02*
X1093975D01*
X1084376Y717599D02*
X1093975D01*
X1084275Y716699D02*
X1093975D01*
X1083863Y715799D02*
X1093975D01*
X1082907Y714899D02*
X1093975D01*
X1048906Y713999D02*
X1093975D01*
X1048906Y713099D02*
X1093975D01*
X1048906Y712199D02*
X1093975D01*
X1048906Y711299D02*
X1093975D01*
X1048906Y710399D02*
X1093975D01*
X1048906Y709499D02*
X1093975D01*
X1048906Y708599D02*
X1093975D01*
X1048906Y707699D02*
X1093975D01*
X1048906Y706799D02*
X1093975D01*
X1048906Y705899D02*
X1093975D01*
X1048906Y704999D02*
X1093975D01*
X1048906Y704099D02*
X1093975D01*
X1048939Y703199D02*
X1093975D01*
X1049503Y702299D02*
X1093975D01*
X1049815Y701399D02*
X1093975D01*
X1049905Y700499D02*
X1093975D01*
X1049791Y699599D02*
X1093975D01*
X1049451Y698699D02*
X1093975D01*
X1048809Y697799D02*
X1093975D01*
X1047538Y696899D02*
X1093975D01*
X961472Y695999D02*
X1093975D01*
X961472Y695099D02*
X1093975D01*
X961472Y694199D02*
X1093975D01*
X961472Y693299D02*
X1093975D01*
X961472Y692399D02*
X1093975D01*
X961472Y691499D02*
X1093975D01*
X961472Y690599D02*
X1093975D01*
X961472Y689699D02*
X1093975D01*
X961472Y688799D02*
X1093975D01*
X961472Y687899D02*
X1093975D01*
X961472Y686999D02*
X1093975D01*
X961472Y686099D02*
X1093975D01*
X961472Y685199D02*
X1093975D01*
X961472Y684299D02*
X1093975D01*
X961472Y683399D02*
X1093975D01*
X961472Y682499D02*
X1093975D01*
X961472Y681599D02*
X1093975D01*
X961472Y680699D02*
X1093975D01*
X961472Y679799D02*
X1093975D01*
X961472Y678899D02*
X1093975D01*
X961472Y677999D02*
X1093975D01*
X961472Y677099D02*
X1093975D01*
X961472Y676199D02*
X1093975D01*
X961472Y675299D02*
X1093975D01*
X961472Y674399D02*
X1093975D01*
X961472Y673499D02*
X1093975D01*
X961472Y672599D02*
X1093975D01*
X961472Y671699D02*
X1093975D01*
X961472Y670799D02*
X1093975D01*
X961472Y669899D02*
X1093975D01*
X961472Y668999D02*
X1093975D01*
X961472Y668099D02*
X1093975D01*
X961472Y667199D02*
X1093975D01*
X961472Y666299D02*
X1093975D01*
X961472Y665399D02*
X1093975D01*
X1084611Y758099D02*
X1093973D01*
X1085750Y760799D02*
X1093789D01*
X1085238Y758999D02*
X1093654D01*
X1085596Y759899D02*
X1093582D01*
X961472Y664499D02*
X1093382D01*
X961472Y663599D02*
X1092482D01*
X1059618Y540299D02*
X1084127D01*
X1059618Y448499D02*
X1083803D01*
X1059618Y443099D02*
X1083578D01*
X1059618Y547499D02*
X1082783D01*
X1059618Y447599D02*
X1082599D01*
X1059618Y443999D02*
X1082521D01*
X1059618Y541199D02*
X1082315D01*
X1059618Y446699D02*
X1082108D01*
X1059618Y444899D02*
X1082075D01*
X1059618Y445799D02*
X1081952D01*
X1059618Y546599D02*
X1081799D01*
X1059618Y542099D02*
X1081555D01*
X1059618Y545699D02*
X1081274D01*
X1059618Y542999D02*
X1081146D01*
X1059618Y544799D02*
X1081017D01*
X1059618Y543899D02*
X1080977D01*
X1048906Y714899D02*
X1079848D01*
X1048906Y715799D02*
X1078893D01*
X978820Y755399D02*
X1078778D01*
X978820Y754499D02*
X1078778D01*
X978820Y753599D02*
X1078778D01*
X978820Y752699D02*
X1078778D01*
X978820Y751799D02*
X1078778D01*
X978820Y750899D02*
X1078778D01*
X978820Y749999D02*
X1078778D01*
X978820Y749099D02*
X1078778D01*
X978820Y748199D02*
X1078778D01*
X978820Y747299D02*
X1078778D01*
X978820Y746399D02*
X1078778D01*
X978820Y745499D02*
X1078778D01*
X978820Y744599D02*
X1078778D01*
X978820Y743699D02*
X1078778D01*
X978820Y742799D02*
X1078778D01*
X978820Y741899D02*
X1078778D01*
X978820Y740999D02*
X1078778D01*
X978820Y740099D02*
X1078778D01*
X1047631Y739199D02*
X1078778D01*
X1048849Y738299D02*
X1078778D01*
X1049473Y737399D02*
X1078778D01*
X1049801Y736499D02*
X1078778D01*
X1048906Y731999D02*
X1078778D01*
X1048906Y731099D02*
X1078778D01*
X1048906Y730199D02*
X1078778D01*
X1048906Y729299D02*
X1078778D01*
X1048906Y728399D02*
X1078778D01*
X1048906Y727499D02*
X1078778D01*
X1048906Y726599D02*
X1078778D01*
X1048906Y725699D02*
X1078778D01*
X1048906Y724799D02*
X1078778D01*
X1048906Y723899D02*
X1078778D01*
X1048906Y722999D02*
X1078778D01*
X1048906Y722099D02*
X1078778D01*
X1049090Y721199D02*
X1078778D01*
X1049605Y720299D02*
X1078778D01*
X1049857Y719399D02*
X1078778D01*
X1049906Y735599D02*
X1078776D01*
X978820Y756299D02*
X1078737D01*
X1048925Y732899D02*
X1078593D01*
X1049896Y718499D02*
X1078556D01*
X1049322Y716699D02*
X1078481D01*
X1049805Y734699D02*
X1078457D01*
X1049482Y733799D02*
X1078386D01*
X1049727Y717599D02*
X1078380D01*
X844236Y407099D02*
X1054362D01*
X1043033Y574499D02*
X1052821D01*
X844413Y407999D02*
X1052335D01*
X1043033Y573599D02*
X1051737D01*
X844504Y408899D02*
X1051471D01*
X1043033Y572699D02*
X1051122D01*
X844513Y409799D02*
X1050966D01*
X1043033Y571799D02*
X1050773D01*
X844440Y410699D02*
X1050696D01*
X1043033Y570899D02*
X1050626D01*
X1043033Y569999D02*
X1050618D01*
X1043033Y569099D02*
X1050618D01*
X1043033Y568199D02*
X1050618D01*
X1043033Y567299D02*
X1050618D01*
X1043033Y566399D02*
X1050618D01*
X1043033Y565499D02*
X1050618D01*
X1043033Y564599D02*
X1050618D01*
X1043033Y563699D02*
X1050618D01*
X1043033Y562799D02*
X1050618D01*
X1043033Y561899D02*
X1050618D01*
X1043033Y560999D02*
X1050618D01*
X1043033Y560099D02*
X1050618D01*
X1043033Y559199D02*
X1050618D01*
X1043033Y558299D02*
X1050618D01*
X1043033Y557399D02*
X1050618D01*
X1043033Y556499D02*
X1050618D01*
X1043033Y555599D02*
X1050618D01*
X1043033Y554699D02*
X1050618D01*
X1043033Y553799D02*
X1050618D01*
X1043033Y552899D02*
X1050618D01*
X1043033Y551999D02*
X1050618D01*
X1043033Y551099D02*
X1050618D01*
X1043033Y550199D02*
X1050618D01*
X1043033Y549299D02*
X1050618D01*
X1043033Y548399D02*
X1050618D01*
X1043033Y547499D02*
X1050618D01*
X1043033Y546599D02*
X1050618D01*
X1043033Y545699D02*
X1050618D01*
X1043033Y544799D02*
X1050618D01*
X1043033Y543899D02*
X1050618D01*
X1043033Y542999D02*
X1050618D01*
X1043033Y542099D02*
X1050618D01*
X1043033Y541199D02*
X1050618D01*
X1043033Y540299D02*
X1050618D01*
X1043033Y539399D02*
X1050618D01*
X1043033Y538499D02*
X1050618D01*
X1043033Y537599D02*
X1050618D01*
X1043033Y536699D02*
X1050618D01*
X1043033Y535799D02*
X1050618D01*
X1043033Y534899D02*
X1050618D01*
X1043033Y533999D02*
X1050618D01*
X1043033Y533099D02*
X1050618D01*
X1043033Y532199D02*
X1050618D01*
X1043033Y531299D02*
X1050618D01*
X1043033Y530399D02*
X1050618D01*
X1043033Y529499D02*
X1050618D01*
X1043033Y528599D02*
X1050618D01*
X1043033Y527699D02*
X1050618D01*
X1043033Y526799D02*
X1050618D01*
X1043033Y525899D02*
X1050618D01*
X1043033Y519599D02*
X1050618D01*
X1043033Y518699D02*
X1050618D01*
X1043033Y517799D02*
X1050618D01*
X1043033Y516899D02*
X1050618D01*
X1043033Y515999D02*
X1050618D01*
X1043033Y515099D02*
X1050618D01*
X1043033Y514199D02*
X1050618D01*
X1043033Y513299D02*
X1050618D01*
X1043033Y512399D02*
X1050618D01*
X1043033Y511499D02*
X1050618D01*
X1043033Y510599D02*
X1050618D01*
X1043033Y509699D02*
X1050618D01*
X1043033Y508799D02*
X1050618D01*
X1043033Y507899D02*
X1050618D01*
X1043033Y506999D02*
X1050618D01*
X1043033Y506099D02*
X1050618D01*
X1043033Y505199D02*
X1050618D01*
X1043033Y504299D02*
X1050618D01*
X1043033Y503399D02*
X1050618D01*
X1043033Y502499D02*
X1050618D01*
X1043033Y501599D02*
X1050618D01*
X1043033Y500699D02*
X1050618D01*
X1043033Y499799D02*
X1050618D01*
X1043033Y498899D02*
X1050618D01*
X1043033Y497999D02*
X1050618D01*
X1043033Y497099D02*
X1050618D01*
X1043033Y496199D02*
X1050618D01*
X1043033Y495299D02*
X1050618D01*
X1043033Y494399D02*
X1050618D01*
X1043033Y493499D02*
X1050618D01*
X1043033Y492599D02*
X1050618D01*
X1043033Y491699D02*
X1050618D01*
X1043033Y490799D02*
X1050618D01*
X1043033Y489899D02*
X1050618D01*
X1043033Y488999D02*
X1050618D01*
X1043033Y488099D02*
X1050618D01*
X1043033Y487199D02*
X1050618D01*
X1043033Y486299D02*
X1050618D01*
X1043033Y485399D02*
X1050618D01*
X1043033Y484499D02*
X1050618D01*
X1043033Y483599D02*
X1050618D01*
X1043033Y482699D02*
X1050618D01*
X1043033Y481799D02*
X1050618D01*
X1043033Y480899D02*
X1050618D01*
X1043033Y479999D02*
X1050618D01*
X1043033Y479099D02*
X1050618D01*
X1043033Y478199D02*
X1050618D01*
X1043033Y477299D02*
X1050618D01*
X1043033Y476399D02*
X1050618D01*
X1043033Y475499D02*
X1050618D01*
X1043340Y474599D02*
X1050618D01*
X1043429Y473699D02*
X1050618D01*
X1043240Y472799D02*
X1050618D01*
X1042705Y471899D02*
X1050618D01*
X1041343Y470999D02*
X1050618D01*
X968870Y470099D02*
X1050618D01*
X968870Y469199D02*
X1050618D01*
X968870Y468299D02*
X1050618D01*
X968870Y467399D02*
X1050618D01*
X968870Y466499D02*
X1050618D01*
X968870Y465599D02*
X1050618D01*
X968870Y464699D02*
X1050618D01*
X968870Y463799D02*
X1050618D01*
X968870Y462899D02*
X1050618D01*
X968870Y461999D02*
X1050618D01*
X968870Y461099D02*
X1050618D01*
X968870Y460199D02*
X1050618D01*
X968870Y459299D02*
X1050618D01*
X968870Y458399D02*
X1050618D01*
X968870Y457499D02*
X1050618D01*
X968870Y456599D02*
X1050618D01*
X968870Y455699D02*
X1050618D01*
X968870Y454799D02*
X1050618D01*
X968870Y453899D02*
X1050618D01*
X968870Y452999D02*
X1050618D01*
X968870Y452099D02*
X1050618D01*
X968870Y451199D02*
X1050618D01*
X968870Y450299D02*
X1050618D01*
X995802Y449399D02*
X1050618D01*
X997669Y448499D02*
X1050618D01*
X998437Y447599D02*
X1050618D01*
X998850Y446699D02*
X1050618D01*
X999022Y445799D02*
X1050618D01*
X998985Y444899D02*
X1050618D01*
X998732Y443999D02*
X1050618D01*
X998212Y443099D02*
X1050618D01*
X997238Y442199D02*
X1050618D01*
X814102Y441299D02*
X1050618D01*
X813367Y440399D02*
X1050618D01*
X812421Y439499D02*
X1050618D01*
X811148Y438599D02*
X1050618D01*
X809164Y437699D02*
X1050618D01*
X789102Y436799D02*
X1050618D01*
X789102Y435899D02*
X1050618D01*
X789102Y434999D02*
X1050618D01*
X789102Y434099D02*
X1050618D01*
X789102Y433199D02*
X1050618D01*
X789102Y432299D02*
X1050618D01*
X789102Y431399D02*
X1050618D01*
X789102Y430499D02*
X1050618D01*
X789102Y429599D02*
X1050618D01*
X789102Y428699D02*
X1050618D01*
X789102Y427799D02*
X1050618D01*
X789102Y426899D02*
X1050618D01*
X789102Y425999D02*
X1050618D01*
X789102Y425099D02*
X1050618D01*
X789102Y424199D02*
X1050618D01*
X789102Y423299D02*
X1050618D01*
X789102Y422399D02*
X1050618D01*
X789102Y421499D02*
X1050618D01*
X789102Y420599D02*
X1050618D01*
X789102Y419699D02*
X1050618D01*
X837818Y418799D02*
X1050618D01*
X839753Y417899D02*
X1050618D01*
X841008Y416999D02*
X1050618D01*
X841944Y416099D02*
X1050618D01*
X842672Y415199D02*
X1050618D01*
X843246Y414299D02*
X1050618D01*
X843695Y413399D02*
X1050618D01*
X844037Y412499D02*
X1050618D01*
X844283Y411599D02*
X1050618D01*
X1043033Y524999D02*
X1050612D01*
X1043033Y524099D02*
X1050602D01*
X1043033Y523199D02*
X1050592D01*
X1043033Y522299D02*
X1050438D01*
X1043033Y520499D02*
X1050429D01*
X1043033Y521399D02*
X1050343D01*
X961472Y696899D02*
X1044273D01*
X978820Y739199D02*
X1044180D01*
X961472Y697799D02*
X1043002D01*
X992920Y738299D02*
X1042962D01*
X978820Y731999D02*
X1042906D01*
X978820Y731099D02*
X1042906D01*
X978820Y730199D02*
X1042906D01*
X978820Y729299D02*
X1042906D01*
X978820Y728399D02*
X1042906D01*
X978820Y727499D02*
X1042906D01*
X978820Y726599D02*
X1042906D01*
X978820Y725699D02*
X1042906D01*
X978820Y724799D02*
X1042906D01*
X978820Y723899D02*
X1042906D01*
X978820Y722999D02*
X1042906D01*
X978820Y722099D02*
X1042906D01*
X978820Y715799D02*
X1042906D01*
X978820Y714899D02*
X1042906D01*
X978820Y713999D02*
X1042906D01*
X978820Y713099D02*
X1042906D01*
X978820Y712199D02*
X1042906D01*
X978820Y711299D02*
X1042906D01*
X978820Y710399D02*
X1042906D01*
X978807Y709499D02*
X1042906D01*
X978545Y708599D02*
X1042906D01*
X977833Y707699D02*
X1042906D01*
X976933Y706799D02*
X1042906D01*
X976033Y705899D02*
X1042906D01*
X974792Y704999D02*
X1042906D01*
X961472Y704099D02*
X1042906D01*
X993940Y732899D02*
X1042886D01*
X961472Y703199D02*
X1042872D01*
X978820Y721199D02*
X1042721D01*
X978820Y716699D02*
X1042489D01*
X961472Y698699D02*
X1042360D01*
X994510Y737399D02*
X1042338D01*
X994831Y733799D02*
X1042329D01*
X961472Y702299D02*
X1042308D01*
X978820Y720299D02*
X1042206D01*
X978820Y717599D02*
X1042084D01*
X961472Y699599D02*
X1042020D01*
X995078Y736499D02*
X1042010D01*
X995211Y734699D02*
X1042006D01*
X961472Y701399D02*
X1041996D01*
X978820Y719399D02*
X1041954D01*
X978820Y718499D02*
X1041915D01*
X961472Y700499D02*
X1041906D01*
X995285Y735599D02*
X1041906D01*
X968870Y470999D02*
X1039524D01*
X961472Y620399D02*
X1038541D01*
X968870Y471899D02*
X1038161D01*
X961472Y615899D02*
X1037943D01*
X961472Y614999D02*
X1037943D01*
X961472Y614099D02*
X1037943D01*
X961472Y613199D02*
X1037943D01*
X961472Y612299D02*
X1037943D01*
X961472Y611399D02*
X1037943D01*
X961472Y610499D02*
X1037943D01*
X961470Y609599D02*
X1037943D01*
X961377Y608699D02*
X1037943D01*
X961142Y607799D02*
X1037943D01*
X960745Y606899D02*
X1037943D01*
X960145Y605999D02*
X1037943D01*
X959247Y605099D02*
X1037943D01*
X957717Y604199D02*
X1037943D01*
X789102Y603299D02*
X1037887D01*
X961472Y616799D02*
X1037872D01*
X961472Y619499D02*
X1037856D01*
X789102Y602399D02*
X1037833D01*
X1031801Y601499D02*
X1037833D01*
X1032666Y600599D02*
X1037833D01*
X1033039Y599699D02*
X1037833D01*
X1033110Y598799D02*
X1037833D01*
X1032903Y597899D02*
X1037833D01*
X1032718Y596999D02*
X1037833D01*
X1032718Y596099D02*
X1037833D01*
X1032718Y595199D02*
X1037833D01*
X1032718Y594299D02*
X1037833D01*
X1032718Y593399D02*
X1037833D01*
X1032718Y592499D02*
X1037833D01*
X1032718Y591599D02*
X1037833D01*
X1032718Y590699D02*
X1037833D01*
X1032718Y589799D02*
X1037833D01*
X1032718Y588899D02*
X1037833D01*
X1032718Y587999D02*
X1037833D01*
X1032718Y587099D02*
X1037833D01*
X1032718Y586199D02*
X1037833D01*
X1032718Y585299D02*
X1037833D01*
X1032718Y584399D02*
X1037833D01*
X1032718Y583499D02*
X1037833D01*
X1032718Y582599D02*
X1037833D01*
X1032718Y581699D02*
X1037833D01*
X1032718Y580799D02*
X1037833D01*
X1032718Y579899D02*
X1037833D01*
X1032718Y578999D02*
X1037833D01*
X1032718Y578099D02*
X1037833D01*
X1032718Y577199D02*
X1037833D01*
X1032718Y576299D02*
X1037833D01*
X1032718Y575399D02*
X1037833D01*
X1032718Y574499D02*
X1037833D01*
X1032718Y573599D02*
X1037833D01*
X1032718Y572699D02*
X1037833D01*
X1032718Y571799D02*
X1037833D01*
X1032718Y570899D02*
X1037833D01*
X1032718Y569999D02*
X1037833D01*
X1032718Y569099D02*
X1037833D01*
X1032718Y568199D02*
X1037833D01*
X1032718Y567299D02*
X1037833D01*
X1032718Y566399D02*
X1037833D01*
X1032718Y565499D02*
X1037833D01*
X1032718Y564599D02*
X1037833D01*
X1032718Y563699D02*
X1037833D01*
X1032718Y562799D02*
X1037833D01*
X1032718Y561899D02*
X1037833D01*
X1032718Y560999D02*
X1037833D01*
X1032718Y560099D02*
X1037833D01*
X1032718Y559199D02*
X1037833D01*
X1032718Y558299D02*
X1037833D01*
X1032718Y557399D02*
X1037833D01*
X1032718Y556499D02*
X1037833D01*
X1032718Y555599D02*
X1037833D01*
X1032718Y554699D02*
X1037833D01*
X1032718Y553799D02*
X1037833D01*
X1032718Y552899D02*
X1037833D01*
X1032718Y551999D02*
X1037833D01*
X1032718Y551099D02*
X1037833D01*
X1032718Y550199D02*
X1037833D01*
X1032718Y549299D02*
X1037833D01*
X1032718Y548399D02*
X1037833D01*
X1032718Y547499D02*
X1037833D01*
X1032718Y546599D02*
X1037833D01*
X1032718Y545699D02*
X1037833D01*
X1032718Y544799D02*
X1037833D01*
X1032718Y543899D02*
X1037833D01*
X1032718Y542999D02*
X1037833D01*
X1032718Y542099D02*
X1037833D01*
X1032718Y541199D02*
X1037833D01*
X1032718Y540299D02*
X1037833D01*
X1032718Y539399D02*
X1037833D01*
X1032718Y538499D02*
X1037833D01*
X1032718Y537599D02*
X1037833D01*
X1032718Y536699D02*
X1037833D01*
X1032718Y535799D02*
X1037833D01*
X1032718Y534899D02*
X1037833D01*
X1032718Y533999D02*
X1037833D01*
X1032718Y533099D02*
X1037833D01*
X1032718Y532199D02*
X1037833D01*
X1032718Y531299D02*
X1037833D01*
X1032718Y530399D02*
X1037833D01*
X1032718Y529499D02*
X1037833D01*
X1032718Y528599D02*
X1037833D01*
X1032718Y527699D02*
X1037833D01*
X1032718Y526799D02*
X1037833D01*
X1032718Y525899D02*
X1037833D01*
X1032718Y524999D02*
X1037833D01*
X1032718Y524099D02*
X1037833D01*
X1032718Y523199D02*
X1037833D01*
X1032718Y522299D02*
X1037833D01*
X1032718Y521399D02*
X1037833D01*
X1032718Y520499D02*
X1037833D01*
X1032718Y519599D02*
X1037833D01*
X1032718Y518699D02*
X1037833D01*
X1032718Y517799D02*
X1037833D01*
X1032718Y516899D02*
X1037833D01*
X1032718Y515999D02*
X1037833D01*
X1032718Y515099D02*
X1037833D01*
X1032718Y514199D02*
X1037833D01*
X1032718Y513299D02*
X1037833D01*
X1032718Y512399D02*
X1037833D01*
X1032718Y511499D02*
X1037833D01*
X1032718Y510599D02*
X1037833D01*
X1032718Y509699D02*
X1037833D01*
X1032718Y508799D02*
X1037833D01*
X1032718Y507899D02*
X1037833D01*
X1032718Y506999D02*
X1037833D01*
X1032718Y506099D02*
X1037833D01*
X1032718Y505199D02*
X1037833D01*
X1032718Y504299D02*
X1037833D01*
X1032718Y503399D02*
X1037833D01*
X1032718Y502499D02*
X1037833D01*
X1032718Y501599D02*
X1037833D01*
X1032718Y500699D02*
X1037833D01*
X1032718Y499799D02*
X1037833D01*
X1032718Y498899D02*
X1037833D01*
X1032718Y497999D02*
X1037833D01*
X1032718Y497099D02*
X1037833D01*
X1032718Y496199D02*
X1037833D01*
X1032718Y495299D02*
X1037833D01*
X1032718Y494399D02*
X1037833D01*
X1032718Y493499D02*
X1037833D01*
X1032718Y492599D02*
X1037833D01*
X1032718Y491699D02*
X1037833D01*
X1032718Y490799D02*
X1037833D01*
X1032718Y489899D02*
X1037833D01*
X1032718Y488999D02*
X1037833D01*
X1032718Y488099D02*
X1037833D01*
X1032682Y487199D02*
X1037833D01*
X1032679Y486299D02*
X1037833D01*
X1032679Y485399D02*
X1037833D01*
X1032679Y484499D02*
X1037833D01*
X1032679Y483599D02*
X1037833D01*
X1032905Y482699D02*
X1037833D01*
X1033077Y481799D02*
X1037833D01*
X1032972Y480899D02*
X1037833D01*
X1032555Y479999D02*
X1037833D01*
X1031587Y479099D02*
X1037833D01*
X968870Y478199D02*
X1037833D01*
X968870Y477299D02*
X1037833D01*
X968870Y476399D02*
X1037833D01*
X968870Y475499D02*
X1037833D01*
X968870Y472799D02*
X1037626D01*
X961472Y617699D02*
X1037580D01*
X961472Y618599D02*
X1037575D01*
X968870Y474599D02*
X1037526D01*
X968870Y473699D02*
X1037437D01*
X978279Y773399D02*
X1033515D01*
X978728Y772499D02*
X1032356D01*
X978820Y771599D02*
X1031456D01*
X978820Y770699D02*
X1030556D01*
X978820Y769799D02*
X1029656D01*
X978820Y768899D02*
X1028756D01*
X968870Y479099D02*
X1028571D01*
X789102Y601499D02*
X1028436D01*
X978820Y767999D02*
X1027856D01*
X968870Y479999D02*
X1027602D01*
X789102Y600599D02*
X1027570D01*
X968870Y483599D02*
X1027478D01*
X968870Y482699D02*
X1027253D01*
X789102Y599699D02*
X1027197D01*
X968870Y480899D02*
X1027186D01*
X789102Y598799D02*
X1027126D01*
X968870Y481799D02*
X1027081D01*
X978820Y767099D02*
X1026956D01*
X978820Y766199D02*
X1026056D01*
X789102Y597899D02*
X1024042D01*
X968870Y484499D02*
X1023718D01*
X789102Y596999D02*
X1023121D01*
X968870Y485399D02*
X1022983D01*
X789102Y594299D02*
X1022793D01*
X789102Y596099D02*
X1022724D01*
X968870Y486299D02*
X1022674D01*
X789102Y595199D02*
X1022634D01*
X968870Y487199D02*
X1020392D01*
X789102Y593399D02*
X1020007D01*
X968870Y488099D02*
X1019270D01*
X789102Y592499D02*
X1019098D01*
X789102Y588899D02*
X1019014D01*
X789102Y587999D02*
X1019014D01*
X789102Y587099D02*
X1019014D01*
X789102Y586199D02*
X1019014D01*
X789102Y585299D02*
X1019014D01*
X836971Y584399D02*
X1019014D01*
X839322Y583499D02*
X1019014D01*
X840705Y582599D02*
X1019014D01*
X841712Y581699D02*
X1019014D01*
X842490Y580799D02*
X1019014D01*
X843103Y579899D02*
X1019014D01*
X843584Y578999D02*
X1019014D01*
X843953Y578099D02*
X1019014D01*
X844224Y577199D02*
X1019014D01*
X844406Y576299D02*
X1019014D01*
X844502Y575399D02*
X1019014D01*
X844515Y574499D02*
X1019014D01*
X844446Y573599D02*
X1019014D01*
X844293Y572699D02*
X1019014D01*
X844052Y571799D02*
X1019014D01*
X843715Y570899D02*
X1019014D01*
X843272Y569999D02*
X1019014D01*
X842706Y569099D02*
X1019014D01*
X841986Y568199D02*
X1019014D01*
X841064Y567299D02*
X1019014D01*
X839830Y566399D02*
X1019014D01*
X837953Y565499D02*
X1019014D01*
X789102Y564599D02*
X1019014D01*
X789102Y563699D02*
X1019014D01*
X789102Y562799D02*
X1019014D01*
X789102Y561899D02*
X1019014D01*
X789102Y560999D02*
X1019014D01*
X789102Y560099D02*
X1019014D01*
X789102Y559199D02*
X1019014D01*
X789102Y558299D02*
X1019014D01*
X789102Y557399D02*
X1019014D01*
X789102Y556499D02*
X1019014D01*
X789102Y555599D02*
X1019014D01*
X789102Y554699D02*
X1019014D01*
X789102Y553799D02*
X1019014D01*
X789102Y552899D02*
X1019014D01*
X808252Y551999D02*
X1019014D01*
X810702Y551099D02*
X1019014D01*
X812108Y550199D02*
X1019014D01*
X813129Y549299D02*
X1019014D01*
X813915Y548399D02*
X1019014D01*
X814535Y547499D02*
X1019014D01*
X996395Y546599D02*
X1019014D01*
X997469Y545699D02*
X1019014D01*
X997921Y544799D02*
X1019014D01*
X998048Y543899D02*
X1019014D01*
X997897Y542999D02*
X1019014D01*
X997412Y542099D02*
X1019014D01*
X996230Y541199D02*
X1019014D01*
X968870Y540299D02*
X1019014D01*
X968870Y539399D02*
X1019014D01*
X968870Y538499D02*
X1019014D01*
X968870Y537599D02*
X1019014D01*
X968870Y536699D02*
X1019014D01*
X968870Y535799D02*
X1019014D01*
X968870Y534899D02*
X1019014D01*
X968870Y533999D02*
X1019014D01*
X968870Y533099D02*
X1019014D01*
X968870Y532199D02*
X1019014D01*
X968870Y531299D02*
X1019014D01*
X968870Y530399D02*
X1019014D01*
X968870Y529499D02*
X1019014D01*
X968870Y528599D02*
X1019014D01*
X968870Y527699D02*
X1019014D01*
X968870Y526799D02*
X1019014D01*
X968870Y525899D02*
X1019014D01*
X968870Y524999D02*
X1019014D01*
X968870Y524099D02*
X1019014D01*
X968870Y523199D02*
X1019014D01*
X968870Y522299D02*
X1019014D01*
X968870Y521399D02*
X1019014D01*
X968870Y520499D02*
X1019014D01*
X968870Y519599D02*
X1019014D01*
X968870Y518699D02*
X1019014D01*
X968870Y517799D02*
X1019014D01*
X968870Y516899D02*
X1019014D01*
X968870Y515999D02*
X1019014D01*
X968870Y515099D02*
X1019014D01*
X968870Y514199D02*
X1019014D01*
X968870Y513299D02*
X1019014D01*
X968870Y512399D02*
X1019014D01*
X968870Y511499D02*
X1019014D01*
X968870Y510599D02*
X1019014D01*
X968870Y509699D02*
X1019014D01*
X968870Y508799D02*
X1019014D01*
X968870Y507899D02*
X1019014D01*
X968870Y506999D02*
X1019014D01*
X968870Y506099D02*
X1019014D01*
X968870Y505199D02*
X1019014D01*
X968870Y504299D02*
X1019014D01*
X968870Y503399D02*
X1019014D01*
X968870Y502499D02*
X1019014D01*
X968870Y501599D02*
X1019014D01*
X968870Y500699D02*
X1019014D01*
X968870Y499799D02*
X1019014D01*
X968870Y498899D02*
X1019014D01*
X968870Y497999D02*
X1019014D01*
X968870Y497099D02*
X1019014D01*
X968870Y496199D02*
X1019014D01*
X968870Y495299D02*
X1019014D01*
X968870Y494399D02*
X1019014D01*
X968870Y493499D02*
X1019014D01*
X968870Y492599D02*
X1019014D01*
X968870Y491699D02*
X1019014D01*
X789102Y589799D02*
X1018810D01*
X968870Y488999D02*
X1018799D01*
X968870Y490799D02*
X1018785D01*
X789102Y591599D02*
X1018705D01*
X968870Y489899D02*
X1018654D01*
X789102Y590699D02*
X1018619D01*
X978820Y765299D02*
X996763D01*
X978820Y757199D02*
X996146D01*
X978820Y764399D02*
X995323D01*
X978820Y758099D02*
X995034D01*
X978820Y763499D02*
X994577D01*
X978820Y758999D02*
X994407D01*
X968840Y449399D02*
X994354D01*
X978820Y762599D02*
X994142D01*
X978820Y759899D02*
X994050D01*
X968870Y541199D02*
X993927D01*
X978820Y761699D02*
X993926D01*
X978820Y760799D02*
X993896D01*
X815021Y546599D02*
X993762D01*
X814682Y442199D02*
X992919D01*
X968775Y542099D02*
X992745D01*
X815395Y545699D02*
X992688D01*
X968640Y448499D02*
X992488D01*
X968486Y542999D02*
X992260D01*
X967045Y544799D02*
X992236D01*
X967956Y543899D02*
X992109D01*
X815135Y443099D02*
X991945D01*
X978820Y738299D02*
X991725D01*
X968225Y447599D02*
X991720D01*
X815481Y443999D02*
X991425D01*
X967512Y446699D02*
X991307D01*
X815731Y444899D02*
X991172D01*
X966176Y445799D02*
X991135D01*
X978820Y732899D02*
X990704D01*
X978820Y737399D02*
X990135D01*
X961472Y640199D02*
X990048D01*
X961472Y633899D02*
X989825D01*
X978820Y733799D02*
X989814D01*
X978820Y736499D02*
X989567D01*
X978820Y734699D02*
X989434D01*
X978820Y735599D02*
X989360D01*
X961472Y639299D02*
X989131D01*
X961472Y634799D02*
X989014D01*
X961472Y638399D02*
X988637D01*
X961472Y635699D02*
X988576D01*
X961472Y637499D02*
X988404D01*
X961472Y636599D02*
X988385D01*
X969744Y725699D02*
X971140D01*
X969902Y724799D02*
X971140D01*
X970117Y723899D02*
X971140D01*
X970052Y722999D02*
X971140D01*
X969687Y722099D02*
X971140D01*
X968840Y721199D02*
X971140D01*
X961472Y720299D02*
X971140D01*
X961472Y719399D02*
X971140D01*
X961472Y718499D02*
X971140D01*
X961472Y717599D02*
X971140D01*
X961472Y716699D02*
X971140D01*
X961472Y715799D02*
X971140D01*
X961472Y714899D02*
X971140D01*
X961472Y713999D02*
X971134D01*
X961472Y648299D02*
X967282D01*
X961472Y649199D02*
X966446D01*
X961472Y650099D02*
X966087D01*
X961472Y650999D02*
X965679D01*
X961472Y721199D02*
X965412D01*
X961472Y657299D02*
X965236D01*
X789102Y760799D02*
X965202D01*
X789102Y759899D02*
X965202D01*
X789102Y758999D02*
X965202D01*
X789102Y758099D02*
X965202D01*
X789102Y757199D02*
X965202D01*
X789102Y756299D02*
X965202D01*
X789102Y755399D02*
X965202D01*
X789102Y754499D02*
X965202D01*
X789102Y753599D02*
X965202D01*
X789102Y752699D02*
X965202D01*
X789102Y751799D02*
X965202D01*
X789102Y750899D02*
X965202D01*
X789102Y749999D02*
X965202D01*
X789102Y749099D02*
X965202D01*
X789102Y748199D02*
X965202D01*
X789102Y747299D02*
X965202D01*
X789102Y746399D02*
X965202D01*
X789102Y745499D02*
X965202D01*
X789102Y744599D02*
X965202D01*
X789102Y743699D02*
X965202D01*
X807443Y742799D02*
X965202D01*
X809016Y741899D02*
X965202D01*
X810120Y740999D02*
X965202D01*
X810962Y740099D02*
X965202D01*
X811623Y739199D02*
X965202D01*
X962774Y738299D02*
X965202D01*
X961472Y704999D02*
X965028D01*
X964443Y737399D02*
X964961D01*
X961472Y656399D02*
X964801D01*
X961472Y713099D02*
X964694D01*
X789102Y761699D02*
X964624D01*
X961472Y662699D02*
X964605D01*
X961472Y722099D02*
X964565D01*
X963234Y726599D02*
X964526D01*
X962334Y725699D02*
X964526D01*
X961502Y724799D02*
X964350D01*
X961472Y651899D02*
X964219D01*
X961472Y722999D02*
X964200D01*
X961472Y705899D02*
X964198D01*
X961472Y723899D02*
X964135D01*
X961472Y658199D02*
X964021D01*
X961472Y708599D02*
X963966D01*
X961472Y655499D02*
X963920D01*
X961472Y706799D02*
X963841D01*
X961472Y712199D02*
X963807D01*
X961472Y707699D02*
X963783D01*
X961472Y661799D02*
X963724D01*
X961472Y652799D02*
X963665D01*
X961472Y709499D02*
X963544D01*
X961472Y654599D02*
X963540D01*
X961472Y659099D02*
X963468D01*
X961472Y653699D02*
X963463D01*
X961472Y711299D02*
X963424D01*
X961472Y710399D02*
X963345D01*
X961472Y660899D02*
X963343D01*
X961472Y659999D02*
X963266D01*
X815892Y445799D02*
X962564D01*
X815671Y544799D02*
X961695D01*
X815968Y446699D02*
X961228D01*
X815856Y543899D02*
X960784D01*
X815955Y542999D02*
X960254D01*
X815973Y542099D02*
X959965D01*
X815907Y541199D02*
X959870D01*
X815758Y540299D02*
X959870D01*
X815521Y539399D02*
X959870D01*
X815189Y538499D02*
X959870D01*
X814751Y537599D02*
X959870D01*
X814191Y536699D02*
X959870D01*
X813479Y535799D02*
X959870D01*
X812567Y534899D02*
X959870D01*
X811352Y533999D02*
X959870D01*
X809522Y533099D02*
X959870D01*
X789102Y532199D02*
X959870D01*
X789102Y531299D02*
X959870D01*
X789102Y530399D02*
X959870D01*
X789102Y529499D02*
X959870D01*
X789102Y528599D02*
X959870D01*
X789102Y527699D02*
X959870D01*
X789102Y526799D02*
X959870D01*
X789102Y525899D02*
X959870D01*
X789102Y524999D02*
X959870D01*
X789102Y524099D02*
X959870D01*
X789102Y523199D02*
X959870D01*
X789102Y522299D02*
X959870D01*
X789102Y521399D02*
X959870D01*
X789102Y520499D02*
X959870D01*
X789102Y519599D02*
X959870D01*
X789102Y518699D02*
X959870D01*
X789102Y517799D02*
X959870D01*
X789102Y516899D02*
X959870D01*
X789102Y515999D02*
X959870D01*
X789102Y515099D02*
X959870D01*
X789102Y514199D02*
X959870D01*
X789102Y513299D02*
X959870D01*
X789102Y512399D02*
X959870D01*
X789102Y511499D02*
X959870D01*
X789102Y510599D02*
X959870D01*
X789102Y509699D02*
X959870D01*
X789102Y508799D02*
X959870D01*
X789102Y507899D02*
X959870D01*
X789102Y506999D02*
X959870D01*
X789102Y506099D02*
X959870D01*
X789102Y505199D02*
X959870D01*
X789102Y504299D02*
X959870D01*
X789102Y503399D02*
X959870D01*
X789102Y502499D02*
X959870D01*
X789102Y501599D02*
X959870D01*
X789102Y500699D02*
X959870D01*
X789102Y499799D02*
X959870D01*
X789102Y498899D02*
X959870D01*
X789102Y497999D02*
X959870D01*
X789102Y497099D02*
X959870D01*
X789102Y496199D02*
X959870D01*
X789102Y495299D02*
X959870D01*
X789102Y494399D02*
X959870D01*
X789102Y493499D02*
X959870D01*
X789102Y492599D02*
X959870D01*
X789102Y491699D02*
X959870D01*
X789102Y490799D02*
X959870D01*
X789102Y489899D02*
X959870D01*
X789102Y488999D02*
X959870D01*
X789102Y488099D02*
X959870D01*
X789102Y487199D02*
X959870D01*
X789102Y486299D02*
X959870D01*
X789102Y485399D02*
X959870D01*
X789102Y484499D02*
X959870D01*
X789102Y483599D02*
X959870D01*
X789102Y482699D02*
X959870D01*
X789102Y481799D02*
X959870D01*
X789102Y480899D02*
X959870D01*
X789102Y479999D02*
X959870D01*
X789102Y479099D02*
X959870D01*
X789102Y478199D02*
X959870D01*
X789102Y477299D02*
X959870D01*
X789102Y476399D02*
X959870D01*
X789102Y475499D02*
X959870D01*
X789102Y474599D02*
X959870D01*
X789102Y473699D02*
X959870D01*
X789102Y472799D02*
X959870D01*
X789102Y471899D02*
X959870D01*
X789102Y470999D02*
X959870D01*
X789102Y470099D02*
X959870D01*
X789102Y469199D02*
X959870D01*
X789102Y468299D02*
X959870D01*
X789102Y467399D02*
X959870D01*
X789102Y466499D02*
X959870D01*
X789102Y465599D02*
X959870D01*
X789102Y464699D02*
X959870D01*
X789102Y463799D02*
X959870D01*
X789102Y462899D02*
X959870D01*
X789102Y461999D02*
X959870D01*
X789102Y461099D02*
X959870D01*
X789102Y460199D02*
X959870D01*
X789102Y459299D02*
X959870D01*
X789102Y458399D02*
X959870D01*
X789102Y457499D02*
X959870D01*
X808749Y456599D02*
X959870D01*
X810931Y455699D02*
X959870D01*
X812267Y454799D02*
X959870D01*
X813249Y453899D02*
X959870D01*
X814010Y452999D02*
X959870D01*
X812143Y738299D02*
X958801D01*
X812547Y737399D02*
X957137D01*
X812848Y736499D02*
X956164D01*
X813058Y735599D02*
X955264D01*
X813180Y734699D02*
X954364D01*
X813220Y733799D02*
X953464D01*
X789102Y604199D02*
X953228D01*
X813177Y732899D02*
X952564D01*
X789102Y605099D02*
X951698D01*
X813052Y731999D02*
X951664D01*
X812839Y731099D02*
X950810D01*
X789102Y605999D02*
X950800D01*
X812534Y730199D02*
X950207D01*
X789102Y606899D02*
X950200D01*
X812127Y729299D02*
X949807D01*
X789102Y607799D02*
X949803D01*
X811602Y728399D02*
X949570D01*
X789102Y608699D02*
X949568D01*
X810936Y727499D02*
X949475D01*
X789102Y609599D02*
X949475D01*
X810086Y726599D02*
X949472D01*
X808970Y725699D02*
X949472D01*
X807372Y724799D02*
X949472D01*
X789102Y723899D02*
X949472D01*
X789102Y722999D02*
X949472D01*
X789102Y722099D02*
X949472D01*
X789102Y721199D02*
X949472D01*
X789102Y720299D02*
X949472D01*
X789102Y719399D02*
X949472D01*
X789102Y718499D02*
X949472D01*
X789102Y717599D02*
X949472D01*
X789102Y716699D02*
X949472D01*
X789102Y715799D02*
X949472D01*
X789102Y714899D02*
X949472D01*
X789102Y713999D02*
X949472D01*
X789102Y713099D02*
X949472D01*
X789102Y712199D02*
X949472D01*
X789102Y711299D02*
X949472D01*
X789102Y710399D02*
X949472D01*
X789102Y709499D02*
X949472D01*
X789102Y708599D02*
X949472D01*
X789102Y707699D02*
X949472D01*
X789102Y706799D02*
X949472D01*
X789102Y705899D02*
X949472D01*
X789102Y704999D02*
X949472D01*
X789102Y704099D02*
X949472D01*
X789102Y703199D02*
X949472D01*
X789102Y702299D02*
X949472D01*
X789102Y701399D02*
X949472D01*
X789102Y700499D02*
X949472D01*
X789102Y699599D02*
X949472D01*
X789102Y698699D02*
X949472D01*
X789102Y697799D02*
X949472D01*
X789102Y696899D02*
X949472D01*
X789102Y695999D02*
X949472D01*
X789102Y695099D02*
X949472D01*
X789102Y694199D02*
X949472D01*
X789102Y693299D02*
X949472D01*
X789102Y692399D02*
X949472D01*
X789102Y691499D02*
X949472D01*
X789102Y690599D02*
X949472D01*
X789102Y689699D02*
X949472D01*
X789102Y688799D02*
X949472D01*
X789102Y687899D02*
X949472D01*
X789102Y686999D02*
X949472D01*
X789102Y686099D02*
X949472D01*
X789102Y685199D02*
X949472D01*
X789102Y684299D02*
X949472D01*
X789102Y683399D02*
X949472D01*
X789102Y682499D02*
X949472D01*
X789102Y681599D02*
X949472D01*
X789102Y680699D02*
X949472D01*
X789102Y679799D02*
X949472D01*
X789102Y678899D02*
X949472D01*
X789102Y677999D02*
X949472D01*
X789102Y677099D02*
X949472D01*
X789102Y676199D02*
X949472D01*
X789102Y675299D02*
X949472D01*
X789102Y674399D02*
X949472D01*
X789102Y673499D02*
X949472D01*
X789102Y672599D02*
X949472D01*
X789102Y671699D02*
X949472D01*
X789102Y670799D02*
X949472D01*
X789102Y669899D02*
X949472D01*
X789102Y668999D02*
X949472D01*
X789102Y668099D02*
X949472D01*
X789102Y667199D02*
X949472D01*
X789102Y666299D02*
X949472D01*
X789102Y665399D02*
X949472D01*
X789102Y664499D02*
X949472D01*
X789102Y663599D02*
X949472D01*
X789102Y662699D02*
X949472D01*
X789102Y661799D02*
X949472D01*
X789102Y660899D02*
X949472D01*
X789102Y659999D02*
X949472D01*
X789102Y659099D02*
X949472D01*
X789102Y658199D02*
X949472D01*
X789102Y657299D02*
X949472D01*
X789102Y656399D02*
X949472D01*
X789102Y655499D02*
X949472D01*
X789102Y654599D02*
X949472D01*
X789102Y653699D02*
X949472D01*
X789102Y652799D02*
X949472D01*
X789102Y651899D02*
X949472D01*
X789102Y650999D02*
X949472D01*
X789102Y650099D02*
X949472D01*
X789102Y649199D02*
X949472D01*
X804844Y648299D02*
X949472D01*
X807705Y647399D02*
X949472D01*
X809189Y646499D02*
X949472D01*
X810249Y645599D02*
X949472D01*
X811063Y644699D02*
X949472D01*
X811703Y643799D02*
X949472D01*
X812205Y642899D02*
X949472D01*
X812594Y641999D02*
X949472D01*
X812883Y641099D02*
X949472D01*
X813080Y640199D02*
X949472D01*
X813191Y639299D02*
X949472D01*
X813219Y638399D02*
X949472D01*
X813165Y637499D02*
X949472D01*
X813028Y636599D02*
X949472D01*
X812803Y635699D02*
X949472D01*
X812484Y634799D02*
X949472D01*
X812062Y633899D02*
X949472D01*
X811519Y632999D02*
X949472D01*
X810831Y632099D02*
X949472D01*
X809950Y631199D02*
X949472D01*
X808786Y630299D02*
X949472D01*
X807081Y629399D02*
X949472D01*
X789102Y628499D02*
X949472D01*
X789102Y627599D02*
X949472D01*
X789102Y626699D02*
X949472D01*
X789102Y625799D02*
X949472D01*
X789102Y624899D02*
X949472D01*
X789102Y623999D02*
X949472D01*
X789102Y623099D02*
X949472D01*
X789102Y622199D02*
X949472D01*
X789102Y621299D02*
X949472D01*
X789102Y620399D02*
X949472D01*
X789102Y619499D02*
X949472D01*
X789102Y618599D02*
X949472D01*
X789102Y617699D02*
X949472D01*
X789102Y616799D02*
X949472D01*
X789102Y615899D02*
X949472D01*
X789102Y614999D02*
X949472D01*
X789102Y614099D02*
X949472D01*
X789102Y613199D02*
X949472D01*
X789102Y612299D02*
X949472D01*
X789102Y611399D02*
X949472D01*
X789102Y610499D02*
X949472D01*
X814609Y452099D02*
X920569D01*
X815963Y447599D02*
X920284D01*
X815079Y451199D02*
X919789D01*
X815874Y448499D02*
X919663D01*
X815439Y450299D02*
X919457D01*
X815701Y449399D02*
X919419D01*
X811451Y776999D02*
X907496D01*
X807089Y762599D02*
X906898D01*
X811966Y776099D02*
X906596D01*
X808718Y763499D02*
X905607D01*
X900737Y775199D02*
X905226D01*
X809848Y764399D02*
X904707D01*
X902161Y774299D02*
X904327D01*
X903061Y773399D02*
X903914D01*
X810708Y765299D02*
X903807D01*
X811381Y766199D02*
X902907D01*
X811911Y767099D02*
X902007D01*
X812323Y767999D02*
X901107D01*
X812632Y768899D02*
X900207D01*
X812848Y769799D02*
X898207D01*
X812365Y775199D02*
X897431D01*
X812977Y770699D02*
X896799D01*
X812663Y774299D02*
X896532D01*
X813023Y771599D02*
X896255D01*
X812868Y773399D02*
X896143D01*
X812987Y772499D02*
X896060D01*
X789102Y584399D02*
X832320D01*
X805661Y399899D02*
X832134D01*
X806322Y418799D02*
X831474D01*
X789102Y565499D02*
X831338D01*
X789102Y583499D02*
X829969D01*
X807912Y400799D02*
X829883D01*
X808257Y417899D02*
X829539D01*
X789102Y566399D02*
X829462D01*
X789102Y582599D02*
X828587D01*
X809269Y401699D02*
X828527D01*
X809512Y416999D02*
X828283D01*
X789102Y567299D02*
X828228D01*
X789102Y581699D02*
X827579D01*
X810262Y402599D02*
X827534D01*
X810448Y416099D02*
X827347D01*
X789102Y568199D02*
X827305D01*
X789102Y580799D02*
X826801D01*
X811030Y403499D02*
X826765D01*
X811176Y415199D02*
X826619D01*
X789102Y569099D02*
X826586D01*
X789102Y579899D02*
X826189D01*
X811635Y404399D02*
X826160D01*
X811750Y414299D02*
X826045D01*
X789102Y569999D02*
X826019D01*
X789102Y578999D02*
X825708D01*
X812109Y405299D02*
X825686D01*
X812199Y413399D02*
X825596D01*
X789102Y570899D02*
X825576D01*
X789102Y578099D02*
X825338D01*
X812474Y406199D02*
X825322D01*
X812541Y412499D02*
X825255D01*
X789102Y571799D02*
X825240D01*
X789102Y577199D02*
X825067D01*
X812740Y407099D02*
X825055D01*
X812787Y411599D02*
X825009D01*
X789102Y572699D02*
X824998D01*
X789102Y576299D02*
X824886D01*
X812917Y407999D02*
X824879D01*
X812944Y410699D02*
X824851D01*
X789102Y573599D02*
X824845D01*
X789102Y575399D02*
X824790D01*
X813008Y408899D02*
X824787D01*
X813017Y409799D02*
X824778D01*
X789102Y574499D02*
X824776D01*
X789102Y551999D02*
X803952D01*
X789102Y456599D02*
X803455D01*
X789102Y437699D02*
X803040D01*
X789102Y533099D02*
X802682D01*
X789102Y781499D02*
X802405D01*
X789102Y648299D02*
X801848D01*
X789102Y551099D02*
X801502D01*
X789102Y455699D02*
X801273D01*
X789102Y438599D02*
X801056D01*
X789102Y533999D02*
X800852D01*
X789102Y399899D02*
X800638D01*
X789102Y550199D02*
X800096D01*
X789102Y418799D02*
X799978D01*
X789102Y454799D02*
X799937D01*
X789102Y439499D02*
X799783D01*
X789102Y534899D02*
X799637D01*
X789102Y629399D02*
X799611D01*
X789102Y724799D02*
X799320D01*
X789102Y742799D02*
X799249D01*
X789102Y762599D02*
X799210D01*
X789102Y549299D02*
X799075D01*
X789102Y647399D02*
X798987D01*
X789102Y780599D02*
X798970D01*
X789102Y453899D02*
X798955D01*
X789102Y440399D02*
X798837D01*
X789102Y535799D02*
X798725D01*
X789102Y400799D02*
X798387D01*
X789102Y548399D02*
X798289D01*
X789102Y452999D02*
X798194D01*
X789102Y441299D02*
X798102D01*
X789102Y417899D02*
X798042D01*
X789102Y536699D02*
X798013D01*
X789102Y630299D02*
X797906D01*
X789102Y725699D02*
X797722D01*
X789102Y741899D02*
X797677D01*
X789102Y547499D02*
X797670D01*
X789102Y452099D02*
X797595D01*
X789102Y763499D02*
X797581D01*
X789102Y442199D02*
X797522D01*
X789102Y646499D02*
X797503D01*
X789102Y537599D02*
X797453D01*
X789102Y779699D02*
X797426D01*
X789102Y546599D02*
X797183D01*
X789102Y451199D02*
X797125D01*
X789102Y443099D02*
X797069D01*
X789102Y401699D02*
X797030D01*
X789102Y538499D02*
X797015D01*
X789102Y545699D02*
X796809D01*
X789102Y416999D02*
X796787D01*
X789102Y450299D02*
X796765D01*
X789102Y631199D02*
X796742D01*
X789102Y443999D02*
X796723D01*
X789102Y539399D02*
X796683D01*
X789102Y726599D02*
X796606D01*
X789102Y740999D02*
X796572D01*
X789102Y544799D02*
X796534D01*
X789102Y449399D02*
X796503D01*
X789102Y444899D02*
X796473D01*
X789102Y764399D02*
X796451D01*
X789102Y540299D02*
X796446D01*
X789102Y645599D02*
X796443D01*
X789102Y543899D02*
X796348D01*
X789102Y778799D02*
X796336D01*
X789102Y448499D02*
X796330D01*
X789102Y445799D02*
X796312D01*
X789102Y541199D02*
X796297D01*
X789102Y542999D02*
X796249D01*
X789102Y447599D02*
X796241D01*
X789102Y446699D02*
X796236D01*
X789102Y542099D02*
X796232D01*
X789102Y402599D02*
X796037D01*
X789102Y632099D02*
X795861D01*
X789102Y416099D02*
X795851D01*
X789102Y727499D02*
X795756D01*
X789102Y740099D02*
X795730D01*
X789102Y644699D02*
X795629D01*
X789102Y765299D02*
X795592D01*
X789102Y777899D02*
X795502D01*
X789102Y403499D02*
X795269D01*
X789102Y632999D02*
X795173D01*
X789102Y415199D02*
X795123D01*
X789102Y728399D02*
X795090D01*
X789102Y739199D02*
X795069D01*
X789102Y643799D02*
X794989D01*
X789102Y766199D02*
X794919D01*
X789102Y776999D02*
X794848D01*
X789102Y404399D02*
X794664D01*
X789102Y633899D02*
X794630D01*
X789102Y729299D02*
X794565D01*
X789102Y414299D02*
X794549D01*
X789102Y738299D02*
X794549D01*
X789102Y642899D02*
X794487D01*
X789102Y767099D02*
X794389D01*
X789102Y776099D02*
X794333D01*
X789102Y634799D02*
X794208D01*
X789102Y405299D02*
X794190D01*
X789102Y730199D02*
X794158D01*
X789102Y737399D02*
X794145D01*
X789102Y413399D02*
X794100D01*
X789102Y641999D02*
X794098D01*
X789102Y767999D02*
X793977D01*
X789102Y775199D02*
X793934D01*
X789102Y635699D02*
X793889D01*
X789102Y731099D02*
X793853D01*
X789102Y736499D02*
X793844D01*
X789102Y406199D02*
X793826D01*
X789102Y641099D02*
X793810D01*
X789102Y412499D02*
X793759D01*
X789102Y768899D02*
X793667D01*
X789102Y636599D02*
X793665D01*
X789102Y731999D02*
X793640D01*
X789102Y774299D02*
X793637D01*
X789102Y735599D02*
X793635D01*
X789102Y640199D02*
X793613D01*
X789102Y407099D02*
X793559D01*
X789102Y637499D02*
X793527D01*
X789102Y732899D02*
X793515D01*
X789102Y411599D02*
X793513D01*
X789102Y734699D02*
X793512D01*
X789102Y639299D02*
X793501D01*
X789102Y638399D02*
X793473D01*
X789102Y733799D02*
X793472D01*
X789102Y769799D02*
X793451D01*
X789102Y773399D02*
X793431D01*
X789102Y407999D02*
X793383D01*
X789102Y410699D02*
X793355D01*
X789102Y770699D02*
X793322D01*
X789102Y772499D02*
X793312D01*
X789102Y408899D02*
X793291D01*
X789102Y409799D02*
X793282D01*
X789102Y771599D02*
X793276D01*
X1267418Y709032D02*
X1281099D01*
X1268318Y709932D02*
X1280651D01*
X1266497Y708132D02*
X1280349D01*
X1256465Y707232D02*
X1279449D01*
X1257365Y706332D02*
X1278549D01*
X1258265Y705432D02*
X1277649D01*
X1255565Y708132D02*
X1260242D01*
X1254665Y709032D02*
X1259321D01*
X1254205Y709932D02*
X1258421D01*
X1253371Y710832D02*
X1257521D01*
X1244159Y711732D02*
X1256711D01*
X1244195Y712632D02*
X1256340D01*
X1243992Y713532D02*
X1255886D01*
X1242992Y715332D02*
X1255826D01*
X1243499Y714432D02*
X1255752D01*
X1226462Y696432D02*
X1253011D01*
X1227172Y697332D02*
X1251861D01*
X1228072Y698232D02*
X1250961D01*
X1228972Y699132D02*
X1250061D01*
X1243877Y710832D02*
X1249897D01*
X1243268Y709932D02*
X1249063D01*
X1242371Y709032D02*
X1248704D01*
X1241411Y708132D02*
X1248640D01*
X1237072Y707232D02*
X1247467D01*
X1236172Y706332D02*
X1246692D01*
X1235272Y705432D02*
X1246317D01*
X1234372Y704532D02*
X1244457D01*
X1229872Y700032D02*
X1244425D01*
X1233472Y703632D02*
X1243753D01*
X1230772Y700932D02*
X1243739D01*
X1232572Y702732D02*
X1243461D01*
X1231672Y701832D02*
X1243457D01*
X787402Y787402D02*
X1377953D01*
Y393701*
X787402*
Y787402*
G54D64*
X1055118Y411535D03*
X964370Y449921D03*
X964567Y497244D03*
X964370Y541181D03*
X1054843Y521378D03*
X1055118Y570630D03*
X1125669Y570591D03*
X1187520D03*
X1221299Y646181D03*
X1045906Y700551D03*
X1211339Y699134D03*
X1045906Y735591D03*
Y718780D03*
X998386Y761102D03*
X1178543D03*
G54D66*
X1331811Y415906D02*
X1333811D01*
X1328268Y419449D02*
Y421449D01*
Y412362D02*
Y410362D01*
X1324724Y415906D02*
X1322724D01*
X1364724Y655157D02*
X1366724D01*
X1358819D02*
X1356819D01*
G54D67*
X1055236Y468189D03*
X1125669Y448504D03*
Y492598D03*
X1125748Y539843D03*
X955472Y609764D03*
X955315Y641339D03*
X955394Y693189D03*
X960787Y732638D03*
G74*
X0Y0D02*
M02*
