M48
;FILE_FORMAT=2:4
INCH,LZ
FMAT,2
ICI,OFF
;TYPE=PLATED
T1C.012
T2C.025
T3C.03
T5C.03543
T7C.04724
T9C.07874
T10C.08661
;TYPE=NON_PLATED
T4C.03543
T6C.0374
T8C.05709
%
M72
G90
G93X0Y0
T1C.012F0S0
X07906Y03969
X07906Y04169
X07906Y04069
X08006Y03969
X08106Y03969
X08206Y04169
X08206Y04069
X08206Y03969
X08306Y03969
X08406Y03969
X08506Y03969
X08506Y04169
X08506Y04069
X08606Y03969
X08606Y04169
X08606Y04069
X08706Y03969
X08706Y04169
X08706Y04069
X08806Y03969
X08806Y04169
X08806Y04069
X08906Y03969
X08906Y04169
X08906Y04069
X09006Y03969
X09006Y04169
X09006Y04069
X09106Y03969
X09106Y04169
X09106Y04069
X09206Y03969
X09206Y04069
X09306Y03969
X09306Y04169
X09306Y04069
X09406Y03969
X09406Y04169
X09406Y04069
X09506Y03969
X09506Y04169
X09506Y04069
X09606Y03969
X09606Y04169
X09606Y04069
X09706Y03969
X09706Y04169
X09706Y04069
X09806Y03969
X09806Y04169
X09806Y04069
X09906Y03969
X09906Y04169
X09906Y04069
X10006Y03969
X10006Y04169
X10006Y04069
X10106Y03969
X10106Y04169
X10106Y04069
X10206Y03969
X10206Y04169
X10206Y04069
X10306Y03969
X10306Y04169
X10306Y04069
X10406Y03969
X10406Y04169
X10406Y04069
X10506Y03969
X10506Y04069
X10606Y04069
X10606Y03969
X10706Y03969
X10706Y04169
X10706Y04069
X10806Y03969
X10806Y04169
X10806Y04069
X10906Y03969
X10906Y04169
X10906Y04069
X11006Y03969
X11006Y04169
X11006Y04069
X11106Y03969
X11106Y04169
X11106Y04069
X11206Y03969
X11206Y04169
X11206Y04069
X11306Y04169
X11306Y04069
X11306Y03969
X11406Y03969
X11406Y04169
X11406Y04069
X11506Y03969
X11506Y04169
X11506Y04069
X11606Y03969
X11606Y04169
X11606Y04069
X11706Y03969
X11706Y04169
X11706Y04069
X11806Y03969
X11806Y04169
X11806Y04069
X11906Y03969
X11906Y04169
X11906Y04069
X12006Y04169
X12006Y04069
X12006Y03969
X12106Y03969
X12206Y03969
X12306Y03969
X12306Y04169
X12306Y04069
X12406Y03969
X12406Y04169
X12406Y04069
X12506Y03969
X12506Y04169
X12506Y04069
X12606Y04169
X12606Y04069
X12606Y03969
X12706Y03969
X12706Y04169
X12706Y04069
X12806Y03969
X12806Y04169
X12806Y04069
X12906Y03969
X12906Y04169
X12906Y04069
X13006Y04069
X13006Y03969
X13106Y03969
X13106Y04069
X13206Y03969
X13206Y04169
X13206Y04069
X13306Y04069
X13306Y03969
X13406Y04169
X13406Y04069
X13406Y03969
X13506Y03969
X13506Y04169
X13506Y04069
X13606Y03969
X13706Y03969
X13706Y04369
X13706Y04269
X13606Y04369
X13606Y04269
X13506Y04369
X13506Y04269
X13406Y04369
X13406Y04269
X13306Y04369
X13306Y04269
X13206Y04369
X13206Y04269
X12906Y04369
X12906Y04269
X12806Y04369
X12806Y04269
X12706Y04269
X12606Y04369
X12606Y04269
X12506Y04369
X12506Y04269
X12406Y04369
X12406Y04269
X12306Y04369
X12306Y04269
X12206Y04369
X12206Y04269
X12106Y04369
X12106Y04269
X12006Y04369
X12006Y04269
X11906Y04369
X11906Y04269
X11806Y04369
X11806Y04269
X11706Y04369
X11706Y04269
X11606Y04369
X11606Y04269
X11506Y04269
X11506Y04369
X11406Y04369
X11406Y04269
X11306Y04369
X11306Y04269
X11206Y04369
X11206Y04269
X11106Y04369
X11106Y04269
X11006Y04369
X11006Y04269
X10806Y04369
X10806Y04269
X10706Y04269
X10406Y04369
X10406Y04269
X10306Y04369
X10306Y04269
X10206Y04269
X10206Y04369
X10106Y04269
X10006Y04269
X10006Y04369
X09906Y04369
X09906Y04269
X09806Y04269
X09806Y04369
X09706Y04369
X09706Y04269
X09606Y04269
X09606Y04369
X09506Y04369
X09506Y04269
X09406Y04369
X09406Y04269
X09306Y04369
X09306Y04269
X09106Y04369
X09106Y04269
X09006Y04269
X09006Y04369
X08906Y04369
X08906Y04269
X08806Y04369
X08806Y04269
X08706Y04269
X08706Y04369
X08606Y04369
X08606Y04269
X08506Y04269
X08506Y04369
X08406Y04369
X08406Y04269
X08306Y04369
X08306Y04269
X08206Y04269
X08206Y04369
X08106Y04269
X08006Y04269
X08006Y04369
X07906Y04269
X07906Y04369
X07906Y04669
X07906Y04569
X07906Y04469
X08006Y04669
X08106Y04669
X08206Y04669
X08206Y04569
X08206Y04469
X08306Y04669
X08306Y04569
X08306Y04469
X08406Y04669
X08406Y04569
X08406Y04469
X08506Y04669
X08506Y04569
X08506Y04469
X08606Y04669
X08606Y04569
X08606Y04469
X08706Y04669
X08706Y04569
X08706Y04469
X08806Y04669
X08806Y04569
X08806Y04469
X08906Y04669
X08906Y04569
X08906Y04469
X09006Y04669
X09006Y04569
X09006Y04469
X09106Y04669
X09106Y04569
X09106Y04469
X09206Y04669
X09206Y04569
X09224Y044972
X09306Y04669
X09306Y04569
X09406Y04669
X09406Y04569
X09506Y04669
X09506Y04569
X09706Y04569
X09706Y04469
X09706Y04669
X09806Y04469
X09906Y04569
X10006Y04669
X10006Y04569
X10006Y04469
X10106Y04469
X10206Y04469
X10206Y04569
X10206Y04669
X10306Y04669
X10306Y04569
X10306Y04469
X10406Y04669
X10406Y04569
X10406Y04469
X10706Y04469
X10806Y04669
X10806Y04569
X10806Y04469
X10906Y04669
X11106Y04669
X11106Y04569
X11206Y04669
X11206Y04569
X11306Y04569
X11306Y04669
X11406Y04469
X11406Y04669
X11406Y04569
X11506Y04669
X11506Y04569
X11506Y04469
X11606Y04669
X11606Y04569
X11606Y04469
X11706Y04669
X11706Y04569
X11706Y04469
X11806Y04669
X11806Y04569
X11806Y04469
X11906Y04669
X11906Y04569
X11906Y04469
X12006Y04669
X12006Y04569
X12006Y04469
X12106Y04669
X12106Y04569
X12106Y04469
X12206Y04669
X12206Y04569
X12206Y04469
X12306Y04669
X12306Y04569
X12306Y04469
X12406Y04669
X12406Y04569
X12406Y04469
X12506Y04669
X12506Y04569
X12506Y04469
X12606Y04669
X12606Y04569
X12606Y04469
X12706Y04669
X12806Y04669
X12806Y04569
X12906Y04669
X12906Y04569
X12906Y04469
X13006Y04569
X13006Y04469
X13006Y04669
X13206Y04669
X13206Y04569
X13206Y04469
X13306Y04669
X13306Y04569
X13306Y04469
X13406Y04669
X13406Y04569
X13406Y04469
X13506Y04669
X13506Y04569
X13506Y04469
X13606Y04669
X13606Y04569
X13606Y04469
X13706Y04669
X13706Y04569
X13706Y04469
X13706Y04769
X13706Y04869
X13606Y04769
X13606Y04869
X13506Y04769
X13506Y04869
X13406Y04769
X13406Y04869
X13306Y04769
X13306Y04869
X13206Y04769
X13206Y04869
X13006Y04869
X13006Y04769
X12906Y04769
X12906Y04869
X12806Y04769
X12806Y04869
X12706Y04769
X12706Y04869
X12606Y04769
X12606Y04869
X12506Y04769
X12506Y04869
X12406Y04869
X12406Y04769
X12306Y04869
X12306Y04769
X12206Y04769
X12206Y04869
X12106Y04869
X12106Y04769
X12006Y04869
X12006Y04769
X11906Y04769
X11906Y04869
X11806Y04769
X11806Y04869
X11706Y04769
X11706Y04869
X11606Y04869
X11606Y04769
X11506Y04869
X11506Y04769
X11406Y04869
X11406Y04769
X11306Y04769
X11206Y04769
X11106Y04869
X11106Y04769
X10906Y04869
X10906Y04769
X10806Y04869
X10806Y04769
X104043Y047386
X103008Y048169
X102563Y048681
X102165Y048992
X10006Y04869
X09906Y04869
X09806Y04769
X09706Y04869
X09706Y04769
X09506Y04869
X09506Y04769
X09406Y04869
X09406Y04769
X09306Y04769
X09306Y04869
X09206Y04769
X09206Y04869
X09106Y04769
X09106Y04869
X09006Y04869
X09006Y04769
X08906Y04869
X08906Y04769
X08806Y04869
X08806Y04769
X08706Y04769
X08706Y04869
X08606Y04869
X08606Y04769
X08506Y04769
X08506Y04869
X08406Y04869
X08406Y04769
X08306Y04869
X08306Y04769
X08206Y04869
X08206Y04769
X08106Y04769
X08106Y04869
X08006Y04869
X08006Y04769
X07906Y04869
X07906Y04769
X07906Y05169
X07906Y05069
X07906Y04969
X08006Y05169
X08006Y05069
X08006Y04969
X08106Y05169
X08106Y05069
X08106Y04969
X08206Y05169
X08206Y05069
X08206Y04969
X08306Y05169
X08306Y05069
X08306Y04969
X08406Y05169
X08406Y05069
X08406Y04969
X08506Y05169
X08506Y05069
X08506Y04969
X08606Y05069
X08606Y04969
X08606Y05169
X08706Y05169
X08706Y05069
X08706Y04969
X08806Y05169
X08806Y05069
X08806Y04969
X08906Y05169
X08906Y05069
X08906Y04969
X09006Y05169
X09006Y05069
X09006Y04969
X09106Y05069
X09106Y04969
X09106Y05169
X09206Y05069
X09206Y05169
X09206Y04969
X09306Y05169
X09306Y05069
X09306Y04969
X09406Y05069
X09406Y04969
X09406Y05169
X09506Y05169
X09506Y05069
X09506Y04969
X09706Y05069
X09706Y05169
X09906Y05169
X09906Y05069
X09906Y04969
X10006Y05069
X10006Y04969
X10006Y05169
X10706Y05169
X10806Y05169
X10906Y05069
X10906Y04969
X11006Y05069
X11106Y05069
X11106Y05169
X11106Y04969
X11406Y05069
X11406Y04969
X11406Y05169
X11506Y05069
X11506Y04969
X11506Y05169
X11606Y05169
X11606Y05069
X11606Y04969
X11706Y05069
X11706Y04969
X11706Y05169
X11806Y05169
X11806Y05069
X11806Y04969
X11906Y05169
X11906Y05069
X11906Y04969
X12006Y05169
X12006Y05069
X12006Y04969
X12106Y05169
X12106Y05069
X12106Y04969
X12206Y05069
X12206Y05169
X12206Y04969
X12306Y04969
X12306Y05169
X12306Y05069
X12406Y05169
X12406Y05069
X12406Y04969
X12506Y04969
X12506Y05169
X12506Y05069
X12606Y04969
X12606Y05169
X12606Y05069
X12706Y05169
X12706Y05069
X12706Y04969
X12806Y04969
X12806Y05169
X12806Y05069
X12906Y05169
X12906Y05069
X12906Y04969
X13006Y05069
X13006Y04969
X13006Y05169
X13206Y05169
X13206Y05069
X13206Y04969
X13306Y04969
X13306Y05169
X13306Y05069
X13406Y05169
X13406Y05069
X13406Y04969
X13506Y05169
X13506Y05069
X13506Y04969
X13606Y04969
X13606Y05169
X13606Y05069
X13706Y05069
X13706Y05169
X13706Y04969
X13706Y05369
X13706Y05269
X13606Y05369
X13606Y05269
X13506Y05369
X13506Y05269
X13406Y05369
X13406Y05269
X13306Y05369
X13306Y05269
X13206Y05369
X13206Y05269
X13006Y05369
X13006Y05269
X12906Y05369
X12906Y05269
X12806Y05269
X12706Y05269
X12606Y05369
X12606Y05269
X12506Y05369
X12506Y05269
X12406Y05369
X12406Y05269
X12306Y05369
X12306Y05269
X12206Y05369
X12206Y05269
X12106Y05369
X12106Y05269
X12006Y05369
X12006Y05269
X11906Y05369
X11906Y05269
X11806Y05369
X11806Y05269
X11706Y05369
X11706Y05269
X11606Y05369
X11606Y05269
X11506Y05369
X11506Y05269
X11406Y05269
X11406Y05369
X11259Y05349
X11106Y05269
X11106Y05369
X10906Y05369
X10906Y05269
X10806Y05369
X10806Y05269
X10006Y05269
X10006Y05369
X09906Y05369
X09906Y05269
X09706Y05369
X09506Y05369
X09506Y05269
X09406Y05369
X09406Y05269
X09306Y05369
X09306Y05269
X09206Y05269
X09206Y05369
X09106Y05369
X09106Y05269
X09006Y05369
X09006Y05269
X08906Y05369
X08906Y05269
X08806Y05369
X08806Y05269
X08706Y05369
X08706Y05269
X08606Y05369
X08606Y05269
X08506Y05369
X08506Y05269
X08406Y05369
X08406Y05269
X08306Y05369
X08306Y05269
X08206Y05369
X08206Y05269
X08106Y05269
X08006Y05269
X07906Y05369
X07906Y05269
X07906Y05569
X07906Y05469
X07906Y05669
X08006Y05569
X08006Y05669
X08106Y05569
X08106Y05669
X08206Y05569
X08206Y05469
X08206Y05669
X08306Y05569
X08306Y05469
X08406Y05569
X08406Y05469
X08506Y05569
X08506Y05469
X08506Y05669
X08606Y05569
X08606Y05469
X08606Y05669
X08706Y05569
X08706Y05469
X08706Y05669
X08806Y05569
X08806Y05469
X08806Y05669
X08906Y05569
X08906Y05469
X08906Y05669
X09006Y05569
X09006Y05469
X09006Y05669
X09106Y05469
X09106Y05569
X09106Y05669
X09206Y05569
X09206Y05469
X09206Y05669
X09306Y05569
X09306Y05469
X09306Y05669
X09406Y05569
X09406Y05469
X09406Y05669
X09506Y05569
X09506Y05469
X09506Y05669
X09606Y05669
X09706Y05469
X09706Y05569
X09806Y05569
X09806Y05469
X09906Y05569
X09906Y05469
X10006Y05569
X10006Y05469
X10106Y05569
X10706Y05569
X10806Y05569
X10906Y05569
X10906Y05469
X11006Y05569
X11006Y05469
X11106Y05469
X11106Y05569
X11406Y05569
X11406Y05469
X11506Y05569
X11506Y05469
X11606Y05569
X11606Y05469
X11706Y05569
X11706Y05469
X11806Y05569
X11806Y05469
X11906Y05469
X11906Y05569
X12006Y05569
X12006Y05469
X12006Y05669
X12106Y05469
X12106Y05569
X12206Y05569
X12206Y05469
X12306Y05569
X12306Y05469
X12306Y05669
X12406Y05469
X12406Y05569
X12406Y05669
X12506Y05569
X12506Y05469
X12506Y05669
X12606Y05569
X12606Y05669
X12606Y05469
X12706Y05569
X12706Y05669
X12806Y05569
X12806Y05669
X12906Y05469
X12906Y05569
X12906Y05669
X13006Y05469
X13006Y05669
X13006Y05569
X13206Y05569
X13206Y05469
X13206Y05669
X13306Y05469
X13306Y05569
X13306Y05669
X13406Y05569
X13406Y05669
X13506Y05469
X13506Y05569
X13506Y05669
X13606Y05569
X13606Y05669
X13706Y05669
X13706Y05569
X13706Y05469
X13706Y05869
X13706Y05769
X13506Y05869
X13506Y05769
X13306Y05869
X13306Y05769
X13206Y05869
X13206Y05769
X13006Y05769
X129857Y059565
X12906Y05869
X12906Y05769
X12806Y05869
X12806Y05769
X12706Y05869
X12706Y05769
X12606Y05869
X12606Y05769
X12506Y05869
X12506Y05769
X12406Y05869
X12406Y05769
X12306Y05869
X12306Y05769
X12206Y05869
X12106Y05869
X11906Y05869
X11806Y05869
X11806Y05769
X1175Y059087
X117178Y059547
X11706Y05869
X11706Y05769
X11606Y05869
X11606Y05769
X11506Y05869
X11506Y05769
X11406Y05869
X11406Y05769
X11306Y05869
X11306Y05769
X11206Y05869
X11206Y05769
X11106Y05869
X11106Y05769
X11006Y05869
X11006Y05769
X10906Y05869
X10906Y05769
X10806Y05869
X10806Y05769
X10706Y05869
X10706Y05769
X10606Y05869
X10606Y05769
X10506Y05869
X10506Y05769
X102563Y059535
X102161Y059087
X10106Y05769
X10106Y05869
X10006Y05869
X10006Y05769
X09906Y05869
X09906Y05769
X09806Y05869
X09806Y05769
X09706Y05869
X09706Y05769
X09606Y05869
X09606Y05769
X09506Y05869
X09506Y05769
X09406Y05869
X09406Y05769
X09306Y05869
X09306Y05769
X09206Y05769
X09206Y05869
X09106Y05769
X09106Y05869
X09006Y05869
X09006Y05769
X08906Y05869
X08906Y05769
X08806Y05869
X08806Y05769
X08706Y05869
X08706Y05769
X08606Y05769
X08606Y05869
X08506Y05769
X08506Y05869
X08406Y05869
X08306Y05869
X08206Y05869
X08206Y05769
X08106Y05769
X08106Y05869
X08006Y05869
X08006Y05769
X07906Y05869
X07906Y05769
X07906Y05969
X07906Y06169
X07906Y06069
X08006Y05969
X08006Y06169
X08006Y06069
X08106Y05969
X08106Y06169
X08106Y06069
X08206Y05969
X08206Y06169
X08206Y06069
X08306Y05969
X08306Y06169
X08306Y06069
X08406Y06169
X08406Y06069
X08406Y05969
X08506Y05969
X08506Y06169
X08506Y06069
X08606Y05969
X08606Y06169
X08606Y06069
X08706Y05969
X08706Y06169
X08706Y06069
X08806Y05969
X08806Y06169
X08806Y06069
X08906Y05969
X08906Y06169
X08906Y06069
X09006Y06169
X09006Y06069
X09006Y05969
X09106Y05969
X09106Y06169
X09106Y06069
X09206Y05969
X09206Y06169
X09206Y06069
X09306Y05969
X09306Y06169
X09306Y06069
X09406Y06169
X09406Y06069
X09406Y05969
X09506Y05969
X09606Y05969
X09706Y05969
X09706Y06169
X09806Y05969
X09806Y06169
X09906Y05969
X09906Y06169
X10006Y05969
X10006Y06169
X10106Y05969
X10106Y06169
X10206Y06169
X10206Y05969
X103012Y059902
X10306Y06169
X104054Y061817
X11611Y061792
X117972Y059902
X11906Y05969
X11906Y06169
X12106Y06169
X12206Y06169
X12206Y06069
X12306Y06169
X12306Y06069
X12406Y06069
X12606Y05969
X12606Y06169
X12706Y05969
X12706Y06169
X12806Y05969
X12806Y06169
X12906Y06169
X13006Y06169
X13006Y06069
X13106Y06169
X13106Y06069
X132017Y061291
X13306Y06069
X13406Y05969
X134178Y060909
X13506Y05969
X13506Y06069
X13606Y06069
X13706Y06069
X13706Y06169
X13706Y05969
X13706Y06369
X13706Y06269
X134631Y062699
X13106Y06369
X13106Y06269
X13006Y06369
X13006Y06269
X12906Y06369
X12906Y06269
X12806Y06369
X12806Y06269
X12706Y06269
X12606Y06269
X12506Y06369
X12306Y06369
X12206Y06269
X12006Y06369
X11906Y06369
X11906Y06269
X117972Y062315
X117865Y063264
X1175Y062795
X117173Y063264
X11506Y06369
X11406Y06369
X11306Y06369
X11206Y06369
X10906Y06369
X10906Y06269
X10806Y06269
X10806Y06369
X10706Y06369
X10706Y06269
X10606Y06369
X10606Y06269
X10506Y06369
X10506Y06269
X10406Y06369
X10406Y06269
X10306Y06369
X10306Y06269
X10206Y06369
X10206Y06269
X10106Y06369
X10006Y06369
X10006Y06269
X09906Y06269
X09806Y06369
X09806Y06269
X09706Y06369
X09706Y06269
X09406Y06269
X09406Y06369
X09306Y06369
X09306Y06269
X09206Y06369
X09206Y06269
X09106Y06369
X09106Y06269
X09006Y06369
X09006Y06269
X08906Y06369
X08906Y06269
X08806Y06369
X08806Y06269
X08706Y06269
X08706Y06369
X08606Y06369
X08606Y06269
X08506Y06369
X08506Y06269
X08406Y06369
X08406Y06269
X08306Y06369
X08306Y06269
X08206Y06269
X08206Y06369
X08106Y06269
X08006Y06269
X07906Y06369
X07906Y06269
X07906Y06669
X07906Y06569
X07906Y06469
X08006Y06669
X08006Y06569
X08106Y06669
X08106Y06569
X08206Y06669
X08206Y06569
X08206Y06469
X08306Y06669
X08306Y06569
X08306Y06469
X08406Y06669
X08406Y06569
X08406Y06469
X08506Y06669
X08506Y06569
X08506Y06469
X08606Y06669
X08606Y06569
X08606Y06469
X08706Y06669
X08706Y06569
X08706Y06469
X08806Y06669
X08806Y06569
X08806Y06469
X08906Y06669
X08906Y06569
X08906Y06469
X09006Y06669
X09006Y06569
X09006Y06469
X09106Y06669
X09106Y06569
X09106Y06469
X09206Y06669
X09206Y06569
X09206Y06469
X09306Y06669
X09306Y06569
X09306Y06469
X09406Y06669
X09406Y06569
X09406Y06469
X096626Y06602
X096646Y06539
X09687Y065705
X096902Y065075
X09706Y06669
X09806Y06669
X09906Y06669
X10406Y06669
X10506Y06669
X10606Y06669
X10706Y06669
X10806Y06669
X10906Y06669
X11206Y06669
X11306Y06669
X11306Y06469
X11406Y06569
X11406Y06469
X11406Y06669
X11506Y06669
X11506Y06569
X11506Y06469
X11606Y06469
X11606Y06669
X11906Y06669
X11906Y06569
X11906Y06469
X12006Y06569
X12006Y06469
X12106Y06469
X12106Y06669
X121917Y067126
X12206Y06569
X122249Y06676
X122513Y066382
X12306Y06569
X12406Y06569
X12506Y06569
X12606Y06469
X12606Y06569
X12706Y06569
X12706Y06469
X12806Y06569
X12806Y06469
X12906Y06569
X12906Y06469
X13006Y06569
X13006Y06469
X13106Y06569
X13106Y06469
X13201Y064885
X13306Y06469
X133504Y067126
X13406Y06469
X134435Y065809
X13506Y06669
X13506Y06569
X13706Y06469
X13706Y06669
X13706Y06569
X13706Y06769
X13706Y06869
X13506Y06769
X13506Y06869
X13406Y06769
X13406Y06869
X13306Y06769
X13306Y06869
X13106Y06769
X13106Y06869
X13006Y06769
X13006Y06869
X12906Y06769
X12906Y06869
X12806Y06769
X12806Y06869
X12706Y06769
X12706Y06869
X12606Y06869
X12606Y06769
X12506Y06769
X12506Y06869
X12406Y06769
X12406Y06869
X122731Y069293
X12106Y06769
X12106Y06869
X11906Y06769
X11906Y06869
X11606Y06869
X11606Y06769
X11506Y06869
X11506Y06769
X11406Y06769
X11406Y06869
X11306Y06869
X11306Y06769
X11206Y06869
X11206Y06769
X10906Y06869
X10906Y06769
X10806Y06769
X107984Y068827
X10706Y06869
X10606Y06869
X10506Y06869
X10506Y06769
X10206Y06869
X10006Y06869
X09806Y06769
X09706Y06769
X09406Y06869
X09406Y06769
X09306Y06869
X09306Y06769
X09206Y06769
X09206Y06869
X09106Y06869
X09106Y06769
X09006Y06869
X09006Y06769
X08906Y06769
X08906Y06869
X08806Y06769
X08806Y06869
X08706Y06769
X08706Y06869
X08606Y06769
X08606Y06869
X08506Y06769
X08506Y06869
X08406Y06869
X08406Y06769
X08306Y06769
X08306Y06869
X08206Y06769
X08206Y06869
X08106Y06869
X08106Y06769
X08006Y06769
X08006Y06869
X07906Y06869
X07906Y06769
X07906Y07169
X07906Y07069
X07906Y06969
X08006Y06969
X08006Y07169
X08006Y07069
X08106Y07169
X08106Y07069
X08106Y06969
X08206Y07169
X08206Y07069
X08206Y06969
X08306Y07169
X08306Y07069
X08306Y06969
X08406Y07169
X08406Y07069
X08406Y06969
X08506Y07169
X08506Y07069
X08506Y06969
X08606Y07169
X08606Y07069
X08606Y06969
X08706Y07069
X08706Y06969
X08706Y07169
X08806Y07169
X08806Y07069
X08806Y06969
X08906Y07169
X08906Y07069
X08906Y06969
X09006Y07169
X09006Y07069
X09006Y06969
X09106Y07069
X09106Y06969
X09106Y07169
X09206Y06969
X09206Y07169
X09206Y07069
X09306Y07169
X09306Y07069
X09306Y06969
X09406Y07069
X09406Y06969
X09406Y07169
X096634Y071059
X096677Y070744
X09706Y06969
X09906Y07069
X09906Y06969
X10006Y07069
X10006Y06969
X10206Y07169
X10206Y07069
X10206Y06969
X10406Y07169
X10406Y06969
X10506Y06969
X10606Y07169
X10606Y07069
X10706Y07069
X10706Y07169
X10806Y07069
X10806Y06969
X108138Y071748
X10906Y07069
X10906Y06969
X10906Y07169
X11206Y07169
X112465Y070831
X11306Y06969
X113378Y071894
X113736Y071665
X11406Y06969
X114116Y072049
X114465Y07098
X11506Y06969
X11606Y07069
X11606Y06969
X11606Y07169
X11906Y07069
X11906Y06969
X12006Y06969
X12006Y07069
X123333Y071433
X123553Y070405
X123573Y069957
X124071Y071232
X124191Y070514
X124643Y070227
X124931Y070486
X125163Y070839
X125875Y071442
X126016Y070659
X126218Y071268
X126631Y070636
X12677Y071965
X127861Y07208
X128397Y071001
X128419Y070402
X128641Y070662
X128747Y070295
X129353Y070353
X131154Y07207
X131346Y071809
X132316Y071814
X13282Y069984
X13406Y06969
X13506Y06969
X13506Y07069
X13606Y07169
X13706Y06969
X13706Y07169
X13706Y07069
X13706Y07369
X13706Y07269
X13606Y07369
X13606Y07269
X13506Y07369
X13506Y07269
X13281Y073411
X132328Y072286
X13106Y07369
X130499Y074599
X13043Y072874
X130141Y073382
X128118Y073028
X127307Y073937
X126967Y074565
X126813Y072984
X126767Y073681
X125845Y072734
X1258Y073178
X125545Y073208
X125448Y072821
X125148Y07317
X125126Y072746
X125105Y072524
X123943Y07315
X12338Y072661
X123012Y072636
X122269Y073891
X122124Y073537
X121084Y072687
X120037Y072761
X119517Y072785
X119016Y072773
X118193Y073467
X11706Y07369
X11606Y07269
X11535Y073433
X114556Y073925
X113925Y073858
X113378Y073776
X113138Y073437
X11206Y07269
X10906Y07369
X108138Y073402
X10706Y07369
X10606Y07369
X10506Y07269
X10406Y07269
X10306Y07269
X10306Y07369
X10206Y07269
X10206Y07369
X10006Y07369
X10006Y07269
X09806Y07369
X096713Y072366
X09637Y072591
X09406Y07269
X09406Y07369
X09306Y07369
X09306Y07269
X09206Y07269
X09206Y07369
X09106Y07269
X09106Y07369
X09006Y07269
X09006Y07369
X08906Y07369
X08906Y07269
X08806Y07269
X08806Y07369
X08706Y07269
X08706Y07369
X08606Y07369
X08606Y07269
X08506Y07369
X08506Y07269
X08406Y07269
X08406Y07369
X08306Y07269
X08306Y07369
X08206Y07269
X08206Y07369
X07906Y07369
X07906Y07269
X07906Y07569
X07906Y07469
X07906Y07669
X08006Y07569
X08006Y07469
X08106Y07569
X08106Y07469
X08206Y07569
X08206Y07469
X08206Y07669
X08306Y07569
X08306Y07469
X08306Y07669
X08406Y07569
X08406Y07469
X08406Y07669
X08506Y07569
X08506Y07469
X08506Y07669
X08606Y07569
X08606Y07469
X08606Y07669
X08706Y07569
X08706Y07469
X08706Y07669
X08806Y07569
X08806Y07469
X08806Y07669
X08906Y07569
X08906Y07469
X08906Y07669
X09006Y07569
X09006Y07469
X09106Y07569
X09106Y07469
X09206Y07469
X09206Y07569
X09306Y07569
X09306Y07469
X09406Y07569
X09406Y07469
X09606Y07469
X09606Y07569
X09806Y07569
X09806Y07469
X09806Y07669
X09906Y07569
X09906Y07469
X09906Y07669
X10006Y07469
X10206Y07469
X10306Y07469
X10406Y07469
X10506Y07469
X10606Y07469
X10706Y07469
X10906Y07469
X10906Y07569
X109657Y075969
X110331Y076307
X110945Y075197
X11406Y07569
X11506Y07569
X11706Y07569
X11706Y07469
X11806Y07469
X11906Y07569
X11906Y07669
X12006Y07469
X12006Y07569
X12006Y07669
X12106Y07469
X12106Y07569
X12106Y07669
X12206Y07469
X12206Y07569
X12206Y07669
X12306Y07569
X12306Y07469
X12306Y07669
X124976Y074896
X12706Y07569
X12806Y07569
X12906Y07469
X13006Y07469
X13106Y07469
X13106Y07669
X13206Y07469
X13206Y07669
X13306Y07469
X13306Y07669
X133667Y075115
X13406Y07669
X13406Y07569
X13506Y07469
X13506Y07569
X13506Y07669
X13606Y07569
X13606Y07469
X13706Y07569
X13706Y07469
X13506Y07769
X13406Y07769
X13306Y07769
X13206Y07769
X13106Y07769
X12306Y07769
X12206Y07769
X12106Y07769
X12006Y07769
X11906Y07769
X11806Y07769
X11706Y07769
X11606Y07769
X11506Y07769
X11406Y07769
X11306Y07769
X11206Y07769
X11106Y07769
X11006Y07769
X10906Y07769
X10806Y07769
X10606Y07769
X10506Y07769
X10206Y07769
X10106Y07769
X091469Y077276
X090685Y077268
X089906Y077268
X08906Y07769
X08806Y07769
X08706Y07769
X08606Y07769
X08506Y07769
X08406Y07769
X08306Y07769
X08206Y07769
X07906Y07769
T2C.025F0S0
X096437Y044992
X096437Y054118
X096457Y049724
X105484Y052138
X105512Y041154
X12213Y064618
X118752Y057059
X112567Y057059
X105512Y057063
X099839Y07611
X104591Y071878
X104591Y073559
X104591Y070055
X117854Y07611
X121134Y069913
T3C.03F0S0
X105524Y046819
X112567Y04485
X112567Y04926
X112575Y053984
X096079Y073264
X095547Y060976
X095539Y069319
X095531Y064134
T4C.03543F0S0
X112531Y06551
X115744Y06551
T5C.03543F0S0
X136177Y061516
X136177Y064516
X136177Y063516
X136177Y062516
X136177Y065516
X136177Y066516
X136177Y067516
T6C.0374F0S0
X099508Y054394
X108492Y044575
X099232Y073539
T7C.04724F0S0
X130827Y041591
X132827Y041591
T8C.05709F0S0
X099232Y063696
X099508Y044551
X108492Y054417
T9C.07874F0S0
X080315Y040945
X083465Y040945
X121654Y040945
X13622Y040945
X13622Y077165
X121654Y05748
X083465Y05748
X080315Y077165
T10C.08661F0S0
X08061Y044709
X08061Y054236
X12739Y05426
X12739Y044732
X080335Y063854
X080335Y073382
M30
