*
*
G04 PADS VX.2.3 Build Number: 9191294 generated Gerber (RS-274-X) file*
G04 PC Version=2.1*
*
%IN "GETWAY_Base_ZM_V1.2_201"*%
*
%MOIN*%
*
%FSLAX35Y35*%
*
*
*
*
G04 PC Standard Apertures*
*
*
G04 Thermal Relief Aperture macro.*
%AMTER*
1,1,$1,0,0*
1,0,$1-$2,0,0*
21,0,$3,$4,0,0,45*
21,0,$3,$4,0,0,135*
%
*
*
G04 Annular Aperture macro.*
%AMANN*
1,1,$1,0,0*
1,0,$2,0,0*
%
*
*
G04 Odd Aperture macro.*
%AMODD*
1,1,$1,0,0*
1,0,$1-0.005,0,0*
%
*
*
G04 PC Custom Aperture Macros*
*
*
*
*
*
*
G04 PC Aperture Table*
*
%ADD010C,0.001*%
%ADD011R,0.01969X0.01968*%
%ADD012R,0.00984X0.01969*%
%ADD013R,0.01969X0.00984*%
%ADD014R,0.12598X0.12598*%
%ADD015R,0.04528X0.05512*%
%ADD016R,0.01968X0.01969*%
%ADD017R,0.01969X0.01969*%
%ADD018R,0.01969X0.01968*%
%ADD019R,0.03149X0.0378*%
%ADD020R,0.01575X0.03346*%
%ADD021R,0.038X0.038*%
%ADD022R,0.04724X0.05906*%
%ADD023R,0.0378X0.03149*%
%ADD024R,0.07874X0.04724*%
%ADD025R,0.07874X0.03937*%
%ADD026R,0.02559X0.04843*%
%ADD028R,0.02756X0.08268*%
%ADD029R,0.036X0.036*%
%ADD030R,0.05X0.036*%
%ADD032R,0.03937X0.03937*%
%ADD033C,0.03937*%
%ADD034R,0.0374X0.08465*%
%ADD035R,0.12795X0.08465*%
%ADD036R,0.05906X0.04724*%
%ADD038R,0.05906X0.00709*%
%ADD041R,0.11811X0.07874*%
%ADD043R,0.09843X0.02362*%
%ADD044O,0.0315X0.05906*%
%ADD045R,0.03937X0.07087*%
%ADD046R,0.01969X0.18*%
%ADD047R,0.03543X0.19291*%
%ADD048R,0.19685X0.01969*%
%ADD049R,0.01969X0.10394*%
%ADD050R,0.07874X0.01969*%
%ADD051R,0.1063X0.01969*%
%ADD052R,0.01969X0.15512*%
%ADD053R,0.036X0.05*%
%ADD054R,0.04724X0.07874*%
*
*
*
*
G04 PC Circuitry*
G04 Layer Name GETWAY_Base_ZM_V1.2_201 - circuitry*
%LPD*%
*
*
G04 PC Custom Flashes*
G04 Layer Name GETWAY_Base_ZM_V1.2_201 - flashes*
%LPD*%
*
*
G04 PC Circuitry*
G04 Layer Name GETWAY_Base_ZM_V1.2_201 - circuitry*
%LPD*%
*
G54D10*
G54D11*
G01X1240579Y708862D03*
X1237036D03*
X1316438Y718045D03*
X1319981D03*
X1316337Y722869D03*
X1319881D03*
X1242480Y741327D03*
X1246024D03*
X1271181Y722843D03*
X1274724D03*
X1304894Y741185D03*
X1301350D03*
X1292157Y752602D03*
X1295701D03*
X1237142Y726843D03*
X1240685D03*
G54D12*
X1261921Y736835D03*
X1259953D03*
X1257984D03*
X1256016D03*
X1254047D03*
X1252079D03*
X1250110D03*
X1248142D03*
Y718724D03*
X1250110D03*
X1252079D03*
X1254047D03*
X1256016D03*
X1257984D03*
X1259953D03*
X1261921D03*
G54D13*
X1245976Y734669D03*
Y732701D03*
Y730732D03*
Y728764D03*
Y726795D03*
Y724827D03*
Y722858D03*
Y720890D03*
X1264087D03*
Y722858D03*
Y724827D03*
Y726795D03*
Y728764D03*
Y730732D03*
Y732701D03*
Y734669D03*
G54D14*
X1255157Y727633D03*
G54D15*
X1281341Y739567D03*
Y729331D03*
X1287640D03*
Y739567D03*
G54D16*
X1271657Y736236D03*
Y732693D03*
X1259693Y763154D03*
Y759610D03*
X1256039Y712354D03*
Y708811D03*
X1252496Y748831D03*
Y745287D03*
X1259850Y749870D03*
Y746327D03*
G54D17*
X1284922Y745572D03*
X1281344Y723671D03*
X1259819Y753709D03*
X1301346Y737130D03*
X1245906Y744807D03*
X1240709Y715319D03*
X1259886Y742654D03*
X1301528Y723102D03*
G54D18*
X1281378Y745572D03*
X1284888Y723671D03*
X1263363Y753709D03*
X1304890Y737130D03*
X1242362Y744807D03*
X1237165Y715319D03*
X1263430Y742654D03*
X1305072Y723102D03*
G54D19*
X1126636Y728068D03*
Y734367D03*
X1119338Y751959D03*
Y745660D03*
X1151456Y751994D03*
Y745695D03*
X1073921Y694526D03*
Y688227D03*
X1074433Y676022D03*
Y669723D03*
X1144055Y751968D03*
Y745669D03*
X1024173Y777638D03*
Y771339D03*
X1275197Y633150D03*
Y639449D03*
G54D20*
X1136693Y727047D03*
X1139252D03*
X1141811D03*
Y734330D03*
X1139252Y734331D03*
X1136693D03*
G54D21*
X1127462Y752074D03*
Y745774D03*
X1159802Y752073D03*
Y745773D03*
X998229Y775551D03*
X991929D03*
X922394Y413217D03*
X928694D03*
X943386Y413228D03*
X949686D03*
X977520Y775551D03*
X971220D03*
X1098071Y411654D03*
X1104371D03*
X1136142Y752008D03*
Y745708D03*
X1078425Y411535D03*
X1084725D03*
X1074984Y717400D03*
Y711100D03*
X1045850Y713581D03*
Y707281D03*
X1074984Y734014D03*
Y727714D03*
X1045574Y730274D03*
Y723974D03*
X1332417Y650280D03*
X1338717D03*
X1332582Y627102D03*
X1338882D03*
X1292031Y762717D03*
X1298331D03*
G54D22*
X1314264Y461713D03*
X1325287D03*
G54D23*
X1242362Y610079D03*
X1248661D03*
X1245921Y748843D03*
X1239622D03*
G54D24*
X1036535Y777756D03*
X1069606D03*
X1036535Y760039D03*
G54D25*
X1069606D03*
G54D26*
X1144646Y703780D03*
X1134646D03*
X1124646D03*
X1149646D03*
X1139646D03*
X1129646D03*
X1154646D03*
G54D28*
X1118071Y697422D03*
X1169213D03*
X1118071Y650197D03*
X1169213D03*
G54D29*
X1055651Y731465D03*
Y723965D03*
Y714772D03*
Y707272D03*
Y695323D03*
Y687823D03*
Y677488D03*
Y669988D03*
X1331305Y658092D03*
X1338805D03*
X1332581Y635238D03*
X1340081D03*
G54D30*
X1063651Y727715D03*
Y711022D03*
Y691573D03*
Y673738D03*
G54D32*
X1322638Y450866D03*
X1313976D03*
G54D33*
X914567Y772598D03*
X899134D03*
X906969D03*
X922677D03*
G54D34*
X1230551Y623268D03*
X1239606D03*
X1248661D03*
G54D35*
X1239606Y646102D03*
G54D36*
X1265000Y633976D03*
Y622953D03*
G54D38*
X1070119Y540630D03*
X1100040Y539842D03*
X1070119Y537480D03*
X1100040Y536693D03*
X1070119Y534331D03*
X1100040Y533543D03*
X1070119Y531181D03*
X1100040Y530394D03*
X1070119Y528031D03*
X1100040Y527244D03*
X1070119Y524882D03*
X1100040Y524094D03*
X1070119Y521732D03*
X1100040Y520945D03*
X1070119Y518583D03*
X1100040Y517795D03*
X1070119Y502835D03*
X1100040Y502047D03*
X1070119Y499685D03*
X1100040Y498898D03*
X1070119Y496535D03*
X1100040Y495748D03*
X1070119Y493386D03*
X1100040Y492598D03*
X1070119Y490236D03*
X1100040Y489449D03*
X1070119Y487087D03*
X1100040Y486299D03*
X1070119Y483937D03*
X1100040Y483150D03*
X1070119Y480787D03*
X1100040Y480000D03*
X1070119Y477638D03*
X1100040Y476850D03*
X1070119Y474488D03*
X1100040Y473701D03*
X1070119Y471339D03*
X1100040Y470551D03*
X1070119Y468189D03*
X1100040Y467402D03*
X1070119Y465039D03*
X1100040Y464252D03*
X1070119Y461890D03*
X1100040Y461102D03*
X1070119Y458740D03*
X1100040Y457953D03*
X1070119Y455590D03*
X1100040Y454803D03*
X1070119Y452441D03*
X1100040Y451653D03*
X1070119Y449291D03*
X1100040Y448504D03*
X1007126Y640508D03*
X977204Y641296D03*
X1007126Y643658D03*
X977204Y644445D03*
X1007126Y646808D03*
X977204Y647595D03*
X1007126Y649957D03*
X977204Y650745D03*
X1007126Y653107D03*
X977204Y653894D03*
X1007126Y656256D03*
X977204Y657044D03*
X1007126Y659406D03*
X977204Y660193D03*
X1007126Y662556D03*
X977204Y663343D03*
X1007126Y678304D03*
X977204Y679091D03*
X1007126Y681453D03*
X977204Y682241D03*
X1007126Y684603D03*
X977204Y685390D03*
X1007126Y687752D03*
X977204Y688540D03*
X1007126Y690902D03*
X977204Y691689D03*
X1007126Y694052D03*
X977204Y694839D03*
X1007126Y697201D03*
X977204Y697989D03*
X1007126Y700351D03*
X977204Y701138D03*
X1007126Y703500D03*
X977204Y704288D03*
X1007126Y706650D03*
X977204Y707437D03*
X1007126Y709800D03*
X977204Y710587D03*
X1007126Y712949D03*
X977204Y713737D03*
X1007126Y716099D03*
X977204Y716886D03*
X1007126Y719248D03*
X977204Y720036D03*
X1007126Y722398D03*
X977204Y723185D03*
X1007126Y725548D03*
X977204Y726335D03*
X1007126Y728697D03*
X977204Y729485D03*
X1007126Y731847D03*
X977204Y732634D03*
X1009882Y449055D03*
X979960Y449843D03*
X1009882Y452205D03*
X979960Y452992D03*
X1009882Y455355D03*
X979960Y456142D03*
X1009882Y458504D03*
X979960Y459292D03*
X1009882Y461654D03*
X979960Y462441D03*
X1009882Y464803D03*
X979960Y465591D03*
X1009882Y467953D03*
X979960Y468740D03*
X1009882Y471103D03*
X979960Y471890D03*
X1009882Y486851D03*
X979960Y487638D03*
X1009882Y490000D03*
X979960Y490788D03*
X1009882Y493150D03*
X979960Y493937D03*
X1009882Y496299D03*
X979960Y497087D03*
X1009882Y499449D03*
X979960Y500236D03*
X1009882Y502599D03*
X979960Y503386D03*
X1009882Y505748D03*
X979960Y506536D03*
X1009882Y508898D03*
X979960Y509685D03*
X1009882Y512047D03*
X979960Y512835D03*
X1009882Y515197D03*
X979960Y515984D03*
X1009882Y518347D03*
X979960Y519134D03*
X1009882Y521496D03*
X979960Y522284D03*
X1009882Y524646D03*
X979960Y525433D03*
X1009882Y527795D03*
X979960Y528583D03*
X1009882Y530945D03*
X979960Y531732D03*
X1009882Y534095D03*
X979960Y534882D03*
X1009882Y537244D03*
X979960Y538032D03*
X1009882Y540394D03*
X979960Y541181D03*
G54D41*
X1068150Y439252D03*
Y550669D03*
X1009094Y741886D03*
Y630469D03*
X1011850Y550433D03*
Y439016D03*
G54D43*
X1276051Y717602D03*
Y712602D03*
Y707602D03*
Y702602D03*
X1301524D03*
Y707602D03*
Y712602D03*
Y717602D03*
G54D44*
X1238980Y771142D03*
G54D45*
X1233862Y778228D03*
X1244098D03*
G54D46*
X1259670Y772902D03*
G54D47*
X1251402Y771402D03*
G54D48*
X1259472Y782031D03*
G54D49*
X1268331Y775850D03*
X1278173D03*
X1286835D03*
X1296677D03*
G54D50*
X1273252Y771638D03*
X1291756D03*
G54D51*
X1282504Y782031D03*
X1301008D03*
G54D52*
X1305339Y773291D03*
G54D53*
X1335055Y666092D03*
X1336331Y643238D03*
G54D54*
X1342465Y549228D03*
Y582299D03*
X1362126Y549039D03*
Y582110D03*
X0Y0D02*
M02*
