*
*
G04 PADS VX.2.3 Build Number: 9191294 generated Gerber (RS-274-X) file*
G04 PC Version=2.1*
*
%IN "GETWAY_Base_ZM_V1.2_201"*%
*
%MOIN*%
*
%FSLAX35Y35*%
*
*
*
*
G04 PC Standard Apertures*
*
*
G04 Thermal Relief Aperture macro.*
%AMTER*
1,1,$1,0,0*
1,0,$1-$2,0,0*
21,0,$3,$4,0,0,45*
21,0,$3,$4,0,0,135*
%
*
*
G04 Annular Aperture macro.*
%AMANN*
1,1,$1,0,0*
1,0,$2,0,0*
%
*
*
G04 Odd Aperture macro.*
%AMODD*
1,1,$1,0,0*
1,0,$1-0.005,0,0*
%
*
*
G04 PC Custom Aperture Macros*
*
*
*
*
*
*
G04 PC Aperture Table*
*
%ADD010C,0.001*%
%ADD063C,0.01*%
%ADD065C,0.006*%
%ADD068C,0.005*%
%ADD069C,0.004*%
*
*
*
*
G04 PC Circuitry*
G04 Layer Name GETWAY_Base_ZM_V1.2_201 - circuitry*
%LPD*%
*
*
G04 PC Custom Flashes*
G04 Layer Name GETWAY_Base_ZM_V1.2_201 - flashes*
%LPD*%
*
*
G04 PC Circuitry*
G04 Layer Name GETWAY_Base_ZM_V1.2_201 - circuitry*
%LPD*%
*
G54D10*
G54D63*
G01X1134393Y729447D02*
Y731847D01*
X1143893*
Y729447*
X1134393*
X1133776Y727047D02*
G75*
G03X1133776I-283J0D01*
G01X1041260Y780604D02*
Y757140D01*
X1064890Y780667D02*
Y756953D01*
X1041260Y780709D02*
X1064882D01*
X1041260Y757087D02*
X1064882D01*
X1059961Y768898D02*
G03X1059961I-6890J0D01*
G01X1120946Y647680D02*
Y699680D01*
X1165846*
Y647680*
X1120946*
X1063551Y730715D02*
Y733215D01*
X1058551*
X1063551Y724715D02*
Y722215D01*
X1058551*
X1054551Y728215D02*
Y727215D01*
X1063551Y714022D02*
Y716522D01*
X1058551*
X1063551Y708022D02*
Y705522D01*
X1058551*
X1054551Y711522D02*
Y710522D01*
X1063551Y694573D02*
Y697073D01*
X1058551*
X1063551Y688573D02*
Y686073D01*
X1058551*
X1054551Y692073D02*
Y691073D01*
X1063551Y676738D02*
Y679238D01*
X1058551*
X1063551Y670738D02*
Y668238D01*
X1058551*
X1054551Y674238D02*
Y673238D01*
X1298425Y436378D02*
X1337795D01*
Y395039*
X1298425*
Y436378*
X1227051Y640268D02*
X1251951D01*
Y629068*
X1227051*
Y640268*
X1075340Y437242D02*
Y552542D01*
X1285867*
Y437242*
X1075340*
X1001904Y743896D02*
Y628596D01*
X791378*
Y743896*
X1001904*
X1004660Y552443D02*
Y437143D01*
X794134*
Y552443*
X1004660*
X1332055Y665992D02*
X1329555D01*
Y660992*
X1338055Y665992D02*
X1340555D01*
Y660992*
X1334555Y656992D02*
X1335555D01*
X1333331Y643138D02*
X1330831D01*
Y638138*
X1339331Y643138D02*
X1341831D01*
Y638138*
X1335831Y634138D02*
X1336831D01*
X1367572Y681357D02*
Y608480D01*
X1355872*
Y681357*
X1367572*
X1335181Y553953D02*
X1349748D01*
X1335181Y577583D02*
X1349748D01*
X1335181Y553953D02*
Y577575D01*
X1349748Y553953D02*
Y577575D01*
X1354843Y553764D02*
X1369409D01*
X1354843Y577394D02*
X1369409D01*
X1354843Y553764D02*
Y577386D01*
X1369409Y553764D02*
Y577386D01*
X859826Y595315D02*
X859599Y595940D01*
X859145Y596565*
X858690Y596877*
X857781*
X857326Y596565*
X856872Y595940*
X856645Y595315*
X856417Y594377*
Y592815*
X856645Y591877*
X856872Y591252*
X857326Y590627*
X857781Y590315*
X858690*
X859145Y590627*
X859599Y591252*
X859826Y591877*
Y592815*
X858690D02*
X859826D01*
X861872D02*
X864599D01*
Y593440*
X864372Y594065*
X864145Y594377*
X863690Y594690*
X863008*
X862554Y594377*
X862099Y593752*
X861872Y592815*
Y592190*
X862099Y591252*
X862554Y590627*
X863008Y590315*
X863690*
X864145Y590627*
X864599Y591252*
X867326Y596877D02*
Y591565D01*
X867554Y590627*
X868008Y590315*
X868463*
X866645Y594690D02*
X868236D01*
X870508Y596877D02*
X871645Y590315D01*
X872781Y596877D02*
X871645Y590315D01*
X872781Y596877D02*
X873917Y590315D01*
X875054Y596877D02*
X873917Y590315D01*
X879826Y594690D02*
Y590315D01*
Y593752D02*
X879372Y594377D01*
X878917Y594690*
X878236*
X877781Y594377*
X877326Y593752*
X877099Y592815*
Y592190*
X877326Y591252*
X877781Y590627*
X878236Y590315*
X878917*
X879372Y590627*
X879826Y591252*
X882099Y594690D02*
X883463Y590315D01*
X884826Y594690D02*
X883463Y590315D01*
X883008Y589065*
X882554Y588440*
X882099Y588127*
X881872*
X892099Y596877D02*
Y590315D01*
Y596877D02*
X894145D01*
X894826Y596565*
X895054Y596252*
X895281Y595627*
Y595002*
X895054Y594377*
X894826Y594065*
X894145Y593752*
X892099D02*
X894145D01*
X894826Y593440*
X895054Y593127*
X895281Y592502*
Y591565*
X895054Y590940*
X894826Y590627*
X894145Y590315*
X892099*
X900054Y594690D02*
Y590315D01*
Y593752D02*
X899599Y594377D01*
X899145Y594690*
X898463*
X898008Y594377*
X897554Y593752*
X897326Y592815*
Y592190*
X897554Y591252*
X898008Y590627*
X898463Y590315*
X899145*
X899599Y590627*
X900054Y591252*
X904599Y593752D02*
X904372Y594377D01*
X903690Y594690*
X903008*
X902326Y594377*
X902099Y593752*
X902326Y593127*
X902781Y592815*
X903917Y592502*
X904372Y592190*
X904599Y591565*
Y591252*
X904372Y590627*
X903690Y590315*
X903008*
X902326Y590627*
X902099Y591252*
X906645Y592815D02*
X909372D01*
Y593440*
X909145Y594065*
X908917Y594377*
X908463Y594690*
X907781*
X907326Y594377*
X906872Y593752*
X906645Y592815*
Y592190*
X906872Y591252*
X907326Y590627*
X907781Y590315*
X908463*
X908917Y590627*
X909372Y591252*
X916645Y596877D02*
Y590315D01*
Y596877D02*
X918690D01*
X919372Y596565*
X919599Y596252*
X919826Y595627*
Y595002*
X919599Y594377*
X919372Y594065*
X918690Y593752*
X916645D02*
X918690D01*
X919372Y593440*
X919599Y593127*
X919826Y592502*
Y591565*
X919599Y590940*
X919372Y590627*
X918690Y590315*
X916645*
X923008Y594690D02*
X922554Y594377D01*
X922099Y593752*
X921872Y592815*
Y592190*
X922099Y591252*
X922554Y590627*
X923008Y590315*
X923690*
X924145Y590627*
X924599Y591252*
X924826Y592190*
Y592815*
X924599Y593752*
X924145Y594377*
X923690Y594690*
X923008*
X929599D02*
Y590315D01*
Y593752D02*
X929145Y594377D01*
X928690Y594690*
X928008*
X927554Y594377*
X927099Y593752*
X926872Y592815*
Y592190*
X927099Y591252*
X927554Y590627*
X928008Y590315*
X928690*
X929145Y590627*
X929599Y591252*
X931645Y594690D02*
Y590315D01*
Y592815D02*
X931872Y593752D01*
X932326Y594377*
X932781Y594690*
X933463*
X938236Y596877D02*
Y590315D01*
Y593752D02*
X937781Y594377D01*
X937326Y594690*
X936645*
X936190Y594377*
X935736Y593752*
X935508Y592815*
Y592190*
X935736Y591252*
X936190Y590627*
X936645Y590315*
X937326*
X937781Y590627*
X938236Y591252*
X945508Y596877D02*
X947326Y590315D01*
X949145Y596877D02*
X947326Y590315D01*
X951190Y595627D02*
X951645Y595940D01*
X952326Y596877*
Y590315*
X954599Y590940D02*
X954372Y590627D01*
X954599Y590315*
X954826Y590627*
X954599Y590940*
X956872Y595627D02*
X957326Y595940D01*
X958008Y596877*
Y590315*
X867126Y497074D02*
Y490512D01*
Y497074D02*
X868944Y490512D01*
X870762Y497074D02*
X868944Y490512D01*
X870762Y497074D02*
Y490512D01*
X876217Y495512D02*
X875990Y496137D01*
X875535Y496762*
X875081Y497074*
X874171*
X873717Y496762*
X873262Y496137*
X873035Y495512*
X872808Y494574*
Y493012*
X873035Y492074*
X873262Y491449*
X873717Y490824*
X874171Y490512*
X875081*
X875535Y490824*
X875990Y491449*
X876217Y492074*
X878262Y497074D02*
Y492387D01*
X878490Y491449*
X878944Y490824*
X879626Y490512*
X880081*
X880762Y490824*
X881217Y491449*
X881444Y492387*
Y497074*
X888717D02*
Y490512D01*
Y497074D02*
X890535Y490512D01*
X892353Y497074D02*
X890535Y490512D01*
X892353Y497074D02*
Y490512D01*
X895535Y494887D02*
X895081Y494574D01*
X894626Y493949*
X894399Y493012*
Y492387*
X894626Y491449*
X895081Y490824*
X895535Y490512*
X896217*
X896671Y490824*
X897126Y491449*
X897353Y492387*
Y493012*
X897126Y493949*
X896671Y494574*
X896217Y494887*
X895535*
X902126Y497074D02*
Y490512D01*
Y493949D02*
X901671Y494574D01*
X901217Y494887*
X900535*
X900081Y494574*
X899626Y493949*
X899399Y493012*
Y492387*
X899626Y491449*
X900081Y490824*
X900535Y490512*
X901217*
X901671Y490824*
X902126Y491449*
X904171Y494887D02*
Y491762D01*
X904399Y490824*
X904853Y490512*
X905535*
X905990Y490824*
X906671Y491762*
Y494887D02*
Y490512D01*
X908717Y497074D02*
Y490512D01*
X910762Y493012D02*
X913490D01*
Y493637*
X913262Y494262*
X913035Y494574*
X912581Y494887*
X911899*
X911444Y494574*
X910990Y493949*
X910762Y493012*
Y492387*
X910990Y491449*
X911444Y490824*
X911899Y490512*
X912581*
X913035Y490824*
X913490Y491449*
X1161142Y497074D02*
Y490512D01*
X1163869*
X1167278Y497074D02*
X1166824Y496762D01*
X1166369Y496137*
X1166142Y495512*
X1165914Y494574*
Y493012*
X1166142Y492074*
X1166369Y491449*
X1166824Y490824*
X1167278Y490512*
X1168187*
X1168642Y490824*
X1169096Y491449*
X1169324Y492074*
X1169551Y493012*
Y494574*
X1169324Y495512*
X1169096Y496137*
X1168642Y496762*
X1168187Y497074*
X1167278*
X1171596D02*
Y490512D01*
Y497074D02*
X1173642D01*
X1174324Y496762*
X1174551Y496449*
X1174778Y495824*
Y495199*
X1174551Y494574*
X1174324Y494262*
X1173642Y493949*
X1171596*
X1173187D02*
X1174778Y490512D01*
X1178642Y497074D02*
X1176824Y490512D01*
X1178642Y497074D02*
X1180460Y490512D01*
X1177505Y492699D02*
X1179778D01*
X1187733Y497074D02*
Y490512D01*
Y497074D02*
X1189551Y490512D01*
X1191369Y497074D02*
X1189551Y490512D01*
X1191369Y497074D02*
Y490512D01*
X1194551Y494887D02*
X1194096Y494574D01*
X1193642Y493949*
X1193414Y493012*
Y492387*
X1193642Y491449*
X1194096Y490824*
X1194551Y490512*
X1195233*
X1195687Y490824*
X1196142Y491449*
X1196369Y492387*
Y493012*
X1196142Y493949*
X1195687Y494574*
X1195233Y494887*
X1194551*
X1201142Y497074D02*
Y490512D01*
Y493949D02*
X1200687Y494574D01*
X1200233Y494887*
X1199551*
X1199096Y494574*
X1198642Y493949*
X1198414Y493012*
Y492387*
X1198642Y491449*
X1199096Y490824*
X1199551Y490512*
X1200233*
X1200687Y490824*
X1201142Y491449*
X1203187Y494887D02*
Y491762D01*
X1203414Y490824*
X1203869Y490512*
X1204551*
X1205005Y490824*
X1205687Y491762*
Y494887D02*
Y490512D01*
X1207733Y497074D02*
Y490512D01*
X1209778Y493012D02*
X1212505D01*
Y493637*
X1212278Y494262*
X1212051Y494574*
X1211596Y494887*
X1210914*
X1210460Y494574*
X1210005Y493949*
X1209778Y493012*
Y492387*
X1210005Y491449*
X1210460Y490824*
X1210914Y490512*
X1211596*
X1212051Y490824*
X1212505Y491449*
X861402Y685964D02*
Y679402D01*
X864129*
X867765Y685964D02*
Y679402D01*
X866174Y685964D02*
X869356D01*
X871402D02*
Y679402D01*
Y685964D02*
X874356D01*
X871402Y682839D02*
X873220D01*
X871402Y679402D02*
X874356D01*
X881629Y685964D02*
Y679402D01*
Y685964D02*
X883447Y679402D01*
X885265Y685964D02*
X883447Y679402D01*
X885265Y685964D02*
Y679402D01*
X888447Y683777D02*
X887992Y683464D01*
X887538Y682839*
X887311Y681902*
Y681277*
X887538Y680339*
X887992Y679714*
X888447Y679402*
X889129*
X889583Y679714*
X890038Y680339*
X890265Y681277*
Y681902*
X890038Y682839*
X889583Y683464*
X889129Y683777*
X888447*
X895038Y685964D02*
Y679402D01*
Y682839D02*
X894583Y683464D01*
X894129Y683777*
X893447*
X892992Y683464*
X892538Y682839*
X892311Y681902*
Y681277*
X892538Y680339*
X892992Y679714*
X893447Y679402*
X894129*
X894583Y679714*
X895038Y680339*
X897083Y683777D02*
Y680652D01*
X897311Y679714*
X897765Y679402*
X898447*
X898902Y679714*
X899583Y680652*
Y683777D02*
Y679402D01*
X901629Y685964D02*
Y679402D01*
X903674Y681902D02*
X906402D01*
Y682527*
X906174Y683152*
X905947Y683464*
X905492Y683777*
X904811*
X904356Y683464*
X903902Y682839*
X903674Y681902*
Y681277*
X903902Y680339*
X904356Y679714*
X904811Y679402*
X905492*
X905947Y679714*
X906402Y680339*
X787402Y787402D02*
X1377953D01*
Y393701*
X787402*
Y787402*
X1232895Y756426D02*
X1309184D01*
Y697606*
X1232895*
Y756426*
G54D65*
X1130462Y754924D02*
X1124462D01*
Y742924*
X1130462*
Y754924*
X1162802Y754923D02*
X1156802D01*
Y742923*
X1162802*
Y754923*
X1001079Y772551D02*
Y778551D01*
X989079*
Y772551*
X1001079*
X919544Y416217D02*
Y410217D01*
X931544*
Y416217*
X919544*
X940536Y416228D02*
Y410228D01*
X952536*
Y416228*
X940536*
X980370Y772551D02*
Y778551D01*
X968370*
Y772551*
X980370*
X1095221Y414654D02*
Y408654D01*
X1107221*
Y414654*
X1095221*
X1139142Y754858D02*
X1133142D01*
Y742858*
X1139142*
Y754858*
X1075575Y414535D02*
Y408535D01*
X1087575*
Y414535*
X1075575*
X1077984Y720250D02*
X1071984D01*
Y708250*
X1077984*
Y720250*
X1048850Y716431D02*
X1042850D01*
Y704431*
X1048850*
Y716431*
X1077984Y736864D02*
X1071984D01*
Y724864*
X1077984*
Y736864*
X1048574Y733124D02*
X1042574D01*
Y721124*
X1048574*
Y733124*
X1329567Y653280D02*
Y647280D01*
X1341567*
Y653280*
X1329567*
X1329732Y630102D02*
Y624102D01*
X1341732*
Y630102*
X1329732*
X1289181Y765717D02*
Y759717D01*
X1301181*
Y765717*
X1289181*
G54D68*
X1241957Y710240D02*
Y707484D01*
X1235658*
Y710240*
X1241957*
X1264605Y738330D02*
X1265842Y736678D01*
Y717258*
X1244607*
Y738330*
X1264605*
X1315060Y716667D02*
Y719422D01*
X1321359*
Y716667*
X1315060*
X1314960Y721491D02*
Y724247D01*
X1321259*
Y721491*
X1314960*
X1278520Y740396D02*
G03X1278520I-1037J0D01*
G01X1289412Y737308D02*
Y731575D01*
X1279569Y737284D02*
Y731634D01*
X1283845Y740748D02*
X1285132D01*
X1283813Y728150D02*
X1285132D01*
X1270280Y737614D02*
X1273035D01*
Y731315*
X1270280*
Y737614*
X1280197Y746950D02*
G03Y744193I1378J-1378D01*
G01X1286103*
X1286102Y744192D02*
G03X1286104Y746949I-1587J1380D01*
G01X1286103Y746950D02*
X1280197D01*
X1286069Y722293D02*
G03Y725049I-1378J1378D01*
G01X1280162Y725050*
X1280164Y725051D02*
G03X1280161Y722294I1587J-1380D01*
G01X1280162Y722293D02*
X1286069D01*
X1128801Y736139D02*
G03X1124471I-2165J-2033D01*
G01X1124470Y726296*
X1124471D02*
G03X1128801I2165J1915D01*
G01Y736139*
X1117173Y743889D02*
G03X1121503I2165J2033D01*
G01Y743888D02*
X1121504Y753731D01*
X1121503Y753732D02*
G03X1117173I-2165J-1916D01*
G01Y753731D02*
Y743888D01*
X1149291Y743924D02*
G03X1153621I2165J2033D01*
G01Y743923D02*
Y753766D01*
Y753767D02*
G03X1149291I-2165J-1916D01*
G01X1149290Y753766D02*
X1149291Y743923D01*
X1322775Y457973D02*
X1328122D01*
Y465453*
X1322775*
X1316775Y457973D02*
X1312575D01*
X1311114Y459083*
Y464150*
X1312575Y465453*
X1316775*
X1071756Y686455D02*
G03X1076086I2165J2033D01*
G01Y696298*
G03X1071756I-2165J-1915*
G01X1071755D02*
X1071756Y686455D01*
X1072268Y667951D02*
G03X1076598I2165J2033D01*
G01X1076597D02*
X1076598Y677794D01*
Y677795D02*
G03X1072267I-2165J-1916D01*
G01Y677794D02*
X1072268Y667951D01*
X1141890Y743898D02*
G03X1146220I2165J2033D01*
G01X1146221Y753741*
X1146220D02*
G03X1141890I-2165J-1915D01*
G01Y743898*
X1022008Y769567D02*
G03X1026338I2165J2033D01*
G01X1026339Y779410*
X1026338D02*
G03X1022008I-2165J-1915D01*
G01Y769567*
X1250433Y607914D02*
G03Y612244I-2033J2165D01*
G01X1240590*
G03Y607914I1915J-2165*
G01Y607913D02*
X1250433Y607914D01*
X1277362Y641220D02*
G03X1273032I-2165J-2033D01*
G01X1273031Y631377*
X1273032D02*
G03X1277362I2165J1916D01*
G01Y641220*
X945618Y415123D02*
Y411327D01*
X947486Y413225*
X945618Y415123*
X947158Y413197D02*
X945655D01*
X947486Y414556D02*
Y411710D01*
X975288Y773656D02*
Y777452D01*
X973420Y775554*
X975288Y773656*
X973748Y775582D02*
X975251D01*
X973420Y774223D02*
Y777069D01*
X1100303Y413549D02*
Y409753D01*
X1102171Y411651*
X1100303Y413549*
X1101843Y411623D02*
X1100340D01*
X1102171Y412982D02*
Y410136D01*
X1319458Y448396D02*
Y453396D01*
X1317510Y450896*
X1317510D02*
X1319458Y448396D01*
X1317010D02*
Y453396D01*
X1325394Y448110D02*
X1311220D01*
Y453622*
X1325394*
Y448110*
X1261260Y625465D02*
Y620118D01*
X1268740*
Y625465*
X1261260Y631465D02*
Y635665D01*
X1262370Y637126*
X1267437*
X1268740Y635665*
Y631465*
X1264544Y752331D02*
G03Y755087I-1378J1378D01*
G01X1258638*
X1258639Y755088D02*
G03X1258636Y752332I1587J-1379D01*
G01X1258638Y752330D02*
X1264544Y752331D01*
X1306072Y735752D02*
G03Y738508I-1379J1378D01*
G01X1300165*
X1300166Y738510D02*
G03X1300164Y735753I1587J-1380D01*
G01X1300165Y735752D02*
X1306072D01*
X1241180Y746185D02*
G03Y743429I1379J-1378D01*
G01X1247087*
X1247086Y743427D02*
G03X1247088Y746184I-1587J1380D01*
G01X1247087Y746185D02*
X1241180D01*
X1235984Y716697D02*
G03Y713941I1378J-1378D01*
G01X1241890*
X1241889Y713939D02*
G03X1241891Y716696I-1587J1380D01*
G01X1241890Y716697D02*
X1235984D01*
X1258315Y764531D02*
X1261071D01*
Y758232*
X1258315*
Y764531*
X1241102Y739949D02*
Y742705D01*
X1247402*
Y739949*
X1241102*
X1295386Y699335D02*
X1282280D01*
Y720870*
X1295386*
Y699335*
X1284715Y719374D02*
G03X1284715I-865J0D01*
G01X1235993Y782362D02*
X1242084D01*
Y774106*
X1235993*
Y782362*
X1264611Y741275D02*
G03Y744032I-1378J1379D01*
G01X1258704*
X1258706Y744033D02*
G03X1258703Y741277I1587J-1379D01*
G01X1258704Y741275D02*
X1264611D01*
X1306253Y721724D02*
G03Y724481I-1378J1378D01*
G01X1300346*
X1300347Y724482D02*
G03X1300345Y721725I1588J-1380D01*
G01X1300346Y721724D02*
X1306253D01*
X1237851Y751008D02*
G03Y746677I2033J-2165D01*
G01Y746678D02*
X1247693Y746677D01*
X1247694D02*
G03Y751008I-1916J2166D01*
G01X1247693D02*
X1237851Y751007D01*
X1269803Y721465D02*
Y724220D01*
X1276102*
Y721465*
X1269803*
X1306272Y742563D02*
Y739807D01*
X1299972*
Y742563*
X1306272*
X1254661Y713732D02*
X1257417D01*
Y707433*
X1254661*
Y713732*
X1290780Y751224D02*
Y753980D01*
X1297079*
Y751224*
X1290780*
X1235764Y725465D02*
Y728220D01*
X1242063*
Y725465*
X1235764*
X1251118Y750209D02*
X1253874D01*
Y743909*
X1251118*
Y750209*
X1258472Y751248D02*
X1261228D01*
Y744949*
X1258472*
Y751248*
X1294263Y764612D02*
Y760816D01*
X1296131Y762714*
X1294263Y764612*
X1295803Y762686D02*
X1294300D01*
X1296131Y764045D02*
Y761199D01*
X1242878Y710003D02*
Y707378D01*
Y710003D02*
X1243696D01*
X1243969Y709878*
X1244060Y709753*
X1244151Y709503*
Y709253*
X1244060Y709003*
X1243969Y708878*
X1243696Y708753*
X1242878*
X1243514D02*
X1244151Y707378D01*
X1244969Y709503D02*
X1245151Y709628D01*
X1245423Y710003*
Y707378*
X1239661Y738090D02*
Y736215D01*
X1239752Y735840*
X1239934Y735590*
X1240207Y735465*
X1240389*
X1240661Y735590*
X1240843Y735840*
X1240934Y736215*
Y738090*
X1242934D02*
X1242025D01*
X1241934Y736965*
X1242025Y737090*
X1242298Y737215*
X1242571*
X1242843Y737090*
X1243025Y736840*
X1243116Y736465*
X1243025Y736215*
X1242934Y735840*
X1242752Y735590*
X1242480Y735465*
X1242207*
X1241934Y735590*
X1241843Y735715*
X1241752Y735965*
X1325291Y719966D02*
Y716685D01*
Y719966D02*
X1326314D01*
X1326655Y719810*
X1326769Y719654*
X1326882Y719341*
Y719029*
X1326769Y718716*
X1326655Y718560*
X1326314Y718404*
X1325291*
X1326087D02*
X1326882Y716685D01*
X1328132Y719966D02*
X1329382D01*
X1328700Y718716*
X1329041*
X1329269Y718560*
X1329382Y718404*
X1329496Y717935*
Y717623*
X1329382Y717154*
X1329155Y716841*
X1328814Y716685*
X1328473*
X1328132Y716841*
X1328019Y716998*
X1327905Y717310*
X1331087Y719966D02*
X1330746Y719810D01*
X1330632Y719498*
Y719185*
X1330746Y718873*
X1330973Y718716*
X1331428Y718560*
X1331769Y718404*
X1331996Y718091*
X1332110Y717779*
Y717310*
X1331996Y716998*
X1331882Y716841*
X1331541Y716685*
X1331087*
X1330746Y716841*
X1330632Y716998*
X1330519Y717310*
Y717779*
X1330632Y718091*
X1330860Y718404*
X1331200Y718560*
X1331655Y718716*
X1331882Y718873*
X1331996Y719185*
Y719498*
X1331882Y719810*
X1331541Y719966*
X1331087*
X1325091Y724726D02*
Y721445D01*
Y724726D02*
X1326113D01*
X1326454Y724570*
X1326568Y724414*
X1326681Y724101*
Y723789*
X1326568Y723476*
X1326454Y723320*
X1326113Y723164*
X1325091*
X1325886D02*
X1326681Y721445D01*
X1327931Y724726D02*
X1329181D01*
X1328500Y723476*
X1328841*
X1329068Y723320*
X1329181Y723164*
X1329295Y722695*
Y722382*
X1329181Y721914*
X1328954Y721601*
X1328613Y721445*
X1328272*
X1327931Y721601*
X1327818Y721757*
X1327704Y722070*
X1331795Y723632D02*
X1331681Y723164D01*
X1331454Y722851*
X1331113Y722695*
X1331000*
X1330659Y722851*
X1330431Y723164*
X1330318Y723632*
Y723789*
X1330431Y724257*
X1330659Y724570*
X1331000Y724726*
X1331113*
X1331454Y724570*
X1331681Y724257*
X1331795Y723632*
Y722851*
X1331681Y722070*
X1331454Y721601*
X1331113Y721445*
X1330886*
X1330545Y721601*
X1330431Y721914*
X1291512Y741802D02*
X1292239Y740552D01*
Y739177*
X1292966Y741802D02*
X1292239Y740552D01*
X1293785Y741302D02*
X1293966Y741427D01*
X1294239Y741802*
Y739177*
X1276574Y737110D02*
X1273949D01*
X1276574D02*
Y736292D01*
X1276449Y736019*
X1276324Y735928*
X1276074Y735838*
X1275824*
X1275574Y735928*
X1275449Y736019*
X1275324Y736292*
Y737110*
Y736474D02*
X1273949Y735838D01*
X1276074Y735019D02*
X1276199Y734838D01*
X1276574Y734565*
X1273949*
X1276574Y733565D02*
Y732565D01*
X1275574Y733110*
Y732838*
X1275449Y732656*
X1275324Y732565*
X1274949Y732474*
X1274699*
X1274324Y732565*
X1274074Y732747*
X1273949Y733019*
Y733292*
X1274074Y733565*
X1274199Y733656*
X1274449Y733747*
X1281268Y751256D02*
X1281154Y751568D01*
X1280927Y751881*
X1280699Y752037*
X1280245*
X1280018Y751881*
X1279790Y751568*
X1279677Y751256*
X1279563Y750787*
Y750006*
X1279677Y749537*
X1279790Y749225*
X1280018Y748912*
X1280245Y748756*
X1280699*
X1280927Y748912*
X1281154Y749225*
X1281268Y749537*
X1282290Y751412D02*
X1282518Y751568D01*
X1282858Y752037*
Y748756*
X1285358Y750943D02*
X1285245Y750475D01*
X1285018Y750162*
X1284677Y750006*
X1284563*
X1284222Y750162*
X1283995Y750475*
X1283881Y750943*
Y751100*
X1283995Y751568*
X1284222Y751881*
X1284563Y752037*
X1284677*
X1285018Y751881*
X1285245Y751568*
X1285358Y750943*
Y750162*
X1285245Y749381*
X1285018Y748912*
X1284677Y748756*
X1284449*
X1284108Y748912*
X1283995Y749225*
X1289858Y724642D02*
X1289744Y724954D01*
X1289517Y725267*
X1289290Y725423*
X1288835*
X1288608Y725267*
X1288381Y724954*
X1288267Y724642*
X1288154Y724173*
Y723392*
X1288267Y722923*
X1288381Y722610*
X1288608Y722298*
X1288835Y722142*
X1289290*
X1289517Y722298*
X1289744Y722610*
X1289858Y722923*
X1291449Y725423D02*
X1291108Y725267D01*
X1290994Y724954*
Y724642*
X1291108Y724329*
X1291335Y724173*
X1291790Y724017*
X1292131Y723860*
X1292358Y723548*
X1292472Y723235*
Y722767*
X1292358Y722454*
X1292244Y722298*
X1291904Y722142*
X1291449*
X1291108Y722298*
X1290994Y722454*
X1290881Y722767*
Y723235*
X1290994Y723548*
X1291222Y723860*
X1291563Y724017*
X1292017Y724173*
X1292244Y724329*
X1292358Y724642*
Y724954*
X1292244Y725267*
X1291904Y725423*
X1291449*
X1126398Y720618D02*
X1126710Y720732D01*
X1127023Y720959*
X1127179Y721186*
Y721641*
X1127023Y721868*
X1126710Y722096*
X1126398Y722209*
X1125929Y722323*
X1125148*
X1124679Y722209*
X1124366Y722096*
X1124054Y721868*
X1123898Y721641*
Y721186*
X1124054Y720959*
X1124366Y720732*
X1124679Y720618*
X1126085Y718118D02*
X1125616Y718232D01*
X1125304Y718459*
X1125148Y718800*
Y718914*
X1125304Y719255*
X1125616Y719482*
X1126085Y719596*
X1126241*
X1126710Y719482*
X1127023Y719255*
X1127179Y718914*
Y718800*
X1127023Y718459*
X1126710Y718232*
X1126085Y718118*
X1125304*
X1124523Y718232*
X1124054Y718459*
X1123898Y718800*
Y719027*
X1124054Y719368*
X1124366Y719482*
X1151195Y732795D02*
X1148851D01*
X1148382Y732682*
X1148070Y732454*
X1147913Y732113*
Y731886*
X1148070Y731545*
X1148382Y731318*
X1148851Y731204*
X1151195*
Y729045D02*
X1149007Y730182D01*
Y728477*
X1151195Y729045D02*
X1147913D01*
X1120453Y760658D02*
X1120765Y760771D01*
X1121078Y760999*
X1121234Y761226*
Y761680*
X1121078Y761908*
X1120765Y762135*
X1120453Y762249*
X1119984Y762362*
X1119203*
X1118734Y762249*
X1118422Y762135*
X1118109Y761908*
X1117953Y761680*
Y761226*
X1118109Y760999*
X1118422Y760771*
X1118734Y760658*
X1120609Y759635D02*
X1120765Y759408D01*
X1121234Y759067*
X1117953*
X1120453Y757930D02*
X1120609D01*
X1120922Y757817*
X1121078Y757703*
X1121234Y757476*
Y757021*
X1121078Y756794*
X1120922Y756680*
X1120609Y756567*
X1120297*
X1119984Y756680*
X1119515Y756908*
X1117953Y758044*
Y756453*
X1129069Y762480D02*
X1125787D01*
X1129069D02*
Y761458D01*
X1128912Y761117*
X1128756Y761003*
X1128444Y760889*
X1128131*
X1127819Y761003*
X1127662Y761117*
X1127506Y761458*
Y762480*
Y761685D02*
X1125787Y760889D01*
X1128444Y759867D02*
X1128600Y759639D01*
X1129069Y759298*
X1125787*
X1128287Y758162D02*
X1128444D01*
X1128756Y758048*
X1128912Y757935*
X1129069Y757708*
Y757253*
X1128912Y757026*
X1128756Y756912*
X1128444Y756798*
X1128131*
X1127819Y756912*
X1127350Y757139*
X1125787Y758276*
Y756685*
X1161273Y762480D02*
X1157992D01*
X1161273D02*
Y761458D01*
X1161117Y761117*
X1160961Y761003*
X1160648Y760889*
X1160336*
X1160023Y761003*
X1159867Y761117*
X1159711Y761458*
Y762480*
Y761685D02*
X1157992Y760889D01*
X1160648Y759867D02*
X1160805Y759639D01*
X1161273Y759298*
X1157992*
X1160648Y758276D02*
X1160805Y758048D01*
X1161273Y757708*
X1157992*
X1152303Y760303D02*
X1152616Y760417D01*
X1152928Y760644*
X1153084Y760872*
Y761326*
X1152928Y761553*
X1152616Y761781*
X1152303Y761894*
X1151834Y762008*
X1151053*
X1150584Y761894*
X1150272Y761781*
X1149959Y761553*
X1149803Y761326*
Y760872*
X1149959Y760644*
X1150272Y760417*
X1150584Y760303*
X1152459Y759281D02*
X1152616Y759053D01*
X1153084Y758712*
X1149803*
X1152459Y757690D02*
X1152616Y757462D01*
X1153084Y757122*
X1149803*
X1333330Y463465D02*
X1333217Y463778D01*
X1332989Y464090*
X1332762Y464247*
X1332762D02*
X1332308D01*
X1332308D02*
X1332080Y464090D01*
X1331853Y463778*
X1331739Y463465*
X1331626Y462997*
X1331626D02*
Y462215D01*
X1331739Y461747*
X1331739D02*
X1331853Y461434D01*
X1332080Y461122*
X1332080D02*
X1332308Y460965D01*
X1332762*
X1332989Y461122*
X1332989D02*
X1333217Y461434D01*
X1333330Y461747*
X1334353Y463622D02*
X1334580Y463778D01*
X1334921Y464247*
X1334921D02*
Y460965D01*
X1336512Y464247D02*
X1336171Y464090D01*
X1336058Y463778*
Y463465*
X1336171Y463153*
X1336399Y462997*
X1336399D02*
X1336853Y462840D01*
X1337194Y462684*
X1337421Y462372*
X1337421D02*
X1337535Y462059D01*
Y461590*
X1337421Y461278*
X1337308Y461122*
X1337308D02*
X1336967Y460965D01*
X1336512*
X1336171Y461122*
X1336171D02*
X1336058Y461278D01*
X1335944Y461590*
Y462059*
X1336058Y462372*
X1336058D02*
X1336285Y462684D01*
X1336626Y462840*
X1337080Y462997*
X1337080D02*
X1337308Y463153D01*
X1337421Y463465*
Y463778*
X1337308Y464090*
X1336967Y464247*
X1336967D02*
X1336512D01*
X1003465Y777258D02*
Y773976D01*
Y777258D02*
X1004487D01*
X1004828Y777101*
X1004942Y776945*
X1005055Y776633*
Y776320*
X1004942Y776008*
X1004828Y775851*
X1004487Y775695*
X1003465*
X1004260D02*
X1005055Y773976D01*
X1006078Y776633D02*
X1006305Y776789D01*
X1006646Y777258*
Y773976*
X1008805Y777258D02*
X1007669Y775070D01*
X1009374*
X1008805Y777258D02*
Y773976D01*
X911142Y415447D02*
Y412165D01*
Y415447D02*
X912164D01*
X912505Y415290*
X912619Y415134*
X912733Y414822*
Y414509*
X912619Y414197*
X912505Y414040*
X912164Y413884*
X911142*
X911937D02*
X912733Y412165D01*
X913755Y414822D02*
X913983Y414978D01*
X914324Y415447*
Y412165*
X916710Y414978D02*
X916596Y415290D01*
X916255Y415447*
X916028*
X915687Y415290*
X915460Y414822*
X915346Y414040*
Y413259*
X915460Y412634*
X915687Y412322*
X916028Y412165*
X916142*
X916483Y412322*
X916710Y412634*
X916824Y413103*
Y413259*
X916710Y413728*
X916483Y414040*
X916142Y414197*
X916028*
X915687Y414040*
X915460Y413728*
X915346Y413259*
X1081043Y692272D02*
X1081356Y692385D01*
X1081668Y692613*
X1081825Y692840*
Y693295*
X1081668Y693522*
X1081356Y693749*
X1081043Y693863*
X1080575Y693976*
X1079793*
X1079325Y693863*
X1079012Y693749*
X1078700Y693522*
X1078543Y693295*
Y692840*
X1078700Y692613*
X1079012Y692385*
X1079325Y692272*
X1081825Y689772D02*
Y690908D01*
X1080418Y691022*
X1080575Y690908*
X1080731Y690567*
Y690226*
X1080575Y689885*
X1080262Y689658*
X1079793Y689545*
X1079481Y689658*
X1079012Y689772*
X1078700Y689999*
X1078543Y690340*
Y690681*
X1078700Y691022*
X1078856Y691135*
X1079168Y691249*
X1082343Y673374D02*
X1082655Y673488D01*
X1082968Y673715*
X1083124Y673942*
Y674397*
X1082968Y674624*
X1082655Y674851*
X1082343Y674965*
X1081874Y675079*
X1081093*
X1080624Y674965*
X1080311Y674851*
X1079999Y674624*
X1079843Y674397*
Y673942*
X1079999Y673715*
X1080311Y673488*
X1080624Y673374*
X1082655Y670988D02*
X1082968Y671101D01*
X1083124Y671442*
Y671670*
X1082968Y672011*
X1082499Y672238*
X1081718Y672351*
X1080936*
X1080311Y672238*
X1079999Y672011*
X1079843Y671670*
Y671556*
X1079999Y671215*
X1080311Y670988*
X1080780Y670874*
X1080936*
X1081405Y670988*
X1081718Y671215*
X1081874Y671556*
Y671670*
X1081718Y672011*
X1081405Y672238*
X1080936Y672351*
X1144154Y760776D02*
X1144466Y760889D01*
X1144779Y761117*
X1144935Y761344*
Y761798*
X1144779Y762026*
X1144466Y762253*
X1144154Y762367*
X1143685Y762480*
X1142904*
X1142435Y762367*
X1142122Y762253*
X1141810Y762026*
X1141654Y761798*
Y761344*
X1141810Y761117*
X1142122Y760889*
X1142435Y760776*
X1144310Y759753D02*
X1144466Y759526D01*
X1144935Y759185*
X1141654*
X1144935Y757480D02*
X1144779Y757821D01*
X1144310Y758048*
X1143529Y758162*
X1143060*
X1142279Y758048*
X1141810Y757821*
X1141654Y757480*
Y757253*
X1141810Y756912*
X1142279Y756685*
X1143060Y756571*
X1143529*
X1144310Y756685*
X1144779Y756912*
X1144935Y757253*
Y757480*
X1025413Y763532D02*
X1025726Y763645D01*
X1026038Y763873*
X1026195Y764100*
Y764554*
X1026038Y764782*
X1025726Y765009*
X1025413Y765123*
X1024945Y765236*
X1024163*
X1023695Y765123*
X1023382Y765009*
X1023070Y764782*
X1022913Y764554*
Y764100*
X1023070Y763873*
X1023382Y763645*
X1023695Y763532*
X1026195Y760918D02*
X1022913Y762054D01*
X1026195Y762509D02*
Y760918D01*
X1233161Y610846D02*
X1233048Y611159D01*
X1232820Y611471*
X1232593Y611628*
X1232139*
X1231911Y611471*
X1231684Y611159*
X1231570Y610846*
X1231457Y610378*
Y609596*
X1231570Y609128*
X1231684Y608815*
X1231911Y608503*
X1232139Y608346*
X1232593*
X1232820Y608503*
X1233048Y608815*
X1233161Y609128*
X1234298Y610846D02*
Y611003D01*
X1234411Y611315*
X1234525Y611471*
X1234752Y611628*
X1235207*
X1235434Y611471*
X1235548Y611315*
X1235661Y611003*
Y610690*
X1235548Y610378*
X1235320Y609909*
X1234184Y608346*
X1235775*
X1237025Y611628D02*
X1238275D01*
X1237593Y610378*
X1237934*
X1238161Y610221*
X1238275Y610065*
X1238389Y609596*
Y609284*
X1238275Y608815*
X1238048Y608503*
X1237707Y608346*
X1237366*
X1237025Y608503*
X1236911Y608659*
X1236798Y608971*
X1276476Y624988D02*
X1276789Y625102D01*
X1277101Y625329*
X1277258Y625557*
Y626011*
X1277101Y626238*
X1276789Y626466*
X1276476Y626579*
X1276008Y626693*
X1275226*
X1274758Y626579*
X1274445Y626466*
X1274133Y626238*
X1273976Y626011*
Y625557*
X1274133Y625329*
X1274445Y625102*
X1274758Y624988*
X1276476Y623852D02*
X1276633D01*
X1276945Y623738*
X1277101Y623625*
X1277258Y623397*
Y622943*
X1277101Y622716*
X1276945Y622602*
X1276633Y622488*
X1276320*
X1276008Y622602*
X1275539Y622829*
X1273976Y623966*
Y622375*
X1277258Y620216D02*
X1275070Y621352D01*
Y619647*
X1277258Y620216D02*
X1273976D01*
X1052969Y770293D02*
X1052742Y770605D01*
X1052401Y770762*
X1051946*
X1051605Y770605*
X1051378Y770293*
Y769980*
X1051492Y769668*
X1051605Y769512*
X1051832Y769355*
X1051832D02*
X1052514Y769043D01*
X1052742Y768887*
X1052855Y768730*
X1052969Y768418*
Y767949*
X1052742Y767637*
X1052401Y767480*
X1051946*
X1051605Y767637*
X1051378Y767949*
X1054105Y769980D02*
Y770137D01*
X1054219Y770449*
X1054332Y770605*
X1054332D02*
X1054560Y770762D01*
X1055014*
X1055242Y770605*
X1055355Y770449*
X1055469Y770137*
Y769824*
X1055355Y769512*
X1055128Y769043*
X1053992Y767480*
X1055582*
X1142126Y682140D02*
Y679796D01*
X1142240Y679327*
X1142467Y679015*
X1142808Y678858*
X1143035*
X1143376Y679015*
X1143603Y679327*
X1143717Y679796*
Y682140*
X1144967D02*
X1146217D01*
X1145535Y680890*
X1145876*
X1146103Y680733*
X1146217Y680577*
X1146331Y680108*
Y679796*
X1146217Y679327*
X1145990Y679015*
X1145649Y678858*
X1145308*
X1144967Y679015*
X1144853Y679171*
X1144740Y679483*
X1065013Y738006D02*
X1064785Y737849D01*
X1064558Y737537*
X1064444Y737224*
X1064331Y736756*
Y735974*
X1064444Y735506*
X1064558Y735193*
X1064785Y734881*
X1065013Y734724*
X1065467*
X1065694Y734881*
X1065922Y735193*
X1066035Y735506*
X1066149Y735974*
Y736756*
X1066035Y737224*
X1065922Y737537*
X1065694Y737849*
X1065467Y738006*
X1065013*
X1065353Y735349D02*
X1066035Y734412D01*
X1068649Y738006D02*
X1067513D01*
X1067399Y736599*
X1067513Y736756*
X1067853Y736912*
X1068194*
X1068535Y736756*
X1068763Y736443*
X1068876Y735974*
X1068763Y735662*
X1068649Y735193*
X1068422Y734881*
X1068081Y734724*
X1067740*
X1067399Y734881*
X1067285Y735037*
X1067172Y735349*
X1064343Y721234D02*
X1064116Y721078D01*
X1063889Y720765*
X1063775Y720453*
X1063661Y719984*
Y719203*
X1063775Y718734*
X1063889Y718422*
X1064116Y718109*
X1064343Y717953*
X1064798*
X1065025Y718109*
X1065252Y718422*
X1065366Y718734*
X1065480Y719203*
Y719984*
X1065366Y720453*
X1065252Y720765*
X1065025Y721078*
X1064798Y721234*
X1064343*
X1064684Y718578D02*
X1065366Y717640D01*
X1066616Y720453D02*
Y720609D01*
X1066730Y720922*
X1066843Y721078*
X1067071Y721234*
X1067525*
X1067752Y721078*
X1067866Y720922*
X1067980Y720609*
Y720297*
X1067866Y719984*
X1067639Y719515*
X1066502Y717953*
X1068093*
X1059461Y702140D02*
X1059234Y701983D01*
X1059007Y701671*
X1058893Y701358*
X1058780Y700890*
Y700108*
X1058893Y699640*
X1059007Y699327*
X1059234Y699015*
X1059461Y698858*
X1059916*
X1060143Y699015*
X1060370Y699327*
X1060484Y699640*
X1060598Y700108*
Y700890*
X1060484Y701358*
X1060370Y701671*
X1060143Y701983*
X1059916Y702140*
X1059461*
X1059802Y699483D02*
X1060484Y698546D01*
X1061620Y701515D02*
X1061848Y701671D01*
X1062189Y702140*
Y698858*
X1059304Y684108D02*
X1059077Y683952D01*
X1058849Y683639*
X1058736Y683327*
X1058622Y682858*
Y682077*
X1058736Y681608*
X1058849Y681296*
X1059077Y680983*
X1059304Y680827*
X1059758*
X1059986Y680983*
X1060213Y681296*
X1060327Y681608*
X1060440Y682077*
Y682858*
X1060327Y683327*
X1060213Y683639*
X1059986Y683952*
X1059758Y684108*
X1059304*
X1059645Y681452D02*
X1060327Y680514D01*
X1061690Y684108D02*
X1062940D01*
X1062258Y682858*
X1062599*
X1062827Y682702*
X1062940Y682546*
X1063054Y682077*
Y681764*
X1062940Y681296*
X1062713Y680983*
X1062372Y680827*
X1062031*
X1061690Y680983*
X1061577Y681139*
X1061463Y681452*
X957953Y415250D02*
Y411969D01*
Y415250D02*
X958748D01*
X959089Y415094*
X959316Y414781*
X959430Y414469*
X959544Y414000*
Y413219*
X959430Y412750*
X959316Y412437*
X959089Y412125*
X958748Y411969*
X957953*
X961703Y415250D02*
X960566Y413062D01*
X962271*
X961703Y415250D02*
Y411969D01*
X961850Y777691D02*
Y774409D01*
Y777691D02*
X962646D01*
X962987Y777534*
X963214Y777222*
X963328Y776909*
X963441Y776441*
Y775659*
X963328Y775191*
X963214Y774878*
X962987Y774566*
X962646Y774409*
X961850*
X964464Y777066D02*
X964691Y777222D01*
X965032Y777691*
Y774409*
X1112087Y412769D02*
Y409488D01*
Y412769D02*
X1112882D01*
X1113223Y412613*
X1113450Y412301*
X1113564Y411988*
X1113678Y411519*
Y410738*
X1113564Y410269*
X1113450Y409957*
X1113223Y409644*
X1112882Y409488*
X1112087*
X1114928Y412769D02*
X1116178D01*
X1115496Y411519*
X1115837*
X1116064Y411363*
X1116178Y411207*
X1116291Y410738*
Y410426*
X1116178Y409957*
X1115950Y409644*
X1115609Y409488*
X1115268*
X1114928Y409644*
X1114814Y409801*
X1114700Y410113*
X1293695Y403911D02*
Y401411D01*
X1293582Y400942*
X1293468Y400786*
X1293241Y400630*
X1293014*
X1292786Y400786*
X1292673Y400942*
X1292559Y401411*
Y401724*
X1294945Y403911D02*
X1296195D01*
X1295514Y402661*
X1295855*
X1296082Y402505*
X1296195Y402349*
X1296309Y401880*
Y401567*
X1296195Y401099*
X1295968Y400786*
X1295627Y400630*
X1295286*
X1294945Y400786*
X1294832Y400942*
X1294718Y401255*
X1331904Y452258D02*
Y449305D01*
Y452258D02*
X1332699D01*
X1333040Y452118*
X1333267Y451836*
X1333381Y451555*
X1333494Y451133*
Y450430*
X1333381Y450008*
X1333267Y449727*
X1333040Y449446*
X1332699Y449305*
X1331904*
X1335994Y452258D02*
X1334858D01*
X1334744Y450993*
X1334858Y451133*
X1335199Y451274*
X1335540*
X1335881Y451133*
X1336108Y450852*
X1336222Y450430*
X1336108Y450149*
X1335994Y449727*
X1335767Y449446*
X1335426Y449305*
X1335085*
X1334744Y449446*
X1334631Y449586*
X1334517Y449868*
X916116Y765110D02*
X912835D01*
X916116Y765906D02*
Y764315D01*
Y761701D02*
X912835Y762837D01*
X916116Y763292D02*
Y761701D01*
X899895Y765228D02*
X896614D01*
X899895Y766024D02*
Y764433D01*
X899270Y763410D02*
X899427Y763183D01*
X899895Y762842*
X896614*
X899895Y760683D02*
X897708Y761819D01*
Y760115*
X899895Y760683D02*
X896614D01*
X907927Y765110D02*
X904646D01*
X907927Y765906D02*
Y764315D01*
X907302Y763292D02*
X907458Y763065D01*
X907927Y762724*
X904646*
X907302Y761701D02*
X907458Y761474D01*
X907927Y761133*
X904646*
X924029Y765228D02*
X920748D01*
X924029Y766024D02*
Y764433D01*
X923404Y763410D02*
X923561Y763183D01*
X924029Y762842*
X920748*
X924029Y760342D02*
Y761478D01*
X922623Y761592*
X922779Y761478*
X922936Y761137*
Y760796*
X922779Y760455*
X922467Y760228*
X921998Y760115*
X921686Y760228*
X921217Y760342*
X920904Y760569*
X920748Y760910*
Y761251*
X920904Y761592*
X921061Y761705*
X921373Y761819*
X1218898Y635958D02*
Y633615D01*
X1219011Y633146*
X1219239Y632833*
X1219579Y632677*
X1219807*
X1220148Y632833*
X1220375Y633146*
X1220489Y633615*
Y635958*
X1222079D02*
X1221739Y635802D01*
X1221625Y635490*
Y635177*
X1221739Y634865*
X1221966Y634708*
X1222420Y634552*
X1222761Y634396*
X1222989Y634083*
X1223102Y633771*
Y633302*
X1222989Y632990*
X1222875Y632833*
X1222534Y632677*
X1222079*
X1221739Y632833*
X1221625Y632990*
X1221511Y633302*
Y633771*
X1221625Y634083*
X1221852Y634396*
X1222193Y634552*
X1222648Y634708*
X1222875Y634865*
X1222989Y635177*
Y635490*
X1222875Y635802*
X1222534Y635958*
X1222079*
X1264823Y615343D02*
X1265135Y615456D01*
X1265448Y615684*
X1265604Y615911*
Y616365*
X1265448Y616593*
X1265135Y616820*
X1264823Y616934*
X1264354Y617047*
X1263573*
X1263104Y616934*
X1262792Y616820*
X1262479Y616593*
X1262323Y616365*
Y615911*
X1262479Y615684*
X1262792Y615456*
X1263104Y615343*
X1264823Y614206D02*
X1264979D01*
X1265292Y614093*
X1265448Y613979*
X1265604Y613752*
Y613297*
X1265448Y613070*
X1265292Y612956*
X1264979Y612843*
X1264667*
X1264354Y612956*
X1263885Y613184*
X1262323Y614320*
Y612729*
X1264823Y611593D02*
X1264979D01*
X1265292Y611479*
X1265448Y611365*
X1265604Y611138*
Y610684*
X1265448Y610456*
X1265292Y610343*
X1264979Y610229*
X1264667*
X1264354Y610343*
X1263885Y610570*
X1262323Y611706*
Y610115*
X1138242Y762559D02*
X1134961D01*
X1138242D02*
Y761536D01*
X1138086Y761195*
X1137929Y761082*
X1137617Y760968*
X1137304*
X1136992Y761082*
X1136836Y761195*
X1136679Y761536*
Y762559*
Y761764D02*
X1134961Y760968D01*
X1137617Y759945D02*
X1137773Y759718D01*
X1138242Y759377*
X1134961*
X1138242Y757673D02*
X1138086Y758014D01*
X1137617Y758241*
X1136836Y758355*
X1136367*
X1135586Y758241*
X1135117Y758014*
X1134961Y757673*
Y757445*
X1135117Y757105*
X1135586Y756877*
X1136367Y756764*
X1136836*
X1137617Y756877*
X1138086Y757105*
X1138242Y757445*
Y757673*
X1066496Y413360D02*
Y410079D01*
Y413360D02*
X1067519D01*
X1067860Y413204*
X1067973Y413047*
X1068087Y412735*
Y412422*
X1067973Y412110*
X1067860Y411954*
X1067519Y411797*
X1066496*
X1067292D02*
X1068087Y410079D01*
X1069110Y412735D02*
X1069337Y412891D01*
X1069678Y413360*
Y410079*
X1072178Y413360D02*
X1071042D01*
X1070928Y411954*
X1071042Y412110*
X1071382Y412266*
X1071723*
X1072064Y412110*
X1072292Y411797*
X1072405Y411329*
X1072292Y411016*
X1072178Y410547*
X1071951Y410235*
X1071610Y410079*
X1071269*
X1070928Y410235*
X1070814Y410391*
X1070701Y410704*
X1076549Y706772D02*
X1073268D01*
X1076549D02*
Y705749D01*
X1076393Y705408*
X1076236Y705294*
X1075924Y705181*
X1075611*
X1075299Y705294*
X1075143Y705408*
X1074986Y705749*
Y706772*
Y705976D02*
X1073268Y705181D01*
X1076080Y702794D02*
X1076393Y702908D01*
X1076549Y703249*
Y703476*
X1076393Y703817*
X1075924Y704044*
X1075143Y704158*
X1074361*
X1073736Y704044*
X1073424Y703817*
X1073268Y703476*
Y703363*
X1073424Y703022*
X1073736Y702794*
X1074205Y702681*
X1074361*
X1074830Y702794*
X1075143Y703022*
X1075299Y703363*
Y703476*
X1075143Y703817*
X1074830Y704044*
X1074361Y704158*
X1041037Y716102D02*
X1037756D01*
X1041037D02*
Y715080D01*
X1040881Y714739*
X1040725Y714625*
X1040412Y714511*
X1040100*
X1039787Y714625*
X1039631Y714739*
X1039475Y715080*
Y716102*
Y715307D02*
X1037756Y714511D01*
X1041037Y711898D02*
X1037756Y713034D01*
X1041037Y713489D02*
Y711898D01*
X1076431Y744331D02*
X1073150D01*
X1076431D02*
Y743308D01*
X1076275Y742967*
X1076118Y742853*
X1075806Y742740*
X1075493*
X1075181Y742853*
X1075025Y742967*
X1074868Y743308*
Y744331*
Y743535D02*
X1073150Y742740D01*
X1076431Y741149D02*
X1076275Y741490D01*
X1075962Y741603*
X1075650*
X1075337Y741490*
X1075181Y741263*
X1075025Y740808*
X1074868Y740467*
X1074556Y740240*
X1074243Y740126*
X1073775*
X1073462Y740240*
X1073306Y740353*
X1073150Y740694*
Y741149*
X1073306Y741490*
X1073462Y741603*
X1073775Y741717*
X1074243*
X1074556Y741603*
X1074868Y741376*
X1075025Y741035*
X1075181Y740581*
X1075337Y740353*
X1075650Y740240*
X1075962*
X1076275Y740353*
X1076431Y740694*
Y741149*
X1046746Y742953D02*
X1043465D01*
X1046746D02*
Y741930D01*
X1046590Y741589*
X1046433Y741475*
X1046121Y741362*
X1045808*
X1045496Y741475*
X1045340Y741589*
X1045183Y741930*
Y742953*
Y742157D02*
X1043465Y741362D01*
X1045652Y738862D02*
X1045183Y738975D01*
X1044871Y739203*
X1044715Y739544*
Y739657*
X1044871Y739998*
X1045183Y740225*
X1045652Y740339*
X1045808*
X1046277Y740225*
X1046590Y739998*
X1046746Y739657*
Y739544*
X1046590Y739203*
X1046277Y738975*
X1045652Y738862*
X1044871*
X1044090Y738975*
X1043621Y739203*
X1043465Y739544*
Y739771*
X1043621Y740112*
X1043933Y740225*
X832205Y410683D02*
Y407402D01*
Y410683D02*
X833114Y407402D01*
X834023Y410683D02*
X833114Y407402D01*
X834023Y410683D02*
Y407402D01*
X835046Y410058D02*
X835273Y410214D01*
X835614Y410683*
Y407402*
X832795Y575565D02*
Y572283D01*
Y575565D02*
X833704Y572283D01*
X834613Y575565D02*
X833704Y572283D01*
X834613Y575565D02*
Y572283D01*
X835750Y574783D02*
Y574940D01*
X835863Y575252*
X835977Y575408*
X836204Y575565*
X836659*
X836886Y575408*
X837000Y575252*
X837113Y574940*
Y574627*
X837000Y574315*
X836773Y573846*
X835636Y572283*
X837227*
X1214843Y576431D02*
Y573150D01*
Y576431D02*
X1215752Y573150D01*
X1216661Y576431D02*
X1215752Y573150D01*
X1216661Y576431D02*
Y573150D01*
X1217911Y576431D02*
X1219161D01*
X1218479Y575181*
X1218820*
X1219047Y575025*
X1219161Y574868*
X1219274Y574400*
Y574087*
X1219161Y573618*
X1218933Y573306*
X1218593Y573150*
X1218252*
X1217911Y573306*
X1217797Y573462*
X1217683Y573775*
X1215157Y410998D02*
Y407717D01*
Y410998D02*
X1216067Y407717D01*
X1216976Y410998D02*
X1216067Y407717D01*
X1216976Y410998D02*
Y407717D01*
X1219135Y410998D02*
X1217998Y408810D01*
X1219703*
X1219135Y410998D02*
Y407717D01*
X1369540Y766876D02*
Y763595D01*
Y766876D02*
X1370449Y763595D01*
X1371358Y766876D02*
X1370449Y763595D01*
X1371358Y766876D02*
Y763595D01*
X1373858Y766876D02*
X1372722D01*
X1372608Y765470*
X1372722Y765626*
X1373062Y765782*
X1373403*
X1373744Y765626*
X1373972Y765313*
X1374085Y764845*
X1373972Y764532*
X1373858Y764063*
X1373631Y763751*
X1373290Y763595*
X1372949*
X1372608Y763751*
X1372494Y763907*
X1372381Y764220*
X1360197Y410486D02*
Y407205D01*
Y410486D02*
X1361106Y407205D01*
X1362015Y410486D02*
X1361106Y407205D01*
X1362015Y410486D02*
Y407205D01*
X1364401Y410017D02*
X1364288Y410330D01*
X1363947Y410486*
X1363720*
X1363379Y410330*
X1363151Y409861*
X1363038Y409080*
Y408298*
X1363151Y407673*
X1363379Y407361*
X1363720Y407205*
X1363833*
X1364174Y407361*
X1364401Y407673*
X1364515Y408142*
Y408298*
X1364401Y408767*
X1364174Y409080*
X1363833Y409236*
X1363720*
X1363379Y409080*
X1363151Y408767*
X1363038Y408298*
X802441Y773360D02*
Y770079D01*
Y773360D02*
X803350Y770079D01*
X804259Y773360D02*
X803350Y770079D01*
X804259Y773360D02*
Y770079D01*
X806873Y773360D02*
X805736Y770079D01*
X805282Y773360D02*
X806873D01*
X801457Y410958D02*
Y407677D01*
Y410958D02*
X802366Y407677D01*
X803275Y410958D02*
X802366Y407677D01*
X803275Y410958D02*
Y407677D01*
X804866Y410958D02*
X804525Y410802D01*
X804411Y410490*
Y410177*
X804525Y409865*
X804752Y409708*
X805207Y409552*
X805548Y409396*
X805775Y409083*
X805889Y408771*
Y408302*
X805775Y407990*
X805661Y407833*
X805320Y407677*
X804866*
X804525Y407833*
X804411Y407990*
X804298Y408302*
Y408771*
X804411Y409083*
X804639Y409396*
X804979Y409552*
X805434Y409708*
X805661Y409865*
X805775Y410177*
Y410490*
X805661Y410802*
X805320Y410958*
X804866*
X1077126Y556877D02*
Y555002D01*
X1077217Y554627*
X1077399Y554377*
X1077671Y554252*
X1077853*
X1078126Y554377*
X1078308Y554627*
X1078399Y555002*
Y556877*
X1080308Y556502D02*
X1080217Y556752D01*
X1079944Y556877*
X1079762*
X1079490Y556752*
X1079308Y556377*
X1079217Y555752*
Y555127*
X1079308Y554627*
X1079490Y554377*
X1079762Y554252*
X1079853*
X1080126Y554377*
X1080308Y554627*
X1080399Y555002*
Y555127*
X1080308Y555502*
X1080126Y555752*
X1079853Y555877*
X1079762*
X1079490Y555752*
X1079308Y555502*
X1079217Y555127*
X993268Y748216D02*
Y746341D01*
X993359Y745966*
X993540Y745716*
X993813Y745591*
X993995*
X994268Y745716*
X994450Y745966*
X994540Y746341*
Y748216*
X995450Y747591D02*
Y747716D01*
X995540Y747966*
X995631Y748091*
X995813Y748216*
X996177*
X996359Y748091*
X996450Y747966*
X996540Y747716*
Y747466*
X996450Y747216*
X996268Y746841*
X995359Y745591*
X996631*
X994213Y556562D02*
Y554687D01*
X994304Y554312*
X994485Y554062*
X994758Y553937*
X994940*
X995213Y554062*
X995394Y554312*
X995485Y554687*
Y556562*
X997576D02*
X996667Y553937D01*
X996304Y556562D02*
X997576D01*
X1268079Y754378D02*
X1267965Y754690D01*
X1267738Y755003*
X1267510Y755159*
X1267056*
X1266829Y755003*
X1266601Y754690*
X1266488Y754378*
X1266374Y753909*
Y753128*
X1266488Y752659*
X1266601Y752347*
X1266829Y752034*
X1267056Y751878*
X1267510*
X1267738Y752034*
X1267965Y752347*
X1268079Y752659*
X1269101Y754534D02*
X1269329Y754690D01*
X1269669Y755159*
Y751878*
X1272283Y755159D02*
X1271147Y751878D01*
X1270692Y755159D02*
X1272283D01*
X1301803Y734063D02*
X1301689Y734375D01*
X1301462Y734688*
X1301235Y734844*
X1300780*
X1300553Y734688*
X1300326Y734375*
X1300212Y734063*
X1300098Y733594*
Y732813*
X1300212Y732344*
X1300326Y732032*
X1300553Y731719*
X1300780Y731563*
X1301235*
X1301462Y731719*
X1301689Y732032*
X1301803Y732344*
X1302939Y734063D02*
Y734219D01*
X1303053Y734532*
X1303167Y734688*
X1303394Y734844*
X1303848*
X1304076Y734688*
X1304189Y734532*
X1304303Y734219*
Y733907*
X1304189Y733594*
X1303962Y733125*
X1302826Y731563*
X1304417*
X1305439Y734219D02*
X1305667Y734375D01*
X1306008Y734844*
Y731563*
X1235681Y745118D02*
X1235567Y745431D01*
X1235340Y745743*
X1235113Y745899*
X1234658*
X1234431Y745743*
X1234204Y745431*
X1234090Y745118*
X1233976Y744649*
Y743868*
X1234090Y743399*
X1234204Y743087*
X1234431Y742774*
X1234658Y742618*
X1235113*
X1235340Y742774*
X1235567Y743087*
X1235681Y743399*
X1236704Y745274D02*
X1236931Y745431D01*
X1237272Y745899*
Y742618*
X1238522Y745899D02*
X1239772D01*
X1239090Y744649*
X1239431*
X1239658Y744493*
X1239772Y744337*
X1239885Y743868*
Y743556*
X1239772Y743087*
X1239545Y742774*
X1239204Y742618*
X1238863*
X1238522Y742774*
X1238408Y742931*
X1238295Y743243*
X1237661Y719898D02*
X1237548Y720210D01*
X1237320Y720523*
X1237093Y720679*
X1236639*
X1236411Y720523*
X1236184Y720210*
X1236070Y719898*
X1235957Y719429*
Y718648*
X1236070Y718179*
X1236184Y717866*
X1236411Y717554*
X1236639Y717398*
X1237093*
X1237320Y717554*
X1237548Y717866*
X1237661Y718179*
X1238684Y720054D02*
X1238911Y720210D01*
X1239252Y720679*
Y717398*
X1241752Y720679D02*
X1240616D01*
X1240502Y719273*
X1240616Y719429*
X1240957Y719585*
X1241298*
X1241639Y719429*
X1241866Y719116*
X1241979Y718648*
X1241866Y718335*
X1241752Y717866*
X1241525Y717554*
X1241184Y717398*
X1240843*
X1240502Y717554*
X1240389Y717710*
X1240275Y718023*
X1256069Y765185D02*
X1252787D01*
X1256069D02*
Y764162D01*
X1255912Y763821*
X1255756Y763708*
X1255444Y763594*
X1255131*
X1254819Y763708*
X1254662Y763821*
X1254506Y764162*
Y765185*
Y764390D02*
X1252787Y763594D01*
X1255287Y762458D02*
X1255444D01*
X1255756Y762344*
X1255912Y762230*
X1256069Y762003*
Y761549*
X1255912Y761321*
X1255756Y761208*
X1255444Y761094*
X1255131*
X1254819Y761208*
X1254350Y761435*
X1252787Y762571*
Y760980*
X1256069Y759276D02*
X1255912Y759617D01*
X1255444Y759844*
X1254662Y759958*
X1254194*
X1253412Y759844*
X1252944Y759617*
X1252787Y759276*
Y759049*
X1252944Y758708*
X1253412Y758480*
X1254194Y758367*
X1254662*
X1255444Y758480*
X1255912Y758708*
X1256069Y759049*
Y759276*
X1248894Y743234D02*
Y739953D01*
Y743234D02*
X1249916D01*
X1250257Y743078*
X1250371Y742922*
X1250485Y742609*
Y742297*
X1250371Y741984*
X1250257Y741828*
X1249916Y741672*
X1248894*
X1249689D02*
X1250485Y739953D01*
X1251621Y742453D02*
Y742609D01*
X1251735Y742922*
X1251848Y743078*
X1252076Y743234*
X1252530*
X1252757Y743078*
X1252871Y742922*
X1252985Y742609*
Y742297*
X1252871Y741984*
X1252644Y741515*
X1251507Y739953*
X1253098*
X1255598Y743234D02*
X1254462D01*
X1254348Y741828*
X1254462Y741984*
X1254803Y742140*
X1255144*
X1255485Y741984*
X1255712Y741672*
X1255826Y741203*
X1255712Y740890*
X1255598Y740422*
X1255371Y740109*
X1255030Y739953*
X1254689*
X1254348Y740109*
X1254235Y740265*
X1254121Y740578*
X1286193Y712537D02*
Y710193D01*
X1286307Y709725*
X1286534Y709412*
X1286875Y709256*
X1287102*
X1287443Y709412*
X1287670Y709725*
X1287784Y710193*
Y712537*
X1288807Y711912D02*
X1289034Y712068D01*
X1289375Y712537*
Y709256*
X1290397Y711912D02*
X1290625Y712068D01*
X1290966Y712537*
Y709256*
X1226557Y782141D02*
Y780501D01*
X1226648Y780173*
X1226830Y779954*
X1227103Y779844*
X1227284*
X1227557Y779954*
X1227739Y780173*
X1227830Y780501*
Y782141*
X1229830Y781376D02*
X1229739Y781048D01*
X1229557Y780829*
X1229284Y780719*
X1229193*
X1228921Y780829*
X1228739Y781048*
X1228648Y781376*
Y781485*
X1228739Y781813*
X1228921Y782032*
X1229193Y782141*
X1229284*
X1229557Y782032*
X1229739Y781813*
X1229830Y781376*
Y780829*
X1229739Y780282*
X1229557Y779954*
X1229284Y779844*
X1229103*
X1228830Y779954*
X1228739Y780173*
X1275023Y767638D02*
Y765763D01*
X1275113Y765388*
X1275295Y765138*
X1275568Y765013*
X1275750*
X1276023Y765138*
X1276204Y765388*
X1276295Y765763*
Y767638*
X1277113Y767138D02*
X1277295Y767263D01*
X1277568Y767638*
Y765013*
X1278932Y767638D02*
X1278659Y767513D01*
X1278477Y767138*
X1278386Y766513*
Y766138*
X1278477Y765513*
X1278659Y765138*
X1278932Y765013*
X1279113*
X1279386Y765138*
X1279568Y765513*
X1279659Y766138*
Y766513*
X1279568Y767138*
X1279386Y767513*
X1279113Y767638*
X1278932*
X1267677Y743394D02*
X1267563Y743706D01*
X1267336Y744019*
X1267109Y744175*
X1266654*
X1266427Y744019*
X1266200Y743706*
X1266086Y743394*
X1265972Y742925*
Y742144*
X1266086Y741675*
X1266200Y741362*
X1266427Y741050*
X1266654Y740894*
X1267109*
X1267336Y741050*
X1267563Y741362*
X1267677Y741675*
X1268700Y743550D02*
X1268927Y743706D01*
X1269268Y744175*
Y740894*
X1271654Y743706D02*
X1271541Y744019D01*
X1271200Y744175*
X1270972*
X1270632Y744019*
X1270404Y743550*
X1270291Y742769*
Y741987*
X1270404Y741362*
X1270632Y741050*
X1270972Y740894*
X1271086*
X1271427Y741050*
X1271654Y741362*
X1271768Y741831*
Y741987*
X1271654Y742456*
X1271427Y742769*
X1271086Y742925*
X1270972*
X1270632Y742769*
X1270404Y742456*
X1270291Y741987*
X1301012Y728409D02*
X1300898Y728722D01*
X1300671Y729034*
X1300443Y729191*
X1299989*
X1299762Y729034*
X1299534Y728722*
X1299421Y728409*
X1299307Y727941*
Y727159*
X1299421Y726691*
X1299534Y726378*
X1299762Y726066*
X1299989Y725909*
X1300443*
X1300671Y726066*
X1300898Y726378*
X1301012Y726691*
X1302148Y728409D02*
Y728566D01*
X1302262Y728878*
X1302375Y729034*
X1302603Y729191*
X1303057*
X1303284Y729034*
X1303398Y728878*
X1303512Y728566*
Y728253*
X1303398Y727941*
X1303171Y727472*
X1302034Y725909*
X1303625*
X1305330Y729191D02*
X1304989Y729034D01*
X1304762Y728566*
X1304648Y727784*
Y727316*
X1304762Y726534*
X1304989Y726066*
X1305330Y725909*
X1305557*
X1305898Y726066*
X1306125Y726534*
X1306239Y727316*
Y727784*
X1306125Y728566*
X1305898Y729034*
X1305557Y729191*
X1305330*
X1241094Y754555D02*
X1240981Y754868D01*
X1240753Y755180*
X1240526Y755336*
X1240072*
X1239844Y755180*
X1239617Y754868*
X1239503Y754555*
X1239390Y754086*
Y753305*
X1239503Y752836*
X1239617Y752524*
X1239844Y752211*
X1240072Y752055*
X1240526*
X1240753Y752211*
X1240981Y752524*
X1241094Y752836*
X1242117Y754711D02*
X1242344Y754868D01*
X1242685Y755336*
Y752055*
X1244844Y755336D02*
X1243708Y753149D01*
X1245412*
X1244844Y755336D02*
Y752055D01*
X1270689Y727905D02*
Y725280D01*
Y727905D02*
X1271507D01*
X1271780Y727780*
X1271871Y727655*
X1271962Y727405*
Y727155*
X1271871Y726905*
X1271780Y726780*
X1271507Y726655*
X1270689*
X1271325D02*
X1271962Y725280D01*
X1272780Y727405D02*
X1272962Y727530D01*
X1273234Y727905*
Y725280*
X1275325Y727905D02*
X1274416Y725280D01*
X1274053Y727905D02*
X1275325D01*
X1299807Y745912D02*
Y743287D01*
Y745912D02*
X1300625D01*
X1300898Y745787*
X1300989Y745662*
X1301080Y745412*
Y745162*
X1300989Y744912*
X1300898Y744787*
X1300625Y744662*
X1299807*
X1300443D02*
X1301080Y743287D01*
X1301898Y745412D02*
X1302080Y745537D01*
X1302353Y745912*
Y743287*
X1303625Y745912D02*
X1303353Y745787D01*
X1303262Y745537*
Y745287*
X1303353Y745037*
X1303534Y744912*
X1303898Y744787*
X1304171Y744662*
X1304353Y744412*
X1304443Y744162*
Y743787*
X1304353Y743537*
X1304262Y743412*
X1303989Y743287*
X1303625*
X1303353Y743412*
X1303262Y743537*
X1303171Y743787*
Y744162*
X1303262Y744412*
X1303443Y744662*
X1303716Y744787*
X1304080Y744912*
X1304262Y745037*
X1304353Y745287*
Y745537*
X1304262Y745787*
X1303989Y745912*
X1303625*
X1260633Y713130D02*
X1258008D01*
X1260633D02*
Y712312D01*
X1260508Y712039*
X1260383Y711948*
X1260133Y711857*
X1259883*
X1259633Y711948*
X1259508Y712039*
X1259383Y712312*
Y713130*
Y712494D02*
X1258008Y711857D01*
X1260008Y710948D02*
X1260133D01*
X1260383Y710857*
X1260508Y710766*
X1260633Y710584*
Y710221*
X1260508Y710039*
X1260383Y709948*
X1260133Y709857*
X1259883*
X1259633Y709948*
X1259258Y710130*
X1258008Y711039*
Y709766*
X1260633Y708766D02*
Y707766D01*
X1259633Y708312*
Y708039*
X1259508Y707857*
X1259383Y707766*
X1259008Y707675*
X1258758*
X1258383Y707766*
X1258133Y707948*
X1258008Y708221*
Y708494*
X1258133Y708766*
X1258258Y708857*
X1258508Y708948*
X1302858Y764723D02*
Y762098D01*
Y764723D02*
X1303676D01*
X1303949Y764598*
X1304040Y764473*
X1304131Y764223*
Y763973*
X1304040Y763723*
X1303949Y763598*
X1303676Y763473*
X1302858*
X1303495D02*
X1304131Y762098D01*
X1305040Y764098D02*
Y764223D01*
X1305131Y764473*
X1305222Y764598*
X1305404Y764723*
X1305767*
X1305949Y764598*
X1306040Y764473*
X1306131Y764223*
Y763973*
X1306040Y763723*
X1305858Y763348*
X1304949Y762098*
X1306222*
X1308313Y764723D02*
X1307404Y762098D01*
X1307040Y764723D02*
X1308313D01*
X1236039Y725133D02*
Y722508D01*
Y725133D02*
X1236858D01*
X1237130Y725008*
X1237221Y724883*
X1237312Y724633*
Y724383*
X1237221Y724133*
X1237130Y724008*
X1236858Y723883*
X1236039*
X1236676D02*
X1237312Y722508D01*
X1239039Y725133D02*
X1238130Y723383D01*
X1239494*
X1239039Y725133D02*
Y722508D01*
X1240858Y725133D02*
X1240585Y725008D01*
X1240403Y724633*
X1240312Y724008*
Y723633*
X1240403Y723008*
X1240585Y722633*
X1240858Y722508*
X1241039*
X1241312Y722633*
X1241494Y723008*
X1241585Y723633*
Y724008*
X1241494Y724633*
X1241312Y725008*
X1241039Y725133*
X1240858*
X1250768Y754188D02*
Y751563D01*
X1251859*
X1252677Y753688D02*
X1252859Y753813D01*
X1253131Y754188*
Y751563*
X1265782Y749425D02*
X1263157D01*
Y748334*
X1265157Y747425D02*
X1265282D01*
X1265532Y747334*
X1265657Y747243*
X1265782Y747062*
Y746698*
X1265657Y746516*
X1265532Y746425*
X1265282Y746334*
X1265032*
X1264782Y746425*
X1264407Y746607*
X1263157Y747516*
Y746243*
X1298016Y754420D02*
Y751795D01*
Y754420D02*
X1298652D01*
X1298925Y754295*
X1299107Y754045*
X1299198Y753795*
X1299288Y753420*
Y752795*
X1299198Y752420*
X1299107Y752170*
X1298925Y751920*
X1298652Y751795*
X1298016*
X1300198Y753795D02*
Y753920D01*
X1300288Y754170*
X1300379Y754295*
X1300561Y754420*
X1300925*
X1301107Y754295*
X1301198Y754170*
X1301288Y753920*
Y753670*
X1301198Y753420*
X1301016Y753045*
X1300107Y751795*
X1301379*
X1324632Y665574D02*
X1324450Y665449D01*
X1324268Y665199*
X1324178Y664949*
X1324087Y664574*
Y663949*
X1324178Y663574*
X1324268Y663324*
X1324450Y663074*
X1324632Y662949*
X1324996*
X1325178Y663074*
X1325359Y663324*
X1325450Y663574*
X1325541Y663949*
Y664574*
X1325450Y664949*
X1325359Y665199*
X1325178Y665449*
X1324996Y665574*
X1324632*
X1324905Y663449D02*
X1325450Y662699D01*
X1327632Y665574D02*
X1326723Y662949D01*
X1326359Y665574D02*
X1327632D01*
X1325262Y642515D02*
X1325080Y642390D01*
X1324898Y642140*
X1324807Y641890*
X1324717Y641515*
Y640890*
X1324807Y640515*
X1324898Y640265*
X1325080Y640015*
X1325262Y639890*
X1325626*
X1325807Y640015*
X1325989Y640265*
X1326080Y640515*
X1326171Y640890*
Y641515*
X1326080Y641890*
X1325989Y642140*
X1325807Y642390*
X1325626Y642515*
X1325262*
X1325535Y640390D02*
X1326080Y639640D01*
X1327444Y642515D02*
X1327171Y642390D01*
X1327080Y642140*
Y641890*
X1327171Y641640*
X1327353Y641515*
X1327717Y641390*
X1327989Y641265*
X1328171Y641015*
X1328262Y640765*
Y640390*
X1328171Y640140*
X1328080Y640015*
X1327807Y639890*
X1327444*
X1327171Y640015*
X1327080Y640140*
X1326989Y640390*
Y640765*
X1327080Y641015*
X1327262Y641265*
X1327535Y641390*
X1327898Y641515*
X1328080Y641640*
X1328171Y641890*
Y642140*
X1328080Y642390*
X1327807Y642515*
X1327444*
X1360270Y686588D02*
Y684088D01*
X1360157Y683620*
X1360043Y683463*
X1359816Y683307*
X1359588*
X1359361Y683463*
X1359247Y683620*
X1359134Y684088*
Y684401*
X1362657Y686120D02*
X1362543Y686432D01*
X1362202Y686588*
X1361975*
X1361634Y686432*
X1361407Y685963*
X1361293Y685182*
Y684401*
X1361407Y683776*
X1361634Y683463*
X1361975Y683307*
X1362088*
X1362429Y683463*
X1362657Y683776*
X1362770Y684245*
Y684401*
X1362657Y684870*
X1362429Y685182*
X1362088Y685338*
X1361975*
X1361634Y685182*
X1361407Y684870*
X1361293Y684401*
X1353843Y582782D02*
Y580157D01*
Y582782D02*
X1354479D01*
X1354752Y582657*
X1354933Y582407*
X1355024Y582157*
X1355115Y581782*
Y581157*
X1355024Y580782*
X1354933Y580532*
X1354752Y580282*
X1354479Y580157*
X1353843*
X1355933Y582782D02*
Y580157D01*
X1357024*
X1370126Y666667D02*
Y663386D01*
X1369331Y666667D02*
X1370922D01*
X1371944D02*
X1373535Y663386D01*
Y666667D02*
X1371944Y663386D01*
X1374558Y666667D02*
Y663386D01*
Y666667D02*
X1375353D01*
X1375694Y666511*
X1375922Y666198*
X1376035Y665886*
X1376149Y665417*
Y664636*
X1376035Y664167*
X1375922Y663855*
X1375694Y663542*
X1375353Y663386*
X1374558*
X1369252Y677533D02*
Y674252D01*
Y677533D02*
X1370275D01*
X1370616Y677377*
X1370729Y677221*
X1370843Y676908*
Y676596*
X1370729Y676283*
X1370616Y676127*
X1370275Y675971*
X1369252*
X1370047D02*
X1370843Y674252D01*
X1371866Y677533D02*
X1373457Y674252D01*
Y677533D02*
X1371866Y674252D01*
X1374479Y677533D02*
Y674252D01*
Y677533D02*
X1375275D01*
X1375616Y677377*
X1375843Y677064*
X1375957Y676752*
X1376070Y676283*
Y675502*
X1375957Y675033*
X1375843Y674721*
X1375616Y674408*
X1375275Y674252*
X1374479*
X1371193Y656673D02*
X1371079Y656986D01*
X1370852Y657298*
X1370625Y657454*
X1370170*
X1369943Y657298*
X1369715Y656986*
X1369602Y656673*
X1369488Y656204*
Y655423*
X1369602Y654954*
X1369715Y654642*
X1369943Y654329*
X1370170Y654173*
X1370625*
X1370852Y654329*
X1371079Y654642*
X1371193Y654954*
Y655423*
X1370625D02*
X1371193D01*
X1372215Y657454D02*
Y654173D01*
Y657454D02*
X1373806Y654173D01*
Y657454D02*
Y654173D01*
X1374829Y657454D02*
Y654173D01*
Y657454D02*
X1375625D01*
X1375965Y657298*
X1376193Y656986*
X1376306Y656673*
X1376420Y656204*
Y655423*
X1376306Y654954*
X1376193Y654642*
X1375965Y654329*
X1375625Y654173*
X1374829*
X973031Y770420D02*
Y767795D01*
X974122*
X975577Y770420D02*
Y767795D01*
X974941Y770420D02*
X976213D01*
X977031D02*
Y767795D01*
Y770420D02*
X978213D01*
X977031Y769170D02*
X977759D01*
X977031Y767795D02*
X978213D01*
X1303976Y441023D02*
X1304158Y441148D01*
X1304431Y441523*
Y438898*
X1305340Y440898D02*
Y441023D01*
X1305431Y441273*
X1305522Y441398*
X1305704Y441523*
X1306067*
X1306249Y441398*
X1306340Y441273*
X1306431Y441023*
Y440773*
X1306340Y440523*
X1306158Y440148*
X1305249Y438898*
X1306522*
X1307340Y441523D02*
X1308067Y438898D01*
X1308795Y441523D02*
X1308067Y438898D01*
X1327230Y441252D02*
X1327139Y441502D01*
X1326957Y441752*
X1326775Y441877*
X1326412*
X1326230Y441752*
X1326048Y441502*
X1325957Y441252*
X1325866Y440877*
Y440252*
X1325957Y439877*
X1326048Y439627*
X1326230Y439377*
X1326412Y439252*
X1326775*
X1326957Y439377*
X1327139Y439627*
X1327230Y439877*
Y440252*
X1326775D02*
X1327230D01*
X1328048Y441877D02*
Y439252D01*
Y441877D02*
X1329321Y439252D01*
Y441877D02*
Y439252D01*
X1330139Y441877D02*
Y439252D01*
Y441877D02*
X1330775D01*
X1331048Y441752*
X1331230Y441502*
X1331321Y441252*
X1331412Y440877*
Y440252*
X1331321Y439877*
X1331230Y439627*
X1331048Y439377*
X1330775Y439252*
X1330139*
X1046339Y754357D02*
Y751732D01*
X1047429*
X1048884Y754357D02*
Y751732D01*
X1048248Y754357D02*
X1049520D01*
X1050339D02*
Y751732D01*
Y754357D02*
X1051520D01*
X1050339Y753107D02*
X1051066D01*
X1050339Y751732D02*
X1051520D01*
X1054429Y754357D02*
Y751732D01*
Y754357D02*
X1055248D01*
X1055520Y754232*
X1055611Y754107*
X1055702Y753857*
Y753607*
X1055611Y753357*
X1055520Y753232*
X1055248Y753107*
X1054429*
X1055066D02*
X1055702Y751732D01*
X1057793Y753982D02*
X1057611Y754232D01*
X1057339Y754357*
X1056975*
X1056702Y754232*
X1056520Y753982*
Y753732*
X1056611Y753482*
X1056702Y753357*
X1056884Y753232*
X1057429Y752982*
X1057611Y752857*
X1057702Y752732*
X1057793Y752482*
Y752107*
X1057611Y751857*
X1057339Y751732*
X1056975*
X1056702Y751857*
X1056520Y752107*
X1059248Y754357D02*
Y751732D01*
X1058611Y754357D02*
X1059884D01*
X1369567Y636628D02*
Y633346D01*
Y636628D02*
X1370362D01*
X1370703Y636471*
X1370931Y636159*
X1371044Y635846*
X1371158Y635378*
Y634596*
X1371044Y634128*
X1370931Y633815*
X1370703Y633503*
X1370362Y633346*
X1369567*
X1372976Y636628D02*
Y633346D01*
X1372181Y636628D02*
X1373771D01*
X1374794D02*
Y633346D01*
Y636628D02*
X1375817D01*
X1376158Y636471*
X1376271Y636315*
X1376385Y636003*
Y635690*
X1376271Y635378*
X1376158Y635221*
X1375817Y635065*
X1374794*
X1375590D02*
X1376385Y633346D01*
X1369370Y646391D02*
Y643110D01*
Y646391D02*
X1370393D01*
X1370734Y646235*
X1370847Y646079*
X1370961Y645766*
Y645454*
X1370847Y645141*
X1370734Y644985*
X1370393Y644829*
X1369370*
X1370166D02*
X1370961Y643110D01*
X1372779Y646391D02*
Y643110D01*
X1371984Y646391D02*
X1373575D01*
X1376188Y645923D02*
X1375961Y646235D01*
X1375620Y646391*
X1375166*
X1374825Y646235*
X1374597Y645923*
Y645610*
X1374711Y645298*
X1374825Y645141*
X1375052Y644985*
X1375734Y644673*
X1375961Y644516*
X1376075Y644360*
X1376188Y644048*
Y643579*
X1375961Y643266*
X1375620Y643110*
X1375166*
X1374825Y643266*
X1374597Y643579*
X1370887Y626549D02*
X1369750D01*
X1369637Y625143*
X1369750Y625299*
X1370091Y625455*
X1370432*
X1370773Y625299*
X1371000Y624986*
X1371114Y624518*
X1371000Y624205*
X1370887Y623736*
X1370659Y623424*
X1370319Y623268*
X1369978*
X1369637Y623424*
X1369523Y623580*
X1369409Y623893*
X1372137Y626549D02*
X1373046Y623268D01*
X1373955Y626549D02*
X1373046Y623268D01*
G54D69*
X1322508Y651307D02*
Y648354D01*
Y651307D02*
X1323428D01*
X1323735Y651167*
X1323837Y651026*
X1323940Y650745*
Y650464*
X1323837Y650182*
X1323735Y650042*
X1323428Y649901*
X1322508*
X1323224D02*
X1323940Y648354D01*
X1325065Y651307D02*
X1326190D01*
X1325576Y650182*
X1325883*
X1326087Y650042*
X1326190Y649901*
X1326292Y649479*
Y649198*
X1326190Y648776*
X1325985Y648495*
X1325678Y648354*
X1325372*
X1325065Y648495*
X1324962Y648636*
X1324860Y648917*
X1328440Y650886D02*
X1328337Y651167D01*
X1328031Y651307*
X1327826*
X1327519Y651167*
X1327315Y650745*
X1327212Y650042*
Y649339*
X1327315Y648776*
X1327519Y648495*
X1327826Y648354*
X1327928*
X1328235Y648495*
X1328440Y648776*
X1328542Y649198*
Y649339*
X1328440Y649761*
X1328235Y650042*
X1327928Y650182*
X1327826*
X1327519Y650042*
X1327315Y649761*
X1327212Y649339*
X1322823Y628122D02*
Y625169D01*
Y628122D02*
X1323743D01*
X1324050Y627982*
X1324152Y627841*
X1324255Y627560*
Y627279*
X1324152Y626997*
X1324050Y626857*
X1323743Y626716*
X1322823*
X1323539D02*
X1324255Y625169D01*
X1325380Y628122D02*
X1326505D01*
X1325891Y626997*
X1326198*
X1326402Y626857*
X1326505Y626716*
X1326607Y626294*
Y626013*
X1326505Y625591*
X1326300Y625310*
X1325993Y625169*
X1325686*
X1325380Y625310*
X1325277Y625451*
X1325175Y625732*
X1328959Y628122D02*
X1327936Y625169D01*
X1327527Y628122D02*
X1328959D01*
G74*
X0Y0D02*
M02*
