M48
;Layer_Color=9474304
;FILE_FORMAT=2:5
INCH,LZ
;TYPE=PLATED
T1F00S00C0.01200
T2F00S00C0.01299
T3F00S00C0.01968
T4F00S00C0.02000
T5F00S00C0.02500
T6F00S00C0.03000
T7F00S00C0.03543
T8F00S00C0.03937
T9F00S00C0.04724
T10F00S00C0.05118
T11F00S00C0.08661
;TYPE=NON_PLATED
T12F00S00C0.01968
%
T01
X02656Y-00169
X02679Y-00098
X02683Y00027
X02721Y00055
X02773Y00076
X0278Y00032
X02789Y00175
X02835Y00174
X02887
X02936
X02982Y00175
X03032Y00173
X03042Y00135
X03029Y00112
X02972Y00118
X02902Y00254
X0288Y00414
X02913Y00449
X02915Y00481
X02916Y00517
X02984Y00514
X03046Y0051
X02968Y00387
X02787Y00444
X0260295Y0028205
X03142Y00236
X03194Y00232
X03171Y00187
X0322
X0331Y00227
X03373Y00196
X03389Y00096
X0348Y00107
X03536Y00045
X03588Y00096
X03569Y-00094
X03575Y-00158
X03465Y-00108
X03376Y-00113
X03305Y-0013
X03299Y-00062
X03208Y-00081
X03252Y-00181
X03424Y-00179
X0342Y-00051
X03514Y-00048
X03318Y00051
X031724Y000904
X03043Y-0007
X0297Y-00105
X02941Y-00181
X02818Y-00166
X02821Y-00106
X02854Y-00067
X02952Y00797
X03086Y00889
X02627
X02671Y00962
X03621Y00904
X03684Y00865
X03769Y00931
X03804Y00704
X03642Y00726
X03617Y00765
X035Y00758
X0347Y00488
X0348Y00364
X03585Y00368
X03538Y00415
X03638Y00562
X02404Y00559
X02317Y00578
X02381Y00735
X02357Y00869
X0235679Y0093221
X024818Y009272
X02417Y00377
X023747Y002697
X02323Y00279
X02246Y00291
X02182Y00356
X02109Y00297
X02029Y00281
X01881Y00266
X0181548Y00197
X01805Y00098
X0185Y00032
X01899Y-00059
X01858Y-00121
X02014Y-00161
X02054Y-00054
X0214732Y-0007569
X0232352Y-0005548
X0231Y00095
X0240029Y0007571
X02443Y00126
X02525Y0021
X0214779Y002292
X02094Y00099
X01925Y00124
X01694Y00218
X01509Y00333
X01506Y0037732
X01406Y00358
X0143037Y0043437
X0126631Y0034168
X01418Y00139
X0149732Y-0002035
X0146003Y-0007003
X0146009Y-0012909
X0126466Y-0005535
X0108957Y-0014457
X0102865Y-0014465
Y-0002035
X01009Y00759
X01055Y00802
X01093Y00767
X01077Y00879
X01014Y00886
X01241Y00904
X01272Y00901
X0124008Y0094008
X01414Y00946
X01413Y00887
X01459Y00888
X0144147Y0084053
X01403Y00842
X0153989Y0083711
X0161863Y0084637
X01592Y00885
X01627Y00907
X01686Y00915
X01745Y00883
X01834Y00933
X0185531Y0082631
X02014Y0077
X02004Y00584
X0188
X0176Y00526
X0174669Y0047631
X01666Y00537
X01368Y00663
X02157Y0048
X02235Y00438
X00753Y00433
X00767Y00363
X00727Y00202
X0055Y00358
X00576Y00394
X00548Y00499
X00406Y00579
X00378Y00583
X00683Y00638
X0068447Y0068947
X00822Y00628
X00889Y00601
X0084618Y0055582
X0085Y00787
X00955Y00751
X00991Y-00053
X00956Y-00139
X00926Y-00182
X00841Y-00185
X00864Y-00141
X00789
X00713Y-00139
X00633Y-00136
X00572Y-00116
X00567Y-0018
X00664Y-00197
X00751Y-00192
X00667Y-00073
X00159Y-00033
X00155Y-00141
X00326Y01123
X0037Y01083
X00461Y0109653
X0067373Y0102173
X00644Y01251
X00656Y01332
X00708Y01349
X00682Y01396
X00736Y01398
X00609Y01398
X00543
X00528Y01348
X00573Y01317
X0085462Y01287
X00667Y01741
X00817Y01955
X00788Y0204
X00997Y02021
X-00002Y01781
Y01676
X00004Y01585
X0Y01492
X-00012Y01379
X-0001Y01306
X-00006Y01192
X0102Y01225
X01018Y01308
X01037Y01413
X011Y01411
X010982Y014388
X01145Y01425
X0126Y01321
X01221Y01262
X0124Y01161
X01244Y01038
X0124305Y0100495
X01245Y00977
X01491Y00969
X01437Y01046
X01738Y0104
X01706Y01131
X01707Y01221
X01745Y01278
X01684Y01302
X0158132Y0129332
X01592Y01226
X0183Y0116
X0200311Y0118211
X02017Y01266
X02018Y012967
X01993Y01316
X01919Y01388
X01959Y01465
X0210474Y0150426
X0217Y01452
X02385Y0147
X02382Y01647
X0221406Y0168905
X02109Y01626
X0202832Y0174268
X019Y01754
X01906Y01823
X01824Y01845
X01682Y01849
X01536Y01851
X01353Y0183
X01345Y01747
X01347Y01655
X01269Y01597
X01504Y01596
X01709Y01689
X0175Y01663
X01723Y01988
X01819Y02026
X02271Y02027
X02331Y01969
X02381Y01993
X02397Y01948
X02438Y01918
X02378Y01883
X02319Y01897
X02366Y02071
X02463Y02064
X02521Y02061
X02474Y01986
X024798Y009858
X025429Y010189
X02355Y01044
X02166Y01102
X021Y01064
X01016Y01116
X0142Y01969
X02569Y01919
X0263Y01954
X02663Y01923
X02638Y01888
X02705Y01955
X0283765Y0175635
X0295568Y0175568
X0309194Y0188094
X0312Y0191
X03114Y01957
X03353Y01971
X0343431Y0202863
X03493Y02026
X0356563Y0203263
X03646Y0197
X03654Y01692
Y01593
X03699Y01537
X03693Y01423
X03633Y01432
X03632Y01346
X03562Y01411
X03569Y01483
X0356083Y0124717
X03672Y01188
X03653Y01087
X03651Y00993
X03731Y01019
X03799Y01143
X0375Y01242
X03754Y01292
X03266Y0137
X03315Y0144
X03306Y01538
X03014Y01388
X03065Y0131
X02929Y01268
X02759Y01267
X02814Y01341
X02853Y01394
X0275Y01462
X02646Y01475
X02702Y01371
X02634Y01206
X02657Y01112
X0258Y01079
X02588Y01018
X02861Y01065
X02899Y00979
X03037Y00981
X02968Y01105
T02
X0054169Y0069538
Y0074262
X0058894
Y0069538
X0094469Y0050562
X0099194
Y0045838
X0094469
T03
X0376144Y0164064
Y0184536
T04
X0263531Y0017
X02824Y0030832
X02768Y00742
X02906Y00849
X03003Y00943
X03074Y00769
X03171Y00577
X03172Y00517
X0325Y00518
X03327Y00515
X03411
X03462Y00423
X03424Y00233
X03431Y00126
X03226Y00435
X03388Y00731
X03333Y00839
Y00956
X03254Y00923
X0195794Y0075494
X01794Y00893
X01534Y00909
X019Y0037631
X01953Y00297
X02007Y00097
X01969Y-00065
X01941Y-00165
X0161Y-00147
X0157Y-00119
X01628Y-0008972
X00645Y-00029
X00211Y-0001
X0021Y-00103
X00213Y-00179
X00101Y00005
X0Y0
X0049Y00824
X00517Y00871
X00511Y00919
X00438Y0092
X00707Y0095
X00706Y00998
X00748Y01042
X00982Y01023
X00997Y00977
X00951Y00974
X00899Y01979
X00742Y01962
X00374Y01993
X00375Y0193
X00317Y01927
X00238Y01929
X00229Y01995
X00301Y01993
X00247Y01656
X01016Y01959
X01078Y01957
X01141Y01955
X012Y0196
X01245Y01958
X01139Y01885
X0114Y01837
X0152131Y0143431
X0157926Y0143426
X0140209Y012999
X01404Y01153
X01423Y01007
X01805Y01053
X01839Y01216
X023318Y012078
X02379Y01292
X02412Y01361
X02493Y0145
X02148Y01019
X02718Y01194
X02622Y01321
X02641Y01419
X02779Y01406
X02945Y01378
X0307Y0139
X03018Y01192
X03275Y01272
X03281Y01614
X03285Y01684
X0312Y0168
X03122Y0161
X03544Y0159057
Y01534
Y0164714
Y0170371
Y0176029
Y0181686
Y0187343
Y0193
X03423Y01926
X03174Y0207
X0310922
X0304444
X0297967
X0291489
X0285011
X0278533
X0272056
X0265578
X02591
X027798Y019728
X02762Y01712
T05
X0365955Y-00003
X0374932
Y001595
X0365955
Y00322
X0374932
Y004845
X0365955
Y00647
X0374932
X00445Y00734
X00394Y007375
X00671Y00963
X00602Y01588
X006Y01632
X0055Y01631
X00548Y01591
X00491
X00492Y01632
X00493Y01682
X0054
X00917Y01916
X0297Y0168
X02971Y0161
X03173Y01747
T06
X0278974Y0037874
X02884Y00307
X03521Y00234
X02453Y00304
X01113Y00345
X01103Y00411
X01181Y00496
X01178Y00649
X01246Y0083
X00617Y00884
X00729Y00146
X00807Y00145
X00883Y00144
X00961Y00143
X00976Y00345
X0086Y01112
X00786Y01114
X00716
X01067Y01263
Y01331
T07
X0219131Y-00147
X0229132
X0239131
X0249131
X0176532Y01767
X0166532
X0156532
X0146531
T08
X00835Y01604
X0190527Y0201733
X0212772
T09
X00189Y0018
Y0028
Y0038
Y0048
Y0058
Y0068
Y0078
Y0088
X00424Y0001406
X00524Y00018
X00189Y0098
Y0108
T10
X0034931Y01383
Y01683
T11
X037679Y-0014078
X0002774
Y0202457
X037679
T12
X0193776Y01913
X0209524
M30
