*
*
G04 PADS VX.1.2 Build Number: 698008 generated Gerber (RS-274-X) file*
G04 PC Version=2.1*
*
%IN "GETWAY_Base_ZM_V1.0_201"*%
*
%MOIN*%
*
%FSLAX35Y35*%
*
*
*
*
G04 PC Standard Apertures*
*
*
G04 Thermal Relief Aperture macro.*
%AMTER*
1,1,$1,0,0*
1,0,$1-$2,0,0*
21,0,$3,$4,0,0,45*
21,0,$3,$4,0,0,135*
%
*
*
G04 Annular Aperture macro.*
%AMANN*
1,1,$1,0,0*
1,0,$2,0,0*
%
*
*
G04 Odd Aperture macro.*
%AMODD*
1,1,$1,0,0*
1,0,$1-0.005,0,0*
%
*
*
G04 PC Custom Aperture Macros*
*
*
*
*
*
*
G04 PC Aperture Table*
*
%ADD010C,0.001*%
%ADD041C,0.005*%
%ADD052C,0.01*%
*
*
*
*
G04 PC Circuitry*
G04 Layer Name GETWAY_Base_ZM_V1.0_201 - circuitry*
%LPD*%
*
*
G04 PC Custom Flashes*
G04 Layer Name GETWAY_Base_ZM_V1.0_201 - flashes*
%LPD*%
*
*
G04 PC Circuitry*
G04 Layer Name GETWAY_Base_ZM_V1.0_201 - circuitry*
%LPD*%
*
G54D10*
G54D41*
G01X1319436Y769324D02*
X1316811D01*
X1319436Y769961D02*
Y768688D01*
Y767870D02*
X1316811Y766597D01*
X1319436D02*
X1316811Y767870D01*
X1319436Y765779D02*
X1316811D01*
X1319436D02*
Y765142D01*
X1319311Y764870*
X1319061Y764688*
X1318811Y764597*
X1318436Y764506*
X1317811*
X1317436Y764597*
X1317186Y764688*
X1316936Y764870*
X1316811Y765142*
Y765779*
X1311523Y769252D02*
X1308898D01*
X1311523D02*
Y768434D01*
X1311398Y768161*
X1311273Y768070*
X1311023Y767979*
X1310773*
X1310523Y768070*
X1310398Y768161*
X1310273Y768434*
Y769252*
Y768616D02*
X1308898Y767979D01*
X1311523Y767161D02*
X1308898Y765888D01*
X1311523D02*
X1308898Y767161D01*
X1311523Y765070D02*
X1308898D01*
X1311523D02*
Y764434D01*
X1311398Y764161*
X1311148Y763979*
X1310898Y763888*
X1310523Y763797*
X1309898*
X1309523Y763888*
X1309273Y763979*
X1309023Y764161*
X1308898Y764434*
Y765070*
X1333614Y767810D02*
X1333864Y767901D01*
X1333864D02*
X1334114Y768082D01*
X1334239Y768264*
Y768628*
X1334114Y768810*
X1333864Y768991*
X1333614Y769082*
X1333239Y769173*
X1332614*
X1332239Y769082*
X1331989Y768991*
X1331739Y768810*
X1331614Y768628*
Y768264*
X1331739Y768082*
X1331989Y767901*
X1331989D02*
X1332239Y767810D01*
X1332614*
Y768264D02*
Y767810D01*
X1334239Y766991D02*
X1331614D01*
X1334239D02*
X1331614Y765719D01*
X1334239D02*
X1331614D01*
X1334239Y764901D02*
X1331614D01*
X1334239D02*
Y764264D01*
X1334114Y763991*
X1333864Y763810*
X1333614Y763719*
X1333239Y763628*
X1332614*
X1332239Y763719*
X1331989Y763810*
X1331739Y763991*
X1331614Y764264*
Y764901*
G54D52*
X988244Y735392D02*
X996244D01*
X992244Y731392D02*
Y739392D01*
X995153Y740673D02*
X994244Y737392D01*
X995153Y740673D02*
X996062Y737392D01*
X994585Y738486D02*
X995721D01*
X988244Y632967D02*
X996244Y640967D01*
Y632967*
X988244Y640967*
Y632967*
X798717Y633205D02*
X806717D01*
X798717Y641205*
X806717*
X798717Y633205*
Y732480D02*
X806717D01*
X802717Y728480D02*
Y736480D01*
X804717Y737762D02*
Y734480D01*
Y737762D02*
X805739D01*
X806080Y737605*
X806194Y737449*
X806307Y737137*
Y736824*
X806194Y736512*
X806080Y736355*
X805739Y736199*
X804717D02*
X805739D01*
X806080Y736043*
X806194Y735887*
X806307Y735574*
Y735105*
X806194Y734793*
X806080Y734637*
X805739Y734480*
X804717*
X1123126Y776870D02*
X1131126D01*
X1127126Y772870D02*
Y780870D01*
X1129126Y782151D02*
Y778870D01*
Y782151D02*
X1129921D01*
X1130262Y781995*
X1130490Y781683*
X1130603Y781370*
X1130717Y780901*
Y780120*
X1130603Y779651*
X1130490Y779339*
X1130262Y779026*
X1129921Y778870*
X1129126*
X1155252Y776870D02*
X1163252D01*
X1159252Y772870D02*
Y780870D01*
X1161252Y782151D02*
Y778870D01*
Y782151D02*
X1162047D01*
X1162388Y781995*
X1162616Y781683*
X1162729Y781370*
X1162843Y780901*
Y780120*
X1162729Y779651*
X1162616Y779339*
X1162388Y779026*
X1162047Y778870*
X1161252*
X1306118Y776929D02*
X1314118D01*
X1310118Y772929D02*
Y780929D01*
X1312118Y782210D02*
Y778929D01*
Y782210D02*
X1313595D01*
X1312118Y780648D02*
X1313027D01*
X1312118Y778929D02*
X1313595D01*
X1316118Y776929D02*
X1324118D01*
X1320118Y772929D02*
Y780929D01*
X1322118Y782210D02*
Y778929D01*
Y782210D02*
X1323595D01*
X1322118Y780648D02*
X1323027D01*
X1322118Y778929D02*
X1323595D01*
X1326118Y776929D02*
X1334118D01*
X1330118Y772929D02*
Y780929D01*
X1332118Y782210D02*
Y778929D01*
Y782210D02*
X1333595D01*
X1332118Y780648D02*
X1333027D01*
X1332118Y778929D02*
X1333595D01*
X1081551Y440592D02*
X1089551D01*
X1085551Y436592D02*
Y444592D01*
X1088460Y445873D02*
X1087551Y442592D01*
X1088460Y445873D02*
X1089369Y442592D01*
X1087892Y443686D02*
X1089028D01*
X1081551Y535017D02*
X1089551Y543017D01*
Y535017*
X1081551Y543017*
Y535017*
X1271079Y534780D02*
X1279079D01*
X1271079Y542780*
X1279079*
X1271079Y534780*
Y443504D02*
X1279079D01*
X1275079Y439504D02*
Y447504D01*
X1277079Y448785D02*
Y445504D01*
Y448785D02*
X1278101D01*
X1278442Y448629*
X1278556Y448473*
X1278670Y448160*
Y447848*
X1278556Y447535*
X1278442Y447379*
X1278101Y447223*
X1277079D02*
X1278101D01*
X1278442Y447066*
X1278556Y446910*
X1278670Y446598*
Y446129*
X1278556Y445816*
X1278442Y445660*
X1278101Y445504*
X1277079*
X991118Y544014D02*
X999118D01*
X995118Y540014D02*
Y548014D01*
X998027Y549295D02*
X997118Y546014D01*
X998027Y549295D02*
X998936Y546014D01*
X997459Y547108D02*
X998595D01*
X991118Y441589D02*
X999118Y449589D01*
Y441589*
X991118Y449589*
Y441589*
X801591Y441827D02*
X809591D01*
X801591Y449827*
X809591*
X801591Y441827*
Y541102D02*
X809591D01*
X805591Y537102D02*
Y545102D01*
X807591Y546384D02*
Y543102D01*
Y546384D02*
X808613D01*
X808954Y546227*
X809068Y546071*
X809181Y545759*
Y545446*
X809068Y545134*
X808954Y544977*
X808613Y544821*
X807591D02*
X808613D01*
X808954Y544665*
X809068Y544509*
X809181Y544196*
Y543727*
X809068Y543415*
X808954Y543259*
X808613Y543102*
X807591*
X1308268Y411906D02*
X1312268Y415906D01*
X1308268Y419906*
X1304268Y415906*
X1308268Y411906*
Y415906D02*
Y419906D01*
X1328268Y411906D02*
X1332268Y415906D01*
X1328268Y419906*
X1324268Y415906*
X1328268Y411906*
Y415906D02*
Y419906D01*
X830646Y405449D02*
X838646Y413449D01*
X830646D02*
X838646Y405449D01*
X830646Y570803D02*
X838646Y578803D01*
X830646D02*
X838646Y570803D01*
X1212535D02*
X1220535Y578803D01*
X1212535D02*
X1220535Y570803D01*
X1212535Y405449D02*
X1220535Y413449D01*
X1212535D02*
X1220535Y405449D01*
X1358205Y767654D02*
X1366205Y775654D01*
X1358205D02*
X1366205Y767654D01*
X1358205Y405449D02*
X1366205Y413449D01*
X1358205D02*
X1366205Y405449D01*
X799150Y767654D02*
X807150Y775654D01*
X799150D02*
X807150Y767654D01*
X799150Y405449D02*
X807150Y413449D01*
X799150D02*
X807150Y405449D01*
X786602Y428222D02*
X794602D01*
X790602Y424222D02*
Y432222D01*
X796602Y428222D02*
X804602D01*
X800602Y424222D02*
Y432222D01*
X806602Y428222D02*
X814602D01*
X810602Y424222D02*
Y432222D01*
X816602Y428222D02*
X824602D01*
X820602Y424222D02*
Y432222D01*
X816602Y418222D02*
X824602D01*
X820602Y414222D02*
Y422222D01*
X816602Y398222D02*
X824602D01*
X820602Y394222D02*
Y402222D01*
X836602Y428222D02*
X844602D01*
X840602Y424222D02*
Y432222D01*
X846602Y428222D02*
X854602D01*
X850602Y424222D02*
Y432222D01*
X846602Y418222D02*
X854602D01*
X850602Y414222D02*
Y422222D01*
X846602Y408222D02*
X854602D01*
X850602Y404222D02*
Y412222D01*
X846602Y398222D02*
X854602D01*
X850602Y394222D02*
Y402222D01*
X856602Y418222D02*
X864602D01*
X860602Y414222D02*
Y422222D01*
X856602Y408222D02*
X864602D01*
X860602Y404222D02*
Y412222D01*
X856602Y398222D02*
X864602D01*
X860602Y394222D02*
Y402222D01*
X856602Y428222D02*
X864602D01*
X860602Y424222D02*
Y432222D01*
X826602Y428222D02*
X834602D01*
X830602Y424222D02*
Y432222D01*
X886602Y408222D02*
X894602D01*
X890602Y404222D02*
Y412222D01*
X876602Y428222D02*
X884602D01*
X880602Y424222D02*
Y432222D01*
X876602Y418222D02*
X884602D01*
X880602Y414222D02*
Y422222D01*
X876602Y408222D02*
X884602D01*
X880602Y404222D02*
Y412222D01*
X876602Y398222D02*
X884602D01*
X880602Y394222D02*
Y402222D01*
X886602Y398222D02*
X894602D01*
X890602Y394222D02*
Y402222D01*
X886602Y428222D02*
X894602D01*
X890602Y424222D02*
Y432222D01*
X886602Y418222D02*
X894602D01*
X890602Y414222D02*
Y422222D01*
X896602Y428222D02*
X904602D01*
X900602Y424222D02*
Y432222D01*
X896602Y418222D02*
X904602D01*
X900602Y414222D02*
Y422222D01*
X896602Y408222D02*
X904602D01*
X900602Y404222D02*
Y412222D01*
X896602Y398222D02*
X904602D01*
X900602Y394222D02*
Y402222D01*
X866602Y428222D02*
X874602D01*
X870602Y424222D02*
Y432222D01*
X866602Y418222D02*
X874602D01*
X870602Y414222D02*
Y422222D01*
X866602Y408222D02*
X874602D01*
X870602Y404222D02*
Y412222D01*
X866602Y398222D02*
X874602D01*
X870602Y394222D02*
Y402222D01*
X926602Y428222D02*
X934602D01*
X930602Y424222D02*
Y432222D01*
X926602Y418222D02*
X934602D01*
X930602Y414222D02*
Y422222D01*
X927378Y409291D02*
X935378D01*
X931378Y405291D02*
Y413291D01*
X926602Y398222D02*
X934602D01*
X930602Y394222D02*
Y402222D01*
X936602Y398222D02*
X944602D01*
X940602Y394222D02*
Y402222D01*
X936602Y428222D02*
X944602D01*
X940602Y424222D02*
Y432222D01*
X936602Y418222D02*
X944602D01*
X940602Y414222D02*
Y422222D01*
X906602Y428222D02*
X914602D01*
X910602Y424222D02*
Y432222D01*
X906602Y418222D02*
X914602D01*
X910602Y414222D02*
Y422222D01*
X906602Y408222D02*
X914602D01*
X910602Y404222D02*
Y412222D01*
X906602Y398222D02*
X914602D01*
X910602Y394222D02*
Y402222D01*
X916602Y398222D02*
X924602D01*
X920602Y394222D02*
Y402222D01*
X976602Y408222D02*
X984602D01*
X980602Y404222D02*
Y412222D01*
X976602Y398222D02*
X984602D01*
X980602Y394222D02*
Y402222D01*
X976602Y428222D02*
X984602D01*
X980602Y424222D02*
Y432222D01*
X976602Y418222D02*
X984602D01*
X980602Y414222D02*
Y422222D01*
X946602Y428222D02*
X954602D01*
X950602Y424222D02*
Y432222D01*
X946602Y418222D02*
X954602D01*
X950602Y414222D02*
Y422222D01*
X946602Y408222D02*
X954602D01*
X950602Y404222D02*
Y412222D01*
X946602Y398222D02*
X954602D01*
X950602Y394222D02*
Y402222D01*
X956602Y428222D02*
X964602D01*
X960602Y424222D02*
Y432222D01*
X956602Y418222D02*
X964602D01*
X960602Y414222D02*
Y422222D01*
X956602Y408222D02*
X964602D01*
X960602Y404222D02*
Y412222D01*
X956602Y398222D02*
X964602D01*
X960602Y394222D02*
Y402222D01*
X966602Y428222D02*
X974602D01*
X970602Y424222D02*
Y432222D01*
X966602Y418222D02*
X974602D01*
X970602Y414222D02*
Y422222D01*
X966602Y408222D02*
X974602D01*
X970602Y404222D02*
Y412222D01*
X966602Y398222D02*
X974602D01*
X970602Y394222D02*
Y402222D01*
X986602Y428222D02*
X994602D01*
X990602Y424222D02*
Y432222D01*
X986602Y418222D02*
X994602D01*
X990602Y414222D02*
Y422222D01*
X986602Y408222D02*
X994602D01*
X990602Y404222D02*
Y412222D01*
X986602Y398222D02*
X994602D01*
X990602Y394222D02*
Y402222D01*
X996602Y428222D02*
X1004602D01*
X1000602Y424222D02*
Y432222D01*
X996602Y418222D02*
X1004602D01*
X1000602Y414222D02*
Y422222D01*
X996602Y408222D02*
X1004602D01*
X1000602Y404222D02*
Y412222D01*
X996602Y398222D02*
X1004602D01*
X1000602Y394222D02*
Y402222D01*
X1006602Y428222D02*
X1014602D01*
X1010602Y424222D02*
Y432222D01*
X1006602Y418222D02*
X1014602D01*
X1010602Y414222D02*
Y422222D01*
X1006602Y408222D02*
X1014602D01*
X1010602Y404222D02*
Y412222D01*
X1006602Y398222D02*
X1014602D01*
X1010602Y394222D02*
Y402222D01*
X1016602Y408222D02*
X1024602D01*
X1020602Y404222D02*
Y412222D01*
X1016602Y398222D02*
X1024602D01*
X1020602Y394222D02*
Y402222D01*
X1016602Y428222D02*
X1024602D01*
X1020602Y424222D02*
Y432222D01*
X1016602Y418222D02*
X1024602D01*
X1020602Y414222D02*
Y422222D01*
X1051118Y407535D02*
X1059118D01*
Y415535*
X1051118*
Y407535*
X1055118Y411535D02*
Y415535D01*
X1026602Y408222D02*
X1034602D01*
X1030602Y404222D02*
Y412222D01*
X1026602Y398222D02*
X1034602D01*
X1030602Y394222D02*
Y402222D01*
X1026602Y428222D02*
X1034602D01*
X1030602Y424222D02*
Y432222D01*
X1026602Y418222D02*
X1034602D01*
X1030602Y414222D02*
Y422222D01*
X1036602Y428222D02*
X1044602D01*
X1040602Y424222D02*
Y432222D01*
X1036602Y418222D02*
X1044602D01*
X1040602Y414222D02*
Y422222D01*
X1036602Y408222D02*
X1044602D01*
X1040602Y404222D02*
Y412222D01*
X1036602Y398222D02*
X1044602D01*
X1040602Y394222D02*
Y402222D01*
X1046602Y398222D02*
X1054602D01*
X1050602Y394222D02*
Y402222D01*
X1056602Y408222D02*
X1064602D01*
X1060602Y404222D02*
Y412222D01*
X1056602Y398222D02*
X1064602D01*
X1060602Y394222D02*
Y402222D01*
X1066602Y428222D02*
X1074602D01*
X1070602Y424222D02*
Y432222D01*
X1066602Y418222D02*
X1074602D01*
X1070602Y414222D02*
Y422222D01*
X1066602Y408222D02*
X1074602D01*
X1070602Y404222D02*
Y412222D01*
X1066602Y398222D02*
X1074602D01*
X1070602Y394222D02*
Y402222D01*
X1076602Y418222D02*
X1084602D01*
X1080602Y414222D02*
Y422222D01*
X1076602Y408222D02*
X1084602D01*
X1080602Y404222D02*
Y412222D01*
X1076602Y398222D02*
X1084602D01*
X1080602Y394222D02*
Y402222D01*
X1076602Y428222D02*
X1084602D01*
X1080602Y424222D02*
Y432222D01*
X1086602Y418222D02*
X1094602D01*
X1090602Y414222D02*
Y422222D01*
X1086602Y408222D02*
X1094602D01*
X1090602Y404222D02*
Y412222D01*
X1086602Y398222D02*
X1094602D01*
X1090602Y394222D02*
Y402222D01*
X1093402Y418228D02*
X1101402D01*
X1097402Y414228D02*
Y422228D01*
X1096602Y408222D02*
X1104602D01*
X1100602Y404222D02*
Y412222D01*
X1096602Y398222D02*
X1104602D01*
X1100602Y394222D02*
Y402222D01*
X1096602Y428222D02*
X1104602D01*
X1100602Y424222D02*
Y432222D01*
X1136602Y428222D02*
X1144602D01*
X1140602Y424222D02*
Y432222D01*
X1136602Y418222D02*
X1144602D01*
X1140602Y414222D02*
Y422222D01*
X1136602Y408222D02*
X1144602D01*
X1140602Y404222D02*
Y412222D01*
X1136602Y398222D02*
X1144602D01*
X1140602Y394222D02*
Y402222D01*
X1106602Y428222D02*
X1114602D01*
X1110602Y424222D02*
Y432222D01*
X1106602Y418222D02*
X1114602D01*
X1110602Y414222D02*
Y422222D01*
X1106602Y408222D02*
X1114602D01*
X1110602Y404222D02*
Y412222D01*
X1106602Y398222D02*
X1114602D01*
X1110602Y394222D02*
Y402222D01*
X1116602Y418222D02*
X1124602D01*
X1120602Y414222D02*
Y422222D01*
X1116602Y408222D02*
X1124602D01*
X1120602Y404222D02*
Y412222D01*
X1116602Y398222D02*
X1124602D01*
X1120602Y394222D02*
Y402222D01*
X1116602Y428222D02*
X1124602D01*
X1120602Y424222D02*
Y432222D01*
X1126602Y428222D02*
X1134602D01*
X1130602Y424222D02*
Y432222D01*
X1126602Y418222D02*
X1134602D01*
X1130602Y414222D02*
Y422222D01*
X1126602Y408222D02*
X1134602D01*
X1130602Y404222D02*
Y412222D01*
X1126602Y398222D02*
X1134602D01*
X1130602Y394222D02*
Y402222D01*
X1146602Y428222D02*
X1154602D01*
X1150602Y424222D02*
Y432222D01*
X1146602Y418222D02*
X1154602D01*
X1150602Y414222D02*
Y422222D01*
X1146602Y408222D02*
X1154602D01*
X1150602Y404222D02*
Y412222D01*
X1146602Y398222D02*
X1154602D01*
X1150602Y394222D02*
Y402222D01*
X1156602Y408222D02*
X1164602D01*
X1160602Y404222D02*
Y412222D01*
X1156602Y398222D02*
X1164602D01*
X1160602Y394222D02*
Y402222D01*
X1156602Y428222D02*
X1164602D01*
X1160602Y424222D02*
Y432222D01*
X1156602Y418222D02*
X1164602D01*
X1160602Y414222D02*
Y422222D01*
X1166602Y428222D02*
X1174602D01*
X1170602Y424222D02*
Y432222D01*
X1166602Y418222D02*
X1174602D01*
X1170602Y414222D02*
Y422222D01*
X1166602Y408222D02*
X1174602D01*
X1170602Y404222D02*
Y412222D01*
X1166602Y398222D02*
X1174602D01*
X1170602Y394222D02*
Y402222D01*
X1176602Y428222D02*
X1184602D01*
X1180602Y424222D02*
Y432222D01*
X1176602Y418222D02*
X1184602D01*
X1180602Y414222D02*
Y422222D01*
X1176602Y408222D02*
X1184602D01*
X1180602Y404222D02*
Y412222D01*
X1176602Y398222D02*
X1184602D01*
X1180602Y394222D02*
Y402222D01*
X1196602Y428222D02*
X1204602D01*
X1200602Y424222D02*
Y432222D01*
X1196602Y418222D02*
X1204602D01*
X1200602Y414222D02*
Y422222D01*
X1196602Y408222D02*
X1204602D01*
X1200602Y404222D02*
Y412222D01*
X1196602Y398222D02*
X1204602D01*
X1200602Y394222D02*
Y402222D01*
X1206602Y428222D02*
X1214602D01*
X1210602Y424222D02*
Y432222D01*
X1216602Y428222D02*
X1224602D01*
X1220602Y424222D02*
Y432222D01*
X1186602Y428222D02*
X1194602D01*
X1190602Y424222D02*
Y432222D01*
X1186602Y418222D02*
X1194602D01*
X1190602Y414222D02*
Y422222D01*
X1186602Y408222D02*
X1194602D01*
X1190602Y404222D02*
Y412222D01*
X1186602Y398222D02*
X1194602D01*
X1190602Y394222D02*
Y402222D01*
X1256602Y428222D02*
X1264602D01*
X1260602Y424222D02*
Y432222D01*
X1256602Y418222D02*
X1264602D01*
X1260602Y414222D02*
Y422222D01*
X1256602Y408222D02*
X1264602D01*
X1260602Y404222D02*
Y412222D01*
X1256602Y398222D02*
X1264602D01*
X1260602Y394222D02*
Y402222D01*
X1226602Y418222D02*
X1234602D01*
X1230602Y414222D02*
Y422222D01*
X1226602Y398222D02*
X1234602D01*
X1230602Y394222D02*
Y402222D01*
X1226602Y428222D02*
X1234602D01*
X1230602Y424222D02*
Y432222D01*
X1236602Y428222D02*
X1244602D01*
X1240602Y424222D02*
Y432222D01*
X1236602Y418222D02*
X1244602D01*
X1240602Y414222D02*
Y422222D01*
X1236602Y408222D02*
X1244602D01*
X1240602Y404222D02*
Y412222D01*
X1236602Y398222D02*
X1244602D01*
X1240602Y394222D02*
Y402222D01*
X1246602Y428222D02*
X1254602D01*
X1250602Y424222D02*
Y432222D01*
X1246602Y418222D02*
X1254602D01*
X1250602Y414222D02*
Y422222D01*
X1246602Y408222D02*
X1254602D01*
X1250602Y404222D02*
Y412222D01*
X1246602Y398222D02*
X1254602D01*
X1250602Y394222D02*
Y402222D01*
X1266602Y428222D02*
X1274602D01*
X1270602Y424222D02*
Y432222D01*
X1266602Y418222D02*
X1274602D01*
X1270602Y414222D02*
Y422222D01*
X1266602Y408222D02*
X1274602D01*
X1270602Y404222D02*
Y412222D01*
X1266602Y398222D02*
X1274602D01*
X1270602Y394222D02*
Y402222D01*
X1276602Y428222D02*
X1284602D01*
X1280602Y424222D02*
Y432222D01*
X1276602Y418222D02*
X1284602D01*
X1280602Y414222D02*
Y422222D01*
X1276602Y408222D02*
X1284602D01*
X1280602Y404222D02*
Y412222D01*
X1276602Y398222D02*
X1284602D01*
X1280602Y394222D02*
Y402222D01*
X1286602Y428222D02*
X1294602D01*
X1290602Y424222D02*
Y432222D01*
X1286602Y418222D02*
X1294602D01*
X1290602Y414222D02*
Y422222D01*
X1286602Y408222D02*
X1294602D01*
X1290602Y404222D02*
Y412222D01*
X1286602Y398222D02*
X1294602D01*
X1290602Y394222D02*
Y402222D01*
X1296602Y398222D02*
X1304602D01*
X1300602Y394222D02*
Y402222D01*
X1316602Y428222D02*
X1324602D01*
X1320602Y424222D02*
Y432222D01*
X1316602Y418222D02*
X1324602D01*
X1320602Y414222D02*
Y422222D01*
X1316602Y408222D02*
X1324602D01*
X1320602Y404222D02*
Y412222D01*
X1326602Y398222D02*
X1334602D01*
X1330602Y394222D02*
Y402222D01*
X1326602Y428222D02*
X1334602D01*
X1330602Y424222D02*
Y432222D01*
X1326602Y408222D02*
X1334602D01*
X1330602Y404222D02*
Y412222D01*
X1336602Y428222D02*
X1344602D01*
X1340602Y424222D02*
Y432222D01*
X1336602Y418222D02*
X1344602D01*
X1340602Y414222D02*
Y422222D01*
X1336602Y408222D02*
X1344602D01*
X1340602Y404222D02*
Y412222D01*
X1336602Y398222D02*
X1344602D01*
X1340602Y394222D02*
Y402222D01*
X1306602Y398222D02*
X1314602D01*
X1310602Y394222D02*
Y402222D01*
X1316602Y398222D02*
X1324602D01*
X1320602Y394222D02*
Y402222D01*
X1346602Y428222D02*
X1354602D01*
X1350602Y424222D02*
Y432222D01*
X1346602Y398222D02*
X1354602D01*
X1350602Y394222D02*
Y402222D01*
X1356602Y428222D02*
X1364602D01*
X1360602Y424222D02*
Y432222D01*
X1366602Y428222D02*
X1374602D01*
X1370602Y424222D02*
Y432222D01*
X786602Y448222D02*
X794602D01*
X790602Y444222D02*
Y452222D01*
X786602Y438222D02*
X794602D01*
X790602Y434222D02*
Y442222D01*
X786602Y468222D02*
X794602D01*
X790602Y464222D02*
Y472222D01*
X786602Y458222D02*
X794602D01*
X790602Y454222D02*
Y462222D01*
X796602Y468222D02*
X804602D01*
X800602Y464222D02*
Y472222D01*
X796602Y458222D02*
X804602D01*
X800602Y454222D02*
Y462222D01*
X806602Y468222D02*
X814602D01*
X810602Y464222D02*
Y472222D01*
X806602Y458222D02*
X814602D01*
X810602Y454222D02*
Y462222D01*
X816602Y468222D02*
X824602D01*
X820602Y464222D02*
Y472222D01*
X816602Y458222D02*
X824602D01*
X820602Y454222D02*
Y462222D01*
X816602Y448222D02*
X824602D01*
X820602Y444222D02*
Y452222D01*
X816602Y438222D02*
X824602D01*
X820602Y434222D02*
Y442222D01*
X826602Y468222D02*
X834602D01*
X830602Y464222D02*
Y472222D01*
X826602Y458222D02*
X834602D01*
X830602Y454222D02*
Y462222D01*
X836602Y468222D02*
X844602D01*
X840602Y464222D02*
Y472222D01*
X836602Y458222D02*
X844602D01*
X840602Y454222D02*
Y462222D01*
X836602Y448222D02*
X844602D01*
X840602Y444222D02*
Y452222D01*
X836602Y438222D02*
X844602D01*
X840602Y434222D02*
Y442222D01*
X846602Y468222D02*
X854602D01*
X850602Y464222D02*
Y472222D01*
X846602Y458222D02*
X854602D01*
X850602Y454222D02*
Y462222D01*
X846602Y448222D02*
X854602D01*
X850602Y444222D02*
Y452222D01*
X846602Y438222D02*
X854602D01*
X850602Y434222D02*
Y442222D01*
X856602Y468222D02*
X864602D01*
X860602Y464222D02*
Y472222D01*
X856602Y458222D02*
X864602D01*
X860602Y454222D02*
Y462222D01*
X856602Y448222D02*
X864602D01*
X860602Y444222D02*
Y452222D01*
X856602Y438222D02*
X864602D01*
X860602Y434222D02*
Y442222D01*
X826602Y448222D02*
X834602D01*
X830602Y444222D02*
Y452222D01*
X826602Y438222D02*
X834602D01*
X830602Y434222D02*
Y442222D01*
X876602Y468222D02*
X884602D01*
X880602Y464222D02*
Y472222D01*
X876602Y458222D02*
X884602D01*
X880602Y454222D02*
Y462222D01*
X876602Y448222D02*
X884602D01*
X880602Y444222D02*
Y452222D01*
X876602Y438222D02*
X884602D01*
X880602Y434222D02*
Y442222D01*
X886602Y438222D02*
X894602D01*
X890602Y434222D02*
Y442222D01*
X886602Y468222D02*
X894602D01*
X890602Y464222D02*
Y472222D01*
X886602Y458222D02*
X894602D01*
X890602Y454222D02*
Y462222D01*
X886602Y448222D02*
X894602D01*
X890602Y444222D02*
Y452222D01*
X896602Y468222D02*
X904602D01*
X900602Y464222D02*
Y472222D01*
X896602Y458222D02*
X904602D01*
X900602Y454222D02*
Y462222D01*
X896602Y448222D02*
X904602D01*
X900602Y444222D02*
Y452222D01*
X896602Y438222D02*
X904602D01*
X900602Y434222D02*
Y442222D01*
X866602Y468222D02*
X874602D01*
X870602Y464222D02*
Y472222D01*
X866602Y458222D02*
X874602D01*
X870602Y454222D02*
Y462222D01*
X866602Y448222D02*
X874602D01*
X870602Y444222D02*
Y452222D01*
X866602Y438222D02*
X874602D01*
X870602Y434222D02*
Y442222D01*
X916236Y449803D02*
X924236D01*
X920236Y445803D02*
Y453803D01*
X916602Y468222D02*
X924602D01*
X920602Y464222D02*
Y472222D01*
X915252Y460118D02*
X923252D01*
X919252Y456118D02*
Y464118D01*
X926602Y468222D02*
X934602D01*
X930602Y464222D02*
Y472222D01*
X926602Y458222D02*
X934602D01*
X930602Y454222D02*
Y462222D01*
X926602Y438222D02*
X934602D01*
X930602Y434222D02*
Y442222D01*
X936602Y468222D02*
X944602D01*
X940602Y464222D02*
Y472222D01*
X936602Y458222D02*
X944602D01*
X940602Y454222D02*
Y462222D01*
X936602Y438222D02*
X944602D01*
X940602Y434222D02*
Y442222D01*
X906602Y468222D02*
X914602D01*
X910602Y464222D02*
Y472222D01*
X906602Y458222D02*
X914602D01*
X910602Y454222D02*
Y462222D01*
X906602Y448222D02*
X914602D01*
X910602Y444222D02*
Y452222D01*
X906602Y438222D02*
X914602D01*
X910602Y434222D02*
Y442222D01*
X960370Y445921D02*
X968370D01*
Y453921*
X960370*
Y445921*
X964370Y449921D02*
Y453921D01*
X976602Y438222D02*
X984602D01*
X980602Y434222D02*
Y442222D01*
X946602Y468222D02*
X954602D01*
X950602Y464222D02*
Y472222D01*
X946602Y458222D02*
X954602D01*
X950602Y454222D02*
Y462222D01*
X946602Y438222D02*
X954602D01*
X950602Y434222D02*
Y442222D01*
X956602Y438222D02*
X964602D01*
X960602Y434222D02*
Y442222D01*
X966602Y468222D02*
X974602D01*
X970602Y464222D02*
Y472222D01*
X966602Y458222D02*
X974602D01*
X970602Y454222D02*
Y462222D01*
X966602Y438222D02*
X974602D01*
X970602Y434222D02*
Y442222D01*
X986602Y438222D02*
X994602D01*
X990602Y434222D02*
Y442222D01*
X996602Y458222D02*
X1004602D01*
X1000602Y454222D02*
Y462222D01*
X996602Y448222D02*
X1004602D01*
X1000602Y444222D02*
Y452222D01*
X996602Y438222D02*
X1004602D01*
X1000602Y434222D02*
Y442222D01*
X1016602Y468222D02*
X1024602D01*
X1020602Y464222D02*
Y472222D01*
X1016602Y458222D02*
X1024602D01*
X1020602Y454222D02*
Y462222D01*
X1016602Y448222D02*
X1024602D01*
X1020602Y444222D02*
Y452222D01*
X1016602Y438222D02*
X1024602D01*
X1020602Y434222D02*
Y442222D01*
X1036433Y475118D02*
X1044433D01*
X1040433Y471118D02*
Y479118D01*
X1051118Y455094D02*
X1059118D01*
Y463094*
X1051118*
Y455094*
X1055118Y459094D02*
Y463094D01*
X1026602Y468222D02*
X1034602D01*
X1030602Y464222D02*
Y472222D01*
X1026602Y458222D02*
X1034602D01*
X1030602Y454222D02*
Y462222D01*
X1026602Y448222D02*
X1034602D01*
X1030602Y444222D02*
Y452222D01*
X1026602Y438222D02*
X1034602D01*
X1030602Y434222D02*
Y442222D01*
X1036602Y468222D02*
X1044602D01*
X1040602Y464222D02*
Y472222D01*
X1036602Y458222D02*
X1044602D01*
X1040602Y454222D02*
Y462222D01*
X1036602Y448222D02*
X1044602D01*
X1040602Y444222D02*
Y452222D01*
X1036602Y438222D02*
X1044602D01*
X1040602Y434222D02*
Y442222D01*
X1066602Y438222D02*
X1074602D01*
X1070602Y434222D02*
Y442222D01*
X1076602Y468222D02*
X1084602D01*
X1080602Y464222D02*
Y472222D01*
X1076602Y458222D02*
X1084602D01*
X1080602Y454222D02*
Y462222D01*
X1076602Y448222D02*
X1084602D01*
X1080602Y444222D02*
Y452222D01*
X1076602Y438222D02*
X1084602D01*
X1080602Y434222D02*
Y442222D01*
X1086602Y468222D02*
X1094602D01*
X1090602Y464222D02*
Y472222D01*
X1096602Y438222D02*
X1104602D01*
X1100602Y434222D02*
Y442222D01*
X1121669Y439346D02*
X1129669D01*
Y447346*
X1121669*
Y439346*
X1125669Y443346D02*
Y447346D01*
X1136602Y468222D02*
X1144602D01*
X1140602Y464222D02*
Y472222D01*
X1136602Y458222D02*
X1144602D01*
X1140602Y454222D02*
Y462222D01*
X1136602Y448222D02*
X1144602D01*
X1140602Y444222D02*
Y452222D01*
X1136602Y438222D02*
X1144602D01*
X1140602Y434222D02*
Y442222D01*
X1106602Y458222D02*
X1114602D01*
X1110602Y454222D02*
Y462222D01*
X1106602Y448222D02*
X1114602D01*
X1110602Y444222D02*
Y452222D01*
X1106602Y438222D02*
X1114602D01*
X1110602Y434222D02*
Y442222D01*
X1106602Y468222D02*
X1114602D01*
X1110602Y464222D02*
Y472222D01*
X1116602Y438222D02*
X1124602D01*
X1120602Y434222D02*
Y442222D01*
X1126602Y438222D02*
X1134602D01*
X1130602Y434222D02*
Y442222D01*
X1146602Y468222D02*
X1154602D01*
X1150602Y464222D02*
Y472222D01*
X1146602Y458222D02*
X1154602D01*
X1150602Y454222D02*
Y462222D01*
X1146602Y448222D02*
X1154602D01*
X1150602Y444222D02*
Y452222D01*
X1146602Y438222D02*
X1154602D01*
X1150602Y434222D02*
Y442222D01*
X1156602Y468222D02*
X1164602D01*
X1160602Y464222D02*
Y472222D01*
X1156602Y458222D02*
X1164602D01*
X1160602Y454222D02*
Y462222D01*
X1156602Y448222D02*
X1164602D01*
X1160602Y444222D02*
Y452222D01*
X1156602Y438222D02*
X1164602D01*
X1160602Y434222D02*
Y442222D01*
X1166602Y468222D02*
X1174602D01*
X1170602Y464222D02*
Y472222D01*
X1166602Y458222D02*
X1174602D01*
X1170602Y454222D02*
Y462222D01*
X1166602Y448222D02*
X1174602D01*
X1170602Y444222D02*
Y452222D01*
X1166602Y438222D02*
X1174602D01*
X1170602Y434222D02*
Y442222D01*
X1176602Y458222D02*
X1184602D01*
X1180602Y454222D02*
Y462222D01*
X1176602Y448222D02*
X1184602D01*
X1180602Y444222D02*
Y452222D01*
X1176602Y438222D02*
X1184602D01*
X1180602Y434222D02*
Y442222D01*
X1176602Y468222D02*
X1184602D01*
X1180602Y464222D02*
Y472222D01*
X1196602Y468222D02*
X1204602D01*
X1200602Y464222D02*
Y472222D01*
X1196602Y458222D02*
X1204602D01*
X1200602Y454222D02*
Y462222D01*
X1196602Y448222D02*
X1204602D01*
X1200602Y444222D02*
Y452222D01*
X1196602Y438222D02*
X1204602D01*
X1200602Y434222D02*
Y442222D01*
X1206602Y468222D02*
X1214602D01*
X1210602Y464222D02*
Y472222D01*
X1206602Y458222D02*
X1214602D01*
X1210602Y454222D02*
Y462222D01*
X1206602Y448222D02*
X1214602D01*
X1210602Y444222D02*
Y452222D01*
X1206602Y438222D02*
X1214602D01*
X1210602Y434222D02*
Y442222D01*
X1216602Y468222D02*
X1224602D01*
X1220602Y464222D02*
Y472222D01*
X1216602Y458222D02*
X1224602D01*
X1220602Y454222D02*
Y462222D01*
X1216602Y448222D02*
X1224602D01*
X1220602Y444222D02*
Y452222D01*
X1216602Y438222D02*
X1224602D01*
X1220602Y434222D02*
Y442222D01*
X1186602Y468222D02*
X1194602D01*
X1190602Y464222D02*
Y472222D01*
X1186602Y458222D02*
X1194602D01*
X1190602Y454222D02*
Y462222D01*
X1186602Y448222D02*
X1194602D01*
X1190602Y444222D02*
Y452222D01*
X1186602Y438222D02*
X1194602D01*
X1190602Y434222D02*
Y442222D01*
X1256602Y458222D02*
X1264602D01*
X1260602Y454222D02*
Y462222D01*
X1256602Y448222D02*
X1264602D01*
X1260602Y444222D02*
Y452222D01*
X1256602Y438222D02*
X1264602D01*
X1260602Y434222D02*
Y442222D01*
X1256602Y468222D02*
X1264602D01*
X1260602Y464222D02*
Y472222D01*
X1226602Y468222D02*
X1234602D01*
X1230602Y464222D02*
Y472222D01*
X1226602Y458222D02*
X1234602D01*
X1230602Y454222D02*
Y462222D01*
X1226602Y448222D02*
X1234602D01*
X1230602Y444222D02*
Y452222D01*
X1226602Y438222D02*
X1234602D01*
X1230602Y434222D02*
Y442222D01*
X1236602Y468222D02*
X1244602D01*
X1240602Y464222D02*
Y472222D01*
X1236602Y458222D02*
X1244602D01*
X1240602Y454222D02*
Y462222D01*
X1236602Y448222D02*
X1244602D01*
X1240602Y444222D02*
Y452222D01*
X1236602Y438222D02*
X1244602D01*
X1240602Y434222D02*
Y442222D01*
X1246602Y468222D02*
X1254602D01*
X1250602Y464222D02*
Y472222D01*
X1246602Y458222D02*
X1254602D01*
X1250602Y454222D02*
Y462222D01*
X1246602Y448222D02*
X1254602D01*
X1250602Y444222D02*
Y452222D01*
X1246602Y438222D02*
X1254602D01*
X1250602Y434222D02*
Y442222D01*
X1266602Y468222D02*
X1274602D01*
X1270602Y464222D02*
Y472222D01*
X1266602Y458222D02*
X1274602D01*
X1270602Y454222D02*
Y462222D01*
X1276602Y468222D02*
X1284602D01*
X1280602Y464222D02*
Y472222D01*
X1276602Y458222D02*
X1284602D01*
X1280602Y454222D02*
Y462222D01*
X1286602Y458222D02*
X1294602D01*
X1290602Y454222D02*
Y462222D01*
X1286602Y448222D02*
X1294602D01*
X1290602Y444222D02*
Y452222D01*
X1286602Y438222D02*
X1294602D01*
X1290602Y434222D02*
Y442222D01*
X1286602Y468222D02*
X1294602D01*
X1290602Y464222D02*
Y472222D01*
X1296602Y468222D02*
X1304602D01*
X1300602Y464222D02*
Y472222D01*
X1296602Y458222D02*
X1304602D01*
X1300602Y454222D02*
Y462222D01*
X1296602Y448222D02*
X1304602D01*
X1300602Y444222D02*
Y452222D01*
X1316602Y438222D02*
X1324602D01*
X1320602Y434222D02*
Y442222D01*
X1326602Y458222D02*
X1334602D01*
X1330602Y454222D02*
Y462222D01*
X1326602Y448222D02*
X1334602D01*
X1330602Y444222D02*
Y452222D01*
X1326602Y438222D02*
X1334602D01*
X1330602Y434222D02*
Y442222D01*
X1336602Y458222D02*
X1344602D01*
X1340602Y454222D02*
Y462222D01*
X1336602Y448222D02*
X1344602D01*
X1340602Y444222D02*
Y452222D01*
X1336602Y438222D02*
X1344602D01*
X1340602Y434222D02*
Y442222D01*
X1336602Y468222D02*
X1344602D01*
X1340602Y464222D02*
Y472222D01*
X1346602Y438222D02*
X1354602D01*
X1350602Y434222D02*
Y442222D01*
X1346602Y468222D02*
X1354602D01*
X1350602Y464222D02*
Y472222D01*
X1346602Y458222D02*
X1354602D01*
X1350602Y454222D02*
Y462222D01*
X1346602Y448222D02*
X1354602D01*
X1350602Y444222D02*
Y452222D01*
X1356602Y448222D02*
X1364602D01*
X1360602Y444222D02*
Y452222D01*
X1356602Y438222D02*
X1364602D01*
X1360602Y434222D02*
Y442222D01*
X1356602Y468222D02*
X1364602D01*
X1360602Y464222D02*
Y472222D01*
X1356602Y458222D02*
X1364602D01*
X1360602Y454222D02*
Y462222D01*
X1366602Y448222D02*
X1374602D01*
X1370602Y444222D02*
Y452222D01*
X1366602Y438222D02*
X1374602D01*
X1370602Y434222D02*
Y442222D01*
X1366602Y468222D02*
X1374602D01*
X1370602Y464222D02*
Y472222D01*
X1366602Y458222D02*
X1374602D01*
X1370602Y454222D02*
Y462222D01*
X786602Y508222D02*
X794602D01*
X790602Y504222D02*
Y512222D01*
X786602Y498222D02*
X794602D01*
X790602Y494222D02*
Y502222D01*
X786602Y488222D02*
X794602D01*
X790602Y484222D02*
Y492222D01*
X786602Y478222D02*
X794602D01*
X790602Y474222D02*
Y482222D01*
X796602Y508222D02*
X804602D01*
X800602Y504222D02*
Y512222D01*
X796602Y498222D02*
X804602D01*
X800602Y494222D02*
Y502222D01*
X796602Y488222D02*
X804602D01*
X800602Y484222D02*
Y492222D01*
X796602Y478222D02*
X804602D01*
X800602Y474222D02*
Y482222D01*
X806602Y508222D02*
X814602D01*
X810602Y504222D02*
Y512222D01*
X806602Y498222D02*
X814602D01*
X810602Y494222D02*
Y502222D01*
X806602Y488222D02*
X814602D01*
X810602Y484222D02*
Y492222D01*
X806602Y478222D02*
X814602D01*
X810602Y474222D02*
Y482222D01*
X816602Y508222D02*
X824602D01*
X820602Y504222D02*
Y512222D01*
X816602Y498222D02*
X824602D01*
X820602Y494222D02*
Y502222D01*
X816602Y488222D02*
X824602D01*
X820602Y484222D02*
Y492222D01*
X816602Y478222D02*
X824602D01*
X820602Y474222D02*
Y482222D01*
X826602Y508222D02*
X834602D01*
X830602Y504222D02*
Y512222D01*
X826602Y498222D02*
X834602D01*
X830602Y494222D02*
Y502222D01*
X826602Y488222D02*
X834602D01*
X830602Y484222D02*
Y492222D01*
X826602Y478222D02*
X834602D01*
X830602Y474222D02*
Y482222D01*
X836602Y488222D02*
X844602D01*
X840602Y484222D02*
Y492222D01*
X836602Y478222D02*
X844602D01*
X840602Y474222D02*
Y482222D01*
X836602Y508222D02*
X844602D01*
X840602Y504222D02*
Y512222D01*
X836602Y498222D02*
X844602D01*
X840602Y494222D02*
Y502222D01*
X846602Y508222D02*
X854602D01*
X850602Y504222D02*
Y512222D01*
X846602Y498222D02*
X854602D01*
X850602Y494222D02*
Y502222D01*
X846602Y488222D02*
X854602D01*
X850602Y484222D02*
Y492222D01*
X846602Y478222D02*
X854602D01*
X850602Y474222D02*
Y482222D01*
X856602Y508222D02*
X864602D01*
X860602Y504222D02*
Y512222D01*
X856602Y498222D02*
X864602D01*
X860602Y494222D02*
Y502222D01*
X856602Y488222D02*
X864602D01*
X860602Y484222D02*
Y492222D01*
X856602Y478222D02*
X864602D01*
X860602Y474222D02*
Y482222D01*
X876602Y498222D02*
X884602D01*
X880602Y494222D02*
Y502222D01*
X876602Y488222D02*
X884602D01*
X880602Y484222D02*
Y492222D01*
X876602Y478222D02*
X884602D01*
X880602Y474222D02*
Y482222D01*
X876602Y508222D02*
X884602D01*
X880602Y504222D02*
Y512222D01*
X886602Y508222D02*
X894602D01*
X890602Y504222D02*
Y512222D01*
X886602Y498222D02*
X894602D01*
X890602Y494222D02*
Y502222D01*
X886602Y488222D02*
X894602D01*
X890602Y484222D02*
Y492222D01*
X886602Y478222D02*
X894602D01*
X890602Y474222D02*
Y482222D01*
X896602Y508222D02*
X904602D01*
X900602Y504222D02*
Y512222D01*
X896602Y498222D02*
X904602D01*
X900602Y494222D02*
Y502222D01*
X896602Y488222D02*
X904602D01*
X900602Y484222D02*
Y492222D01*
X896602Y478222D02*
X904602D01*
X900602Y474222D02*
Y482222D01*
X866602Y508222D02*
X874602D01*
X870602Y504222D02*
Y512222D01*
X866602Y498222D02*
X874602D01*
X870602Y494222D02*
Y502222D01*
X866602Y488222D02*
X874602D01*
X870602Y484222D02*
Y492222D01*
X866602Y478222D02*
X874602D01*
X870602Y474222D02*
Y482222D01*
X916602Y508222D02*
X924602D01*
X920602Y504222D02*
Y512222D01*
X916602Y498222D02*
X924602D01*
X920602Y494222D02*
Y502222D01*
X916602Y488222D02*
X924602D01*
X920602Y484222D02*
Y492222D01*
X916602Y478222D02*
X924602D01*
X920602Y474222D02*
Y482222D01*
X926602Y488222D02*
X934602D01*
X930602Y484222D02*
Y492222D01*
X926602Y478222D02*
X934602D01*
X930602Y474222D02*
Y482222D01*
X926602Y508222D02*
X934602D01*
X930602Y504222D02*
Y512222D01*
X926602Y498222D02*
X934602D01*
X930602Y494222D02*
Y502222D01*
X936602Y498222D02*
X944602D01*
X940602Y494222D02*
Y502222D01*
X936602Y488222D02*
X944602D01*
X940602Y484222D02*
Y492222D01*
X936602Y478222D02*
X944602D01*
X940602Y474222D02*
Y482222D01*
X936602Y508222D02*
X944602D01*
X940602Y504222D02*
Y512222D01*
X906602Y478222D02*
X914602D01*
X910602Y474222D02*
Y482222D01*
X906602Y508222D02*
X914602D01*
X910602Y504222D02*
Y512222D01*
X906602Y498222D02*
X914602D01*
X910602Y494222D02*
Y502222D01*
X906602Y488222D02*
X914602D01*
X910602Y484222D02*
Y492222D01*
X960567Y493244D02*
X968567D01*
Y501244*
X960567*
Y493244*
X964567Y497244D02*
Y501244D01*
X976602Y478222D02*
X984602D01*
X980602Y474222D02*
Y482222D01*
X946602Y508222D02*
X954602D01*
X950602Y504222D02*
Y512222D01*
X946602Y498222D02*
X954602D01*
X950602Y494222D02*
Y502222D01*
X946602Y488222D02*
X954602D01*
X950602Y484222D02*
Y492222D01*
X946602Y478222D02*
X954602D01*
X950602Y474222D02*
Y482222D01*
X966602Y508222D02*
X974602D01*
X970602Y504222D02*
Y512222D01*
X966602Y488222D02*
X974602D01*
X970602Y484222D02*
Y492222D01*
X966602Y478222D02*
X974602D01*
X970602Y474222D02*
Y482222D01*
X1017614Y490866D02*
X1025614D01*
X1021614Y486866D02*
Y494866D01*
X1021630Y487717D02*
X1029630D01*
X1025630Y483717D02*
Y491717D01*
X986602Y508222D02*
X994602D01*
X990602Y504222D02*
Y512222D01*
X986602Y498222D02*
X994602D01*
X990602Y494222D02*
Y502222D01*
X996602Y508222D02*
X1004602D01*
X1000602Y504222D02*
Y512222D01*
X996602Y498222D02*
X1004602D01*
X1000602Y494222D02*
Y502222D01*
X996602Y488222D02*
X1004602D01*
X1000602Y484222D02*
Y492222D01*
X1026118Y484764D02*
X1034118D01*
X1030118Y480764D02*
Y488764D01*
X1076602Y478222D02*
X1084602D01*
X1080602Y474222D02*
Y482222D01*
X1086602Y488222D02*
X1094602D01*
X1090602Y484222D02*
Y492222D01*
X1086602Y478222D02*
X1094602D01*
X1090602Y474222D02*
Y482222D01*
X1086602Y508222D02*
X1094602D01*
X1090602Y504222D02*
Y512222D01*
X1086602Y498222D02*
X1094602D01*
X1090602Y494222D02*
Y502222D01*
X1096602Y508222D02*
X1104602D01*
X1100602Y504222D02*
Y512222D01*
X1121669Y483402D02*
X1129669D01*
Y491402*
X1121669*
Y483402*
X1125669Y487402D02*
Y491402D01*
X1136602Y508222D02*
X1144602D01*
X1140602Y504222D02*
Y512222D01*
X1136602Y498222D02*
X1144602D01*
X1140602Y494222D02*
Y502222D01*
X1136602Y488222D02*
X1144602D01*
X1140602Y484222D02*
Y492222D01*
X1136602Y478222D02*
X1144602D01*
X1140602Y474222D02*
Y482222D01*
X1106602Y508222D02*
X1114602D01*
X1110602Y504222D02*
Y512222D01*
X1106602Y498222D02*
X1114602D01*
X1110602Y494222D02*
Y502222D01*
X1106602Y478222D02*
X1114602D01*
X1110602Y474222D02*
Y482222D01*
X1146602Y508222D02*
X1154602D01*
X1150602Y504222D02*
Y512222D01*
X1146602Y498222D02*
X1154602D01*
X1150602Y494222D02*
Y502222D01*
X1146602Y488222D02*
X1154602D01*
X1150602Y484222D02*
Y492222D01*
X1146602Y478222D02*
X1154602D01*
X1150602Y474222D02*
Y482222D01*
X1156602Y498222D02*
X1164602D01*
X1160602Y494222D02*
Y502222D01*
X1156602Y488222D02*
X1164602D01*
X1160602Y484222D02*
Y492222D01*
X1156602Y478222D02*
X1164602D01*
X1160602Y474222D02*
Y482222D01*
X1156602Y508222D02*
X1164602D01*
X1160602Y504222D02*
Y512222D01*
X1166602Y508222D02*
X1174602D01*
X1170602Y504222D02*
Y512222D01*
X1166602Y498222D02*
X1174602D01*
X1170602Y494222D02*
Y502222D01*
X1166602Y488222D02*
X1174602D01*
X1170602Y484222D02*
Y492222D01*
X1166602Y478222D02*
X1174602D01*
X1170602Y474222D02*
Y482222D01*
X1176602Y508222D02*
X1184602D01*
X1180602Y504222D02*
Y512222D01*
X1176602Y498222D02*
X1184602D01*
X1180602Y494222D02*
Y502222D01*
X1176602Y488222D02*
X1184602D01*
X1180602Y484222D02*
Y492222D01*
X1176602Y478222D02*
X1184602D01*
X1180602Y474222D02*
Y482222D01*
X1186602Y508222D02*
X1194602D01*
X1190602Y504222D02*
Y512222D01*
X1186602Y498222D02*
X1194602D01*
X1190602Y494222D02*
Y502222D01*
X1196602Y508222D02*
X1204602D01*
X1200602Y504222D02*
Y512222D01*
X1196602Y498222D02*
X1204602D01*
X1200602Y494222D02*
Y502222D01*
X1196602Y488222D02*
X1204602D01*
X1200602Y484222D02*
Y492222D01*
X1196602Y478222D02*
X1204602D01*
X1200602Y474222D02*
Y482222D01*
X1206602Y508222D02*
X1214602D01*
X1210602Y504222D02*
Y512222D01*
X1206602Y498222D02*
X1214602D01*
X1210602Y494222D02*
Y502222D01*
X1206602Y488222D02*
X1214602D01*
X1210602Y484222D02*
Y492222D01*
X1206602Y478222D02*
X1214602D01*
X1210602Y474222D02*
Y482222D01*
X1216602Y498222D02*
X1224602D01*
X1220602Y494222D02*
Y502222D01*
X1216602Y488222D02*
X1224602D01*
X1220602Y484222D02*
Y492222D01*
X1216602Y478222D02*
X1224602D01*
X1220602Y474222D02*
Y482222D01*
X1216602Y508222D02*
X1224602D01*
X1220602Y504222D02*
Y512222D01*
X1186602Y488222D02*
X1194602D01*
X1190602Y484222D02*
Y492222D01*
X1186602Y478222D02*
X1194602D01*
X1190602Y474222D02*
Y482222D01*
X1256602Y508222D02*
X1264602D01*
X1260602Y504222D02*
Y512222D01*
X1256602Y498222D02*
X1264602D01*
X1260602Y494222D02*
Y502222D01*
X1256602Y488222D02*
X1264602D01*
X1260602Y484222D02*
Y492222D01*
X1256602Y478222D02*
X1264602D01*
X1260602Y474222D02*
Y482222D01*
X1226602Y508222D02*
X1234602D01*
X1230602Y504222D02*
Y512222D01*
X1226602Y498222D02*
X1234602D01*
X1230602Y494222D02*
Y502222D01*
X1226602Y488222D02*
X1234602D01*
X1230602Y484222D02*
Y492222D01*
X1226602Y478222D02*
X1234602D01*
X1230602Y474222D02*
Y482222D01*
X1236602Y488222D02*
X1244602D01*
X1240602Y484222D02*
Y492222D01*
X1236602Y478222D02*
X1244602D01*
X1240602Y474222D02*
Y482222D01*
X1236602Y508222D02*
X1244602D01*
X1240602Y504222D02*
Y512222D01*
X1236602Y498222D02*
X1244602D01*
X1240602Y494222D02*
Y502222D01*
X1246602Y488222D02*
X1254602D01*
X1250602Y484222D02*
Y492222D01*
X1246602Y478222D02*
X1254602D01*
X1250602Y474222D02*
Y482222D01*
X1246602Y508222D02*
X1254602D01*
X1250602Y504222D02*
Y512222D01*
X1246602Y498222D02*
X1254602D01*
X1250602Y494222D02*
Y502222D01*
X1296906Y512087D02*
X1304906D01*
X1300906Y508087D02*
Y516087D01*
X1266602Y508222D02*
X1274602D01*
X1270602Y504222D02*
Y512222D01*
X1266602Y498222D02*
X1274602D01*
X1270602Y494222D02*
Y502222D01*
X1266602Y488222D02*
X1274602D01*
X1270602Y484222D02*
Y492222D01*
X1266602Y478222D02*
X1274602D01*
X1270602Y474222D02*
Y482222D01*
X1276602Y508222D02*
X1284602D01*
X1280602Y504222D02*
Y512222D01*
X1276602Y498222D02*
X1284602D01*
X1280602Y494222D02*
Y502222D01*
X1276602Y488222D02*
X1284602D01*
X1280602Y484222D02*
Y492222D01*
X1276602Y478222D02*
X1284602D01*
X1280602Y474222D02*
Y482222D01*
X1286602Y508222D02*
X1294602D01*
X1290602Y504222D02*
Y512222D01*
X1286602Y498222D02*
X1294602D01*
X1290602Y494222D02*
Y502222D01*
X1286602Y488222D02*
X1294602D01*
X1290602Y484222D02*
Y492222D01*
X1286602Y478222D02*
X1294602D01*
X1290602Y474222D02*
Y482222D01*
X1296602Y498222D02*
X1304602D01*
X1300602Y494222D02*
Y502222D01*
X1296602Y488222D02*
X1304602D01*
X1300602Y484222D02*
Y492222D01*
X1296602Y478222D02*
X1304602D01*
X1300602Y474222D02*
Y482222D01*
X1333913Y497244D02*
X1341913D01*
X1337913Y493244D02*
Y501244D01*
X1318756Y496850D02*
X1326756D01*
X1322756Y492850D02*
Y500850D01*
X1312181Y512087D02*
X1320181D01*
X1316181Y508087D02*
Y516087D01*
X1316602Y478222D02*
X1324602D01*
X1320602Y474222D02*
Y482222D01*
X1329307Y502772D02*
X1337307D01*
Y510772*
X1329307*
Y502772*
X1333307Y506772D02*
Y510772D01*
X1326602Y478222D02*
X1334602D01*
X1330602Y474222D02*
Y482222D01*
X1336602Y488222D02*
X1344602D01*
X1340602Y484222D02*
Y492222D01*
X1336602Y478222D02*
X1344602D01*
X1340602Y474222D02*
Y482222D01*
X1328480Y509701D02*
X1336480D01*
Y517701*
X1328480*
Y509701*
X1332480Y513701D02*
Y517701D01*
X1308165Y498189D02*
X1316165D01*
X1312165Y494189D02*
Y502189D01*
X1306602Y478222D02*
X1314602D01*
X1310602Y474222D02*
Y482222D01*
X1346602Y488222D02*
X1354602D01*
X1350602Y484222D02*
Y492222D01*
X1346602Y478222D02*
X1354602D01*
X1350602Y474222D02*
Y482222D01*
X1356602Y488222D02*
X1364602D01*
X1360602Y484222D02*
Y492222D01*
X1356602Y478222D02*
X1364602D01*
X1360602Y474222D02*
Y482222D01*
X1366602Y508222D02*
X1374602D01*
X1370602Y504222D02*
Y512222D01*
X1366602Y498222D02*
X1374602D01*
X1370602Y494222D02*
Y502222D01*
X1366602Y488222D02*
X1374602D01*
X1370602Y484222D02*
Y492222D01*
X1366602Y478222D02*
X1374602D01*
X1370602Y474222D02*
Y482222D01*
X796602Y518222D02*
X804602D01*
X800602Y514222D02*
Y522222D01*
X806602Y518222D02*
X814602D01*
X810602Y514222D02*
Y522222D01*
X786602Y518222D02*
X794602D01*
X790602Y514222D02*
Y522222D01*
X786602Y548222D02*
X794602D01*
X790602Y544222D02*
Y552222D01*
X786602Y538222D02*
X794602D01*
X790602Y534222D02*
Y542222D01*
X786602Y528222D02*
X794602D01*
X790602Y524222D02*
Y532222D01*
X796602Y528222D02*
X804602D01*
X800602Y524222D02*
Y532222D01*
X806602Y528222D02*
X814602D01*
X810602Y524222D02*
Y532222D01*
X816602Y548222D02*
X824602D01*
X820602Y544222D02*
Y552222D01*
X816602Y538222D02*
X824602D01*
X820602Y534222D02*
Y542222D01*
X816602Y528222D02*
X824602D01*
X820602Y524222D02*
Y532222D01*
X816602Y518222D02*
X824602D01*
X820602Y514222D02*
Y522222D01*
X826602Y548222D02*
X834602D01*
X830602Y544222D02*
Y552222D01*
X826602Y538222D02*
X834602D01*
X830602Y534222D02*
Y542222D01*
X826602Y528222D02*
X834602D01*
X830602Y524222D02*
Y532222D01*
X826602Y518222D02*
X834602D01*
X830602Y514222D02*
Y522222D01*
X836602Y528222D02*
X844602D01*
X840602Y524222D02*
Y532222D01*
X836602Y518222D02*
X844602D01*
X840602Y514222D02*
Y522222D01*
X836602Y548222D02*
X844602D01*
X840602Y544222D02*
Y552222D01*
X836602Y538222D02*
X844602D01*
X840602Y534222D02*
Y542222D01*
X846602Y548222D02*
X854602D01*
X850602Y544222D02*
Y552222D01*
X846602Y538222D02*
X854602D01*
X850602Y534222D02*
Y542222D01*
X846602Y528222D02*
X854602D01*
X850602Y524222D02*
Y532222D01*
X846602Y518222D02*
X854602D01*
X850602Y514222D02*
Y522222D01*
X856602Y548222D02*
X864602D01*
X860602Y544222D02*
Y552222D01*
X856602Y538222D02*
X864602D01*
X860602Y534222D02*
Y542222D01*
X856602Y528222D02*
X864602D01*
X860602Y524222D02*
Y532222D01*
X856602Y518222D02*
X864602D01*
X860602Y514222D02*
Y522222D01*
X876602Y548222D02*
X884602D01*
X880602Y544222D02*
Y552222D01*
X876602Y538222D02*
X884602D01*
X880602Y534222D02*
Y542222D01*
X876602Y528222D02*
X884602D01*
X880602Y524222D02*
Y532222D01*
X876602Y518222D02*
X884602D01*
X880602Y514222D02*
Y522222D01*
X886602Y548222D02*
X894602D01*
X890602Y544222D02*
Y552222D01*
X886602Y538222D02*
X894602D01*
X890602Y534222D02*
Y542222D01*
X886602Y528222D02*
X894602D01*
X890602Y524222D02*
Y532222D01*
X886602Y518222D02*
X894602D01*
X890602Y514222D02*
Y522222D01*
X896602Y548222D02*
X904602D01*
X900602Y544222D02*
Y552222D01*
X896602Y538222D02*
X904602D01*
X900602Y534222D02*
Y542222D01*
X896602Y528222D02*
X904602D01*
X900602Y524222D02*
Y532222D01*
X896602Y518222D02*
X904602D01*
X900602Y514222D02*
Y522222D01*
X866602Y548222D02*
X874602D01*
X870602Y544222D02*
Y552222D01*
X866602Y538222D02*
X874602D01*
X870602Y534222D02*
Y542222D01*
X866602Y528222D02*
X874602D01*
X870602Y524222D02*
Y532222D01*
X866602Y518222D02*
X874602D01*
X870602Y514222D02*
Y522222D01*
X916602Y548222D02*
X924602D01*
X920602Y544222D02*
Y552222D01*
X916602Y538222D02*
X924602D01*
X920602Y534222D02*
Y542222D01*
X916602Y528222D02*
X924602D01*
X920602Y524222D02*
Y532222D01*
X916602Y518222D02*
X924602D01*
X920602Y514222D02*
Y522222D01*
X926602Y548222D02*
X934602D01*
X930602Y544222D02*
Y552222D01*
X926602Y538222D02*
X934602D01*
X930602Y534222D02*
Y542222D01*
X926602Y528222D02*
X934602D01*
X930602Y524222D02*
Y532222D01*
X926602Y518222D02*
X934602D01*
X930602Y514222D02*
Y522222D01*
X936602Y548222D02*
X944602D01*
X940602Y544222D02*
Y552222D01*
X936602Y538222D02*
X944602D01*
X940602Y534222D02*
Y542222D01*
X936602Y528222D02*
X944602D01*
X940602Y524222D02*
Y532222D01*
X936602Y518222D02*
X944602D01*
X940602Y514222D02*
Y522222D01*
X906602Y548222D02*
X914602D01*
X910602Y544222D02*
Y552222D01*
X906602Y538222D02*
X914602D01*
X910602Y534222D02*
Y542222D01*
X906602Y528222D02*
X914602D01*
X910602Y524222D02*
Y532222D01*
X906602Y518222D02*
X914602D01*
X910602Y514222D02*
Y522222D01*
X960370Y537181D02*
X968370D01*
Y545181*
X960370*
Y537181*
X964370Y541181D02*
Y545181D01*
X976602Y548222D02*
X984602D01*
X980602Y544222D02*
Y552222D01*
X946602Y548222D02*
X954602D01*
X950602Y544222D02*
Y552222D01*
X946602Y538222D02*
X954602D01*
X950602Y534222D02*
Y542222D01*
X946602Y528222D02*
X954602D01*
X950602Y524222D02*
Y532222D01*
X946602Y518222D02*
X954602D01*
X950602Y514222D02*
Y522222D01*
X966602Y548222D02*
X974602D01*
X970602Y544222D02*
Y552222D01*
X966602Y538222D02*
X974602D01*
X970602Y534222D02*
Y542222D01*
X966602Y518222D02*
X974602D01*
X970602Y514222D02*
Y522222D01*
X986602Y518222D02*
X994602D01*
X990602Y514222D02*
Y522222D01*
X986602Y548222D02*
X994602D01*
X990602Y544222D02*
Y552222D01*
X986602Y538222D02*
X994602D01*
X990602Y534222D02*
Y542222D01*
X986602Y528222D02*
X994602D01*
X990602Y524222D02*
Y532222D01*
X996602Y548222D02*
X1004602D01*
X1000602Y544222D02*
Y552222D01*
X996602Y538222D02*
X1004602D01*
X1000602Y534222D02*
Y542222D01*
X996602Y528222D02*
X1004602D01*
X1000602Y524222D02*
Y532222D01*
X996602Y518222D02*
X1004602D01*
X1000602Y514222D02*
Y522222D01*
X1051118Y521512D02*
X1059118D01*
Y529512*
X1051118*
Y521512*
X1055118Y525512D02*
Y529512D01*
X1066602Y538222D02*
X1074602D01*
X1070602Y534222D02*
Y542222D01*
X1076602Y548222D02*
X1084602D01*
X1080602Y544222D02*
Y552222D01*
X1076602Y528222D02*
X1084602D01*
X1080602Y524222D02*
Y532222D01*
X1076602Y518222D02*
X1084602D01*
X1080602Y514222D02*
Y522222D01*
X1086602Y548222D02*
X1094602D01*
X1090602Y544222D02*
Y552222D01*
X1086602Y528222D02*
X1094602D01*
X1090602Y524222D02*
Y532222D01*
X1086602Y518222D02*
X1094602D01*
X1090602Y514222D02*
Y522222D01*
X1096602Y538222D02*
X1104602D01*
X1100602Y534222D02*
Y542222D01*
X1096602Y548222D02*
X1104602D01*
X1100602Y544222D02*
Y552222D01*
X1121669Y530685D02*
X1129669D01*
Y538685*
X1121669*
Y530685*
X1125669Y534685D02*
Y538685D01*
X1136602Y548222D02*
X1144602D01*
X1140602Y544222D02*
Y552222D01*
X1136602Y538222D02*
X1144602D01*
X1140602Y534222D02*
Y542222D01*
X1136602Y528222D02*
X1144602D01*
X1140602Y524222D02*
Y532222D01*
X1136602Y518222D02*
X1144602D01*
X1140602Y514222D02*
Y522222D01*
X1106602Y548222D02*
X1114602D01*
X1110602Y544222D02*
Y552222D01*
X1106602Y538222D02*
X1114602D01*
X1110602Y534222D02*
Y542222D01*
X1106602Y528222D02*
X1114602D01*
X1110602Y524222D02*
Y532222D01*
X1106602Y518222D02*
X1114602D01*
X1110602Y514222D02*
Y522222D01*
X1146602Y548222D02*
X1154602D01*
X1150602Y544222D02*
Y552222D01*
X1146602Y538222D02*
X1154602D01*
X1150602Y534222D02*
Y542222D01*
X1146602Y528222D02*
X1154602D01*
X1150602Y524222D02*
Y532222D01*
X1146602Y518222D02*
X1154602D01*
X1150602Y514222D02*
Y522222D01*
X1156602Y548222D02*
X1164602D01*
X1160602Y544222D02*
Y552222D01*
X1156602Y538222D02*
X1164602D01*
X1160602Y534222D02*
Y542222D01*
X1156602Y528222D02*
X1164602D01*
X1160602Y524222D02*
Y532222D01*
X1156602Y518222D02*
X1164602D01*
X1160602Y514222D02*
Y522222D01*
X1166602Y518222D02*
X1174602D01*
X1170602Y514222D02*
Y522222D01*
X1166602Y548222D02*
X1174602D01*
X1170602Y544222D02*
Y552222D01*
X1166602Y538222D02*
X1174602D01*
X1170602Y534222D02*
Y542222D01*
X1166602Y528222D02*
X1174602D01*
X1170602Y524222D02*
Y532222D01*
X1176602Y548222D02*
X1184602D01*
X1180602Y544222D02*
Y552222D01*
X1176602Y538222D02*
X1184602D01*
X1180602Y534222D02*
Y542222D01*
X1176602Y528222D02*
X1184602D01*
X1180602Y524222D02*
Y532222D01*
X1176602Y518222D02*
X1184602D01*
X1180602Y514222D02*
Y522222D01*
X1186602Y548222D02*
X1194602D01*
X1190602Y544222D02*
Y552222D01*
X1186602Y538222D02*
X1194602D01*
X1190602Y534222D02*
Y542222D01*
X1186602Y528222D02*
X1194602D01*
X1190602Y524222D02*
Y532222D01*
X1186602Y518222D02*
X1194602D01*
X1190602Y514222D02*
Y522222D01*
X1196602Y538222D02*
X1204602D01*
X1200602Y534222D02*
Y542222D01*
X1196602Y528222D02*
X1204602D01*
X1200602Y524222D02*
Y532222D01*
X1196602Y518222D02*
X1204602D01*
X1200602Y514222D02*
Y522222D01*
X1196602Y548222D02*
X1204602D01*
X1200602Y544222D02*
Y552222D01*
X1206602Y548222D02*
X1214602D01*
X1210602Y544222D02*
Y552222D01*
X1206602Y538222D02*
X1214602D01*
X1210602Y534222D02*
Y542222D01*
X1206602Y528222D02*
X1214602D01*
X1210602Y524222D02*
Y532222D01*
X1206602Y518222D02*
X1214602D01*
X1210602Y514222D02*
Y522222D01*
X1216602Y548222D02*
X1224602D01*
X1220602Y544222D02*
Y552222D01*
X1216602Y538222D02*
X1224602D01*
X1220602Y534222D02*
Y542222D01*
X1216602Y528222D02*
X1224602D01*
X1220602Y524222D02*
Y532222D01*
X1216602Y518222D02*
X1224602D01*
X1220602Y514222D02*
Y522222D01*
X1256602Y548222D02*
X1264602D01*
X1260602Y544222D02*
Y552222D01*
X1256602Y538222D02*
X1264602D01*
X1260602Y534222D02*
Y542222D01*
X1256602Y528222D02*
X1264602D01*
X1260602Y524222D02*
Y532222D01*
X1256602Y518222D02*
X1264602D01*
X1260602Y514222D02*
Y522222D01*
X1226602Y528222D02*
X1234602D01*
X1230602Y524222D02*
Y532222D01*
X1226602Y518222D02*
X1234602D01*
X1230602Y514222D02*
Y522222D01*
X1226602Y548222D02*
X1234602D01*
X1230602Y544222D02*
Y552222D01*
X1226602Y538222D02*
X1234602D01*
X1230602Y534222D02*
Y542222D01*
X1236602Y548222D02*
X1244602D01*
X1240602Y544222D02*
Y552222D01*
X1236602Y538222D02*
X1244602D01*
X1240602Y534222D02*
Y542222D01*
X1236602Y528222D02*
X1244602D01*
X1240602Y524222D02*
Y532222D01*
X1236602Y518222D02*
X1244602D01*
X1240602Y514222D02*
Y522222D01*
X1246602Y548222D02*
X1254602D01*
X1250602Y544222D02*
Y552222D01*
X1246602Y538222D02*
X1254602D01*
X1250602Y534222D02*
Y542222D01*
X1246602Y528222D02*
X1254602D01*
X1250602Y524222D02*
Y532222D01*
X1246602Y518222D02*
X1254602D01*
X1250602Y514222D02*
Y522222D01*
X1266602Y518222D02*
X1274602D01*
X1270602Y514222D02*
Y522222D01*
X1266602Y528222D02*
X1274602D01*
X1270602Y524222D02*
Y532222D01*
X1276602Y528222D02*
X1284602D01*
X1280602Y524222D02*
Y532222D01*
X1276602Y518222D02*
X1284602D01*
X1280602Y514222D02*
Y522222D01*
X1286602Y548222D02*
X1294602D01*
X1290602Y544222D02*
Y552222D01*
X1286602Y538222D02*
X1294602D01*
X1290602Y534222D02*
Y542222D01*
X1286602Y528222D02*
X1294602D01*
X1290602Y524222D02*
Y532222D01*
X1286602Y518222D02*
X1294602D01*
X1290602Y514222D02*
Y522222D01*
X1337614Y529921D02*
X1345614D01*
X1341614Y525921D02*
Y533921D01*
X1320291Y547677D02*
X1328291D01*
X1324291Y543677D02*
Y551677D01*
X1326602Y548222D02*
X1334602D01*
X1330602Y544222D02*
Y552222D01*
X1336602Y548222D02*
X1344602D01*
X1340602Y544222D02*
Y552222D01*
X1330764Y514346D02*
X1338764D01*
Y522346*
X1330764*
Y514346*
X1334764Y518346D02*
Y522346D01*
X1306602Y548222D02*
X1314602D01*
X1310602Y544222D02*
Y552222D01*
X1311079Y527835D02*
X1319079D01*
X1315079Y523835D02*
Y531835D01*
X1309543Y550984D02*
X1317543D01*
X1313543Y546984D02*
Y554984D01*
X1356602Y548222D02*
X1364602D01*
X1360602Y544222D02*
Y552222D01*
X1356602Y538222D02*
X1364602D01*
X1360602Y534222D02*
Y542222D01*
X1366602Y548222D02*
X1374602D01*
X1370602Y544222D02*
Y552222D01*
X1366602Y538222D02*
X1374602D01*
X1370602Y534222D02*
Y542222D01*
X1366602Y528222D02*
X1374602D01*
X1370602Y524222D02*
Y532222D01*
X1366602Y518222D02*
X1374602D01*
X1370602Y514222D02*
Y522222D01*
X1348638Y532693D02*
X1356638D01*
Y540693*
X1348638*
Y532693*
X1352638Y536693D02*
Y540693D01*
X786602Y588222D02*
X794602D01*
X790602Y584222D02*
Y592222D01*
X786602Y578222D02*
X794602D01*
X790602Y574222D02*
Y582222D01*
X786602Y568222D02*
X794602D01*
X790602Y564222D02*
Y572222D01*
X786602Y558222D02*
X794602D01*
X790602Y554222D02*
Y562222D01*
X796602Y588222D02*
X804602D01*
X800602Y584222D02*
Y592222D01*
X796602Y578222D02*
X804602D01*
X800602Y574222D02*
Y582222D01*
X796602Y568222D02*
X804602D01*
X800602Y564222D02*
Y572222D01*
X796602Y558222D02*
X804602D01*
X800602Y554222D02*
Y562222D01*
X806602Y588222D02*
X814602D01*
X810602Y584222D02*
Y592222D01*
X806602Y578222D02*
X814602D01*
X810602Y574222D02*
Y582222D01*
X806602Y568222D02*
X814602D01*
X810602Y564222D02*
Y572222D01*
X806602Y558222D02*
X814602D01*
X810602Y554222D02*
Y562222D01*
X816602Y588222D02*
X824602D01*
X820602Y584222D02*
Y592222D01*
X816602Y568222D02*
X824602D01*
X820602Y564222D02*
Y572222D01*
X816602Y558222D02*
X824602D01*
X820602Y554222D02*
Y562222D01*
X826602Y558222D02*
X834602D01*
X830602Y554222D02*
Y562222D01*
X836602Y558222D02*
X844602D01*
X840602Y554222D02*
Y562222D01*
X846602Y588222D02*
X854602D01*
X850602Y584222D02*
Y592222D01*
X846602Y578222D02*
X854602D01*
X850602Y574222D02*
Y582222D01*
X846602Y568222D02*
X854602D01*
X850602Y564222D02*
Y572222D01*
X846602Y558222D02*
X854602D01*
X850602Y554222D02*
Y562222D01*
X856602Y578222D02*
X864602D01*
X860602Y574222D02*
Y582222D01*
X856602Y568222D02*
X864602D01*
X860602Y564222D02*
Y572222D01*
X856602Y558222D02*
X864602D01*
X860602Y554222D02*
Y562222D01*
X856602Y588222D02*
X864602D01*
X860602Y584222D02*
Y592222D01*
X876602Y588222D02*
X884602D01*
X880602Y584222D02*
Y592222D01*
X876602Y578222D02*
X884602D01*
X880602Y574222D02*
Y582222D01*
X876602Y568222D02*
X884602D01*
X880602Y564222D02*
Y572222D01*
X876602Y558222D02*
X884602D01*
X880602Y554222D02*
Y562222D01*
X886602Y558222D02*
X894602D01*
X890602Y554222D02*
Y562222D01*
X886602Y588222D02*
X894602D01*
X890602Y584222D02*
Y592222D01*
X886602Y578222D02*
X894602D01*
X890602Y574222D02*
Y582222D01*
X886602Y568222D02*
X894602D01*
X890602Y564222D02*
Y572222D01*
X896602Y588222D02*
X904602D01*
X900602Y584222D02*
Y592222D01*
X896602Y578222D02*
X904602D01*
X900602Y574222D02*
Y582222D01*
X896602Y568222D02*
X904602D01*
X900602Y564222D02*
Y572222D01*
X896602Y558222D02*
X904602D01*
X900602Y554222D02*
Y562222D01*
X866602Y588222D02*
X874602D01*
X870602Y584222D02*
Y592222D01*
X866602Y578222D02*
X874602D01*
X870602Y574222D02*
Y582222D01*
X866602Y568222D02*
X874602D01*
X870602Y564222D02*
Y572222D01*
X866602Y558222D02*
X874602D01*
X870602Y554222D02*
Y562222D01*
X916602Y588222D02*
X924602D01*
X920602Y584222D02*
Y592222D01*
X916602Y578222D02*
X924602D01*
X920602Y574222D02*
Y582222D01*
X916602Y568222D02*
X924602D01*
X920602Y564222D02*
Y572222D01*
X916602Y558222D02*
X924602D01*
X920602Y554222D02*
Y562222D01*
X926602Y588222D02*
X934602D01*
X930602Y584222D02*
Y592222D01*
X926602Y578222D02*
X934602D01*
X930602Y574222D02*
Y582222D01*
X926602Y568222D02*
X934602D01*
X930602Y564222D02*
Y572222D01*
X926602Y558222D02*
X934602D01*
X930602Y554222D02*
Y562222D01*
X936602Y578222D02*
X944602D01*
X940602Y574222D02*
Y582222D01*
X936602Y568222D02*
X944602D01*
X940602Y564222D02*
Y572222D01*
X936602Y558222D02*
X944602D01*
X940602Y554222D02*
Y562222D01*
X936602Y588222D02*
X944602D01*
X940602Y584222D02*
Y592222D01*
X906602Y588222D02*
X914602D01*
X910602Y584222D02*
Y592222D01*
X906602Y578222D02*
X914602D01*
X910602Y574222D02*
Y582222D01*
X906602Y568222D02*
X914602D01*
X910602Y564222D02*
Y572222D01*
X906602Y558222D02*
X914602D01*
X910602Y554222D02*
Y562222D01*
X976602Y588222D02*
X984602D01*
X980602Y584222D02*
Y592222D01*
X976602Y578222D02*
X984602D01*
X980602Y574222D02*
Y582222D01*
X976602Y558222D02*
X984602D01*
X980602Y554222D02*
Y562222D01*
X946602Y558222D02*
X954602D01*
X950602Y554222D02*
Y562222D01*
X946602Y588222D02*
X954602D01*
X950602Y584222D02*
Y592222D01*
X946602Y578222D02*
X954602D01*
X950602Y574222D02*
Y582222D01*
X946602Y568222D02*
X954602D01*
X950602Y564222D02*
Y572222D01*
X956602Y588222D02*
X964602D01*
X960602Y584222D02*
Y592222D01*
X956602Y578222D02*
X964602D01*
X960602Y574222D02*
Y582222D01*
X956602Y568222D02*
X964602D01*
X960602Y564222D02*
Y572222D01*
X966602Y588222D02*
X974602D01*
X970602Y584222D02*
Y592222D01*
X966602Y578222D02*
X974602D01*
X970602Y574222D02*
Y582222D01*
X966602Y558222D02*
X974602D01*
X970602Y554222D02*
Y562222D01*
X1017614Y590866D02*
X1025614D01*
X1021614Y586866D02*
Y594866D01*
X1021630Y595354D02*
X1029630D01*
X1025630Y591354D02*
Y599354D01*
X986602Y588222D02*
X994602D01*
X990602Y584222D02*
Y592222D01*
X986602Y578222D02*
X994602D01*
X990602Y574222D02*
Y582222D01*
X986602Y558222D02*
X994602D01*
X990602Y554222D02*
Y562222D01*
X996602Y588222D02*
X1004602D01*
X1000602Y584222D02*
Y592222D01*
X996602Y578222D02*
X1004602D01*
X1000602Y574222D02*
Y582222D01*
X996602Y558222D02*
X1004602D01*
X1000602Y554222D02*
Y562222D01*
X1006602Y588222D02*
X1014602D01*
X1010602Y584222D02*
Y592222D01*
X1006602Y578222D02*
X1014602D01*
X1010602Y574222D02*
Y582222D01*
X1006602Y558222D02*
X1014602D01*
X1010602Y554222D02*
Y562222D01*
X1051118Y566630D02*
X1059118D01*
Y574630*
X1051118*
Y566630*
X1055118Y570630D02*
Y574630D01*
X1046602Y578222D02*
X1054602D01*
X1050602Y574222D02*
Y582222D01*
X1056602Y578222D02*
X1064602D01*
X1060602Y574222D02*
Y582222D01*
X1066602Y578222D02*
X1074602D01*
X1070602Y574222D02*
Y582222D01*
X1066602Y558222D02*
X1074602D01*
X1070602Y554222D02*
Y562222D01*
X1076602Y578222D02*
X1084602D01*
X1080602Y574222D02*
Y582222D01*
X1076602Y558222D02*
X1084602D01*
X1080602Y554222D02*
Y562222D01*
X1086602Y578222D02*
X1094602D01*
X1090602Y574222D02*
Y582222D01*
X1086602Y558222D02*
X1094602D01*
X1090602Y554222D02*
Y562222D01*
X1096602Y578222D02*
X1104602D01*
X1100602Y574222D02*
Y582222D01*
X1096602Y558222D02*
X1104602D01*
X1100602Y554222D02*
Y562222D01*
X1121669Y566591D02*
X1129669D01*
Y574591*
X1121669*
Y566591*
X1125669Y570591D02*
Y574591D01*
X1126602Y578222D02*
X1134602D01*
X1130602Y574222D02*
Y582222D01*
X1136602Y578222D02*
X1144602D01*
X1140602Y574222D02*
Y582222D01*
X1136602Y558222D02*
X1144602D01*
X1140602Y554222D02*
Y562222D01*
X1106602Y578222D02*
X1114602D01*
X1110602Y574222D02*
Y582222D01*
X1106602Y558222D02*
X1114602D01*
X1110602Y554222D02*
Y562222D01*
X1116602Y578222D02*
X1124602D01*
X1120602Y574222D02*
Y582222D01*
X1171000Y590866D02*
X1179000D01*
X1175000Y586866D02*
Y594866D01*
X1167772Y595394D02*
X1175772D01*
X1171772Y591394D02*
Y599394D01*
X1183520Y566591D02*
X1191520D01*
Y574591*
X1183520*
Y566591*
X1187520Y570591D02*
Y574591D01*
X1146602Y578222D02*
X1154602D01*
X1150602Y574222D02*
Y582222D01*
X1146602Y558222D02*
X1154602D01*
X1150602Y554222D02*
Y562222D01*
X1156602Y578222D02*
X1164602D01*
X1160602Y574222D02*
Y582222D01*
X1156602Y558222D02*
X1164602D01*
X1160602Y554222D02*
Y562222D01*
X1166602Y578222D02*
X1174602D01*
X1170602Y574222D02*
Y582222D01*
X1166602Y558222D02*
X1174602D01*
X1170602Y554222D02*
Y562222D01*
X1176602Y588222D02*
X1184602D01*
X1180602Y584222D02*
Y592222D01*
X1176602Y578222D02*
X1184602D01*
X1180602Y574222D02*
Y582222D01*
X1176602Y558222D02*
X1184602D01*
X1180602Y554222D02*
Y562222D01*
X1186602Y558222D02*
X1194602D01*
X1190602Y554222D02*
Y562222D01*
X1196602Y588222D02*
X1204602D01*
X1200602Y584222D02*
Y592222D01*
X1196602Y578222D02*
X1204602D01*
X1200602Y574222D02*
Y582222D01*
X1196602Y568222D02*
X1204602D01*
X1200602Y564222D02*
Y572222D01*
X1196602Y558222D02*
X1204602D01*
X1200602Y554222D02*
Y562222D01*
X1206602Y558222D02*
X1214602D01*
X1210602Y554222D02*
Y562222D01*
X1216602Y558222D02*
X1224602D01*
X1220602Y554222D02*
Y562222D01*
X1256602Y568222D02*
X1264602D01*
X1260602Y564222D02*
Y572222D01*
X1256602Y558222D02*
X1264602D01*
X1260602Y554222D02*
Y562222D01*
X1256602Y588222D02*
X1264602D01*
X1260602Y584222D02*
Y592222D01*
X1256602Y578222D02*
X1264602D01*
X1260602Y574222D02*
Y582222D01*
X1226602Y588222D02*
X1234602D01*
X1230602Y584222D02*
Y592222D01*
X1226602Y568222D02*
X1234602D01*
X1230602Y564222D02*
Y572222D01*
X1226602Y558222D02*
X1234602D01*
X1230602Y554222D02*
Y562222D01*
X1236602Y588222D02*
X1244602D01*
X1240602Y584222D02*
Y592222D01*
X1236602Y578222D02*
X1244602D01*
X1240602Y574222D02*
Y582222D01*
X1236602Y568222D02*
X1244602D01*
X1240602Y564222D02*
Y572222D01*
X1236602Y558222D02*
X1244602D01*
X1240602Y554222D02*
Y562222D01*
X1246602Y588222D02*
X1254602D01*
X1250602Y584222D02*
Y592222D01*
X1246602Y578222D02*
X1254602D01*
X1250602Y574222D02*
Y582222D01*
X1246602Y568222D02*
X1254602D01*
X1250602Y564222D02*
Y572222D01*
X1246602Y558222D02*
X1254602D01*
X1250602Y554222D02*
Y562222D01*
X1286602Y578222D02*
X1294602D01*
X1290602Y574222D02*
Y582222D01*
X1266602Y588222D02*
X1274602D01*
X1270602Y584222D02*
Y592222D01*
X1266602Y578222D02*
X1274602D01*
X1270602Y574222D02*
Y582222D01*
X1266602Y568222D02*
X1274602D01*
X1270602Y564222D02*
Y572222D01*
X1266602Y558222D02*
X1274602D01*
X1270602Y554222D02*
Y562222D01*
X1276602Y588222D02*
X1284602D01*
X1280602Y584222D02*
Y592222D01*
X1276602Y578222D02*
X1284602D01*
X1280602Y574222D02*
Y582222D01*
X1276602Y568222D02*
X1284602D01*
X1280602Y564222D02*
Y572222D01*
X1276602Y558222D02*
X1284602D01*
X1280602Y554222D02*
Y562222D01*
X1286602Y568222D02*
X1294602D01*
X1290602Y564222D02*
Y572222D01*
X1286602Y558222D02*
X1294602D01*
X1290602Y554222D02*
Y562222D01*
X1286602Y588222D02*
X1294602D01*
X1290602Y584222D02*
Y592222D01*
X1296602Y588222D02*
X1304602D01*
X1300602Y584222D02*
Y592222D01*
X1296602Y578222D02*
X1304602D01*
X1300602Y574222D02*
Y582222D01*
X1316602Y588222D02*
X1324602D01*
X1320602Y584222D02*
Y592222D01*
X1316602Y578222D02*
X1324602D01*
X1320602Y574222D02*
Y582222D01*
X1316602Y568222D02*
X1324602D01*
X1320602Y564222D02*
Y572222D01*
X1326602Y578222D02*
X1334602D01*
X1330602Y574222D02*
Y582222D01*
X1326602Y568222D02*
X1334602D01*
X1330602Y564222D02*
Y572222D01*
X1326602Y588222D02*
X1334602D01*
X1330602Y584222D02*
Y592222D01*
X1336602Y588222D02*
X1344602D01*
X1340602Y584222D02*
Y592222D01*
X1336602Y578222D02*
X1344602D01*
X1340602Y574222D02*
Y582222D01*
X1336602Y568222D02*
X1344602D01*
X1340602Y564222D02*
Y572222D01*
X1306602Y588222D02*
X1314602D01*
X1310602Y584222D02*
Y592222D01*
X1306602Y578222D02*
X1314602D01*
X1310602Y574222D02*
Y582222D01*
X1356602Y588222D02*
X1364602D01*
X1360602Y584222D02*
Y592222D01*
X1356602Y578222D02*
X1364602D01*
X1360602Y574222D02*
Y582222D01*
X1356602Y568222D02*
X1364602D01*
X1360602Y564222D02*
Y572222D01*
X1356602Y558222D02*
X1364602D01*
X1360602Y554222D02*
Y562222D01*
X1366602Y588222D02*
X1374602D01*
X1370602Y584222D02*
Y592222D01*
X1366602Y578222D02*
X1374602D01*
X1370602Y574222D02*
Y582222D01*
X1366602Y568222D02*
X1374602D01*
X1370602Y564222D02*
Y572222D01*
X1366602Y558222D02*
X1374602D01*
X1370602Y554222D02*
Y562222D01*
X1349031Y559606D02*
X1357031D01*
X1353031Y555606D02*
Y563606D01*
X1356736Y564106D02*
X1356622Y564419D01*
X1356395Y564731*
X1356168Y564888*
X1355713*
X1355486Y564731*
X1355259Y564419*
X1355145Y564106*
X1355031Y563638*
Y562856*
X1355145Y562388*
X1355259Y562075*
X1355486Y561763*
X1355713Y561606*
X1356168*
X1356395Y561763*
X1356622Y562075*
X1356736Y562388*
X796602Y618222D02*
X804602D01*
X800602Y614222D02*
Y622222D01*
X786602Y598222D02*
X794602D01*
X790602Y594222D02*
Y602222D01*
X786602Y628222D02*
X794602D01*
X790602Y624222D02*
Y632222D01*
X786602Y618222D02*
X794602D01*
X790602Y614222D02*
Y622222D01*
X786602Y608222D02*
X794602D01*
X790602Y604222D02*
Y612222D01*
X796602Y608222D02*
X804602D01*
X800602Y604222D02*
Y612222D01*
X796602Y598222D02*
X804602D01*
X800602Y594222D02*
Y602222D01*
X806602Y608222D02*
X814602D01*
X810602Y604222D02*
Y612222D01*
X806602Y598222D02*
X814602D01*
X810602Y594222D02*
Y602222D01*
X806602Y628222D02*
X814602D01*
X810602Y624222D02*
Y632222D01*
X806602Y618222D02*
X814602D01*
X810602Y614222D02*
Y622222D01*
X816602Y628222D02*
X824602D01*
X820602Y624222D02*
Y632222D01*
X816602Y618222D02*
X824602D01*
X820602Y614222D02*
Y622222D01*
X816602Y608222D02*
X824602D01*
X820602Y604222D02*
Y612222D01*
X816602Y598222D02*
X824602D01*
X820602Y594222D02*
Y602222D01*
X826602Y628222D02*
X834602D01*
X830602Y624222D02*
Y632222D01*
X826602Y618222D02*
X834602D01*
X830602Y614222D02*
Y622222D01*
X826602Y608222D02*
X834602D01*
X830602Y604222D02*
Y612222D01*
X826602Y598222D02*
X834602D01*
X830602Y594222D02*
Y602222D01*
X836602Y628222D02*
X844602D01*
X840602Y624222D02*
Y632222D01*
X836602Y618222D02*
X844602D01*
X840602Y614222D02*
Y622222D01*
X836602Y608222D02*
X844602D01*
X840602Y604222D02*
Y612222D01*
X836602Y598222D02*
X844602D01*
X840602Y594222D02*
Y602222D01*
X846602Y628222D02*
X854602D01*
X850602Y624222D02*
Y632222D01*
X846602Y618222D02*
X854602D01*
X850602Y614222D02*
Y622222D01*
X846602Y608222D02*
X854602D01*
X850602Y604222D02*
Y612222D01*
X846602Y598222D02*
X854602D01*
X850602Y594222D02*
Y602222D01*
X856602Y628222D02*
X864602D01*
X860602Y624222D02*
Y632222D01*
X856602Y618222D02*
X864602D01*
X860602Y614222D02*
Y622222D01*
X856602Y608222D02*
X864602D01*
X860602Y604222D02*
Y612222D01*
X856602Y598222D02*
X864602D01*
X860602Y594222D02*
Y602222D01*
X876602Y618222D02*
X884602D01*
X880602Y614222D02*
Y622222D01*
X876602Y608222D02*
X884602D01*
X880602Y604222D02*
Y612222D01*
X876602Y598222D02*
X884602D01*
X880602Y594222D02*
Y602222D01*
X876602Y628222D02*
X884602D01*
X880602Y624222D02*
Y632222D01*
X886602Y628222D02*
X894602D01*
X890602Y624222D02*
Y632222D01*
X886602Y618222D02*
X894602D01*
X890602Y614222D02*
Y622222D01*
X886602Y608222D02*
X894602D01*
X890602Y604222D02*
Y612222D01*
X886602Y598222D02*
X894602D01*
X890602Y594222D02*
Y602222D01*
X896602Y628222D02*
X904602D01*
X900602Y624222D02*
Y632222D01*
X896602Y618222D02*
X904602D01*
X900602Y614222D02*
Y622222D01*
X896602Y608222D02*
X904602D01*
X900602Y604222D02*
Y612222D01*
X896602Y598222D02*
X904602D01*
X900602Y594222D02*
Y602222D01*
X866602Y628222D02*
X874602D01*
X870602Y624222D02*
Y632222D01*
X866602Y618222D02*
X874602D01*
X870602Y614222D02*
Y622222D01*
X866602Y608222D02*
X874602D01*
X870602Y604222D02*
Y612222D01*
X866602Y598222D02*
X874602D01*
X870602Y594222D02*
Y602222D01*
X916602Y628222D02*
X924602D01*
X920602Y624222D02*
Y632222D01*
X916602Y618222D02*
X924602D01*
X920602Y614222D02*
Y622222D01*
X916602Y608222D02*
X924602D01*
X920602Y604222D02*
Y612222D01*
X916602Y598222D02*
X924602D01*
X920602Y594222D02*
Y602222D01*
X926602Y628222D02*
X934602D01*
X930602Y624222D02*
Y632222D01*
X926602Y618222D02*
X934602D01*
X930602Y614222D02*
Y622222D01*
X926602Y608222D02*
X934602D01*
X930602Y604222D02*
Y612222D01*
X926602Y598222D02*
X934602D01*
X930602Y594222D02*
Y602222D01*
X936602Y628222D02*
X944602D01*
X940602Y624222D02*
Y632222D01*
X936602Y618222D02*
X944602D01*
X940602Y614222D02*
Y622222D01*
X936602Y608222D02*
X944602D01*
X940602Y604222D02*
Y612222D01*
X936602Y598222D02*
X944602D01*
X940602Y594222D02*
Y602222D01*
X906602Y628222D02*
X914602D01*
X910602Y624222D02*
Y632222D01*
X906602Y618222D02*
X914602D01*
X910602Y614222D02*
Y622222D01*
X906602Y608222D02*
X914602D01*
X910602Y604222D02*
Y612222D01*
X906602Y598222D02*
X914602D01*
X910602Y594222D02*
Y602222D01*
X966602Y628222D02*
X974602D01*
X970602Y624222D02*
Y632222D01*
X966602Y618222D02*
X974602D01*
X970602Y614222D02*
Y622222D01*
X976602Y628222D02*
X984602D01*
X980602Y624222D02*
Y632222D01*
X976602Y618222D02*
X984602D01*
X980602Y614222D02*
Y622222D01*
X976602Y598222D02*
X984602D01*
X980602Y594222D02*
Y602222D01*
X946602Y598222D02*
X954602D01*
X950602Y594222D02*
Y602222D01*
X956602Y598222D02*
X964602D01*
X960602Y594222D02*
Y602222D01*
X966602Y598222D02*
X974602D01*
X970602Y594222D02*
Y602222D01*
X951472Y609764D02*
X959472D01*
X955472Y605764D02*
Y613764D01*
X959177Y614264D02*
X959063Y614576D01*
X958836Y614889*
X958609Y615045*
X958154*
X957927Y614889*
X957700Y614576*
X957586Y614264*
X957472Y613795*
Y613014*
X957586Y612545*
X957700Y612233*
X957927Y611920*
X958154Y611764*
X958609*
X958836Y611920*
X959063Y612233*
X959177Y612545*
X986602Y598222D02*
X994602D01*
X990602Y594222D02*
Y602222D01*
X986602Y628222D02*
X994602D01*
X990602Y624222D02*
Y632222D01*
X986602Y618222D02*
X994602D01*
X990602Y614222D02*
Y622222D01*
X996602Y618222D02*
X1004602D01*
X1000602Y614222D02*
Y622222D01*
X996602Y598222D02*
X1004602D01*
X1000602Y594222D02*
Y602222D01*
X996602Y628222D02*
X1004602D01*
X1000602Y624222D02*
Y632222D01*
X1006602Y618222D02*
X1014602D01*
X1010602Y614222D02*
Y622222D01*
X1006602Y598222D02*
X1014602D01*
X1010602Y594222D02*
Y602222D01*
X1016602Y628222D02*
X1024602D01*
X1020602Y624222D02*
Y632222D01*
X1016602Y618222D02*
X1024602D01*
X1020602Y614222D02*
Y622222D01*
X1016602Y598222D02*
X1024602D01*
X1020602Y594222D02*
Y602222D01*
X1036433Y624528D02*
X1044433D01*
X1040433Y620528D02*
Y628528D01*
X1026118Y599016D02*
X1034118D01*
X1030118Y595016D02*
Y603016D01*
X1056602Y628222D02*
X1064602D01*
X1060602Y624222D02*
Y632222D01*
X1026602Y628222D02*
X1034602D01*
X1030602Y624222D02*
Y632222D01*
X1026602Y618222D02*
X1034602D01*
X1030602Y614222D02*
Y622222D01*
X1046602Y628222D02*
X1054602D01*
X1050602Y624222D02*
Y632222D01*
X1066602Y628222D02*
X1074602D01*
X1070602Y624222D02*
Y632222D01*
X1086602Y628222D02*
X1094602D01*
X1090602Y624222D02*
Y632222D01*
X1175724Y599016D02*
X1183724D01*
X1179724Y595016D02*
Y603016D01*
X1175724Y623150D02*
X1183724D01*
X1179724Y619150D02*
Y627150D01*
X1171000Y627953D02*
X1179000D01*
X1175000Y623953D02*
Y631953D01*
X1167732Y632638D02*
X1175732D01*
X1171732Y628638D02*
Y636638D01*
X1186602Y628222D02*
X1194602D01*
X1190602Y624222D02*
Y632222D01*
X1196602Y598222D02*
X1204602D01*
X1200602Y594222D02*
Y602222D01*
X1206602Y618222D02*
X1214602D01*
X1210602Y614222D02*
Y622222D01*
X1207850Y609449D02*
X1215850D01*
X1211850Y605449D02*
Y613449D01*
X1216602Y608222D02*
X1224602D01*
X1220602Y604222D02*
Y612222D01*
X1216602Y628222D02*
X1224602D01*
X1220602Y624222D02*
Y632222D01*
X1216602Y618222D02*
X1224602D01*
X1220602Y614222D02*
Y622222D01*
X1256602Y628222D02*
X1264602D01*
X1260602Y624222D02*
Y632222D01*
X1256602Y618222D02*
X1264602D01*
X1260602Y614222D02*
Y622222D01*
X1256602Y598222D02*
X1264602D01*
X1260602Y594222D02*
Y602222D01*
X1226602Y608222D02*
X1234602D01*
X1230602Y604222D02*
Y612222D01*
X1263795Y605724D02*
X1271795D01*
Y613724*
X1263795*
Y605724*
X1267795Y609724D02*
Y613724D01*
X1266602Y628222D02*
X1274602D01*
X1270602Y624222D02*
Y632222D01*
X1266602Y618222D02*
X1274602D01*
X1270602Y614222D02*
Y622222D01*
X1266602Y598222D02*
X1274602D01*
X1270602Y594222D02*
Y602222D01*
X1276602Y628222D02*
X1284602D01*
X1280602Y624222D02*
Y632222D01*
X1276602Y618222D02*
X1284602D01*
X1280602Y614222D02*
Y622222D01*
X1276602Y598222D02*
X1284602D01*
X1280602Y594222D02*
Y602222D01*
X1286602Y628222D02*
X1294602D01*
X1290602Y624222D02*
Y632222D01*
X1286602Y618222D02*
X1294602D01*
X1290602Y614222D02*
Y622222D01*
X1286602Y598222D02*
X1294602D01*
X1290602Y594222D02*
Y602222D01*
X1296602Y628222D02*
X1304602D01*
X1300602Y624222D02*
Y632222D01*
X1296602Y618222D02*
X1304602D01*
X1300602Y614222D02*
Y622222D01*
X1296602Y598222D02*
X1304602D01*
X1300602Y594222D02*
Y602222D01*
X1296472Y606276D02*
X1304472D01*
Y614276*
X1296472*
Y606276*
X1300472Y610276D02*
Y614276D01*
X1279858Y606000D02*
X1287858D01*
Y614000*
X1279858*
Y606000*
X1283858Y610000D02*
Y614000D01*
X1316602Y628222D02*
X1324602D01*
X1320602Y624222D02*
Y632222D01*
X1316602Y618222D02*
X1324602D01*
X1320602Y614222D02*
Y622222D01*
X1316602Y598222D02*
X1324602D01*
X1320602Y594222D02*
Y602222D01*
X1326602Y628222D02*
X1334602D01*
X1330602Y624222D02*
Y632222D01*
X1326602Y618222D02*
X1334602D01*
X1330602Y614222D02*
Y622222D01*
X1326602Y598222D02*
X1334602D01*
X1330602Y594222D02*
Y602222D01*
X1336602Y628222D02*
X1344602D01*
X1340602Y624222D02*
Y632222D01*
X1336602Y618222D02*
X1344602D01*
X1340602Y614222D02*
Y622222D01*
X1336602Y598222D02*
X1344602D01*
X1340602Y594222D02*
Y602222D01*
X1306602Y598222D02*
X1314602D01*
X1310602Y594222D02*
Y602222D01*
X1306602Y628222D02*
X1314602D01*
X1310602Y624222D02*
Y632222D01*
X1306602Y618222D02*
X1314602D01*
X1310602Y614222D02*
Y622222D01*
X1342299Y602181D02*
X1350299D01*
Y610181*
X1342299*
Y602181*
X1346299Y606181D02*
Y610181D01*
X1335291Y605882D02*
X1343291D01*
Y613882*
X1335291*
Y605882*
X1339291Y609882D02*
Y613882D01*
X1323795Y606000D02*
X1331795D01*
Y614000*
X1323795*
Y606000*
X1327795Y610000D02*
Y614000D01*
X1313480Y606157D02*
X1321480D01*
Y614157*
X1313480*
Y606157*
X1317480Y610157D02*
Y614157D01*
X1347890Y609528D02*
X1355890D01*
X1351890Y605528D02*
Y613528D01*
X1346602Y628222D02*
X1354602D01*
X1350602Y624222D02*
Y632222D01*
X1346602Y618222D02*
X1354602D01*
X1350602Y614222D02*
Y622222D01*
X1356602Y628222D02*
X1364602D01*
X1360602Y624222D02*
Y632222D01*
X1356602Y618222D02*
X1364602D01*
X1360602Y614222D02*
Y622222D01*
X1356602Y608222D02*
X1364602D01*
X1360602Y604222D02*
Y612222D01*
X1356602Y598222D02*
X1364602D01*
X1360602Y594222D02*
Y602222D01*
X1366602Y608222D02*
X1374602D01*
X1370602Y604222D02*
Y612222D01*
X1366602Y598222D02*
X1374602D01*
X1370602Y594222D02*
Y602222D01*
X1366602Y628222D02*
X1374602D01*
X1370602Y624222D02*
Y632222D01*
X1366602Y618222D02*
X1374602D01*
X1370602Y614222D02*
Y622222D01*
X786602Y668222D02*
X794602D01*
X790602Y664222D02*
Y672222D01*
X786602Y658222D02*
X794602D01*
X790602Y654222D02*
Y662222D01*
X786602Y648222D02*
X794602D01*
X790602Y644222D02*
Y652222D01*
X786602Y638222D02*
X794602D01*
X790602Y634222D02*
Y642222D01*
X796602Y668222D02*
X804602D01*
X800602Y664222D02*
Y672222D01*
X796602Y658222D02*
X804602D01*
X800602Y654222D02*
Y662222D01*
X806602Y668222D02*
X814602D01*
X810602Y664222D02*
Y672222D01*
X806602Y658222D02*
X814602D01*
X810602Y654222D02*
Y662222D01*
X806602Y648222D02*
X814602D01*
X810602Y644222D02*
Y652222D01*
X816602Y638222D02*
X824602D01*
X820602Y634222D02*
Y642222D01*
X816602Y668222D02*
X824602D01*
X820602Y664222D02*
Y672222D01*
X816602Y658222D02*
X824602D01*
X820602Y654222D02*
Y662222D01*
X816602Y648222D02*
X824602D01*
X820602Y644222D02*
Y652222D01*
X836602Y648222D02*
X844602D01*
X840602Y644222D02*
Y652222D01*
X826602Y668222D02*
X834602D01*
X830602Y664222D02*
Y672222D01*
X826602Y658222D02*
X834602D01*
X830602Y654222D02*
Y662222D01*
X826602Y648222D02*
X834602D01*
X830602Y644222D02*
Y652222D01*
X826602Y638222D02*
X834602D01*
X830602Y634222D02*
Y642222D01*
X836602Y638222D02*
X844602D01*
X840602Y634222D02*
Y642222D01*
X836602Y668222D02*
X844602D01*
X840602Y664222D02*
Y672222D01*
X836602Y658222D02*
X844602D01*
X840602Y654222D02*
Y662222D01*
X846602Y668222D02*
X854602D01*
X850602Y664222D02*
Y672222D01*
X846602Y658222D02*
X854602D01*
X850602Y654222D02*
Y662222D01*
X846602Y648222D02*
X854602D01*
X850602Y644222D02*
Y652222D01*
X846602Y638222D02*
X854602D01*
X850602Y634222D02*
Y642222D01*
X856602Y668222D02*
X864602D01*
X860602Y664222D02*
Y672222D01*
X856602Y658222D02*
X864602D01*
X860602Y654222D02*
Y662222D01*
X856602Y648222D02*
X864602D01*
X860602Y644222D02*
Y652222D01*
X856602Y638222D02*
X864602D01*
X860602Y634222D02*
Y642222D01*
X866602Y668222D02*
X874602D01*
X870602Y664222D02*
Y672222D01*
X866602Y658222D02*
X874602D01*
X870602Y654222D02*
Y662222D01*
X866602Y648222D02*
X874602D01*
X870602Y644222D02*
Y652222D01*
X866602Y638222D02*
X874602D01*
X870602Y634222D02*
Y642222D01*
X876602Y668222D02*
X884602D01*
X880602Y664222D02*
Y672222D01*
X876602Y658222D02*
X884602D01*
X880602Y654222D02*
Y662222D01*
X876602Y648222D02*
X884602D01*
X880602Y644222D02*
Y652222D01*
X876602Y638222D02*
X884602D01*
X880602Y634222D02*
Y642222D01*
X886602Y668222D02*
X894602D01*
X890602Y664222D02*
Y672222D01*
X886602Y658222D02*
X894602D01*
X890602Y654222D02*
Y662222D01*
X886602Y648222D02*
X894602D01*
X890602Y644222D02*
Y652222D01*
X886602Y638222D02*
X894602D01*
X890602Y634222D02*
Y642222D01*
X896602Y668222D02*
X904602D01*
X900602Y664222D02*
Y672222D01*
X896602Y658222D02*
X904602D01*
X900602Y654222D02*
Y662222D01*
X896602Y648222D02*
X904602D01*
X900602Y644222D02*
Y652222D01*
X896602Y638222D02*
X904602D01*
X900602Y634222D02*
Y642222D01*
X916602Y668222D02*
X924602D01*
X920602Y664222D02*
Y672222D01*
X916602Y658222D02*
X924602D01*
X920602Y654222D02*
Y662222D01*
X916602Y648222D02*
X924602D01*
X920602Y644222D02*
Y652222D01*
X916602Y638222D02*
X924602D01*
X920602Y634222D02*
Y642222D01*
X926602Y668222D02*
X934602D01*
X930602Y664222D02*
Y672222D01*
X926602Y658222D02*
X934602D01*
X930602Y654222D02*
Y662222D01*
X926602Y648222D02*
X934602D01*
X930602Y644222D02*
Y652222D01*
X926602Y638222D02*
X934602D01*
X930602Y634222D02*
Y642222D01*
X936602Y658222D02*
X944602D01*
X940602Y654222D02*
Y662222D01*
X936602Y648222D02*
X944602D01*
X940602Y644222D02*
Y652222D01*
X936602Y638222D02*
X944602D01*
X940602Y634222D02*
Y642222D01*
X936602Y668222D02*
X944602D01*
X940602Y664222D02*
Y672222D01*
X906602Y638222D02*
X914602D01*
X910602Y634222D02*
Y642222D01*
X906602Y668222D02*
X914602D01*
X910602Y664222D02*
Y672222D01*
X906602Y658222D02*
X914602D01*
X910602Y654222D02*
Y662222D01*
X906602Y648222D02*
X914602D01*
X910602Y644222D02*
Y652222D01*
X962260Y660197D02*
X970260D01*
X966260Y656197D02*
Y664197D01*
X964701Y657047D02*
X972701D01*
X968701Y653047D02*
Y661047D01*
X962457Y653898D02*
X970457D01*
X966457Y649898D02*
Y657898D01*
X965016Y650748D02*
X973016D01*
X969016Y646748D02*
Y654748D01*
X966602Y668222D02*
X974602D01*
X970602Y664222D02*
Y672222D01*
X966512Y637205D02*
X974512D01*
X970512Y633205D02*
Y641205D01*
X976602Y668222D02*
X984602D01*
X980602Y664222D02*
Y672222D01*
X976602Y638222D02*
X984602D01*
X980602Y634222D02*
Y642222D01*
X951315Y641339D02*
X959315D01*
X955315Y637339D02*
Y645339D01*
X959020Y645839D02*
X958906Y646151D01*
X958679Y646464*
X958451Y646620*
X957997*
X957770Y646464*
X957542Y646151*
X957429Y645839*
X957315Y645370*
Y644589*
X957429Y644120*
X957542Y643807*
X957770Y643495*
X957997Y643339*
X958451*
X958679Y643495*
X958906Y643807*
X959020Y644120*
X986602Y668222D02*
X994602D01*
X990602Y664222D02*
Y672222D01*
X996602Y638222D02*
X1004602D01*
X1000602Y634222D02*
Y642222D01*
X1006602Y638222D02*
X1014602D01*
X1010602Y634222D02*
Y642222D01*
X1016602Y638222D02*
X1024602D01*
X1020602Y634222D02*
Y642222D01*
X1056602Y668222D02*
X1064602D01*
X1060602Y664222D02*
Y672222D01*
X1056602Y638222D02*
X1064602D01*
X1060602Y634222D02*
Y642222D01*
X1064386Y667638D02*
X1072386D01*
X1068386Y663638D02*
Y671638D01*
X1026602Y638222D02*
X1034602D01*
X1030602Y634222D02*
Y642222D01*
X1036602Y668222D02*
X1044602D01*
X1040602Y664222D02*
Y672222D01*
X1036602Y638222D02*
X1044602D01*
X1040602Y634222D02*
Y642222D01*
X1046602Y638222D02*
X1054602D01*
X1050602Y634222D02*
Y642222D01*
X1046602Y668222D02*
X1054602D01*
X1050602Y664222D02*
Y672222D01*
X1066602Y638222D02*
X1074602D01*
X1070602Y634222D02*
Y642222D01*
X1075606Y667913D02*
X1083606D01*
X1079606Y663913D02*
Y671913D01*
X1076602Y638222D02*
X1084602D01*
X1080602Y634222D02*
Y642222D01*
X1086602Y668222D02*
X1094602D01*
X1090602Y664222D02*
Y672222D01*
X1086602Y638222D02*
X1094602D01*
X1090602Y634222D02*
Y642222D01*
X1141236Y660236D02*
X1149236D01*
X1145236Y656236D02*
Y664236D01*
X1124622Y657047D02*
X1132622D01*
X1128622Y653047D02*
Y661047D01*
X1126602Y638222D02*
X1134602D01*
X1130602Y634222D02*
Y642222D01*
X1136602Y668222D02*
X1144602D01*
X1140602Y664222D02*
Y672222D01*
X1136602Y638222D02*
X1144602D01*
X1140602Y634222D02*
Y642222D01*
X1116602Y668222D02*
X1124602D01*
X1120602Y664222D02*
Y672222D01*
X1116602Y638222D02*
X1124602D01*
X1120602Y634222D02*
Y642222D01*
X1157496Y653858D02*
X1165496D01*
X1161496Y649858D02*
Y657858D01*
X1146669Y650748D02*
X1154669D01*
X1150669Y646748D02*
Y654748D01*
X1146669Y658504D02*
X1154669D01*
X1150669Y654504D02*
Y662504D01*
X1146602Y638222D02*
X1154602D01*
X1150602Y634222D02*
Y642222D01*
X1156602Y648222D02*
X1164602D01*
X1160602Y644222D02*
Y652222D01*
X1156602Y638222D02*
X1164602D01*
X1160602Y634222D02*
Y642222D01*
X1217299Y642181D02*
X1225299D01*
Y650181*
X1217299*
Y642181*
X1221299Y646181D02*
Y650181D01*
X1186602Y638222D02*
X1194602D01*
X1190602Y634222D02*
Y642222D01*
X1186602Y668222D02*
X1194602D01*
X1190602Y664222D02*
Y672222D01*
X1186602Y658222D02*
X1194602D01*
X1190602Y654222D02*
Y662222D01*
X1186602Y648222D02*
X1194602D01*
X1190602Y644222D02*
Y652222D01*
X1206602Y648222D02*
X1214602D01*
X1210602Y644222D02*
Y652222D01*
X1206602Y638222D02*
X1214602D01*
X1210602Y634222D02*
Y642222D01*
X1216602Y658222D02*
X1224602D01*
X1220602Y654222D02*
Y662222D01*
X1256602Y658222D02*
X1264602D01*
X1260602Y654222D02*
Y662222D01*
X1226602Y658222D02*
X1234602D01*
X1230602Y654222D02*
Y662222D01*
X1236602Y658222D02*
X1244602D01*
X1240602Y654222D02*
Y662222D01*
X1246602Y658222D02*
X1254602D01*
X1250602Y654222D02*
Y662222D01*
X1266602Y668222D02*
X1274602D01*
X1270602Y664222D02*
Y672222D01*
X1266602Y658222D02*
X1274602D01*
X1270602Y654222D02*
Y662222D01*
X1266602Y648222D02*
X1274602D01*
X1270602Y644222D02*
Y652222D01*
X1276602Y648222D02*
X1284602D01*
X1280602Y644222D02*
Y652222D01*
X1276602Y638222D02*
X1284602D01*
X1280602Y634222D02*
Y642222D01*
X1276602Y668222D02*
X1284602D01*
X1280602Y664222D02*
Y672222D01*
X1276602Y658222D02*
X1284602D01*
X1280602Y654222D02*
Y662222D01*
X1286602Y668222D02*
X1294602D01*
X1290602Y664222D02*
Y672222D01*
X1286602Y658222D02*
X1294602D01*
X1290602Y654222D02*
Y662222D01*
X1286602Y648222D02*
X1294602D01*
X1290602Y644222D02*
Y652222D01*
X1286602Y638222D02*
X1294602D01*
X1290602Y634222D02*
Y642222D01*
X1296602Y668222D02*
X1304602D01*
X1300602Y664222D02*
Y672222D01*
X1296602Y658222D02*
X1304602D01*
X1300602Y654222D02*
Y662222D01*
X1296602Y648222D02*
X1304602D01*
X1300602Y644222D02*
Y652222D01*
X1296602Y638222D02*
X1304602D01*
X1300602Y634222D02*
Y642222D01*
X1316602Y638222D02*
X1324602D01*
X1320602Y634222D02*
Y642222D01*
X1316602Y668222D02*
X1324602D01*
X1320602Y664222D02*
Y672222D01*
X1316602Y658222D02*
X1324602D01*
X1320602Y654222D02*
Y662222D01*
X1316602Y648222D02*
X1324602D01*
X1320602Y644222D02*
Y652222D01*
X1326602Y668222D02*
X1334602D01*
X1330602Y664222D02*
Y672222D01*
X1326602Y658222D02*
X1334602D01*
X1330602Y654222D02*
Y662222D01*
X1326602Y648222D02*
X1334602D01*
X1330602Y644222D02*
Y652222D01*
X1326602Y638222D02*
X1334602D01*
X1330602Y634222D02*
Y642222D01*
X1336602Y668222D02*
X1344602D01*
X1340602Y664222D02*
Y672222D01*
X1336602Y658222D02*
X1344602D01*
X1340602Y654222D02*
Y662222D01*
X1336602Y648222D02*
X1344602D01*
X1340602Y644222D02*
Y652222D01*
X1336602Y638222D02*
X1344602D01*
X1340602Y634222D02*
Y642222D01*
X1306602Y668222D02*
X1314602D01*
X1310602Y664222D02*
Y672222D01*
X1306602Y658222D02*
X1314602D01*
X1310602Y654222D02*
Y662222D01*
X1306602Y648222D02*
X1314602D01*
X1310602Y644222D02*
Y652222D01*
X1306602Y638222D02*
X1314602D01*
X1310602Y634222D02*
Y642222D01*
X1346602Y668222D02*
X1354602D01*
X1350602Y664222D02*
Y672222D01*
X1346602Y658222D02*
X1354602D01*
X1350602Y654222D02*
Y662222D01*
X1346602Y648222D02*
X1354602D01*
X1350602Y644222D02*
Y652222D01*
X1346602Y638222D02*
X1354602D01*
X1350602Y634222D02*
Y642222D01*
X1356602Y638222D02*
X1364602D01*
X1360602Y634222D02*
Y642222D01*
X1356602Y668222D02*
X1364602D01*
X1360602Y664222D02*
Y672222D01*
X1356602Y658222D02*
X1364602D01*
X1360602Y654222D02*
Y662222D01*
X1356602Y648222D02*
X1364602D01*
X1360602Y644222D02*
Y652222D01*
X1366602Y668222D02*
X1374602D01*
X1370602Y664222D02*
Y672222D01*
X1366602Y658222D02*
X1374602D01*
X1370602Y654222D02*
Y662222D01*
X1366602Y648222D02*
X1374602D01*
X1370602Y644222D02*
Y652222D01*
X1366602Y638222D02*
X1374602D01*
X1370602Y634222D02*
Y642222D01*
X786602Y678222D02*
X794602D01*
X790602Y674222D02*
Y682222D01*
X786602Y708222D02*
X794602D01*
X790602Y704222D02*
Y712222D01*
X786602Y698222D02*
X794602D01*
X790602Y694222D02*
Y702222D01*
X786602Y688222D02*
X794602D01*
X790602Y684222D02*
Y692222D01*
X796602Y708222D02*
X804602D01*
X800602Y704222D02*
Y712222D01*
X796602Y698222D02*
X804602D01*
X800602Y694222D02*
Y702222D01*
X796602Y688222D02*
X804602D01*
X800602Y684222D02*
Y692222D01*
X796602Y678222D02*
X804602D01*
X800602Y674222D02*
Y682222D01*
X806602Y708222D02*
X814602D01*
X810602Y704222D02*
Y712222D01*
X806602Y698222D02*
X814602D01*
X810602Y694222D02*
Y702222D01*
X806602Y688222D02*
X814602D01*
X810602Y684222D02*
Y692222D01*
X806602Y678222D02*
X814602D01*
X810602Y674222D02*
Y682222D01*
X816602Y708222D02*
X824602D01*
X820602Y704222D02*
Y712222D01*
X816602Y698222D02*
X824602D01*
X820602Y694222D02*
Y702222D01*
X816602Y688222D02*
X824602D01*
X820602Y684222D02*
Y692222D01*
X816602Y678222D02*
X824602D01*
X820602Y674222D02*
Y682222D01*
X826602Y708222D02*
X834602D01*
X830602Y704222D02*
Y712222D01*
X826602Y698222D02*
X834602D01*
X830602Y694222D02*
Y702222D01*
X826602Y688222D02*
X834602D01*
X830602Y684222D02*
Y692222D01*
X826602Y678222D02*
X834602D01*
X830602Y674222D02*
Y682222D01*
X836602Y708222D02*
X844602D01*
X840602Y704222D02*
Y712222D01*
X836602Y698222D02*
X844602D01*
X840602Y694222D02*
Y702222D01*
X836602Y688222D02*
X844602D01*
X840602Y684222D02*
Y692222D01*
X836602Y678222D02*
X844602D01*
X840602Y674222D02*
Y682222D01*
X846602Y708222D02*
X854602D01*
X850602Y704222D02*
Y712222D01*
X846602Y698222D02*
X854602D01*
X850602Y694222D02*
Y702222D01*
X846602Y688222D02*
X854602D01*
X850602Y684222D02*
Y692222D01*
X846602Y678222D02*
X854602D01*
X850602Y674222D02*
Y682222D01*
X856602Y708222D02*
X864602D01*
X860602Y704222D02*
Y712222D01*
X856602Y698222D02*
X864602D01*
X860602Y694222D02*
Y702222D01*
X856602Y688222D02*
X864602D01*
X860602Y684222D02*
Y692222D01*
X856602Y678222D02*
X864602D01*
X860602Y674222D02*
Y682222D01*
X866602Y708222D02*
X874602D01*
X870602Y704222D02*
Y712222D01*
X866602Y698222D02*
X874602D01*
X870602Y694222D02*
Y702222D01*
X866602Y688222D02*
X874602D01*
X870602Y684222D02*
Y692222D01*
X866602Y678222D02*
X874602D01*
X870602Y674222D02*
Y682222D01*
X876602Y708222D02*
X884602D01*
X880602Y704222D02*
Y712222D01*
X876602Y698222D02*
X884602D01*
X880602Y694222D02*
Y702222D01*
X876602Y688222D02*
X884602D01*
X880602Y684222D02*
Y692222D01*
X876602Y678222D02*
X884602D01*
X880602Y674222D02*
Y682222D01*
X886602Y708222D02*
X894602D01*
X890602Y704222D02*
Y712222D01*
X886602Y698222D02*
X894602D01*
X890602Y694222D02*
Y702222D01*
X886602Y688222D02*
X894602D01*
X890602Y684222D02*
Y692222D01*
X886602Y678222D02*
X894602D01*
X890602Y674222D02*
Y682222D01*
X896602Y708222D02*
X904602D01*
X900602Y704222D02*
Y712222D01*
X896602Y698222D02*
X904602D01*
X900602Y694222D02*
Y702222D01*
X896602Y688222D02*
X904602D01*
X900602Y684222D02*
Y692222D01*
X896602Y678222D02*
X904602D01*
X900602Y674222D02*
Y682222D01*
X916602Y708222D02*
X924602D01*
X920602Y704222D02*
Y712222D01*
X916602Y698222D02*
X924602D01*
X920602Y694222D02*
Y702222D01*
X916602Y688222D02*
X924602D01*
X920602Y684222D02*
Y692222D01*
X916602Y678222D02*
X924602D01*
X920602Y674222D02*
Y682222D01*
X926602Y708222D02*
X934602D01*
X930602Y704222D02*
Y712222D01*
X926602Y698222D02*
X934602D01*
X930602Y694222D02*
Y702222D01*
X926602Y688222D02*
X934602D01*
X930602Y684222D02*
Y692222D01*
X926602Y678222D02*
X934602D01*
X930602Y674222D02*
Y682222D01*
X936602Y708222D02*
X944602D01*
X940602Y704222D02*
Y712222D01*
X936602Y698222D02*
X944602D01*
X940602Y694222D02*
Y702222D01*
X936602Y688222D02*
X944602D01*
X940602Y684222D02*
Y692222D01*
X936602Y678222D02*
X944602D01*
X940602Y674222D02*
Y682222D01*
X906602Y708222D02*
X914602D01*
X910602Y704222D02*
Y712222D01*
X906602Y698222D02*
X914602D01*
X910602Y694222D02*
Y702222D01*
X906602Y688222D02*
X914602D01*
X910602Y684222D02*
Y692222D01*
X906602Y678222D02*
X914602D01*
X910602Y674222D02*
Y682222D01*
X962339Y710591D02*
X970339D01*
X966339Y706591D02*
Y714591D01*
X962772Y707441D02*
X970772D01*
X966772Y703441D02*
Y711441D01*
X951394Y693189D02*
X959394D01*
X955394Y689189D02*
Y697189D01*
X959098Y697689D02*
X958985Y698001D01*
X958757Y698314*
X958530Y698470*
X958076*
X957848Y698314*
X957621Y698001*
X957507Y697689*
X957394Y697220*
Y696439*
X957507Y695970*
X957621Y695658*
X957848Y695345*
X958076Y695189*
X958530*
X958757Y695345*
X958985Y695658*
X959098Y695970*
X986602Y708222D02*
X994602D01*
X990602Y704222D02*
Y712222D01*
X986602Y698222D02*
X994602D01*
X990602Y694222D02*
Y702222D01*
X1016748Y693858D02*
X1024748D01*
X1020748Y689858D02*
Y697858D01*
X1016602Y708222D02*
X1024602D01*
X1020602Y704222D02*
Y712222D01*
X1016602Y698222D02*
X1024602D01*
X1020602Y694222D02*
Y702222D01*
X1041906Y696551D02*
X1049906D01*
Y704551*
X1041906*
Y696551*
X1045906Y700551D02*
Y704551D01*
X1056602Y688222D02*
X1064602D01*
X1060602Y684222D02*
Y692222D01*
X1026602Y678222D02*
X1034602D01*
X1030602Y674222D02*
Y682222D01*
X1036602Y698222D02*
X1044602D01*
X1040602Y694222D02*
Y702222D01*
X1036602Y688222D02*
X1044602D01*
X1040602Y684222D02*
Y692222D01*
X1046602Y688222D02*
X1054602D01*
X1050602Y684222D02*
Y692222D01*
X1046602Y678222D02*
X1054602D01*
X1050602Y674222D02*
Y682222D01*
X1045528Y686102D02*
X1053528D01*
X1049528Y682102D02*
Y690102D01*
X1066602Y708222D02*
X1074602D01*
X1070602Y704222D02*
Y712222D01*
X1066602Y698222D02*
X1074602D01*
X1070602Y694222D02*
Y702222D01*
X1066602Y688222D02*
X1074602D01*
X1070602Y684222D02*
Y692222D01*
X1065409Y679134D02*
X1073409D01*
X1069409Y675134D02*
Y683134D01*
X1076602Y708222D02*
X1084602D01*
X1080602Y704222D02*
Y712222D01*
X1076602Y698222D02*
X1084602D01*
X1080602Y694222D02*
Y702222D01*
X1076602Y678222D02*
X1084602D01*
X1080602Y674222D02*
Y682222D01*
X1086602Y708222D02*
X1094602D01*
X1090602Y704222D02*
Y712222D01*
X1086602Y698222D02*
X1094602D01*
X1090602Y694222D02*
Y702222D01*
X1086602Y688222D02*
X1094602D01*
X1090602Y684222D02*
Y692222D01*
X1086602Y678222D02*
X1094602D01*
X1090602Y674222D02*
Y682222D01*
X1075843Y688268D02*
X1083843D01*
X1079843Y684268D02*
Y692268D01*
X1133008Y696102D02*
X1141008D01*
X1137008Y692102D02*
Y700102D01*
X1138677Y698819D02*
X1146677D01*
X1142677Y694819D02*
Y702819D01*
X1138756Y716220D02*
X1146756D01*
X1142756Y712220D02*
Y720220D01*
X1141315Y699016D02*
X1149315D01*
X1145315Y695016D02*
Y703016D01*
X1126602Y698222D02*
X1134602D01*
X1130602Y694222D02*
Y702222D01*
X1136866Y692520D02*
X1144866D01*
X1140866Y688520D02*
Y696520D01*
X1136906Y677205D02*
X1144906D01*
X1140906Y673205D02*
Y681205D01*
X1129189Y714961D02*
X1137189D01*
X1133189Y710961D02*
Y718961D01*
X1116602Y708222D02*
X1124602D01*
X1120602Y704222D02*
Y712222D01*
X1116602Y698222D02*
X1124602D01*
X1120602Y694222D02*
Y702222D01*
X1116602Y688222D02*
X1124602D01*
X1120602Y684222D02*
Y692222D01*
X1116602Y678222D02*
X1124602D01*
X1120602Y674222D02*
Y682222D01*
X1146602Y708222D02*
X1154602D01*
X1150602Y704222D02*
Y712222D01*
X1183756Y706260D02*
X1191756D01*
X1187756Y702260D02*
Y710260D01*
X1150843Y694528D02*
X1158843D01*
X1154843Y690528D02*
Y698528D01*
X1155252Y709488D02*
X1163252D01*
X1159252Y705488D02*
Y713488D01*
X1207339Y695134D02*
X1215339D01*
Y703134*
X1207339*
Y695134*
X1211339Y699134D02*
Y703134D01*
X1186602Y678222D02*
X1194602D01*
X1190602Y674222D02*
Y682222D01*
X1196602Y678222D02*
X1204602D01*
X1200602Y674222D02*
Y682222D01*
X1216602Y688222D02*
X1224602D01*
X1220602Y684222D02*
Y692222D01*
X1216602Y678222D02*
X1224602D01*
X1220602Y674222D02*
Y682222D01*
X1246602Y708222D02*
X1254602D01*
X1250602Y704222D02*
Y712222D01*
X1256602Y698222D02*
X1264602D01*
X1260602Y694222D02*
Y702222D01*
X1256602Y708222D02*
X1264602D01*
X1260602Y704222D02*
Y712222D01*
X1226602Y688222D02*
X1234602D01*
X1230602Y684222D02*
Y692222D01*
X1226602Y678222D02*
X1234602D01*
X1230602Y674222D02*
Y682222D01*
X1236602Y688222D02*
X1244602D01*
X1240602Y684222D02*
Y692222D01*
X1236602Y678222D02*
X1244602D01*
X1240602Y674222D02*
Y682222D01*
X1236602Y708222D02*
X1244602D01*
X1240602Y704222D02*
Y712222D01*
X1236602Y698222D02*
X1244602D01*
X1240602Y694222D02*
Y702222D01*
X1246602Y698222D02*
X1254602D01*
X1250602Y694222D02*
Y702222D01*
X1270409Y715000D02*
X1278409D01*
X1274409Y711000D02*
Y719000D01*
X1266602Y708222D02*
X1274602D01*
X1270602Y704222D02*
Y712222D01*
X1266602Y698222D02*
X1274602D01*
X1270602Y694222D02*
Y702222D01*
X1266602Y678222D02*
X1274602D01*
X1270602Y674222D02*
Y682222D01*
X1276602Y708222D02*
X1284602D01*
X1280602Y704222D02*
Y712222D01*
X1276602Y698222D02*
X1284602D01*
X1280602Y694222D02*
Y702222D01*
X1276602Y688222D02*
X1284602D01*
X1280602Y684222D02*
Y692222D01*
X1276602Y678222D02*
X1284602D01*
X1280602Y674222D02*
Y682222D01*
X1286602Y688222D02*
X1294602D01*
X1290602Y684222D02*
Y692222D01*
X1286602Y678222D02*
X1294602D01*
X1290602Y674222D02*
Y682222D01*
X1296602Y698222D02*
X1304602D01*
X1300602Y694222D02*
Y702222D01*
X1296602Y688222D02*
X1304602D01*
X1300602Y684222D02*
Y692222D01*
X1296602Y678222D02*
X1304602D01*
X1300602Y674222D02*
Y682222D01*
X1316602Y708222D02*
X1324602D01*
X1320602Y704222D02*
Y712222D01*
X1316602Y698222D02*
X1324602D01*
X1320602Y694222D02*
Y702222D01*
X1316602Y688222D02*
X1324602D01*
X1320602Y684222D02*
Y692222D01*
X1316602Y678222D02*
X1324602D01*
X1320602Y674222D02*
Y682222D01*
X1326602Y678222D02*
X1334602D01*
X1330602Y674222D02*
Y682222D01*
X1326602Y708222D02*
X1334602D01*
X1330602Y704222D02*
Y712222D01*
X1326602Y698222D02*
X1334602D01*
X1330602Y694222D02*
Y702222D01*
X1326602Y688222D02*
X1334602D01*
X1330602Y684222D02*
Y692222D01*
X1336602Y708222D02*
X1344602D01*
X1340602Y704222D02*
Y712222D01*
X1336602Y698222D02*
X1344602D01*
X1340602Y694222D02*
Y702222D01*
X1336602Y688222D02*
X1344602D01*
X1340602Y684222D02*
Y692222D01*
X1336602Y678222D02*
X1344602D01*
X1340602Y674222D02*
Y682222D01*
X1306602Y698222D02*
X1314602D01*
X1310602Y694222D02*
Y702222D01*
X1306602Y688222D02*
X1314602D01*
X1310602Y684222D02*
Y692222D01*
X1306602Y678222D02*
X1314602D01*
X1310602Y674222D02*
Y682222D01*
X1346602Y688222D02*
X1354602D01*
X1350602Y684222D02*
Y692222D01*
X1346602Y678222D02*
X1354602D01*
X1350602Y674222D02*
Y682222D01*
X1356602Y708222D02*
X1364602D01*
X1360602Y704222D02*
Y712222D01*
X1356602Y698222D02*
X1364602D01*
X1360602Y694222D02*
Y702222D01*
X1356602Y688222D02*
X1364602D01*
X1360602Y684222D02*
Y692222D01*
X1356602Y678222D02*
X1364602D01*
X1360602Y674222D02*
Y682222D01*
X1366602Y708222D02*
X1374602D01*
X1370602Y704222D02*
Y712222D01*
X1366602Y698222D02*
X1374602D01*
X1370602Y694222D02*
Y702222D01*
X1366602Y688222D02*
X1374602D01*
X1370602Y684222D02*
Y692222D01*
X1366602Y678222D02*
X1374602D01*
X1370602Y674222D02*
Y682222D01*
X796602Y748222D02*
X804602D01*
X800602Y744222D02*
Y752222D01*
X786602Y748222D02*
X794602D01*
X790602Y744222D02*
Y752222D01*
X786602Y738222D02*
X794602D01*
X790602Y734222D02*
Y742222D01*
X786602Y728222D02*
X794602D01*
X790602Y724222D02*
Y732222D01*
X786602Y718222D02*
X794602D01*
X790602Y714222D02*
Y722222D01*
X796602Y718222D02*
X804602D01*
X800602Y714222D02*
Y722222D01*
X806602Y748222D02*
X814602D01*
X810602Y744222D02*
Y752222D01*
X806602Y718222D02*
X814602D01*
X810602Y714222D02*
Y722222D01*
X816602Y748222D02*
X824602D01*
X820602Y744222D02*
Y752222D01*
X816602Y738222D02*
X824602D01*
X820602Y734222D02*
Y742222D01*
X816602Y728222D02*
X824602D01*
X820602Y724222D02*
Y732222D01*
X816602Y718222D02*
X824602D01*
X820602Y714222D02*
Y722222D01*
X826602Y718222D02*
X834602D01*
X830602Y714222D02*
Y722222D01*
X826602Y748222D02*
X834602D01*
X830602Y744222D02*
Y752222D01*
X826602Y738222D02*
X834602D01*
X830602Y734222D02*
Y742222D01*
X826602Y728222D02*
X834602D01*
X830602Y724222D02*
Y732222D01*
X836602Y748222D02*
X844602D01*
X840602Y744222D02*
Y752222D01*
X836602Y738222D02*
X844602D01*
X840602Y734222D02*
Y742222D01*
X836602Y728222D02*
X844602D01*
X840602Y724222D02*
Y732222D01*
X836602Y718222D02*
X844602D01*
X840602Y714222D02*
Y722222D01*
X846602Y738222D02*
X854602D01*
X850602Y734222D02*
Y742222D01*
X846602Y728222D02*
X854602D01*
X850602Y724222D02*
Y732222D01*
X846602Y718222D02*
X854602D01*
X850602Y714222D02*
Y722222D01*
X846602Y748222D02*
X854602D01*
X850602Y744222D02*
Y752222D01*
X856602Y738222D02*
X864602D01*
X860602Y734222D02*
Y742222D01*
X856602Y728222D02*
X864602D01*
X860602Y724222D02*
Y732222D01*
X856602Y718222D02*
X864602D01*
X860602Y714222D02*
Y722222D01*
X856602Y748222D02*
X864602D01*
X860602Y744222D02*
Y752222D01*
X866602Y738222D02*
X874602D01*
X870602Y734222D02*
Y742222D01*
X876602Y728222D02*
X884602D01*
X880602Y724222D02*
Y732222D01*
X866602Y728222D02*
X874602D01*
X870602Y724222D02*
Y732222D01*
X866602Y718222D02*
X874602D01*
X870602Y714222D02*
Y722222D01*
X866602Y748222D02*
X874602D01*
X870602Y744222D02*
Y752222D01*
X876602Y718222D02*
X884602D01*
X880602Y714222D02*
Y722222D01*
X876602Y748222D02*
X884602D01*
X880602Y744222D02*
Y752222D01*
X876602Y738222D02*
X884602D01*
X880602Y734222D02*
Y742222D01*
X886602Y718222D02*
X894602D01*
X890602Y714222D02*
Y722222D01*
X886602Y748222D02*
X894602D01*
X890602Y744222D02*
Y752222D01*
X886602Y738222D02*
X894602D01*
X890602Y734222D02*
Y742222D01*
X886602Y728222D02*
X894602D01*
X890602Y724222D02*
Y732222D01*
X896602Y748222D02*
X904602D01*
X900602Y744222D02*
Y752222D01*
X896602Y738222D02*
X904602D01*
X900602Y734222D02*
Y742222D01*
X896602Y728222D02*
X904602D01*
X900602Y724222D02*
Y732222D01*
X896602Y718222D02*
X904602D01*
X900602Y714222D02*
Y722222D01*
X936602Y738222D02*
X944602D01*
X940602Y734222D02*
Y742222D01*
X916602Y748222D02*
X924602D01*
X920602Y744222D02*
Y752222D01*
X916602Y738222D02*
X924602D01*
X920602Y734222D02*
Y742222D01*
X916602Y728222D02*
X924602D01*
X920602Y724222D02*
Y732222D01*
X916602Y718222D02*
X924602D01*
X920602Y714222D02*
Y722222D01*
X926602Y748222D02*
X934602D01*
X930602Y744222D02*
Y752222D01*
X926602Y738222D02*
X934602D01*
X930602Y734222D02*
Y742222D01*
X926602Y728222D02*
X934602D01*
X930602Y724222D02*
Y732222D01*
X926602Y718222D02*
X934602D01*
X930602Y714222D02*
Y722222D01*
X936602Y728222D02*
X944602D01*
X940602Y724222D02*
Y732222D01*
X936602Y718222D02*
X944602D01*
X940602Y714222D02*
Y722222D01*
X936602Y748222D02*
X944602D01*
X940602Y744222D02*
Y752222D01*
X906602Y748222D02*
X914602D01*
X910602Y744222D02*
Y752222D01*
X906602Y738222D02*
X914602D01*
X910602Y734222D02*
Y742222D01*
X906602Y728222D02*
X914602D01*
X910602Y724222D02*
Y732222D01*
X906602Y718222D02*
X914602D01*
X910602Y714222D02*
Y722222D01*
X963126Y723661D02*
X971126D01*
X967126Y719661D02*
Y727661D01*
X966602Y748222D02*
X974602D01*
X970602Y744222D02*
Y752222D01*
X966602Y738222D02*
X974602D01*
X970602Y734222D02*
Y742222D01*
X976602Y748222D02*
X984602D01*
X980602Y744222D02*
Y752222D01*
X976602Y738222D02*
X984602D01*
X980602Y734222D02*
Y742222D01*
X956602Y748222D02*
X964602D01*
X960602Y744222D02*
Y752222D01*
X959701Y725906D02*
X967701D01*
X963701Y721906D02*
Y729906D01*
X956787Y732638D02*
X964787D01*
X960787Y728638D02*
Y736638D01*
X964492Y737138D02*
X964378Y737450D01*
X964151Y737763*
X963924Y737919*
X963469*
X963242Y737763*
X963015Y737450*
X962901Y737138*
X962787Y736669*
Y735888*
X962901Y735419*
X963015Y735107*
X963242Y734794*
X963469Y734638*
X963924*
X964151Y734794*
X964378Y735107*
X964492Y735419*
X986602Y748222D02*
X994602D01*
X990602Y744222D02*
Y752222D01*
X996602Y748222D02*
X1004602D01*
X1000602Y744222D02*
Y752222D01*
X996602Y738222D02*
X1004602D01*
X1000602Y734222D02*
Y742222D01*
X1006602Y748222D02*
X1014602D01*
X1010602Y744222D02*
Y752222D01*
X1006602Y738222D02*
X1014602D01*
X1010602Y734222D02*
Y742222D01*
X1016602Y748222D02*
X1024602D01*
X1020602Y744222D02*
Y752222D01*
X1016602Y738222D02*
X1024602D01*
X1020602Y734222D02*
Y742222D01*
X1016602Y728222D02*
X1024602D01*
X1020602Y724222D02*
Y732222D01*
X1016602Y718222D02*
X1024602D01*
X1020602Y714222D02*
Y722222D01*
X1041906Y731591D02*
X1049906D01*
Y739591*
X1041906*
Y731591*
X1045906Y735591D02*
Y739591D01*
X1041906Y714780D02*
X1049906D01*
Y722780*
X1041906*
Y714780*
X1045906Y718780D02*
Y722780D01*
X1056602Y748222D02*
X1064602D01*
X1060602Y744222D02*
Y752222D01*
X1056602Y738222D02*
X1064602D01*
X1060602Y734222D02*
Y742222D01*
X1056602Y718222D02*
X1064602D01*
X1060602Y714222D02*
Y722222D01*
X1026602Y748222D02*
X1034602D01*
X1030602Y744222D02*
Y752222D01*
X1026602Y738222D02*
X1034602D01*
X1030602Y734222D02*
Y742222D01*
X1026602Y728222D02*
X1034602D01*
X1030602Y724222D02*
Y732222D01*
X1036602Y748222D02*
X1044602D01*
X1040602Y744222D02*
Y752222D01*
X1036602Y738222D02*
X1044602D01*
X1040602Y734222D02*
Y742222D01*
X1036602Y728222D02*
X1044602D01*
X1040602Y724222D02*
Y732222D01*
X1046602Y748222D02*
X1054602D01*
X1050602Y744222D02*
Y752222D01*
X1046602Y728222D02*
X1054602D01*
X1050602Y724222D02*
Y732222D01*
X1077378Y717480D02*
X1085378D01*
X1081378Y713480D02*
Y721480D01*
X1077378Y734016D02*
X1085378D01*
X1081378Y730016D02*
Y738016D01*
X1066602Y748222D02*
X1074602D01*
X1070602Y744222D02*
Y752222D01*
X1066602Y738222D02*
X1074602D01*
X1070602Y734222D02*
Y742222D01*
X1066602Y718222D02*
X1074602D01*
X1070602Y714222D02*
Y722222D01*
X1086602Y748222D02*
X1094602D01*
X1090602Y744222D02*
Y752222D01*
X1086602Y738222D02*
X1094602D01*
X1090602Y734222D02*
Y742222D01*
X1086602Y718222D02*
X1094602D01*
X1090602Y714222D02*
Y722222D01*
X1096602Y748222D02*
X1104602D01*
X1100602Y744222D02*
Y752222D01*
X1096602Y738222D02*
X1104602D01*
X1100602Y734222D02*
Y742222D01*
X1096602Y718222D02*
X1104602D01*
X1100602Y714222D02*
Y722222D01*
X1138441Y721575D02*
X1146441D01*
X1142441Y717575D02*
Y725575D01*
X1129071Y722559D02*
X1137071D01*
X1133071Y718559D02*
Y726559D01*
X1126602Y748222D02*
X1134602D01*
X1130602Y744222D02*
Y752222D01*
X1136602Y748222D02*
X1144602D01*
X1140602Y744222D02*
Y752222D01*
X1136602Y738222D02*
X1144602D01*
X1140602Y734222D02*
Y742222D01*
X1106602Y748222D02*
X1114602D01*
X1110602Y744222D02*
Y752222D01*
X1106602Y738222D02*
X1114602D01*
X1110602Y734222D02*
Y742222D01*
X1106602Y728222D02*
X1114602D01*
X1110602Y724222D02*
Y732222D01*
X1116602Y748222D02*
X1124602D01*
X1120602Y744222D02*
Y752222D01*
X1116602Y728222D02*
X1124602D01*
X1120602Y724222D02*
Y732222D01*
X1116602Y718222D02*
X1124602D01*
X1120602Y714222D02*
Y722222D01*
X1153047Y721260D02*
X1161047D01*
X1157047Y717260D02*
Y725260D01*
X1146602Y748222D02*
X1154602D01*
X1150602Y744222D02*
Y752222D01*
X1146602Y738222D02*
X1154602D01*
X1150602Y734222D02*
Y742222D01*
X1156602Y718222D02*
X1164602D01*
X1160602Y714222D02*
Y722222D01*
X1156602Y748222D02*
X1164602D01*
X1160602Y744222D02*
Y752222D01*
X1156602Y738222D02*
X1164602D01*
X1160602Y734222D02*
Y742222D01*
X1182220Y743031D02*
X1190220D01*
X1186220Y739031D02*
Y747031D01*
X1186602Y728222D02*
X1194602D01*
X1190602Y724222D02*
Y732222D01*
X1196602Y728222D02*
X1204602D01*
X1200602Y724222D02*
Y732222D01*
X1263520Y742087D02*
X1271520D01*
X1267520Y738087D02*
Y746087D01*
X1246602Y738222D02*
X1254602D01*
X1250602Y734222D02*
Y742222D01*
X1246602Y728222D02*
X1254602D01*
X1250602Y724222D02*
Y732222D01*
X1256602Y738222D02*
X1264602D01*
X1260602Y734222D02*
Y742222D01*
X1256602Y728222D02*
X1264602D01*
X1260602Y724222D02*
Y732222D01*
X1236602Y738222D02*
X1244602D01*
X1240602Y734222D02*
Y742222D01*
X1236602Y728222D02*
X1244602D01*
X1240602Y724222D02*
Y732222D01*
X1299858Y742087D02*
X1307858D01*
X1303858Y738087D02*
Y746087D01*
X1266602Y738222D02*
X1274602D01*
X1270602Y734222D02*
Y742222D01*
X1266602Y728222D02*
X1274602D01*
X1270602Y724222D02*
Y732222D01*
X1276602Y738222D02*
X1284602D01*
X1280602Y734222D02*
Y742222D01*
X1276602Y728222D02*
X1284602D01*
X1280602Y724222D02*
Y732222D01*
X1276602Y718222D02*
X1284602D01*
X1280602Y714222D02*
Y722222D01*
X1286602Y718222D02*
X1294602D01*
X1290602Y714222D02*
Y722222D01*
X1296602Y718222D02*
X1304602D01*
X1300602Y714222D02*
Y722222D01*
X1317654Y746417D02*
X1325654D01*
X1321654Y742417D02*
Y750417D01*
X1316602Y738222D02*
X1324602D01*
X1320602Y734222D02*
Y742222D01*
X1316602Y728222D02*
X1324602D01*
X1320602Y724222D02*
Y732222D01*
X1316602Y718222D02*
X1324602D01*
X1320602Y714222D02*
Y722222D01*
X1326602Y748222D02*
X1334602D01*
X1330602Y744222D02*
Y752222D01*
X1326602Y738222D02*
X1334602D01*
X1330602Y734222D02*
Y742222D01*
X1326602Y728222D02*
X1334602D01*
X1330602Y724222D02*
Y732222D01*
X1326602Y718222D02*
X1334602D01*
X1330602Y714222D02*
Y722222D01*
X1336602Y748222D02*
X1344602D01*
X1340602Y744222D02*
Y752222D01*
X1336602Y738222D02*
X1344602D01*
X1340602Y734222D02*
Y742222D01*
X1336602Y728222D02*
X1344602D01*
X1340602Y724222D02*
Y732222D01*
X1336602Y718222D02*
X1344602D01*
X1340602Y714222D02*
Y722222D01*
X1306602Y728222D02*
X1314602D01*
X1310602Y724222D02*
Y732222D01*
X1306602Y718222D02*
X1314602D01*
X1310602Y714222D02*
Y722222D01*
X1346602Y748222D02*
X1354602D01*
X1350602Y744222D02*
Y752222D01*
X1346602Y728222D02*
X1354602D01*
X1350602Y724222D02*
Y732222D01*
X1356602Y748222D02*
X1364602D01*
X1360602Y744222D02*
Y752222D01*
X1356602Y738222D02*
X1364602D01*
X1360602Y734222D02*
Y742222D01*
X1356602Y728222D02*
X1364602D01*
X1360602Y724222D02*
Y732222D01*
X1356602Y718222D02*
X1364602D01*
X1360602Y714222D02*
Y722222D01*
X1366602Y748222D02*
X1374602D01*
X1370602Y744222D02*
Y752222D01*
X1366602Y738222D02*
X1374602D01*
X1370602Y734222D02*
Y742222D01*
X1366602Y728222D02*
X1374602D01*
X1370602Y724222D02*
Y732222D01*
X1366602Y718222D02*
X1374602D01*
X1370602Y714222D02*
Y722222D01*
X786602Y758222D02*
X794602D01*
X790602Y754222D02*
Y762222D01*
X806602Y758222D02*
X814602D01*
X810602Y754222D02*
Y762222D01*
X816602Y758222D02*
X824602D01*
X820602Y754222D02*
Y762222D01*
X816602Y778222D02*
X824602D01*
X820602Y774222D02*
Y782222D01*
X816602Y768222D02*
X824602D01*
X820602Y764222D02*
Y772222D01*
X826602Y778222D02*
X834602D01*
X830602Y774222D02*
Y782222D01*
X826602Y768222D02*
X834602D01*
X830602Y764222D02*
Y772222D01*
X826602Y758222D02*
X834602D01*
X830602Y754222D02*
Y762222D01*
X836602Y778222D02*
X844602D01*
X840602Y774222D02*
Y782222D01*
X836602Y768222D02*
X844602D01*
X840602Y764222D02*
Y772222D01*
X836602Y758222D02*
X844602D01*
X840602Y754222D02*
Y762222D01*
X846602Y778222D02*
X854602D01*
X850602Y774222D02*
Y782222D01*
X846602Y768222D02*
X854602D01*
X850602Y764222D02*
Y772222D01*
X846602Y758222D02*
X854602D01*
X850602Y754222D02*
Y762222D01*
X856602Y778222D02*
X864602D01*
X860602Y774222D02*
Y782222D01*
X856602Y768222D02*
X864602D01*
X860602Y764222D02*
Y772222D01*
X856602Y758222D02*
X864602D01*
X860602Y754222D02*
Y762222D01*
X895055Y772677D02*
X903055D01*
X899055Y768677D02*
Y776677D01*
X902850Y772677D02*
X910850D01*
X906850Y768677D02*
Y776677D01*
X866602Y778222D02*
X874602D01*
X870602Y774222D02*
Y782222D01*
X866602Y768222D02*
X874602D01*
X870602Y764222D02*
Y772222D01*
X866602Y758222D02*
X874602D01*
X870602Y754222D02*
Y762222D01*
X876602Y778222D02*
X884602D01*
X880602Y774222D02*
Y782222D01*
X876602Y768222D02*
X884602D01*
X880602Y764222D02*
Y772222D01*
X876602Y758222D02*
X884602D01*
X880602Y754222D02*
Y762222D01*
X886602Y778222D02*
X894602D01*
X890602Y774222D02*
Y782222D01*
X886602Y768222D02*
X894602D01*
X890602Y764222D02*
Y772222D01*
X886602Y758222D02*
X894602D01*
X890602Y754222D02*
Y762222D01*
X896602Y778222D02*
X904602D01*
X900602Y774222D02*
Y782222D01*
X896602Y768222D02*
X904602D01*
X900602Y764222D02*
Y772222D01*
X896602Y758222D02*
X904602D01*
X900602Y754222D02*
Y762222D01*
X910685Y772756D02*
X918685D01*
X914685Y768756D02*
Y776756D01*
X916602Y778222D02*
X924602D01*
X920602Y774222D02*
Y782222D01*
X916602Y768222D02*
X924602D01*
X920602Y764222D02*
Y772222D01*
X916602Y758222D02*
X924602D01*
X920602Y754222D02*
Y762222D01*
X926602Y778222D02*
X934602D01*
X930602Y774222D02*
Y782222D01*
X926602Y768222D02*
X934602D01*
X930602Y764222D02*
Y772222D01*
X926602Y758222D02*
X934602D01*
X930602Y754222D02*
Y762222D01*
X936602Y778222D02*
X944602D01*
X940602Y774222D02*
Y782222D01*
X936602Y768222D02*
X944602D01*
X940602Y764222D02*
Y772222D01*
X936602Y758222D02*
X944602D01*
X940602Y754222D02*
Y762222D01*
X906602Y778222D02*
X914602D01*
X910602Y774222D02*
Y782222D01*
X906602Y768222D02*
X914602D01*
X910602Y764222D02*
Y772222D01*
X906602Y758222D02*
X914602D01*
X910602Y754222D02*
Y762222D01*
X966602Y768222D02*
X974602D01*
X970602Y764222D02*
Y772222D01*
X966602Y758222D02*
X974602D01*
X970602Y754222D02*
Y762222D01*
X976602Y768222D02*
X984602D01*
X980602Y764222D02*
Y772222D01*
X976602Y758222D02*
X984602D01*
X980602Y754222D02*
Y762222D01*
X956602Y778222D02*
X964602D01*
X960602Y774222D02*
Y782222D01*
X956602Y768222D02*
X964602D01*
X960602Y764222D02*
Y772222D01*
X956602Y758222D02*
X964602D01*
X960602Y754222D02*
Y762222D01*
X994386Y757102D02*
X1002386D01*
Y765102*
X994386*
Y757102*
X998386Y761102D02*
Y765102D01*
X986602Y758222D02*
X994602D01*
X990602Y754222D02*
Y762222D01*
X986602Y768222D02*
X994602D01*
X990602Y764222D02*
Y772222D01*
X1006602Y778222D02*
X1014602D01*
X1010602Y774222D02*
Y782222D01*
X1006602Y768222D02*
X1014602D01*
X1010602Y764222D02*
Y772222D01*
X1013441Y778386D02*
X1021441D01*
X1017441Y774386D02*
Y782386D01*
X1016602Y768222D02*
X1024602D01*
X1020602Y764222D02*
Y772222D01*
X1056602Y778222D02*
X1064602D01*
X1060602Y774222D02*
Y782222D01*
X1056602Y768222D02*
X1064602D01*
X1060602Y764222D02*
Y772222D01*
X1031748Y770039D02*
X1039748D01*
X1035748Y766039D02*
Y774039D01*
X1026602Y768222D02*
X1034602D01*
X1030602Y764222D02*
Y772222D01*
X1036602Y768222D02*
X1044602D01*
X1040602Y764222D02*
Y772222D01*
X1046602Y778222D02*
X1054602D01*
X1050602Y774222D02*
Y782222D01*
X1046602Y768222D02*
X1054602D01*
X1050602Y764222D02*
Y772222D01*
X1066602Y768222D02*
X1074602D01*
X1070602Y764222D02*
Y772222D01*
X1076602Y778222D02*
X1084602D01*
X1080602Y774222D02*
Y782222D01*
X1076602Y768222D02*
X1084602D01*
X1080602Y764222D02*
Y772222D01*
X1086602Y778222D02*
X1094602D01*
X1090602Y774222D02*
Y782222D01*
X1086602Y768222D02*
X1094602D01*
X1090602Y764222D02*
Y772222D01*
X1096602Y778222D02*
X1104602D01*
X1100602Y774222D02*
Y782222D01*
X1096602Y768222D02*
X1104602D01*
X1100602Y764222D02*
Y772222D01*
X1126602Y768222D02*
X1134602D01*
X1130602Y764222D02*
Y772222D01*
X1136602Y778222D02*
X1144602D01*
X1140602Y774222D02*
Y782222D01*
X1136602Y768222D02*
X1144602D01*
X1140602Y764222D02*
Y772222D01*
X1106602Y778222D02*
X1114602D01*
X1110602Y774222D02*
Y782222D01*
X1106602Y768222D02*
X1114602D01*
X1110602Y764222D02*
Y772222D01*
X1116602Y778222D02*
X1124602D01*
X1120602Y774222D02*
Y782222D01*
X1116602Y768222D02*
X1124602D01*
X1120602Y764222D02*
Y772222D01*
X1174543Y757102D02*
X1182543D01*
Y765102*
X1174543*
Y757102*
X1178543Y761102D02*
Y765102D01*
X1146602Y778222D02*
X1154602D01*
X1150602Y774222D02*
Y782222D01*
X1146602Y768222D02*
X1154602D01*
X1150602Y764222D02*
Y772222D01*
X1156602Y768222D02*
X1164602D01*
X1160602Y764222D02*
Y772222D01*
X1166602Y778222D02*
X1174602D01*
X1170602Y774222D02*
Y782222D01*
X1166602Y768222D02*
X1174602D01*
X1170602Y764222D02*
Y772222D01*
X1176602Y778222D02*
X1184602D01*
X1180602Y774222D02*
Y782222D01*
X1176602Y768222D02*
X1184602D01*
X1180602Y764222D02*
Y772222D01*
X1186602Y778222D02*
X1194602D01*
X1190602Y774222D02*
Y782222D01*
X1186602Y768222D02*
X1194602D01*
X1190602Y764222D02*
Y772222D01*
X1196602Y768222D02*
X1204602D01*
X1200602Y764222D02*
Y772222D01*
X1196602Y778222D02*
X1204602D01*
X1200602Y774222D02*
Y782222D01*
X1206602Y778222D02*
X1214602D01*
X1210602Y774222D02*
Y782222D01*
X1206602Y768222D02*
X1214602D01*
X1210602Y764222D02*
Y772222D01*
X1216602Y778222D02*
X1224602D01*
X1220602Y774222D02*
Y782222D01*
X1216602Y768222D02*
X1224602D01*
X1220602Y764222D02*
Y772222D01*
X1286602Y778222D02*
X1294602D01*
X1290602Y774222D02*
Y782222D01*
X1286602Y768222D02*
X1294602D01*
X1290602Y764222D02*
Y772222D01*
X1296602Y778222D02*
X1304602D01*
X1300602Y774222D02*
Y782222D01*
X1296602Y768222D02*
X1304602D01*
X1300602Y764222D02*
Y772222D01*
X1316602Y768222D02*
X1324602D01*
X1320602Y764222D02*
Y772222D01*
X1316602Y758222D02*
X1324602D01*
X1320602Y754222D02*
Y762222D01*
X1326602Y768222D02*
X1334602D01*
X1330602Y764222D02*
Y772222D01*
X1326602Y758222D02*
X1334602D01*
X1330602Y754222D02*
Y762222D01*
X1336602Y778222D02*
X1344602D01*
X1340602Y774222D02*
Y782222D01*
X1336602Y768222D02*
X1344602D01*
X1340602Y764222D02*
Y772222D01*
X1336602Y758222D02*
X1344602D01*
X1340602Y754222D02*
Y762222D01*
X1346602Y758222D02*
X1354602D01*
X1350602Y754222D02*
Y762222D01*
X1366602Y758222D02*
X1374602D01*
X1370602Y754222D02*
Y762222D01*
X787402Y787402D02*
X1377953D01*
Y393701*
X787402*
Y787402*
X1968504Y1469102D02*
X2226504D01*
X1968504Y1445102D02*
X2226504D01*
X1968504Y1421102D02*
X2226504D01*
X1968504Y1397102D02*
X2226504D01*
X1968504Y1373102D02*
X2226504D01*
X1968504Y1349102D02*
X2226504D01*
X1968504Y1325102D02*
X2226504D01*
X1968504Y1301102D02*
X2226504D01*
X1968504Y1277102D02*
X2226504D01*
X1968504Y1253102D02*
X2226504D01*
X1968504Y1229102D02*
X2226504D01*
X1968504Y1205102D02*
X2226504D01*
X1968504Y1181102D02*
X2226504D01*
X1968504Y1469102D02*
Y1181102D01*
X2052504Y1469102D02*
Y1181102D01*
X2088504Y1469102D02*
Y1181102D01*
X2124504Y1469102D02*
Y1181102D01*
X2178504Y1469102D02*
Y1181102D01*
X2226504Y1469102D02*
Y1181102D01*
X1997322Y1451102D02*
X1998868Y1453477D01*
X1999231Y1455477*
Y1458727*
X1999595Y1458977*
X2006686*
X2007049Y1458727*
Y1456102*
X2006686Y1455852*
X1999231*
X2003322D02*
X2004049Y1454102D01*
X2005958Y1452227*
X2008231Y1451102*
X2014049Y1453727D02*
X2013322Y1454977D01*
X2012231Y1455852*
X2010686Y1457602D02*
X2020777D01*
X2018595Y1459352D02*
Y1451102D01*
X2018231Y1450852*
X2015595Y1451352*
X2057322Y1454102D02*
X2062595D01*
X2061868D02*
X2061049Y1452602D01*
X2059958Y1451727*
X2057686Y1450852*
X2061868D02*
X2059958Y1451977D01*
X2058049Y1452602*
Y1452852*
X2059231Y1453727*
X2059958Y1454977*
Y1455227D02*
Y1459352D01*
X2057686D02*
X2058413Y1458102D01*
X2061049D02*
X2061868Y1459352D01*
X2062595Y1457602D02*
X2057686D01*
X2057322Y1455477D02*
X2058868Y1456352D01*
X2059958Y1457602*
X2062231Y1456102*
X2062958D02*
X2063686Y1457852D01*
Y1459352*
Y1457852D02*
X2068595D01*
X2067868D02*
X2067049Y1455227D01*
X2065231Y1452227*
X2063322Y1450852*
X2068231D02*
X2066686Y1452227D01*
X2064868Y1455227*
X2064049Y1457852*
X2070686Y1451102D02*
X2081595D01*
X2080777Y1452227D02*
X2071413D01*
X2072231Y1453727D02*
Y1455477D01*
X2072595Y1455852*
X2080049*
X2080413Y1455477*
Y1453727*
X2080049Y1453477*
X2072595*
X2072231Y1453727*
Y1454602D02*
X2080413D01*
X2076322Y1455852D02*
Y1451102D01*
X2071049Y1456727D02*
X2081958D01*
X2072231Y1457852D02*
Y1458977D01*
X2072595Y1459352*
X2080049*
X2080413Y1458977*
Y1457852*
X2080049Y1457602*
X2072595*
X2072231Y1457852*
Y1458477D02*
X2080413D01*
X2094049Y1454602D02*
X2095595Y1455852D01*
X2096686Y1457227*
X2095595Y1455852D02*
Y1450852D01*
X2100049Y1452852D02*
X2098595Y1454352D01*
X2097868Y1455852D02*
X2104595D01*
X2103049Y1456977D02*
Y1451102D01*
X2102686Y1450852*
X2101231Y1451102*
X2100049Y1452852D02*
X2098595Y1454352D01*
X2093322Y1457852D02*
X2094868Y1458727D01*
X2095231Y1459602*
X2094868Y1458727D02*
X2098958D01*
X2097413Y1457602D02*
X2095958Y1458727D01*
X2100868Y1459602D02*
X2100413Y1458727D01*
X2099322Y1457852*
X2100413Y1458727D02*
X2104595D01*
X2103049Y1457602D02*
X2101958Y1458727D01*
X2106686Y1455227D02*
X2117231D01*
X2109686D02*
X2108958Y1453727D01*
X2109322Y1453477*
X2115322*
X2115686Y1453227*
X2115322Y1451102*
X2114958Y1450852*
X2111958Y1451102*
X2108595Y1456977D02*
Y1458727D01*
X2108958Y1458977*
X2115322*
X2115686Y1458727*
Y1456977*
X2115322Y1456727*
X2108958*
X2108595Y1456977*
X2154004Y1457102D02*
Y1457477D01*
X2154277Y1458227*
X2154549Y1458602*
X2155095Y1458977*
X2156186*
X2156731Y1458602*
X2157004Y1458227*
X2157277Y1457477*
Y1456727*
X2157004Y1455977*
X2156731Y1455602*
X2155640Y1454852*
Y1453727*
Y1451852D02*
X2155368Y1451477D01*
X2155640Y1451102*
X2155913Y1451477*
X2155640Y1451852*
X2159731Y1457102D02*
Y1457477D01*
X2160004Y1458227*
X2160277Y1458602*
X2160822Y1458977*
X2161913*
X2162458Y1458602*
X2162731Y1458227*
X2163004Y1457477*
Y1456727*
X2162731Y1455977*
X2162458Y1455602*
X2161368Y1454852*
Y1453727*
Y1451852D02*
X2161095Y1451477D01*
X2161368Y1451102*
X2161640Y1451477*
X2161368Y1451852*
X2195186Y1458977D02*
Y1451102D01*
X2193277Y1458977D02*
X2197095D01*
X2201186D02*
X2200640Y1458602D01*
X2200095Y1457852*
X2199822Y1457102*
X2199549Y1455977*
Y1454102*
X2199822Y1452977*
X2200095Y1452227*
X2200640Y1451477*
X2201186Y1451102*
X2202277*
X2202822Y1451477*
X2203368Y1452227*
X2203640Y1452977*
X2203913Y1454102*
Y1455977*
X2203640Y1457102*
X2203368Y1457852*
X2202822Y1458602*
X2202277Y1458977*
X2201186*
X2206368D02*
Y1451102D01*
X2209640*
X1976140Y1434977D02*
X1975322Y1434602D01*
X1974777Y1433477*
X1974504Y1431602*
Y1430477*
X1974777Y1428602*
X1975322Y1427477*
X1976140Y1427102*
X1976686*
X1977504Y1427477*
X1978049Y1428602*
X1978322Y1430477*
Y1431602*
X1978049Y1433477*
X1977504Y1434602*
X1976686Y1434977*
X1976140*
X1981049Y1427852D02*
X1980777Y1427477D01*
X1981049Y1427102*
X1981322Y1427477*
X1981049Y1427852*
X1984322Y1434977D02*
X1987322D01*
X1985686Y1431977*
X1986504*
X1987049Y1431602*
X1987322Y1431227*
X1987595Y1430102*
Y1429352*
X1987322Y1428227*
X1986777Y1427477*
X1985958Y1427102*
X1985140*
X1984322Y1427477*
X1984049Y1427852*
X1983777Y1428602*
X1991686Y1434977D02*
X1990868Y1434602D01*
X1990322Y1433477*
X1990049Y1431602*
Y1430477*
X1990322Y1428602*
X1990868Y1427477*
X1991686Y1427102*
X1992231*
X1993049Y1427477*
X1993595Y1428602*
X1993868Y1430477*
Y1431602*
X1993595Y1433477*
X1993049Y1434602*
X1992231Y1434977*
X1991686*
X1999049D02*
X1996322Y1429727D01*
X2000413*
X1999049Y1434977D02*
Y1427102D01*
X2004231Y1434977D02*
X2003413Y1434602D01*
X2003140Y1433852*
Y1433102*
X2003413Y1432352*
X2003958Y1431977*
X2005049Y1431602*
X2005868Y1431227*
X2006413Y1430477*
X2006686Y1429727*
Y1428602*
X2006413Y1427852*
X2006140Y1427477*
X2005322Y1427102*
X2004231*
X2003413Y1427477*
X2003140Y1427852*
X2002868Y1428602*
Y1429727*
X2003140Y1430477*
X2003686Y1431227*
X2004504Y1431602*
X2005595Y1431977*
X2006140Y1432352*
X2006413Y1433102*
Y1433852*
X2006140Y1434602*
X2005322Y1434977*
X2004231*
X2059368Y1433477D02*
X2059913Y1433852D01*
X2060731Y1434977*
Y1427102*
X2066731Y1434977D02*
X2064004D01*
X2063731Y1431602*
X2064004Y1431977*
X2064822Y1432352*
X2065640*
X2066458Y1431977*
X2067004Y1431227*
X2067277Y1430102*
X2067004Y1429352*
X2066731Y1428227*
X2066186Y1427477*
X2065368Y1427102*
X2064549*
X2063731Y1427477*
X2063458Y1427852*
X2063186Y1428602*
X2073549Y1434977D02*
X2070822Y1427102D01*
X2069731Y1434977D02*
X2073549D01*
X2079549Y1432352D02*
X2079277Y1431227D01*
X2078731Y1430477*
X2077913Y1430102*
X2077640*
X2076822Y1430477*
X2076277Y1431227*
X2076004Y1432352*
Y1432727*
X2076277Y1433852*
X2076822Y1434602*
X2077640Y1434977*
X2077913*
X2078731Y1434602*
X2079277Y1433852*
X2079549Y1432352*
Y1430477*
X2079277Y1428602*
X2078731Y1427477*
X2077913Y1427102*
X2077368*
X2076549Y1427477*
X2076277Y1428227*
X2100504Y1433102D02*
X2112504D01*
X2106504Y1427102D02*
Y1439102D01*
X2133140Y1434977D02*
X2135322Y1431227D01*
Y1427102*
X2137504Y1434977D02*
X2135322Y1431227D01*
X2139958Y1434977D02*
Y1427102D01*
Y1434977D02*
X2143504D01*
X2139958Y1431227D02*
X2142140D01*
X2139958Y1427102D02*
X2143504D01*
X2149777Y1433852D02*
X2149231Y1434602D01*
X2148413Y1434977*
X2147322*
X2146504Y1434602*
X2145958Y1433852*
Y1433102*
X2146231Y1432352*
X2146504Y1431977*
X2147049Y1431602*
X2148686Y1430852*
X2149231Y1430477*
X2149504Y1430102*
X2149777Y1429352*
Y1428227*
X2149231Y1427477*
X2148413Y1427102*
X2147322*
X2146504Y1427477*
X2145958Y1428227*
X2186322Y1433852D02*
Y1427102D01*
X2183868Y1430477D02*
X2188777D01*
X2196140Y1436477D02*
X2191231Y1424477D01*
X2198595Y1430477D02*
X2203504D01*
X2207595Y1434977D02*
X2206777Y1434602D01*
X2206231Y1433477*
X2205958Y1431602*
Y1430477*
X2206231Y1428602*
X2206777Y1427477*
X2207595Y1427102*
X2208140*
X2208958Y1427477*
X2209504Y1428602*
X2209777Y1430477*
Y1431602*
X2209504Y1433477*
X2208958Y1434602*
X2208140Y1434977*
X2207595*
X2212504Y1427852D02*
X2212231Y1427477D01*
X2212504Y1427102*
X2212777Y1427477*
X2212504Y1427852*
X2216868Y1434977D02*
X2216049Y1434602D01*
X2215504Y1433477*
X2215231Y1431602*
Y1430477*
X2215504Y1428602*
X2216049Y1427477*
X2216868Y1427102*
X2217413*
X2218231Y1427477*
X2218777Y1428602*
X2219049Y1430477*
Y1431602*
X2218777Y1433477*
X2218231Y1434602*
X2217413Y1434977*
X2216868*
X1977231Y1410977D02*
X1974504Y1405727D01*
X1978595*
X1977231Y1410977D02*
Y1403102D01*
X2068913Y1410977D02*
X2068095Y1410602D01*
X2067822Y1409852*
Y1409102*
X2068095Y1408352*
X2068640Y1407977*
X2069731Y1407602*
X2070549Y1407227*
X2071095Y1406477*
X2071368Y1405727*
Y1404602*
X2071095Y1403852*
X2070822Y1403477*
X2070004Y1403102*
X2068913*
X2068095Y1403477*
X2067822Y1403852*
X2067549Y1404602*
Y1405727*
X2067822Y1406477*
X2068368Y1407227*
X2069186Y1407602*
X2070277Y1407977*
X2070822Y1408352*
X2071095Y1409102*
Y1409852*
X2070822Y1410602*
X2070004Y1410977*
X2068913*
X2100504Y1403102D02*
X2112504Y1415102D01*
X2100504D02*
X2112504Y1403102D01*
X2136140Y1410977D02*
Y1403102D01*
Y1410977D02*
X2139958Y1403102D01*
Y1410977D02*
Y1403102D01*
X2144049Y1410977D02*
X2143504Y1410602D01*
X2142958Y1409852*
X2142686Y1409102*
X2142413Y1407977*
Y1406102*
X2142686Y1404977*
X2142958Y1404227*
X2143504Y1403477*
X2144049Y1403102*
X2145140*
X2145686Y1403477*
X2146231Y1404227*
X2146504Y1404977*
X2146777Y1406102*
Y1407977*
X2146504Y1409102*
X2146231Y1409852*
X2145686Y1410602*
X2145140Y1410977*
X2144049*
X2186322Y1409852D02*
Y1403102D01*
X2183868Y1406477D02*
X2188777D01*
X2196140Y1412477D02*
X2191231Y1400477D01*
X2198595Y1406477D02*
X2203504D01*
X2207595Y1410977D02*
X2206777Y1410602D01*
X2206231Y1409477*
X2205958Y1407602*
Y1406477*
X2206231Y1404602*
X2206777Y1403477*
X2207595Y1403102*
X2208140*
X2208958Y1403477*
X2209504Y1404602*
X2209777Y1406477*
Y1407602*
X2209504Y1409477*
X2208958Y1410602*
X2208140Y1410977*
X2207595*
X2212504Y1403852D02*
X2212231Y1403477D01*
X2212504Y1403102*
X2212777Y1403477*
X2212504Y1403852*
X2216868Y1410977D02*
X2216049Y1410602D01*
X2215504Y1409477*
X2215231Y1407602*
Y1406477*
X2215504Y1404602*
X2216049Y1403477*
X2216868Y1403102*
X2217413*
X2218231Y1403477*
X2218777Y1404602*
X2219049Y1406477*
Y1407602*
X2218777Y1409477*
X2218231Y1410602*
X2217413Y1410977*
X2216868*
X1976140Y1386977D02*
X1975322Y1386602D01*
X1974777Y1385477*
X1974504Y1383602*
Y1382477*
X1974777Y1380602*
X1975322Y1379477*
X1976140Y1379102*
X1976686*
X1977504Y1379477*
X1978049Y1380602*
X1978322Y1382477*
Y1383602*
X1978049Y1385477*
X1977504Y1386602*
X1976686Y1386977*
X1976140*
X1981049Y1379852D02*
X1980777Y1379477D01*
X1981049Y1379102*
X1981322Y1379477*
X1981049Y1379852*
X1987049Y1385852D02*
X1986777Y1386602D01*
X1985958Y1386977*
X1985413*
X1984595Y1386602*
X1984049Y1385477*
X1983777Y1383602*
Y1381727*
X1984049Y1380227*
X1984595Y1379477*
X1985413Y1379102*
X1985686*
X1986504Y1379477*
X1987049Y1380227*
X1987322Y1381352*
Y1381727*
X1987049Y1382852*
X1986504Y1383602*
X1985686Y1383977*
X1985413*
X1984595Y1383602*
X1984049Y1382852*
X1983777Y1381727*
X1990322Y1386977D02*
X1993322D01*
X1991686Y1383977*
X1992504*
X1993049Y1383602*
X1993322Y1383227*
X1993595Y1382102*
Y1381352*
X1993322Y1380227*
X1992777Y1379477*
X1991958Y1379102*
X1991140*
X1990322Y1379477*
X1990049Y1379852*
X1989777Y1380602*
X1999595Y1386977D02*
X1996868D01*
X1996595Y1383602*
X1996868Y1383977*
X1997686Y1384352*
X1998504*
X1999322Y1383977*
X1999868Y1383227*
X2000140Y1382102*
X1999868Y1381352*
X1999595Y1380227*
X1999049Y1379477*
X1998231Y1379102*
X1997413*
X1996595Y1379477*
X1996322Y1379852*
X1996049Y1380602*
X2064958Y1386977D02*
X2067958D01*
X2066322Y1383977*
X2067140*
X2067686Y1383602*
X2067958Y1383227*
X2068231Y1382102*
Y1381352*
X2067958Y1380227*
X2067413Y1379477*
X2066595Y1379102*
X2065777*
X2064958Y1379477*
X2064686Y1379852*
X2064413Y1380602*
X2072322Y1386977D02*
X2071504Y1386602D01*
X2070958Y1385477*
X2070686Y1383602*
Y1382477*
X2070958Y1380602*
X2071504Y1379477*
X2072322Y1379102*
X2072868*
X2073686Y1379477*
X2074231Y1380602*
X2074504Y1382477*
Y1383602*
X2074231Y1385477*
X2073686Y1386602*
X2072868Y1386977*
X2072322*
X2100504Y1379102D02*
X2112504D01*
Y1391102*
X2100504*
Y1379102*
X2106504Y1385102D02*
Y1391102D01*
X2133140Y1386977D02*
X2135322Y1383227D01*
Y1379102*
X2137504Y1386977D02*
X2135322Y1383227D01*
X2139958Y1386977D02*
Y1379102D01*
Y1386977D02*
X2143504D01*
X2139958Y1383227D02*
X2142140D01*
X2139958Y1379102D02*
X2143504D01*
X2149777Y1385852D02*
X2149231Y1386602D01*
X2148413Y1386977*
X2147322*
X2146504Y1386602*
X2145958Y1385852*
Y1385102*
X2146231Y1384352*
X2146504Y1383977*
X2147049Y1383602*
X2148686Y1382852*
X2149231Y1382477*
X2149504Y1382102*
X2149777Y1381352*
Y1380227*
X2149231Y1379477*
X2148413Y1379102*
X2147322*
X2146504Y1379477*
X2145958Y1380227*
X2186322Y1385852D02*
Y1379102D01*
X2183868Y1382477D02*
X2188777D01*
X2196140Y1388477D02*
X2191231Y1376477D01*
X2198595Y1382477D02*
X2203504D01*
X2207595Y1386977D02*
X2206777Y1386602D01*
X2206231Y1385477*
X2205958Y1383602*
Y1382477*
X2206231Y1380602*
X2206777Y1379477*
X2207595Y1379102*
X2208140*
X2208958Y1379477*
X2209504Y1380602*
X2209777Y1382477*
Y1383602*
X2209504Y1385477*
X2208958Y1386602*
X2208140Y1386977*
X2207595*
X2212504Y1379852D02*
X2212231Y1379477D01*
X2212504Y1379102*
X2212777Y1379477*
X2212504Y1379852*
X2216868Y1386977D02*
X2216049Y1386602D01*
X2215504Y1385477*
X2215231Y1383602*
Y1382477*
X2215504Y1380602*
X2216049Y1379477*
X2216868Y1379102*
X2217413*
X2218231Y1379477*
X2218777Y1380602*
X2219049Y1382477*
Y1383602*
X2218777Y1385477*
X2218231Y1386602*
X2217413Y1386977*
X2216868*
X1974504Y1361477D02*
X1975049Y1361852D01*
X1975868Y1362977*
Y1355102*
X1978595Y1355852D02*
X1978322Y1355477D01*
X1978595Y1355102*
X1978868Y1355477*
X1978595Y1355852*
X1981595Y1361102D02*
Y1361477D01*
X1981868Y1362227*
X1982140Y1362602*
X1982686Y1362977*
X1983777*
X1984322Y1362602*
X1984595Y1362227*
X1984868Y1361477*
Y1360727*
X1984595Y1359977*
X1984049Y1358852*
X1981322Y1355102*
X1985140*
X2067822Y1361102D02*
Y1361477D01*
X2068095Y1362227*
X2068368Y1362602*
X2068913Y1362977*
X2070004*
X2070549Y1362602*
X2070822Y1362227*
X2071095Y1361477*
Y1360727*
X2070822Y1359977*
X2070277Y1358852*
X2067549Y1355102*
X2071368*
X2106504D02*
X2112504Y1361102D01*
X2106504Y1367102*
X2100504Y1361102*
X2106504Y1355102*
Y1361102D02*
Y1367102D01*
X2133140Y1362977D02*
X2135322Y1359227D01*
Y1355102*
X2137504Y1362977D02*
X2135322Y1359227D01*
X2139958Y1362977D02*
Y1355102D01*
Y1362977D02*
X2143504D01*
X2139958Y1359227D02*
X2142140D01*
X2139958Y1355102D02*
X2143504D01*
X2149777Y1361852D02*
X2149231Y1362602D01*
X2148413Y1362977*
X2147322*
X2146504Y1362602*
X2145958Y1361852*
Y1361102*
X2146231Y1360352*
X2146504Y1359977*
X2147049Y1359602*
X2148686Y1358852*
X2149231Y1358477*
X2149504Y1358102*
X2149777Y1357352*
Y1356227*
X2149231Y1355477*
X2148413Y1355102*
X2147322*
X2146504Y1355477*
X2145958Y1356227*
X2186322Y1361852D02*
Y1355102D01*
X2183868Y1358477D02*
X2188777D01*
X2196140Y1364477D02*
X2191231Y1352477D01*
X2198595Y1358477D02*
X2203504D01*
X2207595Y1362977D02*
X2206777Y1362602D01*
X2206231Y1361477*
X2205958Y1359602*
Y1358477*
X2206231Y1356602*
X2206777Y1355477*
X2207595Y1355102*
X2208140*
X2208958Y1355477*
X2209504Y1356602*
X2209777Y1358477*
Y1359602*
X2209504Y1361477*
X2208958Y1362602*
X2208140Y1362977*
X2207595*
X2212504Y1355852D02*
X2212231Y1355477D01*
X2212504Y1355102*
X2212777Y1355477*
X2212504Y1355852*
X2216868Y1362977D02*
X2216049Y1362602D01*
X2215504Y1361477*
X2215231Y1359602*
Y1358477*
X2215504Y1356602*
X2216049Y1355477*
X2216868Y1355102*
X2217413*
X2218231Y1355477*
X2218777Y1356602*
X2219049Y1358477*
Y1359602*
X2218777Y1361477*
X2218231Y1362602*
X2217413Y1362977*
X2216868*
X1974777Y1337102D02*
Y1337477D01*
X1975049Y1338227*
X1975322Y1338602*
X1975868Y1338977*
X1976958*
X1977504Y1338602*
X1977777Y1338227*
X1978049Y1337477*
Y1336727*
X1977777Y1335977*
X1977231Y1334852*
X1974504Y1331102*
X1978322*
X1981049Y1331852D02*
X1980777Y1331477D01*
X1981049Y1331102*
X1981322Y1331477*
X1981049Y1331852*
X1984049Y1337102D02*
Y1337477D01*
X1984322Y1338227*
X1984595Y1338602*
X1985140Y1338977*
X1986231*
X1986777Y1338602*
X1987049Y1338227*
X1987322Y1337477*
Y1336727*
X1987049Y1335977*
X1986504Y1334852*
X1983777Y1331102*
X1987595*
X2068095Y1338977D02*
X2071095D01*
X2069458Y1335977*
X2070277*
X2070822Y1335602*
X2071095Y1335227*
X2071368Y1334102*
Y1333352*
X2071095Y1332227*
X2070549Y1331477*
X2069731Y1331102*
X2068913*
X2068095Y1331477*
X2067822Y1331852*
X2067549Y1332602*
X2100504Y1331102D02*
X2112504D01*
X2100504Y1343102*
X2112504*
X2100504Y1331102*
X2133140Y1338977D02*
X2135322Y1335227D01*
Y1331102*
X2137504Y1338977D02*
X2135322Y1335227D01*
X2139958Y1338977D02*
Y1331102D01*
Y1338977D02*
X2143504D01*
X2139958Y1335227D02*
X2142140D01*
X2139958Y1331102D02*
X2143504D01*
X2149777Y1337852D02*
X2149231Y1338602D01*
X2148413Y1338977*
X2147322*
X2146504Y1338602*
X2145958Y1337852*
Y1337102*
X2146231Y1336352*
X2146504Y1335977*
X2147049Y1335602*
X2148686Y1334852*
X2149231Y1334477*
X2149504Y1334102*
X2149777Y1333352*
Y1332227*
X2149231Y1331477*
X2148413Y1331102*
X2147322*
X2146504Y1331477*
X2145958Y1332227*
X2186322Y1337852D02*
Y1331102D01*
X2183868Y1334477D02*
X2188777D01*
X2196140Y1340477D02*
X2191231Y1328477D01*
X2198595Y1334477D02*
X2203504D01*
X2207595Y1338977D02*
X2206777Y1338602D01*
X2206231Y1337477*
X2205958Y1335602*
Y1334477*
X2206231Y1332602*
X2206777Y1331477*
X2207595Y1331102*
X2208140*
X2208958Y1331477*
X2209504Y1332602*
X2209777Y1334477*
Y1335602*
X2209504Y1337477*
X2208958Y1338602*
X2208140Y1338977*
X2207595*
X2212504Y1331852D02*
X2212231Y1331477D01*
X2212504Y1331102*
X2212777Y1331477*
X2212504Y1331852*
X2216868Y1338977D02*
X2216049Y1338602D01*
X2215504Y1337477*
X2215231Y1335602*
Y1334477*
X2215504Y1332602*
X2216049Y1331477*
X2216868Y1331102*
X2217413*
X2218231Y1331477*
X2218777Y1332602*
X2219049Y1334477*
Y1335602*
X2218777Y1337477*
X2218231Y1338602*
X2217413Y1338977*
X2216868*
X1974504Y1313477D02*
X1975049Y1313852D01*
X1975868Y1314977*
Y1307102*
X1978595Y1307852D02*
X1978322Y1307477D01*
X1978595Y1307102*
X1978868Y1307477*
X1978595Y1307852*
X1984049Y1314977D02*
X1981322Y1309727D01*
X1985413*
X1984049Y1314977D02*
Y1307102D01*
X1991413Y1314977D02*
X1988686D01*
X1988413Y1311602*
X1988686Y1311977*
X1989504Y1312352*
X1990322*
X1991140Y1311977*
X1991686Y1311227*
X1991958Y1310102*
X1991686Y1309352*
X1991413Y1308227*
X1990868Y1307477*
X1990049Y1307102*
X1989231*
X1988413Y1307477*
X1988140Y1307852*
X1987868Y1308602*
X2068095Y1314977D02*
X2071095D01*
X2069458Y1311977*
X2070277*
X2070822Y1311602*
X2071095Y1311227*
X2071368Y1310102*
Y1309352*
X2071095Y1308227*
X2070549Y1307477*
X2069731Y1307102*
X2068913*
X2068095Y1307477*
X2067822Y1307852*
X2067549Y1308602*
X2100504Y1307102D02*
X2112504Y1319102D01*
Y1307102*
X2100504Y1319102*
Y1307102*
X2136140Y1314977D02*
Y1307102D01*
Y1314977D02*
X2139958Y1307102D01*
Y1314977D02*
Y1307102D01*
X2144049Y1314977D02*
X2143504Y1314602D01*
X2142958Y1313852*
X2142686Y1313102*
X2142413Y1311977*
Y1310102*
X2142686Y1308977*
X2142958Y1308227*
X2143504Y1307477*
X2144049Y1307102*
X2145140*
X2145686Y1307477*
X2146231Y1308227*
X2146504Y1308977*
X2146777Y1310102*
Y1311977*
X2146504Y1313102*
X2146231Y1313852*
X2145686Y1314602*
X2145140Y1314977*
X2144049*
X2186322Y1313852D02*
Y1307102D01*
X2183868Y1310477D02*
X2188777D01*
X2196140Y1316477D02*
X2191231Y1304477D01*
X2198595Y1310477D02*
X2203504D01*
X2207595Y1314977D02*
X2206777Y1314602D01*
X2206231Y1313477*
X2205958Y1311602*
Y1310477*
X2206231Y1308602*
X2206777Y1307477*
X2207595Y1307102*
X2208140*
X2208958Y1307477*
X2209504Y1308602*
X2209777Y1310477*
Y1311602*
X2209504Y1313477*
X2208958Y1314602*
X2208140Y1314977*
X2207595*
X2212504Y1307852D02*
X2212231Y1307477D01*
X2212504Y1307102*
X2212777Y1307477*
X2212504Y1307852*
X2216868Y1314977D02*
X2216049Y1314602D01*
X2215504Y1313477*
X2215231Y1311602*
Y1310477*
X2215504Y1308602*
X2216049Y1307477*
X2216868Y1307102*
X2217413*
X2218231Y1307477*
X2218777Y1308602*
X2219049Y1310477*
Y1311602*
X2218777Y1313477*
X2218231Y1314602*
X2217413Y1314977*
X2216868*
X1976140Y1290977D02*
X1975322Y1290602D01*
X1974777Y1289477*
X1974504Y1287602*
Y1286477*
X1974777Y1284602*
X1975322Y1283477*
X1976140Y1283102*
X1976686*
X1977504Y1283477*
X1978049Y1284602*
X1978322Y1286477*
Y1287602*
X1978049Y1289477*
X1977504Y1290602*
X1976686Y1290977*
X1976140*
X1981049Y1283852D02*
X1980777Y1283477D01*
X1981049Y1283102*
X1981322Y1283477*
X1981049Y1283852*
X1987322Y1288352D02*
X1987049Y1287227D01*
X1986504Y1286477*
X1985686Y1286102*
X1985413*
X1984595Y1286477*
X1984049Y1287227*
X1983777Y1288352*
Y1288727*
X1984049Y1289852*
X1984595Y1290602*
X1985413Y1290977*
X1985686*
X1986504Y1290602*
X1987049Y1289852*
X1987322Y1288352*
Y1286477*
X1987049Y1284602*
X1986504Y1283477*
X1985686Y1283102*
X1985140*
X1984322Y1283477*
X1984049Y1284227*
X1993322Y1290977D02*
X1990595D01*
X1990322Y1287602*
X1990595Y1287977*
X1991413Y1288352*
X1992231*
X1993049Y1287977*
X1993595Y1287227*
X1993868Y1286102*
X1993595Y1285352*
X1993322Y1284227*
X1992777Y1283477*
X1991958Y1283102*
X1991140*
X1990322Y1283477*
X1990049Y1283852*
X1989777Y1284602*
X2068095Y1290977D02*
X2071095D01*
X2069458Y1287977*
X2070277*
X2070822Y1287602*
X2071095Y1287227*
X2071368Y1286102*
Y1285352*
X2071095Y1284227*
X2070549Y1283477*
X2069731Y1283102*
X2068913*
X2068095Y1283477*
X2067822Y1283852*
X2067549Y1284602*
X2100504Y1289102D02*
X2112504D01*
X2106504Y1283102D02*
Y1295102D01*
X2111249Y1298402D02*
X2109504Y1292102D01*
X2111249Y1298402D02*
X2112995Y1292102D01*
X2110158Y1294202D02*
X2112340D01*
X2136140Y1290977D02*
Y1283102D01*
Y1290977D02*
X2139958Y1283102D01*
Y1290977D02*
Y1283102D01*
X2144049Y1290977D02*
X2143504Y1290602D01*
X2142958Y1289852*
X2142686Y1289102*
X2142413Y1287977*
Y1286102*
X2142686Y1284977*
X2142958Y1284227*
X2143504Y1283477*
X2144049Y1283102*
X2145140*
X2145686Y1283477*
X2146231Y1284227*
X2146504Y1284977*
X2146777Y1286102*
Y1287977*
X2146504Y1289102*
X2146231Y1289852*
X2145686Y1290602*
X2145140Y1290977*
X2144049*
X2186322Y1289852D02*
Y1283102D01*
X2183868Y1286477D02*
X2188777D01*
X2196140Y1292477D02*
X2191231Y1280477D01*
X2198595Y1286477D02*
X2203504D01*
X2207595Y1290977D02*
X2206777Y1290602D01*
X2206231Y1289477*
X2205958Y1287602*
Y1286477*
X2206231Y1284602*
X2206777Y1283477*
X2207595Y1283102*
X2208140*
X2208958Y1283477*
X2209504Y1284602*
X2209777Y1286477*
Y1287602*
X2209504Y1289477*
X2208958Y1290602*
X2208140Y1290977*
X2207595*
X2212504Y1283852D02*
X2212231Y1283477D01*
X2212504Y1283102*
X2212777Y1283477*
X2212504Y1283852*
X2216868Y1290977D02*
X2216049Y1290602D01*
X2215504Y1289477*
X2215231Y1287602*
Y1286477*
X2215504Y1284602*
X2216049Y1283477*
X2216868Y1283102*
X2217413*
X2218231Y1283477*
X2218777Y1284602*
X2219049Y1286477*
Y1287602*
X2218777Y1289477*
X2218231Y1290602*
X2217413Y1290977*
X2216868*
X1974777Y1265102D02*
Y1265477D01*
X1975049Y1266227*
X1975322Y1266602*
X1975868Y1266977*
X1976958*
X1977504Y1266602*
X1977777Y1266227*
X1978049Y1265477*
Y1264727*
X1977777Y1263977*
X1977231Y1262852*
X1974504Y1259102*
X1978322*
X1981049Y1259852D02*
X1980777Y1259477D01*
X1981049Y1259102*
X1981322Y1259477*
X1981049Y1259852*
X1987049Y1265852D02*
X1986777Y1266602D01*
X1985958Y1266977*
X1985413*
X1984595Y1266602*
X1984049Y1265477*
X1983777Y1263602*
Y1261727*
X1984049Y1260227*
X1984595Y1259477*
X1985413Y1259102*
X1985686*
X1986504Y1259477*
X1987049Y1260227*
X1987322Y1261352*
Y1261727*
X1987049Y1262852*
X1986504Y1263602*
X1985686Y1263977*
X1985413*
X1984595Y1263602*
X1984049Y1262852*
X1983777Y1261727*
X2068095Y1266977D02*
X2071095D01*
X2069458Y1263977*
X2070277*
X2070822Y1263602*
X2071095Y1263227*
X2071368Y1262102*
Y1261352*
X2071095Y1260227*
X2070549Y1259477*
X2069731Y1259102*
X2068913*
X2068095Y1259477*
X2067822Y1259852*
X2067549Y1260602*
X2100504Y1265102D02*
X2112504D01*
X2106504Y1259102D02*
Y1271102D01*
X2109504Y1274402D02*
Y1268102D01*
Y1274402D02*
X2111468D01*
X2112122Y1274102*
X2112340Y1273802*
X2112558Y1273202*
Y1272602*
X2112340Y1272002*
X2112122Y1271702*
X2111468Y1271402*
X2109504D02*
X2111468D01*
X2112122Y1271102*
X2112340Y1270802*
X2112558Y1270202*
Y1269302*
X2112340Y1268702*
X2112122Y1268402*
X2111468Y1268102*
X2109504*
X2133140Y1266977D02*
X2135322Y1263227D01*
Y1259102*
X2137504Y1266977D02*
X2135322Y1263227D01*
X2139958Y1266977D02*
Y1259102D01*
Y1266977D02*
X2143504D01*
X2139958Y1263227D02*
X2142140D01*
X2139958Y1259102D02*
X2143504D01*
X2149777Y1265852D02*
X2149231Y1266602D01*
X2148413Y1266977*
X2147322*
X2146504Y1266602*
X2145958Y1265852*
Y1265102*
X2146231Y1264352*
X2146504Y1263977*
X2147049Y1263602*
X2148686Y1262852*
X2149231Y1262477*
X2149504Y1262102*
X2149777Y1261352*
Y1260227*
X2149231Y1259477*
X2148413Y1259102*
X2147322*
X2146504Y1259477*
X2145958Y1260227*
X2186322Y1265852D02*
Y1259102D01*
X2183868Y1262477D02*
X2188777D01*
X2196140Y1268477D02*
X2191231Y1256477D01*
X2198595Y1262477D02*
X2203504D01*
X2207595Y1266977D02*
X2206777Y1266602D01*
X2206231Y1265477*
X2205958Y1263602*
Y1262477*
X2206231Y1260602*
X2206777Y1259477*
X2207595Y1259102*
X2208140*
X2208958Y1259477*
X2209504Y1260602*
X2209777Y1262477*
Y1263602*
X2209504Y1265477*
X2208958Y1266602*
X2208140Y1266977*
X2207595*
X2212504Y1259852D02*
X2212231Y1259477D01*
X2212504Y1259102*
X2212777Y1259477*
X2212504Y1259852*
X2216868Y1266977D02*
X2216049Y1266602D01*
X2215504Y1265477*
X2215231Y1263602*
Y1262477*
X2215504Y1260602*
X2216049Y1259477*
X2216868Y1259102*
X2217413*
X2218231Y1259477*
X2218777Y1260602*
X2219049Y1262477*
Y1263602*
X2218777Y1265477*
X2218231Y1266602*
X2217413Y1266977*
X2216868*
X1976140Y1242977D02*
X1975322Y1242602D01*
X1974777Y1241477*
X1974504Y1239602*
Y1238477*
X1974777Y1236602*
X1975322Y1235477*
X1976140Y1235102*
X1976686*
X1977504Y1235477*
X1978049Y1236602*
X1978322Y1238477*
Y1239602*
X1978049Y1241477*
X1977504Y1242602*
X1976686Y1242977*
X1976140*
X1981049Y1235852D02*
X1980777Y1235477D01*
X1981049Y1235102*
X1981322Y1235477*
X1981049Y1235852*
X1987595Y1242977D02*
X1984868Y1235102D01*
X1983777Y1242977D02*
X1987595D01*
X1993322Y1241852D02*
X1993049Y1242602D01*
X1992231Y1242977*
X1991686*
X1990868Y1242602*
X1990322Y1241477*
X1990049Y1239602*
Y1237727*
X1990322Y1236227*
X1990868Y1235477*
X1991686Y1235102*
X1991958*
X1992777Y1235477*
X1993322Y1236227*
X1993595Y1237352*
Y1237727*
X1993322Y1238852*
X1992777Y1239602*
X1991958Y1239977*
X1991686*
X1990868Y1239602*
X1990322Y1238852*
X1990049Y1237727*
X1996322Y1241102D02*
Y1241477D01*
X1996595Y1242227*
X1996868Y1242602*
X1997413Y1242977*
X1998504*
X1999049Y1242602*
X1999322Y1242227*
X1999595Y1241477*
Y1240727*
X1999322Y1239977*
X1998777Y1238852*
X1996049Y1235102*
X1999868*
X2070958Y1242977D02*
X2068231D01*
X2067958Y1239602*
X2068231Y1239977*
X2069049Y1240352*
X2069868*
X2070686Y1239977*
X2071231Y1239227*
X2071504Y1238102*
X2071231Y1237352*
X2070958Y1236227*
X2070413Y1235477*
X2069595Y1235102*
X2068777*
X2067958Y1235477*
X2067686Y1235852*
X2067413Y1236602*
X2100504Y1241102D02*
X2112504D01*
X2106504Y1235102D02*
Y1247102D01*
X2112777Y1248902D02*
X2112558Y1249502D01*
X2112122Y1250102*
X2111686Y1250402*
X2110813*
X2110377Y1250102*
X2109940Y1249502*
X2109722Y1248902*
X2109504Y1248002*
Y1246502*
X2109722Y1245602*
X2109940Y1245002*
X2110377Y1244402*
X2110813Y1244102*
X2111686*
X2112122Y1244402*
X2112558Y1245002*
X2112777Y1245602*
X2133140Y1242977D02*
X2135322Y1239227D01*
Y1235102*
X2137504Y1242977D02*
X2135322Y1239227D01*
X2139958Y1242977D02*
Y1235102D01*
Y1242977D02*
X2143504D01*
X2139958Y1239227D02*
X2142140D01*
X2139958Y1235102D02*
X2143504D01*
X2149777Y1241852D02*
X2149231Y1242602D01*
X2148413Y1242977*
X2147322*
X2146504Y1242602*
X2145958Y1241852*
Y1241102*
X2146231Y1240352*
X2146504Y1239977*
X2147049Y1239602*
X2148686Y1238852*
X2149231Y1238477*
X2149504Y1238102*
X2149777Y1237352*
Y1236227*
X2149231Y1235477*
X2148413Y1235102*
X2147322*
X2146504Y1235477*
X2145958Y1236227*
X2186322Y1241852D02*
Y1235102D01*
X2183868Y1238477D02*
X2188777D01*
X2196140Y1244477D02*
X2191231Y1232477D01*
X2198595Y1238477D02*
X2203504D01*
X2207595Y1242977D02*
X2206777Y1242602D01*
X2206231Y1241477*
X2205958Y1239602*
Y1238477*
X2206231Y1236602*
X2206777Y1235477*
X2207595Y1235102*
X2208140*
X2208958Y1235477*
X2209504Y1236602*
X2209777Y1238477*
Y1239602*
X2209504Y1241477*
X2208958Y1242602*
X2208140Y1242977*
X2207595*
X2212504Y1235852D02*
X2212231Y1235477D01*
X2212504Y1235102*
X2212777Y1235477*
X2212504Y1235852*
X2216868Y1242977D02*
X2216049Y1242602D01*
X2215504Y1241477*
X2215231Y1239602*
Y1238477*
X2215504Y1236602*
X2216049Y1235477*
X2216868Y1235102*
X2217413*
X2218231Y1235477*
X2218777Y1236602*
X2219049Y1238477*
Y1239602*
X2218777Y1241477*
X2218231Y1242602*
X2217413Y1242977*
X2216868*
X1976140Y1218977D02*
X1975322Y1218602D01*
X1974777Y1217477*
X1974504Y1215602*
Y1214477*
X1974777Y1212602*
X1975322Y1211477*
X1976140Y1211102*
X1976686*
X1977504Y1211477*
X1978049Y1212602*
X1978322Y1214477*
Y1215602*
X1978049Y1217477*
X1977504Y1218602*
X1976686Y1218977*
X1976140*
X1981049Y1211852D02*
X1980777Y1211477D01*
X1981049Y1211102*
X1981322Y1211477*
X1981049Y1211852*
X1987322Y1216352D02*
X1987049Y1215227D01*
X1986504Y1214477*
X1985686Y1214102*
X1985413*
X1984595Y1214477*
X1984049Y1215227*
X1983777Y1216352*
Y1216727*
X1984049Y1217852*
X1984595Y1218602*
X1985413Y1218977*
X1985686*
X1986504Y1218602*
X1987049Y1217852*
X1987322Y1216352*
Y1214477*
X1987049Y1212602*
X1986504Y1211477*
X1985686Y1211102*
X1985140*
X1984322Y1211477*
X1984049Y1212227*
X2067822Y1217102D02*
Y1217477D01*
X2068095Y1218227*
X2068368Y1218602*
X2068913Y1218977*
X2070004*
X2070549Y1218602*
X2070822Y1218227*
X2071095Y1217477*
Y1216727*
X2070822Y1215977*
X2070277Y1214852*
X2067549Y1211102*
X2071368*
X2100504Y1217102D02*
X2112504D01*
X2106504Y1211102D02*
Y1223102D01*
X2109504Y1226402D02*
Y1220102D01*
Y1226402D02*
X2111031D01*
X2111686Y1226102*
X2112122Y1225502*
X2112340Y1224902*
X2112558Y1224002*
Y1222502*
X2112340Y1221602*
X2112122Y1221002*
X2111686Y1220402*
X2111031Y1220102*
X2109504*
X2136140Y1218977D02*
Y1211102D01*
Y1218977D02*
X2139958Y1211102D01*
Y1218977D02*
Y1211102D01*
X2144049Y1218977D02*
X2143504Y1218602D01*
X2142958Y1217852*
X2142686Y1217102*
X2142413Y1215977*
Y1214102*
X2142686Y1212977*
X2142958Y1212227*
X2143504Y1211477*
X2144049Y1211102*
X2145140*
X2145686Y1211477*
X2146231Y1212227*
X2146504Y1212977*
X2146777Y1214102*
Y1215977*
X2146504Y1217102*
X2146231Y1217852*
X2145686Y1218602*
X2145140Y1218977*
X2144049*
X2186322Y1217852D02*
Y1211102D01*
X2183868Y1214477D02*
X2188777D01*
X2196140Y1220477D02*
X2191231Y1208477D01*
X2198595Y1214477D02*
X2203504D01*
X2207595Y1218977D02*
X2206777Y1218602D01*
X2206231Y1217477*
X2205958Y1215602*
Y1214477*
X2206231Y1212602*
X2206777Y1211477*
X2207595Y1211102*
X2208140*
X2208958Y1211477*
X2209504Y1212602*
X2209777Y1214477*
Y1215602*
X2209504Y1217477*
X2208958Y1218602*
X2208140Y1218977*
X2207595*
X2212504Y1211852D02*
X2212231Y1211477D01*
X2212504Y1211102*
X2212777Y1211477*
X2212504Y1211852*
X2216868Y1218977D02*
X2216049Y1218602D01*
X2215504Y1217477*
X2215231Y1215602*
Y1214477*
X2215504Y1212602*
X2216049Y1211477*
X2216868Y1211102*
X2217413*
X2218231Y1211477*
X2218777Y1212602*
X2219049Y1214477*
Y1215602*
X2218777Y1217477*
X2218231Y1218602*
X2217413Y1218977*
X2216868*
X1976140Y1194977D02*
X1975322Y1194602D01*
X1974777Y1193477*
X1974504Y1191602*
Y1190477*
X1974777Y1188602*
X1975322Y1187477*
X1976140Y1187102*
X1976686*
X1977504Y1187477*
X1978049Y1188602*
X1978322Y1190477*
Y1191602*
X1978049Y1193477*
X1977504Y1194602*
X1976686Y1194977*
X1976140*
X1981049Y1187852D02*
X1980777Y1187477D01*
X1981049Y1187102*
X1981322Y1187477*
X1981049Y1187852*
X1987322Y1192352D02*
X1987049Y1191227D01*
X1986504Y1190477*
X1985686Y1190102*
X1985413*
X1984595Y1190477*
X1984049Y1191227*
X1983777Y1192352*
Y1192727*
X1984049Y1193852*
X1984595Y1194602*
X1985413Y1194977*
X1985686*
X1986504Y1194602*
X1987049Y1193852*
X1987322Y1192352*
Y1190477*
X1987049Y1188602*
X1986504Y1187477*
X1985686Y1187102*
X1985140*
X1984322Y1187477*
X1984049Y1188227*
X2068095Y1194977D02*
X2071095D01*
X2069458Y1191977*
X2070277*
X2070822Y1191602*
X2071095Y1191227*
X2071368Y1190102*
Y1189352*
X2071095Y1188227*
X2070549Y1187477*
X2069731Y1187102*
X2068913*
X2068095Y1187477*
X2067822Y1187852*
X2067549Y1188602*
X2100504Y1193102D02*
X2112504D01*
X2106504Y1187102D02*
Y1199102D01*
X2109504Y1202402D02*
Y1196102D01*
Y1202402D02*
X2112340D01*
X2109504Y1199402D02*
X2111249D01*
X2109504Y1196102D02*
X2112340D01*
X2133140Y1194977D02*
X2135322Y1191227D01*
Y1187102*
X2137504Y1194977D02*
X2135322Y1191227D01*
X2139958Y1194977D02*
Y1187102D01*
Y1194977D02*
X2143504D01*
X2139958Y1191227D02*
X2142140D01*
X2139958Y1187102D02*
X2143504D01*
X2149777Y1193852D02*
X2149231Y1194602D01*
X2148413Y1194977*
X2147322*
X2146504Y1194602*
X2145958Y1193852*
Y1193102*
X2146231Y1192352*
X2146504Y1191977*
X2147049Y1191602*
X2148686Y1190852*
X2149231Y1190477*
X2149504Y1190102*
X2149777Y1189352*
Y1188227*
X2149231Y1187477*
X2148413Y1187102*
X2147322*
X2146504Y1187477*
X2145958Y1188227*
X2186322Y1193852D02*
Y1187102D01*
X2183868Y1190477D02*
X2188777D01*
X2196140Y1196477D02*
X2191231Y1184477D01*
X2198595Y1190477D02*
X2203504D01*
X2207595Y1194977D02*
X2206777Y1194602D01*
X2206231Y1193477*
X2205958Y1191602*
Y1190477*
X2206231Y1188602*
X2206777Y1187477*
X2207595Y1187102*
X2208140*
X2208958Y1187477*
X2209504Y1188602*
X2209777Y1190477*
Y1191602*
X2209504Y1193477*
X2208958Y1194602*
X2208140Y1194977*
X2207595*
X2212504Y1187852D02*
X2212231Y1187477D01*
X2212504Y1187102*
X2212777Y1187477*
X2212504Y1187852*
X2216868Y1194977D02*
X2216049Y1194602D01*
X2215504Y1193477*
X2215231Y1191602*
Y1190477*
X2215504Y1188602*
X2216049Y1187477*
X2216868Y1187102*
X2217413*
X2218231Y1187477*
X2218777Y1188602*
X2219049Y1190477*
Y1191602*
X2218777Y1193477*
X2218231Y1194602*
X2217413Y1194977*
X2216868*
X0Y0D02*
M02*
