%FSLAX25Y25*%
%MOIN*%
G70*
G01*
G75*
G04 Layer_Color=255*
%ADD10R,0.03150X0.05906*%
%ADD11R,0.07087X0.07874*%
%ADD12R,0.07087X0.03937*%
%ADD13R,0.02362X0.02362*%
%ADD14R,0.01654X0.05315*%
%ADD15R,0.05512X0.07480*%
%ADD16R,0.01200X0.01800*%
%ADD17R,0.02756X0.03347*%
%ADD18R,0.10236X0.10236*%
%ADD19R,0.01200X0.03400*%
%ADD20R,0.03400X0.01200*%
%ADD21O,0.02362X0.08661*%
%ADD22C,0.08000*%
%ADD23C,0.01500*%
%ADD24C,0.02000*%
%ADD25C,0.01000*%
%ADD26C,0.01200*%
%ADD27C,0.00800*%
%ADD28C,0.04000*%
%ADD29C,0.05000*%
%ADD30R,0.07218X0.03143*%
%ADD31R,0.03500X0.16700*%
%ADD32R,0.14100X0.03143*%
%ADD33R,0.13100X0.05000*%
%ADD34R,0.03800X0.29600*%
%ADD35R,0.05600X0.30100*%
%ADD36R,0.26100X0.04400*%
%ADD37R,0.18600X0.15300*%
%ADD38C,0.19685*%
%ADD39C,0.08661*%
%ADD40C,0.03228*%
%ADD41C,0.03000*%
%ADD42C,0.02000*%
%ADD43C,0.04000*%
%ADD44R,0.05315X0.02559*%
%ADD45R,0.02362X0.02362*%
%ADD46R,0.03347X0.02756*%
%ADD47R,0.05118X0.03937*%
%ADD48R,0.02559X0.05315*%
%ADD49C,0.03000*%
%ADD50R,0.12464X0.03143*%
%ADD51R,0.13939X0.02900*%
%ADD52R,0.02800X0.15100*%
D13*
X104700Y-24673D02*
D03*
Y-20736D02*
D03*
X109700Y-24673D02*
D03*
Y-20736D02*
D03*
X170600Y-48437D02*
D03*
Y-44500D02*
D03*
X175400Y-48537D02*
D03*
Y-44600D02*
D03*
X162100Y-60137D02*
D03*
Y-56200D02*
D03*
X123500Y-79837D02*
D03*
Y-75900D02*
D03*
X128800Y-79837D02*
D03*
Y-75900D02*
D03*
D17*
X155095Y-41400D02*
D03*
X161000D02*
D03*
D25*
X354331Y-98425D02*
X472441D01*
X248700D02*
X314900D01*
X0D02*
Y0D01*
X472441D01*
X0Y-98425D02*
X212598D01*
X472441D02*
Y0D01*
X212598Y-98425D02*
Y-31496D01*
X212500D02*
X248700D01*
Y-98425D02*
Y-31496D01*
X354331Y-98425D02*
Y-23622D01*
X314900D02*
X354331D01*
X314900Y-98425D02*
Y-23622D01*
D38*
X15748Y-49213D02*
D03*
X460630Y-68898D02*
D03*
D39*
X378200Y-79900D02*
D03*
X391980D02*
D03*
X405759D02*
D03*
X419539D02*
D03*
X433318D02*
D03*
D40*
X118726Y-75767D02*
D03*
X134474D02*
D03*
D44*
X117000Y-30300D02*
D03*
Y-20851D02*
D03*
X98300Y-30100D02*
D03*
Y-20651D02*
D03*
X170800Y-80849D02*
D03*
Y-71400D02*
D03*
D45*
X145285Y-19304D02*
D03*
X149222D02*
D03*
X145116Y-29879D02*
D03*
X149054D02*
D03*
X155000Y-46700D02*
D03*
X158937D02*
D03*
X381063Y-53000D02*
D03*
X385000D02*
D03*
D46*
X168700Y-56100D02*
D03*
Y-62006D02*
D03*
X395200Y-59000D02*
D03*
Y-53095D02*
D03*
D47*
X160500Y-73000D02*
D03*
Y-80874D02*
D03*
D48*
X389100Y-60200D02*
D03*
X379651D02*
D03*
M02*
