%FSLAX25Y25*%
%MOIN*%
G70*
G01*
G75*
G04 Layer_Color=8388736*
%ADD10R,0.03150X0.05906*%
%ADD11R,0.07087X0.07874*%
%ADD12R,0.07087X0.03937*%
%ADD13R,0.02362X0.02362*%
%ADD14R,0.01654X0.05315*%
%ADD15R,0.05512X0.07480*%
%ADD16R,0.01200X0.01800*%
%ADD17R,0.02756X0.03347*%
%ADD18R,0.10236X0.10236*%
%ADD19R,0.01200X0.03400*%
%ADD20R,0.03400X0.01200*%
%ADD21O,0.02362X0.08661*%
%ADD22C,0.08000*%
%ADD23C,0.01500*%
%ADD24C,0.02000*%
%ADD25C,0.01000*%
%ADD26C,0.01200*%
%ADD27C,0.00800*%
%ADD28C,0.04000*%
%ADD29C,0.05000*%
%ADD30R,0.07218X0.03143*%
%ADD31R,0.03500X0.16700*%
%ADD32R,0.14100X0.03143*%
%ADD33R,0.13100X0.05000*%
%ADD34R,0.03800X0.29600*%
%ADD35R,0.05600X0.30100*%
%ADD36R,0.26100X0.04400*%
%ADD37R,0.18600X0.15300*%
%ADD38C,0.19685*%
%ADD39C,0.08661*%
%ADD40C,0.03228*%
%ADD41C,0.03000*%
%ADD42C,0.02000*%
%ADD43C,0.04000*%
%ADD44R,0.05315X0.02559*%
%ADD45R,0.02362X0.02362*%
%ADD46R,0.03347X0.02756*%
%ADD47R,0.05118X0.03937*%
%ADD48R,0.02559X0.05315*%
%ADD49C,0.03000*%
%ADD50R,0.12464X0.03143*%
%ADD51R,0.13939X0.02900*%
%ADD52R,0.02800X0.15100*%
%ADD53C,0.00600*%
%ADD54C,0.02362*%
%ADD55C,0.00984*%
%ADD56C,0.01969*%
%ADD57C,0.00500*%
%ADD58C,0.00787*%
%ADD59R,0.03950X0.06706*%
%ADD60R,0.07887X0.08674*%
%ADD61R,0.07887X0.04737*%
%ADD62R,0.03162X0.03162*%
%ADD63R,0.02454X0.06115*%
%ADD64R,0.06312X0.08280*%
%ADD65R,0.02000X0.02600*%
%ADD66R,0.03556X0.04147*%
%ADD67R,0.11236X0.11236*%
%ADD68R,0.02200X0.04400*%
%ADD69R,0.04400X0.02200*%
%ADD70O,0.03162X0.09461*%
%ADD71C,0.20485*%
%ADD72C,0.09461*%
%ADD73C,0.04028*%
%ADD74C,0.03800*%
D25*
X354331Y-98425D02*
X472441D01*
X248700D02*
X314900D01*
X0D02*
Y0D01*
X472441D01*
X0Y-98425D02*
X212598D01*
X472441D02*
Y0D01*
X212598Y-98425D02*
Y-31496D01*
X212500D02*
X248700D01*
Y-98425D02*
Y-31496D01*
X354331Y-98425D02*
Y-23622D01*
X314900D02*
X354331D01*
X314900Y-98425D02*
Y-23622D01*
D59*
X296328Y-77600D02*
D03*
X291406D02*
D03*
X286485D02*
D03*
X281564D02*
D03*
X276642D02*
D03*
X271721D02*
D03*
X266800D02*
D03*
X170800Y-75669D02*
D03*
X175721D02*
D03*
X180642D02*
D03*
X185564D02*
D03*
D60*
X254005Y-89411D02*
D03*
X309123D02*
D03*
X198359Y-87480D02*
D03*
X158005D02*
D03*
D61*
X460300Y-48200D02*
D03*
Y-35405D02*
D03*
D62*
X266775Y-64737D02*
D03*
Y-60800D02*
D03*
X94600Y-60737D02*
D03*
Y-56800D02*
D03*
X99800Y-60737D02*
D03*
Y-56800D02*
D03*
X109700Y-60737D02*
D03*
Y-56800D02*
D03*
X119700Y-60737D02*
D03*
Y-56800D02*
D03*
X154100Y-58300D02*
D03*
Y-54363D02*
D03*
X159200Y-58300D02*
D03*
Y-54363D02*
D03*
X167400Y-15363D02*
D03*
Y-19300D02*
D03*
X172200Y-15363D02*
D03*
Y-19300D02*
D03*
X177200Y-15363D02*
D03*
Y-19300D02*
D03*
X182500Y-15363D02*
D03*
Y-19300D02*
D03*
X84400Y-33363D02*
D03*
Y-37300D02*
D03*
D63*
X126600Y-73700D02*
D03*
X124041D02*
D03*
X129159D02*
D03*
X131718D02*
D03*
X121482D02*
D03*
D64*
X111597Y-84232D02*
D03*
X141518D02*
D03*
D65*
X180100Y-62958D02*
D03*
X176131D02*
D03*
X178100D02*
D03*
X180100Y-57600D02*
D03*
X178100D02*
D03*
X176131D02*
D03*
D66*
X144255Y-29778D02*
D03*
X150161D02*
D03*
X144222Y-19604D02*
D03*
X150127D02*
D03*
D67*
X175400Y-36800D02*
D03*
D68*
X169494Y-27850D02*
D03*
X171463D02*
D03*
X173432D02*
D03*
X175400D02*
D03*
X177368D02*
D03*
X179337D02*
D03*
X181306D02*
D03*
Y-45750D02*
D03*
X179337D02*
D03*
X177368D02*
D03*
X175400D02*
D03*
X173432D02*
D03*
X171463D02*
D03*
X169494D02*
D03*
D69*
X184350Y-30895D02*
D03*
Y-32863D02*
D03*
Y-34832D02*
D03*
Y-36800D02*
D03*
Y-38769D02*
D03*
Y-40737D02*
D03*
Y-42706D02*
D03*
X166450D02*
D03*
Y-40737D02*
D03*
Y-38769D02*
D03*
Y-36800D02*
D03*
Y-34832D02*
D03*
Y-32863D02*
D03*
Y-30895D02*
D03*
D70*
X129700Y-26051D02*
D03*
X124700D02*
D03*
X119700D02*
D03*
X114700D02*
D03*
X109700D02*
D03*
X104700D02*
D03*
X99700D02*
D03*
X94700D02*
D03*
X129700Y-44949D02*
D03*
X124700D02*
D03*
X119700D02*
D03*
X114700D02*
D03*
X109700D02*
D03*
X104700D02*
D03*
X99700D02*
D03*
X94700D02*
D03*
D71*
X15748Y-49213D02*
D03*
X460630Y-68898D02*
D03*
D72*
X378200Y-79900D02*
D03*
X391980D02*
D03*
X405759D02*
D03*
X419539D02*
D03*
X433318D02*
D03*
D73*
X118726Y-75767D02*
D03*
X134474D02*
D03*
D74*
X420900Y-8900D02*
D03*
X417600Y-33500D02*
D03*
X451100Y-20000D02*
D03*
X430100Y-23900D02*
D03*
X425500Y-38000D02*
D03*
X197500Y-53900D02*
D03*
X198500Y-64800D02*
D03*
X274300Y-10500D02*
D03*
X433000Y-18700D02*
D03*
X436400Y-33700D02*
D03*
X446000Y-43500D02*
D03*
X274400Y-43900D02*
D03*
X210500Y-24900D02*
D03*
X50400Y-14700D02*
D03*
X30900Y-16800D02*
D03*
X79200Y-75900D02*
D03*
X57200Y-39300D02*
D03*
X51300Y-56200D02*
D03*
X35800Y-76900D02*
D03*
X18000Y-87900D02*
D03*
X10200Y-78500D02*
D03*
X91200Y-13700D02*
D03*
X70500Y-23400D02*
D03*
X29900Y-36700D02*
D03*
X19600Y-18900D02*
D03*
X50800Y-25000D02*
D03*
X100800Y-84900D02*
D03*
X85600Y-68000D02*
D03*
X71500Y-87400D02*
D03*
X56900Y-65400D02*
D03*
X204400Y-72500D02*
D03*
X203200Y-50100D02*
D03*
X267600Y-14500D02*
D03*
X258300Y-27800D02*
D03*
X194000Y-16700D02*
D03*
X203200Y-38300D02*
D03*
X442000Y-14900D02*
D03*
X387100Y-18700D02*
D03*
X363500Y-38900D02*
D03*
X414100Y-57400D02*
D03*
X426800Y-54100D02*
D03*
X423100Y-19100D02*
D03*
M02*
