%FSLAX25Y25*%
%MOIN*%
G70*
G01*
G75*
G04 Layer_Color=16711935*
%ADD10R,0.03150X0.05906*%
%ADD11R,0.07087X0.07874*%
%ADD12R,0.07087X0.03937*%
%ADD13R,0.02362X0.02362*%
%ADD14R,0.01654X0.05315*%
%ADD15R,0.05512X0.07480*%
%ADD16R,0.01200X0.01800*%
%ADD17R,0.02756X0.03347*%
%ADD18R,0.10236X0.10236*%
%ADD19R,0.01200X0.03400*%
%ADD20R,0.03400X0.01200*%
%ADD21O,0.02362X0.08661*%
%ADD22C,0.08000*%
%ADD23C,0.01500*%
%ADD24C,0.02000*%
%ADD25C,0.01000*%
%ADD26C,0.01200*%
%ADD27C,0.00800*%
%ADD28C,0.04000*%
%ADD29C,0.05000*%
%ADD30R,0.07218X0.03143*%
%ADD31R,0.03500X0.16700*%
%ADD32R,0.14100X0.03143*%
%ADD33R,0.13100X0.05000*%
%ADD34R,0.03800X0.29600*%
%ADD35R,0.05600X0.30100*%
%ADD36R,0.26100X0.04400*%
%ADD37R,0.18600X0.15300*%
%ADD38C,0.19685*%
%ADD39C,0.08661*%
%ADD40C,0.03228*%
%ADD41C,0.03000*%
%ADD42C,0.02000*%
%ADD43C,0.04000*%
%ADD44R,0.05315X0.02559*%
%ADD45R,0.02362X0.02362*%
%ADD46R,0.03347X0.02756*%
%ADD47R,0.05118X0.03937*%
%ADD48R,0.02559X0.05315*%
%ADD49C,0.03000*%
%ADD50R,0.12464X0.03143*%
%ADD51R,0.13939X0.02900*%
%ADD52R,0.02800X0.15100*%
%ADD53C,0.00600*%
%ADD54C,0.02362*%
%ADD55C,0.00984*%
%ADD56C,0.01969*%
%ADD57C,0.00500*%
%ADD58C,0.00787*%
%ADD59R,0.03950X0.06706*%
%ADD60R,0.07887X0.08674*%
%ADD61R,0.07887X0.04737*%
%ADD62R,0.03162X0.03162*%
%ADD63R,0.02454X0.06115*%
%ADD64R,0.06312X0.08280*%
%ADD65R,0.02000X0.02600*%
%ADD66R,0.03556X0.04147*%
%ADD67R,0.11236X0.11236*%
%ADD68R,0.02200X0.04400*%
%ADD69R,0.04400X0.02200*%
%ADD70O,0.03162X0.09461*%
%ADD71C,0.20485*%
%ADD72C,0.09461*%
%ADD73C,0.04028*%
%ADD74C,0.03800*%
%ADD75R,0.06115X0.03359*%
%ADD76R,0.03162X0.03162*%
%ADD77R,0.04147X0.03556*%
%ADD78R,0.05918X0.04737*%
%ADD79R,0.03359X0.06115*%
D25*
X354331Y-98425D02*
X472441D01*
X248700D02*
X314900D01*
X0D02*
Y0D01*
X472441D01*
X0Y-98425D02*
X212598D01*
X472441D02*
Y0D01*
X212598Y-98425D02*
Y-31496D01*
X212500D02*
X248700D01*
Y-98425D02*
Y-31496D01*
X354331Y-98425D02*
Y-23622D01*
X314900D02*
X354331D01*
X314900Y-98425D02*
Y-23622D01*
X354331Y-98425D02*
X472441D01*
X248700D02*
X314900D01*
X0D02*
Y0D01*
X472441D01*
X0Y-98425D02*
X212598D01*
X472441D02*
Y0D01*
X212598Y-98425D02*
Y-31496D01*
X212500D02*
X248700D01*
Y-98425D02*
Y-31496D01*
X354331Y-98425D02*
Y-23622D01*
X314900D02*
X354331D01*
X314900Y-98425D02*
Y-23622D01*
M02*
