*
*
G04 PADS VX.1.2 Build Number: 698008 generated Gerber (RS-274-X) file*
G04 PC Version=2.1*
*
%IN "LockBase_ZM_V1.0_201808"*%
*
%MOIN*%
*
%FSLAX35Y35*%
*
*
*
*
G04 PC Standard Apertures*
*
*
G04 Thermal Relief Aperture macro.*
%AMTER*
1,1,$1,0,0*
1,0,$1-$2,0,0*
21,0,$3,$4,0,0,45*
21,0,$3,$4,0,0,135*
%
*
*
G04 Annular Aperture macro.*
%AMANN*
1,1,$1,0,0*
1,0,$2,0,0*
%
*
*
G04 Odd Aperture macro.*
%AMODD*
1,1,$1,0,0*
1,0,$1-0.005,0,0*
%
*
*
G04 PC Custom Aperture Macros*
*
*
*
*
*
*
G04 PC Aperture Table*
*
%ADD010C,0.001*%
%ADD011ANN,0.07087X0.04724*%
%ADD012R,0.036X0.036*%
%ADD013R,0.036X0.05*%
%ADD014R,0.03149X0.0378*%
%ADD015R,0.04724X0.01772*%
%ADD016R,0.11811X0.07874*%
%ADD017R,0.0378X0.03149*%
%ADD018R,0.07874X0.07874*%
%ADD019R,0.11811X0.03937*%
%ADD020R,0.03937X0.07874*%
%ADD021ANN,0.05906X0.03543*%
%ADD022R,0.038X0.038*%
%ADD023R,0.04724X0.07874*%
%ADD024R,0.09843X0.0315*%
%ADD025ANN,0.15748X0.07874*%
%ADD026R,0.02362X0.07874*%
%ADD027C,0.012*%
%ADD028C,0.03*%
%ADD029C,0.02*%
%ADD031C,0.04*%
%ADD032C,0.055*%
%ADD033C,0.01*%
%ADD034C,0.015*%
%ADD056C,0.06*%
*
*
*
*
G04 PC Circuitry*
G04 Layer Name LockBase_ZM_V1.0_201808 - circuitry*
%LPD*%
*
*
G04 PC Custom Flashes*
G04 Layer Name LockBase_ZM_V1.0_201808 - flashes*
%LPD*%
*
*
G04 PC Circuitry*
G04 Layer Name LockBase_ZM_V1.0_201808 - circuitry*
%LPD*%
*
G54D10*
G54D11*
G01X300041Y234894D03*
X280041D03*
X260041D03*
X240041D03*
X220041D03*
X200041D03*
G54D12*
X228736Y172028D03*
X236236D03*
G54D13*
X232486Y180028D03*
G54D14*
X303739Y149757D03*
Y143458D03*
X297228Y149812D03*
Y143513D03*
X272245Y177045D03*
Y170746D03*
X220883Y181570D03*
Y187868D03*
G54D15*
X263360Y171142D03*
Y177047D03*
Y182953D03*
G54D16*
X251549Y177047D03*
G54D17*
X253385Y151997D03*
X259683D03*
X230146Y120240D03*
X236445D03*
X121272Y179227D03*
X114973D03*
X301755Y196068D03*
X308053D03*
X280231Y195958D03*
X286530D03*
X253424Y159008D03*
X259723D03*
G54D18*
X247617Y200979D03*
X263365D03*
G54D19*
X203289Y133963D03*
Y141837D03*
Y149711D03*
Y157585D03*
Y165459D03*
Y173333D03*
Y181207D03*
Y189081D03*
X140297D03*
Y181207D03*
Y173333D03*
Y165459D03*
Y157585D03*
Y149711D03*
Y141837D03*
Y133963D03*
G54D20*
X191478Y196955D03*
X183604D03*
X175730D03*
X167856D03*
X159982D03*
X152108D03*
X106930Y132583D03*
G54D21*
X178244Y243269D03*
X168244D03*
X158244D03*
X148244D03*
X124718Y217360D03*
X114718D03*
X260761Y109109D03*
X270761D03*
X280761D03*
X178003Y217008D03*
X168003D03*
X158003D03*
X148003D03*
G54D22*
X236437Y113260D03*
X230137D03*
X235181Y145785D03*
X228881D03*
X270764Y130898D03*
Y124598D03*
X260791Y131012D03*
Y124712D03*
X121276Y196546D03*
X114976D03*
X279256Y142358D03*
Y148658D03*
X288073Y142651D03*
Y148951D03*
X121348Y187684D03*
X115048D03*
X220906Y165695D03*
Y171995D03*
X235044Y164143D03*
X228744D03*
X235158Y137996D03*
X228858D03*
X228941Y128427D03*
X235241D03*
G54D23*
X124647Y165654D03*
Y132583D03*
X106930Y165654D03*
G54D24*
X317138Y129642D03*
Y149327D03*
G54D25*
X322484Y109835D03*
Y247630D03*
X109886D03*
Y109835D03*
G54D26*
X286689Y163474D03*
X291689D03*
X296689D03*
X301689D03*
Y187096D03*
X296689D03*
X291689D03*
X286689D03*
G54D27*
X230137Y113260D02*
Y120240D01*
X230146*
X260761Y111481D02*
Y117717D01*
X260791Y117747*
Y124712*
X270761Y111481D02*
Y117745D01*
X270764Y117747*
Y124598*
X140297Y133963D02*
X148881D01*
X148894Y133976*
X152573*
X203289Y133963D02*
X219416D01*
X221925Y131454*
Y123180*
X224865Y120240*
X230146*
X228858Y137996D02*
Y128427D01*
X228941*
X241867Y133888D02*
X241867D01*
X235158Y137996D02*
X240304D01*
X241867Y136433*
Y133888*
X260791Y131012D02*
Y136917D01*
X260795Y136920*
Y141925*
X270726Y136991D02*
Y130898D01*
X270764*
X279251Y137618D02*
Y142358D01*
X279256*
X140297Y141837D02*
Y141912D01*
X150579*
X203289Y141837D02*
X218785D01*
X218785D02*
X222627Y137996D01*
X228858*
X235181Y145785D02*
X253385D01*
X288073Y142651D02*
X288230D01*
Y138226*
X140297Y149711D02*
Y149605D01*
X159213*
X163118Y153510*
Y171152*
X140297Y157585D02*
Y157482D01*
X149806*
X203289Y149711D02*
X218700D01*
X222627Y145785*
X228881*
X279256Y148658D02*
Y161731D01*
X280606Y163081*
X286689*
Y163474*
X288073Y148951D02*
Y153058D01*
X291689Y156673*
Y163474*
X124647Y165654D02*
X140102D01*
X140297Y165459*
X182453Y162328D02*
X187298Y157483D01*
X203289*
Y157585*
Y165459D02*
Y165695D01*
X220906*
X275129Y163324D02*
X277370Y165565D01*
Y175214*
X203289Y173333D02*
Y173316D01*
X211240*
X220906Y171995D02*
Y172028D01*
X228736*
X228744*
Y164143*
X268195Y177047D02*
X268198Y177045D01*
X272245D02*
X275539D01*
X277370Y175214*
X121348Y187684D02*
X125283D01*
X128014Y184953*
Y176035*
X130403Y173647*
X140297*
Y173333*
X121272Y179227D02*
X121587D01*
X124647Y176167*
Y165654*
X153298Y187392D02*
X189712D01*
X191606Y189286*
X203289Y181207D02*
Y181341D01*
X212346*
X220883Y181570D02*
Y176798D01*
X220906Y176776*
Y171995*
X121276Y196546D02*
X126189D01*
X130873Y191862*
Y183118*
X132323Y181668*
X140297*
Y181207*
X183604Y196955D02*
Y203364D01*
X185136Y204896*
X197203*
X191478Y196955D02*
X191606D01*
Y189286*
X106440Y201341D02*
X108583Y203484D01*
X123050*
X124724Y205159*
X106440Y201341D02*
Y190290D01*
X109046Y187684*
X115048*
X197203Y204896D02*
X197203D01*
X197203*
X124718Y214988D02*
Y209791D01*
X124724Y209784*
Y205159*
X134740Y222944D02*
Y248550D01*
X138531Y252341*
X155356*
X158244Y249453*
Y245641*
X139877Y219929D02*
Y240090D01*
X143056Y243269*
X145872*
G54D28*
X236437Y113260D02*
X236440Y113262D01*
X245883*
X248955Y116335*
Y138408*
X253385Y142837*
Y145785*
Y151997*
X297228Y143513D02*
X303684D01*
X303739Y143458*
X203289Y189081D02*
X213855D01*
X213928Y189008*
X240455D02*
X245168D01*
X251549Y182627*
Y177047*
X210811Y205353D02*
X212891Y203273D01*
X229031*
X232486Y199819*
Y180028*
X210811Y205353D02*
Y243992D01*
X215867Y249049*
X234352*
X240041Y243360*
Y238756*
X178003Y217008D02*
Y216798D01*
X198640*
X203289Y212150*
Y189081*
G54D29*
X263360Y177047D02*
X268195D01*
X268198Y177045D02*
X272245D01*
X164307Y228896D02*
X175824D01*
X178003Y226718*
Y219780*
X152573Y133976D03*
X241867Y133888D03*
X270726Y136991D03*
X279251Y137618D03*
X150579Y141912D03*
X260795Y141925D03*
X288230Y138226D03*
X149806Y157482D03*
X182453Y162328D03*
X275129Y163324D03*
X163118Y171152D03*
X211240Y173316D03*
X153298Y187392D03*
X212346Y181341D03*
X197203Y204896D03*
X134740Y222944D03*
X139877Y219929D03*
X164307Y228896D03*
G54D31*
X260041Y230531D02*
Y216136D01*
X263365Y212812*
Y200979*
X300304Y150181D03*
X300358Y155516D03*
X308614Y158010D03*
X324942Y155798D03*
X315882Y166332D03*
X322543Y162037D03*
X292390Y175708D03*
X297026Y171389D03*
X300397Y175919D03*
X321939Y173711D03*
X315934Y175974D03*
X324731Y182661D03*
X316409Y183609D03*
X213928Y189008D03*
X240455D03*
X280592Y189824D03*
X315882Y192037D03*
X323416Y191558D03*
G54D32*
X240312Y105955D03*
X131645Y112393D03*
X223107Y108423D03*
X299518Y114873D03*
X300180Y108588D03*
X124270Y121946D03*
X147596Y123537D03*
X160270Y123621D03*
X171592Y124127D03*
X184182Y123790D03*
X197273Y125833D03*
X209545Y120827D03*
X241962Y125624D03*
X279340Y123639D03*
X291248Y122316D03*
X301999Y123970D03*
X313246Y119835D03*
X116429Y131082D03*
X296706Y134720D03*
X155793Y155560D03*
X173820Y151756D03*
X188044Y149936D03*
X225919Y156883D03*
X241962Y155891D03*
X266274Y150433D03*
X216150Y158315D03*
X266936Y162837D03*
X154800Y169453D03*
X172993Y176730D03*
X187713Y175076D03*
X106506Y181361D03*
X152485Y179376D03*
X210206Y196246D03*
X255659Y192020D03*
X237662Y201704D03*
X274709Y211462D03*
X288347Y208888D03*
X299294Y209510D03*
X195021Y225177D03*
X280898Y222370D03*
X290629Y223382D03*
X299509Y222534D03*
X317050Y218739D03*
X123872Y237429D03*
X317380Y234617D03*
X129495Y246856D03*
X198629Y249998D03*
G54D33*
X265642Y181720D02*
Y186508D01*
X245697*
Y163571*
X249437*
Y149240*
X254815*
Y172941*
X257177*
Y181720*
X265642*
X295815Y238713D02*
X303398D01*
Y183059*
X295815*
Y238713*
X285106Y183217D02*
X292374D01*
Y213533*
X284894Y221013*
Y238909*
X276287*
Y219656*
X285106Y210837*
Y183217*
X303500Y167500D02*
X300500D01*
Y157500*
X298500*
Y151500*
X296500*
Y148500*
X303500*
Y167500*
X245697Y186139D02*
X265642D01*
X245697Y185239D02*
X265642D01*
X245697Y184339D02*
X265642D01*
X245697Y183439D02*
X265642D01*
X245697Y182539D02*
X265642D01*
X245697Y181639D02*
X257177D01*
X245697Y180739D02*
X257177D01*
X245697Y179839D02*
X257177D01*
X245697Y178939D02*
X257177D01*
X245697Y178039D02*
X257177D01*
X245697Y177139D02*
X257177D01*
X245697Y176239D02*
X257177D01*
X245697Y175339D02*
X257177D01*
X245697Y174439D02*
X257177D01*
X245697Y173539D02*
X257177D01*
X245697Y172639D02*
X254815D01*
X245697Y171739D02*
X254815D01*
X245697Y170839D02*
X254815D01*
X245697Y169939D02*
X254815D01*
X245697Y169039D02*
X254815D01*
X245697Y168139D02*
X254815D01*
X245697Y167239D02*
X254815D01*
X245697Y166339D02*
X254815D01*
X245697Y165439D02*
X254815D01*
X245697Y164539D02*
X254815D01*
X245697Y163639D02*
X254815D01*
X249437Y162739D02*
X254815D01*
X249437Y161839D02*
X254815D01*
X249437Y160939D02*
X254815D01*
X249437Y160039D02*
X254815D01*
X249437Y159139D02*
X254815D01*
X249437Y158239D02*
X254815D01*
X249437Y157339D02*
X254815D01*
X249437Y156439D02*
X254815D01*
X249437Y155539D02*
X254815D01*
X249437Y154639D02*
X254815D01*
X249437Y153739D02*
X254815D01*
X249437Y152839D02*
X254815D01*
X249437Y151939D02*
X254815D01*
X249437Y151039D02*
X254815D01*
X249437Y150139D02*
X254815D01*
X295815Y237958D02*
X303398D01*
X295815Y237058D02*
X303398D01*
X295815Y236158D02*
X303398D01*
X295815Y235258D02*
X303398D01*
X295815Y234358D02*
X303398D01*
X295815Y233458D02*
X303398D01*
X295815Y232558D02*
X303398D01*
X295815Y231658D02*
X303398D01*
X295815Y230758D02*
X303398D01*
X295815Y229858D02*
X303398D01*
X295815Y228958D02*
X303398D01*
X295815Y228058D02*
X303398D01*
X295815Y227158D02*
X303398D01*
X295815Y226258D02*
X303398D01*
X295815Y225358D02*
X303398D01*
X295815Y224458D02*
X303398D01*
X295815Y223558D02*
X303398D01*
X295815Y222658D02*
X303398D01*
X295815Y221758D02*
X303398D01*
X295815Y220858D02*
X303398D01*
X295815Y219958D02*
X303398D01*
X295815Y219058D02*
X303398D01*
X295815Y218158D02*
X303398D01*
X295815Y217258D02*
X303398D01*
X295815Y216358D02*
X303398D01*
X295815Y215458D02*
X303398D01*
X295815Y214558D02*
X303398D01*
X295815Y213658D02*
X303398D01*
X295815Y212758D02*
X303398D01*
X295815Y211858D02*
X303398D01*
X295815Y210958D02*
X303398D01*
X295815Y210058D02*
X303398D01*
X295815Y209158D02*
X303398D01*
X295815Y208258D02*
X303398D01*
X295815Y207358D02*
X303398D01*
X295815Y206458D02*
X303398D01*
X295815Y205558D02*
X303398D01*
X295815Y204658D02*
X303398D01*
X295815Y203758D02*
X303398D01*
X295815Y202858D02*
X303398D01*
X295815Y201958D02*
X303398D01*
X295815Y201058D02*
X303398D01*
X295815Y200158D02*
X303398D01*
X295815Y199258D02*
X303398D01*
X295815Y198358D02*
X303398D01*
X295815Y197458D02*
X303398D01*
X295815Y196558D02*
X303398D01*
X295815Y195658D02*
X303398D01*
X295815Y194758D02*
X303398D01*
X295815Y193858D02*
X303398D01*
X295815Y192958D02*
X303398D01*
X295815Y192058D02*
X303398D01*
X295815Y191158D02*
X303398D01*
X295815Y190258D02*
X303398D01*
X295815Y189358D02*
X303398D01*
X295815Y188458D02*
X303398D01*
X295815Y187558D02*
X303398D01*
X295815Y186658D02*
X303398D01*
X295815Y185758D02*
X303398D01*
X295815Y184858D02*
X303398D01*
X295815Y183958D02*
X303398D01*
X283028Y212915D02*
X292374D01*
X283928Y212015D02*
X292374D01*
X284828Y211115D02*
X292374D01*
X285106Y210215D02*
X292374D01*
X285106Y209315D02*
X292374D01*
X285106Y208415D02*
X292374D01*
X285106Y207515D02*
X292374D01*
X285106Y206615D02*
X292374D01*
X285106Y205715D02*
X292374D01*
X285106Y204815D02*
X292374D01*
X285106Y203915D02*
X292374D01*
X285106Y203015D02*
X292374D01*
X285106Y202115D02*
X292374D01*
X285106Y201215D02*
X292374D01*
X285106Y200315D02*
X292374D01*
X285106Y199415D02*
X292374D01*
X285106Y198515D02*
X292374D01*
X285106Y197615D02*
X292374D01*
X285106Y196715D02*
X292374D01*
X285106Y195815D02*
X292374D01*
X285106Y194915D02*
X292374D01*
X285106Y194015D02*
X292374D01*
X285106Y193115D02*
X292374D01*
X285106Y192215D02*
X292374D01*
X285106Y191315D02*
X292374D01*
X285106Y190415D02*
X292374D01*
X285106Y189515D02*
X292374D01*
X285106Y188615D02*
X292374D01*
X285106Y187715D02*
X292374D01*
X285106Y186815D02*
X292374D01*
X285106Y185915D02*
X292374D01*
X285106Y185015D02*
X292374D01*
X285106Y184115D02*
X292374D01*
X282128Y213815D02*
X292092D01*
X281228Y214715D02*
X291192D01*
X280328Y215615D02*
X290292D01*
X279428Y216515D02*
X289392D01*
X278528Y217415D02*
X288492D01*
X277628Y218315D02*
X287592D01*
X276728Y219215D02*
X286692D01*
X276287Y220115D02*
X285792D01*
X276287Y238115D02*
X284894D01*
X276287Y237215D02*
X284894D01*
X276287Y236315D02*
X284894D01*
X276287Y235415D02*
X284894D01*
X276287Y234515D02*
X284894D01*
X276287Y233615D02*
X284894D01*
X276287Y232715D02*
X284894D01*
X276287Y231815D02*
X284894D01*
X276287Y230915D02*
X284894D01*
X276287Y230015D02*
X284894D01*
X276287Y229115D02*
X284894D01*
X276287Y228215D02*
X284894D01*
X276287Y227315D02*
X284894D01*
X276287Y226415D02*
X284894D01*
X276287Y225515D02*
X284894D01*
X276287Y224615D02*
X284894D01*
X276287Y223715D02*
X284894D01*
X276287Y222815D02*
X284894D01*
X276287Y221915D02*
X284894D01*
X276287Y221015D02*
X284894D01*
X300500Y167399D02*
X303500D01*
X300500Y166499D02*
X303500D01*
X300500Y165599D02*
X303500D01*
X300500Y164699D02*
X303500D01*
X300500Y163799D02*
X303500D01*
X300500Y162899D02*
X303500D01*
X300500Y161999D02*
X303500D01*
X300500Y161099D02*
X303500D01*
X300500Y160199D02*
X303500D01*
X300500Y159299D02*
X303500D01*
X300500Y158399D02*
X303500D01*
X298500Y157499D02*
X303500D01*
X298500Y156599D02*
X303500D01*
X298500Y155699D02*
X303500D01*
X298500Y154799D02*
X303500D01*
X298500Y153899D02*
X303500D01*
X298500Y152999D02*
X303500D01*
X298500Y152099D02*
X303500D01*
X296500Y151199D02*
X303500D01*
X296500Y150299D02*
X303500D01*
X296500Y149399D02*
X303500D01*
X205284Y234894D02*
G75*
G03X205284I-5243J0D01*
G01X248653Y142631D02*
G03X248299Y143485I-354J354D01*
G01X239089*
G03X238633Y143189I-0J-500*
G01X237790Y142339D02*
G03X238633Y143189I-709J1546D01*
G01X237790Y142339D02*
G03X237785Y141433I208J-454D01*
G01X238609Y140592D02*
G03X237785Y141433I-1551J-696D01*
G01X238609Y140592D02*
G03X239065Y140296I456J204D01*
G01X240304*
X241931Y139622D02*
G03X240304Y140296I-1627J-1626D01*
G01X241931Y139622D02*
X243494Y138059D01*
X244167Y136433D02*
G03X243494Y138059I-2300J0D01*
G01X244167Y136433D02*
Y135436D01*
G03X244230Y135194I500J0*
G01X239261Y134594D02*
G03X244230Y135194I2606J-706D01*
G01X239261Y134594D02*
G03X238387Y135037I-483J131D01*
G01X237058Y134396D02*
G03X238387Y135037I-0J1700D01*
G01X237058Y134396D02*
X233258D01*
X232292Y134697D02*
G03X233258Y134396I966J1399D01*
G01X232292Y134697D02*
G03X231724I-284J-411D01*
G01X231453Y134545D02*
G03X231724Y134697I-695J1551D01*
G01X231453Y134545D02*
G03X231158Y134089I205J-456D01*
G01Y132369*
G03X231472Y131905I500J0*
G01X231806Y131725D02*
G03X231472Y131905I-965J-1398D01*
G01X231806Y131725D02*
G03X232375I285J412D01*
G01X233341Y132027D02*
G03X232375Y131725I-0J-1700D01*
G01X233341Y132027D02*
X237141D01*
X238841Y130327D02*
G03X237141Y132027I-1700J-0D01*
G01X238841Y130327D02*
Y126527D01*
X237141Y124826D02*
G03X238841Y126527I-0J1701D01*
G01X237141Y124826D02*
X233341D01*
X232375Y125128D02*
G03X233341Y124826I966J1399D01*
G01X232375Y125128D02*
G03X231806I-284J-412D01*
G01X230841Y124826D02*
G03X231806Y125128I-0J1701D01*
G01X230841Y124826D02*
X227041D01*
X225341Y126527D02*
G03X227041Y124826I1700J-0D01*
G01X225341Y126527D02*
Y130327D01*
X226281Y131848D02*
G03X225341Y130327I760J-1521D01*
G01X226281Y131848D02*
G03X226558Y132295I-223J447D01*
G01Y134089*
G03X226262Y134545I-500J-0*
G01X225407Y135401D02*
G03X226262Y134545I1551J695D01*
G01X225407Y135401D02*
G03X224950Y135696I-457J-205D01*
G01X222627*
X222187Y135738D02*
G03X222627Y135696I440J2258D01*
G01X222187Y135738D02*
G03X221738Y134894I-96J-490D01*
G01X223552Y133080*
X224225Y131454D02*
G03X223552Y133080I-2300J0D01*
G01X224225Y131454D02*
Y124340D01*
G03X224372Y123986I500J-0*
G01X225671Y122687*
G03X226025Y122540I354J353*
G01X226428*
G03X226844Y122762I0J500*
G01X228256Y123515D02*
G03X226844Y122762I-0J-1700D01*
G01X228256Y123515D02*
X232036D01*
X233009Y123209D02*
G03X232036Y123515I-973J-1394D01*
G01X233009Y123209D02*
G03X233581I286J410D01*
G01X234554Y123515D02*
G03X233581Y123209I0J-1700D01*
G01X234554Y123515D02*
X238335D01*
X240035Y121815D02*
G03X238335Y123515I-1700J-0D01*
G01X240035Y121815D02*
Y118665D01*
X239411Y117350D02*
G03X240035Y118665I-1076J1315D01*
G01X239411Y117350D02*
G03X239728Y116462I317J-388D01*
G01X244351*
G03X244704Y116609I-0J500*
G01X245609Y117514*
G03X245755Y117867I-354J353*
G01Y138408*
X246693Y140671D02*
G03X245755Y138408I2262J-2263D01*
G01X246693Y140671D02*
X248653Y142631D01*
X331183Y202142D02*
Y241777D01*
G03X330276Y242068I-500J0*
G01X316990Y255471D02*
G03X330276Y242068I5494J-7841D01*
G01X316990Y255471D02*
G03X316703Y256380I-287J409D01*
G01X115666*
G03X115379Y255471I0J-500*
G01X102011Y242184D02*
G03X115379Y255471I7875J5446D01*
G01X102011Y242184D02*
G03X101100Y241899I-411J-285D01*
G01Y115565*
G03X102011Y115280I500J-0*
G01X115401Y102009D02*
G03X102011Y115280I-5515J7826D01*
G01X115401Y102009D02*
G03X115689Y101100I288J-409D01*
G01X138500*
G03X139000Y101600I-0J500*
G01Y120500*
X139500Y121000D02*
G03X139000Y120500I0J-500D01*
G01X139500Y121000D02*
X204500D01*
X205000Y120500D02*
G03X204500Y121000I-500J0D01*
G01X205000Y120500D02*
Y101600D01*
G03X205500Y101100I500J0*
G01X316681*
G03X316969Y102009I-0J500*
G01X330276Y115397D02*
G03X316969Y102009I-7792J-5562D01*
G01X330276Y115397D02*
G03X331183Y115687I407J290D01*
G01Y141147*
G03X330683Y141647I-500J-0*
G01X312697*
G03X312197Y141147I-0J-500*
G01Y136815*
X311559*
G03X311255Y136712I-0J-500*
G01X309920Y136261D02*
G03X311255Y136712I-0J2200D01*
G01X309920Y136261D02*
X295151D01*
X293799Y136725D02*
G03X295151Y136261I1352J1736D01*
G01X293799Y136725D02*
G03X293617Y136815I-308J-394D01*
X293515Y136990I-474J-159*
G01X292951Y138461D02*
G03X293515Y136990I2200J-0D01*
G01X292951Y138461D02*
Y153475D01*
G03X292097Y153829I-500J0*
G01X291100Y152832*
G03X291117Y152108I354J-354*
G01X291674Y150851D02*
G03X291117Y152108I-1701J-0D01*
G01X291674Y150851D02*
Y147051D01*
X291372Y146085D02*
G03X291674Y147051I-1399J966D01*
G01X291372Y146085D02*
G03Y145516I412J-284D01*
G01X291674Y144551D02*
G03X291372Y145516I-1701J-0D01*
G01X291674Y144551D02*
Y140751D01*
X291022Y139412D02*
G03X291674Y140751I-1049J1339D01*
G01X291022Y139412D02*
G03X290846Y138895I308J-393D01*
G01X285580Y138741D02*
G03X290846Y138895I2650J-515D01*
G01X285580Y138741D02*
G03X285335Y139272I-491J96D01*
G01X284473Y140751D02*
G03X285335Y139272I1700J-0D01*
G01X284473Y140751D02*
Y144551D01*
X284775Y145516D02*
G03X284473Y144551I1398J-965D01*
G01X284775Y145516D02*
G03Y146085I-412J285D01*
G01X284473Y147051D02*
G03X284775Y146085I1700J-0D01*
G01X284473Y147051D02*
Y150851D01*
X285478Y152402D02*
G03X284473Y150851I695J-1551D01*
G01X285478Y152402D02*
G03X285773Y152858I-205J456D01*
G01Y153058*
X286447Y154684D02*
G03X285773Y153058I1626J-1626D01*
G01X286447Y154684D02*
X288832Y157069D01*
G03X288340Y157903I-354J354*
G01X287870Y157837D02*
G03X288340Y157903I0J1700D01*
G01X287870Y157837D02*
X285508D01*
X283808Y159537D02*
G03X285508Y157837I1700J-0D01*
G01X283808Y159537D02*
Y160281D01*
G03X283308Y160781I-500J0*
G01X282056*
G03X281556Y160281I-0J-500*
G01Y152565*
G03X281851Y152109I500J0*
G01X282856Y150558D02*
G03X281851Y152109I-1700J-0D01*
G01X282856Y150558D02*
Y146758D01*
X282555Y145792D02*
G03X282856Y146758I-1399J966D01*
G01X282555Y145792D02*
G03Y145224I411J-284D01*
G01X282856Y144258D02*
G03X282555Y145224I-1700J-0D01*
G01X282856Y144258D02*
Y140458D01*
X282042Y139007D02*
G03X282856Y140458I-886J1451D01*
G01X282042Y139007D02*
G03X281826Y138430I261J-427D01*
G01X276677Y138434D02*
G03X281826Y138430I2574J-816D01*
G01X276677Y138434D02*
G03X276463Y139011I-476J152D01*
G01X275656Y140458D02*
G03X276463Y139011I1700J-0D01*
G01X275656Y140458D02*
Y144258D01*
X275957Y145224D02*
G03X275656Y144258I1399J-966D01*
G01X275957Y145224D02*
G03Y145792I-412J284D01*
G01X275656Y146758D02*
G03X275957Y145792I1700J-0D01*
G01X275656Y146758D02*
Y150558D01*
X276660Y152109D02*
G03X275656Y150558I696J-1551D01*
G01X276660Y152109D02*
G03X276956Y152565I-204J456D01*
G01Y160412*
G03X276249Y160867I-500J0*
G01X274383Y165919D02*
G03X276249Y160867I746J-2595D01*
G01X274383Y165919D02*
G03X274598Y166046I-138J480D01*
G01X274924Y166371*
G03X275070Y166725I-354J354*
G01Y166787*
G03X274400Y167257I-500J0*
G01X273820Y167156D02*
G03X274400Y167257I0J1700D01*
G01X273820Y167156D02*
X270671D01*
X268971Y168856D02*
G03X270671Y167156I1700J-0D01*
G01X268971Y168856D02*
Y172636D01*
X269062Y173186D02*
G03X268971Y172636I1609J-550D01*
G01X269062Y173186D02*
G03X268940Y173703I-473J161D01*
G01X268540Y174153D02*
G03X268940Y173703I3705J2892D01*
G01X268540Y174153D02*
G03X268154Y174345I-394J-308D01*
G01X268088Y174347D02*
G03X268154Y174345I110J2698D01*
G01X268088Y174347D02*
G03X268068I-20J-500D01*
G01X266958*
G03X266677Y173434I0J-500*
G01X267422Y172028D02*
G03X266677Y173434I-1700J-0D01*
G01X267422Y172028D02*
Y170256D01*
X265722Y168556D02*
G03X267422Y170256I-0J1700D01*
G01X265722Y168556D02*
X260997D01*
X259297Y170256D02*
G03X260997Y168556I1700J-0D01*
G01X259297Y170256D02*
Y170781D01*
G03X258497Y171181I-500J0*
G01X257452Y170758D02*
G03X258497Y171181I-275J2183D01*
G01X257452Y170758D02*
G03X257015Y170262I63J-496D01*
G01Y162760*
G03X257587Y162265I500J-0*
G01X257833Y162283D02*
G03X257587Y162265I-0J-1700D01*
G01X257833Y162283D02*
X261613D01*
X263313Y160583D02*
G03X261613Y162283I-1700J-0D01*
G01X263313Y160583D02*
Y157433D01*
X262413Y155933D02*
G03X263313Y157433I-800J1500D01*
G01X262413Y155933D02*
G03X262404Y155056I235J-441D01*
G01X263274Y153572D02*
G03X262404Y155056I-1700J0D01*
G01X263274Y153572D02*
Y150423D01*
X261574Y148723D02*
G03X263274Y150423I-0J1700D01*
G01X261574Y148723D02*
X257793D01*
X257439Y148760D02*
G03X257793Y148723I354J1663D01*
G01X257439Y148760D02*
G03X256868Y148450I-104J-489D01*
G01X256664Y148048D02*
G03X256868Y148450I-1849J1192D01*
G01X256664Y148048D02*
G03X256585Y147778I421J-270D01*
G01Y145785*
Y142837*
X255647Y140575D02*
G03X256585Y142837I-2262J2262D01*
G01X255647Y140575D02*
X252302Y137229D01*
G03X252155Y136876I353J-353*
G01Y116335*
X251218Y114072D02*
G03X252155Y116335I-2263J2263D01*
G01X251218Y114072D02*
X248146Y111000D01*
X245883Y110062D02*
G03X248146Y111000I0J3200D01*
G01X245883Y110062D02*
X239606D01*
G03X239318Y109971I0J-500*
G01X238337Y109660D02*
G03X239318Y109971I0J1700D01*
G01X238337Y109660D02*
X234537D01*
X233571Y109961D02*
G03X234537Y109660I966J1399D01*
G01X233571Y109961D02*
G03X233003I-284J-412D01*
G01X232037Y109660D02*
G03X233003Y109961I0J1700D01*
G01X232037Y109660D02*
X228237D01*
X226537Y111360D02*
G03X228237Y109660I1700J-0D01*
G01X226537Y111360D02*
Y115160D01*
X227217Y116520D02*
G03X226537Y115160I1020J-1360D01*
G01X227217Y116520D02*
G03X227221Y117316I-300J400D01*
G01X226844Y117719D02*
G03X227221Y117316I1412J946D01*
G01X226844Y117719D02*
G03X226428Y117940I-416J-279D01*
G01X224865*
X223238Y118614D02*
G03X224865Y117940I1627J1626D01*
G01X223238Y118614D02*
X220299Y121553D01*
X219625Y123180D02*
G03X220299Y121553I2300J-0D01*
G01X219625Y123180D02*
Y130294D01*
G03X219479Y130648I-500J0*
G01X218610Y131517*
G03X218256Y131663I-354J-354*
G01X211231*
G03X210768Y131352I0J-500*
G01X209194Y130295D02*
G03X210768Y131352I0J1700D01*
G01X209194Y130295D02*
X197383D01*
X195683Y131995D02*
G03X197383Y130295I1700J-0D01*
G01X195683Y131995D02*
Y135932D01*
X196624Y137453D02*
G03X195683Y135932I759J-1521D01*
G01X196624Y137453D02*
G03Y138348I-223J447D01*
G01X195683Y139869D02*
G03X196624Y138348I1700J-0D01*
G01X195683Y139869D02*
Y143806D01*
X196624Y145327D02*
G03X195683Y143806I759J-1521D01*
G01X196624Y145327D02*
G03Y146222I-223J447D01*
G01X195683Y147743D02*
G03X196624Y146222I1700J-0D01*
G01X195683Y147743D02*
Y151680D01*
X196624Y153201D02*
G03X195683Y151680I759J-1521D01*
G01X196624Y153201D02*
G03Y154096I-223J447D01*
G01X195844Y154895D02*
G03X196624Y154096I1539J722D01*
G01X195844Y154895D02*
G03X195391Y155183I-453J-212D01*
G01X187298*
X185672Y155857D02*
G03X187298Y155183I1626J1626D01*
G01X185672Y155857D02*
X181922Y159606D01*
G03X181707Y159733I-353J-353*
G01X185048Y163074D02*
G03X181707Y159733I-2595J-746D01*
G01X185048Y163074D02*
G03X185175Y162859I480J138D01*
G01X188104Y159929*
G03X188458Y159783I354J354*
G01X195308*
G03X195779Y160117I-0J500*
G01X196624Y161075D02*
G03X195779Y160117I759J-1521D01*
G01X196624Y161075D02*
G03Y161970I-223J447D01*
G01X195683Y163491D02*
G03X196624Y161970I1700J-0D01*
G01X195683Y163491D02*
Y167428D01*
X196624Y168949D02*
G03X195683Y167428I759J-1521D01*
G01X196624Y168949D02*
G03Y169844I-223J447D01*
G01X195683Y171365D02*
G03X196624Y169844I1700J-0D01*
G01X195683Y171365D02*
Y175302D01*
X196624Y176823D02*
G03X195683Y175302I759J-1521D01*
G01X196624Y176823D02*
G03Y177718I-223J447D01*
G01X195683Y179239D02*
G03X196624Y177718I1700J-0D01*
G01X195683Y179239D02*
Y183176D01*
X196624Y184697D02*
G03X195683Y183176I759J-1521D01*
G01X196624Y184697D02*
G03Y185592I-223J447D01*
G01X195683Y187113D02*
G03X196624Y185592I1700J-0D01*
G01X195683Y187113D02*
Y191050D01*
X197383Y192750D02*
G03X195683Y191050I0J-1700D01*
G01X197383Y192750D02*
X199589D01*
G03X200089Y193250I-0J500*
G01Y202763*
G03X199216Y203096I-500J0*
G01X195895Y202534D02*
G03X199216Y203096I1308J2362D01*
G01X195895Y202534D02*
G03X195653Y202596I-242J-438D01*
G01X195288*
G03X194869Y201823I-0J-500*
G01X195146Y200892D02*
G03X194869Y201823I-1700J0D01*
G01X195146Y200892D02*
Y193018D01*
X194188Y191489D02*
G03X195146Y193018I-742J1529D01*
G01X194188Y191489D02*
G03X193906Y191039I218J-450D01*
G01Y189286*
X193233Y187660D02*
G03X193906Y189286I-1627J1626D01*
G01X193233Y187660D02*
X191339Y185766D01*
X189712Y185092D02*
G03X191339Y185766I0J2300D01*
G01X189712Y185092D02*
X154847D01*
G03X154605Y185029I0J-500*
G01Y189755D02*
G03Y185029I-1307J-2363D01*
G01Y189755D02*
G03X154847Y189692I242J437D01*
G01X188552*
G03X188906Y189838I0J500*
G01X189160Y190092*
G03X189306Y190446I-354J354*
G01Y190934*
G03X188966Y191407I-500J-0*
G01X187988Y192259D02*
G03X188966Y191407I1521J759D01*
G01X187988Y192259D02*
G03X187093I-447J-223D01*
G01X185572Y191318D02*
G03X187093Y192259I0J1700D01*
G01X185572Y191318D02*
X181635D01*
X180114Y192259D02*
G03X181635Y191318I1521J759D01*
G01X180114Y192259D02*
G03X179219I-447J-223D01*
G01X177698Y191318D02*
G03X179219Y192259I0J1700D01*
G01X177698Y191318D02*
X173761D01*
X172240Y192259D02*
G03X173761Y191318I1521J759D01*
G01X172240Y192259D02*
G03X171345I-447J-223D01*
G01X169824Y191318D02*
G03X171345Y192259I0J1700D01*
G01X169824Y191318D02*
X165887D01*
X164366Y192259D02*
G03X165887Y191318I1521J759D01*
G01X164366Y192259D02*
G03X163471I-447J-223D01*
G01X161950Y191318D02*
G03X163471Y192259I0J1700D01*
G01X161950Y191318D02*
X158013D01*
X156492Y192259D02*
G03X158013Y191318I1521J759D01*
G01X156492Y192259D02*
G03X155597I-447J-223D01*
G01X154076Y191318D02*
G03X155597Y192259I0J1700D01*
G01X154076Y191318D02*
X150139D01*
X148439Y193018D02*
G03X150139Y191318I1700J0D01*
G01X148439Y193018D02*
Y200892D01*
X150139Y202592D02*
G03X148439Y200892I0J-1700D01*
G01X150139Y202592D02*
X154076D01*
X155597Y201652D02*
G03X154076Y202592I-1521J-760D01*
G01X155597Y201652D02*
G03X156492I448J223D01*
G01X158013Y202592D02*
G03X156492Y201652I0J-1700D01*
G01X158013Y202592D02*
X161950D01*
X163471Y201652D02*
G03X161950Y202592I-1521J-760D01*
G01X163471Y201652D02*
G03X164366I448J223D01*
G01X165887Y202592D02*
G03X164366Y201652I0J-1700D01*
G01X165887Y202592D02*
X169824D01*
X171345Y201652D02*
G03X169824Y202592I-1521J-760D01*
G01X171345Y201652D02*
G03X172240I448J223D01*
G01X173761Y202592D02*
G03X172240Y201652I0J-1700D01*
G01X173761Y202592D02*
X177698D01*
X179219Y201652D02*
G03X177698Y202592I-1521J-760D01*
G01X179219Y201652D02*
G03X180114I448J223D01*
G01X180993Y202466D02*
G03X180114Y201652I642J-1574D01*
G01X180993Y202466D02*
G03X181304Y202929I-189J463D01*
G01Y203364*
X181977Y204990D02*
G03X181304Y203364I1627J-1626D01*
G01X181977Y204990D02*
X183510Y206523D01*
X185136Y207196D02*
G03X183510Y206523I0J-2300D01*
G01X185136Y207196D02*
X195654D01*
G03X195896Y207259I0J500*
G01X199216Y206696D02*
G03X195896Y207259I-2013J-1800D01*
G01X199216Y206696D02*
G03X200089Y207029I373J333D01*
G01Y210617*
G03X199942Y210971I-500J0*
G01X197461Y213451*
G03X197108Y213598I-353J-353*
G01X181359*
G03X181033Y213477I-0J-500*
G01X173488Y215883D02*
G03X181033Y213477I4515J1125D01*
G01X173488Y215883D02*
G03X172517I-485J-121D01*
G01X163488D02*
G03X172517I4515J1125D01*
G01X163488D02*
G03X162517I-485J-121D01*
G01X153488D02*
G03X162517I4515J1125D01*
G01X153488D02*
G03X152517I-485J-121D01*
G01Y218132D02*
G03Y215883I-4514J-1124D01*
G01Y218132D02*
G03X153488I486J121D01*
G01X162517D02*
G03X153488I-4514J-1124D01*
G01X162517D02*
G03X163488I486J121D01*
G01X172517D02*
G03X163488I-4514J-1124D01*
G01X172517D02*
G03X173488I486J121D01*
G01X175113Y220655D02*
G03X173488Y218132I2890J-3647D01*
G01X175113Y220655D02*
G03X175303Y221047I-310J392D01*
G01Y225392*
G03X175156Y225746I-500J0*
G01X174853Y226050*
G03X174499Y226196I-354J-354*
G01X164307*
Y231596D02*
G03Y226196I0J-2700D01*
G01Y231596D02*
X175824D01*
X177734Y230805D02*
G03X175824Y231596I-1910J-1909D01*
G01X177734Y230805D02*
X179912Y228627D01*
X180703Y226718D02*
G03X179912Y228627I-2700J-0D01*
G01X180703Y226718D02*
Y221047D01*
G03X180892Y220655I500J-0*
G01X181426Y220159D02*
G03X180892Y220655I-3423J-3151D01*
G01X181426Y220159D02*
G03X181793Y219998I367J339D01*
G01X198640*
X200903Y219061D02*
G03X198640Y219998I-2263J-2263D01*
G01X200903Y219061D02*
X205551Y214412D01*
X206489Y212150D02*
G03X205551Y214412I-3200J-0D01*
G01X206489Y212150D02*
Y193250D01*
G03X206989Y192750I500J-0*
G01X209194*
X210243Y192388D02*
G03X209194Y192750I-1049J-1338D01*
G01X210243Y192388D02*
G03X210551Y192281I308J393D01*
G01X212084*
G03X212303Y192332I-0J500*
G01X217134Y190854D02*
G03X212303Y192332I-3206J-1846D01*
G01X217134Y190854D02*
G03X217963Y190798I434J250D01*
G01X219308Y191459D02*
G03X217963Y190798I0J-1700D01*
G01X219308Y191459D02*
X222458D01*
X224158Y189759D02*
G03X222458Y191459I-1700J-0D01*
G01X224158Y189759D02*
Y185978D01*
X223852Y185005D02*
G03X224158Y185978I-1394J973D01*
G01X223852Y185005D02*
G03Y184433I410J-286D01*
G01X224158Y183460D02*
G03X223852Y184433I-1700J-0D01*
G01X224158Y183460D02*
Y179679D01*
X223405Y178268D02*
G03X224158Y179679I-947J1411D01*
G01X223405Y178268D02*
G03X223183Y177852I278J-416D01*
G01Y177129*
G03X223187Y177066I500J-0*
G01X223206Y176776D02*
G03X223187Y177066I-2300J0D01*
G01X223206Y176776D02*
Y175903D01*
G03X223501Y175446I500J-0*
G01X224345Y174616D02*
G03X223501Y175446I-1539J-721D01*
G01X224345Y174616D02*
G03X224798Y174328I453J212D01*
G01X224976*
G03X225421Y174601I-0J500*
G01X226936Y175528D02*
G03X225421Y174601I-0J-1700D01*
G01X226936Y175528D02*
X229076D01*
G03X229442Y176369I0J500*
G01X228986Y177528D02*
G03X229442Y176369I1700J-0D01*
G01X228986Y177528D02*
Y182528D01*
X229217Y183385D02*
G03X228986Y182528I1469J-857D01*
G01X229217Y183385D02*
G03X229286Y183637I-431J252D01*
G01Y198286*
G03X229139Y198640I-500J0*
G01X227852Y199926*
G03X227499Y200073I-353J-353*
G01X212891*
X210628Y201010D02*
G03X212891Y200073I2263J2263D01*
G01X210628Y201010D02*
X208548Y203090D01*
X207611Y205353D02*
G03X208548Y203090I3200J0D01*
G01X207611Y205353D02*
Y243992D01*
X208548Y246255D02*
G03X207611Y243992I2263J-2263D01*
G01X208548Y246255D02*
X213605Y251311D01*
X215867Y252249D02*
G03X213605Y251311I0J-3200D01*
G01X215867Y252249D02*
X234352D01*
X236614Y251311D02*
G03X234352Y252249I-2262J-2262D01*
G01X236614Y251311D02*
X242303Y245622D01*
X243241Y243360D02*
G03X242303Y245622I-3200J-0D01*
G01X243241Y243360D02*
Y239286D01*
G03X243419Y238904I500J0*
G01X236663D02*
G03X243419I3378J-4010D01*
G01X236663D02*
G03X236841Y239286I-322J382D01*
G01Y241827*
G03X236694Y242181I-500J-0*
G01X233173Y245702*
G03X232819Y245849I-354J-353*
G01X217400*
G03X217047Y245702I0J-500*
G01X217046D02*
X214157Y242813D01*
G03X214011Y242460I354J-353*
G01Y236446*
G03X214992Y236311I500J-0*
G01X224788Y232668D02*
G03X214992Y236311I-4747J2226D01*
G01X224788Y232668D02*
G03X224741Y232455I453J-213D01*
G01Y223128*
G03X224887Y222774I500J-0*
G01X225047Y222614*
G03X225401Y222468I354J354*
G01X241799*
X245123Y221091D02*
G03X241799Y222468I-3324J-3323D01*
G01X245123Y221091D02*
X250940Y215274D01*
X252317Y211950D02*
G03X250940Y215274I-4700J0D01*
G01X252317Y211950D02*
Y206717D01*
G03X252530Y206308I500J0*
G01X253254Y204916D02*
G03X252530Y206308I-1700J0D01*
G01X253254Y204916D02*
Y197042D01*
X251554Y195342D02*
G03X253254Y197042I-0J1700D01*
G01X251554Y195342D02*
X243680D01*
X241980Y197042D02*
G03X243680Y195342I1700J-0D01*
G01X241980Y197042D02*
Y204916D01*
X242704Y206308D02*
G03X241980Y204916I976J-1392D01*
G01X242704Y206308D02*
G03X242917Y206717I-287J409D01*
G01Y209796*
G03X242770Y210150I-500J0*
G01X239999Y212921*
G03X239645Y213068I-354J-353*
G01X223247*
X219923Y214444D02*
G03X223247Y213068I3324J3324D01*
G01X219923Y214444D02*
X216717Y217650D01*
X215341Y220974D02*
G03X216717Y217650I4700J-0D01*
G01X215341Y220974D02*
Y232455D01*
G03X215293Y232668I-500J0*
G01X214992Y233477D02*
G03X215293Y232668I5049J1417D01*
G01X214992Y233477D02*
G03X214011Y233342I-481J-135D01*
G01Y206973*
G03X214511Y206473I500J-0*
G01X229031*
X231294Y205536D02*
G03X229031Y206473I-2263J-2263D01*
G01X231294Y205536D02*
X234748Y202082D01*
X235686Y199819D02*
G03X234748Y202082I-3200J-0D01*
G01X235686Y199819D02*
Y183637D01*
G03X235754Y183385I500J-0*
G01X235986Y182528D02*
G03X235754Y183385I-1700J-0D01*
G01X235986Y182528D02*
Y177528D01*
X235529Y176369D02*
G03X235986Y177528I-1243J1159D01*
G01X235529Y176369D02*
G03X235895Y175528I366J-341D01*
G01X238036*
X239736Y173828D02*
G03X238036Y175528I-1700J-0D01*
G01X239736Y173828D02*
Y170228D01*
X238036Y168528D02*
G03X239736Y170228I-0J1700D01*
G01X238036Y168528D02*
X237893D01*
G03X237677Y167577I-0J-500*
G01X238644Y166043D02*
G03X237677Y167577I-1700J0D01*
G01X238644Y166043D02*
Y162243D01*
X236944Y160543D02*
G03X238644Y162243I-0J1700D01*
G01X236944Y160543D02*
X233144D01*
X232178Y160844D02*
G03X233144Y160543I966J1399D01*
G01X232178Y160844D02*
G03X231610I-284J-411D01*
G01X230644Y160543D02*
G03X231610Y160844I-0J1700D01*
G01X230644Y160543D02*
X226844D01*
X225144Y162243D02*
G03X226844Y160543I1700J0D01*
G01X225144Y162243D02*
Y162586D01*
G03X224226Y162861I-500J0*
G01X222806Y162095D02*
G03X224226Y162861I-0J1700D01*
G01X222806Y162095D02*
X219006D01*
X217454Y163100D02*
G03X219006Y162095I1552J695D01*
G01X217454Y163100D02*
G03X216998Y163395I-456J-205D01*
G01X211312*
G03X210831Y163031I0J-500*
G01X209953Y161970D02*
G03X210831Y163031I-759J1521D01*
G01X209953Y161970D02*
G03Y161075I224J-448D01*
G01X210894Y159554D02*
G03X209953Y161075I-1700J-0D01*
G01X210894Y159554D02*
Y155617D01*
X209953Y154096D02*
G03X210894Y155617I-759J1521D01*
G01X209953Y154096D02*
G03Y153201I224J-448D01*
G01X210768Y152322D02*
G03X209953Y153201I-1574J-642D01*
G01X210768Y152322D02*
G03X211231Y152011I463J189D01*
G01X218700*
X220327Y151338D02*
G03X218700Y152011I-1627J-1627D01*
G01X220327Y151338D02*
X223433Y148231D01*
G03X223787Y148085I354J354*
G01X224974*
G03X225430Y148380I-0J500*
G01X226981Y149385D02*
G03X225430Y148380I0J-1700D01*
G01X226981Y149385D02*
X230781D01*
X231747Y149084D02*
G03X230781Y149385I-966J-1399D01*
G01X231747Y149084D02*
G03X232316I284J411D01*
G01X233281Y149385D02*
G03X232316Y149084I0J-1700D01*
G01X233281Y149385D02*
X237081D01*
X238633Y148380D02*
G03X237081Y149385I-1552J-695D01*
G01X238633Y148380D02*
G03X239089Y148085I456J205D01*
G01X246818*
G03X247303Y148706I-0J500*
G01X247237Y149240D02*
G03X247303Y148706I2200J0D01*
G01X247237Y149240D02*
Y160871D01*
G03X246737Y161371I-500J-0*
G01X245697*
X243497Y163571D02*
G03X245697Y161371I2200J-0D01*
G01X243497Y163571D02*
Y185308D01*
G03X242997Y185808I-500J-0*
G01X242442*
G03X242206Y185748I0J-500*
G01Y192268D02*
G03Y185748I-1751J-3260D01*
G01Y192268D02*
G03X242442Y192208I236J440D01*
G01X245168*
X247431Y191271D02*
G03X245168Y192208I-2263J-2263D01*
G01X247431Y191271D02*
X249847Y188854D01*
G03X250201Y188708I354J354*
G01X265642*
X266785Y188387D02*
G03X265642Y188708I-1143J-1879D01*
G01X266785Y188387D02*
G03X267545Y188814I260J427D01*
G01Y189945*
G03X267399Y190298I-500J-0*
G01X262501Y195196*
G03X262148Y195342I-353J-354*
G01X259428*
X257728Y197042D02*
G03X259428Y195342I1700J-0D01*
G01X257728Y197042D02*
Y204916D01*
X259225Y206604D02*
G03X257728Y204916I203J-1688D01*
G01X259225Y206604D02*
G03X259665Y207100I-60J496D01*
G01Y211073*
G03X259518Y211426I-500J-0*
G01X257424Y213520*
X256341Y216136D02*
G03X257424Y213520I3700J0D01*
G01X256341Y216136D02*
Y230976D01*
G03X256206Y231317I-500J0*
G01X263875D02*
G03X256206I-3834J3577D01*
G01X263875D02*
G03X263741Y230976I366J-341D01*
G01Y217876*
G03X263887Y217523I500J0*
G01X265981Y215429*
X267065Y212812D02*
G03X265981Y215429I-3700J0D01*
G01X267065Y212812D02*
Y207100D01*
G03X267505Y206604I500J0*
G01X269002Y204916D02*
G03X267505Y206604I-1700J0D01*
G01X269002Y204916D02*
Y202196D01*
G03X269148Y201842I500J-0*
G01X273579Y197412*
G03X274433Y197765I354J353*
G01Y199442*
X275105Y201025D02*
G03X274433Y199442I1528J-1583D01*
G01X275104Y201025D02*
G03X275257Y201385I-347J360D01*
G01Y201484*
X275722*
G03X275891Y201514I0J500*
G01X276633Y201642D02*
G03X275891Y201514I-0J-2200D01*
G01X276633Y201642D02*
X282406D01*
G03X282906Y202142I0J500*
G01Y209719*
G03X282760Y210072I-500J-0*
G01X274732Y218100*
X274087Y219656D02*
G03X274732Y218100I2200J-0D01*
G01X274087Y219656D02*
Y238909D01*
X276287Y241109D02*
G03X274087Y238909I0J-2200D01*
G01X276287Y241109D02*
X284894D01*
X287094Y238909D02*
G03X284894Y241109I-2200J0D01*
G01X287094Y238909D02*
Y222132D01*
G03X287240Y221778I500J-0*
G01X292761Y216257*
G03X293615Y216611I354J354*
G01Y238713*
X295815Y240913D02*
G03X293615Y238713I-0J-2200D01*
G01X295815Y240913D02*
X303398D01*
X305598Y238713D02*
G03X303398Y240913I-2200J-0D01*
G01X305598Y238713D02*
Y202142D01*
G03X306098Y201642I500J0*
G01X330683*
G03X331183Y202142I0J500*
G01Y144530D02*
Y198776D01*
G03X330683Y199276I-500J0*
G01X311829*
G03X311401Y198519I0J-500*
G01X311644Y197643D02*
G03X311401Y198519I-1700J-0D01*
G01X311644Y197643D02*
Y194494D01*
X309944Y192793D02*
G03X311644Y194494I-0J1701D01*
G01X309944Y192793D02*
X306163D01*
X306113Y192794D02*
G03X306163Y192793I50J1700D01*
G01X306113Y192794D02*
G03X305598Y192294I-15J-500D01*
G01Y183059*
X303398Y180859D02*
G03X305598Y183059I-0J2200D01*
G01X303398Y180859D02*
X295815D01*
X294336Y181431D02*
G03X295815Y180859I1479J1628D01*
G01X294336Y181431D02*
G03X293698Y181460I-337J-370D01*
G01X292374Y181017D02*
G03X293698Y181460I0J2200D01*
G01X292374Y181017D02*
X285106D01*
X282906Y183217D02*
G03X285106Y181017I2200J-0D01*
G01X282906Y183217D02*
Y192202D01*
G03X282341Y192698I-500J-0*
G01X282121Y192683D02*
G03X282341Y192698I0J1700D01*
G01X282121Y192683D02*
X278341D01*
X278044Y192709D02*
G03X278341Y192683I297J1674D01*
G01X278044Y192709D02*
G03X277457Y192217I-87J-492D01*
G01Y180612*
G03X277957Y180112I500J0*
G01X278849*
X281049Y177912D02*
G03X278849Y180112I-2200J0D01*
G01X281049Y177912D02*
Y171974D01*
G03X281549Y171474I500J0*
G01X293617*
X295800Y169548D02*
G03X293617Y171474I-2183J-274D01*
G01X295800Y169548D02*
G03X296296Y169111I496J63D01*
G01X297870*
X298473Y169000D02*
G03X297870Y169111I-603J-1589D01*
G01X298473Y169000D02*
G03X298993Y169103I178J468D01*
G01X300500Y169700D02*
G03X298993Y169103I0J-2200D01*
G01X300500Y169700D02*
X303500D01*
X305700Y167500D02*
G03X303500Y169700I-2200J0D01*
G01X305700Y167500D02*
Y153661D01*
G03X305999Y153203I500J-0*
G01X307014Y151647D02*
G03X305999Y153203I-1700J0D01*
G01X307014Y151647D02*
Y147867D01*
X306708Y146894D02*
G03X307014Y147867I-1394J973D01*
G01X306708Y146894D02*
G03Y146322I409J-286D01*
G01X307014Y145348D02*
G03X306708Y146322I-1700J0D01*
G01X307014Y145348D02*
Y141568D01*
X305924Y139982D02*
G03X307014Y141568I-610J1586D01*
G01X305924Y139982D02*
G03X306104Y139015I180J-467D01*
G01X309420*
G03X309920Y139515I-0J500*
G01Y144030*
X330683*
G03X331183Y144530I0J500*
G01X323759Y131217D02*
Y128067D01*
X322059Y126367D02*
G03X323759Y128067I0J1700D01*
G01X322059Y126367D02*
X312217D01*
X310517Y128067D02*
G03X312217Y126367I1700J-0D01*
G01X310517Y128067D02*
Y131217D01*
X312217Y132917D02*
G03X310517Y131217I-0J-1700D01*
G01X312217Y132917D02*
X322059D01*
X323759Y131217D02*
G03X322059Y132917I-1700J-0D01*
G01X205284Y234894D02*
G03X205284I-5243J0D01*
G01X173729Y242144D02*
G03Y244394I4515J1125D01*
G01Y242144D02*
G03X172759I-485J-120D01*
G01X163729D02*
G03X172759I4515J1125D01*
G01X163729D02*
G03X162759I-485J-120D01*
G01X153729D02*
G03X162759I4515J1125D01*
G01X153729D02*
G03X152759I-485J-120D01*
G01X144447Y240580D02*
G03X152759Y242144I3797J2689D01*
G01X144447Y240580D02*
G03X143685Y240645I-408J-289D01*
G01X142323Y239283*
G03X142177Y238930I354J-353*
G01Y221478*
G03X142240Y221236I500J0*
G01X137210Y220349D02*
G03X142240Y221236I2667J-420D01*
G01X137210Y220349D02*
G03X136407Y220820I-494J78D01*
G01X132377Y224251D02*
G03X136407Y220820I2363J-1307D01*
G01X132377Y224251D02*
G03X132440Y224493I-437J242D01*
G01Y248550*
X133114Y250176D02*
G03X132440Y248550I1626J-1626D01*
G01X133114Y250176D02*
X136905Y253968D01*
X138531Y254641D02*
G03X136905Y253968I0J-2300D01*
G01X138531Y254641D02*
X155356D01*
X156982Y253968D02*
G03X155356Y254641I-1626J-1627D01*
G01X156982Y253968D02*
X159870Y251079D01*
X160544Y249453D02*
G03X159870Y251079I-2300J-0D01*
G01X160544Y249453D02*
Y247595D01*
G03X160772Y247175I500J-0*
G01X162759Y244394D02*
G03X160772Y247175I-4515J-1125D01*
G01X162759Y244394D02*
G03X163729I485J120D01*
G01X172759D02*
G03X163729I-4515J-1125D01*
G01X172759D02*
G03X173729I485J120D01*
G01X110599Y136520D02*
Y128646D01*
X108899Y126946D02*
G03X110599Y128646I-0J1700D01*
G01X108899Y126946D02*
X104962D01*
X103262Y128646D02*
G03X104962Y126946I1700J-0D01*
G01X103262Y128646D02*
Y136520D01*
X104962Y138220D02*
G03X103262Y136520I-0J-1700D01*
G01X104962Y138220D02*
X108899D01*
X110599Y136520D02*
G03X108899Y138220I-1700J-0D01*
G01X110993Y169591D02*
Y161717D01*
X109293Y160017D02*
G03X110993Y161717I-0J1700D01*
G01X109293Y160017D02*
X104568D01*
X102868Y161717D02*
G03X104568Y160017I1700J-0D01*
G01X102868Y161717D02*
Y169591D01*
X104568Y171291D02*
G03X102868Y169591I0J-1700D01*
G01X104568Y171291D02*
X109293D01*
X110993Y169591D02*
G03X109293Y171291I-1700J-0D01*
G01X128709Y136520D02*
Y128646D01*
X127009Y126946D02*
G03X128709Y128646I0J1700D01*
G01X127009Y126946D02*
X122285D01*
X120585Y128646D02*
G03X122285Y126946I1700J-0D01*
G01X120585Y128646D02*
Y136520D01*
X122285Y138220D02*
G03X120585Y136520I-0J-1700D01*
G01X122285Y138220D02*
X127009D01*
X128709Y136520D02*
G03X127009Y138220I-1700J-0D01*
G01X165481Y169845D02*
G03X160755I-2363J1307D01*
G01X165481D02*
G03X165418Y169603I437J-242D01*
G01Y153510*
X164744Y151884D02*
G03X165418Y153510I-1626J1626D01*
G01X164744Y151884D02*
X160839Y147979D01*
X159213Y147305D02*
G03X160839Y147979I-0J2300D01*
G01X159213Y147305D02*
X148192D01*
G03X147740Y147018I0J-500*
G01X146961Y146222D02*
G03X147740Y147018I-759J1521D01*
G01X146961Y146222D02*
G03Y145327I223J-448D01*
G01X147751Y144506D02*
G03X146961Y145327I-1549J-700D01*
G01X147751Y144506D02*
G03X148207Y144212I456J206D01*
G01X149030*
G03X149272Y144275I-0J500*
G01Y139549D02*
G03Y144275I1307J2363D01*
G01Y139549D02*
G03X149030Y139612I-242J-437D01*
G01X148268*
G03X147798Y139284I-0J-500*
G01X146961Y138348D02*
G03X147798Y139284I-759J1521D01*
G01X146961Y138348D02*
G03Y137453I223J-448D01*
G01X147776Y136574D02*
G03X146961Y137453I-1574J-642D01*
G01X147776Y136574D02*
G03X148239Y136263I463J189D01*
G01X148627*
G03X148675Y136266I0J500*
G01X148894Y136276D02*
G03X148675Y136266I-0J-2300D01*
G01X148894Y136276D02*
X151024D01*
G03X151266Y136339I-0J500*
G01Y131613D02*
G03Y136339I1307J2363D01*
G01Y131613D02*
G03X151024Y131676I-242J-437D01*
G01X149148*
G03X149100Y131674I0J-500*
G01X148881Y131663D02*
G03X149100Y131674I0J2300D01*
G01X148881Y131663D02*
X148239D01*
G03X147776Y131352I-0J-500*
G01X146202Y130295D02*
G03X147776Y131352I0J1700D01*
G01X146202Y130295D02*
X134391D01*
X132691Y131995D02*
G03X134391Y130295I1700J-0D01*
G01X132691Y131995D02*
Y135932D01*
X133632Y137453D02*
G03X132691Y135932I759J-1521D01*
G01X133632Y137453D02*
G03Y138348I-223J447D01*
G01X132691Y139869D02*
G03X133632Y138348I1700J-0D01*
G01X132691Y139869D02*
Y143806D01*
X133632Y145327D02*
G03X132691Y143806I759J-1521D01*
G01X133632Y145327D02*
G03Y146222I-223J447D01*
G01X132691Y147743D02*
G03X133632Y146222I1700J-0D01*
G01X132691Y147743D02*
Y151680D01*
X133632Y153201D02*
G03X132691Y151680I759J-1521D01*
G01X133632Y153201D02*
G03Y154096I-223J447D01*
G01X132691Y155617D02*
G03X133632Y154096I1700J-0D01*
G01X132691Y155617D02*
Y159554D01*
X133632Y161075D02*
G03X132691Y159554I759J-1521D01*
G01X133632Y161075D02*
G03Y161970I-223J447D01*
G01X132764Y162998D02*
G03X133632Y161970I1627J493D01*
G01X132764Y162998D02*
G03X132285Y163354I-479J-144D01*
G01X129209*
G03X128709Y162854I0J-500*
G01Y161717*
X127009Y160017D02*
G03X128709Y161717I0J1700D01*
G01X127009Y160017D02*
X122285D01*
X120585Y161717D02*
G03X122285Y160017I1700J-0D01*
G01X120585Y161717D02*
Y169591D01*
X121946Y171257D02*
G03X120585Y169591I339J-1666D01*
G01X121946Y171257D02*
G03X122347Y171747I-99J490D01*
G01Y175007*
G03X122201Y175361I-500J0*
G01X121755Y175806*
G03X121402Y175952I-353J-354*
G01X119382*
X118408Y176258D02*
G03X119382Y175952I974J1394D01*
G01X118408Y176258D02*
G03X117836I-286J-410D01*
G01X116863Y175952D02*
G03X117836Y176258I-0J1700D01*
G01X116863Y175952D02*
X113083D01*
X111383Y177652D02*
G03X113083Y175952I1700J0D01*
G01X111383Y177652D02*
Y180802D01*
X113083Y182502D02*
G03X111383Y180802I-0J-1700D01*
G01X113083Y182502D02*
X116863D01*
X117836Y182196D02*
G03X116863Y182502I-973J-1394D01*
G01X117836Y182196D02*
G03X118408I286J410D01*
G01X119382Y182502D02*
G03X118408Y182196I-0J-1700D01*
G01X119382Y182502D02*
X123162D01*
X124748Y181413D02*
G03X123162Y182502I-1586J-611D01*
G01X124748Y181413D02*
G03X125714Y181593I466J180D01*
G01Y183793*
G03X125568Y184147I-500J-0*
G01X125145Y184569*
G03X124441Y184572I-353J-353*
G01X123248Y184084D02*
G03X124441Y184572I0J1700D01*
G01X123248Y184084D02*
X119448D01*
X118482Y184385D02*
G03X119448Y184084I966J1399D01*
G01X118482Y184385D02*
G03X117914I-284J-412D01*
G01X116948Y184084D02*
G03X117914Y184385I0J1700D01*
G01X116948Y184084D02*
X113148D01*
X111597Y185088D02*
G03X113148Y184084I1551J696D01*
G01X111597Y185088D02*
G03X111141Y185384I-456J-204D01*
G01X109046*
X107420Y186057D02*
G03X109046Y185384I1626J1627D01*
G01X107420Y186057D02*
X104813Y188664D01*
X104140Y190290D02*
G03X104813Y188664I2300J0D01*
G01X104140Y190290D02*
Y201341D01*
X104813Y202968D02*
G03X104140Y201341I1627J-1627D01*
G01X104813Y202968D02*
X106956Y205111D01*
X108583Y205784D02*
G03X106956Y205111I-0J-2300D01*
G01X108583Y205784D02*
X121890D01*
G03X122244Y205931I0J500*
G01X122278Y205965*
G03X122424Y206319I-354J354*
G01Y209599*
G03X122423Y209633I-500J0*
G01X122418Y209791D02*
G03X122423Y209633I2300J-0D01*
G01X122418Y209791D02*
Y213034D01*
G03X122190Y213454I-500J-0*
G01X120203Y216235D02*
G03X122190Y213454I4515J1125D01*
G01X120203Y216235D02*
G03X119233I-485J-121D01*
G01Y218484D02*
G03Y216235I-4515J-1124D01*
G01Y218484D02*
G03X120203I485J121D01*
G01X127246Y213454D02*
G03X120203Y218484I-2528J3906D01*
G01X127246Y213454D02*
G03X127018Y213034I272J-420D01*
G01Y209976*
G03X127019Y209942I500J-0*
G01X127024Y209784D02*
G03X127019Y209942I-2300J0D01*
G01X127024Y209784D02*
Y205159D01*
X126351Y203532D02*
G03X127024Y205159I-1627J1627D01*
G01X126351Y203532D02*
X124676Y201858D01*
X123050Y201184D02*
G03X124676Y201858I-0J2300D01*
G01X123050Y201184D02*
X109742D01*
G03X109389Y201038I0J-500*
G01X108886Y200535*
G03X108740Y200181I354J-354*
G01Y191450*
G03X108886Y191096I500J-0*
G01X109852Y190130*
G03X110206Y189984I354J354*
G01X111141*
G03X111597Y190279I-0J500*
G01X113148Y191284D02*
G03X111597Y190279I0J-1700D01*
G01X113148Y191284D02*
X116948D01*
X117914Y190983D02*
G03X116948Y191284I-966J-1399D01*
G01X117914Y190983D02*
G03X118482I284J411D01*
G01X119448Y191284D02*
G03X118482Y190983I0J-1700D01*
G01X119448Y191284D02*
X123248D01*
X124799Y190279D02*
G03X123248Y191284I-1551J-695D01*
G01X124799Y190279D02*
G03X125256Y189984I457J205D01*
G01X125283*
X126910Y189310D02*
G03X125283Y189984I-1627J-1626D01*
G01X126910Y189310D02*
X127719Y188501D01*
G03X128573Y188854I354J353*
G01Y190702*
G03X128426Y191056I-500J0*
G01X125487Y193995*
G03X124689Y193870I-354J-353*
G01X123176Y192946D02*
G03X124689Y193870I-0J1700D01*
G01X123176Y192946D02*
X119376D01*
X118410Y193247D02*
G03X119376Y192946I966J1399D01*
G01X118410Y193247D02*
G03X117842I-284J-411D01*
G01X116876Y192946D02*
G03X117842Y193247I-0J1700D01*
G01X116876Y192946D02*
X113076D01*
X111376Y194646D02*
G03X113076Y192946I1700J-0D01*
G01X111376Y194646D02*
Y198446D01*
X113076Y200146D02*
G03X111376Y198446I-0J-1700D01*
G01X113076Y200146D02*
X116876D01*
X117842Y199845D02*
G03X116876Y200146I-966J-1399D01*
G01X117842Y199845D02*
G03X118410I284J411D01*
G01X119376Y200146D02*
G03X118410Y199845I-0J-1700D01*
G01X119376Y200146D02*
X123176D01*
X124727Y199141D02*
G03X123176Y200146I-1551J-695D01*
G01X124727Y199141D02*
G03X125183Y198846I456J205D01*
G01X126189*
X127815Y198172D02*
G03X126189Y198846I-1626J-1626D01*
G01X127815Y198172D02*
X132499Y193489D01*
X132965Y192817D02*
G03X132499Y193489I-2092J-955D01*
G01X132965Y192817D02*
G03X133641Y192575I455J207D01*
G01X134391Y192750D02*
G03X133641Y192575I0J-1700D01*
G01X134391Y192750D02*
X146202D01*
X147902Y191050D02*
G03X146202Y192750I-1700J-0D01*
G01X147902Y191050D02*
Y187113D01*
X146961Y185592D02*
G03X147902Y187113I-759J1521D01*
G01X146961Y185592D02*
G03Y184697I223J-448D01*
G01X147902Y183176D02*
G03X146961Y184697I-1700J-0D01*
G01X147902Y183176D02*
Y179239D01*
X146961Y177718D02*
G03X147902Y179239I-759J1521D01*
G01X146961Y177718D02*
G03Y176823I223J-448D01*
G01X147902Y175302D02*
G03X146961Y176823I-1700J-0D01*
G01X147902Y175302D02*
Y171365D01*
X146961Y169844D02*
G03X147902Y171365I-759J1521D01*
G01X146961Y169844D02*
G03Y168949I223J-448D01*
G01X147902Y167428D02*
G03X146961Y168949I-1700J-0D01*
G01X147902Y167428D02*
Y163491D01*
X146961Y161970D02*
G03X147902Y163491I-759J1521D01*
G01X146961Y161970D02*
G03Y161075I223J-448D01*
G01X147804Y160124D02*
G03X146961Y161075I-1602J-570D01*
G01X147804Y160124D02*
G03X148514Y159853I471J168D01*
G01X148499Y155119D02*
G03X148514Y159853I1307J2363D01*
G01X148499Y155119D02*
G03X148257Y155182I-242J-437D01*
G01X148194*
G03X147741Y154894I-0J-500*
G01X146961Y154096D02*
G03X147741Y154894I-759J1521D01*
G01X146961Y154096D02*
G03Y153201I223J-448D01*
G01X147807Y152240D02*
G03X146961Y153201I-1605J-560D01*
G01X147807Y152240D02*
G03X148279Y151905I472J165D01*
G01X158053*
G03X158406Y152051I-0J500*
G01X160672Y154317*
G03X160818Y154670I-354J353*
G01Y169603*
G03X160755Y169845I-500J-0*
G01X276246Y107984D02*
G03Y110234I4515J1125D01*
G01Y107984D02*
G03X275276I-485J-121D01*
G01X266246D02*
G03X275276I4515J1125D01*
G01X266246D02*
G03X265276I-485J-121D01*
G01X258233Y113015D02*
G03X265276Y107984I2528J-3906D01*
G01X258233Y113015D02*
G03X258461Y113435I-272J420D01*
G01Y117717*
X258486Y118054D02*
G03X258461Y117717I2275J-337D01*
G01X258486Y118054D02*
G03X258491Y118127I-495J73D01*
G01Y120805*
G03X258196Y121261I-500J-0*
G01X257191Y122812D02*
G03X258196Y121261I1700J0D01*
G01X257191Y122812D02*
Y126612D01*
X257492Y127578D02*
G03X257191Y126612I1399J-966D01*
G01X257492Y127578D02*
G03Y128146I-411J284D01*
G01X257191Y129112D02*
G03X257492Y128146I1700J0D01*
G01X257191Y129112D02*
Y132912D01*
X258196Y134463D02*
G03X257191Y132912I695J-1551D01*
G01X258196Y134463D02*
G03X258491Y134920I-205J457D01*
G01Y136917*
X258494Y137034D02*
G03X258491Y136917I2297J-117D01*
G01X258494Y137034D02*
G03X258495Y137060I-499J26D01*
G01Y140376*
G03X258432Y140618I-500J-0*
G01X263158D02*
G03X258432I-2363J1307D01*
G01X263158D02*
G03X263095Y140376I437J-242D01*
G01Y136920*
X263092Y136803D02*
G03X263095Y136920I-2297J117D01*
G01X263092Y136803D02*
G03X263091Y136777I499J-26D01*
G01Y134920*
G03X263387Y134463I500J-0*
G01X264391Y132912D02*
G03X263387Y134463I-1700J0D01*
G01X264391Y132912D02*
Y129112D01*
X264090Y128146D02*
G03X264391Y129112I-1399J966D01*
G01X264090Y128146D02*
G03Y127578I412J-284D01*
G01X264391Y126612D02*
G03X264090Y127578I-1700J0D01*
G01X264391Y126612D02*
Y122812D01*
X263387Y121261D02*
G03X264391Y122812I-696J1551D01*
G01X263387Y121261D02*
G03X263091Y120805I204J-456D01*
G01Y117747*
X263067Y117411D02*
G03X263091Y117747I-2276J336D01*
G01X263067Y117411D02*
G03X263061Y117337I494J-74D01*
G01Y113435*
G03X263289Y113015I500J-0*
G01X265276Y110234D02*
G03X263289Y113015I-4515J-1125D01*
G01X265276Y110234D02*
G03X266246I485J120D01*
G01X268233Y113015D02*
G03X266246Y110234I2528J-3906D01*
G01X268233Y113015D02*
G03X268461Y113435I-272J420D01*
G01Y117745*
X268463Y117844D02*
G03X268461Y117745I2298J-99D01*
G01X268463Y117844D02*
G03X268464Y117866I-499J22D01*
G01Y120691*
G03X268168Y121147I-500J-0*
G01X267164Y122698D02*
G03X268168Y121147I1700J0D01*
G01X267164Y122698D02*
Y126498D01*
X267465Y127464D02*
G03X267164Y126498I1399J-966D01*
G01X267465Y127464D02*
G03Y128032I-412J284D01*
G01X267164Y128998D02*
G03X267465Y128032I1700J0D01*
G01X267164Y128998D02*
Y132798D01*
X268139Y134336D02*
G03X267164Y132798I725J-1538D01*
G01X268139Y134336D02*
G03X268426Y134788I-213J452D01*
G01Y135442*
G03X268363Y135684I-500J-0*
G01X273089D02*
G03X268363I-2363J1307D01*
G01X273089D02*
G03X273026Y135442I437J-242D01*
G01Y134822*
G03X273330Y134362I500J0*
G01X274364Y132798D02*
G03X273330Y134362I-1700J0D01*
G01X274364Y132798D02*
Y128998D01*
X274063Y128032D02*
G03X274364Y128998I-1399J966D01*
G01X274063Y128032D02*
G03Y127464I411J-284D01*
G01X274364Y126498D02*
G03X274063Y127464I-1700J0D01*
G01X274364Y126498D02*
Y122698D01*
X273359Y121147D02*
G03X274364Y122698I-695J1551D01*
G01X273359Y121147D02*
G03X273064Y120691I205J-456D01*
G01Y117747*
X273062Y117648D02*
G03X273064Y117747I-2298J99D01*
G01X273062Y117648D02*
G03X273061Y117626I499J-22D01*
G01Y113435*
G03X273289Y113015I500J-0*
G01X275276Y110234D02*
G03X273289Y113015I-4515J-1125D01*
G01X275276Y110234D02*
G03X276246I485J120D01*
G01X323759Y150902D02*
Y147752D01*
X322059Y146052D02*
G03X323759Y147752I0J1700D01*
G01X322059Y146052D02*
X312217D01*
X310517Y147752D02*
G03X312217Y146052I1700J-0D01*
G01X310517Y147752D02*
Y150902D01*
X312217Y152602D02*
G03X310517Y150902I-0J-1700D01*
G01X312217Y152602D02*
X322059D01*
X323759Y150902D02*
G03X322059Y152602I-1700J-0D01*
G01X329907Y241583D02*
X331183D01*
X329072Y240683D02*
X331183D01*
X327969Y239783D02*
X331183D01*
X326376Y238883D02*
X331183D01*
X305598Y237983D02*
X331183D01*
X305598Y237083D02*
X331183D01*
X305598Y236183D02*
X331183D01*
X305598Y235283D02*
X331183D01*
X305598Y234383D02*
X331183D01*
X305598Y233483D02*
X331183D01*
X305598Y232583D02*
X331183D01*
X305598Y231683D02*
X331183D01*
X305598Y230783D02*
X331183D01*
X305598Y229883D02*
X331183D01*
X305598Y228983D02*
X331183D01*
X305598Y228083D02*
X331183D01*
X305598Y227183D02*
X331183D01*
X305598Y226283D02*
X331183D01*
X305598Y225383D02*
X331183D01*
X305598Y224483D02*
X331183D01*
X305598Y223583D02*
X331183D01*
X305598Y222683D02*
X331183D01*
X305598Y221783D02*
X331183D01*
X305598Y220883D02*
X331183D01*
X305598Y219983D02*
X331183D01*
X305598Y219083D02*
X331183D01*
X305598Y218183D02*
X331183D01*
X305598Y217283D02*
X331183D01*
X305598Y216383D02*
X331183D01*
X305598Y215483D02*
X331183D01*
X305598Y214583D02*
X331183D01*
X305598Y213683D02*
X331183D01*
X305598Y212783D02*
X331183D01*
X305598Y211883D02*
X331183D01*
X305598Y210983D02*
X331183D01*
X305598Y210083D02*
X331183D01*
X305598Y209183D02*
X331183D01*
X305598Y208283D02*
X331183D01*
X305598Y207383D02*
X331183D01*
X305598Y206483D02*
X331183D01*
X305598Y205583D02*
X331183D01*
X305598Y204683D02*
X331183D01*
X305598Y203783D02*
X331183D01*
X305598Y202883D02*
X331183D01*
X312197Y140783D02*
X331183D01*
X312197Y139883D02*
X331183D01*
X312197Y138983D02*
X331183D01*
X312197Y138083D02*
X331183D01*
X312197Y137183D02*
X331183D01*
X310231Y136283D02*
X331183D01*
X280765Y135383D02*
X331183D01*
X273159Y134483D02*
X331183D01*
X274172Y133583D02*
X331183D01*
X322920Y132683D02*
X331183D01*
X323662Y131783D02*
X331183D01*
X323759Y130883D02*
X331183D01*
X323759Y129983D02*
X331183D01*
X323759Y129083D02*
X331183D01*
X323759Y128183D02*
X331183D01*
X323567Y127283D02*
X331183D01*
X322290Y126383D02*
X331183D01*
X274364Y125483D02*
X331183D01*
X274364Y124583D02*
X331183D01*
X274364Y123683D02*
X331183D01*
X274364Y122783D02*
X331183D01*
X274156Y121883D02*
X331183D01*
X273158Y120983D02*
X331183D01*
X273064Y120083D02*
X331183D01*
X324551Y119183D02*
X331183D01*
X326988Y118283D02*
X331183D01*
X328374Y117383D02*
X331183D01*
X329373Y116483D02*
X331183D01*
X330140Y115583D02*
X331172D01*
X305624Y201983D02*
X331157D01*
X273064Y119183D02*
X320417D01*
X305591Y238883D02*
X318592D01*
X273064Y118283D02*
X317979D01*
X115177Y255983D02*
X317193D01*
X305320Y239783D02*
X316999D01*
X205225Y101183D02*
X316956D01*
X205000Y102083D02*
X316865D01*
X273061Y117383D02*
X316594D01*
X115895Y255083D02*
X316474D01*
X304377Y240683D02*
X315896D01*
X205000Y102983D02*
X315797D01*
X273061Y116483D02*
X315595D01*
X156734Y254183D02*
X315504D01*
X243241Y241583D02*
X315061D01*
X205000Y103883D02*
X314985D01*
X273061Y115583D02*
X314828D01*
X157667Y253283D02*
X314757D01*
X243241Y242483D02*
X314411D01*
X282473Y104783D02*
X314351D01*
X273061Y114683D02*
X314228D01*
X158567Y252383D02*
X314173D01*
X243241Y243383D02*
X313903D01*
X283909Y105683D02*
X313857D01*
X273061Y113783D02*
X313762D01*
X236429Y251483D02*
X313719D01*
X243105Y244283D02*
X313514D01*
X284668Y106583D02*
X313479D01*
X283483Y112883D02*
X313408D01*
X237343Y250583D02*
X313377D01*
X242671Y245183D02*
X313228D01*
X285120Y107483D02*
X313203D01*
X284420Y111983D02*
X313154D01*
X238243Y249683D02*
X313133D01*
X241843Y246083D02*
X313036D01*
X285357Y108383D02*
X313021D01*
X284975Y111083D02*
X312992D01*
X239143Y248783D02*
X312980D01*
X240943Y246983D02*
X312932D01*
X285411Y109283D02*
X312926D01*
X285288Y110183D02*
X312916D01*
X240043Y247883D02*
X312913D01*
X274364Y126383D02*
X311986D01*
X274364Y132683D02*
X311356D01*
X274172Y127283D02*
X310708D01*
X274364Y131783D02*
X310614D01*
X274364Y130883D02*
X310517D01*
X274364Y129983D02*
X310517D01*
X274364Y129083D02*
X310517D01*
X274156Y128183D02*
X310517D01*
X290104Y136283D02*
X294840D01*
X286196Y240683D02*
X294836D01*
X286913Y239783D02*
X293893D01*
X287094Y238883D02*
X293622D01*
X287094Y237983D02*
X293615D01*
X287094Y237083D02*
X293615D01*
X287094Y236183D02*
X293615D01*
X287094Y235283D02*
X293615D01*
X287094Y234383D02*
X293615D01*
X287094Y233483D02*
X293615D01*
X287094Y232583D02*
X293615D01*
X287094Y231683D02*
X293615D01*
X287094Y230783D02*
X293615D01*
X287094Y229883D02*
X293615D01*
X287094Y228983D02*
X293615D01*
X287094Y228083D02*
X293615D01*
X287094Y227183D02*
X293615D01*
X287094Y226283D02*
X293615D01*
X287094Y225383D02*
X293615D01*
X287094Y224483D02*
X293615D01*
X287094Y223583D02*
X293615D01*
X287094Y222683D02*
X293615D01*
X287236Y221783D02*
X293615D01*
X288136Y220883D02*
X293615D01*
X289036Y219983D02*
X293615D01*
X289936Y219083D02*
X293615D01*
X290836Y218183D02*
X293615D01*
X291736Y217283D02*
X293615D01*
X292636Y216383D02*
X293560D01*
X290720Y137183D02*
X293360D01*
X290926Y138083D02*
X292984D01*
X291651Y153383D02*
X292951D01*
X290954Y152483D02*
X292951D01*
X291508Y151583D02*
X292951D01*
X291674Y150683D02*
X292951D01*
X291674Y149783D02*
X292951D01*
X291674Y148883D02*
X292951D01*
X291674Y147983D02*
X292951D01*
X291674Y147083D02*
X292951D01*
X291435Y146183D02*
X292951D01*
X291508Y145283D02*
X292951D01*
X291674Y144383D02*
X292951D01*
X291674Y143483D02*
X292951D01*
X291674Y142583D02*
X292951D01*
X291674Y141683D02*
X292951D01*
X291674Y140783D02*
X292951D01*
X291435Y139883D02*
X292951D01*
X290832Y138983D02*
X292951D01*
X281556Y156983D02*
X288746D01*
X288263Y157883D02*
X288674D01*
X281556Y156083D02*
X287846D01*
X281556Y155183D02*
X286946D01*
X281598Y136283D02*
X286356D01*
X281556Y154283D02*
X286127D01*
X281556Y153383D02*
X285797D01*
X281916Y137183D02*
X285740D01*
X281563Y152483D02*
X285604D01*
X282006Y138983D02*
X285567D01*
X281911Y138083D02*
X285534D01*
X281556Y157883D02*
X285115D01*
X282756Y146183D02*
X284712D01*
X282756Y139883D02*
X284712D01*
X282512Y151583D02*
X284639D01*
X282520Y145283D02*
X284639D01*
X282851Y150683D02*
X284473D01*
X282856Y149783D02*
X284473D01*
X282856Y148883D02*
X284473D01*
X282856Y147983D02*
X284473D01*
X282856Y147083D02*
X284473D01*
X282851Y144383D02*
X284473D01*
X282856Y143483D02*
X284473D01*
X282856Y142583D02*
X284473D01*
X282856Y141683D02*
X284473D01*
X282856Y140783D02*
X284473D01*
X281556Y158783D02*
X283984D01*
X281556Y159683D02*
X283808D01*
X281657Y160583D02*
X283707D01*
X267065Y209183D02*
X282906D01*
X267065Y208283D02*
X282906D01*
X267065Y207383D02*
X282906D01*
X267962Y206483D02*
X282906D01*
X268866Y205583D02*
X282906D01*
X269002Y204683D02*
X282906D01*
X269002Y203783D02*
X282906D01*
X269002Y202883D02*
X282906D01*
X269050Y201983D02*
X282880D01*
X267065Y210083D02*
X282749D01*
X267065Y210983D02*
X281849D01*
X267065Y211883D02*
X280949D01*
X267065Y212783D02*
X280049D01*
X266961Y213683D02*
X279149D01*
X272473Y104783D02*
X279049D01*
X266614Y214583D02*
X278249D01*
X273483Y112883D02*
X278040D01*
X273026Y135383D02*
X277737D01*
X273909Y105683D02*
X277613D01*
X265927Y215483D02*
X277349D01*
X274420Y111983D02*
X277102D01*
X263313Y159683D02*
X276956D01*
X263313Y158783D02*
X276956D01*
X263313Y157883D02*
X276956D01*
X263252Y156983D02*
X276956D01*
X262645Y156083D02*
X276956D01*
X262255Y155183D02*
X276956D01*
X263118Y154283D02*
X276956D01*
X263274Y153383D02*
X276956D01*
X263274Y152483D02*
X276949D01*
X263313Y160583D02*
X276926D01*
X273331Y136283D02*
X276904D01*
X274668Y106583D02*
X276854D01*
X273195Y138083D02*
X276591D01*
X273419Y137183D02*
X276586D01*
X274975Y111083D02*
X276548D01*
X272549Y138983D02*
X276505D01*
X265027Y216383D02*
X276449D01*
X275120Y107483D02*
X276402D01*
X275292Y110183D02*
X276231D01*
X263274Y151583D02*
X275999D01*
X256585Y145283D02*
X275992D01*
X256585Y146183D02*
X275756D01*
X263095Y139883D02*
X275756D01*
X263274Y150683D02*
X275660D01*
X261913Y144383D02*
X275660D01*
X263148Y149783D02*
X275656D01*
X262294Y148883D02*
X275656D01*
X256629Y147983D02*
X275656D01*
X256585Y147083D02*
X275656D01*
X263000Y143483D02*
X275656D01*
X263414Y142583D02*
X275656D01*
X263484Y141683D02*
X275656D01*
X263241Y140783D02*
X275656D01*
X264127Y217283D02*
X275549D01*
X269908Y201083D02*
X275156D01*
X257015Y166883D02*
X275061D01*
X243241Y240683D02*
X274985D01*
X263741Y218183D02*
X274653D01*
X270808Y200183D02*
X274561D01*
X257015Y165983D02*
X274521D01*
X271708Y199283D02*
X274433D01*
X272608Y198383D02*
X274433D01*
X273508Y197483D02*
X274345D01*
X261936Y239783D02*
X274268D01*
X263741Y219083D02*
X274163D01*
X263444Y238883D02*
X274087D01*
X264278Y237983D02*
X274087D01*
X264805Y237083D02*
X274087D01*
X265123Y236183D02*
X274087D01*
X265270Y235283D02*
X274087D01*
X265259Y234383D02*
X274087D01*
X265091Y233483D02*
X274087D01*
X264747Y232583D02*
X274087D01*
X264186Y231683D02*
X274087D01*
X263741Y230783D02*
X274087D01*
X263741Y229883D02*
X274087D01*
X263741Y228983D02*
X274087D01*
X263741Y228083D02*
X274087D01*
X263741Y227183D02*
X274087D01*
X263741Y226283D02*
X274087D01*
X263741Y225383D02*
X274087D01*
X263741Y224483D02*
X274087D01*
X263741Y223583D02*
X274087D01*
X263741Y222683D02*
X274087D01*
X263741Y221783D02*
X274087D01*
X263741Y220883D02*
X274087D01*
X263741Y219983D02*
X274087D01*
X263055Y161483D02*
X273154D01*
X257015Y165083D02*
X273080D01*
X257186Y162383D02*
X272598D01*
X257015Y164183D02*
X272569D01*
X257015Y163283D02*
X272429D01*
X257015Y167783D02*
X269352D01*
X266969Y173183D02*
X269061D01*
X262473Y104783D02*
X269049D01*
X266366Y168683D02*
X268979D01*
X267403Y172283D02*
X268971D01*
X267422Y171383D02*
X268971D01*
X267422Y170483D02*
X268971D01*
X267283Y169583D02*
X268971D01*
X263095Y138983D02*
X268903D01*
X266517Y174083D02*
X268596D01*
X263091Y120083D02*
X268464D01*
X263091Y119183D02*
X268464D01*
X263091Y118283D02*
X268464D01*
X263063Y117383D02*
X268461D01*
X263061Y116483D02*
X268461D01*
X263061Y115583D02*
X268461D01*
X263061Y114683D02*
X268461D01*
X263061Y113783D02*
X268461D01*
X263091Y135383D02*
X268426D01*
X263124Y120983D02*
X268370D01*
X263348Y134483D02*
X268322D01*
X263095Y138083D02*
X268257D01*
X263091Y136283D02*
X268121D01*
X263483Y112883D02*
X268040D01*
X263095Y137183D02*
X268033D01*
X263909Y105683D02*
X267613D01*
X249319Y189383D02*
X267545D01*
X266611Y188483D02*
X267420D01*
X248419Y190283D02*
X267414D01*
X264115Y128183D02*
X267372D01*
X264115Y121883D02*
X267372D01*
X264254Y133583D02*
X267356D01*
X264254Y127283D02*
X267356D01*
X264391Y132683D02*
X267164D01*
X264391Y131783D02*
X267164D01*
X264391Y130883D02*
X267164D01*
X264391Y129983D02*
X267164D01*
X264391Y129083D02*
X267164D01*
X264391Y126383D02*
X267164D01*
X264391Y125483D02*
X267164D01*
X264391Y124583D02*
X267164D01*
X264391Y123683D02*
X267164D01*
X264391Y122783D02*
X267164D01*
X264420Y111983D02*
X267102D01*
X264668Y106583D02*
X266854D01*
X264975Y111083D02*
X266548D01*
X247519Y191183D02*
X266514D01*
X265120Y107483D02*
X266402D01*
X265292Y110183D02*
X266231D01*
X246055Y192083D02*
X265614D01*
X235686Y192983D02*
X264714D01*
X235686Y193883D02*
X263814D01*
X235686Y194783D02*
X262914D01*
X257015Y168683D02*
X260353D01*
X256585Y144383D02*
X259677D01*
X252317Y210983D02*
X259665D01*
X252317Y210083D02*
X259665D01*
X252317Y209183D02*
X259665D01*
X252317Y208283D02*
X259665D01*
X252317Y207383D02*
X259665D01*
X257015Y169583D02*
X259436D01*
X257066Y170483D02*
X259297D01*
X252317Y211883D02*
X259062D01*
X205000Y104783D02*
X259049D01*
X252375Y206483D02*
X258768D01*
X256585Y143483D02*
X258590D01*
X254955Y139883D02*
X258495D01*
X254055Y138983D02*
X258495D01*
X253155Y138083D02*
X258495D01*
X252261Y137183D02*
X258495D01*
X252155Y136283D02*
X258491D01*
X252155Y135383D02*
X258491D01*
X252155Y120083D02*
X258491D01*
X252155Y119183D02*
X258491D01*
X252155Y118283D02*
X258491D01*
X252155Y117383D02*
X258461D01*
X252155Y116483D02*
X258461D01*
X252066Y115583D02*
X258461D01*
X251696Y114683D02*
X258461D01*
X250929Y113783D02*
X258461D01*
X252155Y120983D02*
X258459D01*
X252575Y195683D02*
X258407D01*
X255838Y140783D02*
X258349D01*
X252155Y134483D02*
X258234D01*
X256574Y142583D02*
X258176D01*
X252242Y212783D02*
X258162D01*
X243241Y239783D02*
X258146D01*
X256369Y141683D02*
X258106D01*
X250029Y112883D02*
X258040D01*
X253118Y205583D02*
X257864D01*
X253191Y196583D02*
X257791D01*
X253254Y204683D02*
X257728D01*
X253254Y203783D02*
X257728D01*
X253254Y202883D02*
X257728D01*
X253254Y201983D02*
X257728D01*
X253254Y201083D02*
X257728D01*
X253254Y200183D02*
X257728D01*
X253254Y199283D02*
X257728D01*
X253254Y198383D02*
X257728D01*
X253254Y197483D02*
X257728D01*
X205000Y105683D02*
X257613D01*
X252155Y128183D02*
X257468D01*
X252155Y121883D02*
X257468D01*
X252155Y133583D02*
X257329D01*
X252155Y127283D02*
X257329D01*
X251986Y213683D02*
X257271D01*
X252155Y129083D02*
X257192D01*
X252155Y122783D02*
X257192D01*
X252155Y132683D02*
X257191D01*
X252155Y131783D02*
X257191D01*
X252155Y130883D02*
X257191D01*
X252155Y129983D02*
X257191D01*
X252155Y126383D02*
X257191D01*
X252155Y125483D02*
X257191D01*
X252155Y124583D02*
X257191D01*
X252155Y123683D02*
X257191D01*
X249129Y111983D02*
X257102D01*
X205000Y106583D02*
X256854D01*
X251510Y214583D02*
X256683D01*
X243444Y238883D02*
X256638D01*
X248229Y111083D02*
X256548D01*
X205000Y107483D02*
X256402D01*
X250731Y215483D02*
X256399D01*
X243295Y230783D02*
X256341D01*
X241584Y229883D02*
X256341D01*
X224741Y228983D02*
X256341D01*
X224741Y228083D02*
X256341D01*
X224741Y227183D02*
X256341D01*
X224741Y226283D02*
X256341D01*
X224741Y225383D02*
X256341D01*
X224741Y224483D02*
X256341D01*
X224741Y223583D02*
X256341D01*
X224979Y222683D02*
X256341D01*
X244243Y221783D02*
X256341D01*
X245331Y220883D02*
X256341D01*
X246231Y219983D02*
X256341D01*
X247131Y219083D02*
X256341D01*
X248031Y218183D02*
X256341D01*
X248931Y217283D02*
X256341D01*
X249831Y216383D02*
X256341D01*
X246752Y110183D02*
X256234D01*
X205000Y108383D02*
X256165D01*
X205000Y109283D02*
X256112D01*
X244186Y231683D02*
X255896D01*
X244278Y237983D02*
X255804D01*
X244747Y232583D02*
X255334D01*
X244805Y237083D02*
X255276D01*
X245091Y233483D02*
X254991D01*
X245123Y236183D02*
X254958D01*
X245259Y234383D02*
X254822D01*
X245270Y235283D02*
X254812D01*
X238288Y148883D02*
X247266D01*
X237309Y160583D02*
X247237D01*
X210889Y159683D02*
X247237D01*
X210894Y158783D02*
X247237D01*
X210894Y157883D02*
X247237D01*
X210894Y156983D02*
X247237D01*
X210894Y156083D02*
X247237D01*
X210838Y155183D02*
X247237D01*
X210248Y154283D02*
X247237D01*
X209753Y153383D02*
X247237D01*
X210693Y152483D02*
X247237D01*
X220037Y151583D02*
X247237D01*
X220982Y150683D02*
X247237D01*
X221882Y149783D02*
X247237D01*
X238464Y161483D02*
X245004D01*
X238644Y162383D02*
X243845D01*
X238644Y163283D02*
X243516D01*
X235686Y184883D02*
X243497D01*
X235686Y183983D02*
X243497D01*
X235892Y183083D02*
X243497D01*
X235986Y182183D02*
X243497D01*
X235986Y181283D02*
X243497D01*
X235986Y180383D02*
X243497D01*
X235986Y179483D02*
X243497D01*
X235986Y178583D02*
X243497D01*
X235986Y177683D02*
X243497D01*
X235814Y176783D02*
X243497D01*
X235416Y175883D02*
X243497D01*
X239283Y174983D02*
X243497D01*
X239716Y174083D02*
X243497D01*
X239736Y173183D02*
X243497D01*
X239736Y172283D02*
X243497D01*
X239736Y171383D02*
X243497D01*
X239736Y170483D02*
X243497D01*
X239608Y169583D02*
X243497D01*
X238745Y168683D02*
X243497D01*
X237457Y167783D02*
X243497D01*
X238422Y166883D02*
X243497D01*
X238644Y165983D02*
X243497D01*
X238644Y165083D02*
X243497D01*
X238644Y164183D02*
X243497D01*
X242285Y185783D02*
X243154D01*
X214011Y209183D02*
X242917D01*
X214011Y208283D02*
X242917D01*
X214011Y207383D02*
X242917D01*
X214413Y206483D02*
X242858D01*
X214011Y210083D02*
X242827D01*
X235686Y195683D02*
X242659D01*
X231246Y205583D02*
X242116D01*
X235686Y196583D02*
X242043D01*
X232147Y204683D02*
X241980D01*
X233047Y203783D02*
X241980D01*
X233947Y202883D02*
X241980D01*
X234843Y201983D02*
X241980D01*
X235425Y201083D02*
X241980D01*
X235665Y200183D02*
X241980D01*
X235686Y199283D02*
X241980D01*
X235686Y198383D02*
X241980D01*
X235686Y197483D02*
X241980D01*
X214011Y210983D02*
X241937D01*
X214011Y211883D02*
X241037D01*
X214011Y212783D02*
X240137D01*
X235686Y185783D02*
X238642D01*
X224741Y229883D02*
X238497D01*
X235686Y192083D02*
X238397D01*
X235686Y186683D02*
X237577D01*
X235686Y191183D02*
X237462D01*
X235686Y187583D02*
X237041D01*
X235686Y190283D02*
X236981D01*
X214011Y241583D02*
X236841D01*
X214011Y240683D02*
X236841D01*
X221936Y239783D02*
X236841D01*
X235686Y188483D02*
X236792D01*
X224741Y230783D02*
X236786D01*
X235686Y189383D02*
X236774D01*
X223444Y238883D02*
X236638D01*
X214012Y242483D02*
X236392D01*
X224741Y231683D02*
X235896D01*
X224278Y237983D02*
X235804D01*
X214727Y243383D02*
X235492D01*
X224757Y232583D02*
X235334D01*
X224805Y237083D02*
X235276D01*
X225091Y233483D02*
X234991D01*
X225123Y236183D02*
X234958D01*
X225259Y234383D02*
X234822D01*
X225270Y235283D02*
X234812D01*
X215627Y244283D02*
X234592D01*
X216527Y245183D02*
X233692D01*
X231009Y160583D02*
X232779D01*
X223206Y175883D02*
X229555D01*
X206489Y197483D02*
X229286D01*
X206489Y196583D02*
X229286D01*
X206489Y195683D02*
X229286D01*
X206489Y194783D02*
X229286D01*
X206489Y193883D02*
X229286D01*
X206566Y192983D02*
X229286D01*
X215986Y192083D02*
X229286D01*
X223386Y191183D02*
X229286D01*
X224075Y190283D02*
X229286D01*
X224158Y189383D02*
X229286D01*
X224158Y188483D02*
X229286D01*
X224158Y187583D02*
X229286D01*
X224158Y186683D02*
X229286D01*
X224147Y185783D02*
X229286D01*
X223789Y184883D02*
X229286D01*
X224075Y183983D02*
X229286D01*
X206489Y198383D02*
X229276D01*
X223206Y176783D02*
X229158D01*
X224158Y183083D02*
X229079D01*
X224158Y182183D02*
X228986D01*
X224158Y181283D02*
X228986D01*
X224158Y180383D02*
X228986D01*
X224147Y179483D02*
X228986D01*
X223757Y178583D02*
X228986D01*
X223183Y177683D02*
X228986D01*
X206489Y199283D02*
X228496D01*
X205000Y116483D02*
X227170D01*
X205000Y117383D02*
X227140D01*
X205000Y110183D02*
X227011D01*
X205000Y115583D02*
X226591D01*
X205000Y111083D02*
X226560D01*
X205000Y114683D02*
X226537D01*
X205000Y113783D02*
X226537D01*
X205000Y112883D02*
X226537D01*
X205000Y111983D02*
X226537D01*
X210548Y160583D02*
X226479D01*
X222782Y148883D02*
X225775D01*
X224112Y174983D02*
X225688D01*
X209678Y161483D02*
X225323D01*
X223752Y162383D02*
X225144D01*
X205000Y118283D02*
X223657D01*
X205000Y119183D02*
X222670D01*
X205000Y120083D02*
X221770D01*
X214011Y213683D02*
X220922D01*
X204631Y120983D02*
X220870D01*
X101100Y121883D02*
X220026D01*
X214011Y214583D02*
X219785D01*
X101100Y122783D02*
X219660D01*
X128709Y129983D02*
X219625D01*
X128709Y129083D02*
X219625D01*
X128645Y128183D02*
X219625D01*
X128025Y127283D02*
X219625D01*
X101100Y126383D02*
X219625D01*
X101100Y125483D02*
X219625D01*
X101100Y124583D02*
X219625D01*
X101100Y123683D02*
X219625D01*
X210480Y130883D02*
X219244D01*
X214011Y215483D02*
X218885D01*
X216921Y191183D02*
X218380D01*
X214011Y239783D02*
X218146D01*
X210483Y162383D02*
X218059D01*
X214011Y216383D02*
X217985D01*
X210996Y163283D02*
X217314D01*
X214011Y217283D02*
X217085D01*
X214011Y238883D02*
X216638D01*
X214011Y218183D02*
X216259D01*
X214011Y237983D02*
X215804D01*
X214011Y219083D02*
X215738D01*
X214011Y219983D02*
X215446D01*
X214011Y220883D02*
X215342D01*
X214011Y231683D02*
X215341D01*
X214011Y230783D02*
X215341D01*
X214011Y229883D02*
X215341D01*
X214011Y228983D02*
X215341D01*
X214011Y228083D02*
X215341D01*
X214011Y227183D02*
X215341D01*
X214011Y226283D02*
X215341D01*
X214011Y225383D02*
X215341D01*
X214011Y224483D02*
X215341D01*
X214011Y223583D02*
X215341D01*
X214011Y222683D02*
X215341D01*
X214011Y221783D02*
X215341D01*
X214011Y232583D02*
X215324D01*
X214011Y237083D02*
X215276D01*
X214031Y233483D02*
X214991D01*
X214086Y236183D02*
X214936D01*
X159467Y251483D02*
X213790D01*
X160247Y250583D02*
X212876D01*
X206489Y200183D02*
X212060D01*
X160533Y249683D02*
X211976D01*
X160544Y248783D02*
X211076D01*
X206489Y201083D02*
X210556D01*
X178846Y247883D02*
X210176D01*
X206489Y201983D02*
X209656D01*
X181047Y246983D02*
X209276D01*
X206489Y202883D02*
X208756D01*
X181950Y246083D02*
X208388D01*
X206489Y203783D02*
X208023D01*
X182485Y245183D02*
X207841D01*
X206489Y204683D02*
X207682D01*
X182785Y244283D02*
X207624D01*
X182895Y243383D02*
X207611D01*
X182830Y242483D02*
X207611D01*
X182581Y241583D02*
X207611D01*
X182112Y240683D02*
X207611D01*
X201936Y239783D02*
X207611D01*
X203444Y238883D02*
X207611D01*
X204278Y237983D02*
X207611D01*
X204805Y237083D02*
X207611D01*
X205123Y236183D02*
X207611D01*
X205270Y235283D02*
X207611D01*
X205259Y234383D02*
X207611D01*
X205091Y233483D02*
X207611D01*
X204747Y232583D02*
X207611D01*
X204186Y231683D02*
X207611D01*
X203295Y230783D02*
X207611D01*
X201584Y229883D02*
X207611D01*
X179556Y228983D02*
X207611D01*
X180332Y228083D02*
X207611D01*
X180662Y227183D02*
X207611D01*
X180703Y226283D02*
X207611D01*
X180703Y225383D02*
X207611D01*
X180703Y224483D02*
X207611D01*
X180703Y223583D02*
X207611D01*
X180703Y222683D02*
X207611D01*
X180703Y221783D02*
X207611D01*
X180730Y220883D02*
X207611D01*
X198952Y219983D02*
X207611D01*
X200881Y219083D02*
X207611D01*
X201781Y218183D02*
X207611D01*
X202681Y217283D02*
X207611D01*
X203581Y216383D02*
X207611D01*
X204481Y215483D02*
X207611D01*
X205381Y214583D02*
X207611D01*
X206098Y213683D02*
X207611D01*
X206425Y212783D02*
X207611D01*
X206489Y211883D02*
X207611D01*
X206489Y210983D02*
X207611D01*
X206489Y210083D02*
X207611D01*
X206489Y209183D02*
X207611D01*
X206489Y208283D02*
X207611D01*
X206489Y207383D02*
X207611D01*
X206489Y206483D02*
X207611D01*
X206489Y205583D02*
X207611D01*
X127018Y210083D02*
X200089D01*
X127024Y209183D02*
X200089D01*
X127024Y208283D02*
X200089D01*
X198255Y207383D02*
X200089D01*
X194801Y201983D02*
X200089D01*
X195136Y201083D02*
X200089D01*
X195146Y200183D02*
X200089D01*
X195146Y199283D02*
X200089D01*
X195146Y198383D02*
X200089D01*
X195146Y197483D02*
X200089D01*
X195146Y196583D02*
X200089D01*
X195146Y195683D02*
X200089D01*
X195146Y194783D02*
X200089D01*
X195146Y193883D02*
X200089D01*
X199002Y202883D02*
X200074D01*
X195146Y192983D02*
X200011D01*
X127018Y210983D02*
X199930D01*
X127018Y211883D02*
X199030D01*
X178656Y229883D02*
X198497D01*
X181325Y239783D02*
X198146D01*
X179951Y212783D02*
X198130D01*
X186551Y161483D02*
X196899D01*
X146719Y138083D02*
X196866D01*
X165418Y169583D02*
X196865D01*
X154295Y184883D02*
X196827D01*
X165414Y153383D02*
X196824D01*
X177756Y230783D02*
X196786D01*
X146896Y146183D02*
X196689D01*
X146902Y177683D02*
X196684D01*
X179796Y238883D02*
X196638D01*
X147037Y176783D02*
X196548D01*
X147044Y145283D02*
X196541D01*
X165418Y154283D02*
X196330D01*
X191356Y185783D02*
X196325D01*
X165418Y168683D02*
X196236D01*
X147353Y137183D02*
X196232D01*
X127024Y207383D02*
X196151D01*
X147488Y130883D02*
X196097D01*
X185651Y162383D02*
X196094D01*
X194866Y192083D02*
X196033D01*
X187451Y160583D02*
X196030D01*
X147653Y138983D02*
X195932D01*
X165734Y170483D02*
X195930D01*
X142177Y231683D02*
X195896D01*
X147698Y183983D02*
X195887D01*
X165176Y152483D02*
X195885D01*
X147776Y147083D02*
X195817D01*
X147770Y178583D02*
X195815D01*
X142177Y237983D02*
X195804D01*
X147800Y175883D02*
X195785D01*
X151668Y144383D02*
X195784D01*
X192256Y186683D02*
X195739D01*
X165418Y167783D02*
X195721D01*
X153976Y136283D02*
X195720D01*
X154148Y131783D02*
X195696D01*
X184979Y163283D02*
X195696D01*
X193927Y191183D02*
X195688D01*
X193906Y190283D02*
X195683D01*
X193906Y189383D02*
X195683D01*
X193761Y188483D02*
X195683D01*
X193156Y187583D02*
X195683D01*
X147902Y183083D02*
X195683D01*
X147902Y182183D02*
X195683D01*
X147902Y181283D02*
X195683D01*
X147902Y180383D02*
X195683D01*
X147902Y179483D02*
X195683D01*
X147902Y174983D02*
X195683D01*
X147902Y174083D02*
X195683D01*
X164897Y173183D02*
X195683D01*
X165570Y172283D02*
X195683D01*
X165808Y171383D02*
X195683D01*
X165418Y166883D02*
X195683D01*
X165418Y165983D02*
X195683D01*
X165418Y165083D02*
X195683D01*
X184415Y164183D02*
X195683D01*
X164443Y151583D02*
X195683D01*
X163543Y150683D02*
X195683D01*
X162643Y149783D02*
X195683D01*
X161743Y148883D02*
X195683D01*
X160843Y147983D02*
X195683D01*
X152775Y143483D02*
X195683D01*
X153194Y142583D02*
X195683D01*
X153269Y141683D02*
X195683D01*
X153031Y140783D02*
X195683D01*
X152360Y139883D02*
X195683D01*
X154878Y135383D02*
X195683D01*
X155225Y134483D02*
X195683D01*
X155244Y133583D02*
X195683D01*
X154943Y132683D02*
X195683D01*
X165418Y155183D02*
X195407D01*
X142177Y232583D02*
X195334D01*
X142177Y237083D02*
X195276D01*
X142177Y233483D02*
X194991D01*
X142177Y236183D02*
X194958D01*
X142177Y234383D02*
X194822D01*
X142177Y235283D02*
X194812D01*
X147902Y190283D02*
X189279D01*
X147897Y191183D02*
X189240D01*
X186992Y192083D02*
X188090D01*
X165418Y156083D02*
X185446D01*
X165418Y156983D02*
X184546D01*
X165418Y157883D02*
X183646D01*
X127024Y206483D02*
X183470D01*
X165418Y158783D02*
X182746D01*
X127024Y205583D02*
X182570D01*
X165418Y159683D02*
X181824D01*
X126975Y204683D02*
X181720D01*
X126567Y203783D02*
X181342D01*
X125701Y202883D02*
X181301D01*
X165418Y164183D02*
X180491D01*
X165418Y160583D02*
X180393D01*
X179003Y201983D02*
X180331D01*
X179118Y192083D02*
X180216D01*
X165418Y163283D02*
X179927D01*
X165418Y161483D02*
X179889D01*
X165418Y162383D02*
X179754D01*
X168846Y247883D02*
X177642D01*
X169796Y238883D02*
X176692D01*
X169951Y212783D02*
X176054D01*
X171047Y246983D02*
X175441D01*
X142177Y225383D02*
X175303D01*
X142177Y224483D02*
X175303D01*
X142177Y223583D02*
X175303D01*
X142177Y222683D02*
X175303D01*
X142177Y221783D02*
X175303D01*
X170578Y220883D02*
X175275D01*
X171325Y239783D02*
X175163D01*
X171257Y213683D02*
X174748D01*
X171950Y246083D02*
X174538D01*
X171580Y219983D02*
X174425D01*
X172112Y240683D02*
X174376D01*
X171973Y214583D02*
X174032D01*
X172485Y245183D02*
X174003D01*
X172581Y241583D02*
X173908D01*
X172167Y219083D02*
X173838D01*
X172801Y244283D02*
X173687D01*
X172398Y215483D02*
X173607D01*
X172505Y218183D02*
X173501D01*
X173046Y242483D02*
X173442D01*
X171129Y201983D02*
X172457D01*
X171243Y192083D02*
X172342D01*
X160544Y247883D02*
X167642D01*
X159796Y238883D02*
X166692D01*
X159951Y212783D02*
X166054D01*
X161047Y246983D02*
X165441D01*
X160578Y220883D02*
X165427D01*
X161325Y239783D02*
X165163D01*
X161257Y213683D02*
X164748D01*
X163254Y201983D02*
X164583D01*
X161950Y246083D02*
X164538D01*
X163369Y192083D02*
X164468D01*
X161580Y219983D02*
X164425D01*
X162112Y240683D02*
X164376D01*
X161973Y214583D02*
X164032D01*
X162485Y245183D02*
X164003D01*
X162581Y241583D02*
X163908D01*
X162167Y219083D02*
X163838D01*
X162801Y244283D02*
X163687D01*
X142177Y226283D02*
X163628D01*
X162398Y215483D02*
X163607D01*
X162505Y218183D02*
X163501D01*
X163046Y242483D02*
X163442D01*
X142177Y230783D02*
X162376D01*
X142177Y227183D02*
X162220D01*
X142177Y229883D02*
X161794D01*
X142177Y228083D02*
X161732D01*
X142177Y228983D02*
X161608D01*
X147902Y173183D02*
X161339D01*
X146721Y169583D02*
X160818D01*
X147349Y168683D02*
X160818D01*
X147865Y167783D02*
X160818D01*
X147902Y166883D02*
X160818D01*
X147902Y165983D02*
X160818D01*
X147902Y165083D02*
X160818D01*
X147902Y164183D02*
X160818D01*
X147889Y163283D02*
X160818D01*
X147491Y162383D02*
X160818D01*
X146686Y161483D02*
X160818D01*
X147555Y160583D02*
X160818D01*
X151370Y159683D02*
X160818D01*
X152172Y158783D02*
X160818D01*
X152476Y157883D02*
X160818D01*
X152459Y156983D02*
X160818D01*
X152115Y156083D02*
X160818D01*
X151221Y155183D02*
X160818D01*
X147902Y172283D02*
X160666D01*
X147256Y154283D02*
X160638D01*
X147655Y170483D02*
X160502D01*
X147902Y171383D02*
X160428D01*
X146761Y153383D02*
X159738D01*
X147701Y152483D02*
X158838D01*
X155380Y201983D02*
X156709D01*
X149796Y238883D02*
X156692D01*
X155495Y192083D02*
X156594D01*
X149951Y212783D02*
X156054D01*
X150578Y220883D02*
X155427D01*
X151325Y239783D02*
X155163D01*
X151257Y213683D02*
X154748D01*
X151580Y219983D02*
X154425D01*
X152112Y240683D02*
X154376D01*
X151973Y214583D02*
X154032D01*
X152581Y241583D02*
X153908D01*
X152167Y219083D02*
X153838D01*
X152398Y215483D02*
X153607D01*
X152505Y218183D02*
X153501D01*
X153046Y242483D02*
X153442D01*
X146758Y184883D02*
X152301D01*
X147902Y189383D02*
X151474D01*
X147261Y185783D02*
X151130D01*
X148101Y136283D02*
X151105D01*
X147902Y188483D02*
X150828D01*
X147847Y186683D02*
X150693D01*
X147902Y187583D02*
X150605D01*
X147831Y144383D02*
X149490D01*
X124801Y201983D02*
X148835D01*
X147552Y192083D02*
X148720D01*
X109440Y201083D02*
X148450D01*
X132881Y192983D02*
X148439D01*
X108740Y200183D02*
X148439D01*
X124656Y199283D02*
X148439D01*
X127573Y198383D02*
X148439D01*
X128505Y197483D02*
X148439D01*
X129405Y196583D02*
X148439D01*
X130305Y195683D02*
X148439D01*
X131205Y194783D02*
X148439D01*
X132105Y193883D02*
X148439D01*
X142177Y238883D02*
X146692D01*
X127018Y212783D02*
X146054D01*
X142403Y220883D02*
X145427D01*
X142823Y239783D02*
X145163D01*
X127569Y213683D02*
X144748D01*
X142576Y219983D02*
X144425D01*
X143727Y240683D02*
X144350D01*
X128451Y214583D02*
X144032D01*
X142441Y219083D02*
X143838D01*
X128975Y215483D02*
X143607D01*
X141936Y218183D02*
X143501D01*
X129267Y216383D02*
X143392D01*
X140413Y217283D02*
X143358D01*
X101100Y120983D02*
X139369D01*
X129370Y217283D02*
X139341D01*
X101100Y120083D02*
X139000D01*
X111953Y119183D02*
X139000D01*
X114390Y118283D02*
X139000D01*
X115775Y117383D02*
X139000D01*
X116775Y116483D02*
X139000D01*
X117542Y115583D02*
X139000D01*
X118141Y114683D02*
X139000D01*
X118608Y113783D02*
X139000D01*
X118961Y112883D02*
X139000D01*
X119215Y111983D02*
X139000D01*
X119378Y111083D02*
X139000D01*
X119453Y110183D02*
X139000D01*
X119444Y109283D02*
X139000D01*
X119349Y108383D02*
X139000D01*
X119166Y107483D02*
X139000D01*
X118890Y106583D02*
X139000D01*
X118512Y105683D02*
X139000D01*
X118018Y104783D02*
X139000D01*
X117385Y103883D02*
X139000D01*
X116572Y102983D02*
X139000D01*
X115504Y102083D02*
X139000D01*
X115414Y101183D02*
X138775D01*
X129297Y218183D02*
X137818D01*
X129040Y219083D02*
X137313D01*
X128561Y219983D02*
X137178D01*
X116866Y254183D02*
X137153D01*
X136510Y220883D02*
X136922D01*
X117613Y253283D02*
X136220D01*
X118196Y252383D02*
X135320D01*
X118650Y251483D02*
X134420D01*
X128693Y161483D02*
X133907D01*
X127678Y138083D02*
X133874D01*
X101100Y153383D02*
X133832D01*
X101100Y146183D02*
X133697D01*
X101100Y145283D02*
X133549D01*
X118993Y250583D02*
X133520D01*
X101100Y154283D02*
X133337D01*
X128575Y137183D02*
X133240D01*
X128709Y130883D02*
X133105D01*
X128709Y162383D02*
X133102D01*
X128276Y160583D02*
X133038D01*
X127757Y220883D02*
X132996D01*
X101100Y138983D02*
X132940D01*
X101100Y152483D02*
X132893D01*
X101100Y147083D02*
X132824D01*
X101100Y144383D02*
X132792D01*
X101100Y155183D02*
X132747D01*
X119237Y249683D02*
X132738D01*
X128709Y136283D02*
X132728D01*
X128709Y131783D02*
X132704D01*
X101100Y159683D02*
X132696D01*
X101100Y158783D02*
X132691D01*
X101100Y157883D02*
X132691D01*
X101100Y156983D02*
X132691D01*
X101100Y156083D02*
X132691D01*
X101100Y151583D02*
X132691D01*
X101100Y150683D02*
X132691D01*
X101100Y149783D02*
X132691D01*
X101100Y148883D02*
X132691D01*
X101100Y147983D02*
X132691D01*
X101100Y143483D02*
X132691D01*
X101100Y142583D02*
X132691D01*
X101100Y141683D02*
X132691D01*
X101100Y140783D02*
X132691D01*
X101100Y139883D02*
X132691D01*
X128709Y135383D02*
X132691D01*
X128709Y134483D02*
X132691D01*
X128709Y133583D02*
X132691D01*
X128709Y132683D02*
X132691D01*
X128953Y163283D02*
X132542D01*
X119390Y248783D02*
X132452D01*
X119456Y247883D02*
X132440D01*
X119438Y246983D02*
X132440D01*
X119334Y246083D02*
X132440D01*
X119142Y245183D02*
X132440D01*
X118855Y244283D02*
X132440D01*
X118466Y243383D02*
X132440D01*
X117958Y242483D02*
X132440D01*
X117308Y241583D02*
X132440D01*
X116473Y240683D02*
X132440D01*
X115370Y239783D02*
X132440D01*
X113778Y238883D02*
X132440D01*
X101100Y237983D02*
X132440D01*
X101100Y237083D02*
X132440D01*
X101100Y236183D02*
X132440D01*
X101100Y235283D02*
X132440D01*
X101100Y234383D02*
X132440D01*
X101100Y233483D02*
X132440D01*
X101100Y232583D02*
X132440D01*
X101100Y231683D02*
X132440D01*
X101100Y230783D02*
X132440D01*
X101100Y229883D02*
X132440D01*
X101100Y228983D02*
X132440D01*
X101100Y228083D02*
X132440D01*
X101100Y227183D02*
X132440D01*
X101100Y226283D02*
X132440D01*
X101100Y225383D02*
X132440D01*
X101100Y224483D02*
X132440D01*
X126162Y221783D02*
X132302D01*
X101100Y223583D02*
X132117D01*
X101100Y222683D02*
X132053D01*
X124798Y190283D02*
X128573D01*
X126834Y189383D02*
X128573D01*
X127738Y188483D02*
X128407D01*
X123826Y191183D02*
X128300D01*
X108740Y192083D02*
X127400D01*
X123528Y192983D02*
X126500D01*
X101100Y183083D02*
X125714D01*
X124153Y182183D02*
X125714D01*
X101100Y183983D02*
X125677D01*
X124823Y181283D02*
X125606D01*
X124695Y193883D02*
X125600D01*
X116162Y221783D02*
X123274D01*
X101100Y209183D02*
X122424D01*
X101100Y208283D02*
X122424D01*
X101100Y207383D02*
X122424D01*
X101100Y206483D02*
X122424D01*
X115555Y212783D02*
X122418D01*
X101100Y211883D02*
X122418D01*
X101100Y210983D02*
X122418D01*
X101100Y210083D02*
X122418D01*
X101100Y174983D02*
X122347D01*
X101100Y174083D02*
X122347D01*
X101100Y173183D02*
X122347D01*
X101100Y172283D02*
X122347D01*
X101100Y171383D02*
X122190D01*
X117569Y213683D02*
X121867D01*
X117757Y220883D02*
X121679D01*
X101100Y175883D02*
X121656D01*
X109568Y138083D02*
X121616D01*
X109915Y127283D02*
X121269D01*
X110559Y160583D02*
X121018D01*
X118451Y214583D02*
X120985D01*
X118561Y219983D02*
X120875D01*
X110740Y170483D02*
X120838D01*
X110464Y137183D02*
X120719D01*
X110535Y128183D02*
X120649D01*
X110977Y161483D02*
X120601D01*
X110993Y169583D02*
X120585D01*
X110993Y168683D02*
X120585D01*
X110993Y167783D02*
X120585D01*
X110993Y166883D02*
X120585D01*
X110993Y165983D02*
X120585D01*
X110993Y165083D02*
X120585D01*
X110993Y164183D02*
X120585D01*
X110993Y163283D02*
X120585D01*
X110993Y162383D02*
X120585D01*
X110599Y136283D02*
X120585D01*
X110599Y135383D02*
X120585D01*
X110599Y134483D02*
X120585D01*
X110599Y133583D02*
X120585D01*
X110599Y132683D02*
X120585D01*
X110599Y131783D02*
X120585D01*
X110599Y130883D02*
X120585D01*
X110599Y129983D02*
X120585D01*
X110599Y129083D02*
X120585D01*
X118975Y215483D02*
X120460D01*
X119040Y219083D02*
X120396D01*
X119296Y216383D02*
X120140D01*
X119450Y218183D02*
X119985D01*
X117228Y192983D02*
X119024D01*
X117526Y191183D02*
X118871D01*
X117856Y182183D02*
X118389D01*
X101100Y212783D02*
X113881D01*
X101100Y221783D02*
X113274D01*
X108740Y192983D02*
X112724D01*
X108817Y191183D02*
X112571D01*
X101100Y182183D02*
X112091D01*
X101100Y213683D02*
X111867D01*
X101100Y184883D02*
X111707D01*
X101100Y220883D02*
X111679D01*
X101100Y176783D02*
X111622D01*
X109700Y190283D02*
X111598D01*
X108740Y199283D02*
X111596D01*
X108740Y193883D02*
X111557D01*
X101100Y181283D02*
X111452D01*
X101100Y180383D02*
X111383D01*
X101100Y179483D02*
X111383D01*
X101100Y178583D02*
X111383D01*
X101100Y177683D02*
X111383D01*
X108740Y198383D02*
X111376D01*
X108740Y197483D02*
X111376D01*
X108740Y196583D02*
X111376D01*
X108740Y195683D02*
X111376D01*
X108740Y194783D02*
X111376D01*
X101100Y214583D02*
X110985D01*
X101100Y219983D02*
X110875D01*
X101100Y215483D02*
X110460D01*
X101100Y219083D02*
X110396D01*
X101100Y216383D02*
X110169D01*
X101100Y218183D02*
X110138D01*
X101100Y217283D02*
X110066D01*
X101100Y119183D02*
X107818D01*
X101100Y185783D02*
X107751D01*
X101100Y205583D02*
X107641D01*
X101100Y186683D02*
X106794D01*
X101100Y204683D02*
X106528D01*
X101100Y238883D02*
X105993D01*
X101100Y187583D02*
X105894D01*
X101100Y203783D02*
X105628D01*
X101100Y118283D02*
X105381D01*
X101100Y188483D02*
X104994D01*
X101100Y202883D02*
X104733D01*
X101100Y239783D02*
X104401D01*
X101100Y189383D02*
X104326D01*
X101100Y138083D02*
X104293D01*
X101100Y201983D02*
X104231D01*
X101100Y190283D02*
X104140D01*
X101100Y201083D02*
X104140D01*
X101100Y200183D02*
X104140D01*
X101100Y199283D02*
X104140D01*
X101100Y198383D02*
X104140D01*
X101100Y197483D02*
X104140D01*
X101100Y196583D02*
X104140D01*
X101100Y195683D02*
X104140D01*
X101100Y194783D02*
X104140D01*
X101100Y193883D02*
X104140D01*
X101100Y192983D02*
X104140D01*
X101100Y192083D02*
X104140D01*
X101100Y191183D02*
X104140D01*
X101100Y117383D02*
X103996D01*
X101100Y127283D02*
X103946D01*
X101100Y137183D02*
X103397D01*
X101100Y128183D02*
X103326D01*
X101100Y160583D02*
X103302D01*
X101100Y240683D02*
X103298D01*
X101100Y136283D02*
X103262D01*
X101100Y135383D02*
X103262D01*
X101100Y134483D02*
X103262D01*
X101100Y133583D02*
X103262D01*
X101100Y132683D02*
X103262D01*
X101100Y131783D02*
X103262D01*
X101100Y130883D02*
X103262D01*
X101100Y129983D02*
X103262D01*
X101100Y129083D02*
X103262D01*
X101100Y170483D02*
X103121D01*
X101100Y116483D02*
X102996D01*
X101100Y161483D02*
X102884D01*
X101100Y169583D02*
X102868D01*
X101100Y168683D02*
X102868D01*
X101100Y167783D02*
X102868D01*
X101100Y166883D02*
X102868D01*
X101100Y165983D02*
X102868D01*
X101100Y165083D02*
X102868D01*
X101100Y164183D02*
X102868D01*
X101100Y163283D02*
X102868D01*
X101100Y162383D02*
X102868D01*
X101100Y241583D02*
X102463D01*
X101100Y115583D02*
X102229D01*
X238174Y142583D02*
X248604D01*
X239043Y143483D02*
X248345D01*
X237541Y141683D02*
X247704D01*
X238508Y140783D02*
X246804D01*
X241620Y139883D02*
X246115D01*
X242571Y138983D02*
X245807D01*
X243471Y138083D02*
X245755D01*
X244042Y137183D02*
X245755D01*
X244167Y136283D02*
X245755D01*
X244170Y135383D02*
X245755D01*
X244501Y134483D02*
X245755D01*
X244550Y133583D02*
X245755D01*
X244283Y132683D02*
X245755D01*
X243557Y131783D02*
X245755D01*
X238747Y130883D02*
X245755D01*
X238841Y129983D02*
X245755D01*
X238841Y129083D02*
X245755D01*
X238841Y128183D02*
X245755D01*
X238841Y127283D02*
X245755D01*
X238834Y126383D02*
X245755D01*
X238482Y125483D02*
X245755D01*
X224225Y124583D02*
X245755D01*
X224675Y123683D02*
X245755D01*
X239732Y122783D02*
X245755D01*
X240033Y121883D02*
X245755D01*
X240035Y120983D02*
X245755D01*
X240035Y120083D02*
X245755D01*
X240035Y119183D02*
X245755D01*
X239991Y118283D02*
X245755D01*
X239450Y117383D02*
X245478D01*
X239587Y116483D02*
X244491D01*
X238018Y131783D02*
X240177D01*
X231158Y132683D02*
X239451D01*
X237594Y134483D02*
X239233D01*
X231158Y133583D02*
X239184D01*
X231350Y134483D02*
X232722D01*
X231718Y131783D02*
X232463D01*
X225575Y122783D02*
X226858D01*
X223049Y133583D02*
X226558D01*
X223870Y132683D02*
X226558D01*
X222149Y134483D02*
X226366D01*
X224202Y131783D02*
X226163D01*
X224225Y125483D02*
X225699D01*
X224225Y130883D02*
X225434D01*
X221610Y135383D02*
X225415D01*
X224225Y126383D02*
X225347D01*
X224225Y129983D02*
X225341D01*
X224225Y129083D02*
X225341D01*
X224225Y128183D02*
X225341D01*
X224225Y127283D02*
X225341D01*
X311329Y198759D02*
X331183D01*
X311630Y197859D02*
X331183D01*
X311644Y196959D02*
X331183D01*
X311644Y196059D02*
X331183D01*
X311644Y195159D02*
X331183D01*
X311627Y194259D02*
X331183D01*
X311210Y193359D02*
X331183D01*
X305626Y192459D02*
X331183D01*
X305598Y191559D02*
X331183D01*
X305598Y190659D02*
X331183D01*
X305598Y189759D02*
X331183D01*
X305598Y188859D02*
X331183D01*
X305598Y187959D02*
X331183D01*
X305598Y187059D02*
X331183D01*
X305598Y186159D02*
X331183D01*
X305598Y185259D02*
X331183D01*
X305598Y184359D02*
X331183D01*
X305598Y183459D02*
X331183D01*
X305540Y182559D02*
X331183D01*
X305095Y181659D02*
X331183D01*
X277457Y180759D02*
X331183D01*
X279873Y179859D02*
X331183D01*
X280784Y178959D02*
X331183D01*
X281044Y178059D02*
X331183D01*
X281049Y177159D02*
X331183D01*
X281049Y176259D02*
X331183D01*
X281049Y175359D02*
X331183D01*
X281049Y174459D02*
X331183D01*
X281049Y173559D02*
X331183D01*
X281049Y172659D02*
X331183D01*
X281098Y171759D02*
X331183D01*
X295142Y170859D02*
X331183D01*
X295707Y169959D02*
X331183D01*
X305052Y169059D02*
X331183D01*
X305599Y168159D02*
X331183D01*
X305700Y167259D02*
X331183D01*
X305700Y166359D02*
X331183D01*
X305700Y165459D02*
X331183D01*
X305700Y164559D02*
X331183D01*
X305700Y163659D02*
X331183D01*
X305700Y162759D02*
X331183D01*
X305700Y161859D02*
X331183D01*
X305700Y160959D02*
X331183D01*
X305700Y160059D02*
X331183D01*
X305700Y159159D02*
X331183D01*
X305700Y158259D02*
X331183D01*
X305700Y157359D02*
X331183D01*
X305700Y156459D02*
X331183D01*
X305700Y155559D02*
X331183D01*
X305700Y154659D02*
X331183D01*
X305700Y153759D02*
X331183D01*
X306506Y152859D02*
X331183D01*
X323390Y151959D02*
X331183D01*
X323752Y151059D02*
X331183D01*
X323759Y150159D02*
X331183D01*
X323759Y149259D02*
X331183D01*
X323759Y148359D02*
X331183D01*
X323734Y147459D02*
X331183D01*
X323271Y146559D02*
X331183D01*
X306985Y145659D02*
X331183D01*
X307014Y144759D02*
X331183D01*
X306620Y146559D02*
X311005D01*
X306985Y151959D02*
X310886D01*
X306964Y147459D02*
X310542D01*
X307014Y151059D02*
X310524D01*
X307014Y150159D02*
X310517D01*
X307014Y149259D02*
X310517D01*
X307014Y148359D02*
X310517D01*
X307014Y143859D02*
X309920D01*
X307014Y142959D02*
X309920D01*
X307014Y142059D02*
X309920D01*
X306964Y141159D02*
X309920D01*
X306398Y140259D02*
X309920D01*
X305629Y139359D02*
X309895D01*
X298285Y169059D02*
X298940D01*
X277457Y181659D02*
X283552D01*
X277457Y182559D02*
X283007D01*
X277457Y191559D02*
X282906D01*
X277457Y190659D02*
X282906D01*
X277457Y189759D02*
X282906D01*
X277457Y188859D02*
X282906D01*
X277457Y187959D02*
X282906D01*
X277457Y187059D02*
X282906D01*
X277457Y186159D02*
X282906D01*
X277457Y185259D02*
X282906D01*
X277457Y184359D02*
X282906D01*
X277457Y183459D02*
X282906D01*
X277520Y192459D02*
X282835D01*
X296689Y169111D02*
Y167411D01*
X317138Y152602D02*
Y150902D01*
X310517Y149327D02*
X312217D01*
X317138Y146052D02*
Y147752D01*
X323759Y149327D02*
X322059D01*
X280231Y192683D02*
Y194383D01*
X308053Y192794D02*
Y194494D01*
X311644Y196068D02*
X309944D01*
X307014Y143458D02*
X305314D01*
X235241Y124827D02*
Y126527D01*
X238841Y128427D02*
X237141D01*
X235241Y132027D02*
Y130327D01*
X224158Y187868D02*
X222458D01*
X220883Y191459D02*
Y189759D01*
X235044Y160543D02*
Y162243D01*
X238644Y164143D02*
X236944D01*
X239736Y172028D02*
X238036D01*
X236236Y175528D02*
Y173828D01*
X263313Y159008D02*
X261613D01*
X259723Y162283D02*
Y160583D01*
X268971Y170746D02*
X270671D01*
X272245Y167156D02*
Y168856D01*
X259297Y171142D02*
X260997D01*
X263360Y168556D02*
Y170256D01*
X267422Y171142D02*
X265722D01*
X317138Y132917D02*
Y131217D01*
X310517Y129642D02*
X312217D01*
X317138Y126367D02*
Y128067D01*
X323759Y129642D02*
X322059D01*
X114973Y182502D02*
Y180802D01*
X111383Y179227D02*
X113083D01*
X114973Y175952D02*
Y177652D01*
X102868Y165654D02*
X104568D01*
X106930Y160017D02*
Y161717D01*
X110993Y165654D02*
X109293D01*
X106930Y171291D02*
Y169591D01*
X103262Y132583D02*
X104962D01*
X106930Y126946D02*
Y128646D01*
X110599Y132583D02*
X108899D01*
X106930Y138220D02*
Y136520D01*
X114976Y200146D02*
Y198446D01*
X111376Y196546D02*
X113076D01*
X114976Y192946D02*
Y194646D01*
X240035Y120240D02*
X238335D01*
X236445Y123515D02*
Y121815D01*
X140297Y192750D02*
Y191050D01*
X147902Y189081D02*
X146202D01*
X259683Y148723D02*
Y150423D01*
X263274Y151997D02*
X261574D01*
X100000Y257480D02*
X332283D01*
Y100000*
X100000*
Y257480*
G54D34*
X158003Y212355D02*
Y214055D01*
Y221661D02*
Y219961D01*
X285414Y109109D02*
X283714D01*
X280761Y113762D02*
Y112062D01*
Y104456D02*
Y106156D01*
X168244Y238616D02*
Y240316D01*
Y247922D02*
Y246222D01*
X194797Y234894D02*
X196497D01*
X200041Y229650D02*
Y231350D01*
X205284Y234894D02*
X203584D01*
X200041Y240137D02*
Y238437D01*
G54D56*
X263365Y200979D02*
X272245Y192098D01*
Y177045*
X220041Y229531D02*
Y220974D01*
X223247Y217768*
X241799*
X247617Y211950*
Y200979*
G74*
X0Y0D02*
M02*
