M48
;FILE_FORMAT=2:4
INCH,LZ
FMAT,2
ICI,OFF
;TYPE=PLATED
T1C.012
T2C.02
T3C.025
T4C.08661
%
M72
G90
G93X0Y0
T1C.012F095S3
X012307Y019935
X012847Y022975
X012847Y024295
X01315Y02639
X01276Y02663
X01238Y02827
X01278Y02843
X01186Y02869
X01221Y02878
X01509Y02865
X014917Y028355
X01429Y02816
X014697Y028115
X01354Y02664
X01473Y02646
X01394Y02644
X013947Y020895
X015027Y020375
X01906Y02635
X0163Y02636
X01982Y02688
X01919Y02706
X01951Y02728
X02014Y02758
X016907Y028005
X01627Y02801
X020687Y028125
X017217Y028455
X01619Y02862
X02027Y02865
X01743Y02876
X020977Y027895
T2C.02F197S55
X01284Y0121
X01073Y01258
X01163Y01263
X01103Y01337
X01182Y01489
X01169Y01564
X01197Y01975
X01122Y02213
X01244Y02213
X01416Y02441
X01414Y0238
X01416Y02299
X01532Y02201
X01542Y01995
X01493Y01739
X01493Y016
X01494Y01507
X01324Y01471
X0143Y01307
X01497Y01268
X01558Y01194
X0157Y01083
X0168Y01046
X01817Y01054
X01772Y01109
X01698Y01175
X01814Y01189
X01772Y01261
X01624Y01266
X01777Y01509
X01576Y0156
X0176Y01663
X01585Y01692
X01746Y01775
X01622Y02004
X01594Y02082
X02006Y02498
X01882Y02484
X01924Y02403
X02013Y02373
X01886Y02358
X0203Y02216
X02032Y02108
X02038Y02006
X01896Y01928
X02037Y01883
X0188Y01553
X01963Y01505
X02072Y01283
X01914Y01264
X02024Y01209
X01966Y01192
X01884Y01127
X01958Y01048
X02234Y01225
X02182Y01303
X02097Y01545
X02096Y01788
X02142Y02104
X0215Y02222
X02154Y02373
X02154Y02444
X02115Y02857
T3C.025F197S55
X012347Y016655
X011767Y016665
X011064Y016668
X01345Y02788
X01345Y02852
X016937Y021675
X016906Y020634
X016967Y019605
X020057Y017135
X020467Y016705
X020047Y016185
X019457Y015895
X021077Y016705
T4C.08661F074S55
X011753Y011597
X021281Y011597
M30
