*
*
G04 PADS VX.2.3 Build Number: 9191294 generated Gerber (RS-274-X) file*
G04 PC Version=2.1*
*
%IN "GETWAY_LTE_ZM_V1.0_2018"*%
*
%MOIN*%
*
%FSLAX35Y35*%
*
*
*
*
G04 PC Standard Apertures*
*
*
G04 Thermal Relief Aperture macro.*
%AMTER*
1,1,$1,0,0*
1,0,$1-$2,0,0*
21,0,$3,$4,0,0,45*
21,0,$3,$4,0,0,135*
%
*
*
G04 Annular Aperture macro.*
%AMANN*
1,1,$1,0,0*
1,0,$2,0,0*
%
*
*
G04 Odd Aperture macro.*
%AMODD*
1,1,$1,0,0*
1,0,$1-0.005,0,0*
%
*
*
G04 PC Custom Aperture Macros*
*
*
*
*
*
*
G04 PC Aperture Table*
*
%ADD010C,0.001*%
%ADD033C,0.006*%
%ADD037C,0.16748*%
%ADD038R,0.03559X0.10055*%
%ADD044R,0.0478X0.04149*%
%ADD045R,0.04149X0.0478*%
%ADD046R,0.24622X0.10055*%
%ADD047R,0.05724X0.06906*%
%ADD048R,0.048X0.048*%
%ADD049R,0.02181X0.05724*%
%ADD050R,0.02969X0.03756*%
%ADD057R,0.03362X0.10055*%
%ADD058R,0.03362X0.10055*%
*
*
*
*
G04 PC Circuitry*
G04 Layer Name GETWAY_LTE_ZM_V1.0_2018 - circuitry*
%LPD*%
*
*
G04 PC Custom Flashes*
G04 Layer Name GETWAY_LTE_ZM_V1.0_2018 - flashes*
%LPD*%
*
*
G04 PC Circuitry*
G04 Layer Name GETWAY_LTE_ZM_V1.0_2018 - circuitry*
%LPD*%
*
G54D10*
G54D33*
G01X191855Y184180D02*
X190997Y182815D01*
X190937Y182754*
X190858Y182724*
X190773Y182729*
X190698Y182769*
X190646Y182837*
X190627Y182920*
X190604Y185651*
Y185653*
X190622Y185736*
X190673Y185804*
X190747Y185845*
X190832Y185851*
X190912Y185821*
X190972Y185761*
X191854Y184395*
X191882Y184326*
Y184250*
X191855Y184180*
X190700Y182768D02*
Y185819D01*
X191000Y182820D02*
Y185718D01*
X191300Y183297D02*
Y185253D01*
X191600Y183775D02*
Y184788D01*
X193766Y182939D02*
X193748Y182856D01*
X193697Y182788*
X193622Y182747*
X193537Y182741*
X193458Y182771*
X193398Y182831*
X192532Y184184*
X192508Y184236*
X192500Y184292*
X192508Y184348*
X192531Y184399*
X193397Y185761*
X193457Y185822*
X193537Y185852*
X193622Y185846*
X193697Y185805*
X193748Y185737*
X193766Y185654*
Y182939*
X192500Y184292D02*
X192500D01*
X192800Y183765D02*
Y184822D01*
X193100Y183296D02*
Y185294D01*
X193400Y182829D02*
Y185764D01*
X193700Y182792D02*
Y185801D01*
G54D37*
X212807Y115972D03*
X117531D03*
G54D38*
X201390Y295500D03*
X198240D03*
X195091D03*
X191941D03*
X188791D03*
X185642D03*
X169894D03*
X166744D03*
X163594D03*
X160445D03*
X157295D03*
X154146D03*
X150996D03*
X147846D03*
X144697D03*
X141547D03*
X138398D03*
X135248D03*
X132098D03*
X128949D03*
X125799D03*
X122650D03*
X119500D03*
X116350D03*
G54D44*
X147390Y259085D03*
X153689D03*
X176268Y192244D03*
X169969D03*
X130614Y224297D03*
X124315D03*
X116810Y248221D03*
X123109D03*
X115321Y192848D03*
X121620D03*
X145139Y203877D03*
X138840D03*
G54D45*
X145695Y234435D03*
Y240734D03*
G54D46*
X170078Y247698D03*
Y226438D03*
G54D47*
X127858Y162348D03*
X138882D03*
X195410Y174054D03*
X184386D03*
X127858Y172548D03*
X138882D03*
X195512Y164679D03*
X184488D03*
X170019Y200885D03*
X181043D03*
X170056Y211900D03*
X181079D03*
G54D48*
X139375Y220426D03*
X145675D03*
X122984Y210167D03*
Y203867D03*
X130744Y203707D03*
Y210007D03*
X139535Y213066D03*
X145835D03*
X130774Y217817D03*
X124474D03*
X123140Y240802D03*
Y234502D03*
X115446Y234553D03*
Y240853D03*
X115384Y203707D03*
Y210007D03*
G54D49*
X130443Y242940D03*
X133002D03*
X135561D03*
X138121D03*
Y232704D03*
X135561D03*
X133002D03*
X130443D03*
G54D50*
X189877Y184300D03*
X194523D03*
G54D57*
X207689Y295500D03*
G54D58*
X204539D03*
X0Y0D02*
M02*
