*
*
G04 PADS VX.2.3 Build Number: 9191294 generated Gerber (RS-274-X) file*
G04 PC Version=2.1*
*
%IN "LockBase_ZM_V1.2_201808"*%
*
%MOIN*%
*
%FSLAX35Y35*%
*
*
*
*
G04 PC Standard Apertures*
*
*
G04 Thermal Relief Aperture macro.*
%AMTER*
1,1,$1,0,0*
1,0,$1-$2,0,0*
21,0,$3,$4,0,0,45*
21,0,$3,$4,0,0,135*
%
*
*
G04 Annular Aperture macro.*
%AMANN*
1,1,$1,0,0*
1,0,$2,0,0*
%
*
*
G04 Odd Aperture macro.*
%AMODD*
1,1,$1,0,0*
1,0,$1-0.005,0,0*
%
*
*
G04 PC Custom Aperture Macros*
*
*
*
*
*
*
G04 PC Aperture Table*
*
%ADD010C,0.001*%
%ADD011ANN,0.07087X0.04724*%
%ADD014R,0.03149X0.0378*%
%ADD018R,0.07874X0.07874*%
%ADD021ANN,0.05906X0.03543*%
%ADD022R,0.038X0.038*%
%ADD025ANN,0.15748X0.07874*%
%ADD027C,0.012*%
%ADD028C,0.03*%
%ADD029C,0.02*%
%ADD031C,0.04*%
%ADD032C,0.055*%
%ADD033C,0.01*%
%ADD034C,0.015*%
%ADD035R,0.05906X0.04724*%
*
*
*
*
G04 PC Circuitry*
G04 Layer Name LockBase_ZM_V1.2_201808 - circuitry*
%LPD*%
*
*
G04 PC Custom Flashes*
G04 Layer Name LockBase_ZM_V1.2_201808 - flashes*
%LPD*%
*
*
G04 PC Circuitry*
G04 Layer Name LockBase_ZM_V1.2_201808 - circuitry*
%LPD*%
*
G54D10*
G54D11*
G01X300041Y234894D03*
X280041D03*
X260041D03*
X240041D03*
X220041D03*
X200041D03*
G54D14*
X241488Y219465D03*
Y213166D03*
G54D18*
X178020Y190017D03*
Y205765D03*
X220054Y203709D03*
Y219457D03*
G54D21*
X241503Y107688D03*
X251503D03*
X261503D03*
X271503D03*
X281503D03*
X291503D03*
X301503D03*
X178244Y243269D03*
X168244D03*
X158244D03*
X148244D03*
X124718Y217360D03*
X114718D03*
X178003Y217008D03*
X168003D03*
X158003D03*
X148003D03*
G54D22*
X293334Y121961D03*
X287034D03*
X178022Y228644D03*
Y234944D03*
X158272Y228695D03*
Y234995D03*
X148228Y228780D03*
Y235080D03*
X287051Y129625D03*
X293351D03*
G54D25*
X322484Y109835D03*
Y247630D03*
X109886D03*
Y109835D03*
G54D27*
X278504Y125336D02*
Y128386D01*
X279743Y129625*
X287051*
X278504Y125336D02*
X278500Y125340D01*
X285244Y116545D02*
X287034Y118334D01*
Y121961*
X285244Y116545D02*
X285244D01*
X285244*
X291864Y116608D02*
X293686Y118430D01*
Y121961*
X301190Y118220D02*
Y126997D01*
X298563Y129625*
X293351*
X293686Y121961D02*
X293334D01*
X301190Y118220D02*
X301190D01*
X235000Y143000D02*
X237636Y145636D01*
X259123*
X275129Y161642*
Y163324*
X275129*
X275129*
X178003Y205765D02*
X178020D01*
X232474Y219444D02*
X226762D01*
X226749Y219457*
X220054*
X232474Y219444D02*
X241488D01*
Y219465*
X148228Y235080D02*
X148244D01*
Y240897*
X158272Y234995D02*
X158244D01*
Y240897*
X178244D02*
Y234660D01*
X178244D02*
X178022Y234944D01*
X220054Y229400D02*
X220041Y229413D01*
G54D28*
X122815Y164102D02*
X122815D01*
X114718Y172199*
Y214088*
X122815Y164102D02*
X122815D01*
X178003Y205765D02*
Y213736D01*
X114718Y220631D02*
Y226427D01*
X117092Y228801*
X132200*
X148228Y228780D02*
X132220D01*
X132200Y228801*
X158272Y228695D02*
Y228896D01*
X164307*
X158272Y228695D02*
X148228D01*
Y228780*
G54D29*
X306133Y102399D02*
X308406Y104672D01*
Y133464*
X306133Y102399D02*
X292357D01*
X291621Y103135*
X291575Y104917*
X196000Y133000D02*
X177000D01*
X173000Y137000*
Y141000*
X308406Y133464D02*
X300304Y141566D01*
Y150181*
X173000Y141000D02*
Y149000D01*
X144294Y152546D02*
X151594D01*
X159833Y160785*
X163012*
X163827Y161600*
X172505*
X173000Y149000D02*
Y153541D01*
X176782Y157323*
X198000Y148000D02*
Y160000D01*
X176782Y157323D02*
X179713Y160254D01*
X198180*
X176782Y157323D02*
X172505Y161600D01*
X198000Y160000D02*
Y160074D01*
X198180Y160254*
X220054Y219457D02*
Y229400D01*
X220041Y229413D02*
Y231531D01*
X172852Y119830D03*
X216164Y119576D03*
X256953Y125682D03*
X278500Y125340D03*
X291864Y116608D03*
X285244Y116545D03*
X301190Y118220D03*
X131746Y132619D03*
X142678Y129911D03*
X171588Y133937D03*
X196000Y133000D03*
X262151Y132587D03*
X264693Y128290D03*
X297000Y134000D03*
X140512Y136587D03*
X155822Y136155D03*
X173000Y141000D03*
X189000Y139000D03*
X198515Y139996D03*
X195991Y136807D03*
X204974Y144492D03*
X216091Y137323D03*
X213828Y143634D03*
X235000Y143000D03*
X258069Y141964D03*
X109939Y148945D03*
X162689Y151196D03*
X173000Y149000D03*
X198000Y148000D03*
X215282Y151903D03*
X122815Y164102D03*
X158000Y163000D03*
X161000Y165000D03*
X171000Y159000D03*
X165000D03*
X183000Y163000D03*
X188000Y164000D03*
X198000Y160000D03*
X205000Y161000D03*
X217056Y158065D03*
X275129Y163324D03*
X151679Y169033D03*
X158216Y168243D03*
X190000Y167000D03*
X192000Y169000D03*
X203660Y170414D03*
X151708Y179292D03*
X155896Y175913D03*
X180000Y179000D03*
X178165Y176734D03*
X199183Y181290D03*
X200560Y187684D03*
G54D31*
X300304Y150181D02*
Y160748D01*
X300067Y160986*
X309012Y169930*
Y245589*
X305209Y249392*
X240525Y192047D02*
X211903D01*
X207966Y195984*
X195773*
X220041Y239256D02*
Y246747D01*
X222686Y249392*
X305209*
X241927Y132996D03*
X144294Y152546D03*
X300358Y155516D03*
X300304Y150181D03*
X324942Y155798D03*
X308614Y158010D03*
X322543Y162037D03*
X292390Y175708D03*
X297026Y171389D03*
X315882Y166332D03*
X321939Y173711D03*
X300397Y175919D03*
X316409Y183609D03*
X315934Y175974D03*
X324731Y182661D03*
X240525Y192047D03*
X280592Y189824D03*
X315882Y192037D03*
X323416Y191558D03*
X195773Y195984D03*
X164307Y228896D03*
G54D32*
X122387Y104567D03*
X197919Y110967D03*
X223107Y108423D03*
X153346Y125175D03*
X144131Y125205D03*
X313246Y119835D03*
X322387Y134567D03*
X131741Y141841D03*
X185642Y151112D03*
X185537Y151184D03*
X185670Y151341D03*
X185736Y151066D03*
X242198Y152543D03*
X135629Y158493D03*
X246398Y161781D03*
X266936Y162837D03*
X122387Y174567D03*
X132387D03*
X222387Y184567D03*
X122387Y194567D03*
X132387D03*
X142387D03*
X152387D03*
X162387D03*
X132387Y204567D03*
X142387D03*
X152387D03*
X162387D03*
X209675Y204980D03*
X237662Y201704D03*
X132387Y214567D03*
X274709Y211462D03*
X288347Y208888D03*
X299294Y209510D03*
X195021Y225177D03*
X252387Y224567D03*
X280898Y222370D03*
X290629Y223382D03*
X299509Y222534D03*
X317050Y218739D03*
X317380Y234617D03*
X123872Y237429D03*
X129495Y246856D03*
X198629Y249998D03*
G54D33*
X271503Y109960D02*
Y114494D01*
X273611Y116602*
X279149*
X281503Y109960D02*
Y112372D01*
X282750Y113619*
X290327*
X299513Y113051D02*
X301190Y114728D01*
Y118220*
X299513Y113051D02*
X290895D01*
X290327Y113619*
X303109Y109294D02*
X305448Y111633D01*
Y131482*
X294966Y141964*
X258069*
X212452Y118837D02*
X213191Y119576D01*
X216164*
X212452Y118837D02*
X177319D01*
X176326Y119830*
X172852*
X271753Y126292D02*
X262559Y117098D01*
X138742*
X131746Y124094*
Y132619*
X256953Y125682D02*
X256935Y125700D01*
X171808*
X165000Y132508*
Y159000*
X285244Y116545D02*
X279206D01*
X279149Y116602*
X142678Y129911D02*
Y140644D01*
X134377Y148945*
X109939*
X169487Y133067D02*
Y154192D01*
X171000Y155705*
Y159000*
X248928Y129896D02*
X251619Y132587D01*
X262151*
X248928Y129896D02*
X204425D01*
X197514Y136807*
X195991*
X256000Y128282D02*
X254188D01*
X254196Y128290*
X264693*
X254188Y128282D02*
X174272D01*
X169487Y133067*
X271753Y126292D02*
Y139316D01*
X271355Y139714*
X264693Y128290D02*
X264693D01*
X297000Y134000D02*
Y137148D01*
X294434Y139714*
X271355*
X189000Y139000D02*
X191200D01*
X192200Y140000*
X198515*
Y139996*
X204974Y144492D02*
X205000D01*
Y161000*
X216091Y137323D02*
Y142544D01*
X216066Y142569*
Y144583*
X210239Y150410*
Y178005*
X200560Y187684*
X213828Y143634D02*
X207400Y150062D01*
Y173269*
X203222Y177447*
X203222*
X199183Y181290*
X271355Y139714D02*
X229049D01*
X223968Y144795*
Y156482*
X222450Y158000*
X217056*
Y158065*
X162156Y162899D02*
X163538Y164281D01*
X181719*
X162156Y162899D02*
X158000D01*
Y163000*
X161000Y165000D02*
X162309Y166309D01*
X185691*
X183000Y163000D02*
X181719Y164281D01*
X188000Y164000D02*
X185691Y166309D01*
X151679Y169033D02*
X153463D01*
X154774Y170344*
X187578*
X158216Y168243D02*
X158238Y168266D01*
X186315*
X190000Y167000D02*
X187581D01*
X186315Y168266*
X192000Y169000D02*
Y169101D01*
X188821*
X187578Y170344*
X151708Y179292D02*
X154735D01*
X156754Y181311*
X164854*
X164865Y181322*
X177678*
X180000Y179000*
X178165Y176734D02*
X186353D01*
X188168Y178549*
Y225160*
X184684Y228644*
X178022*
X278500Y179000D02*
G75*
G03X279000Y178500I500J0D01*
G01X290000*
X290500Y178000D02*
G03X290000Y178500I-500J0D01*
G01X290500Y178000D02*
Y169000D01*
G03X291000Y168500I500J0*
G01X294000*
X294500Y168000D02*
G03X294000Y168500I-500J0D01*
G01X294500Y168000D02*
Y144664D01*
G03X294994Y144164I500J-0*
G01X296522Y143520D02*
G03X294994Y144164I-1556J-1556D01*
G01X296522Y143520D02*
X296750Y143291D01*
G03X297604Y143644I354J353*
G01Y147461*
G03X297485Y147785I-500J-0*
G01X296604Y150181D02*
G03X297485Y147785I3700J0D01*
G01X296604Y150181D02*
Y159594D01*
G03X296576Y159760I-500J0*
G01X296367Y160986D02*
G03X296576Y159760I3700J-0D01*
G01X296367Y160986D02*
X296367D01*
X297451Y163602D02*
G03X296367Y160986I2616J-2616D01*
G01X297451Y163602D02*
X305165Y171317D01*
G03X305312Y171670I-353J353*
G01Y199000*
G03X304812Y199500I-500J0*
G01X279000*
G03X278500Y199000I0J-500*
G01Y179000*
X303004Y142891D02*
G03X303150Y142538I500J0D01*
G01X305042Y140646*
G03X305395Y140500I353J354*
G01X329000*
G03X329500Y141000I0J500*
G01Y199000*
G03X329000Y199500I-500J0*
G01X313212*
G03X312712Y199000I-0J-500*
G01Y169929*
X311628Y167314D02*
G03X312712Y169929I-2616J2616D01*
G01X311628Y167314D02*
X304150Y159836D01*
G03X304004Y159483I354J-353*
G01Y156189*
G03X304010Y156109I500J-0*
G01X304058Y155516D02*
G03X304010Y156109I-3700J-0D01*
G01Y154923D02*
G03X304058Y155516I-3652J593D01*
G01X304010Y154923D02*
G03X304004Y154843I494J-80D01*
G01Y150181*
X303123Y147785D02*
G03X304004Y150181I-2819J2396D01*
G01X303123Y147785D02*
G03X303004Y147461I381J-324D01*
G01Y142891*
X101100Y115565D02*
G03X102011Y115280I500J-0D01*
G01X119460Y109835D02*
G03X102011Y115280I-9574J-0D01*
G01X115401Y102009D02*
G03X119460Y109835I-5515J7826D01*
G01X115401Y102009D02*
G03X115189Y101600I288J-409D01*
X115689Y101100I500J0*
G01X131632*
G03X132132Y101600I0J500*
Y101611I-500J0*
G01Y101622D02*
G03Y101611I500J-0D01*
G01Y101622D02*
Y119003D01*
X132389Y119440D02*
G03X132132Y119003I243J-437D01*
G01X132389Y119440D02*
G03X132645Y119876I-244J436D01*
X132499Y120230I-500J0*
G01X130191Y122538*
X129546Y124094D02*
G03X130191Y122538I2200J-0D01*
G01X129546Y124094D02*
Y130902D01*
G03X129468Y131170I-500J-0*
G01X129046Y132619D02*
G03X129468Y131170I2700J0D01*
G01X129046Y132619D02*
X129046D01*
X134446D02*
G03X129046I-2700J0D01*
G01X134446D02*
X134446D01*
X134024Y131170D02*
G03X134446Y132619I-2278J1449D01*
G01X134024Y131170D02*
G03X133946Y130902I422J-268D01*
G01Y125212*
G03X134093Y124859I500J0*
G01X139302Y119649*
G03X139655Y119503I353J354*
G01X169657*
G03X170156Y119976I0J500*
G01X172483Y122505D02*
G03X170156Y119976I369J-2675D01*
G01X172483Y122505D02*
G03X172852Y122759I-69J495D01*
X173222Y122505I438J241*
G01X174302Y122108D02*
G03X173222Y122505I-1450J-2278D01*
G01X174302Y122108D02*
G03X174570Y122030I268J422D01*
G01X176326*
X177882Y121386D02*
G03X176326Y122030I-1556J-1556D01*
G01X177882Y121386D02*
X178084Y121183D01*
G03X178437Y121037I353J354*
G01X211335*
G03X211679Y121174I0J500*
G01X213191Y121776D02*
G03X211679Y121174I0J-2200D01*
G01X213191Y121776D02*
X214446D01*
G03X214714Y121855I0J500*
G01X218857Y119763D02*
G03X214714Y121855I-2693J-187D01*
G01X218857Y119763D02*
G03X219356Y119298I499J35D01*
G01X261441*
G03X261794Y119444I-0J500*
G01X269407Y127057*
G03X269553Y127410I-354J353*
G01Y137014*
G03X269053Y137514I-500J0*
G01X229049*
X227493Y138158D02*
G03X229049Y137514I1556J1556D01*
G01X227493Y138158D02*
X222412Y143239D01*
X221768Y144795D02*
G03X222412Y143239I2200J0D01*
G01X221768Y144795D02*
Y155300D01*
G03X221268Y155800I-500J0*
G01X218667*
G03X218415Y155732I-0J-500*
G01X214356Y158065D02*
G03X218415Y155732I2700J0D01*
G01X218589Y160288D02*
G03X214356Y158065I-1533J-2223D01*
G01X218589Y160288D02*
G03X218872Y160200I283J412D01*
G01X222450*
X224006Y159556D02*
G03X222450Y160200I-1556J-1556D01*
G01X224006Y159556D02*
X225524Y158038D01*
X226168Y156482D02*
G03X225524Y158038I-2200J0D01*
G01X226168Y156482D02*
Y145913D01*
G03X226314Y145560I500J0*
G01X229814Y142060*
G03X230167Y141914I353J354*
G01X231854*
G03X232354Y142414I0J500*
G01X232354*
G03X232346Y142506I-500J0*
G01X232300Y143000D02*
G03X232346Y142506I2700J0D01*
G01X234254Y145595D02*
G03X232300Y143000I746J-2595D01*
G01X234254Y145595D02*
G03X234469Y145722I-138J480D01*
G01X236010Y147262*
X237636Y147936D02*
G03X236010Y147262I-0J-2300D01*
G01X237636Y147936D02*
X257963D01*
G03X258316Y148082I-0J500*
G01X272388Y162154*
G03X272535Y162508I-353J354*
X272518Y162635I-500J-0*
G01X272429Y163324D02*
G03X272518Y162635I2700J0D01*
G01X275020Y166022D02*
G03X272429Y163324I109J-2698D01*
G01X275020Y166022D02*
G03X275500Y166521I-20J499D01*
G01Y202000*
X276000Y202500D02*
G03X275500Y202000I0J-500D01*
G01X276000Y202500D02*
X304812D01*
G03X305312Y203000I-0J500*
G01Y231697*
G03X304396Y231975I-500J-0*
G01X294797Y234894D02*
G03X304396Y231975I5244J-0D01*
G01Y237813D02*
G03X294797Y234894I-4355J-2919D01*
G01X304396Y237813D02*
G03X305312Y238091I416J278D01*
G01Y243850*
G03X305165Y244203I-500J-0*
G01X303823Y245546*
G03X303469Y245692I-354J-354*
G01X224426*
G03X224072Y245546I0J-500*
G01X223887Y245361*
G03X223741Y245007I354J-354*
G01Y238811*
G03X223875Y238470I500J0*
G01X225284Y234894D02*
G03X223875Y238470I-5243J-0D01*
G01X222962Y230540D02*
G03X225284Y234894I-2921J4354D01*
G01X222962Y230540D02*
G03X222741Y230124I279J-416D01*
G01Y229690*
G03X222743Y229645I500J-0*
G01X222754Y229400D02*
G03X222743Y229645I-2700J0D01*
G01X222754Y229400D02*
Y225594D01*
G03X223254Y225094I500J-0*
G01X223991*
X225691Y223394D02*
G03X223991Y225094I-1700J-0D01*
G01X225691Y223394D02*
Y222257D01*
G03X226191Y221757I500J-0*
G01X226749*
X226972Y221746D02*
G03X226749Y221757I-223J-2289D01*
G01X226972Y221746D02*
G03X227020Y221744I48J498D01*
G01X227365*
G03X227855Y222144I-0J500*
G01X229521Y223506D02*
G03X227855Y222144I-0J-1700D01*
G01X229521Y223506D02*
X235427D01*
X237093Y222144D02*
G03X235427Y223506I-1666J-338D01*
G01X237093Y222144D02*
G03X237583Y221744I490J100D01*
G01X237901*
G03X238358Y222042I0J500*
G01X239913Y223055D02*
G03X238358Y222042I0J-1700D01*
G01X239913Y223055D02*
X243063D01*
X244763Y221355D02*
G03X243063Y223055I-1700J-0D01*
G01X244763Y221355D02*
Y217574D01*
X244457Y216601D02*
G03X244763Y217574I-1394J973D01*
G01X244457Y216601D02*
G03X244367Y216315I410J-286D01*
X244457Y216029I500J0*
G01X244763Y215056D02*
G03X244457Y216029I-1700J-0D01*
G01X244763Y215056D02*
Y211276D01*
X243063Y209576D02*
G03X244763Y211276I-0J1700D01*
G01X243063Y209576D02*
X239913D01*
X238213Y211276D02*
G03X239913Y209576I1700J-0D01*
G01X238213Y211276D02*
Y215056D01*
X238520Y216029D02*
G03X238213Y215056I1393J-973D01*
G01X238520Y216029D02*
G03X238610Y216315I-410J286D01*
X238520Y216601I-500J0*
G01X238373Y216855D02*
G03X238520Y216601I1540J719D01*
G01X238373Y216855D02*
G03X237920Y217144I-453J-211D01*
G01X237583*
G03X237093Y216743I-0J-500*
G01X236047Y215499D02*
G03X237093Y216743I-620J1582D01*
G01X236047Y215499D02*
G03X235730Y215033I183J-466D01*
G01Y212830*
G03X236047Y212365I500J0*
G01X237127Y210782D02*
G03X236047Y212365I-1700J0D01*
G01X237127Y210782D02*
Y206058D01*
X235427Y204358D02*
G03X237127Y206058I-0J1700D01*
G01X235427Y204358D02*
X229521D01*
X227821Y206058D02*
G03X229521Y204358I1700J-0D01*
G01X227821Y206058D02*
Y210782D01*
X228900Y212365D02*
G03X227821Y210782I621J-1583D01*
G01X228900Y212365D02*
G03X229218Y212830I-182J465D01*
G01Y215033*
G03X228900Y215499I-500J0*
G01X227855Y216743D02*
G03X228900Y215499I1666J338D01*
G01X227855Y216743D02*
G03X227365Y217144I-490J-99D01*
G01X226762*
X226540Y217154D02*
G03X226762Y217144I222J2290D01*
G01X226540Y217154D02*
G03X226492Y217157I-48J-497D01*
G01X226191*
G03X225691Y216657I-0J-500*
G01Y215520*
X223991Y213820D02*
G03X225691Y215520I-0J1700D01*
G01X223991Y213820D02*
X216117D01*
X214417Y215520D02*
G03X216117Y213820I1700J-0D01*
G01X214417Y215520D02*
Y223394D01*
X216117Y225094D02*
G03X214417Y223394I-0J-1700D01*
G01X216117Y225094D02*
X216854D01*
G03X217354Y225594I-0J500*
G01Y229124*
G03X217352Y229169I-500J-0*
G01X217341Y229413D02*
G03X217352Y229169I2700J0D01*
G01X217341Y229413D02*
Y230124D01*
G03X217119Y230540I-500J0*
G01X214797Y234894D02*
G03X217119Y230540I5244J-0D01*
G01X216206Y238470D02*
G03X214797Y234894I3835J-3576D01*
G01X216206Y238470D02*
G03X216341Y238811I-365J341D01*
G01Y246747*
X217424Y249363D02*
G03X216341Y246747I2617J-2616D01*
G01X217424Y249363D02*
X220070Y252009D01*
X222686Y253092D02*
G03X220070Y252009I0J-3700D01*
G01X222686Y253092D02*
X305209D01*
X307825Y252009D02*
G03X305209Y253092I-2616J-2617D01*
G01X307825Y252009D02*
X311628Y248206D01*
X312013Y247753D02*
G03X311628Y248206I-3001J-2164D01*
G01X312013Y247753D02*
G03X312918Y248025I406J293D01*
G01X316990Y255471D02*
G03X312918Y248025I5494J-7841D01*
G01X316990Y255471D02*
G03X317203Y255880I-287J409D01*
X316703Y256380I-500J0*
G01X115666*
G03X115166Y255880I0J-500*
X115379Y255471I500J0*
G01X119460Y247630D02*
G03X115379Y255471I-9574J-0D01*
G01X102011Y242184D02*
G03X119460Y247630I7875J5446D01*
G01X102011Y242184D02*
G03X101100Y241900I-411J-284D01*
G01Y115565*
X187660Y101600D02*
G03X188160Y101100I500J0D01*
G01X288813*
G03X289313Y101600I0J500*
X289252Y101840I-500J0*
G01X288922Y103065D02*
G03X289252Y101840I2699J70D01*
G01X288922Y103065D02*
X288909Y103581D01*
G03X288709Y103968I-500J-13*
G01X286988Y106563D02*
G03X288709Y103968I4515J1125D01*
G01X286988Y106563D02*
G03X286018I-485J-120D01*
G01X276988D02*
G03X286018I4515J1125D01*
G01X276988D02*
G03X276018I-485J-120D01*
G01X266988D02*
G03X276018I4515J1125D01*
G01X266988D02*
G03X266018I-485J-120D01*
G01X256988D02*
G03X266018I4515J1125D01*
G01X256988D02*
G03X256018I-485J-120D01*
G01X246988D02*
G03X256018I4515J1125D01*
G01X246988D02*
G03X246018I-485J-120D01*
G01X236850Y107688D02*
G03X246018Y106563I4653J0D01*
G01Y108813D02*
G03X236850Y107688I-4515J-1125D01*
G01X246018Y108813D02*
G03X246988I485J120D01*
G01X256018D02*
G03X246988I-4515J-1125D01*
G01X256018D02*
G03X256988I485J120D01*
G01X266018D02*
G03X256988I-4515J-1125D01*
G01X266018D02*
G03X266988I485J120D01*
G01X269065Y111651D02*
G03X266988Y108813I2438J-3963D01*
G01X269065Y111651D02*
G03X269303Y112077I-262J426D01*
G01Y114494*
X269947Y116050D02*
G03X269303Y114494I1556J-1556D01*
G01X269947Y116050D02*
X272055Y118158D01*
X273611Y118802D02*
G03X272055Y118158I0J-2200D01*
G01X273611Y118802D02*
X279149D01*
X279599Y118756D02*
G03X279149Y118802I-450J-2154D01*
G01X279599Y118756D02*
G03X279701Y118745I102J489D01*
G01X283091*
G03X283591Y119245I-0J500*
X283555Y119430I-500J-0*
G01X283434Y120061D02*
G03X283555Y119430I1700J-0D01*
G01X283434Y120061D02*
Y123861D01*
X284327Y125357D02*
G03X283434Y123861I807J-1496D01*
G01X284327Y125357D02*
G03X284590Y125797I-237J440D01*
X284331Y126235I-500J0*
G01X283600Y127029D02*
G03X284331Y126235I1551J696D01*
G01X283600Y127029D02*
G03X283143Y127325I-457J-204D01*
G01X281335*
G03X280835Y126825I-0J-500*
X280892Y126593I500J-0*
G01X281200Y125340D02*
G03X280892Y126593I-2700J0D01*
G01X275800Y125340D02*
G03X281200I2700J0D01*
G01X276141Y126653D02*
G03X275800Y125340I2359J-1313D01*
G01X276141Y126653D02*
G03X276204Y126896I-437J243D01*
G01Y128386*
X276878Y130012D02*
G03X276204Y128386I1626J-1626D01*
G01X276878Y130012D02*
X278116Y131251D01*
X279743Y131925D02*
G03X278116Y131251I-0J-2300D01*
G01X279743Y131925D02*
X283143D01*
G03X283600Y132220I0J500*
G01X285151Y133225D02*
G03X283600Y132220I-0J-1700D01*
G01X285151Y133225D02*
X288951D01*
X289917Y132924D02*
G03X288951Y133225I-966J-1399D01*
G01X289917Y132924D02*
G03X290485I284J411D01*
G01X291451Y133225D02*
G03X290485Y132924I-0J-1700D01*
G01X291451Y133225D02*
X293812D01*
G03X294312Y133725I-0J500*
G01X294312*
G03X294310Y133768I-500J-0*
G01X294300Y134000D02*
G03X294310Y133768I2700J0D01*
G01X294300Y134000D02*
X294300D01*
X294722Y135449D02*
G03X294300Y134000I2278J-1449D01*
G01X294722Y135449D02*
G03X294800Y135718I-422J269D01*
G01Y136030*
G03X294654Y136383I-500J-0*
G01X293683Y137354*
G03X293330Y137500I-353J-354*
G01X292000*
X291917Y137507D02*
G03X292000Y137500I83J493D01*
G01X291917Y137507D02*
G03X291833Y137514I-84J-493D01*
G01X274453*
G03X273953Y137014I0J-500*
G01Y126292*
X273309Y124736D02*
G03X273953Y126292I-1556J1556D01*
G01X273309Y124736D02*
X264115Y115542D01*
X262559Y114898D02*
G03X264115Y115542I0J2200D01*
G01X262559Y114898D02*
X188160D01*
G03X187660Y114398I0J-500*
G01Y101622*
Y101611D02*
G03Y101622I-500J11D01*
G01Y101611D02*
G03Y101600I500J-11D01*
G01X308895Y137000D02*
G03X309042Y136646I500J0D01*
G01X310315Y135373*
X311106Y133464D02*
G03X310315Y135373I-2700J0D01*
G01X311106Y133464D02*
Y104672D01*
X310315Y102763D02*
G03X311106Y104672I-1909J1909D01*
G01X310315Y102763D02*
X309506Y101954D01*
G03X309359Y101600I353J-354*
X309859Y101100I500J0*
G01X316681*
G03X317181Y101600I-0J500*
X316969Y102009I-500J0*
G01X312910Y109835D02*
G03X316969Y102009I9574J-0D01*
G01X330276Y115397D02*
G03X312910Y109835I-7792J-5562D01*
G01X330277Y115397D02*
G03X331183Y115687I406J290D01*
G01Y137000*
G03X330683Y137500I-500J0*
G01X309395*
G03X308895Y137000I0J-500*
G01X312712Y203000D02*
G03X313212Y202500I500J0D01*
G01X330683*
G03X331183Y203000I0J500*
G01Y241777*
G03X330277Y242068I-500J0*
G01X313672Y243887D02*
G03X330276Y242068I8812J3743D01*
G01X313672Y243887D02*
G03X312712Y243691I-460J-196D01*
G01Y203000*
X303959Y222534D02*
G03X295059I-4450J0D01*
X303959I4450J0*
G01X303744Y209510D02*
G03X294844I-4450J0D01*
X303744I4450J0*
G01X292797Y208888D02*
G03X283897I-4450J0D01*
X292797I4450J0*
G01X285348Y222370D02*
G03X276448I-4450J0D01*
X285348I4450J0*
G01X285284Y234894D02*
G03X274797I-5243J-0D01*
X285284I5244J-0*
G01X265284D02*
G03X254797I-5243J-0D01*
X265284I5244J-0*
G01X245284D02*
G03X234797I-5243J-0D01*
X245284I5244J-0*
G01X214417Y199772D02*
Y207646D01*
X216117Y209346D02*
G03X214417Y207646I-0J-1700D01*
G01X216117Y209346D02*
X223991D01*
X225691Y207646D02*
G03X223991Y209346I-1700J-0D01*
G01X225691Y207646D02*
Y199772D01*
X223991Y198072D02*
G03X225691Y199772I-0J1700D01*
G01X223991Y198072D02*
X216117D01*
X214417Y199772D02*
G03X216117Y198072I1700J-0D01*
G01X199920Y183888D02*
G03X196483Y181290I-737J-2598D01*
G01X199920Y183888D02*
G03X200556Y184369I136J481D01*
X200410Y184722I-500J-0*
G01X200219Y184914*
G03X199974Y185048I-354J-354*
G01X197860Y187684D02*
G03X199974Y185048I2700J-0D01*
G01X203195Y188270D02*
G03X197860Y187684I-2635J-586D01*
G01X203195Y188270D02*
G03X203330Y188025I488J108D01*
G01X211795Y179560*
X212439Y178005D02*
G03X211795Y179560I-2200J-0D01*
G01X212439Y178005D02*
Y151528D01*
G03X212585Y151175I500J0*
G01X217622Y146139*
X218266Y144583D02*
G03X217622Y146139I-2200J0D01*
G01X218266Y144583D02*
Y142909D01*
G03X218271Y142841I500J0*
G01X218291Y142544D02*
G03X218271Y142841I-2200J0D01*
G01X218291Y142544D02*
Y139040D01*
G03X218369Y138772I500J0*
G01X218791Y137323D02*
G03X218369Y138772I-2700J-0D01*
G01X218791Y137323D02*
X218791D01*
X213391D02*
G03X218791I2700J-0D01*
G01X213391D02*
X213391D01*
X213813Y138772D02*
G03X213391Y137323I2278J-1449D01*
G01X213813Y138772D02*
G03X213891Y139040I-422J268D01*
G01Y140464*
G03X213459Y140959I-500J-0*
G01X211192Y143048D02*
G03X213459Y140959I2636J586D01*
G01X211192Y143048D02*
G03X211058Y143293I-488J-109D01*
G01X208286Y146065*
G03X207432Y145712I-354J-353*
G01X207432*
G03X207470Y145521I500J-0*
G01X207674Y144492D02*
G03X207470Y145521I-2700J-0D01*
G01X202274Y144492D02*
G03X207674I2700J-0D01*
G01X202718Y145976D02*
G03X202274Y144492I2256J-1484D01*
G01X202718Y145976D02*
G03X202800Y146250I-418J274D01*
G01Y159282*
G03X202722Y159551I-500J0*
G01X202300Y161000D02*
G03X202722Y159551I2700J0D01*
G01X204747Y163688D02*
G03X202300Y161000I253J-2688D01*
G01X204747Y163688D02*
G03X205200Y164186I-47J498D01*
G01Y172151*
G03X205054Y172504I-500J-0*
G01X201691Y175867*
G03X201682Y175876I-354J-353*
G01X198911Y178512*
G03X198663Y178641I-345J-362*
G01X196483Y181290D02*
G03X198663Y178641I2700J0D01*
G01X205284Y234894D02*
G03X194797I-5243J-0D01*
X205284I5244J-0*
G01X195773Y199684D02*
G03X192073Y195984I-0J-3700D01*
G01X195773Y199684D02*
X207966D01*
X210582Y198600D02*
G03X207966Y199684I-2616J-2616D01*
G01X210582Y198600D02*
X213289Y195894D01*
G03X213643Y195747I354J353*
G01X240525*
X244225Y192047D02*
G03X240525Y195747I-3700J0D01*
G01Y188347D02*
G03X244225Y192047I-0J3700D01*
G01X240525Y188347D02*
X211903D01*
X209287Y189431D02*
G03X211903Y188347I2616J2616D01*
G01X209287Y189431D02*
X206580Y192138D01*
G03X206226Y192284I-354J-354*
G01X195773*
X192073Y195984D02*
G03X195773Y192284I3700J0D01*
G01X152517Y218132D02*
G03X143350Y217008I-4514J-1124D01*
G01X152517Y218132D02*
G03X153488I486J121D01*
G01X162517D02*
G03X153488I-4514J-1124D01*
G01X162517D02*
G03X163488I486J121D01*
G01X172517D02*
G03X163488I-4514J-1124D01*
G01X172517D02*
G03X173488I486J121D01*
G01X182655Y217008D02*
G03X173488Y218132I-4652J-0D01*
G01X181344Y213770D02*
G03X182655Y217008I-3341J3238D01*
G01X181344Y213770D02*
G03X181203Y213422I359J-348D01*
G01Y211902*
G03X181703Y211402I500J0*
G01X181957*
X183657Y209702D02*
G03X181957Y211402I-1700J0D01*
G01X183657Y209702D02*
Y201828D01*
X181957Y200128D02*
G03X183657Y201828I-0J1700D01*
G01X181957Y200128D02*
X174083D01*
X172383Y201828D02*
G03X174083Y200128I1700J0D01*
G01X172383Y201828D02*
Y209702D01*
X174083Y211402D02*
G03X172383Y209702I-0J-1700D01*
G01X174083Y211402D02*
X174303D01*
G03X174803Y211902I-0J500*
G01Y213422*
G03X174662Y213770I-500J-0*
G01X173488Y215883D02*
G03X174662Y213770I4515J1125D01*
G01X173488Y215883D02*
G03X172517I-485J-120D01*
G01X163488D02*
G03X172517I4515J1125D01*
G01X163488D02*
G03X162517I-485J-120D01*
G01X153488D02*
G03X162517I4515J1125D01*
G01X153488D02*
G03X152517I-485J-120D01*
G01X143350Y217008D02*
G03X152517Y215883I4653J-0D01*
G01X146691Y155365D02*
G03X140594Y152546I-2397J-2819D01*
G01X146691Y155365D02*
G03X147014Y155246I323J381D01*
G01X150269*
G03X150622Y155392I-0J500*
G01X155865Y160635*
G03X156011Y160988I-354J353*
G01X156011*
G03X155900Y161303I-500J0*
G01X155300Y163000D02*
G03X155900Y161303I2700J0D01*
G01X156547Y165275D02*
G03X155300Y163000I1453J-2275D01*
G01X156547Y165275D02*
G03X156777Y165697I-270J422D01*
X156580Y166095I-500J-0*
G01X155722Y167209D02*
G03X156580Y166095I2494J1034D01*
G01X155722Y167209D02*
G03X154927Y167391I-462J-192D01*
G01X153463Y166833D02*
G03X154927Y167391I0J2200D01*
G01X153463Y166833D02*
X153397D01*
G03X153128Y166755I-0J-500*
G01X148979Y169033D02*
G03X153128Y166755I2700J-0D01*
G01X152526Y171596D02*
G03X148979Y169033I-847J-2563D01*
G01X152526Y171596D02*
G03X153037Y171718I157J475D01*
G01X153219Y171900*
X154774Y172544D02*
G03X153219Y171900I0J-2200D01*
G01X154774Y172544D02*
X187578D01*
X189134Y171900D02*
G03X187578Y172544I-1556J-1556D01*
G01X189134Y171900D02*
X189586Y171447D01*
G03X189939Y171301I353J354*
G01X190453*
G03X190694Y171363I-0J500*
G01X194700Y169000D02*
G03X190694Y171363I-2700J0D01*
G01X192869Y166444D02*
G03X194700Y169000I-869J2556D01*
G01X192869Y166444D02*
G03X192556Y166131I161J-474D01*
G01X191012Y164497D02*
G03X192556Y166131I-1012J2503D01*
G01X191012Y164497D02*
G03X190700Y164033I188J-464D01*
G01X190700*
G03Y164028I500J0*
G01Y164000D02*
G03Y164028I-2700J-0D01*
G01X190660Y163539D02*
G03X190700Y164000I-2660J461D01*
G01X190660Y163539D02*
G03X190653Y163454I493J-85D01*
G01X190653*
G03X191153Y162954I500J0*
G01X198179*
X200880Y160254D02*
G03X198179Y162954I-2700J0D01*
G01X200880Y160254D02*
X200880D01*
X200728Y159361D02*
G03X200880Y160254I-2548J893D01*
G01X200728Y159361D02*
G03X200700Y159196I472J-165D01*
G01Y148000*
X195300D02*
G03X200700I2700J0D01*
G01X195300D02*
Y157054D01*
G03X194800Y157554I-500J0*
G01X181038*
G03X180685Y157408I0J-500*
G01X175846Y152569*
G03X175700Y152216I354J-353*
G01Y138325*
G03X175846Y137972I500J0*
G01X177972Y135846*
G03X178325Y135700I353J354*
G01X187451*
G03X187951Y136200I-0J500*
X187693Y136637I-500J-0*
G01X186300Y139000D02*
G03X187693Y136638I2700J-0D01*
G01X186300Y139000D02*
X186300D01*
X190100Y141466D02*
G03X186300Y139000I-1100J-2466D01*
G01X190100Y141466D02*
G03X190655Y141566I204J456D01*
G01X192200Y142200D02*
G03X190655Y141566I0J-2200D01*
G01X192200Y142200D02*
X196804D01*
G03X197072Y142277I0J500*
G01X201215Y139996D02*
G03X197072Y142277I-2700J-0D01*
G01X200261Y137936D02*
G03X201215Y139996I-1746J2060D01*
G01X200261Y137936D02*
G03X200085Y137555I324J-381D01*
X200231Y137201I500J-0*
G01X205190Y132242*
G03X205543Y132096I353J354*
G01X247809*
G03X248163Y132242I0J500*
G01X250063Y134143*
X251619Y134787D02*
G03X250063Y134143I-0J-2200D01*
G01X251619Y134787D02*
X260433D01*
G03X260702Y134865I0J500*
G01X264851Y132587D02*
G03X260702Y134865I-2700J0D01*
G01X264677Y131634D02*
G03X264851Y132587I-2526J953D01*
G01X264677Y131634D02*
G03X264645Y131458I468J-176D01*
X265074Y130963I500J-0*
G01X267393Y128290D02*
G03X265074Y130963I-2700J-0D01*
G01X263244Y126012D02*
G03X267393Y128290I1449J2278D01*
G01X263244Y126012D02*
G03X262975Y126090I-269J-422D01*
G01X260152*
G03X259652Y125604I-0J-500*
G01X255480Y123419D02*
G03X259652Y125604I1473J2263D01*
G01X255480Y123419D02*
G03X255208Y123500I-272J-419D01*
G01X173290*
G03X172852Y123241I0J-500*
X172414Y123500I-438J-241*
G01X171808*
X170253Y124144D02*
G03X171808Y123500I1555J1556D01*
G01X170253Y124144D02*
X163444Y130953D01*
X162800Y132508D02*
G03X163444Y130953I2200J0D01*
G01X162800Y132508D02*
Y157282D01*
G03X162722Y157551I-500J0*
G01X162578Y157806D02*
G03X162722Y157551I2422J1194D01*
G01X162578Y157806D02*
G03X162130Y158085I-448J-221D01*
G01X161159*
G03X160805Y157939I-0J-500*
G01X153503Y150636*
X151594Y149846D02*
G03X153503Y150636I0J2700D01*
G01X151594Y149846D02*
X147014D01*
G03X146691Y149727I0J-500*
G01X140594Y152546D02*
G03X146691Y149727I3700J-0D01*
G01X111377Y220598D02*
G03X110065Y217360I3341J-3238D01*
G01X111377Y220598D02*
G03X111518Y220946I-359J348D01*
G01Y226427*
X112455Y228689D02*
G03X111518Y226427I2263J-2262D01*
G01X112455Y228689D02*
X114829Y231063D01*
X117092Y232001D02*
G03X114829Y231063I-0J-3200D01*
G01X117092Y232001D02*
X132200D01*
X132533Y231983D02*
G03X132200Y232001I-333J-3182D01*
G01X132533Y231983D02*
G03X132585Y231980I52J497D01*
G01X144243*
G03X144743Y232480I-0J500*
X144717Y232640I-500J0*
G01X144628Y233180D02*
G03X144717Y232640I1700J0D01*
G01X144628Y233180D02*
Y236980D01*
X145609Y238521D02*
G03X144628Y236980I719J-1541D01*
G01X145609Y238521D02*
G03X145898Y238974I-211J453D01*
X145674Y239391I-500J-0*
G01X143591Y243269D02*
G03X145674Y239391I4653J0D01*
G01X152759Y244394D02*
G03X143591Y243269I-4515J-1125D01*
G01X152759Y244394D02*
G03X153729I485J120D01*
G01X162759D02*
G03X153729I-4515J-1125D01*
G01X162759D02*
G03X163729I485J120D01*
G01X172759D02*
G03X163729I-4515J-1125D01*
G01X172759D02*
G03X173729I485J120D01*
G01X182897Y243269D02*
G03X173729Y244394I-4653J0D01*
G01X180772Y239363D02*
G03X182897Y243269I-2528J3906D01*
G01X180772Y239363D02*
G03X180544Y238943I272J-420D01*
G01Y238736*
G03X180789Y238306I500J0*
G01X181622Y236844D02*
G03X180789Y238306I-1700J-0D01*
G01X181622Y236844D02*
Y233044D01*
X181321Y232078D02*
G03X181622Y233044I-1399J966D01*
G01X181321Y232078D02*
G03X181233Y231794I412J-284D01*
X181321Y231510I500J-0*
G01X181506Y231162D02*
G03X181321Y231510I-1584J-618D01*
G01X181506Y231162D02*
G03X181972Y230844I466J182D01*
G01X184684*
X186240Y230200D02*
G03X184684Y230844I-1556J-1556D01*
G01X186240Y230200D02*
X189724Y226716D01*
X190368Y225160D02*
G03X189724Y226716I-2200J0D01*
G01X190368Y225160D02*
Y178549D01*
X189724Y176993D02*
G03X190368Y178549I-1556J1556D01*
G01X189724Y176993D02*
X187909Y175179D01*
X186353Y174534D02*
G03X187909Y175179I0J2200D01*
G01X186353Y174534D02*
X179883D01*
G03X179614Y174456I-0J-500*
G01X175465Y176734D02*
G03X179614Y174456I2700J0D01*
G01X175985Y178327D02*
G03X175465Y176734I2180J-1593D01*
G01X175985Y178327D02*
G03X176081Y178622I-404J295D01*
X175581Y179122I-500J0*
G01X165097*
G03X165052Y179120I0J-500*
G01X164854Y179111D02*
G03X165052Y179120I-0J2200D01*
G01X164854Y179111D02*
X157872D01*
G03X157519Y178965I0J-500*
G01X156291Y177737*
X154735Y177092D02*
G03X156291Y177737I0J2200D01*
G01X154735Y177092D02*
X153425D01*
G03X153157Y177014I0J-500*
G01X149008Y179292D02*
G03X153157Y177014I2700J0D01*
G01Y181571D02*
G03X149008Y179292I-1449J-2279D01*
G01X153157Y181571D02*
G03X153425Y181492I268J421D01*
G01X153617*
G03X153970Y181639I-0J500*
G01X155198Y182867*
X156754Y183511D02*
G03X155198Y182867I-0J-2200D01*
G01X156754Y183511D02*
X164622D01*
G03X164667Y183513I-0J500*
G01X164865Y183522D02*
G03X164667Y183513I0J-2200D01*
G01X164865Y183522D02*
X173305D01*
G03X173805Y184022I0J500*
X173482Y184490I-500J0*
G01X172383Y186080D02*
G03X173482Y184490I1700J0D01*
G01X172383Y186080D02*
Y193954D01*
X174083Y195654D02*
G03X172383Y193954I-0J-1700D01*
G01X174083Y195654D02*
X181957D01*
X183657Y193954D02*
G03X181957Y195654I-1700J0D01*
G01X183657Y193954D02*
Y186080D01*
X181957Y184380D02*
G03X183657Y186080I-0J1700D01*
G01X181957Y184380D02*
X178542D01*
G03X178042Y183880I-0J-500*
X178382Y183406I500J0*
G01X179234Y182878D02*
G03X178382Y183406I-1556J-1556D01*
G01X179234Y182878D02*
X180341Y181770D01*
G03X180586Y181636I354J354*
G01X182675Y179367D02*
G03X180586Y181636I-2675J-367D01*
G01X182675Y179367D02*
G03X183170Y178934I495J67D01*
G01X185235*
G03X185589Y179081I0J500*
G01X185822Y179314*
G03X185968Y179667I-354J353*
G01Y224042*
G03X185822Y224395I-500J-0*
G01X183919Y226298*
G03X183566Y226444I-353J-354*
G01X181972*
G03X181506Y226126I-0J-500*
G01X179922Y225044D02*
G03X181506Y226126I0J1700D01*
G01X179922Y225044D02*
X176122D01*
X174422Y226744D02*
G03X176122Y225044I1700J-0D01*
G01X174422Y226744D02*
Y230544D01*
X174723Y231510D02*
G03X174422Y230544I1399J-966D01*
G01X174723Y231510D02*
G03X174812Y231794I-411J284D01*
X174723Y232078I-500J-0*
G01X174422Y233044D02*
G03X174723Y232078I1700J-0D01*
G01X174422Y233044D02*
Y236844D01*
X175598Y238461D02*
G03X174422Y236844I524J-1617D01*
G01X175598Y238461D02*
G03X175944Y238937I-154J476D01*
G01Y238943*
G03X175716Y239363I-500J0*
G01X173729Y242145D02*
G03X175716Y239363I4515J1124D01*
G01X173729Y242145D02*
G03X172759I-485J-121D01*
G01X163729D02*
G03X172759I4515J1124D01*
G01X163729D02*
G03X162759I-485J-121D01*
G01X160772Y239363D02*
G03X162759Y242145I-2528J3906D01*
G01X160772Y239363D02*
G03X160544Y238943I272J-420D01*
G01Y238915*
G03X160846Y238456I500J-0*
G01X161872Y236895D02*
G03X160846Y238456I-1700J0D01*
G01X161872Y236895D02*
Y233095D01*
X161827Y232709D02*
G03X161872Y233095I-1655J386D01*
G01X161827Y232709D02*
G03X161814Y232596I487J-113D01*
X162314Y232096I500J0*
G01X162320*
G03X162556Y232156I-0J500*
G01X168007Y228896D02*
G03X162556Y232156I-3700J0D01*
G01Y225636D02*
G03X168007Y228896I1751J3260D01*
G01X162556Y225636D02*
G03X162320Y225696I-236J-440D01*
G01X161683*
G03X161339Y225559I-0J-500*
G01X160172Y225095D02*
G03X161339Y225559I-0J1700D01*
G01X160172Y225095D02*
X156372D01*
X155394Y225404D02*
G03X156372Y225095I978J1391D01*
G01X155394Y225404D02*
G03X155107Y225495I-287J-409D01*
G01X151262*
G03X151005Y225424I0J-500*
G01X150128Y225180D02*
G03X151005Y225424I0J1700D01*
G01X150128Y225180D02*
X146328D01*
X145351Y225490D02*
G03X146328Y225180I977J1390D01*
G01X145351Y225490D02*
G03X145063Y225580I-288J-410D01*
G01X132220*
X131887Y225598D02*
G03X132220Y225580I333J3182D01*
G01X131887Y225598D02*
G03X131835Y225601I-52J-497D01*
G01X118624*
G03X118271Y225454I0J-500*
G01X118064Y225247*
G03X117918Y224894I354J-353*
G01Y220946*
G03X118059Y220598I500J-0*
G01X119233Y218484D02*
G03X118059Y220598I-4515J-1124D01*
G01X119233Y218484D02*
G03X120203I485J121D01*
G01X129371Y217360D02*
G03X120203Y218484I-4653J-0D01*
G01Y216235D02*
G03X129371Y217360I4515J1125D01*
G01X120203Y216235D02*
G03X119233I-485J-121D01*
G01X118059Y214121D02*
G03X119233Y216235I-3341J3239D01*
G01X118059Y214121D02*
G03X117918Y213773I359J-348D01*
G01Y173732*
G03X118064Y173378I500J-0*
G01X125078Y166365*
X126015Y164102D02*
G03X125078Y166365I-3200J0D01*
G01X126015Y164102D02*
X126015D01*
X121903Y161035D02*
G03X126015Y164102I912J3067D01*
G01X121903Y161035D02*
X121903D01*
X120545Y161846D02*
G03X121903Y161035I2270J2256D01*
G01X120545Y161846D02*
X112455Y169936D01*
X111518Y172199D02*
G03X112455Y169936I3200J0D01*
G01X111518Y172199D02*
Y213773D01*
G03X111377Y214121I-500J0*
G01X110065Y217360D02*
G03X111377Y214121I4653J-0D01*
G01X111388Y151223D02*
G03X107239Y148945I-1449J-2278D01*
G01X111388Y151223D02*
G03X111657Y151145I269J422D01*
G01X134377*
X135933Y150501D02*
G03X134377Y151145I-1556J-1556D01*
G01X135933Y150501D02*
X144234Y142200D01*
X144878Y140644D02*
G03X144234Y142200I-2200J0D01*
G01X144878Y140644D02*
Y131629D01*
G03X144956Y131360I500J-0*
G01X145378Y129911D02*
G03X144956Y131360I-2700J-0D01*
G01X145378Y129911D02*
X145378D01*
X139978D02*
G03X145378I2700J-0D01*
G01X139978D02*
X139978D01*
X140400Y131360D02*
G03X139978Y129911I2278J-1449D01*
G01X140400Y131360D02*
G03X140478Y131629I-422J269D01*
G01Y139526*
G03X140332Y139879I-500J-0*
G01X133612Y146599*
G03X133259Y146745I-353J-354*
G01X111657*
G03X111388Y146667I-0J-500*
G01X107239Y148945D02*
G03X111388Y146667I2700J-0D01*
G01X278500Y198943D02*
X305312D01*
X278500Y198043D02*
X305312D01*
X278500Y197143D02*
X305312D01*
X278500Y196243D02*
X305312D01*
X278500Y195343D02*
X305312D01*
X278500Y194443D02*
X305312D01*
X278500Y193543D02*
X305312D01*
X278500Y192643D02*
X305312D01*
X278500Y191743D02*
X305312D01*
X278500Y190843D02*
X305312D01*
X278500Y189943D02*
X305312D01*
X278500Y189043D02*
X305312D01*
X278500Y188143D02*
X305312D01*
X278500Y187243D02*
X305312D01*
X278500Y186343D02*
X305312D01*
X278500Y185443D02*
X305312D01*
X278500Y184543D02*
X305312D01*
X278500Y183643D02*
X305312D01*
X278500Y182743D02*
X305312D01*
X278500Y181843D02*
X305312D01*
X278500Y180943D02*
X305312D01*
X278500Y180043D02*
X305312D01*
X278500Y179143D02*
X305312D01*
X290437Y178243D02*
X305312D01*
X290500Y177343D02*
X305312D01*
X290500Y176443D02*
X305312D01*
X290500Y175543D02*
X305312D01*
X290500Y174643D02*
X305312D01*
X290500Y173743D02*
X305312D01*
X290500Y172843D02*
X305312D01*
X290500Y171943D02*
X305312D01*
X290500Y171043D02*
X304892D01*
X290500Y170143D02*
X303992D01*
X290500Y169243D02*
X303092D01*
X294364Y168343D02*
X302192D01*
X294500Y167443D02*
X301292D01*
X294500Y166543D02*
X300392D01*
X294500Y165643D02*
X299492D01*
X294500Y164743D02*
X298592D01*
X294500Y163843D02*
X297692D01*
X294500Y146743D02*
X297604D01*
X294500Y145843D02*
X297604D01*
X294500Y144943D02*
X297604D01*
X295685Y144043D02*
X297604D01*
X294500Y147643D02*
X297570D01*
X294500Y148543D02*
X296986D01*
X294500Y162943D02*
X296927D01*
X294500Y149443D02*
X296678D01*
X294500Y159343D02*
X296604D01*
X294500Y158443D02*
X296604D01*
X294500Y157543D02*
X296604D01*
X294500Y156643D02*
X296604D01*
X294500Y155743D02*
X296604D01*
X294500Y154843D02*
X296604D01*
X294500Y153943D02*
X296604D01*
X294500Y153043D02*
X296604D01*
X294500Y152143D02*
X296604D01*
X294500Y151243D02*
X296604D01*
X294500Y150343D02*
X296604D01*
X294500Y162043D02*
X296521D01*
X294500Y160243D02*
X296442D01*
X294500Y161143D02*
X296370D01*
X312712Y198999D02*
X329500D01*
X312712Y198099D02*
X329500D01*
X312712Y197199D02*
X329500D01*
X312712Y196299D02*
X329500D01*
X312712Y195399D02*
X329500D01*
X312712Y194499D02*
X329500D01*
X312712Y193599D02*
X329500D01*
X312712Y192699D02*
X329500D01*
X312712Y191799D02*
X329500D01*
X312712Y190899D02*
X329500D01*
X312712Y189999D02*
X329500D01*
X312712Y189099D02*
X329500D01*
X312712Y188199D02*
X329500D01*
X312712Y187299D02*
X329500D01*
X312712Y186399D02*
X329500D01*
X312712Y185499D02*
X329500D01*
X312712Y184599D02*
X329500D01*
X312712Y183699D02*
X329500D01*
X312712Y182799D02*
X329500D01*
X312712Y181899D02*
X329500D01*
X312712Y180999D02*
X329500D01*
X312712Y180099D02*
X329500D01*
X312712Y179199D02*
X329500D01*
X312712Y178299D02*
X329500D01*
X312712Y177399D02*
X329500D01*
X312712Y176499D02*
X329500D01*
X312712Y175599D02*
X329500D01*
X312712Y174699D02*
X329500D01*
X312712Y173799D02*
X329500D01*
X312712Y172899D02*
X329500D01*
X312712Y171999D02*
X329500D01*
X312712Y171099D02*
X329500D01*
X312712Y170199D02*
X329500D01*
X312657Y169299D02*
X329500D01*
X312380Y168399D02*
X329500D01*
X311800Y167499D02*
X329500D01*
X310913Y166599D02*
X329500D01*
X310013Y165699D02*
X329500D01*
X309113Y164799D02*
X329500D01*
X308213Y163899D02*
X329500D01*
X307313Y162999D02*
X329500D01*
X306413Y162099D02*
X329500D01*
X305513Y161199D02*
X329500D01*
X304613Y160299D02*
X329500D01*
X304004Y159399D02*
X329500D01*
X304004Y158499D02*
X329500D01*
X304004Y157599D02*
X329500D01*
X304004Y156699D02*
X329500D01*
X304047Y155799D02*
X329500D01*
X304007Y154899D02*
X329500D01*
X304004Y153999D02*
X329500D01*
X304004Y153099D02*
X329500D01*
X304004Y152199D02*
X329500D01*
X304004Y151299D02*
X329500D01*
X304004Y150399D02*
X329500D01*
X303941Y149499D02*
X329500D01*
X303649Y148599D02*
X329500D01*
X303064Y147699D02*
X329500D01*
X303004Y146799D02*
X329500D01*
X303004Y145899D02*
X329500D01*
X303004Y144999D02*
X329500D01*
X303004Y144099D02*
X329500D01*
X303004Y143199D02*
X329500D01*
X303390Y142299D02*
X329500D01*
X304290Y141399D02*
X329500D01*
X115166Y255899D02*
X317203D01*
X115998Y254999D02*
X316372D01*
X116944Y254099D02*
X315426D01*
X117673Y253199D02*
X314696D01*
X307499Y252299D02*
X314126D01*
X308435Y251399D02*
X313683D01*
X309335Y250499D02*
X313350D01*
X310235Y249599D02*
X313115D01*
X311135Y248699D02*
X312970D01*
X311980Y247799D02*
X312853D01*
X223741Y243299D02*
X305312D01*
X223741Y242399D02*
X305312D01*
X223741Y241499D02*
X305312D01*
X223741Y240599D02*
X305312D01*
X302139Y239699D02*
X305312D01*
X303540Y238799D02*
X305312D01*
X304119Y231599D02*
X305312D01*
X303186Y230699D02*
X305312D01*
X301279Y229799D02*
X305312D01*
X222754Y228899D02*
X305312D01*
X222754Y227999D02*
X305312D01*
X222754Y227099D02*
X305312D01*
X302033Y226199D02*
X305312D01*
X302996Y225299D02*
X305312D01*
X303549Y224399D02*
X305312D01*
X303853Y223499D02*
X305312D01*
X303959Y222599D02*
X305312D01*
X303880Y221699D02*
X305312D01*
X303607Y220799D02*
X305312D01*
X303095Y219899D02*
X305312D01*
X302212Y218999D02*
X305312D01*
X299870Y218099D02*
X305312D01*
X244721Y217199D02*
X305312D01*
X244367Y216299D02*
X305312D01*
X244728Y215399D02*
X305312D01*
X244763Y214499D02*
X305312D01*
X301050Y213599D02*
X305312D01*
X302398Y212699D02*
X305312D01*
X303110Y211799D02*
X305312D01*
X303522Y210899D02*
X305312D01*
X303717Y209999D02*
X305312D01*
X303725Y209099D02*
X305312D01*
X303546Y208199D02*
X305312D01*
X303156Y207299D02*
X305312D01*
X302476Y206399D02*
X305312D01*
X301221Y205499D02*
X305312D01*
X289532Y204599D02*
X305312D01*
X225691Y203699D02*
X305312D01*
X304337Y237899D02*
X305273D01*
X225691Y202799D02*
X305269D01*
X223741Y244199D02*
X305170D01*
X223749Y245099D02*
X304270D01*
X282146Y218099D02*
X299148D01*
X281279Y229799D02*
X298802D01*
X282139Y239699D02*
X297942D01*
X244763Y213599D02*
X297538D01*
X291231Y205499D02*
X297367D01*
X283166Y226199D02*
X296985D01*
X283186Y230699D02*
X296895D01*
X283803Y218999D02*
X296806D01*
X283540Y238799D02*
X296542D01*
X290645Y212699D02*
X296190D01*
X292036Y206399D02*
X296112D01*
X284248Y225299D02*
X296022D01*
X284119Y231599D02*
X295962D01*
X284599Y219899D02*
X295923D01*
X284337Y237899D02*
X295744D01*
X291713Y211799D02*
X295478D01*
X284859Y224399D02*
X295469D01*
X292504Y207299D02*
X295432D01*
X285061Y220799D02*
X295411D01*
X284705Y232499D02*
X295376D01*
X284843Y236999D02*
X295238D01*
X285202Y223499D02*
X295165D01*
X285297Y221699D02*
X295138D01*
X292317Y210899D02*
X295066D01*
X285342Y222599D02*
X295059D01*
X292743Y208199D02*
X295042D01*
X285066Y233399D02*
X295015D01*
X285144Y236099D02*
X294938D01*
X292656Y209999D02*
X294871D01*
X292792Y209099D02*
X294863D01*
X285250Y234299D02*
X294831D01*
X285275Y235199D02*
X294806D01*
X236299Y204599D02*
X287162D01*
X244763Y212699D02*
X286049D01*
X237032Y205499D02*
X285463D01*
X244763Y211799D02*
X284981D01*
X237127Y206399D02*
X284658D01*
X244721Y210899D02*
X284377D01*
X237127Y207299D02*
X284190D01*
X244185Y209999D02*
X284038D01*
X237127Y208199D02*
X283951D01*
X237127Y209099D02*
X283902D01*
X244763Y218099D02*
X279650D01*
X261279Y229799D02*
X278802D01*
X222754Y226199D02*
X278630D01*
X244763Y218999D02*
X277993D01*
X262139Y239699D02*
X277942D01*
X222850Y225299D02*
X277548D01*
X244763Y219899D02*
X277197D01*
X225362Y224399D02*
X276937D01*
X263186Y230699D02*
X276895D01*
X244763Y220799D02*
X276735D01*
X235582Y223499D02*
X276594D01*
X263540Y238799D02*
X276542D01*
X244728Y221699D02*
X276499D01*
X244222Y222599D02*
X276454D01*
X264119Y231599D02*
X275962D01*
X264337Y237899D02*
X275744D01*
X225691Y201899D02*
X275500D01*
X225691Y200999D02*
X275500D01*
X225691Y200099D02*
X275500D01*
X225591Y199199D02*
X275500D01*
X224840Y198299D02*
X275500D01*
X211784Y197399D02*
X275500D01*
X212684Y196499D02*
X275500D01*
X241562Y195599D02*
X275500D01*
X243105Y194699D02*
X275500D01*
X243784Y193799D02*
X275500D01*
X244126Y192899D02*
X275500D01*
X244225Y191999D02*
X275500D01*
X244101Y191099D02*
X275500D01*
X243730Y190199D02*
X275500D01*
X243002Y189299D02*
X275500D01*
X241141Y188399D02*
X275500D01*
X203856Y187499D02*
X275500D01*
X204756Y186599D02*
X275500D01*
X205656Y185699D02*
X275500D01*
X206556Y184799D02*
X275500D01*
X207456Y183899D02*
X275500D01*
X208356Y182999D02*
X275500D01*
X209256Y182099D02*
X275500D01*
X210156Y181199D02*
X275500D01*
X211056Y180299D02*
X275500D01*
X211941Y179399D02*
X275500D01*
X212383Y178499D02*
X275500D01*
X212439Y177599D02*
X275500D01*
X212439Y176699D02*
X275500D01*
X212439Y175799D02*
X275500D01*
X212439Y174899D02*
X275500D01*
X212439Y173999D02*
X275500D01*
X212439Y173099D02*
X275500D01*
X212439Y172199D02*
X275500D01*
X212439Y171299D02*
X275500D01*
X212439Y170399D02*
X275500D01*
X212439Y169499D02*
X275500D01*
X212439Y168599D02*
X275500D01*
X212439Y167699D02*
X275500D01*
X212439Y166799D02*
X275500D01*
X264705Y232499D02*
X275376D01*
X264843Y236999D02*
X275238D01*
X265066Y233399D02*
X275015D01*
X265144Y236099D02*
X274938D01*
X265250Y234299D02*
X274831D01*
X265275Y235199D02*
X274806D01*
X212439Y165899D02*
X274316D01*
X212439Y164999D02*
X273011D01*
X212439Y164099D02*
X272543D01*
X212439Y162299D02*
X272489D01*
X212439Y163199D02*
X272432D01*
X212439Y161399D02*
X271633D01*
X218226Y160499D02*
X270733D01*
X223961Y159599D02*
X269833D01*
X218546Y136199D02*
X269553D01*
X217878Y135299D02*
X269553D01*
X264153Y134399D02*
X269553D01*
X264692Y133499D02*
X269553D01*
X264851Y132599D02*
X269553D01*
X264701Y131699D02*
X269553D01*
X265691Y130799D02*
X269553D01*
X266861Y129899D02*
X269553D01*
X267298Y128999D02*
X269553D01*
X267386Y128099D02*
X269553D01*
X218781Y137099D02*
X269546D01*
X267163Y127199D02*
X269506D01*
X224863Y158699D02*
X268933D01*
X266516Y126299D02*
X268648D01*
X225730Y157799D02*
X268033D01*
X259638Y125399D02*
X267748D01*
X226128Y156899D02*
X267133D01*
X259380Y124499D02*
X266848D01*
X226168Y155999D02*
X266233D01*
X258671Y123599D02*
X265948D01*
X226168Y155099D02*
X265333D01*
X172891Y122699D02*
X265048D01*
X226168Y154199D02*
X264433D01*
X217697Y121799D02*
X264148D01*
X226168Y153299D02*
X263533D01*
X218518Y120899D02*
X263248D01*
X226168Y152399D02*
X262633D01*
X218830Y119999D02*
X262348D01*
X226168Y151499D02*
X261733D01*
X226168Y150599D02*
X260833D01*
X226168Y149699D02*
X259933D01*
X226168Y148799D02*
X259033D01*
X241279Y229799D02*
X258802D01*
X242139Y239699D02*
X257942D01*
X243186Y230699D02*
X256895D01*
X243540Y238799D02*
X256542D01*
X244119Y231599D02*
X255962D01*
X244337Y237899D02*
X255744D01*
X244705Y232499D02*
X255376D01*
X244843Y236999D02*
X255238D01*
X245066Y233399D02*
X255015D01*
X245144Y236099D02*
X254938D01*
X245250Y234299D02*
X254831D01*
X245275Y235199D02*
X254806D01*
X203034Y134399D02*
X250370D01*
X203934Y133499D02*
X249419D01*
X204834Y132599D02*
X248519D01*
X222741Y229799D02*
X238802D01*
X237127Y209999D02*
X238791D01*
X236930Y222599D02*
X238755D01*
X236936Y216299D02*
X238609D01*
X237123Y210899D02*
X238256D01*
X235888Y215399D02*
X238248D01*
X235730Y214499D02*
X238213D01*
X235730Y213599D02*
X238213D01*
X235747Y212699D02*
X238213D01*
X236789Y211799D02*
X238213D01*
X223741Y239699D02*
X237942D01*
X226168Y147899D02*
X237223D01*
X223186Y230699D02*
X236895D01*
X223741Y238799D02*
X236542D01*
X224119Y231599D02*
X235962D01*
X226168Y146999D02*
X235746D01*
X224337Y237899D02*
X235744D01*
X224705Y232499D02*
X235376D01*
X224843Y236999D02*
X235238D01*
X225066Y233399D02*
X235015D01*
X225144Y236099D02*
X234938D01*
X226168Y146099D02*
X234846D01*
X225250Y234299D02*
X234831D01*
X225275Y235199D02*
X234806D01*
X226676Y145199D02*
X233433D01*
X227576Y144299D02*
X232633D01*
X229376Y142499D02*
X232347D01*
X228476Y143399D02*
X232330D01*
X225688Y223499D02*
X229366D01*
X225350Y214499D02*
X229218D01*
X190368Y213599D02*
X229218D01*
X190368Y212699D02*
X229200D01*
X225687Y215399D02*
X229059D01*
X225691Y204599D02*
X228649D01*
X190368Y211799D02*
X228158D01*
X225691Y222599D02*
X228017D01*
X225691Y216299D02*
X228012D01*
X225691Y205499D02*
X227916D01*
X190368Y210899D02*
X227825D01*
X190368Y209999D02*
X227821D01*
X224873Y209099D02*
X227821D01*
X225598Y208199D02*
X227821D01*
X225691Y207299D02*
X227821D01*
X225691Y206399D02*
X227821D01*
X218705Y137999D02*
X227671D01*
X218311Y138899D02*
X226753D01*
X218291Y139799D02*
X225853D01*
X218291Y140699D02*
X224953D01*
X218291Y141599D02*
X224053D01*
X218291Y142499D02*
X223153D01*
X218266Y143399D02*
X222268D01*
X218266Y144299D02*
X221825D01*
X212439Y155099D02*
X221768D01*
X212439Y154199D02*
X221768D01*
X212439Y153299D02*
X221768D01*
X212439Y152399D02*
X221768D01*
X212440Y151499D02*
X221768D01*
X213162Y150599D02*
X221768D01*
X214062Y149699D02*
X221768D01*
X214962Y148799D02*
X221768D01*
X215862Y147899D02*
X221768D01*
X216762Y146999D02*
X221768D01*
X217661Y146099D02*
X221768D01*
X218178Y145199D02*
X221768D01*
X118244Y252299D02*
X220397D01*
X118686Y251399D02*
X219460D01*
X119020Y250499D02*
X218560D01*
X119255Y249599D02*
X217660D01*
X187541Y228899D02*
X217354D01*
X188441Y227999D02*
X217354D01*
X189341Y227099D02*
X217354D01*
X190107Y226199D02*
X217354D01*
X201279Y229799D02*
X217341D01*
X190364Y225299D02*
X217257D01*
X119400Y248699D02*
X216897D01*
X203186Y230699D02*
X216895D01*
X179307Y247799D02*
X216493D01*
X181155Y246899D02*
X216344D01*
X182012Y245999D02*
X216341D01*
X182522Y245099D02*
X216341D01*
X182803Y244199D02*
X216341D01*
X182897Y243299D02*
X216341D01*
X182815Y242399D02*
X216341D01*
X182547Y241499D02*
X216341D01*
X182054Y240599D02*
X216341D01*
X202139Y239699D02*
X216341D01*
X203540Y238799D02*
X216341D01*
X204119Y231599D02*
X215962D01*
X212439Y160499D02*
X215886D01*
X204337Y237899D02*
X215744D01*
X204705Y232499D02*
X215376D01*
X212439Y155999D02*
X215319D01*
X210884Y198299D02*
X215268D01*
X204843Y236999D02*
X215238D01*
X190368Y209099D02*
X215234D01*
X205066Y233399D02*
X215015D01*
X205144Y236099D02*
X214938D01*
X212439Y159599D02*
X214834D01*
X205250Y234299D02*
X214831D01*
X205275Y235199D02*
X214806D01*
X190368Y214499D02*
X214758D01*
X190368Y224399D02*
X214746D01*
X212439Y156899D02*
X214621D01*
X177308Y121799D02*
X214593D01*
X209798Y199199D02*
X214516D01*
X190368Y208199D02*
X214509D01*
X212439Y158699D02*
X214432D01*
X190368Y215399D02*
X214421D01*
X190368Y223499D02*
X214420D01*
X190368Y222599D02*
X214417D01*
X190368Y221699D02*
X214417D01*
X190368Y220799D02*
X214417D01*
X190368Y219899D02*
X214417D01*
X190368Y218999D02*
X214417D01*
X190368Y218099D02*
X214417D01*
X190368Y217199D02*
X214417D01*
X190368Y216299D02*
X214417D01*
X190368Y207299D02*
X214417D01*
X190368Y206399D02*
X214417D01*
X190368Y205499D02*
X214417D01*
X190368Y204599D02*
X214417D01*
X190368Y203699D02*
X214417D01*
X190368Y202799D02*
X214417D01*
X190368Y201899D02*
X214417D01*
X190368Y200999D02*
X214417D01*
X190368Y200099D02*
X214417D01*
X212439Y157799D02*
X214370D01*
X202134Y135299D02*
X214304D01*
X201208Y139799D02*
X213891D01*
X200982Y138899D02*
X213870D01*
X201122Y140699D02*
X213832D01*
X201234Y136199D02*
X213636D01*
X200332Y137999D02*
X213477D01*
X200334Y137099D02*
X213400D01*
X200688Y141599D02*
X212054D01*
X206795Y142499D02*
X211378D01*
X203163Y188399D02*
X211287D01*
X207442Y143399D02*
X210952D01*
X207667Y144299D02*
X210052D01*
X202724Y189299D02*
X209426D01*
X207579Y145199D02*
X209152D01*
X201542Y190199D02*
X208519D01*
X207616Y146099D02*
X208248D01*
X190368Y191099D02*
X207619D01*
X190368Y191999D02*
X206719D01*
X193416Y171299D02*
X205200D01*
X194309Y170399D02*
X205200D01*
X194654Y169499D02*
X205200D01*
X194670Y168599D02*
X205200D01*
X194366Y167699D02*
X205200D01*
X193563Y166799D02*
X205200D01*
X192465Y165899D02*
X205200D01*
X191812Y164999D02*
X205200D01*
X188761Y172199D02*
X205198D01*
X190704Y164099D02*
X205192D01*
X118344Y173099D02*
X204459D01*
X117918Y173999D02*
X203559D01*
X190723Y163199D02*
X203433D01*
X199527Y142499D02*
X203152D01*
X200700Y158699D02*
X202800D01*
X200700Y157799D02*
X202800D01*
X200700Y156899D02*
X202800D01*
X200700Y155999D02*
X202800D01*
X200700Y155099D02*
X202800D01*
X200700Y154199D02*
X202800D01*
X200700Y153299D02*
X202800D01*
X200700Y152399D02*
X202800D01*
X200700Y151499D02*
X202800D01*
X200700Y150599D02*
X202800D01*
X200700Y149699D02*
X202800D01*
X200700Y148799D02*
X202800D01*
X200698Y147899D02*
X202800D01*
X200507Y146999D02*
X202800D01*
X199917Y146099D02*
X202776D01*
X200799Y159599D02*
X202692D01*
X187566Y174899D02*
X202659D01*
X199943Y162299D02*
X202633D01*
X175700Y143399D02*
X202505D01*
X175700Y145199D02*
X202368D01*
X200869Y160499D02*
X202347D01*
X200625Y161399D02*
X202330D01*
X175700Y144299D02*
X202280D01*
X188529Y175799D02*
X201759D01*
X189429Y176699D02*
X200817D01*
X190368Y184799D02*
X200334D01*
X199880Y183899D02*
X200227D01*
X190152Y177599D02*
X199871D01*
X190368Y190199D02*
X199577D01*
X190367Y178499D02*
X198925D01*
X186641Y229799D02*
X198802D01*
X190368Y185699D02*
X198730D01*
X190368Y183899D02*
X198487D01*
X190368Y189299D02*
X198396D01*
X190368Y186599D02*
X198087D01*
X190368Y188399D02*
X197956D01*
X181228Y239699D02*
X197942D01*
X190368Y187499D02*
X197866D01*
X175700Y142499D02*
X197503D01*
X190368Y179399D02*
X197257D01*
X190368Y182999D02*
X197093D01*
X185470Y230699D02*
X196895D01*
X190368Y180299D02*
X196672D01*
X190368Y182099D02*
X196607D01*
X180544Y238799D02*
X196542D01*
X190368Y181199D02*
X196485D01*
X175700Y146099D02*
X196083D01*
X181272Y231599D02*
X195962D01*
X181256Y237899D02*
X195744D01*
X175700Y146999D02*
X195493D01*
X181532Y232499D02*
X195376D01*
X175700Y147899D02*
X195302D01*
X180176Y156899D02*
X195300D01*
X179276Y155999D02*
X195300D01*
X178376Y155099D02*
X195300D01*
X177476Y154199D02*
X195300D01*
X176576Y153299D02*
X195300D01*
X175735Y152399D02*
X195300D01*
X175700Y151499D02*
X195300D01*
X175700Y150599D02*
X195300D01*
X175700Y149699D02*
X195300D01*
X175700Y148799D02*
X195300D01*
X181615Y236999D02*
X195238D01*
X181622Y233399D02*
X195015D01*
X181622Y236099D02*
X194938D01*
X181622Y234299D02*
X194831D01*
X181622Y235199D02*
X194806D01*
X190368Y199199D02*
X193941D01*
X190368Y192899D02*
X193731D01*
X190368Y198299D02*
X192886D01*
X190368Y193799D02*
X192787D01*
X190368Y197399D02*
X192354D01*
X190368Y194699D02*
X192303D01*
X190368Y196499D02*
X192109D01*
X190368Y195599D02*
X192093D01*
X189733Y141599D02*
X190689D01*
X175700D02*
X188267D01*
X177620Y136199D02*
X187951D01*
X176720Y137099D02*
X187083D01*
X175700Y140699D02*
X186901D01*
X175822Y137999D02*
X186493D01*
X175700Y139799D02*
X186421D01*
X175700Y138899D02*
X186302D01*
X117918Y223499D02*
X185968D01*
X117918Y222599D02*
X185968D01*
X126397Y221699D02*
X185968D01*
X180700Y220799D02*
X185968D01*
X181648Y219899D02*
X185968D01*
X182208Y218999D02*
X185968D01*
X182526Y218099D02*
X185968D01*
X182651Y217199D02*
X185968D01*
X182601Y216299D02*
X185968D01*
X182368Y215399D02*
X185968D01*
X181921Y214499D02*
X185968D01*
X181235Y213599D02*
X185968D01*
X181203Y212699D02*
X185968D01*
X181213Y211799D02*
X185968D01*
X183164Y210899D02*
X185968D01*
X183631Y209999D02*
X185968D01*
X183657Y209099D02*
X185968D01*
X183657Y208199D02*
X185968D01*
X183657Y207299D02*
X185968D01*
X183657Y206399D02*
X185968D01*
X183657Y205499D02*
X185968D01*
X183657Y204599D02*
X185968D01*
X183657Y203699D02*
X185968D01*
X183657Y202799D02*
X185968D01*
X183657Y201899D02*
X185968D01*
X183441Y200999D02*
X185968D01*
X117918Y200099D02*
X185968D01*
X117918Y199199D02*
X185968D01*
X117918Y198299D02*
X185968D01*
X117918Y197399D02*
X185968D01*
X117918Y196499D02*
X185968D01*
X182387Y195599D02*
X185968D01*
X183485Y194699D02*
X185968D01*
X183657Y193799D02*
X185968D01*
X183657Y192899D02*
X185968D01*
X183657Y191999D02*
X185968D01*
X183657Y191099D02*
X185968D01*
X183657Y190199D02*
X185968D01*
X183657Y189299D02*
X185968D01*
X183657Y188399D02*
X185968D01*
X183657Y187499D02*
X185968D01*
X183657Y186599D02*
X185968D01*
X183613Y185699D02*
X185968D01*
X183074Y184799D02*
X185968D01*
X178042Y183899D02*
X185968D01*
X179102Y182999D02*
X185968D01*
X180013Y182099D02*
X185968D01*
X181567Y181199D02*
X185968D01*
X182367Y180299D02*
X185968D01*
X182670Y179399D02*
X185890D01*
X117918Y224399D02*
X185818D01*
X180817Y225299D02*
X184918D01*
X181541Y226199D02*
X184018D01*
X169307Y247799D02*
X177181D01*
X117918Y174899D02*
X176185D01*
X157053Y178499D02*
X176066D01*
X169534Y238799D02*
X175925D01*
X117918Y175799D02*
X175633D01*
X156139Y177599D02*
X175607D01*
X152458Y176699D02*
X175465D01*
X171155Y246899D02*
X175333D01*
X170700Y220799D02*
X175305D01*
X171228Y239699D02*
X175261D01*
X165173Y225299D02*
X175227D01*
X169757Y212699D02*
X174803D01*
X117918Y211799D02*
X174792D01*
X161544Y237899D02*
X174789D01*
X166834Y231599D02*
X174772D01*
X171169Y213599D02*
X174770D01*
X165150Y232499D02*
X174512D01*
X166840Y226199D02*
X174512D01*
X172012Y245999D02*
X174476D01*
X172054Y240599D02*
X174434D01*
X161868Y236999D02*
X174429D01*
X167538Y230699D02*
X174429D01*
X161872Y236099D02*
X174422D01*
X161872Y235199D02*
X174422D01*
X161872Y234299D02*
X174422D01*
X161872Y233399D02*
X174422D01*
X167895Y229799D02*
X174422D01*
X168007Y228899D02*
X174422D01*
X167897Y227999D02*
X174422D01*
X167541Y227099D02*
X174422D01*
X171648Y219899D02*
X174357D01*
X171921Y214499D02*
X174084D01*
X172522Y245099D02*
X173966D01*
X172547Y241499D02*
X173941D01*
X172208Y218999D02*
X173797D01*
X117918Y183899D02*
X173790D01*
X117918Y195599D02*
X173652D01*
X172368Y215399D02*
X173637D01*
X172856Y244199D02*
X173632D01*
X172913Y242399D02*
X173575D01*
X172527Y218099D02*
X173478D01*
X117918Y184799D02*
X172965D01*
X117918Y210899D02*
X172875D01*
X136253Y122699D02*
X172813D01*
X117918Y200999D02*
X172599D01*
X117918Y194699D02*
X172554D01*
X117918Y185699D02*
X172426D01*
X117918Y209999D02*
X172409D01*
X117918Y209099D02*
X172383D01*
X117918Y208199D02*
X172383D01*
X117918Y207299D02*
X172383D01*
X117918Y206399D02*
X172383D01*
X117918Y205499D02*
X172383D01*
X117918Y204599D02*
X172383D01*
X117918Y203699D02*
X172383D01*
X117918Y202799D02*
X172383D01*
X117918Y201899D02*
X172383D01*
X117918Y193799D02*
X172383D01*
X117918Y192899D02*
X172383D01*
X117918Y191999D02*
X172383D01*
X117918Y191099D02*
X172383D01*
X117918Y190199D02*
X172383D01*
X117918Y189299D02*
X172383D01*
X117918Y188399D02*
X172383D01*
X117918Y187499D02*
X172383D01*
X117918Y186599D02*
X172383D01*
X135353Y123599D02*
X171157D01*
X137153Y121799D02*
X171004D01*
X138053Y120899D02*
X170373D01*
X138953Y119999D02*
X170158D01*
X134453Y124499D02*
X169898D01*
X133946Y125399D02*
X168998D01*
X133946Y126299D02*
X168098D01*
X133946Y127199D02*
X167198D01*
X159307Y247799D02*
X167181D01*
X160558Y238799D02*
X166954D01*
X144679Y128099D02*
X166298D01*
X159757Y212699D02*
X166248D01*
X145219Y128999D02*
X165398D01*
X161155Y246899D02*
X165333D01*
X160700Y220799D02*
X165305D01*
X161228Y239699D02*
X165261D01*
X161169Y213599D02*
X164836D01*
X145378Y129899D02*
X164498D01*
X162012Y245999D02*
X164476D01*
X162054Y240599D02*
X164434D01*
X161648Y219899D02*
X164357D01*
X161921Y214499D02*
X164084D01*
X162522Y245099D02*
X163966D01*
X162547Y241499D02*
X163941D01*
X162208Y218999D02*
X163797D01*
X162368Y215399D02*
X163637D01*
X162856Y244199D02*
X163632D01*
X145228Y130799D02*
X163598D01*
X162913Y242399D02*
X163575D01*
X162527Y218099D02*
X163478D01*
X161824Y232499D02*
X163464D01*
X160978Y225299D02*
X163441D01*
X144878Y131699D02*
X162954D01*
X159765Y156899D02*
X162800D01*
X158865Y155999D02*
X162800D01*
X157965Y155099D02*
X162800D01*
X157065Y154199D02*
X162800D01*
X156165Y153299D02*
X162800D01*
X155265Y152399D02*
X162800D01*
X154365Y151499D02*
X162800D01*
X153465Y150599D02*
X162800D01*
X146657Y149699D02*
X162800D01*
X137635Y148799D02*
X162800D01*
X138535Y147899D02*
X162800D01*
X139435Y146999D02*
X162800D01*
X140335Y146099D02*
X162800D01*
X141235Y145199D02*
X162800D01*
X142135Y144299D02*
X162800D01*
X143035Y143399D02*
X162800D01*
X143935Y142499D02*
X162800D01*
X144660Y141599D02*
X162800D01*
X144877Y140699D02*
X162800D01*
X144878Y139799D02*
X162800D01*
X144878Y138899D02*
X162800D01*
X144878Y137999D02*
X162800D01*
X144878Y137099D02*
X162800D01*
X144878Y136199D02*
X162800D01*
X144878Y135299D02*
X162800D01*
X144878Y134399D02*
X162800D01*
X144878Y133499D02*
X162800D01*
X144878Y132599D02*
X162800D01*
X160665Y157799D02*
X162582D01*
X149307Y247799D02*
X157181D01*
X125463Y165899D02*
X156735D01*
X149757Y212699D02*
X156248D01*
X125887Y164999D02*
X156185D01*
X153215Y166799D02*
X155934D01*
X124527Y161399D02*
X155826D01*
X101100Y160499D02*
X155729D01*
X150751Y225299D02*
X155565D01*
X126015Y164099D02*
X155534D01*
X125458Y162299D02*
X155393D01*
X117918Y182999D02*
X155343D01*
X151155Y246899D02*
X155333D01*
X125885Y163199D02*
X155307D01*
X150700Y220799D02*
X155305D01*
X151169Y213599D02*
X154836D01*
X101100Y159599D02*
X154829D01*
X152012Y245999D02*
X154476D01*
X117918Y182099D02*
X154430D01*
X151648Y219899D02*
X154357D01*
X151921Y214499D02*
X154084D01*
X152522Y245099D02*
X153966D01*
X101100Y158699D02*
X153929D01*
X152208Y218999D02*
X153797D01*
X152368Y215399D02*
X153637D01*
X152856Y244199D02*
X153632D01*
X119244Y172199D02*
X153591D01*
X152527Y218099D02*
X153478D01*
X101100Y157799D02*
X153029D01*
X101100Y156899D02*
X152129D01*
X145623Y155999D02*
X151229D01*
X117918Y176699D02*
X150958D01*
X120144Y171299D02*
X150211D01*
X124644Y166799D02*
X150163D01*
X117918Y181199D02*
X149796D01*
X117918Y177599D02*
X149605D01*
X121044Y170399D02*
X149350D01*
X123744Y167699D02*
X149332D01*
X117918Y180299D02*
X149202D01*
X117918Y178499D02*
X149127D01*
X121944Y169499D02*
X149020D01*
X122844Y168599D02*
X149014D01*
X117918Y179399D02*
X149010D01*
X119458Y247799D02*
X147181D01*
X117918Y212699D02*
X146248D01*
X113583Y238799D02*
X145866D01*
X118116Y225299D02*
X145705D01*
X119432Y246899D02*
X145333D01*
X127852Y220799D02*
X145305D01*
X115248Y239699D02*
X145261D01*
X101100Y237899D02*
X144898D01*
X127457Y213599D02*
X144836D01*
X101100Y232499D02*
X144742D01*
X101100Y236999D02*
X144628D01*
X101100Y236099D02*
X144628D01*
X101100Y235199D02*
X144628D01*
X101100Y234299D02*
X144628D01*
X101100Y233399D02*
X144628D01*
X119320Y245999D02*
X144476D01*
X116384Y240599D02*
X144434D01*
X128617Y219899D02*
X144357D01*
X128387Y214499D02*
X144084D01*
X119119Y245099D02*
X143966D01*
X117239Y241499D02*
X143941D01*
X129072Y218999D02*
X143797D01*
X118824Y244199D02*
X143685D01*
X117904Y242399D02*
X143673D01*
X128937Y215399D02*
X143637D01*
X118424Y243299D02*
X143591D01*
X129312Y218099D02*
X143480D01*
X129248Y216299D02*
X143404D01*
X129368Y217199D02*
X143354D01*
X101100Y155999D02*
X142965D01*
X136735Y149699D02*
X141931D01*
X101100Y155099D02*
X141616D01*
X135828Y150599D02*
X141148D01*
X101100Y154199D02*
X140984D01*
X110816Y151499D02*
X140745D01*
X133946Y128099D02*
X140677D01*
X101100Y153299D02*
X140672D01*
X101100Y152399D02*
X140597D01*
X101100Y138899D02*
X140478D01*
X101100Y137999D02*
X140478D01*
X101100Y137099D02*
X140478D01*
X101100Y136199D02*
X140478D01*
X132079Y135299D02*
X140478D01*
X133777Y134399D02*
X140478D01*
X134299Y133499D02*
X140478D01*
X134446Y132599D02*
X140478D01*
X134284Y131699D02*
X140478D01*
X101100Y139799D02*
X140397D01*
X133946Y128999D02*
X140137D01*
X133946Y130799D02*
X140128D01*
X133946Y129899D02*
X139978D01*
X101100Y140699D02*
X139512D01*
X101100Y141599D02*
X138612D01*
X101100Y142499D02*
X137712D01*
X101100Y143399D02*
X136812D01*
X101100Y144299D02*
X135912D01*
X101100Y145199D02*
X135012D01*
X101100Y146099D02*
X134112D01*
X101100Y119999D02*
X132630D01*
X112302Y119099D02*
X132141D01*
X114544Y118199D02*
X132132D01*
X115881Y117299D02*
X132132D01*
X116855Y116399D02*
X132132D01*
X117604Y115499D02*
X132132D01*
X118190Y114599D02*
X132132D01*
X118645Y113699D02*
X132132D01*
X118989Y112799D02*
X132132D01*
X119234Y111899D02*
X132132D01*
X119388Y110999D02*
X132132D01*
X119456Y110099D02*
X132132D01*
X119438Y109199D02*
X132132D01*
X119336Y108299D02*
X132132D01*
X119144Y107399D02*
X132132D01*
X118860Y106499D02*
X132132D01*
X118472Y105599D02*
X132132D01*
X117965Y104699D02*
X132132D01*
X117317Y103799D02*
X132132D01*
X116485Y102899D02*
X132132D01*
X115387Y101999D02*
X132132D01*
X101100Y120899D02*
X131830D01*
X101100Y135299D02*
X131414D01*
X101100Y121799D02*
X130930D01*
X101100Y122699D02*
X130045D01*
X101100Y134399D02*
X129716D01*
X101100Y123599D02*
X129603D01*
X101100Y130799D02*
X129546D01*
X101100Y129899D02*
X129546D01*
X101100Y128999D02*
X129546D01*
X101100Y128099D02*
X129546D01*
X101100Y127199D02*
X129546D01*
X101100Y126299D02*
X129546D01*
X101100Y125399D02*
X129546D01*
X101100Y124499D02*
X129546D01*
X101100Y131699D02*
X129208D01*
X101100Y133499D02*
X129193D01*
X101100Y132599D02*
X129046D01*
X117918Y221699D02*
X123038D01*
X117918Y213599D02*
X121979D01*
X117940Y220799D02*
X121584D01*
X101100Y161399D02*
X121103D01*
X118387Y214499D02*
X121049D01*
X118617Y219899D02*
X120819D01*
X118937Y215399D02*
X120498D01*
X119072Y218999D02*
X120363D01*
X119253Y216299D02*
X120183D01*
X101100Y162299D02*
X120093D01*
X101100Y163199D02*
X119193D01*
X101100Y164099D02*
X118293D01*
X101100Y164999D02*
X117393D01*
X101100Y165899D02*
X116493D01*
X101100Y166799D02*
X115593D01*
X101100Y231599D02*
X115539D01*
X101100Y167699D02*
X114693D01*
X101100Y230699D02*
X114465D01*
X101100Y168599D02*
X113793D01*
X101100Y229799D02*
X113565D01*
X101100Y169499D02*
X112893D01*
X101100Y228899D02*
X112665D01*
X101100Y170399D02*
X112072D01*
X101100Y227999D02*
X111931D01*
X101100Y171299D02*
X111647D01*
X101100Y227099D02*
X111589D01*
X101100Y226199D02*
X111518D01*
X101100Y225299D02*
X111518D01*
X101100Y224399D02*
X111518D01*
X101100Y223499D02*
X111518D01*
X101100Y222599D02*
X111518D01*
X101100Y221699D02*
X111518D01*
X101100Y213599D02*
X111518D01*
X101100Y212699D02*
X111518D01*
X101100Y211799D02*
X111518D01*
X101100Y210899D02*
X111518D01*
X101100Y209999D02*
X111518D01*
X101100Y209099D02*
X111518D01*
X101100Y208199D02*
X111518D01*
X101100Y207299D02*
X111518D01*
X101100Y206399D02*
X111518D01*
X101100Y205499D02*
X111518D01*
X101100Y204599D02*
X111518D01*
X101100Y203699D02*
X111518D01*
X101100Y202799D02*
X111518D01*
X101100Y201899D02*
X111518D01*
X101100Y200999D02*
X111518D01*
X101100Y200099D02*
X111518D01*
X101100Y199199D02*
X111518D01*
X101100Y198299D02*
X111518D01*
X101100Y197399D02*
X111518D01*
X101100Y196499D02*
X111518D01*
X101100Y195599D02*
X111518D01*
X101100Y194699D02*
X111518D01*
X101100Y193799D02*
X111518D01*
X101100Y192899D02*
X111518D01*
X101100Y191999D02*
X111518D01*
X101100Y191099D02*
X111518D01*
X101100Y190199D02*
X111518D01*
X101100Y189299D02*
X111518D01*
X101100Y188399D02*
X111518D01*
X101100Y187499D02*
X111518D01*
X101100Y186599D02*
X111518D01*
X101100Y185699D02*
X111518D01*
X101100Y184799D02*
X111518D01*
X101100Y183899D02*
X111518D01*
X101100Y182999D02*
X111518D01*
X101100Y182099D02*
X111518D01*
X101100Y181199D02*
X111518D01*
X101100Y180299D02*
X111518D01*
X101100Y179399D02*
X111518D01*
X101100Y178499D02*
X111518D01*
X101100Y177599D02*
X111518D01*
X101100Y176699D02*
X111518D01*
X101100Y175799D02*
X111518D01*
X101100Y174899D02*
X111518D01*
X101100Y173999D02*
X111518D01*
X101100Y173099D02*
X111518D01*
X101100Y172199D02*
X111518D01*
X101100Y220799D02*
X111496D01*
X101100Y214499D02*
X111049D01*
X101100Y219899D02*
X110819D01*
X101100Y215399D02*
X110498D01*
X101100Y218999D02*
X110363D01*
X101100Y216299D02*
X110188D01*
X101100Y218099D02*
X110124D01*
X101100Y217199D02*
X110068D01*
X101100Y151499D02*
X109062D01*
X101100Y146999D02*
X108068D01*
X101100Y150599D02*
X107805D01*
X101100Y119099D02*
X107469D01*
X101100Y147899D02*
X107450D01*
X101100Y149699D02*
X107346D01*
X101100Y148799D02*
X107243D01*
X101100Y238799D02*
X106188D01*
X101100Y118199D02*
X105227D01*
X101100Y239699D02*
X104523D01*
X101100Y117299D02*
X103890D01*
X101100Y240599D02*
X103387D01*
X101100Y116399D02*
X102916D01*
X101100Y241499D02*
X102532D01*
X101104Y115499D02*
X102167D01*
X101571Y242399D02*
X101629D01*
X273953Y136199D02*
X294771D01*
X273953Y135299D02*
X294633D01*
X273953Y134399D02*
X294330D01*
X273953Y133499D02*
X294258D01*
X273960Y137099D02*
X293938D01*
X187660Y101999D02*
X289172D01*
X187660Y102899D02*
X288931D01*
X284057Y103799D02*
X288852D01*
X285068Y104699D02*
X287938D01*
X285660Y105599D02*
X287346D01*
X286001Y106499D02*
X287005D01*
X281199Y125399D02*
X284392D01*
X281024Y126299D02*
X284225D01*
X273953Y132599D02*
X283833D01*
X267671Y119099D02*
X283569D01*
X281066Y124499D02*
X283558D01*
X281003Y127199D02*
X283475D01*
X268571Y119999D02*
X283435D01*
X280563Y123599D02*
X283434D01*
X279060Y122699D02*
X283434D01*
X270371Y121799D02*
X283434D01*
X269471Y120899D02*
X283434D01*
X274057Y103799D02*
X278949D01*
X273953Y131699D02*
X278749D01*
X271271Y122699D02*
X277940D01*
X275068Y104699D02*
X277938D01*
X273953Y130799D02*
X277664D01*
X275660Y105599D02*
X277346D01*
X276001Y106499D02*
X277005D01*
X273953Y129899D02*
X276772D01*
X272171Y123599D02*
X276437D01*
X273953Y128999D02*
X276287D01*
X273953Y128099D02*
X276204D01*
X273953Y127199D02*
X276204D01*
X273953Y126299D02*
X275976D01*
X273071Y124499D02*
X275934D01*
X273763Y125399D02*
X275801D01*
X266771Y118199D02*
X272098D01*
X265871Y117299D02*
X271196D01*
X264971Y116399D02*
X270296D01*
X264070Y115499D02*
X269546D01*
X187702Y114599D02*
X269305D01*
X187660Y113699D02*
X269303D01*
X187660Y112799D02*
X269303D01*
X263482Y111899D02*
X269270D01*
X264057Y103799D02*
X268949D01*
X264772Y110999D02*
X268234D01*
X265068Y104699D02*
X267938D01*
X265483Y110099D02*
X267523D01*
X265660Y105599D02*
X267346D01*
X265904Y109199D02*
X267102D01*
X266001Y106499D02*
X267005D01*
X253482Y111899D02*
X259524D01*
X254057Y103799D02*
X258949D01*
X254772Y110999D02*
X258234D01*
X255068Y104699D02*
X257938D01*
X255483Y110099D02*
X257523D01*
X255660Y105599D02*
X257346D01*
X255904Y109199D02*
X257102D01*
X256001Y106499D02*
X257005D01*
X243482Y111899D02*
X249524D01*
X244057Y103799D02*
X248949D01*
X244772Y110999D02*
X248234D01*
X245068Y104699D02*
X247938D01*
X245483Y110099D02*
X247523D01*
X245660Y105599D02*
X247346D01*
X245904Y109199D02*
X247102D01*
X246001Y106499D02*
X247005D01*
X187660Y111899D02*
X239524D01*
X187660Y103799D02*
X238949D01*
X187660Y110999D02*
X238234D01*
X187660Y104699D02*
X237938D01*
X187660Y110099D02*
X237523D01*
X187660Y105599D02*
X237346D01*
X187660Y109199D02*
X237102D01*
X187660Y106499D02*
X237005D01*
X187660Y108299D02*
X236890D01*
X187660Y107399D02*
X236859D01*
X309490Y136199D02*
X331183D01*
X310387Y135299D02*
X331183D01*
X310939Y134399D02*
X331183D01*
X311106Y133499D02*
X331183D01*
X311106Y132599D02*
X331183D01*
X311106Y131699D02*
X331183D01*
X311106Y130799D02*
X331183D01*
X311106Y129899D02*
X331183D01*
X311106Y128999D02*
X331183D01*
X311106Y128099D02*
X331183D01*
X311106Y127199D02*
X331183D01*
X311106Y126299D02*
X331183D01*
X311106Y125399D02*
X331183D01*
X311106Y124499D02*
X331183D01*
X311106Y123599D02*
X331183D01*
X311106Y122699D02*
X331183D01*
X311106Y121799D02*
X331183D01*
X311106Y120899D02*
X331183D01*
X311106Y119999D02*
X331183D01*
X324900Y119099D02*
X331183D01*
X327143Y118199D02*
X331183D01*
X328480Y117299D02*
X331183D01*
X329453Y116399D02*
X331183D01*
X308905Y137099D02*
X331174D01*
X330203Y115499D02*
X331147D01*
X311106Y119099D02*
X320068D01*
X311106Y118199D02*
X317825D01*
X309551Y101999D02*
X316982D01*
X311106Y117299D02*
X316488D01*
X310442Y102899D02*
X315884D01*
X311106Y116399D02*
X315514D01*
X310961Y103799D02*
X315052D01*
X311106Y115499D02*
X314765D01*
X311106Y104699D02*
X314404D01*
X311106Y114599D02*
X314179D01*
X311106Y105599D02*
X313898D01*
X311106Y113699D02*
X313724D01*
X311106Y106499D02*
X313510D01*
X311106Y112799D02*
X313380D01*
X311106Y107399D02*
X313225D01*
X311106Y111899D02*
X313135D01*
X311106Y108299D02*
X313034D01*
X311106Y110999D02*
X312981D01*
X311106Y109199D02*
X312931D01*
X311106Y110099D02*
X312914D01*
X329576Y241199D02*
X331183D01*
X328642Y240299D02*
X331183D01*
X327374Y239399D02*
X331183D01*
X325362Y238499D02*
X331183D01*
X312712Y237599D02*
X331183D01*
X312712Y236699D02*
X331183D01*
X312712Y235799D02*
X331183D01*
X312712Y234899D02*
X331183D01*
X312712Y233999D02*
X331183D01*
X312712Y233099D02*
X331183D01*
X312712Y232199D02*
X331183D01*
X312712Y231299D02*
X331183D01*
X312712Y230399D02*
X331183D01*
X312712Y229499D02*
X331183D01*
X312712Y228599D02*
X331183D01*
X312712Y227699D02*
X331183D01*
X312712Y226799D02*
X331183D01*
X312712Y225899D02*
X331183D01*
X312712Y224999D02*
X331183D01*
X312712Y224099D02*
X331183D01*
X312712Y223199D02*
X331183D01*
X312712Y222299D02*
X331183D01*
X312712Y221399D02*
X331183D01*
X312712Y220499D02*
X331183D01*
X312712Y219599D02*
X331183D01*
X312712Y218699D02*
X331183D01*
X312712Y217799D02*
X331183D01*
X312712Y216899D02*
X331183D01*
X312712Y215999D02*
X331183D01*
X312712Y215099D02*
X331183D01*
X312712Y214199D02*
X331183D01*
X312712Y213299D02*
X331183D01*
X312712Y212399D02*
X331183D01*
X312712Y211499D02*
X331183D01*
X312712Y210599D02*
X331183D01*
X312712Y209699D02*
X331183D01*
X312712Y208799D02*
X331183D01*
X312712Y207899D02*
X331183D01*
X312712Y206999D02*
X331183D01*
X312712Y206099D02*
X331183D01*
X312712Y205199D02*
X331183D01*
X312712Y204299D02*
X331183D01*
X312712Y203399D02*
X331183D01*
X330301Y242099D02*
X331066D01*
X312712Y238499D02*
X319606D01*
X312712Y239399D02*
X317594D01*
X312712Y240299D02*
X316326D01*
X312712Y241199D02*
X315392D01*
X312712Y242099D02*
X314669D01*
X312712Y242999D02*
X314105D01*
X312757Y243899D02*
X313667D01*
X243063Y213166D02*
X244763D01*
X241488Y211276D02*
Y209576D01*
X239913Y213166D02*
X238213D01*
X178020Y186080D02*
Y184380D01*
X181957Y190017D02*
X183657D01*
X178020Y193954D02*
Y195654D01*
X174083Y190017D02*
X172383D01*
X235427Y208420D02*
X237127D01*
X232474Y206058D02*
Y204358D01*
X229521Y208420D02*
X227821D01*
X223991Y203709D02*
X225691D01*
X220054Y207646D02*
Y209346D01*
Y199772D02*
Y198072D01*
X216117Y203709D02*
X214417D01*
X100000Y257480D02*
X332283D01*
Y100000*
X100000*
Y257480*
G54D34*
X203584Y234894D02*
X205284D01*
X200041Y238437D02*
Y240137D01*
Y231350D02*
Y229650D01*
X196497Y234894D02*
X194797D01*
X168244Y246222D02*
Y247922D01*
Y240316D02*
Y238616D01*
X158003Y219961D02*
Y221661D01*
Y214055D02*
Y212355D01*
X261503Y110641D02*
Y112341D01*
Y104735D02*
Y103035D01*
G54D35*
X232474Y219444D03*
Y208420D03*
G74*
X0Y0D02*
M02*
