*
*
G04 PADS VX.2.3 Build Number: 9191294 generated Gerber (RS-274-X) file*
G04 PC Version=2.1*
*
%IN "LockBase_ZM_V1.2_201808"*%
*
%MOIN*%
*
%FSLAX35Y35*%
*
*
*
*
G04 PC Standard Apertures*
*
*
G04 Thermal Relief Aperture macro.*
%AMTER*
1,1,$1,0,0*
1,0,$1-$2,0,0*
21,0,$3,$4,0,0,45*
21,0,$3,$4,0,0,135*
%
*
*
G04 Annular Aperture macro.*
%AMANN*
1,1,$1,0,0*
1,0,$2,0,0*
%
*
*
G04 Odd Aperture macro.*
%AMODD*
1,1,$1,0,0*
1,0,$1-0.005,0,0*
%
*
*
G04 PC Custom Aperture Macros*
*
*
*
*
*
*
G04 PC Aperture Table*
*
%ADD010C,0.001*%
%ADD039ANN,0.08087X0.05724*%
%ADD040R,0.046X0.046*%
%ADD041R,0.046X0.06*%
%ADD042R,0.04149X0.0478*%
%ADD045R,0.0478X0.04149*%
%ADD046R,0.08874X0.08874*%
%ADD049ANN,0.06906X0.04543*%
%ADD050R,0.048X0.048*%
%ADD051R,0.05724X0.08874*%
%ADD052R,0.10843X0.0415*%
%ADD053ANN,0.16748X0.08874*%
%ADD054R,0.03362X0.08874*%
%ADD079R,0.02969X0.02969*%
%ADD080R,0.02969X0.02968*%
%ADD081R,0.02968X0.02969*%
%ADD082R,0.10843X0.03362*%
%ADD083R,0.02968X0.02969*%
%ADD084R,0.02969X0.02968*%
%ADD085R,0.01984X0.02969*%
%ADD086R,0.02969X0.01984*%
%ADD087R,0.13598X0.13598*%
%ADD088C,0.0415*%
%ADD089R,0.09465X0.0474*%
%ADD090R,0.09465X0.13795*%
%ADD091R,0.05724X0.06906*%
%ADD092R,0.02969X0.19*%
%ADD093R,0.04543X0.20291*%
%ADD094R,0.20685X0.02969*%
%ADD095R,0.02969X0.11394*%
%ADD096R,0.08874X0.02969*%
%ADD097R,0.1163X0.02969*%
%ADD098R,0.02969X0.16512*%
%ADD099R,0.05528X0.06512*%
*
*
*
*
G04 PC Circuitry*
G04 Layer Name LockBase_ZM_V1.2_201808 - circuitry*
%LPD*%
*
*
G04 PC Custom Flashes*
G04 Layer Name LockBase_ZM_V1.2_201808 - flashes*
%LPD*%
*
*
G04 PC Circuitry*
G04 Layer Name LockBase_ZM_V1.2_201808 - circuitry*
%LPD*%
*
G54D10*
G01X188943Y133143D02*
X190972Y131115D01*
X193000Y133143*
X190972Y135172*
X188943Y133143*
X190887Y131200D02*
X191057D01*
X190787Y131300D02*
X191157D01*
X190687Y131400D02*
X191257D01*
X190587Y131500D02*
X191357D01*
X190487Y131600D02*
X191457D01*
X190387Y131700D02*
X191557D01*
X190287Y131800D02*
X191657D01*
X190187Y131900D02*
X191757D01*
X190087Y132000D02*
X191857D01*
X189987Y132100D02*
X191957D01*
X189887Y132200D02*
X192057D01*
X189787Y132300D02*
X192157D01*
X189687Y132400D02*
X192257D01*
X189587Y132500D02*
X192357D01*
X189487Y132600D02*
X192457D01*
X189387Y132700D02*
X192557D01*
X189287Y132800D02*
X192657D01*
X189187Y132900D02*
X192757D01*
X189087Y133000D02*
X192857D01*
X188987Y133100D02*
X192957D01*
X189000Y133200D02*
X192943D01*
X189100Y133300D02*
X192843D01*
X189200Y133400D02*
X192743D01*
X189300Y133500D02*
X192643D01*
X189400Y133600D02*
X192543D01*
X189500Y133700D02*
X192443D01*
X189600Y133800D02*
X192343D01*
X189700Y133900D02*
X192243D01*
X189800Y134000D02*
X192143D01*
X189900Y134100D02*
X192043D01*
X190000Y134200D02*
X191943D01*
X190100Y134300D02*
X191843D01*
X190200Y134400D02*
X191743D01*
X190300Y134500D02*
X191643D01*
X190400Y134600D02*
X191543D01*
X190500Y134700D02*
X191443D01*
X190600Y134800D02*
X191343D01*
X190700Y134900D02*
X191243D01*
X190800Y135000D02*
X191143D01*
X190900Y135100D02*
X191043D01*
X189000Y133087D02*
Y133200D01*
X189100Y132987D02*
Y133300D01*
X189200Y132887D02*
Y133400D01*
X189300Y132787D02*
Y133500D01*
X189400Y132687D02*
Y133600D01*
X189500Y132587D02*
Y133700D01*
X189600Y132487D02*
Y133800D01*
X189700Y132387D02*
Y133900D01*
X189800Y132287D02*
Y134000D01*
X189900Y132187D02*
Y134100D01*
X190000Y132087D02*
Y134200D01*
X190100Y131987D02*
Y134300D01*
X190200Y131887D02*
Y134400D01*
X190300Y131787D02*
Y134500D01*
X190400Y131687D02*
Y134600D01*
X190500Y131587D02*
Y134700D01*
X190600Y131487D02*
Y134800D01*
X190700Y131387D02*
Y134900D01*
X190800Y131287D02*
Y135000D01*
X190900Y131187D02*
Y135100D01*
X191000Y131143D02*
Y135143D01*
X191100Y131243D02*
Y135043D01*
X191200Y131343D02*
Y134943D01*
X191300Y131443D02*
Y134843D01*
X191400Y131543D02*
Y134743D01*
X191500Y131643D02*
Y134643D01*
X191600Y131743D02*
Y134543D01*
X191700Y131843D02*
Y134443D01*
X191800Y131943D02*
Y134343D01*
X191900Y132043D02*
Y134243D01*
X192000Y132143D02*
Y134143D01*
X192100Y132243D02*
Y134043D01*
X192200Y132343D02*
Y133943D01*
X192300Y132443D02*
Y133843D01*
X192400Y132543D02*
Y133743D01*
X192500Y132643D02*
Y133643D01*
X192600Y132743D02*
Y133543D01*
X192700Y132843D02*
Y133443D01*
X192800Y132943D02*
Y133343D01*
X192900Y133043D02*
Y133243D01*
X186438Y135649D02*
X188466Y133621D01*
X190494Y135649*
X188466Y137677*
X186438Y135649*
X188387Y133700D02*
X188546D01*
X188287Y133800D02*
X188646D01*
X188187Y133900D02*
X188746D01*
X188087Y134000D02*
X188846D01*
X187987Y134100D02*
X188946D01*
X187887Y134200D02*
X189046D01*
X187787Y134300D02*
X189146D01*
X187687Y134400D02*
X189246D01*
X187587Y134500D02*
X189346D01*
X187487Y134600D02*
X189446D01*
X187387Y134700D02*
X189546D01*
X187287Y134800D02*
X189646D01*
X187187Y134900D02*
X189746D01*
X187087Y135000D02*
X189846D01*
X186987Y135100D02*
X189946D01*
X186887Y135200D02*
X190046D01*
X186787Y135300D02*
X190146D01*
X186687Y135400D02*
X190246D01*
X186587Y135500D02*
X190346D01*
X186487Y135600D02*
X190446D01*
X186489Y135700D02*
X190443D01*
X186589Y135800D02*
X190343D01*
X186689Y135900D02*
X190243D01*
X186789Y136000D02*
X190143D01*
X186889Y136100D02*
X190043D01*
X186989Y136200D02*
X189943D01*
X187089Y136300D02*
X189843D01*
X187189Y136400D02*
X189743D01*
X187289Y136500D02*
X189643D01*
X187389Y136600D02*
X189543D01*
X187489Y136700D02*
X189443D01*
X187589Y136800D02*
X189343D01*
X187689Y136900D02*
X189243D01*
X187789Y137000D02*
X189143D01*
X187889Y137100D02*
X189043D01*
X187989Y137200D02*
X188943D01*
X188089Y137300D02*
X188843D01*
X188189Y137400D02*
X188743D01*
X188289Y137500D02*
X188643D01*
X188389Y137600D02*
X188543D01*
X186500Y135587D02*
Y135711D01*
X186600Y135487D02*
Y135811D01*
X186700Y135387D02*
Y135911D01*
X186800Y135287D02*
Y136011D01*
X186900Y135187D02*
Y136111D01*
X187000Y135087D02*
Y136211D01*
X187100Y134987D02*
Y136311D01*
X187200Y134887D02*
Y136411D01*
X187300Y134787D02*
Y136511D01*
X187400Y134687D02*
Y136611D01*
X187500Y134587D02*
Y136711D01*
X187600Y134487D02*
Y136811D01*
X187700Y134387D02*
Y136911D01*
X187800Y134287D02*
Y137011D01*
X187900Y134187D02*
Y137111D01*
X188000Y134087D02*
Y137211D01*
X188100Y133987D02*
Y137311D01*
X188200Y133887D02*
Y137411D01*
X188300Y133787D02*
Y137511D01*
X188400Y133687D02*
Y137611D01*
X188500Y133654D02*
Y137643D01*
X188600Y133754D02*
Y137543D01*
X188700Y133854D02*
Y137443D01*
X188800Y133954D02*
Y137343D01*
X188900Y134054D02*
Y137243D01*
X189000Y134154D02*
Y137143D01*
X189100Y134254D02*
Y137043D01*
X189200Y134354D02*
Y136943D01*
X189300Y134454D02*
Y136843D01*
X189400Y134554D02*
Y136743D01*
X189500Y134654D02*
Y136643D01*
X189600Y134754D02*
Y136543D01*
X189700Y134854D02*
Y136443D01*
X189800Y134954D02*
Y136343D01*
X189900Y135054D02*
Y136243D01*
X190000Y135154D02*
Y136143D01*
X190100Y135254D02*
Y136043D01*
X190200Y135354D02*
Y135943D01*
X190300Y135454D02*
Y135843D01*
X190400Y135554D02*
Y135743D01*
X220208Y111112D02*
X214561Y116759D01*
X211140Y113339*
X216788Y107691*
X220208Y111112*
X216779Y107700D02*
X216797D01*
X216679Y107800D02*
X216897D01*
X216579Y107900D02*
X216997D01*
X216479Y108000D02*
X217097D01*
X216379Y108100D02*
X217197D01*
X216279Y108200D02*
X217297D01*
X216179Y108300D02*
X217397D01*
X216079Y108400D02*
X217497D01*
X215979Y108500D02*
X217597D01*
X215879Y108600D02*
X217697D01*
X215779Y108700D02*
X217797D01*
X215679Y108800D02*
X217897D01*
X215579Y108900D02*
X217997D01*
X215479Y109000D02*
X218097D01*
X215379Y109100D02*
X218197D01*
X215279Y109200D02*
X218297D01*
X215179Y109300D02*
X218397D01*
X215079Y109400D02*
X218497D01*
X214979Y109500D02*
X218597D01*
X214879Y109600D02*
X218697D01*
X214779Y109700D02*
X218797D01*
X214679Y109800D02*
X218897D01*
X214579Y109900D02*
X218997D01*
X214479Y110000D02*
X219097D01*
X214379Y110100D02*
X219197D01*
X214279Y110200D02*
X219297D01*
X214179Y110300D02*
X219397D01*
X214079Y110400D02*
X219497D01*
X213979Y110500D02*
X219597D01*
X213879Y110600D02*
X219697D01*
X213779Y110700D02*
X219797D01*
X213679Y110800D02*
X219897D01*
X213579Y110900D02*
X219997D01*
X213479Y111000D02*
X220097D01*
X213379Y111100D02*
X220197D01*
X213279Y111200D02*
X220120D01*
X213179Y111300D02*
X220020D01*
X213079Y111400D02*
X219920D01*
X212979Y111500D02*
X219820D01*
X212879Y111600D02*
X219720D01*
X212779Y111700D02*
X219620D01*
X212679Y111800D02*
X219520D01*
X212579Y111900D02*
X219420D01*
X212479Y112000D02*
X219320D01*
X212379Y112100D02*
X219220D01*
X212279Y112200D02*
X219120D01*
X212179Y112300D02*
X219020D01*
X212079Y112400D02*
X218920D01*
X211979Y112500D02*
X218820D01*
X211879Y112600D02*
X218720D01*
X211779Y112700D02*
X218620D01*
X211679Y112800D02*
X218520D01*
X211579Y112900D02*
X218420D01*
X211479Y113000D02*
X218320D01*
X211379Y113100D02*
X218220D01*
X211279Y113200D02*
X218120D01*
X211179Y113300D02*
X218020D01*
X211202Y113400D02*
X217920D01*
X211302Y113500D02*
X217820D01*
X211402Y113600D02*
X217720D01*
X211502Y113700D02*
X217620D01*
X211602Y113800D02*
X217520D01*
X211702Y113900D02*
X217420D01*
X211802Y114000D02*
X217320D01*
X211902Y114100D02*
X217220D01*
X212002Y114200D02*
X217120D01*
X212102Y114300D02*
X217020D01*
X212202Y114400D02*
X216920D01*
X212302Y114500D02*
X216820D01*
X212402Y114600D02*
X216720D01*
X212502Y114700D02*
X216620D01*
X212602Y114800D02*
X216520D01*
X212702Y114900D02*
X216420D01*
X212802Y115000D02*
X216320D01*
X212902Y115100D02*
X216220D01*
X213002Y115200D02*
X216120D01*
X213102Y115300D02*
X216020D01*
X213202Y115400D02*
X215920D01*
X213302Y115500D02*
X215820D01*
X213402Y115600D02*
X215720D01*
X213502Y115700D02*
X215620D01*
X213602Y115800D02*
X215520D01*
X213702Y115900D02*
X215420D01*
X213802Y116000D02*
X215320D01*
X213902Y116100D02*
X215220D01*
X214002Y116200D02*
X215120D01*
X214102Y116300D02*
X215020D01*
X214202Y116400D02*
X214920D01*
X214302Y116500D02*
X214820D01*
X214402Y116600D02*
X214720D01*
X214502Y116700D02*
X214620D01*
X211200Y113279D02*
Y113398D01*
X211300Y113179D02*
Y113498D01*
X211400Y113079D02*
Y113598D01*
X211500Y112979D02*
Y113698D01*
X211600Y112879D02*
Y113798D01*
X211700Y112779D02*
Y113898D01*
X211800Y112679D02*
Y113998D01*
X211900Y112579D02*
Y114098D01*
X212000Y112479D02*
Y114198D01*
X212100Y112379D02*
Y114298D01*
X212200Y112279D02*
Y114398D01*
X212300Y112179D02*
Y114498D01*
X212400Y112079D02*
Y114598D01*
X212500Y111979D02*
Y114698D01*
X212600Y111879D02*
Y114798D01*
X212700Y111779D02*
Y114898D01*
X212800Y111679D02*
Y114998D01*
X212900Y111579D02*
Y115098D01*
X213000Y111479D02*
Y115198D01*
X213100Y111379D02*
Y115298D01*
X213200Y111279D02*
Y115398D01*
X213300Y111179D02*
Y115498D01*
X213400Y111079D02*
Y115598D01*
X213500Y110979D02*
Y115698D01*
X213600Y110879D02*
Y115798D01*
X213700Y110779D02*
Y115898D01*
X213800Y110679D02*
Y115998D01*
X213900Y110579D02*
Y116098D01*
X214000Y110479D02*
Y116198D01*
X214100Y110379D02*
Y116298D01*
X214200Y110279D02*
Y116398D01*
X214300Y110179D02*
Y116498D01*
X214400Y110079D02*
Y116598D01*
X214500Y109979D02*
Y116698D01*
X214600Y109879D02*
Y116720D01*
X214700Y109779D02*
Y116620D01*
X214800Y109679D02*
Y116520D01*
X214900Y109579D02*
Y116420D01*
X215000Y109479D02*
Y116320D01*
X215100Y109379D02*
Y116220D01*
X215200Y109279D02*
Y116120D01*
X215300Y109179D02*
Y116020D01*
X215400Y109079D02*
Y115920D01*
X215500Y108979D02*
Y115820D01*
X215600Y108879D02*
Y115720D01*
X215700Y108779D02*
Y115620D01*
X215800Y108679D02*
Y115520D01*
X215900Y108579D02*
Y115420D01*
X216000Y108479D02*
Y115320D01*
X216100Y108379D02*
Y115220D01*
X216200Y108279D02*
Y115120D01*
X216300Y108179D02*
Y115020D01*
X216400Y108079D02*
Y114920D01*
X216500Y107979D02*
Y114820D01*
X216600Y107879D02*
Y114720D01*
X216700Y107779D02*
Y114620D01*
X216800Y107703D02*
Y114520D01*
X216900Y107803D02*
Y114420D01*
X217000Y107903D02*
Y114320D01*
X217100Y108003D02*
Y114220D01*
X217200Y108103D02*
Y114120D01*
X217300Y108203D02*
Y114020D01*
X217400Y108303D02*
Y113920D01*
X217500Y108403D02*
Y113820D01*
X217600Y108503D02*
Y113720D01*
X217700Y108603D02*
Y113620D01*
X217800Y108703D02*
Y113520D01*
X217900Y108803D02*
Y113420D01*
X218000Y108903D02*
Y113320D01*
X218100Y109003D02*
Y113220D01*
X218200Y109103D02*
Y113120D01*
X218300Y109203D02*
Y113020D01*
X218400Y109303D02*
Y112920D01*
X218500Y109403D02*
Y112820D01*
X218600Y109503D02*
Y112720D01*
X218700Y109603D02*
Y112620D01*
X218800Y109703D02*
Y112520D01*
X218900Y109803D02*
Y112420D01*
X219000Y109903D02*
Y112320D01*
X219100Y110003D02*
Y112220D01*
X219200Y110103D02*
Y112120D01*
X219300Y110203D02*
Y112020D01*
X219400Y110303D02*
Y111920D01*
X219500Y110403D02*
Y111820D01*
X219600Y110503D02*
Y111720D01*
X219700Y110603D02*
Y111620D01*
X219800Y110703D02*
Y111520D01*
X219900Y110803D02*
Y111420D01*
X220000Y110903D02*
Y111320D01*
X220100Y111003D02*
Y111220D01*
X220200Y111103D02*
Y111120D01*
X212970Y103874D02*
X207323Y109521D01*
X203902Y106101*
X209550Y100453*
X212970Y103874*
X209503Y100500D02*
X209596D01*
X209403Y100600D02*
X209696D01*
X209303Y100700D02*
X209796D01*
X209203Y100800D02*
X209896D01*
X209103Y100900D02*
X209996D01*
X209003Y101000D02*
X210096D01*
X208903Y101100D02*
X210196D01*
X208803Y101200D02*
X210296D01*
X208703Y101300D02*
X210396D01*
X208603Y101400D02*
X210496D01*
X208503Y101500D02*
X210596D01*
X208403Y101600D02*
X210696D01*
X208303Y101700D02*
X210796D01*
X208203Y101800D02*
X210896D01*
X208103Y101900D02*
X210996D01*
X208003Y102000D02*
X211096D01*
X207903Y102100D02*
X211196D01*
X207803Y102200D02*
X211296D01*
X207703Y102300D02*
X211396D01*
X207603Y102400D02*
X211496D01*
X207503Y102500D02*
X211596D01*
X207403Y102600D02*
X211696D01*
X207303Y102700D02*
X211796D01*
X207203Y102800D02*
X211896D01*
X207103Y102900D02*
X211996D01*
X207003Y103000D02*
X212096D01*
X206903Y103100D02*
X212196D01*
X206803Y103200D02*
X212296D01*
X206703Y103300D02*
X212396D01*
X206603Y103400D02*
X212496D01*
X206503Y103500D02*
X212596D01*
X206403Y103600D02*
X212696D01*
X206303Y103700D02*
X212796D01*
X206203Y103800D02*
X212896D01*
X206103Y103900D02*
X212944D01*
X206003Y104000D02*
X212844D01*
X205903Y104100D02*
X212744D01*
X205803Y104200D02*
X212644D01*
X205703Y104300D02*
X212544D01*
X205603Y104400D02*
X212444D01*
X205503Y104500D02*
X212344D01*
X205403Y104600D02*
X212244D01*
X205303Y104700D02*
X212144D01*
X205203Y104800D02*
X212044D01*
X205103Y104900D02*
X211944D01*
X205003Y105000D02*
X211844D01*
X204903Y105100D02*
X211744D01*
X204803Y105200D02*
X211644D01*
X204703Y105300D02*
X211544D01*
X204603Y105400D02*
X211444D01*
X204503Y105500D02*
X211344D01*
X204403Y105600D02*
X211244D01*
X204303Y105700D02*
X211144D01*
X204203Y105800D02*
X211044D01*
X204103Y105900D02*
X210944D01*
X204003Y106000D02*
X210844D01*
X203903Y106100D02*
X210744D01*
X204002Y106200D02*
X210644D01*
X204102Y106300D02*
X210544D01*
X204202Y106400D02*
X210444D01*
X204302Y106500D02*
X210344D01*
X204402Y106600D02*
X210244D01*
X204502Y106700D02*
X210144D01*
X204602Y106800D02*
X210044D01*
X204702Y106900D02*
X209944D01*
X204802Y107000D02*
X209844D01*
X204902Y107100D02*
X209744D01*
X205002Y107200D02*
X209644D01*
X205102Y107300D02*
X209544D01*
X205202Y107400D02*
X209444D01*
X205302Y107500D02*
X209344D01*
X205402Y107600D02*
X209244D01*
X205502Y107700D02*
X209144D01*
X205602Y107800D02*
X209044D01*
X205702Y107900D02*
X208944D01*
X205802Y108000D02*
X208844D01*
X205902Y108100D02*
X208744D01*
X206002Y108200D02*
X208644D01*
X206102Y108300D02*
X208544D01*
X206202Y108400D02*
X208444D01*
X206302Y108500D02*
X208344D01*
X206402Y108600D02*
X208244D01*
X206502Y108700D02*
X208144D01*
X206602Y108800D02*
X208044D01*
X206702Y108900D02*
X207944D01*
X206802Y109000D02*
X207844D01*
X206902Y109100D02*
X207744D01*
X207002Y109200D02*
X207644D01*
X207102Y109300D02*
X207544D01*
X207202Y109400D02*
X207444D01*
X207302Y109500D02*
X207344D01*
X204000Y106003D02*
Y106198D01*
X204100Y105903D02*
Y106298D01*
X204200Y105803D02*
Y106398D01*
X204300Y105703D02*
Y106498D01*
X204400Y105603D02*
Y106598D01*
X204500Y105503D02*
Y106698D01*
X204600Y105403D02*
Y106798D01*
X204700Y105303D02*
Y106898D01*
X204800Y105203D02*
Y106998D01*
X204900Y105103D02*
Y107098D01*
X205000Y105003D02*
Y107198D01*
X205100Y104903D02*
Y107298D01*
X205200Y104803D02*
Y107398D01*
X205300Y104703D02*
Y107498D01*
X205400Y104603D02*
Y107598D01*
X205500Y104503D02*
Y107698D01*
X205600Y104403D02*
Y107798D01*
X205700Y104303D02*
Y107898D01*
X205800Y104203D02*
Y107998D01*
X205900Y104103D02*
Y108098D01*
X206000Y104003D02*
Y108198D01*
X206100Y103903D02*
Y108298D01*
X206200Y103803D02*
Y108398D01*
X206300Y103703D02*
Y108498D01*
X206400Y103603D02*
Y108598D01*
X206500Y103503D02*
Y108698D01*
X206600Y103403D02*
Y108798D01*
X206700Y103303D02*
Y108898D01*
X206800Y103203D02*
Y108998D01*
X206900Y103103D02*
Y109098D01*
X207000Y103003D02*
Y109198D01*
X207100Y102903D02*
Y109298D01*
X207200Y102803D02*
Y109398D01*
X207300Y102703D02*
Y109498D01*
X207400Y102603D02*
Y109444D01*
X207500Y102503D02*
Y109344D01*
X207600Y102403D02*
Y109244D01*
X207700Y102303D02*
Y109144D01*
X207800Y102203D02*
Y109044D01*
X207900Y102103D02*
Y108944D01*
X208000Y102003D02*
Y108844D01*
X208100Y101903D02*
Y108744D01*
X208200Y101803D02*
Y108644D01*
X208300Y101703D02*
Y108544D01*
X208400Y101603D02*
Y108444D01*
X208500Y101503D02*
Y108344D01*
X208600Y101403D02*
Y108244D01*
X208700Y101303D02*
Y108144D01*
X208800Y101203D02*
Y108044D01*
X208900Y101103D02*
Y107944D01*
X209000Y101003D02*
Y107844D01*
X209100Y100903D02*
Y107744D01*
X209200Y100803D02*
Y107644D01*
X209300Y100703D02*
Y107544D01*
X209400Y100603D02*
Y107444D01*
X209500Y100503D02*
Y107344D01*
X209600Y100504D02*
Y107244D01*
X209700Y100604D02*
Y107144D01*
X209800Y100704D02*
Y107044D01*
X209900Y100804D02*
Y106944D01*
X210000Y100904D02*
Y106844D01*
X210100Y101004D02*
Y106744D01*
X210200Y101104D02*
Y106644D01*
X210300Y101204D02*
Y106544D01*
X210400Y101304D02*
Y106444D01*
X210500Y101404D02*
Y106344D01*
X210600Y101504D02*
Y106244D01*
X210700Y101604D02*
Y106144D01*
X210800Y101704D02*
Y106044D01*
X210900Y101804D02*
Y105944D01*
X211000Y101904D02*
Y105844D01*
X211100Y102004D02*
Y105744D01*
X211200Y102104D02*
Y105644D01*
X211300Y102204D02*
Y105544D01*
X211400Y102304D02*
Y105444D01*
X211500Y102404D02*
Y105344D01*
X211600Y102504D02*
Y105244D01*
X211700Y102604D02*
Y105144D01*
X211800Y102704D02*
Y105044D01*
X211900Y102804D02*
Y104944D01*
X212000Y102904D02*
Y104844D01*
X212100Y103004D02*
Y104744D01*
X212200Y103104D02*
Y104644D01*
X212300Y103204D02*
Y104544D01*
X212400Y103304D02*
Y104444D01*
X212500Y103404D02*
Y104344D01*
X212600Y103504D02*
Y104244D01*
X212700Y103604D02*
Y104144D01*
X212800Y103704D02*
Y104044D01*
X212900Y103804D02*
Y103944D01*
G54D39*
X300041Y234894D03*
X280041D03*
X260041D03*
X240041D03*
X220041D03*
X200041D03*
G54D40*
X225344Y171126D03*
X232844D03*
X278548Y121742D03*
X286048D03*
X293692Y121836D03*
X301192D03*
G54D41*
X229094Y179126D03*
X282298Y129742D03*
X297442Y129836D03*
G54D42*
X273039Y182923D03*
Y189221D03*
X303739Y149757D03*
Y143458D03*
X297228Y149812D03*
Y143513D03*
G54D45*
X225505Y156533D03*
X231804D03*
X259667Y158742D03*
X253368D03*
X301755Y196068D03*
X308053D03*
X280231Y195958D03*
X286530D03*
X199896Y129097D03*
X206195D03*
G54D46*
X247617Y200979D03*
X263365D03*
G54D49*
X241503Y107688D03*
X251503D03*
X261503D03*
X271503D03*
X281503D03*
X291503D03*
X301503D03*
X178244Y243269D03*
X168244D03*
X158244D03*
X148244D03*
X124718Y217360D03*
X114718D03*
X178003Y217008D03*
X168003D03*
X158003D03*
X148003D03*
G54D50*
X218308Y165620D03*
Y171920D03*
X231597Y164671D03*
X225297D03*
X279256Y142358D03*
Y148658D03*
X288073Y142651D03*
Y148951D03*
X121348Y187684D03*
X115048D03*
X235158Y137996D03*
X228858D03*
X228942Y129108D03*
X235242D03*
X161614Y120729D03*
X167914D03*
G54D51*
X110102Y123848D03*
Y156919D03*
X126309Y123625D03*
Y156696D03*
G54D52*
X317138Y129642D03*
Y149327D03*
G54D53*
X322484Y109835D03*
Y247630D03*
X109886D03*
Y109835D03*
G54D54*
X286689Y163474D03*
X291689D03*
X296689D03*
X301689D03*
Y187096D03*
X296689D03*
X291689D03*
X286689D03*
G54D79*
X180856Y138379D03*
X108183Y172010D03*
X162673Y156678D03*
X144361Y156774D03*
X200116Y165523D03*
X159138Y135538D03*
X199919Y133226D03*
X180825Y127808D03*
X142664Y133105D03*
G54D80*
X177312Y138379D03*
X159129Y156678D03*
X147905Y156774D03*
X203660Y165523D03*
X162682Y135538D03*
X203463Y133226D03*
X177281Y127808D03*
G54D81*
X184805Y168169D03*
Y171712D03*
X267370Y128802D03*
Y125259D03*
X112587Y175467D03*
Y171924D03*
X168031Y155921D03*
Y159464D03*
X146811Y136517D03*
Y132974D03*
X180856Y131435D03*
Y134978D03*
X180862Y119424D03*
Y122967D03*
X150643Y136464D03*
Y132921D03*
X262044Y128783D03*
Y125240D03*
G54D82*
X169842Y164031D03*
Y169031D03*
Y174031D03*
Y179031D03*
X144370D03*
Y174031D03*
Y169031D03*
Y164031D03*
G54D83*
X108183Y175554D03*
X142664Y136649D03*
G54D84*
X203974Y151947D03*
X200431D03*
X143094Y141820D03*
X146637D03*
X203162Y136737D03*
X199619D03*
X206945Y141891D03*
X203402D03*
G54D85*
X178878Y141910D03*
X180847D03*
X182815D03*
X184784D03*
X186752D03*
X188721D03*
X190689D03*
X192658D03*
Y160020D03*
X190689D03*
X188721D03*
X186752D03*
X184784D03*
X182815D03*
X180847D03*
X178878D03*
G54D86*
X194823Y144075D03*
Y146044D03*
Y148012D03*
Y149981D03*
Y151949D03*
Y153918D03*
Y155886D03*
Y157855D03*
X176713D03*
Y155886D03*
Y153918D03*
Y151949D03*
Y149981D03*
Y148012D03*
Y146044D03*
Y144075D03*
G54D87*
X185642Y151112D03*
G54D88*
X206070Y114592D02*
X208019Y112643D01*
G54D89*
X263360Y171142D03*
Y180197D03*
Y189252D03*
G54D90*
X240525Y180197D03*
G54D91*
X253404Y150319D03*
X264428D03*
G54D92*
X180898Y111741D03*
G54D93*
X189166Y113241D03*
G54D94*
X181095Y102611D03*
G54D95*
X172236Y108792D03*
X162394D03*
X153733D03*
X143890D03*
G54D96*
X167315Y113005D03*
X148811D03*
G54D97*
X158063Y102611D03*
X139559D03*
G54D98*
X135229Y111351D03*
G54D99*
X162689Y140960D03*
Y151196D03*
X156390D03*
Y140960D03*
X0Y0D02*
M02*
