*
*
G04 PADS VX.2.3 Build Number: 9191294 generated Gerber (RS-274-X) file*
G04 PC Version=2.1*
*
%IN "LockBase_ZM_V1.2_201808"*%
*
%MOIN*%
*
%FSLAX35Y35*%
*
*
*
*
G04 PC Standard Apertures*
*
*
G04 Thermal Relief Aperture macro.*
%AMTER*
1,1,$1,0,0*
1,0,$1-$2,0,0*
21,0,$3,$4,0,0,45*
21,0,$3,$4,0,0,135*
%
*
*
G04 Annular Aperture macro.*
%AMANN*
1,1,$1,0,0*
1,0,$2,0,0*
%
*
*
G04 Odd Aperture macro.*
%AMODD*
1,1,$1,0,0*
1,0,$1-0.005,0,0*
%
*
*
G04 PC Custom Aperture Macros*
*
*
*
*
*
*
G04 PC Aperture Table*
*
%ADD010C,0.001*%
%ADD012R,0.036X0.036*%
%ADD013R,0.036X0.05*%
%ADD014R,0.03149X0.0378*%
%ADD017R,0.0378X0.03149*%
%ADD018R,0.07874X0.07874*%
%ADD022R,0.038X0.038*%
%ADD023R,0.04724X0.07874*%
%ADD024R,0.09843X0.0315*%
%ADD026R,0.02362X0.07874*%
%ADD057R,0.01969X0.01969*%
%ADD058R,0.01969X0.01968*%
%ADD059R,0.01968X0.01969*%
%ADD060R,0.09843X0.02362*%
%ADD061R,0.01968X0.01969*%
%ADD062R,0.01969X0.01968*%
%ADD063R,0.00984X0.01969*%
%ADD064R,0.01969X0.00984*%
%ADD065R,0.12598X0.12598*%
%ADD066C,0.0315*%
%ADD067R,0.08465X0.0374*%
%ADD068R,0.08465X0.12795*%
%ADD069R,0.04724X0.05906*%
%ADD070R,0.01969X0.18*%
%ADD071R,0.03543X0.19291*%
%ADD072R,0.19685X0.01969*%
%ADD073R,0.01969X0.10394*%
%ADD074R,0.07874X0.01969*%
%ADD075R,0.1063X0.01969*%
%ADD076R,0.01969X0.15512*%
%ADD077R,0.04528X0.05512*%
*
*
*
*
G04 PC Circuitry*
G04 Layer Name LockBase_ZM_V1.2_201808 - circuitry*
%LPD*%
*
*
G04 PC Custom Flashes*
G04 Layer Name LockBase_ZM_V1.2_201808 - flashes*
%LPD*%
*
*
G04 PC Circuitry*
G04 Layer Name LockBase_ZM_V1.2_201808 - circuitry*
%LPD*%
*
G54D10*
G01X189650Y133143D02*
X190972Y131822D01*
X192293Y133143*
X190972Y134465*
X189650Y133143*
X190894Y131900D02*
X191049D01*
X190794Y132000D02*
X191149D01*
X190694Y132100D02*
X191249D01*
X190594Y132200D02*
X191349D01*
X190494Y132300D02*
X191449D01*
X190394Y132400D02*
X191549D01*
X190294Y132500D02*
X191649D01*
X190194Y132600D02*
X191749D01*
X190094Y132700D02*
X191849D01*
X189994Y132800D02*
X191949D01*
X189894Y132900D02*
X192049D01*
X189794Y133000D02*
X192149D01*
X189694Y133100D02*
X192249D01*
X189707Y133200D02*
X192236D01*
X189807Y133300D02*
X192136D01*
X189907Y133400D02*
X192036D01*
X190007Y133500D02*
X191936D01*
X190107Y133600D02*
X191836D01*
X190207Y133700D02*
X191736D01*
X190307Y133800D02*
X191636D01*
X190407Y133900D02*
X191536D01*
X190507Y134000D02*
X191436D01*
X190607Y134100D02*
X191336D01*
X190707Y134200D02*
X191236D01*
X190807Y134300D02*
X191136D01*
X190907Y134400D02*
X191036D01*
X189700Y133094D02*
Y133193D01*
X189800Y132994D02*
Y133293D01*
X189900Y132894D02*
Y133393D01*
X190000Y132794D02*
Y133493D01*
X190100Y132694D02*
Y133593D01*
X190200Y132594D02*
Y133693D01*
X190300Y132494D02*
Y133793D01*
X190400Y132394D02*
Y133893D01*
X190500Y132294D02*
Y133993D01*
X190600Y132194D02*
Y134093D01*
X190700Y132094D02*
Y134193D01*
X190800Y131994D02*
Y134293D01*
X190900Y131894D02*
Y134393D01*
X191000Y131851D02*
Y134436D01*
X191100Y131951D02*
Y134336D01*
X191200Y132051D02*
Y134236D01*
X191300Y132151D02*
Y134136D01*
X191400Y132251D02*
Y134036D01*
X191500Y132351D02*
Y133936D01*
X191600Y132451D02*
Y133836D01*
X191700Y132551D02*
Y133736D01*
X191800Y132651D02*
Y133636D01*
X191900Y132751D02*
Y133536D01*
X192000Y132851D02*
Y133436D01*
X192100Y132951D02*
Y133336D01*
X192200Y133051D02*
Y133236D01*
X187145Y135649D02*
X188466Y134328D01*
X189787Y135649*
X188466Y136970*
X187145Y135649*
X188394Y134400D02*
X188538D01*
X188294Y134500D02*
X188638D01*
X188194Y134600D02*
X188738D01*
X188094Y134700D02*
X188838D01*
X187994Y134800D02*
X188938D01*
X187894Y134900D02*
X189038D01*
X187794Y135000D02*
X189138D01*
X187694Y135100D02*
X189238D01*
X187594Y135200D02*
X189338D01*
X187494Y135300D02*
X189438D01*
X187394Y135400D02*
X189538D01*
X187294Y135500D02*
X189638D01*
X187194Y135600D02*
X189738D01*
X187196Y135700D02*
X189736D01*
X187296Y135800D02*
X189636D01*
X187396Y135900D02*
X189536D01*
X187496Y136000D02*
X189436D01*
X187596Y136100D02*
X189336D01*
X187696Y136200D02*
X189236D01*
X187796Y136300D02*
X189136D01*
X187896Y136400D02*
X189036D01*
X187996Y136500D02*
X188936D01*
X188096Y136600D02*
X188836D01*
X188196Y136700D02*
X188736D01*
X188296Y136800D02*
X188636D01*
X188396Y136900D02*
X188536D01*
X187200Y135594D02*
Y135704D01*
X187300Y135494D02*
Y135804D01*
X187400Y135394D02*
Y135904D01*
X187500Y135294D02*
Y136004D01*
X187600Y135194D02*
Y136104D01*
X187700Y135094D02*
Y136204D01*
X187800Y134994D02*
Y136304D01*
X187900Y134894D02*
Y136404D01*
X188000Y134794D02*
Y136504D01*
X188100Y134694D02*
Y136604D01*
X188200Y134594D02*
Y136704D01*
X188300Y134494D02*
Y136804D01*
X188400Y134394D02*
Y136904D01*
X188500Y134362D02*
Y136936D01*
X188600Y134462D02*
Y136836D01*
X188700Y134562D02*
Y136736D01*
X188800Y134662D02*
Y136636D01*
X188900Y134762D02*
Y136536D01*
X189000Y134862D02*
Y136436D01*
X189100Y134962D02*
Y136336D01*
X189200Y135062D02*
Y136236D01*
X189300Y135162D02*
Y136136D01*
X189400Y135262D02*
Y136036D01*
X189500Y135362D02*
Y135936D01*
X189600Y135462D02*
Y135836D01*
X189700Y135562D02*
Y135736D01*
X219501Y111112D02*
X214561Y116052D01*
X211848Y113339*
X216788Y108398*
X219501Y111112*
X216786Y108400D02*
X216789D01*
X216686Y108500D02*
X216889D01*
X216586Y108600D02*
X216989D01*
X216486Y108700D02*
X217089D01*
X216386Y108800D02*
X217189D01*
X216286Y108900D02*
X217289D01*
X216186Y109000D02*
X217389D01*
X216086Y109100D02*
X217489D01*
X215986Y109200D02*
X217589D01*
X215886Y109300D02*
X217689D01*
X215786Y109400D02*
X217789D01*
X215686Y109500D02*
X217889D01*
X215586Y109600D02*
X217989D01*
X215486Y109700D02*
X218089D01*
X215386Y109800D02*
X218189D01*
X215286Y109900D02*
X218289D01*
X215186Y110000D02*
X218389D01*
X215086Y110100D02*
X218489D01*
X214986Y110200D02*
X218589D01*
X214886Y110300D02*
X218689D01*
X214786Y110400D02*
X218789D01*
X214686Y110500D02*
X218889D01*
X214586Y110600D02*
X218989D01*
X214486Y110700D02*
X219089D01*
X214386Y110800D02*
X219189D01*
X214286Y110900D02*
X219289D01*
X214186Y111000D02*
X219389D01*
X214086Y111100D02*
X219489D01*
X213986Y111200D02*
X219413D01*
X213886Y111300D02*
X219313D01*
X213786Y111400D02*
X219213D01*
X213686Y111500D02*
X219113D01*
X213586Y111600D02*
X219013D01*
X213486Y111700D02*
X218913D01*
X213386Y111800D02*
X218813D01*
X213286Y111900D02*
X218713D01*
X213186Y112000D02*
X218613D01*
X213086Y112100D02*
X218513D01*
X212986Y112200D02*
X218413D01*
X212886Y112300D02*
X218313D01*
X212786Y112400D02*
X218213D01*
X212686Y112500D02*
X218113D01*
X212586Y112600D02*
X218013D01*
X212486Y112700D02*
X217913D01*
X212386Y112800D02*
X217813D01*
X212286Y112900D02*
X217713D01*
X212186Y113000D02*
X217613D01*
X212086Y113100D02*
X217513D01*
X211986Y113200D02*
X217413D01*
X211886Y113300D02*
X217313D01*
X211909Y113400D02*
X217213D01*
X212009Y113500D02*
X217113D01*
X212109Y113600D02*
X217013D01*
X212209Y113700D02*
X216913D01*
X212309Y113800D02*
X216813D01*
X212409Y113900D02*
X216713D01*
X212509Y114000D02*
X216613D01*
X212609Y114100D02*
X216513D01*
X212709Y114200D02*
X216413D01*
X212809Y114300D02*
X216313D01*
X212909Y114400D02*
X216213D01*
X213009Y114500D02*
X216113D01*
X213109Y114600D02*
X216013D01*
X213209Y114700D02*
X215913D01*
X213309Y114800D02*
X215813D01*
X213409Y114900D02*
X215713D01*
X213509Y115000D02*
X215613D01*
X213609Y115100D02*
X215513D01*
X213709Y115200D02*
X215413D01*
X213809Y115300D02*
X215313D01*
X213909Y115400D02*
X215213D01*
X214009Y115500D02*
X215113D01*
X214109Y115600D02*
X215013D01*
X214209Y115700D02*
X214913D01*
X214309Y115800D02*
X214813D01*
X214409Y115900D02*
X214713D01*
X214509Y116000D02*
X214613D01*
X211900Y113286D02*
Y113391D01*
X212000Y113186D02*
Y113491D01*
X212100Y113086D02*
Y113591D01*
X212200Y112986D02*
Y113691D01*
X212300Y112886D02*
Y113791D01*
X212400Y112786D02*
Y113891D01*
X212500Y112686D02*
Y113991D01*
X212600Y112586D02*
Y114091D01*
X212700Y112486D02*
Y114191D01*
X212800Y112386D02*
Y114291D01*
X212900Y112286D02*
Y114391D01*
X213000Y112186D02*
Y114491D01*
X213100Y112086D02*
Y114591D01*
X213200Y111986D02*
Y114691D01*
X213300Y111886D02*
Y114791D01*
X213400Y111786D02*
Y114891D01*
X213500Y111686D02*
Y114991D01*
X213600Y111586D02*
Y115091D01*
X213700Y111486D02*
Y115191D01*
X213800Y111386D02*
Y115291D01*
X213900Y111286D02*
Y115391D01*
X214000Y111186D02*
Y115491D01*
X214100Y111086D02*
Y115591D01*
X214200Y110986D02*
Y115691D01*
X214300Y110886D02*
Y115791D01*
X214400Y110786D02*
Y115891D01*
X214500Y110686D02*
Y115991D01*
X214600Y110586D02*
Y116013D01*
X214700Y110486D02*
Y115913D01*
X214800Y110386D02*
Y115813D01*
X214900Y110286D02*
Y115713D01*
X215000Y110186D02*
Y115613D01*
X215100Y110086D02*
Y115513D01*
X215200Y109986D02*
Y115413D01*
X215300Y109886D02*
Y115313D01*
X215400Y109786D02*
Y115213D01*
X215500Y109686D02*
Y115113D01*
X215600Y109586D02*
Y115013D01*
X215700Y109486D02*
Y114913D01*
X215800Y109386D02*
Y114813D01*
X215900Y109286D02*
Y114713D01*
X216000Y109186D02*
Y114613D01*
X216100Y109086D02*
Y114513D01*
X216200Y108986D02*
Y114413D01*
X216300Y108886D02*
Y114313D01*
X216400Y108786D02*
Y114213D01*
X216500Y108686D02*
Y114113D01*
X216600Y108586D02*
Y114013D01*
X216700Y108486D02*
Y113913D01*
X216800Y108411D02*
Y113813D01*
X216900Y108511D02*
Y113713D01*
X217000Y108611D02*
Y113613D01*
X217100Y108711D02*
Y113513D01*
X217200Y108811D02*
Y113413D01*
X217300Y108911D02*
Y113313D01*
X217400Y109011D02*
Y113213D01*
X217500Y109111D02*
Y113113D01*
X217600Y109211D02*
Y113013D01*
X217700Y109311D02*
Y112913D01*
X217800Y109411D02*
Y112813D01*
X217900Y109511D02*
Y112713D01*
X218000Y109611D02*
Y112613D01*
X218100Y109711D02*
Y112513D01*
X218200Y109811D02*
Y112413D01*
X218300Y109911D02*
Y112313D01*
X218400Y110011D02*
Y112213D01*
X218500Y110111D02*
Y112113D01*
X218600Y110211D02*
Y112013D01*
X218700Y110311D02*
Y111913D01*
X218800Y110411D02*
Y111813D01*
X218900Y110511D02*
Y111713D01*
X219000Y110611D02*
Y111613D01*
X219100Y110711D02*
Y111513D01*
X219200Y110811D02*
Y111413D01*
X219300Y110911D02*
Y111313D01*
X219400Y111011D02*
Y111213D01*
X219500Y111111D02*
Y111113D01*
X212263Y103874D02*
X207323Y108814D01*
X204610Y106101*
X209550Y101161*
X212263Y103874*
X209510Y101200D02*
X209589D01*
X209410Y101300D02*
X209689D01*
X209310Y101400D02*
X209789D01*
X209210Y101500D02*
X209889D01*
X209110Y101600D02*
X209989D01*
X209010Y101700D02*
X210089D01*
X208910Y101800D02*
X210189D01*
X208810Y101900D02*
X210289D01*
X208710Y102000D02*
X210389D01*
X208610Y102100D02*
X210489D01*
X208510Y102200D02*
X210589D01*
X208410Y102300D02*
X210689D01*
X208310Y102400D02*
X210789D01*
X208210Y102500D02*
X210889D01*
X208110Y102600D02*
X210989D01*
X208010Y102700D02*
X211089D01*
X207910Y102800D02*
X211189D01*
X207810Y102900D02*
X211289D01*
X207710Y103000D02*
X211389D01*
X207610Y103100D02*
X211489D01*
X207510Y103200D02*
X211589D01*
X207410Y103300D02*
X211689D01*
X207310Y103400D02*
X211789D01*
X207210Y103500D02*
X211889D01*
X207110Y103600D02*
X211989D01*
X207010Y103700D02*
X212089D01*
X206910Y103800D02*
X212189D01*
X206810Y103900D02*
X212237D01*
X206710Y104000D02*
X212137D01*
X206610Y104100D02*
X212037D01*
X206510Y104200D02*
X211937D01*
X206410Y104300D02*
X211837D01*
X206310Y104400D02*
X211737D01*
X206210Y104500D02*
X211637D01*
X206110Y104600D02*
X211537D01*
X206010Y104700D02*
X211437D01*
X205910Y104800D02*
X211337D01*
X205810Y104900D02*
X211237D01*
X205710Y105000D02*
X211137D01*
X205610Y105100D02*
X211037D01*
X205510Y105200D02*
X210937D01*
X205410Y105300D02*
X210837D01*
X205310Y105400D02*
X210737D01*
X205210Y105500D02*
X210637D01*
X205110Y105600D02*
X210537D01*
X205010Y105700D02*
X210437D01*
X204910Y105800D02*
X210337D01*
X204810Y105900D02*
X210237D01*
X204710Y106000D02*
X210137D01*
X204610Y106100D02*
X210037D01*
X204709Y106200D02*
X209937D01*
X204809Y106300D02*
X209837D01*
X204909Y106400D02*
X209737D01*
X205009Y106500D02*
X209637D01*
X205109Y106600D02*
X209537D01*
X205209Y106700D02*
X209437D01*
X205309Y106800D02*
X209337D01*
X205409Y106900D02*
X209237D01*
X205509Y107000D02*
X209137D01*
X205609Y107100D02*
X209037D01*
X205709Y107200D02*
X208937D01*
X205809Y107300D02*
X208837D01*
X205909Y107400D02*
X208737D01*
X206009Y107500D02*
X208637D01*
X206109Y107600D02*
X208537D01*
X206209Y107700D02*
X208437D01*
X206309Y107800D02*
X208337D01*
X206409Y107900D02*
X208237D01*
X206509Y108000D02*
X208137D01*
X206609Y108100D02*
X208037D01*
X206709Y108200D02*
X207937D01*
X206809Y108300D02*
X207837D01*
X206909Y108400D02*
X207737D01*
X207009Y108500D02*
X207637D01*
X207109Y108600D02*
X207537D01*
X207209Y108700D02*
X207437D01*
X207309Y108800D02*
X207337D01*
X204700Y106010D02*
Y106191D01*
X204800Y105910D02*
Y106291D01*
X204900Y105810D02*
Y106391D01*
X205000Y105710D02*
Y106491D01*
X205100Y105610D02*
Y106591D01*
X205200Y105510D02*
Y106691D01*
X205300Y105410D02*
Y106791D01*
X205400Y105310D02*
Y106891D01*
X205500Y105210D02*
Y106991D01*
X205600Y105110D02*
Y107091D01*
X205700Y105010D02*
Y107191D01*
X205800Y104910D02*
Y107291D01*
X205900Y104810D02*
Y107391D01*
X206000Y104710D02*
Y107491D01*
X206100Y104610D02*
Y107591D01*
X206200Y104510D02*
Y107691D01*
X206300Y104410D02*
Y107791D01*
X206400Y104310D02*
Y107891D01*
X206500Y104210D02*
Y107991D01*
X206600Y104110D02*
Y108091D01*
X206700Y104010D02*
Y108191D01*
X206800Y103910D02*
Y108291D01*
X206900Y103810D02*
Y108391D01*
X207000Y103710D02*
Y108491D01*
X207100Y103610D02*
Y108591D01*
X207200Y103510D02*
Y108691D01*
X207300Y103410D02*
Y108791D01*
X207400Y103310D02*
Y108737D01*
X207500Y103210D02*
Y108637D01*
X207600Y103110D02*
Y108537D01*
X207700Y103010D02*
Y108437D01*
X207800Y102910D02*
Y108337D01*
X207900Y102810D02*
Y108237D01*
X208000Y102710D02*
Y108137D01*
X208100Y102610D02*
Y108037D01*
X208200Y102510D02*
Y107937D01*
X208300Y102410D02*
Y107837D01*
X208400Y102310D02*
Y107737D01*
X208500Y102210D02*
Y107637D01*
X208600Y102110D02*
Y107537D01*
X208700Y102010D02*
Y107437D01*
X208800Y101910D02*
Y107337D01*
X208900Y101810D02*
Y107237D01*
X209000Y101710D02*
Y107137D01*
X209100Y101610D02*
Y107037D01*
X209200Y101510D02*
Y106937D01*
X209300Y101410D02*
Y106837D01*
X209400Y101310D02*
Y106737D01*
X209500Y101210D02*
Y106637D01*
X209600Y101211D02*
Y106537D01*
X209700Y101311D02*
Y106437D01*
X209800Y101411D02*
Y106337D01*
X209900Y101511D02*
Y106237D01*
X210000Y101611D02*
Y106137D01*
X210100Y101711D02*
Y106037D01*
X210200Y101811D02*
Y105937D01*
X210300Y101911D02*
Y105837D01*
X210400Y102011D02*
Y105737D01*
X210500Y102111D02*
Y105637D01*
X210600Y102211D02*
Y105537D01*
X210700Y102311D02*
Y105437D01*
X210800Y102411D02*
Y105337D01*
X210900Y102511D02*
Y105237D01*
X211000Y102611D02*
Y105137D01*
X211100Y102711D02*
Y105037D01*
X211200Y102811D02*
Y104937D01*
X211300Y102911D02*
Y104837D01*
X211400Y103011D02*
Y104737D01*
X211500Y103111D02*
Y104637D01*
X211600Y103211D02*
Y104537D01*
X211700Y103311D02*
Y104437D01*
X211800Y103411D02*
Y104337D01*
X211900Y103511D02*
Y104237D01*
X212000Y103611D02*
Y104137D01*
X212100Y103711D02*
Y104037D01*
X212200Y103811D02*
Y103937D01*
G54D12*
X225344Y171126D03*
X232844D03*
X278548Y121742D03*
X286048D03*
X293692Y121836D03*
X301192D03*
G54D13*
X229094Y179126D03*
X282298Y129742D03*
X297442Y129836D03*
G54D14*
X273039Y182923D03*
Y189221D03*
X303739Y149757D03*
Y143458D03*
X297228Y149812D03*
Y143513D03*
G54D17*
X225505Y156533D03*
X231804D03*
X259667Y158742D03*
X253368D03*
X301755Y196068D03*
X308053D03*
X280231Y195958D03*
X286530D03*
X199896Y129097D03*
X206195D03*
G54D18*
X247617Y200979D03*
X263365D03*
G54D22*
X218308Y165620D03*
Y171920D03*
X231597Y164671D03*
X225297D03*
X279256Y142358D03*
Y148658D03*
X288073Y142651D03*
Y148951D03*
X121348Y187684D03*
X115048D03*
X235158Y137996D03*
X228858D03*
X228942Y129108D03*
X235242D03*
X161614Y120729D03*
X167914D03*
G54D23*
X110102Y123848D03*
Y156919D03*
X126309Y123625D03*
Y156696D03*
G54D24*
X317138Y129642D03*
Y149327D03*
G54D26*
X286689Y163474D03*
X291689D03*
X296689D03*
X301689D03*
Y187096D03*
X296689D03*
X291689D03*
X286689D03*
G54D57*
X180856Y138379D03*
X108183Y172010D03*
X162673Y156678D03*
X144361Y156774D03*
X200116Y165523D03*
X159138Y135538D03*
X199919Y133226D03*
X180825Y127808D03*
X142664Y133105D03*
G54D58*
X177312Y138379D03*
X159129Y156678D03*
X147905Y156774D03*
X203660Y165523D03*
X162682Y135538D03*
X203463Y133226D03*
X177281Y127808D03*
G54D59*
X184805Y168169D03*
Y171712D03*
X267370Y128802D03*
Y125259D03*
X112587Y175467D03*
Y171924D03*
X168031Y155921D03*
Y159464D03*
X146811Y136517D03*
Y132974D03*
X180856Y131435D03*
Y134978D03*
X180862Y119424D03*
Y122967D03*
X150643Y136464D03*
Y132921D03*
X262044Y128783D03*
Y125240D03*
G54D60*
X169842Y164031D03*
Y169031D03*
Y174031D03*
Y179031D03*
X144370D03*
Y174031D03*
Y169031D03*
Y164031D03*
G54D61*
X108183Y175554D03*
X142664Y136649D03*
G54D62*
X203974Y151947D03*
X200431D03*
X143094Y141820D03*
X146637D03*
X203162Y136737D03*
X199619D03*
X206945Y141891D03*
X203402D03*
G54D63*
X178878Y141910D03*
X180847D03*
X182815D03*
X184784D03*
X186752D03*
X188721D03*
X190689D03*
X192658D03*
Y160020D03*
X190689D03*
X188721D03*
X186752D03*
X184784D03*
X182815D03*
X180847D03*
X178878D03*
G54D64*
X194823Y144075D03*
Y146044D03*
Y148012D03*
Y149981D03*
Y151949D03*
Y153918D03*
Y155886D03*
Y157855D03*
X176713D03*
Y155886D03*
Y153918D03*
Y151949D03*
Y149981D03*
Y148012D03*
Y146044D03*
Y144075D03*
G54D65*
X185642Y151112D03*
G54D66*
X206070Y114592D02*
X208019Y112643D01*
G54D67*
X263360Y171142D03*
Y180197D03*
Y189252D03*
G54D68*
X240525Y180197D03*
G54D69*
X253404Y150319D03*
X264428D03*
G54D70*
X180898Y111741D03*
G54D71*
X189166Y113241D03*
G54D72*
X181095Y102611D03*
G54D73*
X172236Y108792D03*
X162394D03*
X153733D03*
X143890D03*
G54D74*
X167315Y113005D03*
X148811D03*
G54D75*
X158063Y102611D03*
X139559D03*
G54D76*
X135229Y111351D03*
G54D77*
X162689Y140960D03*
Y151196D03*
X156390D03*
Y140960D03*
X0Y0D02*
M02*
