G04 ================== begin FILE IDENTIFICATION RECORD ==================*
G04 Layout Name:  F:/work/ZM/Frogs/Design/M3/pcb/PARK/GetWay/RF/allegro/lora.brd*
G04 Film Name:    SILKSCREEN_TOP*
G04 File Format:  Gerber RS274X*
G04 File Origin:  Cadence Allegro 16.6-2015-S108*
G04 Origin Date:  Tue Nov 13 10:08:05 2018*
G04 *
G04 Layer:  BOARD GEOMETRY/OUTLINE*
G04 Layer:  REF DES/SILKSCREEN_TOP*
G04 Layer:  PACKAGE GEOMETRY/SILKSCREEN_TOP*
G04 *
G04 Offset:    (0.000 0.000)*
G04 Mirror:    No*
G04 Mode:      Positive*
G04 Rotation:  0*
G04 FullContactRelief:  No*
G04 UndefLineWidth:     0.000*
G04 ================== end FILE IDENTIFICATION RECORD ====================*
%FSLAX25Y25*MOIN*%
%IR0*IPPOS*OFA0.00000B0.00000*MIA0B0*SFA1.00000B1.00000*%
%ADD10C,.005*%
%ADD11C,.005909*%
G75*
%LPD*%
G75*
G54D10*
G01X3601Y5825D02*
X3768Y5525D01*
X3968Y5325D01*
X4201Y5225D01*
X4468Y5325D01*
X4668Y5525D01*
X4868Y5825D01*
X4935Y6225D01*
Y8225D01*
G01X6135Y5825D02*
X6335Y5475D01*
X6601Y5275D01*
X6902Y5225D01*
X7168Y5275D01*
X7435Y5525D01*
X7601Y5825D01*
X7635Y6125D01*
X7568Y6475D01*
X7335Y6725D01*
X7101Y6825D01*
X6801D01*
G01X7101D02*
X7301Y6975D01*
X7468Y7225D01*
X7535Y7525D01*
X7468Y7825D01*
X7301Y8075D01*
X7001Y8225D01*
X6701Y8175D01*
X6401Y7975D01*
G01X14567Y12922D02*
Y1110D01*
X57953D01*
Y12922D01*
X14567D01*
G01X19616Y54156D02*
X38537D01*
Y35467D01*
X18950D01*
Y54160D01*
X19616D01*
Y54156D01*
X19750D01*
G01X17623Y51219D02*
G03I-692J0D01*
G01X23319Y70248D02*
Y64614D01*
X23079Y64374D01*
X20398D01*
X20177Y64595D01*
Y70323D01*
X20390Y70536D01*
X23032D01*
X23319Y70248D01*
G01X41918Y15709D02*
X32370D01*
X31965Y16114D01*
Y19803D01*
X32319Y20158D01*
X41925D01*
X42232Y19851D01*
Y16024D01*
X41918Y15709D01*
G01Y22709D02*
X32370D01*
X31965Y23114D01*
Y26803D01*
X32319Y27158D01*
X41925D01*
X42232Y26851D01*
Y23024D01*
X41918Y22709D01*
G01X44358Y36800D02*
Y42434D01*
X44598Y42674D01*
X47279D01*
X47500Y42453D01*
Y36725D01*
X47287Y36512D01*
X44645D01*
X44358Y36800D01*
G01X35052Y63669D02*
Y66669D01*
X35719D01*
X35986Y66519D01*
X36186Y66319D01*
X36352Y66019D01*
X36486Y65669D01*
X36519Y65169D01*
X36486Y64669D01*
X36352Y64319D01*
X36186Y64019D01*
X35986Y63819D01*
X35719Y63669D01*
X35052D01*
G01X38384D02*
Y66669D01*
X37984Y66069D01*
G01Y63669D02*
X38784D01*
G01X36464Y73368D02*
Y71943D01*
X36456Y71935D01*
G01X35011Y73475D02*
X37928D01*
X37936Y73482D01*
G01X35027Y71931D02*
X37909D01*
X37921Y71920D01*
X37917D01*
X36468Y73368D01*
X36464D01*
X35027Y71931D01*
G01X58677Y7996D02*
Y13630D01*
X58918Y13870D01*
X61599D01*
X61819Y13650D01*
Y7922D01*
X61606Y7709D01*
X58965D01*
X58677Y7996D01*
G01X61903Y28223D02*
Y22589D01*
X61663Y22349D01*
X58982D01*
X58761Y22569D01*
Y28298D01*
X58973Y28510D01*
X61616D01*
X61903Y28223D01*
G01X59346Y34561D02*
X64980D01*
X65220Y34321D01*
Y31640D01*
X65000Y31420D01*
X59271D01*
X59059Y31632D01*
Y34274D01*
X59346Y34561D01*
G01X56146Y71114D02*
Y61567D01*
X55740Y61162D01*
X52051D01*
X51697Y61516D01*
Y71122D01*
X52004Y71429D01*
X55831D01*
X56146Y71114D01*
G01X63547Y71079D02*
Y61532D01*
X63142Y61126D01*
X59453D01*
X59099Y61481D01*
Y71087D01*
X59406Y71394D01*
X63232D01*
X63547Y71079D01*
G01X70705Y3626D02*
Y9260D01*
X70945Y9500D01*
X73626D01*
X73847Y9280D01*
Y3551D01*
X73634Y3339D01*
X70992D01*
X70705Y3626D01*
G01X63162Y9831D02*
X68795D01*
X69036Y9591D01*
Y6910D01*
X68815Y6689D01*
X63087D01*
X62874Y6902D01*
Y9544D01*
X63162Y9831D01*
G01X75339Y9732D02*
X80973D01*
X81213Y9492D01*
Y6811D01*
X80992Y6591D01*
X75264D01*
X75051Y6803D01*
Y9445D01*
X75339Y9732D01*
G01X72881Y25048D02*
Y19414D01*
X72641Y19174D01*
X69960D01*
X69739Y19395D01*
Y25123D01*
X69952Y25336D01*
X72594D01*
X72881Y25048D01*
G01X70263Y29958D02*
X75897D01*
X76137Y29718D01*
Y27037D01*
X75917Y26817D01*
X70188D01*
X69976Y27029D01*
Y29671D01*
X70263Y29958D01*
G01X72858Y37886D02*
Y32252D01*
X72618Y32012D01*
X69936D01*
X69716Y32232D01*
Y37960D01*
X69928Y38173D01*
X72570D01*
X72858Y37886D01*
G01X76742Y42729D02*
G03I-1037J0D01*
G01X69925Y47355D02*
Y74355D01*
X97945D01*
Y46835D01*
X69925D01*
Y47355D01*
G01X82496Y3610D02*
Y9244D01*
X82736Y9484D01*
X85418D01*
X85638Y9264D01*
Y3536D01*
X85425Y3323D01*
X82784D01*
X82496Y3610D01*
G01X85335Y26335D02*
Y35882D01*
X85740Y36288D01*
X89429D01*
X89784Y35933D01*
Y26327D01*
X89476Y26020D01*
X85650D01*
X85335Y26335D01*
G01X79713Y26300D02*
Y35847D01*
X80118Y36252D01*
X83807D01*
X84162Y35898D01*
Y26292D01*
X83854Y25984D01*
X80028D01*
X79713Y26300D01*
G01X95244Y35819D02*
Y26272D01*
X94839Y25866D01*
X91150D01*
X90795Y26221D01*
Y35827D01*
X91102Y36134D01*
X94929D01*
X95244Y35819D01*
G01X83532Y17386D02*
G03I-575J0D01*
G01X95988Y16351D02*
X101622D01*
X101862Y16110D01*
Y13429D01*
X101642Y13209D01*
X95914D01*
X95701Y13422D01*
Y16063D01*
X95988Y16351D01*
G01X106776Y19327D02*
Y13693D01*
X106536Y13453D01*
X103854D01*
X103634Y13674D01*
Y19402D01*
X103847Y19614D01*
X106488D01*
X106776Y19327D01*
G01X105605Y46003D02*
X111239D01*
X111479Y45763D01*
Y43082D01*
X111258Y42861D01*
X105530D01*
X105318Y43074D01*
Y45716D01*
X105605Y46003D01*
G01X106753Y39412D02*
G03I-527J0D01*
G01X119301Y27948D02*
Y33581D01*
X119541Y33822D01*
X122222D01*
X122443Y33601D01*
Y27873D01*
X122230Y27660D01*
X119588D01*
X119301Y27948D01*
G01X118516Y19296D02*
Y13662D01*
X118276Y13422D01*
X115595D01*
X115374Y13642D01*
Y19370D01*
X115587Y19583D01*
X118228D01*
X118516Y19296D01*
G01X121099Y58941D02*
X111551D01*
X111146Y59347D01*
Y63036D01*
X111500Y63390D01*
X121106D01*
X121414Y63083D01*
Y59256D01*
X121099Y58941D01*
G01Y72701D02*
X111551D01*
X111146Y73107D01*
Y76796D01*
X111500Y77150D01*
X121106D01*
X121414Y76843D01*
Y73016D01*
X121099Y72701D01*
G01Y65821D02*
X111551D01*
X111146Y66227D01*
Y69916D01*
X111500Y70270D01*
X121106D01*
X121414Y69963D01*
Y66136D01*
X121099Y65821D01*
G54D11*
G01X3382Y82123D02*
Y79973D01*
X3515Y79523D01*
X3782Y79223D01*
X4115Y79123D01*
X4448Y79223D01*
X4715Y79523D01*
X4848Y79973D01*
Y82123D01*
G01X7115Y79123D02*
Y82123D01*
X5882Y79973D01*
X7548D01*
G01X19185Y29754D02*
Y26754D01*
G01X18418Y29754D02*
X19952D01*
G01X21152Y28004D02*
X21385Y28354D01*
X21585Y28554D01*
X21852Y28654D01*
X22085Y28554D01*
X22252Y28354D01*
X22385Y28054D01*
X22418Y27704D01*
X22385Y27404D01*
X22252Y27104D01*
X22052Y26854D01*
X21818Y26754D01*
X21552Y26854D01*
X21318Y27154D01*
X21185Y27604D01*
X21152Y28104D01*
X21218Y28754D01*
X21318Y29104D01*
X21485Y29454D01*
X21718Y29704D01*
X21952Y29754D01*
X22185Y29654D01*
X22352Y29404D01*
G01X18989Y57861D02*
Y55711D01*
X19122Y55261D01*
X19389Y54961D01*
X19722Y54861D01*
X20055Y54961D01*
X20322Y55261D01*
X20455Y55711D01*
Y57861D01*
G01X21589Y55461D02*
X21789Y55111D01*
X22055Y54911D01*
X22355Y54861D01*
X22622Y54911D01*
X22889Y55161D01*
X23055Y55461D01*
X23089Y55761D01*
X23022Y56111D01*
X22789Y56361D01*
X22555Y56461D01*
X22255D01*
G01X22555D02*
X22755Y56611D01*
X22922Y56861D01*
X22989Y57161D01*
X22922Y57461D01*
X22755Y57711D01*
X22455Y57861D01*
X22155Y57811D01*
X21855Y57611D01*
G01X24846Y75278D02*
X27846D01*
Y74444D01*
X27696Y74178D01*
X27496Y74011D01*
X27096Y73944D01*
X26696Y74011D01*
X26446Y74211D01*
X26296Y74444D01*
Y75278D01*
G01Y74444D02*
X24846Y73944D01*
G01X25446Y72744D02*
X25096Y72544D01*
X24896Y72278D01*
X24846Y71978D01*
X24896Y71711D01*
X25146Y71444D01*
X25446Y71278D01*
X25746Y71244D01*
X26096Y71311D01*
X26346Y71544D01*
X26446Y71778D01*
Y72078D01*
G01Y71778D02*
X26596Y71578D01*
X26846Y71411D01*
X27146Y71344D01*
X27446Y71411D01*
X27696Y71578D01*
X27846Y71878D01*
X27796Y72178D01*
X27596Y72478D01*
G01X22960Y76808D02*
X23110Y77008D01*
X23210Y77241D01*
Y77508D01*
X23060Y77808D01*
X22810Y78041D01*
X22510Y78208D01*
X22010Y78341D01*
X21560Y78374D01*
X21110Y78308D01*
X20810Y78208D01*
X20510Y78008D01*
X20310Y77774D01*
X20210Y77541D01*
Y77308D01*
X20310Y77074D01*
X20460Y76874D01*
X20660Y76708D01*
G01X22710Y75574D02*
X23010Y75374D01*
X23160Y75141D01*
X23210Y74874D01*
X23110Y74541D01*
X22860Y74308D01*
X22560Y74241D01*
X22260Y74274D01*
X22010Y74408D01*
X21510Y75074D01*
X21160Y75374D01*
X20660Y75574D01*
X20210Y75641D01*
Y74241D01*
G01Y72341D02*
X20260Y72108D01*
X20410Y71841D01*
X20660Y71674D01*
X21010Y71608D01*
X21360Y71674D01*
X21660Y71874D01*
X21810Y72174D01*
Y72508D01*
X21910Y72708D01*
X22160Y72874D01*
X22510Y72941D01*
X22860Y72841D01*
X23110Y72608D01*
X23210Y72341D01*
X23110Y72074D01*
X22860Y71841D01*
X22510Y71741D01*
X22160Y71808D01*
X21910Y71974D01*
X21810Y72174D01*
Y72508D01*
X21660Y72808D01*
X21360Y73008D01*
X21010Y73074D01*
X20660Y73008D01*
X20410Y72841D01*
X20260Y72574D01*
X20210Y72341D01*
G01X29186Y82065D02*
X32186D01*
Y81231D01*
X32036Y80965D01*
X31836Y80798D01*
X31436Y80731D01*
X31036Y80798D01*
X30786Y80998D01*
X30636Y81231D01*
Y82065D01*
G01Y81231D02*
X29186Y80731D01*
G01X29636Y79533D02*
X29386Y79333D01*
X29236Y79100D01*
X29186Y78800D01*
X29286Y78500D01*
X29486Y78267D01*
X29836Y78100D01*
X30236Y78067D01*
X30636Y78133D01*
X30886Y78300D01*
X31086Y78533D01*
X31136Y78767D01*
X31086Y79000D01*
X30886Y79300D01*
X32186Y79200D01*
Y78300D01*
G01X45100Y18858D02*
X44900Y19008D01*
X44667Y19108D01*
X44400D01*
X44100Y18958D01*
X43867Y18708D01*
X43700Y18408D01*
X43567Y17908D01*
X43534Y17458D01*
X43600Y17008D01*
X43700Y16708D01*
X43900Y16408D01*
X44134Y16208D01*
X44367Y16108D01*
X44600D01*
X44834Y16208D01*
X45034Y16358D01*
X45200Y16558D01*
G01X46334Y18608D02*
X46534Y18908D01*
X46767Y19058D01*
X47034Y19108D01*
X47367Y19008D01*
X47600Y18758D01*
X47667Y18458D01*
X47634Y18158D01*
X47500Y17908D01*
X46834Y17408D01*
X46534Y17058D01*
X46334Y16558D01*
X46267Y16108D01*
X47667D01*
G01X49967D02*
Y19108D01*
X48733Y16958D01*
X50400D01*
G01X45494Y25174D02*
X45294Y25324D01*
X45061Y25424D01*
X44794D01*
X44494Y25274D01*
X44261Y25024D01*
X44094Y24724D01*
X43961Y24224D01*
X43928Y23774D01*
X43994Y23324D01*
X44094Y23024D01*
X44294Y22724D01*
X44528Y22524D01*
X44761Y22424D01*
X44994D01*
X45228Y22524D01*
X45428Y22674D01*
X45594Y22874D01*
G01X46728Y24924D02*
X46928Y25224D01*
X47161Y25374D01*
X47428Y25424D01*
X47761Y25324D01*
X47994Y25074D01*
X48061Y24774D01*
X48028Y24474D01*
X47894Y24224D01*
X47228Y23724D01*
X46928Y23374D01*
X46728Y22874D01*
X46661Y22424D01*
X48061D01*
G01X49228Y23024D02*
X49428Y22674D01*
X49694Y22474D01*
X49994Y22424D01*
X50261Y22474D01*
X50528Y22724D01*
X50694Y23024D01*
X50728Y23324D01*
X50661Y23674D01*
X50428Y23924D01*
X50194Y24024D01*
X49894D01*
G01X50194D02*
X50394Y24174D01*
X50561Y24424D01*
X50628Y24724D01*
X50561Y25024D01*
X50394Y25274D01*
X50094Y25424D01*
X49794Y25374D01*
X49494Y25174D01*
G01X41149Y44449D02*
Y41449D01*
G01X40382Y44449D02*
X41916D01*
G01X43015Y41899D02*
X43215Y41649D01*
X43449Y41499D01*
X43749Y41449D01*
X44049Y41549D01*
X44282Y41749D01*
X44449Y42099D01*
X44482Y42499D01*
X44416Y42899D01*
X44249Y43149D01*
X44015Y43349D01*
X43782Y43399D01*
X43549Y43349D01*
X43249Y43149D01*
X43349Y44449D01*
X44249D01*
G01X41866Y36586D02*
X42016Y36786D01*
X42116Y37019D01*
Y37286D01*
X41966Y37586D01*
X41716Y37819D01*
X41416Y37986D01*
X40916Y38119D01*
X40466Y38152D01*
X40016Y38086D01*
X39716Y37986D01*
X39416Y37786D01*
X39216Y37552D01*
X39116Y37319D01*
Y37086D01*
X39216Y36852D01*
X39366Y36652D01*
X39566Y36486D01*
G01X41616Y35352D02*
X41916Y35152D01*
X42066Y34919D01*
X42116Y34652D01*
X42016Y34319D01*
X41766Y34086D01*
X41466Y34019D01*
X41166Y34052D01*
X40916Y34186D01*
X40416Y34852D01*
X40066Y35152D01*
X39566Y35352D01*
X39116Y35419D01*
Y34019D01*
G01X41616Y32752D02*
X41916Y32552D01*
X42066Y32319D01*
X42116Y32052D01*
X42016Y31719D01*
X41766Y31486D01*
X41466Y31419D01*
X41166Y31452D01*
X40916Y31586D01*
X40416Y32252D01*
X40066Y32552D01*
X39566Y32752D01*
X39116Y32819D01*
Y31419D01*
G01X49147Y59675D02*
X46147D01*
Y58341D01*
G01X46497Y56975D02*
X46247Y56741D01*
X46147Y56475D01*
X46247Y56208D01*
X46547Y55975D01*
X46997Y55808D01*
X47447Y55741D01*
X47997D01*
X48447Y55808D01*
X48847Y55975D01*
X49047Y56175D01*
X49147Y56408D01*
X49047Y56675D01*
X48847Y56875D01*
X48547Y57008D01*
X48147Y57075D01*
X47797Y57008D01*
X47447Y56841D01*
X47247Y56641D01*
X47197Y56408D01*
X47297Y56141D01*
X47547Y55941D01*
X47997Y55741D01*
G01X42315Y70337D02*
Y67337D01*
G01X41548Y70337D02*
X43082D01*
G01X44182Y67937D02*
X44382Y67587D01*
X44648Y67387D01*
X44948Y67337D01*
X45215Y67387D01*
X45482Y67637D01*
X45648Y67937D01*
X45682Y68237D01*
X45615Y68587D01*
X45382Y68837D01*
X45148Y68937D01*
X44848D01*
G01X45148D02*
X45348Y69087D01*
X45515Y69337D01*
X45582Y69637D01*
X45515Y69937D01*
X45348Y70187D01*
X45048Y70337D01*
X44748Y70287D01*
X44448Y70087D01*
G01X35823Y82171D02*
Y79171D01*
G01X35056Y82171D02*
X36590D01*
G01X38423Y79171D02*
Y82171D01*
X38023Y81571D01*
G01Y79171D02*
X38823D01*
G01X41087Y81108D02*
Y78108D01*
G01X40320Y81108D02*
X41854D01*
G01X43054Y80608D02*
X43254Y80908D01*
X43487Y81058D01*
X43754Y81108D01*
X44087Y81008D01*
X44320Y80758D01*
X44387Y80458D01*
X44354Y80158D01*
X44220Y79908D01*
X43554Y79408D01*
X43254Y79058D01*
X43054Y78558D01*
X42987Y78108D01*
X44387D01*
G01X61450Y5567D02*
X61600Y5767D01*
X61700Y6000D01*
Y6267D01*
X61550Y6567D01*
X61300Y6800D01*
X61000Y6967D01*
X60500Y7100D01*
X60050Y7133D01*
X59600Y7067D01*
X59300Y6967D01*
X59000Y6767D01*
X58800Y6533D01*
X58700Y6300D01*
Y6067D01*
X58800Y5833D01*
X58950Y5633D01*
X59150Y5467D01*
G01X58700Y3700D02*
X61700D01*
X61100Y4100D01*
G01X58700D02*
Y3300D01*
G01X59950Y1733D02*
X60300Y1500D01*
X60500Y1300D01*
X60600Y1033D01*
X60500Y800D01*
X60300Y633D01*
X60000Y500D01*
X59650Y467D01*
X59350Y500D01*
X59050Y633D01*
X58800Y833D01*
X58700Y1067D01*
X58800Y1333D01*
X59100Y1567D01*
X59550Y1700D01*
X60050Y1733D01*
X60700Y1667D01*
X61050Y1567D01*
X61400Y1400D01*
X61650Y1167D01*
X61700Y933D01*
X61600Y700D01*
X61350Y533D01*
G01X56600Y19813D02*
X53600D01*
Y18479D01*
G01X54200Y17279D02*
X53850Y17080D01*
X53650Y16813D01*
X53600Y16513D01*
X53650Y16246D01*
X53900Y15979D01*
X54200Y15813D01*
X54500Y15779D01*
X54850Y15846D01*
X55100Y16079D01*
X55200Y16313D01*
Y16613D01*
G01Y16313D02*
X55350Y16113D01*
X55600Y15946D01*
X55900Y15879D01*
X56200Y15946D01*
X56450Y16113D01*
X56600Y16413D01*
X56550Y16713D01*
X56350Y17013D01*
G01X56136Y26402D02*
X56286Y26602D01*
X56386Y26835D01*
Y27102D01*
X56236Y27402D01*
X55986Y27635D01*
X55686Y27802D01*
X55186Y27935D01*
X54736Y27968D01*
X54286Y27902D01*
X53986Y27802D01*
X53686Y27602D01*
X53486Y27368D01*
X53386Y27135D01*
Y26902D01*
X53486Y26668D01*
X53636Y26468D01*
X53836Y26302D01*
G01X53386Y24535D02*
X56386D01*
X55786Y24935D01*
G01X53386D02*
Y24135D01*
G01Y21535D02*
X56386D01*
X54236Y22768D01*
Y21102D01*
G01X52614Y34247D02*
X52414Y34397D01*
X52181Y34497D01*
X51914D01*
X51614Y34347D01*
X51381Y34097D01*
X51214Y33797D01*
X51081Y33297D01*
X51048Y32847D01*
X51114Y32397D01*
X51214Y32097D01*
X51414Y31797D01*
X51648Y31597D01*
X51881Y31497D01*
X52114D01*
X52348Y31597D01*
X52548Y31747D01*
X52714Y31947D01*
G01X54481Y31497D02*
Y34497D01*
X54081Y33897D01*
G01Y31497D02*
X54881D01*
G01X56348Y31947D02*
X56548Y31697D01*
X56781Y31547D01*
X57081Y31497D01*
X57381Y31597D01*
X57614Y31797D01*
X57781Y32147D01*
X57814Y32547D01*
X57748Y32947D01*
X57581Y33197D01*
X57348Y33397D01*
X57114Y33447D01*
X56881Y33397D01*
X56581Y33197D01*
X56681Y34497D01*
X57581D01*
G01X55567Y48937D02*
X52567D01*
Y47603D01*
G01Y45670D02*
X52617Y45437D01*
X52767Y45170D01*
X53017Y45003D01*
X53367Y44937D01*
X53717Y45003D01*
X54017Y45203D01*
X54167Y45503D01*
Y45837D01*
X54267Y46037D01*
X54517Y46204D01*
X54867Y46270D01*
X55217Y46170D01*
X55467Y45937D01*
X55567Y45670D01*
X55467Y45404D01*
X55217Y45170D01*
X54867Y45070D01*
X54517Y45137D01*
X54267Y45303D01*
X54167Y45503D01*
Y45837D01*
X54017Y46137D01*
X53717Y46337D01*
X53367Y46403D01*
X53017Y46337D01*
X52767Y46170D01*
X52617Y45903D01*
X52567Y45670D01*
G01X50856Y48563D02*
X47856D01*
Y47229D01*
G01Y45363D02*
X48506Y45296D01*
X49056Y45196D01*
X49556Y45063D01*
X50106Y44896D01*
X50856Y44629D01*
Y45963D01*
G01X62397Y48780D02*
X59397D01*
Y47446D01*
G01X60647Y46146D02*
X60997Y45913D01*
X61197Y45713D01*
X61297Y45446D01*
X61197Y45213D01*
X60997Y45046D01*
X60697Y44913D01*
X60347Y44880D01*
X60047Y44913D01*
X59747Y45046D01*
X59497Y45246D01*
X59397Y45480D01*
X59497Y45746D01*
X59797Y45980D01*
X60247Y46113D01*
X60747Y46146D01*
X61397Y46080D01*
X61747Y45980D01*
X62097Y45813D01*
X62347Y45580D01*
X62397Y45346D01*
X62297Y45113D01*
X62047Y44946D01*
G01X54545Y58475D02*
X54695Y58675D01*
X54795Y58908D01*
Y59174D01*
X54645Y59475D01*
X54395Y59708D01*
X54095Y59875D01*
X53595Y60008D01*
X53145Y60041D01*
X52695Y59975D01*
X52395Y59875D01*
X52095Y59675D01*
X51895Y59441D01*
X51795Y59208D01*
Y58975D01*
X51895Y58741D01*
X52045Y58541D01*
X52245Y58375D01*
G01X54295Y57241D02*
X54595Y57041D01*
X54745Y56808D01*
X54795Y56541D01*
X54695Y56208D01*
X54445Y55975D01*
X54145Y55908D01*
X53845Y55941D01*
X53595Y56075D01*
X53095Y56741D01*
X52745Y57041D01*
X52245Y57241D01*
X51795Y57308D01*
Y55908D01*
G01X54795Y54008D02*
X54695Y54275D01*
X54445Y54475D01*
X54145Y54608D01*
X53745Y54708D01*
X53295Y54741D01*
X52845Y54708D01*
X52445Y54608D01*
X52145Y54475D01*
X51895Y54275D01*
X51795Y54008D01*
X51895Y53741D01*
X52145Y53541D01*
X52445Y53408D01*
X52845Y53308D01*
X53295Y53275D01*
X53745Y53308D01*
X54145Y53408D01*
X54445Y53541D01*
X54695Y53741D01*
X54795Y54008D01*
G01X62995Y58394D02*
X63145Y58594D01*
X63245Y58827D01*
Y59094D01*
X63095Y59394D01*
X62845Y59627D01*
X62545Y59794D01*
X62045Y59927D01*
X61595Y59961D01*
X61145Y59894D01*
X60845Y59794D01*
X60545Y59594D01*
X60345Y59361D01*
X60245Y59127D01*
Y58894D01*
X60345Y58661D01*
X60495Y58461D01*
X60695Y58294D01*
G01X60245Y56527D02*
X63245D01*
X62645Y56927D01*
G01X60245D02*
Y56127D01*
G01X60595Y54494D02*
X60345Y54261D01*
X60245Y53994D01*
X60345Y53727D01*
X60645Y53494D01*
X61095Y53327D01*
X61545Y53260D01*
X62095D01*
X62545Y53327D01*
X62945Y53494D01*
X63145Y53694D01*
X63245Y53927D01*
X63145Y54194D01*
X62945Y54394D01*
X62645Y54527D01*
X62245Y54594D01*
X61895Y54527D01*
X61545Y54360D01*
X61345Y54160D01*
X61295Y53927D01*
X61395Y53661D01*
X61645Y53460D01*
X62095Y53260D01*
G01X50595Y79073D02*
Y76073D01*
G01X49828Y79073D02*
X51362D01*
G01X53595Y76073D02*
Y79073D01*
X52362Y76923D01*
X54028D01*
G01X72793Y17166D02*
X72943Y17366D01*
X73043Y17599D01*
Y17865D01*
X72893Y18166D01*
X72643Y18399D01*
X72343Y18566D01*
X71843Y18699D01*
X71393Y18732D01*
X70943Y18666D01*
X70643Y18566D01*
X70343Y18366D01*
X70143Y18132D01*
X70043Y17899D01*
Y17666D01*
X70143Y17432D01*
X70293Y17232D01*
X70493Y17065D01*
G01X70043Y15299D02*
X73043D01*
X72443Y15699D01*
G01X70043D02*
Y14899D01*
G01Y12765D02*
X70693Y12699D01*
X71243Y12599D01*
X71743Y12466D01*
X72293Y12299D01*
X73043Y12032D01*
Y13366D01*
G01X64185Y4800D02*
X63985Y4950D01*
X63752Y5050D01*
X63485D01*
X63185Y4900D01*
X62952Y4650D01*
X62785Y4350D01*
X62652Y3850D01*
X62619Y3400D01*
X62685Y2950D01*
X62785Y2650D01*
X62985Y2350D01*
X63219Y2150D01*
X63452Y2050D01*
X63685D01*
X63919Y2150D01*
X64119Y2300D01*
X64285Y2500D01*
G01X66052Y2050D02*
Y5050D01*
X65652Y4450D01*
G01Y2050D02*
X66452D01*
G01X68019Y4550D02*
X68219Y4850D01*
X68452Y5000D01*
X68719Y5050D01*
X69052Y4950D01*
X69285Y4700D01*
X69352Y4400D01*
X69319Y4100D01*
X69185Y3850D01*
X68519Y3350D01*
X68219Y3000D01*
X68019Y2500D01*
X67952Y2050D01*
X69352D01*
G01X76386Y4726D02*
X76186Y4876D01*
X75953Y4976D01*
X75686D01*
X75386Y4826D01*
X75153Y4576D01*
X74986Y4276D01*
X74853Y3776D01*
X74820Y3326D01*
X74886Y2876D01*
X74986Y2576D01*
X75186Y2276D01*
X75420Y2076D01*
X75653Y1976D01*
X75886D01*
X76120Y2076D01*
X76320Y2226D01*
X76486Y2426D01*
G01X78253Y1976D02*
Y4976D01*
X77853Y4376D01*
G01Y1976D02*
X78653D01*
G01X80120Y2576D02*
X80320Y2226D01*
X80586Y2026D01*
X80886Y1976D01*
X81153Y2026D01*
X81420Y2276D01*
X81586Y2576D01*
X81620Y2876D01*
X81553Y3226D01*
X81320Y3476D01*
X81086Y3576D01*
X80786D01*
G01X81086D02*
X81286Y3726D01*
X81453Y3976D01*
X81520Y4276D01*
X81453Y4576D01*
X81286Y4826D01*
X80986Y4976D01*
X80686Y4926D01*
X80386Y4726D01*
G01X64358Y18174D02*
Y15174D01*
X65692D01*
G01X68025D02*
Y18174D01*
X66791Y16024D01*
X68458D01*
G01X76027Y17956D02*
Y14956D01*
X77361D01*
G01X78561Y15406D02*
X78761Y15156D01*
X78994Y15006D01*
X79294Y14956D01*
X79594Y15056D01*
X79827Y15256D01*
X79994Y15606D01*
X80027Y16006D01*
X79961Y16406D01*
X79794Y16656D01*
X79561Y16856D01*
X79328Y16906D01*
X79094Y16856D01*
X78794Y16656D01*
X78894Y17956D01*
X79794D01*
G01X76685Y23094D02*
X76835Y23294D01*
X76935Y23527D01*
Y23794D01*
X76785Y24094D01*
X76535Y24327D01*
X76235Y24494D01*
X75735Y24627D01*
X75285Y24661D01*
X74835Y24594D01*
X74535Y24494D01*
X74235Y24294D01*
X74035Y24060D01*
X73935Y23827D01*
Y23594D01*
X74035Y23360D01*
X74185Y23160D01*
X74385Y22994D01*
G01Y21960D02*
X74135Y21761D01*
X73985Y21527D01*
X73935Y21227D01*
X74035Y20927D01*
X74235Y20694D01*
X74585Y20527D01*
X74985Y20494D01*
X75385Y20560D01*
X75635Y20727D01*
X75835Y20961D01*
X75885Y21194D01*
X75835Y21427D01*
X75635Y21727D01*
X76935Y21627D01*
Y20727D01*
G01X65965Y29648D02*
X65765Y29798D01*
X65532Y29898D01*
X65265D01*
X64965Y29748D01*
X64732Y29498D01*
X64565Y29198D01*
X64432Y28698D01*
X64398Y28248D01*
X64465Y27798D01*
X64565Y27498D01*
X64765Y27198D01*
X64999Y26998D01*
X65232Y26898D01*
X65465D01*
X65699Y26998D01*
X65899Y27148D01*
X66065Y27348D01*
G01X67265Y27248D02*
X67498Y26998D01*
X67765Y26898D01*
X68032Y26998D01*
X68265Y27298D01*
X68432Y27748D01*
X68499Y28198D01*
Y28748D01*
X68432Y29198D01*
X68265Y29598D01*
X68065Y29798D01*
X67832Y29898D01*
X67565Y29798D01*
X67365Y29598D01*
X67232Y29298D01*
X67165Y28898D01*
X67232Y28548D01*
X67399Y28198D01*
X67599Y27998D01*
X67832Y27948D01*
X68098Y28048D01*
X68299Y28298D01*
X68499Y28748D01*
G01X64350Y46683D02*
Y43683D01*
X65684D01*
G01X67617D02*
Y46683D01*
X67217Y46083D01*
G01Y43683D02*
X68017D01*
G01X68280Y35438D02*
X68430Y35638D01*
X68530Y35871D01*
Y36138D01*
X68380Y36438D01*
X68130Y36671D01*
X67830Y36838D01*
X67330Y36971D01*
X66880Y37004D01*
X66430Y36938D01*
X66130Y36838D01*
X65830Y36638D01*
X65630Y36404D01*
X65530Y36171D01*
Y35938D01*
X65630Y35704D01*
X65780Y35504D01*
X65980Y35338D01*
G01X65530Y33171D02*
X68530D01*
X66380Y34404D01*
Y32738D01*
G01X88628Y4040D02*
X88428Y4190D01*
X88195Y4290D01*
X87928D01*
X87628Y4140D01*
X87395Y3890D01*
X87228Y3590D01*
X87095Y3090D01*
X87062Y2640D01*
X87128Y2190D01*
X87228Y1890D01*
X87428Y1590D01*
X87662Y1390D01*
X87895Y1290D01*
X88128D01*
X88362Y1390D01*
X88562Y1540D01*
X88728Y1740D01*
G01X90495Y1290D02*
Y4290D01*
X90095Y3690D01*
G01Y1290D02*
X90895D01*
G01X93095D02*
X93328Y1340D01*
X93595Y1490D01*
X93762Y1740D01*
X93828Y2090D01*
X93762Y2440D01*
X93562Y2740D01*
X93262Y2890D01*
X92928D01*
X92728Y2990D01*
X92562Y3240D01*
X92495Y3590D01*
X92595Y3940D01*
X92828Y4190D01*
X93095Y4290D01*
X93362Y4190D01*
X93595Y3940D01*
X93695Y3590D01*
X93628Y3240D01*
X93462Y2990D01*
X93262Y2890D01*
X92928D01*
X92628Y2740D01*
X92428Y2440D01*
X92362Y2090D01*
X92428Y1740D01*
X92595Y1490D01*
X92862Y1340D01*
X93095Y1290D01*
G01X80759Y20147D02*
Y23147D01*
X81592D01*
X81858Y22997D01*
X82025Y22797D01*
X82092Y22397D01*
X82025Y21997D01*
X81825Y21747D01*
X81592Y21597D01*
X80759D01*
G01X81592D02*
X82092Y20147D01*
G01X84025D02*
Y23147D01*
X83625Y22547D01*
G01Y20147D02*
X84425D01*
G01X88034Y41408D02*
X88184Y41608D01*
X88284Y41841D01*
Y42108D01*
X88134Y42408D01*
X87884Y42641D01*
X87584Y42808D01*
X87084Y42941D01*
X86634Y42974D01*
X86184Y42908D01*
X85884Y42808D01*
X85584Y42608D01*
X85384Y42374D01*
X85284Y42141D01*
Y41908D01*
X85384Y41674D01*
X85534Y41474D01*
X85734Y41308D01*
G01X85284Y39608D02*
X85934Y39541D01*
X86484Y39441D01*
X86984Y39308D01*
X87534Y39141D01*
X88284Y38874D01*
Y40208D01*
G01X81989Y41474D02*
X82139Y41674D01*
X82239Y41907D01*
Y42174D01*
X82089Y42474D01*
X81839Y42707D01*
X81539Y42874D01*
X81039Y43007D01*
X80589Y43040D01*
X80139Y42974D01*
X79839Y42874D01*
X79539Y42674D01*
X79339Y42440D01*
X79239Y42207D01*
Y41974D01*
X79339Y41740D01*
X79489Y41540D01*
X79689Y41374D01*
G01X80489Y40240D02*
X80839Y40007D01*
X81039Y39807D01*
X81139Y39540D01*
X81039Y39307D01*
X80839Y39140D01*
X80539Y39007D01*
X80189Y38974D01*
X79889Y39007D01*
X79589Y39140D01*
X79339Y39340D01*
X79239Y39574D01*
X79339Y39840D01*
X79639Y40074D01*
X80089Y40207D01*
X80589Y40240D01*
X81239Y40174D01*
X81589Y40074D01*
X81939Y39907D01*
X82189Y39674D01*
X82239Y39440D01*
X82139Y39207D01*
X81889Y39040D01*
G01X94145Y41408D02*
X94295Y41608D01*
X94395Y41841D01*
Y42108D01*
X94245Y42408D01*
X93995Y42641D01*
X93695Y42808D01*
X93195Y42941D01*
X92745Y42974D01*
X92295Y42908D01*
X91995Y42808D01*
X91695Y42608D01*
X91495Y42374D01*
X91395Y42141D01*
Y41908D01*
X91495Y41674D01*
X91645Y41474D01*
X91845Y41308D01*
G01X91995Y40274D02*
X91645Y40074D01*
X91445Y39808D01*
X91395Y39508D01*
X91445Y39241D01*
X91695Y38974D01*
X91995Y38808D01*
X92295Y38774D01*
X92645Y38841D01*
X92895Y39074D01*
X92995Y39308D01*
Y39608D01*
G01Y39308D02*
X93145Y39108D01*
X93395Y38941D01*
X93695Y38874D01*
X93995Y38941D01*
X94245Y39108D01*
X94395Y39408D01*
X94345Y39708D01*
X94145Y40008D01*
G01X94233Y6200D02*
Y9200D01*
X95067D01*
X95333Y9050D01*
X95500Y8850D01*
X95567Y8450D01*
X95500Y8050D01*
X95300Y7800D01*
X95067Y7650D01*
X94233D01*
G01X95067D02*
X95567Y6200D01*
G01X97900D02*
Y9200D01*
X96667Y7050D01*
X98333D01*
G01X97733Y12350D02*
X97533Y12500D01*
X97300Y12600D01*
X97033D01*
X96733Y12450D01*
X96500Y12200D01*
X96333Y11900D01*
X96200Y11400D01*
X96167Y10950D01*
X96233Y10500D01*
X96333Y10200D01*
X96533Y9900D01*
X96767Y9700D01*
X97000Y9600D01*
X97233D01*
X97467Y9700D01*
X97667Y9850D01*
X97833Y10050D01*
G01X99600Y9600D02*
X99833Y9650D01*
X100100Y9800D01*
X100267Y10050D01*
X100333Y10400D01*
X100267Y10750D01*
X100067Y11050D01*
X99767Y11200D01*
X99433D01*
X99233Y11300D01*
X99067Y11550D01*
X99000Y11900D01*
X99100Y12250D01*
X99333Y12500D01*
X99600Y12600D01*
X99867Y12500D01*
X100100Y12250D01*
X100200Y11900D01*
X100133Y11550D01*
X99967Y11300D01*
X99767Y11200D01*
X99433D01*
X99133Y11050D01*
X98933Y10750D01*
X98867Y10400D01*
X98933Y10050D01*
X99100Y9800D01*
X99367Y9650D01*
X99600Y9600D01*
G01X106169Y9970D02*
X106319Y10170D01*
X106419Y10403D01*
Y10670D01*
X106269Y10970D01*
X106019Y11203D01*
X105719Y11370D01*
X105219Y11503D01*
X104769Y11536D01*
X104319Y11470D01*
X104019Y11370D01*
X103719Y11170D01*
X103519Y10936D01*
X103419Y10703D01*
Y10470D01*
X103519Y10236D01*
X103669Y10036D01*
X103869Y9870D01*
G01X103419Y8103D02*
X106419D01*
X105819Y8503D01*
G01X103419D02*
Y7703D01*
G01X106419Y5503D02*
X106319Y5770D01*
X106069Y5970D01*
X105769Y6103D01*
X105369Y6203D01*
X104919Y6236D01*
X104469Y6203D01*
X104069Y6103D01*
X103769Y5970D01*
X103519Y5770D01*
X103419Y5503D01*
X103519Y5236D01*
X103769Y5036D01*
X104069Y4903D01*
X104469Y4803D01*
X104919Y4770D01*
X105369Y4803D01*
X105769Y4903D01*
X106069Y5036D01*
X106319Y5236D01*
X106419Y5503D01*
G01X95032Y21618D02*
Y19468D01*
X95165Y19018D01*
X95432Y18718D01*
X95765Y18618D01*
X96098Y18718D01*
X96365Y19018D01*
X96498Y19468D01*
Y21618D01*
G01X98365Y18618D02*
Y21618D01*
X97965Y21018D01*
G01Y18618D02*
X98765D01*
G01X109368Y10959D02*
Y7959D01*
X110702D01*
G01X112002Y10459D02*
X112202Y10759D01*
X112435Y10909D01*
X112702Y10959D01*
X113035Y10859D01*
X113268Y10609D01*
X113335Y10309D01*
X113302Y10009D01*
X113168Y9759D01*
X112502Y9259D01*
X112202Y8909D01*
X112002Y8409D01*
X111935Y7959D01*
X113335D01*
G01X118586Y10200D02*
X118736Y10400D01*
X118836Y10633D01*
Y10900D01*
X118686Y11200D01*
X118436Y11433D01*
X118136Y11600D01*
X117636Y11733D01*
X117186Y11766D01*
X116736Y11700D01*
X116436Y11600D01*
X116136Y11400D01*
X115936Y11166D01*
X115836Y10933D01*
Y10700D01*
X115936Y10466D01*
X116086Y10266D01*
X116286Y10100D01*
G01X115836Y8333D02*
X118836D01*
X118236Y8733D01*
G01X115836D02*
Y7933D01*
G01Y5733D02*
X118836D01*
X118236Y6133D01*
G01X115836D02*
Y5333D01*
G01X120834Y19499D02*
X121001Y19199D01*
X121201Y18999D01*
X121434Y18899D01*
X121701Y18999D01*
X121901Y19199D01*
X122101Y19499D01*
X122168Y19899D01*
Y21899D01*
G01X124101Y18899D02*
Y21899D01*
X123701Y21299D01*
G01Y18899D02*
X124501D01*
G01X113822Y44971D02*
X113622Y45121D01*
X113389Y45221D01*
X113122D01*
X112822Y45071D01*
X112589Y44821D01*
X112422Y44521D01*
X112289Y44021D01*
X112256Y43571D01*
X112322Y43121D01*
X112422Y42821D01*
X112622Y42521D01*
X112856Y42321D01*
X113089Y42221D01*
X113322D01*
X113556Y42321D01*
X113756Y42471D01*
X113922Y42671D01*
G01X115689Y42221D02*
Y45221D01*
X115289Y44621D01*
G01Y42221D02*
X116089D01*
G01X126468Y31292D02*
X126618Y31492D01*
X126718Y31725D01*
Y31991D01*
X126568Y32292D01*
X126318Y32525D01*
X126018Y32692D01*
X125518Y32825D01*
X125068Y32858D01*
X124618Y32792D01*
X124318Y32692D01*
X124018Y32492D01*
X123818Y32258D01*
X123718Y32025D01*
Y31792D01*
X123818Y31558D01*
X123968Y31358D01*
X124168Y31191D01*
G01X126218Y30058D02*
X126518Y29858D01*
X126668Y29625D01*
X126718Y29358D01*
X126618Y29025D01*
X126368Y28791D01*
X126068Y28725D01*
X125768Y28758D01*
X125518Y28892D01*
X125018Y29558D01*
X124668Y29858D01*
X124168Y30058D01*
X123718Y30125D01*
Y28725D01*
G01X120351Y37853D02*
Y39203D01*
X119685Y40853D01*
G01X121018D02*
X120351Y39203D01*
G01X122318Y40353D02*
X122518Y40653D01*
X122751Y40803D01*
X123018Y40853D01*
X123351Y40753D01*
X123585Y40503D01*
X123651Y40203D01*
X123618Y39903D01*
X123484Y39653D01*
X122818Y39153D01*
X122518Y38803D01*
X122318Y38303D01*
X122251Y37853D01*
X123651D01*
G01X112455Y47217D02*
Y50217D01*
X113289D01*
X113555Y50067D01*
X113722Y49867D01*
X113789Y49467D01*
X113722Y49067D01*
X113522Y48817D01*
X113289Y48667D01*
X112455D01*
G01X113289D02*
X113789Y47217D01*
G01X115089Y49717D02*
X115289Y50017D01*
X115522Y50167D01*
X115789Y50217D01*
X116122Y50117D01*
X116355Y49867D01*
X116422Y49567D01*
X116389Y49267D01*
X116255Y49017D01*
X115589Y48517D01*
X115289Y48167D01*
X115089Y47667D01*
X115022Y47217D01*
X116422D01*
G01X124597Y62677D02*
X124397Y62827D01*
X124164Y62927D01*
X123898D01*
X123597Y62777D01*
X123364Y62527D01*
X123198Y62227D01*
X123064Y61727D01*
X123031Y61277D01*
X123098Y60827D01*
X123198Y60527D01*
X123398Y60227D01*
X123631Y60027D01*
X123864Y59927D01*
X124098D01*
X124331Y60027D01*
X124531Y60177D01*
X124698Y60377D01*
G01X125831Y62427D02*
X126031Y62727D01*
X126264Y62877D01*
X126531Y62927D01*
X126864Y62827D01*
X127098Y62577D01*
X127164Y62277D01*
X127131Y61977D01*
X126997Y61727D01*
X126331Y61227D01*
X126031Y60877D01*
X125831Y60377D01*
X125764Y59927D01*
X127164D01*
G01X128331Y60377D02*
X128531Y60127D01*
X128764Y59977D01*
X129064Y59927D01*
X129364Y60027D01*
X129597Y60227D01*
X129764Y60577D01*
X129797Y60977D01*
X129731Y61377D01*
X129564Y61627D01*
X129331Y61827D01*
X129098Y61877D01*
X128864Y61827D01*
X128564Y61627D01*
X128664Y62927D01*
X129564D01*
G01X124566Y75980D02*
X124366Y76130D01*
X124133Y76230D01*
X123866D01*
X123566Y76080D01*
X123333Y75830D01*
X123166Y75530D01*
X123033Y75030D01*
X123000Y74580D01*
X123066Y74130D01*
X123166Y73830D01*
X123366Y73530D01*
X123600Y73330D01*
X123833Y73230D01*
X124066D01*
X124300Y73330D01*
X124500Y73480D01*
X124666Y73680D01*
G01X125800Y75730D02*
X126000Y76030D01*
X126233Y76180D01*
X126500Y76230D01*
X126833Y76130D01*
X127066Y75880D01*
X127133Y75580D01*
X127100Y75280D01*
X126966Y75030D01*
X126300Y74530D01*
X126000Y74180D01*
X125800Y73680D01*
X125733Y73230D01*
X127133D01*
G01X128400Y74480D02*
X128633Y74830D01*
X128833Y75030D01*
X129100Y75130D01*
X129333Y75030D01*
X129500Y74830D01*
X129633Y74530D01*
X129666Y74180D01*
X129633Y73880D01*
X129500Y73580D01*
X129300Y73330D01*
X129066Y73230D01*
X128800Y73330D01*
X128566Y73630D01*
X128433Y74080D01*
X128400Y74580D01*
X128466Y75230D01*
X128566Y75580D01*
X128733Y75930D01*
X128966Y76180D01*
X129200Y76230D01*
X129433Y76130D01*
X129600Y75880D01*
G01X124663Y68952D02*
X124463Y69102D01*
X124230Y69202D01*
X123963D01*
X123663Y69052D01*
X123430Y68802D01*
X123263Y68502D01*
X123130Y68002D01*
X123096Y67552D01*
X123163Y67102D01*
X123263Y66802D01*
X123463Y66502D01*
X123697Y66302D01*
X123930Y66202D01*
X124163D01*
X124397Y66302D01*
X124597Y66452D01*
X124763Y66652D01*
G01X125896Y68702D02*
X126097Y69002D01*
X126330Y69152D01*
X126597Y69202D01*
X126930Y69102D01*
X127163Y68852D01*
X127230Y68552D01*
X127197Y68252D01*
X127063Y68002D01*
X126397Y67502D01*
X126097Y67152D01*
X125896Y66652D01*
X125830Y66202D01*
X127230D01*
G01X129130D02*
Y69202D01*
X128730Y68602D01*
G01Y66202D02*
X129530D01*
G01X137165Y28613D02*
X136865Y28446D01*
X136665Y28246D01*
X136565Y28013D01*
X136665Y27746D01*
X136865Y27546D01*
X137165Y27346D01*
X137565Y27279D01*
X139565D01*
G01X139065Y25980D02*
X139365Y25779D01*
X139515Y25546D01*
X139565Y25279D01*
X139465Y24946D01*
X139215Y24713D01*
X138915Y24646D01*
X138615Y24679D01*
X138365Y24813D01*
X137865Y25479D01*
X137515Y25779D01*
X137015Y25980D01*
X136565Y26046D01*
Y24646D01*
M02*
