*
*
G04 PADS VX.2.3 Build Number: 9191294 generated Gerber (RS-274-X) file*
G04 PC Version=2.1*
*
%IN "GETWAY_Base_ZM_V1.2_201"*%
*
%MOIN*%
*
%FSLAX35Y35*%
*
*
*
*
G04 PC Standard Apertures*
*
*
G04 Thermal Relief Aperture macro.*
%AMTER*
1,1,$1,0,0*
1,0,$1-$2,0,0*
21,0,$3,$4,0,0,45*
21,0,$3,$4,0,0,135*
%
*
*
G04 Annular Aperture macro.*
%AMANN*
1,1,$1,0,0*
1,0,$2,0,0*
%
*
*
G04 Odd Aperture macro.*
%AMODD*
1,1,$1,0,0*
1,0,$1-0.005,0,0*
%
*
*
G04 PC Custom Aperture Macros*
*
*
*
*
*
*
G04 PC Aperture Table*
*
%ADD010C,0.001*%
%ADD062C,0.02*%
%ADD070R,0.02969X0.02968*%
%ADD071R,0.01984X0.02969*%
%ADD072R,0.02969X0.01984*%
%ADD073R,0.13598X0.13598*%
%ADD074R,0.05528X0.06512*%
%ADD075R,0.02968X0.02969*%
%ADD076R,0.02969X0.02969*%
%ADD077R,0.02969X0.02968*%
%ADD078R,0.04149X0.0478*%
%ADD079R,0.02575X0.04346*%
%ADD080R,0.048X0.048*%
%ADD081R,0.05724X0.06906*%
%ADD082R,0.0478X0.04149*%
%ADD083R,0.08874X0.05724*%
%ADD084R,0.08874X0.04937*%
%ADD085R,0.03559X0.05843*%
%ADD086ANN,0.06906X0.04543*%
%ADD087R,0.03756X0.09268*%
%ADD088R,0.046X0.046*%
%ADD089R,0.06X0.046*%
%ADD090ANN,0.08087X0.05724*%
%ADD091R,0.04937X0.04937*%
%ADD092C,0.04937*%
%ADD093R,0.0474X0.09465*%
%ADD094R,0.13795X0.09465*%
%ADD095R,0.06906X0.05724*%
%ADD096ANN,0.16748X0.08874*%
%ADD097R,0.06906X0.01709*%
%ADD098C,0.0474*%
%ADD099C,0.06709*%
%ADD100R,0.12811X0.08874*%
%ADD101C,0.16748*%
%ADD102R,0.10843X0.03362*%
%ADD103O,0.0415X0.06906*%
%ADD104R,0.04937X0.08087*%
%ADD105R,0.02969X0.19*%
%ADD106R,0.04543X0.20291*%
%ADD107R,0.20685X0.02969*%
%ADD108R,0.02969X0.11394*%
%ADD109R,0.08874X0.02969*%
%ADD110R,0.1163X0.02969*%
%ADD111R,0.02969X0.16512*%
%ADD112R,0.046X0.06*%
%ADD113R,0.05724X0.08874*%
*
*
*
*
G04 PC Circuitry*
G04 Layer Name GETWAY_Base_ZM_V1.2_201 - circuitry*
%LPD*%
*
*
G04 PC Custom Flashes*
G04 Layer Name GETWAY_Base_ZM_V1.2_201 - flashes*
%LPD*%
*
*
G04 PC Circuitry*
G04 Layer Name GETWAY_Base_ZM_V1.2_201 - circuitry*
%LPD*%
*
G54D10*
G54D62*
G01X1232870Y755157D02*
Y744732D01*
X1255433Y697528D02*
X1275992D01*
X1309220Y749224D02*
Y739559D01*
X1308965Y714606D02*
Y699886D01*
X1271913Y756689D02*
X1282374D01*
X1238433Y756728D02*
X1249339D01*
G54D70*
X1240579Y708862D03*
X1237036D03*
X1316438Y718045D03*
X1319981D03*
X1316337Y722869D03*
X1319881D03*
X1242480Y741327D03*
X1246024D03*
X1271181Y722843D03*
X1274724D03*
X1304894Y741185D03*
X1301350D03*
X1292157Y752602D03*
X1295701D03*
X1237142Y726843D03*
X1240685D03*
G54D71*
X1261921Y736835D03*
X1259953D03*
X1257984D03*
X1256016D03*
X1254047D03*
X1252079D03*
X1250110D03*
X1248142D03*
Y718724D03*
X1250110D03*
X1252079D03*
X1254047D03*
X1256016D03*
X1257984D03*
X1259953D03*
X1261921D03*
G54D72*
X1245976Y734669D03*
Y732701D03*
Y730732D03*
Y728764D03*
Y726795D03*
Y724827D03*
Y722858D03*
Y720890D03*
X1264087D03*
Y722858D03*
Y724827D03*
Y726795D03*
Y728764D03*
Y730732D03*
Y732701D03*
Y734669D03*
G54D73*
X1255157Y727633D03*
G54D74*
X1281341Y739567D03*
Y729331D03*
X1287640D03*
Y739567D03*
G54D75*
X1271657Y736236D03*
Y732693D03*
X1259693Y763154D03*
Y759610D03*
X1256039Y712354D03*
Y708811D03*
X1252496Y748831D03*
Y745287D03*
X1259850Y749870D03*
Y746327D03*
G54D76*
X1284922Y745572D03*
X1281344Y723671D03*
X1259819Y753709D03*
X1301346Y737130D03*
X1245906Y744807D03*
X1240709Y715319D03*
X1259886Y742654D03*
X1301528Y723102D03*
G54D77*
X1281378Y745572D03*
X1284888Y723671D03*
X1263363Y753709D03*
X1304890Y737130D03*
X1242362Y744807D03*
X1237165Y715319D03*
X1263430Y742654D03*
X1305072Y723102D03*
G54D78*
X1126636Y728068D03*
Y734367D03*
X1119338Y751959D03*
Y745660D03*
X1151456Y751994D03*
Y745695D03*
X1073921Y694526D03*
Y688227D03*
X1074433Y676022D03*
Y669723D03*
X1144055Y751968D03*
Y745669D03*
X1024173Y777638D03*
Y771339D03*
X1275197Y633150D03*
Y639449D03*
G54D79*
X1136693Y727047D03*
X1139252D03*
X1141811D03*
Y734330D03*
X1139252Y734331D03*
X1136693D03*
G54D80*
X1127462Y752074D03*
Y745774D03*
X1159802Y752073D03*
Y745773D03*
X998229Y775551D03*
X991929D03*
X922394Y413217D03*
X928694D03*
X943386Y413228D03*
X949686D03*
X977520Y775551D03*
X971220D03*
X1098071Y411654D03*
X1104371D03*
X1136142Y752008D03*
Y745708D03*
X1078425Y411535D03*
X1084725D03*
X1074984Y717400D03*
Y711100D03*
X1045850Y713581D03*
Y707281D03*
X1074984Y734014D03*
Y727714D03*
X1045574Y730274D03*
Y723974D03*
X1332417Y650280D03*
X1338717D03*
X1332582Y627102D03*
X1338882D03*
X1292031Y762717D03*
X1298331D03*
G54D81*
X1314264Y461713D03*
X1325287D03*
G54D82*
X1242362Y610079D03*
X1248661D03*
X1245921Y748843D03*
X1239622D03*
G54D83*
X1036535Y777756D03*
X1069606D03*
X1036535Y760039D03*
G54D84*
X1069606D03*
G54D85*
X1144646Y703780D03*
X1134646D03*
X1124646D03*
X1149646D03*
X1139646D03*
X1129646D03*
X1154646D03*
G54D86*
X1157441Y655098D03*
X1125315D03*
X1361772Y675157D03*
Y665157D03*
Y655157D03*
Y645157D03*
Y635157D03*
Y625157D03*
Y615157D03*
G54D87*
X1118071Y697422D03*
X1169213D03*
X1118071Y650197D03*
X1169213D03*
G54D88*
X1055651Y731465D03*
Y723965D03*
Y714772D03*
Y707272D03*
Y695323D03*
Y687823D03*
Y677488D03*
Y669988D03*
X1331305Y658092D03*
X1338805D03*
X1332581Y635238D03*
X1340081D03*
G54D89*
X1063651Y727715D03*
Y711022D03*
Y691573D03*
Y673738D03*
G54D90*
X1308268Y415906D03*
X1328268D03*
G54D91*
X1322638Y450866D03*
X1313976D03*
G54D92*
X914567Y772598D03*
X899134D03*
X906969D03*
X922677D03*
G54D93*
X1230551Y623268D03*
X1239606D03*
X1248661D03*
G54D94*
X1239606Y646102D03*
G54D95*
X1265000Y633976D03*
Y622953D03*
G54D96*
X834646Y409449D03*
Y574803D03*
X1216535D03*
Y409449D03*
X1362205Y771654D03*
Y409449D03*
X803150Y771654D03*
Y409449D03*
G54D97*
X1070119Y540630D03*
X1100040Y539842D03*
X1070119Y537480D03*
X1100040Y536693D03*
X1070119Y534331D03*
X1100040Y533543D03*
X1070119Y531181D03*
X1100040Y530394D03*
X1070119Y528031D03*
X1100040Y527244D03*
X1070119Y524882D03*
X1100040Y524094D03*
X1070119Y521732D03*
X1100040Y520945D03*
X1070119Y518583D03*
X1100040Y517795D03*
X1070119Y502835D03*
X1100040Y502047D03*
X1070119Y499685D03*
X1100040Y498898D03*
X1070119Y496535D03*
X1100040Y495748D03*
X1070119Y493386D03*
X1100040Y492598D03*
X1070119Y490236D03*
X1100040Y489449D03*
X1070119Y487087D03*
X1100040Y486299D03*
X1070119Y483937D03*
X1100040Y483150D03*
X1070119Y480787D03*
X1100040Y480000D03*
X1070119Y477638D03*
X1100040Y476850D03*
X1070119Y474488D03*
X1100040Y473701D03*
X1070119Y471339D03*
X1100040Y470551D03*
X1070119Y468189D03*
X1100040Y467402D03*
X1070119Y465039D03*
X1100040Y464252D03*
X1070119Y461890D03*
X1100040Y461102D03*
X1070119Y458740D03*
X1100040Y457953D03*
X1070119Y455590D03*
X1100040Y454803D03*
X1070119Y452441D03*
X1100040Y451653D03*
X1070119Y449291D03*
X1100040Y448504D03*
X1007126Y640508D03*
X977204Y641296D03*
X1007126Y643658D03*
X977204Y644445D03*
X1007126Y646808D03*
X977204Y647595D03*
X1007126Y649957D03*
X977204Y650745D03*
X1007126Y653107D03*
X977204Y653894D03*
X1007126Y656256D03*
X977204Y657044D03*
X1007126Y659406D03*
X977204Y660193D03*
X1007126Y662556D03*
X977204Y663343D03*
X1007126Y678304D03*
X977204Y679091D03*
X1007126Y681453D03*
X977204Y682241D03*
X1007126Y684603D03*
X977204Y685390D03*
X1007126Y687752D03*
X977204Y688540D03*
X1007126Y690902D03*
X977204Y691689D03*
X1007126Y694052D03*
X977204Y694839D03*
X1007126Y697201D03*
X977204Y697989D03*
X1007126Y700351D03*
X977204Y701138D03*
X1007126Y703500D03*
X977204Y704288D03*
X1007126Y706650D03*
X977204Y707437D03*
X1007126Y709800D03*
X977204Y710587D03*
X1007126Y712949D03*
X977204Y713737D03*
X1007126Y716099D03*
X977204Y716886D03*
X1007126Y719248D03*
X977204Y720036D03*
X1007126Y722398D03*
X977204Y723185D03*
X1007126Y725548D03*
X977204Y726335D03*
X1007126Y728697D03*
X977204Y729485D03*
X1007126Y731847D03*
X977204Y732634D03*
X1009882Y449055D03*
X979960Y449843D03*
X1009882Y452205D03*
X979960Y452992D03*
X1009882Y455355D03*
X979960Y456142D03*
X1009882Y458504D03*
X979960Y459292D03*
X1009882Y461654D03*
X979960Y462441D03*
X1009882Y464803D03*
X979960Y465591D03*
X1009882Y467953D03*
X979960Y468740D03*
X1009882Y471103D03*
X979960Y471890D03*
X1009882Y486851D03*
X979960Y487638D03*
X1009882Y490000D03*
X979960Y490788D03*
X1009882Y493150D03*
X979960Y493937D03*
X1009882Y496299D03*
X979960Y497087D03*
X1009882Y499449D03*
X979960Y500236D03*
X1009882Y502599D03*
X979960Y503386D03*
X1009882Y505748D03*
X979960Y506536D03*
X1009882Y508898D03*
X979960Y509685D03*
X1009882Y512047D03*
X979960Y512835D03*
X1009882Y515197D03*
X979960Y515984D03*
X1009882Y518347D03*
X979960Y519134D03*
X1009882Y521496D03*
X979960Y522284D03*
X1009882Y524646D03*
X979960Y525433D03*
X1009882Y527795D03*
X979960Y528583D03*
X1009882Y530945D03*
X979960Y531732D03*
X1009882Y534095D03*
X979960Y534882D03*
X1009882Y537244D03*
X979960Y538032D03*
X1009882Y540394D03*
X979960Y541181D03*
G54D98*
X1084922Y445748D03*
X992322Y735390D03*
X995078Y543937D03*
G54D99*
X1084922Y544173D03*
X992322Y636965D03*
X995078Y445512D03*
G54D100*
X1068150Y439252D03*
Y550669D03*
X1009094Y741886D03*
Y630469D03*
X1011850Y550433D03*
Y439016D03*
G54D101*
X1273898Y542598D03*
Y447323D03*
X803346Y638540D03*
Y733815D03*
X806102Y447087D03*
Y542362D03*
G54D102*
X1276051Y717602D03*
Y712602D03*
Y707602D03*
Y702602D03*
X1301524D03*
Y707602D03*
Y712602D03*
Y717602D03*
G54D103*
X1238980Y771142D03*
G54D104*
X1233862Y778228D03*
X1244098D03*
G54D105*
X1259670Y772902D03*
G54D106*
X1251402Y771402D03*
G54D107*
X1259472Y782031D03*
G54D108*
X1268331Y775850D03*
X1278173D03*
X1286835D03*
X1296677D03*
G54D109*
X1273252Y771638D03*
X1291756D03*
G54D110*
X1282504Y782031D03*
X1301008D03*
G54D111*
X1305339Y773291D03*
G54D112*
X1335055Y666092D03*
X1336331Y643238D03*
G54D113*
X1342465Y549228D03*
Y582299D03*
X1362126Y549039D03*
Y582110D03*
X0Y0D02*
M02*
