  0
SECTION
  2
HEADER
  9
$ACADVER
  1
AC1004
  9
$INSBASE
 10
0.0
 20
0.0
  9
$EXTMIN
 10
88.5698
 20
70.809
  9
$EXTMAX
 10
107.359884
 20
93.420707
  9
$LIMMIN
 10
0.0
 20
0.0
  9
$LIMMAX
 10
0.0
 20
0.0
  9
$VIEWCTR
 10
6.591288
 20
4.579184
  9
$VIEWSIZE
 40
9.158369
  9
$SNAPMODE
 70
     0
  9
$SNAPUNIT
 10
1.0
 20
1.0
  9
$SNAPBASE
 10
0.0
 20
0.0
  9
$SNAPANG
 50
0.0
  9
$SNAPSTYLE
 70
     0
  9
$SNAPISOPAIR
 70
     0
  9
$GRIDMODE
 70
     0
  9
$GRIDUNIT
 10
0.0
 20
0.0
  9
$ORTHOMODE
 70
     0
  9
$REGENMODE
 70
     1
  9
$FILLMODE
 70
     1
  9
$QTEXTMODE
 70
     0
  9
$DRAGMODE
 70
     2
  9
$LTSCALE
 40
1.0
  9
$OSMODE
 70
     0
  9
$ATTMODE
 70
     1
  9
$TEXTSIZE
 40
0.2
  9
$TRACEWID
 40
0.05
  9
$TEXTSTYLE
  7
STANDARD
  9
$CLAYER
  8
0
  9
$CELTYPE
  6
CONTINUOUS
  9
$CECOLOR
 62
   256
  9
$DIMSCALE
 40
1.0
  9
$DIMASZ
 40
0.18
  9
$DIMEXO
 40
0.0625
  9
$DIMDLI
 40
0.38
  9
$DIMRND
 40
0.0
  9
$DIMDLE
 40
0.0
  9
$DIMEXE
 40
0.18
  9
$DIMTP
 40
0.0
  9
$DIMTM
 40
0.0
  9
$DIMTXT
 40
0.18
  9
$DIMCEN
 40
0.09
  9
$DIMTSZ
 40
0.0
  9
$DIMTOL
 70
     0
  9
$DIMLIM
 70
     0
  9
$DIMTIH
 70
     1
  9
$DIMTOH
 70
     1
  9
$DIMSE1
 70
     0
  9
$DIMSE2
 70
     0
  9
$DIMTAD
 70
     0
  9
$DIMZIN
 70
     0
  9
$DIMBLK
  1

  9
$DIMASO
 70
     1
  9
$DIMSHO
 70
     1
  9
$DIMPOST
  1

  9
$DIMAPOST
  1

  9
$DIMALT
 70
     0
  9
$DIMALTD
 70
     2
  9
$DIMALTF
 40
25.4
  9
$DIMLFAC
 40
1.0
  9
$LUNITS
 70
     2
  9
$LUPREC
 70
     4
  9
$AXISMODE
 70
     0
  9
$AXISUNIT
 10
0.0
 20
0.0
  9
$SKETCHINC
 40
0.1
  9
$FILLETRAD
 40
0.0
  9
$AUNITS
 70
     0
  9
$AUPREC
 70
     0
  9
$MENU
  1
acad
  9
$ELEVATION
 40
0.0
  9
$THICKNESS
 40
0.0
  9
$VIEWDIR
 10
0.0
 20
0.0
 30
1.0
  9
$LIMCHECK
 70
     0
  9
$BLIPMODE
 70
     1
  9
$CHAMFERA
 40
0.0
  9
$CHAMFERB
 40
0.0
  9
$FASTZOOM
 70
     1
  9
$SKPOLY
 70
     0
  9
$TDCREATE
 40
0.000000000
  9
$TDUPDATE
 40
0.000000000
  9
$TDINDWG
 40
0.0000000000
  9
$TDUSRTIMER
 40
0.0000000000
  9
$USRTIMER
 70
     1
  9
$ANGBASE
 50
0.0
  9
$ANGDIR
 70
     0
  9
$PDMODE
 70
     0
  9
$PDSIZE
 40
0.0
  9
$PLINEWID
 40
0.0
  9
$COORDS
 70
     0
  9
$SPLFRAME
 70
     0
  9
$SPLINESEGS
 70
     8
  9
$ATTDIA
 70
     0
  9
$ATTREQ
 70
     1
  9
$USERI1
 70
     0
  9
$USERI2
 70
     0
  9
$USERI3
 70
     0
  9
$USERI4
 70
     0
  9
$USERI5
 70
     0
  9
$USERR1
 40
0.0
  9
$USERR2
 40
0.0
  9
$USERR3
 40
0.0
  9
$USERR4
 40
0.0
  9
$USERR5
 40
0.0
  0
ENDSEC
  0
SECTION
  2
TABLES
  0
TABLE
  2
LTYPE
 70
     1
  0
LTYPE
  2
CONTINUOUS
 70
    64
  3
Solid line
 72
    65
 73
     0
 40
0.0
  0
ENDTAB
  0
TABLE
  2
LAYER
 70
     8
  0
LAYER
  2
0
 70
     0
 62
     7
  6
CONTINUOUS
  0
LAYER
  2
TOPLAYER
 70
     0
 62
     1
  6
CONTINUOUS
  0
LAYER
  2
BOTTOMLAYER
 70
     0
 62
     5
  6
CONTINUOUS
  0
LAYER
  2
TOPOVERLAY
 70
     0
 62
     2
  6
CONTINUOUS
  0
LAYER
  2
TOPPASTE
 70
     0
 62
     8
  6
CONTINUOUS
  0
LAYER
  2
BOTTOMPASTE
 70
     0
 62
    16
  6
CONTINUOUS
  0
LAYER
  2
TOPSOLDER
 70
     0
 62
   216
  6
CONTINUOUS
  0
LAYER
  2
BOTTOMSOLDER
 70
     0
 62
     6
  6
CONTINUOUS
  0
ENDTAB
  0
TABLE
  2
STYLE
 70
     1
  0
STYLE
  2
STANDARD
 70
     0
 40
0.0
 41
1.0
 50
0.0
 71
     0
 42
0.0
  3
txt
  4

  0
ENDTAB
  0
TABLE
  2
VIEW
 70
     0
  0
ENDTAB
  0
ENDSEC
  0
SECTION
  2
BLOCKS
  0
BLOCK
  8
0
  2
HW3000_1
 70
     0
 10
0.0
 20
0.0
  0
POLYLINE
  8
TOPOVERLAY
 66
     1
 40
0.1
 41
0.1
  0
VERTEX
  8
TOPOVERLAY
 10
-1.295999
 20
0.254
  0
VERTEX
  8
TOPOVERLAY
 10
-1.295999
 20
16.794
  0
SEQEND
  8
0
  0
POLYLINE
  8
TOPOVERLAY
 66
     1
 70
     1
 40
0.05
 41
0.05
  0
VERTEX
  8
TOPOVERLAY
 10
-1.320998
 20
0.254
 42
1.0
  0
VERTEX
  8
TOPOVERLAY
 10
-1.271001
 20
0.254
 42
1.0
  0
SEQEND
  8
0
  0
POLYLINE
  8
TOPOVERLAY
 66
     1
 70
     1
 40
0.05
 41
0.05
  0
VERTEX
  8
TOPOVERLAY
 10
-1.320998
 20
16.794
 42
1.0
  0
VERTEX
  8
TOPOVERLAY
 10
-1.271001
 20
16.794
 42
1.0
  0
SEQEND
  8
0
  0
POLYLINE
  8
TOPOVERLAY
 66
     1
 40
0.1
 41
0.1
  0
VERTEX
  8
TOPOVERLAY
 10
-1.295999
 20
0.254
  0
VERTEX
  8
TOPOVERLAY
 10
15.494
 20
0.254
  0
SEQEND
  8
0
  0
POLYLINE
  8
TOPOVERLAY
 66
     1
 70
     1
 40
0.05
 41
0.05
  0
VERTEX
  8
TOPOVERLAY
 10
-1.320998
 20
0.254
 42
1.0
  0
VERTEX
  8
TOPOVERLAY
 10
-1.271001
 20
0.254
 42
1.0
  0
SEQEND
  8
0
  0
POLYLINE
  8
TOPOVERLAY
 66
     1
 70
     1
 40
0.05
 41
0.05
  0
VERTEX
  8
TOPOVERLAY
 10
15.469001
 20
0.254
 42
1.0
  0
VERTEX
  8
TOPOVERLAY
 10
15.518999
 20
0.254
 42
1.0
  0
SEQEND
  8
0
  0
POLYLINE
  8
TOPOVERLAY
 66
     1
 40
0.1
 41
0.1
  0
VERTEX
  8
TOPOVERLAY
 10
15.494
 20
0.254
  0
VERTEX
  8
TOPOVERLAY
 10
15.494
 20
16.794
  0
SEQEND
  8
0
  0
POLYLINE
  8
TOPOVERLAY
 66
     1
 70
     1
 40
0.05
 41
0.05
  0
VERTEX
  8
TOPOVERLAY
 10
15.469001
 20
0.254
 42
1.0
  0
VERTEX
  8
TOPOVERLAY
 10
15.518999
 20
0.254
 42
1.0
  0
SEQEND
  8
0
  0
POLYLINE
  8
TOPOVERLAY
 66
     1
 70
     1
 40
0.05
 41
0.05
  0
VERTEX
  8
TOPOVERLAY
 10
15.469001
 20
16.794
 42
1.0
  0
VERTEX
  8
TOPOVERLAY
 10
15.518999
 20
16.794
 42
1.0
  0
SEQEND
  8
0
  0
POLYLINE
  8
TOPOVERLAY
 66
     1
 40
0.1
 41
0.1
  0
VERTEX
  8
TOPOVERLAY
 10
-1.295999
 20
16.794
  0
VERTEX
  8
TOPOVERLAY
 10
15.494
 20
16.794
  0
SEQEND
  8
0
  0
POLYLINE
  8
TOPOVERLAY
 66
     1
 70
     1
 40
0.05
 41
0.05
  0
VERTEX
  8
TOPOVERLAY
 10
-1.320998
 20
16.794
 42
1.0
  0
VERTEX
  8
TOPOVERLAY
 10
-1.271001
 20
16.794
 42
1.0
  0
SEQEND
  8
0
  0
POLYLINE
  8
TOPOVERLAY
 66
     1
 70
     1
 40
0.05
 41
0.05
  0
VERTEX
  8
TOPOVERLAY
 10
15.469001
 20
16.794
 42
1.0
  0
VERTEX
  8
TOPOVERLAY
 10
15.518999
 20
16.794
 42
1.0
  0
SEQEND
  8
0
  0
POLYLINE
  8
TOPLAYER
 66
     1
 40
0.800001
 41
0.800001
  0
VERTEX
  8
TOPLAYER
 10
1.5748
 20
17.741798
  0
VERTEX
  8
TOPLAYER
 10
1.5748
 20
16.141802
  0
SEQEND
  8
0
  0
POLYLINE
  8
TOPLAYER
 66
     1
 70
     1
 40
0.399999
 41
0.399999
  0
VERTEX
  8
TOPLAYER
 10
1.3748
 20
17.741798
 42
1.0
  0
VERTEX
  8
TOPLAYER
 10
1.7748
 20
17.741798
 42
1.0
  0
SEQEND
  8
0
  0
POLYLINE
  8
TOPLAYER
 66
     1
 70
     1
 40
0.399999
 41
0.399999
  0
VERTEX
  8
TOPLAYER
 10
1.3748
 20
16.141802
 42
1.0
  0
VERTEX
  8
TOPLAYER
 10
1.7748
 20
16.141802
 42
1.0
  0
SEQEND
  8
0
  0
POLYLINE
  8
TOPPASTE
 66
     1
 40
0.800001
 41
0.800001
  0
VERTEX
  8
TOPPASTE
 10
1.5748
 20
17.741798
  0
VERTEX
  8
TOPPASTE
 10
1.5748
 20
16.141802
  0
SEQEND
  8
0
  0
POLYLINE
  8
TOPPASTE
 66
     1
 70
     1
 40
0.399999
 41
0.399999
  0
VERTEX
  8
TOPPASTE
 10
1.3748
 20
17.741798
 42
1.0
  0
VERTEX
  8
TOPPASTE
 10
1.7748
 20
17.741798
 42
1.0
  0
SEQEND
  8
0
  0
POLYLINE
  8
TOPPASTE
 66
     1
 70
     1
 40
0.399999
 41
0.399999
  0
VERTEX
  8
TOPPASTE
 10
1.3748
 20
16.141802
 42
1.0
  0
VERTEX
  8
TOPPASTE
 10
1.7748
 20
16.141802
 42
1.0
  0
SEQEND
  8
0
  0
POLYLINE
  8
TOPSOLDER
 66
     1
 40
1.003201
 41
1.003201
  0
VERTEX
  8
TOPSOLDER
 10
1.5748
 20
17.741798
  0
VERTEX
  8
TOPSOLDER
 10
1.5748
 20
16.141802
  0
SEQEND
  8
0
  0
POLYLINE
  8
TOPSOLDER
 66
     1
 70
     1
 40
0.501599
 41
0.501599
  0
VERTEX
  8
TOPSOLDER
 10
1.324
 20
17.741798
 42
1.0
  0
VERTEX
  8
TOPSOLDER
 10
1.8256
 20
17.741798
 42
1.0
  0
SEQEND
  8
0
  0
POLYLINE
  8
TOPSOLDER
 66
     1
 70
     1
 40
0.501599
 41
0.501599
  0
VERTEX
  8
TOPSOLDER
 10
1.324
 20
16.141802
 42
1.0
  0
VERTEX
  8
TOPSOLDER
 10
1.8256
 20
16.141802
 42
1.0
  0
SEQEND
  8
0
  0
POLYLINE
  8
TOPLAYER
 66
     1
 40
0.800001
 41
0.800001
  0
VERTEX
  8
TOPLAYER
 10
2.8448
 20
17.741798
  0
VERTEX
  8
TOPLAYER
 10
2.8448
 20
16.141802
  0
SEQEND
  8
0
  0
POLYLINE
  8
TOPLAYER
 66
     1
 70
     1
 40
0.399999
 41
0.399999
  0
VERTEX
  8
TOPLAYER
 10
2.6448
 20
17.741798
 42
1.0
  0
VERTEX
  8
TOPLAYER
 10
3.0448
 20
17.741798
 42
1.0
  0
SEQEND
  8
0
  0
POLYLINE
  8
TOPLAYER
 66
     1
 70
     1
 40
0.399999
 41
0.399999
  0
VERTEX
  8
TOPLAYER
 10
2.6448
 20
16.141802
 42
1.0
  0
VERTEX
  8
TOPLAYER
 10
3.0448
 20
16.141802
 42
1.0
  0
SEQEND
  8
0
  0
POLYLINE
  8
TOPPASTE
 66
     1
 40
0.800001
 41
0.800001
  0
VERTEX
  8
TOPPASTE
 10
2.8448
 20
17.741798
  0
VERTEX
  8
TOPPASTE
 10
2.8448
 20
16.141802
  0
SEQEND
  8
0
  0
POLYLINE
  8
TOPPASTE
 66
     1
 70
     1
 40
0.399999
 41
0.399999
  0
VERTEX
  8
TOPPASTE
 10
2.6448
 20
17.741798
 42
1.0
  0
VERTEX
  8
TOPPASTE
 10
3.0448
 20
17.741798
 42
1.0
  0
SEQEND
  8
0
  0
POLYLINE
  8
TOPPASTE
 66
     1
 70
     1
 40
0.399999
 41
0.399999
  0
VERTEX
  8
TOPPASTE
 10
2.6448
 20
16.141802
 42
1.0
  0
VERTEX
  8
TOPPASTE
 10
3.0448
 20
16.141802
 42
1.0
  0
SEQEND
  8
0
  0
POLYLINE
  8
TOPSOLDER
 66
     1
 40
1.003201
 41
1.003201
  0
VERTEX
  8
TOPSOLDER
 10
2.8448
 20
17.741798
  0
VERTEX
  8
TOPSOLDER
 10
2.8448
 20
16.141802
  0
SEQEND
  8
0
  0
POLYLINE
  8
TOPSOLDER
 66
     1
 70
     1
 40
0.501599
 41
0.501599
  0
VERTEX
  8
TOPSOLDER
 10
2.594
 20
17.741798
 42
1.0
  0
VERTEX
  8
TOPSOLDER
 10
3.0956
 20
17.741798
 42
1.0
  0
SEQEND
  8
0
  0
POLYLINE
  8
TOPSOLDER
 66
     1
 70
     1
 40
0.501599
 41
0.501599
  0
VERTEX
  8
TOPSOLDER
 10
2.594
 20
16.141802
 42
1.0
  0
VERTEX
  8
TOPSOLDER
 10
3.0956
 20
16.141802
 42
1.0
  0
SEQEND
  8
0
  0
POLYLINE
  8
TOPLAYER
 66
     1
 40
0.800001
 41
0.800001
  0
VERTEX
  8
TOPLAYER
 10
0.3048
 20
17.741798
  0
VERTEX
  8
TOPLAYER
 10
0.3048
 20
16.141802
  0
SEQEND
  8
0
  0
POLYLINE
  8
TOPLAYER
 66
     1
 70
     1
 40
0.399999
 41
0.399999
  0
VERTEX
  8
TOPLAYER
 10
0.1048
 20
17.741798
 42
1.0
  0
VERTEX
  8
TOPLAYER
 10
0.5048
 20
17.741798
 42
1.0
  0
SEQEND
  8
0
  0
POLYLINE
  8
TOPLAYER
 66
     1
 70
     1
 40
0.399999
 41
0.399999
  0
VERTEX
  8
TOPLAYER
 10
0.1048
 20
16.141802
 42
1.0
  0
VERTEX
  8
TOPLAYER
 10
0.5048
 20
16.141802
 42
1.0
  0
SEQEND
  8
0
  0
POLYLINE
  8
TOPPASTE
 66
     1
 40
0.800001
 41
0.800001
  0
VERTEX
  8
TOPPASTE
 10
0.3048
 20
17.741798
  0
VERTEX
  8
TOPPASTE
 10
0.3048
 20
16.141802
  0
SEQEND
  8
0
  0
POLYLINE
  8
TOPPASTE
 66
     1
 70
     1
 40
0.399999
 41
0.399999
  0
VERTEX
  8
TOPPASTE
 10
0.1048
 20
17.741798
 42
1.0
  0
VERTEX
  8
TOPPASTE
 10
0.5048
 20
17.741798
 42
1.0
  0
SEQEND
  8
0
  0
POLYLINE
  8
TOPPASTE
 66
     1
 70
     1
 40
0.399999
 41
0.399999
  0
VERTEX
  8
TOPPASTE
 10
0.1048
 20
16.141802
 42
1.0
  0
VERTEX
  8
TOPPASTE
 10
0.5048
 20
16.141802
 42
1.0
  0
SEQEND
  8
0
  0
POLYLINE
  8
TOPSOLDER
 66
     1
 40
1.003201
 41
1.003201
  0
VERTEX
  8
TOPSOLDER
 10
0.3048
 20
17.741798
  0
VERTEX
  8
TOPSOLDER
 10
0.3048
 20
16.141802
  0
SEQEND
  8
0
  0
POLYLINE
  8
TOPSOLDER
 66
     1
 70
     1
 40
0.501599
 41
0.501599
  0
VERTEX
  8
TOPSOLDER
 10
0.054
 20
17.741798
 42
1.0
  0
VERTEX
  8
TOPSOLDER
 10
0.5556
 20
17.741798
 42
1.0
  0
SEQEND
  8
0
  0
POLYLINE
  8
TOPSOLDER
 66
     1
 70
     1
 40
0.501599
 41
0.501599
  0
VERTEX
  8
TOPSOLDER
 10
0.054
 20
16.141802
 42
1.0
  0
VERTEX
  8
TOPSOLDER
 10
0.5556
 20
16.141802
 42
1.0
  0
SEQEND
  8
0
  0
POLYLINE
  8
TOPLAYER
 66
     1
 40
0.800001
 41
0.800001
  0
VERTEX
  8
TOPLAYER
 10
13.97
 20
0.774598
  0
VERTEX
  8
TOPLAYER
 10
13.97
 20
-0.825398
  0
SEQEND
  8
0
  0
POLYLINE
  8
TOPLAYER
 66
     1
 70
     1
 40
0.399999
 41
0.399999
  0
VERTEX
  8
TOPLAYER
 10
13.77
 20
0.774598
 42
1.0
  0
VERTEX
  8
TOPLAYER
 10
14.17
 20
0.774598
 42
1.0
  0
SEQEND
  8
0
  0
POLYLINE
  8
TOPLAYER
 66
     1
 70
     1
 40
0.399999
 41
0.399999
  0
VERTEX
  8
TOPLAYER
 10
13.77
 20
-0.825398
 42
1.0
  0
VERTEX
  8
TOPLAYER
 10
14.17
 20
-0.825398
 42
1.0
  0
SEQEND
  8
0
  0
POLYLINE
  8
TOPPASTE
 66
     1
 40
0.800001
 41
0.800001
  0
VERTEX
  8
TOPPASTE
 10
13.97
 20
0.774598
  0
VERTEX
  8
TOPPASTE
 10
13.97
 20
-0.825398
  0
SEQEND
  8
0
  0
POLYLINE
  8
TOPPASTE
 66
     1
 70
     1
 40
0.399999
 41
0.399999
  0
VERTEX
  8
TOPPASTE
 10
13.77
 20
0.774598
 42
1.0
  0
VERTEX
  8
TOPPASTE
 10
14.17
 20
0.774598
 42
1.0
  0
SEQEND
  8
0
  0
POLYLINE
  8
TOPPASTE
 66
     1
 70
     1
 40
0.399999
 41
0.399999
  0
VERTEX
  8
TOPPASTE
 10
13.77
 20
-0.825398
 42
1.0
  0
VERTEX
  8
TOPPASTE
 10
14.17
 20
-0.825398
 42
1.0
  0
SEQEND
  8
0
  0
POLYLINE
  8
TOPSOLDER
 66
     1
 40
1.003201
 41
1.003201
  0
VERTEX
  8
TOPSOLDER
 10
13.97
 20
0.774598
  0
VERTEX
  8
TOPSOLDER
 10
13.97
 20
-0.825398
  0
SEQEND
  8
0
  0
POLYLINE
  8
TOPSOLDER
 66
     1
 70
     1
 40
0.501599
 41
0.501599
  0
VERTEX
  8
TOPSOLDER
 10
13.7192
 20
0.774598
 42
1.0
  0
VERTEX
  8
TOPSOLDER
 10
14.2208
 20
0.774598
 42
1.0
  0
SEQEND
  8
0
  0
POLYLINE
  8
TOPSOLDER
 66
     1
 70
     1
 40
0.501599
 41
0.501599
  0
VERTEX
  8
TOPSOLDER
 10
13.7192
 20
-0.825398
 42
1.0
  0
VERTEX
  8
TOPSOLDER
 10
14.2208
 20
-0.825398
 42
1.0
  0
SEQEND
  8
0
  0
POLYLINE
  8
TOPLAYER
 66
     1
 40
0.800001
 41
0.800001
  0
VERTEX
  8
TOPLAYER
 10
12.7
 20
0.774598
  0
VERTEX
  8
TOPLAYER
 10
12.7
 20
-0.825398
  0
SEQEND
  8
0
  0
POLYLINE
  8
TOPLAYER
 66
     1
 70
     1
 40
0.399999
 41
0.399999
  0
VERTEX
  8
TOPLAYER
 10
12.5
 20
0.774598
 42
1.0
  0
VERTEX
  8
TOPLAYER
 10
12.9
 20
0.774598
 42
1.0
  0
SEQEND
  8
0
  0
POLYLINE
  8
TOPLAYER
 66
     1
 70
     1
 40
0.399999
 41
0.399999
  0
VERTEX
  8
TOPLAYER
 10
12.5
 20
-0.825398
 42
1.0
  0
VERTEX
  8
TOPLAYER
 10
12.9
 20
-0.825398
 42
1.0
  0
SEQEND
  8
0
  0
POLYLINE
  8
TOPPASTE
 66
     1
 40
0.800001
 41
0.800001
  0
VERTEX
  8
TOPPASTE
 10
12.7
 20
0.774598
  0
VERTEX
  8
TOPPASTE
 10
12.7
 20
-0.825398
  0
SEQEND
  8
0
  0
POLYLINE
  8
TOPPASTE
 66
     1
 70
     1
 40
0.399999
 41
0.399999
  0
VERTEX
  8
TOPPASTE
 10
12.5
 20
0.774598
 42
1.0
  0
VERTEX
  8
TOPPASTE
 10
12.9
 20
0.774598
 42
1.0
  0
SEQEND
  8
0
  0
POLYLINE
  8
TOPPASTE
 66
     1
 70
     1
 40
0.399999
 41
0.399999
  0
VERTEX
  8
TOPPASTE
 10
12.5
 20
-0.825398
 42
1.0
  0
VERTEX
  8
TOPPASTE
 10
12.9
 20
-0.825398
 42
1.0
  0
SEQEND
  8
0
  0
POLYLINE
  8
TOPSOLDER
 66
     1
 40
1.003201
 41
1.003201
  0
VERTEX
  8
TOPSOLDER
 10
12.7
 20
0.774598
  0
VERTEX
  8
TOPSOLDER
 10
12.7
 20
-0.825398
  0
SEQEND
  8
0
  0
POLYLINE
  8
TOPSOLDER
 66
     1
 70
     1
 40
0.501599
 41
0.501599
  0
VERTEX
  8
TOPSOLDER
 10
12.4492
 20
0.774598
 42
1.0
  0
VERTEX
  8
TOPSOLDER
 10
12.9508
 20
0.774598
 42
1.0
  0
SEQEND
  8
0
  0
POLYLINE
  8
TOPSOLDER
 66
     1
 70
     1
 40
0.501599
 41
0.501599
  0
VERTEX
  8
TOPSOLDER
 10
12.4492
 20
-0.825398
 42
1.0
  0
VERTEX
  8
TOPSOLDER
 10
12.9508
 20
-0.825398
 42
1.0
  0
SEQEND
  8
0
  0
POLYLINE
  8
TOPLAYER
 66
     1
 40
0.800001
 41
0.800001
  0
VERTEX
  8
TOPLAYER
 10
11.43
 20
0.774598
  0
VERTEX
  8
TOPLAYER
 10
11.43
 20
-0.825398
  0
SEQEND
  8
0
  0
POLYLINE
  8
TOPLAYER
 66
     1
 70
     1
 40
0.399999
 41
0.399999
  0
VERTEX
  8
TOPLAYER
 10
11.23
 20
0.774598
 42
1.0
  0
VERTEX
  8
TOPLAYER
 10
11.63
 20
0.774598
 42
1.0
  0
SEQEND
  8
0
  0
POLYLINE
  8
TOPLAYER
 66
     1
 70
     1
 40
0.399999
 41
0.399999
  0
VERTEX
  8
TOPLAYER
 10
11.23
 20
-0.825398
 42
1.0
  0
VERTEX
  8
TOPLAYER
 10
11.63
 20
-0.825398
 42
1.0
  0
SEQEND
  8
0
  0
POLYLINE
  8
TOPPASTE
 66
     1
 40
0.800001
 41
0.800001
  0
VERTEX
  8
TOPPASTE
 10
11.43
 20
0.774598
  0
VERTEX
  8
TOPPASTE
 10
11.43
 20
-0.825398
  0
SEQEND
  8
0
  0
POLYLINE
  8
TOPPASTE
 66
     1
 70
     1
 40
0.399999
 41
0.399999
  0
VERTEX
  8
TOPPASTE
 10
11.23
 20
0.774598
 42
1.0
  0
VERTEX
  8
TOPPASTE
 10
11.63
 20
0.774598
 42
1.0
  0
SEQEND
  8
0
  0
POLYLINE
  8
TOPPASTE
 66
     1
 70
     1
 40
0.399999
 41
0.399999
  0
VERTEX
  8
TOPPASTE
 10
11.23
 20
-0.825398
 42
1.0
  0
VERTEX
  8
TOPPASTE
 10
11.63
 20
-0.825398
 42
1.0
  0
SEQEND
  8
0
  0
POLYLINE
  8
TOPSOLDER
 66
     1
 40
1.003201
 41
1.003201
  0
VERTEX
  8
TOPSOLDER
 10
11.43
 20
0.774598
  0
VERTEX
  8
TOPSOLDER
 10
11.43
 20
-0.825398
  0
SEQEND
  8
0
  0
POLYLINE
  8
TOPSOLDER
 66
     1
 70
     1
 40
0.501599
 41
0.501599
  0
VERTEX
  8
TOPSOLDER
 10
11.1792
 20
0.774598
 42
1.0
  0
VERTEX
  8
TOPSOLDER
 10
11.6808
 20
0.774598
 42
1.0
  0
SEQEND
  8
0
  0
POLYLINE
  8
TOPSOLDER
 66
     1
 70
     1
 40
0.501599
 41
0.501599
  0
VERTEX
  8
TOPSOLDER
 10
11.1792
 20
-0.825398
 42
1.0
  0
VERTEX
  8
TOPSOLDER
 10
11.6808
 20
-0.825398
 42
1.0
  0
SEQEND
  8
0
  0
POLYLINE
  8
TOPLAYER
 66
     1
 40
0.800001
 41
0.800001
  0
VERTEX
  8
TOPLAYER
 10
10.16
 20
0.774598
  0
VERTEX
  8
TOPLAYER
 10
10.16
 20
-0.825398
  0
SEQEND
  8
0
  0
POLYLINE
  8
TOPLAYER
 66
     1
 70
     1
 40
0.399999
 41
0.399999
  0
VERTEX
  8
TOPLAYER
 10
9.96
 20
0.774598
 42
1.0
  0
VERTEX
  8
TOPLAYER
 10
10.36
 20
0.774598
 42
1.0
  0
SEQEND
  8
0
  0
POLYLINE
  8
TOPLAYER
 66
     1
 70
     1
 40
0.399999
 41
0.399999
  0
VERTEX
  8
TOPLAYER
 10
9.96
 20
-0.825398
 42
1.0
  0
VERTEX
  8
TOPLAYER
 10
10.36
 20
-0.825398
 42
1.0
  0
SEQEND
  8
0
  0
POLYLINE
  8
TOPPASTE
 66
     1
 40
0.800001
 41
0.800001
  0
VERTEX
  8
TOPPASTE
 10
10.16
 20
0.774598
  0
VERTEX
  8
TOPPASTE
 10
10.16
 20
-0.825398
  0
SEQEND
  8
0
  0
POLYLINE
  8
TOPPASTE
 66
     1
 70
     1
 40
0.399999
 41
0.399999
  0
VERTEX
  8
TOPPASTE
 10
9.96
 20
0.774598
 42
1.0
  0
VERTEX
  8
TOPPASTE
 10
10.36
 20
0.774598
 42
1.0
  0
SEQEND
  8
0
  0
POLYLINE
  8
TOPPASTE
 66
     1
 70
     1
 40
0.399999
 41
0.399999
  0
VERTEX
  8
TOPPASTE
 10
9.96
 20
-0.825398
 42
1.0
  0
VERTEX
  8
TOPPASTE
 10
10.36
 20
-0.825398
 42
1.0
  0
SEQEND
  8
0
  0
POLYLINE
  8
TOPSOLDER
 66
     1
 40
1.003201
 41
1.003201
  0
VERTEX
  8
TOPSOLDER
 10
10.16
 20
0.774598
  0
VERTEX
  8
TOPSOLDER
 10
10.16
 20
-0.825398
  0
SEQEND
  8
0
  0
POLYLINE
  8
TOPSOLDER
 66
     1
 70
     1
 40
0.501599
 41
0.501599
  0
VERTEX
  8
TOPSOLDER
 10
9.9092
 20
0.774598
 42
1.0
  0
VERTEX
  8
TOPSOLDER
 10
10.4108
 20
0.774598
 42
1.0
  0
SEQEND
  8
0
  0
POLYLINE
  8
TOPSOLDER
 66
     1
 70
     1
 40
0.501599
 41
0.501599
  0
VERTEX
  8
TOPSOLDER
 10
9.9092
 20
-0.825398
 42
1.0
  0
VERTEX
  8
TOPSOLDER
 10
10.4108
 20
-0.825398
 42
1.0
  0
SEQEND
  8
0
  0
POLYLINE
  8
TOPLAYER
 66
     1
 40
0.800001
 41
0.800001
  0
VERTEX
  8
TOPLAYER
 10
8.89
 20
0.774598
  0
VERTEX
  8
TOPLAYER
 10
8.89
 20
-0.825398
  0
SEQEND
  8
0
  0
POLYLINE
  8
TOPLAYER
 66
     1
 70
     1
 40
0.399999
 41
0.399999
  0
VERTEX
  8
TOPLAYER
 10
8.69
 20
0.774598
 42
1.0
  0
VERTEX
  8
TOPLAYER
 10
9.09
 20
0.774598
 42
1.0
  0
SEQEND
  8
0
  0
POLYLINE
  8
TOPLAYER
 66
     1
 70
     1
 40
0.399999
 41
0.399999
  0
VERTEX
  8
TOPLAYER
 10
8.69
 20
-0.825398
 42
1.0
  0
VERTEX
  8
TOPLAYER
 10
9.09
 20
-0.825398
 42
1.0
  0
SEQEND
  8
0
  0
POLYLINE
  8
TOPPASTE
 66
     1
 40
0.800001
 41
0.800001
  0
VERTEX
  8
TOPPASTE
 10
8.89
 20
0.774598
  0
VERTEX
  8
TOPPASTE
 10
8.89
 20
-0.825398
  0
SEQEND
  8
0
  0
POLYLINE
  8
TOPPASTE
 66
     1
 70
     1
 40
0.399999
 41
0.399999
  0
VERTEX
  8
TOPPASTE
 10
8.69
 20
0.774598
 42
1.0
  0
VERTEX
  8
TOPPASTE
 10
9.09
 20
0.774598
 42
1.0
  0
SEQEND
  8
0
  0
POLYLINE
  8
TOPPASTE
 66
     1
 70
     1
 40
0.399999
 41
0.399999
  0
VERTEX
  8
TOPPASTE
 10
8.69
 20
-0.825398
 42
1.0
  0
VERTEX
  8
TOPPASTE
 10
9.09
 20
-0.825398
 42
1.0
  0
SEQEND
  8
0
  0
POLYLINE
  8
TOPSOLDER
 66
     1
 40
1.003201
 41
1.003201
  0
VERTEX
  8
TOPSOLDER
 10
8.89
 20
0.774598
  0
VERTEX
  8
TOPSOLDER
 10
8.89
 20
-0.825398
  0
SEQEND
  8
0
  0
POLYLINE
  8
TOPSOLDER
 66
     1
 70
     1
 40
0.501599
 41
0.501599
  0
VERTEX
  8
TOPSOLDER
 10
8.6392
 20
0.774598
 42
1.0
  0
VERTEX
  8
TOPSOLDER
 10
9.1408
 20
0.774598
 42
1.0
  0
SEQEND
  8
0
  0
POLYLINE
  8
TOPSOLDER
 66
     1
 70
     1
 40
0.501599
 41
0.501599
  0
VERTEX
  8
TOPSOLDER
 10
8.6392
 20
-0.825398
 42
1.0
  0
VERTEX
  8
TOPSOLDER
 10
9.1408
 20
-0.825398
 42
1.0
  0
SEQEND
  8
0
  0
POLYLINE
  8
TOPLAYER
 66
     1
 40
0.800001
 41
0.800001
  0
VERTEX
  8
TOPLAYER
 10
7.62
 20
0.774598
  0
VERTEX
  8
TOPLAYER
 10
7.62
 20
-0.825398
  0
SEQEND
  8
0
  0
POLYLINE
  8
TOPLAYER
 66
     1
 70
     1
 40
0.399999
 41
0.399999
  0
VERTEX
  8
TOPLAYER
 10
7.42
 20
0.774598
 42
1.0
  0
VERTEX
  8
TOPLAYER
 10
7.82
 20
0.774598
 42
1.0
  0
SEQEND
  8
0
  0
POLYLINE
  8
TOPLAYER
 66
     1
 70
     1
 40
0.399999
 41
0.399999
  0
VERTEX
  8
TOPLAYER
 10
7.42
 20
-0.825398
 42
1.0
  0
VERTEX
  8
TOPLAYER
 10
7.82
 20
-0.825398
 42
1.0
  0
SEQEND
  8
0
  0
POLYLINE
  8
TOPPASTE
 66
     1
 40
0.800001
 41
0.800001
  0
VERTEX
  8
TOPPASTE
 10
7.62
 20
0.774598
  0
VERTEX
  8
TOPPASTE
 10
7.62
 20
-0.825398
  0
SEQEND
  8
0
  0
POLYLINE
  8
TOPPASTE
 66
     1
 70
     1
 40
0.399999
 41
0.399999
  0
VERTEX
  8
TOPPASTE
 10
7.42
 20
0.774598
 42
1.0
  0
VERTEX
  8
TOPPASTE
 10
7.82
 20
0.774598
 42
1.0
  0
SEQEND
  8
0
  0
POLYLINE
  8
TOPPASTE
 66
     1
 70
     1
 40
0.399999
 41
0.399999
  0
VERTEX
  8
TOPPASTE
 10
7.42
 20
-0.825398
 42
1.0
  0
VERTEX
  8
TOPPASTE
 10
7.82
 20
-0.825398
 42
1.0
  0
SEQEND
  8
0
  0
POLYLINE
  8
TOPSOLDER
 66
     1
 40
1.003201
 41
1.003201
  0
VERTEX
  8
TOPSOLDER
 10
7.62
 20
0.774598
  0
VERTEX
  8
TOPSOLDER
 10
7.62
 20
-0.825398
  0
SEQEND
  8
0
  0
POLYLINE
  8
TOPSOLDER
 66
     1
 70
     1
 40
0.501599
 41
0.501599
  0
VERTEX
  8
TOPSOLDER
 10
7.3692
 20
0.774598
 42
1.0
  0
VERTEX
  8
TOPSOLDER
 10
7.8708
 20
0.774598
 42
1.0
  0
SEQEND
  8
0
  0
POLYLINE
  8
TOPSOLDER
 66
     1
 70
     1
 40
0.501599
 41
0.501599
  0
VERTEX
  8
TOPSOLDER
 10
7.3692
 20
-0.825398
 42
1.0
  0
VERTEX
  8
TOPSOLDER
 10
7.8708
 20
-0.825398
 42
1.0
  0
SEQEND
  8
0
  0
POLYLINE
  8
TOPLAYER
 66
     1
 40
0.800001
 41
0.800001
  0
VERTEX
  8
TOPLAYER
 10
6.35
 20
0.774598
  0
VERTEX
  8
TOPLAYER
 10
6.35
 20
-0.825398
  0
SEQEND
  8
0
  0
POLYLINE
  8
TOPLAYER
 66
     1
 70
     1
 40
0.399999
 41
0.399999
  0
VERTEX
  8
TOPLAYER
 10
6.15
 20
0.774598
 42
1.0
  0
VERTEX
  8
TOPLAYER
 10
6.55
 20
0.774598
 42
1.0
  0
SEQEND
  8
0
  0
POLYLINE
  8
TOPLAYER
 66
     1
 70
     1
 40
0.399999
 41
0.399999
  0
VERTEX
  8
TOPLAYER
 10
6.15
 20
-0.825398
 42
1.0
  0
VERTEX
  8
TOPLAYER
 10
6.55
 20
-0.825398
 42
1.0
  0
SEQEND
  8
0
  0
POLYLINE
  8
TOPPASTE
 66
     1
 40
0.800001
 41
0.800001
  0
VERTEX
  8
TOPPASTE
 10
6.35
 20
0.774598
  0
VERTEX
  8
TOPPASTE
 10
6.35
 20
-0.825398
  0
SEQEND
  8
0
  0
POLYLINE
  8
TOPPASTE
 66
     1
 70
     1
 40
0.399999
 41
0.399999
  0
VERTEX
  8
TOPPASTE
 10
6.15
 20
0.774598
 42
1.0
  0
VERTEX
  8
TOPPASTE
 10
6.55
 20
0.774598
 42
1.0
  0
SEQEND
  8
0
  0
POLYLINE
  8
TOPPASTE
 66
     1
 70
     1
 40
0.399999
 41
0.399999
  0
VERTEX
  8
TOPPASTE
 10
6.15
 20
-0.825398
 42
1.0
  0
VERTEX
  8
TOPPASTE
 10
6.55
 20
-0.825398
 42
1.0
  0
SEQEND
  8
0
  0
POLYLINE
  8
TOPSOLDER
 66
     1
 40
1.003201
 41
1.003201
  0
VERTEX
  8
TOPSOLDER
 10
6.35
 20
0.774598
  0
VERTEX
  8
TOPSOLDER
 10
6.35
 20
-0.825398
  0
SEQEND
  8
0
  0
POLYLINE
  8
TOPSOLDER
 66
     1
 70
     1
 40
0.501599
 41
0.501599
  0
VERTEX
  8
TOPSOLDER
 10
6.0992
 20
0.774598
 42
1.0
  0
VERTEX
  8
TOPSOLDER
 10
6.6008
 20
0.774598
 42
1.0
  0
SEQEND
  8
0
  0
POLYLINE
  8
TOPSOLDER
 66
     1
 70
     1
 40
0.501599
 41
0.501599
  0
VERTEX
  8
TOPSOLDER
 10
6.0992
 20
-0.825398
 42
1.0
  0
VERTEX
  8
TOPSOLDER
 10
6.6008
 20
-0.825398
 42
1.0
  0
SEQEND
  8
0
  0
POLYLINE
  8
TOPLAYER
 66
     1
 40
0.800001
 41
0.800001
  0
VERTEX
  8
TOPLAYER
 10
5.08
 20
0.774598
  0
VERTEX
  8
TOPLAYER
 10
5.08
 20
-0.825398
  0
SEQEND
  8
0
  0
POLYLINE
  8
TOPLAYER
 66
     1
 70
     1
 40
0.399999
 41
0.399999
  0
VERTEX
  8
TOPLAYER
 10
4.88
 20
0.774598
 42
1.0
  0
VERTEX
  8
TOPLAYER
 10
5.28
 20
0.774598
 42
1.0
  0
SEQEND
  8
0
  0
POLYLINE
  8
TOPLAYER
 66
     1
 70
     1
 40
0.399999
 41
0.399999
  0
VERTEX
  8
TOPLAYER
 10
4.88
 20
-0.825398
 42
1.0
  0
VERTEX
  8
TOPLAYER
 10
5.28
 20
-0.825398
 42
1.0
  0
SEQEND
  8
0
  0
POLYLINE
  8
TOPPASTE
 66
     1
 40
0.800001
 41
0.800001
  0
VERTEX
  8
TOPPASTE
 10
5.08
 20
0.774598
  0
VERTEX
  8
TOPPASTE
 10
5.08
 20
-0.825398
  0
SEQEND
  8
0
  0
POLYLINE
  8
TOPPASTE
 66
     1
 70
     1
 40
0.399999
 41
0.399999
  0
VERTEX
  8
TOPPASTE
 10
4.88
 20
0.774598
 42
1.0
  0
VERTEX
  8
TOPPASTE
 10
5.28
 20
0.774598
 42
1.0
  0
SEQEND
  8
0
  0
POLYLINE
  8
TOPPASTE
 66
     1
 70
     1
 40
0.399999
 41
0.399999
  0
VERTEX
  8
TOPPASTE
 10
4.88
 20
-0.825398
 42
1.0
  0
VERTEX
  8
TOPPASTE
 10
5.28
 20
-0.825398
 42
1.0
  0
SEQEND
  8
0
  0
POLYLINE
  8
TOPSOLDER
 66
     1
 40
1.003201
 41
1.003201
  0
VERTEX
  8
TOPSOLDER
 10
5.08
 20
0.774598
  0
VERTEX
  8
TOPSOLDER
 10
5.08
 20
-0.825398
  0
SEQEND
  8
0
  0
POLYLINE
  8
TOPSOLDER
 66
     1
 70
     1
 40
0.501599
 41
0.501599
  0
VERTEX
  8
TOPSOLDER
 10
4.8292
 20
0.774598
 42
1.0
  0
VERTEX
  8
TOPSOLDER
 10
5.3308
 20
0.774598
 42
1.0
  0
SEQEND
  8
0
  0
POLYLINE
  8
TOPSOLDER
 66
     1
 70
     1
 40
0.501599
 41
0.501599
  0
VERTEX
  8
TOPSOLDER
 10
4.8292
 20
-0.825398
 42
1.0
  0
VERTEX
  8
TOPSOLDER
 10
5.3308
 20
-0.825398
 42
1.0
  0
SEQEND
  8
0
  0
POLYLINE
  8
TOPLAYER
 66
     1
 40
0.800001
 41
0.800001
  0
VERTEX
  8
TOPLAYER
 10
3.81
 20
0.774598
  0
VERTEX
  8
TOPLAYER
 10
3.81
 20
-0.825398
  0
SEQEND
  8
0
  0
POLYLINE
  8
TOPLAYER
 66
     1
 70
     1
 40
0.399999
 41
0.399999
  0
VERTEX
  8
TOPLAYER
 10
3.61
 20
0.774598
 42
1.0
  0
VERTEX
  8
TOPLAYER
 10
4.01
 20
0.774598
 42
1.0
  0
SEQEND
  8
0
  0
POLYLINE
  8
TOPLAYER
 66
     1
 70
     1
 40
0.399999
 41
0.399999
  0
VERTEX
  8
TOPLAYER
 10
3.61
 20
-0.825398
 42
1.0
  0
VERTEX
  8
TOPLAYER
 10
4.01
 20
-0.825398
 42
1.0
  0
SEQEND
  8
0
  0
POLYLINE
  8
TOPPASTE
 66
     1
 40
0.800001
 41
0.800001
  0
VERTEX
  8
TOPPASTE
 10
3.81
 20
0.774598
  0
VERTEX
  8
TOPPASTE
 10
3.81
 20
-0.825398
  0
SEQEND
  8
0
  0
POLYLINE
  8
TOPPASTE
 66
     1
 70
     1
 40
0.399999
 41
0.399999
  0
VERTEX
  8
TOPPASTE
 10
3.61
 20
0.774598
 42
1.0
  0
VERTEX
  8
TOPPASTE
 10
4.01
 20
0.774598
 42
1.0
  0
SEQEND
  8
0
  0
POLYLINE
  8
TOPPASTE
 66
     1
 70
     1
 40
0.399999
 41
0.399999
  0
VERTEX
  8
TOPPASTE
 10
3.61
 20
-0.825398
 42
1.0
  0
VERTEX
  8
TOPPASTE
 10
4.01
 20
-0.825398
 42
1.0
  0
SEQEND
  8
0
  0
POLYLINE
  8
TOPSOLDER
 66
     1
 40
1.003201
 41
1.003201
  0
VERTEX
  8
TOPSOLDER
 10
3.81
 20
0.774598
  0
VERTEX
  8
TOPSOLDER
 10
3.81
 20
-0.825398
  0
SEQEND
  8
0
  0
POLYLINE
  8
TOPSOLDER
 66
     1
 70
     1
 40
0.501599
 41
0.501599
  0
VERTEX
  8
TOPSOLDER
 10
3.5592
 20
0.774598
 42
1.0
  0
VERTEX
  8
TOPSOLDER
 10
4.0608
 20
0.774598
 42
1.0
  0
SEQEND
  8
0
  0
POLYLINE
  8
TOPSOLDER
 66
     1
 70
     1
 40
0.501599
 41
0.501599
  0
VERTEX
  8
TOPSOLDER
 10
3.5592
 20
-0.825398
 42
1.0
  0
VERTEX
  8
TOPSOLDER
 10
4.0608
 20
-0.825398
 42
1.0
  0
SEQEND
  8
0
  0
POLYLINE
  8
TOPLAYER
 66
     1
 40
0.800001
 41
0.800001
  0
VERTEX
  8
TOPLAYER
 10
2.54
 20
0.774598
  0
VERTEX
  8
TOPLAYER
 10
2.54
 20
-0.825398
  0
SEQEND
  8
0
  0
POLYLINE
  8
TOPLAYER
 66
     1
 70
     1
 40
0.399999
 41
0.399999
  0
VERTEX
  8
TOPLAYER
 10
2.34
 20
0.774598
 42
1.0
  0
VERTEX
  8
TOPLAYER
 10
2.74
 20
0.774598
 42
1.0
  0
SEQEND
  8
0
  0
POLYLINE
  8
TOPLAYER
 66
     1
 70
     1
 40
0.399999
 41
0.399999
  0
VERTEX
  8
TOPLAYER
 10
2.34
 20
-0.825398
 42
1.0
  0
VERTEX
  8
TOPLAYER
 10
2.74
 20
-0.825398
 42
1.0
  0
SEQEND
  8
0
  0
POLYLINE
  8
TOPPASTE
 66
     1
 40
0.800001
 41
0.800001
  0
VERTEX
  8
TOPPASTE
 10
2.54
 20
0.774598
  0
VERTEX
  8
TOPPASTE
 10
2.54
 20
-0.825398
  0
SEQEND
  8
0
  0
POLYLINE
  8
TOPPASTE
 66
     1
 70
     1
 40
0.399999
 41
0.399999
  0
VERTEX
  8
TOPPASTE
 10
2.34
 20
0.774598
 42
1.0
  0
VERTEX
  8
TOPPASTE
 10
2.74
 20
0.774598
 42
1.0
  0
SEQEND
  8
0
  0
POLYLINE
  8
TOPPASTE
 66
     1
 70
     1
 40
0.399999
 41
0.399999
  0
VERTEX
  8
TOPPASTE
 10
2.34
 20
-0.825398
 42
1.0
  0
VERTEX
  8
TOPPASTE
 10
2.74
 20
-0.825398
 42
1.0
  0
SEQEND
  8
0
  0
POLYLINE
  8
TOPSOLDER
 66
     1
 40
1.003201
 41
1.003201
  0
VERTEX
  8
TOPSOLDER
 10
2.54
 20
0.774598
  0
VERTEX
  8
TOPSOLDER
 10
2.54
 20
-0.825398
  0
SEQEND
  8
0
  0
POLYLINE
  8
TOPSOLDER
 66
     1
 70
     1
 40
0.501599
 41
0.501599
  0
VERTEX
  8
TOPSOLDER
 10
2.2892
 20
0.774598
 42
1.0
  0
VERTEX
  8
TOPSOLDER
 10
2.7908
 20
0.774598
 42
1.0
  0
SEQEND
  8
0
  0
POLYLINE
  8
TOPSOLDER
 66
     1
 70
     1
 40
0.501599
 41
0.501599
  0
VERTEX
  8
TOPSOLDER
 10
2.2892
 20
-0.825398
 42
1.0
  0
VERTEX
  8
TOPSOLDER
 10
2.7908
 20
-0.825398
 42
1.0
  0
SEQEND
  8
0
  0
POLYLINE
  8
TOPLAYER
 66
     1
 40
0.800001
 41
0.800001
  0
VERTEX
  8
TOPLAYER
 10
1.27
 20
0.774598
  0
VERTEX
  8
TOPLAYER
 10
1.27
 20
-0.825398
  0
SEQEND
  8
0
  0
POLYLINE
  8
TOPLAYER
 66
     1
 70
     1
 40
0.399999
 41
0.399999
  0
VERTEX
  8
TOPLAYER
 10
1.07
 20
0.774598
 42
1.0
  0
VERTEX
  8
TOPLAYER
 10
1.47
 20
0.774598
 42
1.0
  0
SEQEND
  8
0
  0
POLYLINE
  8
TOPLAYER
 66
     1
 70
     1
 40
0.399999
 41
0.399999
  0
VERTEX
  8
TOPLAYER
 10
1.07
 20
-0.825398
 42
1.0
  0
VERTEX
  8
TOPLAYER
 10
1.47
 20
-0.825398
 42
1.0
  0
SEQEND
  8
0
  0
POLYLINE
  8
TOPPASTE
 66
     1
 40
0.800001
 41
0.800001
  0
VERTEX
  8
TOPPASTE
 10
1.27
 20
0.774598
  0
VERTEX
  8
TOPPASTE
 10
1.27
 20
-0.825398
  0
SEQEND
  8
0
  0
POLYLINE
  8
TOPPASTE
 66
     1
 70
     1
 40
0.399999
 41
0.399999
  0
VERTEX
  8
TOPPASTE
 10
1.07
 20
0.774598
 42
1.0
  0
VERTEX
  8
TOPPASTE
 10
1.47
 20
0.774598
 42
1.0
  0
SEQEND
  8
0
  0
POLYLINE
  8
TOPPASTE
 66
     1
 70
     1
 40
0.399999
 41
0.399999
  0
VERTEX
  8
TOPPASTE
 10
1.07
 20
-0.825398
 42
1.0
  0
VERTEX
  8
TOPPASTE
 10
1.47
 20
-0.825398
 42
1.0
  0
SEQEND
  8
0
  0
POLYLINE
  8
TOPSOLDER
 66
     1
 40
1.003201
 41
1.003201
  0
VERTEX
  8
TOPSOLDER
 10
1.27
 20
0.774598
  0
VERTEX
  8
TOPSOLDER
 10
1.27
 20
-0.825398
  0
SEQEND
  8
0
  0
POLYLINE
  8
TOPSOLDER
 66
     1
 70
     1
 40
0.501599
 41
0.501599
  0
VERTEX
  8
TOPSOLDER
 10
1.0192
 20
0.774598
 42
1.0
  0
VERTEX
  8
TOPSOLDER
 10
1.5208
 20
0.774598
 42
1.0
  0
SEQEND
  8
0
  0
POLYLINE
  8
TOPSOLDER
 66
     1
 70
     1
 40
0.501599
 41
0.501599
  0
VERTEX
  8
TOPSOLDER
 10
1.0192
 20
-0.825398
 42
1.0
  0
VERTEX
  8
TOPSOLDER
 10
1.5208
 20
-0.825398
 42
1.0
  0
SEQEND
  8
0
  0
POLYLINE
  8
TOPLAYER
 66
     1
 40
0.800001
 41
0.800001
  0
VERTEX
  8
TOPLAYER
 10
0.0
 20
0.774598
  0
VERTEX
  8
TOPLAYER
 10
0.0
 20
-0.825398
  0
SEQEND
  8
0
  0
POLYLINE
  8
TOPLAYER
 66
     1
 70
     1
 40
0.399999
 41
0.399999
  0
VERTEX
  8
TOPLAYER
 10
-0.2
 20
0.774598
 42
1.0
  0
VERTEX
  8
TOPLAYER
 10
0.2
 20
0.774598
 42
1.0
  0
SEQEND
  8
0
  0
POLYLINE
  8
TOPLAYER
 66
     1
 70
     1
 40
0.399999
 41
0.399999
  0
VERTEX
  8
TOPLAYER
 10
-0.2
 20
-0.825398
 42
1.0
  0
VERTEX
  8
TOPLAYER
 10
0.2
 20
-0.825398
 42
1.0
  0
SEQEND
  8
0
  0
POLYLINE
  8
TOPPASTE
 66
     1
 40
0.800001
 41
0.800001
  0
VERTEX
  8
TOPPASTE
 10
0.0
 20
0.774598
  0
VERTEX
  8
TOPPASTE
 10
0.0
 20
-0.825398
  0
SEQEND
  8
0
  0
POLYLINE
  8
TOPPASTE
 66
     1
 70
     1
 40
0.399999
 41
0.399999
  0
VERTEX
  8
TOPPASTE
 10
-0.2
 20
0.774598
 42
1.0
  0
VERTEX
  8
TOPPASTE
 10
0.2
 20
0.774598
 42
1.0
  0
SEQEND
  8
0
  0
POLYLINE
  8
TOPPASTE
 66
     1
 70
     1
 40
0.399999
 41
0.399999
  0
VERTEX
  8
TOPPASTE
 10
-0.2
 20
-0.825398
 42
1.0
  0
VERTEX
  8
TOPPASTE
 10
0.2
 20
-0.825398
 42
1.0
  0
SEQEND
  8
0
  0
POLYLINE
  8
TOPSOLDER
 66
     1
 40
1.003201
 41
1.003201
  0
VERTEX
  8
TOPSOLDER
 10
0.0
 20
0.774598
  0
VERTEX
  8
TOPSOLDER
 10
0.0
 20
-0.825398
  0
SEQEND
  8
0
  0
POLYLINE
  8
TOPSOLDER
 66
     1
 70
     1
 40
0.501599
 41
0.501599
  0
VERTEX
  8
TOPSOLDER
 10
-0.2508
 20
0.774598
 42
1.0
  0
VERTEX
  8
TOPSOLDER
 10
0.2508
 20
0.774598
 42
1.0
  0
SEQEND
  8
0
  0
POLYLINE
  8
TOPSOLDER
 66
     1
 70
     1
 40
0.501599
 41
0.501599
  0
VERTEX
  8
TOPSOLDER
 10
-0.2508
 20
-0.825398
 42
1.0
  0
VERTEX
  8
TOPSOLDER
 10
0.2508
 20
-0.825398
 42
1.0
  0
SEQEND
  8
0
  0
ENDBLK
  8
0
  0
ENDSEC
  0
SECTION
  2
ENTITIES
  0
INSERT
  8
0
  2
HW3000_1
 10
89.916
 20
72.136
 50
360.0
  0
ENDSEC
  0
EOF
