G04 ================== begin FILE IDENTIFICATION RECORD ==================*
G04 Layout Name:  F:/projects/18/hmc5883/hmc5883.brd*
G04 Film Name:    ncdrill*
G04 File Format:  Gerber RS274X*
G04 File Origin:  Cadence Allegro 16.6-2015-S108*
G04 Origin Date:  Mon Nov 12 22:07:45 2018*
G04 *
G04 Layer:  MANUFACTURING/NCLEGEND-1-2*
G04 Layer:  BOARD GEOMETRY/OUTLINE*
G04 *
G04 Offset:    (0.000 0.000)*
G04 Mirror:    No*
G04 Mode:      Positive*
G04 Rotation:  0*
G04 FullContactRelief:  No*
G04 UndefLineWidth:     0.000*
G04 ================== end FILE IDENTIFICATION RECORD ====================*
%FSLAX25Y25*MOIN*%
%IR0*IPPOS*OFA0.00000B0.00000*MIA0B0*SFA1.00000B1.00000*%
%AMMACRO12*
1,1,0.0,.006,0.0*
20,1,0.0,.006,0.0,-.006,0.0,0.0*
1,1,0.0,-.006,0.0*
1,1,0.0,0.0,.006*
20,1,0.0,0.0,.006,0.0,-.006,0.0*
1,1,0.0,0.0,-.006*
%
%ADD12MACRO12*%
%AMMACRO13*
1,1,0.0,.0125,0.0*
20,1,0.0,.0125,0.0,.00625,.010825,0.0*
1,1,0.0,.00625,.010825*
20,1,0.0,.00625,.010825,-.00625,.010825,0.0*
1,1,0.0,-.00625,.010825*
20,1,0.0,-.00625,.010825,-.0125,0.0,0.0*
1,1,0.0,-.0125,0.0*
20,1,0.0,-.0125,0.0,-.00625,-.010825,0.0*
1,1,0.0,-.00625,-.010825*
20,1,0.0,-.00625,-.010825,.00625,-.010825,0.0*
1,1,0.0,.00625,-.010825*
20,1,0.0,.00625,-.010825,.0125,0.0,0.0*
1,1,0.0,.0125,0.0*
%
%ADD13MACRO13*%
%AMMACRO11*
1,1,0.0,0.0,.017715*
20,1,0.0,0.0,.017715,-.015341,.008857,0.0*
1,1,0.0,-.015341,.008857*
20,1,0.0,-.015341,.008857,-.015341,-.008857,0.0*
1,1,0.0,-.015341,-.008857*
20,1,0.0,-.015341,-.008857,0.0,-.017715,0.0*
1,1,0.0,0.0,-.017715*
20,1,0.0,0.0,-.017715,.015341,-.008857,0.0*
1,1,0.0,.015341,-.008857*
20,1,0.0,.015341,-.008857,.015341,.008857,0.0*
1,1,0.0,.015341,.008857*
20,1,0.0,.015341,.008857,0.0,.017715,0.0*
1,1,0.0,0.0,.017715*
%
%ADD11MACRO11*%
%AMMACRO10*
1,1,0.0,.01,.01*
20,1,0.0,.01,.01,.01,-.01,0.0*
1,1,0.0,.01,-.01*
20,1,0.0,.01,-.01,-.01,-.01,0.0*
1,1,0.0,-.01,-.01*
20,1,0.0,-.01,-.01,-.01,.01,0.0*
1,1,0.0,-.01,.01*
20,1,0.0,-.01,.01,.01,.01,0.0*
1,1,0.0,.01,.01*
%
%ADD10MACRO10*%
%LPD*%
G75*
G54D10*
X-77425Y-47427D03*
X-72425D03*
X-82425Y-37427D03*
X-77425D03*
X-72425D03*
X-82425Y-27427D03*
X-77425D03*
X-87425Y-17427D03*
X-67425Y-37427D03*
Y62573D03*
X-47425Y-77427D03*
X-27624Y-70220D03*
X-32928Y-70177D03*
X-32425Y12573D03*
Y22573D03*
Y32573D03*
X-37425Y82573D03*
X-32425D03*
X-17425Y-87427D03*
X-12425D03*
X-27425Y-77427D03*
X-22425D03*
X-17425D03*
X-6848Y-68820D03*
X-22452Y-70177D03*
X-17425Y-67427D03*
X-22425Y-57427D03*
X-11880Y-56828D03*
X-22425Y2573D03*
X-27425Y12573D03*
X-22425D03*
X-27425Y22573D03*
Y32573D03*
Y42573D03*
X-12425Y62573D03*
X-7425D03*
X-22425Y72573D03*
X-17425D03*
X-12425D03*
X-7425D03*
X-27425Y82573D03*
X-22425D03*
X-17425D03*
X-12425D03*
X-7425D03*
X-2988Y-74868D03*
X9460Y-32392D03*
X12575Y12573D03*
Y22573D03*
Y32573D03*
X2624Y70356D03*
X-1408Y65532D03*
X-2425Y72573D03*
X3412Y85696D03*
X12444Y85872D03*
X-2425Y82573D03*
X33092Y-8828D03*
X17575Y12573D03*
X22575D03*
X27575D03*
X32575D03*
X17575Y22573D03*
X22575D03*
X17575Y32573D03*
X22575D03*
X27575Y22573D03*
X32575D03*
X27575Y32573D03*
X32575D03*
X17575Y42573D03*
X22575D03*
X27575D03*
X32575D03*
X19984Y51596D03*
X30504Y74476D03*
X31116Y78420D03*
X17264Y90080D03*
X52575Y-47427D03*
X57575D03*
Y-37427D03*
X52575Y12573D03*
X57575D03*
X52575Y22573D03*
Y32573D03*
X57575Y22573D03*
Y32573D03*
X52575Y42573D03*
X57575D03*
X47575Y52573D03*
X52575D03*
X57575D03*
X37252Y59220D03*
X42575Y62573D03*
X47575D03*
X52575D03*
X37575Y72573D03*
X42575D03*
X47575D03*
X52575D03*
X57575Y62573D03*
X37575Y82573D03*
X62575Y-67427D03*
Y-47427D03*
X67575D03*
X72575D03*
X77575D03*
X62575Y-37427D03*
X67575D03*
X62575Y12573D03*
X67575D03*
X72575D03*
X77575D03*
X62575Y22573D03*
X67575D03*
X72575D03*
X77575D03*
X62575Y32573D03*
X67575D03*
X72575D03*
X77575D03*
X62575Y42573D03*
X67575D03*
X72575D03*
X77575D03*
X62575Y52573D03*
X67575D03*
X72575D03*
X62575Y62573D03*
X67575D03*
X87575Y-17427D03*
Y-7427D03*
Y2573D03*
X82575Y12573D03*
X87575D03*
X82575Y22573D03*
Y32573D03*
X87575Y22573D03*
X264161Y-22283D03*
G54D11*
X-88868Y-2253D03*
X-81796Y4818D03*
X-74725Y11889D03*
X-67654Y18960D03*
X-60583Y26031D03*
X-53512Y33102D03*
X-46441Y40173D03*
X-39370Y47244D03*
X-2253Y-88868D03*
X4818Y-81796D03*
X11889Y-74725D03*
X18960Y-67654D03*
X26031Y-60583D03*
X33102Y-53512D03*
X40173Y-46441D03*
X47244Y-39370D03*
X264161Y-72283D03*
G54D12*
X-57904Y-36383D03*
X-50372Y-52086D03*
X-56432Y-12220D03*
X-56388Y-17124D03*
X-53560Y-23418D03*
X-37712Y-57492D03*
X-41492Y-47856D03*
X-35636Y-33016D03*
X-42788Y-44632D03*
X-34588Y-49760D03*
X2452Y-48548D03*
X9024Y46016D03*
X12212Y62756D03*
X18240Y-46292D03*
X17368Y-4180D03*
X264161Y2717D03*
G54D13*
X7272Y-13200D03*
X264161Y-47283D03*
M02*
