G04 ================== begin FILE IDENTIFICATION RECORD ==================*
G04 Layout Name:  F:/projects/18/hmc5883/hmc5883.brd*
G04 Film Name:    silkscreen_top*
G04 File Format:  Gerber RS274X*
G04 File Origin:  Cadence Allegro 16.6-2015-S108*
G04 Origin Date:  Mon Nov 12 22:07:45 2018*
G04 *
G04 Layer:  REF DES/SILKSCREEN_TOP*
G04 Layer:  MANUFACTURING/AUTOSILK_TOP*
G04 Layer:  COMPONENT VALUE/SILKSCREEN_TOP*
G04 Layer:  PACKAGE GEOMETRY/SILKSCREEN_TOP*
G04 Layer:  BOARD GEOMETRY/SILKSCREEN_TOP*
G04 Layer:  BOARD GEOMETRY/OUTLINE*
G04 *
G04 Offset:    (0.000 0.000)*
G04 Mirror:    No*
G04 Mode:      Positive*
G04 Rotation:  0*
G04 FullContactRelief:  No*
G04 UndefLineWidth:     0.000*
G04 ================== end FILE IDENTIFICATION RECORD ====================*
%FSLAX25Y25*MOIN*%
%IR0*IPPOS*OFA0.00000B0.00000*MIA0B0*SFA1.00000B1.00000*%
%ADD10C,.005*%
%ADD11C,.01*%
G75*
%LPD*%
G75*
G54D10*
G01X-30524Y47835D02*
X-88969Y-10610D01*
X-97260Y-2319D01*
X-38815Y56126D01*
X-30524Y47835D01*
G01X-65040Y-46569D02*
X-41555Y-70054D01*
X-50552Y-79051D01*
X-74037Y-55566D01*
X-65040Y-46569D01*
G01X-78068Y-43961D02*
X-78151Y-44232D01*
X-78155Y-44463D01*
X-78083Y-44653D01*
X-77873Y-44745D01*
X-77642Y-44740D01*
X-77352Y-44676D01*
X-77079Y-44478D01*
X-75900Y-43300D01*
G01X-75377Y-44413D02*
X-75087Y-44349D01*
X-74867Y-44392D01*
X-74687Y-44514D01*
X-74557Y-44761D01*
X-74573Y-45040D01*
X-74712Y-45254D01*
X-74907Y-45412D01*
X-75130Y-45484D01*
X-75801Y-45402D01*
X-76177Y-45439D01*
X-76585Y-45621D01*
X-76888Y-45848D01*
X-76096Y-46639D01*
G01X-75770Y-19817D02*
X-74002Y-18049D01*
X-73531Y-18520D01*
X-73469Y-18759D01*
X-73493Y-18971D01*
X-73691Y-19244D01*
X-73964Y-19442D01*
X-74224Y-19477D01*
X-74445Y-19433D01*
X-74916Y-18962D01*
G01X-74445Y-19433D02*
X-75017Y-20570D01*
G01X-73840Y-21746D02*
X-72073Y-19979D01*
X-72652Y-20106D01*
G01X-74066Y-21520D02*
X-73615Y-21972D01*
G01X-70520Y-21531D02*
X-70730Y-21440D01*
X-70990Y-21474D01*
X-71242Y-21575D01*
X-71534Y-21755D01*
X-71818Y-22001D01*
X-72064Y-22285D01*
X-72244Y-22577D01*
X-72345Y-22829D01*
X-72380Y-23090D01*
X-72288Y-23299D01*
X-72078Y-23391D01*
X-71818Y-23357D01*
X-71566Y-23255D01*
X-71274Y-23076D01*
X-70990Y-22830D01*
X-70743Y-22546D01*
X-70564Y-22253D01*
X-70463Y-22001D01*
X-70428Y-21741D01*
X-70520Y-21531D01*
G01X-64423Y-32849D02*
X-64247Y-33024D01*
X-61252Y-30029D01*
X-68292Y-22988D01*
X-71288Y-25984D01*
X-64423Y-32849D01*
G01X-43557Y-56412D02*
X-43382Y-56587D01*
X-40386Y-53592D01*
X-47426Y-46551D01*
X-50422Y-49546D01*
X-43557Y-56412D01*
G01X-62793Y-17829D02*
X-62968Y-17654D01*
X-65964Y-20649D01*
X-58923Y-27690D01*
X-55928Y-24694D01*
X-62793Y-17829D01*
G01X6928Y-30674D02*
X-22088Y-59690D01*
X-51160Y-30618D01*
X-22144Y-1602D01*
X6928Y-30674D01*
G01X-46901Y6260D02*
X-46926Y6462D01*
X-46999Y6652D01*
X-47149Y6803D01*
X-47407Y6884D01*
X-47686Y6869D01*
X-47957Y6786D01*
X-48327Y6567D01*
X-48611Y6320D01*
X-48839Y6018D01*
X-48959Y5784D01*
X-49023Y5494D01*
X-49009Y5245D01*
X-48936Y5054D01*
X-48804Y4922D01*
X-48614Y4849D01*
X-48412Y4825D01*
X-48200Y4848D01*
G01X-47444Y4269D02*
X-47537Y3950D01*
X-47504Y3682D01*
X-47364Y3482D01*
X-47184Y3361D01*
X-46886Y3358D01*
X-46615Y3441D01*
X-46420Y3599D01*
X-46251Y3842D01*
X-46236Y4122D01*
X-46309Y4312D01*
X-46478Y4482D01*
G01X-46309Y4312D02*
X-46107Y4288D01*
X-45866Y4341D01*
X-45651Y4480D01*
X-45512Y4694D01*
X-45459Y4936D01*
X-45540Y5194D01*
X-45739Y5334D01*
X-46026Y5385D01*
G01X-52995Y1258D02*
X-51227Y3026D01*
X-50756Y2555D01*
X-50694Y2316D01*
X-50718Y2104D01*
X-50916Y1830D01*
X-51189Y1632D01*
X-51449Y1598D01*
X-51670Y1641D01*
X-52140Y2112D01*
G01X-51670Y1641D02*
X-52241Y504D01*
G01X-51214Y8D02*
X-51249Y-252D01*
X-51205Y-473D01*
X-51065Y-672D01*
X-50837Y-782D01*
X-50587Y-796D01*
X-50287Y-684D01*
X-50032Y-467D01*
X-49834Y-194D01*
X-49781Y48D01*
X-49795Y297D01*
X-49897Y458D01*
X-50059Y561D01*
X-50346Y612D01*
X-49523Y1322D01*
X-49015Y814D01*
G01X-47171Y-203D02*
X-47346Y-27D01*
X-50342Y-3023D01*
X-43302Y-10063D01*
X-40306Y-7068D01*
X-47171Y-203D01*
G01X-41610Y-81657D02*
Y-84157D01*
G01X-42223Y-81657D02*
X-40998D01*
G01X-39414Y-84157D02*
Y-81657D01*
X-39734Y-82157D01*
G01Y-84157D02*
X-39094D01*
G01X-40835Y-57952D02*
X-39067Y-56184D01*
X-38596Y-56655D01*
X-38534Y-56894D01*
X-38558Y-57106D01*
X-38756Y-57379D01*
X-39029Y-57577D01*
X-39289Y-57611D01*
X-39510Y-57568D01*
X-39980Y-57097D01*
G01X-39510Y-57568D02*
X-40082Y-58705D01*
G01X-38905Y-59881D02*
X-37138Y-58113D01*
X-37717Y-58241D01*
G01X-39131Y-59655D02*
X-38679Y-60107D01*
G01X-36237Y-59603D02*
X-35948Y-59539D01*
X-35727Y-59583D01*
X-35547Y-59704D01*
X-35418Y-59951D01*
X-35433Y-60230D01*
X-35572Y-60445D01*
X-35768Y-60603D01*
X-35991Y-60674D01*
X-36662Y-60592D01*
X-37038Y-60629D01*
X-37445Y-60811D01*
X-37748Y-61038D01*
X-36957Y-61829D01*
G01X-39466Y-5207D02*
X-45697Y1023D01*
Y1296D01*
X-43172Y3821D01*
X-42821D01*
X-36630Y-2370D01*
Y-2821D01*
X-39015Y-5207D01*
X-39466D01*
G01X-41711Y10784D02*
X-41736Y10985D01*
X-41809Y11176D01*
X-41960Y11327D01*
X-42218Y11408D01*
X-42496Y11392D01*
X-42768Y11310D01*
X-43138Y11090D01*
X-43421Y10844D01*
X-43649Y10541D01*
X-43769Y10308D01*
X-43833Y10018D01*
X-43819Y9768D01*
X-43746Y9578D01*
X-43614Y9446D01*
X-43424Y9373D01*
X-43222Y9348D01*
X-43010Y9372D01*
G01X-42342Y8704D02*
X-42377Y8444D01*
X-42333Y8224D01*
X-42193Y8025D01*
X-41965Y7914D01*
X-41715Y7900D01*
X-41415Y8012D01*
X-41160Y8229D01*
X-40962Y8503D01*
X-40909Y8744D01*
X-40923Y8994D01*
X-41026Y9155D01*
X-41187Y9258D01*
X-41474Y9309D01*
X-40652Y10019D01*
X-40143Y9510D01*
G01X-34529Y-640D02*
X-40760Y5590D01*
Y5863D01*
X-38235Y8388D01*
X-37884D01*
X-31692Y2197D01*
Y1746D01*
X-34078Y-640D01*
X-34529D01*
G01X-29045Y-7156D02*
G03I-524J0D01*
G01X-30984Y54641D02*
X-30713Y54558D01*
X-30482Y54553D01*
X-30291Y54626D01*
X-30200Y54836D01*
X-30204Y55067D01*
X-30268Y55356D01*
X-30466Y55630D01*
X-31645Y56808D01*
G01X-28738Y56179D02*
X-29084Y56600D01*
X-29351Y56980D01*
X-29571Y57350D01*
X-29801Y57768D01*
X-30092Y58361D01*
X-30845Y57608D01*
G01X56091Y-38780D02*
X-2354Y-97224D01*
X-10646Y-88933D01*
X47799Y-30488D01*
X56091Y-38780D01*
G01X-27819Y-81701D02*
Y-84201D01*
G01X-28432Y-81701D02*
X-27206D01*
G01X-26129Y-82118D02*
X-25969Y-81868D01*
X-25783Y-81743D01*
X-25570Y-81701D01*
X-25304Y-81784D01*
X-25117Y-81993D01*
X-25064Y-82243D01*
X-25090Y-82493D01*
X-25197Y-82701D01*
X-25730Y-83118D01*
X-25969Y-83410D01*
X-26129Y-83826D01*
X-26182Y-84201D01*
X-25064D01*
G01X-7140Y-58458D02*
X-909Y-64689D01*
Y-64961D01*
X-3434Y-67486D01*
X-3785D01*
X-9976Y-61295D01*
Y-60844D01*
X-7591Y-58458D01*
X-7140D01*
G01X-7496Y-6984D02*
X-7321Y-7160D01*
X-4325Y-4164D01*
X-11366Y2876D01*
X-14361Y-119D01*
X-7496Y-6984D01*
G01X676Y-67888D02*
X651Y-67686D01*
X578Y-67495D01*
X428Y-67345D01*
X170Y-67264D01*
X-109Y-67279D01*
X-380Y-67362D01*
X-750Y-67581D01*
X-1034Y-67827D01*
X-1262Y-68130D01*
X-1382Y-68364D01*
X-1446Y-68653D01*
X-1432Y-68903D01*
X-1359Y-69094D01*
X-1227Y-69226D01*
X-1036Y-69298D01*
X-835Y-69323D01*
X-623Y-69299D01*
G01X420Y-70872D02*
X2188Y-69105D01*
X224Y-69675D01*
X1166Y-70616D01*
G01X-5172Y-7859D02*
X-3405Y-6092D01*
X-2934Y-6562D01*
X-2872Y-6801D01*
X-2895Y-7013D01*
X-3093Y-7287D01*
X-3367Y-7485D01*
X-3627Y-7519D01*
X-3847Y-7476D01*
X-4318Y-7005D01*
G01X-3847Y-7476D02*
X-4419Y-8612D01*
G01X-3281Y-9751D02*
X-2860Y-9406D01*
X-2480Y-9138D01*
X-2110Y-8919D01*
X-1691Y-8689D01*
X-1099Y-8398D01*
X-1852Y-7644D01*
G01X9721Y-605D02*
Y1895D01*
X10254D01*
X10467Y1770D01*
X10626Y1603D01*
X10760Y1354D01*
X10866Y1062D01*
X10893Y645D01*
X10866Y228D01*
X10760Y-63D01*
X10626Y-313D01*
X10467Y-480D01*
X10254Y-605D01*
X9721D01*
G01X12503D02*
Y1895D01*
X12183Y1395D01*
G01Y-605D02*
X12822D01*
G01X12537Y53946D02*
X14304Y55713D01*
X14775Y55243D01*
X14837Y55003D01*
X14814Y54791D01*
X14616Y54518D01*
X14342Y54320D01*
X14082Y54286D01*
X13862Y54329D01*
X13391Y54800D01*
G01X13862Y54329D02*
X13290Y53192D01*
G01X14692Y51790D02*
X16460Y53558D01*
X14496Y52988D01*
X15438Y52046D01*
G01X8258Y48475D02*
X10026Y50243D01*
X10497Y49772D01*
X10559Y49533D01*
X10536Y49321D01*
X10338Y49048D01*
X10064Y48850D01*
X9804Y48816D01*
X9584Y48859D01*
X9113Y49330D01*
G01X9584Y48859D02*
X9012Y47722D01*
G01X10127Y47314D02*
X10034Y46994D01*
X10067Y46726D01*
X10207Y46527D01*
X10387Y46406D01*
X10685Y46402D01*
X10956Y46485D01*
X11151Y46643D01*
X11320Y46887D01*
X11336Y47166D01*
X11263Y47357D01*
X11093Y47526D01*
G01X11263Y47357D02*
X11464Y47332D01*
X11706Y47385D01*
X11920Y47524D01*
X12059Y47739D01*
X12112Y47980D01*
X12031Y48238D01*
X11832Y48378D01*
X11545Y48430D01*
G01X5348Y50064D02*
X5524Y49888D01*
X8519Y52884D01*
X1479Y59924D01*
X-1517Y56929D01*
X5348Y50064D01*
G01X-3021Y73355D02*
X-3222Y73331D01*
X-3413Y73258D01*
X-3564Y73107D01*
X-3645Y72849D01*
X-3629Y72570D01*
X-3547Y72299D01*
X-3327Y71929D01*
X-3081Y71645D01*
X-2778Y71418D01*
X-2545Y71297D01*
X-2255Y71234D01*
X-2005Y71248D01*
X-1815Y71321D01*
X-1683Y71452D01*
X-1610Y71643D01*
X-1585Y71844D01*
X-1609Y72056D01*
G01X-2093Y73989D02*
X-2156Y74278D01*
X-2113Y74499D01*
X-1992Y74679D01*
X-1745Y74808D01*
X-1466Y74793D01*
X-1251Y74654D01*
X-1093Y74458D01*
X-1021Y74235D01*
X-1103Y73564D01*
X-1066Y73188D01*
X-885Y72781D01*
X-657Y72478D01*
X134Y73269D01*
G01X6728Y64797D02*
X6552Y64972D01*
X3557Y61977D01*
X10597Y54936D01*
X13593Y57932D01*
X6728Y64797D01*
G01X15235Y58395D02*
X16502Y59662D01*
X16692Y60002D01*
X16718Y60330D01*
X16589Y60577D01*
X16342Y60706D01*
X16014Y60680D01*
X15674Y60490D01*
X14407Y59223D01*
G01X15097Y61362D02*
X15190Y61681D01*
X15157Y61949D01*
X15017Y62148D01*
X14837Y62270D01*
X14539Y62273D01*
X14268Y62190D01*
X14073Y62032D01*
X13904Y61788D01*
X13889Y61509D01*
X13962Y61319D01*
X14131Y61149D01*
G01X13962Y61319D02*
X13760Y61343D01*
X13519Y61290D01*
X13304Y61151D01*
X13165Y60937D01*
X13112Y60695D01*
X13193Y60437D01*
X13392Y60297D01*
X13679Y60246D01*
G01X17922Y60687D02*
X8995Y69615D01*
X17953Y78573D01*
X26881Y69646D01*
X17922Y60687D01*
G01X9676Y81221D02*
X3445Y74990D01*
X3173D01*
X648Y77515D01*
Y77866D01*
X6839Y84058D01*
X7290D01*
X9676Y81672D01*
Y81221D01*
G01X31364Y-85169D02*
X31635Y-85252D01*
X31866Y-85257D01*
X32057Y-85184D01*
X32149Y-84974D01*
X32144Y-84743D01*
X32080Y-84454D01*
X31882Y-84180D01*
X30703Y-83002D01*
G01X32879Y-83654D02*
X33199Y-83747D01*
X33467Y-83714D01*
X33666Y-83574D01*
X33787Y-83394D01*
X33791Y-83096D01*
X33708Y-82826D01*
X33550Y-82630D01*
X33306Y-82461D01*
X33027Y-82446D01*
X32836Y-82519D01*
X32667Y-82688D01*
G01X32836Y-82519D02*
X32861Y-82317D01*
X32808Y-82076D01*
X32669Y-81861D01*
X32454Y-81722D01*
X32213Y-81669D01*
X31955Y-81750D01*
X31815Y-81949D01*
X31763Y-82236D01*
G01X31327Y-77427D02*
X39679Y-85778D01*
X70357Y-55100D01*
X62006Y-46749D01*
X31327Y-77427D01*
G01X39477Y-1808D02*
X39725D01*
Y2428D01*
X29768D01*
Y-1808D01*
X39477D01*
G01X15808Y2405D02*
X15556D01*
Y-1827D01*
X25528D01*
Y2417D01*
X15567D01*
G01X20733Y311D02*
X19308D01*
X19300Y319D01*
G01X20839Y1763D02*
Y-1154D01*
X20847Y-1162D01*
G01X19296Y1748D02*
Y-1134D01*
X19284Y-1146D01*
Y-1142D01*
X20733Y307D01*
Y311D01*
X19296Y1748D01*
G01X21736Y55471D02*
X21535Y55447D01*
X21344Y55374D01*
X21193Y55223D01*
X21112Y54965D01*
X21128Y54686D01*
X21210Y54415D01*
X21430Y54045D01*
X21676Y53761D01*
X21979Y53534D01*
X22212Y53414D01*
X22502Y53350D01*
X22751Y53364D01*
X22942Y53437D01*
X23074Y53568D01*
X23147Y53759D01*
X23172Y53961D01*
X23148Y54173D01*
G01X23401Y55368D02*
X23326Y55706D01*
X23321Y55937D01*
X23413Y56147D01*
X23604Y56220D01*
X23816Y56196D01*
X24068Y56094D01*
X24293Y55907D01*
X24451Y55712D01*
X24552Y55459D01*
X24587Y55199D01*
X24514Y55008D01*
X24304Y54917D01*
X23996Y54962D01*
X23655Y55151D01*
X23342Y55427D01*
X22996Y55848D01*
X22846Y56111D01*
X22734Y56411D01*
X22719Y56690D01*
X22821Y56851D01*
X23012Y56924D01*
X23254Y56871D01*
G01X33153Y72823D02*
X33383Y72719D01*
X33689Y72823D01*
X33881Y73029D01*
X34034Y73287D01*
X34264Y74113D01*
X34762Y75817D01*
G01X33536D02*
X34264Y74113D01*
G01X24976Y59291D02*
X31207Y65522D01*
X31479D01*
X34004Y62997D01*
Y62646D01*
X27813Y56455D01*
X27362D01*
X24976Y58840D01*
Y59291D01*
G01X21546Y62062D02*
G03I-339J0D01*
G01X19139Y90806D02*
X19114Y91008D01*
X19041Y91198D01*
X18890Y91349D01*
X18632Y91430D01*
X18354Y91415D01*
X18082Y91332D01*
X17712Y91113D01*
X17428Y90866D01*
X17201Y90564D01*
X17081Y90330D01*
X17017Y90040D01*
X17031Y89791D01*
X17104Y89600D01*
X17236Y89468D01*
X17426Y89395D01*
X17628Y89371D01*
X17840Y89394D01*
G01X18657Y88047D02*
X20424Y89815D01*
X19845Y89688D01*
G01X18431Y88273D02*
X18883Y87821D01*
G01X25995Y79702D02*
X19764Y85933D01*
Y86205D01*
X22290Y88730D01*
X22640D01*
X28832Y82539D01*
Y82088D01*
X26446Y79702D01*
X25995D01*
G01X53526Y-32850D02*
X53797Y-32933D01*
X54028Y-32938D01*
X54219Y-32865D01*
X54311Y-32655D01*
X54306Y-32424D01*
X54242Y-32135D01*
X54044Y-31861D01*
X52865Y-30683D01*
G01X54715Y-30896D02*
X54640Y-30558D01*
X54636Y-30327D01*
X54727Y-30117D01*
X54918Y-30044D01*
X55130Y-30068D01*
X55382Y-30169D01*
X55607Y-30357D01*
X55765Y-30552D01*
X55867Y-30804D01*
X55901Y-31065D01*
X55828Y-31256D01*
X55618Y-31347D01*
X55310Y-31302D01*
X54969Y-31112D01*
X54656Y-30837D01*
X54311Y-30416D01*
X54161Y-30153D01*
X54049Y-29853D01*
X54033Y-29574D01*
X54136Y-29412D01*
X54326Y-29339D01*
X54568Y-29393D01*
G01X57526Y10003D02*
X57651Y10163D01*
X57734Y10349D01*
Y10562D01*
X57610Y10802D01*
X57401Y10988D01*
X57151Y11122D01*
X56734Y11228D01*
X56360Y11255D01*
X55985Y11202D01*
X55735Y11122D01*
X55484Y10962D01*
X55318Y10775D01*
X55235Y10589D01*
Y10402D01*
X55318Y10216D01*
X55443Y10056D01*
X55609Y9923D01*
G01X55235Y8446D02*
X55776Y8393D01*
X56234Y8313D01*
X56651Y8206D01*
X57110Y8073D01*
X57734Y7860D01*
Y8926D01*
G01X54740Y-3121D02*
Y5690D01*
X54933Y5883D01*
X58504D01*
X58752Y5635D01*
Y-3121D01*
X58433Y-3440D01*
X55059D01*
X54740Y-3121D01*
G01X41755Y-745D02*
Y1755D01*
X42420D01*
X42634Y1630D01*
X42767Y1463D01*
X42820Y1130D01*
X42767Y796D01*
X42607Y588D01*
X42420Y463D01*
X41755D01*
G01X42420D02*
X42820Y-745D01*
G01X43977Y296D02*
X44164Y588D01*
X44324Y755D01*
X44537Y838D01*
X44723Y755D01*
X44856Y588D01*
X44963Y338D01*
X44989Y46D01*
X44963Y-204D01*
X44856Y-454D01*
X44696Y-662D01*
X44510Y-745D01*
X44297Y-662D01*
X44110Y-412D01*
X44004Y-37D01*
X43977Y380D01*
X44030Y921D01*
X44110Y1213D01*
X44244Y1505D01*
X44430Y1713D01*
X44616Y1755D01*
X44803Y1672D01*
X44936Y1463D01*
G01X50831Y75989D02*
X51980Y73924D01*
G01Y75989D02*
X50831Y73924D01*
G01X77083Y-31158D02*
X77625Y-31700D01*
X76968Y-32357D01*
X76586Y-32414D01*
X76250Y-32370D01*
X75907Y-32172D01*
X75709Y-31828D01*
X75665Y-31492D01*
X75722Y-31111D01*
X75869Y-30747D01*
X76107Y-30401D01*
X76362Y-30145D01*
X76636Y-29980D01*
X77000Y-29833D01*
X77381Y-29776D01*
X77690Y-29793D01*
X78016Y-29900D01*
X78206Y-30090D01*
X78349Y-30380D01*
X78366Y-30688D01*
G01X73091Y-33948D02*
X73126Y-34347D01*
X73260Y-34701D01*
X73477Y-34917D01*
X73803Y-35025D01*
X74148Y-35005D01*
X74485Y-34830D01*
X74686Y-34521D01*
X74770Y-34166D01*
X74672Y-33776D01*
X74420Y-33378D01*
X74376Y-33042D01*
X74551Y-32706D01*
X74861Y-32504D01*
X75178Y-32457D01*
X75478Y-32537D01*
X75667Y-32727D01*
X75784Y-32990D01*
X75764Y-33335D01*
G01X76937Y-33996D02*
X75125Y-36566D01*
X77749Y-34809D01*
X75992Y-37433D01*
X78562Y-35622D01*
G01X80353Y-37778D02*
X80300Y-37506D01*
X80183Y-37243D01*
X79967Y-37026D01*
X79613Y-36892D01*
X79241Y-36885D01*
X78887Y-36968D01*
X78413Y-37225D01*
X78057Y-37527D01*
X77783Y-37909D01*
X77645Y-38210D01*
X77589Y-38591D01*
X77632Y-38927D01*
X77749Y-39190D01*
X77939Y-39379D01*
X78201Y-39496D01*
X78473Y-39549D01*
X78755Y-39538D01*
G01X81588Y-38648D02*
X79397Y-40838D01*
X80481Y-41922D01*
G01X81534Y-42974D02*
X83724Y-40784D01*
G01X84754Y-41813D02*
X82373Y-42134D01*
G01X82726Y-44166D02*
X83454Y-41974D01*
G01X70145Y-36669D02*
X70052Y-37087D01*
X70123Y-37450D01*
X70330Y-37730D01*
X70583Y-37910D01*
X70982Y-37944D01*
X71337Y-37861D01*
X71583Y-37669D01*
X71785Y-37359D01*
X71778Y-36987D01*
X71661Y-36724D01*
X71417Y-36480D01*
G01X71661Y-36724D02*
X71933Y-36777D01*
X72251Y-36730D01*
X72524Y-36565D01*
X72689Y-36292D01*
X72736Y-35974D01*
X72602Y-35621D01*
X72322Y-35413D01*
X71932Y-35316D01*
G01X72420Y-39966D02*
X72402Y-39876D01*
X72476Y-39802D01*
X72566Y-39820D01*
X72584Y-39911D01*
X72511Y-39984D01*
X72420Y-39966D01*
G01X74526Y-41049D02*
X74433Y-41467D01*
X74503Y-41830D01*
X74711Y-42111D01*
X74964Y-42291D01*
X75363Y-42325D01*
X75718Y-42241D01*
X75964Y-42049D01*
X76165Y-41740D01*
X76158Y-41367D01*
X76042Y-41105D01*
X75798Y-40861D01*
G01X76042Y-41105D02*
X76314Y-41158D01*
X76632Y-41111D01*
X76905Y-40946D01*
X77070Y-40673D01*
X77117Y-40355D01*
X76983Y-40001D01*
X76702Y-39794D01*
X76312Y-39696D01*
G01X78387Y-41406D02*
X76874Y-44274D01*
X79742Y-42760D01*
G01X77826Y-28336D02*
X77860Y-28735D01*
X77995Y-29089D01*
X78211Y-29305D01*
X78538Y-29413D01*
X78883Y-29393D01*
X79220Y-29218D01*
X79421Y-28908D01*
X79504Y-28554D01*
X79407Y-28164D01*
X79155Y-27766D01*
X79111Y-27430D01*
X79285Y-27093D01*
X79595Y-26892D01*
X79913Y-26845D01*
X80212Y-26925D01*
X80402Y-27115D01*
X80519Y-27377D01*
X80499Y-27723D01*
G01X81671Y-28384D02*
X79860Y-30954D01*
X82484Y-29197D01*
X80727Y-31821D01*
X83297Y-30009D01*
G01X81888Y-32982D02*
X84078Y-30791D01*
X84620Y-31333D01*
X84727Y-31659D01*
X84744Y-31968D01*
X84660Y-32322D01*
X84513Y-32686D01*
X84175Y-33078D01*
X83783Y-33416D01*
X83419Y-33564D01*
X83064Y-33647D01*
X82756Y-33631D01*
X82429Y-33523D01*
X81888Y-32982D01*
G01X86539Y-33252D02*
X87190Y-33902D01*
G01X86864Y-33577D02*
X84674Y-35768D01*
G01X84349Y-35443D02*
X84999Y-36093D01*
G01X86864Y-37958D02*
X86684Y-37705D01*
X86640Y-37369D01*
X86697Y-36988D01*
X86844Y-36624D01*
X87082Y-36277D01*
X87374Y-35985D01*
X87720Y-35747D01*
X88084Y-35600D01*
X88466Y-35544D01*
X88802Y-35587D01*
X89055Y-35768D01*
X89235Y-36021D01*
X89278Y-36356D01*
X89222Y-36738D01*
X89075Y-37102D01*
X88837Y-37448D01*
X88545Y-37740D01*
X88199Y-37978D01*
X87835Y-38126D01*
X87453Y-38182D01*
X87117Y-38138D01*
X86864Y-37958D01*
G01X58961Y-21870D02*
Y-13059D01*
X59154Y-12866D01*
X62724D01*
X62972Y-13115D01*
Y-21870D01*
X62653Y-22189D01*
X59279D01*
X58961Y-21870D01*
G01X65256Y-21874D02*
Y-13063D01*
X65448Y-12871D01*
X69019D01*
X69267Y-13118D01*
Y-21874D01*
X68948Y-22193D01*
X65574D01*
X65256Y-21874D01*
G01X72563Y-23205D02*
Y-10339D01*
X78028D01*
Y-23205D01*
X72563D01*
G01X61664Y-8161D02*
X61789Y-8002D01*
X61872Y-7815D01*
Y-7602D01*
X61747Y-7362D01*
X61539Y-7176D01*
X61289Y-7043D01*
X60872Y-6936D01*
X60497Y-6910D01*
X60122Y-6963D01*
X59872Y-7043D01*
X59622Y-7203D01*
X59455Y-7389D01*
X59372Y-7576D01*
Y-7762D01*
X59455Y-7948D01*
X59580Y-8108D01*
X59747Y-8242D01*
G01X59372Y-9772D02*
X59414Y-9958D01*
X59539Y-10171D01*
X59747Y-10304D01*
X60039Y-10358D01*
X60330Y-10304D01*
X60580Y-10144D01*
X60706Y-9905D01*
Y-9638D01*
X60789Y-9479D01*
X60997Y-9345D01*
X61289Y-9292D01*
X61580Y-9372D01*
X61789Y-9558D01*
X61872Y-9772D01*
X61789Y-9985D01*
X61580Y-10171D01*
X61289Y-10251D01*
X60997Y-10198D01*
X60789Y-10065D01*
X60706Y-9905D01*
Y-9638D01*
X60580Y-9399D01*
X60330Y-9239D01*
X60039Y-9186D01*
X59747Y-9239D01*
X59539Y-9372D01*
X59414Y-9585D01*
X59372Y-9772D01*
G01X68186Y-8582D02*
X68311Y-8422D01*
X68395Y-8236D01*
Y-8023D01*
X68270Y-7783D01*
X68061Y-7597D01*
X67811Y-7464D01*
X67395Y-7357D01*
X67020Y-7331D01*
X66645Y-7384D01*
X66395Y-7464D01*
X66144Y-7624D01*
X65978Y-7810D01*
X65895Y-7996D01*
Y-8183D01*
X65978Y-8369D01*
X66103Y-8529D01*
X66270Y-8662D01*
G01X66186Y-9740D02*
X65978Y-9926D01*
X65895Y-10139D01*
X65978Y-10352D01*
X66228Y-10539D01*
X66603Y-10672D01*
X66978Y-10725D01*
X67436D01*
X67811Y-10672D01*
X68145Y-10539D01*
X68311Y-10379D01*
X68395Y-10192D01*
X68311Y-9979D01*
X68145Y-9819D01*
X67895Y-9713D01*
X67561Y-9660D01*
X67270Y-9713D01*
X66978Y-9846D01*
X66811Y-10006D01*
X66770Y-10192D01*
X66853Y-10405D01*
X67061Y-10565D01*
X67436Y-10725D01*
G01X73820Y-6298D02*
X76320D01*
Y-7310D01*
G01X75111Y-6937D02*
Y-6298D01*
G01X73820Y-9000D02*
X76320D01*
X75820Y-8681D01*
G01X73820D02*
Y-9320D01*
G01X68352Y12836D02*
Y11044D01*
X68458Y10669D01*
X68672Y10419D01*
X68938Y10336D01*
X69204Y10419D01*
X69417Y10669D01*
X69524Y11044D01*
Y12836D01*
G01X71454Y10336D02*
Y12836D01*
X70468Y11044D01*
X71800D01*
G01X73543Y417D02*
X73504D01*
Y-3528D01*
X67417D01*
G01X73519Y8063D02*
Y4244D01*
G01X67386Y8063D02*
X73519D01*
G54D11*
G01X48720Y69048D02*
X48764Y69092D01*
Y72020D01*
X45980D01*
X45968Y72008D01*
X48764D01*
X41068Y64312D01*
X34040Y71340D01*
Y71380D01*
X37328D01*
G01X34040D02*
Y68648D01*
X34060Y68628D01*
M02*
