G04 ================== begin FILE IDENTIFICATION RECORD ==================*
G04 Layout Name:  F:/projects/18/hmc5883/hmc5883.brd*
G04 Film Name:    soldermask_top*
G04 File Format:  Gerber RS274X*
G04 File Origin:  Cadence Allegro 16.6-2015-S108*
G04 Origin Date:  Mon Nov 12 22:07:45 2018*
G04 *
G04 Layer:  VIA CLASS/SOLDERMASK_TOP*
G04 Layer:  PIN/SOLDERMASK_TOP*
G04 Layer:  PACKAGE GEOMETRY/SOLDERMASK_TOP*
G04 Layer:  BOARD GEOMETRY/SOLDERMASK_TOP*
G04 Layer:  BOARD GEOMETRY/OUTLINE*
G04 *
G04 Offset:    (0.000 0.000)*
G04 Mirror:    No*
G04 Mode:      Positive*
G04 Rotation:  0*
G04 FullContactRelief:  No*
G04 UndefLineWidth:     0.000*
G04 ================== end FILE IDENTIFICATION RECORD ====================*
%FSLAX25Y25*MOIN*%
%IR0*IPPOS*OFA0.00000B0.00000*MIA0B0*SFA1.00000B1.00000*%
%AMMACRO17*
21,1,.037402,.031496,0.0,0.0,135.*%
%ADD17MACRO17*%
%AMMACRO14*
21,1,.059055,.023622,0.0,0.0,135.*%
%ADD14MACRO14*%
%AMMACRO16*
21,1,.019685,.011811,0.0,0.0,135.*%
%ADD16MACRO16*%
%ADD18R,.031496X.037402*%
%AMMACRO13*
21,1,.059055,.023622,0.0,0.0,45.*%
%ADD13MACRO13*%
%AMMACRO11*
21,1,.037402,.031496,0.0,0.0,45.*%
%ADD11MACRO11*%
%ADD19R,.037402X.031496*%
%AMMACRO15*
21,1,.019685,.011811,0.0,0.0,45.*%
%ADD15MACRO15*%
%ADD20R,.049213X.059055*%
%ADD12C,.019685*%
%ADD10C,.059449*%
%ADD21R,.043307X.027559*%
%LPD*%
G75*
G54D10*
X-88868Y-2253D03*
X-81796Y4818D03*
X-74725Y11889D03*
X-50480Y-69725D03*
X-57551Y-62654D03*
X-64622Y-55583D03*
X-67654Y18960D03*
X-60583Y26031D03*
X-53512Y33102D03*
X-46441Y40173D03*
X-39370Y47244D03*
X-2253Y-88868D03*
X4818Y-81796D03*
X11889Y-74725D03*
X18960Y-67654D03*
X26031Y-60583D03*
X33102Y-53512D03*
X40236Y-76870D03*
X54378Y-62728D03*
X47307Y-69799D03*
X40173Y-46441D03*
X47244Y-39370D03*
X61449Y-55657D03*
G54D20*
X75335Y-20520D03*
Y-13040D03*
G54D11*
X-68501Y-25786D03*
X-64047Y-30240D03*
X-58715Y-24892D03*
X-63169Y-20438D03*
X-43181Y-53803D03*
X-47635Y-49349D03*
X-43247Y1369D03*
X-39071Y-2807D03*
X-38310Y5936D03*
X-34134Y1760D03*
X-43093Y-7265D03*
X-47547Y-2811D03*
X-7535Y-60858D03*
X-11574Y78D03*
X-7120Y-4376D03*
X-3359Y-65034D03*
X5724Y52672D03*
X10806Y57734D03*
X6352Y62188D03*
X1270Y57126D03*
X22214Y86278D03*
X26390Y82102D03*
G54D21*
X75256Y2204D03*
X65413Y-1733D03*
Y6141D03*
G54D12*
X-35811Y-82512D03*
X-22020Y-82555D03*
G54D13*
X-26445Y-50551D03*
X-28672Y-48324D03*
X-30899Y-46097D03*
X-33126Y-43870D03*
X-35353Y-41643D03*
X-37580Y-39415D03*
X-39808Y-37188D03*
X-42035Y-34961D03*
X-17815Y-10741D03*
X-15588Y-12968D03*
X-13361Y-15196D03*
X-11133Y-17423D03*
X-8906Y-19650D03*
X-6679Y-21877D03*
X-4452Y-24104D03*
X-2225Y-26331D03*
G54D14*
X-42035D03*
X-39808Y-24104D03*
X-37580Y-21877D03*
X-35353Y-19650D03*
X-33126Y-17423D03*
X-30899Y-15196D03*
X-28672Y-12968D03*
X-26445Y-10741D03*
X-6679Y-39415D03*
X-8906Y-41643D03*
X-11133Y-43870D03*
X-13361Y-46097D03*
X-15588Y-48324D03*
X-17815Y-50551D03*
X-2225Y-34961D03*
X-4452Y-37188D03*
G54D15*
X13708Y66812D03*
X12316Y68204D03*
X16492Y64028D03*
X15100Y65420D03*
X19415Y75302D03*
X20807Y73910D03*
X22199Y72518D03*
X23590Y71126D03*
G54D16*
X12316D03*
X13708Y72518D03*
X15100Y73910D03*
X16492Y75302D03*
X23582Y68212D03*
X22190Y66820D03*
X20798Y65428D03*
X19406Y64036D03*
G54D17*
X3100Y77440D03*
X7276Y81616D03*
X31552Y63072D03*
X27376Y58896D03*
G54D18*
X31599Y302D03*
X23701Y283D03*
X17402D03*
X37898Y302D03*
G54D19*
X56716Y4202D03*
Y-1704D03*
X60937Y-14548D03*
Y-20453D03*
X67232Y-14552D03*
Y-20457D03*
M02*
