%
T1C.012F095S3
X08206Y041822
X08206Y039822
X08506Y041822
X08506Y040822
X08506Y039822
X08606Y041822
X08606Y040822
X08606Y039822
X08706Y041822
X08706Y040822
X08706Y039822
X08806Y039822
X08806Y041822
X08806Y040822
X08906Y040822
X08906Y039822
X08906Y041822
X09006Y041822
X09006Y040822
X09006Y039822
X09106Y041822
X09106Y040822
X09106Y039822
X09206Y039822
X09306Y041822
X09306Y039822
X093138Y040929
X09406Y041822
X09406Y039822
X09506Y041822
X09506Y040822
X09506Y039822
X09606Y041822
X09606Y040822
X09606Y039822
X09706Y041822
X09706Y040822
X09706Y039822
X09806Y040822
X09806Y039822
X09806Y041822
X09906Y041822
X09906Y040822
X09906Y039822
X10006Y041822
X10006Y040822
X10006Y039822
X10106Y041822
X10106Y040822
X10106Y039822
X10206Y040822
X10206Y039822
X10206Y041822
X10306Y040822
X10306Y039822
X10306Y041822
X10406Y041822
X10406Y040822
X10406Y039822
X10506Y039822
X10606Y040822
X10606Y039822
X10706Y041822
X10706Y040822
X10706Y039822
X10806Y041822
X10806Y040822
X10806Y039822
X10906Y041822
X10906Y040822
X10906Y039822
X10974Y041823
X11006Y040822
X11006Y039822
X11106Y041822
X11106Y040822
X11106Y039822
X11206Y041822
X11206Y040822
X11206Y039822
X11306Y041822
X11306Y040822
X11306Y039822
X11406Y041822
X11406Y040822
X11406Y039822
X11506Y041822
X11506Y040822
X11506Y039822
X11606Y040822
X11606Y039822
X11606Y041822
X11706Y041822
X11706Y040822
X11706Y039822
X11806Y041822
X11806Y040822
X11806Y039822
X11906Y041822
X11906Y040822
X11906Y039822
X12006Y041822
X12006Y040822
X12006Y039822
X12306Y041822
X12306Y039822
X12406Y041822
X12406Y040822
X12406Y039822
X12506Y041822
X12506Y040822
X12506Y039822
X12606Y039822
X12606Y041822
X12606Y040822
X12706Y041822
X12706Y040822
X12706Y039822
X12806Y041822
X12806Y040822
X12806Y039822
X12906Y041822
X12906Y040822
X12906Y039822
X13006Y039822
X13106Y039822
X13206Y040822
X13206Y041822
X13206Y039822
X13306Y039822
X13306Y040822
X13406Y039822
X13406Y041822
X13406Y040822
X13506Y039822
X13706Y042822
X13706Y043822
X13606Y042822
X13606Y043822
X13506Y042822
X13506Y043822
X13406Y042822
X13406Y043822
X13306Y042822
X13306Y043822
X13206Y042822
X13206Y043822
X12906Y042822
X12906Y043822
X12806Y042822
X12706Y042822
X12606Y043822
X12606Y042822
X12506Y042822
X12506Y043822
X12406Y042822
X12406Y043822
X12306Y042822
X12306Y043822
X12206Y042822
X12206Y043822
X12106Y043822
X12106Y042822
X12006Y042822
X12006Y043822
X11906Y043822
X11906Y042822
X11806Y042822
X11806Y043822
X11706Y042822
X11706Y043822
X11606Y042822
X11606Y043822
X11506Y043822
X11506Y042822
X11406Y043822
X11406Y042822
X11306Y043822
X11306Y042822
X11206Y042822
X11206Y043822
X11106Y043822
X11106Y042822
X11006Y043822
X11006Y042822
X10806Y043822
X10806Y042822
X10706Y043822
X10706Y042822
X10406Y043822
X10406Y042822
X10306Y043822
X10306Y042822
X10206Y043822
X10206Y042822
X10106Y042822
X10006Y043822
X10006Y042822
X09906Y043822
X09906Y042822
X09806Y043822
X09806Y042822
X09706Y043822
X09706Y042822
X09606Y042822
X09606Y043822
X09506Y042822
X09506Y043822
X09406Y042822
X09406Y043822
X09306Y042822
X09306Y043822
X09106Y043822
X09106Y042822
X09006Y043822
X09006Y042822
X08906Y043822
X08906Y042822
X08806Y042822
X08806Y043822
X08706Y042822
X08706Y043822
X08606Y042822
X08606Y043822
X08506Y042822
X08506Y043822
X08406Y042822
X08406Y043822
X08306Y042822
X08306Y043822
X08206Y042822
X08206Y043822
X08106Y042822
X08006Y042822
X07906Y042822
X07906Y043822
X07906Y044822
X07906Y046822
X07906Y045822
X08006Y046822
X08006Y045822
X08106Y046822
X08106Y045822
X08206Y044822
X08206Y046822
X08206Y045822
X08306Y044822
X08306Y046822
X08306Y045822
X08406Y045822
X08406Y044822
X08406Y046822
X08506Y046822
X08506Y045822
X08506Y044822
X08606Y046822
X08606Y045822
X08606Y044822
X08706Y046822
X08706Y045822
X08706Y044822
X08806Y046822
X08806Y045822
X08806Y044822
X08906Y046822
X08906Y045822
X08906Y044822
X09006Y046822
X09006Y045822
X09006Y044822
X09106Y046822
X09106Y045822
X09106Y044822
X091925Y046012
X092024Y04498
X09206Y046822
X09306Y045822
X09306Y046822
X09406Y045822
X09406Y046822
X09506Y046822
X09506Y045822
X09706Y045822
X09706Y046822
X10006Y045822
X10006Y044822
X10206Y045822
X10206Y044822
X10206Y046822
X10306Y045822
X10306Y044822
X10306Y046822
X10406Y046822
X10406Y045822
X10406Y044822
X10806Y046822
X10806Y045822
X10806Y044822
X10906Y046822
X11106Y044822
X11106Y045822
X11106Y046822
X11406Y046822
X11406Y044822
X11406Y045822
X11506Y046822
X11506Y045822
X11506Y044822
X11606Y044822
X11606Y046822
X11606Y045822
X11706Y046822
X11706Y045822
X11706Y044822
X11806Y044822
X11806Y045822
X11806Y046822
X11906Y046822
X11906Y045822
X11906Y044822
X12006Y045822
X12006Y046822
X12006Y044822
X12106Y046822
X12106Y044822
X12106Y045822
X12206Y045822
X12206Y044822
X12206Y046822
X12306Y045822
X12306Y044822
X12306Y046822
X12406Y046822
X12406Y045822
X12406Y044822
X12506Y044822
X12506Y046822
X12506Y045822
X12606Y046822
X12606Y045822
X12606Y044822
X12706Y046822
X12706Y045822
X12806Y046822
X12806Y045822
X12906Y045822
X12906Y044822
X12906Y046822
X13006Y045822
X13006Y046822
X13006Y044822
X13306Y045822
X13306Y044822
X13406Y046822
X13406Y045822
X13406Y044822
X13506Y044822
X13506Y046822
X13506Y045822
X13606Y046822
X13606Y045822
X13606Y044822
X13706Y044822
X13706Y046822
X13706Y045822
X13706Y048822
X13706Y047822
X13606Y048822
X13606Y047822
X13506Y048822
X13506Y047822
X13406Y048822
X13406Y047822
X133791Y049724
X13306Y047822
X132276Y049685
X13206Y047822
X131217Y049819
X13106Y047822
X13006Y048822
X13006Y047822
X12906Y048822
X12906Y047822
X12806Y048822
X12806Y047822
X12706Y048822
X12706Y047822
X12606Y048822
X12606Y047822
X12506Y048822
X12506Y047822
X12406Y048822
X12406Y047822
X12306Y048822
X12306Y047822
X12206Y048822
X12206Y047822
X12106Y048822
X12106Y047822
X12006Y048822
X12006Y047822
X11906Y048822
X11906Y047822
X11806Y048822
X11806Y047822
X11706Y048822
X11706Y047822
X11606Y048822
X11606Y047822
X11506Y048822
X11506Y047822
X11406Y047822
X11406Y048822
X11106Y047822
X10906Y047822
X10906Y048822
X10806Y047822
X104043Y047512
X103012Y048476
X102563Y048772
X102161Y049087
X10006Y048822
X09806Y047822
X09706Y048822
X09706Y047822
X09506Y047822
X09506Y048822
X09406Y047822
X09406Y048822
X09306Y047822
X09306Y048822
X09206Y047822
X09206Y048822
X09106Y048822
X09106Y047822
X09006Y047822
X09006Y048822
X08906Y047822
X08906Y048822
X08806Y047822
X08806Y048822
X08706Y047822
X08706Y048822
X08606Y048822
X08606Y047822
X08506Y048822
X08506Y047822
X08406Y048822
X08406Y047822
X08306Y048822
X08306Y047822
X08206Y047822
X08206Y048822
X08106Y048822
X08106Y047822
X08006Y048822
X08006Y047822
X07906Y047822
X07906Y048822
X07906Y050822
X07906Y049822
X07906Y051822
X08006Y050822
X08006Y049822
X08006Y051822
X08106Y050822
X08106Y049822
X08106Y051822
X08206Y050822
X08206Y049822
X08206Y051822
X08306Y050822
X08306Y049822
X08306Y051822
X08406Y050822
X08406Y049822
X08406Y051822
X08506Y050822
X08506Y049822
X08506Y051822
X08606Y050822
X08606Y049822
X08606Y051822
X08706Y050822
X08706Y049822
X08706Y051822
X08806Y049822
X08806Y050822
X08806Y051822
X08906Y050822
X08906Y049822
X08906Y051822
X09006Y050822
X09006Y049822
X09006Y051822
X09106Y050822
X09106Y049822
X09106Y051822
X09206Y050822
X09206Y049822
X09206Y051822
X09306Y050822
X09306Y049822
X09306Y051822
X09406Y049822
X09406Y050822
X09406Y051822
X09506Y049822
X09506Y050822
X09506Y051822
X09706Y050822
X09706Y051822
X09906Y050822
X09906Y049822
X09906Y051822
X10006Y050822
X10006Y049822
X10006Y051822
X10806Y051822
X10906Y050822
X10906Y049822
X10906Y051822
X11006Y050822
X11106Y050822
X11106Y049822
X11106Y051822
X11406Y050822
X11406Y049822
X11406Y051822
X11506Y050822
X11506Y049822
X11506Y051822
X11606Y049822
X11606Y050822
X11606Y051822
X11706Y050822
X11706Y049822
X11706Y051822
X11806Y050822
X11806Y049822
X11806Y051822
X11906Y050822
X11906Y049822
X11906Y051822
X12006Y049822
X12006Y050822
X12006Y051822
X12106Y049822
X12106Y050822
X12106Y051822
X12206Y049822
X12206Y050822
X12206Y051822
X12306Y050822
X12306Y049822
X12306Y051822
X12406Y049822
X12406Y050822
X12406Y051822
X12506Y050822
X12506Y049822
X12506Y051822
X12606Y050822
X12606Y051822
X12606Y049822
X12706Y049822
X12706Y050822
X12706Y051822
X12806Y050822
X12806Y049822
X12806Y051822
X12906Y049822
X12906Y050822
X12906Y051822
X13006Y049822
X130091Y051209
X131618Y051209
X13706Y050822
X13706Y049822
X13706Y051822
X13706Y053822
X13706Y052822
X13606Y053822
X134161Y052992
X132429Y054768
X131508Y052783
X12906Y053822
X12906Y052822
X12806Y052822
X12706Y052822
X12606Y053822
X12606Y052822
X12506Y053822
X12506Y052822
X12406Y053822
X12406Y052822
X12306Y052822
X12306Y053822
X12206Y053822
X12206Y052822
X12106Y053822
X12106Y052822
X12006Y053822
X12006Y052822
X11906Y053822
X11906Y052822
X11806Y053822
X11806Y052822
X11706Y053822
X11706Y052822
X11606Y053822
X11606Y052822
X11506Y053822
X11506Y052822
X11406Y053822
X11406Y052822
X11106Y053822
X11106Y052822
X11006Y053822
X10906Y052822
X10806Y052822
X10706Y053822
X10006Y053822
X10006Y052822
X09906Y053822
X09906Y052822
X09706Y053822
X09506Y052822
X09506Y053822
X09406Y052822
X09406Y053822
X09306Y053822
X09306Y052822
X09206Y052822
X09206Y053822
X09106Y053822
X09106Y052822
X09006Y053822
X09006Y052822
X08906Y052822
X08906Y053822
X08806Y053822
X08806Y052822
X08706Y053822
X08706Y052822
X08606Y052822
X08606Y053822
X08506Y053822
X08506Y052822
X08406Y052822
X08406Y053822
X08306Y053822
X08306Y052822
X08206Y053822
X08206Y052822
X08106Y052822
X08006Y052822
X07906Y053822
X07906Y052822
X07906Y054822
X07906Y056822
X07906Y055822
X08006Y056822
X08006Y055822
X08106Y056822
X08106Y055822
X08206Y054822
X08206Y056822
X08206Y055822
X08306Y054822
X08306Y055822
X08406Y054822
X08406Y055822
X08506Y054822
X08506Y056822
X08506Y055822
X08606Y054822
X08606Y056822
X08606Y055822
X08706Y054822
X08706Y056822
X08706Y055822
X08806Y054822
X08806Y056822
X08806Y055822
X08906Y054822
X08906Y055822
X08906Y056822
X09006Y056822
X09006Y055822
X09006Y054822
X09106Y054822
X09106Y056822
X09106Y055822
X09206Y054822
X09206Y056822
X09206Y055822
X09306Y054822
X09306Y056822
X09306Y055822
X09406Y054822
X09406Y056822
X09406Y055822
X09506Y054822
X09506Y055822
X09506Y056822
X09606Y056822
X09706Y054822
X09706Y055822
X09806Y054822
X09806Y055822
X09906Y054822
X09906Y055822
X10006Y054822
X10006Y055822
X10106Y055822
X10706Y055822
X10806Y054822
X10806Y055822
X10906Y054822
X10906Y055822
X11006Y054822
X11006Y055822
X11106Y054822
X11106Y055822
X11406Y054822
X11406Y055822
X11506Y054822
X11506Y055822
X11606Y054822
X11606Y055822
X11706Y054822
X11706Y055822
X11806Y054822
X11806Y055822
X11906Y054822
X11906Y055822
X12006Y054822
X12006Y056822
X12006Y055822
X12106Y054822
X12106Y055822
X12206Y054822
X12206Y055822
X12306Y054822
X12306Y056822
X12306Y055822
X12406Y054822
X12406Y056822
X12406Y055822
X12506Y054822
X12506Y056822
X12506Y055822
X12606Y056822
X12606Y055822
X12606Y054822
X12706Y056822
X12706Y055822
X12806Y056822
X12806Y055822
X12906Y054822
X12906Y056822
X12906Y055822
X13106Y054822
X131354Y055098
X13206Y056822
X13306Y054822
X13306Y056822
X13406Y054822
X13406Y056822
X13606Y054822
X13606Y056822
X13606Y055822
X13706Y054822
X13706Y056822
X13706Y055822
X13706Y058822
X13706Y057822
X13606Y058822
X13606Y057822
X13406Y058822
X13406Y057822
X13306Y057822
X13306Y058822
X13206Y058822
X13206Y057822
X13106Y058822
X13106Y057822
X13006Y058822
X13006Y057822
X12906Y057822
X12906Y058822
X12806Y058822
X12806Y057822
X12706Y058822
X12706Y057822
X12606Y058822
X12606Y057822
X12506Y058822
X12506Y057822
X12406Y058822
X12406Y057822
X12306Y058822
X12006Y058822
X12006Y057822
X11806Y058822
X11806Y057822
X1175Y059087
X117177Y059539
X11706Y057822
X11606Y057822
X11506Y057822
X11406Y057822
X11306Y057822
X11206Y057822
X11106Y057822
X11006Y057822
X10906Y057822
X10806Y057822
X10706Y057822
X10606Y057822
X10506Y057822
X102563Y059535
X102161Y059087
X10106Y058822
X10106Y057822
X10006Y057822
X10006Y058822
X09906Y058822
X09906Y057822
X09806Y058822
X09806Y057822
X09706Y058822
X09706Y057822
X09606Y058822
X09606Y057822
X09506Y057822
X09506Y058822
X09406Y057822
X09406Y058822
X09306Y058822
X09306Y057822
X09206Y057822
X09206Y058822
X09106Y058822
X09106Y057822
X09006Y058822
X09006Y057822
X08906Y058822
X08906Y057822
X08806Y058822
X08806Y057822
X08706Y057822
X08706Y058822
X08606Y057822
X08606Y058822
X08506Y057822
X08506Y058822
X08206Y058822
X08106Y057822
X08106Y058822
X08006Y057822
X08006Y058822
X07906Y058822
X07906Y057822
X07906Y059822
X07906Y061822
X07906Y060822
X08006Y061822
X08006Y060822
X08006Y059822
X08106Y060822
X08106Y059822
X08106Y061822
X08206Y061822
X08206Y060822
X08206Y059822
X08306Y061822
X08306Y060822
X08306Y059822
X08406Y061822
X08406Y060822
X08406Y059822
X08506Y061822
X08506Y060822
X08506Y059822
X08606Y061822
X08606Y060822
X08606Y059822
X08706Y061822
X08706Y060822
X08706Y059822
X08806Y061822
X08806Y060822
X08806Y059822
X08906Y061822
X08906Y060822
X08906Y059822
X09006Y061822
X09006Y060822
X09006Y059822
X09106Y061822
X09106Y060822
X09106Y059822
X09206Y061822
X09206Y060822
X09206Y059822
X09306Y061822
X09306Y060822
X09306Y059822
X09406Y061822
X09406Y060822
X09406Y059822
X09506Y059822
X09606Y059822
X09706Y061822
X09706Y059822
X09806Y061822
X09806Y059822
X09906Y059822
X09906Y061822
X10006Y061822
X10006Y059822
X10106Y061822
X10106Y059822
X10206Y061822
X10206Y059822
X103012Y059902
X10306Y061822
X117972Y059902
X117972Y062315
X12006Y059822
X12106Y061822
X121185Y060945
X12206Y060822
X12206Y061822
X12306Y060822
X12606Y059822
X12606Y061822
X12706Y061822
X12706Y059822
X12806Y061822
X12806Y059822
X12906Y061822
X12906Y059822
X13006Y061822
X13006Y059822
X13106Y059822
X13106Y061822
X13206Y061822
X13206Y059822
X13306Y061822
X13306Y059822
X13406Y061822
X13406Y059822
X13506Y061822
X135189Y060953
X13606Y061822
X13606Y060822
X13606Y059822
X13706Y060822
X13706Y059822
X13706Y061822
X13706Y062822
X13706Y063822
X13606Y062822
X13606Y063822
X13506Y062822
X13506Y063822
X13406Y062822
X13406Y063822
X13306Y062822
X13306Y063822
X13206Y062822
X13206Y063822
X13106Y062822
X13106Y063822
X13006Y062822
X13006Y063822
X12906Y063822
X12906Y062822
X12806Y062822
X12806Y063822
X12706Y062822
X12606Y062822
X12206Y062822
X12106Y063822
X11906Y062822
X11906Y063822
X1175Y062795
X117173Y063264
X11606Y063822
X11506Y063822
X11406Y063822
X11306Y063822
X11206Y063822
X10906Y063822
X10906Y062822
X10806Y063822
X10706Y063822
X10706Y062822
X10606Y063822
X10606Y062822
X10506Y063822
X10506Y062822
X10406Y063822
X104043Y062453
X10306Y063822
X10306Y062822
X10206Y063822
X10206Y062822
X10106Y063822
X10006Y063822
X10006Y062822
X09906Y062822
X09806Y063822
X09806Y062822
X09706Y062822
X097051Y06372
X09406Y063822
X09406Y062822
X09306Y062822
X09306Y063822
X09206Y063822
X09206Y062822
X09106Y063822
X09106Y062822
X09006Y062822
X09006Y063822
X08906Y062822
X08906Y063822
X08806Y062822
X08806Y063822
X08706Y063822
X08706Y062822
X08606Y063822
X08606Y062822
X08506Y063822
X08506Y062822
X08406Y063822
X08406Y062822
X08306Y062822
X08306Y063822
X08206Y063822
X08206Y062822
X08106Y062822
X07906Y062822
X07906Y063822
X07906Y065822
X07906Y064822
X07906Y066822
X08006Y066822
X08006Y065822
X08106Y066822
X08106Y065822
X08106Y064822
X08206Y065822
X08206Y064822
X08206Y066822
X08306Y066822
X08306Y065822
X08306Y064822
X08406Y064822
X08406Y066822
X08406Y065822
X08506Y066822
X08506Y065822
X08506Y064822
X08606Y066822
X08606Y065822
X08606Y064822
X08706Y066822
X08706Y065822
X08706Y064822
X08806Y066822
X08806Y065822
X08806Y064822
X08906Y066822
X08906Y065822
X08906Y064822
X09006Y064822
X09006Y066822
X09006Y065822
X09106Y064822
X09106Y066822
X09106Y065822
X09206Y065822
X09206Y064822
X09206Y066822
X09306Y064822
X09306Y066822
X09306Y065822
X09406Y064822
X09406Y065822
X09406Y066822
X096626Y06602
X096646Y06539
X09687Y065705
X096902Y065075
X09706Y066822
X09806Y066822
X09906Y066822
X10406Y066822
X10506Y066822
X10606Y066822
X106839Y066764
X107961Y066791
X10906Y066822
X11206Y066822
X112862Y065705
X11406Y066822
X114524Y066024
X115067Y065075
X115067Y06585
X11606Y064822
X11615Y065386
X11906Y066822
X11906Y065822
X11906Y064822
X12106Y064822
X12206Y065822
X12306Y065822
X12406Y065822
X12506Y065822
X12606Y065822
X12706Y065822
X12706Y066822
X12706Y064822
X12806Y066822
X12806Y064822
X12806Y065822
X12906Y064822
X12906Y066822
X12906Y065822
X13006Y065822
X13006Y064822
X13006Y066822
X13106Y066822
X13106Y065822
X13106Y064822
X13206Y066822
X13206Y065822
X13206Y064822
X13306Y064822
X13306Y065822
X13306Y066822
X13406Y064822
X13406Y065822
X13406Y066822
X13506Y066822
X13506Y065822
X13506Y064822
X13606Y065822
X13606Y064822
X13606Y066822
X13706Y065822
X13706Y064822
X13706Y066822
X13706Y068822
X13706Y067822
X13606Y068822
X13606Y067822
X13506Y068822
X13506Y067822
X13406Y068822
X13406Y067822
X13306Y067822
X13306Y068822
X13206Y068822
X13206Y067822
X13106Y068822
X13106Y067822
X13006Y068822
X13006Y067822
X12906Y068822
X12906Y067822
X12806Y068822
X12806Y067822
X12706Y067822
X12406Y068822
X12406Y067822
X12306Y068822
X12306Y067822
X12206Y068822
X12206Y067822
X12006Y067822
X11906Y067822
X115484Y069453
X114091Y06772
X114087Y069252
X113701Y06961
X11206Y068822
X11206Y067822
X10906Y068822
X10906Y067822
X10806Y067822
X107984Y068827
X10706Y068822
X106941Y067913
X10606Y068822
X10506Y068822
X10506Y067822
X104953Y06861
X10406Y068822
X10306Y067822
X102075Y069386
X09406Y067822
X09406Y068822
X09306Y067822
X09306Y068822
X09206Y067822
X09206Y068822
X09106Y067822
X09106Y068822
X09006Y067822
X09006Y068822
X08906Y067822
X08906Y068822
X08806Y068822
X08806Y067822
X08706Y068822
X08706Y067822
X08606Y068822
X08606Y067822
X08506Y068822
X08506Y067822
X08406Y068822
X08406Y067822
X08306Y068822
X08306Y067822
X08206Y068822
X08206Y067822
X08106Y068822
X08106Y067822
X08006Y068822
X08006Y067822
X07906Y067822
X07906Y068822
X07906Y069822
X07906Y070822
X07906Y071822
X08006Y070822
X08006Y069822
X08006Y071822
X08106Y069822
X08106Y070822
X08106Y071822
X08206Y070822
X08206Y069822
X08206Y071822
X08306Y070822
X08306Y069822
X08306Y071822
X08406Y070822
X08406Y069822
X08406Y071822
X08506Y070822
X08506Y069822
X08506Y071822
X08606Y070822
X08606Y069822
X08606Y071822
X08706Y070822
X08706Y069822
X08706Y071822
X08806Y070822
X08806Y069822
X08806Y071822
X08906Y070822
X08906Y069822
X08906Y071822
X09006Y069822
X09006Y070822
X09006Y071822
X09106Y070822
X09106Y069822
X09106Y071822
X09206Y069822
X09206Y070822
X09206Y071822
X09306Y070822
X09306Y069822
X09306Y071822
X09406Y070822
X09406Y069822
X09406Y071822
X096634Y071059
X096677Y070744
X09906Y070822
X09906Y069822
X10206Y070822
X10206Y069822
X10206Y071822
X10406Y069822
X10606Y071822
X10706Y070822
X10706Y069822
X10706Y071822
X10806Y069822
X10806Y070822
X108138Y071748
X10906Y070822
X10906Y069822
X10906Y071822
X11006Y071822
X11206Y070822
X11206Y069822
X11206Y071822
X11306Y069822
X113307Y072256
X113319Y071496
X114244Y072157
X114268Y069882
X114276Y071622
X114531Y069902
X11506Y070822
X115705Y072126
X115925Y070949
X11606Y071822
X118776Y070626
X12406Y070822
X12406Y069822
X12506Y069822
X12506Y070822
X12606Y070822
X12606Y069822
X12706Y070822
X12706Y069822
X127441Y0715
X12806Y070822
X12806Y069822
X12806Y071822
X12906Y071822
X13006Y069822
X13006Y071822
X13106Y069822
X13106Y071822
X13206Y070822
X13206Y069822
X13206Y071822
X13306Y070822
X13306Y071822
X13306Y069822
X13406Y069822
X13406Y070822
X13406Y071822
X13606Y069822
X13606Y070822
X13606Y071822
X13706Y070822
X13706Y069822
X13706Y071822
X13706Y073822
X13706Y072822
X13606Y073822
X13606Y072822
X13506Y072822
X13406Y073822
X13406Y072822
X13306Y073822
X13306Y072822
X132165Y074642
X13206Y073822
X13206Y072822
X13106Y072822
X130386Y074209
X12806Y073822
X12806Y072822
X12706Y073822
X12706Y072822
X126752Y074209
X12606Y073822
X12606Y072822
X12506Y073822
X12506Y072822
X12406Y073822
X12406Y072822
X12006Y072822
X11906Y072822
X118622Y074303
X11606Y073822
X11506Y073822
X11406Y073822
X11206Y072822
X11106Y073822
X11106Y072822
X11006Y073822
X10906Y073822
X108138Y073402
X10706Y073822
X10606Y073822
X10506Y072822
X10406Y072822
X10406Y073822
X10306Y072822
X10306Y073822
X10206Y073822
X10206Y072822
X10106Y073822
X10006Y073822
X09806Y073822
X09706Y073822
X096713Y072366
X09637Y072591
X09406Y072822
X09406Y073822
X09306Y073822
X09306Y072822
X09206Y073822
X09206Y072822
X09106Y072822
X09106Y073822
X09006Y072822
X09006Y073822
X08906Y072822
X08906Y073822
X08806Y072822
X08806Y073822
X08706Y072822
X08706Y073822
X08606Y072822
X08606Y073822
X08506Y073822
X08506Y072822
X08406Y072822
X08406Y073822
X08306Y073822
X08306Y072822
X08206Y072822
X08206Y073822
X07906Y072822
X07906Y073822
X07906Y074822
X07906Y075822
X08006Y074822
X08106Y074822
X08106Y075822
X08206Y074822
X08206Y075822
X08206Y076822
X08306Y074822
X08306Y076822
X08306Y075822
X08406Y074822
X08406Y076822
X08406Y075822
X08506Y074822
X08506Y076822
X08506Y075822
X08606Y074822
X08606Y076822
X08606Y075822
X08706Y074822
X08706Y076822
X08706Y075822
X08806Y074822
X08806Y076822
X08806Y075822
X08906Y074822
X08906Y076822
X08906Y075822
X089906Y077268
X09006Y074822
X09006Y076822
X09006Y075822
X090685Y077268
X09106Y074822
X09106Y076822
X09106Y075822
X091469Y077276
X09206Y074822
X09206Y076822
X09206Y075822
X09306Y074822
X09306Y076822
X09306Y075822
X09406Y074822
X09406Y076822
X09406Y075822
X09606Y074822
X09606Y076822
X09606Y075822
X09706Y074822
X09706Y076822
X09706Y075822
X09806Y074822
X09806Y076822
X09806Y075822
X09906Y074822
X09906Y075822
X09906Y076822
X10006Y074822
X10106Y074822
X10106Y076822
X10206Y074822
X10206Y076822
X10306Y074822
X10306Y076822
X103575Y077004
X10406Y074822
X10406Y076822
X10506Y074822
X10506Y076822
X10606Y074822
X10606Y076822
X10706Y074822
X10706Y076822
X10806Y076822
X10906Y074822
X10906Y076822
X11006Y074822
X11006Y076822
X11106Y074822
X11106Y076822
X11206Y074822
X11206Y076822
X11306Y074822
X11306Y076822
X11406Y074822
X11406Y076822
X11506Y074822
X11506Y076822
X11606Y074822
X11606Y076822
X11706Y076822
X11806Y076822
X11906Y076822
X12006Y076822
X12106Y076822
X12206Y076822
X12906Y076822
X13006Y076822
X13206Y076822
X13206Y075822
X13306Y074822
X13306Y076822
X13306Y075822
X13406Y074822
X13406Y076822
X13406Y075822
X13506Y074822
X13506Y075822
X13606Y074822
X13706Y074822
X13706Y075822
X13406Y077822
X13006Y077822
X12906Y077822
X12206Y077822
X12106Y077822
X12006Y077822
X11906Y077822
X11806Y077822
X11706Y077822
X11506Y077822
X11406Y077822
X11206Y077822
X11106Y077822
X11006Y077822
X10906Y077822
X10806Y077822
X10606Y077822
X10506Y077822
X101744Y077839
X10106Y077822
X09606Y077822
X09406Y077822
X09306Y077822
X09206Y077822
X09106Y077822
X09006Y077822
X08906Y077822
X08806Y077822
X08706Y077822
X08606Y077822
X08506Y077822
X08406Y077822
X08306Y077822
X08206Y077822
T2C.025F197S55
X096437Y044992
X096457Y049724
X105512Y045909
X105512Y041154
X112567Y044335
X112567Y04874
X135264Y053669
X133476Y051835
X133331Y050677
X133248Y05137
X118752Y057059
X112567Y057059
X112567Y053469
X105512Y057063
X105512Y052551
X096437Y054118
X12213Y064618
X12678Y060972
X128386Y061
X130047Y061028
X131748Y061016
X13278Y061
X133929Y060988
X13463Y060618
X121134Y069913
X117854Y07611
X104591Y071878
X104591Y073559
X104591Y070055
X099839Y07611
T3C.03F197S55
X095531Y064134
X095547Y060976
X135303Y055961
X096079Y073264
X095539Y069319
T4C.03543F197S55
X112713Y077687
X115925Y077687
T5C.03543F197S55
X131012Y077693
X132012Y077693
X133012Y077693
T6C.0374F197S55
X099512Y054401
X108555Y044059
X099224Y073539
T7C.04724F139S55
X130827Y041591
X132827Y041591
T8C.05709F107S55
X099224Y063697
X099512Y044559
X108555Y053902
T9C.08661F074S55
X080272Y06372
X080559Y044583
X127508Y053878
T10C.10236F069S658
X080559Y05411
X127508Y04435
X080272Y073248
T11C.15748F035S9
X080315Y040945
X083465Y040945
X121654Y040945
X13622Y040945
X13622Y077165
X121654Y05748
X083465Y05748
X080315Y077165
M30
