M48
;FILE_FORMAT=2:4
INCH,LZ
FMAT,2
ICI,OFF
;TYPE=PLATED
T1C.012
T2C.025
T3C.03543
T4C.037
T5C.04724
T6C.07874
%
M72
G90
G93X0Y0
T1C.012F095S3
X014268Y012991
X013175Y013262
X015582Y013616
X014051Y013659
X010994Y014894
X0158Y0163
X012281Y01641
X015822Y016824
X015168Y016903
X01559Y017591
X015171Y017929
X018Y0179
X017817Y017673
X0161Y0165
X0183Y0163
X0171Y0159
X0165Y0159
X016269Y01512
X0173Y0149
X0173Y0141
X017159Y013394
X017285Y011983
X0196Y0133
X019599Y013681
X0189Y0139
X019852Y014
X020497Y014449
X0198Y0148
X0198Y016
X0205Y0161
X0188Y0164
X019Y0167
X0192Y0169
X020366Y017041
X019918Y018129
X020056Y018768
X021706Y015807
X021528Y01519
X021383Y014363
X0235Y0143
X025807Y014196
X021609Y013732
X025695Y012568
X021616Y011958
X028524Y011655
X029186Y011661
X030119Y011822
X02785Y012534
X026469Y012829
X026215Y013259
X0297Y0134
X027513Y016332
T2C.025F197S55
X014429Y015255
X016431Y02289
X019577Y019598
X024052Y019205
X024193Y0133
X03003Y015018
X030036Y015552
X030861Y015801
X029703Y017139
X029239Y017571
X03004Y017592
X028059Y018982
X031588Y019204
X032342Y019156
X031641Y018361
X032473Y018266
X031593Y017597
X032194Y017371
X031588Y016633
X032254Y016204
X032494Y01558
T3C.03543F197S55
X0158Y021701
X0148Y021701
X012472Y021736
X011472Y021736
X015824Y024327
X014824Y024327
X017824Y024327
X016824Y024327
X0178Y021701
X0168Y021701
X02415Y010769
X02515Y010769
X02715Y010769
X02615Y010769
X02815Y010769
X03015Y010769
X02915Y010769
T4C.037F197S55
X012239Y010457
X013174Y014184
X012239Y017457
X013239Y017457
X012239Y019457
X013239Y019457
X013239Y020457
X013239Y021457
X012387Y023743
X01295Y024686
X014239Y020457
X015239Y020457
X014239Y019457
X015239Y019457
X013563Y015849
X014413Y012521
X015335Y012518
X019792Y011097
X018574Y015107
X018564Y015111
X018554Y015118
X018567Y015134
X016239Y019457
X016239Y020457
X020968Y020498
X019502Y022518
X019863Y025
X025239Y022457
X023766Y02017
X022239Y018457
X02464Y016178
X02422Y015254
X022311Y010842
X026694Y016284
X028835Y020889
X029929Y020951
X027471Y021146
X02809Y022237
X029951Y022253
X029063Y022338
X031738Y023462
X031705Y021874
X032239Y013457
X031325Y011984
T5C.04724F139S55
X020004Y023489
X022004Y023489
X024004Y023489
X026004Y023489
X028004Y023489
X030004Y023489
T6C.07874F081S55
X010989Y010983
X010989Y024763
X032248Y024763
X032248Y010983
M30
