%FSLAX25Y25*%
%MOIN*%
G70*
G01*
G75*
G04 Layer_Physical_Order=1*
G04 Layer_Color=255*
%ADD10R,0.02756X0.03347*%
%ADD11O,0.08661X0.02362*%
%ADD12R,0.05118X0.03937*%
%ADD13R,0.02362X0.02362*%
%ADD14R,0.03347X0.02756*%
%ADD15R,0.01800X0.01200*%
%ADD16R,0.03400X0.01200*%
%ADD17R,0.01200X0.03400*%
%ADD18R,0.10236X0.10236*%
%ADD19R,0.07480X0.05512*%
%ADD20R,0.05315X0.01654*%
%ADD21R,0.02362X0.02362*%
%ADD22C,0.01000*%
%ADD23C,0.02000*%
%ADD24C,0.03000*%
%ADD25C,0.00800*%
%ADD26R,0.11500X0.04000*%
%ADD27R,0.07000X0.01500*%
%ADD28C,0.00500*%
%ADD29R,0.05906X0.05906*%
%ADD30C,0.05906*%
%ADD31R,0.05906X0.05906*%
%ADD32C,0.03228*%
%ADD33C,0.02000*%
%ADD34C,0.03000*%
G36*
X109000Y24327D02*
X111378D01*
Y24327D01*
X111378D01*
X111378Y24327D01*
X111528D01*
Y24327D01*
X117183D01*
X117419Y23886D01*
X117145Y23475D01*
X116951Y22500D01*
X117145Y21524D01*
X117698Y20698D01*
X118525Y20145D01*
X119069Y20037D01*
X119020Y19539D01*
X109500D01*
X108720Y19384D01*
X108058Y18942D01*
X107058Y17942D01*
X107018Y17881D01*
X106539Y18027D01*
Y24327D01*
X108000D01*
Y27501D01*
X109000D01*
Y24327D01*
D02*
G37*
G36*
X35511Y54767D02*
X35111Y54246D01*
X34662Y53162D01*
X34509Y52000D01*
X34662Y50838D01*
X35111Y49754D01*
X35824Y48824D01*
X36754Y48110D01*
X36961Y48025D01*
Y47500D01*
X36961Y47500D01*
X36961D01*
X37116Y46720D01*
X37558Y46058D01*
X37597Y46019D01*
X37562Y45838D01*
X37433Y45529D01*
X26000D01*
X25415Y45413D01*
X25309Y45342D01*
X24941D01*
Y45096D01*
X24919Y45081D01*
X24587Y44585D01*
X24471Y44000D01*
Y40000D01*
X24587Y39415D01*
X24919Y38919D01*
X24941Y38904D01*
Y38405D01*
X31974D01*
Y37468D01*
X24941D01*
Y37026D01*
X24000D01*
X23217Y36923D01*
X22701Y36709D01*
X22487Y36621D01*
X21860Y36140D01*
X20360Y34640D01*
X19880Y34013D01*
X19791Y33799D01*
X19577Y33283D01*
X19474Y32500D01*
Y30029D01*
X17899D01*
X17569Y30405D01*
X17574Y30441D01*
X17467Y31254D01*
X17153Y32012D01*
X16654Y32662D01*
X16004Y33161D01*
X15246Y33475D01*
X14433Y33582D01*
X13620Y33475D01*
X12863Y33161D01*
X12212Y32662D01*
X11713Y32012D01*
X11399Y31254D01*
X11292Y30441D01*
X11399Y29628D01*
X11713Y28870D01*
X12212Y28220D01*
X12342Y28120D01*
Y25358D01*
Y22799D01*
Y20240D01*
Y20240D01*
X20658D01*
Y20240D01*
Y21009D01*
X24334D01*
X24813Y20530D01*
X25442Y20110D01*
X26183Y19963D01*
X26542D01*
Y19800D01*
X30063D01*
Y18370D01*
X30063Y18370D01*
X30063D01*
X30210Y17629D01*
X30630Y17000D01*
X32315Y15315D01*
D01*
X32315Y15315D01*
X33969Y13662D01*
X34597Y13242D01*
X35339Y13094D01*
X38057D01*
X38249Y12632D01*
X31558Y5942D01*
X31116Y5280D01*
X30961Y4500D01*
Y2283D01*
X30181D01*
Y2480D01*
X24819D01*
Y-2882D01*
Y-3638D01*
X27501D01*
Y-4137D01*
X28000D01*
Y-6819D01*
X29827D01*
Y-6000D01*
X36173D01*
Y-3622D01*
D01*
Y-3622D01*
X36173Y-3622D01*
Y-3472D01*
X36173D01*
Y2283D01*
X35039D01*
Y3655D01*
X42408Y11024D01*
X43315D01*
X43551Y10583D01*
X43145Y9975D01*
X42951Y9000D01*
Y7500D01*
X42951Y7500D01*
X42951D01*
Y6106D01*
X42880Y6013D01*
X42577Y5283D01*
X42474Y4500D01*
X42577Y3717D01*
X42880Y2987D01*
X42924Y2929D01*
X42703Y2480D01*
X42681D01*
Y2480D01*
X37319D01*
Y-2882D01*
Y-3638D01*
X40001D01*
Y-4137D01*
X40500D01*
Y-6819D01*
X42327D01*
Y-6000D01*
X48673D01*
Y-4210D01*
X49135Y-4019D01*
X50696Y-5580D01*
X51357Y-6022D01*
X51819Y-6114D01*
Y-6819D01*
X59000D01*
Y-4137D01*
X59499D01*
Y-3638D01*
X62181D01*
Y-2882D01*
Y2480D01*
X61539D01*
Y2500D01*
X61384Y3280D01*
X60942Y3942D01*
X60539Y4345D01*
Y4850D01*
X66505D01*
Y8995D01*
X70650D01*
Y10963D01*
Y12932D01*
Y17131D01*
Y18837D01*
Y23037D01*
Y25005D01*
X66505D01*
Y29150D01*
X61187D01*
X60996Y29612D01*
X61345Y29961D01*
X71155D01*
X72961Y28155D01*
Y17500D01*
X72961Y17500D01*
X72961D01*
X73116Y16720D01*
X73558Y16058D01*
X76058Y13558D01*
X76720Y13116D01*
X77500Y12961D01*
X81025D01*
X81111Y12754D01*
X81824Y11824D01*
X82754Y11111D01*
X83838Y10662D01*
X85000Y10509D01*
X86162Y10662D01*
X87246Y11111D01*
X88176Y11824D01*
X88889Y12754D01*
X89338Y13838D01*
X89491Y15000D01*
X89338Y16162D01*
X88889Y17246D01*
X88176Y18176D01*
X87246Y18890D01*
X86162Y19338D01*
X85000Y19491D01*
X83838Y19338D01*
X82754Y18890D01*
X81824Y18176D01*
X81111Y17246D01*
X81025Y17039D01*
X78345D01*
X77039Y18345D01*
Y27424D01*
X77501Y27615D01*
X77558Y27558D01*
X77558Y27558D01*
X77955Y27293D01*
X78220Y27116D01*
X79000Y26961D01*
X81025D01*
X81111Y26754D01*
X81824Y25824D01*
X82754Y25111D01*
X83838Y24662D01*
X85000Y24509D01*
X86162Y24662D01*
X87246Y25111D01*
X87558Y25350D01*
X88026Y25174D01*
X88116Y24720D01*
X88558Y24058D01*
X92702Y19915D01*
X92510Y19453D01*
X90547D01*
Y10547D01*
X99453D01*
Y19453D01*
X97039D01*
Y20500D01*
X96884Y21280D01*
X96442Y21942D01*
X94298Y24085D01*
X94490Y24547D01*
X99453D01*
Y33453D01*
X97039D01*
Y35000D01*
X96884Y35780D01*
X96442Y36442D01*
X94779Y38105D01*
X94117Y38547D01*
D01*
X94117D01*
X94117Y38547D01*
X99453D01*
Y40961D01*
X100655D01*
X102461Y39155D01*
Y-2500D01*
X102461Y-2500D01*
X102461D01*
X102616Y-3280D01*
X103058Y-3942D01*
X107115Y-7999D01*
X106924Y-8461D01*
X101345D01*
X97039Y-4155D01*
Y-3453D01*
X99453D01*
Y5453D01*
X90547D01*
Y-3453D01*
X92961D01*
Y-5000D01*
X92961Y-5000D01*
X92961D01*
X93116Y-5780D01*
X93558Y-6442D01*
X96870Y-9754D01*
X96679Y-10216D01*
X16004D01*
X15955Y-9718D01*
X16775Y-9555D01*
X17602Y-9002D01*
X18155Y-8175D01*
X18349Y-7200D01*
X18155Y-6225D01*
X17602Y-5398D01*
X17505Y-5332D01*
X17583Y-5073D01*
X17583D01*
X17583Y-5073D01*
Y-2400D01*
X14705D01*
Y-1901D01*
X14206D01*
Y1273D01*
X11828D01*
D01*
D01*
X11828Y1273D01*
X11678D01*
Y1273D01*
X5922D01*
Y-5073D01*
X6282D01*
Y-9862D01*
X6282Y-9862D01*
X6282D01*
X6282Y-9881D01*
X5947Y-10216D01*
X1897D01*
X1568Y-9840D01*
X1688Y-8929D01*
X1560Y-7958D01*
X1185Y-7054D01*
X589Y-6277D01*
X-188Y-5681D01*
X-1092Y-5306D01*
X-2063Y-5178D01*
X-2840Y-5281D01*
X-3216Y-4951D01*
Y50085D01*
X-2840Y50415D01*
X-2063Y50312D01*
X-1092Y50440D01*
X-188Y50815D01*
X589Y51411D01*
X1185Y52188D01*
X1560Y53092D01*
X1688Y54063D01*
X1560Y55034D01*
X1681Y55216D01*
X35290D01*
X35511Y54767D01*
D02*
G37*
G36*
X175391Y54840D02*
X175289Y54063D01*
X175417Y53092D01*
X175791Y52188D01*
X176387Y51411D01*
X177164Y50815D01*
X178069Y50440D01*
X179039Y50312D01*
X179840Y50418D01*
X180216Y50088D01*
Y41953D01*
X177000D01*
Y37499D01*
Y33047D01*
X180216D01*
Y30750D01*
X179742Y30589D01*
X179676Y30676D01*
X178746Y31389D01*
X177662Y31838D01*
X176500Y31991D01*
X175338Y31838D01*
X174254Y31389D01*
X173324Y30676D01*
X173209Y30526D01*
X171253D01*
X167140Y34640D01*
X166513Y35120D01*
X166299Y35209D01*
X165783Y35423D01*
X165000Y35526D01*
X147975D01*
Y40611D01*
X148026Y41000D01*
X147975Y41389D01*
Y45051D01*
X147872Y45834D01*
X147658Y46350D01*
X147569Y46564D01*
X147088Y47191D01*
X144140Y50140D01*
X143513Y50621D01*
X143299Y50709D01*
X142783Y50923D01*
X142000Y51026D01*
X140784D01*
Y51173D01*
X135231D01*
X135231Y51173D01*
Y51173D01*
X135028Y51173D01*
X134953D01*
X134878D01*
X134674Y51173D01*
X134674Y51173D01*
Y51173D01*
X132500D01*
Y47999D01*
Y44827D01*
X134878D01*
Y44827D01*
X135028D01*
X135231Y44827D01*
X135231Y44827D01*
Y44827D01*
X140783D01*
X140784Y44827D01*
Y44827D01*
X140862Y44859D01*
X141710Y44011D01*
X141518Y43549D01*
X140784D01*
Y44173D01*
X135231D01*
X135231Y44173D01*
Y44173D01*
X135028Y44173D01*
X134953D01*
X134878D01*
X134674Y44173D01*
X134674Y44173D01*
Y44173D01*
X132500D01*
Y40999D01*
Y37827D01*
X134878D01*
Y37827D01*
X135028D01*
X135231Y37827D01*
X135231Y37827D01*
Y37827D01*
X140784D01*
Y38451D01*
X141923D01*
Y35204D01*
X141799D01*
X141099Y35112D01*
X140447Y34842D01*
X139887Y34412D01*
X139457Y33852D01*
X139187Y33200D01*
X139095Y32500D01*
X139187Y31800D01*
X139457Y31148D01*
X139887Y30588D01*
X140327Y30250D01*
Y29750D01*
X139887Y29412D01*
X139457Y28852D01*
X139187Y28200D01*
X139161Y28000D01*
X150737D01*
X150710Y28200D01*
X150440Y28852D01*
X150011Y29412D01*
X150032Y29474D01*
X163747D01*
X167855Y25366D01*
X167538Y24979D01*
X166975Y25355D01*
X166000Y25549D01*
X165878D01*
Y26173D01*
X160122D01*
D01*
D01*
X160122Y26173D01*
X159972D01*
Y26173D01*
X154217D01*
Y25049D01*
X150086D01*
X149925Y25523D01*
X150011Y25588D01*
X150440Y26148D01*
X150710Y26800D01*
X150737Y27000D01*
X139161D01*
X139187Y26800D01*
X139457Y26148D01*
X139887Y25588D01*
X140327Y25250D01*
Y24750D01*
X139887Y24412D01*
X139457Y23852D01*
X139187Y23200D01*
X139095Y22500D01*
X139187Y21800D01*
X139457Y21148D01*
X139887Y20588D01*
X140327Y20250D01*
Y19750D01*
X139887Y19412D01*
X139457Y18852D01*
X139187Y18200D01*
X139095Y17500D01*
X139187Y16800D01*
X139457Y16148D01*
X139887Y15588D01*
X140327Y15250D01*
Y14750D01*
X139887Y14412D01*
X139457Y13852D01*
X139187Y13200D01*
X139095Y12500D01*
X139187Y11800D01*
X139457Y11148D01*
X139887Y10588D01*
X140327Y10250D01*
Y9750D01*
X139887Y9412D01*
X139457Y8852D01*
X139187Y8200D01*
X139095Y7500D01*
X139187Y6800D01*
X139457Y6148D01*
X139887Y5588D01*
X140327Y5250D01*
Y4750D01*
X139887Y4412D01*
X139457Y3852D01*
X139187Y3200D01*
X139095Y2500D01*
X139187Y1800D01*
X139457Y1148D01*
X139887Y588D01*
X140327Y250D01*
Y-250D01*
X139887Y-588D01*
X139457Y-1148D01*
X139187Y-1800D01*
X139095Y-2500D01*
X139187Y-3200D01*
X139457Y-3852D01*
X139887Y-4412D01*
X140447Y-4842D01*
X141099Y-5112D01*
X141799Y-5204D01*
X148098D01*
X148798Y-5112D01*
X148819Y-5103D01*
X149097Y-5519D01*
X148655Y-5961D01*
X110845D01*
X106539Y-1655D01*
Y3327D01*
X108000D01*
Y6501D01*
X109000D01*
Y3327D01*
X111378D01*
Y3327D01*
X111378D01*
X111378Y3327D01*
X111528D01*
Y3327D01*
X117283D01*
Y4461D01*
X119000D01*
X119780Y4616D01*
X120442Y5058D01*
X120442Y5058D01*
X120442Y5058D01*
X120845Y5461D01*
X121155D01*
X121430Y5250D01*
Y4750D01*
X120989Y4412D01*
X120560Y3852D01*
X120290Y3200D01*
X120197Y2500D01*
X120290Y1800D01*
X120560Y1148D01*
X120989Y588D01*
X121430Y250D01*
Y-250D01*
X120989Y-588D01*
X120560Y-1148D01*
X120290Y-1800D01*
X120197Y-2500D01*
X120290Y-3200D01*
X120560Y-3852D01*
X120989Y-4412D01*
X121549Y-4842D01*
X122202Y-5112D01*
X122902Y-5204D01*
X129201D01*
X129901Y-5112D01*
X130553Y-4842D01*
X131113Y-4412D01*
X131543Y-3852D01*
X131813Y-3200D01*
X131905Y-2500D01*
X131813Y-1800D01*
X131543Y-1148D01*
X131113Y-588D01*
X130553Y-158D01*
Y158D01*
X131113Y588D01*
X131543Y1148D01*
X131813Y1800D01*
X131905Y2500D01*
X131813Y3200D01*
X131543Y3852D01*
X131113Y4412D01*
X130553Y4842D01*
Y5158D01*
X131113Y5588D01*
X131543Y6148D01*
X131813Y6800D01*
X131905Y7500D01*
X131813Y8200D01*
X131543Y8852D01*
X131113Y9412D01*
X130553Y9842D01*
Y10158D01*
X131113Y10588D01*
X131543Y11148D01*
X131813Y11800D01*
X131905Y12500D01*
X131813Y13200D01*
X131543Y13852D01*
X131113Y14412D01*
X130553Y14842D01*
Y15158D01*
X131113Y15588D01*
X131543Y16148D01*
X131813Y16800D01*
X131905Y17500D01*
X131813Y18200D01*
X131543Y18852D01*
X131113Y19412D01*
X130553Y19842D01*
Y20158D01*
X131113Y20588D01*
X131543Y21148D01*
X131813Y21800D01*
X131905Y22500D01*
X131813Y23200D01*
X131543Y23852D01*
X131113Y24412D01*
X130553Y24842D01*
Y25158D01*
X131113Y25588D01*
X131543Y26148D01*
X131813Y26800D01*
X131905Y27500D01*
X131813Y28200D01*
X131543Y28852D01*
X131113Y29412D01*
X130553Y29842D01*
Y30158D01*
X131113Y30588D01*
X131543Y31148D01*
X131813Y31800D01*
X131905Y32500D01*
X131813Y33200D01*
X131543Y33852D01*
X131113Y34412D01*
X130553Y34842D01*
X129901Y35112D01*
X129201Y35204D01*
X122902D01*
X122202Y35112D01*
X121549Y34842D01*
X121155Y34539D01*
X119845D01*
X119442Y34942D01*
X118780Y35384D01*
X118000Y35539D01*
X117283D01*
Y36673D01*
X111528D01*
D01*
D01*
X111528Y36673D01*
X111378D01*
Y36673D01*
X111317D01*
X111049Y37000D01*
X110855Y37975D01*
X110302Y38802D01*
X109476Y39355D01*
X108500Y39549D01*
X107525Y39355D01*
X106980Y38991D01*
X106539Y39227D01*
Y40000D01*
X106384Y40780D01*
X105942Y41442D01*
X102942Y44442D01*
X102280Y44884D01*
X101500Y45039D01*
X99453D01*
Y47453D01*
D01*
Y47453D01*
X99661Y47661D01*
X106517D01*
Y46527D01*
X108619D01*
Y41619D01*
X108807D01*
X108945Y40925D01*
X109498Y40098D01*
X110325Y39545D01*
X111300Y39351D01*
X112276Y39545D01*
X113102Y40098D01*
X113655Y40925D01*
X113793Y41619D01*
X117918D01*
Y46527D01*
X118178D01*
Y52873D01*
X112422D01*
D01*
D01*
X112422Y52873D01*
X112272D01*
Y52873D01*
X106517D01*
Y51739D01*
X87000D01*
X86220Y51584D01*
X85558Y51142D01*
X83558Y49142D01*
X83116Y48480D01*
X82961Y47700D01*
Y46975D01*
X82754Y46889D01*
X81824Y46176D01*
X81111Y45246D01*
X80662Y44162D01*
X80509Y43000D01*
X80662Y41838D01*
X81111Y40754D01*
X81824Y39824D01*
X82670Y39176D01*
X82509Y38702D01*
X81845D01*
X79605Y40942D01*
X78943Y41384D01*
X78163Y41539D01*
X53000D01*
X52220Y41384D01*
X51558Y40942D01*
X50443Y39827D01*
X49981Y40018D01*
Y43281D01*
X49339D01*
Y44455D01*
X50442Y45558D01*
X50884Y46220D01*
X51039Y47000D01*
Y48025D01*
X51246Y48110D01*
X52176Y48824D01*
X52890Y49754D01*
X53338Y50838D01*
X53491Y52000D01*
X53338Y53162D01*
X52890Y54246D01*
X52176Y55176D01*
X52189Y55216D01*
X55290D01*
X55511Y54767D01*
X55111Y54246D01*
X54662Y53162D01*
X54509Y52000D01*
X54662Y50838D01*
X55111Y49754D01*
X55824Y48824D01*
X56754Y48110D01*
X57838Y47662D01*
X59000Y47509D01*
X60162Y47662D01*
X61246Y48110D01*
X62176Y48824D01*
X62889Y49754D01*
X63338Y50838D01*
X63491Y52000D01*
X63338Y53162D01*
X62889Y54246D01*
X62176Y55176D01*
X62189Y55216D01*
X64547D01*
Y52500D01*
X73453D01*
Y55216D01*
X175061D01*
X175391Y54840D01*
D02*
G37*
%LPC*%
G36*
X85000Y5491D02*
X83838Y5338D01*
X82754Y4890D01*
X81824Y4176D01*
X81111Y3246D01*
X80662Y2162D01*
X80509Y1000D01*
X80662Y-162D01*
X81111Y-1246D01*
X81824Y-2176D01*
X82754Y-2889D01*
X83838Y-3338D01*
X85000Y-3491D01*
X86162Y-3338D01*
X87246Y-2889D01*
X88176Y-2176D01*
X88889Y-1246D01*
X89338Y-162D01*
X89491Y1000D01*
X89338Y2162D01*
X88889Y3246D01*
X88176Y4176D01*
X87246Y4890D01*
X86162Y5338D01*
X85000Y5491D01*
D02*
G37*
G36*
X62181Y-4638D02*
X60000D01*
Y-6819D01*
X62181D01*
Y-4638D01*
D02*
G37*
G36*
X11209Y11905D02*
X728D01*
Y3393D01*
X11209D01*
Y11905D01*
D02*
G37*
G36*
X17583Y1273D02*
X15205D01*
Y-1400D01*
X17583D01*
Y1273D01*
D02*
G37*
G36*
X39500Y-4638D02*
X37319D01*
Y-6819D01*
X39500D01*
Y-4638D01*
D02*
G37*
G36*
X36173Y-7000D02*
X33500D01*
Y-9378D01*
X36173D01*
Y-7000D01*
D02*
G37*
G36*
X32500D02*
X29827D01*
Y-9378D01*
X32500D01*
Y-7000D01*
D02*
G37*
G36*
X45000D02*
X42327D01*
Y-9378D01*
X45000D01*
Y-7000D01*
D02*
G37*
G36*
X27000Y-4638D02*
X24819D01*
Y-6819D01*
X27000D01*
Y-4638D01*
D02*
G37*
G36*
X48673Y-7000D02*
X46000D01*
Y-9378D01*
X48673D01*
Y-7000D01*
D02*
G37*
G36*
X14433Y17834D02*
X13620Y17727D01*
X12863Y17413D01*
X12342Y17014D01*
Y17014D01*
X12212Y16914D01*
X11713Y16263D01*
X11399Y15506D01*
X11292Y14693D01*
X11399Y13880D01*
X11713Y13122D01*
X12212Y12472D01*
X12863Y11973D01*
X13620Y11659D01*
X14433Y11552D01*
X15246Y11659D01*
X16004Y11973D01*
X16654Y12472D01*
X17153Y13122D01*
X17467Y13880D01*
X17574Y14693D01*
X17567Y14746D01*
X17897Y15122D01*
X20658D01*
Y16949D01*
X16609D01*
X16499Y17033D01*
X16004Y17413D01*
X15246Y17727D01*
X14433Y17834D01*
D02*
G37*
G36*
X131500Y47500D02*
X129122D01*
Y44827D01*
X131500D01*
Y47500D01*
D02*
G37*
G36*
Y44173D02*
X129122D01*
Y41500D01*
X131500D01*
Y44173D01*
D02*
G37*
G36*
X68500Y51500D02*
X64547D01*
Y47547D01*
X68500D01*
Y51500D01*
D02*
G37*
G36*
X131500Y51173D02*
X129122D01*
Y48500D01*
X131500D01*
Y51173D01*
D02*
G37*
G36*
X73453Y51500D02*
X69500D01*
Y47547D01*
X73453D01*
Y51500D01*
D02*
G37*
G36*
X176000Y37000D02*
X172047D01*
Y33047D01*
X176000D01*
Y37000D01*
D02*
G37*
G36*
X20658Y19508D02*
X12342D01*
Y17949D01*
X20658D01*
Y19508D01*
D02*
G37*
G36*
X11209Y41826D02*
X728D01*
Y33315D01*
X11209D01*
Y41826D01*
D02*
G37*
G36*
X176000Y41953D02*
X172047D01*
Y38000D01*
X176000D01*
Y41953D01*
D02*
G37*
G36*
X131500Y40500D02*
X129122D01*
Y37827D01*
X131500D01*
Y40500D01*
D02*
G37*
%LPD*%
D10*
X108500Y27500D02*
D03*
X114406D02*
D03*
X108500Y33500D02*
D03*
X114406D02*
D03*
Y12500D02*
D03*
X108500D02*
D03*
Y6500D02*
D03*
X114406D02*
D03*
X163000Y23000D02*
D03*
X157095D02*
D03*
X163000Y17000D02*
D03*
X157095D02*
D03*
X137906Y48000D02*
D03*
X132000D02*
D03*
X137906Y41000D02*
D03*
X132000D02*
D03*
X14706Y-1900D02*
D03*
X8800D02*
D03*
X109395Y49700D02*
D03*
X115300D02*
D03*
D11*
X126051Y32500D02*
D03*
Y27500D02*
D03*
Y22500D02*
D03*
Y17500D02*
D03*
Y12500D02*
D03*
Y7500D02*
D03*
Y2500D02*
D03*
Y-2500D02*
D03*
X144949Y32500D02*
D03*
Y27500D02*
D03*
Y22500D02*
D03*
Y17500D02*
D03*
Y12500D02*
D03*
Y7500D02*
D03*
Y2500D02*
D03*
Y-2500D02*
D03*
D12*
X29000Y34000D02*
D03*
Y41874D02*
D03*
D13*
X47300Y40600D02*
D03*
Y36663D02*
D03*
X41500Y40700D02*
D03*
Y36763D02*
D03*
X59500Y-4138D02*
D03*
Y-201D02*
D03*
X54500Y-4138D02*
D03*
Y-201D02*
D03*
X40000D02*
D03*
Y-4138D02*
D03*
X27500Y-201D02*
D03*
Y-4138D02*
D03*
D14*
X45500Y-6500D02*
D03*
Y-594D02*
D03*
X33000D02*
D03*
Y-6500D02*
D03*
D15*
X34300Y25868D02*
D03*
Y23900D02*
D03*
Y21900D02*
D03*
X28942Y23900D02*
D03*
Y25868D02*
D03*
Y21900D02*
D03*
D16*
X49550Y22906D02*
D03*
Y20937D02*
D03*
Y18969D02*
D03*
Y17000D02*
D03*
Y15032D02*
D03*
Y13063D02*
D03*
Y11095D02*
D03*
X67450D02*
D03*
Y13063D02*
D03*
Y15032D02*
D03*
Y17000D02*
D03*
Y18969D02*
D03*
Y20937D02*
D03*
Y22906D02*
D03*
D17*
X52595Y8050D02*
D03*
X54563D02*
D03*
X56532D02*
D03*
X58500D02*
D03*
X60469D02*
D03*
X62437D02*
D03*
X64406D02*
D03*
Y25950D02*
D03*
X62437D02*
D03*
X60469D02*
D03*
X58500D02*
D03*
X56532D02*
D03*
X54563D02*
D03*
X52595D02*
D03*
D18*
X58500Y17000D02*
D03*
D19*
X5968Y7649D02*
D03*
Y37571D02*
D03*
D20*
X16500Y27685D02*
D03*
Y17449D02*
D03*
Y20008D02*
D03*
Y25126D02*
D03*
Y22567D02*
D03*
D21*
X12900Y-7200D02*
D03*
X8963D02*
D03*
X111300Y44300D02*
D03*
X115237D02*
D03*
D22*
X38600Y23900D02*
X39500Y23000D01*
X35500Y23900D02*
X38600D01*
X35500D02*
X36400D01*
X34300D02*
X35500D01*
X131000Y-8000D02*
X149500D01*
X110000D02*
X131000D01*
X149500D02*
X154000Y-3500D01*
Y5500D01*
X152000Y7500D02*
X154000Y5500D01*
X144949Y7500D02*
X152000D01*
X144949Y12500D02*
X154000D01*
X157000Y9500D01*
Y-5000D02*
Y9500D01*
X151500Y-10500D02*
X157000Y-5000D01*
X100500Y-10500D02*
X151500D01*
X95000Y-5000D02*
X100500Y-10500D01*
X95000Y-5000D02*
Y1000D01*
X104500Y-2500D02*
X110000Y-8000D01*
X104500Y-2500D02*
Y40000D01*
X101500Y43000D02*
X104500Y40000D01*
X95000Y43000D02*
X101500D01*
X114406Y6500D02*
X119000D01*
X120000Y7500D01*
X126051D01*
X114406Y12500D02*
X126051D01*
X108500D02*
Y16500D01*
X109500Y17500D01*
X126051D01*
X119500Y22500D02*
X126051D01*
X108500Y33500D02*
Y37000D01*
X114406Y27500D02*
X126051D01*
X114406Y33500D02*
X118000D01*
X119000Y32500D01*
X126051D01*
X95000Y15000D02*
Y20500D01*
X90000Y25500D02*
X95000Y20500D01*
X90000Y25500D02*
Y32000D01*
X87500Y34500D02*
X90000Y32000D01*
X79500Y34500D02*
X87500D01*
X76500Y37500D02*
X79500Y34500D01*
X54500Y37500D02*
X76500D01*
X49500Y32500D02*
X54500Y37500D01*
X44000Y32500D02*
X49500D01*
X41500Y35000D02*
X44000Y32500D01*
X41500Y35000D02*
Y36763D01*
X81000Y36663D02*
X93337D01*
X78163Y39500D02*
X81000Y36663D01*
X50163D02*
X53000Y39500D01*
X78163D01*
X47300Y36663D02*
X50163D01*
X95000Y29000D02*
Y35000D01*
X93337Y36663D02*
X95000Y35000D01*
X41500Y40700D02*
Y45000D01*
X39000Y47500D02*
X41500Y45000D01*
X39000Y47500D02*
Y52000D01*
X47300Y40600D02*
Y45300D01*
X49000Y47000D01*
Y52000D01*
X79000Y29000D02*
X85000D01*
X73500Y34500D02*
X79000Y29000D01*
X59000Y34500D02*
X73500D01*
X56532Y32032D02*
X59000Y34500D01*
X56532Y25950D02*
Y32032D01*
X77500Y15000D02*
X85000D01*
X75000Y17500D02*
X77500Y15000D01*
X75000Y17500D02*
Y29000D01*
X72000Y32000D02*
X75000Y29000D01*
X60500Y32000D02*
X72000D01*
X58500Y30000D02*
X60500Y32000D01*
X58500Y25950D02*
Y30000D01*
X45500Y-201D02*
X48201D01*
X45106D02*
X45500D01*
X48201D02*
X52138Y-4138D01*
X54500D01*
X59500Y-201D02*
Y2500D01*
X58500Y3500D02*
X59500Y2500D01*
X58500Y3500D02*
Y8050D01*
X54500Y-201D02*
X54563Y-138D01*
Y8050D01*
X45500Y7500D02*
X46050Y8050D01*
X52595D01*
X49550Y10963D02*
Y11095D01*
X27500Y-201D02*
X27894Y-594D01*
X33000D01*
Y4500D01*
X41563Y13063D01*
X49550D01*
X8800Y-7300D02*
Y-1900D01*
X12900Y-7200D02*
X15800D01*
X115300Y44363D02*
Y49700D01*
X115237Y44300D02*
X115300Y44363D01*
X87000Y49700D02*
X109395D01*
X85000Y47700D02*
X87000Y49700D01*
X85000Y43000D02*
Y47700D01*
X111300Y41900D02*
Y44300D01*
D23*
X137906Y41000D02*
X144949D01*
X171500Y12500D02*
X176500Y7500D01*
X170000Y12500D02*
X171500D01*
X165500Y17000D02*
X170000Y12500D01*
X163000Y17000D02*
X165500D01*
X171500Y17500D02*
X176500D01*
X166000Y23000D02*
X171500Y17500D01*
X163000Y23000D02*
X166000D01*
X156595Y17500D02*
X157095Y17000D01*
X144949Y17500D02*
X156595D01*
Y22500D02*
X157095Y23000D01*
X144949Y22500D02*
X156595D01*
X45500Y-594D02*
Y-201D01*
Y7500D02*
Y9000D01*
X47463Y10963D02*
X49550D01*
X45500Y9000D02*
X47463Y10963D01*
X45106Y-201D02*
X45500Y-594D01*
X40000Y-201D02*
X45106D01*
X45500D02*
Y4500D01*
Y7500D01*
X5968Y2468D02*
Y7649D01*
X13051D01*
X-1049D02*
X5968D01*
Y13231D01*
Y37571D02*
X13271D01*
X-530D02*
X5968D01*
Y30332D02*
Y37571D01*
Y43369D01*
D24*
X39500Y23000D02*
Y30500D01*
X35000Y35000D02*
X39500Y30500D01*
X35000Y35000D02*
Y42000D01*
X137906Y48000D02*
X142000D01*
X144949Y45051D01*
Y32500D02*
X165000D01*
X170000Y27500D01*
X176500D01*
X24000Y34000D02*
X29000D01*
X22500Y32500D02*
X24000Y34000D01*
X22500Y28500D02*
Y32500D01*
X144949D02*
Y41000D01*
Y45051D01*
D25*
X56532Y18969D02*
X58500Y17000D01*
X49550Y18969D02*
X56532D01*
X20000Y22946D02*
X25137D01*
X16880D02*
X20000D01*
X25137D02*
X26183Y21900D01*
X28942D01*
X26122Y25868D02*
X28942D01*
X16880Y24746D02*
X25000D01*
X26122Y25868D01*
X27370Y23900D02*
X28942D01*
X35916Y17000D02*
X49550D01*
X34300Y18616D02*
X35916Y17000D01*
X33685Y16685D02*
X35339Y15032D01*
X32000Y18370D02*
X33685Y16685D01*
X35339Y15032D02*
X49550D01*
X32000Y18370D02*
Y25000D01*
X32868Y25868D01*
X34300Y18616D02*
Y21900D01*
X32868Y25868D02*
X34300D01*
X16500Y22567D02*
X16880Y22946D01*
X16500Y25126D02*
X16880Y24746D01*
D26*
X31750Y42000D02*
D03*
D27*
X20500Y27750D02*
D03*
D28*
X181008Y54063D02*
G03*
X181008Y54063I-1969J0D01*
G01*
Y-8929D02*
G03*
X181008Y-8929I-1969J0D01*
G01*
X-94D02*
G03*
X-94Y-8929I-1969J0D01*
G01*
Y54063D02*
G03*
X-94Y54063I-1969J0D01*
G01*
X-6000Y-12866D02*
X182976D01*
Y58000D01*
X-6000D02*
X182976D01*
X-6000Y-12866D02*
Y58000D01*
D29*
X176500Y37500D02*
D03*
D30*
Y27500D02*
D03*
Y17500D02*
D03*
Y7500D02*
D03*
X85000Y1000D02*
D03*
Y15000D02*
D03*
Y29000D02*
D03*
Y43000D02*
D03*
X39000Y52000D02*
D03*
X49000D02*
D03*
X59000D02*
D03*
D31*
X95000Y1000D02*
D03*
Y15000D02*
D03*
Y29000D02*
D03*
Y43000D02*
D03*
X69000Y52000D02*
D03*
D32*
X14433Y14693D02*
D03*
Y30441D02*
D03*
D33*
X108500Y37000D02*
D03*
X119500Y22500D02*
D03*
D03*
X108500Y37000D02*
D03*
X15800Y-7200D02*
D03*
X111300Y41900D02*
D03*
X26870Y23900D02*
D03*
D03*
D34*
X35000Y42000D02*
D03*
X145000Y41000D02*
D03*
X39500Y23000D02*
D03*
X45500Y4500D02*
D03*
X52500Y31000D02*
D03*
X33500Y29500D02*
D03*
X44000D02*
D03*
X118500Y2000D02*
D03*
X135000Y-2000D02*
D03*
X135500Y6500D02*
D03*
Y16500D02*
D03*
Y25000D02*
D03*
X111500Y22500D02*
D03*
X78500Y22000D02*
D03*
X70500Y28100D02*
D03*
X170000Y46500D02*
D03*
X118000Y-4000D02*
D03*
X177000Y-2500D02*
D03*
X162500Y-3000D02*
D03*
X168000Y6500D02*
D03*
X161000Y48500D02*
D03*
X167500Y52000D02*
D03*
X105500Y47000D02*
D03*
X58500Y17000D02*
D03*
X74500Y5000D02*
D03*
X87500Y-8500D02*
D03*
X76500D02*
D03*
X64500D02*
D03*
X52500D02*
D03*
X0Y0D02*
D03*
X4000Y27000D02*
D03*
X3500Y19500D02*
D03*
X31500Y11000D02*
D03*
X18500Y4000D02*
D03*
X24000Y9500D02*
D03*
X24500Y16500D02*
D03*
X21500Y40500D02*
D03*
X15500Y45000D02*
D03*
X7500D02*
D03*
X3500Y-8100D02*
D03*
X126500Y48600D02*
D03*
X122200Y39000D02*
D03*
X162600Y40700D02*
D03*
X154200Y52200D02*
D03*
M02*
