%FSLAX25Y25*%
%MOIN*%
G70*
G01*
G75*
%ADD10R,0.02756X0.03347*%
%ADD11O,0.08661X0.02362*%
%ADD12R,0.05118X0.03937*%
%ADD13R,0.02362X0.02362*%
%ADD14R,0.03347X0.02756*%
%ADD15R,0.01800X0.01200*%
%ADD16R,0.03400X0.01200*%
%ADD17R,0.01200X0.03400*%
%ADD18R,0.10236X0.10236*%
%ADD19R,0.07480X0.05512*%
%ADD20R,0.05315X0.01654*%
%ADD21R,0.02362X0.02362*%
%ADD22C,0.01000*%
%ADD23C,0.02000*%
%ADD24C,0.03000*%
%ADD25C,0.00800*%
%ADD26R,0.11500X0.04000*%
%ADD27R,0.07000X0.01500*%
%ADD28C,0.00500*%
%ADD29R,0.05906X0.05906*%
%ADD30C,0.05906*%
%ADD31R,0.05906X0.05906*%
%ADD32C,0.03228*%
%ADD33C,0.02000*%
%ADD34C,0.03000*%
D10*
X108500Y27500D02*
D03*
X114406D02*
D03*
X108500Y33500D02*
D03*
X114406D02*
D03*
Y12500D02*
D03*
X108500D02*
D03*
Y6500D02*
D03*
X114406D02*
D03*
X163000Y23000D02*
D03*
X157095D02*
D03*
X163000Y17000D02*
D03*
X157095D02*
D03*
X137906Y48000D02*
D03*
X132000D02*
D03*
X137906Y41000D02*
D03*
X132000D02*
D03*
X14706Y-1900D02*
D03*
X8800D02*
D03*
X109395Y49700D02*
D03*
X115300D02*
D03*
D11*
X126051Y32500D02*
D03*
Y27500D02*
D03*
Y22500D02*
D03*
Y17500D02*
D03*
Y12500D02*
D03*
Y7500D02*
D03*
Y2500D02*
D03*
Y-2500D02*
D03*
X144949Y32500D02*
D03*
Y27500D02*
D03*
Y22500D02*
D03*
Y17500D02*
D03*
Y12500D02*
D03*
Y7500D02*
D03*
Y2500D02*
D03*
Y-2500D02*
D03*
D12*
X29000Y34000D02*
D03*
Y41874D02*
D03*
D13*
X47300Y40600D02*
D03*
Y36663D02*
D03*
X41500Y40700D02*
D03*
Y36763D02*
D03*
X59500Y-4138D02*
D03*
Y-201D02*
D03*
X54500Y-4138D02*
D03*
Y-201D02*
D03*
X40000D02*
D03*
Y-4138D02*
D03*
X27500Y-201D02*
D03*
Y-4138D02*
D03*
D14*
X45500Y-6500D02*
D03*
Y-594D02*
D03*
X33000D02*
D03*
Y-6500D02*
D03*
D15*
X34300Y25868D02*
D03*
Y23900D02*
D03*
Y21900D02*
D03*
X28942Y23900D02*
D03*
Y25868D02*
D03*
Y21900D02*
D03*
D16*
X49550Y22906D02*
D03*
Y20937D02*
D03*
Y18969D02*
D03*
Y17000D02*
D03*
Y15032D02*
D03*
Y13063D02*
D03*
Y11095D02*
D03*
X67450D02*
D03*
Y13063D02*
D03*
Y15032D02*
D03*
Y17000D02*
D03*
Y18969D02*
D03*
Y20937D02*
D03*
Y22906D02*
D03*
D17*
X52595Y8050D02*
D03*
X54563D02*
D03*
X56532D02*
D03*
X58500D02*
D03*
X60469D02*
D03*
X62437D02*
D03*
X64406D02*
D03*
Y25950D02*
D03*
X62437D02*
D03*
X60469D02*
D03*
X58500D02*
D03*
X56532D02*
D03*
X54563D02*
D03*
X52595D02*
D03*
D18*
X58500Y17000D02*
D03*
D19*
X5968Y7649D02*
D03*
Y37571D02*
D03*
D20*
X16500Y27685D02*
D03*
Y17449D02*
D03*
Y20008D02*
D03*
Y25126D02*
D03*
Y22567D02*
D03*
D21*
X12900Y-7200D02*
D03*
X8963D02*
D03*
X111300Y44300D02*
D03*
X115237D02*
D03*
D28*
X181008Y54063D02*
G03*
X181008Y54063I-1969J0D01*
G01*
Y-8929D02*
G03*
X181008Y-8929I-1969J0D01*
G01*
X-94D02*
G03*
X-94Y-8929I-1969J0D01*
G01*
Y54063D02*
G03*
X-94Y54063I-1969J0D01*
G01*
X-6000Y-12866D02*
X182976D01*
Y58000D01*
X-6000D02*
X182976D01*
X-6000Y-12866D02*
Y58000D01*
D29*
X176500Y37500D02*
D03*
D30*
Y27500D02*
D03*
Y17500D02*
D03*
Y7500D02*
D03*
X85000Y1000D02*
D03*
Y15000D02*
D03*
Y29000D02*
D03*
Y43000D02*
D03*
X39000Y52000D02*
D03*
X49000D02*
D03*
X59000D02*
D03*
D31*
X95000Y1000D02*
D03*
Y15000D02*
D03*
Y29000D02*
D03*
Y43000D02*
D03*
X69000Y52000D02*
D03*
D32*
X14433Y14693D02*
D03*
Y30441D02*
D03*
M02*
