%FSLAX25Y25*%
%MOIN*%
G70*
G01*
G75*
G04 Layer_Physical_Order=2*
G04 Layer_Color=16711680*
%ADD10R,0.02756X0.03347*%
%ADD11O,0.08661X0.02362*%
%ADD12R,0.05118X0.03937*%
%ADD13R,0.02362X0.02362*%
%ADD14R,0.03347X0.02756*%
%ADD15R,0.01800X0.01200*%
%ADD16R,0.03400X0.01200*%
%ADD17R,0.01200X0.03400*%
%ADD18R,0.10236X0.10236*%
%ADD19R,0.07480X0.05512*%
%ADD20R,0.05315X0.01654*%
%ADD21R,0.02362X0.02362*%
%ADD22C,0.01000*%
%ADD23C,0.02000*%
%ADD24C,0.03000*%
%ADD25C,0.00800*%
%ADD26R,0.11500X0.04000*%
%ADD27R,0.07000X0.01500*%
%ADD28C,0.00500*%
%ADD29R,0.05906X0.05906*%
%ADD30C,0.05906*%
%ADD31R,0.05906X0.05906*%
%ADD32C,0.03228*%
%ADD33C,0.02000*%
%ADD34C,0.03000*%
G36*
X175391Y54840D02*
X175289Y54063D01*
X175417Y53092D01*
X175791Y52188D01*
X176387Y51411D01*
X177164Y50815D01*
X178069Y50440D01*
X179039Y50312D01*
X179840Y50418D01*
X180216Y50088D01*
Y41953D01*
X177000D01*
Y37499D01*
Y33047D01*
X180216D01*
Y30750D01*
X179742Y30589D01*
X179676Y30676D01*
X178746Y31389D01*
X177662Y31838D01*
X176500Y31991D01*
X175338Y31838D01*
X174254Y31389D01*
X173324Y30676D01*
X172610Y29746D01*
X172162Y28662D01*
X172009Y27500D01*
X172162Y26338D01*
X172610Y25254D01*
X173324Y24324D01*
X174254Y23610D01*
X175338Y23162D01*
X176500Y23009D01*
X177662Y23162D01*
X178746Y23610D01*
X179676Y24324D01*
X179742Y24411D01*
X180216Y24250D01*
Y20750D01*
X179742Y20589D01*
X179676Y20676D01*
X178746Y21389D01*
X177662Y21838D01*
X176500Y21991D01*
X175338Y21838D01*
X174254Y21389D01*
X173324Y20676D01*
X172610Y19746D01*
X172162Y18662D01*
X172009Y17500D01*
X172162Y16338D01*
X172610Y15254D01*
X173324Y14324D01*
X174254Y13611D01*
X175338Y13162D01*
X176500Y13009D01*
X177662Y13162D01*
X178746Y13611D01*
X179676Y14324D01*
X179742Y14411D01*
X180216Y14250D01*
Y10750D01*
X179742Y10589D01*
X179676Y10676D01*
X178746Y11389D01*
X177662Y11838D01*
X176500Y11991D01*
X175338Y11838D01*
X174254Y11389D01*
X173324Y10676D01*
X172610Y9746D01*
X172162Y8662D01*
X172009Y7500D01*
X172162Y6338D01*
X172610Y5254D01*
X173324Y4324D01*
X174254Y3610D01*
X175338Y3162D01*
X176500Y3009D01*
X177662Y3162D01*
X178746Y3610D01*
X179676Y4324D01*
X179742Y4411D01*
X180216Y4250D01*
Y-4954D01*
X179840Y-5284D01*
X179039Y-5178D01*
X178069Y-5306D01*
X177164Y-5681D01*
X176387Y-6277D01*
X175791Y-7054D01*
X175417Y-7958D01*
X175289Y-8929D01*
X175409Y-9840D01*
X175079Y-10216D01*
X16004D01*
X15957Y-9734D01*
X15957D01*
X15955Y-9718D01*
X16775Y-9555D01*
X17248Y-9239D01*
X43800D01*
X44580Y-9084D01*
X45242Y-8642D01*
X45242Y-8642D01*
X45242Y-8642D01*
X46942Y-6942D01*
X47384Y-6280D01*
X47539Y-5500D01*
X47539Y-5500D01*
X47539Y-5500D01*
Y-5500D01*
Y2283D01*
X47640Y2360D01*
X48120Y2987D01*
X48423Y3717D01*
X48526Y4500D01*
X48423Y5283D01*
X48120Y6013D01*
X47640Y6640D01*
X47013Y7120D01*
X46283Y7423D01*
X45500Y7526D01*
X42526D01*
Y23000D01*
X42423Y23783D01*
X42121Y24513D01*
X41640Y25140D01*
X41013Y25620D01*
X40283Y25923D01*
X39500Y26026D01*
X38717Y25923D01*
X37987Y25620D01*
X37360Y25140D01*
X36880Y24513D01*
X36577Y23783D01*
X36474Y23000D01*
Y6000D01*
X36577Y5217D01*
X36791Y4701D01*
X36880Y4487D01*
X37360Y3860D01*
X38860Y2360D01*
X39487Y1880D01*
X39701Y1791D01*
X40217Y1577D01*
X41000Y1474D01*
X43461D01*
Y-4655D01*
X42955Y-5161D01*
X17248D01*
X16775Y-4845D01*
X15800Y-4651D01*
X14825Y-4845D01*
X13998Y-5398D01*
X13445Y-6225D01*
X13251Y-7200D01*
X13445Y-8175D01*
X13998Y-9002D01*
X14825Y-9555D01*
X15645Y-9718D01*
X15612Y-10050D01*
X15446Y-10216D01*
X1897D01*
X1568Y-9840D01*
X1688Y-8929D01*
X1560Y-7958D01*
X1185Y-7054D01*
X589Y-6277D01*
X-188Y-5681D01*
X-1092Y-5306D01*
X-2063Y-5178D01*
X-2840Y-5281D01*
X-3216Y-4951D01*
Y50085D01*
X-2840Y50415D01*
X-2063Y50312D01*
X-1092Y50440D01*
X-188Y50815D01*
X589Y51411D01*
X1185Y52188D01*
X1560Y53092D01*
X1688Y54063D01*
X1560Y55034D01*
X1681Y55216D01*
X35290D01*
X35511Y54767D01*
X35111Y54246D01*
X34662Y53162D01*
X34509Y52000D01*
X34662Y50838D01*
X35111Y49754D01*
X35824Y48824D01*
X36754Y48110D01*
X37838Y47662D01*
X39000Y47509D01*
X40162Y47662D01*
X41246Y48110D01*
X42176Y48824D01*
X42889Y49754D01*
X43338Y50838D01*
X43491Y52000D01*
X43338Y53162D01*
X42889Y54246D01*
X42176Y55176D01*
X42189Y55216D01*
X45290D01*
X45511Y54767D01*
X45110Y54246D01*
X44662Y53162D01*
X44509Y52000D01*
X44662Y50838D01*
X45110Y49754D01*
X45824Y48824D01*
X46754Y48110D01*
X47838Y47662D01*
X49000Y47509D01*
X50162Y47662D01*
X51246Y48110D01*
X52176Y48824D01*
X52890Y49754D01*
X53338Y50838D01*
X53491Y52000D01*
X53338Y53162D01*
X52890Y54246D01*
X52176Y55176D01*
X52189Y55216D01*
X55290D01*
X55511Y54767D01*
X55111Y54246D01*
X54662Y53162D01*
X54509Y52000D01*
X54662Y50838D01*
X55111Y49754D01*
X55824Y48824D01*
X55974Y48709D01*
Y45026D01*
X35000D01*
X34217Y44923D01*
X33487Y44620D01*
X32860Y44140D01*
X32379Y43513D01*
X32077Y42783D01*
X31974Y42000D01*
X32077Y41217D01*
X32379Y40487D01*
X32860Y39860D01*
X33487Y39380D01*
X34217Y39077D01*
X35000Y38974D01*
X71500D01*
X72283Y39077D01*
X72799Y39291D01*
X73013Y39380D01*
X73640Y39860D01*
X83753Y49974D01*
X109261D01*
Y43348D01*
X108945Y42875D01*
X108751Y41900D01*
X108945Y40925D01*
X109498Y40098D01*
X110325Y39545D01*
X110366Y39537D01*
X110342Y39292D01*
X109890Y39078D01*
X109476Y39355D01*
X108500Y39549D01*
X107525Y39355D01*
X106698Y38802D01*
X106145Y37975D01*
X105951Y37000D01*
X106145Y36024D01*
X106698Y35198D01*
X107525Y34645D01*
X108500Y34451D01*
X109476Y34645D01*
X109948Y34961D01*
X117155D01*
X117461Y34655D01*
Y23948D01*
X117145Y23475D01*
X116951Y22500D01*
X117145Y21524D01*
X117698Y20698D01*
X118525Y20145D01*
X119500Y19951D01*
X120475Y20145D01*
X121302Y20698D01*
X121855Y21524D01*
X122049Y22500D01*
X121855Y23475D01*
X121539Y23948D01*
Y35500D01*
X121384Y36280D01*
X120942Y36942D01*
X119442Y38442D01*
X118780Y38884D01*
X118000Y39039D01*
X112283D01*
X112234Y39537D01*
X112276Y39545D01*
X113102Y40098D01*
X113655Y40925D01*
X113849Y41900D01*
X113655Y42875D01*
X113339Y43348D01*
Y49974D01*
X141974D01*
Y41000D01*
X141974Y41000D01*
X141974D01*
X142077Y40217D01*
X142379Y39487D01*
X142860Y38860D01*
X143487Y38379D01*
X144217Y38077D01*
X145000Y37974D01*
X145783Y38077D01*
X146513Y38379D01*
X147140Y38860D01*
X147620Y39487D01*
X147923Y40217D01*
X148026Y41000D01*
Y51500D01*
X147923Y52283D01*
X147709Y52799D01*
X147620Y53013D01*
X147140Y53640D01*
X145640Y55140D01*
X145666Y55216D01*
X175061D01*
X175391Y54840D01*
D02*
G37*
G36*
X64547Y52500D02*
X69001D01*
Y52001D01*
X69500D01*
Y47547D01*
X72115D01*
X72306Y47085D01*
X70247Y45026D01*
X62026D01*
Y48709D01*
X62176Y48824D01*
X62889Y49754D01*
X63338Y50838D01*
X63491Y52000D01*
X63338Y53162D01*
X62889Y54246D01*
X62176Y55176D01*
X62189Y55216D01*
X64547D01*
Y52500D01*
D02*
G37*
%LPC*%
G36*
X85000Y47491D02*
X83838Y47338D01*
X82754Y46889D01*
X81824Y46176D01*
X81111Y45246D01*
X80662Y44162D01*
X80509Y43000D01*
X80662Y41838D01*
X81111Y40754D01*
X81824Y39824D01*
X82754Y39110D01*
X82961Y39025D01*
Y32975D01*
X82754Y32890D01*
X81824Y32176D01*
X81111Y31246D01*
X80662Y30162D01*
X80509Y29000D01*
X80662Y27838D01*
X81111Y26754D01*
X81824Y25824D01*
X82754Y25111D01*
X83838Y24662D01*
X85000Y24509D01*
X86162Y24662D01*
X87246Y25111D01*
X88176Y25824D01*
X88889Y26754D01*
X89338Y27838D01*
X89491Y29000D01*
X89338Y30162D01*
X88889Y31246D01*
X88176Y32176D01*
X87246Y32890D01*
X87039Y32975D01*
Y39025D01*
X87246Y39110D01*
X88176Y39824D01*
X88889Y40754D01*
X89338Y41838D01*
X89491Y43000D01*
X89338Y44162D01*
X88889Y45246D01*
X88176Y46176D01*
X87246Y46889D01*
X86162Y47338D01*
X85000Y47491D01*
D02*
G37*
G36*
X14433Y17834D02*
X13620Y17727D01*
X12863Y17413D01*
X12212Y16914D01*
X11713Y16263D01*
X11399Y15506D01*
X11292Y14693D01*
X11399Y13880D01*
X11713Y13122D01*
X12212Y12472D01*
X12863Y11973D01*
X13620Y11659D01*
X14433Y11552D01*
X15246Y11659D01*
X16004Y11973D01*
X16654Y12472D01*
X17153Y13122D01*
X17467Y13880D01*
X17574Y14693D01*
X17467Y15506D01*
X17153Y16263D01*
X16654Y16914D01*
X16004Y17413D01*
X15246Y17727D01*
X14433Y17834D01*
D02*
G37*
G36*
X85000Y19491D02*
X83838Y19338D01*
X82754Y18890D01*
X81824Y18176D01*
X81111Y17246D01*
X80662Y16162D01*
X80509Y15000D01*
X80662Y13838D01*
X81111Y12754D01*
X81824Y11824D01*
X82754Y11111D01*
X82961Y11025D01*
Y4975D01*
X82754Y4890D01*
X81824Y4176D01*
X81111Y3246D01*
X80662Y2162D01*
X80509Y1000D01*
X80662Y-162D01*
X81111Y-1246D01*
X81824Y-2176D01*
X82754Y-2889D01*
X83838Y-3338D01*
X85000Y-3491D01*
X86162Y-3338D01*
X87246Y-2889D01*
X88176Y-2176D01*
X88889Y-1246D01*
X89338Y-162D01*
X89491Y1000D01*
X89338Y2162D01*
X88889Y3246D01*
X88176Y4176D01*
X87246Y4890D01*
X87039Y4975D01*
Y11025D01*
X87246Y11111D01*
X88176Y11824D01*
X88889Y12754D01*
X89338Y13838D01*
X89491Y15000D01*
X89338Y16162D01*
X88889Y17246D01*
X88176Y18176D01*
X87246Y18890D01*
X86162Y19338D01*
X85000Y19491D01*
D02*
G37*
G36*
X99453Y5453D02*
X90547D01*
Y-3453D01*
X99453D01*
Y5453D01*
D02*
G37*
G36*
Y19453D02*
X90547D01*
Y10547D01*
X99453D01*
Y19453D01*
D02*
G37*
G36*
Y33453D02*
X90547D01*
Y24547D01*
X99453D01*
Y33453D01*
D02*
G37*
G36*
Y47453D02*
X90547D01*
Y38547D01*
X99453D01*
Y47453D01*
D02*
G37*
G36*
X68500Y51500D02*
X64547D01*
Y47547D01*
X68500D01*
Y51500D01*
D02*
G37*
G36*
X176000Y41953D02*
X172047D01*
Y38000D01*
X176000D01*
Y41953D01*
D02*
G37*
G36*
X14433Y33582D02*
X13620Y33475D01*
X12863Y33161D01*
X12212Y32662D01*
X11713Y32012D01*
X11399Y31254D01*
X11292Y30441D01*
X11399Y29628D01*
X11713Y28870D01*
X12212Y28220D01*
X12863Y27721D01*
X13620Y27407D01*
X14433Y27300D01*
X15246Y27407D01*
X16004Y27721D01*
X16654Y28220D01*
X17153Y28870D01*
X17467Y29628D01*
X17574Y30441D01*
X17467Y31254D01*
X17153Y32012D01*
X16654Y32662D01*
X16004Y33161D01*
X15246Y33475D01*
X14433Y33582D01*
D02*
G37*
G36*
X176000Y37000D02*
X172047D01*
Y33047D01*
X176000D01*
Y37000D01*
D02*
G37*
%LPD*%
D22*
X108500D02*
X118000D01*
X119500Y35500D01*
Y22000D02*
Y35500D01*
X85000Y1000D02*
Y15000D01*
Y29000D02*
Y43000D01*
X15800Y-7200D02*
X43800D01*
X45500Y-5500D01*
Y4500D01*
X111300Y41900D02*
Y53000D01*
D24*
X41000Y4500D02*
X45500D01*
X39500Y6000D02*
X41000Y4500D01*
X39500Y6000D02*
Y23000D01*
X59000Y42000D02*
Y52000D01*
Y42000D02*
X71500D01*
X35000D02*
X59000D01*
X145000Y41000D02*
Y51500D01*
X143500Y53000D02*
X145000Y51500D01*
X71500Y42000D02*
X82500Y53000D01*
X111300D01*
X143500D01*
D28*
X181008Y54063D02*
G03*
X181008Y54063I-1969J0D01*
G01*
Y-8929D02*
G03*
X181008Y-8929I-1969J0D01*
G01*
X-94D02*
G03*
X-94Y-8929I-1969J0D01*
G01*
Y54063D02*
G03*
X-94Y54063I-1969J0D01*
G01*
X-6000Y-12866D02*
X182976D01*
Y58000D01*
X-6000D02*
X182976D01*
X-6000Y-12866D02*
Y58000D01*
D29*
X176500Y37500D02*
D03*
D30*
Y27500D02*
D03*
Y17500D02*
D03*
Y7500D02*
D03*
X85000Y1000D02*
D03*
Y15000D02*
D03*
Y29000D02*
D03*
Y43000D02*
D03*
X39000Y52000D02*
D03*
X49000D02*
D03*
X59000D02*
D03*
D31*
X95000Y1000D02*
D03*
Y15000D02*
D03*
Y29000D02*
D03*
Y43000D02*
D03*
X69000Y52000D02*
D03*
D32*
X14433Y14693D02*
D03*
Y30441D02*
D03*
D33*
X108500Y37000D02*
D03*
X119500Y22500D02*
D03*
D03*
X108500Y37000D02*
D03*
X15800Y-7200D02*
D03*
X111300Y41900D02*
D03*
X26870Y23900D02*
D03*
D03*
D34*
X35000Y42000D02*
D03*
X145000Y41000D02*
D03*
X39500Y23000D02*
D03*
X45500Y4500D02*
D03*
X52500Y31000D02*
D03*
X33500Y29500D02*
D03*
X44000D02*
D03*
X118500Y2000D02*
D03*
X135000Y-2000D02*
D03*
X135500Y6500D02*
D03*
Y16500D02*
D03*
Y25000D02*
D03*
X111500Y22500D02*
D03*
X78500Y22000D02*
D03*
X70500Y28100D02*
D03*
X170000Y46500D02*
D03*
X118000Y-4000D02*
D03*
X177000Y-2500D02*
D03*
X162500Y-3000D02*
D03*
X168000Y6500D02*
D03*
X161000Y48500D02*
D03*
X167500Y52000D02*
D03*
X105500Y47000D02*
D03*
X58500Y17000D02*
D03*
X74500Y5000D02*
D03*
X87500Y-8500D02*
D03*
X76500D02*
D03*
X64500D02*
D03*
X52500D02*
D03*
X0Y0D02*
D03*
X4000Y27000D02*
D03*
X3500Y19500D02*
D03*
X31500Y11000D02*
D03*
X18500Y4000D02*
D03*
X24000Y9500D02*
D03*
X24500Y16500D02*
D03*
X21500Y40500D02*
D03*
X15500Y45000D02*
D03*
X7500D02*
D03*
X3500Y-8100D02*
D03*
X126500Y48600D02*
D03*
X122200Y39000D02*
D03*
X162600Y40700D02*
D03*
X154200Y52200D02*
D03*
M02*
