M48
;Layer_Color=9474304
;FILE_FORMAT=2:5
INCH,LZ
;TYPE=PLATED
T1F00S00C0.01200
T2F00S00C0.02000
T3F00S00C0.02362
T5F00S00C0.03543
T6F00S00C0.05315
T7F00S00C0.11811
%
T01
X00897Y-01052
X00992Y-00936
X01008Y-00863
X0110415Y-00867
Y-00781
X00974Y-0077294
X00897Y-00832
X00678Y-00741
X0110415Y-00969
Y-0103885
X01313Y-0091
X01363
X0139884Y-00795
X01352Y-00768
X0135Y-00732
X01348Y-00692
X01347Y-00648
X01405Y-00647
X01268Y-0064894
X0127269Y-0081132
X00586Y-00694
X0044363Y-0078763
X00501Y-00439
X00563Y-00421
X00624Y-00435
X00586Y-00257
X0055Y-00258
X0043369Y-0038331
X00325Y-00481
X00276Y-005
X0066804Y-0020496
X00733Y-00173
X01325Y-00207
X01442Y-00427
X0143937Y-0048837
T02
X0075Y-00913
X00833Y-00968
X0085Y-00814
X0089Y-00737
X00867Y-00685
X00971Y-00672
X01041Y-0066
X0104Y-00719
X01056Y-00777
X00926Y-00881
X00712Y-00798
X00719Y-00673
X01471Y-00786
X01548Y-00795
X01452Y-00942
X01435Y-01053
X01362Y-01048
X01253Y-01044
X00454Y-00976
X00341Y-00983
X00233Y-01005
X00051Y-01044
X00221Y-007
X00237Y-00618
X00224Y-00552
Y-00473
X00319Y-00384
X0032Y-00236
X00226Y-0026
X00227Y-00185
Y-00111
Y-00041
X00469Y-00236
X00443Y-00302
X00516Y-00294
X00488Y-00339
X00625
X00671Y-00321
X00708Y-00482
X00814Y-00504
X00954Y-00505
X01042Y-005
X00966Y-00319
X00921Y-00205
X00776Y-00178
X0111722Y-0013078
X0131Y-00134
T03
X0068421Y-01035
X01519Y-00683
Y-00633
X00635Y-01035
X01519Y-00583
Y-00533
T05
X0011Y-0088874
Y-0081
Y-0073126
X01126Y-00305
Y-00205
X01226Y-00068
X01326
X01517Y-00072
Y-00172
Y-00272
X01426Y-00305
Y-00205
T06
X0011Y-0097142
Y-0064858
T07
X01218Y-00524
M30
