%FSLAX25Y25*%
%MOIN*%
G70*
G01*
G75*
G04 Layer_Color=16711935*
%ADD10C,0.01500*%
%ADD11C,0.00800*%
%ADD12C,0.02000*%
%ADD13C,0.01000*%
%ADD14C,0.04000*%
%ADD15R,0.04724X0.09843*%
%ADD16R,0.02756X0.03347*%
%ADD17R,0.02362X0.02362*%
%ADD18O,0.00984X0.04724*%
%ADD19O,0.04724X0.00984*%
%ADD20O,0.04724X0.01772*%
%ADD21O,0.01772X0.04724*%
%ADD22R,0.04724X0.01772*%
%ADD23R,0.02362X0.02362*%
%ADD24R,0.04331X0.04724*%
%ADD25R,0.05118X0.03937*%
%ADD26R,0.07087X0.03937*%
%ADD27R,0.02756X0.04724*%
%ADD28R,0.02992X0.04724*%
%ADD29R,0.03150X0.04724*%
%ADD30R,0.03347X0.02756*%
%ADD31R,0.04724X0.01969*%
%ADD32R,0.03937X0.03150*%
%ADD33R,0.03937X0.07087*%
%ADD34C,0.03000*%
%ADD35C,0.03500*%
%ADD36C,0.17716*%
%ADD37C,0.07874*%
%ADD38C,0.05906*%
%ADD39R,0.05906X0.05906*%
%ADD40R,0.03937X0.03937*%
%ADD41C,0.03937*%
%ADD42O,0.04331X0.06693*%
%ADD43R,0.03937X0.03937*%
%ADD44R,0.05906X0.05906*%
%ADD45C,0.03000*%
%ADD46C,0.02000*%
%ADD47R,0.07874X0.07874*%
%ADD48O,0.03543X0.08661*%
%ADD49C,0.00500*%
%ADD50C,0.02362*%
%ADD51C,0.00984*%
%ADD52C,0.00787*%
%ADD53C,0.00591*%
%ADD54R,0.05524X0.10642*%
%ADD55R,0.03556X0.04147*%
%ADD56R,0.03162X0.03162*%
%ADD57O,0.01784X0.05524*%
%ADD58O,0.05524X0.01784*%
%ADD59O,0.05524X0.02572*%
%ADD60O,0.02572X0.05524*%
%ADD61R,0.05524X0.02572*%
%ADD62R,0.03162X0.03162*%
%ADD63R,0.05131X0.05524*%
%ADD64R,0.05918X0.04737*%
%ADD65R,0.07887X0.04737*%
%ADD66R,0.03556X0.05524*%
%ADD67R,0.03792X0.05524*%
%ADD68R,0.03950X0.05524*%
%ADD69R,0.04147X0.03556*%
%ADD70R,0.05524X0.02769*%
%ADD71R,0.04737X0.03950*%
%ADD72R,0.04737X0.07887*%
%ADD73C,0.18517*%
%ADD74C,0.08674*%
%ADD75C,0.06706*%
%ADD76R,0.06706X0.06706*%
%ADD77R,0.04737X0.04737*%
%ADD78C,0.04737*%
%ADD79O,0.05131X0.07493*%
%ADD80R,0.04737X0.04737*%
%ADD81R,0.06706X0.06706*%
%ADD82R,0.08674X0.08674*%
%ADD83O,0.04343X0.09461*%
D13*
X0Y0D02*
X157480D01*
Y-110236D02*
Y0D01*
X0Y-110236D02*
X157480D01*
X0D02*
Y0D01*
D55*
X101406Y-105200D02*
D03*
X95500D02*
D03*
D56*
X27400Y-82300D02*
D03*
X23463D02*
D03*
X27400Y-88925D02*
D03*
X23463D02*
D03*
X119900Y-13000D02*
D03*
X115963D02*
D03*
D62*
X100800Y-77194D02*
D03*
Y-81132D02*
D03*
X131325Y-94100D02*
D03*
Y-98037D02*
D03*
X136225Y-94000D02*
D03*
Y-97937D02*
D03*
X121147Y-26147D02*
D03*
Y-30084D02*
D03*
D73*
X121800Y-52400D02*
D03*
D74*
X11000Y-64858D02*
D03*
Y-97142D02*
D03*
D75*
Y-81000D02*
D03*
Y-88874D02*
D03*
Y-73126D02*
D03*
X142600Y-30500D02*
D03*
Y-20500D02*
D03*
X112600Y-30500D02*
D03*
X132600Y-6800D02*
D03*
X151700Y-27200D02*
D03*
Y-17200D02*
D03*
D76*
X112600Y-20500D02*
D03*
X122600Y-6800D02*
D03*
D77*
X151900Y-68300D02*
D03*
D78*
Y-63300D02*
D03*
Y-58300D02*
D03*
Y-53300D02*
D03*
X68421Y-103500D02*
D03*
D79*
X150908Y-87100D02*
D03*
X116892Y-102061D02*
D03*
X150908D02*
D03*
X116892Y-87100D02*
D03*
D80*
X63500Y-103500D02*
D03*
D81*
X151700Y-7200D02*
D03*
D82*
X37552Y-90200D02*
D03*
X53300D02*
D03*
X37552Y-76500D02*
D03*
X53300D02*
D03*
D83*
X100733Y-59178D02*
D03*
X94828D02*
D03*
X88922D02*
D03*
X83017D02*
D03*
X77111D02*
D03*
X71206D02*
D03*
X65300D02*
D03*
X59395D02*
D03*
X53489D02*
D03*
X47583D02*
D03*
X41678D02*
D03*
X35772D02*
D03*
X29867D02*
D03*
X100733Y-6422D02*
D03*
X94828D02*
D03*
X88922D02*
D03*
X83017D02*
D03*
X77111D02*
D03*
X71206D02*
D03*
X65300D02*
D03*
X59395D02*
D03*
X53489D02*
D03*
X47583D02*
D03*
X41678D02*
D03*
X35772D02*
D03*
X29867D02*
D03*
M02*
