%FSLAX25Y25*%
%MOIN*%
G70*
G01*
G75*
G04 Layer_Physical_Order=2*
G04 Layer_Color=16711680*
%ADD10C,0.01500*%
%ADD11C,0.00800*%
%ADD12C,0.02000*%
%ADD13C,0.01000*%
%ADD14C,0.04000*%
%ADD15R,0.04724X0.09843*%
%ADD16R,0.02756X0.03347*%
%ADD17R,0.02362X0.02362*%
%ADD18O,0.00984X0.04724*%
%ADD19O,0.04724X0.00984*%
%ADD20O,0.04724X0.01772*%
%ADD21O,0.01772X0.04724*%
%ADD22R,0.04724X0.01772*%
%ADD23R,0.02362X0.02362*%
%ADD24R,0.04331X0.04724*%
%ADD25R,0.05118X0.03937*%
%ADD26R,0.07087X0.03937*%
%ADD27R,0.02756X0.04724*%
%ADD28R,0.02992X0.04724*%
%ADD29R,0.03150X0.04724*%
%ADD30R,0.03347X0.02756*%
%ADD31R,0.04724X0.01969*%
%ADD32R,0.03937X0.03150*%
%ADD33R,0.03937X0.07087*%
%ADD34C,0.03000*%
%ADD35C,0.03500*%
%ADD36C,0.17716*%
%ADD37C,0.07874*%
%ADD38C,0.05906*%
%ADD39R,0.05906X0.05906*%
%ADD40R,0.03937X0.03937*%
%ADD41C,0.03937*%
%ADD42O,0.04331X0.06693*%
%ADD43R,0.03937X0.03937*%
%ADD44R,0.05906X0.05906*%
%ADD45C,0.03000*%
%ADD46C,0.02000*%
%ADD47R,0.07874X0.07874*%
%ADD48O,0.03543X0.08661*%
G36*
X27411Y-2182D02*
X27271Y-2364D01*
X26972Y-3087D01*
X26870Y-3863D01*
Y-8981D01*
X26972Y-9757D01*
X27271Y-10480D01*
X27695Y-11033D01*
X27744Y-11105D01*
X27747Y-11101D01*
X27767Y-11116D01*
X28120Y-11644D01*
X28234Y-12217D01*
X28225Y-12293D01*
X28236D01*
Y-14767D01*
X28236Y-14767D01*
X28236D01*
X28360Y-15391D01*
X28713Y-15921D01*
X33547Y-20753D01*
X34076Y-21107D01*
X34700Y-21231D01*
X61728D01*
X62147Y-21650D01*
X62676Y-22003D01*
X63300Y-22127D01*
X65270D01*
X65310Y-22144D01*
X65946Y-22569D01*
X66804Y-22739D01*
X67662Y-22569D01*
X68390Y-22082D01*
X68876Y-21354D01*
X69047Y-20496D01*
X68876Y-19638D01*
X68699Y-19372D01*
X68935Y-18931D01*
X71766D01*
X71806Y-18948D01*
X72442Y-19372D01*
X73300Y-19543D01*
X74158Y-19372D01*
X74747Y-18979D01*
X75226Y-19124D01*
X75242Y-19162D01*
X75674Y-19726D01*
X76238Y-20158D01*
X76895Y-20430D01*
X77600Y-20523D01*
X78305Y-20430D01*
X78962Y-20158D01*
X79112Y-20043D01*
X88471D01*
X89445Y-21017D01*
X89469Y-21205D01*
X89741Y-21862D01*
X90174Y-22426D01*
X90738Y-22858D01*
X91395Y-23131D01*
X92100Y-23223D01*
X92805Y-23131D01*
X93462Y-22858D01*
X93612Y-22743D01*
X108094D01*
X108447Y-22813D01*
Y-24516D01*
X62255D01*
X61772Y-24193D01*
X61147Y-24069D01*
X60134D01*
X60094Y-24052D01*
X59458Y-23628D01*
X58600Y-23457D01*
X57742Y-23628D01*
X57014Y-24114D01*
D01*
X56586Y-24214D01*
X55858Y-23728D01*
X55000Y-23557D01*
X54142Y-23728D01*
X53414Y-24214D01*
X52928Y-24942D01*
X52757Y-25800D01*
X52928Y-26658D01*
X53414Y-27386D01*
X54142Y-27872D01*
X54891Y-28021D01*
X54931Y-28038D01*
X56046Y-29153D01*
X56576Y-29507D01*
X57200Y-29631D01*
X97785D01*
X104392Y-36238D01*
X104200Y-36700D01*
X64064D01*
X63903Y-36227D01*
X64426Y-35826D01*
X64859Y-35262D01*
X65131Y-34605D01*
X65223Y-33900D01*
X65131Y-33195D01*
X64859Y-32538D01*
X64426Y-31974D01*
X63862Y-31542D01*
X63205Y-31269D01*
X62500Y-31177D01*
X61795Y-31269D01*
X61138Y-31542D01*
X60988Y-31657D01*
X50312D01*
X50162Y-31542D01*
X49505Y-31269D01*
X48800Y-31177D01*
X48095Y-31269D01*
X47438Y-31542D01*
X46874Y-31974D01*
X46442Y-32538D01*
X46169Y-33195D01*
X46077Y-33900D01*
X46169Y-34605D01*
X46442Y-35262D01*
X46874Y-35826D01*
X47397Y-36227D01*
X47236Y-36700D01*
X44902D01*
X44862Y-36683D01*
X44227Y-36259D01*
X43369Y-36088D01*
X42510Y-36259D01*
X41782Y-36745D01*
X41296Y-37473D01*
X41125Y-38331D01*
X41296Y-39190D01*
X41782Y-39918D01*
X42510Y-40404D01*
X43369Y-40575D01*
X44227Y-40404D01*
X44862Y-39979D01*
X44902Y-39963D01*
X49277D01*
X49468Y-40425D01*
X48946Y-40946D01*
X48593Y-41476D01*
X48469Y-42100D01*
Y-42366D01*
X48452Y-42406D01*
X48028Y-43042D01*
X47857Y-43900D01*
X48028Y-44758D01*
X48140Y-44926D01*
X47904Y-45367D01*
X36301D01*
X35638Y-45499D01*
X35075Y-45874D01*
X34583Y-46367D01*
X33866D01*
X33358Y-46028D01*
X32500Y-45857D01*
X31642Y-46028D01*
X30914Y-46514D01*
X30428Y-47242D01*
X30257Y-48100D01*
X30036Y-48369D01*
X29134D01*
X29094Y-48352D01*
X28458Y-47928D01*
X27600Y-47757D01*
X26742Y-47928D01*
X26014Y-48414D01*
X25528Y-49142D01*
X25357Y-50000D01*
X25528Y-50858D01*
X26014Y-51586D01*
X26742Y-52072D01*
X27600Y-52243D01*
X28458Y-52072D01*
X29094Y-51648D01*
X29134Y-51631D01*
X58300D01*
X58924Y-51507D01*
X59453Y-51153D01*
X63554Y-47054D01*
X63907Y-46524D01*
X64031Y-45900D01*
X64031Y-45900D01*
Y-45034D01*
X64048Y-44994D01*
X64472Y-44358D01*
X64643Y-43500D01*
X64472Y-42642D01*
X63986Y-41914D01*
X64093Y-41563D01*
X127456D01*
X145346Y-59453D01*
X145876Y-59807D01*
X146500Y-59931D01*
X148113D01*
Y-59947D01*
X148228Y-59931D01*
X148230D01*
X148947Y-60074D01*
X149604Y-60513D01*
X149640Y-60560D01*
X149637Y-60563D01*
X149637D01*
X149637D01*
X149637Y-60563D01*
Y-60563D01*
Y-60563D01*
D01*
X149637Y-60563D01*
X149665Y-60808D01*
X149640Y-61040D01*
X149132Y-61702D01*
X148813Y-62473D01*
X148770Y-62800D01*
X155030D01*
X154987Y-62473D01*
X154668Y-61702D01*
X154160Y-61040D01*
Y-60560D01*
X154668Y-59898D01*
X154987Y-59127D01*
X155096Y-58300D01*
X154987Y-57473D01*
X154668Y-56702D01*
X154160Y-56040D01*
Y-55560D01*
X154668Y-54898D01*
X154987Y-54127D01*
X155096Y-53300D01*
X154987Y-52473D01*
X154668Y-51702D01*
X154160Y-51040D01*
X153498Y-50532D01*
X152727Y-50213D01*
X151900Y-50104D01*
X151073Y-50213D01*
X150302Y-50532D01*
X149640Y-51040D01*
X149132Y-51702D01*
X148813Y-52473D01*
X148704Y-53300D01*
X148813Y-54127D01*
X149132Y-54898D01*
X149640Y-55560D01*
X149688Y-55597D01*
X149688Y-55597D01*
X149637Y-56037D01*
X149637D01*
D01*
D01*
X149637Y-56037D01*
X149640Y-56040D01*
X149604Y-56087D01*
X148947Y-56526D01*
X148230Y-56669D01*
X148228D01*
X148113Y-56653D01*
Y-56669D01*
X147176D01*
X130932Y-40425D01*
X131123Y-39963D01*
X132756D01*
X141699Y-48906D01*
X141716Y-48946D01*
X141865Y-49695D01*
X142351Y-50423D01*
X143079Y-50909D01*
X143937Y-51080D01*
X144795Y-50909D01*
X145523Y-50423D01*
X146009Y-49695D01*
X146180Y-48837D01*
X146009Y-47979D01*
X145523Y-47251D01*
X144795Y-46765D01*
X144046Y-46616D01*
X144006Y-46599D01*
X134585Y-37178D01*
X134644Y-36984D01*
X136177D01*
X141962Y-42769D01*
X141979Y-42809D01*
X142128Y-43558D01*
X142614Y-44286D01*
X143342Y-44772D01*
X144200Y-44943D01*
X145058Y-44772D01*
X145786Y-44286D01*
X146272Y-43558D01*
X146443Y-42700D01*
X146272Y-41842D01*
X145786Y-41114D01*
X145058Y-40628D01*
X144309Y-40479D01*
X144269Y-40462D01*
X141069Y-37262D01*
X141260Y-36800D01*
X155747D01*
Y-108503D01*
X103983D01*
Y-108073D01*
X103983D01*
Y-106933D01*
X109100D01*
X109763Y-106801D01*
X110326Y-106426D01*
X110675Y-106076D01*
X111273Y-105957D01*
X112001Y-105471D01*
X112487Y-104743D01*
X112658Y-103885D01*
X112487Y-103027D01*
X112001Y-102299D01*
X111273Y-101813D01*
X110415Y-101642D01*
X109557Y-101813D01*
X108829Y-102299D01*
X108343Y-103027D01*
X108255Y-103467D01*
X103983D01*
Y-102327D01*
X98828D01*
Y-108073D01*
X98827D01*
Y-108149D01*
X98474Y-108503D01*
X98078D01*
Y-108073D01*
X98078D01*
Y-102327D01*
X92922D01*
Y-103467D01*
X91066D01*
X90558Y-103128D01*
X89700Y-102957D01*
X88842Y-103128D01*
X88114Y-103614D01*
X87628Y-104342D01*
X87457Y-105200D01*
X87628Y-106058D01*
X88114Y-106786D01*
X88842Y-107272D01*
X89700Y-107443D01*
X90558Y-107272D01*
X91066Y-106933D01*
X92922D01*
Y-108073D01*
X92922D01*
Y-108149D01*
X92568Y-108503D01*
X1733D01*
Y-59743D01*
X8645D01*
X8742Y-60233D01*
X8409Y-60371D01*
X7336Y-61194D01*
X6513Y-62268D01*
X5995Y-63517D01*
X5884Y-64358D01*
X16116D01*
X16005Y-63517D01*
X15487Y-62268D01*
X14664Y-61194D01*
X13591Y-60371D01*
X12341Y-59854D01*
X12348Y-59743D01*
X20800D01*
Y-1733D01*
X27190D01*
X27411Y-2182D01*
D02*
G37*
G36*
X137600Y-14200D02*
Y-14528D01*
X137428Y-14700D01*
X128900D01*
Y-18767D01*
X118521D01*
Y-18763D01*
X118485Y-18767D01*
X118375D01*
X117432Y-18643D01*
X116753Y-18361D01*
Y-16347D01*
X108447D01*
Y-18187D01*
X108094Y-18257D01*
X93612D01*
X93462Y-18142D01*
X92805Y-17869D01*
X92617Y-17845D01*
X90986Y-16214D01*
X90258Y-15728D01*
X89400Y-15557D01*
X79112D01*
X78962Y-15442D01*
X78305Y-15169D01*
X77600Y-15077D01*
X76895Y-15169D01*
X76238Y-15442D01*
X75674Y-15874D01*
X75572Y-16008D01*
X75072Y-15992D01*
X74886Y-15714D01*
X74158Y-15228D01*
X73300Y-15057D01*
X72442Y-15228D01*
X71806Y-15652D01*
X71766Y-15669D01*
X39476D01*
X37404Y-13597D01*
Y-11600D01*
D01*
X37409Y-11600D01*
X37409D01*
X37491Y-11462D01*
D01*
D01*
X37491Y-11462D01*
X37491Y-11462D01*
X37467Y-11427D01*
X37507Y-11396D01*
X37707Y-11262D01*
X37734Y-11221D01*
X37892Y-11101D01*
X38368Y-10480D01*
X38475Y-10221D01*
X38975D01*
X39082Y-10480D01*
X39559Y-11101D01*
X40179Y-11577D01*
X40902Y-11876D01*
X41678Y-11978D01*
X42454Y-11876D01*
X43177Y-11577D01*
X43797Y-11101D01*
X44274Y-10480D01*
X44381Y-10221D01*
X44881D01*
X44988Y-10480D01*
X45464Y-11101D01*
X46085Y-11577D01*
X46808Y-11876D01*
X47583Y-11978D01*
X48359Y-11876D01*
X49082Y-11577D01*
X49703Y-11101D01*
X50179Y-10480D01*
X50286Y-10221D01*
X50786D01*
X50893Y-10480D01*
X51370Y-11101D01*
X51990Y-11577D01*
X52713Y-11876D01*
X53489Y-11978D01*
X54265Y-11876D01*
X54988Y-11577D01*
X55608Y-11101D01*
X56085Y-10480D01*
X56192Y-10221D01*
X56692D01*
X56799Y-10480D01*
X57275Y-11101D01*
X57896Y-11577D01*
X58619Y-11876D01*
X59395Y-11978D01*
X60170Y-11876D01*
X60893Y-11577D01*
X61514Y-11101D01*
X61990Y-10480D01*
X62097Y-10221D01*
X62597D01*
X62704Y-10480D01*
X63181Y-11101D01*
X63801Y-11577D01*
X64524Y-11876D01*
X65300Y-11978D01*
X66076Y-11876D01*
X66799Y-11577D01*
X67419Y-11101D01*
X67896Y-10480D01*
X68003Y-10221D01*
X68503D01*
X68610Y-10480D01*
X69086Y-11101D01*
X69707Y-11577D01*
X70430Y-11876D01*
X71206Y-11978D01*
X71981Y-11876D01*
X72704Y-11577D01*
X73325Y-11101D01*
X73801Y-10480D01*
X73908Y-10221D01*
X74408D01*
X74515Y-10480D01*
X74992Y-11101D01*
X75612Y-11577D01*
X76335Y-11876D01*
X77111Y-11978D01*
X77887Y-11876D01*
X78610Y-11577D01*
X79230Y-11101D01*
X79707Y-10480D01*
X79814Y-10221D01*
X80314D01*
X80421Y-10480D01*
X80897Y-11101D01*
X81518Y-11577D01*
X82241Y-11876D01*
X83017Y-11978D01*
X83792Y-11876D01*
X84515Y-11577D01*
X85136Y-11101D01*
X85612Y-10480D01*
X85719Y-10221D01*
X86219D01*
X86326Y-10480D01*
X86803Y-11101D01*
X87423Y-11577D01*
X88146Y-11876D01*
X88922Y-11978D01*
X89698Y-11876D01*
X90421Y-11577D01*
X91041Y-11101D01*
X91518Y-10480D01*
X91625Y-10221D01*
X92125D01*
X92232Y-10480D01*
X92549Y-10893D01*
X92585Y-10946D01*
Y-11206D01*
X92755Y-12064D01*
X93241Y-12792D01*
X93241Y-12792D01*
X93242Y-12792D01*
X96018Y-15568D01*
X96023Y-15574D01*
X96023Y-15574D01*
X96024Y-15574D01*
X97136Y-16686D01*
X97136Y-16686D01*
X97136D01*
X97136Y-16686D01*
X97136D01*
X97136Y-16686D01*
Y-16686D01*
Y-16686D01*
D01*
D01*
X97136D01*
Y-16686D01*
X97864Y-17172D01*
X98722Y-17343D01*
X105378D01*
X106236Y-17172D01*
X106964Y-16686D01*
X106964Y-16686D01*
X106964Y-16686D01*
X108329Y-15321D01*
X110210D01*
X110360Y-15436D01*
X111017Y-15708D01*
X111722Y-15801D01*
X112427Y-15708D01*
X113084Y-15436D01*
X113156Y-15381D01*
X113582Y-15381D01*
Y-15381D01*
X119400D01*
Y-12999D01*
X119899D01*
Y-12500D01*
X122281D01*
Y-10953D01*
X126753D01*
Y-2647D01*
X118447D01*
Y-10619D01*
X113582D01*
Y-10757D01*
X113133D01*
X113084Y-10719D01*
X112427Y-10447D01*
X111722Y-10355D01*
X111017Y-10447D01*
X110360Y-10719D01*
X110210Y-10835D01*
X107400D01*
X106542Y-11006D01*
X105814Y-11492D01*
X104449Y-12857D01*
X99651D01*
X99019Y-12224D01*
X98667Y-11767D01*
X99021Y-11413D01*
X99234Y-11577D01*
X99957Y-11876D01*
X100233Y-11913D01*
Y-6421D01*
X100732D01*
Y-5922D01*
X103730D01*
Y-3863D01*
X103628Y-3087D01*
X103329Y-2364D01*
X102852Y-1744D01*
X102856Y-1733D01*
X137600D01*
Y-14200D01*
D02*
G37*
%LPC*%
G36*
X138606Y-98437D02*
X136725D01*
Y-100318D01*
X138606D01*
Y-98437D01*
D02*
G37*
G36*
X150408Y-97551D02*
X150029Y-97601D01*
X149211Y-97940D01*
X148508Y-98479D01*
X147968Y-99182D01*
X147629Y-100001D01*
X147513Y-100880D01*
Y-101561D01*
X150408D01*
Y-97551D01*
D02*
G37*
G36*
X151408D02*
Y-101561D01*
X154302D01*
Y-100880D01*
X154187Y-100001D01*
X153848Y-99182D01*
X153308Y-98479D01*
X152605Y-97940D01*
X151786Y-97601D01*
X151408Y-97551D01*
D02*
G37*
G36*
X130825Y-98537D02*
X128944D01*
Y-100418D01*
X130825D01*
Y-98537D01*
D02*
G37*
G36*
X116392Y-87600D02*
X113498D01*
Y-88281D01*
X113613Y-89160D01*
X113953Y-89978D01*
X114492Y-90681D01*
X115195Y-91221D01*
X116014Y-91560D01*
X116392Y-91610D01*
Y-87600D01*
D02*
G37*
G36*
X120287D02*
X117392D01*
Y-91610D01*
X117771Y-91560D01*
X118589Y-91221D01*
X119292Y-90681D01*
X119832Y-89978D01*
X120171Y-89160D01*
X120287Y-88281D01*
Y-87600D01*
D02*
G37*
G36*
X150408D02*
X147513D01*
Y-88281D01*
X147629Y-89160D01*
X147968Y-89978D01*
X148508Y-90681D01*
X149211Y-91221D01*
X150029Y-91560D01*
X150408Y-91610D01*
Y-87600D01*
D02*
G37*
G36*
X58437Y-85063D02*
X48163D01*
Y-95337D01*
X58437D01*
Y-92426D01*
X58454Y-92413D01*
X59345Y-92044D01*
X59652Y-92004D01*
X61767Y-94118D01*
Y-99955D01*
X61755Y-99955D01*
Y-99955D01*
X61425Y-100331D01*
X60331D01*
Y-106668D01*
X66668D01*
Y-106653D01*
X67084Y-106376D01*
X67594Y-106587D01*
X67921Y-106630D01*
Y-103501D01*
Y-100370D01*
X67594Y-100413D01*
X67084Y-100624D01*
X66668Y-100347D01*
Y-100331D01*
X65575D01*
X65245Y-99955D01*
Y-99955D01*
X65233Y-99955D01*
Y-93400D01*
X65101Y-92737D01*
X64726Y-92174D01*
X61526Y-88974D01*
X60963Y-88599D01*
X60300Y-88467D01*
X60300D01*
Y-88466D01*
X60289Y-88467D01*
X60187D01*
X59345Y-88356D01*
X58454Y-87987D01*
X58437Y-87974D01*
Y-85063D01*
D02*
G37*
G36*
X110415Y-94657D02*
X109557Y-94828D01*
X108829Y-95314D01*
X108343Y-96042D01*
X108172Y-96900D01*
X108343Y-97758D01*
X108829Y-98486D01*
X109557Y-98972D01*
X110415Y-99143D01*
X111273Y-98972D01*
X112001Y-98486D01*
X112487Y-97758D01*
X112658Y-96900D01*
X112487Y-96042D01*
X112001Y-95314D01*
X111273Y-94828D01*
X110415Y-94657D01*
D02*
G37*
G36*
X100800Y-84057D02*
X99942Y-84228D01*
X99214Y-84714D01*
X98728Y-85442D01*
X98609Y-86040D01*
X97974Y-86674D01*
X97599Y-87237D01*
X97467Y-87900D01*
Y-92234D01*
X97128Y-92742D01*
X96957Y-93600D01*
X97128Y-94458D01*
X97614Y-95186D01*
X98342Y-95672D01*
X99200Y-95843D01*
X100058Y-95672D01*
X100786Y-95186D01*
X101272Y-94458D01*
X101443Y-93600D01*
X101272Y-92742D01*
X100933Y-92234D01*
Y-88618D01*
X101060Y-88491D01*
X101658Y-88372D01*
X102386Y-87886D01*
X102872Y-87158D01*
X103043Y-86300D01*
X102872Y-85442D01*
X102386Y-84714D01*
X101658Y-84228D01*
X100800Y-84057D01*
D02*
G37*
G36*
X150408Y-102561D02*
X147513D01*
Y-103242D01*
X147629Y-104120D01*
X147968Y-104939D01*
X148508Y-105642D01*
X149211Y-106181D01*
X150029Y-106520D01*
X150408Y-106570D01*
Y-102561D01*
D02*
G37*
G36*
X154302D02*
X151408D01*
Y-106570D01*
X151786Y-106520D01*
X152605Y-106181D01*
X153308Y-105642D01*
X153848Y-104939D01*
X154187Y-104120D01*
X154302Y-103242D01*
Y-102561D01*
D02*
G37*
G36*
X120287D02*
X117392D01*
Y-106570D01*
X117771Y-106520D01*
X118589Y-106181D01*
X119292Y-105642D01*
X119832Y-104939D01*
X120171Y-104120D01*
X120287Y-103242D01*
Y-102561D01*
D02*
G37*
G36*
X71551Y-104000D02*
X68921D01*
Y-106630D01*
X69248Y-106587D01*
X70019Y-106268D01*
X70681Y-105760D01*
X71189Y-105098D01*
X71508Y-104327D01*
X71551Y-104000D01*
D02*
G37*
G36*
X116392Y-102561D02*
X113498D01*
Y-103242D01*
X113613Y-104120D01*
X113953Y-104939D01*
X114492Y-105642D01*
X115195Y-106181D01*
X116014Y-106520D01*
X116392Y-106570D01*
Y-102561D01*
D02*
G37*
G36*
Y-97551D02*
X116014Y-97601D01*
X115195Y-97940D01*
X114492Y-98479D01*
X113953Y-99182D01*
X113613Y-100001D01*
X113498Y-100880D01*
Y-101561D01*
X116392D01*
Y-97551D01*
D02*
G37*
G36*
X117392D02*
Y-101561D01*
X120287D01*
Y-100880D01*
X120171Y-100001D01*
X119832Y-99182D01*
X119292Y-98479D01*
X118589Y-97940D01*
X117771Y-97601D01*
X117392Y-97551D01*
D02*
G37*
G36*
X16116Y-97642D02*
X11500D01*
Y-102257D01*
X12341Y-102146D01*
X13591Y-101629D01*
X14664Y-100805D01*
X15487Y-99732D01*
X16005Y-98483D01*
X16116Y-97642D01*
D02*
G37*
G36*
X68921Y-100370D02*
Y-103000D01*
X71551D01*
X71508Y-102673D01*
X71189Y-101902D01*
X70681Y-101240D01*
X70019Y-100732D01*
X69248Y-100413D01*
X68921Y-100370D01*
D02*
G37*
G36*
X10500Y-97642D02*
X5884D01*
X5995Y-98483D01*
X6513Y-99732D01*
X7336Y-100805D01*
X8409Y-101629D01*
X9659Y-102146D01*
X10500Y-102257D01*
Y-97642D01*
D02*
G37*
G36*
X154302Y-87600D02*
X151408D01*
Y-91610D01*
X151786Y-91560D01*
X152605Y-91221D01*
X153308Y-90681D01*
X153848Y-89978D01*
X154187Y-89160D01*
X154302Y-88281D01*
Y-87600D01*
D02*
G37*
G36*
X100733Y-53622D02*
X99957Y-53724D01*
X99234Y-54023D01*
X98614Y-54500D01*
X98137Y-55120D01*
X98030Y-55379D01*
X97530D01*
X97423Y-55120D01*
X96947Y-54500D01*
X96326Y-54023D01*
X95603Y-53724D01*
X94828Y-53622D01*
X94052Y-53724D01*
X93329Y-54023D01*
X92708Y-54500D01*
X92232Y-55120D01*
X92125Y-55379D01*
X91625D01*
X91518Y-55120D01*
X91041Y-54500D01*
X90421Y-54023D01*
X89698Y-53724D01*
X88922Y-53622D01*
X88146Y-53724D01*
X87423Y-54023D01*
X86803Y-54500D01*
X86326Y-55120D01*
X86219Y-55379D01*
X85719D01*
X85612Y-55120D01*
X85136Y-54500D01*
X84515Y-54023D01*
X83792Y-53724D01*
X83017Y-53622D01*
X82241Y-53724D01*
X81518Y-54023D01*
X80897Y-54500D01*
X80421Y-55120D01*
X80314Y-55379D01*
X79814D01*
X79707Y-55120D01*
X79230Y-54500D01*
X78610Y-54023D01*
X77887Y-53724D01*
X77111Y-53622D01*
X76335Y-53724D01*
X75612Y-54023D01*
X74992Y-54500D01*
X74515Y-55120D01*
X74408Y-55379D01*
X73908D01*
X73801Y-55120D01*
X73325Y-54500D01*
X72704Y-54023D01*
X71981Y-53724D01*
X71206Y-53622D01*
X70430Y-53724D01*
X69707Y-54023D01*
X69086Y-54500D01*
X68610Y-55120D01*
X68503Y-55379D01*
X68003D01*
X67896Y-55120D01*
X67419Y-54500D01*
X66799Y-54023D01*
X66076Y-53724D01*
X65300Y-53622D01*
X64524Y-53724D01*
X63801Y-54023D01*
X63181Y-54500D01*
X62704Y-55120D01*
X62597Y-55379D01*
X62097D01*
X61990Y-55120D01*
X61514Y-54500D01*
X60893Y-54023D01*
X60170Y-53724D01*
X59395Y-53622D01*
X58619Y-53724D01*
X57896Y-54023D01*
X57275Y-54500D01*
X56799Y-55120D01*
X56692Y-55379D01*
X56192D01*
X56085Y-55120D01*
X55608Y-54500D01*
X54988Y-54023D01*
X54265Y-53724D01*
X53489Y-53622D01*
X52713Y-53724D01*
X51990Y-54023D01*
X51370Y-54500D01*
X50893Y-55120D01*
X50786Y-55379D01*
X50286D01*
X50179Y-55120D01*
X49703Y-54500D01*
X49082Y-54023D01*
X48359Y-53724D01*
X47583Y-53622D01*
X46808Y-53724D01*
X46085Y-54023D01*
X45464Y-54500D01*
X44988Y-55120D01*
X44881Y-55379D01*
X44381D01*
X44274Y-55120D01*
X43797Y-54500D01*
X43177Y-54023D01*
X42454Y-53724D01*
X41678Y-53622D01*
X40902Y-53724D01*
X40179Y-54023D01*
X39559Y-54500D01*
X39082Y-55120D01*
X38975Y-55379D01*
X38475D01*
X38368Y-55120D01*
X37892Y-54500D01*
X37271Y-54023D01*
X36548Y-53724D01*
X35772Y-53622D01*
X34997Y-53724D01*
X34274Y-54023D01*
X33653Y-54500D01*
X33177Y-55120D01*
X33070Y-55379D01*
X32570D01*
X32463Y-55120D01*
X31986Y-54500D01*
X31366Y-54023D01*
X30643Y-53724D01*
X29867Y-53622D01*
X29091Y-53724D01*
X28368Y-54023D01*
X27747Y-54500D01*
X27271Y-55120D01*
X26972Y-55843D01*
X26870Y-56619D01*
Y-61737D01*
X26972Y-62513D01*
X27271Y-63236D01*
X27747Y-63856D01*
X28368Y-64333D01*
X29091Y-64632D01*
X29867Y-64734D01*
X30643Y-64632D01*
X31366Y-64333D01*
X31986Y-63856D01*
X32463Y-63236D01*
X32570Y-62977D01*
X33070D01*
X33177Y-63236D01*
X33653Y-63856D01*
X34274Y-64333D01*
X34997Y-64632D01*
X35772Y-64734D01*
X36548Y-64632D01*
X37271Y-64333D01*
X37892Y-63856D01*
X38368Y-63236D01*
X38475Y-62977D01*
X38975D01*
X39082Y-63236D01*
X39559Y-63856D01*
X40179Y-64333D01*
X40902Y-64632D01*
X41678Y-64734D01*
X42454Y-64632D01*
X43177Y-64333D01*
X43797Y-63856D01*
X44274Y-63236D01*
X44381Y-62977D01*
X44881D01*
X44988Y-63236D01*
X45464Y-63856D01*
X46085Y-64333D01*
X46808Y-64632D01*
X47583Y-64734D01*
X48359Y-64632D01*
X49082Y-64333D01*
X49703Y-63856D01*
X50179Y-63236D01*
X50286Y-62977D01*
X50786D01*
X50893Y-63236D01*
X51370Y-63856D01*
X51990Y-64333D01*
X52713Y-64632D01*
X53489Y-64734D01*
X54265Y-64632D01*
X54988Y-64333D01*
X55608Y-63856D01*
X56085Y-63236D01*
X56192Y-62977D01*
X56692D01*
X56799Y-63236D01*
X57275Y-63856D01*
X57896Y-64333D01*
X58619Y-64632D01*
X59395Y-64734D01*
X60170Y-64632D01*
X60893Y-64333D01*
X61514Y-63856D01*
X61990Y-63236D01*
X62097Y-62977D01*
X62597D01*
X62704Y-63236D01*
X63181Y-63856D01*
X63801Y-64333D01*
X64524Y-64632D01*
X65300Y-64734D01*
X66076Y-64632D01*
X66799Y-64333D01*
X67419Y-63856D01*
X67896Y-63236D01*
X68003Y-62977D01*
X68503D01*
X68610Y-63236D01*
X69086Y-63856D01*
X69707Y-64333D01*
X70430Y-64632D01*
X71206Y-64734D01*
X71981Y-64632D01*
X72704Y-64333D01*
X73325Y-63856D01*
X73801Y-63236D01*
X73908Y-62977D01*
X74408D01*
X74515Y-63236D01*
X74992Y-63856D01*
X75612Y-64333D01*
X76335Y-64632D01*
X77111Y-64734D01*
X77887Y-64632D01*
X78610Y-64333D01*
X79230Y-63856D01*
X79707Y-63236D01*
X79814Y-62977D01*
X80314D01*
X80421Y-63236D01*
X80897Y-63856D01*
X81518Y-64333D01*
X82241Y-64632D01*
X83017Y-64734D01*
X83792Y-64632D01*
X84515Y-64333D01*
X85136Y-63856D01*
X85612Y-63236D01*
X85719Y-62977D01*
X86219D01*
X86326Y-63236D01*
X86803Y-63856D01*
X87423Y-64333D01*
X88146Y-64632D01*
X88922Y-64734D01*
X89698Y-64632D01*
X90421Y-64333D01*
X91041Y-63856D01*
X91518Y-63236D01*
X91625Y-62977D01*
X92125D01*
X92232Y-63236D01*
X92708Y-63856D01*
X93329Y-64333D01*
X94052Y-64632D01*
X94828Y-64734D01*
X95603Y-64632D01*
X96326Y-64333D01*
X96947Y-63856D01*
X97423Y-63236D01*
X97530Y-62977D01*
X98030D01*
X98137Y-63236D01*
X98614Y-63856D01*
X99234Y-64333D01*
X99957Y-64632D01*
X100733Y-64734D01*
X101509Y-64632D01*
X102232Y-64333D01*
X102852Y-63856D01*
X103329Y-63236D01*
X103628Y-62513D01*
X103730Y-61737D01*
Y-56619D01*
X103628Y-55843D01*
X103329Y-55120D01*
X102852Y-54500D01*
X102232Y-54023D01*
X101509Y-53724D01*
X100733Y-53622D01*
D02*
G37*
G36*
X122281Y-13500D02*
X120400D01*
Y-15381D01*
X122281D01*
Y-13500D01*
D02*
G37*
G36*
X121800Y-42293D02*
X119828Y-42487D01*
X117932Y-43062D01*
X116185Y-43996D01*
X114653Y-45253D01*
X113396Y-46785D01*
X112462Y-48532D01*
X111887Y-50428D01*
X111693Y-52400D01*
X111887Y-54372D01*
X112462Y-56268D01*
X113396Y-58015D01*
X114653Y-59547D01*
X116185Y-60804D01*
X117932Y-61738D01*
X119828Y-62313D01*
X121800Y-62507D01*
X123772Y-62313D01*
X125668Y-61738D01*
X127415Y-60804D01*
X128947Y-59547D01*
X130204Y-58015D01*
X131138Y-56268D01*
X131713Y-54372D01*
X131907Y-52400D01*
X131713Y-50428D01*
X131138Y-48532D01*
X130204Y-46785D01*
X128947Y-45253D01*
X127415Y-43996D01*
X125668Y-43062D01*
X123772Y-42487D01*
X121800Y-42293D01*
D02*
G37*
G36*
X126800Y-62651D02*
X125942Y-62822D01*
X125214Y-63308D01*
X124728Y-64036D01*
X124557Y-64894D01*
X124728Y-65753D01*
X125214Y-66481D01*
X125942Y-66967D01*
X126800Y-67138D01*
X127658Y-66967D01*
X128386Y-66481D01*
X128872Y-65753D01*
X129043Y-64894D01*
X128872Y-64036D01*
X128386Y-63308D01*
X127658Y-62822D01*
X126800Y-62651D01*
D02*
G37*
G36*
X140500Y-62457D02*
X139642Y-62628D01*
X138914Y-63114D01*
X138428Y-63842D01*
X138257Y-64700D01*
X138428Y-65558D01*
X138914Y-66286D01*
X139642Y-66772D01*
X140500Y-66943D01*
X141358Y-66772D01*
X142086Y-66286D01*
X142572Y-65558D01*
X142743Y-64700D01*
X142572Y-63842D01*
X142086Y-63114D01*
X141358Y-62628D01*
X140500Y-62457D01*
D02*
G37*
G36*
X132100Y-2677D02*
X131516Y-2754D01*
X130506Y-3173D01*
X129638Y-3838D01*
X128973Y-4706D01*
X128554Y-5716D01*
X128477Y-6300D01*
X132100D01*
Y-2677D01*
D02*
G37*
G36*
X133100D02*
Y-6300D01*
X136723D01*
X136646Y-5716D01*
X136227Y-4706D01*
X135562Y-3838D01*
X134694Y-3173D01*
X133684Y-2754D01*
X133100Y-2677D01*
D02*
G37*
G36*
X136723Y-7300D02*
X133100D01*
Y-10923D01*
X133684Y-10846D01*
X134694Y-10427D01*
X135562Y-9762D01*
X136227Y-8894D01*
X136646Y-7884D01*
X136723Y-7300D01*
D02*
G37*
G36*
X103730Y-6922D02*
X101233D01*
Y-11913D01*
X101509Y-11876D01*
X102232Y-11577D01*
X102852Y-11101D01*
X103329Y-10480D01*
X103628Y-9757D01*
X103730Y-8981D01*
Y-6922D01*
D02*
G37*
G36*
X132100Y-7300D02*
X128477D01*
X128554Y-7884D01*
X128973Y-8894D01*
X129638Y-9762D01*
X130506Y-10427D01*
X131516Y-10846D01*
X132100Y-10923D01*
Y-7300D01*
D02*
G37*
G36*
X151408Y-82590D02*
Y-86600D01*
X154302D01*
Y-85919D01*
X154187Y-85040D01*
X153848Y-84222D01*
X153308Y-83519D01*
X152605Y-82979D01*
X151786Y-82640D01*
X151408Y-82590D01*
D02*
G37*
G36*
X58600Y-67157D02*
X57742Y-67328D01*
X57014Y-67814D01*
X56528Y-68542D01*
X56357Y-69400D01*
X56528Y-70258D01*
X56971Y-70922D01*
X56735Y-71363D01*
X48163D01*
Y-81637D01*
X58437D01*
Y-79063D01*
X59080Y-78719D01*
X60314Y-78345D01*
X61445Y-78233D01*
X61598Y-78248D01*
Y-78233D01*
X85818D01*
X88485Y-80901D01*
X88436Y-81398D01*
X88114Y-81614D01*
X87628Y-82342D01*
X87457Y-83200D01*
X87628Y-84058D01*
X88114Y-84786D01*
X88842Y-85272D01*
X89700Y-85443D01*
X90558Y-85272D01*
X91286Y-84786D01*
X91772Y-84058D01*
X91943Y-83200D01*
X92218Y-82865D01*
X98419D01*
Y-83513D01*
X103181D01*
Y-82865D01*
X114566D01*
X114727Y-83338D01*
X114492Y-83519D01*
X113953Y-84222D01*
X113613Y-85040D01*
X113498Y-85919D01*
Y-86600D01*
X120287D01*
Y-85919D01*
X120171Y-85040D01*
X119832Y-84222D01*
X119292Y-83519D01*
X118589Y-82979D01*
X118612Y-82865D01*
X125903D01*
X126410Y-83204D01*
X127269Y-83375D01*
X128127Y-83204D01*
X128855Y-82718D01*
X129341Y-81990D01*
X129512Y-81132D01*
X129341Y-80273D01*
X128855Y-79545D01*
X128127Y-79059D01*
X127269Y-78888D01*
X126410Y-79059D01*
X125903Y-79398D01*
X112722D01*
X112487Y-78958D01*
X112658Y-78100D01*
X112487Y-77242D01*
X112001Y-76514D01*
X111273Y-76028D01*
X110415Y-75857D01*
X109557Y-76028D01*
X108829Y-76514D01*
X108343Y-77242D01*
X108172Y-78100D01*
X108343Y-78958D01*
X108107Y-79398D01*
X103181D01*
Y-74813D01*
X98419D01*
Y-74860D01*
X98032Y-75177D01*
X97400Y-75051D01*
X96542Y-75222D01*
X95814Y-75708D01*
X95328Y-76436D01*
X95157Y-77294D01*
X95328Y-78153D01*
X95814Y-78881D01*
X95872Y-78920D01*
X95727Y-79398D01*
X91885D01*
X87761Y-75274D01*
X87199Y-74899D01*
X86536Y-74767D01*
X70305D01*
X69987Y-74380D01*
X70043Y-74100D01*
X69872Y-73242D01*
X69533Y-72734D01*
Y-70500D01*
X69401Y-69837D01*
X69026Y-69274D01*
X69026Y-69274D01*
X67926Y-68174D01*
X67363Y-67799D01*
X66700Y-67667D01*
X59966D01*
X59458Y-67328D01*
X58600Y-67157D01*
D02*
G37*
G36*
X150408Y-82590D02*
X150029Y-82640D01*
X149211Y-82979D01*
X148508Y-83519D01*
X147968Y-84222D01*
X147629Y-85040D01*
X147513Y-85919D01*
Y-86600D01*
X150408D01*
Y-82590D01*
D02*
G37*
G36*
X136300Y-88757D02*
X135442Y-88928D01*
X134714Y-89414D01*
X134228Y-90142D01*
X134057Y-91000D01*
X134106Y-91247D01*
X133905Y-91448D01*
X133816D01*
X133485Y-91292D01*
X133543Y-91000D01*
X133372Y-90142D01*
X132886Y-89414D01*
X132158Y-88928D01*
X131300Y-88757D01*
X130442Y-88928D01*
X129714Y-89414D01*
X129228Y-90142D01*
X129057Y-91000D01*
X129150Y-91468D01*
X128944Y-91719D01*
X128944D01*
Y-96481D01*
Y-97537D01*
X131326D01*
Y-98036D01*
X131825D01*
Y-100418D01*
X133706D01*
Y-100418D01*
X133806Y-100318D01*
X133844D01*
X134060Y-100318D01*
X134060Y-100318D01*
Y-100318D01*
X135725D01*
Y-97936D01*
X136224D01*
Y-97437D01*
X138606D01*
Y-96381D01*
Y-91619D01*
X138606D01*
X138456Y-91436D01*
X138543Y-91000D01*
X138372Y-90142D01*
X137886Y-89414D01*
X137158Y-88928D01*
X136300Y-88757D01*
D02*
G37*
G36*
X110415Y-84457D02*
X109557Y-84628D01*
X108829Y-85114D01*
X108343Y-85842D01*
X108172Y-86700D01*
X108343Y-87558D01*
X108829Y-88286D01*
X109557Y-88772D01*
X110415Y-88943D01*
X111273Y-88772D01*
X112001Y-88286D01*
X112487Y-87558D01*
X112658Y-86700D01*
X112487Y-85842D01*
X112001Y-85114D01*
X111273Y-84628D01*
X110415Y-84457D01*
D02*
G37*
G36*
X16116Y-65358D02*
X5884D01*
X5995Y-66199D01*
X6513Y-67449D01*
X7336Y-68522D01*
X8277Y-69244D01*
Y-69981D01*
X8038Y-70164D01*
X7373Y-71032D01*
X6954Y-72042D01*
X6877Y-72626D01*
X15123D01*
X15046Y-72042D01*
X14627Y-71032D01*
X13962Y-70164D01*
X13723Y-69981D01*
Y-69244D01*
X14664Y-68522D01*
X15487Y-67449D01*
X16005Y-66199D01*
X16116Y-65358D01*
D02*
G37*
G36*
X155030Y-63800D02*
X148770D01*
X148813Y-64127D01*
X149057Y-64716D01*
X148779Y-65131D01*
X148732D01*
Y-71469D01*
X155069D01*
Y-65131D01*
X155021D01*
X154743Y-64716D01*
X154987Y-64127D01*
X155030Y-63800D01*
D02*
G37*
G36*
X134700Y-62557D02*
X133842Y-62728D01*
X133114Y-63214D01*
X132628Y-63942D01*
X132457Y-64800D01*
X132628Y-65658D01*
X133114Y-66386D01*
X133709Y-66783D01*
Y-67283D01*
X133214Y-67614D01*
X132728Y-68342D01*
X132557Y-69200D01*
X132728Y-70058D01*
X133214Y-70786D01*
X133559Y-71017D01*
Y-71517D01*
X133414Y-71614D01*
X132928Y-72342D01*
X132757Y-73200D01*
X132928Y-74058D01*
X133414Y-74786D01*
X133456Y-74814D01*
X133553Y-75305D01*
X133128Y-75942D01*
X132957Y-76800D01*
X133128Y-77658D01*
X133614Y-78386D01*
X134342Y-78872D01*
X135200Y-79043D01*
X136058Y-78872D01*
X136786Y-78386D01*
X137272Y-77658D01*
X137443Y-76800D01*
X137272Y-75942D01*
X136786Y-75214D01*
X136586Y-75080D01*
Y-74786D01*
X137072Y-74058D01*
X137243Y-73200D01*
X137072Y-72342D01*
X136586Y-71614D01*
X136241Y-71383D01*
Y-70883D01*
X136386Y-70786D01*
X136872Y-70058D01*
X137043Y-69200D01*
X136872Y-68342D01*
X136386Y-67614D01*
X135658Y-67128D01*
X135558Y-67108D01*
Y-66872D01*
X136286Y-66386D01*
X136772Y-65658D01*
X136943Y-64800D01*
X136772Y-63942D01*
X136286Y-63214D01*
X135558Y-62728D01*
X134700Y-62557D01*
D02*
G37*
G36*
X139884Y-77257D02*
X139026Y-77428D01*
X138298Y-77914D01*
X137812Y-78642D01*
X137641Y-79500D01*
X137812Y-80358D01*
X138298Y-81086D01*
X139026Y-81572D01*
X139884Y-81743D01*
X140743Y-81572D01*
X141470Y-81086D01*
X141957Y-80358D01*
X142127Y-79500D01*
X141957Y-78642D01*
X141470Y-77914D01*
X140743Y-77428D01*
X139884Y-77257D01*
D02*
G37*
G36*
X42363Y-68167D02*
X28200D01*
X27537Y-68299D01*
X26974Y-68674D01*
X16428Y-79221D01*
X15833Y-79143D01*
X14818Y-78722D01*
X14013Y-78105D01*
X13962Y-78038D01*
X13094Y-77373D01*
X12950Y-77313D01*
Y-76813D01*
X13094Y-76753D01*
X13962Y-76088D01*
X14627Y-75220D01*
X15046Y-74210D01*
X15123Y-73626D01*
X6877D01*
X6954Y-74210D01*
X7373Y-75220D01*
X8038Y-76088D01*
X8906Y-76753D01*
X9050Y-76813D01*
Y-77313D01*
X8906Y-77373D01*
X8038Y-78038D01*
X7373Y-78906D01*
X6954Y-79916D01*
X6811Y-81000D01*
X6954Y-82084D01*
X7373Y-83094D01*
X8038Y-83962D01*
X8906Y-84627D01*
X9050Y-84687D01*
Y-85187D01*
X8906Y-85247D01*
X8038Y-85912D01*
X7373Y-86780D01*
X6954Y-87790D01*
X6811Y-88874D01*
X6954Y-89958D01*
X7373Y-90968D01*
X8038Y-91836D01*
X8473Y-92169D01*
X8409Y-92655D01*
X7336Y-93478D01*
X6513Y-94551D01*
X5995Y-95801D01*
X5884Y-96642D01*
X16116D01*
X16005Y-95801D01*
X15487Y-94551D01*
X14664Y-93478D01*
X13591Y-92655D01*
X13527Y-92169D01*
X13962Y-91836D01*
X14019Y-91760D01*
X14887Y-91095D01*
X15985Y-90640D01*
X17009Y-90505D01*
X17100D01*
X17163Y-90512D01*
Y-90505D01*
X21082D01*
Y-91306D01*
X29781D01*
Y-90557D01*
X32415D01*
Y-95337D01*
X42689D01*
Y-85063D01*
X32415D01*
Y-87294D01*
X29781D01*
Y-86544D01*
X25094D01*
Y-84681D01*
X29781D01*
Y-79919D01*
X29342D01*
X29150Y-79457D01*
X30419Y-78188D01*
X31125Y-78281D01*
X32360Y-78792D01*
X32415Y-78834D01*
Y-81637D01*
X42689D01*
Y-80821D01*
X43130Y-80585D01*
X43505Y-80835D01*
X44363Y-81006D01*
X45221Y-80835D01*
X45949Y-80349D01*
X46435Y-79621D01*
X46606Y-78763D01*
X46435Y-77905D01*
X46096Y-77397D01*
Y-71900D01*
X45964Y-71237D01*
X45589Y-70674D01*
X43589Y-68674D01*
X43026Y-68299D01*
X42363Y-68167D01*
D02*
G37*
%LPD*%
D11*
X148113Y-58300D02*
G03*
X150791Y-57191I0J3787D01*
G01*
Y-59409D02*
G03*
X148113Y-58300I-2678J-2678D01*
G01*
X119767Y-30084D02*
G03*
X114405Y-32305I0J-7582D01*
G01*
X117835Y-30084D02*
G03*
X113839Y-31739I0J-5651D01*
G01*
X115904Y-30084D02*
G03*
X113274Y-31174I0J-3720D01*
G01*
X114405Y-28695D02*
G03*
X117759Y-30084I3354J3354D01*
G01*
X113839Y-29261D02*
G03*
X115828Y-30084I1988J1988D01*
G01*
X17163Y-88874D02*
G03*
X12805Y-90679I0J-6163D01*
G01*
X15232Y-88874D02*
G03*
X12239Y-90113I0J-4231D01*
G01*
X12805Y-87069D02*
G03*
X17163Y-88874I4358J4358D01*
G01*
X12239Y-87635D02*
G03*
X15232Y-88874I2992J2992D01*
G01*
X29867Y-12293D02*
G03*
X28897Y-9951I-3311J0D01*
G01*
X30837D02*
G03*
X29867Y-12293I2342J-2342D01*
G01*
X35772Y-11600D02*
G03*
X34991Y-10109I-1814J0D01*
G01*
X36553D02*
G03*
X35772Y-11600I1033J-1491D01*
G01*
X119262Y-30084D02*
G03*
X120595Y-29532I0J1886D01*
G01*
Y-30637D02*
G03*
X119262Y-30084I-1333J-1333D01*
G01*
Y-26147D02*
G03*
X120595Y-25595I0J1886D01*
G01*
Y-26700D02*
G03*
X119262Y-26147I-1333J-1333D01*
G01*
X23463Y-87040D02*
G03*
X24015Y-88373I1886J0D01*
G01*
X22911D02*
G03*
X23463Y-87040I-1333J1333D01*
G01*
X21701Y-88874D02*
G03*
X22911Y-88373I0J1711D01*
G01*
Y-89477D02*
G03*
X21454Y-88874I-1457J-1457D01*
G01*
X29286Y-88925D02*
G03*
X27952Y-89477I0J-1886D01*
G01*
Y-88373D02*
G03*
X29286Y-88925I1333J1333D01*
G01*
X29800Y-76500D02*
G03*
X34880Y-74182I0J6725D01*
G01*
X31554Y-76500D02*
G03*
X35485Y-74706I0J5204D01*
G01*
X33307Y-76500D02*
G03*
X36089Y-75231I0J3683D01*
G01*
X34880Y-78818D02*
G03*
X29800Y-76500I-5080J-4408D01*
G01*
X35485Y-78294D02*
G03*
X31554Y-76500I-3931J-3411D01*
G01*
X36089Y-77769D02*
G03*
X33307Y-76500I-2782J-2414D01*
G01*
X23463Y-84186D02*
G03*
X22911Y-82852I-1886J0D01*
G01*
X24015D02*
G03*
X23463Y-84186I1333J-1333D01*
G01*
X27400Y-80414D02*
G03*
X27952Y-81748I1886J0D01*
G01*
X26848D02*
G03*
X27400Y-80414I-1333J1333D01*
G01*
X142913Y-47813D02*
G03*
X143937Y-48237I1024J1024D01*
G01*
X143337Y-48837D02*
G03*
X142913Y-47813I-1448J0D01*
G01*
X50100Y-42452D02*
G03*
X50524Y-43476I1448J0D01*
G01*
X49676D02*
G03*
X50100Y-42452I-1024J1024D01*
G01*
X44817Y-38331D02*
G03*
X43793Y-38756I0J-1448D01*
G01*
Y-37907D02*
G03*
X44817Y-38331I1024J1024D01*
G01*
X143176Y-41676D02*
G03*
X144200Y-42100I1024J1024D01*
G01*
X143600Y-42700D02*
G03*
X143176Y-41676I-1448J0D01*
G01*
X56024Y-26824D02*
G03*
X55000Y-26400I-1024J-1024D01*
G01*
X55600Y-25800D02*
G03*
X56024Y-26824I1448J0D01*
G01*
X60049Y-25700D02*
G03*
X59024Y-26124I0J-1448D01*
G01*
Y-25276D02*
G03*
X60049Y-25700I1024J1024D01*
G01*
X62400Y-44949D02*
G03*
X61976Y-43924I-1448J0D01*
G01*
X62824D02*
G03*
X62400Y-44949I1024J-1024D01*
G01*
X29048Y-50000D02*
G03*
X28024Y-50424I0J-1448D01*
G01*
Y-49576D02*
G03*
X29048Y-50000I1024J1024D01*
G01*
X65355Y-20496D02*
G03*
X66380Y-20072I0J1448D01*
G01*
Y-20920D02*
G03*
X65355Y-20496I-1024J-1024D01*
G01*
X71851Y-17300D02*
G03*
X72876Y-16876I0J1448D01*
G01*
Y-17724D02*
G03*
X71851Y-17300I-1024J-1024D01*
G01*
X27400Y-88925D02*
X36277D01*
X29800Y-76500D02*
X37552D01*
X27400Y-78900D02*
X29800Y-76500D01*
X27400Y-82300D02*
Y-78900D01*
X23463Y-88925D02*
Y-82300D01*
X11000Y-88874D02*
X23412D01*
X35772Y-14272D02*
X38800Y-17300D01*
X73300D01*
X55000Y-25800D02*
X55100Y-25900D01*
X113016Y-30084D02*
X121147D01*
X64600Y-26147D02*
X121147D01*
X50100Y-43900D02*
Y-42100D01*
X52268Y-39931D01*
X62400Y-45900D02*
Y-43500D01*
X27600Y-50000D02*
X58000D01*
X58300D01*
X62400Y-45900D01*
X52268Y-39931D02*
X128131D01*
X146500Y-58300D01*
X151900D01*
X43369Y-38331D02*
X133431D01*
X143937Y-48837D01*
X55000Y-25800D02*
X57200Y-28000D01*
X35772Y-14272D02*
Y-11600D01*
Y-6422D01*
X29867Y-14767D02*
Y-6422D01*
X34700Y-19600D02*
X62404D01*
X29867Y-14767D02*
X34700Y-19600D01*
X62404D02*
X63300Y-20496D01*
X66804D01*
X60700Y-25700D02*
X61147Y-26147D01*
X58600Y-25700D02*
X60700D01*
X61147D01*
Y-26147D02*
X64600D01*
X57200Y-28000D02*
X98461D01*
X105813Y-35353D01*
X136853D02*
X144200Y-42700D01*
X105813Y-35353D02*
X136853D01*
D12*
X107886Y-20500D02*
G03*
X111219Y-19119I0J4714D01*
G01*
Y-21881D02*
G03*
X107886Y-20500I-3334J-3334D01*
G01*
X139266Y-27166D02*
G03*
X142600Y-28547I3334J3334D01*
G01*
X140647Y-30500D02*
G03*
X139267Y-27166I-4714J0D01*
G01*
X94828Y-10844D02*
G03*
X94282Y-9527I-1863J0D01*
G01*
X95373D02*
G03*
X94828Y-10844I1317J-1317D01*
G01*
X95599Y-8996D02*
G03*
X97610Y-13988I6868J-134D01*
G01*
X94828Y-10844D02*
G03*
X94282Y-9527I-1863J0D01*
G01*
X95373D02*
G03*
X94828Y-10844I1317J-1317D01*
G01*
X48800Y-33900D02*
X62500D01*
X92100Y-20500D02*
X112600D01*
X138033Y-25933D02*
X142600Y-30500D01*
X138033Y-25933D02*
Y-17267D01*
X141100Y-14200D01*
X148700D01*
X151700Y-17200D01*
X94828Y-11206D02*
Y-6422D01*
X98722Y-15100D02*
X105378D01*
X94828Y-11206D02*
X98722Y-15100D01*
X107400Y-13078D02*
X111722D01*
X105378Y-15100D02*
X107400Y-13078D01*
X77600Y-17800D02*
X89400D01*
X92100Y-20500D01*
X111800Y-13000D02*
X115963D01*
D13*
X63500Y-99955D02*
G03*
X64538Y-102462I3545J0D01*
G01*
X62462D02*
G03*
X63500Y-99955I-2507J2507D01*
G01*
X118521Y-20500D02*
G03*
X114334Y-22234I0J-5922D01*
G01*
X116107Y-20500D02*
G03*
X113627Y-21527I0J-3507D01*
G01*
X114334Y-18766D02*
G03*
X118521Y-20500I4187J4187D01*
G01*
X113627Y-19473D02*
G03*
X116107Y-20500I2480J2480D01*
G01*
X16921Y-81000D02*
G03*
X12734Y-82734I0J-5922D01*
G01*
X14507Y-81000D02*
G03*
X12027Y-82027I0J-3507D01*
G01*
X12734Y-79266D02*
G03*
X16921Y-81000I4187J4187D01*
G01*
X12027Y-79973D02*
G03*
X14507Y-81000I2480J2480D01*
G01*
X136225Y-92356D02*
G03*
X136707Y-93518I1644J0D01*
G01*
X135744D02*
G03*
X136225Y-92356I-1163J1163D01*
G01*
X131325Y-92456D02*
G03*
X131807Y-93618I1644J0D01*
G01*
X130844D02*
G03*
X131325Y-92456I-1163J1163D01*
G01*
X93380Y-105200D02*
G03*
X94879Y-104579I0J2120D01*
G01*
Y-105821D02*
G03*
X93380Y-105200I-1499J-1499D01*
G01*
X103525D02*
G03*
X102026Y-105821I0J-2120D01*
G01*
Y-104579D02*
G03*
X103525Y-105200I1499J1499D01*
G01*
X61598Y-76500D02*
G03*
X55730Y-78930I0J-8298D01*
G01*
X59183Y-76500D02*
G03*
X55023Y-78223I0J-5883D01*
G01*
X55730Y-74070D02*
G03*
X61598Y-76500I5867J5867D01*
G01*
X55023Y-74777D02*
G03*
X59183Y-76500I4160J4160D01*
G01*
X60300Y-90200D02*
G03*
X56020Y-92302I0J-5409D01*
G01*
X58263Y-90200D02*
G03*
X55228Y-91690I0J-3835D01*
G01*
X56020Y-88098D02*
G03*
X60300Y-90200I4280J3308D01*
G01*
X55228Y-88710D02*
G03*
X58263Y-90200I3035J2345D01*
G01*
X99156Y-81132D02*
G03*
X100318Y-80650I0J1644D01*
G01*
Y-81613D02*
G03*
X99156Y-81132I-1163J-1163D01*
G01*
X102444D02*
G03*
X101282Y-81613I0J-1644D01*
G01*
Y-80650D02*
G03*
X102444Y-81132I1163J1163D01*
G01*
X98914Y-77294D02*
G03*
X100318Y-76713I0J1986D01*
G01*
Y-77676D02*
G03*
X99397Y-77294I-921J-921D01*
G01*
X90907Y-105200D02*
G03*
X90053Y-105553I0J-1207D01*
G01*
Y-104847D02*
G03*
X90907Y-105200I854J854D01*
G01*
X67800Y-72893D02*
G03*
X68154Y-73747I1207J0D01*
G01*
X67447D02*
G03*
X67800Y-72893I-854J854D01*
G01*
X59807Y-69400D02*
G03*
X58953Y-69753I0J-1207D01*
G01*
Y-69046D02*
G03*
X59807Y-69400I854J854D01*
G01*
X132147Y-21054D02*
G03*
X130810Y-20500I-1336J-1336D01*
G01*
X56300Y-43307D02*
G03*
X55946Y-42454I-1207J0D01*
G01*
X56653D02*
G03*
X56300Y-43307I854J-854D01*
G01*
X109561Y-104739D02*
G03*
X109915Y-103885I-854J854D01*
G01*
X110415Y-104385D02*
G03*
X109561Y-104739I0J-1207D01*
G01*
X99946Y-87154D02*
G03*
X100300Y-86300I-854J854D01*
G01*
X100800Y-86800D02*
G03*
X99946Y-87154I0J-1207D01*
G01*
X98607Y-77294D02*
G03*
X97754Y-77648I0J-1207D01*
G01*
Y-76941D02*
G03*
X98607Y-77294I854J854D01*
G01*
X99200Y-92393D02*
G03*
X99554Y-93247I1207J0D01*
G01*
X98847D02*
G03*
X99200Y-92393I-854J854D01*
G01*
X126061Y-81132D02*
G03*
X126915Y-80778I0J1207D01*
G01*
Y-81485D02*
G03*
X126061Y-81132I-854J-854D01*
G01*
X131325Y-92268D02*
G03*
X130947Y-91353I-1293J0D01*
G01*
X131653D02*
G03*
X131325Y-92146I793J-793D01*
G01*
X136225Y-92027D02*
G03*
X135947Y-91353I-952J0D01*
G01*
X136653D02*
G03*
X136225Y-92388I1034J-1034D01*
G01*
X44363Y-77556D02*
G03*
X44717Y-78409I1207J0D01*
G01*
X44009D02*
G03*
X44363Y-77556I-854J854D01*
G01*
X42363Y-69900D02*
X44363Y-71900D01*
Y-78763D02*
Y-71900D01*
X136225Y-94000D02*
Y-91075D01*
X131325Y-94100D02*
Y-91025D01*
X91167Y-81132D02*
X100800D01*
X86536Y-76500D02*
X91167Y-81132D01*
X63500Y-103500D02*
Y-93400D01*
X60300Y-90200D02*
X63500Y-93400D01*
X53300Y-90200D02*
X60300D01*
X99200Y-87900D02*
X100800Y-86300D01*
X99200Y-93600D02*
Y-87900D01*
X97700Y-77294D02*
X100700D01*
X100800Y-77194D01*
X109100Y-105200D02*
X110415Y-103885D01*
X101406Y-105200D02*
X109100D01*
X100800Y-81132D02*
X127269D01*
X67700Y-76500D02*
X86536D01*
X53300D02*
X67700D01*
X58600Y-69400D02*
X66700D01*
X67800Y-70500D01*
Y-74100D02*
Y-70500D01*
X89700Y-105200D02*
X95500D01*
X112600Y-20500D02*
X132500D01*
X56300Y-44902D02*
Y-42331D01*
X54102Y-47100D02*
X56300Y-44902D01*
X11000Y-81000D02*
X17100D01*
X28200Y-69900D02*
X42363D01*
X17100Y-81000D02*
X28200Y-69900D01*
X36301Y-47100D02*
X54102D01*
X32500Y-48100D02*
X35301D01*
X36301Y-47100D01*
X0Y0D02*
X157480D01*
Y-110236D02*
Y0D01*
X0Y-110236D02*
X157480D01*
X0D02*
Y0D01*
D16*
X101406Y-105200D02*
D03*
X95500D02*
D03*
D17*
X27400Y-82300D02*
D03*
X23463D02*
D03*
X27400Y-88925D02*
D03*
X23463D02*
D03*
X119900Y-13000D02*
D03*
X115963D02*
D03*
D23*
X100800Y-77194D02*
D03*
Y-81132D02*
D03*
X131325Y-94100D02*
D03*
Y-98037D02*
D03*
X136225Y-94000D02*
D03*
Y-97937D02*
D03*
X121147Y-26147D02*
D03*
Y-30084D02*
D03*
D34*
X11000Y-73126D02*
Y-64858D01*
D36*
X121800Y-52400D02*
D03*
D37*
X11000Y-64858D02*
D03*
Y-97142D02*
D03*
D38*
Y-81000D02*
D03*
Y-88874D02*
D03*
Y-73126D02*
D03*
X142600Y-30500D02*
D03*
Y-20500D02*
D03*
X112600Y-30500D02*
D03*
X132600Y-6800D02*
D03*
X151700Y-27200D02*
D03*
Y-17200D02*
D03*
D39*
X112600Y-20500D02*
D03*
X122600Y-6800D02*
D03*
D40*
X151900Y-68300D02*
D03*
D41*
Y-63300D02*
D03*
Y-58300D02*
D03*
Y-53300D02*
D03*
X68421Y-103500D02*
D03*
D42*
X150908Y-87100D02*
D03*
X116892Y-102061D02*
D03*
X150908D02*
D03*
X116892Y-87100D02*
D03*
D43*
X63500Y-103500D02*
D03*
D44*
X151700Y-7200D02*
D03*
D45*
X92600Y-88100D02*
D03*
X83300Y-96800D02*
D03*
X31900Y-38400D02*
D03*
X32000Y-23600D02*
D03*
X48800Y-33900D02*
D03*
X62500D02*
D03*
X77600Y-17800D02*
D03*
X92100Y-20500D02*
D03*
X111722Y-13078D02*
D03*
X22700Y-4100D02*
D03*
Y-11100D02*
D03*
Y-18500D02*
D03*
X22600Y-26000D02*
D03*
X22400Y-47300D02*
D03*
Y-55200D02*
D03*
X46900Y-23600D02*
D03*
X51600Y-29400D02*
D03*
X44300Y-30200D02*
D03*
X67100Y-32100D02*
D03*
X70800Y-48200D02*
D03*
X81400Y-50400D02*
D03*
X95400Y-50500D02*
D03*
X104200Y-50000D02*
D03*
X86700Y-68500D02*
D03*
X96600Y-31900D02*
D03*
X75000Y-91300D02*
D03*
X85000Y-81400D02*
D03*
X125300Y-104400D02*
D03*
X136200Y-104800D02*
D03*
X143500Y-105300D02*
D03*
X145200Y-94200D02*
D03*
X154800Y-79500D02*
D03*
X23300Y-100500D02*
D03*
X34100Y-98300D02*
D03*
X45400Y-97600D02*
D03*
X23700Y-61800D02*
D03*
X22100Y-70000D02*
D03*
X131000Y-13400D02*
D03*
X97100Y-67200D02*
D03*
X89000Y-73700D02*
D03*
X104100Y-66000D02*
D03*
X104000Y-71900D02*
D03*
X5100Y-104400D02*
D03*
X71900Y-67300D02*
D03*
X71200Y-79800D02*
D03*
X105600Y-77700D02*
D03*
X147100Y-78600D02*
D03*
D46*
X44363Y-78763D02*
D03*
X136300Y-91000D02*
D03*
X131300D02*
D03*
X127269Y-81132D02*
D03*
X73300Y-17300D02*
D03*
X66804Y-20496D02*
D03*
X99200Y-93600D02*
D03*
X97400Y-77294D02*
D03*
X100800Y-86300D02*
D03*
X89700Y-83200D02*
D03*
X110415Y-103885D02*
D03*
X27600Y-50000D02*
D03*
X62400Y-43500D02*
D03*
X58600Y-25700D02*
D03*
X55000Y-25800D02*
D03*
X144200Y-42700D02*
D03*
X43369Y-38331D02*
D03*
X50100Y-43900D02*
D03*
X143937Y-48837D02*
D03*
X32500Y-48100D02*
D03*
X56300Y-42100D02*
D03*
X132500Y-20700D02*
D03*
X58600Y-69400D02*
D03*
X67800Y-74100D02*
D03*
X89700Y-105200D02*
D03*
X134700Y-64800D02*
D03*
X134800Y-69200D02*
D03*
X135000Y-73200D02*
D03*
X135200Y-76800D02*
D03*
X126800Y-64894D02*
D03*
X140500Y-64700D02*
D03*
X139884Y-79500D02*
D03*
X110415Y-96900D02*
D03*
Y-86700D02*
D03*
Y-78100D02*
D03*
D47*
X37552Y-90200D02*
D03*
X53300D02*
D03*
X37552Y-76500D02*
D03*
X53300D02*
D03*
D48*
X100733Y-59178D02*
D03*
X94828D02*
D03*
X88922D02*
D03*
X83017D02*
D03*
X77111D02*
D03*
X71206D02*
D03*
X65300D02*
D03*
X59395D02*
D03*
X53489D02*
D03*
X47583D02*
D03*
X41678D02*
D03*
X35772D02*
D03*
X29867D02*
D03*
X100733Y-6422D02*
D03*
X94828D02*
D03*
X88922D02*
D03*
X83017D02*
D03*
X77111D02*
D03*
X71206D02*
D03*
X65300D02*
D03*
X59395D02*
D03*
X53489D02*
D03*
X47583D02*
D03*
X41678D02*
D03*
X35772D02*
D03*
X29867D02*
D03*
M02*
