%FSLAX25Y25*%
%MOIN*%
G70*
G01*
G75*
G04 Layer_Color=32896*
%ADD10C,0.01500*%
%ADD11C,0.00800*%
%ADD12C,0.02000*%
%ADD13C,0.01000*%
%ADD14C,0.04000*%
%ADD15R,0.04724X0.09843*%
%ADD16R,0.02756X0.03347*%
%ADD17R,0.02362X0.02362*%
%ADD18O,0.00984X0.04724*%
%ADD19O,0.04724X0.00984*%
%ADD20O,0.04724X0.01772*%
%ADD21O,0.01772X0.04724*%
%ADD22R,0.04724X0.01772*%
%ADD23R,0.02362X0.02362*%
%ADD24R,0.04331X0.04724*%
%ADD25R,0.05118X0.03937*%
%ADD26R,0.07087X0.03937*%
%ADD27R,0.02756X0.04724*%
%ADD28R,0.02992X0.04724*%
%ADD29R,0.03150X0.04724*%
%ADD30R,0.03347X0.02756*%
%ADD31R,0.04724X0.01969*%
%ADD32R,0.03937X0.03150*%
%ADD33R,0.03937X0.07087*%
%ADD34C,0.03000*%
%ADD35C,0.03500*%
%ADD36C,0.17716*%
%ADD37C,0.07874*%
%ADD38C,0.05906*%
%ADD39R,0.05906X0.05906*%
%ADD40R,0.03937X0.03937*%
%ADD41C,0.03937*%
%ADD42O,0.04331X0.06693*%
%ADD43R,0.03937X0.03937*%
%ADD44R,0.05906X0.05906*%
%ADD45C,0.03000*%
%ADD46C,0.02000*%
%ADD47R,0.07874X0.07874*%
%ADD48O,0.03543X0.08661*%
%ADD49C,0.00500*%
%ADD50C,0.02362*%
%ADD51C,0.00984*%
%ADD52C,0.00787*%
%ADD53C,0.00591*%
%ADD54R,0.05524X0.10642*%
%ADD55R,0.03556X0.04147*%
%ADD56R,0.03162X0.03162*%
%ADD57O,0.01784X0.05524*%
%ADD58O,0.05524X0.01784*%
%ADD59O,0.05524X0.02572*%
%ADD60O,0.02572X0.05524*%
%ADD61R,0.05524X0.02572*%
%ADD62R,0.03162X0.03162*%
%ADD63R,0.05131X0.05524*%
%ADD64R,0.05918X0.04737*%
%ADD65R,0.07887X0.04737*%
%ADD66R,0.03556X0.05524*%
%ADD67R,0.03792X0.05524*%
%ADD68R,0.03950X0.05524*%
%ADD69R,0.04147X0.03556*%
%ADD70R,0.05524X0.02769*%
%ADD71R,0.04737X0.03950*%
%ADD72R,0.04737X0.07887*%
%ADD73C,0.18517*%
%ADD74C,0.08674*%
%ADD75C,0.06706*%
%ADD76R,0.06706X0.06706*%
%ADD77R,0.04737X0.04737*%
%ADD78C,0.04737*%
%ADD79O,0.05131X0.07493*%
%ADD80R,0.04737X0.04737*%
%ADD81R,0.06706X0.06706*%
%ADD82R,0.08674X0.08674*%
%ADD83O,0.04343X0.09461*%
%ADD84C,0.00600*%
%ADD85R,0.02756X0.00591*%
%ADD86R,0.01260X0.01024*%
D13*
X1600Y-58600D02*
X27000D01*
X1600D02*
Y-6900D01*
X26900D01*
X103900Y-7000D02*
X107900D01*
X103686Y-58390D02*
X107891D01*
X107900Y-58400D01*
Y-7100D01*
X0Y0D02*
X157480D01*
Y-110236D02*
Y0D01*
X0Y-110236D02*
X157480D01*
X0D02*
Y0D01*
D49*
X99225Y-82706D02*
X102375D01*
X99225Y-75620D02*
X102375D01*
X99225Y-82706D02*
Y-75620D01*
X102375Y-82706D02*
Y-75620D01*
X21888Y-83875D02*
Y-80725D01*
X28975Y-83875D02*
Y-80725D01*
X21888D02*
X28975D01*
X21888Y-83875D02*
X28975D01*
X58418Y-96105D02*
Y-84294D01*
X32434Y-96105D02*
X58418D01*
X32434D02*
Y-84294D01*
X58418D01*
X47394Y-94137D02*
Y-86263D01*
X43457Y-94137D02*
Y-86263D01*
Y-90200D02*
X47394Y-86263D01*
X43457Y-90200D02*
X47394Y-94137D01*
X58418Y-82406D02*
Y-70595D01*
X32434Y-82406D02*
X58418D01*
X32434D02*
Y-70595D01*
X58418D01*
X47394Y-80437D02*
Y-72563D01*
X43457Y-80437D02*
Y-72563D01*
Y-76500D02*
X47394Y-72563D01*
X43457Y-76500D02*
X47394Y-80437D01*
X21888Y-90500D02*
Y-87350D01*
X28975Y-90500D02*
Y-87350D01*
X21888D02*
X28975D01*
X21888Y-90500D02*
X28975D01*
X93532Y-107365D02*
X103374D01*
X93532Y-103035D02*
X103374D01*
X93532Y-107365D02*
Y-103035D01*
X103374Y-107365D02*
Y-103035D01*
X129750Y-99612D02*
X132900D01*
X129750Y-92525D02*
X132900D01*
X129750Y-99612D02*
Y-92525D01*
X132900Y-99612D02*
Y-92525D01*
X134650Y-99512D02*
X137800D01*
X134650Y-92425D02*
X137800D01*
X134650Y-99512D02*
Y-92425D01*
X137800Y-99512D02*
Y-92425D01*
X119572Y-31659D02*
X122722D01*
X119572Y-24572D02*
X122722D01*
X119572Y-31659D02*
Y-24572D01*
X122722Y-31659D02*
Y-24572D01*
X114782Y-14575D02*
Y-14575D01*
X121475Y-14181D02*
Y-11819D01*
X114782Y-14575D02*
X121081D01*
X114388Y-14181D02*
Y-11819D01*
X114782Y-11425D02*
X121081D01*
X121475Y-11819D02*
Y-11819D01*
X121081Y-11425D02*
X121475Y-11819D01*
X121475Y-14181D02*
X121475D01*
X121081Y-14575D02*
X121475Y-14181D01*
X114388Y-11819D02*
X114388D01*
X114782Y-11425D01*
X114388Y-14181D02*
X114388D01*
X114782Y-14575D01*
X126701Y-12201D02*
X127200Y-11701D01*
X128200D01*
X128700Y-12201D01*
Y-14200D01*
X128200Y-14700D01*
X127200D01*
X126701Y-14200D01*
X125701D02*
X125201Y-14700D01*
X124201D01*
X123702Y-14200D01*
Y-12201D01*
X124201Y-11701D01*
X125201D01*
X125701Y-12201D01*
Y-12701D01*
X125201Y-13201D01*
X123702D01*
X68800Y-75401D02*
Y-78400D01*
X67300D01*
X66801Y-77900D01*
Y-75901D01*
X67300Y-75401D01*
X68800D01*
X63802D02*
X64801Y-75901D01*
X65801Y-76901D01*
Y-77900D01*
X65301Y-78400D01*
X64301D01*
X63802Y-77900D01*
Y-77400D01*
X64301Y-76901D01*
X65801D01*
X67300Y-89901D02*
Y-92900D01*
X65800D01*
X65301Y-92400D01*
Y-90401D01*
X65800Y-89901D01*
X67300D01*
X64301D02*
X62302D01*
Y-90401D01*
X64301Y-92400D01*
Y-92900D01*
X110601Y-36899D02*
Y-35900D01*
Y-36399D01*
X113100D01*
X113600Y-35900D01*
Y-35400D01*
X113100Y-34900D01*
X110601Y-39898D02*
Y-37899D01*
X112101D01*
X111601Y-38899D01*
Y-39399D01*
X112101Y-39898D01*
X113100D01*
X113600Y-39399D01*
Y-38399D01*
X113100Y-37899D01*
X102100Y-72900D02*
Y-69901D01*
X100601D01*
X100101Y-70401D01*
Y-71400D01*
X100601Y-71900D01*
X102100D01*
X101100D02*
X100101Y-72900D01*
X99101D02*
X98101D01*
X98601D01*
Y-69901D01*
X99101Y-70401D01*
X143100Y-93300D02*
X140101D01*
Y-94800D01*
X140601Y-95299D01*
X141601D01*
X142100Y-94800D01*
Y-93300D01*
Y-94300D02*
X143100Y-95299D01*
Y-97799D02*
X140101D01*
X141601Y-96299D01*
Y-98298D01*
X110800Y-106600D02*
Y-103601D01*
X109300D01*
X108801Y-104101D01*
Y-105101D01*
X109300Y-105600D01*
X110800D01*
X109800D02*
X108801Y-106600D01*
X105802Y-103601D02*
X106801Y-104101D01*
X107801Y-105101D01*
Y-106100D01*
X107301Y-106600D01*
X106301D01*
X105802Y-106100D01*
Y-105600D01*
X106301Y-105101D01*
X107801D01*
X128100Y-24600D02*
X125101D01*
Y-26100D01*
X125601Y-26599D01*
X126601D01*
X127100Y-26100D01*
Y-24600D01*
Y-25600D02*
X128100Y-26599D01*
Y-27599D02*
Y-28599D01*
Y-28099D01*
X125101D01*
X125601Y-27599D01*
X128100Y-31598D02*
X125101D01*
X126601Y-30098D01*
Y-32098D01*
X127500Y-92500D02*
X124501D01*
Y-93999D01*
X125001Y-94499D01*
X126000D01*
X126500Y-93999D01*
Y-92500D01*
Y-93500D02*
X127500Y-94499D01*
Y-95499D02*
Y-96499D01*
Y-95999D01*
X124501D01*
X125001Y-95499D01*
X124501Y-97998D02*
Y-99998D01*
X125001D01*
X127000Y-97998D01*
X127500D01*
X28700Y-78000D02*
Y-75001D01*
X27200D01*
X26701Y-75501D01*
Y-76500D01*
X27200Y-77000D01*
X28700D01*
X27700D02*
X26701Y-78000D01*
X23702D02*
X25701D01*
X23702Y-76001D01*
Y-75501D01*
X24201Y-75001D01*
X25201D01*
X25701Y-75501D01*
X22702D02*
X22202Y-75001D01*
X21202D01*
X20703Y-75501D01*
Y-77500D01*
X21202Y-78000D01*
X22202D01*
X22702Y-77500D01*
Y-75501D01*
X28100Y-96200D02*
Y-93201D01*
X26601D01*
X26101Y-93701D01*
Y-94700D01*
X26601Y-95200D01*
X28100D01*
X27100D02*
X26101Y-96200D01*
X23102D02*
X25101D01*
X23102Y-94201D01*
Y-93701D01*
X23601Y-93201D01*
X24601D01*
X25101Y-93701D01*
X22102Y-96200D02*
X21102D01*
X21602D01*
Y-93201D01*
X22102Y-93701D01*
X146734Y-51768D02*
X147401Y-51101D01*
X148733D01*
X149400Y-51768D01*
Y-52434D01*
X148733Y-53101D01*
X147401D01*
X146734Y-53767D01*
Y-54434D01*
X147401Y-55100D01*
X148733D01*
X149400Y-54434D01*
X145401Y-51101D02*
Y-55100D01*
X144068Y-53767D01*
X142736Y-55100D01*
Y-51101D01*
X141403D02*
Y-55100D01*
X139403D01*
X138737Y-54434D01*
Y-51768D01*
X139403Y-51101D01*
X141403D01*
X137404D02*
X136071D01*
X136737D01*
Y-55100D01*
X137404D01*
X136071D01*
X132072Y-51101D02*
X133405D01*
X134072Y-51768D01*
Y-54434D01*
X133405Y-55100D01*
X132072D01*
X131406Y-54434D01*
Y-51768D01*
X132072Y-51101D01*
X145691Y-57468D02*
X146357Y-56801D01*
X147690D01*
X148357Y-57468D01*
Y-58134D01*
X147690Y-58801D01*
X146357D01*
X145691Y-59467D01*
Y-60134D01*
X146357Y-60800D01*
X147690D01*
X148357Y-60134D01*
X144358Y-56801D02*
Y-60800D01*
X143025Y-59467D01*
X141692Y-60800D01*
Y-56801D01*
X137694Y-57468D02*
X138360Y-56801D01*
X139693D01*
X140359Y-57468D01*
Y-60134D01*
X139693Y-60800D01*
X138360D01*
X137694Y-60134D01*
X136361Y-56801D02*
Y-60800D01*
X133695D01*
X132362Y-56801D02*
Y-60800D01*
Y-59467D01*
X129696Y-56801D01*
X131695Y-58801D01*
X129696Y-60800D01*
X145691Y-62768D02*
X146357Y-62101D01*
X147690D01*
X148357Y-62768D01*
Y-65434D01*
X147690Y-66100D01*
X146357D01*
X145691Y-65434D01*
Y-64101D01*
X147024D01*
X144358Y-66100D02*
Y-62101D01*
X141692Y-66100D01*
Y-62101D01*
X140359D02*
Y-66100D01*
X138360D01*
X137694Y-65434D01*
Y-62768D01*
X138360Y-62101D01*
X140359D01*
X148357Y-68511D02*
X147690Y-67845D01*
X146357D01*
X145691Y-68511D01*
Y-69178D01*
X146357Y-69844D01*
X147024D01*
X146357D01*
X145691Y-70510D01*
Y-71177D01*
X146357Y-71843D01*
X147690D01*
X148357Y-71177D01*
X144358Y-71843D02*
Y-71177D01*
X143692D01*
Y-71843D01*
X144358D01*
X141026Y-68511D02*
X140359Y-67845D01*
X139026D01*
X138360Y-68511D01*
Y-69178D01*
X139026Y-69844D01*
X139693D01*
X139026D01*
X138360Y-70510D01*
Y-71177D01*
X139026Y-71843D01*
X140359D01*
X141026Y-71177D01*
X137027Y-67845D02*
Y-70510D01*
X135694Y-71843D01*
X134361Y-70510D01*
Y-67845D01*
X138368Y-5566D02*
X137701Y-4899D01*
Y-3566D01*
X138368Y-2900D01*
X141033D01*
X141700Y-3566D01*
Y-4899D01*
X141033Y-5566D01*
X139701D01*
Y-4233D01*
X141700Y-6899D02*
X137701D01*
X141700Y-9565D01*
X137701D01*
Y-10897D02*
X141700D01*
Y-12897D01*
X141033Y-13563D01*
X138368D01*
X137701Y-12897D01*
Y-10897D01*
X56900Y-100801D02*
Y-104800D01*
X54901D01*
X54234Y-104133D01*
Y-103467D01*
X54901Y-102801D01*
X56900D01*
X54901D01*
X54234Y-102134D01*
Y-101468D01*
X54901Y-100801D01*
X56900D01*
X52901Y-104800D02*
Y-102134D01*
X51568Y-100801D01*
X50235Y-102134D01*
Y-104800D01*
Y-102801D01*
X52901D01*
X48903Y-100801D02*
X46237D01*
X47570D01*
Y-104800D01*
X80534Y-101768D02*
X81201Y-101101D01*
X82534D01*
X83200Y-101768D01*
Y-104434D01*
X82534Y-105100D01*
X81201D01*
X80534Y-104434D01*
Y-103101D01*
X81867D01*
X79201Y-105100D02*
Y-101101D01*
X76535Y-105100D01*
Y-101101D01*
X75203D02*
Y-105100D01*
X73203D01*
X72537Y-104434D01*
Y-101768D01*
X73203Y-101101D01*
X75203D01*
D84*
X91875Y-9178D02*
G03*
X97780Y-9178I2953J0D01*
G01*
D02*
G03*
X103686Y-9178I2953J0D01*
G01*
X85969D02*
G03*
X91875Y-9178I2953J0D01*
G01*
X80064D02*
G03*
X85969Y-9178I2953J0D01*
G01*
X74158D02*
G03*
X80064Y-9178I2953J0D01*
G01*
X68253D02*
G03*
X74158Y-9178I2953J0D01*
G01*
X62347D02*
G03*
X68253Y-9178I2953J0D01*
G01*
X56442D02*
G03*
X62347Y-9178I2953J0D01*
G01*
X50536D02*
G03*
X56442Y-9178I2953J0D01*
G01*
X44631D02*
G03*
X50536Y-9178I2953J0D01*
G01*
X38725D02*
G03*
X44631Y-9178I2953J0D01*
G01*
X32820D02*
G03*
X38725Y-9178I2953J0D01*
G01*
X26914D02*
G03*
X32820Y-9178I2953J0D01*
G01*
X97780Y-56422D02*
G03*
X91875Y-56422I-2953J0D01*
G01*
X103686D02*
G03*
X97780Y-56422I-2953J0D01*
G01*
X91875D02*
G03*
X85969Y-56422I-2953J0D01*
G01*
X85969D02*
G03*
X80064Y-56422I-2953J0D01*
G01*
X80064D02*
G03*
X74158Y-56422I-2953J0D01*
G01*
X74158D02*
G03*
X68253Y-56422I-2953J0D01*
G01*
D02*
G03*
X62347Y-56422I-2953J0D01*
G01*
X62347D02*
G03*
X56442Y-56422I-2953J0D01*
G01*
X56442D02*
G03*
X50536Y-56422I-2953J0D01*
G01*
X50536D02*
G03*
X44631Y-56422I-2953J0D01*
G01*
X44631D02*
G03*
X38725Y-56422I-2953J0D01*
G01*
X38725D02*
G03*
X32820Y-56422I-2953J0D01*
G01*
D02*
G03*
X26914Y-56422I-2953J0D01*
G01*
X103686Y-58390D02*
X107623D01*
X103686Y-7209D02*
X107623D01*
Y-58390D02*
Y-7209D01*
X1717Y-58390D02*
X26914D01*
X1717Y-7209D02*
X26914D01*
X1717Y-58390D02*
Y-7209D01*
X97780Y-9178D02*
Y-7209D01*
X91875Y-9178D02*
Y-7209D01*
X103686Y-9178D02*
Y-7209D01*
X97780Y-9178D02*
Y-7209D01*
X91875Y-9178D02*
Y-7209D01*
X85969Y-9178D02*
Y-7209D01*
Y-9178D02*
Y-7209D01*
X80064Y-9178D02*
Y-7209D01*
Y-9178D02*
Y-7209D01*
X74158Y-9178D02*
Y-7209D01*
Y-9178D02*
Y-7209D01*
X68253Y-9178D02*
Y-7209D01*
X68253Y-9178D02*
Y-7209D01*
X62347Y-9178D02*
Y-7209D01*
Y-9178D02*
Y-7209D01*
X56442Y-9178D02*
Y-7209D01*
Y-9178D02*
Y-7209D01*
X50536Y-9178D02*
Y-7209D01*
Y-9178D02*
Y-7209D01*
X44631Y-9178D02*
Y-7209D01*
Y-9178D02*
Y-7209D01*
X38725Y-9178D02*
Y-7209D01*
Y-9178D02*
Y-7209D01*
X32820Y-9178D02*
Y-7209D01*
X32820Y-9178D02*
Y-7209D01*
X26914Y-9178D02*
Y-7209D01*
X97780Y-58390D02*
Y-55831D01*
X91875Y-58390D02*
Y-55831D01*
X103686Y-58390D02*
Y-56422D01*
X97780Y-58390D02*
Y-56422D01*
X91875Y-58390D02*
Y-55831D01*
X85969Y-58390D02*
Y-55831D01*
Y-58390D02*
Y-55831D01*
X80064Y-58390D02*
Y-55831D01*
Y-58390D02*
Y-55831D01*
X74158Y-58390D02*
Y-55831D01*
Y-58390D02*
Y-55831D01*
X68253Y-58390D02*
Y-55831D01*
X68253Y-58390D02*
Y-55831D01*
X62347Y-58390D02*
Y-55831D01*
Y-58390D02*
Y-55831D01*
X56442Y-58390D02*
Y-55831D01*
Y-58390D02*
Y-55831D01*
X50536Y-58390D02*
Y-55831D01*
Y-58390D02*
Y-55831D01*
X44631Y-58390D02*
Y-55831D01*
Y-58390D02*
Y-55831D01*
X38725Y-58390D02*
Y-55831D01*
Y-58390D02*
Y-55831D01*
X32820Y-58390D02*
Y-55831D01*
X32820Y-58390D02*
Y-55831D01*
X26914Y-58390D02*
Y-55831D01*
D85*
X97780Y-11737D02*
D03*
X91875D02*
D03*
X85969Y-11737D02*
D03*
X80064Y-11737D02*
D03*
X74158Y-11737D02*
D03*
X68253Y-11737D02*
D03*
X62347Y-11737D02*
D03*
X56442Y-11737D02*
D03*
X50536Y-11737D02*
D03*
X44631Y-11737D02*
D03*
X38725Y-11737D02*
D03*
X32820Y-11737D02*
D03*
X97780Y-53863D02*
D03*
X91875D02*
D03*
X85969Y-53863D02*
D03*
X80064Y-53863D02*
D03*
X74158Y-53863D02*
D03*
X68253Y-53863D02*
D03*
X62347Y-53863D02*
D03*
X56442Y-53863D02*
D03*
X50536Y-53863D02*
D03*
X44631Y-53863D02*
D03*
X38725Y-53863D02*
D03*
X32820Y-53863D02*
D03*
D86*
X97778Y-11003D02*
D03*
X91872D02*
D03*
X86002Y-11026D02*
D03*
X80061Y-11003D02*
D03*
X74191Y-11026D02*
D03*
X68250Y-11003D02*
D03*
X62344D02*
D03*
X56474Y-11026D02*
D03*
X50533Y-11003D02*
D03*
X44663Y-11026D02*
D03*
X38722Y-11003D02*
D03*
X32852Y-11026D02*
D03*
X97777Y-54546D02*
D03*
X91872D02*
D03*
X86001Y-54569D02*
D03*
X80061Y-54546D02*
D03*
X74190Y-54569D02*
D03*
X68250Y-54546D02*
D03*
X62344D02*
D03*
X56474Y-54569D02*
D03*
X50533Y-54546D02*
D03*
X44663Y-54569D02*
D03*
X38722Y-54546D02*
D03*
X32852Y-54569D02*
D03*
M02*
