*
*
G04 PADS VX.2.3 Build Number: 9191294 generated Gerber (RS-274-X) file*
G04 PC Version=2.1*
*
%IN "Car_Video.pcb"*%
*
%MOIN*%
*
%FSLAX35Y35*%
*
*
*
*
G04 PC Standard Apertures*
*
*
G04 Thermal Relief Aperture macro.*
%AMTER*
1,1,$1,0,0*
1,0,$1-$2,0,0*
21,0,$3,$4,0,0,45*
21,0,$3,$4,0,0,135*
%
*
*
G04 Annular Aperture macro.*
%AMANN*
1,1,$1,0,0*
1,0,$2,0,0*
%
*
*
G04 Odd Aperture macro.*
%AMODD*
1,1,$1,0,0*
1,0,$1-0.005,0,0*
%
*
*
G04 PC Custom Aperture Macros*
*
*
*
*
*
*
G04 PC Aperture Table*
*
%ADD010C,0.001*%
%ADD052C,0.006*%
%ADD053C,0.008*%
%ADD054C,0.01*%
%ADD068C,0.005*%
%ADD069C,0.00787*%
%ADD070C,0.0118*%
%ADD071C,0.00787*%
%ADD072C,0.0015*%
%ADD073C,0.00394*%
*
*
*
*
G04 PC Circuitry*
G04 Layer Name Car_Video.pcb - circuitry*
%LPD*%
*
G54D10*
G01X497308Y204297D02*
X497296Y204303D01*
X497214Y204058*
X497206Y204042*
X497006Y203792*
X496989Y203779*
X496789Y203679*
X496775Y203674*
X496475Y203624*
X496467*
X497129*
X497308Y204297*
X496467Y203624D02*
X495967D01*
X495951Y203626*
X495801Y203676*
X495772Y203701*
X495722Y203801*
X495717Y203824*
Y206674*
X495722Y206696*
X495772Y206796*
X495801Y206821*
X495951Y206871*
X495967Y206874*
X495267*
X495283Y206871*
X495433Y206821*
X495462Y206796*
X495512Y206696*
X495517Y206674*
Y203824*
X495512Y203801*
X495462Y203701*
X495433Y203676*
X495283Y203626*
X495267Y203624*
X496467*
X496779Y245944D02*
X496179D01*
X496201Y245939*
X496301Y245889*
X496324Y245867*
X496374Y245767*
X496379Y245744*
Y244444*
X496329Y244394*
X496379Y244344*
Y242894*
X496374Y242872*
X496324Y242772*
X496301Y242750*
X496201Y242700*
X496179Y242694*
X496779*
X496757Y242700*
X496657Y242750*
X496634Y242772*
X496584Y242872*
X496579Y242894*
Y245744*
X496584Y245767*
X496634Y245867*
X496657Y245889*
X496757Y245939*
X496779Y245944*
X494967Y202874D02*
X492567D01*
X494967*
X495279Y245944D02*
X494679D01*
X494701Y245939*
X494801Y245889*
X494824Y245867*
X494874Y245767*
X494879Y245744*
Y242894*
X494874Y242872*
X494824Y242772*
X494801Y242750*
X494701Y242700*
X494679Y242694*
X495279*
X495257Y242700*
X495157Y242750*
X495134Y242772*
X495084Y242872*
X495079Y242894*
Y244344*
X495129Y244394*
X495079Y244444*
Y245744*
X495084Y245767*
X495134Y245867*
X495157Y245889*
X495257Y245939*
X495279Y245944*
X496329Y244394D02*
X495129D01*
X496329*
X492117Y206674D02*
Y204324D01*
Y206674*
X490667Y203624D02*
X490651Y203626D01*
X490501Y203676*
X490472Y203701*
X490422Y203801*
X490417Y203824*
X490412Y203801*
X490362Y203701*
X490333Y203676*
X490183Y203626*
X490167Y203624*
X490667*
X492117Y204324D02*
X492067Y204274D01*
X492017*
X491973Y204300*
X490587Y206874*
X490167*
X490183Y206871*
X490333Y206821*
X490362Y206796*
X490412Y206696*
X490417Y206674*
Y206474*
X490467Y206524*
X490517*
X490561Y206497*
X492097Y203624*
X492117*
Y204324*
X492367Y206874D02*
X491867D01*
X491883Y206871*
X492033Y206821*
X492062Y206796*
X492112Y206696*
X492117Y206674*
X492122Y206696*
X492172Y206796*
X492201Y206821*
X492351Y206871*
X492367Y206874*
X494429Y241944D02*
X492029D01*
X494429*
X491579Y245744D02*
Y243394D01*
Y245744*
X489867Y203624D02*
X489851Y203626D01*
X489701Y203676*
X489675Y203696*
X489575Y203846*
X489568Y203862*
X488830Y206915*
X488657Y206881*
X488657D02*
X487865Y203861D01*
X487864Y203858*
X487814Y203708*
X487783Y203676*
X487633Y203626*
X487617Y203624*
X488117*
X488082Y203638*
X488032Y203688*
X488019Y203711*
X487969Y203911*
X487967Y203924*
X487970Y203939*
X488019Y204086*
X488168Y204833*
X488217Y204874*
X489117*
X489166Y204834*
X489366Y203934*
X489367Y203924*
Y203724*
X489352Y203688*
X489302Y203638*
X489267Y203624*
X489867*
X489067Y204874D02*
X488267D01*
X488217Y204924*
X488218Y204935*
X488618Y206585*
X488667Y206624*
X488717*
X488766Y206584*
X489116Y204934*
X489067Y204874*
X490129Y242694D02*
X490113Y242697D01*
X489963Y242747*
X489934Y242772*
X489884Y242872*
X489879Y242894*
X489874Y242872*
X489824Y242772*
X489795Y242747*
X489645Y242697*
X489629Y242694*
X490129*
X491579Y243394D02*
X491529Y243344D01*
X491479*
X491435Y243371*
X490049Y245944*
X489629*
X489645Y245942*
X489795Y245892*
X489824Y245867*
X489874Y245767*
X489879Y245744*
Y245544*
X489929Y245594*
X489979*
X490023Y245568*
X491559Y242694*
X491579*
Y243394*
X491829Y245944D02*
X491329D01*
X491345Y245942*
X491495Y245892*
X491524Y245867*
X491574Y245767*
X491579Y245744*
X491584Y245767*
X491634Y245867*
X491663Y245892*
X491813Y245942*
X491829Y245944*
X489329Y242694D02*
X489313Y242697D01*
X489163Y242747*
X489137Y242767*
X489037Y242917*
X489030Y242933*
X488292Y245986*
X488119Y245952*
X487327Y242932*
X487326Y242929*
X487276Y242779*
X487245Y242747*
X487095Y242697*
X487079Y242694*
X487579*
X487544Y242709*
X487494Y242759*
X487480Y242782*
X487430Y242982*
X487429Y242994*
X487432Y243010*
X487481Y243157*
X487630Y243904*
X487679Y243944*
X488579*
X488628Y243905*
X488828Y243005*
X488829Y242994*
Y242794*
X488814Y242759*
X488764Y242709*
X488729Y242694*
X489329*
X488529Y243944D02*
X487729D01*
X487679Y243994*
X487680Y244006*
X488080Y245656*
X488129Y245694*
X488179*
X488228Y245655*
X488578Y244005*
X488529Y243944*
X484705Y143913D02*
X484637Y143935D01*
X484609Y143960*
X484573Y144031*
X484538Y143960*
X484509Y143935*
X484441Y143913*
X484705*
X485923Y144423D02*
X485893Y144413D01*
X485853*
X485809Y144439*
X484703Y146493*
X484441*
X484509Y146470*
X484538Y146445*
X484578Y146365*
X484583Y146343*
Y146223*
X484613Y146233*
X484653*
X484697Y146206*
X485923Y143913*
X485923*
Y144423*
X486065Y146493D02*
X485801D01*
X485869Y146470*
X485898Y146445*
X485933Y146375*
X485969Y146445*
X485997Y146470*
X486065Y146493*
X487047Y184315D02*
X486969Y184588D01*
X486892Y184819*
X486782Y184966*
X486438Y185195*
X486409Y185201*
X486649Y185001*
X486662Y184985*
X486742Y184825*
X486744Y184821*
X486824Y184621*
X486827Y184609*
X486867Y184329*
Y184322*
Y183642*
Y183635*
X486827Y183355*
X486825Y183347*
X486745Y183107*
X486737Y183092*
X486617Y182932*
X486602Y182919*
X486322Y182759*
X486309Y182754*
X486063Y182692*
X486248*
X486435Y182767*
X486629Y182884*
X486779Y182996*
X486892Y183183*
X486969Y183417*
X487047Y183689*
Y184315*
X485952Y185272D02*
X485485D01*
X485553Y185250*
X485582Y185225*
X485622Y185145*
X485627Y185122*
Y182842*
X485622Y182820*
X485582Y182740*
X485560Y182718*
X485509Y182692*
X485909*
X485841Y182715*
X485812Y182740*
X485772Y182820*
X485767Y182842*
Y185122*
X485772Y185145*
X485812Y185225*
X485847Y185251*
X485952Y185272*
X487254Y204499D02*
X487239Y204507D01*
X486962Y203951*
X486943Y203931*
X486693Y203781*
X486675Y203774*
X486375Y203724*
X486367*
X486167*
X486145Y203729*
X485945Y203829*
X485939Y203832*
X485789Y203932*
X485772Y203951*
X485672Y204151*
X485669Y204159*
X485519Y204659*
X485517Y204670*
X485467Y205320*
Y205324*
Y205328*
X485517Y205928*
X485521Y205942*
X485721Y206442*
X485722Y206446*
X485822Y206646*
X485832Y206659*
X485959Y206787*
X485942Y206780*
X485750Y206636*
X485559Y206445*
X485315Y205909*
X485217Y205270*
Y204881*
X485315Y204538*
X485414Y204241*
X485510Y204002*
X485697Y203815*
X485888Y203719*
X486127Y203624*
X486363*
X486648Y203671*
X486931Y203860*
X487122Y204147*
X487254Y204499*
X487261Y206201D02*
X487135Y206871D01*
X487102Y206838*
X487067Y206824*
X486917*
X486905Y206825*
X486707Y206875*
X486418Y206923*
X486399Y206919*
X486675Y206873*
X486697Y206864*
X486897Y206714*
X486906Y206705*
X487106Y206455*
X487112Y206446*
X487239Y206191*
X487261Y206201*
X483465Y146493D02*
X483041D01*
X483109Y146470*
X483138Y146445*
X483178Y146365*
X483183Y146343*
Y144063*
X483178Y144040*
X483138Y143960*
X483109Y143935*
X483041Y143913*
X483465*
X483397Y143935*
X483369Y143960*
X483329Y144040*
X483323Y144063*
Y146343*
X483329Y146365*
X483369Y146445*
X483397Y146470*
X483465Y146493*
X483709Y182692D02*
X483641Y182715D01*
X483612Y182740*
X483577Y182811*
X483542Y182740*
X483513Y182715*
X483445Y182692*
X483709*
X484927Y183202D02*
X484897Y183192D01*
X484857*
X484813Y183219*
X483707Y185272*
X483445*
X483513Y185250*
X483542Y185225*
X483582Y185145*
X483587Y185122*
Y185002*
X483617Y185012*
X483657*
X483701Y184986*
X484927Y182692*
X484927*
Y183202*
X485069Y185272D02*
X484805D01*
X484873Y185250*
X484902Y185225*
X484937Y185154*
X484972Y185225*
X485001Y185250*
X485069Y185272*
X486716Y243570D02*
X486701Y243577D01*
X486424Y243022*
X486405Y243002*
X486155Y242852*
X486137Y242845*
X485837Y242795*
X485829Y242794*
X485629*
X485607Y242800*
X485407Y242900*
X485401Y242903*
X485251Y243003*
X485234Y243022*
X485134Y243222*
X485131Y243230*
X484981Y243730*
X484979Y243741*
X484929Y244391*
Y244394*
Y244399*
X484979Y244999*
X484983Y245013*
X485183Y245513*
X485184Y245517*
X485284Y245717*
X485294Y245730*
X485421Y245858*
X485404Y245851*
X485212Y245707*
X485021Y245516*
X484777Y244980*
X484679Y244341*
Y243951*
X484777Y243609*
X484876Y243312*
X484972Y243073*
X485159Y242886*
X485350Y242790*
X485589Y242694*
X485825*
X486110Y242742*
X486393Y242931*
X486584Y243217*
X486716Y243570*
X486723Y245272D02*
X486597Y245942D01*
X486564Y245909*
X486529Y245894*
X486379*
X486367Y245896*
X486169Y245945*
X485880Y245994*
X485861Y245990*
X486137Y245944*
X486159Y245934*
X486359Y245784*
X486368Y245776*
X486568Y245526*
X486574Y245517*
X486701Y245262*
X486723Y245272*
X483029Y183792D02*
X482583D01*
X482669Y183771*
X482706Y183734*
X482746Y183574*
X482747Y183562*
Y183002*
X482745Y182987*
X482705Y182867*
X482702Y182861*
X482755Y182887*
X482777Y182892*
X482887*
Y183602*
X482890Y183618*
X482930Y183738*
X482961Y183770*
X483029Y183792*
X482881Y184714D02*
X482785Y185259D01*
X482773Y185247*
X482737Y185232*
X482577*
X482555Y185238*
X482531Y185250*
X482647Y185162*
X482660Y185148*
X482780Y184948*
X482783Y184942*
X482881Y184714*
X482126Y185278D02*
X482115Y185275D01*
X482109Y185272*
X482126Y185278*
X482037Y144296D02*
X482021Y144247D01*
X482012Y144232*
X481852Y144032*
X481836Y144018*
X481676Y143938*
X481662Y143934*
X481662D02*
X481537Y143913D01*
X481935*
X482037Y144296*
X482077Y182730D02*
X482001Y182755D01*
X481982Y182767*
X481862Y182887*
X481851Y182904*
X481771Y183104*
X481769Y183108*
X481649Y183508*
X481647Y183518*
X481607Y183958*
Y183962*
Y184282*
X481608Y184291*
X481648Y184531*
X481650Y184538*
X481730Y184778*
X481731Y184781*
X481811Y184981*
X481819Y184994*
X482009Y185222*
X481964Y185200*
X481810Y185084*
X481661Y184935*
X481506Y184471*
X481428Y183961*
X481466Y183493*
X481620Y183070*
X481773Y182918*
X481777Y182912*
X481886Y182768*
X482066Y182732*
X482077Y182730*
X480945Y146493D02*
X480521D01*
X480589Y146470*
X480618Y146445*
X480658Y146365*
X480663Y146343*
Y144063*
X480658Y144040*
X480618Y143960*
X480589Y143935*
X480521Y143913*
X480945*
X480877Y143935*
X480849Y143960*
X480809Y144040*
X480803Y144063*
Y146343*
X480809Y146365*
X480849Y146445*
X480877Y146470*
X480945Y146493*
X467369Y276422D02*
X467239Y277072D01*
X466180*
X466230Y277022*
Y274022*
X466225Y273999*
X466175Y273899*
X466146Y273874*
X465996Y273824*
X465980Y273822*
X466680*
X466664Y273824*
X466514Y273874*
X466485Y273899*
X466435Y273999*
X466430Y274022*
Y277022*
X466480Y277072*
X466730*
X466742Y277070*
X466942Y277020*
X466946Y277019*
X467096Y276969*
X467125Y276944*
X467225Y276744*
X467226Y276741*
X467363Y276422*
X467369*
X465980Y277072D02*
X465468D01*
X465295Y276422*
X465297*
X465434Y276741*
X465440Y276752*
X465590Y276952*
X465614Y276969*
X465764Y277019*
X465768Y277020*
X465968Y277070*
X465980Y277072*
X464980Y273822D02*
X464964Y273824D01*
X464814Y273874*
X464788Y273894*
X464688Y274044*
X464681Y274060*
X463943Y277113*
X463770Y277079*
X462978Y274059*
X462977Y274056*
X462927Y273906*
X462896Y273874*
X462746Y273824*
X462730Y273822*
X463230*
X463195Y273836*
X463145Y273886*
X463131Y273910*
X463081Y274110*
X463080Y274122*
X463082Y274138*
X463132Y274285*
X463132D02*
X463281Y275032D01*
X463330Y275072*
X464230*
X464279Y275033*
X464479Y274133*
X464480Y274122*
Y273922*
X464465Y273886*
X464415Y273836*
X464380Y273822*
X464980*
X464180Y275072D02*
X463380D01*
X463330Y275122*
X463331Y275134*
X463731Y276784*
X463780Y276822*
X463830*
X463879Y276782*
X464229Y275132*
X464180Y275072*
X466695Y292531D02*
X466597Y292874D01*
X466500Y293165*
X466360Y293352*
X465925Y293641*
X465495Y293727*
X465857Y293637*
X465877Y293627*
X466177Y293377*
X466190Y293361*
X466290Y293161*
X466291Y293157*
X466391Y292907*
X466394Y292896*
X466444Y292546*
X466445Y292538*
Y291688*
X466444Y291681*
X466394Y291331*
X466392Y291323*
X466292Y291023*
X466285Y291008*
X466135Y290808*
X466120Y290795*
X465770Y290595*
X465757Y290590*
X465357Y290490*
X465329Y290491*
X465179Y290541*
X465150Y290566*
X465100Y290666*
X465095Y290688*
Y293538*
X465100Y293561*
X465150Y293661*
X465185Y293687*
X465435Y293737*
X465441Y293738*
X465440*
X464645*
X464661Y293736*
X464811Y293686*
X464840Y293661*
X464890Y293561*
X464895Y293538*
Y290688*
X464890Y290666*
X464840Y290566*
X464817Y290544*
X464717Y290494*
X464695Y290488*
X465685*
X465923Y290583*
X466167Y290730*
X466357Y290873*
X466499Y291109*
X466597Y291403*
X466695Y291745*
Y292531*
X464045Y293538D02*
Y291188D01*
Y293538*
X462379Y274621D02*
X462331Y274908D01*
X462237Y275144*
X462001Y275380*
X461660Y275526*
X461630Y275572*
X461658Y275617*
X461950Y275763*
X462135Y275947*
X462181Y276133*
X462229Y276373*
X462182Y276654*
X462045Y276884*
X461765Y277023*
X461377Y277072*
X461230*
X461238Y277071*
X461538Y277021*
X461548Y277018*
X461798Y276918*
X461820Y276902*
X461970Y276702*
X461979Y276680*
X462029Y276380*
X462030Y276372*
X462030*
X462029Y276365*
X461979Y276015*
X461970Y275992*
X461820Y275792*
X461810Y275782*
X461610Y275632*
X461590Y275623*
X461340Y275573*
X461330Y275572*
X461280*
X461287Y275571*
X461637Y275521*
X461656Y275515*
X461906Y275365*
X461925Y275344*
X462075Y275044*
X462079Y275029*
X462129Y274679*
X462130Y274672*
X462130*
X462129Y274665*
X462079Y274315*
X462073Y274296*
X461923Y274046*
X461910Y274032*
X461710Y273882*
X461688Y273872*
X461388Y273822*
X461380*
X461427*
X461814Y273870*
X462147Y274060*
X462332Y274292*
X462379Y274621*
X461380Y273822D02*
X461030D01*
X461014Y273824*
X460864Y273874*
X460835Y273899*
X460785Y273999*
X460780Y274022*
Y275522*
X460830Y275572*
X460780Y275622*
Y276872*
X460785Y276894*
X460835Y276994*
X460864Y277019*
X461014Y277069*
X461030Y277072*
X460330*
X460346Y277069*
X460496Y277019*
X460525Y276994*
X460575Y276894*
X460580Y276872*
Y274022*
X460575Y273999*
X460525Y273899*
X460496Y273874*
X460346Y273824*
X460330Y273822*
X461380*
X462595Y290488D02*
X462579Y290491D01*
X462429Y290541*
X462400Y290566*
X462350Y290666*
X462345Y290688*
X462340Y290666*
X462290Y290566*
X462261Y290541*
X462111Y290491*
X462095Y290488*
X462595*
X464045Y291188D02*
X463995Y291138D01*
X463945*
X463901Y291165*
X462515Y293738*
X462095*
X462111Y293736*
X462261Y293686*
X462290Y293661*
X462340Y293561*
X462345Y293538*
Y293338*
X462395Y293388*
X462445*
X462489Y293362*
X464025Y290488*
X464045*
Y291188*
X464295Y293738D02*
X463795D01*
X463811Y293736*
X463961Y293686*
X463990Y293661*
X464040Y293561*
X464045Y293538*
X464050Y293561*
X464100Y293661*
X464129Y293686*
X464279Y293736*
X464295Y293738*
X461280Y275572D02*
X460830D01*
X461280*
X461745Y291888D02*
X460995D01*
X461007Y291887*
X461207Y291837*
X461243Y291801*
X461293Y291601*
X461295Y291588*
Y290888*
X461292Y290873*
X461242Y290723*
X461230Y290703*
X461192Y290665*
X461219Y290681*
X461223Y290683*
X461323Y290733*
X461345Y290738*
X461495*
Y291638*
X461497Y291654*
X461547Y291804*
X461579Y291836*
X461729Y291886*
X461745Y291888*
X461489Y293016D02*
X461362Y293735D01*
X461330Y293703*
X461295Y293688*
X461095*
X461073Y293694*
X460979Y293740*
X460745Y293779*
X460955Y293737*
X460975Y293728*
X461175Y293578*
X461188Y293564*
X461338Y293314*
X461341Y293308*
X461470Y293007*
X461489Y293016*
X460718Y290494D02*
X460533Y290540D01*
X460529Y290541*
X460379Y290591*
X460360Y290603*
X460210Y290753*
X460198Y290770*
X460098Y291020*
X460097Y291024*
X459947Y291524*
X459945Y291534*
X459895Y292084*
Y292088*
Y292488*
X459896Y292497*
X459946Y292797*
X459947Y292804*
X460047Y293104*
X460048Y293107*
X460148Y293357*
X460156Y293370*
X460406Y293670*
X460429Y293686*
X460576Y293735*
X460665Y293779*
X460512Y293741*
X460321Y293646*
X460128Y293501*
X459939Y293311*
X459744Y292727*
X459645Y292087*
X459694Y291499*
X459888Y290966*
X460080Y290774*
X460085Y290768*
X460223Y290584*
X460454Y290538*
X460718Y290494*
X452479Y158490D02*
X451529D01*
X451479Y158540*
Y159590*
X451379*
Y158540*
X451329Y158490*
X450379*
Y158390*
X451329*
X451379Y158340*
Y157290*
X451479*
Y158340*
X451529Y158390*
X452479*
Y158490*
X449879Y158783D02*
X449781Y159126D01*
X449684Y159417*
X449544Y159604*
X449109Y159893*
X448679Y159979*
X449041Y159889*
X449061Y159879*
X449361Y159629*
X449373Y159613*
X449473Y159413*
X449475Y159409*
X449575Y159159*
X449578Y159147*
X449628Y158797*
X449629Y158790*
Y157940*
X449628Y157933*
X449578Y157583*
X449576Y157575*
X449476Y157275*
X449469Y157260*
X449319Y157060*
X449303Y157047*
X448953Y156847*
X448941Y156842*
X448541Y156742*
X448513Y156743*
X448363Y156793*
X448334Y156818*
X448284Y156918*
X448279Y156940*
Y159790*
X448284Y159813*
X448334Y159913*
X448369Y159939*
X448619Y159989*
X448625Y159990*
X448624*
X447829*
X447844Y159988*
X447994Y159938*
X448023Y159913*
X448073Y159813*
X448079Y159790*
Y156940*
X448073Y156918*
X448023Y156818*
X448001Y156796*
X447901Y156746*
X447879Y156740*
X448869*
X449106Y156835*
X449351Y156982*
X449541Y157125*
X449683Y157361*
X449781Y157655*
X449879Y157997*
Y158783*
X447420Y157414D02*
X447401Y157423D01*
X447273Y157168*
X447271Y157165*
X447121Y156915*
X447097Y156894*
X446847Y156794*
X446838Y156791*
X446588Y156741*
X446579Y156740*
X446079*
X446063Y156743*
X445913Y156793*
X445884Y156818*
X445834Y156918*
X445829Y156940*
Y158440*
X445879Y158490*
X445829Y158540*
Y159790*
X445834Y159813*
X445884Y159913*
X445913Y159938*
X446063Y159988*
X446079Y159990*
X446629*
X446641Y159989*
X446841Y159939*
X446856Y159932*
X447006Y159832*
X447014Y159826*
X447214Y159626*
X447221Y159616*
X447348Y159406*
X447368Y159416*
X447192Y159990*
X445379*
X445394Y159988*
X445544Y159938*
X445573Y159913*
X445623Y159813*
X445629Y159790*
Y156940*
X445623Y156918*
X445573Y156818*
X445544Y156793*
X445394Y156743*
X445379Y156740*
X447240*
X447420Y157414*
X446879Y158740D02*
X446864Y158705D01*
X446664Y158505*
X446629Y158490*
X446429*
X446441Y158489*
X446641Y158439*
X446664Y158426*
X446764Y158326*
X446776Y158306*
X446876Y158006*
X446879Y157990*
Y158740*
X444920Y157414D02*
X444908Y157420D01*
X444826Y157175*
X444818Y157159*
X444618Y156909*
X444601Y156896*
X444401Y156796*
X444387Y156791*
X444087Y156741*
X444079Y156740*
X444740*
X444920Y157414*
X444079Y156740D02*
X443579D01*
X443563Y156743*
X443413Y156793*
X443384Y156818*
X443334Y156918*
X443329Y156940*
Y159790*
X443334Y159813*
X443384Y159913*
X443413Y159938*
X443563Y159988*
X443579Y159990*
X442879*
X442894Y159988*
X443044Y159938*
X443073Y159913*
X443123Y159813*
X443129Y159790*
Y156940*
X443123Y156918*
X443073Y156818*
X443044Y156793*
X442894Y156743*
X442879Y156740*
X444079*
X426489Y126255D02*
X426479Y126256D01*
X426229Y126306*
X426194Y126332*
X426144Y126432*
X426141Y126439*
X426091Y126589*
X426089Y126605*
Y129534*
X425874Y129320*
X425874D02*
X425855Y129307D01*
X425705Y129257*
X425689Y129255*
X425639*
X425655Y129252*
X425805Y129202*
X425836Y129171*
X425886Y129021*
X425889Y129005*
Y126605*
X425885Y126586*
X425785Y126336*
X425761Y126310*
X425661Y126260*
X425639Y126255*
X426489*
X424589D02*
X424573Y126257D01*
X424423Y126307*
X424397Y126327*
X424297Y126477*
X424290Y126493*
X423552Y129546*
X423379Y129512*
X422587Y126492*
X422586Y126489*
X422536Y126339*
X422505Y126307*
X422355Y126257*
X422339Y126255*
X422839*
X422803Y126270*
X422803D02*
X422753Y126320D01*
X422753D02*
X422740Y126343D01*
X422690Y126543*
X422689Y126555*
X422691Y126571*
X422740Y126718*
X422890Y127465*
X422939Y127505*
X423839*
X423888Y127466*
X424088Y126566*
X424089Y126555*
Y126355*
X424074Y126320*
X424074D02*
X424024Y126270D01*
X424024D02*
X423989Y126255D01*
X424589*
X423789Y127505D02*
X422989D01*
X422939Y127555*
X422940Y127567*
X423340Y129217*
X423389Y129255*
X423439*
X423488Y129215*
X423838Y127565*
X423789Y127505*
X416267Y126787D02*
X416257D01*
X416170Y126570*
X416121Y126421*
X416101Y126395*
X415951Y126295*
X415939Y126290*
X415789Y126240*
X415773Y126237*
X414573*
X414523Y126287*
X414538Y126322*
X414686Y126471*
X414935Y126769*
X414936Y126770*
X415286Y127170*
X415288Y127172*
X415984Y127868*
X416128Y128109*
X416223Y128347*
Y128533*
X416175Y128870*
X416036Y129102*
X415755Y129289*
X415374Y129337*
X415038Y129289*
X414758Y129148*
X414569Y128866*
X414473Y128530*
Y128399*
X414508Y128330*
X414671Y128289*
X414784Y128327*
X414821Y128437*
X414777Y128568*
X414679Y128765*
X414673Y128787*
X414676Y128803*
X414726Y128953*
X414738Y128972*
X414888Y129122*
X414896Y129129*
X415046Y129229*
X415064Y129236*
X415314Y129286*
X415332*
X415632Y129236*
X415653Y129227*
X415853Y129077*
X415868Y129059*
X415968Y128859*
X415973Y128845*
X416023Y128545*
Y128537*
X416023*
Y128529*
X415973Y128229*
X415970Y128218*
X415870Y127968*
X415865Y127959*
X415665Y127659*
X415659Y127652*
X415010Y127003*
X414762Y126705*
X414563Y126456*
X414423Y126270*
Y126037*
X416179*
X416267Y126787*
X413973Y126037D02*
X413958Y126040D01*
X413808Y126090*
X413782Y126109*
X413682Y126259*
X413675Y126275*
X412936Y129329*
X412764Y129294*
X411972Y126274*
X411971Y126271*
X411921Y126121*
X411889Y126090*
X411739Y126040*
X411723Y126037*
X412223*
X412188Y126052*
X412138Y126102*
X412125Y126125*
X412075Y126325*
X412073Y126337*
X412076Y126353*
X412125Y126500*
X412274Y127247*
X412323Y127287*
X413223*
X413272Y127248*
X413472Y126348*
X413473Y126337*
Y126137*
X413459Y126102*
X413409Y126052*
X413373Y126037*
X413973*
X413173Y127287D02*
X412373D01*
X412323Y127337*
X412325Y127349*
X412725Y128999*
X412773Y129037*
X412823*
X412872Y128997*
X413222Y127347*
X413173Y127287*
X404894Y126183D02*
X404885Y126184D01*
X404635Y126234*
X404600Y126260*
X404550Y126360*
X404547Y126367*
X404497Y126517*
X404494Y126533*
Y129462*
X404280Y129247*
X404260Y129235*
X404110Y129185*
X404094Y129183*
X404044*
X404060Y129180*
X404210Y129130*
X404242Y129098*
X404292Y128948*
X404294Y128933*
Y126533*
X404291Y126514*
X404191Y126264*
X404167Y126238*
X404067Y126188*
X404044Y126183*
X404894*
X402894Y126982D02*
X402846Y127269D01*
X402752Y127505*
X402516Y127741*
X402175Y127887*
X402144Y127933*
X402172Y127977*
X402465Y128124*
X402649Y128308*
X402696Y128494*
X402744Y128733*
X402697Y129015*
X402559Y129244*
X402280Y129384*
X401891Y129433*
X401744*
X401753Y129432*
X402053Y129382*
X402063Y129379*
X402313Y129279*
X402334Y129263*
X402484Y129063*
X402494Y129041*
X402544Y128741*
Y128733*
X402544*
Y128726*
X402494Y128376*
X402484Y128353*
X402334Y128153*
X402324Y128143*
X402124Y127993*
X402104Y127984*
X401854Y127934*
X401844Y127933*
X401794*
X401801Y127932*
X402151Y127882*
X402170Y127876*
X402420Y127726*
X402439Y127705*
X402589Y127405*
X402594Y127390*
X402644Y127040*
Y127033*
X402644*
Y127026*
X402594Y126676*
X402587Y126657*
X402437Y126407*
X402424Y126393*
X402224Y126243*
X402203Y126233*
X401903Y126183*
X401894*
X401941*
X402328Y126231*
X402661Y126421*
X402847Y126653*
X402894Y126982*
X401894Y126183D02*
X401544D01*
X401529Y126185*
X401379Y126235*
X401350Y126260*
X401300Y126360*
X401294Y126383*
Y127883*
X401344Y127933*
X401294Y127983*
Y129233*
X401300Y129255*
X401350Y129355*
X401379Y129380*
X401529Y129430*
X401544Y129433*
X400844*
X400860Y129430*
X401010Y129380*
X401039Y129355*
X401089Y129255*
X401094Y129233*
Y126383*
X401089Y126360*
X401039Y126260*
X401010Y126235*
X400860Y126185*
X400844Y126183*
X401894*
X401794Y127933D02*
X401344D01*
X401794*
X394745Y127224D02*
X394735D01*
X394648Y127007*
X394598Y126858*
X394579Y126832*
X394429Y126732*
X394417Y126727*
X394267Y126677*
X394251Y126674*
X393051*
X393001Y126724*
X393016Y126759*
X393164Y126908*
X393413Y127206*
Y127207*
X393763Y127607*
X393766Y127609*
X394461Y128305*
X394606Y128546*
X394701Y128784*
Y128970*
X394653Y129307*
X394514Y129539*
X394233Y129726*
X393851Y129774*
X393516Y129726*
X393235Y129585*
X393047Y129303*
X392951Y128967*
Y128836*
X392985Y128767*
X393149Y128726*
X393262Y128764*
X393298Y128874*
X393255Y129005*
X393156Y129202*
X393151Y129224*
X393154Y129240*
X393204Y129390*
X393216Y129409*
X393366Y129559*
X393373Y129566*
X393523Y129666*
X393541Y129673*
X393791Y129723*
X393809*
X394109Y129673*
X394131Y129664*
X394331Y129514*
X394346Y129496*
X394446Y129296*
X394450Y129282*
X394500Y128982*
X394501Y128974*
X394501*
X394500Y128966*
X394450Y128666*
X394447Y128655*
X394347Y128405*
X394343Y128396*
X394143Y128096*
X394136Y128089*
X393488Y127440*
X393240Y127142*
X393041Y126893*
X392901Y126707*
Y126474*
X394657*
X394745Y127224*
X392350Y127273D02*
X392303Y127560D01*
X392208Y127796*
X391973Y128032*
X391631Y128178*
X391601Y128224*
X391629Y128269*
X391921Y128415*
X392106Y128600*
X392152Y128785*
X392200Y129025*
X392153Y129306*
X392016Y129536*
X391736Y129675*
X391348Y129724*
X391201*
X391209Y129723*
X391509Y129673*
X391520Y129670*
X391770Y129570*
X391791Y129554*
X391941Y129354*
X391950Y129332*
X392000Y129032*
X392001Y129024*
X392001*
Y129017*
X391951Y128667*
X391941Y128644*
X391791Y128444*
X391781Y128434*
X391581Y128284*
X391561Y128275*
X391311Y128225*
X391301Y128224*
X391251*
X391258*
X391608Y128174*
X391627Y128167*
X391877Y128017*
X391896Y127996*
X392046Y127696*
X392051Y127681*
X392101Y127331*
Y127324*
X392101*
Y127317*
X392051Y126967*
X392044Y126948*
X391894Y126698*
X391881Y126684*
X391681Y126534*
X391659Y126525*
X391359Y126475*
X391351Y126474*
X391398*
X391785Y126522*
X392118Y126713*
X392303Y126945*
X392350Y127273*
X391351Y126474D02*
X391001D01*
X390985Y126477*
X390835Y126527*
X390806Y126552*
X390756Y126652*
X390751Y126674*
Y128174*
X390801Y128224*
X390751Y128274*
Y129524*
X390756Y129546*
X390806Y129646*
X390835Y129671*
X390985Y129721*
X391001Y129724*
X390301*
X390317Y129721*
X390467Y129671*
X390496Y129646*
X390546Y129546*
X390551Y129524*
Y126674*
X390546Y126652*
X390496Y126552*
X390467Y126527*
X390317Y126477*
X390301Y126474*
X391351*
X391251Y128224D02*
X390801D01*
X391251*
X224988Y205936D02*
X224978Y205937D01*
X224728Y205987*
X224693Y206014*
X224643Y206114*
X224640Y206120*
X224590Y206270*
X224588Y206286*
Y209215*
X224373Y209001*
X224353Y208989*
X224203Y208939*
X224188Y208936*
X224138*
X224153Y208933*
X224303Y208883*
X224335Y208852*
X224385Y208702*
X224388Y208686*
Y206286*
X224384Y206267*
X224284Y206017*
X224260Y205991*
X224160Y205941*
X224138Y205936*
X224988*
X225194Y214402D02*
X225184Y214403D01*
X224934Y214453*
X224899Y214479*
X224849Y214579*
X224846Y214586*
X224796Y214736*
X224794Y214752*
Y217681*
X224579Y217466*
X224559Y217454*
X224409Y217404*
X224394Y217402*
X224344*
X224359Y217399*
X224509Y217349*
X224541Y217318*
X224591Y217168*
X224594Y217152*
Y214752*
X224590Y214733*
X224490Y214483*
X224466Y214457*
X224366Y214407*
X224344Y214402*
X225194*
X222975Y206811D02*
X222960Y206819D01*
X222682Y206264*
X222663Y206243*
X222413Y206093*
X222396Y206087*
X222096Y206037*
X222088Y206036*
X221888*
X221865Y206041*
X221665Y206141*
X221660Y206144*
X221510Y206244*
X221493Y206264*
X221393Y206464*
X221390Y206472*
X221240Y206972*
X221238Y206982*
X221188Y207632*
Y207636*
Y207640*
X221238Y208240*
X221241Y208255*
X221441Y208755*
X221443Y208758*
X221543Y208958*
X221552Y208971*
X221680Y209099*
X221662Y209092*
X221470Y208948*
X221279Y208757*
X221036Y208222*
X220938Y207582*
Y207193*
X221035Y206851*
X221135Y206553*
X221135D02*
X221230Y206314D01*
X221417Y206127*
X221608Y206032*
X221847Y205936*
X222083*
X222369Y205984*
X222651Y206172*
X222843Y206459*
X222975Y206811*
X222981Y208514D02*
X222856Y209184D01*
X222823Y209151*
X222788Y209136*
X222638*
X222625Y209137*
X222427Y209187*
X222138Y209235*
X222119Y209231*
X222396Y209185*
X222418Y209176*
X222618Y209026*
X222627Y209017*
X222827Y208767*
X222832Y208758*
X222960Y208503*
X222981Y208514*
X223194Y216445D02*
X223096Y216787D01*
X222999Y217078*
X222859Y217265*
X222424Y217555*
X221994Y217641*
X222356Y217550*
X222376Y217540*
X222676Y217290*
X222688Y217274*
X222788Y217074*
X222790Y217070*
X222890Y216820*
X222893Y216809*
X222943Y216459*
X222944Y216452*
Y215602*
X222943Y215595*
X222893Y215245*
X222891Y215236*
X222791Y214936*
X222784Y214922*
X222634Y214722*
X222618Y214708*
X222268Y214508*
X222256Y214503*
X221856Y214403*
X221828Y214404*
X221678Y214454*
X221649Y214479*
X221599Y214579*
X221594Y214602*
Y217452*
X221599Y217474*
X221649Y217574*
X221684Y217601*
X221934Y217651*
X221939Y217652*
X221939*
X221144*
X221159Y217649*
X221309Y217599*
X221338Y217574*
X221388Y217474*
X221394Y217452*
Y214602*
X221388Y214579*
X221338Y214479*
X221316Y214457*
X221216Y214407*
X221194Y214402*
X222184*
X222421Y214497*
X222666Y214643*
X222856Y214786*
X222998Y215023*
X223096Y215317*
X223194Y215659*
Y216445*
X224078Y226769D02*
X223980Y227111D01*
X223883Y227402*
X223743Y227589*
X223309Y227879*
X222879Y227965*
X223240Y227874*
X223260Y227864*
X223560Y227614*
X223573Y227598*
X223673Y227398*
X223675Y227395*
X223775Y227145*
X223778Y227133*
X223828Y226783*
Y226776*
Y225926*
Y225919*
X223778Y225569*
X223776Y225560*
X223676Y225260*
X223668Y225246*
X223518Y225046*
X223503Y225033*
X223153Y224833*
X223140Y224827*
X222740Y224727*
X222712Y224729*
X222562Y224779*
X222533Y224804*
X222483Y224904*
X222478Y224926*
Y227776*
X222483Y227798*
X222533Y227898*
X222568Y227925*
X222818Y227975*
X222824Y227976*
X222823*
X222028*
X222044Y227973*
X222194Y227923*
X222223Y227898*
X222273Y227798*
X222278Y227776*
Y224926*
X222273Y224904*
X222223Y224804*
X222200Y224781*
X222100Y224731*
X222078Y224726*
X223068*
X223306Y224821*
X223550Y224968*
X223740Y225110*
X223882Y225347*
X223980Y225641*
X224078Y225983*
Y226769*
X225133Y237534D02*
X224683D01*
X224719Y237519*
X224769Y237469*
X224778Y237456*
X224828Y237356*
X224833Y237334*
X224831Y237318*
X224781Y237170*
X224232Y234922*
X224183Y234884*
X224133*
X224085Y234922*
X223535Y237272*
X223533Y237284*
X223536Y237300*
X223586Y237450*
X223611Y237478*
X223711Y237528*
X223733Y237534*
X223083*
X223099Y237531*
X223249Y237481*
X223282Y237444*
X223332Y237194*
X224023Y234284*
X224094*
X224835Y237196*
X224840Y237209*
X224990Y237459*
X225011Y237478*
X225111Y237528*
X225133Y237534*
X224989Y243819D02*
X224889D01*
X224989*
X225578Y246419D02*
X225448Y247069D01*
X224389*
X224439Y247019*
Y244019*
X224433Y243997*
X224383Y243897*
X224354Y243872*
X224204Y243822*
X224189Y243819*
X224889*
X224873Y243822*
X224723Y243872*
X224694Y243897*
X224644Y243997*
X224639Y244019*
Y247019*
X224689Y247069*
X224939*
X224951Y247068*
X225151Y247018*
X225154Y247017*
X225304Y246967*
X225333Y246942*
X225433Y246742*
X225435Y246739*
X225572Y246419*
X225578*
X224189Y247069D02*
X223677D01*
X223504Y246419*
X223506*
X223643Y246739*
X223649Y246749*
X223799Y246949*
X223823Y246967*
X223973Y247017*
X223976Y247018*
X224176Y247068*
X224189Y247069*
X221428Y227776D02*
Y225426D01*
Y227776*
X220538Y207336D02*
X219788D01*
X219800Y207334*
X220000Y207284*
X220036Y207248*
X220086Y207048*
X220088Y207036*
Y206336*
X220085Y206320*
X220035Y206170*
X220023Y206151*
X219985Y206113*
X220012Y206129*
X220015Y206131*
X220115Y206181*
X220138Y206186*
X220288*
Y207086*
X220290Y207102*
X220340Y207252*
X220372Y207283*
X220522Y207333*
X220538Y207336*
X220282Y208464D02*
X220155Y209183D01*
X220123Y209151*
X220088Y209136*
X219888*
X219865Y209141*
X219772Y209188*
X219538Y209227*
X219747Y209185*
X219768Y209176*
X219968Y209026*
X219980Y209012*
X220130Y208762*
X220133Y208756*
X220263Y208454*
X220282Y208464*
X220744Y215802D02*
X219994D01*
X220006Y215800*
X220206Y215750*
X220242Y215714*
X220292Y215514*
X220294Y215502*
Y214802*
X220291Y214786*
X220241Y214636*
X220229Y214616*
X220191Y214579*
X220218Y214595*
X220221Y214597*
X220321Y214647*
X220344Y214652*
X220494*
Y215552*
X220496Y215568*
X220546Y215718*
X220578Y215749*
X220728Y215799*
X220744Y215802*
X220488Y216930D02*
X220361Y217649D01*
X220329Y217616*
X220294Y217602*
X220094*
X220071Y217607*
X219978Y217654*
X219744Y217693*
X219953Y217651*
X219974Y217642*
X220174Y217492*
X220186Y217478*
X220336Y217228*
X220340Y217222*
X220469Y216920*
X220488Y216930*
X219511Y205941D02*
X219325Y205987D01*
X219322Y205989*
X219172Y206039*
X219152Y206051*
X219002Y206201*
X218991Y206217*
X218891Y206467*
X218890Y206472*
X218740Y206972*
X218738Y206981*
X218688Y207531*
Y207536*
Y207936*
Y207944*
X218738Y208244*
X218740Y208252*
X218840Y208552*
X218841Y208555*
X218941Y208805*
X218949Y208818*
X219199Y209118*
X219222Y209133*
X219368Y209182*
X219458Y209227*
X219305Y209189*
X219114Y209093*
X218920Y208948*
X218731Y208759*
X218536Y208174*
X218438Y207534*
X218487Y206947*
X218681Y206413*
X218873Y206221*
X218878Y206216*
X219016Y206031*
X219247Y205985*
X219511Y205941*
X219717Y214407D02*
X219531Y214453D01*
X219528Y214454*
X219378Y214504*
X219358Y214516*
X219208Y214666*
X219197Y214683*
X219097Y214933*
X219096Y214937*
X218946Y215437*
X218944Y215447*
X218894Y215997*
Y216002*
Y216402*
Y216410*
X218944Y216710*
X218946Y216718*
X219046Y217018*
X219047Y217020*
X219147Y217270*
X219155Y217284*
X219405Y217584*
X219428Y217599*
X219574Y217648*
X219664Y217693*
X219511Y217655*
X219320Y217559*
X219126Y217414*
X218937Y217225*
X218742Y216640*
X218644Y216000*
X218693Y215413*
X218887Y214879*
X219079Y214687*
X219084Y214682*
X219222Y214497*
X219453Y214451*
X219717Y214407*
X219978Y224726D02*
X219962Y224729D01*
X219812Y224779*
X219783Y224804*
X219733Y224904*
X219728Y224926*
X219723Y224904*
X219673Y224804*
X219644Y224779*
X219494Y224729*
X219478Y224726*
X219978*
X221428Y225426D02*
X221378Y225376D01*
X221328*
X221284Y225402*
X219898Y227976*
X219478*
X219494Y227973*
X219644Y227923*
X219673Y227898*
X219723Y227798*
X219728Y227776*
Y227576*
X219778Y227626*
X219828*
X219872Y227600*
X221408Y224726*
X221428*
Y225426*
X221678Y227976D02*
X221178D01*
X221194Y227973*
X221344Y227923*
X221373Y227898*
X221423Y227798*
X221428Y227776*
X221433Y227798*
X221483Y227898*
X221512Y227923*
X221662Y227973*
X221678Y227976*
X222532Y235182D02*
X222485Y235419D01*
X222392Y235653*
X222155Y235842*
X221808Y236040*
X221783Y236084*
X221815Y236130*
X222055Y236226*
X222242Y236413*
X222335Y236599*
X222382Y236883*
X222337Y237112*
X222148Y237348*
X221913Y237536*
X221584Y237583*
X221299Y237536*
X221013Y237393*
X220830Y237210*
X220783Y236930*
Y236846*
X220819Y236775*
X220933Y236736*
X221044Y236773*
X221079Y236880*
X221038Y236961*
X221033Y236984*
Y237072*
X220988Y237161*
X220983Y237184*
X220986Y237200*
X221036Y237350*
X221055Y237375*
X221205Y237475*
X221225Y237483*
X221525Y237533*
X221543*
X221793Y237483*
X221813Y237474*
X222013Y237324*
X222028Y237306*
X222128Y237106*
X222132Y237094*
X222182Y236844*
X222183Y236834*
Y236826*
X222133Y236526*
X222123Y236504*
X221973Y236304*
X221959Y236291*
X221709Y236141*
X221690Y236134*
X221383Y236090*
Y236028*
X221789Y235983*
X221809Y235977*
X222059Y235827*
X222076Y235809*
X222226Y235559*
X222233Y235542*
X222283Y235242*
Y235234*
X222283*
Y235228*
X222233Y234828*
X222226Y234808*
X222076Y234558*
X222063Y234544*
X221863Y234394*
X221841Y234384*
X221541Y234334*
X221526*
X221176Y234384*
X221148Y234398*
X221048Y234498*
X221038Y234511*
X220988Y234611*
X220983Y234634*
X220986Y234650*
X221080Y234934*
X221080D02*
X221041Y235052D01*
X220933Y235124*
X220822Y235049*
X220736Y234877*
X220779Y234658*
X220963Y234475*
X221249Y234332*
X221535Y234284*
X221965Y234332*
X222297Y234569*
X222485Y234852*
X222532Y235182*
X222988Y244669D02*
X222941Y244952D01*
X222799Y245188*
X222559Y245428*
X222168Y245624*
X221920Y245723*
X221916Y245724*
X221716Y245824*
X221711Y245828*
X221561Y245928*
X221553Y245934*
X221503Y245984*
X221497Y245991*
X221397Y246141*
X221390Y246157*
X221340Y246357*
X221339Y246369*
X221340Y246379*
X221390Y246629*
X221392Y246638*
X221492Y246888*
X221509Y246909*
X221709Y247059*
X221730Y247068*
X222013Y247116*
X221656Y247071*
X221656D02*
X221375Y246883D01*
X221186Y246600*
X221139Y246368*
X221186Y246039*
X221325Y245854*
X221565Y245662*
X222009Y245465*
X222013Y245463*
X222363Y245263*
X222369Y245259*
X222569Y245109*
X222579Y245099*
X222729Y244899*
X222737Y244881*
X222787Y244681*
X222789Y244669*
X222789*
X222788Y244662*
X222738Y244312*
X222735Y244301*
X222635Y244051*
X222619Y244029*
X222419Y243879*
X222397Y243870*
X222114Y243823*
X222471Y243867*
X222753Y244055*
X222941Y244337*
X222988Y244669*
X221672Y243931D02*
X221513Y244026D01*
X221500Y244038*
X221300Y244288*
X221294Y244297*
X221116Y244652*
X221094Y244641*
X221225Y243854*
X221311Y243911*
X221316Y243914*
X221416Y243964*
X221447Y243968*
X221672Y243931*
X222884Y246448D02*
X222808Y247023D01*
X222804Y247022*
X222654Y246972*
X222639Y246969*
X222539*
X222511Y246978*
X222370Y247071*
X222065Y247115*
X222298Y247068*
X222311Y247064*
X222511Y246964*
X222524Y246955*
X222724Y246755*
X222735Y246739*
X222864Y246438*
X222884Y246448*
X220639Y243819D02*
X220616Y243824D01*
X220516Y243874*
X220503Y243884*
X220403Y243984*
X220392Y244000*
X219792Y245450*
X219789Y245469*
X219820Y245516*
X220066Y245614*
X220302Y245756*
X220441Y245986*
X220488Y246319*
X220441Y246649*
X220256Y246879*
X219974Y247021*
X219585Y247069*
X219489*
X219496*
X219846Y247019*
X219869Y247009*
X220069Y246859*
X220079Y246849*
X220229Y246649*
X220238Y246627*
X220288Y246327*
X220289Y246319*
X220289*
X220288Y246312*
X220238Y245962*
X220231Y245943*
X220081Y245693*
X220057Y245673*
X219807Y245573*
X219798Y245570*
X219548Y245520*
X219539Y245519*
X219585Y245487*
X220223Y243819*
X220639*
X219128Y226126D02*
X218378D01*
X218390Y226124*
X218590Y226074*
X218627Y226038*
X218677Y225838*
X218678Y225826*
Y225126*
X218676Y225110*
X218626Y224960*
X218613Y224941*
X218576Y224903*
X218602Y224919*
X218606Y224921*
X218706Y224971*
X218728Y224976*
X218878*
Y225876*
X218881Y225892*
X218931Y226042*
X218962Y226073*
X219112Y226123*
X219128Y226126*
X217987Y208386D02*
X217940Y208715D01*
X217753Y208949*
X217470Y209138*
X217035Y209186*
X216938*
X216945Y209185*
X217295Y209135*
X217313Y209129*
X217563Y208979*
X217580Y208962*
X217730Y208712*
X217737Y208694*
X217787Y208394*
X217788Y208386*
X217788*
X217787Y208380*
X217737Y207980*
X217727Y207955*
X217527Y207705*
X217510Y207691*
X217310Y207591*
X217296Y207587*
X216996Y207537*
X216988Y207536*
X217084*
X217419Y207584*
X217706Y207775*
X217940Y208009*
X217987Y208386*
X216688Y209186D02*
X215988D01*
X216003Y209183*
X216153Y209133*
X216182Y209108*
X216232Y209008*
X216238Y208986*
Y206136*
X216232Y206114*
X216182Y206014*
X216153Y205989*
X216003Y205939*
X215988Y205936*
X216688*
X216672Y205939*
X216522Y205989*
X216493Y206014*
X216443Y206114*
X216438Y206136*
Y207486*
X216488Y207536*
X216438Y207586*
Y208986*
X216443Y209008*
X216493Y209108*
X216522Y209133*
X216672Y209183*
X216688Y209186*
X216988Y207536D02*
X216488D01*
X216988*
X218193Y216851D02*
X218146Y217181D01*
X217959Y217415*
X217676Y217603*
X217241Y217652*
X217144*
X217151Y217651*
X217501Y217601*
X217519Y217595*
X217769Y217445*
X217786Y217428*
X217936Y217178*
X217943Y217160*
X217993Y216860*
X217994Y216852*
X217994*
X217993Y216846*
X217943Y216446*
X217933Y216421*
X217733Y216171*
X217716Y216157*
X217516Y216057*
X217502Y216053*
X217202Y216003*
X217194Y216002*
X217290*
X217625Y216050*
X217912Y216241*
X218146Y216475*
X218193Y216851*
X218872Y227254D02*
X218746Y227973D01*
X218713Y227941*
X218678Y227926*
X218478*
X218456Y227931*
X218362Y227978*
X218128Y228017*
X218338Y227975*
X218358Y227966*
X218558Y227816*
X218571Y227802*
X218721Y227552*
X218724Y227546*
X218853Y227244*
X218872Y227254*
X218783Y234613D02*
X218704Y234693D01*
X218533Y234778*
X218370Y234696*
X218289Y234534*
X218370Y234371*
X218533Y234290*
X218783Y234415*
Y234613*
X219289Y247069D02*
X218589D01*
X218604Y247067*
X218754Y247017*
X218783Y246992*
X218833Y246892*
X218839Y246869*
Y244019*
X218833Y243997*
X218783Y243897*
X218754Y243872*
X218604Y243822*
X218589Y243819*
X219289*
X219273Y243822*
X219123Y243872*
X219094Y243897*
X219044Y243997*
X219039Y244019*
Y245469*
X219089Y245519*
X219039Y245569*
Y246869*
X219044Y246892*
X219094Y246992*
X219123Y247017*
X219273Y247067*
X219289Y247069*
X219539Y245519D02*
X219089D01*
X219539*
X219489Y247069D02*
X219289D01*
X219489*
X216938Y209186D02*
X216688D01*
X216938*
X216894Y217652D02*
X216194D01*
X216209Y217649*
X216359Y217599*
X216388Y217574*
X216438Y217474*
X216444Y217452*
Y214602*
X216438Y214579*
X216388Y214479*
X216359Y214454*
X216209Y214404*
X216194Y214402*
X216894*
X216878Y214404*
X216728Y214454*
X216699Y214479*
X216649Y214579*
X216644Y214602*
Y215952*
X216694Y216002*
X216644Y216052*
Y217452*
X216649Y217474*
X216699Y217574*
X216728Y217599*
X216878Y217649*
X216894Y217652*
X217194Y216002D02*
X216694D01*
X217194*
X217144Y217652D02*
X216894D01*
X217144*
X218101Y224731D02*
X217916Y224777D01*
X217912Y224779*
X217762Y224829*
X217743Y224841*
X217593Y224991*
X217582Y225007*
X217482Y225257*
X217480Y225262*
X217330Y225762*
X217328Y225771*
X217278Y226321*
Y226326*
Y226726*
X217279Y226734*
X217329Y227034*
X217331Y227042*
X217431Y227342*
X217432Y227345*
X217532Y227595*
X217540Y227608*
X217790Y227908*
X217812Y227923*
X217959Y227972*
X218048Y228017*
X217896Y227979*
X217704Y227883*
X217511Y227738*
X217322Y227549*
X217127Y226964*
X217028Y226324*
X217077Y225737*
X217271Y225203*
X217463Y225011*
X217468Y225006*
X217607Y224821*
X217837Y224775*
X218101Y224731*
X217532Y235182D02*
X217485Y235419D01*
X217392Y235653*
X217155Y235842*
X216808Y236040*
X216783Y236084*
X216815Y236130*
X217055Y236226*
X217242Y236413*
X217335Y236599*
X217382Y236883*
X217337Y237112*
X217148Y237348*
X216913Y237536*
X216584Y237583*
X216299Y237536*
X216013Y237393*
X215830Y237210*
X215783Y236930*
Y236846*
X215819Y236775*
X215933Y236736*
X216044Y236773*
X216079Y236880*
X216038Y236961*
X216033Y236984*
Y237072*
X215988Y237161*
X215983Y237184*
X215986Y237200*
X216036Y237350*
X216055Y237375*
X216205Y237475*
X216225Y237483*
X216525Y237533*
X216543*
X216793Y237483*
X216813Y237474*
X217013Y237324*
X217028Y237306*
X217128Y237106*
X217132Y237094*
X217182Y236844*
X217183Y236834*
Y236826*
X217133Y236526*
X217123Y236504*
X216973Y236304*
X216959Y236291*
X216709Y236141*
X216690Y236134*
X216383Y236090*
Y236028*
X216789Y235983*
X216809Y235977*
X217059Y235827*
X217076Y235809*
X217226Y235559*
X217233Y235542*
X217283Y235242*
Y235234*
X217283*
Y235228*
X217233Y234828*
X217226Y234808*
X217076Y234558*
X217063Y234544*
X216863Y234394*
X216841Y234384*
X216541Y234334*
X216526*
X216176Y234384*
X216148Y234398*
X216048Y234498*
X216038Y234511*
X215988Y234611*
X215983Y234634*
X215986Y234650*
X216080Y234934*
X216080D02*
X216041Y235052D01*
X215933Y235124*
X215822Y235049*
X215736Y234877*
X215779Y234658*
X215963Y234475*
X216249Y234332*
X216535Y234284*
X216965Y234332*
X217297Y234569*
X217485Y234852*
X217532Y235182*
X215800Y234638D02*
Y235006D01*
Y236812D02*
Y237030D01*
X215900Y234538D02*
Y235101D01*
Y236747D02*
Y237280D01*
X216000Y205936D02*
Y205938D01*
Y209184D02*
Y209186D01*
Y234456D02*
Y234588D01*
Y234692D02*
Y235079D01*
Y236759D02*
Y237138D01*
Y237242D02*
Y237380D01*
X216100Y205936D02*
Y205971D01*
Y209151D02*
Y209186D01*
Y234406D02*
Y234446D01*
Y237405D02*
Y237436D01*
X216200Y205936D02*
Y206049D01*
Y209073D02*
Y209186D01*
Y214402D02*
X216200D01*
Y217651D02*
Y217652D01*
Y234356D02*
Y234381D01*
Y237472D02*
Y237486D01*
X216300Y205936D02*
Y209186D01*
Y214402D02*
Y214435D01*
Y217619D02*
Y217652D01*
Y234323D02*
Y234367D01*
Y237496D02*
Y237536D01*
X216400Y205936D02*
Y209186D01*
Y214402D02*
Y214503D01*
Y217551D02*
Y217652D01*
Y234307D02*
Y234352D01*
Y236027D02*
Y236093D01*
Y237512D02*
Y237553D01*
X216500Y205936D02*
Y206003D01*
Y207536D02*
X216500D01*
Y209119D02*
Y209186D01*
Y214402D02*
Y217652D01*
Y234290D02*
Y234338D01*
Y236016D02*
Y236107D01*
Y237529D02*
Y237569D01*
X216600Y205936D02*
Y205962D01*
Y207536D02*
X216600D01*
Y209159D02*
Y209186D01*
Y214402D02*
Y217652D01*
Y234291D02*
Y234344D01*
Y236004D02*
Y236121D01*
Y237521D02*
Y237581D01*
X216700Y207536D02*
X216700D01*
Y209186D02*
X216700D01*
Y214402D02*
Y214477D01*
Y216002D02*
X216700D01*
Y217576D02*
Y217652D01*
Y234303D02*
Y234361D01*
Y235993D02*
Y236137D01*
Y237501D02*
Y237567D01*
X216800Y207536D02*
X216800D01*
Y209186D02*
X216800D01*
Y214402D02*
Y214430D01*
Y216002D02*
X216800D01*
Y217623D02*
Y217652D01*
Y234314D02*
Y234378D01*
Y235981D02*
Y236046D01*
Y236121D02*
Y236195D01*
Y237481D02*
Y237552D01*
X216900Y207536D02*
X216900D01*
Y209186D02*
X216900D01*
Y216002D02*
X216900D01*
Y217652D02*
X216900D01*
Y234325D02*
Y234421D01*
Y235922D02*
Y235988D01*
Y236164D02*
Y236255D01*
Y237409D02*
Y237538D01*
X217000Y207536D02*
Y207537D01*
Y209178D02*
Y209186D01*
Y216002D02*
X217000D01*
Y217652D02*
X217000D01*
Y234357D02*
Y234496D01*
Y235862D02*
Y235931D01*
Y236204D02*
Y236339D01*
Y237334D02*
Y237466D01*
X217100Y207538D02*
Y207554D01*
Y209163D02*
Y209179D01*
Y216002D02*
X217100D01*
Y217652D02*
X217100D01*
Y225675D02*
Y226790D01*
Y234429D02*
Y234598D01*
Y235770D02*
Y235874D01*
Y236271D02*
Y236473D01*
Y237162D02*
Y237386D01*
X217200Y207553D02*
Y207571D01*
Y209149D02*
Y209168D01*
Y216002D02*
X217200D01*
Y217644D02*
Y217652D01*
Y225400D02*
Y227184D01*
Y234500D02*
Y234765D01*
Y235603D02*
Y235806D01*
Y236371D02*
Y237283D01*
X217300Y207567D02*
Y207588D01*
Y209134D02*
Y209156D01*
Y216003D02*
Y216019D01*
Y217630D02*
Y217645D01*
Y225175D02*
Y226083D01*
Y226862D02*
Y227484D01*
Y234574D02*
Y235726D01*
Y236529D02*
Y237158D01*
X217400Y207581D02*
Y207636D01*
Y209077D02*
Y209145D01*
Y216018D02*
Y216036D01*
Y217616D02*
Y217634D01*
Y225075D02*
Y225529D01*
Y227250D02*
Y227627D01*
Y234724D02*
Y235632D01*
X217500Y207638D02*
Y207686D01*
Y209017D02*
Y209118D01*
Y216032D02*
Y216052D01*
Y217601D02*
Y217623D01*
Y224963D02*
Y225212D01*
Y227515D02*
Y227727D01*
Y234955D02*
Y235345D01*
X217600Y207704D02*
Y207797D01*
Y208929D02*
Y209051D01*
Y216046D02*
Y216099D01*
Y217546D02*
Y217612D01*
Y224830D02*
Y224983D01*
Y227680D02*
Y227805D01*
X217700Y207771D02*
Y207922D01*
Y208762D02*
Y208984D01*
Y216100D02*
Y216149D01*
Y217486D02*
Y217587D01*
Y224803D02*
Y224883D01*
Y227800D02*
Y227880D01*
X217800Y207869D02*
Y208890D01*
Y216166D02*
Y216255D01*
Y217405D02*
Y217521D01*
Y224783D02*
Y224816D01*
Y227917D02*
Y227931D01*
X217900Y207969D02*
Y208765D01*
Y216233D02*
Y216380D01*
Y217238D02*
Y217454D01*
Y224765D02*
Y224783D01*
Y227953D02*
Y227980D01*
X218000Y216329D02*
Y217364D01*
Y224748D02*
Y224756D01*
Y227993D02*
Y228005D01*
X218100Y216429D02*
Y217239D01*
Y224731D02*
X218100D01*
X218200Y228003D02*
Y228005D01*
X218300Y227983D02*
Y227988D01*
Y234512D02*
Y234556D01*
X218400Y226122D02*
Y226126D01*
Y227935D02*
Y227959D01*
Y234356D02*
Y234711D01*
X218500Y206910D02*
Y207938D01*
Y226097D02*
Y226126D01*
Y227860D02*
Y227926D01*
Y234306D02*
Y234761D01*
X218600Y206635D02*
Y208365D01*
Y224917D02*
Y224927D01*
Y226071D02*
Y226126D01*
Y227753D02*
Y227926D01*
Y234323D02*
Y234744D01*
Y243819D02*
Y243820D01*
Y247068D02*
Y247069D01*
X218700Y206394D02*
Y207397D01*
Y208015D02*
Y208665D01*
Y215393D02*
Y216365D01*
Y224968D02*
Y226126D01*
Y227587D02*
Y227931D01*
Y234373D02*
Y234694D01*
Y243819D02*
Y243854D01*
Y247035D02*
Y247069D01*
X218800Y206294D02*
Y206770D01*
Y208431D02*
Y208828D01*
Y215118D02*
Y216813D01*
Y224976D02*
Y226126D01*
Y227368D02*
Y227664D01*
Y243819D02*
Y243930D01*
Y246958D02*
Y247069D01*
X218900Y206186D02*
Y206445D01*
Y208702D02*
Y208928D01*
Y214866D02*
Y215929D01*
Y216445D02*
Y217113D01*
Y225950D02*
Y226126D01*
Y243819D02*
Y247069D01*
X219000Y206053D02*
Y206203D01*
Y208879D02*
Y209008D01*
Y214766D02*
Y215256D01*
Y216879D02*
Y217288D01*
Y226086D02*
Y226126D01*
Y243819D02*
Y247069D01*
X219100Y206014D02*
Y206103D01*
Y208999D02*
Y209083D01*
Y214660D02*
Y214926D01*
Y217153D02*
Y217388D01*
Y226119D02*
Y226126D01*
Y243819D02*
Y243887D01*
Y245519D02*
X219100D01*
Y247001D02*
Y247069D01*
X219200Y205994D02*
Y206029D01*
Y209119D02*
Y209136D01*
Y214527D02*
Y214677D01*
Y217338D02*
Y217469D01*
Y243819D02*
Y243846D01*
Y245519D02*
X219200D01*
Y247042D02*
Y247069D01*
X219300Y205976D02*
Y205996D01*
Y209159D02*
Y209186D01*
Y214482D02*
Y214575D01*
Y217458D02*
Y217544D01*
Y245519D02*
X219300D01*
Y247069D02*
X219300D01*
X219400Y205960D02*
Y205969D01*
Y209198D02*
Y209213D01*
Y214462D02*
Y214497D01*
Y217578D02*
Y217599D01*
Y245519D02*
X219400D01*
Y247069D02*
X219400D01*
X219500Y205943D02*
Y205944D01*
Y214443D02*
Y214464D01*
Y217623D02*
Y217649D01*
Y224726D02*
Y224731D01*
Y227971D02*
Y227976D01*
Y245519D02*
X219500D01*
Y247068D02*
Y247069D01*
X219600Y209214D02*
Y209217D01*
Y214426D02*
Y214436D01*
Y217661D02*
Y217677D01*
Y224726D02*
Y224764D01*
Y227938D02*
Y227976D01*
Y245449D02*
Y245530D01*
Y247054D02*
Y247067D01*
X219700Y209194D02*
Y209200D01*
Y214410D02*
Y214411D01*
Y224726D02*
Y224858D01*
Y227844D02*
Y227976D01*
Y245187D02*
Y245550D01*
Y247039D02*
Y247055D01*
X219800Y207334D02*
Y207336D01*
Y209152D02*
Y209174D01*
Y217682D02*
Y217683D01*
Y224726D02*
Y224785D01*
Y227626D02*
Y227976D01*
Y244925D02*
Y245432D01*
Y245501D02*
Y245570D01*
Y247025D02*
Y247042D01*
X219900Y207309D02*
Y207336D01*
Y209077D02*
Y209136D01*
Y217662D02*
Y217667D01*
Y224726D02*
Y224749D01*
Y227548D02*
Y227973D01*
Y244664D02*
Y245190D01*
Y245548D02*
Y245610D01*
Y246986D02*
Y247030D01*
X220000Y206122D02*
Y206128D01*
Y207284D02*
Y207336D01*
Y208979D02*
Y209136D01*
Y215801D02*
Y215802D01*
Y217622D02*
Y217643D01*
Y227360D02*
Y227787D01*
Y244402D02*
Y244948D01*
Y245588D02*
Y245650D01*
Y246911D02*
Y247008D01*
X220100Y206173D02*
Y207336D01*
Y208812D02*
Y209138D01*
Y215777D02*
Y215802D01*
Y217547D02*
Y217602D01*
Y227173D02*
Y227601D01*
Y244141D02*
Y244707D01*
Y245634D02*
Y245724D01*
Y246821D02*
Y246958D01*
X220200Y206186D02*
Y207336D01*
Y208600D02*
Y208928D01*
Y214584D02*
Y214588D01*
Y215752D02*
Y215802D01*
Y217455D02*
Y217602D01*
Y226986D02*
Y227416D01*
Y243879D02*
Y244465D01*
Y245694D02*
Y245891D01*
Y246687D02*
Y246908D01*
X220300Y207131D02*
Y207336D01*
Y214636D02*
Y215802D01*
Y217288D02*
Y217602D01*
Y226799D02*
Y227230D01*
Y243819D02*
Y244223D01*
Y245754D02*
Y246825D01*
X220400Y207293D02*
Y207336D01*
Y214652D02*
Y215802D01*
Y217080D02*
Y217428D01*
Y226612D02*
Y227044D01*
Y243819D02*
Y243987D01*
Y245919D02*
Y246700D01*
X220500Y207326D02*
Y207336D01*
Y215579D02*
Y215802D01*
Y226425D02*
Y226858D01*
Y243819D02*
Y243887D01*
X220600Y215757D02*
Y215802D01*
Y226238D02*
Y226673D01*
Y243819D02*
Y243833D01*
X220700Y215790D02*
Y215802D01*
Y226051D02*
Y226487D01*
X220800Y225864D02*
Y226301D01*
Y234638D02*
Y235006D01*
Y236812D02*
Y237030D01*
X220900Y225677D02*
Y226116D01*
Y234538D02*
Y235101D01*
Y236747D02*
Y237280D01*
X221000Y206974D02*
Y207988D01*
Y225489D02*
Y225930D01*
Y234456D02*
Y234588D01*
Y234692D02*
Y235079D01*
Y236759D02*
Y237138D01*
Y237242D02*
Y237380D01*
X221100Y206657D02*
Y208363D01*
Y225302D02*
Y225744D01*
Y234406D02*
Y234446D01*
Y237405D02*
Y237436D01*
Y244605D02*
Y244644D01*
X221200Y206389D02*
Y207472D01*
Y207788D02*
Y208583D01*
Y214402D02*
X221200D01*
Y217636D02*
Y217652D01*
Y225115D02*
Y225558D01*
Y227971D02*
Y227976D01*
Y234356D02*
Y234381D01*
Y237472D02*
Y237486D01*
Y244005D02*
Y244485D01*
Y246021D02*
Y246621D01*
X221300Y206244D02*
Y206770D01*
Y208402D02*
Y208778D01*
Y214402D02*
Y214449D01*
Y217602D02*
Y217652D01*
Y224928D02*
Y225385D01*
Y227938D02*
Y227976D01*
Y234323D02*
Y234367D01*
Y237496D02*
Y237536D01*
Y243904D02*
Y244287D01*
Y245887D02*
Y246771D01*
X221400Y206144D02*
Y206449D01*
Y208652D02*
Y208878D01*
Y214402D02*
Y217652D01*
Y224741D02*
Y225381D01*
Y227844D02*
Y227976D01*
Y234307D02*
Y234352D01*
Y236027D02*
Y236093D01*
Y237512D02*
Y237553D01*
Y243956D02*
Y244162D01*
Y245794D02*
Y246137D01*
Y246657D02*
Y246900D01*
X221500Y206086D02*
Y206253D01*
Y208873D02*
Y208970D01*
Y214402D02*
Y217652D01*
Y227917D02*
Y227976D01*
Y234290D02*
Y234338D01*
Y236016D02*
Y236107D01*
Y237529D02*
Y237569D01*
Y243960D02*
Y244037D01*
Y245714D02*
Y245987D01*
Y246901D02*
Y246967D01*
X221600Y206036D02*
Y206184D01*
Y209019D02*
Y209045D01*
Y214402D02*
Y214577D01*
Y217477D02*
Y217652D01*
Y227953D02*
Y227976D01*
Y234291D02*
Y234344D01*
Y236004D02*
Y236121D01*
Y237521D02*
Y237581D01*
Y243943D02*
Y243974D01*
Y245647D02*
Y245901D01*
Y246978D02*
Y247033D01*
X221700Y205995D02*
Y206124D01*
Y214402D02*
Y214447D01*
Y217604D02*
Y217652D01*
Y234303D02*
Y234361D01*
Y235993D02*
Y236137D01*
Y237501D02*
Y237567D01*
Y245602D02*
Y245835D01*
Y247053D02*
Y247076D01*
X221800Y205955D02*
Y206074D01*
Y214402D02*
Y214414D01*
Y217624D02*
Y217652D01*
Y234314D02*
Y234378D01*
Y235981D02*
Y236046D01*
Y236121D02*
Y236195D01*
Y237481D02*
Y237552D01*
Y245558D02*
Y245783D01*
Y247080D02*
Y247089D01*
X221900Y205936D02*
Y206036D01*
Y214402D02*
Y214414D01*
Y217644D02*
Y217652D01*
Y234325D02*
Y234421D01*
Y235922D02*
Y235988D01*
Y236164D02*
Y236255D01*
Y237409D02*
Y237538D01*
Y245513D02*
Y245733D01*
Y247097D02*
Y247101D01*
X222000Y205936D02*
Y206036D01*
Y214402D02*
Y214439D01*
Y217639D02*
Y217640D01*
Y234357D02*
Y234496D01*
Y235862D02*
Y235931D01*
Y236204D02*
Y236339D01*
Y237334D02*
Y237466D01*
Y245469D02*
Y245691D01*
Y247113D02*
Y247114D01*
X222100Y205939D02*
Y206037D01*
Y214402D02*
Y214464D01*
Y217614D02*
Y217620D01*
Y224726D02*
Y224731D01*
Y227955D02*
Y227976D01*
Y234429D02*
Y234598D01*
Y235770D02*
Y235874D01*
Y236271D02*
Y236473D01*
Y237162D02*
Y237386D01*
Y245413D02*
Y245651D01*
Y247108D02*
Y247110D01*
X222200Y205955D02*
Y206054D01*
Y209218D02*
Y209225D01*
Y214408D02*
Y214489D01*
Y217589D02*
Y217600D01*
Y224726D02*
Y224781D01*
Y227921D02*
Y227976D01*
Y234500D02*
Y234765D01*
Y235603D02*
Y235806D01*
Y236371D02*
Y237283D01*
Y243833D02*
Y243837D01*
Y245356D02*
Y245608D01*
Y247088D02*
Y247096D01*
X222300Y205972D02*
Y206071D01*
Y209201D02*
Y209208D01*
Y214448D02*
Y214526D01*
Y217564D02*
Y217580D01*
Y224726D02*
Y227976D01*
Y234574D02*
Y235726D01*
Y236529D02*
Y237158D01*
Y243846D02*
Y243854D01*
Y245299D02*
Y245558D01*
Y247068D02*
Y247081D01*
X222400Y206004D02*
Y206088D01*
Y209184D02*
Y209192D01*
Y214488D02*
Y214584D01*
Y217520D02*
Y217560D01*
Y224726D02*
Y227976D01*
Y234724D02*
Y235632D01*
Y243858D02*
Y243870D01*
Y245236D02*
Y245508D01*
Y247019D02*
Y247051D01*
X222500Y206071D02*
Y206145D01*
Y209114D02*
Y209169D01*
Y214544D02*
Y214641D01*
Y217437D02*
Y217504D01*
Y224726D02*
Y224870D01*
Y227832D02*
Y227976D01*
Y234955D02*
Y235345D01*
Y243887D02*
Y243940D01*
Y245161D02*
Y245458D01*
Y246969D02*
Y246985D01*
X222600Y206138D02*
Y206205D01*
Y209039D02*
Y209144D01*
Y214604D02*
Y214698D01*
Y217353D02*
Y217437D01*
Y224726D02*
Y224766D01*
Y227931D02*
Y227976D01*
Y243954D02*
Y244015D01*
Y245071D02*
Y245387D01*
Y246878D02*
Y246969D01*
X222700Y206245D02*
Y206299D01*
Y208925D02*
Y209136D01*
Y214669D02*
Y214810D01*
Y217251D02*
Y217371D01*
Y224726D02*
Y224733D01*
Y227951D02*
Y227976D01*
Y244020D02*
Y244213D01*
Y244937D02*
Y245287D01*
Y246778D02*
Y246987D01*
X222800Y206395D02*
Y206499D01*
Y208800D02*
Y209138D01*
Y214744D02*
Y214963D01*
Y217045D02*
Y217304D01*
Y224726D02*
Y224742D01*
Y227971D02*
Y227976D01*
Y244126D02*
Y245186D01*
Y246586D02*
Y247020D01*
X222900Y206612D02*
Y206699D01*
Y208623D02*
Y208948D01*
Y214860D02*
Y215293D01*
Y216760D02*
Y217210D01*
Y224726D02*
Y224767D01*
Y227960D02*
Y227961D01*
Y244276D02*
Y245020D01*
X223000Y215029D02*
Y217074D01*
Y224726D02*
Y224792D01*
Y227935D02*
Y227941D01*
X223100Y215331D02*
Y216772D01*
Y224739D02*
Y224817D01*
Y227910D02*
Y227921D01*
Y237531D02*
Y237534D01*
X223200Y224779D02*
Y224859D01*
Y227885D02*
Y227901D01*
Y237497D02*
Y237534D01*
X223300Y224819D02*
Y224917D01*
Y227831D02*
Y227881D01*
Y237355D02*
Y237534D01*
X223400Y224877D02*
Y224974D01*
Y227748D02*
Y227818D01*
Y236908D02*
Y237534D01*
X223500Y224937D02*
Y225031D01*
Y227664D02*
Y227751D01*
Y236487D02*
Y237534D01*
X223600Y225005D02*
Y225155D01*
Y227544D02*
Y227685D01*
Y236065D02*
Y236993D01*
Y237471D02*
Y237534D01*
Y246639D02*
Y246780D01*
X223700Y225080D02*
Y225334D01*
Y227331D02*
Y227618D01*
Y235644D02*
Y236565D01*
Y237523D02*
Y237534D01*
Y246818D02*
Y247069D01*
X223800Y225210D02*
Y225726D01*
Y226976D02*
Y227513D01*
Y235222D02*
Y236138D01*
Y246951D02*
Y247069D01*
X223900Y225400D02*
Y227352D01*
Y234801D02*
Y235711D01*
Y246992D02*
Y247069D01*
X224000Y225710D02*
Y227042D01*
Y234379D02*
Y235283D01*
Y247024D02*
Y247069D01*
X224100Y234306D02*
Y234896D01*
Y247049D02*
Y247069D01*
X224200Y205936D02*
Y205961D01*
Y208918D02*
Y208938D01*
Y234699D02*
Y234887D01*
Y243819D02*
Y243820D01*
X224300Y205936D02*
Y206058D01*
Y208885D02*
Y208971D01*
Y235093D02*
Y235201D01*
Y243819D02*
Y243854D01*
X224400Y205936D02*
Y209028D01*
Y214402D02*
Y214424D01*
Y217386D02*
Y217402D01*
Y235486D02*
Y235610D01*
Y243819D02*
Y243930D01*
Y247068D02*
Y247069D01*
X224500Y205936D02*
Y209128D01*
Y214402D02*
Y214508D01*
Y217352D02*
Y217435D01*
Y235879D02*
Y236019D01*
Y243819D02*
Y247069D01*
X224600Y205936D02*
Y206240D01*
Y214402D02*
Y217488D01*
Y236273D02*
Y236428D01*
Y243819D02*
Y247069D01*
X224700Y205936D02*
Y206003D01*
Y214402D02*
Y217588D01*
Y236666D02*
Y236837D01*
Y237531D02*
Y237534D01*
Y243819D02*
Y243887D01*
Y247069D02*
X224700D01*
X224800Y205936D02*
Y205972D01*
Y214402D02*
Y214724D01*
Y237059D02*
Y237226D01*
Y237412D02*
Y237534D01*
Y243819D02*
Y243846D01*
Y247069D02*
X224800D01*
X224900Y205936D02*
Y205952D01*
Y214402D02*
Y214477D01*
Y237309D02*
Y237534D01*
Y243819D02*
X224900D01*
Y247069D02*
X224900D01*
X225000Y214402D02*
Y214440D01*
Y237471D02*
Y237534D01*
Y247055D02*
Y247069D01*
X225100Y214402D02*
Y214420D01*
Y237523D02*
Y237534D01*
Y247030D02*
Y247069D01*
X225200Y247001D02*
Y247069D01*
X225300Y246968D02*
Y247069D01*
X225400Y246808D02*
Y247069D01*
X225500Y246586D02*
Y246807D01*
X390400Y126474D02*
Y126504D01*
Y129694D02*
Y129724D01*
X390500Y126474D02*
Y126560D01*
Y129638D02*
Y129724D01*
X390600Y126474D02*
Y129724D01*
X390700Y126474D02*
Y129724D01*
X390800Y126474D02*
Y126564D01*
Y128224D02*
X390800D01*
Y129634D02*
Y129724D01*
X390900Y126474D02*
Y126505D01*
Y128224D02*
X390900D01*
Y129693D02*
Y129724D01*
X391000Y126474D02*
X391000D01*
Y128224D02*
X391000D01*
Y129724D02*
X391000D01*
X391100Y126474D02*
X391100D01*
Y128224D02*
X391100D01*
X391200Y126474D02*
X391200D01*
Y128224D02*
X391200D01*
X391300Y126474D02*
X391300D01*
Y128218D02*
Y128224D01*
Y129708D02*
Y129724D01*
X391400Y126474D02*
Y126481D01*
Y128203D02*
Y128243D01*
Y129692D02*
Y129718D01*
X391500Y126487D02*
Y126498D01*
Y128189D02*
Y128263D01*
Y129675D02*
Y129705D01*
X391600Y126499D02*
Y126515D01*
Y128175D02*
Y128298D01*
Y129638D02*
Y129693D01*
X391700Y126512D02*
Y126548D01*
Y128123D02*
Y128149D01*
Y128304D02*
Y128373D01*
Y129598D02*
Y129680D01*
X391800Y126531D02*
Y126623D01*
Y128063D02*
Y128106D01*
Y128354D02*
Y128456D01*
Y129542D02*
Y129644D01*
X391900Y126588D02*
Y126708D01*
Y127988D02*
Y128063D01*
Y128404D02*
Y128589D01*
Y129409D02*
Y129594D01*
X392000Y126645D02*
Y126875D01*
Y127788D02*
Y128004D01*
Y128494D02*
Y129013D01*
Y129034D02*
Y129544D01*
X392100Y126702D02*
Y127313D01*
Y127335D02*
Y127904D01*
Y128594D02*
Y129395D01*
X392200Y126815D02*
Y127804D01*
Y129024D02*
Y129026D01*
X392300Y126940D02*
Y127567D01*
X393000Y126474D02*
Y126839D01*
Y128763D02*
Y129138D01*
X393100Y126474D02*
Y126674D01*
Y126844D02*
Y126968D01*
Y128738D02*
Y129382D01*
X393200Y126474D02*
Y126674D01*
Y126951D02*
Y127093D01*
Y128743D02*
Y129114D01*
Y129379D02*
Y129532D01*
X393300Y126474D02*
Y126674D01*
Y127071D02*
Y127215D01*
Y129494D02*
Y129618D01*
X393400Y126474D02*
Y126674D01*
Y127191D02*
Y127335D01*
Y129583D02*
Y129668D01*
X393500Y126474D02*
Y126674D01*
Y127306D02*
Y127452D01*
Y129650D02*
Y129718D01*
X393600Y126474D02*
Y126674D01*
Y127420D02*
Y127552D01*
Y129685D02*
Y129738D01*
X393700Y126474D02*
Y126674D01*
Y127534D02*
Y127652D01*
Y129705D02*
Y129752D01*
X393800Y126474D02*
Y126674D01*
Y127644D02*
Y127752D01*
Y129724D02*
Y129766D01*
X393900Y126474D02*
Y126674D01*
Y127744D02*
Y127852D01*
Y129708D02*
Y129768D01*
X394000Y126474D02*
Y126674D01*
Y127844D02*
Y127952D01*
Y129692D02*
Y129755D01*
X394100Y126474D02*
Y126674D01*
Y127944D02*
Y128052D01*
Y129675D02*
Y129743D01*
X394200Y126474D02*
Y126674D01*
Y128044D02*
Y128182D01*
Y129612D02*
Y129730D01*
X394300Y126474D02*
Y126688D01*
Y128144D02*
Y128332D01*
Y129537D02*
Y129681D01*
X394400Y126474D02*
Y126721D01*
Y128244D02*
Y128537D01*
Y129388D02*
Y129615D01*
X394500Y126474D02*
Y126780D01*
Y128369D02*
Y128964D01*
Y128984D02*
Y129548D01*
X394600Y126474D02*
Y126863D01*
Y128536D02*
Y129395D01*
X394700Y126843D02*
Y127137D01*
Y128781D02*
Y128978D01*
X400900Y126183D02*
Y126199D01*
Y129417D02*
Y129433D01*
X401000Y126183D02*
Y126232D01*
Y129383D02*
Y129433D01*
X401100Y126183D02*
Y129433D01*
X401200Y126183D02*
Y129433D01*
X401300Y126183D02*
Y126360D01*
Y127906D02*
Y127960D01*
Y129256D02*
Y129433D01*
X401400Y126183D02*
Y126228D01*
Y127933D02*
X401400D01*
Y129387D02*
Y129433D01*
X401500Y126183D02*
Y126195D01*
Y127933D02*
X401500D01*
Y129421D02*
Y129433D01*
X401600Y126183D02*
X401600D01*
Y127933D02*
X401600D01*
X401700Y126183D02*
X401700D01*
Y127933D02*
X401700D01*
X401800Y126183D02*
X401800D01*
Y127932D02*
Y127933D01*
Y129424D02*
Y129433D01*
X401900Y126183D02*
X401900D01*
Y127918D02*
Y127943D01*
Y129407D02*
Y129432D01*
X402000Y126190D02*
Y126200D01*
Y127904D02*
Y127963D01*
Y129391D02*
Y129419D01*
X402100Y126203D02*
Y126216D01*
Y127890D02*
Y127983D01*
Y129364D02*
Y129407D01*
X402200Y126215D02*
Y126233D01*
Y127858D02*
Y127876D01*
Y127991D02*
Y128049D01*
Y129324D02*
Y129394D01*
X402300Y126228D02*
Y126299D01*
Y127798D02*
Y127833D01*
Y128041D02*
Y128124D01*
Y129284D02*
Y129374D01*
X402400Y126272D02*
Y126374D01*
Y127738D02*
Y127790D01*
Y128091D02*
Y128240D01*
Y129175D02*
Y129324D01*
X402500Y126329D02*
Y126512D01*
Y127583D02*
Y127747D01*
Y128159D02*
Y128419D01*
Y129003D02*
Y129274D01*
X402600Y126386D02*
Y126719D01*
Y127347D02*
Y127656D01*
Y128259D02*
Y129176D01*
X402700Y126470D02*
Y127556D01*
Y128516D02*
Y128995D01*
X402800Y126595D02*
Y127384D01*
X404100Y126183D02*
Y126205D01*
Y129167D02*
Y129183D01*
X404200Y126183D02*
Y126287D01*
Y129133D02*
Y129215D01*
X404300Y126183D02*
Y129268D01*
X404400Y126183D02*
Y129368D01*
X404500Y126183D02*
Y126508D01*
X404600Y126183D02*
Y126260D01*
X404700Y126183D02*
Y126221D01*
X404800Y126183D02*
Y126201D01*
X411800Y126037D02*
Y126060D01*
X411900Y126037D02*
Y126095D01*
X412000Y126037D02*
Y126382D01*
X412100Y126037D02*
Y126224D01*
Y126425D02*
Y126763D01*
X412200Y126037D02*
Y126043D01*
Y126875D02*
Y127145D01*
X412300Y127281D02*
Y127526D01*
X412400Y127287D02*
X412400D01*
Y127659D02*
Y127907D01*
X412500Y127287D02*
X412500D01*
Y128072D02*
Y128288D01*
X412600Y127287D02*
X412600D01*
Y128484D02*
Y128670D01*
X412700Y127287D02*
X412700D01*
Y128897D02*
Y129051D01*
X412800Y127287D02*
X412800D01*
Y129037D02*
Y129301D01*
X412900Y127287D02*
X412900D01*
Y128867D02*
Y129321D01*
X413000Y127287D02*
X413000D01*
Y128395D02*
Y129064D01*
X413100Y127287D02*
X413100D01*
Y127924D02*
Y128651D01*
X413200Y127287D02*
Y127295D01*
Y127452D02*
Y128238D01*
X413300Y127123D02*
Y127824D01*
X413400Y126037D02*
Y126045D01*
Y126673D02*
Y127411D01*
X413500Y126037D02*
Y126998D01*
X413600Y126037D02*
Y126584D01*
X413700Y126037D02*
Y126232D01*
X413800Y126037D02*
Y126093D01*
X413900Y126037D02*
Y126059D01*
X414500Y126037D02*
Y126373D01*
Y128346D02*
Y128623D01*
X414600Y126037D02*
Y126237D01*
Y126384D02*
Y126503D01*
Y128307D02*
Y128912D01*
X414700Y126037D02*
Y126237D01*
Y126487D02*
Y126628D01*
Y128299D02*
Y128722D01*
Y128875D02*
Y129062D01*
X414800Y126037D02*
Y126237D01*
Y126607D02*
Y126751D01*
Y128375D02*
Y128499D01*
Y129034D02*
Y129169D01*
X414900Y126037D02*
Y126237D01*
Y126727D02*
Y126871D01*
Y129132D02*
Y129219D01*
X415000Y126037D02*
Y126237D01*
Y126843D02*
Y126991D01*
Y129198D02*
Y129269D01*
X415100Y126037D02*
Y126237D01*
Y126958D02*
Y127093D01*
Y129243D02*
Y129297D01*
X415200Y126037D02*
Y126237D01*
Y127072D02*
Y127193D01*
Y129263D02*
Y129312D01*
X415300Y126037D02*
Y126237D01*
Y127184D02*
Y127293D01*
Y129283D02*
Y129326D01*
X415400Y126037D02*
Y126237D01*
Y127284D02*
Y127393D01*
Y129275D02*
Y129333D01*
X415500Y126037D02*
Y126237D01*
Y127384D02*
Y127493D01*
Y129258D02*
Y129321D01*
X415600Y126037D02*
Y126237D01*
Y127484D02*
Y127593D01*
Y129242D02*
Y129308D01*
X415700Y126037D02*
Y126237D01*
Y127584D02*
Y127712D01*
Y129192D02*
Y129296D01*
X415800Y126037D02*
Y126243D01*
Y127684D02*
Y127862D01*
Y129117D02*
Y129259D01*
X415900Y126037D02*
Y126277D01*
Y127784D02*
Y128044D01*
Y128996D02*
Y129192D01*
X416000Y126037D02*
Y126328D01*
Y127895D02*
Y128393D01*
Y128681D02*
Y129126D01*
X416100Y126037D02*
Y126395D01*
Y128062D02*
Y128995D01*
X416200Y126216D02*
Y126644D01*
Y128288D02*
Y128697D01*
X422400Y126255D02*
Y126273D01*
X422500Y126255D02*
Y126306D01*
X422600Y126255D02*
Y126541D01*
X422700Y126255D02*
Y126504D01*
Y126596D02*
Y126922D01*
X422800Y126255D02*
Y126273D01*
Y127016D02*
Y127303D01*
X422900Y127486D02*
Y127685D01*
X423000Y127505D02*
X423000D01*
Y127813D02*
Y128066D01*
X423100Y127505D02*
X423100D01*
Y128226D02*
Y128447D01*
X423200Y127505D02*
X423200D01*
Y128638D02*
Y128828D01*
X423300Y127505D02*
X423300D01*
Y129051D02*
Y129210D01*
X423400Y127505D02*
X423400D01*
Y129255D02*
Y129516D01*
X423500Y127505D02*
X423500D01*
Y129158D02*
Y129536D01*
X423600Y127505D02*
X423600D01*
Y128686D02*
Y129346D01*
X423700Y127505D02*
X423700D01*
Y128215D02*
Y128933D01*
X423800Y127505D02*
Y127506D01*
Y127743D02*
Y128519D01*
X423900Y127410D02*
Y128106D01*
X424000Y126255D02*
Y126256D01*
Y126960D02*
Y127693D01*
X424100Y126255D02*
Y127279D01*
X424200Y126255D02*
Y126866D01*
X424300Y126255D02*
Y126473D01*
X424400Y126255D02*
Y126323D01*
X424500Y126255D02*
Y126282D01*
X425700Y126255D02*
Y126280D01*
Y129237D02*
Y129256D01*
X425800Y126255D02*
Y126373D01*
Y129204D02*
Y129289D01*
X425900Y126255D02*
Y129345D01*
X426000Y126255D02*
Y129445D01*
X426100Y126255D02*
Y126563D01*
X426200Y126255D02*
Y126323D01*
X426300Y126255D02*
Y126292D01*
X426400Y126255D02*
Y126272D01*
X442900Y156740D02*
Y156745D01*
Y159986D02*
Y159990D01*
X443000Y156740D02*
Y156778D01*
Y159953D02*
Y159990D01*
X443100Y156740D02*
Y156871D01*
Y159859D02*
Y159990D01*
X443200Y156740D02*
Y159990D01*
X443300Y156740D02*
Y159990D01*
X443400Y156740D02*
Y156799D01*
Y159931D02*
Y159990D01*
X443500Y156740D02*
Y156764D01*
Y159967D02*
Y159990D01*
X443600Y156740D02*
X443600D01*
X443700D02*
X443700D01*
X443800D02*
X443800D01*
X443900D02*
X443900D01*
X444000D02*
X444000D01*
X444100D02*
Y156743D01*
X444200Y156740D02*
Y156760D01*
X444300Y156740D02*
Y156777D01*
X444400Y156740D02*
Y156795D01*
X444500Y156740D02*
Y156845D01*
X444600Y156740D02*
Y156895D01*
X444700Y156740D02*
Y157012D01*
X444800Y156965D02*
Y157137D01*
X444900Y157340D02*
Y157396D01*
X445400Y156740D02*
Y156745D01*
Y159986D02*
Y159990D01*
X445500Y156740D02*
Y156778D01*
Y159953D02*
Y159990D01*
X445600Y156740D02*
Y156871D01*
Y159859D02*
Y159990D01*
X445700Y156740D02*
Y159990D01*
X445800Y156740D02*
Y159990D01*
X445900Y156740D02*
Y156799D01*
Y159931D02*
Y159990D01*
X446000Y156740D02*
Y156764D01*
Y159967D02*
Y159990D01*
X446100Y156740D02*
X446100D01*
Y159990D02*
X446100D01*
X446200Y156740D02*
X446200D01*
Y159990D02*
X446200D01*
X446300Y156740D02*
X446300D01*
Y159990D02*
X446300D01*
X446400Y156740D02*
X446400D01*
Y159990D02*
X446400D01*
X446500Y156740D02*
X446500D01*
Y158474D02*
Y158490D01*
Y159990D02*
X446500D01*
X446600Y156740D02*
Y156744D01*
Y158449D02*
Y158490D01*
Y159990D02*
X446600D01*
X446700Y156740D02*
Y156764D01*
Y158390D02*
Y158541D01*
Y159974D02*
Y159990D01*
X446800Y156740D02*
Y156784D01*
Y158234D02*
Y158641D01*
Y159949D02*
Y159990D01*
X446900Y156740D02*
Y156815D01*
Y159903D02*
Y159990D01*
X447000Y156740D02*
Y156855D01*
Y159836D02*
Y159990D01*
X447100Y156740D02*
Y156895D01*
Y159740D02*
Y159990D01*
X447200Y156740D02*
Y157046D01*
Y159640D02*
Y159963D01*
X447300Y156965D02*
Y157221D01*
Y159485D02*
Y159638D01*
X447400Y157340D02*
Y157421D01*
X447900Y156740D02*
Y156745D01*
Y159969D02*
Y159990D01*
X448000Y156740D02*
Y156795D01*
Y159936D02*
Y159990D01*
X448100Y156740D02*
Y159990D01*
X448200Y156740D02*
Y159990D01*
X448300Y156740D02*
Y156886D01*
Y159845D02*
Y159990D01*
X448400Y156740D02*
Y156781D01*
Y159946D02*
Y159990D01*
X448500Y156740D02*
Y156747D01*
Y159966D02*
Y159990D01*
X448600Y156740D02*
Y156757D01*
Y159986D02*
Y159990D01*
X448700Y156740D02*
Y156782D01*
Y159974D02*
Y159975D01*
X448800Y156740D02*
Y156807D01*
Y159949D02*
Y159955D01*
X448900Y156753D02*
Y156832D01*
Y159924D02*
Y159935D01*
X449000Y156793D02*
Y156874D01*
Y159899D02*
Y159915D01*
X449100Y156833D02*
Y156931D01*
Y159846D02*
Y159895D01*
X449200Y156892D02*
Y156988D01*
Y159763D02*
Y159833D01*
X449300Y156952D02*
Y157045D01*
Y159679D02*
Y159766D01*
X449400Y157019D02*
Y157169D01*
Y159559D02*
Y159699D01*
X449500Y157094D02*
Y157346D01*
Y159347D02*
Y159633D01*
X449600Y157223D02*
Y157737D01*
Y158994D02*
Y159529D01*
X449700Y157413D02*
Y159368D01*
X449800Y157722D02*
Y159059D01*
X450400Y158390D02*
Y158490D01*
X450500Y158390D02*
Y158490D01*
X450600Y158390D02*
Y158490D01*
X450700Y158390D02*
Y158490D01*
X450800Y158390D02*
Y158490D01*
X450900Y158390D02*
Y158490D01*
X451000Y158390D02*
Y158490D01*
X451100Y158390D02*
Y158490D01*
X451200Y158390D02*
Y158490D01*
X451300Y158390D02*
Y158490D01*
X451400Y157290D02*
Y159590D01*
X451500Y158381D02*
Y158499D01*
X451600Y158390D02*
Y158490D01*
X451700Y158390D02*
Y158490D01*
X451800Y158390D02*
Y158490D01*
X451900Y158390D02*
Y158490D01*
X452000Y158390D02*
Y158490D01*
X452100Y158390D02*
Y158490D01*
X452200Y158390D02*
Y158490D01*
X452300Y158390D02*
Y158490D01*
X452400Y158390D02*
Y158490D01*
X459700Y291483D02*
Y292443D01*
X459800Y291208D02*
Y292896D01*
X459900Y290954D02*
Y292030D01*
Y292523D02*
Y293196D01*
X460000Y290854D02*
Y291347D01*
Y292962D02*
Y293373D01*
X460100Y290748D02*
Y291016D01*
Y293236D02*
Y293473D01*
X460200Y290615D02*
Y290766D01*
Y293423D02*
Y293555D01*
X460300Y290568D02*
Y290663D01*
Y293543D02*
Y293630D01*
X460400Y273822D02*
Y273842D01*
Y277051D02*
Y277072D01*
Y290548D02*
Y290584D01*
Y293663D02*
Y293685D01*
X460500Y273822D02*
Y273876D01*
Y277018D02*
Y277072D01*
Y290530D02*
Y290551D01*
Y293710D02*
Y293735D01*
X460600Y273822D02*
Y277072D01*
Y290513D02*
Y290523D01*
Y293747D02*
Y293763D01*
X460700Y273822D02*
Y277072D01*
Y290497D02*
Y290498D01*
X460800Y273822D02*
Y273970D01*
Y275562D02*
Y275582D01*
Y276924D02*
Y277072D01*
Y293768D02*
Y293770D01*
X460900Y273822D02*
Y273862D01*
Y275572D02*
X460900D01*
Y277031D02*
Y277072D01*
Y293748D02*
Y293754D01*
X461000Y273822D02*
Y273829D01*
Y275572D02*
X461000D01*
Y277065D02*
Y277072D01*
Y291888D02*
X461000D01*
Y293710D02*
Y293730D01*
X461100Y273822D02*
X461100D01*
Y275572D02*
X461100D01*
Y291864D02*
Y291888D01*
Y293635D02*
Y293688D01*
X461200Y273822D02*
X461200D01*
Y275572D02*
X461200D01*
Y290670D02*
Y290673D01*
Y291839D02*
Y291888D01*
Y293544D02*
Y293688D01*
X461300Y273822D02*
X461300D01*
Y275569D02*
Y275572D01*
Y277061D02*
Y277072D01*
Y290722D02*
Y291888D01*
Y293377D02*
Y293689D01*
X461400Y273822D02*
Y273824D01*
Y275555D02*
Y275585D01*
Y277044D02*
Y277069D01*
Y290738D02*
Y291888D01*
Y293170D02*
Y293522D01*
X461500Y273831D02*
Y273841D01*
Y275541D02*
Y275605D01*
Y277027D02*
Y277056D01*
Y291662D02*
Y291888D01*
X461600Y273843D02*
Y273858D01*
Y275527D02*
Y275626D01*
Y276998D02*
Y277044D01*
Y291843D02*
Y291888D01*
X461700Y273856D02*
Y273876D01*
Y275488D02*
Y275509D01*
Y275638D02*
Y275699D01*
Y276958D02*
Y277031D01*
Y291876D02*
Y291888D01*
X461800Y273868D02*
Y273949D01*
Y275428D02*
Y275466D01*
Y275688D02*
Y275774D01*
Y276918D02*
Y277006D01*
X461900Y273919D02*
Y274024D01*
Y275368D02*
Y275423D01*
Y275738D02*
Y275899D01*
Y276795D02*
Y276956D01*
X462000Y273977D02*
Y274175D01*
Y275193D02*
Y275380D01*
Y275813D02*
Y276159D01*
Y276555D02*
Y276906D01*
X462100Y274034D02*
Y274459D01*
Y274885D02*
Y275281D01*
Y275913D02*
Y276791D01*
Y290488D02*
Y290489D01*
Y293738D02*
X462100D01*
X462200Y274127D02*
Y275181D01*
Y276227D02*
Y276547D01*
Y290488D02*
Y290521D01*
Y293706D02*
Y293738D01*
X462300Y274252D02*
Y274987D01*
Y290488D02*
Y290587D01*
Y293640D02*
Y293738D01*
X462400Y290488D02*
Y290566D01*
Y293388D02*
Y293738D01*
X462500Y290488D02*
Y290517D01*
Y293341D02*
Y293738D01*
X462600Y293154D02*
Y293581D01*
X462700Y292967D02*
Y293395D01*
X462800Y273822D02*
Y273842D01*
Y292780D02*
Y293209D01*
X462900Y273822D02*
Y273876D01*
Y292593D02*
Y293023D01*
X463000Y273822D02*
Y274142D01*
Y292406D02*
Y292838D01*
X463100Y273822D02*
Y274035D01*
Y274190D02*
Y274523D01*
Y292219D02*
Y292652D01*
X463200Y273822D02*
Y273832D01*
Y274627D02*
Y274904D01*
Y292032D02*
Y292466D01*
X463300Y275062D02*
Y275286D01*
Y291845D02*
Y292281D01*
X463400Y275072D02*
X463400D01*
Y275417D02*
Y275667D01*
Y291658D02*
Y292095D01*
X463500Y275072D02*
X463500D01*
Y275829D02*
Y276048D01*
Y291470D02*
Y291909D01*
X463600Y275072D02*
X463600D01*
Y276242D02*
Y276429D01*
Y291283D02*
Y291723D01*
X463700Y275072D02*
X463700D01*
Y276654D02*
Y276811D01*
Y291096D02*
Y291538D01*
X463800Y275072D02*
X463800D01*
Y276822D02*
Y277085D01*
Y290909D02*
Y291352D01*
Y293738D02*
X463800D01*
X463900Y275072D02*
X463900D01*
Y276682D02*
Y277105D01*
Y290722D02*
Y291166D01*
Y293706D02*
Y293738D01*
X464000Y275072D02*
X464000D01*
Y276211D02*
Y276876D01*
Y290535D02*
Y291139D01*
Y293640D02*
Y293738D01*
X464100Y275072D02*
X464100D01*
Y275740D02*
Y276463D01*
Y293660D02*
Y293738D01*
X464200Y275072D02*
Y275076D01*
Y275268D02*
Y276049D01*
Y293710D02*
Y293738D01*
X464300Y274937D02*
Y275636D01*
X464400Y273822D02*
Y273826D01*
Y274487D02*
Y275223D01*
X464500Y273822D02*
Y274809D01*
X464600Y273822D02*
Y274396D01*
X464700Y273822D02*
Y274027D01*
Y290488D02*
Y290489D01*
Y293723D02*
Y293738D01*
X464800Y273822D02*
Y273882D01*
Y290488D02*
Y290535D01*
Y293689D02*
Y293738D01*
X464900Y273822D02*
Y273846D01*
Y290488D02*
Y293738D01*
X465000Y290488D02*
Y293738D01*
X465100Y290488D02*
Y290666D01*
Y293560D02*
Y293738D01*
X465200Y290488D02*
Y290534D01*
Y293690D02*
Y293738D01*
X465300Y276429D02*
Y276441D01*
Y290488D02*
Y290501D01*
Y293710D02*
Y293738D01*
X465400Y276662D02*
Y276816D01*
Y290488D02*
Y290501D01*
Y293730D02*
Y293738D01*
X465500Y276832D02*
Y277072D01*
Y290488D02*
Y290526D01*
Y293726D02*
X465500D01*
X465600Y276962D02*
Y277072D01*
Y290488D02*
Y290551D01*
Y293701D02*
Y293706D01*
X465700Y276998D02*
Y277072D01*
Y290494D02*
Y290576D01*
Y293676D02*
Y293686D01*
X465800Y277028D02*
Y277072D01*
Y290534D02*
Y290612D01*
Y293651D02*
Y293666D01*
X465900Y277053D02*
Y277072D01*
Y290574D02*
Y290670D01*
Y293608D02*
Y293646D01*
X466000Y273822D02*
Y273826D01*
Y290630D02*
Y290727D01*
Y293524D02*
Y293592D01*
X466100Y273822D02*
Y273859D01*
Y290690D02*
Y290784D01*
Y293441D02*
Y293525D01*
X466200Y273822D02*
Y273950D01*
Y277068D02*
Y277072D01*
Y290755D02*
Y290895D01*
Y293340D02*
Y293458D01*
X466300Y273822D02*
Y277072D01*
Y290830D02*
Y291046D01*
Y293135D02*
Y293392D01*
X466400Y273822D02*
Y277072D01*
Y290944D02*
Y291371D01*
Y292856D02*
Y293298D01*
X466500Y273822D02*
Y273882D01*
Y277072D02*
X466500D01*
Y291112D02*
Y293165D01*
X466600Y273822D02*
Y273846D01*
Y277072D02*
X466600D01*
Y291413D02*
Y292864D01*
X466700Y277072D02*
X466700D01*
X466800Y277056D02*
Y277072D01*
X466900Y277031D02*
Y277072D01*
X467000Y277001D02*
Y277072D01*
X467100Y276968D02*
Y277072D01*
X467200Y276793D02*
Y277072D01*
X467300Y276569D02*
Y276766D01*
X480600Y143913D02*
Y143941D01*
Y146465D02*
Y146493D01*
X480700Y143913D02*
Y146493D01*
X480800Y143913D02*
Y146493D01*
X480900Y143913D02*
Y143928D01*
Y146478D02*
Y146493D01*
X481500Y183401D02*
Y184432D01*
X481600Y143913D02*
Y143923D01*
Y183126D02*
Y184753D01*
X481700Y143913D02*
Y143950D01*
Y182990D02*
Y183339D01*
Y184689D02*
Y184974D01*
X481800Y143913D02*
Y144000D01*
Y182882D02*
Y183031D01*
Y184954D02*
Y185074D01*
X481900Y143913D02*
Y144091D01*
Y182765D02*
Y182849D01*
Y185092D02*
Y185152D01*
X482000Y144157D02*
Y144216D01*
Y182745D02*
Y182755D01*
Y185212D02*
Y185218D01*
X482600Y183788D02*
Y183792D01*
Y185198D02*
Y185232D01*
X482700Y183748D02*
Y183792D01*
Y185082D02*
Y185232D01*
X482800Y182892D02*
Y183792D01*
Y184903D02*
Y185172D01*
X482900Y183649D02*
Y183792D01*
X483000Y183783D02*
Y183792D01*
X483100Y143913D02*
Y143932D01*
Y146473D02*
Y146493D01*
X483200Y143913D02*
Y146493D01*
X483300Y143913D02*
Y146493D01*
X483400Y143913D02*
Y143935D01*
Y146471D02*
Y146493D01*
X483500Y182692D02*
Y182711D01*
Y185254D02*
Y185272D01*
X483600Y182692D02*
Y182765D01*
Y185009D02*
Y185272D01*
X483700Y182692D02*
Y182695D01*
Y184988D02*
Y185272D01*
X483800Y184801D02*
Y185100D01*
X483900Y184614D02*
Y184915D01*
X484000Y184427D02*
Y184729D01*
X484100Y184240D02*
Y184543D01*
X484200Y184053D02*
Y184357D01*
X484300Y183866D02*
Y184172D01*
X484400Y183679D02*
Y183986D01*
X484500Y143913D02*
Y143932D01*
Y146473D02*
Y146493D01*
Y183492D02*
Y183800D01*
X484600Y143913D02*
Y143978D01*
Y146231D02*
Y146493D01*
Y183305D02*
Y183615D01*
X484700Y143913D02*
Y143915D01*
Y146201D02*
Y146493D01*
Y183117D02*
Y183429D01*
Y243878D02*
Y244477D01*
X484800Y146014D02*
Y146313D01*
Y182930D02*
Y183243D01*
Y243540D02*
Y245030D01*
X484900Y145827D02*
Y146128D01*
Y182743D02*
Y183192D01*
Y185228D02*
Y185272D01*
Y243252D02*
Y245250D01*
X485000Y145640D02*
Y145942D01*
Y185249D02*
Y185272D01*
Y243044D02*
Y243667D01*
Y245057D02*
Y245470D01*
X485100Y145453D02*
Y145756D01*
Y242944D02*
Y243334D01*
Y245307D02*
Y245595D01*
X485200Y145266D02*
Y145571D01*
Y242865D02*
Y243091D01*
Y245548D02*
Y245695D01*
X485300Y145079D02*
Y145385D01*
Y204590D02*
Y205809D01*
Y242815D02*
Y242970D01*
Y245736D02*
Y245773D01*
X485400Y144892D02*
Y145199D01*
Y204283D02*
Y206095D01*
Y242770D02*
Y242904D01*
Y245836D02*
Y245848D01*
X485500Y144705D02*
Y145013D01*
Y185267D02*
Y185272D01*
Y204026D02*
Y204893D01*
Y205721D02*
Y206315D01*
Y242730D02*
Y242853D01*
X485600Y144518D02*
Y144828D01*
Y182692D02*
Y182776D01*
Y185189D02*
Y185272D01*
Y203911D02*
Y204390D01*
Y206141D02*
Y206486D01*
Y242694D02*
Y242803D01*
X485700Y144331D02*
Y144642D01*
Y182692D02*
Y185272D01*
Y203813D02*
Y204096D01*
Y206391D02*
Y206586D01*
Y242694D02*
Y242794D01*
X485800Y144143D02*
Y144456D01*
Y182692D02*
Y182765D01*
Y185200D02*
Y185272D01*
Y203763D02*
Y203925D01*
Y206601D02*
Y206673D01*
Y242694D02*
Y242794D01*
X485900Y143956D02*
Y144413D01*
Y146441D02*
Y146493D01*
Y182692D02*
Y182695D01*
Y185262D02*
Y185272D01*
Y203714D02*
Y203858D01*
Y206727D02*
Y206748D01*
Y242707D02*
Y242806D01*
Y245983D02*
Y245990D01*
X486000Y146471D02*
Y146493D01*
Y203674D02*
Y203801D01*
Y242724D02*
Y242822D01*
Y245967D02*
Y245974D01*
X486100Y182692D02*
Y182702D01*
Y203634D02*
Y203751D01*
Y242740D02*
Y242839D01*
Y245950D02*
Y245957D01*
X486200Y182692D02*
Y182727D01*
Y203624D02*
Y203724D01*
Y242802D02*
Y242879D01*
Y245904D02*
Y245938D01*
X486300Y182713D02*
Y182752D01*
Y203624D02*
Y203724D01*
Y242869D02*
Y242939D01*
Y245829D02*
Y245913D01*
X486400Y182753D02*
Y182804D01*
Y203630D02*
Y203728D01*
Y206919D02*
X486400D01*
Y242941D02*
Y242999D01*
Y245736D02*
Y245894D01*
X486500Y182806D02*
Y182861D01*
Y185125D02*
Y185154D01*
Y203646D02*
Y203745D01*
Y206902D02*
Y206909D01*
Y243091D02*
Y243175D01*
Y245611D02*
Y245894D01*
X486600Y182866D02*
Y182918D01*
Y185042D02*
Y185087D01*
Y203663D02*
Y203762D01*
Y206885D02*
Y206892D01*
Y243260D02*
Y243375D01*
Y245464D02*
Y245928D01*
X486700Y182937D02*
Y183043D01*
Y184909D02*
Y185020D01*
Y203706D02*
Y203785D01*
Y206861D02*
Y206876D01*
Y243526D02*
Y243575D01*
Y245264D02*
Y245395D01*
X486800Y183031D02*
Y183273D01*
Y184680D02*
Y184942D01*
Y203772D02*
Y203845D01*
Y206786D02*
Y206851D01*
X486900Y183209D02*
Y184796D01*
Y203839D02*
Y203905D01*
Y206711D02*
Y206826D01*
X487000Y183524D02*
Y184481D01*
Y203963D02*
Y204028D01*
Y206587D02*
Y206824D01*
X487100Y204113D02*
Y204228D01*
Y206462D02*
Y206836D01*
Y242694D02*
Y242699D01*
X487200Y204354D02*
Y204428D01*
Y206270D02*
Y206527D01*
Y242694D02*
Y242732D01*
X487300Y242694D02*
Y242849D01*
X487400Y242694D02*
Y243209D01*
X487500Y242694D02*
Y242753D01*
Y243254D02*
Y243590D01*
X487600Y243754D02*
Y243971D01*
X487700Y203624D02*
Y203649D01*
Y243944D02*
Y243954D01*
Y244087D02*
Y244352D01*
X487800Y203624D02*
Y203686D01*
Y243944D02*
X487800D01*
Y244500D02*
Y244734D01*
X487900Y203624D02*
Y203993D01*
Y243944D02*
X487900D01*
Y244912D02*
Y245115D01*
X488000Y203624D02*
Y203786D01*
Y204031D02*
Y204374D01*
Y243944D02*
X488000D01*
Y245325D02*
Y245496D01*
X488100Y203624D02*
Y203627D01*
Y204493D02*
Y204755D01*
Y243944D02*
X488100D01*
Y245685D02*
Y245877D01*
X488200Y204871D02*
Y205137D01*
Y243944D02*
X488200D01*
Y245690D02*
Y245968D01*
X488300Y204874D02*
X488300D01*
Y205272D02*
Y205518D01*
Y243944D02*
X488300D01*
Y245315D02*
Y245952D01*
X488400Y204874D02*
X488400D01*
Y205684D02*
Y205899D01*
Y243944D02*
X488400D01*
Y244844D02*
Y245538D01*
X488500Y204874D02*
X488500D01*
Y206097D02*
Y206280D01*
Y243944D02*
X488500D01*
Y244372D02*
Y245125D01*
X488600Y204874D02*
X488600D01*
Y206509D02*
Y206662D01*
Y243940D02*
Y244712D01*
X488700Y204874D02*
X488700D01*
Y206624D02*
Y206889D01*
Y243580D02*
Y244298D01*
X488800Y204874D02*
X488800D01*
Y206424D02*
Y206909D01*
Y242694D02*
Y242745D01*
Y243130D02*
Y243885D01*
X488900Y204874D02*
X488900D01*
Y205952D02*
Y206625D01*
Y242694D02*
Y243472D01*
X489000Y204874D02*
X489000D01*
Y205481D02*
Y206212D01*
Y242694D02*
Y243058D01*
X489100Y204874D02*
Y204886D01*
Y205009D02*
Y205798D01*
Y242694D02*
Y242823D01*
X489200Y204681D02*
Y205385D01*
Y242694D02*
Y242735D01*
X489300Y203624D02*
Y203636D01*
Y204231D02*
Y204972D01*
Y242694D02*
Y242701D01*
X489400Y203624D02*
Y204558D01*
X489500Y203624D02*
Y204145D01*
X489600Y203624D02*
Y203809D01*
X489700Y203624D02*
Y203677D01*
Y242694D02*
Y242715D01*
Y245924D02*
Y245944D01*
X489800Y203624D02*
Y203643D01*
Y242694D02*
Y242749D01*
Y245890D02*
Y245944D01*
X489900Y242694D02*
Y242841D01*
Y245585D02*
Y245944D01*
X490000Y242694D02*
Y242735D01*
Y245590D02*
Y245944D01*
X490100Y242694D02*
Y242701D01*
Y245424D02*
Y245850D01*
X490200Y203624D02*
Y203632D01*
Y206865D02*
Y206874D01*
Y245237D02*
Y245664D01*
X490300Y203624D02*
Y203665D01*
Y206832D02*
Y206874D01*
Y245050D02*
Y245479D01*
X490400Y203624D02*
Y203778D01*
Y206720D02*
Y206874D01*
Y244863D02*
Y245293D01*
X490500Y203624D02*
Y203677D01*
Y206524D02*
Y206874D01*
Y244676D02*
Y245107D01*
X490600Y203624D02*
Y203643D01*
Y206425D02*
Y206850D01*
Y244489D02*
Y244921D01*
X490700Y206237D02*
Y206664D01*
Y244302D02*
Y244736D01*
X490800Y206050D02*
Y206478D01*
Y244115D02*
Y244550D01*
X490900Y205863D02*
Y206293D01*
Y243927D02*
Y244364D01*
X491000Y205676D02*
Y206107D01*
Y243740D02*
Y244179D01*
X491100Y205489D02*
Y205921D01*
Y243553D02*
Y243993D01*
X491200Y205302D02*
Y205736D01*
Y243366D02*
Y243807D01*
X491300Y205115D02*
Y205550D01*
Y243179D02*
Y243621D01*
X491400Y204928D02*
Y205364D01*
Y242992D02*
Y243436D01*
Y245924D02*
Y245944D01*
X491500Y204741D02*
Y205178D01*
Y242805D02*
Y243344D01*
Y245890D02*
Y245944D01*
X491600Y204554D02*
Y204993D01*
Y245798D02*
Y245944D01*
X491700Y204366D02*
Y204807D01*
Y245904D02*
Y245944D01*
X491800Y204179D02*
Y204621D01*
Y245938D02*
Y245944D01*
X491900Y203992D02*
Y204436D01*
Y206865D02*
Y206874D01*
X492000Y203805D02*
Y204277D01*
Y206832D02*
Y206874D01*
X492100Y203624D02*
Y204286D01*
Y206720D02*
Y206874D01*
Y241944D02*
X492100D01*
X492200Y206821D02*
Y206874D01*
Y241944D02*
X492200D01*
X492300Y206854D02*
Y206874D01*
Y241944D02*
X492300D01*
X492400D02*
X492400D01*
X492500D02*
X492500D01*
X492600Y202874D02*
X492600D01*
Y241944D02*
X492600D01*
X492700Y202874D02*
X492700D01*
Y241944D02*
X492700D01*
X492800Y202874D02*
X492800D01*
Y241944D02*
X492800D01*
X492900Y202874D02*
X492900D01*
Y241944D02*
X492900D01*
X493000Y202874D02*
X493000D01*
Y241944D02*
X493000D01*
X493100Y202874D02*
X493100D01*
Y241944D02*
X493100D01*
X493200Y202874D02*
X493200D01*
Y241944D02*
X493200D01*
X493300Y202874D02*
X493300D01*
Y241944D02*
X493300D01*
X493400Y202874D02*
X493400D01*
Y241944D02*
X493400D01*
X493500Y202874D02*
X493500D01*
Y241944D02*
X493500D01*
X493600Y202874D02*
X493600D01*
Y241944D02*
X493600D01*
X493700Y202874D02*
X493700D01*
Y241944D02*
X493700D01*
X493800Y202874D02*
X493800D01*
Y241944D02*
X493800D01*
X493900Y202874D02*
X493900D01*
Y241944D02*
X493900D01*
X494000Y202874D02*
X494000D01*
Y241944D02*
X494000D01*
X494100Y202874D02*
X494100D01*
Y241944D02*
X494100D01*
X494200Y202874D02*
X494200D01*
Y241944D02*
X494200D01*
X494300Y202874D02*
X494300D01*
Y241944D02*
X494300D01*
X494400Y202874D02*
X494400D01*
Y241944D02*
X494400D01*
X494500Y202874D02*
X494500D01*
X494600D02*
X494600D01*
X494700D02*
X494700D01*
Y242694D02*
Y242699D01*
Y245940D02*
Y245944D01*
X494800Y202874D02*
X494800D01*
Y242694D02*
Y242749D01*
Y245890D02*
Y245944D01*
X494900Y202874D02*
X494900D01*
Y242694D02*
Y245944D01*
X495000Y242694D02*
Y245944D01*
X495100Y242694D02*
Y242841D01*
Y244385D02*
Y244404D01*
Y245798D02*
Y245944D01*
X495200Y242694D02*
Y242728D01*
Y244394D02*
X495200D01*
Y245911D02*
Y245944D01*
X495300Y203624D02*
Y203632D01*
Y206865D02*
Y206874D01*
Y244394D02*
X495300D01*
X495400Y203624D02*
Y203665D01*
Y206832D02*
Y206874D01*
Y244394D02*
X495400D01*
X495500Y203624D02*
Y203778D01*
Y206720D02*
Y206874D01*
Y244394D02*
X495500D01*
X495600Y203624D02*
Y206874D01*
Y244394D02*
X495600D01*
X495700Y203624D02*
Y206874D01*
Y244394D02*
X495700D01*
X495800Y203624D02*
Y203677D01*
Y206821D02*
Y206874D01*
Y244394D02*
X495800D01*
X495900Y203624D02*
Y203643D01*
Y206854D02*
Y206874D01*
Y244394D02*
X495900D01*
X496000Y203624D02*
X496000D01*
Y244394D02*
X496000D01*
X496100Y203624D02*
X496100D01*
Y244394D02*
X496100D01*
X496200Y203624D02*
X496200D01*
Y242694D02*
Y242699D01*
Y244394D02*
X496200D01*
Y245940D02*
Y245944D01*
X496300Y203624D02*
X496300D01*
Y242694D02*
Y242749D01*
Y244394D02*
X496300D01*
Y245890D02*
Y245944D01*
X496400Y203624D02*
X496400D01*
Y242694D02*
Y245944D01*
X496500Y203624D02*
Y203628D01*
Y242694D02*
Y245944D01*
X496600Y203624D02*
Y203645D01*
Y242694D02*
Y242841D01*
Y245798D02*
Y245944D01*
X496700Y203624D02*
Y203662D01*
Y242694D02*
Y242728D01*
Y245911D02*
Y245944D01*
X496800Y203624D02*
Y203684D01*
X496900Y203624D02*
Y203734D01*
X497000Y203624D02*
Y203786D01*
X497100Y203624D02*
Y203910D01*
X497200Y203891D02*
Y204035D01*
X497300Y204266D02*
Y204301D01*
*
G04 PC Custom Flashes*
G04 Layer Name Car_Video.pcb - flashes*
%LPD*%
*
*
G04 PC Circuitry*
G04 Layer Name Car_Video.pcb - circuitry*
%LPD*%
*
G54D10*
G54D52*
X245156Y306706D02*
X251156D01*
Y318706*
X245156*
Y306706*
X257542Y306831D02*
X263542D01*
Y318831*
X257542*
Y306831*
X244622Y234613D02*
X250622D01*
Y246613*
X244622*
Y234613*
G54D53*
X254074Y135365D02*
X253801Y135203D01*
X253392Y134715*
Y138128*
X346301Y132715D02*
X347665D01*
X347801Y134178*
X347665Y134015*
X347256Y133853*
X346846*
X346437Y134015*
X346165Y134340*
X346028Y134828*
X346165Y135153*
X346301Y135640*
X346574Y135965*
X346983Y136128*
X347392*
X347801Y135965*
X347937Y135803*
X348074Y135478*
X343983Y132715D02*
X344392Y132878D01*
X344665Y133365*
X344801Y134178*
Y134665*
X344665Y135478*
X344392Y135965*
X343983Y136128*
X343710*
X343301Y135965*
X343028Y135478*
X342892Y134665*
Y134178*
X343028Y133365*
X343301Y132878*
X343710Y132715*
X343983*
G54D54*
X320621Y129351D02*
Y131713D01*
X253649Y129441D02*
Y133496D01*
X281011Y129537D02*
Y131584D01*
X261399Y129348D02*
Y131592D01*
X271334Y129379D02*
Y133671D01*
X290901Y129379D02*
Y133553D01*
X310725Y129397D02*
Y133413D01*
X330418Y129441D02*
Y133851D01*
X300686Y129529D02*
Y131891D01*
X340608Y138812D02*
X343108D01*
Y143812*
X334608Y138812D02*
X332108D01*
Y143812*
X338108Y147812D02*
X337108D01*
X210202Y332997D02*
Y318430D01*
X233832Y332997D02*
Y318430D01*
X210202Y332997D02*
X233824D01*
X210202Y318430D02*
X233824D01*
X238241Y251759D02*
Y188866D01*
X226541*
Y251759*
X238241*
X496159Y318885D02*
X470859D01*
Y330485*
X496159*
Y318885*
X433457Y101245D02*
X384244D01*
Y124474*
X433457*
Y101245*
X411850Y101488D02*
X406050D01*
Y103088*
X411850*
Y101488*
X302888Y312747D02*
Y315247D01*
X297888*
X302888Y306747D02*
Y304247D01*
X297888*
X293888Y310247D02*
Y309247D01*
X466238Y175232D02*
X468738D01*
Y180232*
X460238Y175232D02*
X457738D01*
Y180232*
X463738Y184232D02*
X462738D01*
X459547Y209394D02*
X457047D01*
Y204394*
X465547Y209394D02*
X468047D01*
Y204394*
X462047Y200394D02*
X463047D01*
X465938Y231892D02*
X468438D01*
Y236892*
X459938Y231892D02*
X457438D01*
Y236892*
X463438Y240892D02*
X462438D01*
X227805Y115922D02*
Y112422D01*
X227623Y111766*
X227441Y111547*
X227078Y111328*
X226714*
X226351Y111547*
X226169Y111766*
X225987Y112422*
Y112859*
X231987Y115922D02*
X230169Y111328D01*
X229441Y115922D02*
X231987D01*
X100000Y336220D02*
X533071D01*
Y100000*
X100000*
Y336220*
G54D68*
X377627Y185239D02*
X364521D01*
Y206774*
X377627*
Y185239*
X366956Y205278D02*
G75*
G03X366956I-864J0D01*
G01X246261Y311788D02*
X250057D01*
X248159Y313656*
X246261Y311788*
X248187Y313328D02*
Y311825D01*
X246828Y313656D02*
X249674D01*
X258647Y311913D02*
X262443D01*
X260545Y313781*
X258647Y311913*
X260573Y313453D02*
Y311950D01*
X259214Y313781D02*
X262060D01*
X283139Y196255D02*
G03X283139I-1037J0D01*
G01X285190Y208184D02*
X290923D01*
X285214Y198341D02*
X290864D01*
X281749Y202617D02*
Y203904D01*
X294348Y202585D02*
Y203904D01*
X248762Y230674D02*
G03Y233430I-1378J1378D01*
G01X242856*
X242857Y233432D02*
G03X242855Y230675I1587J-1380D01*
G01X242856Y230674D02*
X248762D01*
X204476Y277713D02*
G03X204476I-1037J0D01*
G01X200351Y265784D02*
X194619D01*
X200327Y275626D02*
X194678D01*
X203792Y271351D02*
Y270063D01*
X191193Y271382D02*
Y270063D01*
X296880Y176298D02*
G03X299637I1379J1379D01*
G01Y182205*
X299638Y182204D02*
G03X296882Y182206I-1379J-1587D01*
G01X296880Y182205D02*
Y176298D01*
X346530Y141119D02*
Y135772D01*
X354011*
Y141119*
X346584Y147116D02*
Y152776D01*
X347384Y152780*
X354009*
X354011Y152778*
Y147119*
X207706Y268984D02*
G03X210463I1378J1378D01*
G01Y274890*
X210464Y274889D02*
G03X207708Y274891I-1380J-1587D01*
G01X207706Y274890D02*
Y268984D01*
X187632Y274649D02*
G03X184876I-1378J-1378D01*
G01X184875Y268743*
X184874Y268744D02*
G03X187631Y268742I1380J1587D01*
G01X187632Y268743D02*
Y274649D01*
X411501Y252551D02*
Y247205D01*
X418981*
Y252551*
X411554Y258549D02*
Y264209D01*
X412354Y264212*
X418979*
X418981Y264210*
Y258551*
X401636Y252551D02*
Y247205D01*
X409116*
Y252551*
X401689Y258549D02*
Y264209D01*
X402490Y264212*
X409114*
X409116Y264210*
Y258551*
X404804Y278937D02*
Y273591D01*
X412285*
Y278937*
X404858Y284935D02*
Y290595D01*
X405658Y290598*
X412283*
X412285Y290596*
Y284937*
X476403Y316445D02*
X471056D01*
Y308965*
X476403*
X482400Y316392D02*
X488060D01*
X488064Y315592*
Y308967*
X488062Y308965*
X482403*
X218654Y312658D02*
G03Y309901I1378J-1378D01*
G01X224561*
X224559Y309900D02*
G03X224562Y312656I-1587J1380D01*
G01X224561Y312658D02*
X218654D01*
X298993Y200053D02*
G03X301750I1378J1378D01*
G01Y205960*
X301751Y205958D02*
G03X298994Y205961I-1380J-1587D01*
G01X298993Y205960D02*
Y200053D01*
X278047Y204830D02*
G03X275291I-1378J-1378D01*
G01Y198924*
X275290Y198925D02*
G03X278046Y198922I1379J1587D01*
G01X278048Y198924D02*
X278047Y204830D01*
X440871Y166975D02*
X427765D01*
Y188510*
X427765D02*
X440871D01*
X440871D02*
Y166975D01*
X430200Y187014D02*
G03X430200I-864J0D01*
G01X464408Y167181D02*
G03Y169937I-1379J1378D01*
G01X458501*
X458502Y169939D02*
G03X458500Y167182I1587J-1380D01*
G01X458501Y167181D02*
X464408D01*
X441157Y209613D02*
X428051D01*
Y231148*
X441157*
Y209613*
X430487Y229652D02*
G03X430487I-865J0D01*
G01X443312Y303944D02*
X430206D01*
Y325479*
X443312*
Y303944*
X432641Y323983D02*
G03X432641I-864J0D01*
G01X364408Y176396D02*
X377514D01*
Y154861*
X364408*
Y176396*
X376808Y156357D02*
G03X376808I-864J0D01*
G01X456268Y161209D02*
G03Y158453I1378J-1378D01*
G01X462175Y158452*
X462174Y158451D02*
G03X462176Y161208I-1588J1380D01*
G01X462175Y161209D02*
X456268D01*
X309417Y305958D02*
Y300612D01*
X316898*
Y305958*
X309471Y311956D02*
Y317616D01*
X310271Y317619*
X316895*
X316898Y317617*
Y311958*
X324668Y308126D02*
Y302780D01*
X332148*
Y308126*
X324722Y314124D02*
Y319784D01*
X325522Y319787*
X332146*
X332148Y319785*
Y314126*
X414744Y278937D02*
Y273591D01*
X422224*
Y278937*
X414798Y284935D02*
Y290595D01*
X415598Y290598*
X422222*
X422224Y290596*
Y284937*
X350345Y307752D02*
Y302406D01*
X357825*
Y307752*
X350399Y313750D02*
Y319410D01*
X351199Y319413*
X357823*
X357825Y319411*
Y313752*
X269411Y308030D02*
Y302683D01*
X276891*
Y308030*
X269464Y314028D02*
Y319688D01*
X270265Y319691*
X276889*
X276891Y319689*
Y314030*
X358038Y283143D02*
Y288490D01*
X350558*
Y283143*
X357985Y277145D02*
Y271485D01*
X357184Y271482*
X350560*
X350558Y271484*
Y277143*
X347610Y283143D02*
Y288490D01*
X347610D02*
X340130D01*
X340130D02*
Y283143D01*
X347557Y277145D02*
Y271485D01*
X346756Y271482*
X340132*
X340130Y271484*
Y277143*
X288314Y178034D02*
Y172688D01*
X295794*
Y178034*
X288367Y184032D02*
Y189692D01*
X289168Y189696*
X295792*
X295794Y189693*
Y184034*
X338199Y307976D02*
Y302630D01*
X345680*
Y307976*
X338253Y313974D02*
Y319634D01*
X339053Y319638*
X345678*
X345680Y319635*
Y313976*
X279649Y308030D02*
Y302684D01*
X287129*
Y308030*
X279702Y314028D02*
Y319688D01*
X280503Y319692*
X287127*
X287129Y319689*
Y314030*
X459169Y309782D02*
Y304436D01*
X466650*
Y309782*
X459223Y315780D02*
Y321440D01*
X460023Y321444*
X466647*
X466650Y321441*
Y315782*
X224696Y308397D02*
Y305641D01*
X218397*
Y308397*
X224696*
X218464Y313974D02*
Y316730D01*
X224764*
Y313974*
X218464*
X173667Y171474D02*
X170911D01*
Y177773*
X173667*
Y171474*
X178047D02*
X175292D01*
Y177773*
X178047*
Y171474*
X182285D02*
X179530D01*
Y177773*
X182285*
Y171474*
X340855Y152919D02*
Y150163D01*
X334555*
Y152919*
X340855*
X334460Y153780D02*
Y156536D01*
X340759*
Y153780*
X334460*
X198330Y259755D02*
Y262511D01*
X204629*
Y259755*
X198330*
X190512Y259818D02*
Y262574D01*
X196811*
Y259818*
X190512*
X184889Y266564D02*
X187645D01*
Y260265*
X184889*
Y266564*
X178288Y266095D02*
X181044D01*
Y259795*
X178288*
Y266095*
X174443Y266005D02*
X177199D01*
Y259706*
X174443*
Y266005*
X170541Y266022D02*
X173297D01*
Y259723*
X170541*
Y266022*
X164725Y275046D02*
X167481D01*
Y268747*
X164725*
Y275046*
X167465Y259606D02*
X164709D01*
Y265906*
X167465*
Y259606*
X270669Y205122D02*
X273425D01*
Y198823*
X270669*
Y205122*
X455130Y223450D02*
X457886D01*
Y217151*
X455130*
Y223450*
X404144Y154402D02*
Y151646D01*
X397845*
Y154402*
X404144*
X370094Y184031D02*
X369912Y183906D01*
X369730Y183656*
X369639Y183406*
X369549Y183031*
Y182406*
X369639Y182031*
X369730Y181781*
X369912Y181531*
X370094Y181406*
X370458*
X370639Y181531*
X370821Y181781*
X370912Y182031*
X371003Y182406*
Y183031*
X370912Y183406*
X370821Y183656*
X370639Y183906*
X370458Y184031*
X370094*
X370367Y181906D02*
X370912Y181156D01*
X371912Y183406D02*
Y183531D01*
X372003Y183781*
X372094Y183906*
X372276Y184031*
X372639*
X372821Y183906*
X372912Y183781*
X373003Y183531*
Y183281*
X372912Y183031*
X372730Y182656*
X371821Y181406*
X373094*
X202470Y251779D02*
Y249904D01*
X202561Y249529*
X202743Y249279*
X203015Y249154*
X203197*
X203470Y249279*
X203652Y249529*
X203743Y249904*
Y251779*
X204561Y251279D02*
X204743Y251404D01*
X205015Y251779*
Y249154*
X205924Y251154D02*
Y251279D01*
X206015Y251529*
X206106Y251654*
X206288Y251779*
X206652*
X206833Y251654*
X206924Y251529*
X207015Y251279*
Y251029*
X206924Y250779*
X206743Y250404*
X205833Y249154*
X207106*
X415966Y272717D02*
Y270092D01*
X415330Y272717D02*
X416602D01*
X417421Y272217D02*
X417602Y272342D01*
X417875Y272717*
Y270092*
X418875Y272717D02*
X419875D01*
X419330Y271717*
X419602*
X419784Y271592*
X419875Y271467*
X419966Y271092*
Y270842*
X419875Y270467*
X419693Y270217*
X419421Y270092*
X419148*
X418875Y270217*
X418784Y270342*
X418693Y270592*
X310939Y304418D02*
Y301793D01*
X310302Y304418D02*
X311575D01*
X312575D02*
X313575D01*
X313029Y303418*
X313302*
X313484Y303293*
X313575Y303168*
X313666Y302793*
Y302543*
X313575Y302168*
X313393Y301918*
X313120Y301793*
X312848*
X312575Y301918*
X312484Y302043*
X312393Y302293*
X315029Y304418D02*
X314757Y304293D01*
X314575Y303918*
X314484Y303293*
Y302918*
X314575Y302293*
X314757Y301918*
X315029Y301793*
X315211*
X315484Y301918*
X315666Y302293*
X315757Y302918*
Y303293*
X315666Y303918*
X315484Y304293*
X315211Y304418*
X315029*
X330106Y207625D02*
Y205000D01*
X329469Y207625D02*
X330742D01*
X331651Y207000D02*
Y207125D01*
X331742Y207375*
X331833Y207500*
X332015Y207625*
X332379*
X332560Y207500*
X332651Y207375*
X332742Y207125*
Y206875*
X332651Y206625*
X332469Y206250*
X331560Y205000*
X332833*
X334560Y207625D02*
X333651Y205875D01*
X335015*
X334560Y207625D02*
Y205000D01*
X309970Y274286D02*
Y271661D01*
X309333Y274286D02*
X310606D01*
X311424Y273786D02*
X311606Y273911D01*
X311879Y274286*
Y271661*
X313788Y273911D02*
X313697Y274161D01*
X313424Y274286*
X313242*
X312970Y274161*
X312788Y273786*
X312697Y273161*
Y272536*
X312788Y272036*
X312970Y271786*
X313242Y271661*
X313333*
X313606Y271786*
X313788Y272036*
X313879Y272411*
Y272536*
X313788Y272911*
X313606Y273161*
X313333Y273286*
X313242*
X312970Y273161*
X312788Y272911*
X312697Y272536*
X303043Y277742D02*
Y275117D01*
X302406Y277742D02*
X303679D01*
X304497Y277242D02*
X304679Y277367D01*
X304952Y277742*
Y275117*
X307043Y277742D02*
X306134Y275117D01*
X305770Y277742D02*
X307043D01*
X249330Y327392D02*
X246705D01*
X249330D02*
Y326756D01*
X249205Y326483*
X248955Y326301*
X248705Y326211*
X248330Y326120*
X247705*
X247330Y326211*
X247080Y326301*
X246830Y326483*
X246705Y326756*
Y327392*
X249330Y324120D02*
Y325029D01*
X248205Y325120*
X248330Y325029*
X248455Y324756*
Y324483*
X248330Y324211*
X248080Y324029*
X247705Y323938*
X247455Y324029*
X247080Y324120*
X246830Y324301*
X246705Y324574*
Y324847*
X246830Y325120*
X246955Y325211*
X247205Y325301*
X260693Y328140D02*
X258068D01*
X260693D02*
Y327504D01*
X260568Y327231*
X260318Y327050*
X260068Y326959*
X259693Y326868*
X259068*
X258693Y326959*
X258443Y327050*
X258193Y327231*
X258068Y327504*
Y328140*
X260693Y325140D02*
X258943Y326050D01*
Y324686*
X260693Y325140D02*
X258068D01*
X328766Y197484D02*
Y194859D01*
X328129Y197484D02*
X329402D01*
X330311Y196859D02*
Y196984D01*
X330311D02*
X330402Y197234D01*
X330402D02*
X330493Y197359D01*
X330493D02*
X330675Y197484D01*
X330675D02*
X331038D01*
X331038D02*
X331220Y197359D01*
X331220D02*
X331311Y197234D01*
X331311D02*
X331402Y196984D01*
X331402D02*
Y196734D01*
X331402D02*
X331311Y196484D01*
X331311D02*
X331129Y196109D01*
X331129D02*
X330220Y194859D01*
X330220D02*
X331493D01*
X332493Y197484D02*
X333493D01*
X333493D02*
X332948Y196484D01*
X332948D02*
X333220D01*
X333220D02*
X333402Y196359D01*
X333402D02*
X333493Y196234D01*
X333493D02*
X333584Y195859D01*
X333584D02*
Y195609D01*
X333584D02*
X333493Y195234D01*
X333493D02*
X333311Y194984D01*
X333311D02*
X333038Y194859D01*
X333038D02*
X332766D01*
X332766D02*
X332493Y194984D01*
X332493D02*
X332402Y195109D01*
X332402D02*
X332311Y195359D01*
X286287Y212575D02*
X287015Y211325D01*
Y209950*
X287742Y212575D02*
X287015Y211325D01*
X288560Y212075D02*
X288742Y212200D01*
X289015Y212575*
Y209950*
X314875Y282769D02*
Y280144D01*
X314239Y282769D02*
X315512D01*
X316330Y282269D02*
X316512Y282394D01*
X316784Y282769*
Y280144*
X318784Y282769D02*
X317875D01*
X317784Y281644*
X317875Y281769*
X318148Y281894*
X318421*
X318693Y281769*
X318875Y281519*
X318966Y281144*
X318875Y280894*
X318784Y280519*
X318603Y280269*
X318330Y280144*
X318057*
X317784Y280269*
X317693Y280394*
X317603Y280644*
X315449Y258602D02*
Y255977D01*
X314813Y258602D02*
X316085D01*
X316994Y257977D02*
Y258102D01*
X317085Y258352*
X317176Y258477*
X317358Y258602*
X317722*
X317904Y258477*
X317994Y258352*
X318085Y258102*
Y257852*
X317994Y257602*
X317813Y257227*
X316904Y255977*
X318176*
X318994Y258102D02*
X319176Y258227D01*
X319449Y258602*
Y255977*
X288198Y275117D02*
Y272492D01*
X287561Y275117D02*
X288834D01*
X289652Y274617D02*
X289834Y274742D01*
X290107Y275117*
Y272492*
X291834Y275117D02*
X290925Y273367D01*
X292289*
X291834Y275117D02*
Y272492D01*
X246030Y224985D02*
Y222360D01*
X245394Y224985D02*
X246666D01*
X247485Y224485D02*
X247666Y224610D01*
X247939Y224985*
Y222360*
X249939Y224110D02*
X249848Y223735D01*
X249666Y223485*
X249394Y223360*
X249303*
X249030Y223485*
X248848Y223735*
X248757Y224110*
Y224235*
X248848Y224610*
X249030Y224860*
X249303Y224985*
X249394*
X249666Y224860*
X249848Y224610*
X249939Y224110*
Y223485*
X249848Y222860*
X249666Y222485*
X249394Y222360*
X249212*
X248939Y222485*
X248848Y222735*
X244930Y228748D02*
X244817Y229061D01*
X244589Y229373*
X244362Y229529*
X243908*
X243680Y229373*
X243453Y229061*
X243339Y228748*
X243226Y228279*
Y227498*
X243339Y227029*
X243453Y226717*
X243680Y226404*
X243908Y226248*
X244362*
X244589Y226404*
X244817Y226717*
X244930Y227029*
X247544Y229529D02*
X246408Y226248D01*
X245953Y229529D02*
X247544D01*
X245543Y250628D02*
Y248003D01*
X246634*
X247452Y250128D02*
X247634Y250253D01*
X247907Y250628*
Y248003*
X219534Y199029D02*
Y196404D01*
X218898Y199029D02*
X220170D01*
X220989Y198529D02*
X221170Y198654D01*
X221443Y199029*
Y196404*
X222261Y198529D02*
X222443Y198654D01*
X222716Y199029*
Y196404*
X216550Y203886D02*
Y201261D01*
X215913Y203886D02*
X217186D01*
X218004Y203386D02*
X218186Y203511D01*
X218459Y203886*
Y201261*
X219822Y203886D02*
X219550Y203761D01*
X219368Y203386*
X219277Y202761*
Y202386*
X219368Y201761*
X219550Y201386*
X219822Y201261*
X220004*
X220277Y201386*
X220459Y201761*
X220550Y202386*
Y202761*
X220459Y203386*
X220277Y203761*
X220004Y203886*
X219822*
X171760Y185163D02*
Y182538D01*
X171123Y185163D02*
X172396D01*
X173305Y184538D02*
Y184663D01*
X173396Y184913*
X173487Y185038*
X173669Y185163*
X174032*
X174214Y185038*
X174305Y184913*
X174396Y184663*
Y184413*
X174305Y184163*
X174123Y183788*
X173214Y182538*
X174487*
X176396Y184788D02*
X176305Y185038D01*
X176032Y185163*
X175851*
X175578Y185038*
X175396Y184663*
X175305Y184038*
Y183413*
X175396Y182913*
X175578Y182663*
X175851Y182538*
X175942*
X176214Y182663*
X176396Y182913*
X176487Y183288*
Y183413*
X176396Y183788*
X176214Y184038*
X175942Y184163*
X175851*
X175578Y184038*
X175396Y183788*
X175305Y183413*
X195899Y279873D02*
X196626Y278623D01*
Y277248*
X197353Y279873D02*
X196626Y278623D01*
X198263Y279248D02*
Y279373D01*
X198353Y279623*
X198444Y279748*
X198626Y279873*
X198990*
X199172Y279748*
X199263Y279623*
X199353Y279373*
Y279123*
X199263Y278873*
X199081Y278498*
X198172Y277248*
X199444*
X316060Y142348D02*
Y139723D01*
X315424Y142348D02*
X316697D01*
X317606Y141723D02*
Y141848D01*
X317697Y142098*
X317788Y142223*
X317969Y142348*
X318333*
X318515Y142223*
X318606Y142098*
X318697Y141848*
Y141598*
X318606Y141348*
X318424Y140973*
X317515Y139723*
X318788*
X320788Y141473D02*
X320697Y141098D01*
X320515Y140848*
X320242Y140723*
X320151*
X319878Y140848*
X319697Y141098*
X319606Y141473*
Y141598*
X319697Y141973*
X319878Y142223*
X320151Y142348*
X320242*
X320515Y142223*
X320697Y141973*
X320788Y141473*
Y140848*
X320697Y140223*
X320515Y139848*
X320242Y139723*
X320060*
X319788Y139848*
X319697Y140098*
X312173Y137116D02*
Y134491D01*
X311537Y137116D02*
X312809D01*
X313719Y136491D02*
Y136616D01*
X313809Y136866*
X313900Y136991*
X314082Y137116*
X314446*
X314628Y136991*
X314719Y136866*
X314809Y136616*
Y136366*
X314719Y136116*
X314537Y135741*
X313628Y134491*
X314900*
X316173Y137116D02*
X315900Y136991D01*
X315809Y136741*
Y136491*
X315900Y136241*
X316082Y136116*
X316446Y135991*
X316719Y135866*
X316900Y135616*
X316991Y135366*
Y134991*
X316900Y134741*
X316809Y134616*
X316537Y134491*
X316173*
X315900Y134616*
X315809Y134741*
X315719Y134991*
Y135366*
X315809Y135616*
X315991Y135866*
X316264Y135991*
X316628Y136116*
X316809Y136241*
X316900Y136491*
Y136741*
X316809Y136991*
X316537Y137116*
X316173*
X304562Y183126D02*
X304874Y183240D01*
X305187Y183467*
X305343Y183694*
Y184149*
X305187Y184376*
X304874Y184603*
X304562Y184717*
X304093Y184831*
X303312*
X302843Y184717*
X302530Y184603*
X302218Y184376*
X302062Y184149*
Y183694*
X302218Y183467*
X302530Y183240*
X302843Y183126*
X305343Y181876D02*
Y180626D01*
X304093Y181308*
Y180967*
X303937Y180740*
X303780Y180626*
X303312Y180513*
X302999*
X302530Y180626*
X302218Y180853*
X302062Y181194*
Y181535*
X302218Y181876*
X302374Y181990*
X302687Y182103*
X305343Y177899D02*
X302062Y179035D01*
X305343Y179490D02*
Y177899D01*
X349215Y155672D02*
X349124Y155922D01*
X348943Y156172*
X348761Y156297*
X348397*
X348215Y156172*
X348034Y155922*
X347943Y155672*
X347852Y155297*
Y154672*
X347943Y154297*
X348034Y154047*
X348215Y153797*
X348397Y153672*
X348761*
X348943Y153797*
X349124Y154047*
X349215Y154297*
X351215Y156297D02*
X350306D01*
X350215Y155172*
X350306Y155297*
X350579Y155422*
X350852*
X351124Y155297*
X351306Y155047*
X351397Y154672*
X351306Y154422*
X351215Y154047*
X351034Y153797*
X350761Y153672*
X350488*
X350215Y153797*
X350124Y153922*
X350034Y154172*
X353397Y156297D02*
X352488D01*
X352397Y155172*
X352488Y155297*
X352761Y155422*
X353034*
X353306Y155297*
X353488Y155047*
X353579Y154672*
X353488Y154422*
X353397Y154047*
X353215Y153797*
X352943Y153672*
X352670*
X352397Y153797*
X352306Y153922*
X352215Y154172*
X327707Y143844D02*
X327525Y143719D01*
X327343Y143469*
X327252Y143219*
X327161Y142844*
Y142219*
X327252Y141844*
X327343Y141594*
X327525Y141344*
X327707Y141219*
X328071*
X328252Y141344*
X328434Y141594*
X328525Y141844*
X328616Y142219*
Y142844*
X328525Y143219*
X328434Y143469*
X328252Y143719*
X328071Y143844*
X327707*
X327980Y141719D02*
X328525Y140969D01*
X330343Y143844D02*
X329434Y142094D01*
X330798*
X330343Y143844D02*
Y141219D01*
X156733Y175668D02*
Y173043D01*
X156097Y175668D02*
X157370D01*
X158279Y175043D02*
Y175168D01*
X158370Y175418*
X158461Y175543*
X158643Y175668*
X159006*
X159188Y175543*
X159279Y175418*
X159370Y175168*
Y174918*
X159279Y174668*
X159097Y174293*
X158188Y173043*
X159461*
X161552Y175668D02*
X160643Y173043D01*
X160279Y175668D02*
X161552D01*
X209349Y283231D02*
X209662Y283345D01*
X209974Y283572*
X210130Y283799*
Y284254*
X209974Y284481*
X209662Y284708*
X209349Y284822*
X208880Y284936*
X208099*
X207630Y284822*
X207318Y284708*
X207005Y284481*
X206849Y284254*
Y283799*
X207005Y283572*
X207318Y283345*
X207630Y283231*
X210130Y280731D02*
Y281868D01*
X208724Y281981*
X208880Y281868*
X209037Y281527*
Y281186*
X208880Y280845*
X208568Y280618*
X208099Y280504*
X207787Y280618*
X207318Y280731*
X207005Y280958*
X206849Y281299*
Y281640*
X207005Y281981*
X207162Y282095*
X207474Y282208*
X210130Y279254D02*
Y278004D01*
X208880Y278686*
Y278345*
X208724Y278118*
X208568Y278004*
X208099Y277890*
X207787*
X207318Y278004*
X207005Y278231*
X206849Y278572*
Y278913*
X207005Y279254*
X207162Y279368*
X207474Y279481*
X183096Y273747D02*
X183408Y273861D01*
X183721Y274088*
X183877Y274315*
Y274770*
X183721Y274997*
X183408Y275224*
X183096Y275338*
X182627Y275451*
X181846*
X181377Y275338*
X181065Y275224*
X180752Y274997*
X180596Y274770*
Y274315*
X180752Y274088*
X181065Y273861*
X181377Y273747*
X183877Y271247D02*
Y272383D01*
X182471Y272497*
X182627Y272383*
X182783Y272042*
Y271701*
X182627Y271361*
X182315Y271133*
X181846Y271020*
X181533Y271133*
X181065Y271247*
X180752Y271474*
X180596Y271815*
Y272156*
X180752Y272497*
X180908Y272611*
X181221Y272724*
X183096Y269883D02*
X183252D01*
X183565Y269770*
X183721Y269656*
X183877Y269429*
Y268974*
X183721Y268747*
X183565Y268633*
X183252Y268520*
X182940*
X182627Y268633*
X182158Y268861*
X180596Y269997*
Y268406*
X258551Y218630D02*
Y216755D01*
X258642Y216380*
X258824Y216130*
X259097Y216005*
X259278*
X259551Y216130*
X259733Y216380*
X259824Y216755*
Y218630*
X260642Y218130D02*
X260824Y218255D01*
X261097Y218630*
Y216005*
X416917Y242598D02*
X417167Y242689D01*
X417417Y242871*
X417542Y243053*
Y243416*
X417417Y243598*
X417167Y243780*
X416917Y243871*
X416542Y243962*
X415917*
X415542Y243871*
X415292Y243780*
X415042Y243598*
X414917Y243416*
Y243053*
X415042Y242871*
X415292Y242689*
X415542Y242598*
X417542Y240598D02*
Y241507D01*
X416417Y241598*
X416542Y241507*
X416667Y241235*
Y240962*
X416542Y240689*
X416292Y240507*
X415917Y240416*
X415667Y240507*
X415292Y240598*
X415042Y240780*
X414917Y241053*
Y241326*
X415042Y241598*
X415167Y241689*
X415417Y241780*
X417542Y239144D02*
X417417Y239416D01*
X417167Y239507*
X416917*
X416667Y239416*
X416542Y239235*
X416417Y238871*
X416292Y238598*
X416042Y238416*
X415792Y238326*
X415417*
X415167Y238416*
X415042Y238507*
X414917Y238780*
Y239144*
X415042Y239416*
X415167Y239507*
X415417Y239598*
X415792*
X416042Y239507*
X416292Y239326*
X416417Y239053*
X416542Y238689*
X416667Y238507*
X416917Y238416*
X417167*
X417417Y238507*
X417542Y238780*
Y239144*
X406227Y242076D02*
X406477Y242167D01*
X406727Y242349*
X406852Y242531*
Y242894*
X406727Y243076*
X406477Y243258*
X406227Y243349*
X405852Y243440*
X405227*
X404852Y243349*
X404602Y243258*
X404352Y243076*
X404227Y242894*
Y242531*
X404352Y242349*
X404602Y242167*
X404852Y242076*
X406852Y240076D02*
Y240985D01*
X405727Y241076*
X405852Y240985*
X405977Y240712*
Y240440*
X405852Y240167*
X405602Y239985*
X405227Y239894*
X404977Y239985*
X404602Y240076*
X404352Y240258*
X404227Y240531*
Y240803*
X404352Y241076*
X404477Y241167*
X404727Y241258*
X405977Y237894D02*
X405602Y237985D01*
X405352Y238167*
X405227Y238440*
Y238531*
X405352Y238803*
X405602Y238985*
X405977Y239076*
X406102*
X406477Y238985*
X406727Y238803*
X406852Y238531*
Y238440*
X406727Y238167*
X406477Y237985*
X405977Y237894*
X405352*
X404727Y237985*
X404352Y238167*
X404227Y238440*
Y238621*
X404352Y238894*
X404602Y238985*
X408043Y298163D02*
X408356Y298277D01*
X408668Y298504*
X408825Y298731*
Y299186*
X408668Y299413*
X408356Y299640*
X408043Y299754*
X407575Y299867*
X406793*
X406325Y299754*
X406012Y299640*
X405700Y299413*
X405543Y299186*
Y298731*
X405700Y298504*
X406012Y298277*
X406325Y298163*
X408200Y297140D02*
X408356Y296913D01*
X408825Y296572*
X405543*
X408825Y295322D02*
Y294072D01*
X407575Y294754*
Y294413*
X407418Y294186*
X407262Y294072*
X406793Y293958*
X406481*
X406012Y294072*
X405700Y294299*
X405543Y294640*
Y294981*
X405700Y295322*
X405856Y295436*
X406168Y295549*
X435820Y295149D02*
Y291867D01*
X437184*
X438434Y295149D02*
X439684D01*
X439002Y293899*
X439343*
X439570Y293742*
X439684Y293586*
X439797Y293117*
Y292805*
X439684Y292336*
X439457Y292024*
X439116Y291867*
X438775*
X438434Y292024*
X438320Y292180*
X438207Y292492*
X493374Y313122D02*
X493283Y313372D01*
X493101Y313622*
X492920Y313747*
X492556*
X492374Y313622*
X492192Y313372*
X492101Y313122*
X492010Y312747*
X492010D02*
Y312122D01*
X492010D02*
X492101Y311747D01*
X492192Y311497*
X492374Y311247*
X492556Y311122*
X492920*
X493101Y311247*
X493283Y311497*
X493374Y311747*
X494192Y313247D02*
X494374Y313372D01*
X494647Y313747*
Y311122*
X496647Y312872D02*
X496556Y312497D01*
X496374Y312247*
X496101Y312122*
X496010*
X496010D02*
X495738Y312247D01*
X495556Y312497*
X495465Y312872*
Y312997*
X495556Y313372*
X495738Y313622*
X496010Y313747*
X496010D02*
X496101D01*
X496374Y313622*
X496556Y313372*
X496647Y312872*
Y312247*
X496556Y311622*
X496374Y311247*
X496101Y311122*
X495920*
X495647Y311247*
X495556Y311497*
X213014Y312319D02*
X212901Y312631D01*
X212673Y312944*
X212446Y313100*
X211992*
X211764Y312944*
X211537Y312631*
X211423Y312319*
X211310Y311850*
Y311069*
X211423Y310600*
X211537Y310288*
X211764Y309975*
X211992Y309819*
X212446*
X212673Y309975*
X212901Y310288*
X213014Y310600*
X214037Y312475D02*
X214264Y312631D01*
X214605Y313100*
Y309819*
X232143Y255772D02*
Y253772D01*
X232052Y253397*
X231961Y253272*
X231779Y253147*
X231597*
X231415Y253272*
X231325Y253397*
X231234Y253772*
Y254022*
X232961Y255272D02*
X233143Y255397D01*
X233415Y255772*
Y253147*
X305310Y203835D02*
X305622Y203948D01*
X305935Y204176*
X306091Y204403*
Y204858*
X305935Y205085*
X305622Y205312*
X305310Y205426*
X304841Y205539*
X304060*
X303591Y205426*
X303278Y205312*
X302966Y205085*
X302810Y204858*
Y204403*
X302966Y204176*
X303278Y203948*
X303591Y203835*
X304997Y201335D02*
X304528Y201448D01*
X304216Y201676*
X304060Y202017*
Y202130*
X304216Y202471*
X304528Y202698*
X304997Y202812*
X305153*
X305622Y202698*
X305935Y202471*
X306091Y202130*
Y202017*
X305935Y201676*
X305622Y201448*
X304997Y201335*
X304216*
X303435Y201448*
X302966Y201676*
X302810Y202017*
Y202244*
X302966Y202585*
X303278Y202698*
X277573Y194490D02*
X277886Y194603D01*
X278198Y194831*
X278355Y195058*
Y195512*
X278198Y195740*
X277886Y195967*
X277573Y196081*
X277105Y196194*
X276323*
X275855Y196081*
X275542Y195967*
X275230Y195740*
X275073Y195512*
Y195058*
X275230Y194831*
X275542Y194603*
X275855Y194490*
X277730Y193467D02*
X277886Y193240D01*
X278355Y192899*
X275073*
X278355Y191194D02*
X278198Y191535D01*
X277730Y191762*
X276948Y191876*
X276480*
X275698Y191762*
X275230Y191535*
X275073Y191194*
Y190967*
X275230Y190626*
X275698Y190399*
X276480Y190285*
X276948*
X277730Y190399*
X278198Y190626*
X278355Y190967*
Y191194*
X431928Y193565D02*
Y191690D01*
X432019Y191315*
X432201Y191065*
X432473Y190940*
X432655*
X432928Y191065*
X433110Y191315*
X433201Y191690*
Y193565*
X434928D02*
X434019Y191815D01*
X435382*
X434928Y193565D02*
Y190940D01*
X469744Y169211D02*
X469630Y169524D01*
X469403Y169836*
X469176Y169993*
X468721*
X468494Y169836*
X468267Y169524*
X468153Y169211*
X468039Y168743*
Y167961*
X468153Y167493*
X468267Y167180*
X468494Y166868*
X468721Y166711*
X469176*
X469403Y166868*
X469630Y167180*
X469744Y167493*
X470767Y169368D02*
X470994Y169524D01*
X471335Y169993*
Y166711*
X473948Y169993D02*
X472812Y166711D01*
X472358Y169993D02*
X473948D01*
X498818Y326423D02*
Y323798D01*
Y326423D02*
X499636D01*
X499908Y326298*
X499999Y326173*
X500090Y325923*
Y325673*
X499999Y325423*
X499908Y325298*
X499636Y325173*
X498818*
X499454D02*
X500090Y323798D01*
X502181Y326423D02*
X501272Y323798D01*
X500908Y326423D02*
X502181D01*
X431814Y235859D02*
Y233984D01*
X431905Y233609*
X432086Y233359*
X432359Y233234*
X432541*
X432814Y233359*
X432995Y233609*
X433086Y233984*
Y235859*
X435086D02*
X434177D01*
X434086Y234734*
X434177Y234859*
X434450Y234984*
X434723*
X434995Y234859*
X435177Y234609*
X435268Y234234*
X435177Y233984*
X435086Y233609*
X434905Y233359*
X434632Y233234*
X434359*
X434086Y233359*
X433995Y233484*
X433905Y233734*
X437345Y246513D02*
Y244638D01*
X437436Y244263*
X437618Y244013*
X437891Y243888*
X438072*
X438345Y244013*
X438527Y244263*
X438618Y244638*
Y246513*
X440527Y246138D02*
X440436Y246388D01*
X440163Y246513*
X439982*
X439709Y246388*
X439527Y246013*
X439436Y245388*
Y244763*
X439527Y244263*
X439709Y244013*
X439982Y243888*
X440072*
X440345Y244013*
X440527Y244263*
X440618Y244638*
Y244763*
X440527Y245138*
X440345Y245388*
X440072Y245513*
X439982*
X439709Y245388*
X439527Y245138*
X439436Y244763*
X436582Y330982D02*
X436400Y330857D01*
X436219Y330607*
X436128Y330357*
X436037Y329982*
Y329357*
X436128Y328982*
X436219Y328732*
X436400Y328482*
X436582Y328357*
X436946*
X437128Y328482*
X437309Y328732*
X437400Y328982*
X437491Y329357*
Y329982*
X437400Y330357*
X437309Y330607*
X437128Y330857*
X436946Y330982*
X436582*
X436855Y328857D02*
X437400Y328107D01*
X438309Y330482D02*
X438491Y330607D01*
X438764Y330982*
Y328357*
X526202Y262188D02*
Y260188D01*
X526111Y259813*
X526020Y259688*
X525838Y259563*
X525656*
X525474Y259688*
X525384Y259813*
X525293Y260188*
Y260438*
X527202Y262188D02*
X528202D01*
X527656Y261188*
X527929*
X528111Y261063*
X528202Y260938*
X528293Y260563*
Y260313*
X528202Y259938*
X528020Y259688*
X527747Y259563*
X527474*
X527202Y259688*
X527111Y259813*
X527020Y260063*
X379619Y108979D02*
Y106979D01*
X379528Y106604*
X379437Y106479*
X379255Y106354*
X379074*
X378892Y106479*
X378801Y106604*
X378710Y106979*
Y107229*
X381346Y108979D02*
X380437Y107229D01*
X381801*
X381346Y108979D02*
Y106354D01*
X368528Y153155D02*
Y151280D01*
X368618Y150905*
X368800Y150655*
X369073Y150530*
X369255*
X369528Y150655*
X369709Y150905*
X369800Y151280*
Y153155*
X370618Y152655D02*
X370800Y152780D01*
X371073Y153155*
Y150530*
X371891Y152655D02*
X372073Y152780D01*
X372346Y153155*
Y150530*
X366269Y242533D02*
Y239908D01*
X367360*
X369360Y242533D02*
X368451D01*
X368360Y241408*
X368451Y241533*
X368724Y241658*
X368996*
X369269Y241533*
X369451Y241283*
X369542Y240908*
X369451Y240658*
X369360Y240283*
X369178Y240033*
X368905Y239908*
X368633*
X368360Y240033*
X368269Y240158*
X368178Y240408*
X278793Y279109D02*
Y276484D01*
X278157Y279109D02*
X279430D01*
X280248Y278609D02*
X280430Y278734D01*
X280703Y279109*
Y276484*
X281975Y279109D02*
X281703Y278984D01*
X281612Y278734*
Y278484*
X281703Y278234*
X281884Y278109*
X282248Y277984*
X282521Y277859*
X282703Y277609*
X282793Y277359*
Y276984*
X282703Y276734*
X282612Y276609*
X282339Y276484*
X281975*
X281703Y276609*
X281612Y276734*
X281521Y276984*
Y277359*
X281612Y277609*
X281793Y277859*
X282066Y277984*
X282430Y278109*
X282612Y278234*
X282703Y278484*
Y278734*
X282612Y278984*
X282339Y279109*
X281975*
X143239Y308546D02*
X141364D01*
X140989Y308455*
X140739Y308273*
X140614Y308000*
Y307819*
X140739Y307546*
X140989Y307364*
X141364Y307273*
X143239*
X142739Y306455D02*
X142864Y306273D01*
X143239Y306000*
X140614*
X143239Y305000D02*
Y304000D01*
X142239Y304546*
Y304273*
X142114Y304091*
X141989Y304000*
X141614Y303910*
X141364*
X140989Y304000*
X140739Y304182*
X140614Y304455*
Y304728*
X140739Y305000*
X140864Y305091*
X141114Y305182*
X470655Y160812D02*
X470541Y161125D01*
X470314Y161437*
X470086Y161594*
X469632*
X469405Y161437*
X469177Y161125*
X469064Y160812*
X468950Y160344*
Y159562*
X469064Y159094*
X469177Y158781*
X469405Y158469*
X469632Y158312*
X470086*
X470314Y158469*
X470541Y158781*
X470655Y159094*
X473155Y161594D02*
X472018D01*
X471905Y160187*
X472018Y160344*
X472359Y160500*
X472700*
X473041Y160344*
X473268Y160031*
X473382Y159562*
X473268Y159250*
X473155Y158781*
X472927Y158469*
X472586Y158312*
X472246*
X471905Y158469*
X471791Y158625*
X471677Y158937*
X475996Y161594D02*
X474859Y158312D01*
X474405Y161594D02*
X475996D01*
X373312Y331390D02*
Y328765D01*
X374403*
X376312Y331015D02*
X376221Y331265D01*
X375949Y331390*
X375767*
X375494Y331265*
X375312Y330890*
X375221Y330265*
Y329640*
X375312Y329140*
X375494Y328890*
X375767Y328765*
X375858*
X376131Y328890*
X376312Y329140*
X376403Y329515*
Y329640*
X376312Y330015*
X376131Y330265*
X375858Y330390*
X375767*
X375494Y330265*
X375312Y330015*
X375221Y329640*
X371486Y280961D02*
Y279086D01*
X371576Y278711*
X371758Y278461*
X372031Y278336*
X372213*
X372486Y278461*
X372667Y278711*
X372758Y279086*
Y280961*
X373576Y280461D02*
X373758Y280586D01*
X374031Y280961*
Y278336*
X376031Y280961D02*
X375122D01*
X375031Y279836*
X375122Y279961*
X375395Y280086*
X375667*
X375940Y279961*
X376122Y279711*
X376213Y279336*
X376122Y279086*
X376031Y278711*
X375849Y278461*
X375576Y278336*
X375304*
X375031Y278461*
X374940Y278586*
X374849Y278836*
X295522Y323962D02*
Y322087D01*
X295613Y321712*
X295795Y321462*
X296068Y321337*
X296250*
X296522Y321462*
X296704Y321712*
X296795Y322087*
Y323962*
X297613Y323462D02*
X297795Y323587D01*
X298068Y323962*
Y321337*
X300068Y323087D02*
X299977Y322712D01*
X299795Y322462*
X299522Y322337*
X299431*
X299159Y322462*
X298977Y322712*
X298886Y323087*
Y323212*
X298977Y323587*
X299159Y323837*
X299431Y323962*
X299522*
X299795Y323837*
X299977Y323587*
X300068Y323087*
Y322462*
X299977Y321837*
X299795Y321462*
X299522Y321337*
X299340*
X299068Y321462*
X298977Y321712*
X441219Y300642D02*
Y298017D01*
X440583Y300642D02*
X441855D01*
X442855D02*
X443855D01*
X443310Y299642*
X443583*
X443764Y299517*
X443855Y299392*
X443946Y299017*
Y298767*
X443855Y298392*
X443674Y298142*
X443401Y298017*
X443128*
X442855Y298142*
X442764Y298267*
X442674Y298517*
X444764Y300142D02*
X444946Y300267D01*
X445219Y300642*
Y298017*
X460843Y198448D02*
Y196573D01*
X460933Y196198*
X461115Y195948*
X461388Y195823*
X461570*
X461843Y195948*
X462024Y196198*
X462115Y196573*
Y198448*
X464206D02*
X463297Y195823D01*
X462933Y198448D02*
X464206D01*
X461269Y247147D02*
Y245272D01*
X461360Y244897*
X461542Y244647*
X461814Y244522*
X461996*
X462269Y244647*
X462451Y244897*
X462542Y245272*
Y247147*
X463814D02*
X463542Y247022D01*
X463451Y246772*
Y246522*
X463542Y246272*
X463724Y246147*
X464087Y246022*
X464360Y245897*
X464542Y245647*
X464633Y245397*
Y245022*
X464542Y244772*
X464451Y244647*
X464178Y244522*
X463814*
X463542Y244647*
X463451Y244772*
X463360Y245022*
Y245397*
X463451Y245647*
X463633Y245897*
X463905Y246022*
X464269Y246147*
X464451Y246272*
X464542Y246522*
Y246772*
X464451Y247022*
X464178Y247147*
X463814*
X312657Y325917D02*
X312907Y326008D01*
X313157Y326190*
X313282Y326372*
Y326735*
X313157Y326917*
X312907Y327099*
X312657Y327190*
X312282Y327281*
X311657*
X311282Y327190*
X311032Y327099*
X310782Y326917*
X310657Y326735*
Y326372*
X310782Y326190*
X311032Y326008*
X311282Y325917*
X312782Y325099D02*
X312907Y324917D01*
X313282Y324644*
X310657*
X312782Y323826D02*
X312907Y323644D01*
X313282Y323372*
X310657*
X328403Y327436D02*
X328653Y327526D01*
X328903Y327708*
X329028Y327890*
Y328254*
X328903Y328436*
X328653Y328617*
X328403Y328708*
X328028Y328799*
X327403*
X327028Y328708*
X326778Y328617*
X326528Y328436*
X326403Y328254*
Y327890*
X326528Y327708*
X326778Y327526*
X327028Y327436*
X328528Y326617D02*
X328653Y326436D01*
X329028Y326163*
X326403*
X328403Y325254D02*
X328528D01*
X328778Y325163*
X328903Y325072*
X329028Y324890*
Y324526*
X328903Y324345*
X328778Y324254*
X328528Y324163*
X328278*
X328028Y324254*
X327653Y324436*
X326403Y325345*
Y324072*
X416664Y297606D02*
X416914Y297697D01*
X417164Y297879*
X417289Y298061*
Y298424*
X417164Y298606*
X416914Y298788*
X416664Y298879*
X416289Y298970*
X415664*
X415289Y298879*
X415039Y298788*
X414789Y298606*
X414664Y298424*
Y298061*
X414789Y297879*
X415039Y297697*
X415289Y297606*
X416789Y296788D02*
X416914Y296606D01*
X417289Y296333*
X414664*
X417289Y294606D02*
X415539Y295515D01*
Y294152*
X417289Y294606D02*
X414664D01*
X353373Y327883D02*
X353623Y327974D01*
X353873Y328156*
X353998Y328338*
Y328701*
X353873Y328883*
X353623Y329065*
X353373Y329156*
X352998Y329247*
X352373*
X351998Y329156*
X351748Y329065*
X351498Y328883*
X351373Y328701*
Y328338*
X351498Y328156*
X351748Y327974*
X351998Y327883*
X353498Y327065D02*
X353623Y326883D01*
X353998Y326610*
X351373*
X353998Y324610D02*
Y325519D01*
X352873Y325610*
X352998Y325519*
X353123Y325247*
Y324974*
X352998Y324701*
X352748Y324519*
X352373Y324429*
X352123Y324519*
X351748Y324610*
X351498Y324792*
X351373Y325065*
Y325338*
X351498Y325610*
X351623Y325701*
X351873Y325792*
X272777Y328496D02*
X273027Y328587D01*
X273277Y328769*
X273402Y328950*
Y329314*
X273277Y329496*
X273027Y329678*
X272777Y329769*
X272402Y329860*
X271777*
X271402Y329769*
X271152Y329678*
X270902Y329496*
X270777Y329314*
Y328950*
X270902Y328769*
X271152Y328587*
X271402Y328496*
X272902Y327678D02*
X273027Y327496D01*
X273402Y327223*
X270777*
X273402Y325950D02*
X273277Y326223D01*
X273027Y326314*
X272777*
X272527Y326223*
X272402Y326041*
X272277Y325678*
X272152Y325405*
X271902Y325223*
X271652Y325132*
X271277*
X271027Y325223*
X270902Y325314*
X270777Y325587*
Y325950*
X270902Y326223*
X271027Y326314*
X271277Y326405*
X271652*
X271902Y326314*
X272152Y326132*
X272277Y325860*
X272402Y325496*
X272527Y325314*
X272777Y325223*
X273027*
X273277Y325314*
X273402Y325587*
Y325950*
X354912Y268516D02*
X355162Y268607D01*
X355412Y268788*
X355537Y268970*
Y269334*
X355412Y269516*
X355162Y269697*
X354912Y269788*
X354537Y269879*
X353912*
X353537Y269788*
X353287Y269697*
X353037Y269516*
X352912Y269334*
Y268970*
X353037Y268788*
X353287Y268607*
X353537Y268516*
X354912Y267607D02*
X355037D01*
X355287Y267516*
X355412Y267425*
X355537Y267243*
Y266879*
X355412Y266697*
X355287Y266607*
X355037Y266516*
X354787*
X354537Y266607*
X354162Y266788*
X352912Y267697*
Y266425*
X355537Y265061D02*
X355412Y265334D01*
X355037Y265516*
X354412Y265607*
X354037*
X353412Y265516*
X353037Y265334*
X352912Y265061*
Y264879*
X353037Y264607*
X353412Y264425*
X354037Y264334*
X354412*
X355037Y264425*
X355412Y264607*
X355537Y264879*
Y265061*
X344579Y268373D02*
X344829Y268463D01*
X345079Y268645*
X345204Y268827*
Y269191*
X345079Y269373*
X344829Y269554*
X344579Y269645*
X344204Y269736*
X343579*
X343204Y269645*
X342954Y269554*
X342704Y269373*
X342579Y269191*
Y268827*
X342704Y268645*
X342954Y268463*
X343204Y268373*
X344579Y267463D02*
X344704D01*
X344954Y267373*
X345079Y267282*
X345204Y267100*
Y266736*
X345079Y266554*
X344954Y266463*
X344704Y266373*
X344454*
X344204Y266463*
X343829Y266645*
X342579Y267554*
Y266282*
X344704Y265463D02*
X344829Y265282D01*
X345204Y265009*
X342579*
X290818Y193224D02*
X290727Y193474D01*
X290545Y193724*
X290363Y193849*
X290000*
X289818Y193724*
X289636Y193474*
X289545Y193224*
X289454Y192849*
Y192224*
X289545Y191849*
X289636Y191599*
X289818Y191349*
X290000Y191224*
X290363*
X290545Y191349*
X290727Y191599*
X290818Y191849*
X291818Y193849D02*
X292818D01*
X292272Y192849*
X292545*
X292727Y192724*
X292818Y192599*
X292909Y192224*
Y191974*
X292818Y191599*
X292636Y191349*
X292363Y191224*
X292090*
X291818Y191349*
X291727Y191474*
X291636Y191724*
X294818Y193474D02*
X294727Y193724D01*
X294454Y193849*
X294272*
X294000Y193724*
X293818Y193349*
X293727Y192724*
Y192099*
X293818Y191599*
X294000Y191349*
X294272Y191224*
X294363*
X294636Y191349*
X294818Y191599*
X294909Y191974*
Y192099*
X294818Y192474*
X294636Y192724*
X294363Y192849*
X294272*
X294000Y192724*
X293818Y192474*
X293727Y192099*
X341312Y328515D02*
X341625Y328628D01*
X341937Y328856*
X342094Y329083*
Y329537*
X341937Y329765*
X341625Y329992*
X341312Y330106*
X340844Y330219*
X340062*
X339594Y330106*
X339281Y329992*
X338969Y329765*
X338812Y329537*
Y329083*
X338969Y328856*
X339281Y328628*
X339594Y328515*
X341469Y327492D02*
X341625Y327265D01*
X342094Y326924*
X338812*
X341625Y324537D02*
X341937Y324651D01*
X342094Y324992*
Y325219*
X341937Y325560*
X341469Y325787*
X340687Y325901*
X339906*
X339281Y325787*
X338969Y325560*
X338812Y325219*
Y325106*
X338969Y324765*
X339281Y324537*
X339750Y324424*
X339906*
X340375Y324537*
X340687Y324765*
X340844Y325106*
Y325219*
X340687Y325560*
X340375Y325787*
X339906Y325901*
X283020Y329094D02*
X283270Y329185D01*
X283520Y329367*
X283645Y329549*
Y329913*
X283520Y330094*
X283270Y330276*
X283020Y330367*
X282645Y330458*
X282020*
X281645Y330367*
X281395Y330276*
X281145Y330094*
X281020Y329913*
Y329549*
X281145Y329367*
X281395Y329185*
X281645Y329094*
X283270Y327185D02*
X283520Y327276D01*
X283645Y327549*
Y327731*
X283520Y328003*
X283145Y328185*
X282520Y328276*
X281895*
X281395Y328185*
X281145Y328003*
X281020Y327731*
Y327640*
X281145Y327367*
X281395Y327185*
X281770Y327094*
X281895*
X282270Y327185*
X282520Y327367*
X282645Y327640*
Y327731*
X282520Y328003*
X282270Y328185*
X281895Y328276*
X283020Y326185D02*
X283145D01*
X283395Y326094*
X283520Y326003*
X283645Y325822*
Y325458*
X283520Y325276*
X283395Y325185*
X283145Y325094*
X282895*
X282645Y325185*
X282270Y325367*
X281020Y326276*
Y325003*
X460976Y328829D02*
X461226Y328920D01*
X461476Y329102*
X461601Y329284*
Y329647*
X461476Y329829*
X461226Y330011*
X460976Y330102*
X460601Y330193*
X459976*
X459601Y330102*
X459351Y330011*
X459101Y329829*
X458976Y329647*
Y329284*
X459101Y329102*
X459351Y328920*
X459601Y328829*
X461226Y326920D02*
X461476Y327011D01*
X461601Y327284*
Y327466*
X461476Y327738*
X461101Y327920*
X460476Y328011*
X459851*
X459351Y327920*
X459101Y327738*
X458976Y327466*
Y327375*
X459101Y327102*
X459351Y326920*
X459726Y326829*
X459851*
X460226Y326920*
X460476Y327102*
X460601Y327375*
Y327466*
X460476Y327738*
X460226Y327920*
X459851Y328011*
X461601Y325102D02*
X459851Y326011D01*
Y324647*
X461601Y325102D02*
X458976D01*
X486887Y107449D02*
Y105449D01*
X486796Y105074*
X486705Y104949*
X486523Y104824*
X486341*
X486160Y104949*
X486069Y105074*
X485978Y105449*
Y105699*
X487796Y106824D02*
Y106949D01*
X487887Y107199*
X487978Y107324*
X488160Y107449*
X488523*
X488705Y107324*
X488796Y107199*
X488887Y106949*
Y106699*
X488796Y106449*
X488614Y106074*
X487705Y104824*
X488978*
X523437Y138172D02*
Y136172D01*
X523346Y135797*
X523255Y135672*
X523073Y135547*
X522891*
X522709Y135672*
X522618Y135797*
X522528Y136172*
Y136422*
X525437Y138172D02*
X524528D01*
X524437Y137047*
X524528Y137172*
X524800Y137297*
X525073*
X525346Y137172*
X525528Y136922*
X525618Y136547*
X525528Y136297*
X525437Y135922*
X525255Y135672*
X524982Y135547*
X524709*
X524437Y135672*
X524346Y135797*
X524255Y136047*
X524727Y198429D02*
Y196429D01*
X524636Y196054*
X524545Y195929*
X524363Y195804*
X524181*
X523999Y195929*
X523908Y196054*
X523818Y196429*
Y196679*
X526636Y198054D02*
X526545Y198304D01*
X526272Y198429*
X526090*
X525818Y198304*
X525636Y197929*
X525545Y197304*
Y196679*
X525636Y196179*
X525818Y195929*
X526090Y195804*
X526181*
X526454Y195929*
X526636Y196179*
X526727Y196554*
Y196679*
X526636Y197054*
X526454Y197304*
X526181Y197429*
X526090*
X525818Y197304*
X525636Y197054*
X525545Y196679*
X313177Y162129D02*
Y160254D01*
X313268Y159879*
X313450Y159629*
X313723Y159504*
X313904*
X314177Y159629*
X314359Y159879*
X314450Y160254*
Y162129*
X316450Y161254D02*
X316359Y160879D01*
X316177Y160629*
X315904Y160504*
X315814*
X315541Y160629*
X315359Y160879*
X315268Y161254*
Y161379*
X315359Y161754*
X315541Y162004*
X315814Y162129*
X315904*
X316177Y162004*
X316359Y161754*
X316450Y161254*
Y160629*
X316359Y160004*
X316177Y159629*
X315904Y159504*
X315723*
X315450Y159629*
X315359Y159879*
X213304Y307866D02*
Y305241D01*
Y307866D02*
X214123D01*
X214395Y307741*
X214486Y307616*
X214577Y307366*
Y307116*
X214486Y306866*
X214395Y306741*
X214123Y306616*
X213304*
X213941D02*
X214577Y305241D01*
X215486Y307241D02*
Y307366D01*
X215577Y307616*
X215668Y307741*
X215850Y307866*
X216214*
X216395Y307741*
X216486Y307616*
X216577Y307366*
Y307116*
X216486Y306866*
X216304Y306491*
X215395Y305241*
X216668*
X213070Y316435D02*
Y313810D01*
Y316435D02*
X213888D01*
X214160Y316310*
X214251Y316185*
X214342Y315935*
Y315685*
X214251Y315435*
X214160Y315310*
X213888Y315185*
X213070*
X213706D02*
X214342Y313810D01*
X215160Y315935D02*
X215342Y316060D01*
X215615Y316435*
Y313810*
X173599Y168035D02*
X170974D01*
X173599D02*
Y167217D01*
X173474Y166945*
X173349Y166854*
X173099Y166763*
X172849*
X172599Y166854*
X172474Y166945*
X172349Y167217*
Y168035*
Y167399D02*
X170974Y166763D01*
X173599Y165035D02*
X171849Y165945D01*
Y164581*
X173599Y165035D02*
X170974D01*
X178010Y167961D02*
X175385D01*
X178010D02*
Y167142D01*
X177885Y166870*
X177760Y166779*
X177510Y166688*
X177260*
X177010Y166779*
X176885Y166870*
X176760Y167142*
Y167961*
Y167324D02*
X175385Y166688D01*
X178010Y164688D02*
Y165597D01*
X176885Y165688*
X177010Y165597*
X177135Y165324*
Y165052*
X177010Y164779*
X176760Y164597*
X176385Y164506*
X176135Y164597*
X175760Y164688*
X175510Y164870*
X175385Y165142*
Y165415*
X175510Y165688*
X175635Y165779*
X175885Y165870*
X182794Y168185D02*
X180169D01*
X182794D02*
Y167367D01*
X182669Y167094*
X182544Y167003*
X182294Y166912*
X182044*
X181794Y167003*
X181669Y167094*
X181544Y167367*
Y168185*
Y167549D02*
X180169Y166912D01*
X182294Y166094D02*
X182419Y165912D01*
X182794Y165640*
X180169*
X182794Y163549D02*
X180169Y164458D01*
X182794Y164821D02*
Y163549D01*
X325328Y152534D02*
Y149909D01*
Y152534D02*
X326146D01*
X326419Y152409*
X326510Y152284*
X326601Y152034*
Y151784*
X326510Y151534*
X326419Y151409*
X326146Y151284*
X325328*
X325964D02*
X326601Y149909D01*
X327601Y152534D02*
X328601D01*
X328055Y151534*
X328328*
X328510Y151409*
X328601Y151284*
X328692Y150909*
Y150659*
X328601Y150284*
X328419Y150034*
X328146Y149909*
X327874*
X327601Y150034*
X327510Y150159*
X327419Y150409*
X330692Y152534D02*
X329783D01*
X329692Y151409*
X329783Y151534*
X330055Y151659*
X330328*
X330601Y151534*
X330783Y151284*
X330874Y150909*
X330783Y150659*
X330692Y150284*
X330510Y150034*
X330237Y149909*
X329964*
X329692Y150034*
X329601Y150159*
X329510Y150409*
X327978Y156205D02*
Y153580D01*
Y156205D02*
X328796D01*
X329069Y156080*
X329160Y155955*
X329250Y155705*
Y155455*
X329160Y155205*
X329069Y155080*
X328796Y154955*
X327978*
X328614D02*
X329250Y153580D01*
X330250Y156205D02*
X331250D01*
X330705Y155205*
X330978*
X331160Y155080*
X331250Y154955*
X331341Y154580*
Y154330*
X331250Y153955*
X331069Y153705*
X330796Y153580*
X330523*
X330250Y153705*
X330160Y153830*
X330069Y154080*
X333069Y156205D02*
X332160Y154455D01*
X333523*
X333069Y156205D02*
Y153580D01*
X207591Y262234D02*
Y259609D01*
Y262234D02*
X208409D01*
X208681Y262109*
X208772Y261984*
X208863Y261734*
Y261484*
X208772Y261234*
X208681Y261109*
X208409Y260984*
X207591*
X208227D02*
X208863Y259609D01*
X210863Y262234D02*
X209954D01*
X209863Y261109*
X209954Y261234*
X210227Y261359*
X210500*
X210772Y261234*
X210954Y260984*
X211045Y260609*
X210954Y260359*
X210863Y259984*
X210681Y259734*
X210409Y259609*
X210136*
X209863Y259734*
X209772Y259859*
X209681Y260109*
X212409Y262234D02*
X212136Y262109D01*
X211954Y261734*
X211863Y261109*
Y260734*
X211954Y260109*
X212136Y259734*
X212409Y259609*
X212591*
X212863Y259734*
X213045Y260109*
X213136Y260734*
Y261109*
X213045Y261734*
X212863Y262109*
X212591Y262234*
X212409*
X190333Y259128D02*
Y256503D01*
Y259128D02*
X191152D01*
X191424Y259003*
X191515Y258878*
X191606Y258628*
Y258378*
X191515Y258128*
X191424Y258003*
X191152Y257878*
X190333*
X190970D02*
X191606Y256503D01*
X193333Y259128D02*
X192424Y257378D01*
X193788*
X193333Y259128D02*
Y256503D01*
X195788Y258253D02*
X195697Y257878D01*
X195515Y257628*
X195242Y257503*
X195152*
X194879Y257628*
X194697Y257878*
X194606Y258253*
Y258378*
X194697Y258753*
X194879Y259003*
X195152Y259128*
X195242*
X195515Y259003*
X195697Y258753*
X195788Y258253*
Y257628*
X195697Y257003*
X195515Y256628*
X195242Y256503*
X195061*
X194788Y256628*
X194697Y256878*
X184464Y265843D02*
X181839D01*
X184464D02*
Y265024D01*
X184339Y264752*
X184214Y264661*
X183964Y264570*
X183714*
X183464Y264661*
X183339Y264752*
X183214Y265024*
Y265843*
Y265206D02*
X181839Y264570D01*
X184464Y262843D02*
X182714Y263752D01*
Y262388*
X184464Y262843D02*
X181839D01*
X184089Y260479D02*
X184339Y260570D01*
X184464Y260843*
Y261024*
X184339Y261297*
X183964Y261479*
X183339Y261570*
X182714*
X182214Y261479*
X181964Y261297*
X181839Y261024*
Y260933*
X181964Y260661*
X182214Y260479*
X182589Y260388*
X182714*
X183089Y260479*
X183339Y260661*
X183464Y260933*
Y261024*
X183339Y261297*
X183089Y261479*
X182714Y261570*
X180999Y273572D02*
X178374D01*
X180999D02*
Y272754D01*
X180874Y272481*
X180749Y272390*
X180499Y272299*
X180249*
X179999Y272390*
X179874Y272481*
X179749Y272754*
Y273572*
Y272936D02*
X178374Y272299D01*
X180999Y270572D02*
X179249Y271481D01*
Y270118*
X180999Y270572D02*
X178374D01*
X180999Y268390D02*
X179249Y269299D01*
Y267936*
X180999Y268390D02*
X178374D01*
X176939Y273848D02*
X174314D01*
X176939D02*
Y273030D01*
X176814Y272757*
X176689Y272666*
X176439Y272575*
X176189*
X175939Y272666*
X175814Y272757*
X175689Y273030*
Y273848*
Y273211D02*
X174314Y272575D01*
X176939Y270848D02*
X175189Y271757D01*
Y270393*
X176939Y270848D02*
X174314D01*
X176939Y269393D02*
Y268393D01*
X175939Y268939*
Y268666*
X175814Y268484*
X175689Y268393*
X175314Y268302*
X175064*
X174689Y268393*
X174439Y268575*
X174314Y268848*
Y269120*
X174439Y269393*
X174564Y269484*
X174814Y269575*
X172603Y273923D02*
X169978D01*
X172603D02*
Y273104D01*
X172478Y272832*
X172353Y272741*
X172103Y272650*
X171853*
X171603Y272741*
X171478Y272832*
X171353Y273104*
Y273923*
Y273286D02*
X169978Y272650D01*
X172603Y270923D02*
X170853Y271832D01*
Y270468*
X172603Y270923D02*
X169978D01*
X171978Y269559D02*
X172103D01*
X172353Y269468*
X172478Y269377*
X172603Y269195*
Y268832*
X172478Y268650*
X172353Y268559*
X172103Y268468*
X171853*
X171603Y268559*
X171228Y268741*
X169978Y269650*
Y268377*
X166696Y281474D02*
X164071D01*
X166696D02*
Y280656D01*
X166571Y280383*
X166446Y280292*
X166196Y280201*
X165946*
X165696Y280292*
X165571Y280383*
X165446Y280656*
Y281474*
Y280837D02*
X164071Y280201D01*
X166696Y278474D02*
X164946Y279383D01*
Y278019*
X166696Y278474D02*
X164071D01*
X166196Y277201D02*
X166321Y277019D01*
X166696Y276746*
X164071*
X163166Y265759D02*
X160541D01*
X163166D02*
Y264940D01*
X163041Y264668*
X162916Y264577*
X162666Y264486*
X162416*
X162166Y264577*
X162041Y264668*
X161916Y264940*
Y265759*
Y265122D02*
X160541Y264486D01*
X163166Y262759D02*
X161416Y263668D01*
Y262304*
X163166Y262759D02*
X160541D01*
X163166Y260940D02*
X163041Y261213D01*
X162666Y261395*
X162041Y261486*
X161666*
X161041Y261395*
X160666Y261213*
X160541Y260940*
Y260759*
X160666Y260486*
X161041Y260304*
X161666Y260213*
X162041*
X162666Y260304*
X163041Y260486*
X163166Y260759*
Y260940*
X273063Y196419D02*
X270438D01*
X273063D02*
Y195600D01*
X272938Y195328*
X272813Y195237*
X272563Y195146*
X272313*
X272063Y195237*
X271938Y195328*
X271813Y195600*
Y196419*
Y195782D02*
X270438Y195146D01*
X273063Y194146D02*
Y193146D01*
X272063Y193691*
Y193419*
X271938Y193237*
X271813Y193146*
X271438Y193055*
X271188*
X270813Y193146*
X270563Y193328*
X270438Y193600*
Y193873*
X270563Y194146*
X270688Y194237*
X270938Y194328*
X457314Y229870D02*
X454689D01*
X457314D02*
Y229052D01*
X457189Y228779*
X457064Y228688*
X456814Y228597*
X456564*
X456314Y228688*
X456189Y228779*
X456064Y229052*
Y229870*
Y229234D02*
X454689Y228597D01*
X456814Y227779D02*
X456939Y227597D01*
X457314Y227325*
X454689*
X457314Y225597D02*
X455564Y226506D01*
Y225143*
X457314Y225597D02*
X454689D01*
X391638Y154428D02*
Y151803D01*
Y154428D02*
X392456D01*
X392729Y154303*
X392820Y154178*
X392911Y153928*
Y153678*
X392820Y153428*
X392729Y153303*
X392456Y153178*
X391638*
X392274D02*
X392911Y151803D01*
X393820Y153803D02*
Y153928D01*
X393911Y154178*
X394001Y154303*
X394183Y154428*
X394547*
X394729Y154303*
X394820Y154178*
X394911Y153928*
Y153678*
X394820Y153428*
X394638Y153053*
X393729Y151803*
X395001*
X397092Y154428D02*
X396183Y151803D01*
X395820Y154428D02*
X397092D01*
G54D69*
X200584Y245297D02*
X151372D01*
Y199746*
X152669Y196991*
X153176Y196084*
X200584*
Y245297*
X296867Y257749D02*
Y257949D01*
X294769Y260482*
X263403*
Y227017*
X296867*
Y257949*
X435394Y259696D02*
X438839D01*
Y258957*
X439823*
Y259696*
X443268*
Y247885*
X435394*
Y259696*
X145600Y292651D02*
Y304622D01*
X148676*
Y308042*
X145600*
Y320013*
X194812*
Y292651*
X145600*
X369958Y295428D02*
X373403D01*
Y294690*
X374387*
Y295428*
X377832*
Y283617*
X369958*
Y295428*
X312229Y163821D02*
X327829D01*
Y177421*
X325990Y179221*
X312229*
Y163821*
G54D70*
X238596Y100693D02*
X364474D01*
Y129434*
X238596*
Y100693*
X532165Y264283D02*
X469157D01*
Y303102*
X532165*
Y264283*
X532157Y280693D02*
X528157D01*
Y287693*
X532157*
Y280693*
X436496Y103676D02*
Y127676D01*
X445496*
Y154676*
X473496*
Y128676*
X483496*
Y100676*
X436496*
Y103676*
X529118Y140904D02*
X505118D01*
Y149904*
X478118*
Y177904*
X504118*
Y187904*
X532118*
Y140904*
X529118*
X529125Y201109D02*
X505125D01*
Y210109*
X478125*
Y238109*
X504125*
Y248109*
X532125*
Y201109*
X529125*
G54D71*
X451829Y263507D02*
X426151D01*
Y289118*
X451829*
Y263507*
X384919Y237732D02*
Y212053D01*
X359307*
Y237732*
X384919*
X386827Y301446D02*
X361148D01*
Y327058*
X386827*
Y301446*
G54D72*
X114047Y321219D02*
Y320516D01*
X114081Y320376*
X114150Y320282*
X114252Y320235*
X114320*
X114422Y320282*
X114490Y320376*
X114525Y320516*
Y321219*
X114831Y321032D02*
X114900Y321079D01*
X115002Y321219*
Y320235*
X115650Y321219D02*
X115309Y320563D01*
X115820*
X115650Y321219D02*
Y320235D01*
X515622Y321219D02*
Y320516D01*
X515656Y320376*
X515724Y320282*
X515827Y320235*
X515895*
X515997Y320282*
X516065Y320376*
X516099Y320516*
Y321219*
X516406Y321032D02*
X516474Y321079D01*
X516577Y321219*
Y320235*
X517293Y321079D02*
X517258Y321172D01*
X517156Y321219*
X517088*
X516986Y321172*
X516918Y321032*
X516918D02*
X516883Y320797D01*
Y320563*
X516918Y320376*
X516918D02*
X516986Y320282D01*
X517088Y320235*
X517122*
X517224Y320282*
X517293Y320376*
X517293D02*
X517327Y320516D01*
Y320563*
X517293Y320704*
X517293D02*
X517224Y320797D01*
X517122Y320844*
X517088*
X516986Y320797*
X516918Y320704*
X516918D02*
X516883Y320563D01*
X114047Y116495D02*
Y115792D01*
X114081Y115651*
X114150Y115557*
X114252Y115510*
X114252D02*
X114320D01*
X114320D02*
X114422Y115557D01*
X114490Y115651*
X114525Y115792*
Y116495*
X114831Y116307D02*
X114900Y116354D01*
X115002Y116495*
Y115510*
X115786Y116495D02*
X115445Y115510D01*
X115309Y116495D02*
X115786D01*
X515622D02*
Y115792D01*
X515656Y115651*
X515724Y115557*
X515827Y115510*
X515827D02*
X515895D01*
X515895D02*
X515997Y115557D01*
X516065Y115651*
X516099Y115792*
Y116495*
X516406Y116307D02*
X516474Y116354D01*
X516577Y116495*
Y115510*
X517054Y116495D02*
X516952Y116448D01*
X516918Y116354*
X516918D02*
Y116260D01*
X516918D02*
X516952Y116167D01*
X517020Y116120*
X517156Y116073*
X517258Y116026*
X517327Y115932*
X517361Y115839*
Y115698*
X517327Y115604*
X517293Y115557*
X517293D02*
X517190Y115510D01*
X517190D02*
X517054D01*
X517054D02*
X516952Y115557D01*
X516918Y115604*
X516918D02*
X516883Y115698D01*
Y115839*
X516918Y115932*
X516918D02*
X516986Y116026D01*
X517088Y116073*
X517224Y116120*
X517293Y116167*
X517293D02*
X517327Y116260D01*
X517327D02*
Y116354D01*
X517293Y116448*
X517293D02*
X517190Y116495D01*
X517054*
G54D73*
X472930Y186253D02*
Y184592D01*
X473020Y184260*
X473199Y184039*
X473467Y183928*
X473646*
X473915Y184039*
X474094Y184260*
X474183Y184592*
Y186253*
X475078Y185699D02*
Y185810D01*
X475167Y186032*
X475257Y186142*
X475436Y186253*
X475794*
X475973Y186142*
X476062Y186032*
X476152Y185810*
Y185589*
X476062Y185367*
X475883Y185035*
X474988Y183928*
X476241*
G74*
X0Y0D02*
M02*
