*
*
G04 PADS VX.1.2 Build Number: 698008 generated Gerber (RS-274-X) file*
G04 PC Version=2.1*
*
%IN "PositionDecion_ZM_V1.0_"*%
*
%MOIN*%
*
%FSLAX35Y35*%
*
*
*
*
G04 PC Standard Apertures*
*
*
G04 Thermal Relief Aperture macro.*
%AMTER*
1,1,$1,0,0*
1,0,$1-$2,0,0*
21,0,$3,$4,0,0,45*
21,0,$3,$4,0,0,135*
%
*
*
G04 Annular Aperture macro.*
%AMANN*
1,1,$1,0,0*
1,0,$2,0,0*
%
*
*
G04 Odd Aperture macro.*
%AMODD*
1,1,$1,0,0*
1,0,$1-0.005,0,0*
%
*
*
G04 PC Custom Aperture Macros*
*
*
*
*
*
*
G04 PC Aperture Table*
*
%ADD010C,0.001*%
%ADD011C,0.005*%
%ADD012C,0.0015*%
%ADD016C,0.01*%
*
*
*
*
G04 PC Circuitry*
G04 Layer Name PositionDecion_ZM_V1.0_ - circuitry*
%LPD*%
*
*
G04 PC Custom Flashes*
G04 Layer Name PositionDecion_ZM_V1.0_ - flashes*
%LPD*%
*
*
G04 PC Circuitry*
G04 Layer Name PositionDecion_ZM_V1.0_ - circuitry*
%LPD*%
*
G54D10*
G54D11*
G01X583325Y439055D02*
X583200Y439236D01*
X582950Y439418*
X582700Y439509*
X582325Y439600*
X581700*
X581325Y439509*
X581075Y439418*
X580825Y439236*
X580700Y439055*
Y438691*
X580825Y438509*
X581075Y438327*
X581325Y438236*
X581700Y438145*
X582325*
X582700Y438236*
X582950Y438327*
X583200Y438509*
X583325Y438691*
Y439055*
X581200Y438782D02*
X580450Y438236D01*
X583325Y437145D02*
Y436145D01*
X582325Y436691*
Y436418*
X582200Y436236*
X582075Y436145*
X581700Y436055*
X581450*
X581075Y436145*
X580825Y436327*
X580700Y436600*
Y436873*
X580825Y437145*
X580950Y437236*
X581200Y437327*
X583525Y410855D02*
X583400Y411036D01*
X583150Y411218*
X582900Y411309*
X582525Y411400*
X581900*
X581525Y411309*
X581275Y411218*
X581025Y411036*
X580900Y410855*
Y410491*
X581025Y410309*
X581275Y410127*
X581525Y410036*
X581900Y409945*
X582525*
X582900Y410036*
X583150Y410127*
X583400Y410309*
X583525Y410491*
Y410855*
X581400Y410582D02*
X580650Y410036D01*
X583025Y409127D02*
X583150Y408945D01*
X583525Y408673*
X580900*
X528425Y438055D02*
X528300Y438236D01*
X528050Y438418*
X527800Y438509*
X527425Y438600*
X526800*
X526425Y438509*
X526175Y438418*
X525925Y438236*
X525800Y438055*
Y437691*
X525925Y437509*
X526175Y437327*
X526425Y437236*
X526800Y437145*
X527425*
X527800Y437236*
X528050Y437327*
X528300Y437509*
X528425Y437691*
Y438055*
X526300Y437782D02*
X525550Y437236D01*
X527800Y436236D02*
X527925D01*
X528175Y436145*
X528300Y436055*
X528425Y435873*
Y435509*
X528300Y435327*
X528175Y435236*
X527925Y435145*
X527675*
X527425Y435236*
X527050Y435418*
X525800Y436327*
Y435055*
X528725Y411155D02*
X528600Y411336D01*
X528350Y411518*
X528100Y411609*
X527725Y411700*
X527100*
X526725Y411609*
X526475Y411518*
X526225Y411336*
X526100Y411155*
Y410791*
X526225Y410609*
X526475Y410427*
X526725Y410336*
X527100Y410245*
X527725*
X528100Y410336*
X528350Y410427*
X528600Y410609*
X528725Y410791*
Y411155*
X526600Y410882D02*
X525850Y410336D01*
X528725Y408518D02*
X526975Y409427D01*
Y408064*
X528725Y408518D02*
X526100D01*
G54D12*
X527364Y490073D02*
X527295Y490026D01*
X527227Y489933*
X527193Y489839*
X527159Y489698*
Y489464*
X527193Y489323*
X527227Y489230*
X527295Y489136*
X527364Y489089*
X527500*
X527568Y489136*
X527636Y489230*
X527670Y489323*
X527705Y489464*
Y489698*
X527670Y489839*
X527636Y489933*
X527568Y490026*
X527500Y490073*
X527364*
X527466Y489276D02*
X527670Y488995D01*
X528455Y490073D02*
X528114D01*
X528080Y489651*
X528114Y489698*
X528216Y489745*
X528318*
X528420Y489698*
X528489Y489605*
X528523Y489464*
X528489Y489370*
X528455Y489230*
X528386Y489136*
X528284Y489089*
X528182*
X528080Y489136*
X528045Y489183*
X528011Y489276*
X582482Y490073D02*
X582414Y490026D01*
X582345Y489933*
X582311Y489839*
X582277Y489698*
Y489464*
X582311Y489323*
X582345Y489230*
X582414Y489136*
X582482Y489089*
X582618*
X582686Y489136*
X582754Y489230*
X582789Y489323*
X582823Y489464*
Y489698*
X582789Y489839*
X582754Y489933*
X582686Y490026*
X582618Y490073*
X582482*
X582584Y489276D02*
X582789Y488995D01*
X583539Y489933D02*
X583504Y490026D01*
X583402Y490073*
X583334*
X583232Y490026*
X583164Y489886*
X583129Y489651*
Y489417*
X583164Y489230*
X583232Y489136*
X583334Y489089*
X583368*
X583470Y489136*
X583539Y489230*
X583573Y489370*
Y489417*
X583539Y489558*
X583470Y489651*
X583368Y489698*
X583334*
X583232Y489651*
X583164Y489558*
X583129Y489417*
G54D16*
X578377Y413617D02*
Y431917D01*
X587777*
Y413617*
X578377*
X591477Y415317D02*
Y419617D01*
X588977Y417517D02*
X593777D01*
X578377Y388026D02*
Y406326D01*
X587777*
Y388026*
X578377*
X591477Y389726D02*
Y394026D01*
X588977Y391926D02*
X593777D01*
X531859Y432156D02*
Y413856D01*
X522459*
Y432156*
X531859*
X518759Y430456D02*
Y426156D01*
X521259Y428256D02*
X516459D01*
X531859Y406226D02*
Y387926D01*
X522459*
Y406226*
X531859*
X518759Y404526D02*
Y400226D01*
X521259Y402326D02*
X516459D01*
X531200Y472763D02*
Y466200D01*
Y472763D02*
X533245D01*
X533245D02*
X533927Y472450D01*
X534155Y472138*
X534155D02*
X534382Y471513D01*
X534382D02*
Y470575D01*
X534155Y469950*
X533927Y469638*
X533927D02*
X533245Y469325D01*
X531200*
X537564Y470575D02*
X537109Y470263D01*
X537109D02*
X536655Y469638D01*
X536655D02*
X536427Y468700D01*
Y468075*
X536655Y467138*
X536655D02*
X537109Y466513D01*
X537109D02*
X537564Y466200D01*
X538245*
X538700Y466513*
X538700D02*
X539155Y467138D01*
X539155D02*
X539382Y468075D01*
Y468700*
X539155Y469638*
X539155D02*
X538700Y470263D01*
X538700D02*
X538245Y470575D01*
X537564*
X543927Y469638D02*
X543700Y470263D01*
X543700D02*
X543018Y470575D01*
X542336*
X541655Y470263*
X541655D02*
X541427Y469638D01*
X541427D02*
X541655Y469013D01*
X541655D02*
X542109Y468700D01*
X543245Y468388*
X543245D02*
X543700Y468075D01*
X543927Y467450*
Y467138*
X543927D02*
X543700Y466513D01*
X543700D02*
X543018Y466200D01*
X542336*
X541655Y466513*
X541655D02*
X541427Y467138D01*
X545973Y472763D02*
X546200Y472450D01*
X546427Y472763*
X546427D02*
X546200Y473075D01*
X545973Y472763*
X546200Y470575D02*
Y466200D01*
X549155Y472763D02*
Y467450D01*
X549382Y466513*
X549382D02*
X549836Y466200D01*
X550291*
X548473Y470575D02*
X550064D01*
X552336Y472763D02*
X552564Y472450D01*
X552791Y472763*
X552791D02*
X552564Y473075D01*
X552336Y472763*
X552564Y470575D02*
Y466200D01*
X555973Y470575D02*
X555518Y470263D01*
X555518D02*
X555064Y469638D01*
X555064D02*
X554836Y468700D01*
Y468075*
X555064Y467138*
X555064D02*
X555518Y466513D01*
X555518D02*
X555973Y466200D01*
X556655*
X557109Y466513*
X557109D02*
X557564Y467138D01*
X557564D02*
X557791Y468075D01*
Y468700*
X557564Y469638*
X557564D02*
X557109Y470263D01*
X557109D02*
X556655Y470575D01*
X555973*
X559836D02*
Y466200D01*
Y469325D02*
X560518Y470263D01*
X560518D02*
X560973Y470575D01*
X561655*
X562109Y470263*
X562109D02*
X562336Y469325D01*
Y466200*
X569609Y472763D02*
X571427Y466200D01*
X573245Y472763D02*
X571427Y466200D01*
X575291Y471513D02*
X575745Y471825D01*
X576427Y472763*
X576427D02*
Y466200D01*
X578700Y466825D02*
X578473Y466513D01*
X578473D02*
X578700Y466200D01*
X578927Y466513*
X578927D02*
X578700Y466825D01*
X582336Y472763D02*
X581655Y472450D01*
X581200Y471513*
X581200D02*
X580973Y469950D01*
Y469013*
X580973D02*
X581200Y467450D01*
X581655Y466513*
X581655D02*
X582336Y466200D01*
X582791*
X583473Y466513*
X583473D02*
X583927Y467450D01*
X584155Y469013*
X584155D02*
Y469950D01*
X583927Y471513*
X583927D02*
X583473Y472450D01*
X582791Y472763*
X582791D02*
X582336D01*
X0Y0D02*
M02*
