*
*
G04 PADS VX.1.2 Build Number: 698008 generated Gerber (RS-274-X) file*
G04 PC Version=2.1*
*
%IN "LockBase_ZM_V1.0_201808"*%
*
%MOIN*%
*
%FSLAX35Y35*%
*
*
*
*
G04 PC Standard Apertures*
*
*
G04 Thermal Relief Aperture macro.*
%AMTER*
1,1,$1,0,0*
1,0,$1-$2,0,0*
21,0,$3,$4,0,0,45*
21,0,$3,$4,0,0,135*
%
*
*
G04 Annular Aperture macro.*
%AMANN*
1,1,$1,0,0*
1,0,$2,0,0*
%
*
*
G04 Odd Aperture macro.*
%AMODD*
1,1,$1,0,0*
1,0,$1-0.005,0,0*
%
*
*
G04 PC Custom Aperture Macros*
*
*
*
*
*
*
G04 PC Aperture Table*
*
%ADD010C,0.001*%
%ADD039ANN,0.08087X0.05724*%
%ADD040R,0.046X0.046*%
%ADD041R,0.046X0.06*%
%ADD042R,0.04149X0.0478*%
%ADD043R,0.05724X0.02772*%
%ADD044R,0.12811X0.08874*%
%ADD045R,0.0478X0.04149*%
%ADD046R,0.08874X0.08874*%
%ADD047R,0.12811X0.04937*%
%ADD048R,0.04937X0.08874*%
%ADD049ANN,0.06906X0.04543*%
%ADD050R,0.048X0.048*%
%ADD051R,0.05724X0.08874*%
%ADD052R,0.10843X0.0415*%
%ADD053ANN,0.16748X0.08874*%
%ADD054R,0.03362X0.08874*%
*
*
*
*
G04 PC Circuitry*
G04 Layer Name LockBase_ZM_V1.0_201808 - circuitry*
%LPD*%
*
*
G04 PC Custom Flashes*
G04 Layer Name LockBase_ZM_V1.0_201808 - flashes*
%LPD*%
*
*
G04 PC Circuitry*
G04 Layer Name LockBase_ZM_V1.0_201808 - circuitry*
%LPD*%
*
G54D10*
G54D39*
G01X300079Y235118D03*
X280079D03*
X260079D03*
X240079D03*
X220079D03*
X200079D03*
G54D40*
X228848Y172163D03*
X236348D03*
G54D41*
X232598Y180163D03*
G54D42*
X272508Y176689D03*
Y170390D03*
X221063Y181654D03*
Y187953D03*
X303976Y149842D03*
Y143543D03*
X296496Y149842D03*
Y143543D03*
G54D43*
X263391Y170686D03*
Y176591D03*
Y182497D03*
G54D44*
X251580Y176591D03*
G54D45*
X253425Y158858D03*
X259724D03*
X230000Y120315D03*
X236299D03*
X120827Y179291D03*
X114528D03*
X301882Y195782D03*
X308180D03*
X280530Y195598D03*
X286828D03*
X253347Y151850D03*
X259646D03*
G54D46*
X251731Y197222D03*
X267479D03*
G54D47*
X203386Y134213D03*
Y142087D03*
Y149961D03*
Y157835D03*
Y165709D03*
Y173583D03*
Y181457D03*
Y189331D03*
X140394D03*
Y181457D03*
Y173583D03*
Y165709D03*
Y157835D03*
Y149961D03*
Y142087D03*
Y134213D03*
G54D48*
X191575Y197205D03*
X183701D03*
X175827D03*
X167953D03*
X160079D03*
X152205D03*
X107126Y132559D03*
G54D49*
X178150Y243150D03*
X168150D03*
X158150D03*
X148150D03*
X124921Y217283D03*
X114921D03*
X260787Y109370D03*
X270787D03*
X280787D03*
X177992Y216850D03*
X167992D03*
X157992D03*
X147992D03*
G54D50*
X236457Y113071D03*
X230157D03*
X236457Y145315D03*
X230157D03*
X270942Y130330D03*
Y124030D03*
X260667Y130252D03*
Y123952D03*
X121024Y196339D03*
X114724D03*
X280118Y143543D03*
Y149843D03*
X288110Y143543D03*
Y149843D03*
X121024Y187205D03*
X114724D03*
X221063Y165708D03*
Y172008D03*
X235512Y164016D03*
X229212D03*
X236457Y137323D03*
X230157D03*
Y128583D03*
X236457D03*
G54D51*
X124843Y165630D03*
Y132559D03*
X107126Y165630D03*
G54D52*
X316929Y129764D03*
Y149449D03*
G54D53*
X322484Y109835D03*
Y247630D03*
X109886D03*
Y109835D03*
G54D54*
X286516Y163378D03*
X291516D03*
X296516D03*
X301516D03*
Y187000D03*
X296516D03*
X291516D03*
X286516D03*
X0Y0D02*
M02*
