*
*
G04 PADS VX.1.2 Build Number: 698008 generated Gerber (RS-274-X) file*
G04 PC Version=2.1*
*
%IN "LockBase_ZM_V1.0_201808"*%
*
%MOIN*%
*
%FSLAX35Y35*%
*
*
*
*
G04 PC Standard Apertures*
*
*
G04 Thermal Relief Aperture macro.*
%AMTER*
1,1,$1,0,0*
1,0,$1-$2,0,0*
21,0,$3,$4,0,0,45*
21,0,$3,$4,0,0,135*
%
*
*
G04 Annular Aperture macro.*
%AMANN*
1,1,$1,0,0*
1,0,$2,0,0*
%
*
*
G04 Odd Aperture macro.*
%AMODD*
1,1,$1,0,0*
1,0,$1-0.005,0,0*
%
*
*
G04 PC Custom Aperture Macros*
*
*
*
*
*
*
G04 PC Aperture Table*
*
%ADD010C,0.001*%
%ADD012R,0.036X0.036*%
%ADD013R,0.036X0.05*%
%ADD014R,0.03149X0.0378*%
%ADD015R,0.04724X0.01772*%
%ADD016R,0.11811X0.07874*%
%ADD017R,0.0378X0.03149*%
%ADD018R,0.07874X0.07874*%
%ADD019R,0.11811X0.03937*%
%ADD020R,0.03937X0.07874*%
%ADD022R,0.038X0.038*%
%ADD023R,0.04724X0.07874*%
%ADD024R,0.09843X0.0315*%
%ADD026R,0.02362X0.07874*%
*
*
*
*
G04 PC Circuitry*
G04 Layer Name LockBase_ZM_V1.0_201808 - circuitry*
%LPD*%
*
*
G04 PC Custom Flashes*
G04 Layer Name LockBase_ZM_V1.0_201808 - flashes*
%LPD*%
*
*
G04 PC Circuitry*
G04 Layer Name LockBase_ZM_V1.0_201808 - circuitry*
%LPD*%
*
G54D10*
G54D12*
G01X228848Y172163D03*
X236348D03*
G54D13*
X232598Y180163D03*
G54D14*
X272508Y176689D03*
Y170390D03*
X221063Y181654D03*
Y187953D03*
X303976Y149842D03*
Y143543D03*
X296496Y149842D03*
Y143543D03*
G54D15*
X263391Y170686D03*
Y176591D03*
Y182497D03*
G54D16*
X251580Y176591D03*
G54D17*
X253425Y158858D03*
X259724D03*
X230000Y120315D03*
X236299D03*
X120827Y179291D03*
X114528D03*
X301882Y195782D03*
X308180D03*
X280530Y195598D03*
X286828D03*
X253347Y151850D03*
X259646D03*
G54D18*
X251731Y197222D03*
X267479D03*
G54D19*
X203386Y134213D03*
Y142087D03*
Y149961D03*
Y157835D03*
Y165709D03*
Y173583D03*
Y181457D03*
Y189331D03*
X140394D03*
Y181457D03*
Y173583D03*
Y165709D03*
Y157835D03*
Y149961D03*
Y142087D03*
Y134213D03*
G54D20*
X191575Y197205D03*
X183701D03*
X175827D03*
X167953D03*
X160079D03*
X152205D03*
X107126Y132559D03*
G54D22*
X236457Y113071D03*
X230157D03*
X236457Y145315D03*
X230157D03*
X270942Y130330D03*
Y124030D03*
X260667Y130252D03*
Y123952D03*
X121024Y196339D03*
X114724D03*
X280118Y143543D03*
Y149843D03*
X288110Y143543D03*
Y149843D03*
X121024Y187205D03*
X114724D03*
X221063Y165708D03*
Y172008D03*
X235512Y164016D03*
X229212D03*
X236457Y137323D03*
X230157D03*
Y128583D03*
X236457D03*
G54D23*
X124843Y165630D03*
Y132559D03*
X107126Y165630D03*
G54D24*
X316929Y129764D03*
Y149449D03*
G54D26*
X286516Y163378D03*
X291516D03*
X296516D03*
X301516D03*
Y187000D03*
X296516D03*
X291516D03*
X286516D03*
X0Y0D02*
M02*
