M48
;FILE_FORMAT=2:4
INCH,LZ
FMAT,2
ICI,OFF
;TYPE=PLATED
T1C.012
T2C.025
T3C.03543
T4C.08661
%
M72
G90
G93X0Y0
T1C.012F095S3
X011858Y018215
X013673Y019499
X014012Y020099
X013217Y02034
X012568Y022919
X015301Y024594
X013673Y026924
X01401Y027439
X014777Y028465
X013213Y028698
X012229Y028702
X016678Y028691
X015592Y028637
X016361Y027838
X015773Y022095
X017254Y022069
X017268Y020248
X016085Y018215
X016222Y016704
X017981Y017773
X018512Y018907
X019131Y020689
X018763Y022267
X018515Y025292
X018422Y026442
X018723Y027886
X020928Y028172
X024063Y011325
T2C.025F197S55
X010323Y01032
X011323Y01032
X012323Y01032
X011323Y01432
X011323Y01632
X011323Y01732
X012323Y01732
X011323Y01832
X011323Y01932
X012323Y01932
X011323Y02032
X012323Y02032
X011323Y02132
X011323Y02232
X011323Y02332
X012323Y02332
X011323Y02432
X011323Y02532
X011323Y02632
X012323Y02632
X011323Y02732
X012323Y02732
X013323Y02732
X013323Y02632
X014323Y02632
X014323Y02532
X013323Y02332
X014323Y02332
X013323Y02032
X013323Y01732
X013323Y01132
X014323Y01132
X014323Y01032
X013323Y01032
X015323Y01032
X016323Y01032
X017323Y01032
X016323Y01132
X017323Y01132
X015323Y01132
X016323Y02032
X016323Y02132
X015323Y02532
X015323Y02632
X019323Y02832
X019323Y02732
X018323Y01532
X019323Y01332
X019323Y01232
X019323Y01132
X018323Y01132
X018323Y01032
X019323Y01032
X021323Y01032
X022323Y01032
X020323Y01032
X022323Y01132
X021323Y02132
X020323Y02332
X022323Y02632
X022323Y02732
X020323Y02832
X026323Y01132
X027323Y01132
X025323Y01132
X023323Y01032
X025323Y01032
X026323Y01032
X027323Y01032
X024323Y01032
X028323Y01032
X029323Y01032
X029323Y01132
X028323Y01132
X029323Y01232
T3C.03543F197S55
X012052Y013543
X011052Y013543
X015052Y013543
X014052Y013543
X013052Y013543
X02103Y025292
X02103Y024292
X02103Y023292
X02103Y022292
X017052Y013543
X016052Y013543
X025063Y013543
X024063Y013543
X023063Y013543
X027063Y013543
X026063Y013543
X029063Y013543
X028063Y013543
T4C.08661F074S55
X011617Y011575
X021144Y011575
M30
