*
*
G04 PADS VX.2.3 Build Number: 9191294 generated Gerber (RS-274-X) file*
G04 PC Version=2.1*
*
%IN "LockBase_ZM_V1.1_201808"*%
*
%MOIN*%
*
%FSLAX35Y35*%
*
*
*
*
G04 PC Standard Apertures*
*
*
G04 Thermal Relief Aperture macro.*
%AMTER*
1,1,$1,0,0*
1,0,$1-$2,0,0*
21,0,$3,$4,0,0,45*
21,0,$3,$4,0,0,135*
%
*
*
G04 Annular Aperture macro.*
%AMANN*
1,1,$1,0,0*
1,0,$2,0,0*
%
*
*
G04 Odd Aperture macro.*
%AMODD*
1,1,$1,0,0*
1,0,$1-0.005,0,0*
%
*
*
G04 PC Custom Aperture Macros*
*
*
*
*
*
*
G04 PC Aperture Table*
*
%ADD010C,0.001*%
%ADD033C,0.01*%
*
*
*
*
G04 PC Circuitry*
G04 Layer Name LockBase_ZM_V1.1_201808 - circuitry*
%LPD*%
*
*
G04 PC Custom Flashes*
G04 Layer Name LockBase_ZM_V1.1_201808 - flashes*
%LPD*%
*
*
G04 PC Circuitry*
G04 Layer Name LockBase_ZM_V1.1_201808 - circuitry*
%LPD*%
*
G54D10*
G54D33*
G01X1131142Y898333D02*
X1139142D01*
X1135142Y894333D02*
Y902333D01*
X1138051Y903615D02*
X1137142Y900333D01*
X1138051Y903615D02*
X1138960Y900333D01*
X1137483Y901427D02*
X1138619D01*
X1131142Y888333D02*
X1139142D01*
X1135142Y884333D02*
Y892333D01*
X1138051Y893615D02*
X1137142Y890333D01*
X1138051Y893615D02*
X1138960Y890333D01*
X1137483Y891427D02*
X1138619D01*
X1101142Y888333D02*
X1109142D01*
X1105142Y884333D02*
Y892333D01*
X1108051Y893615D02*
X1107142Y890333D01*
X1108051Y893615D02*
X1108960Y890333D01*
X1107483Y891427D02*
X1108619D01*
X1101142Y898333D02*
X1109142D01*
X1105142Y894333D02*
Y902333D01*
X1108051Y903615D02*
X1107142Y900333D01*
X1108051Y903615D02*
X1108960Y900333D01*
X1107483Y901427D02*
X1108619D01*
X1025058Y987045D02*
X1033058D01*
X1025058Y995045*
X1033058*
X1025058Y987045*
X1064628Y987245D02*
X1072628D01*
X1064628Y995245*
X1072628*
X1064628Y987245*
X1010626Y963068D02*
X1018626Y971068D01*
Y963068*
X1010626Y971068*
Y963068*
Y949289D02*
X1018626Y957289D01*
Y949289*
X1010626Y957289*
Y949289*
X1035475Y931588D02*
X1043475D01*
X1035475Y939588*
X1043475*
X1035475Y931588*
X1035275Y951788D02*
X1043275D01*
X1035275Y959788*
X1043275*
X1035275Y951788*
X1265037Y873959D02*
X1273037D01*
X1265037Y881959*
X1273037*
X1265037Y873959*
Y883959D02*
X1273037D01*
X1265037Y891959*
X1273037*
X1265037Y883959*
Y893959D02*
X1273037D01*
X1265037Y901959*
X1273037*
X1265037Y893959*
Y903959D02*
X1273037D01*
X1265037Y911959*
X1273037*
X1265037Y903959*
Y913959D02*
X1273037D01*
X1265037Y921959*
X1273037*
X1265037Y913959*
X1080198Y987152D02*
X1088198D01*
X1080198Y995152*
X1088198*
X1080198Y987152*
X1080398Y947582D02*
X1088398D01*
X1080398Y955582*
X1088398*
X1080398Y947582*
X1098115D02*
X1106115D01*
X1098115Y955582*
X1106115*
X1098115Y947582*
Y986952D02*
X1106115D01*
X1098115Y994952*
X1106115*
X1098115Y986952*
X1058217Y968857D02*
X1066217D01*
X1058217Y976857*
X1066217*
X1058217Y968857*
X1038017Y968657D02*
X1046017D01*
X1038017Y976657*
X1046017*
X1038017Y968657*
X1262535Y949134D02*
X1270535D01*
X1266535Y945134D02*
Y953134D01*
X1268535Y954415D02*
Y951134D01*
Y954415D02*
X1270013D01*
X1268535Y952853D02*
X1269445D01*
X1268535Y951134D02*
X1270013D01*
X1262535Y968701D02*
X1270535D01*
X1266535Y964701D02*
Y972701D01*
X1268535Y973982D02*
Y970701D01*
Y973982D02*
X1270013D01*
X1268535Y972420D02*
X1269445D01*
X1268535Y970701D02*
X1270013D01*
X1114110Y989764D02*
X1122110D01*
X1118110Y985764D02*
Y993764D01*
X1120110Y995045D02*
Y991764D01*
Y995045D02*
X1121588D01*
X1120110Y993483D02*
X1121019D01*
X1120110Y991764D02*
X1121588D01*
X1114110Y969685D02*
X1122110D01*
X1118110Y965685D02*
Y973685D01*
X1120110Y974966D02*
Y971685D01*
Y974966D02*
X1121588D01*
X1120110Y973404D02*
X1121019D01*
X1120110Y971685D02*
X1121588D01*
X1051671Y943354D02*
X1059671D01*
X1055671Y939354D02*
Y947354D01*
X1057671Y948636D02*
Y945354D01*
Y948636D02*
X1058466D01*
X1058807Y948479*
X1059034Y948167*
X1059148Y947854*
X1059262Y947386*
Y946604*
X1059148Y946136*
X1059034Y945823*
X1058807Y945511*
X1058466Y945354*
X1057671*
X1063482Y943354D02*
X1071482D01*
X1067482Y939354D02*
Y947354D01*
X1069482Y948636D02*
Y945354D01*
Y948636D02*
X1070277D01*
X1070618Y948479*
X1070845Y948167*
X1070959Y947854*
X1071073Y947386*
Y946604*
X1070959Y946136*
X1070845Y945823*
X1070618Y945511*
X1070277Y945354*
X1069482*
X1046597Y917974D02*
X1054597D01*
X1050597Y913974D02*
Y921974D01*
X1041085Y894352D02*
X1049085D01*
X1045085Y890352D02*
Y898352D01*
X1047085Y899633D02*
Y896352D01*
Y899633D02*
X1048108D01*
X1048449Y899477*
X1048563Y899320*
X1048676Y899008*
Y898695*
X1048563Y898383*
X1048449Y898227*
X1048108Y898070*
X1047085D02*
X1048108D01*
X1048449Y897914*
X1048563Y897758*
X1048676Y897445*
Y896977*
X1048563Y896664*
X1048449Y896508*
X1048108Y896352*
X1047085*
X1046597Y870730D02*
X1054597D01*
X1050597Y866730D02*
Y874730D01*
X1094629Y866730D02*
X1102629Y874730D01*
X1094629D02*
X1102629Y866730D01*
X1094629Y913974D02*
X1102629Y921974D01*
X1094629D02*
X1102629Y913974D01*
X1010098Y898923D02*
X1018098Y906923D01*
Y898923*
X1010098Y906923*
Y898923*
Y885143D02*
X1018098Y893143D01*
Y885143*
X1010098Y893143*
Y885143*
X1123228Y864425D02*
X1131228D01*
Y872425*
X1123228*
Y864425*
X1127228Y868425D02*
Y872425D01*
X1134146Y866146D02*
X1142146D01*
Y874146*
X1134146*
Y866146*
X1138146Y870146D02*
Y874146D01*
X1144975Y866260D02*
X1152975D01*
Y874260*
X1144975*
Y866260*
X1148975Y870260D02*
Y874260D01*
X1239946Y866903D02*
X1247946D01*
Y874903*
X1239946*
Y866903*
X1243946Y870903D02*
Y874903D01*
X1199252Y875128D02*
X1203252Y879128D01*
X1199252Y883128*
X1195252Y879128*
X1199252Y875128*
Y879128D02*
Y883128D01*
X1219300Y877400D02*
X1223300Y881400D01*
X1219300Y885400*
X1215300Y881400*
X1219300Y877400*
Y881400D02*
Y885400D01*
X1184063Y878710D02*
X1188063Y882710D01*
X1184063Y886710*
X1180063Y882710*
X1184063Y878710*
Y882710D02*
Y886710D01*
X1229465Y882800D02*
X1237465D01*
Y890800*
X1229465*
Y882800*
X1233465Y886800D02*
Y890800D01*
X1138183Y888168D02*
X1146183D01*
Y896168*
X1138183*
Y888168*
X1142183Y892168D02*
Y896168D01*
X1170736Y898114D02*
X1178736D01*
X1174736Y894114D02*
Y902114D01*
X1178441Y902614D02*
X1178327Y902927D01*
X1178327D02*
X1178100Y903239D01*
X1177872Y903395*
X1177418*
X1177191Y903239*
X1176963Y902927*
X1176963D02*
X1176850Y902614D01*
X1176736Y902145*
Y901364*
X1176850Y900895*
X1176963Y900583*
X1177191Y900270*
X1177418Y900114*
X1177872*
X1178100Y900270*
X1178327Y900583*
X1178441Y900895*
X1177641Y903607D02*
X1185641D01*
Y911607*
X1177641*
Y903607*
X1181641Y907607D02*
Y911607D01*
X1187831Y902681D02*
X1195831D01*
Y910681*
X1187831*
Y902681*
X1191831Y906681D02*
Y910681D01*
X1200634Y902007D02*
X1204634Y906007D01*
X1200634Y910007*
X1196634Y906007*
X1200634Y902007*
Y906007D02*
Y910007D01*
X1220101Y907291D02*
X1228101D01*
Y915291*
X1220101*
Y907291*
X1224101Y911291D02*
Y915291D01*
X1224989Y898743D02*
X1232989D01*
Y906743*
X1224989*
Y898743*
X1228989Y902743D02*
Y906743D01*
X1069927Y907778D02*
X1073927Y911778D01*
X1069927Y915778*
X1065927Y911778*
X1069927Y907778*
Y911778D02*
Y915778D01*
X1137357Y914228D02*
X1145357D01*
Y922228*
X1137357*
Y914228*
X1141357Y918228D02*
Y922228D01*
X1154880Y912747D02*
X1158880Y916747D01*
X1154880Y920747*
X1150880Y916747*
X1154880Y912747*
Y916747D02*
Y920747D01*
X1174726Y912778D02*
X1178726Y916778D01*
X1174726Y920778*
X1170726Y916778*
X1174726Y912778*
Y916778D02*
Y920778D01*
X1209940Y912782D02*
X1217940D01*
Y920782*
X1209940*
Y912782*
X1213940Y916782D02*
Y920782D01*
X1229854Y913220D02*
X1233854Y917220D01*
X1229854Y921220*
X1225854Y917220*
X1229854Y913220*
Y917220D02*
Y921220D01*
X1182610Y920039D02*
X1186610Y924039D01*
X1182610Y928039*
X1178610Y924039*
X1182610Y920039*
Y924039D02*
Y928039D01*
X1221980Y918974D02*
X1225980Y922974D01*
X1221980Y926974*
X1217980Y922974*
X1221980Y918974*
Y922974D02*
Y926974D01*
X1264472Y929188D02*
X1272472D01*
Y937188*
X1264472*
Y929188*
X1268472Y933188D02*
Y937188D01*
X1175714Y946642D02*
X1183714D01*
Y954642*
X1175714*
Y946642*
X1179714Y950642D02*
Y954642D01*
X1147349Y950942D02*
X1155349D01*
Y958942*
X1147349*
Y950942*
X1151349Y954942D02*
Y958942D01*
X1166366Y949645D02*
X1174366D01*
Y957645*
X1166366*
Y949645*
X1170366Y953645D02*
Y957645D01*
X1255637Y953340D02*
X1263637D01*
Y961340*
X1255637*
Y953340*
X1259637Y957340D02*
Y961340D01*
X1169383Y958295D02*
X1177383D01*
Y966295*
X1169383*
Y958295*
X1173383Y962295D02*
Y966295D01*
X1179475Y961314D02*
X1187475D01*
Y969314*
X1179475*
Y961314*
X1183475Y965314D02*
Y969314D01*
X1148829Y972701D02*
X1156829D01*
Y980701*
X1148829*
Y972701*
X1152829Y976701D02*
Y980701D01*
X1178215Y971841D02*
X1182215Y975841D01*
X1178215Y979841*
X1174215Y975841*
X1178215Y971841*
Y975841D02*
Y979841D01*
X1215997Y974904D02*
X1223997D01*
Y982904*
X1215997*
Y974904*
X1219997Y978904D02*
Y982904D01*
X1150664Y984905D02*
X1158664D01*
Y992905*
X1150664*
Y984905*
X1154664Y988905D02*
Y992905D01*
X1159162Y978746D02*
X1167162D01*
Y986746*
X1159162*
Y978746*
X1163162Y982746D02*
Y986746D01*
X1222053Y986741D02*
X1230053D01*
Y994741*
X1222053*
Y986741*
X1226053Y990741D02*
Y994741D01*
X1236551Y978849D02*
X1244551D01*
Y986849*
X1236551*
Y978849*
X1240551Y982849D02*
Y986849D01*
X1243891Y987383D02*
X1251891D01*
Y995383*
X1243891*
Y987383*
X1247891Y991383D02*
Y995383D01*
X1256921Y984538D02*
X1264921D01*
Y992538*
X1256921*
Y984538*
X1260921Y988538D02*
Y992538D01*
X1000000Y1000000D02*
X1275591D01*
Y862205*
X1000000*
Y1000000*
X1043810Y925060D02*
X1069134D01*
Y920983D02*
G75*
G03Y925060I-18J2039D01*
G01Y920983D02*
X1043810D01*
Y925060D02*
G03Y920983I-153J-2038D01*
G01X1043234Y911531D02*
X1058698Y895148D01*
X1056595Y893094D02*
G03X1058699Y895147I1299J774D01*
G01X1056597Y893092D02*
X1041132Y909476D01*
X1043234Y911531D02*
G03X1041131Y909477I-1159J-917D01*
G01X1033839Y878385D02*
X1058982D01*
Y874531D02*
G03Y878385I-182J1927D01*
G01Y874531D02*
X1033839D01*
Y878385D02*
G03Y874532I-299J-1927D01*
G01X1135579Y993050D02*
G03X1127504Y993057I-4038J-78D01*
G01X1135579Y993055D02*
Y946257D01*
X1127504Y946256D02*
G03X1135579I4037J-432D01*
G01X1127504Y946257D02*
Y993055D01*
X1082962Y911415D02*
X1107461D01*
X1107457Y906553D02*
G03X1107462Y911415I26J2431D01*
G01X1107461Y906552D02*
X1082962D01*
X1082959Y911414D02*
G03X1082964Y906552I277J-2430D01*
G01X1000000Y1288000D02*
X1258000D01*
X1000000Y1264000D02*
X1258000D01*
X1000000Y1240000D02*
X1258000D01*
X1000000Y1216000D02*
X1258000D01*
X1000000Y1192000D02*
X1258000D01*
X1000000Y1168000D02*
X1258000D01*
X1000000Y1144000D02*
X1258000D01*
X1000000Y1120000D02*
X1258000D01*
X1000000Y1096000D02*
X1258000D01*
X1000000Y1072000D02*
X1258000D01*
X1000000Y1048000D02*
X1258000D01*
X1000000Y1024000D02*
X1258000D01*
X1000000Y1000000D02*
X1258000D01*
X1000000Y1288000D02*
Y1000000D01*
X1084000Y1288000D02*
Y1000000D01*
X1120000Y1288000D02*
Y1000000D01*
X1156000Y1288000D02*
Y1000000D01*
X1210000Y1288000D02*
Y1000000D01*
X1258000Y1288000D02*
Y1000000D01*
X1035500Y1276750D02*
X1034955Y1277500D01*
X1034136Y1277875*
X1033045*
X1032227Y1277500*
X1031682Y1276750*
Y1276000*
X1031955Y1275250*
X1032227Y1274875*
X1032773Y1274500*
X1034409Y1273750*
X1034955Y1273375*
X1035227Y1273000*
X1035500Y1272250*
Y1271125*
X1034955Y1270375*
X1034136Y1270000*
X1033045*
X1032227Y1270375*
X1031682Y1271125*
X1037955Y1277875D02*
Y1270000D01*
X1044227Y1277875D02*
X1040409Y1270000D01*
Y1277875D02*
X1044227D01*
X1040409Y1270000D02*
X1044227D01*
X1046682Y1277875D02*
Y1270000D01*
Y1277875D02*
X1050227D01*
X1046682Y1274125D02*
X1048864D01*
X1046682Y1270000D02*
X1050227D01*
X1093864Y1277875D02*
X1093318Y1277500D01*
X1092773Y1276750*
X1092500Y1276000*
X1092227Y1274875*
Y1273000*
X1092500Y1271875*
X1092773Y1271125*
X1093318Y1270375*
X1093864Y1270000*
X1094955*
X1095500Y1270375*
X1096045Y1271125*
X1096318Y1271875*
X1096591Y1273000*
Y1274875*
X1096318Y1276000*
X1096045Y1276750*
X1095500Y1277500*
X1094955Y1277875*
X1093864*
X1094682Y1271500D02*
X1096318Y1269250D01*
X1100955Y1277875D02*
Y1270000D01*
X1099045Y1277875D02*
X1102864D01*
X1105318D02*
X1107500Y1274125D01*
Y1270000*
X1109682Y1277875D02*
X1107500Y1274125D01*
X1132045Y1276750D02*
X1131500Y1277500D01*
X1130682Y1277875*
X1129591*
X1128773Y1277500*
X1128227Y1276750*
Y1276000*
X1128500Y1275250*
X1128773Y1274875*
X1129318Y1274500*
X1130955Y1273750*
X1131500Y1273375*
X1131773Y1273000*
X1132045Y1272250*
Y1271125*
X1131500Y1270375*
X1130682Y1270000*
X1129591*
X1128773Y1270375*
X1128227Y1271125*
X1134500Y1277875D02*
X1136682Y1274125D01*
Y1270000*
X1138864Y1277875D02*
X1136682Y1274125D01*
X1141318Y1277875D02*
Y1270000D01*
Y1277875D02*
X1143500Y1270000D01*
X1145682Y1277875D02*
X1143500Y1270000D01*
X1145682Y1277875D02*
Y1270000D01*
X1167500Y1277875D02*
Y1270000D01*
Y1277875D02*
X1169955D01*
X1170773Y1277500*
X1171045Y1277125*
X1171318Y1276375*
Y1275250*
X1171045Y1274500*
X1170773Y1274125*
X1169955Y1273750*
X1167500*
X1173773Y1277875D02*
Y1270000D01*
X1177045*
X1181682Y1277875D02*
X1179500Y1270000D01*
X1181682Y1277875D02*
X1183864Y1270000D01*
X1180318Y1272625D02*
X1183045D01*
X1188227Y1277875D02*
Y1270000D01*
X1186318Y1277875D02*
X1190136D01*
X1192591D02*
Y1270000D01*
Y1277875D02*
X1196136D01*
X1192591Y1274125D02*
X1194773D01*
X1192591Y1270000D02*
X1196136D01*
X1198591Y1277875D02*
Y1270000D01*
Y1277875D02*
X1200500D01*
X1201318Y1277500*
X1201864Y1276750*
X1202136Y1276000*
X1202409Y1274875*
Y1273000*
X1202136Y1271875*
X1201864Y1271125*
X1201318Y1270375*
X1200500Y1270000*
X1198591*
X1226682Y1277875D02*
Y1270000D01*
X1224773Y1277875D02*
X1228591D01*
X1232682D02*
X1232136Y1277500D01*
X1231591Y1276750*
X1231318Y1276000*
X1231045Y1274875*
Y1273000*
X1231318Y1271875*
X1231591Y1271125*
X1232136Y1270375*
X1232682Y1270000*
X1233773*
X1234318Y1270375*
X1234864Y1271125*
X1235136Y1271875*
X1235409Y1273000*
Y1274875*
X1235136Y1276000*
X1234864Y1276750*
X1234318Y1277500*
X1233773Y1277875*
X1232682*
X1237864D02*
Y1270000D01*
X1241136*
X1006000Y1252375D02*
X1006545Y1252750D01*
X1007364Y1253875*
Y1246000*
X1013364Y1253875D02*
X1010636D01*
X1010364Y1250500*
X1010636Y1250875*
X1011455Y1251250*
X1012273*
X1013091Y1250875*
X1013636Y1250125*
X1013909Y1249000*
X1013636Y1248250*
X1013364Y1247125*
X1012818Y1246375*
X1012000Y1246000*
X1011182*
X1010364Y1246375*
X1010091Y1246750*
X1009818Y1247500*
X1016636Y1246750D02*
X1016364Y1246375D01*
X1016636Y1246000*
X1016909Y1246375*
X1016636Y1246750*
X1023182Y1253875D02*
X1020455Y1246000D01*
X1019364Y1253875D02*
X1023182D01*
X1029182D02*
X1026455D01*
X1026182Y1250500*
X1026455Y1250875*
X1027273Y1251250*
X1028091*
X1028909Y1250875*
X1029455Y1250125*
X1029727Y1249000*
X1029455Y1248250*
X1029182Y1247125*
X1028636Y1246375*
X1027818Y1246000*
X1027000*
X1026182Y1246375*
X1025909Y1246750*
X1025636Y1247500*
X1099318Y1252000D02*
Y1252375D01*
X1099591Y1253125*
X1099864Y1253500*
X1100409Y1253875*
X1101500*
X1102045Y1253500*
X1102318Y1253125*
X1102591Y1252375*
Y1251625*
X1102318Y1250875*
X1101773Y1249750*
X1099045Y1246000*
X1102864*
X1132000Y1252000D02*
X1144000D01*
X1138000Y1246000D02*
Y1258000D01*
X1164636Y1253875D02*
X1166818Y1250125D01*
Y1246000*
X1169000Y1253875D02*
X1166818Y1250125D01*
X1171455Y1253875D02*
Y1246000D01*
Y1253875D02*
X1175000D01*
X1171455Y1250125D02*
X1173636D01*
X1171455Y1246000D02*
X1175000D01*
X1181273Y1252750D02*
X1180727Y1253500D01*
X1179909Y1253875*
X1178818*
X1178000Y1253500*
X1177455Y1252750*
Y1252000*
X1177727Y1251250*
X1178000Y1250875*
X1178545Y1250500*
X1180182Y1249750*
X1180727Y1249375*
X1181000Y1249000*
X1181273Y1248250*
Y1247125*
X1180727Y1246375*
X1179909Y1246000*
X1178818*
X1178000Y1246375*
X1177455Y1247125*
X1217818Y1252750D02*
Y1246000D01*
X1215364Y1249375D02*
X1220273D01*
X1227636Y1255375D02*
X1222727Y1243375D01*
X1230091Y1249375D02*
X1235000D01*
X1239091Y1253875D02*
X1238273Y1253500D01*
X1237727Y1252375*
X1237455Y1250500*
Y1249375*
X1237727Y1247500*
X1238273Y1246375*
X1239091Y1246000*
X1239636*
X1240455Y1246375*
X1241000Y1247500*
X1241273Y1249375*
Y1250500*
X1241000Y1252375*
X1240455Y1253500*
X1239636Y1253875*
X1239091*
X1244000Y1246750D02*
X1243727Y1246375D01*
X1244000Y1246000*
X1244273Y1246375*
X1244000Y1246750*
X1248364Y1253875D02*
X1247545Y1253500D01*
X1247000Y1252375*
X1246727Y1250500*
Y1249375*
X1247000Y1247500*
X1247545Y1246375*
X1248364Y1246000*
X1248909*
X1249727Y1246375*
X1250273Y1247500*
X1250545Y1249375*
Y1250500*
X1250273Y1252375*
X1249727Y1253500*
X1248909Y1253875*
X1248364*
X1006273Y1228000D02*
Y1228375D01*
X1006545Y1229125*
X1006818Y1229500*
X1007364Y1229875*
X1008455*
X1009000Y1229500*
X1009273Y1229125*
X1009545Y1228375*
Y1227625*
X1009273Y1226875*
X1008727Y1225750*
X1006000Y1222000*
X1009818*
X1016091Y1229875D02*
X1013364Y1222000D01*
X1012273Y1229875D02*
X1016091D01*
X1018818Y1222750D02*
X1018545Y1222375D01*
X1018818Y1222000*
X1019091Y1222375*
X1018818Y1222750*
X1025091Y1229875D02*
X1022364D01*
X1022091Y1226500*
X1022364Y1226875*
X1023182Y1227250*
X1024000*
X1024818Y1226875*
X1025364Y1226125*
X1025636Y1225000*
X1025364Y1224250*
X1025091Y1223125*
X1024545Y1222375*
X1023727Y1222000*
X1022909*
X1022091Y1222375*
X1021818Y1222750*
X1021545Y1223500*
X1031364Y1228750D02*
X1031091Y1229500D01*
X1030273Y1229875*
X1029727*
X1028909Y1229500*
X1028364Y1228375*
X1028091Y1226500*
Y1224625*
X1028364Y1223125*
X1028909Y1222375*
X1029727Y1222000*
X1030000*
X1030818Y1222375*
X1031364Y1223125*
X1031636Y1224250*
Y1224625*
X1031364Y1225750*
X1030818Y1226500*
X1030000Y1226875*
X1029727*
X1028909Y1226500*
X1028364Y1225750*
X1028091Y1224625*
X1099318Y1228000D02*
Y1228375D01*
X1099591Y1229125*
X1099864Y1229500*
X1100409Y1229875*
X1101500*
X1102045Y1229500*
X1102318Y1229125*
X1102591Y1228375*
Y1227625*
X1102318Y1226875*
X1101773Y1225750*
X1099045Y1222000*
X1102864*
X1132000D02*
X1144000Y1234000D01*
X1132000D02*
X1144000Y1222000D01*
X1164636Y1229875D02*
X1166818Y1226125D01*
Y1222000*
X1169000Y1229875D02*
X1166818Y1226125D01*
X1171455Y1229875D02*
Y1222000D01*
Y1229875D02*
X1175000D01*
X1171455Y1226125D02*
X1173636D01*
X1171455Y1222000D02*
X1175000D01*
X1181273Y1228750D02*
X1180727Y1229500D01*
X1179909Y1229875*
X1178818*
X1178000Y1229500*
X1177455Y1228750*
Y1228000*
X1177727Y1227250*
X1178000Y1226875*
X1178545Y1226500*
X1180182Y1225750*
X1180727Y1225375*
X1181000Y1225000*
X1181273Y1224250*
Y1223125*
X1180727Y1222375*
X1179909Y1222000*
X1178818*
X1178000Y1222375*
X1177455Y1223125*
X1217818Y1228750D02*
Y1222000D01*
X1215364Y1225375D02*
X1220273D01*
X1227636Y1231375D02*
X1222727Y1219375D01*
X1230091Y1225375D02*
X1235000D01*
X1239091Y1229875D02*
X1238273Y1229500D01*
X1237727Y1228375*
X1237455Y1226500*
Y1225375*
X1237727Y1223500*
X1238273Y1222375*
X1239091Y1222000*
X1239636*
X1240455Y1222375*
X1241000Y1223500*
X1241273Y1225375*
Y1226500*
X1241000Y1228375*
X1240455Y1229500*
X1239636Y1229875*
X1239091*
X1244000Y1222750D02*
X1243727Y1222375D01*
X1244000Y1222000*
X1244273Y1222375*
X1244000Y1222750*
X1248364Y1229875D02*
X1247545Y1229500D01*
X1247000Y1228375*
X1246727Y1226500*
Y1225375*
X1247000Y1223500*
X1247545Y1222375*
X1248364Y1222000*
X1248909*
X1249727Y1222375*
X1250273Y1223500*
X1250545Y1225375*
Y1226500*
X1250273Y1228375*
X1249727Y1229500*
X1248909Y1229875*
X1248364*
X1006545Y1205875D02*
X1009545D01*
X1007909Y1202875*
X1008727*
X1009273Y1202500*
X1009545Y1202125*
X1009818Y1201000*
Y1200250*
X1009545Y1199125*
X1009000Y1198375*
X1008182Y1198000*
X1007364*
X1006545Y1198375*
X1006273Y1198750*
X1006000Y1199500*
X1016091Y1205875D02*
X1013364Y1198000D01*
X1012273Y1205875D02*
X1016091D01*
X1096182Y1204000D02*
Y1204375D01*
X1096455Y1205125*
X1096727Y1205500*
X1097273Y1205875*
X1098364*
X1098909Y1205500*
X1099182Y1205125*
X1099455Y1204375*
Y1203625*
X1099182Y1202875*
X1098636Y1201750*
X1095909Y1198000*
X1099727*
X1106000Y1205875D02*
X1103273Y1198000D01*
X1102182Y1205875D02*
X1106000D01*
X1132000Y1198000D02*
X1144000D01*
Y1210000*
X1132000*
Y1198000*
X1138000Y1204000D02*
Y1210000D01*
X1164636Y1205875D02*
X1166818Y1202125D01*
Y1198000*
X1169000Y1205875D02*
X1166818Y1202125D01*
X1171455Y1205875D02*
Y1198000D01*
Y1205875D02*
X1175000D01*
X1171455Y1202125D02*
X1173636D01*
X1171455Y1198000D02*
X1175000D01*
X1181273Y1204750D02*
X1180727Y1205500D01*
X1179909Y1205875*
X1178818*
X1178000Y1205500*
X1177455Y1204750*
Y1204000*
X1177727Y1203250*
X1178000Y1202875*
X1178545Y1202500*
X1180182Y1201750*
X1180727Y1201375*
X1181000Y1201000*
X1181273Y1200250*
Y1199125*
X1180727Y1198375*
X1179909Y1198000*
X1178818*
X1178000Y1198375*
X1177455Y1199125*
X1217818Y1204750D02*
Y1198000D01*
X1215364Y1201375D02*
X1220273D01*
X1227636Y1207375D02*
X1222727Y1195375D01*
X1230091Y1201375D02*
X1235000D01*
X1239091Y1205875D02*
X1238273Y1205500D01*
X1237727Y1204375*
X1237455Y1202500*
Y1201375*
X1237727Y1199500*
X1238273Y1198375*
X1239091Y1198000*
X1239636*
X1240455Y1198375*
X1241000Y1199500*
X1241273Y1201375*
Y1202500*
X1241000Y1204375*
X1240455Y1205500*
X1239636Y1205875*
X1239091*
X1244000Y1198750D02*
X1243727Y1198375D01*
X1244000Y1198000*
X1244273Y1198375*
X1244000Y1198750*
X1248364Y1205875D02*
X1247545Y1205500D01*
X1247000Y1204375*
X1246727Y1202500*
Y1201375*
X1247000Y1199500*
X1247545Y1198375*
X1248364Y1198000*
X1248909*
X1249727Y1198375*
X1250273Y1199500*
X1250545Y1201375*
Y1202500*
X1250273Y1204375*
X1249727Y1205500*
X1248909Y1205875*
X1248364*
X1006000Y1180375D02*
X1006545Y1180750D01*
X1007364Y1181875*
Y1174000*
X1010091Y1180000D02*
Y1180375D01*
X1010364Y1181125*
X1010636Y1181500*
X1011182Y1181875*
X1012273*
X1012818Y1181500*
X1013091Y1181125*
X1013364Y1180375*
Y1179625*
X1013091Y1178875*
X1012545Y1177750*
X1009818Y1174000*
X1013636*
X1098364Y1180375D02*
X1098909Y1180750D01*
X1099727Y1181875*
Y1174000*
X1102182Y1180375D02*
X1102727Y1180750D01*
X1103545Y1181875*
Y1174000*
X1138000D02*
X1144000Y1180000D01*
X1138000Y1186000*
X1132000Y1180000*
X1138000Y1174000*
Y1180000D02*
Y1186000D01*
X1164636Y1181875D02*
X1166818Y1178125D01*
Y1174000*
X1169000Y1181875D02*
X1166818Y1178125D01*
X1171455Y1181875D02*
Y1174000D01*
Y1181875D02*
X1175000D01*
X1171455Y1178125D02*
X1173636D01*
X1171455Y1174000D02*
X1175000D01*
X1181273Y1180750D02*
X1180727Y1181500D01*
X1179909Y1181875*
X1178818*
X1178000Y1181500*
X1177455Y1180750*
Y1180000*
X1177727Y1179250*
X1178000Y1178875*
X1178545Y1178500*
X1180182Y1177750*
X1180727Y1177375*
X1181000Y1177000*
X1181273Y1176250*
Y1175125*
X1180727Y1174375*
X1179909Y1174000*
X1178818*
X1178000Y1174375*
X1177455Y1175125*
X1217818Y1180750D02*
Y1174000D01*
X1215364Y1177375D02*
X1220273D01*
X1227636Y1183375D02*
X1222727Y1171375D01*
X1230091Y1177375D02*
X1235000D01*
X1239091Y1181875D02*
X1238273Y1181500D01*
X1237727Y1180375*
X1237455Y1178500*
Y1177375*
X1237727Y1175500*
X1238273Y1174375*
X1239091Y1174000*
X1239636*
X1240455Y1174375*
X1241000Y1175500*
X1241273Y1177375*
Y1178500*
X1241000Y1180375*
X1240455Y1181500*
X1239636Y1181875*
X1239091*
X1244000Y1174750D02*
X1243727Y1174375D01*
X1244000Y1174000*
X1244273Y1174375*
X1244000Y1174750*
X1248364Y1181875D02*
X1247545Y1181500D01*
X1247000Y1180375*
X1246727Y1178500*
Y1177375*
X1247000Y1175500*
X1247545Y1174375*
X1248364Y1174000*
X1248909*
X1249727Y1174375*
X1250273Y1175500*
X1250545Y1177375*
Y1178500*
X1250273Y1180375*
X1249727Y1181500*
X1248909Y1181875*
X1248364*
X1006545Y1157875D02*
X1009545D01*
X1007909Y1154875*
X1008727*
X1009273Y1154500*
X1009545Y1154125*
X1009818Y1153000*
Y1152250*
X1009545Y1151125*
X1009000Y1150375*
X1008182Y1150000*
X1007364*
X1006545Y1150375*
X1006273Y1150750*
X1006000Y1151500*
X1015818Y1157875D02*
X1013091D01*
X1012818Y1154500*
X1013091Y1154875*
X1013909Y1155250*
X1014727*
X1015545Y1154875*
X1016091Y1154125*
X1016364Y1153000*
X1016091Y1152250*
X1015818Y1151125*
X1015273Y1150375*
X1014455Y1150000*
X1013636*
X1012818Y1150375*
X1012545Y1150750*
X1012273Y1151500*
X1019091Y1150750D02*
X1018818Y1150375D01*
X1019091Y1150000*
X1019364Y1150375*
X1019091Y1150750*
X1024545Y1157875D02*
X1021818Y1152625D01*
X1025909*
X1024545Y1157875D02*
Y1150000D01*
X1028909Y1157875D02*
X1031909D01*
X1030273Y1154875*
X1031091*
X1031636Y1154500*
X1031909Y1154125*
X1032182Y1153000*
Y1152250*
X1031909Y1151125*
X1031364Y1150375*
X1030545Y1150000*
X1029727*
X1028909Y1150375*
X1028636Y1150750*
X1028364Y1151500*
X1097000Y1156375D02*
X1097545Y1156750D01*
X1098364Y1157875*
Y1150000*
X1104364Y1157875D02*
X1101636D01*
X1101364Y1154500*
X1101636Y1154875*
X1102455Y1155250*
X1103273*
X1104091Y1154875*
X1104636Y1154125*
X1104909Y1153000*
X1104636Y1152250*
X1104364Y1151125*
X1103818Y1150375*
X1103000Y1150000*
X1102182*
X1101364Y1150375*
X1101091Y1150750*
X1100818Y1151500*
X1132000Y1150000D02*
X1144000D01*
X1132000Y1162000*
X1144000*
X1132000Y1150000*
X1164636Y1157875D02*
X1166818Y1154125D01*
Y1150000*
X1169000Y1157875D02*
X1166818Y1154125D01*
X1171455Y1157875D02*
Y1150000D01*
Y1157875D02*
X1175000D01*
X1171455Y1154125D02*
X1173636D01*
X1171455Y1150000D02*
X1175000D01*
X1181273Y1156750D02*
X1180727Y1157500D01*
X1179909Y1157875*
X1178818*
X1178000Y1157500*
X1177455Y1156750*
Y1156000*
X1177727Y1155250*
X1178000Y1154875*
X1178545Y1154500*
X1180182Y1153750*
X1180727Y1153375*
X1181000Y1153000*
X1181273Y1152250*
Y1151125*
X1180727Y1150375*
X1179909Y1150000*
X1178818*
X1178000Y1150375*
X1177455Y1151125*
X1217818Y1156750D02*
Y1150000D01*
X1215364Y1153375D02*
X1220273D01*
X1227636Y1159375D02*
X1222727Y1147375D01*
X1230091Y1153375D02*
X1235000D01*
X1239091Y1157875D02*
X1238273Y1157500D01*
X1237727Y1156375*
X1237455Y1154500*
Y1153375*
X1237727Y1151500*
X1238273Y1150375*
X1239091Y1150000*
X1239636*
X1240455Y1150375*
X1241000Y1151500*
X1241273Y1153375*
Y1154500*
X1241000Y1156375*
X1240455Y1157500*
X1239636Y1157875*
X1239091*
X1244000Y1150750D02*
X1243727Y1150375D01*
X1244000Y1150000*
X1244273Y1150375*
X1244000Y1150750*
X1248364Y1157875D02*
X1247545Y1157500D01*
X1247000Y1156375*
X1246727Y1154500*
Y1153375*
X1247000Y1151500*
X1247545Y1150375*
X1248364Y1150000*
X1248909*
X1249727Y1150375*
X1250273Y1151500*
X1250545Y1153375*
Y1154500*
X1250273Y1156375*
X1249727Y1157500*
X1248909Y1157875*
X1248364*
X1008727Y1133875D02*
X1006000Y1128625D01*
X1010091*
X1008727Y1133875D02*
Y1126000D01*
X1013091Y1133875D02*
X1016091D01*
X1014455Y1130875*
X1015273*
X1015818Y1130500*
X1016091Y1130125*
X1016364Y1129000*
Y1128250*
X1016091Y1127125*
X1015545Y1126375*
X1014727Y1126000*
X1013909*
X1013091Y1126375*
X1012818Y1126750*
X1012545Y1127500*
X1019091Y1126750D02*
X1018818Y1126375D01*
X1019091Y1126000*
X1019364Y1126375*
X1019091Y1126750*
X1022364Y1133875D02*
X1025364D01*
X1023727Y1130875*
X1024545*
X1025091Y1130500*
X1025364Y1130125*
X1025636Y1129000*
Y1128250*
X1025364Y1127125*
X1024818Y1126375*
X1024000Y1126000*
X1023182*
X1022364Y1126375*
X1022091Y1126750*
X1021818Y1127500*
X1028091Y1132375D02*
X1028636Y1132750D01*
X1029455Y1133875*
Y1126000*
X1101636Y1133875D02*
X1098909Y1128625D01*
X1103000*
X1101636Y1133875D02*
Y1126000D01*
X1132000D02*
X1144000Y1138000D01*
Y1126000*
X1132000Y1138000*
Y1126000*
X1164636Y1133875D02*
X1166818Y1130125D01*
Y1126000*
X1169000Y1133875D02*
X1166818Y1130125D01*
X1171455Y1133875D02*
Y1126000D01*
Y1133875D02*
X1175000D01*
X1171455Y1130125D02*
X1173636D01*
X1171455Y1126000D02*
X1175000D01*
X1181273Y1132750D02*
X1180727Y1133500D01*
X1179909Y1133875*
X1178818*
X1178000Y1133500*
X1177455Y1132750*
Y1132000*
X1177727Y1131250*
X1178000Y1130875*
X1178545Y1130500*
X1180182Y1129750*
X1180727Y1129375*
X1181000Y1129000*
X1181273Y1128250*
Y1127125*
X1180727Y1126375*
X1179909Y1126000*
X1178818*
X1178000Y1126375*
X1177455Y1127125*
X1217818Y1132750D02*
Y1126000D01*
X1215364Y1129375D02*
X1220273D01*
X1227636Y1135375D02*
X1222727Y1123375D01*
X1230091Y1129375D02*
X1235000D01*
X1239091Y1133875D02*
X1238273Y1133500D01*
X1237727Y1132375*
X1237455Y1130500*
Y1129375*
X1237727Y1127500*
X1238273Y1126375*
X1239091Y1126000*
X1239636*
X1240455Y1126375*
X1241000Y1127500*
X1241273Y1129375*
Y1130500*
X1241000Y1132375*
X1240455Y1133500*
X1239636Y1133875*
X1239091*
X1244000Y1126750D02*
X1243727Y1126375D01*
X1244000Y1126000*
X1244273Y1126375*
X1244000Y1126750*
X1248364Y1133875D02*
X1247545Y1133500D01*
X1247000Y1132375*
X1246727Y1130500*
Y1129375*
X1247000Y1127500*
X1247545Y1126375*
X1248364Y1126000*
X1248909*
X1249727Y1126375*
X1250273Y1127500*
X1250545Y1129375*
Y1130500*
X1250273Y1132375*
X1249727Y1133500*
X1248909Y1133875*
X1248364*
X1006273Y1108000D02*
Y1108375D01*
X1006545Y1109125*
X1006818Y1109500*
X1007364Y1109875*
X1008455*
X1009000Y1109500*
X1009273Y1109125*
X1009545Y1108375*
Y1107625*
X1009273Y1106875*
X1008727Y1105750*
X1006000Y1102000*
X1009818*
X1012818Y1109875D02*
X1015818D01*
X1014182Y1106875*
X1015000*
X1015545Y1106500*
X1015818Y1106125*
X1016091Y1105000*
Y1104250*
X1015818Y1103125*
X1015273Y1102375*
X1014455Y1102000*
X1013636*
X1012818Y1102375*
X1012545Y1102750*
X1012273Y1103500*
X1018818Y1102750D02*
X1018545Y1102375D01*
X1018818Y1102000*
X1019091Y1102375*
X1018818Y1102750*
X1024818Y1108750D02*
X1024545Y1109500D01*
X1023727Y1109875*
X1023182*
X1022364Y1109500*
X1021818Y1108375*
X1021545Y1106500*
Y1104625*
X1021818Y1103125*
X1022364Y1102375*
X1023182Y1102000*
X1023455*
X1024273Y1102375*
X1024818Y1103125*
X1025091Y1104250*
Y1104625*
X1024818Y1105750*
X1024273Y1106500*
X1023455Y1106875*
X1023182*
X1022364Y1106500*
X1021818Y1105750*
X1021545Y1104625*
X1027818Y1108000D02*
Y1108375D01*
X1028091Y1109125*
X1028364Y1109500*
X1028909Y1109875*
X1030000*
X1030545Y1109500*
X1030818Y1109125*
X1031091Y1108375*
Y1107625*
X1030818Y1106875*
X1030273Y1105750*
X1027545Y1102000*
X1031364*
X1101636Y1109875D02*
X1098909Y1104625D01*
X1103000*
X1101636Y1109875D02*
Y1102000D01*
X1132000Y1108000D02*
X1144000D01*
X1138000Y1102000D02*
Y1114000D01*
X1142745Y1117300D02*
X1141000Y1111000D01*
X1142745Y1117300D02*
X1144491Y1111000D01*
X1141655Y1113100D02*
X1143836D01*
X1164636Y1109875D02*
X1166818Y1106125D01*
Y1102000*
X1169000Y1109875D02*
X1166818Y1106125D01*
X1171455Y1109875D02*
Y1102000D01*
Y1109875D02*
X1175000D01*
X1171455Y1106125D02*
X1173636D01*
X1171455Y1102000D02*
X1175000D01*
X1181273Y1108750D02*
X1180727Y1109500D01*
X1179909Y1109875*
X1178818*
X1178000Y1109500*
X1177455Y1108750*
Y1108000*
X1177727Y1107250*
X1178000Y1106875*
X1178545Y1106500*
X1180182Y1105750*
X1180727Y1105375*
X1181000Y1105000*
X1181273Y1104250*
Y1103125*
X1180727Y1102375*
X1179909Y1102000*
X1178818*
X1178000Y1102375*
X1177455Y1103125*
X1217818Y1108750D02*
Y1102000D01*
X1215364Y1105375D02*
X1220273D01*
X1227636Y1111375D02*
X1222727Y1099375D01*
X1230091Y1105375D02*
X1235000D01*
X1239091Y1109875D02*
X1238273Y1109500D01*
X1237727Y1108375*
X1237455Y1106500*
Y1105375*
X1237727Y1103500*
X1238273Y1102375*
X1239091Y1102000*
X1239636*
X1240455Y1102375*
X1241000Y1103500*
X1241273Y1105375*
Y1106500*
X1241000Y1108375*
X1240455Y1109500*
X1239636Y1109875*
X1239091*
X1244000Y1102750D02*
X1243727Y1102375D01*
X1244000Y1102000*
X1244273Y1102375*
X1244000Y1102750*
X1248364Y1109875D02*
X1247545Y1109500D01*
X1247000Y1108375*
X1246727Y1106500*
Y1105375*
X1247000Y1103500*
X1247545Y1102375*
X1248364Y1102000*
X1248909*
X1249727Y1102375*
X1250273Y1103500*
X1250545Y1105375*
Y1106500*
X1250273Y1108375*
X1249727Y1109500*
X1248909Y1109875*
X1248364*
X1008727Y1085875D02*
X1006000Y1080625D01*
X1010091*
X1008727Y1085875D02*
Y1078000D01*
X1016364Y1085875D02*
X1013636Y1078000D01*
X1012545Y1085875D02*
X1016364D01*
X1019091Y1078750D02*
X1018818Y1078375D01*
X1019091Y1078000*
X1019364Y1078375*
X1019091Y1078750*
X1022091Y1084000D02*
Y1084375D01*
X1022364Y1085125*
X1022636Y1085500*
X1023182Y1085875*
X1024273*
X1024818Y1085500*
X1025091Y1085125*
X1025364Y1084375*
Y1083625*
X1025091Y1082875*
X1024545Y1081750*
X1021818Y1078000*
X1025636*
X1030818Y1085875D02*
X1028091Y1080625D01*
X1032182*
X1030818Y1085875D02*
Y1078000D01*
X1100273Y1084375D02*
X1100818Y1084750D01*
X1101636Y1085875*
Y1078000*
X1132000Y1084000D02*
X1144000D01*
X1138000Y1078000D02*
Y1090000D01*
X1141000Y1093300D02*
Y1087000D01*
Y1093300D02*
X1142964D01*
X1143618Y1093000*
X1143836Y1092700*
X1144055Y1092100*
Y1091500*
X1143836Y1090900*
X1143618Y1090600*
X1142964Y1090300*
X1141000D02*
X1142964D01*
X1143618Y1090000*
X1143836Y1089700*
X1144055Y1089100*
Y1088200*
X1143836Y1087600*
X1143618Y1087300*
X1142964Y1087000*
X1141000*
X1164636Y1085875D02*
X1166818Y1082125D01*
Y1078000*
X1169000Y1085875D02*
X1166818Y1082125D01*
X1171455Y1085875D02*
Y1078000D01*
Y1085875D02*
X1175000D01*
X1171455Y1082125D02*
X1173636D01*
X1171455Y1078000D02*
X1175000D01*
X1181273Y1084750D02*
X1180727Y1085500D01*
X1179909Y1085875*
X1178818*
X1178000Y1085500*
X1177455Y1084750*
Y1084000*
X1177727Y1083250*
X1178000Y1082875*
X1178545Y1082500*
X1180182Y1081750*
X1180727Y1081375*
X1181000Y1081000*
X1181273Y1080250*
Y1079125*
X1180727Y1078375*
X1179909Y1078000*
X1178818*
X1178000Y1078375*
X1177455Y1079125*
X1217818Y1084750D02*
Y1078000D01*
X1215364Y1081375D02*
X1220273D01*
X1227636Y1087375D02*
X1222727Y1075375D01*
X1230091Y1081375D02*
X1235000D01*
X1239091Y1085875D02*
X1238273Y1085500D01*
X1237727Y1084375*
X1237455Y1082500*
Y1081375*
X1237727Y1079500*
X1238273Y1078375*
X1239091Y1078000*
X1239636*
X1240455Y1078375*
X1241000Y1079500*
X1241273Y1081375*
Y1082500*
X1241000Y1084375*
X1240455Y1085500*
X1239636Y1085875*
X1239091*
X1244000Y1078750D02*
X1243727Y1078375D01*
X1244000Y1078000*
X1244273Y1078375*
X1244000Y1078750*
X1248364Y1085875D02*
X1247545Y1085500D01*
X1247000Y1084375*
X1246727Y1082500*
Y1081375*
X1247000Y1079500*
X1247545Y1078375*
X1248364Y1078000*
X1248909*
X1249727Y1078375*
X1250273Y1079500*
X1250545Y1081375*
Y1082500*
X1250273Y1084375*
X1249727Y1085500*
X1248909Y1085875*
X1248364*
X1006273Y1060000D02*
Y1060375D01*
X1006545Y1061125*
X1006818Y1061500*
X1007364Y1061875*
X1008455*
X1009000Y1061500*
X1009273Y1061125*
X1009545Y1060375*
Y1059625*
X1009273Y1058875*
X1008727Y1057750*
X1006000Y1054000*
X1009818*
X1015818Y1061875D02*
X1013091D01*
X1012818Y1058500*
X1013091Y1058875*
X1013909Y1059250*
X1014727*
X1015545Y1058875*
X1016091Y1058125*
X1016364Y1057000*
X1016091Y1056250*
X1015818Y1055125*
X1015273Y1054375*
X1014455Y1054000*
X1013636*
X1012818Y1054375*
X1012545Y1054750*
X1012273Y1055500*
X1100273Y1060375D02*
X1100818Y1060750D01*
X1101636Y1061875*
Y1054000*
X1132000Y1060000D02*
X1144000D01*
X1138000Y1054000D02*
Y1066000D01*
X1144273Y1067800D02*
X1144055Y1068400D01*
X1143618Y1069000*
X1143182Y1069300*
X1142309*
X1141873Y1069000*
X1141436Y1068400*
X1141218Y1067800*
X1141000Y1066900*
Y1065400*
X1141218Y1064500*
X1141436Y1063900*
X1141873Y1063300*
X1142309Y1063000*
X1143182*
X1143618Y1063300*
X1144055Y1063900*
X1144273Y1064500*
X1164636Y1061875D02*
X1166818Y1058125D01*
Y1054000*
X1169000Y1061875D02*
X1166818Y1058125D01*
X1171455Y1061875D02*
Y1054000D01*
Y1061875D02*
X1175000D01*
X1171455Y1058125D02*
X1173636D01*
X1171455Y1054000D02*
X1175000D01*
X1181273Y1060750D02*
X1180727Y1061500D01*
X1179909Y1061875*
X1178818*
X1178000Y1061500*
X1177455Y1060750*
Y1060000*
X1177727Y1059250*
X1178000Y1058875*
X1178545Y1058500*
X1180182Y1057750*
X1180727Y1057375*
X1181000Y1057000*
X1181273Y1056250*
Y1055125*
X1180727Y1054375*
X1179909Y1054000*
X1178818*
X1178000Y1054375*
X1177455Y1055125*
X1217818Y1060750D02*
Y1054000D01*
X1215364Y1057375D02*
X1220273D01*
X1227636Y1063375D02*
X1222727Y1051375D01*
X1230091Y1057375D02*
X1235000D01*
X1239091Y1061875D02*
X1238273Y1061500D01*
X1237727Y1060375*
X1237455Y1058500*
Y1057375*
X1237727Y1055500*
X1238273Y1054375*
X1239091Y1054000*
X1239636*
X1240455Y1054375*
X1241000Y1055500*
X1241273Y1057375*
Y1058500*
X1241000Y1060375*
X1240455Y1061500*
X1239636Y1061875*
X1239091*
X1244000Y1054750D02*
X1243727Y1054375D01*
X1244000Y1054000*
X1244273Y1054375*
X1244000Y1054750*
X1248364Y1061875D02*
X1247545Y1061500D01*
X1247000Y1060375*
X1246727Y1058500*
Y1057375*
X1247000Y1055500*
X1247545Y1054375*
X1248364Y1054000*
X1248909*
X1249727Y1054375*
X1250273Y1055500*
X1250545Y1057375*
Y1058500*
X1250273Y1060375*
X1249727Y1061500*
X1248909Y1061875*
X1248364*
X1006545Y1037875D02*
X1009545D01*
X1007909Y1034875*
X1008727*
X1009273Y1034500*
X1009545Y1034125*
X1009818Y1033000*
Y1032250*
X1009545Y1031125*
X1009000Y1030375*
X1008182Y1030000*
X1007364*
X1006545Y1030375*
X1006273Y1030750*
X1006000Y1031500*
X1015818Y1035250D02*
X1015545Y1034125D01*
X1015000Y1033375*
X1014182Y1033000*
X1013909*
X1013091Y1033375*
X1012545Y1034125*
X1012273Y1035250*
Y1035625*
X1012545Y1036750*
X1013091Y1037500*
X1013909Y1037875*
X1014182*
X1015000Y1037500*
X1015545Y1036750*
X1015818Y1035250*
Y1033375*
X1015545Y1031500*
X1015000Y1030375*
X1014182Y1030000*
X1013636*
X1012818Y1030375*
X1012545Y1031125*
X1018545Y1030750D02*
X1018273Y1030375D01*
X1018545Y1030000*
X1018818Y1030375*
X1018545Y1030750*
X1021818Y1037875D02*
X1024818D01*
X1023182Y1034875*
X1024000*
X1024545Y1034500*
X1024818Y1034125*
X1025091Y1033000*
Y1032250*
X1024818Y1031125*
X1024273Y1030375*
X1023455Y1030000*
X1022636*
X1021818Y1030375*
X1021545Y1030750*
X1021273Y1031500*
X1031364Y1037875D02*
X1028636Y1030000D01*
X1027545Y1037875D02*
X1031364D01*
X1099318Y1036000D02*
Y1036375D01*
X1099591Y1037125*
X1099864Y1037500*
X1100409Y1037875*
X1101500*
X1102045Y1037500*
X1102318Y1037125*
X1102591Y1036375*
Y1035625*
X1102318Y1034875*
X1101773Y1033750*
X1099045Y1030000*
X1102864*
X1132000Y1036000D02*
X1144000D01*
X1138000Y1030000D02*
Y1042000D01*
X1141000Y1045300D02*
Y1039000D01*
Y1045300D02*
X1142527D01*
X1143182Y1045000*
X1143618Y1044400*
X1143836Y1043800*
X1144055Y1042900*
Y1041400*
X1143836Y1040500*
X1143618Y1039900*
X1143182Y1039300*
X1142527Y1039000*
X1141000*
X1164636Y1037875D02*
X1166818Y1034125D01*
Y1030000*
X1169000Y1037875D02*
X1166818Y1034125D01*
X1171455Y1037875D02*
Y1030000D01*
Y1037875D02*
X1175000D01*
X1171455Y1034125D02*
X1173636D01*
X1171455Y1030000D02*
X1175000D01*
X1181273Y1036750D02*
X1180727Y1037500D01*
X1179909Y1037875*
X1178818*
X1178000Y1037500*
X1177455Y1036750*
Y1036000*
X1177727Y1035250*
X1178000Y1034875*
X1178545Y1034500*
X1180182Y1033750*
X1180727Y1033375*
X1181000Y1033000*
X1181273Y1032250*
Y1031125*
X1180727Y1030375*
X1179909Y1030000*
X1178818*
X1178000Y1030375*
X1177455Y1031125*
X1217818Y1036750D02*
Y1030000D01*
X1215364Y1033375D02*
X1220273D01*
X1227636Y1039375D02*
X1222727Y1027375D01*
X1230091Y1033375D02*
X1235000D01*
X1239091Y1037875D02*
X1238273Y1037500D01*
X1237727Y1036375*
X1237455Y1034500*
Y1033375*
X1237727Y1031500*
X1238273Y1030375*
X1239091Y1030000*
X1239636*
X1240455Y1030375*
X1241000Y1031500*
X1241273Y1033375*
Y1034500*
X1241000Y1036375*
X1240455Y1037500*
X1239636Y1037875*
X1239091*
X1244000Y1030750D02*
X1243727Y1030375D01*
X1244000Y1030000*
X1244273Y1030375*
X1244000Y1030750*
X1248364Y1037875D02*
X1247545Y1037500D01*
X1247000Y1036375*
X1246727Y1034500*
Y1033375*
X1247000Y1031500*
X1247545Y1030375*
X1248364Y1030000*
X1248909*
X1249727Y1030375*
X1250273Y1031500*
X1250545Y1033375*
Y1034500*
X1250273Y1036375*
X1249727Y1037500*
X1248909Y1037875*
X1248364*
X1006545Y1013875D02*
X1009545D01*
X1007909Y1010875*
X1008727*
X1009273Y1010500*
X1009545Y1010125*
X1009818Y1009000*
Y1008250*
X1009545Y1007125*
X1009000Y1006375*
X1008182Y1006000*
X1007364*
X1006545Y1006375*
X1006273Y1006750*
X1006000Y1007500*
X1015818Y1013875D02*
X1013091D01*
X1012818Y1010500*
X1013091Y1010875*
X1013909Y1011250*
X1014727*
X1015545Y1010875*
X1016091Y1010125*
X1016364Y1009000*
X1016091Y1008250*
X1015818Y1007125*
X1015273Y1006375*
X1014455Y1006000*
X1013636*
X1012818Y1006375*
X1012545Y1006750*
X1012273Y1007500*
X1019091Y1006750D02*
X1018818Y1006375D01*
X1019091Y1006000*
X1019364Y1006375*
X1019091Y1006750*
X1024545Y1013875D02*
X1021818Y1008625D01*
X1025909*
X1024545Y1013875D02*
Y1006000D01*
X1101636Y1013875D02*
X1098909Y1008625D01*
X1103000*
X1101636Y1013875D02*
Y1006000D01*
X1132000Y1012000D02*
X1144000D01*
X1138000Y1006000D02*
Y1018000D01*
X1141000Y1021300D02*
Y1015000D01*
Y1021300D02*
X1143836D01*
X1141000Y1018300D02*
X1142745D01*
X1141000Y1015000D02*
X1143836D01*
X1164636Y1013875D02*
X1166818Y1010125D01*
Y1006000*
X1169000Y1013875D02*
X1166818Y1010125D01*
X1171455Y1013875D02*
Y1006000D01*
Y1013875D02*
X1175000D01*
X1171455Y1010125D02*
X1173636D01*
X1171455Y1006000D02*
X1175000D01*
X1181273Y1012750D02*
X1180727Y1013500D01*
X1179909Y1013875*
X1178818*
X1178000Y1013500*
X1177455Y1012750*
Y1012000*
X1177727Y1011250*
X1178000Y1010875*
X1178545Y1010500*
X1180182Y1009750*
X1180727Y1009375*
X1181000Y1009000*
X1181273Y1008250*
Y1007125*
X1180727Y1006375*
X1179909Y1006000*
X1178818*
X1178000Y1006375*
X1177455Y1007125*
X1217818Y1012750D02*
Y1006000D01*
X1215364Y1009375D02*
X1220273D01*
X1227636Y1015375D02*
X1222727Y1003375D01*
X1230091Y1009375D02*
X1235000D01*
X1239091Y1013875D02*
X1238273Y1013500D01*
X1237727Y1012375*
X1237455Y1010500*
Y1009375*
X1237727Y1007500*
X1238273Y1006375*
X1239091Y1006000*
X1239636*
X1240455Y1006375*
X1241000Y1007500*
X1241273Y1009375*
Y1010500*
X1241000Y1012375*
X1240455Y1013500*
X1239636Y1013875*
X1239091*
X1244000Y1006750D02*
X1243727Y1006375D01*
X1244000Y1006000*
X1244273Y1006375*
X1244000Y1006750*
X1248364Y1013875D02*
X1247545Y1013500D01*
X1247000Y1012375*
X1246727Y1010500*
Y1009375*
X1247000Y1007500*
X1247545Y1006375*
X1248364Y1006000*
X1248909*
X1249727Y1006375*
X1250273Y1007500*
X1250545Y1009375*
Y1010500*
X1250273Y1012375*
X1249727Y1013500*
X1248909Y1013875*
X1248364*
G74*
X0Y0D02*
M02*
