*
*
G04 PADS VX.2.3 Build Number: 9191294 generated Gerber (RS-274-X) file*
G04 PC Version=2.1*
*
%IN "LockBase_ZM_V1.1_201808"*%
*
%MOIN*%
*
%FSLAX35Y35*%
*
*
*
*
G04 PC Standard Apertures*
*
*
G04 Thermal Relief Aperture macro.*
%AMTER*
1,1,$1,0,0*
1,0,$1-$2,0,0*
21,0,$3,$4,0,0,45*
21,0,$3,$4,0,0,135*
%
*
*
G04 Annular Aperture macro.*
%AMANN*
1,1,$1,0,0*
1,0,$2,0,0*
%
*
*
G04 Odd Aperture macro.*
%AMODD*
1,1,$1,0,0*
1,0,$1-0.005,0,0*
%
*
*
G04 PC Custom Aperture Macros*
*
*
*
*
*
*
G04 PC Aperture Table*
*
%ADD010C,0.001*%
%ADD042R,0.04149X0.0478*%
%ADD045R,0.0478X0.04149*%
%ADD046R,0.08874X0.08874*%
%ADD049ANN,0.06906X0.04543*%
%ADD050R,0.048X0.048*%
%ADD077C,0.04937*%
%ADD078ANN,0.08874X0.05331*%
%ADD079R,0.08874X0.05724*%
%ADD080R,0.0474X0.09465*%
%ADD081R,0.13795X0.09465*%
%ADD082R,0.05724X0.06906*%
%ADD083ANN,0.06906X0.0454*%
%ADD084ANN,0.06906X0.04937*%
%ADD085C,0.0415*%
%ADD086C,0.08874*%
%ADD087C,0.05724*%
*
*
*
*
G04 PC Circuitry*
G04 Layer Name LockBase_ZM_V1.1_201808 - circuitry*
%LPD*%
*
*
G04 PC Custom Flashes*
G04 Layer Name LockBase_ZM_V1.1_201808 - flashes*
%LPD*%
*
*
G04 PC Circuitry*
G04 Layer Name LockBase_ZM_V1.1_201808 - circuitry*
%LPD*%
*
G54D10*
G54D42*
G01X2200463Y1891645D03*
Y1897943D03*
X2200600Y1910630D03*
Y1916929D03*
G54D45*
X2229681Y1942148D03*
X2223382D03*
X2207828Y1984386D03*
X2201529D03*
X2237663Y1949328D03*
X2243962D03*
G54D46*
X2169696Y1991987D03*
X2185444D03*
X2223450Y1968591D03*
Y1952843D03*
X2253423Y1968591D03*
X2237675D03*
G54D49*
X2029058Y1991045D03*
X2068628Y1991245D03*
X2039475Y1935588D03*
X2039275Y1955788D03*
X2269037Y1877959D03*
Y1887959D03*
Y1897959D03*
Y1907959D03*
Y1917959D03*
X2084198Y1991152D03*
X2084398Y1951582D03*
X2102115D03*
Y1990952D03*
X2062217Y1972857D03*
X2042017Y1972657D03*
G54D50*
X2184054Y1898113D03*
Y1891813D03*
X2192720Y1898154D03*
Y1891854D03*
X2246623Y1917171D03*
X2252923D03*
X2246018Y1925895D03*
X2252318D03*
X2192952Y1883685D03*
X2199252D03*
X2181902Y1932293D03*
X2175602D03*
G54D77*
X2135142Y1898333D03*
Y1888333D03*
X2105142D03*
Y1898333D03*
G54D78*
X2014626Y1967068D03*
Y1953289D03*
X2014098Y1902923D03*
Y1889143D03*
G54D79*
X2211856Y1900428D03*
X2244927D03*
X2245622Y1880629D03*
X2212551D03*
G54D80*
X2192604Y1953007D03*
X2201659D03*
X2210714D03*
G54D81*
X2201659Y1975841D03*
G54D82*
X2201499Y1992333D03*
X2212522D03*
X2237719Y1957102D03*
X2248743D03*
G54D83*
X2266535Y1949134D03*
Y1968701D03*
X2118110Y1989764D03*
Y1969685D03*
G54D84*
X2055671Y1943354D03*
X2067482D03*
G54D85*
X2050597Y1917974D03*
Y1870730D03*
G54D86*
X2045085Y1894352D03*
G54D87*
X2098629Y1870730D03*
Y1917974D03*
X0Y0D02*
M02*
