*
*
G04 PADS VX.2.3 Build Number: 9191294 generated Gerber (RS-274-X) file*
G04 PC Version=2.1*
*
%IN "LockBase_ZM_V1.1_201808"*%
*
%MOIN*%
*
%FSLAX35Y35*%
*
*
*
*
G04 PC Standard Apertures*
*
*
G04 Thermal Relief Aperture macro.*
%AMTER*
1,1,$1,0,0*
1,0,$1-$2,0,0*
21,0,$3,$4,0,0,45*
21,0,$3,$4,0,0,135*
%
*
*
G04 Annular Aperture macro.*
%AMANN*
1,1,$1,0,0*
1,0,$2,0,0*
%
*
*
G04 Odd Aperture macro.*
%AMODD*
1,1,$1,0,0*
1,0,$1-0.005,0,0*
%
*
*
G04 PC Custom Aperture Macros*
*
*
*
*
*
*
G04 PC Aperture Table*
*
%ADD010C,0.001*%
%ADD040R,0.046X0.046*%
%ADD042R,0.04149X0.0478*%
%ADD046R,0.08874X0.08874*%
%ADD049ANN,0.06906X0.04543*%
%ADD050R,0.048X0.048*%
%ADD077C,0.04937*%
%ADD083ANN,0.06906X0.0454*%
%ADD085C,0.0415*%
%ADD086C,0.08874*%
%ADD087C,0.05724*%
%ADD088ANN,0.06906X0.0415*%
%ADD089ANN,0.08874X0.05724*%
%ADD090R,0.04937X0.12811*%
%ADD091R,0.08874X0.04937*%
%ADD092C,0.07*%
%ADD093R,0.06X0.046*%
*
*
*
*
G04 PC Circuitry*
G04 Layer Name LockBase_ZM_V1.1_201808 - circuitry*
%LPD*%
*
*
G04 PC Custom Flashes*
G04 Layer Name LockBase_ZM_V1.1_201808 - flashes*
%LPD*%
*
*
G04 PC Circuitry*
G04 Layer Name LockBase_ZM_V1.1_201808 - circuitry*
%LPD*%
*
G54D10*
G54D40*
G01X2124043Y1898082D03*
Y1890582D03*
G54D42*
X2137168Y1907411D03*
Y1913710D03*
G54D46*
X2069937Y1886879D03*
Y1902627D03*
G54D49*
X2269037Y1877959D03*
Y1887959D03*
Y1897959D03*
Y1907959D03*
Y1917959D03*
G54D50*
X2144925Y1901137D03*
Y1907437D03*
X2129705Y1907451D03*
X2123405D03*
X2123345Y1915955D03*
X2129645D03*
G54D77*
X2135142Y1898333D03*
Y1888333D03*
X2105142D03*
Y1898333D03*
G54D83*
X2266535Y1949134D03*
Y1968701D03*
X2118110Y1989764D03*
Y1969685D03*
G54D85*
X2050597Y1917974D03*
Y1870730D03*
G54D86*
X2045085Y1894352D03*
G54D87*
X2098629Y1870730D03*
Y1917974D03*
G54D88*
X2029058Y1991045D03*
X2068628Y1991245D03*
X2039475Y1935588D03*
X2039275Y1955788D03*
X2084198Y1991152D03*
X2084398Y1951582D03*
X2102115D03*
Y1990952D03*
X2062217Y1972857D03*
X2042017Y1972657D03*
G54D89*
X2014626Y1967068D03*
Y1953289D03*
X2014098Y1902923D03*
Y1889143D03*
G54D90*
X2229854Y1869272D03*
X2221980D03*
X2214106D03*
X2206232D03*
X2198358D03*
X2190484D03*
X2182610D03*
X2174736D03*
Y1932264D03*
X2182610D03*
X2190484D03*
X2198358D03*
X2206232D03*
X2214106D03*
X2221980D03*
X2229854D03*
G54D91*
X2166862Y1881083D03*
Y1888957D03*
Y1896831D03*
Y1904705D03*
Y1912579D03*
Y1920453D03*
G54D92*
X2055671Y1943354D03*
X2067482D03*
G54D93*
X2116043Y1894332D03*
X0Y0D02*
M02*
