*
*
G04 PADS VX.2.3 Build Number: 9191294 generated Gerber (RS-274-X) file*
G04 PC Version=2.1*
*
%IN "LockBase_ZM_V1.1_201808"*%
*
%MOIN*%
*
%FSLAX35Y35*%
*
*
*
*
G04 PC Standard Apertures*
*
*
G04 Thermal Relief Aperture macro.*
%AMTER*
1,1,$1,0,0*
1,0,$1-$2,0,0*
21,0,$3,$4,0,0,45*
21,0,$3,$4,0,0,135*
%
*
*
G04 Annular Aperture macro.*
%AMANN*
1,1,$1,0,0*
1,0,$2,0,0*
%
*
*
G04 Odd Aperture macro.*
%AMODD*
1,1,$1,0,0*
1,0,$1-0.005,0,0*
%
*
*
G04 PC Custom Aperture Macros*
*
*
*
*
*
*
G04 PC Aperture Table*
*
%ADD010C,0.001*%
%ADD014R,0.03149X0.0378*%
%ADD017R,0.0378X0.03149*%
%ADD018R,0.07874X0.07874*%
%ADD022R,0.038X0.038*%
%ADD063R,0.07874X0.04724*%
%ADD064R,0.0374X0.08465*%
%ADD065R,0.12795X0.08465*%
%ADD066R,0.04724X0.05906*%
*
*
*
*
G04 PC Circuitry*
G04 Layer Name LockBase_ZM_V1.1_201808 - circuitry*
%LPD*%
*
*
G04 PC Custom Flashes*
G04 Layer Name LockBase_ZM_V1.1_201808 - flashes*
%LPD*%
*
*
G04 PC Circuitry*
G04 Layer Name LockBase_ZM_V1.1_201808 - circuitry*
%LPD*%
*
G54D10*
G54D14*
G01X2200463Y1891645D03*
Y1897943D03*
X2200600Y1910630D03*
Y1916929D03*
G54D17*
X2229681Y1942148D03*
X2223382D03*
X2207828Y1984386D03*
X2201529D03*
X2237663Y1949328D03*
X2243962D03*
G54D18*
X2169696Y1991987D03*
X2185444D03*
X2223450Y1968591D03*
Y1952843D03*
X2253423Y1968591D03*
X2237675D03*
G54D22*
X2184054Y1898113D03*
Y1891813D03*
X2192720Y1898154D03*
Y1891854D03*
X2246623Y1917171D03*
X2252923D03*
X2246018Y1925895D03*
X2252318D03*
X2192952Y1883685D03*
X2199252D03*
X2181902Y1932293D03*
X2175602D03*
G54D63*
X2211856Y1900428D03*
X2244927D03*
X2245622Y1880629D03*
X2212551D03*
G54D64*
X2192604Y1953007D03*
X2201659D03*
X2210714D03*
G54D65*
X2201659Y1975841D03*
G54D66*
X2201499Y1992333D03*
X2212522D03*
X2237719Y1957102D03*
X2248743D03*
X0Y0D02*
M02*
