*
*
G04 PADS VX.2.3 Build Number: 9191294 generated Gerber (RS-274-X) file*
G04 PC Version=2.1*
*
%IN "LockBase_ZM_V1.1_201808"*%
*
%MOIN*%
*
%FSLAX35Y35*%
*
*
*
*
G04 PC Standard Apertures*
*
*
G04 Thermal Relief Aperture macro.*
%AMTER*
1,1,$1,0,0*
1,0,$1-$2,0,0*
21,0,$3,$4,0,0,45*
21,0,$3,$4,0,0,135*
%
*
*
G04 Annular Aperture macro.*
%AMANN*
1,1,$1,0,0*
1,0,$2,0,0*
%
*
*
G04 Odd Aperture macro.*
%AMODD*
1,1,$1,0,0*
1,0,$1-0.005,0,0*
%
*
*
G04 PC Custom Aperture Macros*
*
*
*
*
*
*
G04 PC Aperture Table*
*
%ADD010C,0.001*%
%ADD033C,0.01*%
%ADD036C,0.005*%
%ADD037C,0.006*%
%ADD038C,0.004*%
*
*
*
*
G04 PC Circuitry*
G04 Layer Name LockBase_ZM_V1.1_201808 - circuitry*
%LPD*%
*
*
G04 PC Custom Flashes*
G04 Layer Name LockBase_ZM_V1.1_201808 - flashes*
%LPD*%
*
*
G04 PC Circuitry*
G04 Layer Name LockBase_ZM_V1.1_201808 - circuitry*
%LPD*%
*
G54D10*
G54D33*
G01X2022368Y1999119D02*
X2075058D01*
Y1983371*
X2022368*
Y1999119*
X2028209Y1979273D02*
Y1941084D01*
X2001043*
Y1979273*
X2028209*
X2001126Y1963168D02*
X2005626D01*
Y1956668*
X2001126*
X2031401Y1928899D02*
Y1962363D01*
X2047149*
Y1928899*
X2031401*
X2216580Y1907711D02*
Y1893144D01*
X2240210Y1907711D02*
Y1893144D01*
X2216580Y1907711D02*
X2240202D01*
X2216580Y1893144D02*
X2240202D01*
X2164396Y1997287D02*
X2190796D01*
Y1986587*
X2164396*
Y1997287*
X2175896Y1995337D02*
X2179296Y1991937D01*
X2175896Y1988087*
Y1995337*
X2179696Y1995687D02*
Y1988087D01*
X2109398Y1997842D02*
Y1945152D01*
X2076524*
Y1997842*
X2109398*
X2189104Y1970007D02*
X2214004D01*
Y1958807*
X2189104*
Y1970007*
X2228750Y1973891D02*
Y1947491D01*
X2218050*
Y1973891*
X2228750*
X2226800Y1962391D02*
X2223400Y1958991D01*
X2219550Y1962391*
X2226800*
X2227150Y1958591D02*
X2219550D01*
X2068906Y1964783D02*
X2035442D01*
Y1980531*
X2068906*
Y1964783*
X2258723Y1963291D02*
X2232323D01*
Y1973991*
X2258723*
Y1963291*
X2247223Y1965241D02*
X2243823Y1968641D01*
X2247223Y1972491*
Y1965241*
X2243423Y1964891D02*
Y1972491D01*
X2073387Y1943354D02*
G75*
G03X2073387I-11811J0D01*
G01X2240898Y1873345D02*
Y1887912D01*
X2217268Y1873345D02*
Y1887912D01*
X2240898Y1873345D02*
X2217276D01*
X2240898Y1887912D02*
X2217276D01*
X2037014Y1924470D02*
X2112211D01*
Y1864234*
X2037014*
Y1924470*
X2027681Y1915127D02*
Y1876938D01*
X2000516*
Y1915127*
X2027681*
X2000598Y1899023D02*
X2005098D01*
Y1892523*
X2000598*
X2007247Y1873968D02*
X2005429Y1867406D01*
X2007247Y1873968D02*
X2009065Y1867406D01*
X2006111Y1869593D02*
X2008384D01*
X2014520Y1872406D02*
X2014293Y1873031D01*
X2013838Y1873656*
X2013384Y1873968*
X2012475*
X2012020Y1873656*
X2011565Y1873031*
X2011565D02*
X2011338Y1872406D01*
X2011111Y1871468*
Y1869906*
X2011338Y1868968*
X2011565Y1868343*
X2011565D02*
X2012020Y1867718D01*
X2012475Y1867406*
X2013384*
X2013838Y1867718*
X2014293Y1868343*
X2014520Y1868968*
X2016565Y1866156D02*
X2021338D01*
X2022702Y1873968D02*
Y1867406D01*
X2025429*
X2004403Y1925353D02*
X2002585Y1918790D01*
X2004403Y1925353D02*
X2006222Y1918790D01*
X2003267Y1920978D02*
X2005540D01*
X2011676Y1923790D02*
X2011449Y1924415D01*
X2010994Y1925040*
X2010540Y1925353*
X2009631*
X2009176Y1925040*
X2008722Y1924415*
X2008494Y1923790*
X2008267Y1922853*
Y1921290*
X2008494Y1920353*
X2008722Y1919728*
X2009176Y1919103*
X2009631Y1918790*
X2010540*
X2010994Y1919103*
X2011449Y1919728*
X2011676Y1920353*
X2013722Y1917540D02*
X2018494D01*
X2019858Y1925353D02*
Y1918790D01*
X2022585*
X2025994Y1925353D02*
X2025540Y1925040D01*
X2025085Y1924415*
X2024858Y1923790*
X2024631Y1922853*
Y1921290*
X2024858Y1920353*
X2025085Y1919728*
X2025540Y1919103*
X2025994Y1918790*
X2026903*
X2027358Y1919103*
X2027813Y1919728*
X2028040Y1920353*
X2028267Y1921290*
Y1922853*
X2028040Y1923790*
X2027813Y1924415*
X2027358Y1925040*
X2026903Y1925353*
X2025994*
X2265415Y1945232D02*
X2263142D01*
X2262915Y1942419*
X2263142Y1942732*
X2263824Y1943044*
X2264506*
X2265188Y1942732*
X2265642Y1942107*
X2265870Y1941169*
X2265642Y1940544*
X2265415Y1939607*
X2264961Y1938982*
X2264279Y1938669*
X2263597*
X2262915Y1938982*
X2262688Y1939294*
X2262461Y1939919*
X2267915Y1945232D02*
X2269733Y1938669D01*
X2271552Y1945232D02*
X2269733Y1938669D01*
X2262305Y1982126D02*
X2262078Y1982751D01*
X2261624Y1983376*
X2261169Y1983688*
X2260260*
X2259805Y1983376*
X2259351Y1982751*
X2259124Y1982126*
X2258896Y1981188*
Y1979626*
X2259124Y1978688*
X2259351Y1978063*
X2259805Y1977438*
X2260260Y1977126*
X2261169*
X2261624Y1977438*
X2262078Y1978063*
X2262305Y1978688*
Y1979626*
X2261169D02*
X2262305D01*
X2264351Y1983688D02*
Y1977126D01*
Y1983688D02*
X2267533Y1977126D01*
Y1983688D02*
Y1977126D01*
X2269578Y1983688D02*
Y1977126D01*
Y1983688D02*
X2271169D01*
X2271851Y1983376*
X2272305Y1982751*
X2272533Y1982126*
X2272760Y1981188*
Y1979626*
X2272533Y1978688*
X2272305Y1978063*
X2271851Y1977438*
X2271169Y1977126*
X2269578*
G54D36*
X2202628Y1899715D02*
G03X2198298I-2165J-2033D01*
G01Y1889872*
G03X2202628I2165J1915*
G01X2202629D02*
X2202628Y1899715D01*
X2202765Y1918700D02*
G03X2198435I-2165J-2033D01*
G01Y1918701D02*
X2198434Y1908858D01*
X2198435Y1908857D02*
G03X2202765I2165J1916D01*
G01Y1908858D02*
Y1918701D01*
X2210010Y1988593D02*
X2215357D01*
Y1996073*
X2210010*
X2204010Y1988593D02*
X2199810D01*
X2198349Y1989703*
Y1994770*
X2199810Y1996073*
X2204010*
X2221611Y1944313D02*
G03Y1939983I2033J-2165D01*
G01X2221610D02*
X2231453D01*
X2231454D02*
G03Y1944314I-1916J2165D01*
G01X2231453D02*
X2221610Y1944313D01*
X2199758Y1986551D02*
G03Y1982221I2033J-2165D01*
G01X2199757D02*
X2209600Y1982220D01*
X2209601Y1982221D02*
G03Y1986551I-1916J2165D01*
G01X2209600D02*
X2199757D01*
X2245733Y1947163D02*
G03Y1951493I-2033J2165D01*
G01X2235890Y1951494*
Y1951493D02*
G03Y1947163I1916J-2165D01*
G01Y1947162D02*
X2245733Y1947163D01*
X2246231Y1953362D02*
X2251577D01*
Y1960843*
X2246231*
X2240231Y1953362D02*
X2236030D01*
X2234570Y1954472*
Y1959539*
X2236030Y1960843*
X2240231*
X2185426Y1888062D02*
X2182801D01*
X2185426D02*
Y1887243D01*
X2185426D02*
X2185301Y1886971D01*
X2185176Y1886880*
X2184926Y1886789*
X2184676*
X2184426Y1886880*
X2184301Y1886971*
X2184176Y1887243*
X2184176D02*
Y1888062D01*
Y1887425D02*
X2182801Y1886789D01*
X2184801Y1885880D02*
X2184926D01*
X2185176Y1885789*
X2185301Y1885698*
X2185426Y1885516*
Y1885153*
X2185301Y1884971*
X2185176Y1884880*
X2184926Y1884789*
X2184676*
X2184426Y1884880*
X2184051Y1885062*
X2182801Y1885971*
Y1884698*
X2190381Y1905129D02*
X2187756D01*
X2190381D02*
Y1904310D01*
X2190256Y1904038*
X2190131Y1903947*
X2189881Y1903856*
X2189631*
X2189381Y1903947*
X2189256Y1904038*
X2189131Y1904310*
Y1905129*
Y1904492D02*
X2187756Y1903856D01*
X2189881Y1903038D02*
X2190006Y1902856D01*
X2190381Y1902583*
X2187756*
X2013362Y1991029D02*
X2013271Y1991279D01*
X2013090Y1991529*
X2012908Y1991654*
X2012544*
X2012362Y1991529*
X2012181Y1991279*
X2012090Y1991029*
X2011999Y1990654*
Y1990029*
X2012090Y1989654*
X2012181Y1989404*
X2012362Y1989154*
X2012544Y1989029*
X2012908*
X2013090Y1989154*
X2013271Y1989404*
X2013362Y1989654*
X2014181Y1991154D02*
X2014362Y1991279D01*
X2014635Y1991654*
Y1989029*
X2015635Y1991654D02*
X2016635D01*
X2016090Y1990654*
X2016362*
X2016544Y1990529*
X2016635Y1990404*
X2016726Y1990029*
Y1989779*
X2016635Y1989404*
X2016453Y1989154*
X2016181Y1989029*
X2015908*
X2015635Y1989154*
X2015544Y1989279*
X2015453Y1989529*
X2011001Y1938592D02*
Y1936592D01*
X2010910Y1936217*
X2010819Y1936092*
X2010637Y1935967*
X2010456*
X2010456D02*
X2010274Y1936092D01*
X2010183Y1936217*
X2010092Y1936592*
Y1936842*
X2012001Y1938592D02*
X2013001D01*
X2012456Y1937592*
X2012456D02*
X2012728D01*
X2012910Y1937467*
X2013001Y1937342*
X2013092Y1936967*
Y1936717*
X2013001Y1936342*
X2012819Y1936092*
X2012546Y1935967*
X2012274*
X2012001Y1936092*
X2011910Y1936217*
X2011819Y1936467*
X2026608Y1931527D02*
Y1928902D01*
Y1931527D02*
X2027789D01*
X2026608Y1930277D02*
X2027335D01*
X2028608Y1931027D02*
X2028789Y1931152D01*
X2029062Y1931527*
Y1928902*
X2205814Y1894955D02*
X2206064Y1895046D01*
X2206314Y1895228*
X2206439Y1895410*
Y1895773*
X2206314Y1895955*
X2206064Y1896137*
X2205814Y1896228*
X2205439Y1896319*
X2204814*
X2204439Y1896228*
X2204189Y1896137*
X2203939Y1895955*
X2203814Y1895773*
Y1895410*
X2203939Y1895228*
X2204189Y1895046*
X2204439Y1894955*
X2205939Y1894137D02*
X2206064Y1893955D01*
X2206439Y1893683*
X2203814*
X2238315Y1918672D02*
Y1916047D01*
Y1918672D02*
X2239133D01*
X2239406Y1918547*
X2239497Y1918422*
X2239588Y1918172*
Y1917922*
X2239497Y1917672*
X2239406Y1917547*
X2239133Y1917422*
X2238315*
X2238951D02*
X2239588Y1916047D01*
X2240588Y1918672D02*
X2241588D01*
X2241042Y1917672*
X2241315*
X2241497Y1917547*
X2241588Y1917422*
X2241679Y1917047*
Y1916797*
X2241588Y1916422*
X2241406Y1916172*
X2241133Y1916047*
X2240860*
X2240588Y1916172*
X2240497Y1916297*
X2240406Y1916547*
X2237673Y1926747D02*
Y1924122D01*
Y1926747D02*
X2238491D01*
X2238764Y1926622*
X2238855Y1926497*
X2238946Y1926247*
Y1925997*
X2238855Y1925747*
X2238764Y1925622*
X2238491Y1925497*
X2237673*
X2238310D02*
X2238946Y1924122D01*
X2240673Y1926747D02*
X2239764Y1924997D01*
X2241128*
X2240673Y1926747D02*
Y1924122D01*
X2200492Y1925328D02*
X2200742Y1925419D01*
X2200992Y1925601*
X2201117Y1925783*
Y1926146*
X2200992Y1926328*
X2200742Y1926510*
X2200492Y1926601*
X2200117Y1926692*
X2199492*
X2199117Y1926601*
X2198867Y1926510*
X2198617Y1926328*
X2198492Y1926146*
Y1925783*
X2198617Y1925601*
X2198867Y1925419*
X2199117Y1925328*
X2200492Y1924419D02*
X2200617D01*
X2200867Y1924328*
X2200992Y1924237*
X2201117Y1924055*
Y1923692*
X2200992Y1923510*
X2200867Y1923419*
X2200617Y1923328*
X2200367*
X2200117Y1923419*
X2199742Y1923601*
X2198492Y1924510*
Y1923237*
X2156493Y1992950D02*
Y1990325D01*
Y1992950D02*
X2157130D01*
X2157403Y1992825*
X2157584Y1992575*
X2157675Y1992325*
X2157766Y1991950*
Y1991325*
X2157675Y1990950*
X2157584Y1990700*
X2157403Y1990450*
X2157130Y1990325*
X2156493*
X2158766Y1992950D02*
X2159766D01*
X2159221Y1991950*
X2159493*
X2159675Y1991825*
X2159766Y1991700*
X2159857Y1991325*
Y1991075*
X2159766Y1990700*
X2159584Y1990450*
X2159312Y1990325*
X2159039*
X2158766Y1990450*
X2158675Y1990575*
X2158584Y1990825*
X2112757Y1948723D02*
Y1946098D01*
X2113848*
X2114666Y1948223D02*
X2114848Y1948348D01*
X2115121Y1948723*
Y1946098*
X2183748Y1963389D02*
Y1961514D01*
X2183839Y1961139*
X2184021Y1960889*
X2184293Y1960764*
X2184475*
X2184748Y1960889*
X2184930Y1961139*
X2185021Y1961514*
Y1963389*
X2185930Y1962764D02*
Y1962889D01*
X2186021Y1963139*
X2186112Y1963264*
X2186293Y1963389*
X2186657*
X2186839Y1963264*
X2186930Y1963139*
X2187021Y1962889*
Y1962639*
X2186930Y1962389*
X2186748Y1962014*
X2185839Y1960764*
X2187112*
X2219290Y1993202D02*
X2219199Y1993452D01*
X2219017Y1993702*
X2218836Y1993827*
X2218472*
X2218290Y1993702*
X2218108Y1993452*
X2218017Y1993202*
X2217927Y1992827*
Y1992202*
X2218017Y1991827*
X2218108Y1991577*
X2218290Y1991327*
X2218472Y1991202*
X2218836*
X2219017Y1991327*
X2219199Y1991577*
X2219290Y1991827*
X2220108Y1993327D02*
X2220290Y1993452D01*
X2220563Y1993827*
Y1991202*
X2221927Y1993827D02*
X2221654Y1993702D01*
X2221472Y1993327*
X2221381Y1992702*
Y1992327*
X2221472Y1991702*
X2221654Y1991327*
X2221927Y1991202*
X2222108*
X2222381Y1991327*
X2222563Y1991702*
X2222654Y1992327*
Y1992702*
X2222563Y1993327*
X2222381Y1993702*
X2222108Y1993827*
X2221927*
X2214749Y1941934D02*
X2214659Y1942184D01*
X2214477Y1942434*
X2214295Y1942559*
X2213931*
X2213749Y1942434*
X2213568Y1942184*
X2213477Y1941934*
X2213386Y1941559*
Y1940934*
X2213477Y1940559*
X2213568Y1940309*
X2213749Y1940059*
X2213931Y1939934*
X2214295*
X2214477Y1940059*
X2214659Y1940309*
X2214749Y1940559*
X2216749Y1941684D02*
X2216659Y1941309D01*
X2216477Y1941059*
X2216204Y1940934*
X2216113*
X2215840Y1941059*
X2215659Y1941309*
X2215568Y1941684*
Y1941809*
X2215659Y1942184*
X2215840Y1942434*
X2216113Y1942559*
X2216204*
X2216477Y1942434*
X2216659Y1942184*
X2216749Y1941684*
Y1941059*
X2216659Y1940434*
X2216477Y1940059*
X2216204Y1939934*
X2216022*
X2215749Y1940059*
X2215659Y1940309*
X2213465Y1984970D02*
X2213374Y1985220D01*
X2213192Y1985470*
X2213010Y1985595*
X2212647*
X2212465Y1985470*
X2212283Y1985220*
X2212192Y1984970*
X2212101Y1984595*
Y1983970*
X2212192Y1983595*
X2212283Y1983345*
X2212465Y1983095*
X2212647Y1982970*
X2213010*
X2213192Y1983095*
X2213374Y1983345*
X2213465Y1983595*
X2214283Y1985095D02*
X2214465Y1985220D01*
X2214737Y1985595*
Y1982970*
X2215556Y1985095D02*
X2215737Y1985220D01*
X2216010Y1985595*
Y1982970*
X2225131Y1980549D02*
Y1977924D01*
Y1980549D02*
X2225768D01*
X2226040Y1980424*
X2226222Y1980174*
X2226313Y1979924*
X2226404Y1979549*
Y1978924*
X2226313Y1978549*
X2226222Y1978299*
X2226040Y1978049*
X2225768Y1977924*
X2225131*
X2228131Y1980549D02*
X2227222Y1978799D01*
X2228586*
X2228131Y1980549D02*
Y1977924D01*
X2250231Y1949705D02*
X2250140Y1949955D01*
X2249958Y1950205*
X2249777Y1950330*
X2249413*
X2249231Y1950205*
X2249049Y1949955*
X2248958Y1949705*
X2248867Y1949330*
Y1948705*
X2248958Y1948330*
X2249049Y1948080*
X2249231Y1947830*
X2249413Y1947705*
X2249777*
X2249958Y1947830*
X2250140Y1948080*
X2250231Y1948330*
X2252322Y1950330D02*
X2251413Y1947705D01*
X2251049Y1950330D02*
X2252322D01*
X2253520Y1957122D02*
X2253429Y1957372D01*
X2253247Y1957622*
X2253065Y1957747*
X2252702*
X2252520Y1957622*
X2252338Y1957372*
X2252247Y1957122*
X2252156Y1956747*
Y1956122*
X2252247Y1955747*
X2252338Y1955497*
X2252520Y1955247*
X2252702Y1955122*
X2253065*
X2253247Y1955247*
X2253429Y1955497*
X2253520Y1955747*
X2254793Y1957747D02*
X2254520Y1957622D01*
X2254429Y1957372*
Y1957122*
X2254520Y1956872*
X2254702Y1956747*
X2255065Y1956622*
X2255338Y1956497*
X2255520Y1956247*
X2255611Y1955997*
Y1955622*
X2255520Y1955372*
X2255429Y1955247*
X2255156Y1955122*
X2254793*
X2254520Y1955247*
X2254429Y1955372*
X2254338Y1955622*
Y1955997*
X2254429Y1956247*
X2254611Y1956497*
X2254883Y1956622*
X2255247Y1956747*
X2255429Y1956872*
X2255520Y1957122*
Y1957372*
X2255429Y1957622*
X2255156Y1957747*
X2254793*
X2062709Y1962697D02*
Y1960072D01*
Y1962697D02*
X2063527D01*
X2063800Y1962572*
X2063890Y1962447*
X2063981Y1962197*
Y1961947*
X2063890Y1961697*
X2063800Y1961572*
X2063527Y1961447*
X2062709*
X2063345D02*
X2063981Y1960072D01*
X2064800Y1962197D02*
X2064981Y1962322D01*
X2065254Y1962697*
Y1960072*
X2066254Y1962697D02*
X2067254D01*
X2066709Y1961697*
X2066981*
X2067163Y1961572*
X2067254Y1961447*
X2067345Y1961072*
Y1960822*
X2067254Y1960447*
X2067072Y1960197*
X2066800Y1960072*
X2066527*
X2066254Y1960197*
X2066163Y1960322*
X2066072Y1960572*
X2253266Y1978437D02*
Y1975812D01*
Y1978437D02*
X2253903D01*
X2254175Y1978312*
X2254357Y1978062*
X2254448Y1977812*
X2254539Y1977437*
Y1976812*
X2254448Y1976437*
X2254357Y1976187*
X2254175Y1975937*
X2253903Y1975812*
X2253266*
X2255357Y1977937D02*
X2255539Y1978062D01*
X2255812Y1978437*
Y1975812*
X2265033Y1950645D02*
Y1948020D01*
Y1950645D02*
X2265760Y1948020D01*
X2266487Y1950645D02*
X2265760Y1948020D01*
X2266487Y1950645D02*
Y1948020D01*
X2268487Y1949770D02*
X2268396Y1949395D01*
X2268215Y1949145*
X2267942Y1949020*
X2267851*
X2267578Y1949145*
X2267396Y1949395*
X2267306Y1949770*
Y1949895*
X2267396Y1950270*
X2267578Y1950520*
X2267851Y1950645*
X2267942*
X2268215Y1950520*
X2268396Y1950270*
X2268487Y1949770*
Y1949145*
X2268396Y1948520*
X2268215Y1948145*
X2267942Y1948020*
X2267760*
X2267487Y1948145*
X2267396Y1948395*
X2263923Y1970166D02*
Y1967541D01*
Y1970166D02*
X2264650Y1967541D01*
X2265377Y1970166D02*
X2264650Y1967541D01*
X2265377Y1970166D02*
Y1967541D01*
X2266195Y1969666D02*
X2266377Y1969791D01*
X2266650Y1970166*
Y1967541*
X2268013Y1970166D02*
X2267741Y1970041D01*
X2267559Y1969666*
X2267468Y1969041*
Y1968666*
X2267559Y1968041*
X2267741Y1967666*
X2268013Y1967541*
X2268195*
X2268468Y1967666*
X2268650Y1968041*
X2268741Y1968666*
Y1969041*
X2268650Y1969666*
X2268468Y1970041*
X2268195Y1970166*
X2268013*
X2115429Y1985873D02*
Y1983248D01*
Y1985873D02*
X2116156Y1983248D01*
X2116884Y1985873D02*
X2116156Y1983248D01*
X2116884Y1985873D02*
Y1983248D01*
X2117702Y1985373D02*
X2117884Y1985498D01*
X2118156Y1985873*
Y1983248*
X2118975Y1985373D02*
X2119156Y1985498D01*
X2119429Y1985873*
Y1983248*
X2116445Y1963994D02*
Y1961369D01*
Y1963994D02*
X2117172Y1961369D01*
X2117899Y1963994D02*
X2117172Y1961369D01*
X2117899Y1963994D02*
Y1961369D01*
X2118718Y1963494D02*
X2118899Y1963619D01*
X2119172Y1963994*
Y1961369*
X2120081Y1963369D02*
Y1963494D01*
X2120172Y1963744*
X2120263Y1963869*
X2120445Y1963994*
X2120809*
X2120990Y1963869*
X2121081Y1963744*
X2121172Y1963494*
Y1963244*
X2121081Y1962994*
X2120899Y1962619*
X2119990Y1961369*
X2121263*
X2074925Y1938712D02*
Y1936087D01*
X2076016*
X2076925Y1938087D02*
Y1938212D01*
X2077016Y1938462*
X2077107Y1938587*
X2077289Y1938712*
X2077652*
X2077834Y1938587*
X2077925Y1938462*
X2078016Y1938212*
Y1937962*
X2077925Y1937712*
X2077743Y1937337*
X2076834Y1936087*
X2078107*
X2099117Y1929012D02*
Y1927137D01*
X2099208Y1926762*
X2099390Y1926512*
X2099662Y1926387*
X2099844*
X2100117Y1926512*
X2100299Y1926762*
X2100390Y1927137*
Y1929012*
X2101390D02*
X2102390D01*
X2101844Y1928012*
X2102117*
X2102299Y1927887*
X2102390Y1927762*
X2102480Y1927387*
Y1927137*
X2102390Y1926762*
X2102208Y1926512*
X2101935Y1926387*
X2101662*
X2101390Y1926512*
X2101299Y1926637*
X2101208Y1926887*
X2030930Y1882877D02*
Y1880877D01*
X2030839Y1880502*
X2030748Y1880377*
X2030566Y1880252*
X2030385*
X2030203Y1880377*
X2030112Y1880502*
X2030021Y1880877*
Y1881127*
X2032657Y1882877D02*
X2031748Y1881127D01*
X2033112*
X2032657Y1882877D02*
Y1880252D01*
X2189774Y1877748D02*
Y1875123D01*
Y1877748D02*
X2190592D01*
X2190865Y1877623*
X2190956Y1877498*
X2191047Y1877248*
Y1876998*
X2190956Y1876748*
X2190865Y1876623*
X2190592Y1876498*
X2189774*
X2190411D02*
X2191047Y1875123D01*
X2192047Y1877748D02*
X2193047D01*
X2192502Y1876748*
X2192774*
X2192956Y1876623*
X2193047Y1876498*
X2193138Y1876123*
Y1875873*
X2193047Y1875498*
X2192865Y1875248*
X2192592Y1875123*
X2192320*
X2192047Y1875248*
X2191956Y1875373*
X2191865Y1875623*
X2195138Y1876873D02*
X2195047Y1876498D01*
X2194865Y1876248*
X2194592Y1876123*
X2194502*
X2194229Y1876248*
X2194047Y1876498*
X2193956Y1876873*
Y1876998*
X2194047Y1877373*
X2194229Y1877623*
X2194502Y1877748*
X2194592*
X2194865Y1877623*
X2195047Y1877373*
X2195138Y1876873*
Y1876248*
X2195047Y1875623*
X2194865Y1875248*
X2194592Y1875123*
X2194411*
X2194138Y1875248*
X2194047Y1875498*
X2243990Y1909628D02*
Y1907003D01*
Y1909628D02*
X2244626D01*
X2244899Y1909503*
X2245080Y1909253*
X2245171Y1909003*
X2245262Y1908628*
Y1908003*
X2245171Y1907628*
X2245080Y1907378*
X2244899Y1907128*
X2244626Y1907003*
X2243990*
X2246080Y1909628D02*
Y1907003D01*
X2247171*
X2246444Y1889289D02*
Y1886664D01*
Y1889289D02*
X2247262D01*
X2247534Y1889164*
X2247625Y1889039*
X2247716Y1888789*
Y1888539*
X2247625Y1888289*
X2247534Y1888164*
X2247262Y1888039*
X2246444*
X2247080D02*
X2247716Y1886664D01*
X2249807Y1888914D02*
X2249625Y1889164D01*
X2249353Y1889289*
X2248989*
X2248716Y1889164*
X2248534Y1888914*
Y1888664*
X2248625Y1888414*
X2248716Y1888289*
X2248898Y1888164*
X2249444Y1887914*
X2249625Y1887789*
X2249716Y1887664*
X2249807Y1887414*
Y1887039*
X2249625Y1886789*
X2249353Y1886664*
X2248989*
X2248716Y1886789*
X2248534Y1887039*
X2251262Y1889289D02*
Y1886664D01*
X2250625Y1889289D02*
X2251898D01*
X2262185Y1917361D02*
X2262094Y1917611D01*
X2261912Y1917861*
X2261731Y1917986*
X2261367*
X2261185Y1917861*
X2261003Y1917611*
X2260912Y1917361*
X2260822Y1916986*
Y1916361*
X2260912Y1915986*
X2261003Y1915736*
X2261185Y1915486*
X2261367Y1915361*
X2261731*
X2261912Y1915486*
X2262094Y1915736*
X2262185Y1915986*
Y1916361*
X2261731D02*
X2262185D01*
X2260172Y1909044D02*
Y1906419D01*
X2259535Y1909044D02*
X2260808D01*
X2261626D02*
X2262899Y1906419D01*
Y1909044D02*
X2261626Y1906419D01*
X2263717Y1909044D02*
Y1906419D01*
Y1909044D02*
X2264354D01*
X2264626Y1908919*
X2264808Y1908669*
X2264899Y1908419*
X2264990Y1908044*
Y1907419*
X2264899Y1907044*
X2264808Y1906794*
X2264626Y1906544*
X2264354Y1906419*
X2263717*
X2260588Y1899225D02*
Y1896600D01*
Y1899225D02*
X2261406D01*
X2261679Y1899100*
X2261770Y1898975*
X2261861Y1898725*
Y1898475*
X2261770Y1898225*
X2261679Y1898100*
X2261406Y1897975*
X2260588*
X2261224D02*
X2261861Y1896600D01*
X2262679Y1899225D02*
X2263952Y1896600D01*
Y1899225D02*
X2262679Y1896600D01*
X2264770Y1899225D02*
Y1896600D01*
Y1899225D02*
X2265406D01*
X2265679Y1899100*
X2265861Y1898850*
X2265952Y1898600*
X2266042Y1898225*
Y1897600*
X2265952Y1897225*
X2265861Y1896975*
X2265679Y1896725*
X2265406Y1896600*
X2264770*
X2261700Y1889094D02*
X2261609Y1889344D01*
X2261427Y1889594*
X2261245Y1889719*
X2260881*
X2260700Y1889594*
X2260518Y1889344*
X2260427Y1889094*
X2260336Y1888719*
Y1888094*
X2260427Y1887719*
X2260518Y1887469*
X2260700Y1887219*
X2260881Y1887094*
X2261245*
X2261427Y1887219*
X2261609Y1887469*
X2261700Y1887719*
Y1888094*
X2261245D02*
X2261700D01*
X2261010Y1878827D02*
X2260101D01*
X2260010Y1877702*
X2260101Y1877827*
X2260374Y1877952*
X2260646*
X2260919Y1877827*
X2261101Y1877577*
X2261192Y1877202*
X2261101Y1876952*
X2261010Y1876577*
X2260828Y1876327*
X2260555Y1876202*
X2260283*
X2260010Y1876327*
X2259919Y1876452*
X2259828Y1876702*
X2262010Y1878827D02*
X2262737Y1876202D01*
X2263464Y1878827D02*
X2262737Y1876202D01*
G54D37*
X2187054Y1900963D02*
X2181054D01*
Y1888963*
X2187054*
Y1900963*
X2195720Y1901004D02*
X2189720D01*
Y1889004*
X2195720*
Y1901004*
X2243773Y1920171D02*
Y1914171D01*
X2255773*
Y1920171*
X2243773*
X2243168Y1928895D02*
Y1922895D01*
X2255168*
Y1928895*
X2243168*
X2190102Y1886685D02*
Y1880685D01*
X2202102*
Y1886685*
X2190102*
X2184752Y1929293D02*
Y1935293D01*
X2172752*
Y1929293*
X2184752*
G54D38*
X2186696Y1933468D02*
Y1930514D01*
Y1933468D02*
X2187616D01*
X2187923Y1933327*
X2188025Y1933186*
X2188127Y1932905*
Y1932624*
X2188025Y1932343*
X2187923Y1932202*
X2187616Y1932061*
X2186696*
X2187411D02*
X2188127Y1930514D01*
X2190377Y1933468D02*
X2189355D01*
X2189252Y1932202*
X2189355Y1932343*
X2189661Y1932483*
X2189968*
X2190275Y1932343*
X2190480Y1932061*
X2190582Y1931639*
X2190480Y1931358*
X2190377Y1930936*
X2190173Y1930655*
X2189866Y1930514*
X2189559*
X2189252Y1930655*
X2189150Y1930796*
X2189048Y1931077*
G74*
X0Y0D02*
M02*
