*
*
G04 PADS VX.2.3 Build Number: 9191294 generated Gerber (RS-274-X) file*
G04 PC Version=2.1*
*
%IN "GETWAY_LORA_ZM_V1.0_201"*%
*
%MOIN*%
*
%FSLAX35Y35*%
*
*
*
*
G04 PC Standard Apertures*
*
*
G04 Thermal Relief Aperture macro.*
%AMTER*
1,1,$1,0,0*
1,0,$1-$2,0,0*
21,0,$3,$4,0,0,45*
21,0,$3,$4,0,0,135*
%
*
*
G04 Annular Aperture macro.*
%AMANN*
1,1,$1,0,0*
1,0,$2,0,0*
%
*
*
G04 Odd Aperture macro.*
%AMODD*
1,1,$1,0,0*
1,0,$1-0.005,0,0*
%
*
*
G04 PC Custom Aperture Macros*
*
*
*
*
*
*
G04 PC Aperture Table*
*
%ADD010C,0.001*%
%ADD014R,0.03149X0.0378*%
%ADD017R,0.0378X0.03149*%
%ADD021ANN,0.05906X0.03543*%
%ADD022R,0.038X0.038*%
%ADD028C,0.03*%
%ADD029C,0.02*%
%ADD031C,0.04*%
%ADD033C,0.01*%
%ADD034C,0.015*%
%ADD057R,0.02362X0.09055*%
%ADD058C,0.15748*%
%ADD059R,0.02559X0.09055*%
%ADD060R,0.07283X0.01063*%
%ADD061R,0.01063X0.07283*%
%ADD062R,0.04724X0.05906*%
*
*
*
*
G04 PC Circuitry*
G04 Layer Name GETWAY_LORA_ZM_V1.0_201 - circuitry*
%LPD*%
*
*
G04 PC Custom Flashes*
G04 Layer Name GETWAY_LORA_ZM_V1.0_201 - flashes*
%LPD*%
*
*
G04 PC Circuitry*
G04 Layer Name GETWAY_LORA_ZM_V1.0_201 - circuitry*
%LPD*%
*
G54D10*
G54D14*
G01X194312Y222626D03*
Y228925D03*
X179808Y173526D03*
Y167227D03*
X124079Y210867D03*
Y217166D03*
G54D17*
X132142Y224135D03*
X125843D03*
X153007Y240146D03*
X159305D03*
G54D21*
X170515Y135433D03*
X160515D03*
X150515D03*
X140515D03*
X130515D03*
X120515D03*
X110515D03*
X290631D03*
X280631D03*
X270631D03*
X260631D03*
X250631D03*
X240631D03*
X230631D03*
X210304Y252921D03*
Y242921D03*
Y232921D03*
Y222921D03*
G54D22*
X125783Y252282D03*
Y245982D03*
X160798Y252990D03*
Y259290D03*
X132094Y210867D03*
Y217167D03*
X134791Y245971D03*
Y252271D03*
X166790Y167041D03*
Y173341D03*
G54D28*
X240604Y119394D02*
X240631D01*
Y113246*
X120496Y156257D02*
Y146150D01*
X120515Y146131*
Y138705*
X184215Y264417D02*
X184215D01*
X201329*
X209323Y272411*
X209277Y281717D02*
X209323Y281671D01*
Y272411*
G54D29*
X153007Y240146D02*
Y245937D01*
X207532Y252921D02*
X185147D01*
X185147*
X240631Y113246D03*
X162225Y167041D03*
X179809Y177732D03*
X118576Y182148D03*
X160848D03*
X185119Y189074D03*
X140123Y200990D03*
X136727Y194987D03*
X132174Y203400D03*
X172678Y202476D03*
X191307Y206891D03*
X157729Y220952D03*
X172537Y220688D03*
X125676Y229193D03*
X187627Y222669D03*
X153007Y245937D03*
X185147Y252921D03*
X136727Y269238D03*
X184215Y264417D03*
X140098Y274389D03*
X163608Y278384D03*
X187230Y278858D03*
X209277Y281717D03*
X122286Y287023D03*
X132134Y286982D03*
X147773Y284653D03*
X155917Y286368D03*
X166785Y286906D03*
G54D31*
X103230Y103200D03*
X113230D03*
X123230D03*
X133230D03*
X143230D03*
X153230D03*
X163230D03*
X173230D03*
X183230D03*
X193230D03*
X203230D03*
X213230D03*
X223230D03*
X233230D03*
X243230D03*
X253230D03*
X263230D03*
X273230D03*
X283230D03*
X293230D03*
X133230Y113200D03*
X143230D03*
X153230D03*
X163230D03*
X173230D03*
X183230D03*
X193230D03*
X223230D03*
X253230D03*
X263230D03*
X273230D03*
X283230D03*
X293230D03*
X193230Y123200D03*
X293230D03*
X193230Y133200D03*
X113230Y143200D03*
X183230Y153200D03*
X113230Y163200D03*
Y173200D03*
X123230D03*
X133230D03*
X113230Y183200D03*
Y193200D03*
X123230D03*
X113230Y203200D03*
X123230D03*
X133230D03*
X163230D03*
X113230Y213200D03*
X163230D03*
X213230D03*
X113230Y223200D03*
Y233200D03*
X123230D03*
X133230D03*
X143230D03*
X203230D03*
X113230Y243200D03*
Y253200D03*
X143230D03*
X153230D03*
X113230Y263200D03*
X123230D03*
X133230D03*
X143230D03*
X153230D03*
X223230D03*
X113230Y273200D03*
X123230D03*
X133230D03*
X193230D03*
X223230D03*
X193230Y283200D03*
X203230D03*
G54D33*
X130515Y135433D02*
X130589D01*
Y160063*
X154961Y184435*
Y194987*
X142121Y133827D02*
X146148Y129800D01*
X153665*
X155414Y131549*
Y146922*
X158268Y149776*
X171708*
X175298Y153366*
Y175626*
X150515Y137705D02*
Y149397D01*
X153970Y152852*
X169977*
X173377Y156252*
Y175137*
X160515Y137705D02*
Y141747D01*
X163424Y144656*
X187053*
X190367Y147970*
Y198775*
X172787Y135433D02*
X187375D01*
X193495Y141553*
Y200378*
X162225Y167041D02*
X166790D01*
X179809Y176155D02*
Y177732D01*
X179808Y173526D02*
Y173841D01*
X179808D02*
X179809Y176155D01*
X118576Y182148D02*
Y238775D01*
X125783Y245982*
X160848Y182148D02*
Y187237D01*
X160867Y187256*
Y194987*
X179808Y187331D02*
X183376D01*
X185119Y189074*
X179808Y187331D02*
Y179540D01*
X179808D02*
X179809D01*
Y176155*
X136727Y194987D02*
X136727D01*
X140123Y200990D02*
X146989D01*
X136727Y194987D02*
X152993D01*
X170709D02*
Y180215D01*
X175298Y175626*
X168741Y194987D02*
Y179773D01*
X173377Y175137*
X166772Y194987D02*
Y183974D01*
X166790Y183957*
Y173341*
X180650Y200990D02*
Y200959D01*
X188342*
X188355Y200946*
X188369*
X190367Y198948*
Y198775*
X174646Y194987D02*
X177133D01*
X179808Y192312*
X179808D02*
Y187331D01*
X132174Y203400D02*
X132174D01*
X137638Y208864*
X146989*
X132094Y210867D02*
Y210833D01*
X146989*
X124079Y210867D02*
X127924D01*
X127924*
X132094*
X146989Y206896D02*
X153636D01*
X155665Y208925*
Y218320*
X172678Y202476D02*
Y194987D01*
X180650Y210833D02*
X197710D01*
X202373Y206170*
Y138855*
X213521Y127707*
X214966*
X214968Y127705*
X262903*
X269025Y133827*
X180650Y208864D02*
X195583D01*
X200773Y203674*
Y136283*
X210951Y126105*
X281303*
X289025Y133827*
X180650Y206896D02*
X187297D01*
X187302Y206891*
X191307*
X180650Y202959D02*
X183761D01*
X187035*
X190914*
X193495Y200378*
X124079Y217369D02*
Y219696D01*
X125843Y221460*
Y224135*
X132094Y217167D02*
Y224135D01*
X132142*
X157729Y220952D02*
X157729D01*
X172537Y220688D02*
Y220675D01*
X180650*
Y218707D02*
X197444D01*
X201658Y222921*
X208032*
X180650Y216738D02*
X200709D01*
X211368Y206080*
Y152480*
X220426Y143422*
X272642*
X279025Y137039*
X180650Y214770D02*
X200415D01*
X209515Y205670*
Y151704*
X219397Y141822*
X244242*
X249025Y137039*
X180650Y212801D02*
X199372D01*
X205358Y206815*
Y139804*
X215053Y130109*
X255307*
X259025Y133827*
X125676Y229193D02*
Y224135D01*
X125843*
X146989Y222644D02*
X149990D01*
X151731Y222254*
X155665Y218320*
X146989Y222644D02*
Y228239D01*
X148139Y229389*
X152993*
Y228648*
X154961D02*
Y223720D01*
X157729Y220952*
X160867Y228648D02*
Y233888D01*
X163947Y236968*
Y249841*
X170709Y228648D02*
Y262338D01*
X187230Y278858*
X174646Y228648D02*
Y239865D01*
X177702Y242921*
X208032*
X186714Y222771D02*
X187525D01*
X187627Y222669*
X134791Y245971D02*
Y243677D01*
X134795*
X138326Y240146*
X153007*
X125783Y252282D02*
X130282D01*
X130293Y252271*
X134791*
X160798Y252990D02*
X163947Y249841D01*
X136727Y269238D02*
X167854D01*
X173057Y274441*
Y295280*
X140098Y274389D02*
X166529D01*
X169907Y277767*
Y295280*
X163608Y278384D02*
Y295280D01*
X155753Y286562D02*
X155917Y286398D01*
Y286368*
X155753Y286562D02*
Y287356D01*
X157309Y288912*
Y295280*
X166785Y286906D02*
X166785D01*
X132112Y295280D02*
Y289815D01*
X132134Y289793*
Y286982*
X135261Y295280D02*
Y291252D01*
X138411*
Y295280*
Y290055*
X143898Y284568*
X147773*
Y284653*
X141561Y295280D02*
X144710D01*
Y288420*
X153895*
X155753Y286562*
X154159Y295280D02*
X154374Y295065D01*
X156986*
X157201Y295280*
X157309*
X166757D02*
Y288293D01*
X166785Y288265*
Y286906*
X212576Y232921D02*
G75*
G03X212576I-2272J0D01*
G01X126041Y115752D02*
G03X126041I-9874J0D01*
G01X112787Y135433D02*
G03X112787I-2272J0D01*
G01X305039Y101600D02*
Y144058D01*
G03X304539Y144558I-500J-0*
G01X276249*
G03X275749Y144058I-0J-500*
X275895Y143704I500J-0*
G01X279179Y140421*
G03X279633Y140284I354J353*
G01X285172Y137409D02*
G03X279633Y140284I-4541J-1976D01*
G01X285173Y137409D02*
G03X286089I458J200D01*
G01X289633Y130582D02*
G03X286089Y137409I998J4851D01*
G01X289633Y130582D02*
G03X289179Y130446I-100J-490D01*
G01X283071Y124337*
X281303Y123605D02*
G03X283071Y124337I-0J2500D01*
G01X281303Y123605D02*
X245348D01*
G03X244872Y122953I0J-500*
G01X244966Y122346D02*
G03X244872Y122953I-2000J0D01*
G01X244966Y122346D02*
Y116441D01*
X244298Y114949D02*
G03X244966Y116441I-1332J1492D01*
G01X244298Y114949D02*
G03X244131Y114576I333J-373D01*
G01Y113246*
X237131D02*
G03X244131I3500J0D01*
G01X237131D02*
Y114529D01*
G03X236953Y114911I-500J-0*
G01X236347Y115798D02*
G03X236953Y114911I1894J643D01*
G01X236347Y115798D02*
G03X235874Y116138I-473J-160D01*
G01X234310*
G03X233836Y115798I-0J-500*
G01X231942Y114441D02*
G03X233836Y115798I0J2000D01*
G01X231942Y114441D02*
X227218D01*
X225218Y116441D02*
G03X227218Y114441I2000J-0D01*
G01X225218Y116441D02*
Y122346D01*
X225312Y122953D02*
G03X225218Y122346I1906J-607D01*
G01X225312Y122953D02*
G03X224836Y123605I-476J152D01*
G01X218761*
G03X218408Y122751I-0J-500*
G01X221317Y115752D02*
G03X218408Y122751I-9874J-0D01*
G01X207667Y124876D02*
G03X221317Y115752I3776J-9124D01*
G01X207667Y124876D02*
G03X207976Y125338I-191J462D01*
X207829Y125691I-500J-0*
G01X199005Y134515*
X198273Y136283D02*
G03X199005Y134515I2500J0D01*
G01X198273Y136283D02*
Y202431D01*
G03X198127Y202785I-500J0*
G01X194926Y205985*
G03X194106Y205812I-353J-353*
G01X193393Y204735D02*
G03X194106Y205812I-2086J2156D01*
G01X193393Y204735D02*
G03X193387Y204022I347J-360D01*
G01X195263Y202146*
X195995Y200378D02*
G03X195263Y202146I-2500J0D01*
G01X195995Y200378D02*
Y141553D01*
X195263Y139785D02*
G03X195995Y141553I-1768J1768D01*
G01X195263Y139785D02*
X189143Y133665D01*
X187375Y132933D02*
G03X189143Y133665I0J2500D01*
G01X187375Y132933D02*
X175068D01*
G03X174651Y132708I0J-500*
G01X165973Y133457D02*
G03X174651Y132708I4542J1976D01*
G01X165973Y133457D02*
G03X165057I-458J-199D01*
G01X158430Y130940D02*
G03X165057Y133457I2085J4493D01*
G01X158430Y130940D02*
G03X157752Y130664I-210J-453D01*
G01X157182Y129781D02*
G03X157752Y130664I-1768J1768D01*
G01X157182Y129781D02*
X155433Y128032D01*
X153665Y127300D02*
G03X155433Y128032I0J2500D01*
G01X153665Y127300D02*
X146148D01*
X144380Y128032D02*
G03X146148Y127300I1768J1768D01*
G01X144380Y128032D02*
X141967Y130446D01*
G03X141513Y130582I-354J-354*
G01X135973Y133457D02*
G03X141513Y130582I4542J1976D01*
G01X135973Y133457D02*
G03X135057I-458J-199D01*
G01X125973D02*
G03X135057I4542J1976D01*
G01X125973D02*
G03X125057I-458J-199D01*
G01X115562Y135433D02*
G03X125057Y133457I4953J0D01*
G01X116882Y138799D02*
G03X115562Y135433I3633J-3366D01*
G01X116882Y138799D02*
G03X117015Y139139I-367J340D01*
G01Y145761*
G03X117013Y145810I-500J0*
G01X116996Y146150D02*
G03X117013Y145810I3500J-0D01*
G01X116996Y146150D02*
Y151416D01*
G03X116824Y151793I-500J-0*
G01X116240Y152662D02*
G03X116824Y151793I1894J642D01*
G01X116240Y152662D02*
G03X115766Y153001I-474J-161D01*
G01X114202*
G03X113729Y152662I0J-500*
G01X111835Y151304D02*
G03X113729Y152662I-0J2000D01*
G01X111835Y151304D02*
X107110D01*
X105110Y153304D02*
G03X107110Y151304I2000J0D01*
G01X105110Y153304D02*
Y159210D01*
X107110Y161210D02*
G03X105110Y159210I0J-2000D01*
G01X107110Y161210D02*
X111835D01*
X113729Y159853D02*
G03X111835Y161210I-1894J-643D01*
G01X113729Y159853D02*
G03X114202Y159513I473J160D01*
G01X115766*
G03X116240Y159853I0J500*
G01X118134Y161210D02*
G03X116240Y159853I-0J-2000D01*
G01X118134Y161210D02*
X122858D01*
X124858Y159210D02*
G03X122858Y161210I-2000J-0D01*
G01X124858Y159210D02*
Y153304D01*
X124169Y151793D02*
G03X124858Y153304I-1311J1511D01*
G01X124169Y151793D02*
G03X123996Y151416I327J-377D01*
G01Y146520*
G03X123998Y146471I500J-0*
G01X124015Y146131D02*
G03X123998Y146471I-3500J-0D01*
G01X124015Y146131D02*
Y139139D01*
G03X124148Y138799I500J-0*
G01X125057Y137409D02*
G03X124148Y138799I-4542J-1976D01*
G01X125057Y137409D02*
G03X125973I458J200D01*
G01X127857Y139612D02*
G03X125973Y137409I2658J-4179D01*
G01X127857Y139612D02*
G03X128089Y140034I-268J422D01*
G01Y160063*
X128821Y161831D02*
G03X128089Y160063I1768J-1768D01*
G01X128821Y161831D02*
X152315Y185325D01*
G03X152461Y185678I-354J353*
G01Y188895*
G03X152061Y189385I-500J0*
G01X150461Y191345D02*
G03X152061Y189385I2000J-0D01*
G01X150461Y191345D02*
Y191986D01*
X150461D02*
G03X149961Y192486I-500J0D01*
G01X149961D02*
X138530D01*
X138530D02*
G03X138273Y192415I0J-500D01*
G01X137737Y197812D02*
G03X138273Y192415I-1010J-2825D01*
G01X137737Y197812D02*
G03X138222Y198669I168J470D01*
G01X137123Y200990D02*
G03X138222Y198669I3000J0D01*
G01X140744Y203925D02*
G03X137123Y200990I-621J-2935D01*
G01X140744Y203925D02*
G03X141347Y204415I103J490D01*
G01Y205459*
X141380Y205821D02*
G03X141347Y205459I1967J-362D01*
G01X141380Y205821D02*
G03Y206002I-491J91D01*
G01X141347Y206364D02*
G03X141380Y206002I2000J0D01*
G01X141347Y206364D02*
Y207427D01*
X141374Y207752D02*
G03X141347Y207427I1973J-325D01*
G01X141374Y207752D02*
G03X141380Y207833I-494J81D01*
G01X141380*
G03X140880Y208333I-500J-0*
G01X136222*
G03X135777Y208060I0J-500*
G01X133994Y206967D02*
G03X135777Y208060I0J2000D01*
G01X133994Y206967D02*
X130194D01*
X128398Y208087D02*
G03X130194Y206967I1796J880D01*
G01X128398Y208087D02*
G03X127949Y208367I-449J-220D01*
G01X127924*
X127899D02*
G03X127924I25J2500D01*
G01X127899D02*
G03X127445Y208089I-6J-500D01*
G01X125653Y206977D02*
G03X127445Y208089I0J2000D01*
G01X125653Y206977D02*
X122504D01*
X121762Y207120D02*
G03X122504Y206977I742J1857D01*
G01X121762Y207120D02*
G03X121076Y206656I-186J-464D01*
G01Y183951*
G03X121147Y183693I500J-0*
G01X121576Y182148D02*
G03X121147Y183693I-3000J0D01*
G01X115576Y182148D02*
G03X121576I3000J0D01*
G01X116005Y183693D02*
G03X115576Y182148I2571J-1545D01*
G01X116005Y183693D02*
G03X116076Y183951I-429J258D01*
G01Y238775*
X116808Y240542D02*
G03X116076Y238775I1768J-1767D01*
G01X116808Y240542D02*
X121737Y245471D01*
G03X121883Y245825I-354J354*
G01Y247882*
X122151Y248882D02*
G03X121883Y247882I1732J-1000D01*
G01X122151Y248882D02*
G03Y249382I-433J250D01*
G01X121883Y250382D02*
G03X122151Y249382I2000J0D01*
G01X121883Y250382D02*
Y254182D01*
X123883Y256182D02*
G03X121883Y254182I0J-2000D01*
G01X123883Y256182D02*
X127683D01*
X129479Y255062D02*
G03X127683Y256182I-1796J-880D01*
G01X129479Y255062D02*
G03X129928Y254782I449J220D01*
G01X130282*
X130500Y254773D02*
G03X130282Y254782I-218J-2491D01*
G01X130500Y254773D02*
G03X130543Y254771I43J498D01*
G01X130646*
G03X131095Y255051I0J500*
G01X132891Y256171D02*
G03X131095Y255051I0J-2000D01*
G01X132891Y256171D02*
X136691D01*
X138691Y254171D02*
G03X136691Y256171I-2000J-0D01*
G01X138691Y254171D02*
Y250371D01*
X138423Y249371D02*
G03X138691Y250371I-1732J1000D01*
G01X138423Y249371D02*
G03Y248871I433J-250D01*
G01X138691Y247871D02*
G03X138423Y248871I-2000J-0D01*
G01X138691Y247871D02*
Y244071D01*
X138651Y243673D02*
G03X138691Y244071I-1960J398D01*
G01X138651Y243673D02*
G03X138641Y243573I490J-100D01*
G01X138641*
G03X138788Y243219I500J0*
G01X139215Y242792*
G03X139569Y242646I354J354*
G01X149063*
G03X149473Y242861I-0J500*
G01X149829Y243251D02*
G03X149473Y242861I1287J-1531D01*
G01X149829Y243251D02*
G03X150007Y243633I-322J382D01*
G01Y245937*
X156007D02*
G03X150007I-3000J0D01*
G01X156007D02*
Y244049D01*
G03X156688Y243584I500J0*
G01X157415Y243720D02*
G03X156688Y243584I0J-2000D01*
G01X157415Y243720D02*
X160947D01*
G03X161447Y244220I-0J500*
G01Y248590*
G03X160947Y249090I-500J0*
G01X158898*
X156898Y251090D02*
G03X158898Y249090I2000J0D01*
G01X156898Y251090D02*
Y254890D01*
X157166Y255890D02*
G03X156898Y254890I1732J-1000D01*
G01X157166Y255890D02*
G03Y256390I-433J250D01*
G01X156898Y257390D02*
G03X157166Y256390I2000J0D01*
G01X156898Y257390D02*
Y261190D01*
X158898Y263190D02*
G03X156898Y261190I-0J-2000D01*
G01X158898Y263190D02*
X162698D01*
X164698Y261190D02*
G03X162698Y263190I-2000J0D01*
G01X164698Y261190D02*
Y257390D01*
X164430Y256390D02*
G03X164698Y257390I-1732J1000D01*
G01X164430Y256390D02*
G03Y255890I433J-250D01*
G01X164698Y254890D02*
G03X164430Y255890I-2000J0D01*
G01X164698Y254890D02*
Y252833D01*
G03X164844Y252480I500J0*
G01X165715Y251609*
X166447Y249841D02*
G03X165715Y251609I-2500J0D01*
G01X166447Y249841D02*
Y236968D01*
X165715Y235200D02*
G03X166447Y236968I-1768J1768D01*
G01X165715Y235200D02*
X165646Y235132D01*
G03X165500Y234778I354J-354*
X166048Y234280I500J0*
G01X166241Y234290D02*
G03X166048Y234280I-0J-2000D01*
G01X166241Y234290D02*
X167304D01*
X167628Y234263D02*
G03X167304Y234290I-324J-1973D01*
G01X167628Y234263D02*
G03X168209Y234757I81J494D01*
G01Y262338*
X168942Y264105D02*
G03X168209Y262338I1767J-1767D01*
G01X168942Y264105D02*
X184187Y279351D01*
G03X184319Y279584I-353J354*
G01X190230Y278858D02*
G03X184319Y279584I-3000J0D01*
G01X187956Y275947D02*
G03X190230Y278858I-726J2911D01*
G01X187956Y275947D02*
G03X187723Y275816I120J-485D01*
G01X173356Y261449*
G03X173209Y261095I353J-354*
G01Y243171*
G03X174063Y242818I500J0*
G01X175934Y244689*
X177702Y245421D02*
G03X175934Y244689I0J-2500D01*
G01X177702Y245421D02*
X205751D01*
G03X206168Y245646I-0J500*
G01X208328Y247463D02*
G03X206168Y245646I1976J-4542D01*
G01X208328Y247463D02*
G03Y248379I-199J458D01*
G01X206506Y249742D02*
G03X208328Y248379I3798J3179D01*
G01X206506Y249742D02*
G03X206123Y249921I-383J-321D01*
G01X185157*
Y255921D02*
G03Y249921I-10J-3000D01*
G01Y255921D02*
X206123D01*
G03X206506Y256100I-0J500*
G01X212280Y248379D02*
G03X206506Y256100I-1976J4542D01*
G01X212280Y248379D02*
G03Y247463I199J-458D01*
G01X206168Y240196D02*
G03X212280Y247463I4136J2725D01*
G01X206168Y240196D02*
G03X205751Y240421I-417J-275D01*
G01X178945*
G03X178591Y240275I-0J-500*
G01X177293Y238976*
G03X177147Y238623I354J-353*
G01X177147D02*
Y232685D01*
X177147D02*
G03X177153Y232606I500J0D01*
G01X177178Y232290D02*
G03X177153Y232606I-2000J-0D01*
G01X177178Y232290D02*
Y225676D01*
G03X177678Y225176I500J-0*
G01X179479*
G03X179659Y225209I-0J500*
G01X180650Y225394D02*
G03X179659Y225209I0J-2750D01*
G01X180650Y225394D02*
X186267D01*
G03X186461Y225433I0J500*
G01X188828Y225418D02*
G03X186461Y225433I-1201J-2749D01*
G01X188828Y225418D02*
G03X189028Y225376I200J458D01*
G01X190522*
G03X190965Y226108I0J500*
G01X190737Y227035D02*
G03X190965Y226108I2000J0D01*
G01X190737Y227035D02*
Y230815D01*
X192737Y232815D02*
G03X190737Y230815I0J-2000D01*
G01X192737Y232815D02*
X195887D01*
X197887Y230815D02*
G03X195887Y232815I-2000J0D01*
G01X197887Y230815D02*
Y227035D01*
X197615Y226028D02*
G03X197887Y227035I-1728J1007D01*
G01X197615Y226028D02*
G03Y225524I432J-252D01*
G01X197887Y224516D02*
G03X197615Y225524I-2000J0D01*
G01X197887Y224516D02*
Y223893D01*
G03X198741Y223539I500J-0*
G01X199890Y224689*
X201658Y225421D02*
G03X199890Y224689I0J-2500D01*
G01X201658Y225421D02*
X205751D01*
G03X206168Y225646I-0J500*
G01Y220196D02*
G03Y225646I4136J2725D01*
G01Y220196D02*
G03X205751Y220421I-417J-275D01*
G01X202901*
G03X202547Y220275I-0J-500*
G01X201923Y219650*
G03X201776Y219297I353J-353*
X202015Y218870I500J-0*
G01X202477Y218506D02*
G03X202015Y218870I-1768J-1768D01*
G01X202477Y218506D02*
X213136Y207848D01*
X213868Y206080D02*
G03X213136Y207848I-2500J-0D01*
G01X213868Y206080D02*
Y153723D01*
G03X214014Y153369I500J-0*
G01X221315Y146068*
G03X221669Y145922I354J354*
G01X228351*
G03X228851Y146422I0J500*
G01Y283413*
G03X228351Y283913I-500J-0*
G01X218731*
X214481Y288162D02*
G03X218731Y283913I4250J0D01*
G01X214481Y288162D02*
Y289185D01*
G03X213591Y289498I-500J0*
G01X212033Y288752D02*
G03X213591Y289498I0J2000D01*
G01X212033Y288752D02*
X209671D01*
X209356Y288777D02*
G03X209671Y288752I315J1975D01*
G01X209356Y288777D02*
G03X209198I-79J-494D01*
G01X208883Y288752D02*
G03X209198Y288777I0J2000D01*
G01X208883Y288752D02*
X206521D01*
X206246Y288771D02*
G03X206521Y288752I275J1981D01*
G01X206246Y288771D02*
G03X206108I-69J-495D01*
G01X205832Y288752D02*
G03X206108Y288771I0J2000D01*
G01X205832Y288752D02*
X203273D01*
X203037Y288766D02*
G03X203273Y288752I236J1986D01*
G01X203037Y288766D02*
G03X202919I-59J-497D01*
G01X202683Y288752D02*
G03X202919Y288766I-0J2000D01*
G01X202683Y288752D02*
X200124D01*
X199887Y288766D02*
G03X200124Y288752I237J1986D01*
G01X199887Y288766D02*
G03X199769I-59J-497D01*
G01X199533Y288752D02*
G03X199769Y288766I0J2000D01*
G01X199533Y288752D02*
X196974D01*
X196738Y288766D02*
G03X196974Y288752I236J1986D01*
G01X196738Y288766D02*
G03X196620I-59J-497D01*
G01X196383Y288752D02*
G03X196620Y288766I0J2000D01*
G01X196383Y288752D02*
X193824D01*
X193588Y288766D02*
G03X193824Y288752I236J1986D01*
G01X193588Y288766D02*
G03X193470I-59J-497D01*
G01X193234Y288752D02*
G03X193470Y288766I-0J2000D01*
G01X193234Y288752D02*
X190675D01*
X190439Y288766D02*
G03X190675Y288752I236J1986D01*
G01X190439Y288766D02*
G03X190320I-59J-497D01*
G01X190084Y288752D02*
G03X190320Y288766I0J2000D01*
G01X190084Y288752D02*
X187525D01*
X185525Y290752D02*
G03X187525Y288752I2000J-0D01*
G01X185525Y290752D02*
Y299161D01*
G03X185025Y299661I-500J-0*
G01X183913*
G03X183413Y299161I0J-500*
G01Y284225*
X176420Y281437D02*
G03X183413Y284225I2941J2788D01*
G01X176420Y281437D02*
G03X175557Y281093I-363J-344D01*
G01Y274441*
X174824Y272673D02*
G03X175557Y274441I-1767J1768D01*
G01X174824Y272673D02*
X169622Y267471D01*
X167854Y266738D02*
G03X169622Y267471I0J2500D01*
G01X167854Y266738D02*
X138530D01*
G03X138273Y266667I0J-500*
G01X136977Y272228D02*
G03X138273Y266667I-250J-2990D01*
G01X136977Y272228D02*
G03X137458Y272964I41J498D01*
G01X137098Y274389D02*
G03X137458Y272964I3000J-0D01*
G01X141643Y276960D02*
G03X137098Y274389I-1545J-2571D01*
G01X141643Y276960D02*
G03X141901Y276889I258J429D01*
G01X160252*
G03X160732Y277531I0J500*
G01X160608Y278384D02*
G03X160732Y277531I3000J0D01*
G01X161036Y279929D02*
G03X160608Y278384I2572J-1545D01*
G01X161036Y279929D02*
G03X161108Y280187I-428J258D01*
G01Y288252*
G03X160608Y288752I-500J-0*
G01X159179*
X158943Y288766D02*
G03X159179Y288752I236J1986D01*
G01X158943Y288766D02*
G03X158824I-60J-497D01*
G01X158588Y288752D02*
G03X158824Y288766I0J2000D01*
G01X158588Y288752D02*
X156029D01*
X155793Y288766D02*
G03X156029Y288752I236J1986D01*
G01X155793Y288766D02*
G03X155675I-59J-497D01*
G01X155439Y288752D02*
G03X155675Y288766I-0J2000D01*
G01X155439Y288752D02*
X152880D01*
X152643Y288766D02*
G03X152880Y288752I237J1986D01*
G01X152643Y288766D02*
G03X152525I-59J-497D01*
G01X152289Y288752D02*
G03X152525Y288766I-0J2000D01*
G01X152289Y288752D02*
X149730D01*
X149494Y288766D02*
G03X149730Y288752I236J1986D01*
G01X149494Y288766D02*
G03X149376I-59J-497D01*
G01X149139Y288752D02*
G03X149376Y288766I0J2000D01*
G01X149139Y288752D02*
X146580D01*
X146344Y288766D02*
G03X146580Y288752I236J1986D01*
G01X146344Y288766D02*
G03X146226I-59J-497D01*
G01X145990Y288752D02*
G03X146226Y288766I-0J2000D01*
G01X145990Y288752D02*
X144457D01*
G03X143957Y288252I-0J-500*
X144103Y287898I500J-0*
G01X144787Y287214*
G03X145141Y287068I354J354*
G01X145836*
G03X146113Y287152I0J500*
G01X146357Y282009D02*
G03X146113Y287152I1416J2644D01*
G01X146357Y282009D02*
G03X146121Y282068I-236J-441D01*
G01X143898*
X142130Y282800D02*
G03X143898Y282068I1768J1768D01*
G01X142130Y282800D02*
X136643Y288287D01*
X136413Y288552D02*
G03X136643Y288287I1998J1503D01*
G01X136413Y288552D02*
G03X136013Y288752I-400J-300D01*
G01X133982*
X133746Y288766D02*
G03X133982Y288752I236J1986D01*
G01X133746Y288766D02*
G03X133628I-59J-497D01*
G01X133391Y288752D02*
G03X133628Y288766I0J2000D01*
G01X133391Y288752D02*
X130832D01*
X130596Y288766D02*
G03X130832Y288752I236J1986D01*
G01X130596Y288766D02*
G03X130478I-59J-497D01*
G01X130242Y288752D02*
G03X130478Y288766I-0J2000D01*
G01X130242Y288752D02*
X127683D01*
X127446Y288766D02*
G03X127683Y288752I237J1986D01*
G01X127446Y288766D02*
G03X127328I-59J-497D01*
G01X127092Y288752D02*
G03X127328Y288766I0J2000D01*
G01X127092Y288752D02*
X124533D01*
X124297Y288766D02*
G03X124533Y288752I236J1986D01*
G01X124297Y288766D02*
G03X124179I-59J-497D01*
G01X123943Y288752D02*
G03X124179Y288766I-0J2000D01*
G01X123943Y288752D02*
X121383D01*
X121147Y288766D02*
G03X121383Y288752I236J1986D01*
G01X121147Y288766D02*
G03X121029I-59J-497D01*
G01X120793Y288752D02*
G03X121029Y288766I-0J2000D01*
G01X120793Y288752D02*
X118234D01*
X116447Y289854D02*
G03X118234Y288752I1787J898D01*
G01X116447Y289854D02*
G03X115500Y289629I-447J-225D01*
G01Y288162*
X111250Y283913D02*
G03X115500Y288162I0J4249D01*
G01X111250Y283913D02*
X101630D01*
G03X101130Y283413I-0J-500*
G01Y101600*
G03X101630Y101100I500J0*
G01X304539*
G03X305039Y101600I-0J500*
G01X236359Y139322D02*
X219397D01*
X217629Y140054D02*
G03X219397Y139322I1768J1768D01*
G01X217629Y140054D02*
X208712Y148972D01*
G03X207858Y148618I-354J-354*
G01Y141047*
G03X208004Y140693I500J-0*
G01X215942Y132755*
G03X216296Y132609I354J354*
G01X229121*
G03X229393Y133528I-0J500*
G01X231869D02*
G03X229393I-1238J1905D01*
G01X231869D02*
G03X232141Y132609I272J-419D01*
G01X235698*
G03X236198Y133109I0J500*
X236151Y133322I-500J0*
G01X235678Y135433D02*
G03X236151Y133322I4953J0D01*
G01X236751Y138511D02*
G03X235678Y135433I3880J-3078D01*
G01X236751Y138511D02*
G03X236359Y139322I-392J311D01*
G01X187867Y186391D02*
G03X187046Y186775I-500J0D01*
G01X185845Y186163D02*
G03X187046Y186775I-726J2911D01*
G01X185845Y186163D02*
G03X185612Y186031I121J-485D01*
G01X185144Y185563*
X183376Y184831D02*
G03X185144Y185563I-0J2500D01*
G01X183376Y184831D02*
X182809D01*
G03X182309Y184331I-0J-500*
G01Y179582*
G03Y179575I500J-0*
G01Y179540D02*
G03Y179575I-2500J-0D01*
G01Y179540D02*
Y179535D01*
G03X182380Y179278I500J0*
G01X182757Y177174D02*
G03X182380Y179278I-2948J558D01*
G01X182757Y177174D02*
G03X182748Y177081I491J-93D01*
G01X182748*
G03X182875Y176748I500J-0*
G01X183383Y175416D02*
G03X182875Y176748I-2000J-0D01*
G01X183383Y175416D02*
Y171636D01*
X183111Y170628D02*
G03X183383Y171636I-1728J1008D01*
G01X183111Y170628D02*
G03Y170124I432J-252D01*
G01X183383Y169117D02*
G03X183111Y170124I-2000J-0D01*
G01X183383Y169117D02*
Y165337D01*
X181383Y163337D02*
G03X183383Y165337I0J2000D01*
G01X181383Y163337D02*
X178298D01*
G03X177798Y162837I0J-500*
G01Y153366*
X177066Y151598D02*
G03X177798Y153366I-1768J1768D01*
G01X177066Y151598D02*
X173477Y148010D01*
G03X173331Y147656I354J-354*
X173831Y147156I500J0*
G01X185810*
G03X186164Y147302I0J500*
G01X187721Y148859*
G03X187867Y149213I-354J354*
G01Y186391*
X150243Y236482D02*
G03X150018Y236900I-500J0D01*
G01X149473Y237431D02*
G03X150018Y236900I1643J1140D01*
G01X149473Y237431D02*
G03X149063Y237646I-410J-285D01*
G01X138326*
X136558Y238378D02*
G03X138326Y237646I1768J1768D01*
G01X136558Y238378D02*
X133109Y241827D01*
G03X133095Y241841I-353J-354*
G01X133001Y241932D02*
G03X133095Y241841I1790J1745D01*
G01X133001Y241932D02*
G03X132693Y242081I-358J-349D01*
G01X130891Y244071D02*
G03X132693Y242081I2000J-0D01*
G01X130891Y244071D02*
Y247871D01*
X131159Y248871D02*
G03X130891Y247871I1732J-1000D01*
G01X131159Y248871D02*
G03X131226Y249121I-433J250D01*
X131159Y249371I-500J-0*
G01X131095Y249491D02*
G03X131159Y249371I1796J880D01*
G01X131095Y249491D02*
G03X130646Y249771I-449J-220D01*
G01X130293*
X130075Y249780D02*
G03X130293Y249771I218J2491D01*
G01X130075Y249780D02*
G03X130032Y249782I-43J-498D01*
G01X129928*
G03X129479Y249502I0J-500*
G01X129416Y249382D02*
G03X129479Y249502I-1733J1000D01*
G01X129416Y249382D02*
G03X129349Y249132I433J-250D01*
X129416Y248882I500J0*
G01X129683Y247882D02*
G03X129416Y248882I-2000J0D01*
G01X129683Y247882D02*
Y244082D01*
X127683Y242082D02*
G03X129683Y244082I0J2000D01*
G01X127683Y242082D02*
X125626D01*
G03X125273Y241936I0J-500*
G01X121222Y237886*
G03X121076Y237532I354J-354*
G01Y226485*
G03X122051Y226330I500J0*
G01X123953Y227710D02*
G03X122051Y226330I-0J-2000D01*
G01X123953Y227710D02*
X127733D01*
X128740Y227438D02*
G03X127733Y227710I-1007J-1728D01*
G01X128740Y227438D02*
G03X129244I252J432D01*
G01X130252Y227710D02*
G03X129244Y227438I-0J-2000D01*
G01X130252Y227710D02*
X134032D01*
X135516Y227050D02*
G03X134032Y227710I-1484J-1340D01*
G01X135516Y227050D02*
G03X135887Y226885I371J335D01*
G01X138710*
X140654Y226080D02*
G03X138710Y226885I-1944J-1945D01*
G01X140654Y226080D02*
X141194Y225540D01*
G03X141547Y225394I353J354*
G01X143989*
G03X144489Y225894I-0J500*
G01Y228239*
X145221Y230007D02*
G03X144489Y228239I1768J-1768D01*
G01X145221Y230007D02*
X146371Y231157D01*
X148139Y231889D02*
G03X146371Y231157I0J-2500D01*
G01X148139Y231889D02*
X149743D01*
G03X150243Y232389I-0J500*
G01Y236482*
X175009Y222113D02*
G03X175042Y221750I2000J-0D01*
G01X175009Y222113D02*
Y222506D01*
G03X174509Y223006I-500J0*
G01X174115*
X173753Y223039D02*
G03X174115Y223006I362J1967D01*
G01X173753Y223039D02*
G03X173572I-91J-491D01*
G01X173209Y223006D02*
G03X173572Y223039I0J2000D01*
G01X173209Y223006D02*
X172146D01*
X171784Y223039D02*
G03X172146Y223006I362J1967D01*
G01X171784Y223039D02*
G03X171603I-90J-491D01*
G01X171241Y223006D02*
G03X171603Y223039I-0J2000D01*
G01X171241Y223006D02*
X170178D01*
X169816Y223039D02*
G03X170178Y223006I362J1967D01*
G01X169816Y223039D02*
G03X169635I-91J-491D01*
G01X169272Y223006D02*
G03X169635Y223039I0J2000D01*
G01X169272Y223006D02*
X168209D01*
X167847Y223039D02*
G03X168209Y223006I362J1967D01*
G01X167847Y223039D02*
G03X167666I-90J-491D01*
G01X167304Y223006D02*
G03X167666Y223039I-0J2000D01*
G01X167304Y223006D02*
X166241D01*
X165879Y223039D02*
G03X166241Y223006I362J1967D01*
G01X165879Y223039D02*
G03X165698I-91J-491D01*
G01X165335Y223006D02*
G03X165698Y223039I0J2000D01*
G01X165335Y223006D02*
X164272D01*
X163910Y223039D02*
G03X164272Y223006I362J1967D01*
G01X163910Y223039D02*
G03X163729I-90J-491D01*
G01X163367Y223006D02*
G03X163729Y223039I-0J2000D01*
G01X163367Y223006D02*
X162304D01*
X161942Y223039D02*
G03X162304Y223006I362J1967D01*
G01X161942Y223039D02*
G03X161761I-91J-491D01*
G01X161398Y223006D02*
G03X161761Y223039I0J2000D01*
G01X161398Y223006D02*
X160335D01*
X159973Y223039D02*
G03X160335Y223006I362J1967D01*
G01X159973Y223039D02*
G03X159792I-90J-491D01*
G01X159430Y223006D02*
G03X159792Y223039I-0J2000D01*
G01X159430Y223006D02*
X158367D01*
X158005Y223039D02*
G03X158367Y223006I362J1967D01*
G01X158005Y223039D02*
G03X157824I-91J-491D01*
G01X157461Y223006D02*
G03X157824Y223039I0J2000D01*
G01X157461Y223006D02*
X156398D01*
X156036Y223039D02*
G03X156398Y223006I362J1967D01*
G01X156036Y223039D02*
G03X155855I-90J-491D01*
G01X155668Y223014D02*
G03X155855Y223039I-175J1992D01*
G01X155668Y223014D02*
G03X155212Y222516I44J-498D01*
X155358Y222162I500J-0*
G01X157433Y220088*
X158165Y218320D02*
G03X157433Y220088I-2500J0D01*
G01X158165Y218320D02*
Y208925D01*
X157433Y207157D02*
G03X158165Y208925I-1768J1768D01*
G01X157433Y207157D02*
X155404Y205128D01*
X153636Y204396D02*
G03X155404Y205128I-0J2500D01*
G01X153636Y204396D02*
X153098D01*
G03X152598Y203896I-0J-500*
G01X152598*
G03X152604Y203815I500J-0*
G01X152631Y203490D02*
G03X152604Y203815I-2000J0D01*
G01X152631Y203490D02*
Y202427D01*
X152598Y202065D02*
G03X152631Y202427I-1967J362D01*
G01X152598Y202065D02*
G03Y201884I491J-90D01*
G01X152631Y201522D02*
G03X152598Y201884I-2000J-0D01*
G01X152631Y201522D02*
Y201128D01*
G03X153131Y200628I500J0*
G01X153524*
X153887Y200595D02*
G03X153524Y200628I-363J-1967D01*
G01X153887Y200595D02*
G03X154068I90J492D01*
G01X154430Y200628D02*
G03X154068Y200595I-0J-2000D01*
G01X154430Y200628D02*
X155493D01*
X155855Y200595D02*
G03X155493Y200628I-362J-1967D01*
G01X155855Y200595D02*
G03X156036I91J492D01*
G01X156398Y200628D02*
G03X156036Y200595I0J-2000D01*
G01X156398Y200628D02*
X157461D01*
X157824Y200595D02*
G03X157461Y200628I-363J-1967D01*
G01X157824Y200595D02*
G03X158005I90J492D01*
G01X158367Y200628D02*
G03X158005Y200595I-0J-2000D01*
G01X158367Y200628D02*
X159430D01*
X159792Y200595D02*
G03X159430Y200628I-362J-1967D01*
G01X159792Y200595D02*
G03X159973I91J492D01*
G01X160335Y200628D02*
G03X159973Y200595I0J-2000D01*
G01X160335Y200628D02*
X161398D01*
X161761Y200595D02*
G03X161398Y200628I-363J-1967D01*
G01X161761Y200595D02*
G03X161942I90J492D01*
G01X162304Y200628D02*
G03X161942Y200595I-0J-2000D01*
G01X162304Y200628D02*
X163367D01*
X163729Y200595D02*
G03X163367Y200628I-362J-1967D01*
G01X163729Y200595D02*
G03X163910I91J492D01*
G01X164272Y200628D02*
G03X163910Y200595I0J-2000D01*
G01X164272Y200628D02*
X165335D01*
X165698Y200595D02*
G03X165335Y200628I-363J-1967D01*
G01X165698Y200595D02*
G03X165879I90J492D01*
G01X166241Y200628D02*
G03X165879Y200595I-0J-2000D01*
G01X166241Y200628D02*
X167304D01*
X167666Y200595D02*
G03X167304Y200628I-362J-1967D01*
G01X167666Y200595D02*
G03X167847I91J492D01*
G01X168209Y200628D02*
G03X167847Y200595I0J-2000D01*
G01X168209Y200628D02*
X169272D01*
X169635Y200595D02*
G03X169272Y200628I-363J-1967D01*
G01X169635Y200595D02*
G03X169816I90J492D01*
G01X170178Y200628D02*
G03X169816Y200595I-0J-2000D01*
G01X170178Y200628D02*
X171241D01*
X171603Y200595D02*
G03X171241Y200628I-362J-1967D01*
G01X171603Y200595D02*
G03X171784I91J492D01*
G01X172146Y200628D02*
G03X171784Y200595I0J-2000D01*
G01X172146Y200628D02*
X173209D01*
X173572Y200595D02*
G03X173209Y200628I-363J-1967D01*
G01X173572Y200595D02*
G03X173753I90J492D01*
G01X174115Y200628D02*
G03X173753Y200595I-0J-2000D01*
G01X174115Y200628D02*
X174509D01*
G03X175009Y201128I-0J500*
G01Y201522*
X175042Y201884D02*
G03X175009Y201522I1967J-362D01*
G01X175042Y201884D02*
G03Y202065I-492J91D01*
G01X175009Y202427D02*
G03X175042Y202065I2000J0D01*
G01X175009Y202427D02*
Y203490D01*
X175042Y203853D02*
G03X175009Y203490I1967J-363D01*
G01X175042Y203853D02*
G03Y204034I-492J90D01*
G01X175009Y204396D02*
G03X175042Y204034I2000J-0D01*
G01X175009Y204396D02*
Y205459D01*
X175042Y205821D02*
G03X175009Y205459I1967J-362D01*
G01X175042Y205821D02*
G03Y206002I-492J91D01*
G01X175009Y206364D02*
G03X175042Y206002I2000J0D01*
G01X175009Y206364D02*
Y207427D01*
X175042Y207790D02*
G03X175009Y207427I1967J-363D01*
G01X175042Y207790D02*
G03Y207971I-492J90D01*
G01X175009Y208333D02*
G03X175042Y207971I2000J-0D01*
G01X175009Y208333D02*
Y209396D01*
X175042Y209758D02*
G03X175009Y209396I1967J-362D01*
G01X175042Y209758D02*
G03Y209939I-492J91D01*
G01X175009Y210301D02*
G03X175042Y209939I2000J0D01*
G01X175009Y210301D02*
Y211364D01*
X175042Y211727D02*
G03X175009Y211364I1967J-363D01*
G01X175042Y211727D02*
G03Y211908I-492J90D01*
G01X175009Y212270D02*
G03X175042Y211908I2000J-0D01*
G01X175009Y212270D02*
Y213333D01*
X175042Y213695D02*
G03X175009Y213333I1967J-362D01*
G01X175042Y213695D02*
G03Y213876I-492J91D01*
G01X175009Y214238D02*
G03X175042Y213876I2000J0D01*
G01X175009Y214238D02*
Y215301D01*
X175042Y215664D02*
G03X175009Y215301I1967J-363D01*
G01X175042Y215664D02*
G03Y215845I-492J90D01*
G01X175009Y216207D02*
G03X175042Y215845I2000J-0D01*
G01X175009Y216207D02*
Y217270D01*
X175042Y217632D02*
G03X175009Y217270I1967J-362D01*
G01X175042Y217632D02*
G03Y217813I-492J91D01*
G01X175009Y218175D02*
G03X175042Y217813I2000J0D01*
G01X175009Y218175D02*
Y219238D01*
X175042Y219601D02*
G03X175009Y219238I1967J-363D01*
G01X175042Y219601D02*
G03Y219782I-492J90D01*
G01X175009Y220144D02*
G03X175042Y219782I2000J-0D01*
G01X175009Y220144D02*
Y221207D01*
X175042Y221569D02*
G03X175009Y221207I1967J-362D01*
G01X175042Y221569D02*
G03Y221750I-492J91D01*
G01X158807Y236571D02*
X157415D01*
X156477Y236804D02*
G03X157415Y236571I938J1767D01*
G01X156477Y236804D02*
G03X155743Y236363I-234J-441D01*
G01Y234785*
G03X156274Y234286I500J-0*
G01X156398Y234290D02*
G03X156274Y234286I0J-2000D01*
G01X156398Y234290D02*
X157461D01*
X157824Y234257D02*
G03X157461Y234290I-363J-1967D01*
G01X157824Y234257D02*
G03X158005I90J491D01*
G01X158071Y234268D02*
G03X158005Y234257I296J-1978D01*
G01X158071Y234268D02*
G03X158475Y234616I-74J494D01*
G01X159099Y235656D02*
G03X158475Y234616I1768J-1768D01*
G01X159099Y235656D02*
X159161Y235717D01*
G03X158807Y236571I-354J354*
G01X167407Y288252D02*
G03X166907Y288752I-500J-0D01*
G01X166608*
G03X166108Y288252I-0J-500*
G01Y280187*
G03X166179Y279929I500J-0*
G01X166436Y279386D02*
G03X166179Y279929I-2828J-1002D01*
G01X166436Y279386D02*
G03X167407Y279553I471J167D01*
G01Y288252*
X212576Y232921D02*
G03X212576I-2272J0D01*
G01X126041Y115752D02*
G03X126041I-9874J0D01*
G01X212823Y281671D02*
Y272411D01*
X211796Y269934D02*
G03X212823Y272411I-2473J2477D01*
G01X211796Y269934D02*
X203804Y261942D01*
X201329Y260917D02*
G03X203804Y261942I-0J3500D01*
G01X201329Y260917D02*
X184226D01*
Y267917D02*
G03Y260917I-11J-3500D01*
G01Y267917D02*
X199672D01*
G03X200026Y268063I0J500*
G01X205677Y273714*
G03X205823Y274068I-354J354*
G01Y281113*
G03X205817Y281189I-500J0*
G01X211752Y284192D02*
G03X205817Y281189I-2475J-2475D01*
G01X211752Y284192D02*
X211798Y284146D01*
X212823Y281671D02*
G03X211798Y284146I-3500J0D01*
G01X112787Y135433D02*
G03X112787I-2272J0D01*
G01X101130Y101999D02*
X305039D01*
X101130Y102899D02*
X305039D01*
X101130Y103799D02*
X305039D01*
X101130Y104699D02*
X305039D01*
X101130Y105599D02*
X305039D01*
X214888Y106499D02*
X305039D01*
X216707Y107399D02*
X305039D01*
X217919Y108299D02*
X305039D01*
X218828Y109199D02*
X305039D01*
X242162Y110099D02*
X305039D01*
X243314Y110999D02*
X305039D01*
X243861Y111899D02*
X305039D01*
X244102Y112799D02*
X305039D01*
X244131Y113699D02*
X305039D01*
X244132Y114599D02*
X305039D01*
X244730Y115499D02*
X305039D01*
X244965Y116399D02*
X305039D01*
X244966Y117299D02*
X305039D01*
X244966Y118199D02*
X305039D01*
X244966Y119099D02*
X305039D01*
X244966Y119999D02*
X305039D01*
X244966Y120899D02*
X305039D01*
X244966Y121799D02*
X305039D01*
X244935Y122699D02*
X305039D01*
X245269Y123599D02*
X305039D01*
X283232Y124499D02*
X305039D01*
X284132Y125399D02*
X305039D01*
X285032Y126299D02*
X305039D01*
X285932Y127199D02*
X305039D01*
X286832Y128099D02*
X305039D01*
X287732Y128999D02*
X305039D01*
X288632Y129899D02*
X305039D01*
X292378Y130799D02*
X305039D01*
X293884Y131699D02*
X305039D01*
X294693Y132599D02*
X305039D01*
X295190Y133499D02*
X305039D01*
X295475Y134399D02*
X305039D01*
X295582Y135299D02*
X305039D01*
X295524Y136199D02*
X305039D01*
X295295Y137099D02*
X305039D01*
X294867Y137999D02*
X305039D01*
X294169Y138899D02*
X305039D01*
X292970Y139799D02*
X305039D01*
X278901Y140699D02*
X305039D01*
X278001Y141599D02*
X305039D01*
X277101Y142499D02*
X305039D01*
X276201Y143399D02*
X305039D01*
X275811Y144299D02*
X304977D01*
X282970Y139799D02*
X288292D01*
X284169Y138899D02*
X287093D01*
X284867Y137999D02*
X286395D01*
X219538Y110099D02*
X239100D01*
X220097Y110999D02*
X237948D01*
X220534Y111899D02*
X237401D01*
X220865Y112799D02*
X237160D01*
X221101Y113699D02*
X237131D01*
X232721Y114599D02*
X237126D01*
X233706Y115499D02*
X236477D01*
X212601Y282899D02*
X228851D01*
X212808Y281999D02*
X228851D01*
X212823Y281099D02*
X228851D01*
X212823Y280199D02*
X228851D01*
X212823Y279299D02*
X228851D01*
X212823Y278399D02*
X228851D01*
X212823Y277499D02*
X228851D01*
X212823Y276599D02*
X228851D01*
X212823Y275699D02*
X228851D01*
X212823Y274799D02*
X228851D01*
X212823Y273899D02*
X228851D01*
X212823Y272999D02*
X228851D01*
X212809Y272099D02*
X228851D01*
X212606Y271199D02*
X228851D01*
X212114Y270299D02*
X228851D01*
X211260Y269399D02*
X228851D01*
X210360Y268499D02*
X228851D01*
X209460Y267599D02*
X228851D01*
X208560Y266699D02*
X228851D01*
X207660Y265799D02*
X228851D01*
X206760Y264899D02*
X228851D01*
X205860Y263999D02*
X228851D01*
X204960Y263099D02*
X228851D01*
X204060Y262199D02*
X228851D01*
X202918Y261299D02*
X228851D01*
X173209Y260399D02*
X228851D01*
X173209Y259499D02*
X228851D01*
X173209Y258599D02*
X228851D01*
X211609Y257699D02*
X228851D01*
X213385Y256799D02*
X228851D01*
X214262Y255899D02*
X228851D01*
X214800Y254999D02*
X228851D01*
X215115Y254099D02*
X228851D01*
X215249Y253199D02*
X228851D01*
X215218Y252299D02*
X228851D01*
X215017Y251399D02*
X228851D01*
X214624Y250499D02*
X228851D01*
X213977Y249599D02*
X228851D01*
X212893Y248699D02*
X228851D01*
X211995Y247799D02*
X228851D01*
X213255Y246899D02*
X228851D01*
X214184Y245999D02*
X228851D01*
X214752Y245099D02*
X228851D01*
X215089Y244199D02*
X228851D01*
X215242Y243299D02*
X228851D01*
X215229Y242399D02*
X228851D01*
X215048Y241499D02*
X228851D01*
X214679Y240599D02*
X228851D01*
X214065Y239699D02*
X228851D01*
X213049Y238799D02*
X228851D01*
X177147Y237899D02*
X228851D01*
X177147Y236999D02*
X228851D01*
X177147Y236099D02*
X228851D01*
X177147Y235199D02*
X228851D01*
X212110Y234299D02*
X228851D01*
X212525Y233399D02*
X228851D01*
X212536Y232499D02*
X228851D01*
X212151Y231599D02*
X228851D01*
X210775Y230699D02*
X228851D01*
X197887Y229799D02*
X228851D01*
X197887Y228899D02*
X228851D01*
X197887Y227999D02*
X228851D01*
X212964Y227099D02*
X228851D01*
X214017Y226199D02*
X228851D01*
X214649Y225299D02*
X228851D01*
X215031Y224399D02*
X228851D01*
X215223Y223499D02*
X228851D01*
X215246Y222599D02*
X228851D01*
X215104Y221699D02*
X228851D01*
X214779Y220799D02*
X228851D01*
X214228Y219899D02*
X228851D01*
X213328Y218999D02*
X228851D01*
X211433Y218099D02*
X228851D01*
X203785Y217199D02*
X228851D01*
X204685Y216299D02*
X228851D01*
X205585Y215399D02*
X228851D01*
X206485Y214499D02*
X228851D01*
X207385Y213599D02*
X228851D01*
X208285Y212699D02*
X228851D01*
X209185Y211799D02*
X228851D01*
X210085Y210899D02*
X228851D01*
X210985Y209999D02*
X228851D01*
X211885Y209099D02*
X228851D01*
X212785Y208199D02*
X228851D01*
X213551Y207299D02*
X228851D01*
X213848Y206399D02*
X228851D01*
X213868Y205499D02*
X228851D01*
X213868Y204599D02*
X228851D01*
X213868Y203699D02*
X228851D01*
X213868Y202799D02*
X228851D01*
X213868Y201899D02*
X228851D01*
X213868Y200999D02*
X228851D01*
X213868Y200099D02*
X228851D01*
X213868Y199199D02*
X228851D01*
X213868Y198299D02*
X228851D01*
X213868Y197399D02*
X228851D01*
X213868Y196499D02*
X228851D01*
X213868Y195599D02*
X228851D01*
X213868Y194699D02*
X228851D01*
X213868Y193799D02*
X228851D01*
X213868Y192899D02*
X228851D01*
X213868Y191999D02*
X228851D01*
X213868Y191099D02*
X228851D01*
X213868Y190199D02*
X228851D01*
X213868Y189299D02*
X228851D01*
X213868Y188399D02*
X228851D01*
X213868Y187499D02*
X228851D01*
X213868Y186599D02*
X228851D01*
X213868Y185699D02*
X228851D01*
X213868Y184799D02*
X228851D01*
X213868Y183899D02*
X228851D01*
X213868Y182999D02*
X228851D01*
X213868Y182099D02*
X228851D01*
X213868Y181199D02*
X228851D01*
X213868Y180299D02*
X228851D01*
X213868Y179399D02*
X228851D01*
X213868Y178499D02*
X228851D01*
X213868Y177599D02*
X228851D01*
X213868Y176699D02*
X228851D01*
X213868Y175799D02*
X228851D01*
X213868Y174899D02*
X228851D01*
X213868Y173999D02*
X228851D01*
X213868Y173099D02*
X228851D01*
X213868Y172199D02*
X228851D01*
X213868Y171299D02*
X228851D01*
X213868Y170399D02*
X228851D01*
X213868Y169499D02*
X228851D01*
X213868Y168599D02*
X228851D01*
X213868Y167699D02*
X228851D01*
X213868Y166799D02*
X228851D01*
X213868Y165899D02*
X228851D01*
X213868Y164999D02*
X228851D01*
X213868Y164099D02*
X228851D01*
X213868Y163199D02*
X228851D01*
X213868Y162299D02*
X228851D01*
X213868Y161399D02*
X228851D01*
X213868Y160499D02*
X228851D01*
X213868Y159599D02*
X228851D01*
X213868Y158699D02*
X228851D01*
X213868Y157799D02*
X228851D01*
X213868Y156899D02*
X228851D01*
X213868Y155999D02*
X228851D01*
X213868Y155099D02*
X228851D01*
X213868Y154199D02*
X228851D01*
X214085Y153299D02*
X228851D01*
X214985Y152399D02*
X228851D01*
X215885Y151499D02*
X228851D01*
X216785Y150599D02*
X228851D01*
X217685Y149699D02*
X228851D01*
X218585Y148799D02*
X228851D01*
X219485Y147899D02*
X228851D01*
X220385Y146999D02*
X228851D01*
X221285Y146099D02*
X228733D01*
X212102Y283799D02*
X228669D01*
X221249Y114599D02*
X226439D01*
X221313Y115499D02*
X225454D01*
X218460Y122699D02*
X225249D01*
X221295Y116399D02*
X225218D01*
X219249Y121799D02*
X225218D01*
X219869Y120899D02*
X225218D01*
X220357Y119999D02*
X225218D01*
X220732Y119099D02*
X225218D01*
X221009Y118199D02*
X225218D01*
X221195Y117299D02*
X225218D01*
X218682Y123599D02*
X224915D01*
X211110Y284699D02*
X216268D01*
X183413Y285599D02*
X215341D01*
X183413Y286499D02*
X214820D01*
X183413Y287399D02*
X214550D01*
X183413Y288299D02*
X214481D01*
X213293Y289199D02*
X214481D01*
X197887Y230699D02*
X209833D01*
X202885Y218099D02*
X209175D01*
X173209Y257699D02*
X208999D01*
X173209Y247799D02*
X208613D01*
X177147Y234299D02*
X208498D01*
X197727Y231599D02*
X208457D01*
X177147Y233399D02*
X208083D01*
X196967Y232499D02*
X208072D01*
X119613Y106499D02*
X207997D01*
X118273Y125399D02*
X207972D01*
X173209Y248699D02*
X207715D01*
X197887Y227099D02*
X207644D01*
X177178Y238799D02*
X207559D01*
X183413Y284699D02*
X207444D01*
X173209Y246899D02*
X207353D01*
X201875Y218999D02*
X207280D01*
X173209Y256799D02*
X207223D01*
X101130Y126299D02*
X207222D01*
X120749Y124499D02*
X206861D01*
X173209Y249599D02*
X206631D01*
X197704Y226199D02*
X206591D01*
X178015Y239699D02*
X206543D01*
X183391Y283799D02*
X206464D01*
X173209Y245999D02*
X206424D01*
X202171Y219899D02*
X206380D01*
X101130Y127199D02*
X206322D01*
X121432Y107399D02*
X206178D01*
X183190Y282899D02*
X205983D01*
X189225Y281099D02*
X205823D01*
X189914Y280199D02*
X205823D01*
X190197Y279299D02*
X205823D01*
X190195Y278399D02*
X205823D01*
X189904Y277499D02*
X205823D01*
X189204Y276599D02*
X205823D01*
X187606Y275699D02*
X205823D01*
X186706Y274799D02*
X205823D01*
X185806Y273899D02*
X205793D01*
X182747Y281999D02*
X205789D01*
X122161Y123599D02*
X205449D01*
X155499Y128099D02*
X205422D01*
X122643Y108299D02*
X204966D01*
X184906Y272999D02*
X204961D01*
X156399Y128999D02*
X204522D01*
X123184Y122699D02*
X204425D01*
X184006Y272099D02*
X204061D01*
X123553Y109199D02*
X204057D01*
X123973Y121799D02*
X203637D01*
X157292Y129899D02*
X203622D01*
X124262Y110099D02*
X203347D01*
X183106Y271199D02*
X203161D01*
X124594Y120899D02*
X203016D01*
X124822Y110999D02*
X202788D01*
X172262Y130799D02*
X202722D01*
X125081Y119999D02*
X202528D01*
X125258Y111899D02*
X202351D01*
X182206Y270299D02*
X202261D01*
X125456Y119099D02*
X202153D01*
X125589Y112799D02*
X202020D01*
X125733Y118199D02*
X201876D01*
X173768Y131699D02*
X201822D01*
X125825Y113699D02*
X201784D01*
X125919Y117299D02*
X201690D01*
X125973Y114599D02*
X201636D01*
X126020Y116399D02*
X201590D01*
X126038Y115499D02*
X201572D01*
X181306Y269399D02*
X201361D01*
X174577Y132599D02*
X200922D01*
X197728Y225299D02*
X200886D01*
X180406Y268499D02*
X200461D01*
X188959Y133499D02*
X200022D01*
X197887Y224399D02*
X199600D01*
X189876Y134399D02*
X199122D01*
X198079Y223499D02*
X198695D01*
X190776Y135299D02*
X198475D01*
X191676Y136199D02*
X198274D01*
X195479Y201899D02*
X198273D01*
X195917Y200999D02*
X198273D01*
X195995Y200099D02*
X198273D01*
X195995Y199199D02*
X198273D01*
X195995Y198299D02*
X198273D01*
X195995Y197399D02*
X198273D01*
X195995Y196499D02*
X198273D01*
X195995Y195599D02*
X198273D01*
X195995Y194699D02*
X198273D01*
X195995Y193799D02*
X198273D01*
X195995Y192899D02*
X198273D01*
X195995Y191999D02*
X198273D01*
X195995Y191099D02*
X198273D01*
X195995Y190199D02*
X198273D01*
X195995Y189299D02*
X198273D01*
X195995Y188399D02*
X198273D01*
X195995Y187499D02*
X198273D01*
X195995Y186599D02*
X198273D01*
X195995Y185699D02*
X198273D01*
X195995Y184799D02*
X198273D01*
X195995Y183899D02*
X198273D01*
X195995Y182999D02*
X198273D01*
X195995Y182099D02*
X198273D01*
X195995Y181199D02*
X198273D01*
X195995Y180299D02*
X198273D01*
X195995Y179399D02*
X198273D01*
X195995Y178499D02*
X198273D01*
X195995Y177599D02*
X198273D01*
X195995Y176699D02*
X198273D01*
X195995Y175799D02*
X198273D01*
X195995Y174899D02*
X198273D01*
X195995Y173999D02*
X198273D01*
X195995Y173099D02*
X198273D01*
X195995Y172199D02*
X198273D01*
X195995Y171299D02*
X198273D01*
X195995Y170399D02*
X198273D01*
X195995Y169499D02*
X198273D01*
X195995Y168599D02*
X198273D01*
X195995Y167699D02*
X198273D01*
X195995Y166799D02*
X198273D01*
X195995Y165899D02*
X198273D01*
X195995Y164999D02*
X198273D01*
X195995Y164099D02*
X198273D01*
X195995Y163199D02*
X198273D01*
X195995Y162299D02*
X198273D01*
X195995Y161399D02*
X198273D01*
X195995Y160499D02*
X198273D01*
X195995Y159599D02*
X198273D01*
X195995Y158699D02*
X198273D01*
X195995Y157799D02*
X198273D01*
X195995Y156899D02*
X198273D01*
X195995Y155999D02*
X198273D01*
X195995Y155099D02*
X198273D01*
X195995Y154199D02*
X198273D01*
X195995Y153299D02*
X198273D01*
X195995Y152399D02*
X198273D01*
X195995Y151499D02*
X198273D01*
X195995Y150599D02*
X198273D01*
X195995Y149699D02*
X198273D01*
X195995Y148799D02*
X198273D01*
X195995Y147899D02*
X198273D01*
X195995Y146999D02*
X198273D01*
X195995Y146099D02*
X198273D01*
X195995Y145199D02*
X198273D01*
X195995Y144299D02*
X198273D01*
X195995Y143399D02*
X198273D01*
X195995Y142499D02*
X198273D01*
X195995Y141599D02*
X198273D01*
X195845Y140699D02*
X198273D01*
X195276Y139799D02*
X198273D01*
X194376Y138899D02*
X198273D01*
X193476Y137999D02*
X198273D01*
X192576Y137099D02*
X198273D01*
X194610Y202799D02*
X198113D01*
X193710Y203699D02*
X197213D01*
X193293Y204599D02*
X196313D01*
X193964Y205499D02*
X195413D01*
X177167Y232499D02*
X191657D01*
X177178Y226199D02*
X190921D01*
X177178Y231599D02*
X190897D01*
X177178Y230699D02*
X190737D01*
X177178Y229799D02*
X190737D01*
X177178Y228899D02*
X190737D01*
X177178Y227999D02*
X190737D01*
X177178Y227099D02*
X190737D01*
X183413Y289199D02*
X186265D01*
X183413Y290099D02*
X185635D01*
X183413Y299099D02*
X185525D01*
X183413Y298199D02*
X185525D01*
X183413Y297299D02*
X185525D01*
X183413Y296399D02*
X185525D01*
X183413Y295499D02*
X185525D01*
X183413Y294599D02*
X185525D01*
X183413Y293699D02*
X185525D01*
X183413Y292799D02*
X185525D01*
X183413Y291899D02*
X185525D01*
X183413Y290999D02*
X185525D01*
X181939Y281099D02*
X185235D01*
X173209Y255899D02*
X184782D01*
X179821Y280199D02*
X184546D01*
X175557Y279299D02*
X184135D01*
X173209Y250499D02*
X183377D01*
X175557Y278399D02*
X183235D01*
X173209Y254999D02*
X182983D01*
X179506Y267599D02*
X182757D01*
X173253Y261299D02*
X182625D01*
X173209Y251399D02*
X182562D01*
X173209Y254099D02*
X182388D01*
X175557Y277499D02*
X182335D01*
X173209Y252299D02*
X182212D01*
X173209Y253199D02*
X182160D01*
X178606Y266699D02*
X181561D01*
X174106Y262199D02*
X181508D01*
X175557Y276599D02*
X181435D01*
X177706Y265799D02*
X180999D01*
X175006Y263099D02*
X180973D01*
X176806Y264899D02*
X180748D01*
X175906Y263999D02*
X180740D01*
X175557Y275699D02*
X180535D01*
X177349Y225299D02*
X179933D01*
X175557Y274799D02*
X179635D01*
X175557Y280199D02*
X178900D01*
X175497Y273899D02*
X178735D01*
X175099Y272999D02*
X177835D01*
X174250Y272099D02*
X176935D01*
X175557Y281099D02*
X176782D01*
X173209Y245099D02*
X176474D01*
X173350Y271199D02*
X176035D01*
X173209Y244199D02*
X175444D01*
X172450Y270299D02*
X175135D01*
X173209Y243299D02*
X174544D01*
X171550Y269399D02*
X174235D01*
X170650Y268499D02*
X173335D01*
X169750Y267599D02*
X172435D01*
X138335Y266699D02*
X171535D01*
X101130Y265799D02*
X170635D01*
X101130Y264899D02*
X169735D01*
X101130Y263999D02*
X168841D01*
X162262Y130799D02*
X168768D01*
X163297Y263099D02*
X168328D01*
X164425Y262199D02*
X168209D01*
X164695Y261299D02*
X168209D01*
X164698Y260399D02*
X168209D01*
X164698Y259499D02*
X168209D01*
X164698Y258599D02*
X168209D01*
X164698Y257699D02*
X168209D01*
X164608Y256799D02*
X168209D01*
X164425Y255899D02*
X168209D01*
X164695Y254999D02*
X168209D01*
X164698Y254099D02*
X168209D01*
X164698Y253199D02*
X168209D01*
X165025Y252299D02*
X168209D01*
X165903Y251399D02*
X168209D01*
X166359Y250499D02*
X168209D01*
X166447Y249599D02*
X168209D01*
X166447Y248699D02*
X168209D01*
X166447Y247799D02*
X168209D01*
X166447Y246899D02*
X168209D01*
X166447Y245999D02*
X168209D01*
X166447Y245099D02*
X168209D01*
X166447Y244199D02*
X168209D01*
X166447Y243299D02*
X168209D01*
X166447Y242399D02*
X168209D01*
X166447Y241499D02*
X168209D01*
X166447Y240599D02*
X168209D01*
X166447Y239699D02*
X168209D01*
X166447Y238799D02*
X168209D01*
X166447Y237899D02*
X168209D01*
X166447Y236999D02*
X168209D01*
X166291Y236099D02*
X168209D01*
X165713Y235199D02*
X168209D01*
X165857Y234299D02*
X167910D01*
X163768Y131699D02*
X167262D01*
X164577Y132599D02*
X166453D01*
X165077Y133499D02*
X165953D01*
X155359Y247799D02*
X161447D01*
X155848Y246899D02*
X161447D01*
X156006Y245999D02*
X161447D01*
X156007Y245099D02*
X161447D01*
X156007Y244199D02*
X161447D01*
X154179Y248699D02*
X161435D01*
X148983Y287399D02*
X161108D01*
X150139Y286499D02*
X161108D01*
X150621Y285599D02*
X161108D01*
X150773Y284699D02*
X161108D01*
X150649Y283799D02*
X161108D01*
X150207Y282899D02*
X161108D01*
X149171Y281999D02*
X161108D01*
X101130Y281099D02*
X161108D01*
X101130Y280199D02*
X161108D01*
X143959Y288299D02*
X161106D01*
X101130Y279299D02*
X160751D01*
X101130Y277499D02*
X160740D01*
X101130Y278399D02*
X160608D01*
X157829Y130799D02*
X158768D01*
X101130Y263099D02*
X158299D01*
X138536Y249599D02*
X157566D01*
X101130Y262199D02*
X157171D01*
X137698Y255899D02*
X157171D01*
X101130Y256799D02*
X156987D01*
X138691Y250499D02*
X156987D01*
X101130Y261299D02*
X156901D01*
X138512Y254999D02*
X156901D01*
X101130Y260399D02*
X156898D01*
X101130Y259499D02*
X156898D01*
X101130Y258599D02*
X156898D01*
X101130Y257699D02*
X156898D01*
X138691Y254099D02*
X156898D01*
X138691Y253199D02*
X156898D01*
X138691Y252299D02*
X156898D01*
X138691Y251399D02*
X156898D01*
X121076Y188399D02*
X152461D01*
X121076Y187499D02*
X152461D01*
X121076Y186599D02*
X152461D01*
X121076Y185699D02*
X152461D01*
X121076Y189299D02*
X152257D01*
X138512Y248699D02*
X151834D01*
X121076Y184799D02*
X151789D01*
X121079Y183899D02*
X150889D01*
X121076Y190199D02*
X150822D01*
X138691Y247799D02*
X150654D01*
X121076Y191099D02*
X150477D01*
X136998Y191999D02*
X150461D01*
X138691Y246899D02*
X150165D01*
X138691Y245999D02*
X150007D01*
X138691Y245099D02*
X150007D01*
X138691Y244199D02*
X150007D01*
X121453Y182999D02*
X149989D01*
X138723Y243299D02*
X149878D01*
X121576Y182099D02*
X149089D01*
X121422Y181199D02*
X148189D01*
X120938Y180299D02*
X147289D01*
X144603Y287399D02*
X146564D01*
X119777Y179399D02*
X146389D01*
X101130Y281999D02*
X146376D01*
X101130Y178499D02*
X145489D01*
X101130Y177599D02*
X144589D01*
X101130Y128099D02*
X144314D01*
X101130Y176699D02*
X143689D01*
X101130Y128999D02*
X143414D01*
X101130Y175799D02*
X142789D01*
X101130Y129899D02*
X142514D01*
X101130Y282899D02*
X142032D01*
X101130Y174899D02*
X141889D01*
X121076Y205499D02*
X141348D01*
X135098Y207299D02*
X141347D01*
X121076Y206399D02*
X141347D01*
X121076Y204599D02*
X141347D01*
X135882Y208199D02*
X141221D01*
X101312Y283799D02*
X141132D01*
X101130Y173999D02*
X140989D01*
X113713Y284699D02*
X140232D01*
X101130Y173099D02*
X140089D01*
X114640Y285599D02*
X139332D01*
X101130Y172199D02*
X139189D01*
X121076Y203699D02*
X138832D01*
X132262Y130799D02*
X138768D01*
X115161Y286499D02*
X138432D01*
X121076Y198299D02*
X138405D01*
X101130Y171299D02*
X138289D01*
X101130Y276599D02*
X138069D01*
X121076Y202799D02*
X137729D01*
X121076Y199199D02*
X137716D01*
X115431Y287399D02*
X137532D01*
X101130Y272999D02*
X137440D01*
X101130Y275699D02*
X137399D01*
X101130Y170399D02*
X137389D01*
X121076Y201899D02*
X137263D01*
X133768Y131699D02*
X137262D01*
X121076Y200099D02*
X137258D01*
X101130Y273899D02*
X137138D01*
X101130Y274799D02*
X137126D01*
X121076Y200999D02*
X137123D01*
X115500Y288299D02*
X136632D01*
X101130Y169499D02*
X136489D01*
X121076Y191999D02*
X136457D01*
X134577Y132599D02*
X136453D01*
X135077Y133499D02*
X135953D01*
X101130Y272099D02*
X135822D01*
X101130Y168599D02*
X135589D01*
X101130Y266699D02*
X135131D01*
X121076Y197399D02*
X134944D01*
X101130Y167699D02*
X134689D01*
X121076Y192899D02*
X134573D01*
X101130Y271199D02*
X134456D01*
X101130Y267599D02*
X134215D01*
X121076Y196499D02*
X134136D01*
X121076Y193799D02*
X133973D01*
X101130Y270299D02*
X133921D01*
X101130Y268499D02*
X133820D01*
X121076Y195599D02*
X133791D01*
X101130Y166799D02*
X133789D01*
X121076Y194699D02*
X133741D01*
X101130Y269399D02*
X133732D01*
X101130Y165899D02*
X132889D01*
X101130Y164999D02*
X131989D01*
X128710Y255899D02*
X131884D01*
X101130Y164099D02*
X131089D01*
X129517Y254999D02*
X131066D01*
X101130Y163199D02*
X130189D01*
X101130Y162299D02*
X129289D01*
X126741Y207299D02*
X129091D01*
X122262Y130799D02*
X128768D01*
X101130Y161399D02*
X128476D01*
X127519Y208199D02*
X128324D01*
X124388Y160499D02*
X128127D01*
X124820Y159599D02*
X128089D01*
X124858Y158699D02*
X128089D01*
X124858Y157799D02*
X128089D01*
X124858Y156899D02*
X128089D01*
X124858Y155999D02*
X128089D01*
X124858Y155099D02*
X128089D01*
X124858Y154199D02*
X128089D01*
X124858Y153299D02*
X128089D01*
X124641Y152399D02*
X128089D01*
X124003Y151499D02*
X128089D01*
X123996Y150599D02*
X128089D01*
X123996Y149699D02*
X128089D01*
X123996Y148799D02*
X128089D01*
X123996Y147899D02*
X128089D01*
X123996Y146999D02*
X128089D01*
X124015Y146099D02*
X128089D01*
X124015Y145199D02*
X128089D01*
X124015Y144299D02*
X128089D01*
X124015Y143399D02*
X128089D01*
X124015Y142499D02*
X128089D01*
X124015Y141599D02*
X128089D01*
X124015Y140699D02*
X128089D01*
X124015Y139799D02*
X128030D01*
X123768Y131699D02*
X127262D01*
X124076Y138899D02*
X126977D01*
X124577Y132599D02*
X126453D01*
X124751Y137999D02*
X126279D01*
X125077Y133499D02*
X125953D01*
X101130Y255899D02*
X122857D01*
X101130Y254999D02*
X122058D01*
X101130Y248699D02*
X122058D01*
X101130Y249599D02*
X122043D01*
X101130Y254099D02*
X121883D01*
X101130Y253199D02*
X121883D01*
X101130Y252299D02*
X121883D01*
X101130Y251399D02*
X121883D01*
X101130Y250499D02*
X121883D01*
X101130Y247799D02*
X121883D01*
X101130Y246899D02*
X121883D01*
X101130Y245999D02*
X121883D01*
X101130Y245099D02*
X121364D01*
X101130Y244199D02*
X120464D01*
X101130Y243299D02*
X119564D01*
X101130Y130799D02*
X118768D01*
X101130Y242399D02*
X118664D01*
X101130Y241499D02*
X117764D01*
X101130Y179399D02*
X117375D01*
X101130Y131699D02*
X117262D01*
X101130Y145199D02*
X117015D01*
X101130Y144299D02*
X117015D01*
X101130Y143399D02*
X117015D01*
X101130Y142499D02*
X117015D01*
X101130Y141599D02*
X117015D01*
X101130Y140699D02*
X117015D01*
X101130Y139799D02*
X117015D01*
X101130Y146099D02*
X116996D01*
X101130Y150599D02*
X116996D01*
X101130Y149699D02*
X116996D01*
X101130Y148799D02*
X116996D01*
X101130Y147899D02*
X116996D01*
X101130Y146999D02*
X116996D01*
X112694Y151499D02*
X116989D01*
X115500Y289199D02*
X116974D01*
X101130Y138899D02*
X116954D01*
X101130Y240599D02*
X116864D01*
X113364Y160499D02*
X116604D01*
X101130Y132599D02*
X116453D01*
X113618Y152399D02*
X116351D01*
X101130Y137999D02*
X116279D01*
X101130Y239699D02*
X116253D01*
X101130Y180299D02*
X116214D01*
X115827Y290099D02*
X116173D01*
X101130Y238799D02*
X116076D01*
X101130Y237899D02*
X116076D01*
X101130Y236999D02*
X116076D01*
X101130Y236099D02*
X116076D01*
X101130Y235199D02*
X116076D01*
X101130Y234299D02*
X116076D01*
X101130Y233399D02*
X116076D01*
X101130Y232499D02*
X116076D01*
X101130Y231599D02*
X116076D01*
X101130Y230699D02*
X116076D01*
X101130Y229799D02*
X116076D01*
X101130Y228899D02*
X116076D01*
X101130Y227999D02*
X116076D01*
X101130Y227099D02*
X116076D01*
X101130Y226199D02*
X116076D01*
X101130Y225299D02*
X116076D01*
X101130Y224399D02*
X116076D01*
X101130Y223499D02*
X116076D01*
X101130Y222599D02*
X116076D01*
X101130Y221699D02*
X116076D01*
X101130Y220799D02*
X116076D01*
X101130Y219899D02*
X116076D01*
X101130Y218999D02*
X116076D01*
X101130Y218099D02*
X116076D01*
X101130Y217199D02*
X116076D01*
X101130Y216299D02*
X116076D01*
X101130Y215399D02*
X116076D01*
X101130Y214499D02*
X116076D01*
X101130Y213599D02*
X116076D01*
X101130Y212699D02*
X116076D01*
X101130Y211799D02*
X116076D01*
X101130Y210899D02*
X116076D01*
X101130Y209999D02*
X116076D01*
X101130Y209099D02*
X116076D01*
X101130Y208199D02*
X116076D01*
X101130Y207299D02*
X116076D01*
X101130Y206399D02*
X116076D01*
X101130Y205499D02*
X116076D01*
X101130Y204599D02*
X116076D01*
X101130Y203699D02*
X116076D01*
X101130Y202799D02*
X116076D01*
X101130Y201899D02*
X116076D01*
X101130Y200999D02*
X116076D01*
X101130Y200099D02*
X116076D01*
X101130Y199199D02*
X116076D01*
X101130Y198299D02*
X116076D01*
X101130Y197399D02*
X116076D01*
X101130Y196499D02*
X116076D01*
X101130Y195599D02*
X116076D01*
X101130Y194699D02*
X116076D01*
X101130Y193799D02*
X116076D01*
X101130Y192899D02*
X116076D01*
X101130Y191999D02*
X116076D01*
X101130Y191099D02*
X116076D01*
X101130Y190199D02*
X116076D01*
X101130Y189299D02*
X116076D01*
X101130Y188399D02*
X116076D01*
X101130Y187499D02*
X116076D01*
X101130Y186599D02*
X116076D01*
X101130Y185699D02*
X116076D01*
X101130Y184799D02*
X116076D01*
X101130Y183899D02*
X116073D01*
X113922Y159599D02*
X116046D01*
X111706Y133499D02*
X115956D01*
X112060Y137099D02*
X115851D01*
X101130Y181199D02*
X115730D01*
X101130Y182999D02*
X115699D01*
X112538Y134399D02*
X115671D01*
X112654Y136199D02*
X115622D01*
X101130Y182099D02*
X115576D01*
X112783Y135299D02*
X115564D01*
X101130Y125399D02*
X114061D01*
X101130Y106499D02*
X112721D01*
X101130Y124499D02*
X111585D01*
X101130Y107399D02*
X110902D01*
X101130Y123599D02*
X110173D01*
X101130Y108299D02*
X109690D01*
X101130Y133499D02*
X109324D01*
X101130Y122699D02*
X109150D01*
X101130Y137099D02*
X108970D01*
X101130Y109199D02*
X108781D01*
X101130Y134399D02*
X108492D01*
X101130Y136199D02*
X108376D01*
X101130Y121799D02*
X108361D01*
X101130Y135299D02*
X108247D01*
X101130Y110099D02*
X108071D01*
X101130Y120899D02*
X107740D01*
X101130Y110999D02*
X107512D01*
X101130Y119999D02*
X107253D01*
X101130Y111899D02*
X107076D01*
X101130Y119099D02*
X106877D01*
X101130Y112799D02*
X106745D01*
X101130Y118199D02*
X106601D01*
X101130Y113699D02*
X106509D01*
X101130Y117299D02*
X106415D01*
X101130Y114599D02*
X106360D01*
X101130Y116399D02*
X106314D01*
X101130Y115499D02*
X106296D01*
X101130Y151499D02*
X106250D01*
X101130Y160499D02*
X105581D01*
X101130Y152399D02*
X105327D01*
X101130Y159599D02*
X105148D01*
X101130Y153299D02*
X105110D01*
X101130Y158699D02*
X105110D01*
X101130Y157799D02*
X105110D01*
X101130Y156899D02*
X105110D01*
X101130Y155999D02*
X105110D01*
X101130Y155099D02*
X105110D01*
X101130Y154199D02*
X105110D01*
X209799Y138899D02*
X236853D01*
X210699Y137999D02*
X236395D01*
X231828Y133499D02*
X236072D01*
X232176Y137099D02*
X235967D01*
X232654Y134399D02*
X235787D01*
X232770Y136199D02*
X235738D01*
X232899Y135299D02*
X235680D01*
X215199Y133499D02*
X229434D01*
X211599Y137099D02*
X229086D01*
X214299Y134399D02*
X228608D01*
X212499Y136199D02*
X228492D01*
X213399Y135299D02*
X228363D01*
X208899Y139799D02*
X217929D01*
X207999Y140699D02*
X216985D01*
X207858Y141599D02*
X216085D01*
X207858Y142499D02*
X215185D01*
X207858Y143399D02*
X214285D01*
X207858Y144299D02*
X213385D01*
X207858Y145199D02*
X212485D01*
X207858Y146099D02*
X211585D01*
X207858Y146999D02*
X210685D01*
X207858Y147899D02*
X209785D01*
X207892Y148799D02*
X208885D01*
X185279Y185699D02*
X187867D01*
X182632Y184799D02*
X187867D01*
X182309Y183899D02*
X187867D01*
X182309Y182999D02*
X187867D01*
X182309Y182099D02*
X187867D01*
X182309Y181199D02*
X187867D01*
X182309Y180299D02*
X187867D01*
X182328Y179399D02*
X187867D01*
X182709Y178499D02*
X187867D01*
X182806Y177599D02*
X187867D01*
X182918Y176699D02*
X187867D01*
X183346Y175799D02*
X187867D01*
X183383Y174899D02*
X187867D01*
X183383Y173999D02*
X187867D01*
X183383Y173099D02*
X187867D01*
X183383Y172199D02*
X187867D01*
X183355Y171299D02*
X187867D01*
X183043Y170399D02*
X187867D01*
X183346Y169499D02*
X187867D01*
X183383Y168599D02*
X187867D01*
X183383Y167699D02*
X187867D01*
X183383Y166799D02*
X187867D01*
X183383Y165899D02*
X187867D01*
X183354Y164999D02*
X187867D01*
X182954Y164099D02*
X187867D01*
X177953Y163199D02*
X187867D01*
X177798Y162299D02*
X187867D01*
X177798Y161399D02*
X187867D01*
X177798Y160499D02*
X187867D01*
X177798Y159599D02*
X187867D01*
X177798Y158699D02*
X187867D01*
X177798Y157799D02*
X187867D01*
X177798Y156899D02*
X187867D01*
X177798Y155999D02*
X187867D01*
X177798Y155099D02*
X187867D01*
X177798Y154199D02*
X187867D01*
X177797Y153299D02*
X187867D01*
X177603Y152399D02*
X187867D01*
X176966Y151499D02*
X187867D01*
X176066Y150599D02*
X187867D01*
X175166Y149699D02*
X187867D01*
X186814Y186599D02*
X187822D01*
X174266Y148799D02*
X187660D01*
X173394Y147899D02*
X186760D01*
X121076Y236099D02*
X150243D01*
X121076Y235199D02*
X150243D01*
X121076Y234299D02*
X150243D01*
X121076Y233399D02*
X150243D01*
X121076Y232499D02*
X150243D01*
X121076Y236999D02*
X149880D01*
X121076Y231599D02*
X146970D01*
X121076Y230699D02*
X145913D01*
X121076Y229799D02*
X145035D01*
X121076Y228899D02*
X144578D01*
X121076Y227999D02*
X144489D01*
X135471Y227099D02*
X144489D01*
X140528Y226199D02*
X144489D01*
X121236Y237899D02*
X137230D01*
X122136Y238799D02*
X136137D01*
X123036Y239699D02*
X135237D01*
X123936Y240599D02*
X134337D01*
X124836Y241499D02*
X133437D01*
X128763Y242399D02*
X131794D01*
X129509Y248699D02*
X131071D01*
X129524Y243299D02*
X131046D01*
X129541Y249599D02*
X131024D01*
X129683Y247799D02*
X130891D01*
X129683Y246899D02*
X130891D01*
X129683Y245999D02*
X130891D01*
X129683Y245099D02*
X130891D01*
X129683Y244199D02*
X130891D01*
X121076Y227099D02*
X122514D01*
X121166Y226199D02*
X121986D01*
X158165Y211799D02*
X175050D01*
X155822Y221699D02*
X175048D01*
X152595Y201899D02*
X175044D01*
X158165Y209999D02*
X175032D01*
X158165Y213599D02*
X175026D01*
X157604Y219899D02*
X175024D01*
X152620Y203699D02*
X175020D01*
X158057Y208199D02*
X175013D01*
X158165Y215399D02*
X175011D01*
X158165Y218099D02*
X175010D01*
X155774Y205499D02*
X175009D01*
X156722Y220799D02*
X175009D01*
X158071Y218999D02*
X175009D01*
X158165Y217199D02*
X175009D01*
X158165Y216299D02*
X175009D01*
X158165Y214499D02*
X175009D01*
X158165Y212699D02*
X175009D01*
X158165Y210899D02*
X175009D01*
X158165Y209099D02*
X175009D01*
X157564Y207299D02*
X175009D01*
X156674Y206399D02*
X175009D01*
X154622Y204599D02*
X175009D01*
X152631Y202799D02*
X175009D01*
X155219Y222599D02*
X175000D01*
X152648Y200999D02*
X174992D01*
X155743Y236099D02*
X159306D01*
X155743Y235199D02*
X158738D01*
X156126Y234299D02*
X158185D01*
X166108Y287399D02*
X167407D01*
X166108Y286499D02*
X167407D01*
X166108Y285599D02*
X167407D01*
X166108Y284699D02*
X167407D01*
X166108Y283799D02*
X167407D01*
X166108Y282899D02*
X167407D01*
X166108Y281999D02*
X167407D01*
X166108Y281099D02*
X167407D01*
X166108Y280199D02*
X167407D01*
X166110Y288299D02*
X167405D01*
X166476Y279299D02*
X167338D01*
X164698Y259290D02*
X162698D01*
X160798Y263190D02*
Y261190D01*
X156898Y259290D02*
X158898D01*
X225218Y119394D02*
X227218D01*
X229580Y114441D02*
Y116441D01*
X109472Y161210D02*
Y159210D01*
X105110Y156257D02*
X107110D01*
X109472Y151304D02*
Y153304D01*
X159305Y236571D02*
Y238571D01*
Y243720D02*
Y241720D01*
X154159Y288752D02*
Y290752D01*
X157309Y288752D02*
Y290752D01*
X185525Y295280D02*
X187525D01*
X188805Y288752D02*
Y290752D01*
X198254Y288752D02*
Y290752D01*
X179808Y163337D02*
Y165337D01*
X183383Y167227D02*
X181383D01*
X197887Y228925D02*
X195887D01*
X194312Y232815D02*
Y230815D01*
X190737Y228925D02*
X192737D01*
X215581Y288162D02*
G03X218731Y285013I3150J0D01*
G01X215581Y288162D02*
Y300761D01*
X182313*
Y284225*
X176408D02*
G03X182313I2953J0D01*
G01X176408D02*
X176408D01*
Y300761*
X114400*
Y288162*
X111250Y285013D02*
G03X114400Y288162I0J3149D01*
G01X111250Y285013D02*
X100030D01*
Y100000*
X306139*
Y145658*
X229951*
Y285013*
X218731*
G54D34*
X132142Y224135D02*
X138710D01*
X140201Y222644*
X146989*
X152993Y228648D02*
Y240146D01*
X153007*
X180650Y222644D02*
X187627D01*
X188506*
X188524Y222626*
X194312*
X187627Y222644D02*
Y222669D01*
G54D57*
X210852Y295280D03*
X207702D03*
G54D58*
X211443Y115752D03*
X116167D03*
G54D59*
X204553Y295280D03*
X201403D03*
X198254D03*
X195104D03*
X191954D03*
X188805D03*
X173057D03*
X169907D03*
X166757D03*
X163608D03*
X160458D03*
X157309D03*
X154159D03*
X151009D03*
X147860D03*
X144710D03*
X141561D03*
X138411D03*
X135261D03*
X132112D03*
X128962D03*
X125813D03*
X122663D03*
X119513D03*
G54D60*
X146989Y222644D03*
Y220675D03*
Y218707D03*
Y216738D03*
Y214770D03*
Y212801D03*
Y210833D03*
Y208864D03*
Y206896D03*
Y204927D03*
Y202959D03*
Y200990D03*
X180650D03*
Y202959D03*
Y204927D03*
Y206896D03*
Y208864D03*
Y210833D03*
Y212801D03*
Y214770D03*
Y216738D03*
Y218707D03*
Y220675D03*
Y222644D03*
G54D61*
X152993Y194987D03*
X154961D03*
X156930D03*
X158898D03*
X160867D03*
X162835D03*
X164804D03*
X166772D03*
X168741D03*
X170709D03*
X172678D03*
X174646D03*
Y228648D03*
X172678D03*
X170709D03*
X168741D03*
X166772D03*
X164804D03*
X162835D03*
X160867D03*
X158898D03*
X156930D03*
X154961D03*
X152993D03*
G54D62*
X120496Y156257D03*
X109472D03*
X240604Y119394D03*
X229580D03*
G74*
X0Y0D02*
M02*
