solid CATIA STL
  facet normal  1.000000e+000  0.000000e+000  -0.000000e+000
    outer loop
      vertex  1.500000e+000  2.500000e+000 -3.850000e+001
      vertex  1.500000e+000  2.792893e+000 -3.779289e+001
      vertex  1.500000e+000  3.500000e+000 -4.500000e+000
    endloop
  endfacet
  facet normal  1.000000e+000  0.000000e+000  -0.000000e+000
    outer loop
      vertex  1.500000e+000  2.792893e+000 -3.779289e+001
      vertex  1.500000e+000  3.500000e+000 -3.750000e+001
      vertex  1.500000e+000  3.500000e+000 -4.500000e+000
    endloop
  endfacet
  facet normal  9.999999e-001  0.000000e+000  0.000000e+000
    outer loop
      vertex  1.500000e+000  5.820711e+001 -3.779289e+001
      vertex  1.500000e+000  5.750000e+001 -4.500000e+000
      vertex  1.500000e+000  5.750000e+001 -3.750000e+001
    endloop
  endfacet
  facet normal  1.000000e+000  0.000000e+000  0.000000e+000
    outer loop
      vertex  1.500000e+000  1.000000e+000 -1.000000e+000
      vertex  1.500000e+000  1.000000e+000 -4.300000e+001
      vertex  1.500000e+000  2.500000e+000 -3.500000e+000
    endloop
  endfacet
  facet normal  1.000000e+000  0.000000e+000  -0.000000e+000
    outer loop
      vertex  1.500000e+000  1.000000e+000 -1.000000e+000
      vertex  1.500000e+000  2.500000e+000 -3.500000e+000
      vertex  1.500000e+000  2.792893e+000 -2.792893e+000
    endloop
  endfacet
  facet normal  1.000000e+000  0.000000e+000  -0.000000e+000
    outer loop
      vertex  1.500000e+000  1.000000e+000 -1.000000e+000
      vertex  1.500000e+000  2.792893e+000 -2.792893e+000
      vertex  1.500000e+000  3.500000e+000 -2.500000e+000
    endloop
  endfacet
  facet normal  1.000000e+000  0.000000e+000  -0.000000e+000
    outer loop
      vertex  1.500000e+000  1.000000e+000 -1.000000e+000
      vertex  1.500000e+000  3.500000e+000 -2.500000e+000
      vertex  1.500000e+000  5.750000e+001 -2.500000e+000
    endloop
  endfacet
  facet normal  1.000000e+000  0.000000e+000  -0.000000e+000
    outer loop
      vertex  1.500000e+000  1.000000e+000 -1.000000e+000
      vertex  1.500000e+000  5.750000e+001 -2.500000e+000
      vertex  1.500000e+000  6.300000e+001 -1.000000e+000
    endloop
  endfacet
  facet normal  1.000000e+000  0.000000e+000  0.000000e+000
    outer loop
      vertex  1.500000e+000  1.000000e+000 -4.300000e+001
      vertex  1.500000e+000  6.300000e+001 -4.300000e+001
      vertex  1.500000e+000  5.750000e+001 -3.950000e+001
    endloop
  endfacet
  facet normal  9.999999e-001  0.000000e+000  0.000000e+000
    outer loop
      vertex  1.500000e+000  1.000000e+000 -4.300000e+001
      vertex  1.500000e+000  5.750000e+001 -3.950000e+001
      vertex  1.500000e+000  3.500000e+000 -3.950000e+001
    endloop
  endfacet
  facet normal  9.999999e-001  0.000000e+000  0.000000e+000
    outer loop
      vertex  1.500000e+000  1.000000e+000 -4.300000e+001
      vertex  1.500000e+000  3.500000e+000 -3.950000e+001
      vertex  1.500000e+000  2.792893e+000 -3.920711e+001
    endloop
  endfacet
  facet normal  1.000000e+000  0.000000e+000  0.000000e+000
    outer loop
      vertex  1.500000e+000  1.000000e+000 -4.300000e+001
      vertex  1.500000e+000  2.792893e+000 -3.920711e+001
      vertex  1.500000e+000  2.500000e+000 -3.850000e+001
    endloop
  endfacet
  facet normal  1.000000e+000  0.000000e+000  -0.000000e+000
    outer loop
      vertex  1.500000e+000  1.000000e+000 -4.300000e+001
      vertex  1.500000e+000  2.500000e+000 -3.850000e+001
      vertex  1.500000e+000  3.500000e+000 -4.500000e+000
    endloop
  endfacet
  facet normal  1.000000e+000  0.000000e+000  0.000000e+000
    outer loop
      vertex  1.500000e+000  1.000000e+000 -4.300000e+001
      vertex  1.500000e+000  3.500000e+000 -4.500000e+000
      vertex  1.500000e+000  2.792893e+000 -4.207107e+000
    endloop
  endfacet
  facet normal  1.000000e+000  0.000000e+000  0.000000e+000
    outer loop
      vertex  1.500000e+000  1.000000e+000 -4.300000e+001
      vertex  1.500000e+000  2.792893e+000 -4.207107e+000
      vertex  1.500000e+000  2.500000e+000 -3.500000e+000
    endloop
  endfacet
  facet normal  1.000000e+000  0.000000e+000  0.000000e+000
    outer loop
      vertex  1.500000e+000  6.300000e+001 -4.300000e+001
      vertex  1.500000e+000  5.850000e+001 -3.500000e+000
      vertex  1.500000e+000  5.820711e+001 -4.207107e+000
    endloop
  endfacet
  facet normal  9.999999e-001  0.000000e+000  0.000000e+000
    outer loop
      vertex  1.500000e+000  6.300000e+001 -4.300000e+001
      vertex  1.500000e+000  5.820711e+001 -4.207107e+000
      vertex  1.500000e+000  5.750000e+001 -4.500000e+000
    endloop
  endfacet
  facet normal  1.000000e+000  0.000000e+000  0.000000e+000
    outer loop
      vertex  1.500000e+000  6.300000e+001 -4.300000e+001
      vertex  1.500000e+000  5.750000e+001 -4.500000e+000
      vertex  1.500000e+000  5.820711e+001 -3.779289e+001
    endloop
  endfacet
  facet normal  1.000000e+000  0.000000e+000  0.000000e+000
    outer loop
      vertex  1.500000e+000  6.300000e+001 -4.300000e+001
      vertex  1.500000e+000  5.820711e+001 -3.779289e+001
      vertex  1.500000e+000  5.850000e+001 -3.850000e+001
    endloop
  endfacet
  facet normal  1.000000e+000  0.000000e+000  0.000000e+000
    outer loop
      vertex  1.500000e+000  6.300000e+001 -4.300000e+001
      vertex  1.500000e+000  5.850000e+001 -3.850000e+001
      vertex  1.500000e+000  5.820711e+001 -3.920711e+001
    endloop
  endfacet
  facet normal  1.000000e+000  0.000000e+000  0.000000e+000
    outer loop
      vertex  1.500000e+000  6.300000e+001 -4.300000e+001
      vertex  1.500000e+000  5.820711e+001 -3.920711e+001
      vertex  1.500000e+000  5.750000e+001 -3.950000e+001
    endloop
  endfacet
  facet normal  1.000000e+000  -0.000000e+000  0.000000e+000
    outer loop
      vertex  1.500000e+000  6.300000e+001 -1.000000e+000
      vertex  1.500000e+000  5.750000e+001 -2.500000e+000
      vertex  1.500000e+000  5.820711e+001 -2.792893e+000
    endloop
  endfacet
  facet normal  1.000000e+000  -0.000000e+000  0.000000e+000
    outer loop
      vertex  1.500000e+000  6.300000e+001 -1.000000e+000
      vertex  1.500000e+000  5.820711e+001 -2.792893e+000
      vertex  1.500000e+000  5.850000e+001 -3.500000e+000
    endloop
  endfacet
  facet normal  9.999999e-001  -0.000000e+000  0.000000e+000
    outer loop
      vertex  1.500000e+000  6.300000e+001 -1.000000e+000
      vertex  1.500000e+000  5.850000e+001 -3.500000e+000
      vertex  1.500000e+000  6.300000e+001 -4.300000e+001
    endloop
  endfacet
  facet normal  9.999999e-001  -0.000000e+000  0.000000e+000
    outer loop
      vertex  1.500000e+000  5.750000e+001 -2.500000e+000
      vertex  1.500000e+000  3.500000e+000 -2.500000e+000
      vertex  1.500000e+000  5.679289e+001 -2.792893e+000
    endloop
  endfacet
  facet normal  1.000000e+000  0.000000e+000  0.000000e+000
    outer loop
      vertex  1.500000e+000  5.679289e+001 -2.792893e+000
      vertex  1.500000e+000  3.500000e+000 -2.500000e+000
      vertex  1.500000e+000  4.207107e+000 -2.792893e+000
    endloop
  endfacet
  facet normal  1.000000e+000  -0.000000e+000  0.000000e+000
    outer loop
      vertex  1.500000e+000  5.679289e+001 -2.792893e+000
      vertex  1.500000e+000  4.207107e+000 -2.792893e+000
      vertex  1.500000e+000  5.650000e+001 -3.500000e+000
    endloop
  endfacet
  facet normal  1.000000e+000  0.000000e+000  0.000000e+000
    outer loop
      vertex  1.500000e+000  5.650000e+001 -3.500000e+000
      vertex  1.500000e+000  4.207107e+000 -2.792893e+000
      vertex  1.500000e+000  4.500000e+000 -3.500000e+000
    endloop
  endfacet
  facet normal  1.000000e+000  -0.000000e+000  0.000000e+000
    outer loop
      vertex  1.500000e+000  5.650000e+001 -3.500000e+000
      vertex  1.500000e+000  4.500000e+000 -3.500000e+000
      vertex  1.500000e+000  5.679289e+001 -4.207107e+000
    endloop
  endfacet
  facet normal  1.000000e+000  0.000000e+000  0.000000e+000
    outer loop
      vertex  1.500000e+000  5.679289e+001 -4.207107e+000
      vertex  1.500000e+000  4.500000e+000 -3.500000e+000
      vertex  1.500000e+000  4.207107e+000 -4.207107e+000
    endloop
  endfacet
  facet normal  1.000000e+000  -0.000000e+000  0.000000e+000
    outer loop
      vertex  1.500000e+000  5.679289e+001 -4.207107e+000
      vertex  1.500000e+000  4.207107e+000 -4.207107e+000
      vertex  1.500000e+000  5.750000e+001 -4.500000e+000
    endloop
  endfacet
  facet normal  9.999999e-001  0.000000e+000  0.000000e+000
    outer loop
      vertex  1.500000e+000  5.750000e+001 -4.500000e+000
      vertex  1.500000e+000  4.207107e+000 -4.207107e+000
      vertex  1.500000e+000  3.500000e+000 -4.500000e+000
    endloop
  endfacet
  facet normal  1.000000e+000  -0.000000e+000  0.000000e+000
    outer loop
      vertex  1.500000e+000  5.750000e+001 -4.500000e+000
      vertex  1.500000e+000  3.500000e+000 -4.500000e+000
      vertex  1.500000e+000  5.750000e+001 -3.750000e+001
    endloop
  endfacet
  facet normal  1.000000e+000  0.000000e+000  0.000000e+000
    outer loop
      vertex  1.500000e+000  5.750000e+001 -3.750000e+001
      vertex  1.500000e+000  3.500000e+000 -4.500000e+000
      vertex  1.500000e+000  3.500000e+000 -3.750000e+001
    endloop
  endfacet
  facet normal  1.000000e+000  -0.000000e+000  0.000000e+000
    outer loop
      vertex  1.500000e+000  5.750000e+001 -3.750000e+001
      vertex  1.500000e+000  3.500000e+000 -3.750000e+001
      vertex  1.500000e+000  5.679289e+001 -3.779289e+001
    endloop
  endfacet
  facet normal  1.000000e+000  0.000000e+000  0.000000e+000
    outer loop
      vertex  1.500000e+000  5.679289e+001 -3.779289e+001
      vertex  1.500000e+000  3.500000e+000 -3.750000e+001
      vertex  1.500000e+000  4.207107e+000 -3.779289e+001
    endloop
  endfacet
  facet normal  1.000000e+000  -0.000000e+000  0.000000e+000
    outer loop
      vertex  1.500000e+000  5.679289e+001 -3.779289e+001
      vertex  1.500000e+000  4.207107e+000 -3.779289e+001
      vertex  1.500000e+000  5.650000e+001 -3.850000e+001
    endloop
  endfacet
  facet normal  1.000000e+000  0.000000e+000  0.000000e+000
    outer loop
      vertex  1.500000e+000  5.650000e+001 -3.850000e+001
      vertex  1.500000e+000  4.207107e+000 -3.779289e+001
      vertex  1.500000e+000  4.500000e+000 -3.850000e+001
    endloop
  endfacet
  facet normal  1.000000e+000  -0.000000e+000  0.000000e+000
    outer loop
      vertex  1.500000e+000  5.650000e+001 -3.850000e+001
      vertex  1.500000e+000  4.500000e+000 -3.850000e+001
      vertex  1.500000e+000  5.679289e+001 -3.920711e+001
    endloop
  endfacet
  facet normal  1.000000e+000  0.000000e+000  0.000000e+000
    outer loop
      vertex  1.500000e+000  5.679289e+001 -3.920711e+001
      vertex  1.500000e+000  4.500000e+000 -3.850000e+001
      vertex  1.500000e+000  4.207107e+000 -3.920711e+001
    endloop
  endfacet
  facet normal  1.000000e+000  -0.000000e+000  0.000000e+000
    outer loop
      vertex  1.500000e+000  5.679289e+001 -3.920711e+001
      vertex  1.500000e+000  4.207107e+000 -3.920711e+001
      vertex  1.500000e+000  5.750000e+001 -3.950000e+001
    endloop
  endfacet
  facet normal  1.000000e+000  0.000000e+000  0.000000e+000
    outer loop
      vertex  1.500000e+000  5.750000e+001 -3.950000e+001
      vertex  1.500000e+000  4.207107e+000 -3.920711e+001
      vertex  1.500000e+000  3.500000e+000 -3.950000e+001
    endloop
  endfacet
  facet normal  0.000000e+000  9.238800e-001 -3.826822e-001
    outer loop
      vertex  1.500000e+000  5.850000e+001 -3.850000e+001
      vertex  6.500000e+000  5.850000e+001 -3.850000e+001
      vertex  1.500000e+000  5.820711e+001 -3.920711e+001
    endloop
  endfacet
  facet normal  0.000000e+000  9.238800e-001 -3.826822e-001
    outer loop
      vertex  1.500000e+000  5.820711e+001 -3.920711e+001
      vertex  6.500000e+000  5.850000e+001 -3.850000e+001
      vertex  6.500000e+000  5.820711e+001 -3.920711e+001
    endloop
  endfacet
  facet normal  0.000000e+000  3.826822e-001 -9.238800e-001
    outer loop
      vertex  1.500000e+000  5.820711e+001 -3.920711e+001
      vertex  6.500000e+000  5.820711e+001 -3.920711e+001
      vertex  1.500000e+000  5.750000e+001 -3.950000e+001
    endloop
  endfacet
  facet normal  0.000000e+000  3.826822e-001 -9.238800e-001
    outer loop
      vertex  1.500000e+000  5.750000e+001 -3.950000e+001
      vertex  6.500000e+000  5.820711e+001 -3.920711e+001
      vertex  6.500000e+000  5.750000e+001 -3.950000e+001
    endloop
  endfacet
  facet normal  -0.000000e+000 -3.826822e-001 -9.238800e-001
    outer loop
      vertex  1.500000e+000  5.750000e+001 -3.950000e+001
      vertex  6.500000e+000  5.750000e+001 -3.950000e+001
      vertex  1.500000e+000  5.679289e+001 -3.920711e+001
    endloop
  endfacet
  facet normal  0.000000e+000 -3.826822e-001 -9.238800e-001
    outer loop
      vertex  1.500000e+000  5.679289e+001 -3.920711e+001
      vertex  6.500000e+000  5.750000e+001 -3.950000e+001
      vertex  6.500000e+000  5.679289e+001 -3.920711e+001
    endloop
  endfacet
  facet normal  -0.000000e+000 -9.238800e-001 -3.826822e-001
    outer loop
      vertex  1.500000e+000  5.679289e+001 -3.920711e+001
      vertex  6.500000e+000  5.679289e+001 -3.920711e+001
      vertex  1.500000e+000  5.650000e+001 -3.850000e+001
    endloop
  endfacet
  facet normal  0.000000e+000 -9.238800e-001 -3.826822e-001
    outer loop
      vertex  1.500000e+000  5.650000e+001 -3.850000e+001
      vertex  6.500000e+000  5.679289e+001 -3.920711e+001
      vertex  6.500000e+000  5.650000e+001 -3.850000e+001
    endloop
  endfacet
  facet normal  0.000000e+000 -9.238800e-001  3.826822e-001
    outer loop
      vertex  1.500000e+000  5.650000e+001 -3.850000e+001
      vertex  6.500000e+000  5.650000e+001 -3.850000e+001
      vertex  1.500000e+000  5.679289e+001 -3.779289e+001
    endloop
  endfacet
  facet normal  0.000000e+000 -9.238800e-001  3.826822e-001
    outer loop
      vertex  1.500000e+000  5.679289e+001 -3.779289e+001
      vertex  6.500000e+000  5.650000e+001 -3.850000e+001
      vertex  6.500000e+000  5.679289e+001 -3.779289e+001
    endloop
  endfacet
  facet normal  0.000000e+000 -3.826822e-001  9.238800e-001
    outer loop
      vertex  1.500000e+000  5.679289e+001 -3.779289e+001
      vertex  6.500000e+000  5.679289e+001 -3.779289e+001
      vertex  1.500000e+000  5.750000e+001 -3.750000e+001
    endloop
  endfacet
  facet normal  0.000000e+000 -3.826822e-001  9.238800e-001
    outer loop
      vertex  1.500000e+000  5.750000e+001 -3.750000e+001
      vertex  6.500000e+000  5.679289e+001 -3.779289e+001
      vertex  6.500000e+000  5.750000e+001 -3.750000e+001
    endloop
  endfacet
  facet normal  0.000000e+000  3.826822e-001  9.238800e-001
    outer loop
      vertex  1.500000e+000  5.750000e+001 -3.750000e+001
      vertex  6.500000e+000  5.750000e+001 -3.750000e+001
      vertex  1.500000e+000  5.820711e+001 -3.779289e+001
    endloop
  endfacet
  facet normal  -0.000000e+000  3.826822e-001  9.238800e-001
    outer loop
      vertex  1.500000e+000  5.820711e+001 -3.779289e+001
      vertex  6.500000e+000  5.750000e+001 -3.750000e+001
      vertex  6.500000e+000  5.820711e+001 -3.779289e+001
    endloop
  endfacet
  facet normal  0.000000e+000  9.238800e-001  3.826822e-001
    outer loop
      vertex  1.500000e+000  5.820711e+001 -3.779289e+001
      vertex  6.500000e+000  5.820711e+001 -3.779289e+001
      vertex  1.500000e+000  5.850000e+001 -3.850000e+001
    endloop
  endfacet
  facet normal  -0.000000e+000  9.238800e-001  3.826822e-001
    outer loop
      vertex  1.500000e+000  5.850000e+001 -3.850000e+001
      vertex  6.500000e+000  5.820711e+001 -3.779289e+001
      vertex  6.500000e+000  5.850000e+001 -3.850000e+001
    endloop
  endfacet
  facet normal  0.000000e+000  9.238796e-001 -3.826833e-001
    outer loop
      vertex  1.500000e+000  4.500000e+000 -3.850000e+001
      vertex  6.500000e+000  4.500000e+000 -3.850000e+001
      vertex  1.500000e+000  4.207107e+000 -3.920711e+001
    endloop
  endfacet
  facet normal  0.000000e+000  9.238796e-001 -3.826833e-001
    outer loop
      vertex  1.500000e+000  4.207107e+000 -3.920711e+001
      vertex  6.500000e+000  4.500000e+000 -3.850000e+001
      vertex  6.500000e+000  4.207107e+000 -3.920711e+001
    endloop
  endfacet
  facet normal  0.000000e+000  3.826827e-001 -9.238799e-001
    outer loop
      vertex  1.500000e+000  4.207107e+000 -3.920711e+001
      vertex  6.500000e+000  4.207107e+000 -3.920711e+001
      vertex  1.500000e+000  3.500000e+000 -3.950000e+001
    endloop
  endfacet
  facet normal  0.000000e+000  3.826827e-001 -9.238799e-001
    outer loop
      vertex  1.500000e+000  3.500000e+000 -3.950000e+001
      vertex  6.500000e+000  4.207107e+000 -3.920711e+001
      vertex  6.500000e+000  3.500000e+000 -3.950000e+001
    endloop
  endfacet
  facet normal  -0.000000e+000 -3.826826e-001 -9.238799e-001
    outer loop
      vertex  1.500000e+000  3.500000e+000 -3.950000e+001
      vertex  6.500000e+000  3.500000e+000 -3.950000e+001
      vertex  1.500000e+000  2.792893e+000 -3.920711e+001
    endloop
  endfacet
  facet normal  0.000000e+000 -3.826826e-001 -9.238799e-001
    outer loop
      vertex  1.500000e+000  2.792893e+000 -3.920711e+001
      vertex  6.500000e+000  3.500000e+000 -3.950000e+001
      vertex  6.500000e+000  2.792893e+000 -3.920711e+001
    endloop
  endfacet
  facet normal  -0.000000e+000 -9.238797e-001 -3.826830e-001
    outer loop
      vertex  1.500000e+000  2.792893e+000 -3.920711e+001
      vertex  6.500000e+000  2.792893e+000 -3.920711e+001
      vertex  1.500000e+000  2.500000e+000 -3.850000e+001
    endloop
  endfacet
  facet normal  0.000000e+000 -9.238797e-001 -3.826830e-001
    outer loop
      vertex  1.500000e+000  2.500000e+000 -3.850000e+001
      vertex  6.500000e+000  2.792893e+000 -3.920711e+001
      vertex  6.500000e+000  2.500000e+000 -3.850000e+001
    endloop
  endfacet
  facet normal  0.000000e+000 -9.238797e-001  3.826830e-001
    outer loop
      vertex  1.500000e+000  2.500000e+000 -3.850000e+001
      vertex  6.500000e+000  2.500000e+000 -3.850000e+001
      vertex  1.500000e+000  2.792893e+000 -3.779289e+001
    endloop
  endfacet
  facet normal  0.000000e+000 -9.238797e-001  3.826830e-001
    outer loop
      vertex  1.500000e+000  2.792893e+000 -3.779289e+001
      vertex  6.500000e+000  2.500000e+000 -3.850000e+001
      vertex  6.500000e+000  2.792893e+000 -3.779289e+001
    endloop
  endfacet
  facet normal  0.000000e+000 -3.826826e-001  9.238799e-001
    outer loop
      vertex  1.500000e+000  2.792893e+000 -3.779289e+001
      vertex  6.500000e+000  2.792893e+000 -3.779289e+001
      vertex  1.500000e+000  3.500000e+000 -3.750000e+001
    endloop
  endfacet
  facet normal  0.000000e+000 -3.826826e-001  9.238799e-001
    outer loop
      vertex  1.500000e+000  3.500000e+000 -3.750000e+001
      vertex  6.500000e+000  2.792893e+000 -3.779289e+001
      vertex  6.500000e+000  3.500000e+000 -3.750000e+001
    endloop
  endfacet
  facet normal  0.000000e+000  3.826827e-001  9.238799e-001
    outer loop
      vertex  1.500000e+000  3.500000e+000 -3.750000e+001
      vertex  6.500000e+000  3.500000e+000 -3.750000e+001
      vertex  1.500000e+000  4.207107e+000 -3.779289e+001
    endloop
  endfacet
  facet normal  -0.000000e+000  3.826827e-001  9.238799e-001
    outer loop
      vertex  1.500000e+000  4.207107e+000 -3.779289e+001
      vertex  6.500000e+000  3.500000e+000 -3.750000e+001
      vertex  6.500000e+000  4.207107e+000 -3.779289e+001
    endloop
  endfacet
  facet normal  0.000000e+000  9.238796e-001  3.826833e-001
    outer loop
      vertex  1.500000e+000  4.207107e+000 -3.779289e+001
      vertex  6.500000e+000  4.207107e+000 -3.779289e+001
      vertex  1.500000e+000  4.500000e+000 -3.850000e+001
    endloop
  endfacet
  facet normal  -0.000000e+000  9.238796e-001  3.826833e-001
    outer loop
      vertex  1.500000e+000  4.500000e+000 -3.850000e+001
      vertex  6.500000e+000  4.207107e+000 -3.779289e+001
      vertex  6.500000e+000  4.500000e+000 -3.850000e+001
    endloop
  endfacet
  facet normal  0.000000e+000  9.238799e-001 -3.826827e-001
    outer loop
      vertex  1.500000e+000  5.850000e+001 -3.500000e+000
      vertex  6.500000e+000  5.850000e+001 -3.500000e+000
      vertex  1.500000e+000  5.820711e+001 -4.207107e+000
    endloop
  endfacet
  facet normal  0.000000e+000  9.238799e-001 -3.826827e-001
    outer loop
      vertex  1.500000e+000  5.820711e+001 -4.207107e+000
      vertex  6.500000e+000  5.850000e+001 -3.500000e+000
      vertex  6.500000e+000  5.820711e+001 -4.207107e+000
    endloop
  endfacet
  facet normal  0.000000e+000  3.826833e-001 -9.238796e-001
    outer loop
      vertex  1.500000e+000  5.820711e+001 -4.207107e+000
      vertex  6.500000e+000  5.820711e+001 -4.207107e+000
      vertex  1.500000e+000  5.750000e+001 -4.500000e+000
    endloop
  endfacet
  facet normal  0.000000e+000  3.826833e-001 -9.238796e-001
    outer loop
      vertex  1.500000e+000  5.750000e+001 -4.500000e+000
      vertex  6.500000e+000  5.820711e+001 -4.207107e+000
      vertex  6.500000e+000  5.750000e+001 -4.500000e+000
    endloop
  endfacet
  facet normal  -0.000000e+000 -3.826833e-001 -9.238796e-001
    outer loop
      vertex  1.500000e+000  5.750000e+001 -4.500000e+000
      vertex  6.500000e+000  5.750000e+001 -4.500000e+000
      vertex  1.500000e+000  5.679289e+001 -4.207107e+000
    endloop
  endfacet
  facet normal  0.000000e+000 -3.826833e-001 -9.238796e-001
    outer loop
      vertex  1.500000e+000  5.679289e+001 -4.207107e+000
      vertex  6.500000e+000  5.750000e+001 -4.500000e+000
      vertex  6.500000e+000  5.679289e+001 -4.207107e+000
    endloop
  endfacet
  facet normal  -0.000000e+000 -9.238799e-001 -3.826827e-001
    outer loop
      vertex  1.500000e+000  5.679289e+001 -4.207107e+000
      vertex  6.500000e+000  5.679289e+001 -4.207107e+000
      vertex  1.500000e+000  5.650000e+001 -3.500000e+000
    endloop
  endfacet
  facet normal  0.000000e+000 -9.238799e-001 -3.826827e-001
    outer loop
      vertex  1.500000e+000  5.650000e+001 -3.500000e+000
      vertex  6.500000e+000  5.679289e+001 -4.207107e+000
      vertex  6.500000e+000  5.650000e+001 -3.500000e+000
    endloop
  endfacet
  facet normal  0.000000e+000 -9.238799e-001  3.826826e-001
    outer loop
      vertex  1.500000e+000  5.650000e+001 -3.500000e+000
      vertex  6.500000e+000  5.650000e+001 -3.500000e+000
      vertex  1.500000e+000  5.679289e+001 -2.792893e+000
    endloop
  endfacet
  facet normal  0.000000e+000 -9.238799e-001  3.826826e-001
    outer loop
      vertex  1.500000e+000  5.679289e+001 -2.792893e+000
      vertex  6.500000e+000  5.650000e+001 -3.500000e+000
      vertex  6.500000e+000  5.679289e+001 -2.792893e+000
    endloop
  endfacet
  facet normal  0.000000e+000 -3.826830e-001  9.238797e-001
    outer loop
      vertex  1.500000e+000  5.679289e+001 -2.792893e+000
      vertex  6.500000e+000  5.679289e+001 -2.792893e+000
      vertex  1.500000e+000  5.750000e+001 -2.500000e+000
    endloop
  endfacet
  facet normal  0.000000e+000 -3.826830e-001  9.238797e-001
    outer loop
      vertex  1.500000e+000  5.750000e+001 -2.500000e+000
      vertex  6.500000e+000  5.679289e+001 -2.792893e+000
      vertex  6.500000e+000  5.750000e+001 -2.500000e+000
    endloop
  endfacet
  facet normal  0.000000e+000  3.826830e-001  9.238797e-001
    outer loop
      vertex  1.500000e+000  5.750000e+001 -2.500000e+000
      vertex  6.500000e+000  5.750000e+001 -2.500000e+000
      vertex  1.500000e+000  5.820711e+001 -2.792893e+000
    endloop
  endfacet
  facet normal  -0.000000e+000  3.826830e-001  9.238797e-001
    outer loop
      vertex  1.500000e+000  5.820711e+001 -2.792893e+000
      vertex  6.500000e+000  5.750000e+001 -2.500000e+000
      vertex  6.500000e+000  5.820711e+001 -2.792893e+000
    endloop
  endfacet
  facet normal  0.000000e+000  9.238799e-001  3.826826e-001
    outer loop
      vertex  1.500000e+000  5.820711e+001 -2.792893e+000
      vertex  6.500000e+000  5.820711e+001 -2.792893e+000
      vertex  1.500000e+000  5.850000e+001 -3.500000e+000
    endloop
  endfacet
  facet normal  -0.000000e+000  9.238799e-001  3.826826e-001
    outer loop
      vertex  1.500000e+000  5.850000e+001 -3.500000e+000
      vertex  6.500000e+000  5.820711e+001 -2.792893e+000
      vertex  6.500000e+000  5.850000e+001 -3.500000e+000
    endloop
  endfacet
  facet normal  0.000000e+000  9.238794e-001 -3.826838e-001
    outer loop
      vertex  1.500000e+000  4.500000e+000 -3.500000e+000
      vertex  6.500000e+000  4.500000e+000 -3.500000e+000
      vertex  1.500000e+000  4.207107e+000 -4.207107e+000
    endloop
  endfacet
  facet normal  0.000000e+000  9.238794e-001 -3.826838e-001
    outer loop
      vertex  1.500000e+000  4.207107e+000 -4.207107e+000
      vertex  6.500000e+000  4.500000e+000 -3.500000e+000
      vertex  6.500000e+000  4.207107e+000 -4.207107e+000
    endloop
  endfacet
  facet normal  0.000000e+000  3.826838e-001 -9.238794e-001
    outer loop
      vertex  1.500000e+000  4.207107e+000 -4.207107e+000
      vertex  6.500000e+000  4.207107e+000 -4.207107e+000
      vertex  1.500000e+000  3.500000e+000 -4.500000e+000
    endloop
  endfacet
  facet normal  0.000000e+000  3.826838e-001 -9.238794e-001
    outer loop
      vertex  1.500000e+000  3.500000e+000 -4.500000e+000
      vertex  6.500000e+000  4.207107e+000 -4.207107e+000
      vertex  6.500000e+000  3.500000e+000 -4.500000e+000
    endloop
  endfacet
  facet normal  -0.000000e+000 -3.826836e-001 -9.238794e-001
    outer loop
      vertex  1.500000e+000  3.500000e+000 -4.500000e+000
      vertex  6.500000e+000  3.500000e+000 -4.500000e+000
      vertex  1.500000e+000  2.792893e+000 -4.207107e+000
    endloop
  endfacet
  facet normal  0.000000e+000 -3.826836e-001 -9.238794e-001
    outer loop
      vertex  1.500000e+000  2.792893e+000 -4.207107e+000
      vertex  6.500000e+000  3.500000e+000 -4.500000e+000
      vertex  6.500000e+000  2.792893e+000 -4.207107e+000
    endloop
  endfacet
  facet normal  -0.000000e+000 -9.238795e-001 -3.826835e-001
    outer loop
      vertex  1.500000e+000  2.792893e+000 -4.207107e+000
      vertex  6.500000e+000  2.792893e+000 -4.207107e+000
      vertex  1.500000e+000  2.500000e+000 -3.500000e+000
    endloop
  endfacet
  facet normal  0.000000e+000 -9.238795e-001 -3.826835e-001
    outer loop
      vertex  1.500000e+000  2.500000e+000 -3.500000e+000
      vertex  6.500000e+000  2.792893e+000 -4.207107e+000
      vertex  6.500000e+000  2.500000e+000 -3.500000e+000
    endloop
  endfacet
  facet normal  0.000000e+000 -9.238795e-001  3.826833e-001
    outer loop
      vertex  1.500000e+000  2.500000e+000 -3.500000e+000
      vertex  6.500000e+000  2.500000e+000 -3.500000e+000
      vertex  1.500000e+000  2.792893e+000 -2.792893e+000
    endloop
  endfacet
  facet normal  0.000000e+000 -9.238795e-001  3.826833e-001
    outer loop
      vertex  1.500000e+000  2.792893e+000 -2.792893e+000
      vertex  6.500000e+000  2.500000e+000 -3.500000e+000
      vertex  6.500000e+000  2.792893e+000 -2.792893e+000
    endloop
  endfacet
  facet normal  0.000000e+000 -3.826833e-001  9.238795e-001
    outer loop
      vertex  1.500000e+000  2.792893e+000 -2.792893e+000
      vertex  6.500000e+000  2.792893e+000 -2.792893e+000
      vertex  1.500000e+000  3.500000e+000 -2.500000e+000
    endloop
  endfacet
  facet normal  0.000000e+000 -3.826833e-001  9.238795e-001
    outer loop
      vertex  1.500000e+000  3.500000e+000 -2.500000e+000
      vertex  6.500000e+000  2.792893e+000 -2.792893e+000
      vertex  6.500000e+000  3.500000e+000 -2.500000e+000
    endloop
  endfacet
  facet normal  0.000000e+000  3.826835e-001  9.238795e-001
    outer loop
      vertex  1.500000e+000  3.500000e+000 -2.500000e+000
      vertex  6.500000e+000  3.500000e+000 -2.500000e+000
      vertex  1.500000e+000  4.207107e+000 -2.792893e+000
    endloop
  endfacet
  facet normal  -0.000000e+000  3.826835e-001  9.238795e-001
    outer loop
      vertex  1.500000e+000  4.207107e+000 -2.792893e+000
      vertex  6.500000e+000  3.500000e+000 -2.500000e+000
      vertex  6.500000e+000  4.207107e+000 -2.792893e+000
    endloop
  endfacet
  facet normal  0.000000e+000  9.238794e-001  3.826836e-001
    outer loop
      vertex  1.500000e+000  4.207107e+000 -2.792893e+000
      vertex  6.500000e+000  4.207107e+000 -2.792893e+000
      vertex  1.500000e+000  4.500000e+000 -3.500000e+000
    endloop
  endfacet
  facet normal  -0.000000e+000  9.238794e-001  3.826836e-001
    outer loop
      vertex  1.500000e+000  4.500000e+000 -3.500000e+000
      vertex  6.500000e+000  4.207107e+000 -2.792893e+000
      vertex  6.500000e+000  4.500000e+000 -3.500000e+000
    endloop
  endfacet
  facet normal  1.000000e+000  0.000000e+000  0.000000e+000
    outer loop
      vertex  6.500000e+000  5.679289e+001 -3.779289e+001
      vertex  6.500000e+000  5.820711e+001 -3.779289e+001
      vertex  6.500000e+000  5.750000e+001 -3.750000e+001
    endloop
  endfacet
  facet normal  1.000000e+000  -0.000000e+000  0.000000e+000
    outer loop
      vertex  6.500000e+000  5.820711e+001 -3.779289e+001
      vertex  6.500000e+000  5.679289e+001 -3.779289e+001
      vertex  6.500000e+000  5.850000e+001 -3.850000e+001
    endloop
  endfacet
  facet normal  9.999999e-001  0.000000e+000  0.000000e+000
    outer loop
      vertex  6.500000e+000  5.850000e+001 -3.850000e+001
      vertex  6.500000e+000  5.679289e+001 -3.779289e+001
      vertex  6.500000e+000  5.650000e+001 -3.850000e+001
    endloop
  endfacet
  facet normal  9.999999e-001  -0.000000e+000  0.000000e+000
    outer loop
      vertex  6.500000e+000  5.850000e+001 -3.850000e+001
      vertex  6.500000e+000  5.650000e+001 -3.850000e+001
      vertex  6.500000e+000  5.820711e+001 -3.920711e+001
    endloop
  endfacet
  facet normal  1.000000e+000  0.000000e+000  0.000000e+000
    outer loop
      vertex  6.500000e+000  5.820711e+001 -3.920711e+001
      vertex  6.500000e+000  5.650000e+001 -3.850000e+001
      vertex  6.500000e+000  5.679289e+001 -3.920711e+001
    endloop
  endfacet
  facet normal  1.000000e+000  -0.000000e+000  0.000000e+000
    outer loop
      vertex  6.500000e+000  5.820711e+001 -3.920711e+001
      vertex  6.500000e+000  5.679289e+001 -3.920711e+001
      vertex  6.500000e+000  5.750000e+001 -3.950000e+001
    endloop
  endfacet
  facet normal  1.000000e+000  0.000000e+000  0.000000e+000
    outer loop
      vertex  6.500000e+000  2.792893e+000 -3.779289e+001
      vertex  6.500000e+000  4.207107e+000 -3.779289e+001
      vertex  6.500000e+000  3.500000e+000 -3.750000e+001
    endloop
  endfacet
  facet normal  1.000000e+000  -0.000000e+000  0.000000e+000
    outer loop
      vertex  6.500000e+000  4.207107e+000 -3.779289e+001
      vertex  6.500000e+000  2.792893e+000 -3.779289e+001
      vertex  6.500000e+000  4.500000e+000 -3.850000e+001
    endloop
  endfacet
  facet normal  9.999999e-001  0.000000e+000  0.000000e+000
    outer loop
      vertex  6.500000e+000  4.500000e+000 -3.850000e+001
      vertex  6.500000e+000  2.792893e+000 -3.779289e+001
      vertex  6.500000e+000  2.500000e+000 -3.850000e+001
    endloop
  endfacet
  facet normal  9.999999e-001  -0.000000e+000  0.000000e+000
    outer loop
      vertex  6.500000e+000  4.500000e+000 -3.850000e+001
      vertex  6.500000e+000  2.500000e+000 -3.850000e+001
      vertex  6.500000e+000  4.207107e+000 -3.920711e+001
    endloop
  endfacet
  facet normal  1.000000e+000  0.000000e+000  0.000000e+000
    outer loop
      vertex  6.500000e+000  4.207107e+000 -3.920711e+001
      vertex  6.500000e+000  2.500000e+000 -3.850000e+001
      vertex  6.500000e+000  2.792893e+000 -3.920711e+001
    endloop
  endfacet
  facet normal  1.000000e+000  -0.000000e+000  0.000000e+000
    outer loop
      vertex  6.500000e+000  4.207107e+000 -3.920711e+001
      vertex  6.500000e+000  2.792893e+000 -3.920711e+001
      vertex  6.500000e+000  3.500000e+000 -3.950000e+001
    endloop
  endfacet
  facet normal  1.000000e+000  0.000000e+000  0.000000e+000
    outer loop
      vertex  6.500000e+000  5.679289e+001 -2.792893e+000
      vertex  6.500000e+000  5.820711e+001 -2.792893e+000
      vertex  6.500000e+000  5.750000e+001 -2.500000e+000
    endloop
  endfacet
  facet normal  1.000000e+000  -0.000000e+000  0.000000e+000
    outer loop
      vertex  6.500000e+000  5.820711e+001 -2.792893e+000
      vertex  6.500000e+000  5.679289e+001 -2.792893e+000
      vertex  6.500000e+000  5.850000e+001 -3.500000e+000
    endloop
  endfacet
  facet normal  9.999999e-001  0.000000e+000  0.000000e+000
    outer loop
      vertex  6.500000e+000  5.850000e+001 -3.500000e+000
      vertex  6.500000e+000  5.679289e+001 -2.792893e+000
      vertex  6.500000e+000  5.650000e+001 -3.500000e+000
    endloop
  endfacet
  facet normal  9.999999e-001  -0.000000e+000  0.000000e+000
    outer loop
      vertex  6.500000e+000  5.850000e+001 -3.500000e+000
      vertex  6.500000e+000  5.650000e+001 -3.500000e+000
      vertex  6.500000e+000  5.820711e+001 -4.207107e+000
    endloop
  endfacet
  facet normal  1.000000e+000  0.000000e+000  0.000000e+000
    outer loop
      vertex  6.500000e+000  5.820711e+001 -4.207107e+000
      vertex  6.500000e+000  5.650000e+001 -3.500000e+000
      vertex  6.500000e+000  5.679289e+001 -4.207107e+000
    endloop
  endfacet
  facet normal  1.000000e+000  -0.000000e+000  0.000000e+000
    outer loop
      vertex  6.500000e+000  5.820711e+001 -4.207107e+000
      vertex  6.500000e+000  5.679289e+001 -4.207107e+000
      vertex  6.500000e+000  5.750000e+001 -4.500000e+000
    endloop
  endfacet
  facet normal  9.999999e-001  0.000000e+000  0.000000e+000
    outer loop
      vertex  6.500000e+000  2.792893e+000 -2.792893e+000
      vertex  6.500000e+000  4.207107e+000 -2.792893e+000
      vertex  6.500000e+000  3.500000e+000 -2.500000e+000
    endloop
  endfacet
  facet normal  1.000000e+000  -0.000000e+000  0.000000e+000
    outer loop
      vertex  6.500000e+000  4.207107e+000 -2.792893e+000
      vertex  6.500000e+000  2.792893e+000 -2.792893e+000
      vertex  6.500000e+000  4.500000e+000 -3.500000e+000
    endloop
  endfacet
  facet normal  9.999999e-001  0.000000e+000  0.000000e+000
    outer loop
      vertex  6.500000e+000  4.500000e+000 -3.500000e+000
      vertex  6.500000e+000  2.792893e+000 -2.792893e+000
      vertex  6.500000e+000  2.500000e+000 -3.500000e+000
    endloop
  endfacet
  facet normal  9.999999e-001  -0.000000e+000  0.000000e+000
    outer loop
      vertex  6.500000e+000  4.500000e+000 -3.500000e+000
      vertex  6.500000e+000  2.500000e+000 -3.500000e+000
      vertex  6.500000e+000  4.207107e+000 -4.207107e+000
    endloop
  endfacet
  facet normal  1.000000e+000  0.000000e+000  0.000000e+000
    outer loop
      vertex  6.500000e+000  4.207107e+000 -4.207107e+000
      vertex  6.500000e+000  2.500000e+000 -3.500000e+000
      vertex  6.500000e+000  2.792893e+000 -4.207107e+000
    endloop
  endfacet
  facet normal  9.999999e-001  -0.000000e+000  0.000000e+000
    outer loop
      vertex  6.500000e+000  4.207107e+000 -4.207107e+000
      vertex  6.500000e+000  2.792893e+000 -4.207107e+000
      vertex  6.500000e+000  3.500000e+000 -4.500000e+000
    endloop
  endfacet
  facet normal  0.000000e+000  1.000000e+000  -0.000000e+000
    outer loop
      vertex  1.800000e+001  6.400000e+001  0.000000e+000
      vertex  1.300000e+001  6.400000e+001 -5.000000e+000
      vertex  0.000000e+000  6.400000e+001  0.000000e+000
    endloop
  endfacet
  facet normal  0.000000e+000  1.000000e+000  0.000000e+000
    outer loop
      vertex  0.000000e+000  6.400000e+001  0.000000e+000
      vertex  1.300000e+001  6.400000e+001 -5.000000e+000
      vertex  5.000000e+000  6.400000e+001 -5.000000e+000
    endloop
  endfacet
  facet normal  0.000000e+000  9.999999e-001  0.000000e+000
    outer loop
      vertex  0.000000e+000  6.400000e+001  0.000000e+000
      vertex  5.000000e+000  6.400000e+001 -5.000000e+000
      vertex  0.000000e+000  6.400000e+001 -4.400000e+001
    endloop
  endfacet
  facet normal  0.000000e+000  1.000000e+000  0.000000e+000
    outer loop
      vertex  0.000000e+000  6.400000e+001 -4.400000e+001
      vertex  5.000000e+000  6.400000e+001 -5.000000e+000
      vertex  5.000000e+000  6.400000e+001 -3.900000e+001
    endloop
  endfacet
  facet normal  0.000000e+000  1.000000e+000  0.000000e+000
    outer loop
      vertex  0.000000e+000  6.400000e+001 -4.400000e+001
      vertex  5.000000e+000  6.400000e+001 -3.900000e+001
      vertex  1.800000e+001  6.400000e+001 -4.400000e+001
    endloop
  endfacet
  facet normal  0.000000e+000  1.000000e+000  0.000000e+000
    outer loop
      vertex  1.800000e+001  6.400000e+001 -4.400000e+001
      vertex  5.000000e+000  6.400000e+001 -3.900000e+001
      vertex  1.300000e+001  6.400000e+001 -3.900000e+001
    endloop
  endfacet
  facet normal  -0.000000e+000  9.999999e-001  0.000000e+000
    outer loop
      vertex  1.800000e+001  6.400000e+001 -4.400000e+001
      vertex  1.300000e+001  6.400000e+001 -3.900000e+001
      vertex  1.800000e+001  6.400000e+001  0.000000e+000
    endloop
  endfacet
  facet normal  0.000000e+000  1.000000e+000  0.000000e+000
    outer loop
      vertex  1.800000e+001  6.400000e+001  0.000000e+000
      vertex  1.300000e+001  6.400000e+001 -3.900000e+001
      vertex  1.300000e+001  6.400000e+001 -5.000000e+000
    endloop
  endfacet
  facet normal  0.000000e+000 -1.000000e+000  0.000000e+000
    outer loop
      vertex  1.500000e+000  6.300000e+001 -1.000000e+000
      vertex  5.000000e+000  6.300000e+001 -5.000000e+000
      vertex  1.800000e+001  6.300000e+001 -1.000000e+000
    endloop
  endfacet
  facet normal  0.000000e+000 -1.000000e+000  0.000000e+000
    outer loop
      vertex  1.800000e+001  6.300000e+001 -1.000000e+000
      vertex  5.000000e+000  6.300000e+001 -5.000000e+000
      vertex  1.300000e+001  6.300000e+001 -5.000000e+000
    endloop
  endfacet
  facet normal  0.000000e+000 -1.000000e+000  0.000000e+000
    outer loop
      vertex  1.800000e+001  6.300000e+001 -1.000000e+000
      vertex  1.300000e+001  6.300000e+001 -5.000000e+000
      vertex  1.800000e+001  6.300000e+001 -4.300000e+001
    endloop
  endfacet
  facet normal  0.000000e+000 -1.000000e+000  0.000000e+000
    outer loop
      vertex  1.800000e+001  6.300000e+001 -4.300000e+001
      vertex  1.300000e+001  6.300000e+001 -5.000000e+000
      vertex  1.300000e+001  6.300000e+001 -3.900000e+001
    endloop
  endfacet
  facet normal  0.000000e+000 -1.000000e+000  -0.000000e+000
    outer loop
      vertex  1.800000e+001  6.300000e+001 -4.300000e+001
      vertex  1.300000e+001  6.300000e+001 -3.900000e+001
      vertex  1.500000e+000  6.300000e+001 -4.300000e+001
    endloop
  endfacet
  facet normal  0.000000e+000 -1.000000e+000  0.000000e+000
    outer loop
      vertex  1.500000e+000  6.300000e+001 -4.300000e+001
      vertex  1.300000e+001  6.300000e+001 -3.900000e+001
      vertex  5.000000e+000  6.300000e+001 -3.900000e+001
    endloop
  endfacet
  facet normal  -0.000000e+000 -1.000000e+000  0.000000e+000
    outer loop
      vertex  1.500000e+000  6.300000e+001 -4.300000e+001
      vertex  5.000000e+000  6.300000e+001 -3.900000e+001
      vertex  1.500000e+000  6.300000e+001 -1.000000e+000
    endloop
  endfacet
  facet normal  0.000000e+000 -1.000000e+000  0.000000e+000
    outer loop
      vertex  1.500000e+000  6.300000e+001 -1.000000e+000
      vertex  5.000000e+000  6.300000e+001 -3.900000e+001
      vertex  5.000000e+000  6.300000e+001 -5.000000e+000
    endloop
  endfacet
  facet normal  -0.000000e+000  0.000000e+000  1.000000e+000
    outer loop
      vertex  1.300000e+001  6.400000e+001 -3.900000e+001
      vertex  5.000000e+000  6.400000e+001 -3.900000e+001
      vertex  1.300000e+001  6.300000e+001 -3.900000e+001
    endloop
  endfacet
  facet normal  0.000000e+000  0.000000e+000  1.000000e+000
    outer loop
      vertex  1.300000e+001  6.300000e+001 -3.900000e+001
      vertex  5.000000e+000  6.400000e+001 -3.900000e+001
      vertex  5.000000e+000  6.300000e+001 -3.900000e+001
    endloop
  endfacet
  facet normal  1.000000e+000  0.000000e+000  0.000000e+000
    outer loop
      vertex  5.000000e+000  6.300000e+001 -5.000000e+000
      vertex  5.000000e+000  6.300000e+001 -3.900000e+001
      vertex  5.000000e+000  6.400000e+001 -5.000000e+000
    endloop
  endfacet
  facet normal  1.000000e+000  0.000000e+000  0.000000e+000
    outer loop
      vertex  5.000000e+000  6.400000e+001 -5.000000e+000
      vertex  5.000000e+000  6.300000e+001 -3.900000e+001
      vertex  5.000000e+000  6.400000e+001 -3.900000e+001
    endloop
  endfacet
  facet normal  -0.000000e+000  0.000000e+000 -1.000000e+000
    outer loop
      vertex  5.000000e+000  6.400000e+001 -5.000000e+000
      vertex  1.300000e+001  6.400000e+001 -5.000000e+000
      vertex  5.000000e+000  6.300000e+001 -5.000000e+000
    endloop
  endfacet
  facet normal  0.000000e+000  0.000000e+000 -1.000000e+000
    outer loop
      vertex  5.000000e+000  6.300000e+001 -5.000000e+000
      vertex  1.300000e+001  6.400000e+001 -5.000000e+000
      vertex  1.300000e+001  6.300000e+001 -5.000000e+000
    endloop
  endfacet
  facet normal -1.000000e+000  0.000000e+000  0.000000e+000
    outer loop
      vertex  1.300000e+001  6.300000e+001 -3.900000e+001
      vertex  1.300000e+001  6.300000e+001 -5.000000e+000
      vertex  1.300000e+001  6.400000e+001 -3.900000e+001
    endloop
  endfacet
  facet normal -1.000000e+000  0.000000e+000  0.000000e+000
    outer loop
      vertex  1.300000e+001  6.400000e+001 -3.900000e+001
      vertex  1.300000e+001  6.300000e+001 -5.000000e+000
      vertex  1.300000e+001  6.400000e+001 -5.000000e+000
    endloop
  endfacet
  facet normal  1.000000e+000  0.000000e+000  0.000000e+000
    outer loop
      vertex  1.800000e+001  6.400000e+001 -4.400000e+001
      vertex  1.800000e+001  6.300000e+001 -4.300000e+001
      vertex  1.800000e+001  0.000000e+000 -4.400000e+001
    endloop
  endfacet
  facet normal  1.000000e+000  0.000000e+000  0.000000e+000
    outer loop
      vertex  1.800000e+001  0.000000e+000 -4.400000e+001
      vertex  1.800000e+001  6.300000e+001 -4.300000e+001
      vertex  1.800000e+001  1.000000e+000 -4.300000e+001
    endloop
  endfacet
  facet normal  1.000000e+000  0.000000e+000  0.000000e+000
    outer loop
      vertex  1.800000e+001  0.000000e+000 -4.400000e+001
      vertex  1.800000e+001  1.000000e+000 -4.300000e+001
      vertex  1.800000e+001  0.000000e+000  0.000000e+000
    endloop
  endfacet
  facet normal  1.000000e+000  0.000000e+000  0.000000e+000
    outer loop
      vertex  1.800000e+001  0.000000e+000  0.000000e+000
      vertex  1.800000e+001  1.000000e+000 -4.300000e+001
      vertex  1.800000e+001  1.000000e+000 -1.000000e+000
    endloop
  endfacet
  facet normal  1.000000e+000  0.000000e+000  -0.000000e+000
    outer loop
      vertex  1.800000e+001  0.000000e+000  0.000000e+000
      vertex  1.800000e+001  1.000000e+000 -1.000000e+000
      vertex  1.800000e+001  6.400000e+001  0.000000e+000
    endloop
  endfacet
  facet normal  1.000000e+000  0.000000e+000  0.000000e+000
    outer loop
      vertex  1.800000e+001  6.400000e+001  0.000000e+000
      vertex  1.800000e+001  1.000000e+000 -1.000000e+000
      vertex  1.800000e+001  6.300000e+001 -1.000000e+000
    endloop
  endfacet
  facet normal  1.000000e+000  -0.000000e+000  0.000000e+000
    outer loop
      vertex  1.800000e+001  6.400000e+001  0.000000e+000
      vertex  1.800000e+001  6.300000e+001 -1.000000e+000
      vertex  1.800000e+001  6.400000e+001 -4.400000e+001
    endloop
  endfacet
  facet normal  1.000000e+000  0.000000e+000  0.000000e+000
    outer loop
      vertex  1.800000e+001  6.400000e+001 -4.400000e+001
      vertex  1.800000e+001  6.300000e+001 -1.000000e+000
      vertex  1.800000e+001  6.300000e+001 -4.300000e+001
    endloop
  endfacet
  facet normal  0.000000e+000  0.000000e+000 -1.000000e+000
    outer loop
      vertex  1.500000e+000  1.000000e+000 -1.000000e+000
      vertex  1.500000e+000  6.300000e+001 -1.000000e+000
      vertex  1.800000e+001  1.000000e+000 -1.000000e+000
    endloop
  endfacet
  facet normal  0.000000e+000  0.000000e+000 -1.000000e+000
    outer loop
      vertex  1.800000e+001  1.000000e+000 -1.000000e+000
      vertex  1.500000e+000  6.300000e+001 -1.000000e+000
      vertex  1.800000e+001  6.300000e+001 -1.000000e+000
    endloop
  endfacet
  facet normal  0.000000e+000  0.000000e+000  1.000000e+000
    outer loop
      vertex  1.500000e+000  6.300000e+001 -4.300000e+001
      vertex  1.500000e+000  1.000000e+000 -4.300000e+001
      vertex  1.800000e+001  6.300000e+001 -4.300000e+001
    endloop
  endfacet
  facet normal  0.000000e+000  0.000000e+000  1.000000e+000
    outer loop
      vertex  1.800000e+001  6.300000e+001 -4.300000e+001
      vertex  1.500000e+000  1.000000e+000 -4.300000e+001
      vertex  1.800000e+001  1.000000e+000 -4.300000e+001
    endloop
  endfacet
  facet normal  0.000000e+000  1.000000e+000  0.000000e+000
    outer loop
      vertex  1.500000e+000  1.000000e+000 -1.000000e+000
      vertex  1.800000e+001  1.000000e+000 -1.000000e+000
      vertex  1.500000e+000  1.000000e+000 -4.300000e+001
    endloop
  endfacet
  facet normal  0.000000e+000  1.000000e+000  0.000000e+000
    outer loop
      vertex  1.500000e+000  1.000000e+000 -4.300000e+001
      vertex  1.800000e+001  1.000000e+000 -1.000000e+000
      vertex  1.800000e+001  1.000000e+000 -4.300000e+001
    endloop
  endfacet
  facet normal -1.000000e+000  0.000000e+000  0.000000e+000
    outer loop
      vertex  0.000000e+000  0.000000e+000 -4.400000e+001
      vertex  0.000000e+000  0.000000e+000  0.000000e+000
      vertex  0.000000e+000  6.400000e+001 -4.400000e+001
    endloop
  endfacet
  facet normal -1.000000e+000  0.000000e+000  0.000000e+000
    outer loop
      vertex  0.000000e+000  6.400000e+001 -4.400000e+001
      vertex  0.000000e+000  0.000000e+000  0.000000e+000
      vertex  0.000000e+000  6.400000e+001  0.000000e+000
    endloop
  endfacet
  facet normal  0.000000e+000  0.000000e+000  1.000000e+000
    outer loop
      vertex  1.800000e+001  0.000000e+000  0.000000e+000
      vertex  1.800000e+001  6.400000e+001  0.000000e+000
      vertex  0.000000e+000  0.000000e+000  0.000000e+000
    endloop
  endfacet
  facet normal  0.000000e+000  0.000000e+000  1.000000e+000
    outer loop
      vertex  0.000000e+000  0.000000e+000  0.000000e+000
      vertex  1.800000e+001  6.400000e+001  0.000000e+000
      vertex  0.000000e+000  6.400000e+001  0.000000e+000
    endloop
  endfacet
  facet normal  0.000000e+000  0.000000e+000 -1.000000e+000
    outer loop
      vertex  1.800000e+001  6.400000e+001 -4.400000e+001
      vertex  1.800000e+001  0.000000e+000 -4.400000e+001
      vertex  0.000000e+000  6.400000e+001 -4.400000e+001
    endloop
  endfacet
  facet normal  0.000000e+000  0.000000e+000 -1.000000e+000
    outer loop
      vertex  0.000000e+000  6.400000e+001 -4.400000e+001
      vertex  1.800000e+001  0.000000e+000 -4.400000e+001
      vertex  0.000000e+000  0.000000e+000 -4.400000e+001
    endloop
  endfacet
  facet normal  0.000000e+000 -1.000000e+000  0.000000e+000
    outer loop
      vertex  1.800000e+001  0.000000e+000  0.000000e+000
      vertex  0.000000e+000  0.000000e+000  0.000000e+000
      vertex  1.800000e+001  0.000000e+000 -4.400000e+001
    endloop
  endfacet
  facet normal  0.000000e+000 -1.000000e+000  0.000000e+000
    outer loop
      vertex  1.800000e+001  0.000000e+000 -4.400000e+001
      vertex  0.000000e+000  0.000000e+000  0.000000e+000
      vertex  0.000000e+000  0.000000e+000 -4.400000e+001
    endloop
  endfacet
endsolid CATIA STL
