solid CATIA STL
  facet normal  1.000000e+000  0.000000e+000  0.000000e+000
    outer loop
      vertex  2.000000e+000  1.500000e+001 -1.500000e+001
      vertex  2.000000e+000  1.300000e+001 -1.300000e+001
      vertex  2.000000e+000 -1.500000e+001 -1.500000e+001
    endloop
  endfacet
  facet normal  1.000000e+000  0.000000e+000  0.000000e+000
    outer loop
      vertex  2.000000e+000 -1.500000e+001 -1.500000e+001
      vertex  2.000000e+000  1.300000e+001 -1.300000e+001
      vertex  2.000000e+000 -1.300000e+001 -1.300000e+001
    endloop
  endfacet
  facet normal  1.000000e+000  0.000000e+000  0.000000e+000
    outer loop
      vertex  2.000000e+000 -1.500000e+001 -1.500000e+001
      vertex  2.000000e+000 -1.300000e+001 -1.300000e+001
      vertex  2.000000e+000 -1.500000e+001  1.500000e+001
    endloop
  endfacet
  facet normal  1.000000e+000  0.000000e+000  0.000000e+000
    outer loop
      vertex  2.000000e+000 -1.500000e+001  1.500000e+001
      vertex  2.000000e+000 -1.300000e+001 -1.300000e+001
      vertex  2.000000e+000 -1.300000e+001  1.300000e+001
    endloop
  endfacet
  facet normal  1.000000e+000  0.000000e+000  -0.000000e+000
    outer loop
      vertex  2.000000e+000 -1.500000e+001  1.500000e+001
      vertex  2.000000e+000 -1.300000e+001  1.300000e+001
      vertex  2.000000e+000  1.500000e+001  1.500000e+001
    endloop
  endfacet
  facet normal  1.000000e+000  0.000000e+000  0.000000e+000
    outer loop
      vertex  2.000000e+000  1.500000e+001  1.500000e+001
      vertex  2.000000e+000 -1.300000e+001  1.300000e+001
      vertex  2.000000e+000  1.300000e+001  1.300000e+001
    endloop
  endfacet
  facet normal  1.000000e+000  -0.000000e+000  0.000000e+000
    outer loop
      vertex  2.000000e+000  1.500000e+001  1.500000e+001
      vertex  2.000000e+000  1.300000e+001  1.300000e+001
      vertex  2.000000e+000  1.500000e+001 -1.500000e+001
    endloop
  endfacet
  facet normal  1.000000e+000  0.000000e+000  0.000000e+000
    outer loop
      vertex  2.000000e+000  1.500000e+001 -1.500000e+001
      vertex  2.000000e+000  1.300000e+001  1.300000e+001
      vertex  2.000000e+000  1.300000e+001 -1.300000e+001
    endloop
  endfacet
  facet normal -1.000000e+000  -0.000000e+000  0.000000e+000
    outer loop
      vertex  0.000000e+000 -1.500000e+001  1.500000e+001
      vertex  0.000000e+000 -1.300000e+001 -1.300000e+001
      vertex  0.000000e+000 -1.500000e+001 -1.500000e+001
    endloop
  endfacet
  facet normal -1.000000e+000  0.000000e+000  0.000000e+000
    outer loop
      vertex  0.000000e+000 -1.500000e+001 -1.500000e+001
      vertex  0.000000e+000 -1.300000e+001 -1.300000e+001
      vertex  0.000000e+000  1.300000e+001 -1.300000e+001
    endloop
  endfacet
  facet normal -1.000000e+000  0.000000e+000  -0.000000e+000
    outer loop
      vertex  0.000000e+000 -1.500000e+001 -1.500000e+001
      vertex  0.000000e+000  1.300000e+001 -1.300000e+001
      vertex  0.000000e+000  1.500000e+001 -1.500000e+001
    endloop
  endfacet
  facet normal -1.000000e+000  0.000000e+000  0.000000e+000
    outer loop
      vertex  0.000000e+000 -1.300000e+001 -1.300000e+001
      vertex  0.000000e+000 -1.500000e+001  1.500000e+001
      vertex  0.000000e+000 -1.300000e+001  1.300000e+001
    endloop
  endfacet
  facet normal -1.000000e+000  0.000000e+000  0.000000e+000
    outer loop
      vertex  0.000000e+000 -1.300000e+001  1.300000e+001
      vertex  0.000000e+000 -1.500000e+001  1.500000e+001
      vertex  0.000000e+000  1.500000e+001  1.500000e+001
    endloop
  endfacet
  facet normal -1.000000e+000  0.000000e+000  0.000000e+000
    outer loop
      vertex  0.000000e+000 -1.300000e+001  1.300000e+001
      vertex  0.000000e+000  1.500000e+001  1.500000e+001
      vertex  0.000000e+000  1.300000e+001  1.300000e+001
    endloop
  endfacet
  facet normal -1.000000e+000  0.000000e+000  0.000000e+000
    outer loop
      vertex  0.000000e+000  1.300000e+001  1.300000e+001
      vertex  0.000000e+000  1.500000e+001  1.500000e+001
      vertex  0.000000e+000  1.500000e+001 -1.500000e+001
    endloop
  endfacet
  facet normal -1.000000e+000  0.000000e+000  0.000000e+000
    outer loop
      vertex  0.000000e+000  1.300000e+001  1.300000e+001
      vertex  0.000000e+000  1.500000e+001 -1.500000e+001
      vertex  0.000000e+000  1.300000e+001 -1.300000e+001
    endloop
  endfacet
  facet normal  -0.000000e+000  0.000000e+000  1.000000e+000
    outer loop
      vertex  2.000000e+000  1.300000e+001 -1.300000e+001
      vertex  0.000000e+000  1.300000e+001 -1.300000e+001
      vertex  2.000000e+000 -1.300000e+001 -1.300000e+001
    endloop
  endfacet
  facet normal  0.000000e+000  0.000000e+000  1.000000e+000
    outer loop
      vertex  2.000000e+000 -1.300000e+001 -1.300000e+001
      vertex  0.000000e+000  1.300000e+001 -1.300000e+001
      vertex  0.000000e+000 -1.300000e+001 -1.300000e+001
    endloop
  endfacet
  facet normal  0.000000e+000 -1.000000e+000  0.000000e+000
    outer loop
      vertex  2.000000e+000  1.300000e+001  1.300000e+001
      vertex  0.000000e+000  1.300000e+001  1.300000e+001
      vertex  2.000000e+000  1.300000e+001 -1.300000e+001
    endloop
  endfacet
  facet normal  0.000000e+000 -1.000000e+000  0.000000e+000
    outer loop
      vertex  2.000000e+000  1.300000e+001 -1.300000e+001
      vertex  0.000000e+000  1.300000e+001  1.300000e+001
      vertex  0.000000e+000  1.300000e+001 -1.300000e+001
    endloop
  endfacet
  facet normal  0.000000e+000  0.000000e+000 -1.000000e+000
    outer loop
      vertex  2.000000e+000 -1.300000e+001  1.300000e+001
      vertex  0.000000e+000 -1.300000e+001  1.300000e+001
      vertex  2.000000e+000  1.300000e+001  1.300000e+001
    endloop
  endfacet
  facet normal  -0.000000e+000  0.000000e+000 -1.000000e+000
    outer loop
      vertex  2.000000e+000  1.300000e+001  1.300000e+001
      vertex  0.000000e+000 -1.300000e+001  1.300000e+001
      vertex  0.000000e+000  1.300000e+001  1.300000e+001
    endloop
  endfacet
  facet normal  0.000000e+000  1.000000e+000  0.000000e+000
    outer loop
      vertex  2.000000e+000 -1.300000e+001 -1.300000e+001
      vertex  0.000000e+000 -1.300000e+001 -1.300000e+001
      vertex  2.000000e+000 -1.300000e+001  1.300000e+001
    endloop
  endfacet
  facet normal  0.000000e+000  1.000000e+000  0.000000e+000
    outer loop
      vertex  2.000000e+000 -1.300000e+001  1.300000e+001
      vertex  0.000000e+000 -1.300000e+001 -1.300000e+001
      vertex  0.000000e+000 -1.300000e+001  1.300000e+001
    endloop
  endfacet
  facet normal  0.000000e+000  0.000000e+000  1.000000e+000
    outer loop
      vertex  2.000000e+000 -1.500000e+001  1.500000e+001
      vertex  2.000000e+000  1.500000e+001  1.500000e+001
      vertex  0.000000e+000 -1.500000e+001  1.500000e+001
    endloop
  endfacet
  facet normal  0.000000e+000  0.000000e+000  1.000000e+000
    outer loop
      vertex  0.000000e+000 -1.500000e+001  1.500000e+001
      vertex  2.000000e+000  1.500000e+001  1.500000e+001
      vertex  0.000000e+000  1.500000e+001  1.500000e+001
    endloop
  endfacet
  facet normal  0.000000e+000  1.000000e+000  -0.000000e+000
    outer loop
      vertex  2.000000e+000  1.500000e+001  1.500000e+001
      vertex  2.000000e+000  1.500000e+001 -1.500000e+001
      vertex  0.000000e+000  1.500000e+001  1.500000e+001
    endloop
  endfacet
  facet normal  0.000000e+000  1.000000e+000  0.000000e+000
    outer loop
      vertex  0.000000e+000  1.500000e+001  1.500000e+001
      vertex  2.000000e+000  1.500000e+001 -1.500000e+001
      vertex  0.000000e+000  1.500000e+001 -1.500000e+001
    endloop
  endfacet
  facet normal  0.000000e+000  0.000000e+000 -1.000000e+000
    outer loop
      vertex  2.000000e+000  1.500000e+001 -1.500000e+001
      vertex  2.000000e+000 -1.500000e+001 -1.500000e+001
      vertex  0.000000e+000  1.500000e+001 -1.500000e+001
    endloop
  endfacet
  facet normal  0.000000e+000  0.000000e+000 -1.000000e+000
    outer loop
      vertex  0.000000e+000  1.500000e+001 -1.500000e+001
      vertex  2.000000e+000 -1.500000e+001 -1.500000e+001
      vertex  0.000000e+000 -1.500000e+001 -1.500000e+001
    endloop
  endfacet
  facet normal  0.000000e+000 -1.000000e+000  -0.000000e+000
    outer loop
      vertex  2.000000e+000 -1.500000e+001 -1.500000e+001
      vertex  2.000000e+000 -1.500000e+001  1.500000e+001
      vertex  0.000000e+000 -1.500000e+001 -1.500000e+001
    endloop
  endfacet
  facet normal  0.000000e+000 -1.000000e+000  0.000000e+000
    outer loop
      vertex  0.000000e+000 -1.500000e+001 -1.500000e+001
      vertex  2.000000e+000 -1.500000e+001  1.500000e+001
      vertex  0.000000e+000 -1.500000e+001  1.500000e+001
    endloop
  endfacet
endsolid CATIA STL
