solid CATIA STL
  facet normal -1.000000e+000  0.000000e+000  -0.000000e+000
    outer loop
      vertex -8.000000e+000  3.207531e+001 -3.255310e+001
      vertex -8.000000e+000  3.265146e+001 -3.183785e+001
      vertex -8.000000e+000  3.500000e+001 -3.500000e+001
    endloop
  endfacet
  facet normal -1.000000e+000  0.000000e+000  0.000000e+000
    outer loop
      vertex -8.000000e+000  2.800000e+001 -3.500000e+001
      vertex -8.000000e+000  2.800000e+001 -2.800000e+001
      vertex -8.000000e+000  3.034854e+001 -3.116215e+001
    endloop
  endfacet
  facet normal -1.000000e+000  0.000000e+000  -0.000000e+000
    outer loop
      vertex -8.000000e+000  2.800000e+001 -3.500000e+001
      vertex -8.000000e+000  3.034854e+001 -3.116215e+001
      vertex -8.000000e+000  3.044690e+001 -3.207531e+001
    endloop
  endfacet
  facet normal -1.000000e+000  0.000000e+000  -0.000000e+000
    outer loop
      vertex -8.000000e+000  2.800000e+001 -3.500000e+001
      vertex -8.000000e+000  3.044690e+001 -3.207531e+001
      vertex -8.000000e+000  3.116215e+001 -3.265146e+001
    endloop
  endfacet
  facet normal -1.000000e+000  0.000000e+000  -0.000000e+000
    outer loop
      vertex -8.000000e+000  2.800000e+001 -3.500000e+001
      vertex -8.000000e+000  3.116215e+001 -3.265146e+001
      vertex -8.000000e+000  3.207531e+001 -3.255310e+001
    endloop
  endfacet
  facet normal -1.000000e+000  0.000000e+000  -0.000000e+000
    outer loop
      vertex -8.000000e+000  2.800000e+001 -3.500000e+001
      vertex -8.000000e+000  3.207531e+001 -3.255310e+001
      vertex -8.000000e+000  3.500000e+001 -3.500000e+001
    endloop
  endfacet
  facet normal -1.000000e+000  -0.000000e+000  0.000000e+000
    outer loop
      vertex -8.000000e+000  2.800000e+001 -2.800000e+001
      vertex -8.000000e+000  3.500000e+001 -2.800000e+001
      vertex -8.000000e+000  3.183785e+001 -3.034854e+001
    endloop
  endfacet
  facet normal -1.000000e+000  -0.000000e+000  0.000000e+000
    outer loop
      vertex -8.000000e+000  2.800000e+001 -2.800000e+001
      vertex -8.000000e+000  3.183785e+001 -3.034854e+001
      vertex -8.000000e+000  3.092469e+001 -3.044690e+001
    endloop
  endfacet
  facet normal -1.000000e+000  -0.000000e+000  0.000000e+000
    outer loop
      vertex -8.000000e+000  2.800000e+001 -2.800000e+001
      vertex -8.000000e+000  3.092469e+001 -3.044690e+001
      vertex -8.000000e+000  3.034854e+001 -3.116215e+001
    endloop
  endfacet
  facet normal -1.000000e+000  0.000000e+000  0.000000e+000
    outer loop
      vertex -8.000000e+000  3.183785e+001 -3.034854e+001
      vertex -8.000000e+000  3.500000e+001 -2.800000e+001
      vertex -8.000000e+000  3.255310e+001 -3.092469e+001
    endloop
  endfacet
  facet normal -1.000000e+000  0.000000e+000  0.000000e+000
    outer loop
      vertex -8.000000e+000  3.255310e+001 -3.092469e+001
      vertex -8.000000e+000  3.500000e+001 -2.800000e+001
      vertex -8.000000e+000  3.500000e+001 -3.500000e+001
    endloop
  endfacet
  facet normal -1.000000e+000  0.000000e+000  0.000000e+000
    outer loop
      vertex -8.000000e+000  3.255310e+001 -3.092469e+001
      vertex -8.000000e+000  3.500000e+001 -3.500000e+001
      vertex -8.000000e+000  3.265146e+001 -3.183785e+001
    endloop
  endfacet
  facet normal  0.000000e+000  7.787678e-001 -6.273122e-001
    outer loop
      vertex -8.000000e+000  3.092469e+001 -3.044690e+001
      vertex -2.000000e+000  3.034854e+001 -3.116215e+001
      vertex -8.000000e+000  3.034854e+001 -3.116215e+001
    endloop
  endfacet
  facet normal  -0.000000e+000  9.942487e-001  1.070949e-001
    outer loop
      vertex -8.000000e+000  3.034854e+001 -3.116215e+001
      vertex -2.000000e+000  3.034854e+001 -3.116215e+001
      vertex -2.000000e+000  3.044690e+001 -3.207531e+001
    endloop
  endfacet
  facet normal  0.000000e+000  9.942487e-001  1.070949e-001
    outer loop
      vertex -8.000000e+000  3.034854e+001 -3.116215e+001
      vertex -2.000000e+000  3.044690e+001 -3.207531e+001
      vertex -8.000000e+000  3.044690e+001 -3.207531e+001
    endloop
  endfacet
  facet normal  0.000000e+000  7.787678e-001 -6.273122e-001
    outer loop
      vertex -2.000000e+000  3.034854e+001 -3.116215e+001
      vertex -8.000000e+000  3.092469e+001 -3.044690e+001
      vertex -2.000000e+000  3.092469e+001 -3.044690e+001
    endloop
  endfacet
  facet normal  0.000000e+000  1.070949e-001 -9.942487e-001
    outer loop
      vertex -2.000000e+000  3.092469e+001 -3.044690e+001
      vertex -8.000000e+000  3.092469e+001 -3.044690e+001
      vertex -8.000000e+000  3.183785e+001 -3.034854e+001
    endloop
  endfacet
  facet normal  0.000000e+000  1.070949e-001 -9.942487e-001
    outer loop
      vertex -2.000000e+000  3.092469e+001 -3.044690e+001
      vertex -8.000000e+000  3.183785e+001 -3.034854e+001
      vertex -2.000000e+000  3.183785e+001 -3.034854e+001
    endloop
  endfacet
  facet normal  -0.000000e+000 -6.273112e-001 -7.787687e-001
    outer loop
      vertex -2.000000e+000  3.183785e+001 -3.034854e+001
      vertex -8.000000e+000  3.183785e+001 -3.034854e+001
      vertex -8.000000e+000  3.255310e+001 -3.092469e+001
    endloop
  endfacet
  facet normal  0.000000e+000 -6.273112e-001 -7.787687e-001
    outer loop
      vertex -2.000000e+000  3.183785e+001 -3.034854e+001
      vertex -8.000000e+000  3.255310e+001 -3.092469e+001
      vertex -2.000000e+000  3.255310e+001 -3.092469e+001
    endloop
  endfacet
  facet normal  0.000000e+000 -7.787687e-001  6.273112e-001
    outer loop
      vertex -8.000000e+000  3.207531e+001 -3.255310e+001
      vertex -2.000000e+000  3.265146e+001 -3.183785e+001
      vertex -8.000000e+000  3.265146e+001 -3.183785e+001
    endloop
  endfacet
  facet normal  0.000000e+000 -9.942490e-001 -1.070928e-001
    outer loop
      vertex -8.000000e+000  3.265146e+001 -3.183785e+001
      vertex -2.000000e+000  3.265146e+001 -3.183785e+001
      vertex -2.000000e+000  3.255310e+001 -3.092469e+001
    endloop
  endfacet
  facet normal  -0.000000e+000 -9.942490e-001 -1.070928e-001
    outer loop
      vertex -8.000000e+000  3.265146e+001 -3.183785e+001
      vertex -2.000000e+000  3.255310e+001 -3.092469e+001
      vertex -8.000000e+000  3.255310e+001 -3.092469e+001
    endloop
  endfacet
  facet normal  0.000000e+000 -7.787687e-001  6.273112e-001
    outer loop
      vertex -2.000000e+000  3.265146e+001 -3.183785e+001
      vertex -8.000000e+000  3.207531e+001 -3.255310e+001
      vertex -2.000000e+000  3.207531e+001 -3.255310e+001
    endloop
  endfacet
  facet normal  0.000000e+000 -1.070928e-001  9.942490e-001
    outer loop
      vertex -2.000000e+000  3.207531e+001 -3.255310e+001
      vertex -8.000000e+000  3.207531e+001 -3.255310e+001
      vertex -8.000000e+000  3.116215e+001 -3.265146e+001
    endloop
  endfacet
  facet normal  0.000000e+000 -1.070928e-001  9.942490e-001
    outer loop
      vertex -2.000000e+000  3.207531e+001 -3.255310e+001
      vertex -8.000000e+000  3.116215e+001 -3.265146e+001
      vertex -2.000000e+000  3.116215e+001 -3.265146e+001
    endloop
  endfacet
  facet normal  0.000000e+000  6.273122e-001  7.787678e-001
    outer loop
      vertex -2.000000e+000  3.116215e+001 -3.265146e+001
      vertex -8.000000e+000  3.116215e+001 -3.265146e+001
      vertex -8.000000e+000  3.044690e+001 -3.207531e+001
    endloop
  endfacet
  facet normal  -0.000000e+000  6.273122e-001  7.787678e-001
    outer loop
      vertex -2.000000e+000  3.116215e+001 -3.265146e+001
      vertex -8.000000e+000  3.044690e+001 -3.207531e+001
      vertex -2.000000e+000  3.044690e+001 -3.207531e+001
    endloop
  endfacet
  facet normal -1.000000e+000  0.000000e+000  0.000000e+000
    outer loop
      vertex -2.000000e+000  3.255310e+001 -3.092469e+001
      vertex -2.000000e+000  3.092469e+001 -3.044690e+001
      vertex -2.000000e+000  3.183785e+001 -3.034854e+001
    endloop
  endfacet
  facet normal -1.000000e+000  -0.000000e+000  0.000000e+000
    outer loop
      vertex -2.000000e+000  3.092469e+001 -3.044690e+001
      vertex -2.000000e+000  3.255310e+001 -3.092469e+001
      vertex -2.000000e+000  3.034854e+001 -3.116215e+001
    endloop
  endfacet
  facet normal -1.000000e+000  0.000000e+000  0.000000e+000
    outer loop
      vertex -2.000000e+000  3.034854e+001 -3.116215e+001
      vertex -2.000000e+000  3.255310e+001 -3.092469e+001
      vertex -2.000000e+000  3.265146e+001 -3.183785e+001
    endloop
  endfacet
  facet normal -1.000000e+000  -0.000000e+000  0.000000e+000
    outer loop
      vertex -2.000000e+000  3.034854e+001 -3.116215e+001
      vertex -2.000000e+000  3.265146e+001 -3.183785e+001
      vertex -2.000000e+000  3.044690e+001 -3.207531e+001
    endloop
  endfacet
  facet normal -1.000000e+000  0.000000e+000  0.000000e+000
    outer loop
      vertex -2.000000e+000  3.044690e+001 -3.207531e+001
      vertex -2.000000e+000  3.265146e+001 -3.183785e+001
      vertex -2.000000e+000  3.207531e+001 -3.255310e+001
    endloop
  endfacet
  facet normal -1.000000e+000  -0.000000e+000  0.000000e+000
    outer loop
      vertex -2.000000e+000  3.044690e+001 -3.207531e+001
      vertex -2.000000e+000  3.207531e+001 -3.255310e+001
      vertex -2.000000e+000  3.116215e+001 -3.265146e+001
    endloop
  endfacet
  facet normal -9.999999e-001  -0.000000e+000  0.000000e+000
    outer loop
      vertex  2.000000e+000  1.000000e+000 -1.000000e+000
      vertex  2.000000e+000  2.800000e+001 -3.500000e+001
      vertex  2.000000e+000  1.000000e+000 -6.200000e+001
    endloop
  endfacet
  facet normal -9.999999e-001  0.000000e+000  0.000000e+000
    outer loop
      vertex  2.000000e+000  1.000000e+000 -6.200000e+001
      vertex  2.000000e+000  2.800000e+001 -3.500000e+001
      vertex  2.000000e+000  3.500000e+001 -3.500000e+001
    endloop
  endfacet
  facet normal -9.999999e-001  0.000000e+000  -0.000000e+000
    outer loop
      vertex  2.000000e+000  1.000000e+000 -6.200000e+001
      vertex  2.000000e+000  3.500000e+001 -3.500000e+001
      vertex  2.000000e+000  6.200000e+001 -6.200000e+001
    endloop
  endfacet
  facet normal -9.999999e-001  0.000000e+000  0.000000e+000
    outer loop
      vertex  2.000000e+000  2.800000e+001 -3.500000e+001
      vertex  2.000000e+000  1.000000e+000 -1.000000e+000
      vertex  2.000000e+000  2.800000e+001 -2.800000e+001
    endloop
  endfacet
  facet normal -9.999999e-001  0.000000e+000  0.000000e+000
    outer loop
      vertex  2.000000e+000  2.800000e+001 -2.800000e+001
      vertex  2.000000e+000  1.000000e+000 -1.000000e+000
      vertex  2.000000e+000  6.200000e+001 -1.000000e+000
    endloop
  endfacet
  facet normal -9.999999e-001  0.000000e+000  0.000000e+000
    outer loop
      vertex  2.000000e+000  2.800000e+001 -2.800000e+001
      vertex  2.000000e+000  6.200000e+001 -1.000000e+000
      vertex  2.000000e+000  3.500000e+001 -2.800000e+001
    endloop
  endfacet
  facet normal -9.999999e-001  0.000000e+000  0.000000e+000
    outer loop
      vertex  2.000000e+000  3.500000e+001 -2.800000e+001
      vertex  2.000000e+000  6.200000e+001 -1.000000e+000
      vertex  2.000000e+000  6.200000e+001 -6.200000e+001
    endloop
  endfacet
  facet normal -9.999999e-001  0.000000e+000  0.000000e+000
    outer loop
      vertex  2.000000e+000  3.500000e+001 -2.800000e+001
      vertex  2.000000e+000  6.200000e+001 -6.200000e+001
      vertex  2.000000e+000  3.500000e+001 -3.500000e+001
    endloop
  endfacet
  facet normal  0.000000e+000  1.000000e+000  -0.000000e+000
    outer loop
      vertex  2.000000e+000  3.500000e+001 -2.800000e+001
      vertex  2.000000e+000  3.500000e+001 -3.500000e+001
      vertex -8.000000e+000  3.500000e+001 -2.800000e+001
    endloop
  endfacet
  facet normal  0.000000e+000  1.000000e+000  0.000000e+000
    outer loop
      vertex -8.000000e+000  3.500000e+001 -2.800000e+001
      vertex  2.000000e+000  3.500000e+001 -3.500000e+001
      vertex -8.000000e+000  3.500000e+001 -3.500000e+001
    endloop
  endfacet
  facet normal  0.000000e+000  0.000000e+000 -1.000000e+000
    outer loop
      vertex  2.000000e+000  3.500000e+001 -3.500000e+001
      vertex  2.000000e+000  2.800000e+001 -3.500000e+001
      vertex -8.000000e+000  3.500000e+001 -3.500000e+001
    endloop
  endfacet
  facet normal  0.000000e+000  0.000000e+000 -1.000000e+000
    outer loop
      vertex -8.000000e+000  3.500000e+001 -3.500000e+001
      vertex  2.000000e+000  2.800000e+001 -3.500000e+001
      vertex -8.000000e+000  2.800000e+001 -3.500000e+001
    endloop
  endfacet
  facet normal  0.000000e+000 -1.000000e+000  -0.000000e+000
    outer loop
      vertex  2.000000e+000  2.800000e+001 -3.500000e+001
      vertex  2.000000e+000  2.800000e+001 -2.800000e+001
      vertex -8.000000e+000  2.800000e+001 -3.500000e+001
    endloop
  endfacet
  facet normal  0.000000e+000 -1.000000e+000  0.000000e+000
    outer loop
      vertex -8.000000e+000  2.800000e+001 -3.500000e+001
      vertex  2.000000e+000  2.800000e+001 -2.800000e+001
      vertex -8.000000e+000  2.800000e+001 -2.800000e+001
    endloop
  endfacet
  facet normal  0.000000e+000  0.000000e+000  1.000000e+000
    outer loop
      vertex  2.000000e+000  2.800000e+001 -2.800000e+001
      vertex  2.000000e+000  3.500000e+001 -2.800000e+001
      vertex -8.000000e+000  2.800000e+001 -2.800000e+001
    endloop
  endfacet
  facet normal  0.000000e+000  0.000000e+000  1.000000e+000
    outer loop
      vertex -8.000000e+000  2.800000e+001 -2.800000e+001
      vertex  2.000000e+000  3.500000e+001 -2.800000e+001
      vertex -8.000000e+000  3.500000e+001 -2.800000e+001
    endloop
  endfacet
  facet normal -1.000000e+000  -0.000000e+000  0.000000e+000
    outer loop
      vertex  0.000000e+000  0.000000e+000  0.000000e+000
      vertex  0.000000e+000  1.000000e+000 -6.200000e+001
      vertex  0.000000e+000  0.000000e+000 -6.300000e+001
    endloop
  endfacet
  facet normal -9.999999e-001  0.000000e+000  0.000000e+000
    outer loop
      vertex  0.000000e+000  0.000000e+000 -6.300000e+001
      vertex  0.000000e+000  1.000000e+000 -6.200000e+001
      vertex  0.000000e+000  6.200000e+001 -6.200000e+001
    endloop
  endfacet
  facet normal -1.000000e+000  0.000000e+000  -0.000000e+000
    outer loop
      vertex  0.000000e+000  0.000000e+000 -6.300000e+001
      vertex  0.000000e+000  6.200000e+001 -6.200000e+001
      vertex  0.000000e+000  6.300000e+001 -6.300000e+001
    endloop
  endfacet
  facet normal -9.999999e-001  0.000000e+000  0.000000e+000
    outer loop
      vertex  0.000000e+000  1.000000e+000 -6.200000e+001
      vertex  0.000000e+000  0.000000e+000  0.000000e+000
      vertex  0.000000e+000  1.000000e+000 -1.000000e+000
    endloop
  endfacet
  facet normal -1.000000e+000  0.000000e+000  0.000000e+000
    outer loop
      vertex  0.000000e+000  1.000000e+000 -1.000000e+000
      vertex  0.000000e+000  0.000000e+000  0.000000e+000
      vertex  0.000000e+000  6.300000e+001  0.000000e+000
    endloop
  endfacet
  facet normal -9.999999e-001  0.000000e+000  0.000000e+000
    outer loop
      vertex  0.000000e+000  1.000000e+000 -1.000000e+000
      vertex  0.000000e+000  6.300000e+001  0.000000e+000
      vertex  0.000000e+000  6.200000e+001 -1.000000e+000
    endloop
  endfacet
  facet normal -1.000000e+000  0.000000e+000  0.000000e+000
    outer loop
      vertex  0.000000e+000  6.200000e+001 -1.000000e+000
      vertex  0.000000e+000  6.300000e+001  0.000000e+000
      vertex  0.000000e+000  6.300000e+001 -6.300000e+001
    endloop
  endfacet
  facet normal -9.999999e-001  0.000000e+000  0.000000e+000
    outer loop
      vertex  0.000000e+000  6.200000e+001 -1.000000e+000
      vertex  0.000000e+000  6.300000e+001 -6.300000e+001
      vertex  0.000000e+000  6.200000e+001 -6.200000e+001
    endloop
  endfacet
  facet normal  0.000000e+000  0.000000e+000 -9.999999e-001
    outer loop
      vertex  2.000000e+000  1.000000e+000 -1.000000e+000
      vertex  0.000000e+000  1.000000e+000 -1.000000e+000
      vertex  2.000000e+000  6.200000e+001 -1.000000e+000
    endloop
  endfacet
  facet normal  -0.000000e+000  0.000000e+000 -9.999999e-001
    outer loop
      vertex  2.000000e+000  6.200000e+001 -1.000000e+000
      vertex  0.000000e+000  1.000000e+000 -1.000000e+000
      vertex  0.000000e+000  6.200000e+001 -1.000000e+000
    endloop
  endfacet
  facet normal  0.000000e+000 -9.999999e-001  -0.000000e+000
    outer loop
      vertex  2.000000e+000  6.200000e+001 -6.200000e+001
      vertex  2.000000e+000  6.200000e+001 -1.000000e+000
      vertex  0.000000e+000  6.200000e+001 -6.200000e+001
    endloop
  endfacet
  facet normal  0.000000e+000 -9.999999e-001  0.000000e+000
    outer loop
      vertex  0.000000e+000  6.200000e+001 -6.200000e+001
      vertex  2.000000e+000  6.200000e+001 -1.000000e+000
      vertex  0.000000e+000  6.200000e+001 -1.000000e+000
    endloop
  endfacet
  facet normal  -0.000000e+000  0.000000e+000  9.999999e-001
    outer loop
      vertex  2.000000e+000  6.200000e+001 -6.200000e+001
      vertex  0.000000e+000  6.200000e+001 -6.200000e+001
      vertex  2.000000e+000  1.000000e+000 -6.200000e+001
    endloop
  endfacet
  facet normal  0.000000e+000  0.000000e+000  9.999999e-001
    outer loop
      vertex  2.000000e+000  1.000000e+000 -6.200000e+001
      vertex  0.000000e+000  6.200000e+001 -6.200000e+001
      vertex  0.000000e+000  1.000000e+000 -6.200000e+001
    endloop
  endfacet
  facet normal  0.000000e+000  9.999999e-001  -0.000000e+000
    outer loop
      vertex  2.000000e+000  1.000000e+000 -1.000000e+000
      vertex  2.000000e+000  1.000000e+000 -6.200000e+001
      vertex  0.000000e+000  1.000000e+000 -1.000000e+000
    endloop
  endfacet
  facet normal  0.000000e+000  9.999999e-001  0.000000e+000
    outer loop
      vertex  0.000000e+000  1.000000e+000 -1.000000e+000
      vertex  2.000000e+000  1.000000e+000 -6.200000e+001
      vertex  0.000000e+000  1.000000e+000 -6.200000e+001
    endloop
  endfacet
  facet normal  1.000000e+000  0.000000e+000  0.000000e+000
    outer loop
      vertex  3.000000e+000  0.000000e+000 -6.300000e+001
      vertex  3.000000e+000  6.300000e+001 -6.300000e+001
      vertex  3.000000e+000  0.000000e+000  0.000000e+000
    endloop
  endfacet
  facet normal  1.000000e+000  -0.000000e+000  0.000000e+000
    outer loop
      vertex  3.000000e+000  0.000000e+000  0.000000e+000
      vertex  3.000000e+000  6.300000e+001 -6.300000e+001
      vertex  3.000000e+000  6.300000e+001  0.000000e+000
    endloop
  endfacet
  facet normal  0.000000e+000  0.000000e+000  9.999999e-001
    outer loop
      vertex  3.000000e+000  0.000000e+000  0.000000e+000
      vertex  3.000000e+000  6.300000e+001  0.000000e+000
      vertex  0.000000e+000  0.000000e+000  0.000000e+000
    endloop
  endfacet
  facet normal  0.000000e+000  0.000000e+000  9.999999e-001
    outer loop
      vertex  0.000000e+000  0.000000e+000  0.000000e+000
      vertex  3.000000e+000  6.300000e+001  0.000000e+000
      vertex  0.000000e+000  6.300000e+001  0.000000e+000
    endloop
  endfacet
  facet normal  0.000000e+000  9.999999e-001  0.000000e+000
    outer loop
      vertex  3.000000e+000  6.300000e+001 -6.300000e+001
      vertex  0.000000e+000  6.300000e+001 -6.300000e+001
      vertex  3.000000e+000  6.300000e+001  0.000000e+000
    endloop
  endfacet
  facet normal  0.000000e+000  9.999999e-001  0.000000e+000
    outer loop
      vertex  3.000000e+000  6.300000e+001  0.000000e+000
      vertex  0.000000e+000  6.300000e+001 -6.300000e+001
      vertex  0.000000e+000  6.300000e+001  0.000000e+000
    endloop
  endfacet
  facet normal  0.000000e+000  0.000000e+000 -9.999999e-001
    outer loop
      vertex  3.000000e+000  6.300000e+001 -6.300000e+001
      vertex  3.000000e+000  0.000000e+000 -6.300000e+001
      vertex  0.000000e+000  6.300000e+001 -6.300000e+001
    endloop
  endfacet
  facet normal  0.000000e+000  0.000000e+000 -9.999999e-001
    outer loop
      vertex  0.000000e+000  6.300000e+001 -6.300000e+001
      vertex  3.000000e+000  0.000000e+000 -6.300000e+001
      vertex  0.000000e+000  0.000000e+000 -6.300000e+001
    endloop
  endfacet
  facet normal  0.000000e+000 -9.999999e-001  0.000000e+000
    outer loop
      vertex  3.000000e+000  0.000000e+000  0.000000e+000
      vertex  0.000000e+000  0.000000e+000  0.000000e+000
      vertex  3.000000e+000  0.000000e+000 -6.300000e+001
    endloop
  endfacet
  facet normal  0.000000e+000 -9.999999e-001  0.000000e+000
    outer loop
      vertex  3.000000e+000  0.000000e+000 -6.300000e+001
      vertex  0.000000e+000  0.000000e+000  0.000000e+000
      vertex  0.000000e+000  0.000000e+000 -6.300000e+001
    endloop
  endfacet
endsolid CATIA STL
