solid CATIA STL
  facet normal  1.000000e+000  0.000000e+000  0.000000e+000
    outer loop
      vertex  1.800000e+000 -2.176856e+001  1.009153e+001
      vertex  1.800000e+000 -2.346458e+001  1.231516e+001
      vertex  1.800000e+000 -2.197348e+001  8.189122e+000
    endloop
  endfacet
  facet normal  1.000000e+000  -0.000000e+000  0.000000e+000
    outer loop
      vertex  1.800000e+000  9.653408e-001  2.347263e+001
      vertex  1.800000e+000  3.096935e-001  2.294450e+001
      vertex  1.800000e+000  1.505372e+001  2.180907e+001
    endloop
  endfacet
  facet normal  1.000000e+000  0.000000e+000  -0.000000e+000
    outer loop
      vertex  1.800000e+000  1.996954e+000 -1.132529e+001
      vertex  1.800000e+000  1.983554e+001 -1.757275e+001
      vertex  1.800000e+000  2.346458e+001 -1.231516e+001
    endloop
  endfacet
  facet normal  1.000000e+000  -0.000000e+000  -0.000000e+000
    outer loop
      vertex  1.800000e+000 -3.194222e+000  2.630679e+001
      vertex  1.800000e+000 -3.096935e-001  2.505550e+001
      vertex  1.800000e+000  5.273681e-001  2.496534e+001
    endloop
  endfacet
  facet normal  1.000000e+000  0.000000e+000  0.000000e+000
    outer loop
      vertex  1.800000e+000 -3.096935e-001  2.505550e+001
      vertex  1.800000e+000 -3.194222e+000  2.630679e+001
      vertex  1.800000e+000 -9.397030e+000  2.477793e+001
    endloop
  endfacet
  facet normal  1.000000e+000  0.000000e+000  0.000000e+000
    outer loop
      vertex  1.800000e+000  2.346458e+001 -1.231516e+001
      vertex  1.800000e+000  5.750000e+000 -9.959292e+000
      vertex  1.800000e+000  1.996954e+000 -1.132529e+001
    endloop
  endfacet
  facet normal  1.000000e+000  -0.000000e+000  0.000000e+000
    outer loop
      vertex  1.800000e+000  2.346458e+001  1.231516e+001
      vertex  1.800000e+000  1.996954e+000  1.132529e+001
      vertex  1.800000e+000  5.750000e+000  9.959292e+000
    endloop
  endfacet
  facet normal  1.000000e+000  -0.000000e+000  0.000000e+000
    outer loop
      vertex  1.800000e+000 -2.303466e+001 -5.273681e-001
      vertex  1.800000e+000 -2.369031e+001 -1.055505e+000
      vertex  1.800000e+000 -2.346458e+001 -1.231516e+001
    endloop
  endfacet
  facet normal  1.000000e+000  0.000000e+000  -0.000000e+000
    outer loop
      vertex  1.800000e+000 -1.505372e+001  2.180907e+001
      vertex  1.800000e+000 -5.750000e+000  9.959292e+000
      vertex  1.800000e+000 -1.996954e+000  1.132529e+001
    endloop
  endfacet
  facet normal  1.000000e+000  0.000000e+000  0.000000e+000
    outer loop
      vertex  1.800000e+000 -9.653408e-001  2.452737e+001
      vertex  1.800000e+000 -3.096935e-001  2.505550e+001
      vertex  1.800000e+000 -9.397030e+000  2.477793e+001
    endloop
  endfacet
  facet normal  1.000000e+000  0.000000e+000  -0.000000e+000
    outer loop
      vertex  1.800000e+000 -1.837604e+001  1.108693e+001
      vertex  1.800000e+000 -1.717573e+001  9.596820e+000
      vertex  1.800000e+000 -5.750000e+000  9.959292e+000
    endloop
  endfacet
  facet normal  1.000000e+000  0.000000e+000  0.000000e+000
    outer loop
      vertex  1.800000e+000  2.369031e+001  1.055505e+000
      vertex  1.800000e+000  5.750000e+000  9.959292e+000
      vertex  1.800000e+000  8.809511e+000  7.392057e+000
    endloop
  endfacet
  facet normal  1.000000e+000  0.000000e+000  -0.000000e+000
    outer loop
      vertex  1.800000e+000  1.150000e+001  0.000000e+000
      vertex  1.800000e+000  2.294450e+001 -3.096935e-001
      vertex  1.800000e+000  2.303466e+001  5.273681e-001
    endloop
  endfacet
  facet normal  1.000000e+000  0.000000e+000  0.000000e+000
    outer loop
      vertex  1.800000e+000 -1.505372e+001 -2.180907e+001
      vertex  1.800000e+000 -3.096935e-001 -2.294450e+001
      vertex  1.800000e+000 -1.996954e+000 -1.132529e+001
    endloop
  endfacet
  facet normal  1.000000e+000  0.000000e+000  0.000000e+000
    outer loop
      vertex  1.800000e+000 -1.505372e+001 -2.180907e+001
      vertex  1.800000e+000 -1.996954e+000 -1.132529e+001
      vertex  1.800000e+000 -5.750000e+000 -9.959292e+000
    endloop
  endfacet
  facet normal  1.000000e+000  0.000000e+000  0.000000e+000
    outer loop
      vertex  1.800000e+000 -1.505372e+001 -2.180907e+001
      vertex  1.800000e+000 -5.750000e+000 -9.959292e+000
      vertex  1.800000e+000 -8.809511e+000 -7.392057e+000
    endloop
  endfacet
  facet normal  1.000000e+000  0.000000e+000  0.000000e+000
    outer loop
      vertex  1.800000e+000 -1.505372e+001 -2.180907e+001
      vertex  1.800000e+000 -8.809511e+000 -7.392057e+000
      vertex  1.800000e+000 -1.080647e+001 -3.933232e+000
    endloop
  endfacet
  facet normal  9.999999e-001  0.000000e+000  0.000000e+000
    outer loop
      vertex  1.800000e+000 -1.505372e+001 -2.180907e+001
      vertex  1.800000e+000 -1.080647e+001 -3.933232e+000
      vertex  1.800000e+000 -1.150000e+001  1.408344e-015
    endloop
  endfacet
  facet normal  1.000000e+000  0.000000e+000  0.000000e+000
    outer loop
      vertex  1.800000e+000 -1.505372e+001  2.180907e+001
      vertex  1.800000e+000 -5.273681e-001  2.303466e+001
      vertex  1.800000e+000 -1.055505e+000  2.369031e+001
    endloop
  endfacet
  facet normal  1.000000e+000  0.000000e+000  -0.000000e+000
    outer loop
      vertex  1.800000e+000 -1.505372e+001  2.180907e+001
      vertex  1.800000e+000 -1.055505e+000  2.369031e+001
      vertex  1.800000e+000 -9.653408e-001  2.452737e+001
    endloop
  endfacet
  facet normal  1.000000e+000  0.000000e+000  0.000000e+000
    outer loop
      vertex  1.800000e+000 -1.505372e+001  2.180907e+001
      vertex  1.800000e+000 -9.653408e-001  2.452737e+001
      vertex  1.800000e+000 -9.397030e+000  2.477793e+001
    endloop
  endfacet
  facet normal  1.000000e+000  0.000000e+000  -0.000000e+000
    outer loop
      vertex  1.800000e+000 -9.397030e+000 -2.477793e+001
      vertex  1.800000e+000 -3.194222e+000 -2.630679e+001
      vertex  1.800000e+000 -5.273681e-001 -2.496534e+001
    endloop
  endfacet
  facet normal  1.000000e+000  0.000000e+000  0.000000e+000
    outer loop
      vertex  1.800000e+000 -9.397030e+000 -2.477793e+001
      vertex  1.800000e+000 -5.273681e-001 -2.496534e+001
      vertex  1.800000e+000 -1.055505e+000 -2.430969e+001
    endloop
  endfacet
  facet normal  9.999999e-001  0.000000e+000  -0.000000e+000
    outer loop
      vertex  1.800000e+000 -9.397030e+000 -2.477793e+001
      vertex  1.800000e+000 -1.055505e+000 -2.430969e+001
      vertex  1.800000e+000 -9.653408e-001 -2.347263e+001
    endloop
  endfacet
  facet normal  1.000000e+000  0.000000e+000  -0.000000e+000
    outer loop
      vertex  1.800000e+000 -9.397030e+000 -2.477793e+001
      vertex  1.800000e+000 -9.653408e-001 -2.347263e+001
      vertex  1.800000e+000 -3.096935e-001 -2.294450e+001
    endloop
  endfacet
  facet normal  1.000000e+000  0.000000e+000  0.000000e+000
    outer loop
      vertex  1.800000e+000 -9.397030e+000 -2.477793e+001
      vertex  1.800000e+000 -3.096935e-001 -2.294450e+001
      vertex  1.800000e+000 -1.505372e+001 -2.180907e+001
    endloop
  endfacet
  facet normal  1.000000e+000  0.000000e+000  0.000000e+000
    outer loop
      vertex  1.800000e+000  1.080647e+001 -3.933232e+000
      vertex  1.800000e+000  8.809511e+000 -7.392057e+000
      vertex  1.800000e+000  2.347263e+001 -9.653408e-001
    endloop
  endfacet
  facet normal  1.000000e+000  0.000000e+000  0.000000e+000
    outer loop
      vertex  1.800000e+000  1.080647e+001 -3.933232e+000
      vertex  1.800000e+000  2.347263e+001 -9.653408e-001
      vertex  1.800000e+000  2.294450e+001 -3.096935e-001
    endloop
  endfacet
  facet normal  9.999999e-001  0.000000e+000  0.000000e+000
    outer loop
      vertex  1.800000e+000  1.080647e+001 -3.933232e+000
      vertex  1.800000e+000  2.294450e+001 -3.096935e-001
      vertex  1.800000e+000  1.150000e+001  0.000000e+000
    endloop
  endfacet
  facet normal  1.000000e+000  0.000000e+000  0.000000e+000
    outer loop
      vertex  1.800000e+000 -5.273681e-001 -2.496534e+001
      vertex  1.800000e+000 -3.194222e+000 -2.630679e+001
      vertex  1.800000e+000  3.096935e-001 -2.505550e+001
    endloop
  endfacet
  facet normal  1.000000e+000  0.000000e+000  0.000000e+000
    outer loop
      vertex  1.800000e+000  3.096935e-001 -2.505550e+001
      vertex  1.800000e+000 -3.194222e+000 -2.630679e+001
      vertex  1.800000e+000  3.194222e+000 -2.630679e+001
    endloop
  endfacet
  facet normal  1.000000e+000  0.000000e+000  0.000000e+000
    outer loop
      vertex  1.800000e+000  3.096935e-001 -2.505550e+001
      vertex  1.800000e+000  3.194222e+000 -2.630679e+001
      vertex  1.800000e+000  9.653408e-001 -2.452737e+001
    endloop
  endfacet
  facet normal  9.999999e-001  0.000000e+000  0.000000e+000
    outer loop
      vertex  1.800000e+000  9.653408e-001 -2.452737e+001
      vertex  1.800000e+000  3.194222e+000 -2.630679e+001
      vertex  1.800000e+000  9.397030e+000 -2.477793e+001
    endloop
  endfacet
  facet normal  1.000000e+000  0.000000e+000  0.000000e+000
    outer loop
      vertex  1.800000e+000  9.653408e-001 -2.452737e+001
      vertex  1.800000e+000  9.397030e+000 -2.477793e+001
      vertex  1.800000e+000  1.055505e+000 -2.369031e+001
    endloop
  endfacet
  facet normal  1.000000e+000  0.000000e+000  0.000000e+000
    outer loop
      vertex  1.800000e+000  1.505372e+001 -2.180907e+001
      vertex  1.800000e+000  1.983554e+001 -1.757275e+001
      vertex  1.800000e+000  5.273681e-001 -2.303466e+001
    endloop
  endfacet
  facet normal  1.000000e+000  0.000000e+000  0.000000e+000
    outer loop
      vertex  1.800000e+000  5.273681e-001 -2.303466e+001
      vertex  1.800000e+000  1.983554e+001 -1.757275e+001
      vertex  1.800000e+000  1.996954e+000 -1.132529e+001
    endloop
  endfacet
  facet normal  1.000000e+000  0.000000e+000  0.000000e+000
    outer loop
      vertex  1.800000e+000  5.273681e-001 -2.303466e+001
      vertex  1.800000e+000  1.996954e+000 -1.132529e+001
      vertex  1.800000e+000 -3.096935e-001 -2.294450e+001
    endloop
  endfacet
  facet normal  1.000000e+000  0.000000e+000  -0.000000e+000
    outer loop
      vertex  1.800000e+000 -3.096935e-001 -2.294450e+001
      vertex  1.800000e+000  1.996954e+000 -1.132529e+001
      vertex  1.800000e+000 -1.996954e+000 -1.132529e+001
    endloop
  endfacet
  facet normal  1.000000e+000  0.000000e+000  0.000000e+000
    outer loop
      vertex  1.800000e+000  2.346458e+001  1.231516e+001
      vertex  1.800000e+000  1.983554e+001  1.757275e+001
      vertex  1.800000e+000  1.996954e+000  1.132529e+001
    endloop
  endfacet
  facet normal  1.000000e+000  0.000000e+000  0.000000e+000
    outer loop
      vertex  1.800000e+000  1.996954e+000  1.132529e+001
      vertex  1.800000e+000  1.983554e+001  1.757275e+001
      vertex  1.800000e+000  1.505372e+001  2.180907e+001
    endloop
  endfacet
  facet normal  1.000000e+000  0.000000e+000  0.000000e+000
    outer loop
      vertex  1.800000e+000  1.996954e+000  1.132529e+001
      vertex  1.800000e+000  1.505372e+001  2.180907e+001
      vertex  1.800000e+000 -1.996954e+000  1.132529e+001
    endloop
  endfacet
  facet normal  1.000000e+000  0.000000e+000  0.000000e+000
    outer loop
      vertex  1.800000e+000 -1.996954e+000  1.132529e+001
      vertex  1.800000e+000  1.505372e+001  2.180907e+001
      vertex  1.800000e+000  3.096935e-001  2.294450e+001
    endloop
  endfacet
  facet normal  1.000000e+000  0.000000e+000  0.000000e+000
    outer loop
      vertex  1.800000e+000 -1.996954e+000  1.132529e+001
      vertex  1.800000e+000  3.096935e-001  2.294450e+001
      vertex  1.800000e+000 -1.505372e+001  2.180907e+001
    endloop
  endfacet
  facet normal  1.000000e+000  0.000000e+000  0.000000e+000
    outer loop
      vertex  1.800000e+000 -1.505372e+001  2.180907e+001
      vertex  1.800000e+000  3.096935e-001  2.294450e+001
      vertex  1.800000e+000 -5.273681e-001  2.303466e+001
    endloop
  endfacet
  facet normal  1.000000e+000  -0.000000e+000  0.000000e+000
    outer loop
      vertex  1.800000e+000  3.194222e+000  2.630679e+001
      vertex  1.800000e+000 -3.194222e+000  2.630679e+001
      vertex  1.800000e+000  9.397030e+000  2.477793e+001
    endloop
  endfacet
  facet normal  1.000000e+000  0.000000e+000  0.000000e+000
    outer loop
      vertex  1.800000e+000  9.397030e+000  2.477793e+001
      vertex  1.800000e+000 -3.194222e+000  2.630679e+001
      vertex  1.800000e+000  5.273681e-001  2.496534e+001
    endloop
  endfacet
  facet normal  9.999999e-001  0.000000e+000  0.000000e+000
    outer loop
      vertex  1.800000e+000  9.397030e+000  2.477793e+001
      vertex  1.800000e+000  5.273681e-001  2.496534e+001
      vertex  1.800000e+000  1.505372e+001  2.180907e+001
    endloop
  endfacet
  facet normal  1.000000e+000  0.000000e+000  0.000000e+000
    outer loop
      vertex  1.800000e+000  1.505372e+001  2.180907e+001
      vertex  1.800000e+000  5.273681e-001  2.496534e+001
      vertex  1.800000e+000  1.055505e+000  2.430969e+001
    endloop
  endfacet
  facet normal  1.000000e+000  0.000000e+000  0.000000e+000
    outer loop
      vertex  1.800000e+000  1.505372e+001  2.180907e+001
      vertex  1.800000e+000  1.055505e+000  2.430969e+001
      vertex  1.800000e+000  9.653408e-001  2.347263e+001
    endloop
  endfacet
  facet normal  1.000000e+000  0.000000e+000  0.000000e+000
    outer loop
      vertex  1.800000e+000  8.809511e+000 -7.392057e+000
      vertex  1.800000e+000  5.750000e+000 -9.959292e+000
      vertex  1.800000e+000  2.347263e+001 -9.653408e-001
    endloop
  endfacet
  facet normal  1.000000e+000  0.000000e+000  0.000000e+000
    outer loop
      vertex  1.800000e+000  2.347263e+001 -9.653408e-001
      vertex  1.800000e+000  5.750000e+000 -9.959292e+000
      vertex  1.800000e+000  2.346458e+001 -1.231516e+001
    endloop
  endfacet
  facet normal  1.000000e+000  0.000000e+000  0.000000e+000
    outer loop
      vertex  1.800000e+000  2.347263e+001 -9.653408e-001
      vertex  1.800000e+000  2.346458e+001 -1.231516e+001
      vertex  1.800000e+000  2.430969e+001 -1.055505e+000
    endloop
  endfacet
  facet normal  1.000000e+000  0.000000e+000  0.000000e+000
    outer loop
      vertex  1.800000e+000  2.430969e+001 -1.055505e+000
      vertex  1.800000e+000  2.346458e+001 -1.231516e+001
      vertex  1.800000e+000  2.572996e+001 -6.341865e+000
    endloop
  endfacet
  facet normal  1.000000e+000  0.000000e+000  0.000000e+000
    outer loop
      vertex  1.800000e+000  2.430969e+001 -1.055505e+000
      vertex  1.800000e+000  2.572996e+001 -6.341865e+000
      vertex  1.800000e+000  2.496534e+001 -5.273681e-001
    endloop
  endfacet
  facet normal  1.000000e+000  0.000000e+000  0.000000e+000
    outer loop
      vertex  1.800000e+000  2.496534e+001 -5.273681e-001
      vertex  1.800000e+000  2.572996e+001 -6.341865e+000
      vertex  1.800000e+000  2.505550e+001  3.096935e-001
    endloop
  endfacet
  facet normal  1.000000e+000  0.000000e+000  0.000000e+000
    outer loop
      vertex  1.800000e+000  2.505550e+001  3.096935e-001
      vertex  1.800000e+000  2.572996e+001 -6.341865e+000
      vertex  1.800000e+000  2.650000e+001  0.000000e+000
    endloop
  endfacet
  facet normal  1.000000e+000  0.000000e+000  0.000000e+000
    outer loop
      vertex  1.800000e+000  2.505550e+001  3.096935e-001
      vertex  1.800000e+000  2.650000e+001  0.000000e+000
      vertex  1.800000e+000  2.452737e+001  9.653408e-001
    endloop
  endfacet
  facet normal  9.999999e-001  -0.000000e+000  0.000000e+000
    outer loop
      vertex  1.800000e+000  2.452737e+001  9.653408e-001
      vertex  1.800000e+000  2.650000e+001  0.000000e+000
      vertex  1.800000e+000  2.572996e+001  6.341865e+000
    endloop
  endfacet
  facet normal  1.000000e+000  0.000000e+000  0.000000e+000
    outer loop
      vertex  1.800000e+000  2.452737e+001  9.653408e-001
      vertex  1.800000e+000  2.572996e+001  6.341865e+000
      vertex  1.800000e+000  2.369031e+001  1.055505e+000
    endloop
  endfacet
  facet normal  1.000000e+000  0.000000e+000  -0.000000e+000
    outer loop
      vertex  1.800000e+000  2.369031e+001  1.055505e+000
      vertex  1.800000e+000  2.572996e+001  6.341865e+000
      vertex  1.800000e+000  2.346458e+001  1.231516e+001
    endloop
  endfacet
  facet normal  1.000000e+000  0.000000e+000  0.000000e+000
    outer loop
      vertex  1.800000e+000  2.369031e+001  1.055505e+000
      vertex  1.800000e+000  2.346458e+001  1.231516e+001
      vertex  1.800000e+000  5.750000e+000  9.959292e+000
    endloop
  endfacet
  facet normal  1.000000e+000  0.000000e+000  0.000000e+000
    outer loop
      vertex  1.800000e+000 -1.505372e+001 -2.180907e+001
      vertex  1.800000e+000 -1.150000e+001  1.408344e-015
      vertex  1.800000e+000 -1.983554e+001 -1.757275e+001
    endloop
  endfacet
  facet normal  1.000000e+000  0.000000e+000  0.000000e+000
    outer loop
      vertex  1.800000e+000 -1.983554e+001 -1.757275e+001
      vertex  1.800000e+000 -1.150000e+001  1.408344e-015
      vertex  1.800000e+000 -1.887075e+001  6.494097e+000
    endloop
  endfacet
  facet normal  1.000000e+000  0.000000e+000  0.000000e+000
    outer loop
      vertex  1.800000e+000 -1.983554e+001 -1.757275e+001
      vertex  1.800000e+000 -1.887075e+001  6.494097e+000
      vertex  1.800000e+000 -2.346458e+001 -1.231516e+001
    endloop
  endfacet
  facet normal  1.000000e+000  0.000000e+000  0.000000e+000
    outer loop
      vertex  1.800000e+000 -2.346458e+001 -1.231516e+001
      vertex  1.800000e+000 -1.887075e+001  6.494097e+000
      vertex  1.800000e+000 -2.077317e+001  6.699015e+000
    endloop
  endfacet
  facet normal  1.000000e+000  0.000000e+000  0.000000e+000
    outer loop
      vertex  1.800000e+000 -2.346458e+001 -1.231516e+001
      vertex  1.800000e+000 -2.077317e+001  6.699015e+000
      vertex  1.800000e+000 -2.303466e+001 -5.273681e-001
    endloop
  endfacet
  facet normal  1.000000e+000  0.000000e+000  0.000000e+000
    outer loop
      vertex  1.800000e+000 -2.303466e+001 -5.273681e-001
      vertex  1.800000e+000 -2.077317e+001  6.699015e+000
      vertex  1.800000e+000 -2.294450e+001  3.096935e-001
    endloop
  endfacet
  facet normal  1.000000e+000  0.000000e+000  0.000000e+000
    outer loop
      vertex  1.800000e+000 -5.750000e+000  9.959292e+000
      vertex  1.800000e+000 -1.505372e+001  2.180907e+001
      vertex  1.800000e+000 -1.837604e+001  1.108693e+001
    endloop
  endfacet
  facet normal  1.000000e+000  0.000000e+000  -0.000000e+000
    outer loop
      vertex  1.800000e+000 -1.837604e+001  1.108693e+001
      vertex  1.800000e+000 -1.505372e+001  2.180907e+001
      vertex  1.800000e+000 -1.983554e+001  1.757275e+001
    endloop
  endfacet
  facet normal  1.000000e+000  0.000000e+000  0.000000e+000
    outer loop
      vertex  1.800000e+000 -1.837604e+001  1.108693e+001
      vertex  1.800000e+000 -1.983554e+001  1.757275e+001
      vertex  1.800000e+000 -2.027845e+001  1.129185e+001
    endloop
  endfacet
  facet normal  1.000000e+000  0.000000e+000  -0.000000e+000
    outer loop
      vertex  1.800000e+000 -2.027845e+001  1.129185e+001
      vertex  1.800000e+000 -1.983554e+001  1.757275e+001
      vertex  1.800000e+000 -2.346458e+001  1.231516e+001
    endloop
  endfacet
  facet normal  1.000000e+000  0.000000e+000  0.000000e+000
    outer loop
      vertex  1.800000e+000 -2.027845e+001  1.129185e+001
      vertex  1.800000e+000 -2.346458e+001  1.231516e+001
      vertex  1.800000e+000 -2.176856e+001  1.009153e+001
    endloop
  endfacet
  facet normal  1.000000e+000  0.000000e+000  0.000000e+000
    outer loop
      vertex  1.800000e+000 -2.346458e+001 -1.231516e+001
      vertex  1.800000e+000 -2.369031e+001 -1.055505e+000
      vertex  1.800000e+000 -2.572996e+001 -6.341865e+000
    endloop
  endfacet
  facet normal  1.000000e+000  0.000000e+000  0.000000e+000
    outer loop
      vertex  1.800000e+000 -2.572996e+001 -6.341865e+000
      vertex  1.800000e+000 -2.369031e+001 -1.055505e+000
      vertex  1.800000e+000 -2.452737e+001 -9.653408e-001
    endloop
  endfacet
  facet normal  9.999999e-001  0.000000e+000  0.000000e+000
    outer loop
      vertex  1.800000e+000 -2.572996e+001 -6.341865e+000
      vertex  1.800000e+000 -2.452737e+001 -9.653408e-001
      vertex  1.800000e+000 -2.650000e+001  3.245314e-015
    endloop
  endfacet
  facet normal  1.000000e+000  0.000000e+000  0.000000e+000
    outer loop
      vertex  1.800000e+000 -2.650000e+001  3.245314e-015
      vertex  1.800000e+000 -2.452737e+001 -9.653408e-001
      vertex  1.800000e+000 -2.505550e+001 -3.096935e-001
    endloop
  endfacet
  facet normal  1.000000e+000  0.000000e+000  -0.000000e+000
    outer loop
      vertex  1.800000e+000 -2.650000e+001  3.245314e-015
      vertex  1.800000e+000 -2.505550e+001 -3.096935e-001
      vertex  1.800000e+000 -2.496534e+001  5.273681e-001
    endloop
  endfacet
  facet normal  9.999999e-001  0.000000e+000  0.000000e+000
    outer loop
      vertex  1.800000e+000 -2.346458e+001  1.231516e+001
      vertex  1.800000e+000 -2.572996e+001  6.341865e+000
      vertex  1.800000e+000 -2.197348e+001  8.189122e+000
    endloop
  endfacet
  facet normal  9.999999e-001  0.000000e+000  0.000000e+000
    outer loop
      vertex  1.800000e+000 -2.197348e+001  8.189122e+000
      vertex  1.800000e+000 -2.572996e+001  6.341865e+000
      vertex  1.800000e+000 -2.347263e+001  9.653408e-001
    endloop
  endfacet
  facet normal  1.000000e+000  0.000000e+000  0.000000e+000
    outer loop
      vertex  1.800000e+000 -2.197348e+001  8.189122e+000
      vertex  1.800000e+000 -2.347263e+001  9.653408e-001
      vertex  1.800000e+000 -2.077317e+001  6.699015e+000
    endloop
  endfacet
  facet normal  1.000000e+000  0.000000e+000  0.000000e+000
    outer loop
      vertex  1.800000e+000 -2.077317e+001  6.699015e+000
      vertex  1.800000e+000 -2.347263e+001  9.653408e-001
      vertex  1.800000e+000 -2.294450e+001  3.096935e-001
    endloop
  endfacet
  facet normal  1.000000e+000  0.000000e+000  0.000000e+000
    outer loop
      vertex  1.800000e+000 -2.650000e+001  3.245314e-015
      vertex  1.800000e+000 -2.496534e+001  5.273681e-001
      vertex  1.800000e+000 -2.572996e+001  6.341865e+000
    endloop
  endfacet
  facet normal  1.000000e+000  0.000000e+000  0.000000e+000
    outer loop
      vertex  1.800000e+000 -2.572996e+001  6.341865e+000
      vertex  1.800000e+000 -2.496534e+001  5.273681e-001
      vertex  1.800000e+000 -2.430969e+001  1.055505e+000
    endloop
  endfacet
  facet normal  1.000000e+000  -0.000000e+000  -0.000000e+000
    outer loop
      vertex  1.800000e+000 -2.572996e+001  6.341865e+000
      vertex  1.800000e+000 -2.430969e+001  1.055505e+000
      vertex  1.800000e+000 -2.347263e+001  9.653408e-001
    endloop
  endfacet
  facet normal  1.000000e+000  -0.000000e+000  0.000000e+000
    outer loop
      vertex  1.800000e+000 -5.750000e+000  9.959292e+000
      vertex  1.800000e+000 -1.717573e+001  9.596820e+000
      vertex  1.800000e+000 -8.809511e+000  7.392057e+000
    endloop
  endfacet
  facet normal  1.000000e+000  0.000000e+000  0.000000e+000
    outer loop
      vertex  1.800000e+000 -8.809511e+000  7.392057e+000
      vertex  1.800000e+000 -1.717573e+001  9.596820e+000
      vertex  1.800000e+000 -1.738065e+001  7.694407e+000
    endloop
  endfacet
  facet normal  9.999999e-001  0.000000e+000  0.000000e+000
    outer loop
      vertex  1.800000e+000 -8.809511e+000  7.392057e+000
      vertex  1.800000e+000 -1.738065e+001  7.694407e+000
      vertex  1.800000e+000 -1.080647e+001  3.933232e+000
    endloop
  endfacet
  facet normal  9.999999e-001  0.000000e+000  0.000000e+000
    outer loop
      vertex  1.800000e+000 -1.080647e+001  3.933232e+000
      vertex  1.800000e+000 -1.738065e+001  7.694407e+000
      vertex  1.800000e+000 -1.887075e+001  6.494097e+000
    endloop
  endfacet
  facet normal  1.000000e+000  0.000000e+000  0.000000e+000
    outer loop
      vertex  1.800000e+000 -1.080647e+001  3.933232e+000
      vertex  1.800000e+000 -1.887075e+001  6.494097e+000
      vertex  1.800000e+000 -1.150000e+001  1.408344e-015
    endloop
  endfacet
  facet normal  1.000000e+000  0.000000e+000  0.000000e+000
    outer loop
      vertex  1.800000e+000  1.150000e+001  0.000000e+000
      vertex  1.800000e+000  2.303466e+001  5.273681e-001
      vertex  1.800000e+000  1.080647e+001  3.933232e+000
    endloop
  endfacet
  facet normal  1.000000e+000  0.000000e+000  0.000000e+000
    outer loop
      vertex  1.800000e+000  1.080647e+001  3.933232e+000
      vertex  1.800000e+000  2.303466e+001  5.273681e-001
      vertex  1.800000e+000  2.369031e+001  1.055505e+000
    endloop
  endfacet
  facet normal  9.999999e-001  0.000000e+000  0.000000e+000
    outer loop
      vertex  1.800000e+000  1.080647e+001  3.933232e+000
      vertex  1.800000e+000  2.369031e+001  1.055505e+000
      vertex  1.800000e+000  8.809511e+000  7.392057e+000
    endloop
  endfacet
  facet normal  1.000000e+000  0.000000e+000  0.000000e+000
    outer loop
      vertex  1.800000e+000  1.055505e+000 -2.369031e+001
      vertex  1.800000e+000  9.397030e+000 -2.477793e+001
      vertex  1.800000e+000  5.273681e-001 -2.303466e+001
    endloop
  endfacet
  facet normal  1.000000e+000  -0.000000e+000  0.000000e+000
    outer loop
      vertex  1.800000e+000  5.273681e-001 -2.303466e+001
      vertex  1.800000e+000  9.397030e+000 -2.477793e+001
      vertex  1.800000e+000  1.505372e+001 -2.180907e+001
    endloop
  endfacet
  facet normal -1.000000e+000  0.000000e+000  0.000000e+000
    outer loop
      vertex  0.000000e+000 -2.197348e+001  8.189122e+000
      vertex  0.000000e+000 -2.346458e+001  1.231516e+001
      vertex  0.000000e+000 -2.176856e+001  1.009153e+001
    endloop
  endfacet
  facet normal -1.000000e+000  -0.000000e+000  0.000000e+000
    outer loop
      vertex  0.000000e+000 -2.346458e+001  1.231516e+001
      vertex  0.000000e+000 -2.027845e+001  1.129185e+001
      vertex  0.000000e+000 -2.176856e+001  1.009153e+001
    endloop
  endfacet
  facet normal -1.000000e+000  0.000000e+000  0.000000e+000
    outer loop
      vertex  0.000000e+000  1.505372e+001  2.180907e+001
      vertex  0.000000e+000  3.096935e-001  2.294450e+001
      vertex  0.000000e+000  9.653408e-001  2.347263e+001
    endloop
  endfacet
  facet normal -1.000000e+000  0.000000e+000  -0.000000e+000
    outer loop
      vertex  0.000000e+000  1.996954e+000 -1.132529e+001
      vertex  0.000000e+000  5.750000e+000 -9.959292e+000
      vertex  0.000000e+000  2.346458e+001 -1.231516e+001
    endloop
  endfacet
  facet normal -1.000000e+000  0.000000e+000  0.000000e+000
    outer loop
      vertex  0.000000e+000  5.750000e+000  9.959292e+000
      vertex  0.000000e+000  1.996954e+000  1.132529e+001
      vertex  0.000000e+000  2.346458e+001  1.231516e+001
    endloop
  endfacet
  facet normal -1.000000e+000  0.000000e+000  0.000000e+000
    outer loop
      vertex  0.000000e+000 -2.346458e+001 -1.231516e+001
      vertex  0.000000e+000 -2.369031e+001 -1.055505e+000
      vertex  0.000000e+000 -2.303466e+001 -5.273681e-001
    endloop
  endfacet
  facet normal -1.000000e+000  0.000000e+000  -0.000000e+000
    outer loop
      vertex  0.000000e+000 -2.027845e+001  1.129185e+001
      vertex  0.000000e+000 -1.983554e+001  1.757275e+001
      vertex  0.000000e+000 -1.837604e+001  1.108693e+001
    endloop
  endfacet
  facet normal -1.000000e+000  0.000000e+000  0.000000e+000
    outer loop
      vertex  0.000000e+000 -2.027845e+001  1.129185e+001
      vertex  0.000000e+000 -2.346458e+001  1.231516e+001
      vertex  0.000000e+000 -1.983554e+001  1.757275e+001
    endloop
  endfacet
  facet normal -1.000000e+000  0.000000e+000  0.000000e+000
    outer loop
      vertex  0.000000e+000  2.346458e+001 -1.231516e+001
      vertex  0.000000e+000  1.983554e+001 -1.757275e+001
      vertex  0.000000e+000  1.996954e+000 -1.132529e+001
    endloop
  endfacet
  facet normal -1.000000e+000  0.000000e+000  0.000000e+000
    outer loop
      vertex  0.000000e+000  5.273681e-001  2.496534e+001
      vertex  0.000000e+000 -3.096935e-001  2.505550e+001
      vertex  0.000000e+000 -3.194222e+000  2.630679e+001
    endloop
  endfacet
  facet normal -1.000000e+000  0.000000e+000  -0.000000e+000
    outer loop
      vertex  0.000000e+000 -9.397030e+000  2.477793e+001
      vertex  0.000000e+000 -3.194222e+000  2.630679e+001
      vertex  0.000000e+000 -3.096935e-001  2.505550e+001
    endloop
  endfacet
  facet normal -1.000000e+000  0.000000e+000  0.000000e+000
    outer loop
      vertex  0.000000e+000 -9.397030e+000  2.477793e+001
      vertex  0.000000e+000 -3.096935e-001  2.505550e+001
      vertex  0.000000e+000 -9.653408e-001  2.452737e+001
    endloop
  endfacet
  facet normal -1.000000e+000  0.000000e+000  0.000000e+000
    outer loop
      vertex  0.000000e+000 -5.750000e+000  9.959292e+000
      vertex  0.000000e+000 -1.717573e+001  9.596820e+000
      vertex  0.000000e+000 -1.837604e+001  1.108693e+001
    endloop
  endfacet
  facet normal -1.000000e+000  0.000000e+000  0.000000e+000
    outer loop
      vertex  0.000000e+000  8.809511e+000  7.392057e+000
      vertex  0.000000e+000  5.750000e+000  9.959292e+000
      vertex  0.000000e+000  2.369031e+001  1.055505e+000
    endloop
  endfacet
  facet normal -1.000000e+000  0.000000e+000  0.000000e+000
    outer loop
      vertex  0.000000e+000  2.294450e+001 -3.096935e-001
      vertex  0.000000e+000  1.150000e+001  0.000000e+000
      vertex  0.000000e+000  2.303466e+001  5.273681e-001
    endloop
  endfacet
  facet normal -9.999999e-001  0.000000e+000  -0.000000e+000
    outer loop
      vertex  0.000000e+000 -1.505372e+001 -2.180907e+001
      vertex  0.000000e+000 -1.150000e+001  1.408344e-015
      vertex  0.000000e+000 -1.080647e+001 -3.933232e+000
    endloop
  endfacet
  facet normal -1.000000e+000  0.000000e+000  -0.000000e+000
    outer loop
      vertex  0.000000e+000 -1.505372e+001 -2.180907e+001
      vertex  0.000000e+000 -1.080647e+001 -3.933232e+000
      vertex  0.000000e+000 -8.809511e+000 -7.392057e+000
    endloop
  endfacet
  facet normal -1.000000e+000  0.000000e+000  -0.000000e+000
    outer loop
      vertex  0.000000e+000 -1.505372e+001 -2.180907e+001
      vertex  0.000000e+000 -8.809511e+000 -7.392057e+000
      vertex  0.000000e+000 -5.750000e+000 -9.959292e+000
    endloop
  endfacet
  facet normal -1.000000e+000  0.000000e+000  -0.000000e+000
    outer loop
      vertex  0.000000e+000 -1.505372e+001 -2.180907e+001
      vertex  0.000000e+000 -5.750000e+000 -9.959292e+000
      vertex  0.000000e+000 -1.996954e+000 -1.132529e+001
    endloop
  endfacet
  facet normal -1.000000e+000  0.000000e+000  -0.000000e+000
    outer loop
      vertex  0.000000e+000 -1.505372e+001 -2.180907e+001
      vertex  0.000000e+000 -1.996954e+000 -1.132529e+001
      vertex  0.000000e+000 -3.096935e-001 -2.294450e+001
    endloop
  endfacet
  facet normal -1.000000e+000  0.000000e+000  -0.000000e+000
    outer loop
      vertex  0.000000e+000 -1.505372e+001  2.180907e+001
      vertex  0.000000e+000 -9.397030e+000  2.477793e+001
      vertex  0.000000e+000 -9.653408e-001  2.452737e+001
    endloop
  endfacet
  facet normal -1.000000e+000  0.000000e+000  0.000000e+000
    outer loop
      vertex  0.000000e+000 -1.505372e+001  2.180907e+001
      vertex  0.000000e+000 -9.653408e-001  2.452737e+001
      vertex  0.000000e+000 -1.055505e+000  2.369031e+001
    endloop
  endfacet
  facet normal -1.000000e+000  0.000000e+000  -0.000000e+000
    outer loop
      vertex  0.000000e+000 -1.505372e+001  2.180907e+001
      vertex  0.000000e+000 -1.055505e+000  2.369031e+001
      vertex  0.000000e+000 -5.273681e-001  2.303466e+001
    endloop
  endfacet
  facet normal -1.000000e+000  0.000000e+000  0.000000e+000
    outer loop
      vertex  0.000000e+000 -1.505372e+001  2.180907e+001
      vertex  0.000000e+000 -5.273681e-001  2.303466e+001
      vertex  0.000000e+000 -1.996954e+000  1.132529e+001
    endloop
  endfacet
  facet normal -1.000000e+000  -0.000000e+000  0.000000e+000
    outer loop
      vertex  0.000000e+000 -1.505372e+001  2.180907e+001
      vertex  0.000000e+000 -1.996954e+000  1.132529e+001
      vertex  0.000000e+000 -5.750000e+000  9.959292e+000
    endloop
  endfacet
  facet normal -1.000000e+000  0.000000e+000  0.000000e+000
    outer loop
      vertex  0.000000e+000 -1.505372e+001  2.180907e+001
      vertex  0.000000e+000 -5.750000e+000  9.959292e+000
      vertex  0.000000e+000 -1.837604e+001  1.108693e+001
    endloop
  endfacet
  facet normal -1.000000e+000  0.000000e+000  0.000000e+000
    outer loop
      vertex  0.000000e+000 -1.505372e+001  2.180907e+001
      vertex  0.000000e+000 -1.837604e+001  1.108693e+001
      vertex  0.000000e+000 -1.983554e+001  1.757275e+001
    endloop
  endfacet
  facet normal -1.000000e+000  0.000000e+000  0.000000e+000
    outer loop
      vertex  0.000000e+000 -9.397030e+000 -2.477793e+001
      vertex  0.000000e+000 -1.505372e+001 -2.180907e+001
      vertex  0.000000e+000 -3.096935e-001 -2.294450e+001
    endloop
  endfacet
  facet normal -9.999999e-001  0.000000e+000  0.000000e+000
    outer loop
      vertex  0.000000e+000 -9.397030e+000 -2.477793e+001
      vertex  0.000000e+000 -3.096935e-001 -2.294450e+001
      vertex  0.000000e+000 -9.653408e-001 -2.347263e+001
    endloop
  endfacet
  facet normal -1.000000e+000  0.000000e+000  0.000000e+000
    outer loop
      vertex  0.000000e+000 -9.397030e+000 -2.477793e+001
      vertex  0.000000e+000 -9.653408e-001 -2.347263e+001
      vertex  0.000000e+000 -1.055505e+000 -2.430969e+001
    endloop
  endfacet
  facet normal -1.000000e+000  0.000000e+000  -0.000000e+000
    outer loop
      vertex  0.000000e+000 -9.397030e+000 -2.477793e+001
      vertex  0.000000e+000 -1.055505e+000 -2.430969e+001
      vertex  0.000000e+000 -5.273681e-001 -2.496534e+001
    endloop
  endfacet
  facet normal -1.000000e+000  -0.000000e+000  0.000000e+000
    outer loop
      vertex  0.000000e+000 -9.397030e+000 -2.477793e+001
      vertex  0.000000e+000 -5.273681e-001 -2.496534e+001
      vertex  0.000000e+000 -3.194222e+000 -2.630679e+001
    endloop
  endfacet
  facet normal -9.999999e-001  0.000000e+000  -0.000000e+000
    outer loop
      vertex  0.000000e+000  1.080647e+001 -3.933232e+000
      vertex  0.000000e+000  1.150000e+001  0.000000e+000
      vertex  0.000000e+000  2.294450e+001 -3.096935e-001
    endloop
  endfacet
  facet normal -1.000000e+000  0.000000e+000  -0.000000e+000
    outer loop
      vertex  0.000000e+000  1.080647e+001 -3.933232e+000
      vertex  0.000000e+000  2.294450e+001 -3.096935e-001
      vertex  0.000000e+000  2.347263e+001 -9.653408e-001
    endloop
  endfacet
  facet normal -1.000000e+000  0.000000e+000  0.000000e+000
    outer loop
      vertex  0.000000e+000  1.080647e+001 -3.933232e+000
      vertex  0.000000e+000  2.347263e+001 -9.653408e-001
      vertex  0.000000e+000  8.809511e+000 -7.392057e+000
    endloop
  endfacet
  facet normal -1.000000e+000  0.000000e+000  0.000000e+000
    outer loop
      vertex  0.000000e+000 -2.496534e+001  5.273681e-001
      vertex  0.000000e+000 -2.505550e+001 -3.096935e-001
      vertex  0.000000e+000 -2.650000e+001  3.245314e-015
    endloop
  endfacet
  facet normal -1.000000e+000  0.000000e+000  0.000000e+000
    outer loop
      vertex  0.000000e+000 -2.650000e+001  3.245314e-015
      vertex  0.000000e+000 -2.505550e+001 -3.096935e-001
      vertex  0.000000e+000 -2.452737e+001 -9.653408e-001
    endloop
  endfacet
  facet normal -9.999999e-001  -0.000000e+000  0.000000e+000
    outer loop
      vertex  0.000000e+000 -2.650000e+001  3.245314e-015
      vertex  0.000000e+000 -2.452737e+001 -9.653408e-001
      vertex  0.000000e+000 -2.572996e+001 -6.341865e+000
    endloop
  endfacet
  facet normal -1.000000e+000  0.000000e+000  0.000000e+000
    outer loop
      vertex  0.000000e+000 -2.572996e+001 -6.341865e+000
      vertex  0.000000e+000 -2.452737e+001 -9.653408e-001
      vertex  0.000000e+000 -2.369031e+001 -1.055505e+000
    endloop
  endfacet
  facet normal -1.000000e+000  0.000000e+000  -0.000000e+000
    outer loop
      vertex  0.000000e+000 -2.572996e+001 -6.341865e+000
      vertex  0.000000e+000 -2.369031e+001 -1.055505e+000
      vertex  0.000000e+000 -2.346458e+001 -1.231516e+001
    endloop
  endfacet
  facet normal -9.999999e-001  -0.000000e+000  0.000000e+000
    outer loop
      vertex  0.000000e+000 -2.346458e+001  1.231516e+001
      vertex  0.000000e+000 -2.197348e+001  8.189122e+000
      vertex  0.000000e+000 -2.572996e+001  6.341865e+000
    endloop
  endfacet
  facet normal -1.000000e+000  0.000000e+000  0.000000e+000
    outer loop
      vertex  0.000000e+000 -2.572996e+001  6.341865e+000
      vertex  0.000000e+000 -2.197348e+001  8.189122e+000
      vertex  0.000000e+000 -2.347263e+001  9.653408e-001
    endloop
  endfacet
  facet normal -1.000000e+000  -0.000000e+000  0.000000e+000
    outer loop
      vertex  0.000000e+000 -2.197348e+001  8.189122e+000
      vertex  0.000000e+000 -2.077317e+001  6.699015e+000
      vertex  0.000000e+000 -2.347263e+001  9.653408e-001
    endloop
  endfacet
  facet normal -1.000000e+000  0.000000e+000  0.000000e+000
    outer loop
      vertex  0.000000e+000 -2.347263e+001  9.653408e-001
      vertex  0.000000e+000 -2.077317e+001  6.699015e+000
      vertex  0.000000e+000 -2.294450e+001  3.096935e-001
    endloop
  endfacet
  facet normal -1.000000e+000  0.000000e+000  0.000000e+000
    outer loop
      vertex  0.000000e+000  2.496534e+001 -5.273681e-001
      vertex  0.000000e+000  2.572996e+001 -6.341865e+000
      vertex  0.000000e+000  2.430969e+001 -1.055505e+000
    endloop
  endfacet
  facet normal -1.000000e+000  0.000000e+000  -0.000000e+000
    outer loop
      vertex  0.000000e+000  2.430969e+001 -1.055505e+000
      vertex  0.000000e+000  2.572996e+001 -6.341865e+000
      vertex  0.000000e+000  2.346458e+001 -1.231516e+001
    endloop
  endfacet
  facet normal -1.000000e+000  0.000000e+000  0.000000e+000
    outer loop
      vertex  0.000000e+000  2.430969e+001 -1.055505e+000
      vertex  0.000000e+000  2.346458e+001 -1.231516e+001
      vertex  0.000000e+000  2.347263e+001 -9.653408e-001
    endloop
  endfacet
  facet normal -1.000000e+000  0.000000e+000  0.000000e+000
    outer loop
      vertex  0.000000e+000  2.347263e+001 -9.653408e-001
      vertex  0.000000e+000  2.346458e+001 -1.231516e+001
      vertex  0.000000e+000  5.750000e+000 -9.959292e+000
    endloop
  endfacet
  facet normal -1.000000e+000  0.000000e+000  0.000000e+000
    outer loop
      vertex  0.000000e+000  2.347263e+001 -9.653408e-001
      vertex  0.000000e+000  5.750000e+000 -9.959292e+000
      vertex  0.000000e+000  8.809511e+000 -7.392057e+000
    endloop
  endfacet
  facet normal -1.000000e+000  0.000000e+000  -0.000000e+000
    outer loop
      vertex  0.000000e+000  5.750000e+000  9.959292e+000
      vertex  0.000000e+000  2.346458e+001  1.231516e+001
      vertex  0.000000e+000  2.369031e+001  1.055505e+000
    endloop
  endfacet
  facet normal -1.000000e+000  0.000000e+000  0.000000e+000
    outer loop
      vertex  0.000000e+000  2.369031e+001  1.055505e+000
      vertex  0.000000e+000  2.346458e+001  1.231516e+001
      vertex  0.000000e+000  2.572996e+001  6.341865e+000
    endloop
  endfacet
  facet normal -1.000000e+000  0.000000e+000  0.000000e+000
    outer loop
      vertex  0.000000e+000  2.369031e+001  1.055505e+000
      vertex  0.000000e+000  2.572996e+001  6.341865e+000
      vertex  0.000000e+000  2.452737e+001  9.653408e-001
    endloop
  endfacet
  facet normal -9.999999e-001  0.000000e+000  0.000000e+000
    outer loop
      vertex  0.000000e+000  2.452737e+001  9.653408e-001
      vertex  0.000000e+000  2.572996e+001  6.341865e+000
      vertex  0.000000e+000  2.650000e+001 -6.490628e-015
    endloop
  endfacet
  facet normal -1.000000e+000  0.000000e+000  0.000000e+000
    outer loop
      vertex  0.000000e+000  2.452737e+001  9.653408e-001
      vertex  0.000000e+000  2.650000e+001 -6.490628e-015
      vertex  0.000000e+000  2.505550e+001  3.096935e-001
    endloop
  endfacet
  facet normal -1.000000e+000  0.000000e+000  0.000000e+000
    outer loop
      vertex  0.000000e+000  2.505550e+001  3.096935e-001
      vertex  0.000000e+000  2.650000e+001 -6.490628e-015
      vertex  0.000000e+000  2.572996e+001 -6.341865e+000
    endloop
  endfacet
  facet normal -1.000000e+000  0.000000e+000  0.000000e+000
    outer loop
      vertex  0.000000e+000  2.505550e+001  3.096935e-001
      vertex  0.000000e+000  2.572996e+001 -6.341865e+000
      vertex  0.000000e+000  2.496534e+001 -5.273681e-001
    endloop
  endfacet
  facet normal -1.000000e+000  0.000000e+000  0.000000e+000
    outer loop
      vertex  0.000000e+000 -1.983554e+001 -1.757275e+001
      vertex  0.000000e+000 -1.150000e+001  1.408344e-015
      vertex  0.000000e+000 -1.505372e+001 -2.180907e+001
    endloop
  endfacet
  facet normal -1.000000e+000  0.000000e+000  0.000000e+000
    outer loop
      vertex  0.000000e+000 -1.150000e+001  1.408344e-015
      vertex  0.000000e+000 -1.983554e+001 -1.757275e+001
      vertex  0.000000e+000 -1.887075e+001  6.494097e+000
    endloop
  endfacet
  facet normal -1.000000e+000  0.000000e+000  0.000000e+000
    outer loop
      vertex  0.000000e+000 -1.887075e+001  6.494097e+000
      vertex  0.000000e+000 -1.983554e+001 -1.757275e+001
      vertex  0.000000e+000 -2.346458e+001 -1.231516e+001
    endloop
  endfacet
  facet normal -1.000000e+000  0.000000e+000  0.000000e+000
    outer loop
      vertex  0.000000e+000 -1.887075e+001  6.494097e+000
      vertex  0.000000e+000 -2.346458e+001 -1.231516e+001
      vertex  0.000000e+000 -2.077317e+001  6.699015e+000
    endloop
  endfacet
  facet normal -1.000000e+000  0.000000e+000  0.000000e+000
    outer loop
      vertex  0.000000e+000 -2.077317e+001  6.699015e+000
      vertex  0.000000e+000 -2.346458e+001 -1.231516e+001
      vertex  0.000000e+000 -2.303466e+001 -5.273681e-001
    endloop
  endfacet
  facet normal -1.000000e+000  0.000000e+000  0.000000e+000
    outer loop
      vertex  0.000000e+000 -2.077317e+001  6.699015e+000
      vertex  0.000000e+000 -2.303466e+001 -5.273681e-001
      vertex  0.000000e+000 -2.294450e+001  3.096935e-001
    endloop
  endfacet
  facet normal -1.000000e+000  0.000000e+000  0.000000e+000
    outer loop
      vertex  0.000000e+000  1.055505e+000 -2.369031e+001
      vertex  0.000000e+000  9.397030e+000 -2.477793e+001
      vertex  0.000000e+000  9.653408e-001 -2.452737e+001
    endloop
  endfacet
  facet normal -9.999999e-001  0.000000e+000  0.000000e+000
    outer loop
      vertex  0.000000e+000  9.653408e-001 -2.452737e+001
      vertex  0.000000e+000  9.397030e+000 -2.477793e+001
      vertex  0.000000e+000  3.194222e+000 -2.630679e+001
    endloop
  endfacet
  facet normal -1.000000e+000  0.000000e+000  0.000000e+000
    outer loop
      vertex  0.000000e+000  9.653408e-001 -2.452737e+001
      vertex  0.000000e+000  3.194222e+000 -2.630679e+001
      vertex  0.000000e+000  3.096935e-001 -2.505550e+001
    endloop
  endfacet
  facet normal -1.000000e+000  0.000000e+000  -0.000000e+000
    outer loop
      vertex  0.000000e+000  3.096935e-001 -2.505550e+001
      vertex  0.000000e+000  3.194222e+000 -2.630679e+001
      vertex  0.000000e+000 -3.194222e+000 -2.630679e+001
    endloop
  endfacet
  facet normal -1.000000e+000  0.000000e+000  0.000000e+000
    outer loop
      vertex  0.000000e+000  3.096935e-001 -2.505550e+001
      vertex  0.000000e+000 -3.194222e+000 -2.630679e+001
      vertex  0.000000e+000 -5.273681e-001 -2.496534e+001
    endloop
  endfacet
  facet normal -1.000000e+000  0.000000e+000  0.000000e+000
    outer loop
      vertex  0.000000e+000  1.505372e+001 -2.180907e+001
      vertex  0.000000e+000  5.273681e-001 -2.303466e+001
      vertex  0.000000e+000  1.983554e+001 -1.757275e+001
    endloop
  endfacet
  facet normal -9.999999e-001  -0.000000e+000  0.000000e+000
    outer loop
      vertex  0.000000e+000  1.983554e+001 -1.757275e+001
      vertex  0.000000e+000  5.273681e-001 -2.303466e+001
      vertex  0.000000e+000  1.996954e+000 -1.132529e+001
    endloop
  endfacet
  facet normal -1.000000e+000  0.000000e+000  0.000000e+000
    outer loop
      vertex  0.000000e+000  5.273681e-001 -2.303466e+001
      vertex  0.000000e+000 -3.096935e-001 -2.294450e+001
      vertex  0.000000e+000  1.996954e+000 -1.132529e+001
    endloop
  endfacet
  facet normal -1.000000e+000  -0.000000e+000  0.000000e+000
    outer loop
      vertex  0.000000e+000  1.996954e+000 -1.132529e+001
      vertex  0.000000e+000 -3.096935e-001 -2.294450e+001
      vertex  0.000000e+000 -1.996954e+000 -1.132529e+001
    endloop
  endfacet
  facet normal -1.000000e+000  -0.000000e+000  0.000000e+000
    outer loop
      vertex  0.000000e+000 -5.273681e-001  2.303466e+001
      vertex  0.000000e+000  3.096935e-001  2.294450e+001
      vertex  0.000000e+000 -1.996954e+000  1.132529e+001
    endloop
  endfacet
  facet normal -1.000000e+000  0.000000e+000  0.000000e+000
    outer loop
      vertex  0.000000e+000 -1.996954e+000  1.132529e+001
      vertex  0.000000e+000  3.096935e-001  2.294450e+001
      vertex  0.000000e+000  1.505372e+001  2.180907e+001
    endloop
  endfacet
  facet normal -1.000000e+000  0.000000e+000  0.000000e+000
    outer loop
      vertex  0.000000e+000 -1.996954e+000  1.132529e+001
      vertex  0.000000e+000  1.505372e+001  2.180907e+001
      vertex  0.000000e+000  1.996954e+000  1.132529e+001
    endloop
  endfacet
  facet normal -1.000000e+000  0.000000e+000  0.000000e+000
    outer loop
      vertex  0.000000e+000  1.996954e+000  1.132529e+001
      vertex  0.000000e+000  1.505372e+001  2.180907e+001
      vertex  0.000000e+000  1.983554e+001  1.757275e+001
    endloop
  endfacet
  facet normal -1.000000e+000  0.000000e+000  -0.000000e+000
    outer loop
      vertex  0.000000e+000  1.996954e+000  1.132529e+001
      vertex  0.000000e+000  1.983554e+001  1.757275e+001
      vertex  0.000000e+000  2.346458e+001  1.231516e+001
    endloop
  endfacet
  facet normal -1.000000e+000  0.000000e+000  -0.000000e+000
    outer loop
      vertex  0.000000e+000  9.653408e-001  2.347263e+001
      vertex  0.000000e+000  1.055505e+000  2.430969e+001
      vertex  0.000000e+000  1.505372e+001  2.180907e+001
    endloop
  endfacet
  facet normal -1.000000e+000  0.000000e+000  0.000000e+000
    outer loop
      vertex  0.000000e+000  1.505372e+001  2.180907e+001
      vertex  0.000000e+000  1.055505e+000  2.430969e+001
      vertex  0.000000e+000  5.273681e-001  2.496534e+001
    endloop
  endfacet
  facet normal -9.999999e-001  0.000000e+000  0.000000e+000
    outer loop
      vertex  0.000000e+000  1.505372e+001  2.180907e+001
      vertex  0.000000e+000  5.273681e-001  2.496534e+001
      vertex  0.000000e+000  9.397030e+000  2.477793e+001
    endloop
  endfacet
  facet normal -1.000000e+000  0.000000e+000  0.000000e+000
    outer loop
      vertex  0.000000e+000  9.397030e+000  2.477793e+001
      vertex  0.000000e+000  5.273681e-001  2.496534e+001
      vertex  0.000000e+000 -3.194222e+000  2.630679e+001
    endloop
  endfacet
  facet normal -1.000000e+000  0.000000e+000  0.000000e+000
    outer loop
      vertex  0.000000e+000  9.397030e+000  2.477793e+001
      vertex  0.000000e+000 -3.194222e+000  2.630679e+001
      vertex  0.000000e+000  3.194222e+000  2.630679e+001
    endloop
  endfacet
  facet normal -1.000000e+000  0.000000e+000  0.000000e+000
    outer loop
      vertex  0.000000e+000 -2.347263e+001  9.653408e-001
      vertex  0.000000e+000 -2.430969e+001  1.055505e+000
      vertex  0.000000e+000 -2.572996e+001  6.341865e+000
    endloop
  endfacet
  facet normal -1.000000e+000  0.000000e+000  0.000000e+000
    outer loop
      vertex  0.000000e+000 -2.572996e+001  6.341865e+000
      vertex  0.000000e+000 -2.430969e+001  1.055505e+000
      vertex  0.000000e+000 -2.496534e+001  5.273681e-001
    endloop
  endfacet
  facet normal -1.000000e+000  -0.000000e+000  0.000000e+000
    outer loop
      vertex  0.000000e+000 -2.572996e+001  6.341865e+000
      vertex  0.000000e+000 -2.496534e+001  5.273681e-001
      vertex  0.000000e+000 -2.650000e+001  3.245314e-015
    endloop
  endfacet
  facet normal -1.000000e+000  0.000000e+000  0.000000e+000
    outer loop
      vertex  0.000000e+000 -1.150000e+001  1.408344e-015
      vertex  0.000000e+000 -1.887075e+001  6.494097e+000
      vertex  0.000000e+000 -1.080647e+001  3.933232e+000
    endloop
  endfacet
  facet normal -9.999999e-001  0.000000e+000  0.000000e+000
    outer loop
      vertex  0.000000e+000 -1.080647e+001  3.933232e+000
      vertex  0.000000e+000 -1.887075e+001  6.494097e+000
      vertex  0.000000e+000 -1.738065e+001  7.694407e+000
    endloop
  endfacet
  facet normal -9.999999e-001  0.000000e+000  0.000000e+000
    outer loop
      vertex  0.000000e+000 -1.080647e+001  3.933232e+000
      vertex  0.000000e+000 -1.738065e+001  7.694407e+000
      vertex  0.000000e+000 -8.809511e+000  7.392057e+000
    endloop
  endfacet
  facet normal -1.000000e+000  0.000000e+000  0.000000e+000
    outer loop
      vertex  0.000000e+000 -8.809511e+000  7.392057e+000
      vertex  0.000000e+000 -1.738065e+001  7.694407e+000
      vertex  0.000000e+000 -1.717573e+001  9.596820e+000
    endloop
  endfacet
  facet normal -1.000000e+000  0.000000e+000  0.000000e+000
    outer loop
      vertex  0.000000e+000 -8.809511e+000  7.392057e+000
      vertex  0.000000e+000 -1.717573e+001  9.596820e+000
      vertex  0.000000e+000 -5.750000e+000  9.959292e+000
    endloop
  endfacet
  facet normal -9.999999e-001  0.000000e+000  0.000000e+000
    outer loop
      vertex  0.000000e+000  8.809511e+000  7.392057e+000
      vertex  0.000000e+000  2.369031e+001  1.055505e+000
      vertex  0.000000e+000  1.080647e+001  3.933232e+000
    endloop
  endfacet
  facet normal -1.000000e+000  0.000000e+000  0.000000e+000
    outer loop
      vertex  0.000000e+000  1.080647e+001  3.933232e+000
      vertex  0.000000e+000  2.369031e+001  1.055505e+000
      vertex  0.000000e+000  2.303466e+001  5.273681e-001
    endloop
  endfacet
  facet normal -1.000000e+000  -0.000000e+000  0.000000e+000
    outer loop
      vertex  0.000000e+000  1.080647e+001  3.933232e+000
      vertex  0.000000e+000  2.303466e+001  5.273681e-001
      vertex  0.000000e+000  1.150000e+001  0.000000e+000
    endloop
  endfacet
  facet normal -1.000000e+000  0.000000e+000  0.000000e+000
    outer loop
      vertex  0.000000e+000  1.055505e+000 -2.369031e+001
      vertex  0.000000e+000  5.273681e-001 -2.303466e+001
      vertex  0.000000e+000  9.397030e+000 -2.477793e+001
    endloop
  endfacet
  facet normal -1.000000e+000  0.000000e+000  0.000000e+000
    outer loop
      vertex  0.000000e+000  9.397030e+000 -2.477793e+001
      vertex  0.000000e+000  5.273681e-001 -2.303466e+001
      vertex  0.000000e+000  1.505372e+001 -2.180907e+001
    endloop
  endfacet
  facet normal  -0.000000e+000  7.787679e-001  6.273122e-001
    outer loop
      vertex  1.800000e+000 -2.077317e+001  6.699015e+000
      vertex  0.000000e+000 -2.197348e+001  8.189122e+000
      vertex  1.800000e+000 -2.197348e+001  8.189122e+000
    endloop
  endfacet
  facet normal  0.000000e+000  9.942488e-001 -1.070953e-001
    outer loop
      vertex  1.800000e+000 -2.197348e+001  8.189122e+000
      vertex  0.000000e+000 -2.197348e+001  8.189122e+000
      vertex  0.000000e+000 -2.176856e+001  1.009153e+001
    endloop
  endfacet
  facet normal  0.000000e+000  9.942488e-001 -1.070953e-001
    outer loop
      vertex  1.800000e+000 -2.197348e+001  8.189122e+000
      vertex  0.000000e+000 -2.176856e+001  1.009153e+001
      vertex  1.800000e+000 -2.176856e+001  1.009153e+001
    endloop
  endfacet
  facet normal  0.000000e+000  7.787679e-001  6.273122e-001
    outer loop
      vertex  0.000000e+000 -2.197348e+001  8.189122e+000
      vertex  1.800000e+000 -2.077317e+001  6.699015e+000
      vertex  0.000000e+000 -2.077317e+001  6.699015e+000
    endloop
  endfacet
  facet normal  -0.000000e+000  1.070953e-001  9.942488e-001
    outer loop
      vertex  0.000000e+000 -2.077317e+001  6.699015e+000
      vertex  1.800000e+000 -2.077317e+001  6.699015e+000
      vertex  1.800000e+000 -1.887075e+001  6.494097e+000
    endloop
  endfacet
  facet normal  0.000000e+000  1.070953e-001  9.942488e-001
    outer loop
      vertex  0.000000e+000 -2.077317e+001  6.699015e+000
      vertex  1.800000e+000 -1.887075e+001  6.494097e+000
      vertex  0.000000e+000 -1.887075e+001  6.494097e+000
    endloop
  endfacet
  facet normal  0.000000e+000 -6.273121e-001  7.787679e-001
    outer loop
      vertex  0.000000e+000 -1.887075e+001  6.494097e+000
      vertex  1.800000e+000 -1.887075e+001  6.494097e+000
      vertex  1.800000e+000 -1.738065e+001  7.694407e+000
    endloop
  endfacet
  facet normal  0.000000e+000 -6.273121e-001  7.787679e-001
    outer loop
      vertex  0.000000e+000 -1.887075e+001  6.494097e+000
      vertex  1.800000e+000 -1.738065e+001  7.694407e+000
      vertex  0.000000e+000 -1.738065e+001  7.694407e+000
    endloop
  endfacet
  facet normal  0.000000e+000 -7.787674e-001 -6.273128e-001
    outer loop
      vertex  1.800000e+000 -1.837604e+001  1.108693e+001
      vertex  0.000000e+000 -1.717573e+001  9.596820e+000
      vertex  1.800000e+000 -1.717573e+001  9.596820e+000
    endloop
  endfacet
  facet normal  0.000000e+000 -9.942488e-001  1.070952e-001
    outer loop
      vertex  1.800000e+000 -1.717573e+001  9.596820e+000
      vertex  0.000000e+000 -1.717573e+001  9.596820e+000
      vertex  0.000000e+000 -1.738065e+001  7.694407e+000
    endloop
  endfacet
  facet normal  0.000000e+000 -9.942488e-001  1.070952e-001
    outer loop
      vertex  1.800000e+000 -1.717573e+001  9.596820e+000
      vertex  0.000000e+000 -1.738065e+001  7.694407e+000
      vertex  1.800000e+000 -1.738065e+001  7.694407e+000
    endloop
  endfacet
  facet normal  -0.000000e+000 -7.787674e-001 -6.273128e-001
    outer loop
      vertex  0.000000e+000 -1.717573e+001  9.596820e+000
      vertex  1.800000e+000 -1.837604e+001  1.108693e+001
      vertex  0.000000e+000 -1.837604e+001  1.108693e+001
    endloop
  endfacet
  facet normal  0.000000e+000 -1.070953e-001 -9.942488e-001
    outer loop
      vertex  0.000000e+000 -1.837604e+001  1.108693e+001
      vertex  1.800000e+000 -1.837604e+001  1.108693e+001
      vertex  1.800000e+000 -2.027845e+001  1.129185e+001
    endloop
  endfacet
  facet normal  -0.000000e+000 -1.070953e-001 -9.942488e-001
    outer loop
      vertex  0.000000e+000 -1.837604e+001  1.108693e+001
      vertex  1.800000e+000 -2.027845e+001  1.129185e+001
      vertex  0.000000e+000 -2.027845e+001  1.129185e+001
    endloop
  endfacet
  facet normal  0.000000e+000  6.273127e-001 -7.787674e-001
    outer loop
      vertex  0.000000e+000 -2.027845e+001  1.129185e+001
      vertex  1.800000e+000 -2.027845e+001  1.129185e+001
      vertex  1.800000e+000 -2.176856e+001  1.009153e+001
    endloop
  endfacet
  facet normal  0.000000e+000  6.273127e-001 -7.787674e-001
    outer loop
      vertex  0.000000e+000 -2.027845e+001  1.129185e+001
      vertex  1.800000e+000 -2.176856e+001  1.009153e+001
      vertex  0.000000e+000 -2.176856e+001  1.009153e+001
    endloop
  endfacet
  facet normal  0.000000e+000 -9.927089e-001  1.205368e-001
    outer loop
      vertex  0.000000e+000 -2.650000e+001  3.245314e-015
      vertex  1.800000e+000 -2.650000e+001  3.245314e-015
      vertex  0.000000e+000 -2.572996e+001  6.341865e+000
    endloop
  endfacet
  facet normal  0.000000e+000 -9.927089e-001  1.205368e-001
    outer loop
      vertex  0.000000e+000 -2.572996e+001  6.341865e+000
      vertex  1.800000e+000 -2.650000e+001  3.245314e-015
      vertex  1.800000e+000 -2.572996e+001  6.341865e+000
    endloop
  endfacet
  facet normal  0.000000e+000 -9.350163e-001  3.546049e-001
    outer loop
      vertex  0.000000e+000 -2.572996e+001  6.341865e+000
      vertex  1.800000e+000 -2.572996e+001  6.341865e+000
      vertex  0.000000e+000 -2.346458e+001  1.231516e+001
    endloop
  endfacet
  facet normal  0.000000e+000 -9.350163e-001  3.546049e-001
    outer loop
      vertex  0.000000e+000 -2.346458e+001  1.231516e+001
      vertex  1.800000e+000 -2.572996e+001  6.341865e+000
      vertex  1.800000e+000 -2.346458e+001  1.231516e+001
    endloop
  endfacet
  facet normal  0.000000e+000 -8.229839e-001  5.680647e-001
    outer loop
      vertex  0.000000e+000 -2.346458e+001  1.231516e+001
      vertex  1.800000e+000 -2.346458e+001  1.231516e+001
      vertex  0.000000e+000 -1.983554e+001  1.757275e+001
    endloop
  endfacet
  facet normal  0.000000e+000 -8.229839e-001  5.680647e-001
    outer loop
      vertex  0.000000e+000 -1.983554e+001  1.757275e+001
      vertex  1.800000e+000 -2.346458e+001  1.231516e+001
      vertex  1.800000e+000 -1.983554e+001  1.757275e+001
    endloop
  endfacet
  facet normal  0.000000e+000 -6.631227e-001  7.485108e-001
    outer loop
      vertex  0.000000e+000 -1.983554e+001  1.757275e+001
      vertex  1.800000e+000 -1.983554e+001  1.757275e+001
      vertex  0.000000e+000 -1.505372e+001  2.180907e+001
    endloop
  endfacet
  facet normal  0.000000e+000 -6.631227e-001  7.485108e-001
    outer loop
      vertex  0.000000e+000 -1.505372e+001  2.180907e+001
      vertex  1.800000e+000 -1.983554e+001  1.757275e+001
      vertex  1.800000e+000 -1.505372e+001  2.180907e+001
    endloop
  endfacet
  facet normal  0.000000e+000 -4.647233e-001  8.854560e-001
    outer loop
      vertex  0.000000e+000 -1.505372e+001  2.180907e+001
      vertex  1.800000e+000 -1.505372e+001  2.180907e+001
      vertex  0.000000e+000 -9.397030e+000  2.477793e+001
    endloop
  endfacet
  facet normal  0.000000e+000 -4.647233e-001  8.854560e-001
    outer loop
      vertex  0.000000e+000 -9.397030e+000  2.477793e+001
      vertex  1.800000e+000 -1.505372e+001  2.180907e+001
      vertex  1.800000e+000 -9.397030e+000  2.477793e+001
    endloop
  endfacet
  facet normal  0.000000e+000 -2.393156e-001  9.709418e-001
    outer loop
      vertex  0.000000e+000 -9.397030e+000  2.477793e+001
      vertex  1.800000e+000 -9.397030e+000  2.477793e+001
      vertex  0.000000e+000 -3.194222e+000  2.630679e+001
    endloop
  endfacet
  facet normal  0.000000e+000 -2.393156e-001  9.709418e-001
    outer loop
      vertex  0.000000e+000 -3.194222e+000  2.630679e+001
      vertex  1.800000e+000 -9.397030e+000  2.477793e+001
      vertex  1.800000e+000 -3.194222e+000  2.630679e+001
    endloop
  endfacet
  facet normal  0.000000e+000  0.000000e+000  1.000000e+000
    outer loop
      vertex  0.000000e+000 -3.194222e+000  2.630679e+001
      vertex  1.800000e+000 -3.194222e+000  2.630679e+001
      vertex  0.000000e+000  3.194222e+000  2.630679e+001
    endloop
  endfacet
  facet normal  -0.000000e+000  0.000000e+000  1.000000e+000
    outer loop
      vertex  0.000000e+000  3.194222e+000  2.630679e+001
      vertex  1.800000e+000 -3.194222e+000  2.630679e+001
      vertex  1.800000e+000  3.194222e+000  2.630679e+001
    endloop
  endfacet
  facet normal  0.000000e+000  2.393156e-001  9.709418e-001
    outer loop
      vertex  0.000000e+000  3.194222e+000  2.630679e+001
      vertex  1.800000e+000  3.194222e+000  2.630679e+001
      vertex  0.000000e+000  9.397030e+000  2.477793e+001
    endloop
  endfacet
  facet normal  -0.000000e+000  2.393156e-001  9.709418e-001
    outer loop
      vertex  0.000000e+000  9.397030e+000  2.477793e+001
      vertex  1.800000e+000  3.194222e+000  2.630679e+001
      vertex  1.800000e+000  9.397030e+000  2.477793e+001
    endloop
  endfacet
  facet normal  0.000000e+000  4.647233e-001  8.854560e-001
    outer loop
      vertex  0.000000e+000  9.397030e+000  2.477793e+001
      vertex  1.800000e+000  9.397030e+000  2.477793e+001
      vertex  0.000000e+000  1.505372e+001  2.180907e+001
    endloop
  endfacet
  facet normal  -0.000000e+000  4.647233e-001  8.854560e-001
    outer loop
      vertex  0.000000e+000  1.505372e+001  2.180907e+001
      vertex  1.800000e+000  9.397030e+000  2.477793e+001
      vertex  1.800000e+000  1.505372e+001  2.180907e+001
    endloop
  endfacet
  facet normal  0.000000e+000  6.631227e-001  7.485108e-001
    outer loop
      vertex  0.000000e+000  1.505372e+001  2.180907e+001
      vertex  1.800000e+000  1.505372e+001  2.180907e+001
      vertex  0.000000e+000  1.983554e+001  1.757275e+001
    endloop
  endfacet
  facet normal  -0.000000e+000  6.631227e-001  7.485108e-001
    outer loop
      vertex  0.000000e+000  1.983554e+001  1.757275e+001
      vertex  1.800000e+000  1.505372e+001  2.180907e+001
      vertex  1.800000e+000  1.983554e+001  1.757275e+001
    endloop
  endfacet
  facet normal  0.000000e+000  8.229839e-001  5.680647e-001
    outer loop
      vertex  0.000000e+000  1.983554e+001  1.757275e+001
      vertex  1.800000e+000  1.983554e+001  1.757275e+001
      vertex  0.000000e+000  2.346458e+001  1.231516e+001
    endloop
  endfacet
  facet normal  -0.000000e+000  8.229839e-001  5.680647e-001
    outer loop
      vertex  0.000000e+000  2.346458e+001  1.231516e+001
      vertex  1.800000e+000  1.983554e+001  1.757275e+001
      vertex  1.800000e+000  2.346458e+001  1.231516e+001
    endloop
  endfacet
  facet normal  0.000000e+000  9.350163e-001  3.546049e-001
    outer loop
      vertex  0.000000e+000  2.346458e+001  1.231516e+001
      vertex  1.800000e+000  2.346458e+001  1.231516e+001
      vertex  0.000000e+000  2.572996e+001  6.341865e+000
    endloop
  endfacet
  facet normal  -0.000000e+000  9.350163e-001  3.546049e-001
    outer loop
      vertex  0.000000e+000  2.572996e+001  6.341865e+000
      vertex  1.800000e+000  2.346458e+001  1.231516e+001
      vertex  1.800000e+000  2.572996e+001  6.341865e+000
    endloop
  endfacet
  facet normal  0.000000e+000  9.927089e-001  1.205368e-001
    outer loop
      vertex  0.000000e+000  2.572996e+001  6.341865e+000
      vertex  1.800000e+000  2.572996e+001  6.341865e+000
      vertex  0.000000e+000  2.650000e+001 -6.490628e-015
    endloop
  endfacet
  facet normal -4.346441e-016  9.927089e-001  1.205368e-001
    outer loop
      vertex  0.000000e+000  2.650000e+001 -6.490628e-015
      vertex  1.800000e+000  2.572996e+001  6.341865e+000
      vertex  1.800000e+000  2.650000e+001  0.000000e+000
    endloop
  endfacet
  facet normal  4.346441e-016  9.927089e-001 -1.205368e-001
    outer loop
      vertex  0.000000e+000  2.650000e+001 -6.490628e-015
      vertex  1.800000e+000  2.650000e+001  0.000000e+000
      vertex  0.000000e+000  2.572996e+001 -6.341865e+000
    endloop
  endfacet
  facet normal  0.000000e+000  9.927089e-001 -1.205368e-001
    outer loop
      vertex  0.000000e+000  2.572996e+001 -6.341865e+000
      vertex  1.800000e+000  2.650000e+001  0.000000e+000
      vertex  1.800000e+000  2.572996e+001 -6.341865e+000
    endloop
  endfacet
  facet normal  0.000000e+000  9.350163e-001 -3.546049e-001
    outer loop
      vertex  0.000000e+000  2.572996e+001 -6.341865e+000
      vertex  1.800000e+000  2.572996e+001 -6.341865e+000
      vertex  0.000000e+000  2.346458e+001 -1.231516e+001
    endloop
  endfacet
  facet normal  0.000000e+000  9.350163e-001 -3.546049e-001
    outer loop
      vertex  0.000000e+000  2.346458e+001 -1.231516e+001
      vertex  1.800000e+000  2.572996e+001 -6.341865e+000
      vertex  1.800000e+000  2.346458e+001 -1.231516e+001
    endloop
  endfacet
  facet normal  0.000000e+000  8.229839e-001 -5.680647e-001
    outer loop
      vertex  0.000000e+000  2.346458e+001 -1.231516e+001
      vertex  1.800000e+000  2.346458e+001 -1.231516e+001
      vertex  0.000000e+000  1.983554e+001 -1.757275e+001
    endloop
  endfacet
  facet normal  0.000000e+000  8.229839e-001 -5.680647e-001
    outer loop
      vertex  0.000000e+000  1.983554e+001 -1.757275e+001
      vertex  1.800000e+000  2.346458e+001 -1.231516e+001
      vertex  1.800000e+000  1.983554e+001 -1.757275e+001
    endloop
  endfacet
  facet normal  0.000000e+000  6.631227e-001 -7.485108e-001
    outer loop
      vertex  0.000000e+000  1.983554e+001 -1.757275e+001
      vertex  1.800000e+000  1.983554e+001 -1.757275e+001
      vertex  0.000000e+000  1.505372e+001 -2.180907e+001
    endloop
  endfacet
  facet normal  0.000000e+000  6.631227e-001 -7.485108e-001
    outer loop
      vertex  0.000000e+000  1.505372e+001 -2.180907e+001
      vertex  1.800000e+000  1.983554e+001 -1.757275e+001
      vertex  1.800000e+000  1.505372e+001 -2.180907e+001
    endloop
  endfacet
  facet normal  0.000000e+000  4.647233e-001 -8.854560e-001
    outer loop
      vertex  0.000000e+000  1.505372e+001 -2.180907e+001
      vertex  1.800000e+000  1.505372e+001 -2.180907e+001
      vertex  0.000000e+000  9.397030e+000 -2.477793e+001
    endloop
  endfacet
  facet normal  0.000000e+000  4.647233e-001 -8.854560e-001
    outer loop
      vertex  0.000000e+000  9.397030e+000 -2.477793e+001
      vertex  1.800000e+000  1.505372e+001 -2.180907e+001
      vertex  1.800000e+000  9.397030e+000 -2.477793e+001
    endloop
  endfacet
  facet normal  0.000000e+000  2.393156e-001 -9.709418e-001
    outer loop
      vertex  0.000000e+000  9.397030e+000 -2.477793e+001
      vertex  1.800000e+000  9.397030e+000 -2.477793e+001
      vertex  0.000000e+000  3.194222e+000 -2.630679e+001
    endloop
  endfacet
  facet normal  0.000000e+000  2.393156e-001 -9.709418e-001
    outer loop
      vertex  0.000000e+000  3.194222e+000 -2.630679e+001
      vertex  1.800000e+000  9.397030e+000 -2.477793e+001
      vertex  1.800000e+000  3.194222e+000 -2.630679e+001
    endloop
  endfacet
  facet normal  -0.000000e+000  0.000000e+000 -1.000000e+000
    outer loop
      vertex  0.000000e+000  3.194222e+000 -2.630679e+001
      vertex  1.800000e+000  3.194222e+000 -2.630679e+001
      vertex  0.000000e+000 -3.194222e+000 -2.630679e+001
    endloop
  endfacet
  facet normal  0.000000e+000  0.000000e+000 -1.000000e+000
    outer loop
      vertex  0.000000e+000 -3.194222e+000 -2.630679e+001
      vertex  1.800000e+000  3.194222e+000 -2.630679e+001
      vertex  1.800000e+000 -3.194222e+000 -2.630679e+001
    endloop
  endfacet
  facet normal  -0.000000e+000 -2.393156e-001 -9.709418e-001
    outer loop
      vertex  0.000000e+000 -3.194222e+000 -2.630679e+001
      vertex  1.800000e+000 -3.194222e+000 -2.630679e+001
      vertex  0.000000e+000 -9.397030e+000 -2.477793e+001
    endloop
  endfacet
  facet normal  0.000000e+000 -2.393156e-001 -9.709418e-001
    outer loop
      vertex  0.000000e+000 -9.397030e+000 -2.477793e+001
      vertex  1.800000e+000 -3.194222e+000 -2.630679e+001
      vertex  1.800000e+000 -9.397030e+000 -2.477793e+001
    endloop
  endfacet
  facet normal  -0.000000e+000 -4.647233e-001 -8.854560e-001
    outer loop
      vertex  0.000000e+000 -9.397030e+000 -2.477793e+001
      vertex  1.800000e+000 -9.397030e+000 -2.477793e+001
      vertex  0.000000e+000 -1.505372e+001 -2.180907e+001
    endloop
  endfacet
  facet normal  0.000000e+000 -4.647233e-001 -8.854560e-001
    outer loop
      vertex  0.000000e+000 -1.505372e+001 -2.180907e+001
      vertex  1.800000e+000 -9.397030e+000 -2.477793e+001
      vertex  1.800000e+000 -1.505372e+001 -2.180907e+001
    endloop
  endfacet
  facet normal  -0.000000e+000 -6.631227e-001 -7.485108e-001
    outer loop
      vertex  0.000000e+000 -1.505372e+001 -2.180907e+001
      vertex  1.800000e+000 -1.505372e+001 -2.180907e+001
      vertex  0.000000e+000 -1.983554e+001 -1.757275e+001
    endloop
  endfacet
  facet normal  0.000000e+000 -6.631227e-001 -7.485108e-001
    outer loop
      vertex  0.000000e+000 -1.983554e+001 -1.757275e+001
      vertex  1.800000e+000 -1.505372e+001 -2.180907e+001
      vertex  1.800000e+000 -1.983554e+001 -1.757275e+001
    endloop
  endfacet
  facet normal  -0.000000e+000 -8.229839e-001 -5.680647e-001
    outer loop
      vertex  0.000000e+000 -1.983554e+001 -1.757275e+001
      vertex  1.800000e+000 -1.983554e+001 -1.757275e+001
      vertex  0.000000e+000 -2.346458e+001 -1.231516e+001
    endloop
  endfacet
  facet normal  0.000000e+000 -8.229839e-001 -5.680647e-001
    outer loop
      vertex  0.000000e+000 -2.346458e+001 -1.231516e+001
      vertex  1.800000e+000 -1.983554e+001 -1.757275e+001
      vertex  1.800000e+000 -2.346458e+001 -1.231516e+001
    endloop
  endfacet
  facet normal  -0.000000e+000 -9.350163e-001 -3.546049e-001
    outer loop
      vertex  0.000000e+000 -2.346458e+001 -1.231516e+001
      vertex  1.800000e+000 -2.346458e+001 -1.231516e+001
      vertex  0.000000e+000 -2.572996e+001 -6.341865e+000
    endloop
  endfacet
  facet normal  0.000000e+000 -9.350163e-001 -3.546049e-001
    outer loop
      vertex  0.000000e+000 -2.572996e+001 -6.341865e+000
      vertex  1.800000e+000 -2.346458e+001 -1.231516e+001
      vertex  1.800000e+000 -2.572996e+001 -6.341865e+000
    endloop
  endfacet
  facet normal  -0.000000e+000 -9.927089e-001 -1.205368e-001
    outer loop
      vertex  0.000000e+000 -2.572996e+001 -6.341865e+000
      vertex  1.800000e+000 -2.572996e+001 -6.341865e+000
      vertex  0.000000e+000 -2.650000e+001  3.245314e-015
    endloop
  endfacet
  facet normal  0.000000e+000 -9.927089e-001 -1.205368e-001
    outer loop
      vertex  0.000000e+000 -2.650000e+001  3.245314e-015
      vertex  1.800000e+000 -2.572996e+001 -6.341865e+000
      vertex  1.800000e+000 -2.650000e+001  3.245314e-015
    endloop
  endfacet
  facet normal  0.000000e+000 -7.787677e-001 -6.273124e-001
    outer loop
      vertex  1.800000e+000  5.273681e-001  2.496534e+001
      vertex  0.000000e+000  1.055505e+000  2.430969e+001
      vertex  1.800000e+000  1.055505e+000  2.430969e+001
    endloop
  endfacet
  facet normal  0.000000e+000 -9.942488e-001  1.070950e-001
    outer loop
      vertex  1.800000e+000  1.055505e+000  2.430969e+001
      vertex  0.000000e+000  1.055505e+000  2.430969e+001
      vertex  0.000000e+000  9.653408e-001  2.347263e+001
    endloop
  endfacet
  facet normal  0.000000e+000 -9.942488e-001  1.070950e-001
    outer loop
      vertex  1.800000e+000  1.055505e+000  2.430969e+001
      vertex  0.000000e+000  9.653408e-001  2.347263e+001
      vertex  1.800000e+000  9.653408e-001  2.347263e+001
    endloop
  endfacet
  facet normal  -0.000000e+000 -7.787677e-001 -6.273124e-001
    outer loop
      vertex  0.000000e+000  1.055505e+000  2.430969e+001
      vertex  1.800000e+000  5.273681e-001  2.496534e+001
      vertex  0.000000e+000  5.273681e-001  2.496534e+001
    endloop
  endfacet
  facet normal  0.000000e+000 -1.070934e-001 -9.942490e-001
    outer loop
      vertex  0.000000e+000  5.273681e-001  2.496534e+001
      vertex  1.800000e+000  5.273681e-001  2.496534e+001
      vertex  1.800000e+000 -3.096935e-001  2.505550e+001
    endloop
  endfacet
  facet normal  -0.000000e+000 -1.070934e-001 -9.942490e-001
    outer loop
      vertex  0.000000e+000  5.273681e-001  2.496534e+001
      vertex  1.800000e+000 -3.096935e-001  2.505550e+001
      vertex  0.000000e+000 -3.096935e-001  2.505550e+001
    endloop
  endfacet
  facet normal  0.000000e+000  6.273115e-001 -7.787684e-001
    outer loop
      vertex  0.000000e+000 -3.096935e-001  2.505550e+001
      vertex  1.800000e+000 -3.096935e-001  2.505550e+001
      vertex  1.800000e+000 -9.653408e-001  2.452737e+001
    endloop
  endfacet
  facet normal  0.000000e+000  6.273115e-001 -7.787684e-001
    outer loop
      vertex  0.000000e+000 -3.096935e-001  2.505550e+001
      vertex  1.800000e+000 -9.653408e-001  2.452737e+001
      vertex  0.000000e+000 -9.653408e-001  2.452737e+001
    endloop
  endfacet
  facet normal  -0.000000e+000  7.787677e-001  6.273124e-001
    outer loop
      vertex  1.800000e+000 -5.273681e-001  2.303466e+001
      vertex  0.000000e+000 -1.055505e+000  2.369031e+001
      vertex  1.800000e+000 -1.055505e+000  2.369031e+001
    endloop
  endfacet
  facet normal  0.000000e+000  9.942488e-001 -1.070950e-001
    outer loop
      vertex  1.800000e+000 -1.055505e+000  2.369031e+001
      vertex  0.000000e+000 -1.055505e+000  2.369031e+001
      vertex  0.000000e+000 -9.653408e-001  2.452737e+001
    endloop
  endfacet
  facet normal  0.000000e+000  9.942488e-001 -1.070950e-001
    outer loop
      vertex  1.800000e+000 -1.055505e+000  2.369031e+001
      vertex  0.000000e+000 -9.653408e-001  2.452737e+001
      vertex  1.800000e+000 -9.653408e-001  2.452737e+001
    endloop
  endfacet
  facet normal  0.000000e+000  7.787677e-001  6.273124e-001
    outer loop
      vertex  0.000000e+000 -1.055505e+000  2.369031e+001
      vertex  1.800000e+000 -5.273681e-001  2.303466e+001
      vertex  0.000000e+000 -5.273681e-001  2.303466e+001
    endloop
  endfacet
  facet normal  -0.000000e+000  1.070934e-001  9.942490e-001
    outer loop
      vertex  0.000000e+000 -5.273681e-001  2.303466e+001
      vertex  1.800000e+000 -5.273681e-001  2.303466e+001
      vertex  1.800000e+000  3.096935e-001  2.294450e+001
    endloop
  endfacet
  facet normal  0.000000e+000  1.070934e-001  9.942490e-001
    outer loop
      vertex  0.000000e+000 -5.273681e-001  2.303466e+001
      vertex  1.800000e+000  3.096935e-001  2.294450e+001
      vertex  0.000000e+000  3.096935e-001  2.294450e+001
    endloop
  endfacet
  facet normal  0.000000e+000 -6.273115e-001  7.787684e-001
    outer loop
      vertex  0.000000e+000  3.096935e-001  2.294450e+001
      vertex  1.800000e+000  3.096935e-001  2.294450e+001
      vertex  1.800000e+000  9.653408e-001  2.347263e+001
    endloop
  endfacet
  facet normal  0.000000e+000 -6.273115e-001  7.787684e-001
    outer loop
      vertex  0.000000e+000  3.096935e-001  2.294450e+001
      vertex  1.800000e+000  9.653408e-001  2.347263e+001
      vertex  0.000000e+000  9.653408e-001  2.347263e+001
    endloop
  endfacet
  facet normal  0.000000e+000 -7.787684e-001 -6.273115e-001
    outer loop
      vertex  1.800000e+000  2.452737e+001  9.653408e-001
      vertex  0.000000e+000  2.505550e+001  3.096935e-001
      vertex  1.800000e+000  2.505550e+001  3.096935e-001
    endloop
  endfacet
  facet normal  0.000000e+000 -9.942490e-001  1.070934e-001
    outer loop
      vertex  1.800000e+000  2.505550e+001  3.096935e-001
      vertex  0.000000e+000  2.505550e+001  3.096935e-001
      vertex  0.000000e+000  2.496534e+001 -5.273681e-001
    endloop
  endfacet
  facet normal  0.000000e+000 -9.942490e-001  1.070934e-001
    outer loop
      vertex  1.800000e+000  2.505550e+001  3.096935e-001
      vertex  0.000000e+000  2.496534e+001 -5.273681e-001
      vertex  1.800000e+000  2.496534e+001 -5.273681e-001
    endloop
  endfacet
  facet normal  -0.000000e+000 -7.787684e-001 -6.273115e-001
    outer loop
      vertex  0.000000e+000  2.505550e+001  3.096935e-001
      vertex  1.800000e+000  2.452737e+001  9.653408e-001
      vertex  0.000000e+000  2.452737e+001  9.653408e-001
    endloop
  endfacet
  facet normal  0.000000e+000 -1.070950e-001 -9.942488e-001
    outer loop
      vertex  0.000000e+000  2.452737e+001  9.653408e-001
      vertex  1.800000e+000  2.452737e+001  9.653408e-001
      vertex  1.800000e+000  2.369031e+001  1.055505e+000
    endloop
  endfacet
  facet normal  -0.000000e+000 -1.070950e-001 -9.942488e-001
    outer loop
      vertex  0.000000e+000  2.452737e+001  9.653408e-001
      vertex  1.800000e+000  2.369031e+001  1.055505e+000
      vertex  0.000000e+000  2.369031e+001  1.055505e+000
    endloop
  endfacet
  facet normal  0.000000e+000  6.273124e-001 -7.787677e-001
    outer loop
      vertex  0.000000e+000  2.369031e+001  1.055505e+000
      vertex  1.800000e+000  2.369031e+001  1.055505e+000
      vertex  1.800000e+000  2.303466e+001  5.273681e-001
    endloop
  endfacet
  facet normal  0.000000e+000  6.273124e-001 -7.787677e-001
    outer loop
      vertex  0.000000e+000  2.369031e+001  1.055505e+000
      vertex  1.800000e+000  2.303466e+001  5.273681e-001
      vertex  0.000000e+000  2.303466e+001  5.273681e-001
    endloop
  endfacet
  facet normal  -0.000000e+000  7.787684e-001  6.273115e-001
    outer loop
      vertex  1.800000e+000  2.347263e+001 -9.653408e-001
      vertex  0.000000e+000  2.294450e+001 -3.096935e-001
      vertex  1.800000e+000  2.294450e+001 -3.096935e-001
    endloop
  endfacet
  facet normal  0.000000e+000  9.942490e-001 -1.070934e-001
    outer loop
      vertex  1.800000e+000  2.294450e+001 -3.096935e-001
      vertex  0.000000e+000  2.294450e+001 -3.096935e-001
      vertex  0.000000e+000  2.303466e+001  5.273681e-001
    endloop
  endfacet
  facet normal  0.000000e+000  9.942490e-001 -1.070934e-001
    outer loop
      vertex  1.800000e+000  2.294450e+001 -3.096935e-001
      vertex  0.000000e+000  2.303466e+001  5.273681e-001
      vertex  1.800000e+000  2.303466e+001  5.273681e-001
    endloop
  endfacet
  facet normal  0.000000e+000  7.787684e-001  6.273115e-001
    outer loop
      vertex  0.000000e+000  2.294450e+001 -3.096935e-001
      vertex  1.800000e+000  2.347263e+001 -9.653408e-001
      vertex  0.000000e+000  2.347263e+001 -9.653408e-001
    endloop
  endfacet
  facet normal  -0.000000e+000  1.070950e-001  9.942488e-001
    outer loop
      vertex  0.000000e+000  2.347263e+001 -9.653408e-001
      vertex  1.800000e+000  2.347263e+001 -9.653408e-001
      vertex  1.800000e+000  2.430969e+001 -1.055505e+000
    endloop
  endfacet
  facet normal  0.000000e+000  1.070950e-001  9.942488e-001
    outer loop
      vertex  0.000000e+000  2.347263e+001 -9.653408e-001
      vertex  1.800000e+000  2.430969e+001 -1.055505e+000
      vertex  0.000000e+000  2.430969e+001 -1.055505e+000
    endloop
  endfacet
  facet normal  0.000000e+000 -6.273124e-001  7.787677e-001
    outer loop
      vertex  0.000000e+000  2.430969e+001 -1.055505e+000
      vertex  1.800000e+000  2.430969e+001 -1.055505e+000
      vertex  1.800000e+000  2.496534e+001 -5.273681e-001
    endloop
  endfacet
  facet normal  0.000000e+000 -6.273124e-001  7.787677e-001
    outer loop
      vertex  0.000000e+000  2.430969e+001 -1.055505e+000
      vertex  1.800000e+000  2.496534e+001 -5.273681e-001
      vertex  0.000000e+000  2.496534e+001 -5.273681e-001
    endloop
  endfacet
  facet normal  0.000000e+000 -7.787684e-001 -6.273115e-001
    outer loop
      vertex  1.800000e+000 -2.347263e+001  9.653408e-001
      vertex  0.000000e+000 -2.294450e+001  3.096935e-001
      vertex  1.800000e+000 -2.294450e+001  3.096935e-001
    endloop
  endfacet
  facet normal  0.000000e+000 -9.942490e-001  1.070934e-001
    outer loop
      vertex  1.800000e+000 -2.294450e+001  3.096935e-001
      vertex  0.000000e+000 -2.294450e+001  3.096935e-001
      vertex  0.000000e+000 -2.303466e+001 -5.273681e-001
    endloop
  endfacet
  facet normal  0.000000e+000 -9.942490e-001  1.070934e-001
    outer loop
      vertex  1.800000e+000 -2.294450e+001  3.096935e-001
      vertex  0.000000e+000 -2.303466e+001 -5.273681e-001
      vertex  1.800000e+000 -2.303466e+001 -5.273681e-001
    endloop
  endfacet
  facet normal  -0.000000e+000 -7.787684e-001 -6.273115e-001
    outer loop
      vertex  0.000000e+000 -2.294450e+001  3.096935e-001
      vertex  1.800000e+000 -2.347263e+001  9.653408e-001
      vertex  0.000000e+000 -2.347263e+001  9.653408e-001
    endloop
  endfacet
  facet normal  0.000000e+000 -1.070950e-001 -9.942488e-001
    outer loop
      vertex  0.000000e+000 -2.347263e+001  9.653408e-001
      vertex  1.800000e+000 -2.347263e+001  9.653408e-001
      vertex  1.800000e+000 -2.430969e+001  1.055505e+000
    endloop
  endfacet
  facet normal  -0.000000e+000 -1.070950e-001 -9.942488e-001
    outer loop
      vertex  0.000000e+000 -2.347263e+001  9.653408e-001
      vertex  1.800000e+000 -2.430969e+001  1.055505e+000
      vertex  0.000000e+000 -2.430969e+001  1.055505e+000
    endloop
  endfacet
  facet normal  0.000000e+000  6.273124e-001 -7.787677e-001
    outer loop
      vertex  0.000000e+000 -2.430969e+001  1.055505e+000
      vertex  1.800000e+000 -2.430969e+001  1.055505e+000
      vertex  1.800000e+000 -2.496534e+001  5.273681e-001
    endloop
  endfacet
  facet normal  0.000000e+000  6.273124e-001 -7.787677e-001
    outer loop
      vertex  0.000000e+000 -2.430969e+001  1.055505e+000
      vertex  1.800000e+000 -2.496534e+001  5.273681e-001
      vertex  0.000000e+000 -2.496534e+001  5.273681e-001
    endloop
  endfacet
  facet normal  -0.000000e+000  7.787684e-001  6.273115e-001
    outer loop
      vertex  1.800000e+000 -2.452737e+001 -9.653408e-001
      vertex  0.000000e+000 -2.505550e+001 -3.096935e-001
      vertex  1.800000e+000 -2.505550e+001 -3.096935e-001
    endloop
  endfacet
  facet normal  0.000000e+000  9.942490e-001 -1.070934e-001
    outer loop
      vertex  1.800000e+000 -2.505550e+001 -3.096935e-001
      vertex  0.000000e+000 -2.505550e+001 -3.096935e-001
      vertex  0.000000e+000 -2.496534e+001  5.273681e-001
    endloop
  endfacet
  facet normal  0.000000e+000  9.942490e-001 -1.070934e-001
    outer loop
      vertex  1.800000e+000 -2.505550e+001 -3.096935e-001
      vertex  0.000000e+000 -2.496534e+001  5.273681e-001
      vertex  1.800000e+000 -2.496534e+001  5.273681e-001
    endloop
  endfacet
  facet normal  0.000000e+000  7.787684e-001  6.273115e-001
    outer loop
      vertex  0.000000e+000 -2.505550e+001 -3.096935e-001
      vertex  1.800000e+000 -2.452737e+001 -9.653408e-001
      vertex  0.000000e+000 -2.452737e+001 -9.653408e-001
    endloop
  endfacet
  facet normal  -0.000000e+000  1.070950e-001  9.942488e-001
    outer loop
      vertex  0.000000e+000 -2.452737e+001 -9.653408e-001
      vertex  1.800000e+000 -2.452737e+001 -9.653408e-001
      vertex  1.800000e+000 -2.369031e+001 -1.055505e+000
    endloop
  endfacet
  facet normal  0.000000e+000  1.070950e-001  9.942488e-001
    outer loop
      vertex  0.000000e+000 -2.452737e+001 -9.653408e-001
      vertex  1.800000e+000 -2.369031e+001 -1.055505e+000
      vertex  0.000000e+000 -2.369031e+001 -1.055505e+000
    endloop
  endfacet
  facet normal  0.000000e+000 -6.273124e-001  7.787677e-001
    outer loop
      vertex  0.000000e+000 -2.369031e+001 -1.055505e+000
      vertex  1.800000e+000 -2.369031e+001 -1.055505e+000
      vertex  1.800000e+000 -2.303466e+001 -5.273681e-001
    endloop
  endfacet
  facet normal  0.000000e+000 -6.273124e-001  7.787677e-001
    outer loop
      vertex  0.000000e+000 -2.369031e+001 -1.055505e+000
      vertex  1.800000e+000 -2.303466e+001 -5.273681e-001
      vertex  0.000000e+000 -2.303466e+001 -5.273681e-001
    endloop
  endfacet
  facet normal  0.000000e+000  3.420200e-001 -9.396927e-001
    outer loop
      vertex  0.000000e+000 -1.996954e+000  1.132529e+001
      vertex  1.800000e+000 -5.750000e+000  9.959292e+000
      vertex  0.000000e+000 -5.750000e+000  9.959292e+000
    endloop
  endfacet
  facet normal  0.000000e+000  6.427876e-001 -7.660444e-001
    outer loop
      vertex  0.000000e+000 -5.750000e+000  9.959292e+000
      vertex  1.800000e+000 -5.750000e+000  9.959292e+000
      vertex  1.800000e+000 -8.809511e+000  7.392057e+000
    endloop
  endfacet
  facet normal  0.000000e+000  6.427876e-001 -7.660444e-001
    outer loop
      vertex  0.000000e+000 -5.750000e+000  9.959292e+000
      vertex  1.800000e+000 -8.809511e+000  7.392057e+000
      vertex  0.000000e+000 -8.809511e+000  7.392057e+000
    endloop
  endfacet
  facet normal  0.000000e+000  8.660254e-001 -5.000000e-001
    outer loop
      vertex  0.000000e+000 -8.809511e+000  7.392057e+000
      vertex  1.800000e+000 -8.809511e+000  7.392057e+000
      vertex  1.800000e+000 -1.080647e+001  3.933232e+000
    endloop
  endfacet
  facet normal  0.000000e+000  8.660254e-001 -5.000000e-001
    outer loop
      vertex  0.000000e+000 -8.809511e+000  7.392057e+000
      vertex  1.800000e+000 -1.080647e+001  3.933232e+000
      vertex  0.000000e+000 -1.080647e+001  3.933232e+000
    endloop
  endfacet
  facet normal  0.000000e+000  9.848078e-001 -1.736482e-001
    outer loop
      vertex  0.000000e+000 -1.080647e+001  3.933232e+000
      vertex  1.800000e+000 -1.080647e+001  3.933232e+000
      vertex  1.800000e+000 -1.150000e+001  1.408344e-015
    endloop
  endfacet
  facet normal  0.000000e+000  9.848078e-001 -1.736482e-001
    outer loop
      vertex  0.000000e+000 -1.080647e+001  3.933232e+000
      vertex  1.800000e+000 -1.150000e+001  1.408344e-015
      vertex  0.000000e+000 -1.150000e+001  1.408344e-015
    endloop
  endfacet
  facet normal  0.000000e+000  3.420200e-001 -9.396927e-001
    outer loop
      vertex  1.800000e+000 -5.750000e+000  9.959292e+000
      vertex  0.000000e+000 -1.996954e+000  1.132529e+001
      vertex  1.800000e+000 -1.996954e+000  1.132529e+001
    endloop
  endfacet
  facet normal  0.000000e+000  0.000000e+000 -1.000000e+000
    outer loop
      vertex  1.800000e+000 -1.996954e+000  1.132529e+001
      vertex  0.000000e+000 -1.996954e+000  1.132529e+001
      vertex  0.000000e+000  1.996954e+000  1.132529e+001
    endloop
  endfacet
  facet normal  0.000000e+000  0.000000e+000 -1.000000e+000
    outer loop
      vertex  1.800000e+000 -1.996954e+000  1.132529e+001
      vertex  0.000000e+000  1.996954e+000  1.132529e+001
      vertex  1.800000e+000  1.996954e+000  1.132529e+001
    endloop
  endfacet
  facet normal  -0.000000e+000 -3.420200e-001 -9.396927e-001
    outer loop
      vertex  1.800000e+000  1.996954e+000  1.132529e+001
      vertex  0.000000e+000  1.996954e+000  1.132529e+001
      vertex  0.000000e+000  5.750000e+000  9.959292e+000
    endloop
  endfacet
  facet normal  0.000000e+000 -3.420200e-001 -9.396927e-001
    outer loop
      vertex  1.800000e+000  1.996954e+000  1.132529e+001
      vertex  0.000000e+000  5.750000e+000  9.959292e+000
      vertex  1.800000e+000  5.750000e+000  9.959292e+000
    endloop
  endfacet
  facet normal  -0.000000e+000 -6.427876e-001 -7.660444e-001
    outer loop
      vertex  1.800000e+000  5.750000e+000  9.959292e+000
      vertex  0.000000e+000  5.750000e+000  9.959292e+000
      vertex  0.000000e+000  8.809511e+000  7.392057e+000
    endloop
  endfacet
  facet normal  0.000000e+000 -6.427876e-001 -7.660444e-001
    outer loop
      vertex  1.800000e+000  5.750000e+000  9.959292e+000
      vertex  0.000000e+000  8.809511e+000  7.392057e+000
      vertex  1.800000e+000  8.809511e+000  7.392057e+000
    endloop
  endfacet
  facet normal  -0.000000e+000 -8.660254e-001 -5.000000e-001
    outer loop
      vertex  1.800000e+000  8.809511e+000  7.392057e+000
      vertex  0.000000e+000  8.809511e+000  7.392057e+000
      vertex  0.000000e+000  1.080647e+001  3.933232e+000
    endloop
  endfacet
  facet normal  0.000000e+000 -8.660254e-001 -5.000000e-001
    outer loop
      vertex  1.800000e+000  8.809511e+000  7.392057e+000
      vertex  0.000000e+000  1.080647e+001  3.933232e+000
      vertex  1.800000e+000  1.080647e+001  3.933232e+000
    endloop
  endfacet
  facet normal  -0.000000e+000 -9.848078e-001 -1.736482e-001
    outer loop
      vertex  1.800000e+000  1.080647e+001  3.933232e+000
      vertex  0.000000e+000  1.080647e+001  3.933232e+000
      vertex  0.000000e+000  1.150000e+001  0.000000e+000
    endloop
  endfacet
  facet normal  0.000000e+000 -9.848078e-001 -1.736482e-001
    outer loop
      vertex  1.800000e+000  1.080647e+001  3.933232e+000
      vertex  0.000000e+000  1.150000e+001  0.000000e+000
      vertex  1.800000e+000  1.150000e+001  0.000000e+000
    endloop
  endfacet
  facet normal  0.000000e+000 -3.420200e-001  9.396927e-001
    outer loop
      vertex  0.000000e+000  1.996954e+000 -1.132529e+001
      vertex  1.800000e+000  5.750000e+000 -9.959292e+000
      vertex  0.000000e+000  5.750000e+000 -9.959292e+000
    endloop
  endfacet
  facet normal  0.000000e+000 -6.427876e-001  7.660444e-001
    outer loop
      vertex  0.000000e+000  5.750000e+000 -9.959292e+000
      vertex  1.800000e+000  5.750000e+000 -9.959292e+000
      vertex  1.800000e+000  8.809511e+000 -7.392057e+000
    endloop
  endfacet
  facet normal  0.000000e+000 -6.427876e-001  7.660444e-001
    outer loop
      vertex  0.000000e+000  5.750000e+000 -9.959292e+000
      vertex  1.800000e+000  8.809511e+000 -7.392057e+000
      vertex  0.000000e+000  8.809511e+000 -7.392057e+000
    endloop
  endfacet
  facet normal  0.000000e+000 -8.660254e-001  5.000000e-001
    outer loop
      vertex  0.000000e+000  8.809511e+000 -7.392057e+000
      vertex  1.800000e+000  8.809511e+000 -7.392057e+000
      vertex  1.800000e+000  1.080647e+001 -3.933232e+000
    endloop
  endfacet
  facet normal  0.000000e+000 -8.660254e-001  5.000000e-001
    outer loop
      vertex  0.000000e+000  8.809511e+000 -7.392057e+000
      vertex  1.800000e+000  1.080647e+001 -3.933232e+000
      vertex  0.000000e+000  1.080647e+001 -3.933232e+000
    endloop
  endfacet
  facet normal  0.000000e+000 -9.848078e-001  1.736482e-001
    outer loop
      vertex  0.000000e+000  1.080647e+001 -3.933232e+000
      vertex  1.800000e+000  1.080647e+001 -3.933232e+000
      vertex  1.800000e+000  1.150000e+001  0.000000e+000
    endloop
  endfacet
  facet normal  0.000000e+000 -9.848078e-001  1.736482e-001
    outer loop
      vertex  0.000000e+000  1.080647e+001 -3.933232e+000
      vertex  1.800000e+000  1.150000e+001  0.000000e+000
      vertex  0.000000e+000  1.150000e+001  0.000000e+000
    endloop
  endfacet
  facet normal  0.000000e+000 -3.420200e-001  9.396927e-001
    outer loop
      vertex  1.800000e+000  5.750000e+000 -9.959292e+000
      vertex  0.000000e+000  1.996954e+000 -1.132529e+001
      vertex  1.800000e+000  1.996954e+000 -1.132529e+001
    endloop
  endfacet
  facet normal  0.000000e+000  0.000000e+000  1.000000e+000
    outer loop
      vertex  1.800000e+000  1.996954e+000 -1.132529e+001
      vertex  0.000000e+000  1.996954e+000 -1.132529e+001
      vertex  0.000000e+000 -1.996954e+000 -1.132529e+001
    endloop
  endfacet
  facet normal  0.000000e+000  0.000000e+000  1.000000e+000
    outer loop
      vertex  1.800000e+000  1.996954e+000 -1.132529e+001
      vertex  0.000000e+000 -1.996954e+000 -1.132529e+001
      vertex  1.800000e+000 -1.996954e+000 -1.132529e+001
    endloop
  endfacet
  facet normal  0.000000e+000  3.420200e-001  9.396927e-001
    outer loop
      vertex  1.800000e+000 -1.996954e+000 -1.132529e+001
      vertex  0.000000e+000 -1.996954e+000 -1.132529e+001
      vertex  0.000000e+000 -5.750000e+000 -9.959292e+000
    endloop
  endfacet
  facet normal  -0.000000e+000  3.420200e-001  9.396927e-001
    outer loop
      vertex  1.800000e+000 -1.996954e+000 -1.132529e+001
      vertex  0.000000e+000 -5.750000e+000 -9.959292e+000
      vertex  1.800000e+000 -5.750000e+000 -9.959292e+000
    endloop
  endfacet
  facet normal  0.000000e+000  6.427876e-001  7.660444e-001
    outer loop
      vertex  1.800000e+000 -5.750000e+000 -9.959292e+000
      vertex  0.000000e+000 -5.750000e+000 -9.959292e+000
      vertex  0.000000e+000 -8.809511e+000 -7.392057e+000
    endloop
  endfacet
  facet normal  -0.000000e+000  6.427876e-001  7.660444e-001
    outer loop
      vertex  1.800000e+000 -5.750000e+000 -9.959292e+000
      vertex  0.000000e+000 -8.809511e+000 -7.392057e+000
      vertex  1.800000e+000 -8.809511e+000 -7.392057e+000
    endloop
  endfacet
  facet normal  0.000000e+000  8.660254e-001  5.000000e-001
    outer loop
      vertex  1.800000e+000 -8.809511e+000 -7.392057e+000
      vertex  0.000000e+000 -8.809511e+000 -7.392057e+000
      vertex  0.000000e+000 -1.080647e+001 -3.933232e+000
    endloop
  endfacet
  facet normal  -0.000000e+000  8.660254e-001  5.000000e-001
    outer loop
      vertex  1.800000e+000 -8.809511e+000 -7.392057e+000
      vertex  0.000000e+000 -1.080647e+001 -3.933232e+000
      vertex  1.800000e+000 -1.080647e+001 -3.933232e+000
    endloop
  endfacet
  facet normal  0.000000e+000  9.848078e-001  1.736482e-001
    outer loop
      vertex  1.800000e+000 -1.080647e+001 -3.933232e+000
      vertex  0.000000e+000 -1.080647e+001 -3.933232e+000
      vertex  0.000000e+000 -1.150000e+001  1.408344e-015
    endloop
  endfacet
  facet normal  -0.000000e+000  9.848078e-001  1.736482e-001
    outer loop
      vertex  1.800000e+000 -1.080647e+001 -3.933232e+000
      vertex  0.000000e+000 -1.150000e+001  1.408344e-015
      vertex  1.800000e+000 -1.150000e+001  1.408344e-015
    endloop
  endfacet
  facet normal  -0.000000e+000  7.787677e-001  6.273124e-001
    outer loop
      vertex  1.800000e+000 -5.273681e-001 -2.496534e+001
      vertex  0.000000e+000 -1.055505e+000 -2.430969e+001
      vertex  1.800000e+000 -1.055505e+000 -2.430969e+001
    endloop
  endfacet
  facet normal  0.000000e+000  9.942488e-001 -1.070950e-001
    outer loop
      vertex  1.800000e+000 -1.055505e+000 -2.430969e+001
      vertex  0.000000e+000 -1.055505e+000 -2.430969e+001
      vertex  0.000000e+000 -9.653408e-001 -2.347263e+001
    endloop
  endfacet
  facet normal  0.000000e+000  9.942488e-001 -1.070950e-001
    outer loop
      vertex  1.800000e+000 -1.055505e+000 -2.430969e+001
      vertex  0.000000e+000 -9.653408e-001 -2.347263e+001
      vertex  1.800000e+000 -9.653408e-001 -2.347263e+001
    endloop
  endfacet
  facet normal  0.000000e+000  7.787677e-001  6.273124e-001
    outer loop
      vertex  0.000000e+000 -1.055505e+000 -2.430969e+001
      vertex  1.800000e+000 -5.273681e-001 -2.496534e+001
      vertex  0.000000e+000 -5.273681e-001 -2.496534e+001
    endloop
  endfacet
  facet normal  -0.000000e+000  1.070934e-001  9.942490e-001
    outer loop
      vertex  0.000000e+000 -5.273681e-001 -2.496534e+001
      vertex  1.800000e+000 -5.273681e-001 -2.496534e+001
      vertex  1.800000e+000  3.096935e-001 -2.505550e+001
    endloop
  endfacet
  facet normal  0.000000e+000  1.070934e-001  9.942490e-001
    outer loop
      vertex  0.000000e+000 -5.273681e-001 -2.496534e+001
      vertex  1.800000e+000  3.096935e-001 -2.505550e+001
      vertex  0.000000e+000  3.096935e-001 -2.505550e+001
    endloop
  endfacet
  facet normal  0.000000e+000 -6.273115e-001  7.787684e-001
    outer loop
      vertex  0.000000e+000  3.096935e-001 -2.505550e+001
      vertex  1.800000e+000  3.096935e-001 -2.505550e+001
      vertex  1.800000e+000  9.653408e-001 -2.452737e+001
    endloop
  endfacet
  facet normal  0.000000e+000 -6.273115e-001  7.787684e-001
    outer loop
      vertex  0.000000e+000  3.096935e-001 -2.505550e+001
      vertex  1.800000e+000  9.653408e-001 -2.452737e+001
      vertex  0.000000e+000  9.653408e-001 -2.452737e+001
    endloop
  endfacet
  facet normal  0.000000e+000 -7.787677e-001 -6.273124e-001
    outer loop
      vertex  1.800000e+000  5.273681e-001 -2.303466e+001
      vertex  0.000000e+000  1.055505e+000 -2.369031e+001
      vertex  1.800000e+000  1.055505e+000 -2.369031e+001
    endloop
  endfacet
  facet normal  0.000000e+000 -9.942488e-001  1.070950e-001
    outer loop
      vertex  1.800000e+000  1.055505e+000 -2.369031e+001
      vertex  0.000000e+000  1.055505e+000 -2.369031e+001
      vertex  0.000000e+000  9.653408e-001 -2.452737e+001
    endloop
  endfacet
  facet normal  0.000000e+000 -9.942488e-001  1.070950e-001
    outer loop
      vertex  1.800000e+000  1.055505e+000 -2.369031e+001
      vertex  0.000000e+000  9.653408e-001 -2.452737e+001
      vertex  1.800000e+000  9.653408e-001 -2.452737e+001
    endloop
  endfacet
  facet normal  -0.000000e+000 -7.787677e-001 -6.273124e-001
    outer loop
      vertex  0.000000e+000  1.055505e+000 -2.369031e+001
      vertex  1.800000e+000  5.273681e-001 -2.303466e+001
      vertex  0.000000e+000  5.273681e-001 -2.303466e+001
    endloop
  endfacet
  facet normal  0.000000e+000 -1.070934e-001 -9.942490e-001
    outer loop
      vertex  0.000000e+000  5.273681e-001 -2.303466e+001
      vertex  1.800000e+000  5.273681e-001 -2.303466e+001
      vertex  1.800000e+000 -3.096935e-001 -2.294450e+001
    endloop
  endfacet
  facet normal  -0.000000e+000 -1.070934e-001 -9.942490e-001
    outer loop
      vertex  0.000000e+000  5.273681e-001 -2.303466e+001
      vertex  1.800000e+000 -3.096935e-001 -2.294450e+001
      vertex  0.000000e+000 -3.096935e-001 -2.294450e+001
    endloop
  endfacet
  facet normal  0.000000e+000  6.273115e-001 -7.787684e-001
    outer loop
      vertex  0.000000e+000 -3.096935e-001 -2.294450e+001
      vertex  1.800000e+000 -3.096935e-001 -2.294450e+001
      vertex  1.800000e+000 -9.653408e-001 -2.347263e+001
    endloop
  endfacet
  facet normal  0.000000e+000  6.273115e-001 -7.787684e-001
    outer loop
      vertex  0.000000e+000 -3.096935e-001 -2.294450e+001
      vertex  1.800000e+000 -9.653408e-001 -2.347263e+001
      vertex  0.000000e+000 -9.653408e-001 -2.347263e+001
    endloop
  endfacet
endsolid CATIA STL
