solid CATIA STL
  facet normal  1.000000e+000  -0.000000e+000  0.000000e+000
    outer loop
      vertex  1.800000e+000  9.653408e-001  2.347263e+001
      vertex  1.800000e+000  3.096935e-001  2.294450e+001
      vertex  1.800000e+000  1.505372e+001  2.180907e+001
    endloop
  endfacet
  facet normal  1.000000e+000  -0.000000e+000  -0.000000e+000
    outer loop
      vertex  1.800000e+000 -3.194222e+000  2.630679e+001
      vertex  1.800000e+000 -3.096935e-001  2.505550e+001
      vertex  1.800000e+000  5.273681e-001  2.496534e+001
    endloop
  endfacet
  facet normal  1.000000e+000  0.000000e+000  0.000000e+000
    outer loop
      vertex  1.800000e+000 -3.096935e-001  2.505550e+001
      vertex  1.800000e+000 -3.194222e+000  2.630679e+001
      vertex  1.800000e+000 -9.397030e+000  2.477793e+001
    endloop
  endfacet
  facet normal  1.000000e+000  0.000000e+000  0.000000e+000
    outer loop
      vertex  1.800000e+000 -9.653408e-001  2.452737e+001
      vertex  1.800000e+000 -3.096935e-001  2.505550e+001
      vertex  1.800000e+000 -9.397030e+000  2.477793e+001
    endloop
  endfacet
  facet normal  1.000000e+000  0.000000e+000  0.000000e+000
    outer loop
      vertex  1.800000e+000 -3.096935e-001 -2.294450e+001
      vertex  1.800000e+000 -1.983554e+001 -1.757275e+001
      vertex  1.800000e+000 -1.505372e+001 -2.180907e+001
    endloop
  endfacet
  facet normal  1.000000e+000  0.000000e+000  -0.000000e+000
    outer loop
      vertex  1.800000e+000  7.071068e-001 -7.071068e-001
      vertex  1.800000e+000  1.505372e+001 -2.180907e+001
      vertex  1.800000e+000  1.983554e+001 -1.757275e+001
    endloop
  endfacet
  facet normal  1.000000e+000  0.000000e+000  -0.000000e+000
    outer loop
      vertex  1.800000e+000  7.071068e-001 -7.071068e-001
      vertex  1.800000e+000  1.983554e+001 -1.757275e+001
      vertex  1.800000e+000  2.346458e+001 -1.231516e+001
    endloop
  endfacet
  facet normal  1.000000e+000  0.000000e+000  -0.000000e+000
    outer loop
      vertex  1.800000e+000  7.071068e-001 -7.071068e-001
      vertex  1.800000e+000  2.346458e+001 -1.231516e+001
      vertex  1.800000e+000  2.347263e+001 -9.653408e-001
    endloop
  endfacet
  facet normal  1.000000e+000  0.000000e+000  0.000000e+000
    outer loop
      vertex  1.800000e+000  7.071068e-001 -7.071068e-001
      vertex  1.800000e+000  2.347263e+001 -9.653408e-001
      vertex  1.800000e+000  2.294450e+001 -3.096935e-001
    endloop
  endfacet
  facet normal  1.000000e+000  0.000000e+000  0.000000e+000
    outer loop
      vertex  1.800000e+000  7.071068e-001 -7.071068e-001
      vertex  1.800000e+000  2.294450e+001 -3.096935e-001
      vertex  1.800000e+000  1.000000e+000  0.000000e+000
    endloop
  endfacet
  facet normal  1.000000e+000  0.000000e+000  -0.000000e+000
    outer loop
      vertex  1.800000e+000 -9.397030e+000 -2.477793e+001
      vertex  1.800000e+000 -3.194222e+000 -2.630679e+001
      vertex  1.800000e+000 -5.273681e-001 -2.496534e+001
    endloop
  endfacet
  facet normal  1.000000e+000  0.000000e+000  0.000000e+000
    outer loop
      vertex  1.800000e+000 -9.397030e+000 -2.477793e+001
      vertex  1.800000e+000 -5.273681e-001 -2.496534e+001
      vertex  1.800000e+000 -1.055505e+000 -2.430969e+001
    endloop
  endfacet
  facet normal  9.999999e-001  0.000000e+000  -0.000000e+000
    outer loop
      vertex  1.800000e+000 -9.397030e+000 -2.477793e+001
      vertex  1.800000e+000 -1.055505e+000 -2.430969e+001
      vertex  1.800000e+000 -9.653408e-001 -2.347263e+001
    endloop
  endfacet
  facet normal  1.000000e+000  0.000000e+000  -0.000000e+000
    outer loop
      vertex  1.800000e+000 -9.397030e+000 -2.477793e+001
      vertex  1.800000e+000 -9.653408e-001 -2.347263e+001
      vertex  1.800000e+000 -3.096935e-001 -2.294450e+001
    endloop
  endfacet
  facet normal  1.000000e+000  0.000000e+000  0.000000e+000
    outer loop
      vertex  1.800000e+000 -9.397030e+000 -2.477793e+001
      vertex  1.800000e+000 -3.096935e-001 -2.294450e+001
      vertex  1.800000e+000 -1.505372e+001 -2.180907e+001
    endloop
  endfacet
  facet normal  9.999999e-001  -0.000000e+000  -0.000000e+000
    outer loop
      vertex  1.800000e+000  6.123234e-017  1.000000e+000
      vertex  1.800000e+000  7.071068e-001  7.071068e-001
      vertex  1.800000e+000  2.303466e+001  5.273681e-001
    endloop
  endfacet
  facet normal  1.000000e+000  0.000000e+000  -0.000000e+000
    outer loop
      vertex  1.800000e+000  6.123234e-017  1.000000e+000
      vertex  1.800000e+000  2.303466e+001  5.273681e-001
      vertex  1.800000e+000  2.369031e+001  1.055505e+000
    endloop
  endfacet
  facet normal  1.000000e+000  0.000000e+000  0.000000e+000
    outer loop
      vertex  1.800000e+000  6.123234e-017  1.000000e+000
      vertex  1.800000e+000  2.369031e+001  1.055505e+000
      vertex  1.800000e+000  2.346458e+001  1.231516e+001
    endloop
  endfacet
  facet normal  1.000000e+000  0.000000e+000  0.000000e+000
    outer loop
      vertex  1.800000e+000  6.123234e-017  1.000000e+000
      vertex  1.800000e+000  2.346458e+001  1.231516e+001
      vertex  1.800000e+000  1.983554e+001  1.757275e+001
    endloop
  endfacet
  facet normal  9.999999e-001  0.000000e+000  0.000000e+000
    outer loop
      vertex  1.800000e+000  6.123234e-017  1.000000e+000
      vertex  1.800000e+000  1.983554e+001  1.757275e+001
      vertex  1.800000e+000  1.505372e+001  2.180907e+001
    endloop
  endfacet
  facet normal  1.000000e+000  0.000000e+000  0.000000e+000
    outer loop
      vertex  1.800000e+000  6.123234e-017  1.000000e+000
      vertex  1.800000e+000  1.505372e+001  2.180907e+001
      vertex  1.800000e+000  3.096935e-001  2.294450e+001
    endloop
  endfacet
  facet normal  1.000000e+000  0.000000e+000  0.000000e+000
    outer loop
      vertex  1.800000e+000  6.123234e-017  1.000000e+000
      vertex  1.800000e+000  3.096935e-001  2.294450e+001
      vertex  1.800000e+000 -5.273681e-001  2.303466e+001
    endloop
  endfacet
  facet normal  1.000000e+000  0.000000e+000  0.000000e+000
    outer loop
      vertex  1.800000e+000  6.123234e-017  1.000000e+000
      vertex  1.800000e+000 -5.273681e-001  2.303466e+001
      vertex  1.800000e+000 -1.505372e+001  2.180907e+001
    endloop
  endfacet
  facet normal  9.999999e-001  0.000000e+000  0.000000e+000
    outer loop
      vertex  1.800000e+000  6.123234e-017  1.000000e+000
      vertex  1.800000e+000 -1.505372e+001  2.180907e+001
      vertex  1.800000e+000 -1.983554e+001  1.757275e+001
    endloop
  endfacet
  facet normal  1.000000e+000  0.000000e+000  0.000000e+000
    outer loop
      vertex  1.800000e+000  6.123234e-017  1.000000e+000
      vertex  1.800000e+000 -1.983554e+001  1.757275e+001
      vertex  1.800000e+000 -2.346458e+001  1.231516e+001
    endloop
  endfacet
  facet normal  1.000000e+000  0.000000e+000  0.000000e+000
    outer loop
      vertex  1.800000e+000 -1.505372e+001  2.180907e+001
      vertex  1.800000e+000 -5.273681e-001  2.303466e+001
      vertex  1.800000e+000 -1.055505e+000  2.369031e+001
    endloop
  endfacet
  facet normal  1.000000e+000  0.000000e+000  -0.000000e+000
    outer loop
      vertex  1.800000e+000 -1.505372e+001  2.180907e+001
      vertex  1.800000e+000 -1.055505e+000  2.369031e+001
      vertex  1.800000e+000 -9.653408e-001  2.452737e+001
    endloop
  endfacet
  facet normal  1.000000e+000  0.000000e+000  0.000000e+000
    outer loop
      vertex  1.800000e+000 -1.505372e+001  2.180907e+001
      vertex  1.800000e+000 -9.653408e-001  2.452737e+001
      vertex  1.800000e+000 -9.397030e+000  2.477793e+001
    endloop
  endfacet
  facet normal  1.000000e+000  0.000000e+000  0.000000e+000
    outer loop
      vertex  1.800000e+000 -5.273681e-001 -2.496534e+001
      vertex  1.800000e+000 -3.194222e+000 -2.630679e+001
      vertex  1.800000e+000  3.096935e-001 -2.505550e+001
    endloop
  endfacet
  facet normal  1.000000e+000  0.000000e+000  0.000000e+000
    outer loop
      vertex  1.800000e+000  3.096935e-001 -2.505550e+001
      vertex  1.800000e+000 -3.194222e+000 -2.630679e+001
      vertex  1.800000e+000  3.194222e+000 -2.630679e+001
    endloop
  endfacet
  facet normal  1.000000e+000  0.000000e+000  0.000000e+000
    outer loop
      vertex  1.800000e+000  3.096935e-001 -2.505550e+001
      vertex  1.800000e+000  3.194222e+000 -2.630679e+001
      vertex  1.800000e+000  9.653408e-001 -2.452737e+001
    endloop
  endfacet
  facet normal  9.999999e-001  0.000000e+000  0.000000e+000
    outer loop
      vertex  1.800000e+000  9.653408e-001 -2.452737e+001
      vertex  1.800000e+000  3.194222e+000 -2.630679e+001
      vertex  1.800000e+000  9.397030e+000 -2.477793e+001
    endloop
  endfacet
  facet normal  1.000000e+000  0.000000e+000  0.000000e+000
    outer loop
      vertex  1.800000e+000  9.653408e-001 -2.452737e+001
      vertex  1.800000e+000  9.397030e+000 -2.477793e+001
      vertex  1.800000e+000  1.055505e+000 -2.369031e+001
    endloop
  endfacet
  facet normal  1.000000e+000  0.000000e+000  0.000000e+000
    outer loop
      vertex  1.800000e+000  1.505372e+001 -2.180907e+001
      vertex  1.800000e+000  7.071068e-001 -7.071068e-001
      vertex  1.800000e+000  5.273681e-001 -2.303466e+001
    endloop
  endfacet
  facet normal  1.000000e+000  0.000000e+000  -0.000000e+000
    outer loop
      vertex  1.800000e+000  5.273681e-001 -2.303466e+001
      vertex  1.800000e+000  7.071068e-001 -7.071068e-001
      vertex  1.800000e+000 -1.836970e-016 -1.000000e+000
    endloop
  endfacet
  facet normal  1.000000e+000  0.000000e+000  0.000000e+000
    outer loop
      vertex  1.800000e+000  5.273681e-001 -2.303466e+001
      vertex  1.800000e+000 -1.836970e-016 -1.000000e+000
      vertex  1.800000e+000 -3.096935e-001 -2.294450e+001
    endloop
  endfacet
  facet normal  1.000000e+000  0.000000e+000  -0.000000e+000
    outer loop
      vertex  1.800000e+000 -3.096935e-001 -2.294450e+001
      vertex  1.800000e+000 -1.836970e-016 -1.000000e+000
      vertex  1.800000e+000 -2.369031e+001 -1.055505e+000
    endloop
  endfacet
  facet normal  1.000000e+000  0.000000e+000  0.000000e+000
    outer loop
      vertex  1.800000e+000 -3.096935e-001 -2.294450e+001
      vertex  1.800000e+000 -2.369031e+001 -1.055505e+000
      vertex  1.800000e+000 -1.983554e+001 -1.757275e+001
    endloop
  endfacet
  facet normal  1.000000e+000  0.000000e+000  0.000000e+000
    outer loop
      vertex  1.800000e+000 -1.983554e+001 -1.757275e+001
      vertex  1.800000e+000 -2.369031e+001 -1.055505e+000
      vertex  1.800000e+000 -2.346458e+001 -1.231516e+001
    endloop
  endfacet
  facet normal  1.000000e+000  -0.000000e+000  0.000000e+000
    outer loop
      vertex  1.800000e+000  3.194222e+000  2.630679e+001
      vertex  1.800000e+000 -3.194222e+000  2.630679e+001
      vertex  1.800000e+000  9.397030e+000  2.477793e+001
    endloop
  endfacet
  facet normal  1.000000e+000  0.000000e+000  0.000000e+000
    outer loop
      vertex  1.800000e+000  9.397030e+000  2.477793e+001
      vertex  1.800000e+000 -3.194222e+000  2.630679e+001
      vertex  1.800000e+000  5.273681e-001  2.496534e+001
    endloop
  endfacet
  facet normal  9.999999e-001  0.000000e+000  0.000000e+000
    outer loop
      vertex  1.800000e+000  9.397030e+000  2.477793e+001
      vertex  1.800000e+000  5.273681e-001  2.496534e+001
      vertex  1.800000e+000  1.505372e+001  2.180907e+001
    endloop
  endfacet
  facet normal  1.000000e+000  0.000000e+000  0.000000e+000
    outer loop
      vertex  1.800000e+000  1.505372e+001  2.180907e+001
      vertex  1.800000e+000  5.273681e-001  2.496534e+001
      vertex  1.800000e+000  1.055505e+000  2.430969e+001
    endloop
  endfacet
  facet normal  1.000000e+000  0.000000e+000  0.000000e+000
    outer loop
      vertex  1.800000e+000  1.505372e+001  2.180907e+001
      vertex  1.800000e+000  1.055505e+000  2.430969e+001
      vertex  1.800000e+000  9.653408e-001  2.347263e+001
    endloop
  endfacet
  facet normal  1.000000e+000  0.000000e+000  0.000000e+000
    outer loop
      vertex  1.800000e+000  2.347263e+001 -9.653408e-001
      vertex  1.800000e+000  2.346458e+001 -1.231516e+001
      vertex  1.800000e+000  2.430969e+001 -1.055505e+000
    endloop
  endfacet
  facet normal  1.000000e+000  0.000000e+000  0.000000e+000
    outer loop
      vertex  1.800000e+000  2.430969e+001 -1.055505e+000
      vertex  1.800000e+000  2.346458e+001 -1.231516e+001
      vertex  1.800000e+000  2.572996e+001 -6.341865e+000
    endloop
  endfacet
  facet normal  1.000000e+000  0.000000e+000  0.000000e+000
    outer loop
      vertex  1.800000e+000  2.430969e+001 -1.055505e+000
      vertex  1.800000e+000  2.572996e+001 -6.341865e+000
      vertex  1.800000e+000  2.496534e+001 -5.273681e-001
    endloop
  endfacet
  facet normal  1.000000e+000  0.000000e+000  0.000000e+000
    outer loop
      vertex  1.800000e+000  2.496534e+001 -5.273681e-001
      vertex  1.800000e+000  2.572996e+001 -6.341865e+000
      vertex  1.800000e+000  2.505550e+001  3.096935e-001
    endloop
  endfacet
  facet normal  1.000000e+000  0.000000e+000  0.000000e+000
    outer loop
      vertex  1.800000e+000  2.505550e+001  3.096935e-001
      vertex  1.800000e+000  2.572996e+001 -6.341865e+000
      vertex  1.800000e+000  2.650000e+001  0.000000e+000
    endloop
  endfacet
  facet normal  1.000000e+000  0.000000e+000  0.000000e+000
    outer loop
      vertex  1.800000e+000  2.505550e+001  3.096935e-001
      vertex  1.800000e+000  2.650000e+001  0.000000e+000
      vertex  1.800000e+000  2.452737e+001  9.653408e-001
    endloop
  endfacet
  facet normal  9.999999e-001  -0.000000e+000  0.000000e+000
    outer loop
      vertex  1.800000e+000  2.452737e+001  9.653408e-001
      vertex  1.800000e+000  2.650000e+001  0.000000e+000
      vertex  1.800000e+000  2.572996e+001  6.341865e+000
    endloop
  endfacet
  facet normal  1.000000e+000  0.000000e+000  0.000000e+000
    outer loop
      vertex  1.800000e+000  2.452737e+001  9.653408e-001
      vertex  1.800000e+000  2.572996e+001  6.341865e+000
      vertex  1.800000e+000  2.369031e+001  1.055505e+000
    endloop
  endfacet
  facet normal  1.000000e+000  0.000000e+000  -0.000000e+000
    outer loop
      vertex  1.800000e+000  2.369031e+001  1.055505e+000
      vertex  1.800000e+000  2.572996e+001  6.341865e+000
      vertex  1.800000e+000  2.346458e+001  1.231516e+001
    endloop
  endfacet
  facet normal  1.000000e+000  0.000000e+000  0.000000e+000
    outer loop
      vertex  1.800000e+000 -2.346458e+001 -1.231516e+001
      vertex  1.800000e+000 -2.369031e+001 -1.055505e+000
      vertex  1.800000e+000 -2.572996e+001 -6.341865e+000
    endloop
  endfacet
  facet normal  1.000000e+000  0.000000e+000  0.000000e+000
    outer loop
      vertex  1.800000e+000 -2.572996e+001 -6.341865e+000
      vertex  1.800000e+000 -2.369031e+001 -1.055505e+000
      vertex  1.800000e+000 -2.452737e+001 -9.653408e-001
    endloop
  endfacet
  facet normal  9.999999e-001  0.000000e+000  0.000000e+000
    outer loop
      vertex  1.800000e+000 -2.572996e+001 -6.341865e+000
      vertex  1.800000e+000 -2.452737e+001 -9.653408e-001
      vertex  1.800000e+000 -2.650000e+001  3.245314e-015
    endloop
  endfacet
  facet normal  1.000000e+000  0.000000e+000  0.000000e+000
    outer loop
      vertex  1.800000e+000 -2.650000e+001  3.245314e-015
      vertex  1.800000e+000 -2.452737e+001 -9.653408e-001
      vertex  1.800000e+000 -2.505550e+001 -3.096935e-001
    endloop
  endfacet
  facet normal  1.000000e+000  0.000000e+000  -0.000000e+000
    outer loop
      vertex  1.800000e+000 -2.650000e+001  3.245314e-015
      vertex  1.800000e+000 -2.505550e+001 -3.096935e-001
      vertex  1.800000e+000 -2.496534e+001  5.273681e-001
    endloop
  endfacet
  facet normal  9.999999e-001  0.000000e+000  0.000000e+000
    outer loop
      vertex  1.800000e+000 -7.071068e-001  7.071068e-001
      vertex  1.800000e+000  6.123234e-017  1.000000e+000
      vertex  1.800000e+000 -2.347263e+001  9.653408e-001
    endloop
  endfacet
  facet normal  1.000000e+000  0.000000e+000  0.000000e+000
    outer loop
      vertex  1.800000e+000 -2.347263e+001  9.653408e-001
      vertex  1.800000e+000  6.123234e-017  1.000000e+000
      vertex  1.800000e+000 -2.346458e+001  1.231516e+001
    endloop
  endfacet
  facet normal  1.000000e+000  0.000000e+000  0.000000e+000
    outer loop
      vertex  1.800000e+000 -2.347263e+001  9.653408e-001
      vertex  1.800000e+000 -2.346458e+001  1.231516e+001
      vertex  1.800000e+000 -2.430969e+001  1.055505e+000
    endloop
  endfacet
  facet normal  1.000000e+000  0.000000e+000  -0.000000e+000
    outer loop
      vertex  1.800000e+000 -2.430969e+001  1.055505e+000
      vertex  1.800000e+000 -2.346458e+001  1.231516e+001
      vertex  1.800000e+000 -2.572996e+001  6.341865e+000
    endloop
  endfacet
  facet normal  1.000000e+000  0.000000e+000  0.000000e+000
    outer loop
      vertex  1.800000e+000 -2.430969e+001  1.055505e+000
      vertex  1.800000e+000 -2.572996e+001  6.341865e+000
      vertex  1.800000e+000 -2.496534e+001  5.273681e-001
    endloop
  endfacet
  facet normal  1.000000e+000  0.000000e+000  0.000000e+000
    outer loop
      vertex  1.800000e+000 -2.496534e+001  5.273681e-001
      vertex  1.800000e+000 -2.572996e+001  6.341865e+000
      vertex  1.800000e+000 -2.650000e+001  3.245314e-015
    endloop
  endfacet
  facet normal  1.000000e+000  0.000000e+000  0.000000e+000
    outer loop
      vertex  1.800000e+000 -7.071068e-001  7.071068e-001
      vertex  1.800000e+000 -2.347263e+001  9.653408e-001
      vertex  1.800000e+000 -1.000000e+000  1.224647e-016
    endloop
  endfacet
  facet normal  1.000000e+000  0.000000e+000  0.000000e+000
    outer loop
      vertex  1.800000e+000 -1.000000e+000  1.224647e-016
      vertex  1.800000e+000 -2.347263e+001  9.653408e-001
      vertex  1.800000e+000 -2.294450e+001  3.096935e-001
    endloop
  endfacet
  facet normal  9.999999e-001  0.000000e+000  0.000000e+000
    outer loop
      vertex  1.800000e+000 -1.000000e+000  1.224647e-016
      vertex  1.800000e+000 -2.294450e+001  3.096935e-001
      vertex  1.800000e+000 -7.071068e-001 -7.071068e-001
    endloop
  endfacet
  facet normal  1.000000e+000  0.000000e+000  0.000000e+000
    outer loop
      vertex  1.800000e+000 -7.071068e-001 -7.071068e-001
      vertex  1.800000e+000 -2.294450e+001  3.096935e-001
      vertex  1.800000e+000 -2.303466e+001 -5.273681e-001
    endloop
  endfacet
  facet normal  1.000000e+000  0.000000e+000  0.000000e+000
    outer loop
      vertex  1.800000e+000 -7.071068e-001 -7.071068e-001
      vertex  1.800000e+000 -2.303466e+001 -5.273681e-001
      vertex  1.800000e+000 -1.836970e-016 -1.000000e+000
    endloop
  endfacet
  facet normal  1.000000e+000  0.000000e+000  0.000000e+000
    outer loop
      vertex  1.800000e+000 -1.836970e-016 -1.000000e+000
      vertex  1.800000e+000 -2.303466e+001 -5.273681e-001
      vertex  1.800000e+000 -2.369031e+001 -1.055505e+000
    endloop
  endfacet
  facet normal  9.999999e-001  0.000000e+000  0.000000e+000
    outer loop
      vertex  1.800000e+000  1.000000e+000  0.000000e+000
      vertex  1.800000e+000  2.294450e+001 -3.096935e-001
      vertex  1.800000e+000  7.071068e-001  7.071068e-001
    endloop
  endfacet
  facet normal  1.000000e+000  0.000000e+000  0.000000e+000
    outer loop
      vertex  1.800000e+000  7.071068e-001  7.071068e-001
      vertex  1.800000e+000  2.294450e+001 -3.096935e-001
      vertex  1.800000e+000  2.303466e+001  5.273681e-001
    endloop
  endfacet
  facet normal  1.000000e+000  0.000000e+000  0.000000e+000
    outer loop
      vertex  1.800000e+000  1.055505e+000 -2.369031e+001
      vertex  1.800000e+000  9.397030e+000 -2.477793e+001
      vertex  1.800000e+000  5.273681e-001 -2.303466e+001
    endloop
  endfacet
  facet normal  1.000000e+000  -0.000000e+000  0.000000e+000
    outer loop
      vertex  1.800000e+000  5.273681e-001 -2.303466e+001
      vertex  1.800000e+000  9.397030e+000 -2.477793e+001
      vertex  1.800000e+000  1.505372e+001 -2.180907e+001
    endloop
  endfacet
  facet normal -1.000000e+000 -2.955181e-017 -3.837445e-016
    outer loop
      vertex  0.000000e+000  1.505372e+001  2.180907e+001
      vertex  0.000000e+000  3.096935e-001  2.294450e+001
      vertex -2.220446e-016  9.653408e-001  2.347263e+001
    endloop
  endfacet
  facet normal -1.000000e+000  0.000000e+000  0.000000e+000
    outer loop
      vertex  0.000000e+000 -2.346458e+001  1.231516e+001
      vertex  0.000000e+000 -2.347263e+001  9.653408e-001
      vertex  0.000000e+000 -2.572996e+001  6.341865e+000
    endloop
  endfacet
  facet normal -1.000000e+000  0.000000e+000  0.000000e+000
    outer loop
      vertex  0.000000e+000  5.273681e-001  2.496534e+001
      vertex  0.000000e+000 -3.096935e-001  2.505550e+001
      vertex  0.000000e+000 -3.194222e+000  2.630679e+001
    endloop
  endfacet
  facet normal -1.000000e+000  0.000000e+000  -0.000000e+000
    outer loop
      vertex  0.000000e+000 -9.397030e+000  2.477793e+001
      vertex  0.000000e+000 -3.194222e+000  2.630679e+001
      vertex  0.000000e+000 -3.096935e-001  2.505550e+001
    endloop
  endfacet
  facet normal -1.000000e+000 -1.334823e-017  4.370023e-016
    outer loop
      vertex  0.000000e+000 -9.397030e+000  2.477793e+001
      vertex  0.000000e+000 -3.096935e-001  2.505550e+001
      vertex -2.220446e-016 -9.653408e-001  2.452737e+001
    endloop
  endfacet
  facet normal -1.000000e+000  0.000000e+000  0.000000e+000
    outer loop
      vertex  0.000000e+000 -1.505372e+001 -2.180907e+001
      vertex  0.000000e+000 -1.983554e+001 -1.757275e+001
      vertex  0.000000e+000 -3.096935e-001 -2.294450e+001
    endloop
  endfacet
  facet normal -1.000000e+000 -2.784121e-016 -7.479976e-017
    outer loop
      vertex  0.000000e+000  2.572996e+001 -6.341865e+000
      vertex  0.000000e+000  2.430969e+001 -1.055505e+000
      vertex -2.220446e-016  2.496534e+001 -5.273681e-001
    endloop
  endfacet
  facet normal -1.000000e+000  0.000000e+000  0.000000e+000
    outer loop
      vertex  0.000000e+000 -9.397030e+000 -2.477793e+001
      vertex  0.000000e+000 -1.505372e+001 -2.180907e+001
      vertex  0.000000e+000 -3.096935e-001 -2.294450e+001
    endloop
  endfacet
  facet normal -9.999999e-001 -1.131708e-016  5.609258e-016
    outer loop
      vertex  0.000000e+000 -9.397030e+000 -2.477793e+001
      vertex  0.000000e+000 -3.096935e-001 -2.294450e+001
      vertex -2.220446e-016 -9.653408e-001 -2.347263e+001
    endloop
  endfacet
  facet normal -1.000000e+000  1.498084e-017 -2.668800e-016
    outer loop
      vertex  0.000000e+000 -9.397030e+000 -2.477793e+001
      vertex -2.220446e-016 -9.653408e-001 -2.347263e+001
      vertex  0.000000e+000 -1.055505e+000 -2.430969e+001
    endloop
  endfacet
  facet normal -1.000000e+000  0.000000e+000  -0.000000e+000
    outer loop
      vertex  0.000000e+000 -9.397030e+000 -2.477793e+001
      vertex  0.000000e+000 -1.055505e+000 -2.430969e+001
      vertex  0.000000e+000 -5.273681e-001 -2.496534e+001
    endloop
  endfacet
  facet normal -1.000000e+000  -0.000000e+000  0.000000e+000
    outer loop
      vertex  0.000000e+000 -9.397030e+000 -2.477793e+001
      vertex  0.000000e+000 -5.273681e-001 -2.496534e+001
      vertex  0.000000e+000 -3.194222e+000 -2.630679e+001
    endloop
  endfacet
  facet normal -1.000000e+000 -2.492336e-017  4.748748e-017
    outer loop
      vertex  0.000000e+000 -1.505372e+001  2.180907e+001
      vertex  0.000000e+000 -9.397030e+000  2.477793e+001
      vertex -2.220446e-016 -9.653408e-001  2.452737e+001
    endloop
  endfacet
  facet normal -1.000000e+000  3.617304e-017 -2.691627e-016
    outer loop
      vertex  0.000000e+000 -1.505372e+001  2.180907e+001
      vertex -2.220446e-016 -9.653408e-001  2.452737e+001
      vertex  0.000000e+000 -1.055505e+000  2.369031e+001
    endloop
  endfacet
  facet normal -1.000000e+000  0.000000e+000  -0.000000e+000
    outer loop
      vertex  0.000000e+000 -1.505372e+001  2.180907e+001
      vertex  0.000000e+000 -1.055505e+000  2.369031e+001
      vertex  0.000000e+000 -5.273681e-001  2.303466e+001
    endloop
  endfacet
  facet normal -1.000000e+000 -5.558829e-017 -2.592792e-016
    outer loop
      vertex -2.220446e-016 -2.496534e+001  5.273681e-001
      vertex  0.000000e+000 -2.505550e+001 -3.096935e-001
      vertex  0.000000e+000 -2.650000e+001  3.245314e-015
    endloop
  endfacet
  facet normal -1.000000e+000  0.000000e+000  0.000000e+000
    outer loop
      vertex  0.000000e+000 -2.650000e+001  3.245314e-015
      vertex  0.000000e+000 -2.505550e+001 -3.096935e-001
      vertex  0.000000e+000 -2.452737e+001 -9.653408e-001
    endloop
  endfacet
  facet normal -9.999999e-001  -0.000000e+000  0.000000e+000
    outer loop
      vertex  0.000000e+000 -2.650000e+001  3.245314e-015
      vertex  0.000000e+000 -2.452737e+001 -9.653408e-001
      vertex  0.000000e+000 -2.572996e+001 -6.341865e+000
    endloop
  endfacet
  facet normal -1.000000e+000  0.000000e+000  0.000000e+000
    outer loop
      vertex  0.000000e+000 -2.572996e+001 -6.341865e+000
      vertex  0.000000e+000 -2.452737e+001 -9.653408e-001
      vertex  0.000000e+000 -2.369031e+001 -1.055505e+000
    endloop
  endfacet
  facet normal -1.000000e+000  0.000000e+000  -0.000000e+000
    outer loop
      vertex  0.000000e+000 -2.572996e+001 -6.341865e+000
      vertex  0.000000e+000 -2.369031e+001 -1.055505e+000
      vertex  0.000000e+000 -2.346458e+001 -1.231516e+001
    endloop
  endfacet
  facet normal -1.000000e+000  -0.000000e+000  0.000000e+000
    outer loop
      vertex  0.000000e+000  1.983554e+001  1.757275e+001
      vertex  0.000000e+000  2.294450e+001 -3.096935e-001
      vertex  0.000000e+000  1.983554e+001 -1.757275e+001
    endloop
  endfacet
  facet normal -1.000000e+000  0.000000e+000  0.000000e+000
    outer loop
      vertex  0.000000e+000  1.983554e+001 -1.757275e+001
      vertex  0.000000e+000  2.294450e+001 -3.096935e-001
      vertex  0.000000e+000  2.347263e+001 -9.653408e-001
    endloop
  endfacet
  facet normal -1.000000e+000  0.000000e+000  0.000000e+000
    outer loop
      vertex  0.000000e+000  1.983554e+001 -1.757275e+001
      vertex  0.000000e+000  2.347263e+001 -9.653408e-001
      vertex  0.000000e+000  2.346458e+001 -1.231516e+001
    endloop
  endfacet
  facet normal -1.000000e+000  0.000000e+000  0.000000e+000
    outer loop
      vertex  0.000000e+000  2.346458e+001 -1.231516e+001
      vertex  0.000000e+000  2.347263e+001 -9.653408e-001
      vertex  0.000000e+000  2.430969e+001 -1.055505e+000
    endloop
  endfacet
  facet normal -1.000000e+000  0.000000e+000  -0.000000e+000
    outer loop
      vertex  0.000000e+000  2.346458e+001 -1.231516e+001
      vertex  0.000000e+000  2.430969e+001 -1.055505e+000
      vertex  0.000000e+000  2.572996e+001 -6.341865e+000
    endloop
  endfacet
  facet normal -1.000000e+000  3.332828e-016  6.681290e-018
    outer loop
      vertex -2.220446e-016  2.303466e+001  5.273681e-001
      vertex  0.000000e+000  2.346458e+001  1.231516e+001
      vertex  0.000000e+000  2.369031e+001  1.055505e+000
    endloop
  endfacet
  facet normal -1.000000e+000  0.000000e+000  0.000000e+000
    outer loop
      vertex  0.000000e+000  2.369031e+001  1.055505e+000
      vertex  0.000000e+000  2.346458e+001  1.231516e+001
      vertex  0.000000e+000  2.572996e+001  6.341865e+000
    endloop
  endfacet
  facet normal -1.000000e+000  0.000000e+000  0.000000e+000
    outer loop
      vertex  0.000000e+000  2.369031e+001  1.055505e+000
      vertex  0.000000e+000  2.572996e+001  6.341865e+000
      vertex  0.000000e+000  2.452737e+001  9.653408e-001
    endloop
  endfacet
  facet normal -9.999999e-001  0.000000e+000  0.000000e+000
    outer loop
      vertex  0.000000e+000  2.452737e+001  9.653408e-001
      vertex  0.000000e+000  2.572996e+001  6.341865e+000
      vertex  0.000000e+000  2.650000e+001  0.000000e+000
    endloop
  endfacet
  facet normal -1.000000e+000  0.000000e+000  0.000000e+000
    outer loop
      vertex  0.000000e+000  2.452737e+001  9.653408e-001
      vertex  0.000000e+000  2.650000e+001  0.000000e+000
      vertex  0.000000e+000  2.505550e+001  3.096935e-001
    endloop
  endfacet
  facet normal -1.000000e+000  0.000000e+000  0.000000e+000
    outer loop
      vertex  0.000000e+000  2.505550e+001  3.096935e-001
      vertex  0.000000e+000  2.650000e+001  0.000000e+000
      vertex  0.000000e+000  2.572996e+001 -6.341865e+000
    endloop
  endfacet
  facet normal -1.000000e+000  1.268547e-015  1.286280e-016
    outer loop
      vertex  0.000000e+000  2.505550e+001  3.096935e-001
      vertex  0.000000e+000  2.572996e+001 -6.341865e+000
      vertex -2.220446e-016  2.496534e+001 -5.273681e-001
    endloop
  endfacet
  facet normal -1.000000e+000  3.410822e-017  2.615924e-016
    outer loop
      vertex  0.000000e+000  1.055505e+000 -2.369031e+001
      vertex  0.000000e+000  9.397030e+000 -2.477793e+001
      vertex -2.220446e-016  9.653408e-001 -2.452737e+001
    endloop
  endfacet
  facet normal -9.999999e-001  2.350110e-017 -9.534777e-017
    outer loop
      vertex -2.220446e-016  9.653408e-001 -2.452737e+001
      vertex  0.000000e+000  9.397030e+000 -2.477793e+001
      vertex  0.000000e+000  3.194222e+000 -2.630679e+001
    endloop
  endfacet
  facet normal -1.000000e+000 -1.185416e-016 -2.732692e-016
    outer loop
      vertex -2.220446e-016  9.653408e-001 -2.452737e+001
      vertex  0.000000e+000  3.194222e+000 -2.630679e+001
      vertex  0.000000e+000  3.096935e-001 -2.505550e+001
    endloop
  endfacet
  facet normal -1.000000e+000  0.000000e+000  -0.000000e+000
    outer loop
      vertex  0.000000e+000  3.096935e-001 -2.505550e+001
      vertex  0.000000e+000  3.194222e+000 -2.630679e+001
      vertex  0.000000e+000 -3.194222e+000 -2.630679e+001
    endloop
  endfacet
  facet normal -1.000000e+000  0.000000e+000  0.000000e+000
    outer loop
      vertex  0.000000e+000  3.096935e-001 -2.505550e+001
      vertex  0.000000e+000 -3.194222e+000 -2.630679e+001
      vertex  0.000000e+000 -5.273681e-001 -2.496534e+001
    endloop
  endfacet
  facet normal -1.000000e+000  0.000000e+000  0.000000e+000
    outer loop
      vertex  0.000000e+000 -1.983554e+001 -1.757275e+001
      vertex  0.000000e+000 -2.294450e+001  3.096935e-001
      vertex  0.000000e+000 -1.983554e+001  1.757275e+001
    endloop
  endfacet
  facet normal -1.000000e+000  0.000000e+000  0.000000e+000
    outer loop
      vertex  0.000000e+000 -1.983554e+001  1.757275e+001
      vertex  0.000000e+000 -2.294450e+001  3.096935e-001
      vertex  0.000000e+000 -2.347263e+001  9.653408e-001
    endloop
  endfacet
  facet normal -1.000000e+000  0.000000e+000  0.000000e+000
    outer loop
      vertex  0.000000e+000 -1.983554e+001  1.757275e+001
      vertex  0.000000e+000 -2.347263e+001  9.653408e-001
      vertex  0.000000e+000 -2.346458e+001  1.231516e+001
    endloop
  endfacet
  facet normal -1.000000e+000 -3.332828e-016 -6.681290e-018
    outer loop
      vertex  0.000000e+000 -2.369031e+001 -1.055505e+000
      vertex -2.220446e-016 -2.303466e+001 -5.273681e-001
      vertex  0.000000e+000 -2.346458e+001 -1.231516e+001
    endloop
  endfacet
  facet normal -1.000000e+000  3.987939e-015 -1.642854e-016
    outer loop
      vertex  0.000000e+000 -2.346458e+001 -1.231516e+001
      vertex -2.220446e-016 -2.303466e+001 -5.273681e-001
      vertex  0.000000e+000 -2.294450e+001  3.096935e-001
    endloop
  endfacet
  facet normal -9.999999e-001  0.000000e+000  -0.000000e+000
    outer loop
      vertex  0.000000e+000 -2.346458e+001 -1.231516e+001
      vertex  0.000000e+000 -2.294450e+001  3.096935e-001
      vertex  0.000000e+000 -1.983554e+001 -1.757275e+001
    endloop
  endfacet
  facet normal -1.000000e+000  0.000000e+000  0.000000e+000
    outer loop
      vertex  0.000000e+000  1.505372e+001 -2.180907e+001
      vertex  0.000000e+000  5.273681e-001 -2.303466e+001
      vertex  0.000000e+000  1.505372e+001  2.180907e+001
    endloop
  endfacet
  facet normal -1.000000e+000  0.000000e+000  0.000000e+000
    outer loop
      vertex  0.000000e+000  1.505372e+001  2.180907e+001
      vertex  0.000000e+000  5.273681e-001 -2.303466e+001
      vertex  0.000000e+000 -3.096935e-001 -2.294450e+001
    endloop
  endfacet
  facet normal -1.000000e+000  0.000000e+000  0.000000e+000
    outer loop
      vertex  0.000000e+000  1.505372e+001  2.180907e+001
      vertex  0.000000e+000 -3.096935e-001 -2.294450e+001
      vertex  0.000000e+000  3.096935e-001  2.294450e+001
    endloop
  endfacet
  facet normal -9.999999e-001  0.000000e+000  0.000000e+000
    outer loop
      vertex  0.000000e+000  3.096935e-001  2.294450e+001
      vertex  0.000000e+000 -3.096935e-001 -2.294450e+001
      vertex  0.000000e+000 -1.983554e+001 -1.757275e+001
    endloop
  endfacet
  facet normal -1.000000e+000  0.000000e+000  0.000000e+000
    outer loop
      vertex  0.000000e+000  3.096935e-001  2.294450e+001
      vertex  0.000000e+000 -1.983554e+001 -1.757275e+001
      vertex  0.000000e+000 -5.273681e-001  2.303466e+001
    endloop
  endfacet
  facet normal -9.999999e-001  0.000000e+000  0.000000e+000
    outer loop
      vertex  0.000000e+000 -5.273681e-001  2.303466e+001
      vertex  0.000000e+000 -1.983554e+001 -1.757275e+001
      vertex  0.000000e+000 -1.983554e+001  1.757275e+001
    endloop
  endfacet
  facet normal -1.000000e+000  0.000000e+000  0.000000e+000
    outer loop
      vertex  0.000000e+000 -5.273681e-001  2.303466e+001
      vertex  0.000000e+000 -1.983554e+001  1.757275e+001
      vertex  0.000000e+000 -1.505372e+001  2.180907e+001
    endloop
  endfacet
  facet normal -1.000000e+000  0.000000e+000  0.000000e+000
    outer loop
      vertex  0.000000e+000  1.505372e+001 -2.180907e+001
      vertex  0.000000e+000  1.505372e+001  2.180907e+001
      vertex  0.000000e+000  1.983554e+001 -1.757275e+001
    endloop
  endfacet
  facet normal -1.000000e+000  0.000000e+000  0.000000e+000
    outer loop
      vertex  0.000000e+000  1.983554e+001 -1.757275e+001
      vertex  0.000000e+000  1.505372e+001  2.180907e+001
      vertex  0.000000e+000  1.983554e+001  1.757275e+001
    endloop
  endfacet
  facet normal -1.000000e+000 -9.421034e-016 -1.637898e-016
    outer loop
      vertex  0.000000e+000  2.294450e+001 -3.096935e-001
      vertex  0.000000e+000  1.983554e+001  1.757275e+001
      vertex -2.220446e-016  2.303466e+001  5.273681e-001
    endloop
  endfacet
  facet normal -1.000000e+000  2.592025e-017  1.789146e-017
    outer loop
      vertex -2.220446e-016  2.303466e+001  5.273681e-001
      vertex  0.000000e+000  1.983554e+001  1.757275e+001
      vertex  0.000000e+000  2.346458e+001  1.231516e+001
    endloop
  endfacet
  facet normal -1.000000e+000  4.649223e-017  2.602584e-016
    outer loop
      vertex -2.220446e-016  9.653408e-001  2.347263e+001
      vertex  0.000000e+000  1.055505e+000  2.430969e+001
      vertex  0.000000e+000  1.505372e+001  2.180907e+001
    endloop
  endfacet
  facet normal -1.000000e+000  0.000000e+000  0.000000e+000
    outer loop
      vertex  0.000000e+000  1.505372e+001  2.180907e+001
      vertex  0.000000e+000  1.055505e+000  2.430969e+001
      vertex  0.000000e+000  5.273681e-001  2.496534e+001
    endloop
  endfacet
  facet normal -9.999999e-001  0.000000e+000  0.000000e+000
    outer loop
      vertex  0.000000e+000  1.505372e+001  2.180907e+001
      vertex  0.000000e+000  5.273681e-001  2.496534e+001
      vertex  0.000000e+000  9.397030e+000  2.477793e+001
    endloop
  endfacet
  facet normal -1.000000e+000  0.000000e+000  0.000000e+000
    outer loop
      vertex  0.000000e+000  9.397030e+000  2.477793e+001
      vertex  0.000000e+000  5.273681e-001  2.496534e+001
      vertex  0.000000e+000 -3.194222e+000  2.630679e+001
    endloop
  endfacet
  facet normal -1.000000e+000  0.000000e+000  0.000000e+000
    outer loop
      vertex  0.000000e+000  9.397030e+000  2.477793e+001
      vertex  0.000000e+000 -3.194222e+000  2.630679e+001
      vertex  0.000000e+000  3.194222e+000  2.630679e+001
    endloop
  endfacet
  facet normal -1.000000e+000  0.000000e+000  0.000000e+000
    outer loop
      vertex  0.000000e+000 -2.347263e+001  9.653408e-001
      vertex  0.000000e+000 -2.430969e+001  1.055505e+000
      vertex  0.000000e+000 -2.572996e+001  6.341865e+000
    endloop
  endfacet
  facet normal -1.000000e+000  2.784121e-016  7.479976e-017
    outer loop
      vertex  0.000000e+000 -2.572996e+001  6.341865e+000
      vertex  0.000000e+000 -2.430969e+001  1.055505e+000
      vertex -2.220446e-016 -2.496534e+001  5.273681e-001
    endloop
  endfacet
  facet normal -1.000000e+000 -1.509866e-016  1.833311e-017
    outer loop
      vertex  0.000000e+000 -2.572996e+001  6.341865e+000
      vertex -2.220446e-016 -2.496534e+001  5.273681e-001
      vertex  0.000000e+000 -2.650000e+001  3.245314e-015
    endloop
  endfacet
  facet normal -1.000000e+000  0.000000e+000  0.000000e+000
    outer loop
      vertex  0.000000e+000  1.055505e+000 -2.369031e+001
      vertex  0.000000e+000  5.273681e-001 -2.303466e+001
      vertex  0.000000e+000  9.397030e+000 -2.477793e+001
    endloop
  endfacet
  facet normal -1.000000e+000  0.000000e+000  0.000000e+000
    outer loop
      vertex  0.000000e+000  9.397030e+000 -2.477793e+001
      vertex  0.000000e+000  5.273681e-001 -2.303466e+001
      vertex  0.000000e+000  1.505372e+001 -2.180907e+001
    endloop
  endfacet
  facet normal  -0.000000e+000  7.787677e-001  6.273124e-001
    outer loop
      vertex  1.800000e+000 -5.273681e-001 -2.496534e+001
      vertex  0.000000e+000 -1.055505e+000 -2.430969e+001
      vertex  1.800000e+000 -1.055505e+000 -2.430969e+001
    endloop
  endfacet
  facet normal  0.000000e+000  9.942488e-001 -1.070950e-001
    outer loop
      vertex  1.800000e+000 -1.055505e+000 -2.430969e+001
      vertex  0.000000e+000 -1.055505e+000 -2.430969e+001
      vertex -2.220446e-016 -9.653408e-001 -2.347263e+001
    endloop
  endfacet
  facet normal  0.000000e+000  9.942488e-001 -1.070950e-001
    outer loop
      vertex  1.800000e+000 -1.055505e+000 -2.430969e+001
      vertex -2.220446e-016 -9.653408e-001 -2.347263e+001
      vertex  1.800000e+000 -9.653408e-001 -2.347263e+001
    endloop
  endfacet
  facet normal  0.000000e+000  7.787677e-001  6.273124e-001
    outer loop
      vertex  0.000000e+000 -1.055505e+000 -2.430969e+001
      vertex  1.800000e+000 -5.273681e-001 -2.496534e+001
      vertex  0.000000e+000 -5.273681e-001 -2.496534e+001
    endloop
  endfacet
  facet normal  -0.000000e+000  1.070934e-001  9.942490e-001
    outer loop
      vertex  0.000000e+000 -5.273681e-001 -2.496534e+001
      vertex  1.800000e+000 -5.273681e-001 -2.496534e+001
      vertex  1.800000e+000  3.096935e-001 -2.505550e+001
    endloop
  endfacet
  facet normal  0.000000e+000  1.070934e-001  9.942490e-001
    outer loop
      vertex  0.000000e+000 -5.273681e-001 -2.496534e+001
      vertex  1.800000e+000  3.096935e-001 -2.505550e+001
      vertex  0.000000e+000  3.096935e-001 -2.505550e+001
    endloop
  endfacet
  facet normal  0.000000e+000 -6.273115e-001  7.787684e-001
    outer loop
      vertex  0.000000e+000  3.096935e-001 -2.505550e+001
      vertex  1.800000e+000  3.096935e-001 -2.505550e+001
      vertex  1.800000e+000  9.653408e-001 -2.452737e+001
    endloop
  endfacet
  facet normal  0.000000e+000 -6.273115e-001  7.787684e-001
    outer loop
      vertex  0.000000e+000  3.096935e-001 -2.505550e+001
      vertex  1.800000e+000  9.653408e-001 -2.452737e+001
      vertex -2.220446e-016  9.653408e-001 -2.452737e+001
    endloop
  endfacet
  facet normal  0.000000e+000 -7.787677e-001 -6.273124e-001
    outer loop
      vertex  1.800000e+000  5.273681e-001 -2.303466e+001
      vertex  0.000000e+000  1.055505e+000 -2.369031e+001
      vertex  1.800000e+000  1.055505e+000 -2.369031e+001
    endloop
  endfacet
  facet normal  0.000000e+000 -9.942488e-001  1.070950e-001
    outer loop
      vertex  1.800000e+000  1.055505e+000 -2.369031e+001
      vertex  0.000000e+000  1.055505e+000 -2.369031e+001
      vertex -2.220446e-016  9.653408e-001 -2.452737e+001
    endloop
  endfacet
  facet normal  0.000000e+000 -9.942488e-001  1.070950e-001
    outer loop
      vertex  1.800000e+000  1.055505e+000 -2.369031e+001
      vertex -2.220446e-016  9.653408e-001 -2.452737e+001
      vertex  1.800000e+000  9.653408e-001 -2.452737e+001
    endloop
  endfacet
  facet normal  -0.000000e+000 -7.787677e-001 -6.273124e-001
    outer loop
      vertex  0.000000e+000  1.055505e+000 -2.369031e+001
      vertex  1.800000e+000  5.273681e-001 -2.303466e+001
      vertex  0.000000e+000  5.273681e-001 -2.303466e+001
    endloop
  endfacet
  facet normal  0.000000e+000 -1.070934e-001 -9.942490e-001
    outer loop
      vertex  0.000000e+000  5.273681e-001 -2.303466e+001
      vertex  1.800000e+000  5.273681e-001 -2.303466e+001
      vertex  1.800000e+000 -3.096935e-001 -2.294450e+001
    endloop
  endfacet
  facet normal  -0.000000e+000 -1.070934e-001 -9.942490e-001
    outer loop
      vertex  0.000000e+000  5.273681e-001 -2.303466e+001
      vertex  1.800000e+000 -3.096935e-001 -2.294450e+001
      vertex  0.000000e+000 -3.096935e-001 -2.294450e+001
    endloop
  endfacet
  facet normal  0.000000e+000  6.273115e-001 -7.787684e-001
    outer loop
      vertex  0.000000e+000 -3.096935e-001 -2.294450e+001
      vertex  1.800000e+000 -3.096935e-001 -2.294450e+001
      vertex  1.800000e+000 -9.653408e-001 -2.347263e+001
    endloop
  endfacet
  facet normal  0.000000e+000  6.273115e-001 -7.787684e-001
    outer loop
      vertex  0.000000e+000 -3.096935e-001 -2.294450e+001
      vertex  1.800000e+000 -9.653408e-001 -2.347263e+001
      vertex -2.220446e-016 -9.653408e-001 -2.347263e+001
    endloop
  endfacet
  facet normal  -0.000000e+000  7.787677e-001  6.273124e-001
    outer loop
      vertex  1.800000e+000 -5.273681e-001  2.303466e+001
      vertex  0.000000e+000 -1.055505e+000  2.369031e+001
      vertex  1.800000e+000 -1.055505e+000  2.369031e+001
    endloop
  endfacet
  facet normal  0.000000e+000  9.942488e-001 -1.070950e-001
    outer loop
      vertex  1.800000e+000 -1.055505e+000  2.369031e+001
      vertex  0.000000e+000 -1.055505e+000  2.369031e+001
      vertex -2.220446e-016 -9.653408e-001  2.452737e+001
    endloop
  endfacet
  facet normal  0.000000e+000  9.942488e-001 -1.070950e-001
    outer loop
      vertex  1.800000e+000 -1.055505e+000  2.369031e+001
      vertex -2.220446e-016 -9.653408e-001  2.452737e+001
      vertex  1.800000e+000 -9.653408e-001  2.452737e+001
    endloop
  endfacet
  facet normal  0.000000e+000  7.787677e-001  6.273124e-001
    outer loop
      vertex  0.000000e+000 -1.055505e+000  2.369031e+001
      vertex  1.800000e+000 -5.273681e-001  2.303466e+001
      vertex  0.000000e+000 -5.273681e-001  2.303466e+001
    endloop
  endfacet
  facet normal  -0.000000e+000  1.070934e-001  9.942490e-001
    outer loop
      vertex  0.000000e+000 -5.273681e-001  2.303466e+001
      vertex  1.800000e+000 -5.273681e-001  2.303466e+001
      vertex  1.800000e+000  3.096935e-001  2.294450e+001
    endloop
  endfacet
  facet normal  0.000000e+000  1.070934e-001  9.942490e-001
    outer loop
      vertex  0.000000e+000 -5.273681e-001  2.303466e+001
      vertex  1.800000e+000  3.096935e-001  2.294450e+001
      vertex  0.000000e+000  3.096935e-001  2.294450e+001
    endloop
  endfacet
  facet normal  0.000000e+000 -6.273115e-001  7.787684e-001
    outer loop
      vertex  0.000000e+000  3.096935e-001  2.294450e+001
      vertex  1.800000e+000  3.096935e-001  2.294450e+001
      vertex  1.800000e+000  9.653408e-001  2.347263e+001
    endloop
  endfacet
  facet normal  0.000000e+000 -6.273115e-001  7.787684e-001
    outer loop
      vertex  0.000000e+000  3.096935e-001  2.294450e+001
      vertex  1.800000e+000  9.653408e-001  2.347263e+001
      vertex -2.220446e-016  9.653408e-001  2.347263e+001
    endloop
  endfacet
  facet normal  0.000000e+000 -7.787677e-001 -6.273124e-001
    outer loop
      vertex  1.800000e+000  5.273681e-001  2.496534e+001
      vertex  0.000000e+000  1.055505e+000  2.430969e+001
      vertex  1.800000e+000  1.055505e+000  2.430969e+001
    endloop
  endfacet
  facet normal  0.000000e+000 -9.942488e-001  1.070950e-001
    outer loop
      vertex  1.800000e+000  1.055505e+000  2.430969e+001
      vertex  0.000000e+000  1.055505e+000  2.430969e+001
      vertex -2.220446e-016  9.653408e-001  2.347263e+001
    endloop
  endfacet
  facet normal  0.000000e+000 -9.942488e-001  1.070950e-001
    outer loop
      vertex  1.800000e+000  1.055505e+000  2.430969e+001
      vertex -2.220446e-016  9.653408e-001  2.347263e+001
      vertex  1.800000e+000  9.653408e-001  2.347263e+001
    endloop
  endfacet
  facet normal  -0.000000e+000 -7.787677e-001 -6.273124e-001
    outer loop
      vertex  0.000000e+000  1.055505e+000  2.430969e+001
      vertex  1.800000e+000  5.273681e-001  2.496534e+001
      vertex  0.000000e+000  5.273681e-001  2.496534e+001
    endloop
  endfacet
  facet normal  0.000000e+000 -1.070934e-001 -9.942490e-001
    outer loop
      vertex  0.000000e+000  5.273681e-001  2.496534e+001
      vertex  1.800000e+000  5.273681e-001  2.496534e+001
      vertex  1.800000e+000 -3.096935e-001  2.505550e+001
    endloop
  endfacet
  facet normal  -0.000000e+000 -1.070934e-001 -9.942490e-001
    outer loop
      vertex  0.000000e+000  5.273681e-001  2.496534e+001
      vertex  1.800000e+000 -3.096935e-001  2.505550e+001
      vertex  0.000000e+000 -3.096935e-001  2.505550e+001
    endloop
  endfacet
  facet normal  0.000000e+000  6.273115e-001 -7.787684e-001
    outer loop
      vertex  0.000000e+000 -3.096935e-001  2.505550e+001
      vertex  1.800000e+000 -3.096935e-001  2.505550e+001
      vertex  1.800000e+000 -9.653408e-001  2.452737e+001
    endloop
  endfacet
  facet normal  0.000000e+000  6.273115e-001 -7.787684e-001
    outer loop
      vertex  0.000000e+000 -3.096935e-001  2.505550e+001
      vertex  1.800000e+000 -9.653408e-001  2.452737e+001
      vertex -2.220446e-016 -9.653408e-001  2.452737e+001
    endloop
  endfacet
  facet normal  -0.000000e+000  7.787684e-001  6.273115e-001
    outer loop
      vertex  1.800000e+000  2.347263e+001 -9.653408e-001
      vertex  0.000000e+000  2.294450e+001 -3.096935e-001
      vertex  1.800000e+000  2.294450e+001 -3.096935e-001
    endloop
  endfacet
  facet normal  0.000000e+000  9.942490e-001 -1.070934e-001
    outer loop
      vertex  1.800000e+000  2.294450e+001 -3.096935e-001
      vertex  0.000000e+000  2.294450e+001 -3.096935e-001
      vertex -2.220446e-016  2.303466e+001  5.273681e-001
    endloop
  endfacet
  facet normal  0.000000e+000  9.942490e-001 -1.070934e-001
    outer loop
      vertex  1.800000e+000  2.294450e+001 -3.096935e-001
      vertex -2.220446e-016  2.303466e+001  5.273681e-001
      vertex  1.800000e+000  2.303466e+001  5.273681e-001
    endloop
  endfacet
  facet normal  0.000000e+000  7.787684e-001  6.273115e-001
    outer loop
      vertex  0.000000e+000  2.294450e+001 -3.096935e-001
      vertex  1.800000e+000  2.347263e+001 -9.653408e-001
      vertex  0.000000e+000  2.347263e+001 -9.653408e-001
    endloop
  endfacet
  facet normal  -0.000000e+000  1.070950e-001  9.942488e-001
    outer loop
      vertex  0.000000e+000  2.347263e+001 -9.653408e-001
      vertex  1.800000e+000  2.347263e+001 -9.653408e-001
      vertex  1.800000e+000  2.430969e+001 -1.055505e+000
    endloop
  endfacet
  facet normal  0.000000e+000  1.070950e-001  9.942488e-001
    outer loop
      vertex  0.000000e+000  2.347263e+001 -9.653408e-001
      vertex  1.800000e+000  2.430969e+001 -1.055505e+000
      vertex  0.000000e+000  2.430969e+001 -1.055505e+000
    endloop
  endfacet
  facet normal  0.000000e+000 -6.273124e-001  7.787677e-001
    outer loop
      vertex  0.000000e+000  2.430969e+001 -1.055505e+000
      vertex  1.800000e+000  2.430969e+001 -1.055505e+000
      vertex  1.800000e+000  2.496534e+001 -5.273681e-001
    endloop
  endfacet
  facet normal  0.000000e+000 -6.273124e-001  7.787677e-001
    outer loop
      vertex  0.000000e+000  2.430969e+001 -1.055505e+000
      vertex  1.800000e+000  2.496534e+001 -5.273681e-001
      vertex -2.220446e-016  2.496534e+001 -5.273681e-001
    endloop
  endfacet
  facet normal  0.000000e+000 -7.787684e-001 -6.273115e-001
    outer loop
      vertex  1.800000e+000  2.452737e+001  9.653408e-001
      vertex  0.000000e+000  2.505550e+001  3.096935e-001
      vertex  1.800000e+000  2.505550e+001  3.096935e-001
    endloop
  endfacet
  facet normal  0.000000e+000 -9.942490e-001  1.070934e-001
    outer loop
      vertex  1.800000e+000  2.505550e+001  3.096935e-001
      vertex  0.000000e+000  2.505550e+001  3.096935e-001
      vertex -2.220446e-016  2.496534e+001 -5.273681e-001
    endloop
  endfacet
  facet normal  0.000000e+000 -9.942490e-001  1.070934e-001
    outer loop
      vertex  1.800000e+000  2.505550e+001  3.096935e-001
      vertex -2.220446e-016  2.496534e+001 -5.273681e-001
      vertex  1.800000e+000  2.496534e+001 -5.273681e-001
    endloop
  endfacet
  facet normal  -0.000000e+000 -7.787684e-001 -6.273115e-001
    outer loop
      vertex  0.000000e+000  2.505550e+001  3.096935e-001
      vertex  1.800000e+000  2.452737e+001  9.653408e-001
      vertex  0.000000e+000  2.452737e+001  9.653408e-001
    endloop
  endfacet
  facet normal  0.000000e+000 -1.070950e-001 -9.942488e-001
    outer loop
      vertex  0.000000e+000  2.452737e+001  9.653408e-001
      vertex  1.800000e+000  2.452737e+001  9.653408e-001
      vertex  1.800000e+000  2.369031e+001  1.055505e+000
    endloop
  endfacet
  facet normal  -0.000000e+000 -1.070950e-001 -9.942488e-001
    outer loop
      vertex  0.000000e+000  2.452737e+001  9.653408e-001
      vertex  1.800000e+000  2.369031e+001  1.055505e+000
      vertex  0.000000e+000  2.369031e+001  1.055505e+000
    endloop
  endfacet
  facet normal  0.000000e+000  6.273124e-001 -7.787677e-001
    outer loop
      vertex  0.000000e+000  2.369031e+001  1.055505e+000
      vertex  1.800000e+000  2.369031e+001  1.055505e+000
      vertex  1.800000e+000  2.303466e+001  5.273681e-001
    endloop
  endfacet
  facet normal  0.000000e+000  6.273124e-001 -7.787677e-001
    outer loop
      vertex  0.000000e+000  2.369031e+001  1.055505e+000
      vertex  1.800000e+000  2.303466e+001  5.273681e-001
      vertex -2.220446e-016  2.303466e+001  5.273681e-001
    endloop
  endfacet
  facet normal  -0.000000e+000  7.787684e-001  6.273115e-001
    outer loop
      vertex  1.800000e+000 -2.452737e+001 -9.653408e-001
      vertex  0.000000e+000 -2.505550e+001 -3.096935e-001
      vertex  1.800000e+000 -2.505550e+001 -3.096935e-001
    endloop
  endfacet
  facet normal  0.000000e+000  9.942490e-001 -1.070934e-001
    outer loop
      vertex  1.800000e+000 -2.505550e+001 -3.096935e-001
      vertex  0.000000e+000 -2.505550e+001 -3.096935e-001
      vertex -2.220446e-016 -2.496534e+001  5.273681e-001
    endloop
  endfacet
  facet normal  0.000000e+000  9.942490e-001 -1.070934e-001
    outer loop
      vertex  1.800000e+000 -2.505550e+001 -3.096935e-001
      vertex -2.220446e-016 -2.496534e+001  5.273681e-001
      vertex  1.800000e+000 -2.496534e+001  5.273681e-001
    endloop
  endfacet
  facet normal  0.000000e+000  7.787684e-001  6.273115e-001
    outer loop
      vertex  0.000000e+000 -2.505550e+001 -3.096935e-001
      vertex  1.800000e+000 -2.452737e+001 -9.653408e-001
      vertex  0.000000e+000 -2.452737e+001 -9.653408e-001
    endloop
  endfacet
  facet normal  -0.000000e+000  1.070950e-001  9.942488e-001
    outer loop
      vertex  0.000000e+000 -2.452737e+001 -9.653408e-001
      vertex  1.800000e+000 -2.452737e+001 -9.653408e-001
      vertex  1.800000e+000 -2.369031e+001 -1.055505e+000
    endloop
  endfacet
  facet normal  0.000000e+000  1.070950e-001  9.942488e-001
    outer loop
      vertex  0.000000e+000 -2.452737e+001 -9.653408e-001
      vertex  1.800000e+000 -2.369031e+001 -1.055505e+000
      vertex  0.000000e+000 -2.369031e+001 -1.055505e+000
    endloop
  endfacet
  facet normal  0.000000e+000 -6.273124e-001  7.787677e-001
    outer loop
      vertex  0.000000e+000 -2.369031e+001 -1.055505e+000
      vertex  1.800000e+000 -2.369031e+001 -1.055505e+000
      vertex  1.800000e+000 -2.303466e+001 -5.273681e-001
    endloop
  endfacet
  facet normal  0.000000e+000 -6.273124e-001  7.787677e-001
    outer loop
      vertex  0.000000e+000 -2.369031e+001 -1.055505e+000
      vertex  1.800000e+000 -2.303466e+001 -5.273681e-001
      vertex -2.220446e-016 -2.303466e+001 -5.273681e-001
    endloop
  endfacet
  facet normal  0.000000e+000 -7.787684e-001 -6.273115e-001
    outer loop
      vertex  1.800000e+000 -2.347263e+001  9.653408e-001
      vertex  0.000000e+000 -2.294450e+001  3.096935e-001
      vertex  1.800000e+000 -2.294450e+001  3.096935e-001
    endloop
  endfacet
  facet normal  0.000000e+000 -9.942490e-001  1.070934e-001
    outer loop
      vertex  1.800000e+000 -2.294450e+001  3.096935e-001
      vertex  0.000000e+000 -2.294450e+001  3.096935e-001
      vertex -2.220446e-016 -2.303466e+001 -5.273681e-001
    endloop
  endfacet
  facet normal  0.000000e+000 -9.942490e-001  1.070934e-001
    outer loop
      vertex  1.800000e+000 -2.294450e+001  3.096935e-001
      vertex -2.220446e-016 -2.303466e+001 -5.273681e-001
      vertex  1.800000e+000 -2.303466e+001 -5.273681e-001
    endloop
  endfacet
  facet normal  -0.000000e+000 -7.787684e-001 -6.273115e-001
    outer loop
      vertex  0.000000e+000 -2.294450e+001  3.096935e-001
      vertex  1.800000e+000 -2.347263e+001  9.653408e-001
      vertex  0.000000e+000 -2.347263e+001  9.653408e-001
    endloop
  endfacet
  facet normal  0.000000e+000 -1.070950e-001 -9.942488e-001
    outer loop
      vertex  0.000000e+000 -2.347263e+001  9.653408e-001
      vertex  1.800000e+000 -2.347263e+001  9.653408e-001
      vertex  1.800000e+000 -2.430969e+001  1.055505e+000
    endloop
  endfacet
  facet normal  -0.000000e+000 -1.070950e-001 -9.942488e-001
    outer loop
      vertex  0.000000e+000 -2.347263e+001  9.653408e-001
      vertex  1.800000e+000 -2.430969e+001  1.055505e+000
      vertex  0.000000e+000 -2.430969e+001  1.055505e+000
    endloop
  endfacet
  facet normal  0.000000e+000  6.273124e-001 -7.787677e-001
    outer loop
      vertex  0.000000e+000 -2.430969e+001  1.055505e+000
      vertex  1.800000e+000 -2.430969e+001  1.055505e+000
      vertex  1.800000e+000 -2.496534e+001  5.273681e-001
    endloop
  endfacet
  facet normal  0.000000e+000  6.273124e-001 -7.787677e-001
    outer loop
      vertex  0.000000e+000 -2.430969e+001  1.055505e+000
      vertex  1.800000e+000 -2.496534e+001  5.273681e-001
      vertex -2.220446e-016 -2.496534e+001  5.273681e-001
    endloop
  endfacet
  facet normal  0.000000e+000 -9.238795e-001  3.826835e-001
    outer loop
      vertex  1.800000e+000 -1.000000e+000  1.224647e-016
      vertex  1.500000e+001 -1.000000e+000  1.224647e-016
      vertex  1.800000e+000 -7.071068e-001  7.071068e-001
    endloop
  endfacet
  facet normal  0.000000e+000 -9.238795e-001  3.826835e-001
    outer loop
      vertex  1.800000e+000 -7.071068e-001  7.071068e-001
      vertex  1.500000e+001 -1.000000e+000  1.224647e-016
      vertex  1.500000e+001 -7.071068e-001  7.071068e-001
    endloop
  endfacet
  facet normal  0.000000e+000 -3.826835e-001  9.238795e-001
    outer loop
      vertex  1.800000e+000 -7.071068e-001  7.071068e-001
      vertex  1.500000e+001 -7.071068e-001  7.071068e-001
      vertex  1.800000e+000  6.123234e-017  1.000000e+000
    endloop
  endfacet
  facet normal  0.000000e+000 -3.826835e-001  9.238795e-001
    outer loop
      vertex  1.800000e+000  6.123234e-017  1.000000e+000
      vertex  1.500000e+001 -7.071068e-001  7.071068e-001
      vertex  1.500000e+001  6.123234e-017  1.000000e+000
    endloop
  endfacet
  facet normal  0.000000e+000  3.826835e-001  9.238795e-001
    outer loop
      vertex  1.800000e+000  6.123234e-017  1.000000e+000
      vertex  1.500000e+001  6.123234e-017  1.000000e+000
      vertex  1.800000e+000  7.071068e-001  7.071068e-001
    endloop
  endfacet
  facet normal  -0.000000e+000  3.826835e-001  9.238795e-001
    outer loop
      vertex  1.800000e+000  7.071068e-001  7.071068e-001
      vertex  1.500000e+001  6.123234e-017  1.000000e+000
      vertex  1.500000e+001  7.071068e-001  7.071068e-001
    endloop
  endfacet
  facet normal  0.000000e+000  9.238795e-001  3.826835e-001
    outer loop
      vertex  1.800000e+000  7.071068e-001  7.071068e-001
      vertex  1.500000e+001  7.071068e-001  7.071068e-001
      vertex  1.800000e+000  1.000000e+000  0.000000e+000
    endloop
  endfacet
  facet normal  -0.000000e+000  9.238795e-001  3.826835e-001
    outer loop
      vertex  1.800000e+000  1.000000e+000  0.000000e+000
      vertex  1.500000e+001  7.071068e-001  7.071068e-001
      vertex  1.500000e+001  1.000000e+000  0.000000e+000
    endloop
  endfacet
  facet normal  0.000000e+000  9.238795e-001 -3.826835e-001
    outer loop
      vertex  1.800000e+000  1.000000e+000  0.000000e+000
      vertex  1.500000e+001  1.000000e+000  0.000000e+000
      vertex  1.800000e+000  7.071068e-001 -7.071068e-001
    endloop
  endfacet
  facet normal  0.000000e+000  9.238795e-001 -3.826835e-001
    outer loop
      vertex  1.800000e+000  7.071068e-001 -7.071068e-001
      vertex  1.500000e+001  1.000000e+000  0.000000e+000
      vertex  1.500000e+001  7.071068e-001 -7.071068e-001
    endloop
  endfacet
  facet normal  0.000000e+000  3.826835e-001 -9.238795e-001
    outer loop
      vertex  1.800000e+000  7.071068e-001 -7.071068e-001
      vertex  1.500000e+001  7.071068e-001 -7.071068e-001
      vertex  1.800000e+000 -1.836970e-016 -1.000000e+000
    endloop
  endfacet
  facet normal  0.000000e+000  3.826835e-001 -9.238795e-001
    outer loop
      vertex  1.800000e+000 -1.836970e-016 -1.000000e+000
      vertex  1.500000e+001  7.071068e-001 -7.071068e-001
      vertex  1.500000e+001 -1.836970e-016 -1.000000e+000
    endloop
  endfacet
  facet normal  -0.000000e+000 -3.826835e-001 -9.238795e-001
    outer loop
      vertex  1.800000e+000 -1.836970e-016 -1.000000e+000
      vertex  1.500000e+001 -1.836970e-016 -1.000000e+000
      vertex  1.800000e+000 -7.071068e-001 -7.071068e-001
    endloop
  endfacet
  facet normal  0.000000e+000 -3.826835e-001 -9.238795e-001
    outer loop
      vertex  1.800000e+000 -7.071068e-001 -7.071068e-001
      vertex  1.500000e+001 -1.836970e-016 -1.000000e+000
      vertex  1.500000e+001 -7.071068e-001 -7.071068e-001
    endloop
  endfacet
  facet normal  -0.000000e+000 -9.238795e-001 -3.826835e-001
    outer loop
      vertex  1.800000e+000 -7.071068e-001 -7.071068e-001
      vertex  1.500000e+001 -7.071068e-001 -7.071068e-001
      vertex  1.800000e+000 -1.000000e+000  1.224647e-016
    endloop
  endfacet
  facet normal  0.000000e+000 -9.238795e-001 -3.826835e-001
    outer loop
      vertex  1.800000e+000 -1.000000e+000  1.224647e-016
      vertex  1.500000e+001 -7.071068e-001 -7.071068e-001
      vertex  1.500000e+001 -1.000000e+000  1.224647e-016
    endloop
  endfacet
  facet normal  9.999999e-001  0.000000e+000  0.000000e+000
    outer loop
      vertex  1.500000e+001 -7.071068e-001  7.071068e-001
      vertex  1.500000e+001  7.071068e-001  7.071068e-001
      vertex  1.500000e+001  6.123234e-017  1.000000e+000
    endloop
  endfacet
  facet normal  1.000000e+000  -0.000000e+000  0.000000e+000
    outer loop
      vertex  1.500000e+001  7.071068e-001  7.071068e-001
      vertex  1.500000e+001 -7.071068e-001  7.071068e-001
      vertex  1.500000e+001  1.000000e+000  0.000000e+000
    endloop
  endfacet
  facet normal  9.999999e-001  0.000000e+000  0.000000e+000
    outer loop
      vertex  1.500000e+001  1.000000e+000  0.000000e+000
      vertex  1.500000e+001 -7.071068e-001  7.071068e-001
      vertex  1.500000e+001 -1.000000e+000  1.224647e-016
    endloop
  endfacet
  facet normal  9.999999e-001  0.000000e+000  0.000000e+000
    outer loop
      vertex  1.500000e+001  1.000000e+000  0.000000e+000
      vertex  1.500000e+001 -1.000000e+000  1.224647e-016
      vertex  1.500000e+001  7.071068e-001 -7.071068e-001
    endloop
  endfacet
  facet normal  1.000000e+000  0.000000e+000  0.000000e+000
    outer loop
      vertex  1.500000e+001  7.071068e-001 -7.071068e-001
      vertex  1.500000e+001 -1.000000e+000  1.224647e-016
      vertex  1.500000e+001 -7.071068e-001 -7.071068e-001
    endloop
  endfacet
  facet normal  9.999999e-001  -0.000000e+000  0.000000e+000
    outer loop
      vertex  1.500000e+001  7.071068e-001 -7.071068e-001
      vertex  1.500000e+001 -7.071068e-001 -7.071068e-001
      vertex  1.500000e+001 -1.836970e-016 -1.000000e+000
    endloop
  endfacet
  facet normal  0.000000e+000  9.927089e-001 -1.205368e-001
    outer loop
      vertex  0.000000e+000  2.650000e+001  0.000000e+000
      vertex  1.800000e+000  2.650000e+001  0.000000e+000
      vertex  0.000000e+000  2.572996e+001 -6.341865e+000
    endloop
  endfacet
  facet normal  0.000000e+000  9.927089e-001 -1.205368e-001
    outer loop
      vertex  0.000000e+000  2.572996e+001 -6.341865e+000
      vertex  1.800000e+000  2.650000e+001  0.000000e+000
      vertex  1.800000e+000  2.572996e+001 -6.341865e+000
    endloop
  endfacet
  facet normal  0.000000e+000  9.350163e-001 -3.546049e-001
    outer loop
      vertex  0.000000e+000  2.572996e+001 -6.341865e+000
      vertex  1.800000e+000  2.572996e+001 -6.341865e+000
      vertex  0.000000e+000  2.346458e+001 -1.231516e+001
    endloop
  endfacet
  facet normal  0.000000e+000  9.350163e-001 -3.546049e-001
    outer loop
      vertex  0.000000e+000  2.346458e+001 -1.231516e+001
      vertex  1.800000e+000  2.572996e+001 -6.341865e+000
      vertex  1.800000e+000  2.346458e+001 -1.231516e+001
    endloop
  endfacet
  facet normal  0.000000e+000  8.229839e-001 -5.680647e-001
    outer loop
      vertex  0.000000e+000  2.346458e+001 -1.231516e+001
      vertex  1.800000e+000  2.346458e+001 -1.231516e+001
      vertex  0.000000e+000  1.983554e+001 -1.757275e+001
    endloop
  endfacet
  facet normal  0.000000e+000  8.229839e-001 -5.680647e-001
    outer loop
      vertex  0.000000e+000  1.983554e+001 -1.757275e+001
      vertex  1.800000e+000  2.346458e+001 -1.231516e+001
      vertex  1.800000e+000  1.983554e+001 -1.757275e+001
    endloop
  endfacet
  facet normal  0.000000e+000  6.631227e-001 -7.485108e-001
    outer loop
      vertex  0.000000e+000  1.983554e+001 -1.757275e+001
      vertex  1.800000e+000  1.983554e+001 -1.757275e+001
      vertex  0.000000e+000  1.505372e+001 -2.180907e+001
    endloop
  endfacet
  facet normal  0.000000e+000  6.631227e-001 -7.485108e-001
    outer loop
      vertex  0.000000e+000  1.505372e+001 -2.180907e+001
      vertex  1.800000e+000  1.983554e+001 -1.757275e+001
      vertex  1.800000e+000  1.505372e+001 -2.180907e+001
    endloop
  endfacet
  facet normal  0.000000e+000  4.647233e-001 -8.854560e-001
    outer loop
      vertex  0.000000e+000  1.505372e+001 -2.180907e+001
      vertex  1.800000e+000  1.505372e+001 -2.180907e+001
      vertex  0.000000e+000  9.397030e+000 -2.477793e+001
    endloop
  endfacet
  facet normal  0.000000e+000  4.647233e-001 -8.854560e-001
    outer loop
      vertex  0.000000e+000  9.397030e+000 -2.477793e+001
      vertex  1.800000e+000  1.505372e+001 -2.180907e+001
      vertex  1.800000e+000  9.397030e+000 -2.477793e+001
    endloop
  endfacet
  facet normal  0.000000e+000  2.393156e-001 -9.709418e-001
    outer loop
      vertex  0.000000e+000  9.397030e+000 -2.477793e+001
      vertex  1.800000e+000  9.397030e+000 -2.477793e+001
      vertex  0.000000e+000  3.194222e+000 -2.630679e+001
    endloop
  endfacet
  facet normal  0.000000e+000  2.393156e-001 -9.709418e-001
    outer loop
      vertex  0.000000e+000  3.194222e+000 -2.630679e+001
      vertex  1.800000e+000  9.397030e+000 -2.477793e+001
      vertex  1.800000e+000  3.194222e+000 -2.630679e+001
    endloop
  endfacet
  facet normal  -0.000000e+000  0.000000e+000 -1.000000e+000
    outer loop
      vertex  0.000000e+000  3.194222e+000 -2.630679e+001
      vertex  1.800000e+000  3.194222e+000 -2.630679e+001
      vertex  0.000000e+000 -3.194222e+000 -2.630679e+001
    endloop
  endfacet
  facet normal  0.000000e+000  0.000000e+000 -1.000000e+000
    outer loop
      vertex  0.000000e+000 -3.194222e+000 -2.630679e+001
      vertex  1.800000e+000  3.194222e+000 -2.630679e+001
      vertex  1.800000e+000 -3.194222e+000 -2.630679e+001
    endloop
  endfacet
  facet normal  -0.000000e+000 -2.393156e-001 -9.709418e-001
    outer loop
      vertex  0.000000e+000 -3.194222e+000 -2.630679e+001
      vertex  1.800000e+000 -3.194222e+000 -2.630679e+001
      vertex  0.000000e+000 -9.397030e+000 -2.477793e+001
    endloop
  endfacet
  facet normal  0.000000e+000 -2.393156e-001 -9.709418e-001
    outer loop
      vertex  0.000000e+000 -9.397030e+000 -2.477793e+001
      vertex  1.800000e+000 -3.194222e+000 -2.630679e+001
      vertex  1.800000e+000 -9.397030e+000 -2.477793e+001
    endloop
  endfacet
  facet normal  -0.000000e+000 -4.647233e-001 -8.854560e-001
    outer loop
      vertex  0.000000e+000 -9.397030e+000 -2.477793e+001
      vertex  1.800000e+000 -9.397030e+000 -2.477793e+001
      vertex  0.000000e+000 -1.505372e+001 -2.180907e+001
    endloop
  endfacet
  facet normal  0.000000e+000 -4.647233e-001 -8.854560e-001
    outer loop
      vertex  0.000000e+000 -1.505372e+001 -2.180907e+001
      vertex  1.800000e+000 -9.397030e+000 -2.477793e+001
      vertex  1.800000e+000 -1.505372e+001 -2.180907e+001
    endloop
  endfacet
  facet normal  -0.000000e+000 -6.631227e-001 -7.485108e-001
    outer loop
      vertex  0.000000e+000 -1.505372e+001 -2.180907e+001
      vertex  1.800000e+000 -1.505372e+001 -2.180907e+001
      vertex  0.000000e+000 -1.983554e+001 -1.757275e+001
    endloop
  endfacet
  facet normal  0.000000e+000 -6.631227e-001 -7.485108e-001
    outer loop
      vertex  0.000000e+000 -1.983554e+001 -1.757275e+001
      vertex  1.800000e+000 -1.505372e+001 -2.180907e+001
      vertex  1.800000e+000 -1.983554e+001 -1.757275e+001
    endloop
  endfacet
  facet normal  -0.000000e+000 -8.229839e-001 -5.680647e-001
    outer loop
      vertex  0.000000e+000 -1.983554e+001 -1.757275e+001
      vertex  1.800000e+000 -1.983554e+001 -1.757275e+001
      vertex  0.000000e+000 -2.346458e+001 -1.231516e+001
    endloop
  endfacet
  facet normal  0.000000e+000 -8.229839e-001 -5.680647e-001
    outer loop
      vertex  0.000000e+000 -2.346458e+001 -1.231516e+001
      vertex  1.800000e+000 -1.983554e+001 -1.757275e+001
      vertex  1.800000e+000 -2.346458e+001 -1.231516e+001
    endloop
  endfacet
  facet normal  -0.000000e+000 -9.350163e-001 -3.546049e-001
    outer loop
      vertex  0.000000e+000 -2.346458e+001 -1.231516e+001
      vertex  1.800000e+000 -2.346458e+001 -1.231516e+001
      vertex  0.000000e+000 -2.572996e+001 -6.341865e+000
    endloop
  endfacet
  facet normal  0.000000e+000 -9.350163e-001 -3.546049e-001
    outer loop
      vertex  0.000000e+000 -2.572996e+001 -6.341865e+000
      vertex  1.800000e+000 -2.346458e+001 -1.231516e+001
      vertex  1.800000e+000 -2.572996e+001 -6.341865e+000
    endloop
  endfacet
  facet normal  -0.000000e+000 -9.927089e-001 -1.205368e-001
    outer loop
      vertex  0.000000e+000 -2.572996e+001 -6.341865e+000
      vertex  1.800000e+000 -2.572996e+001 -6.341865e+000
      vertex  0.000000e+000 -2.650000e+001  3.245314e-015
    endloop
  endfacet
  facet normal  0.000000e+000 -9.927089e-001 -1.205368e-001
    outer loop
      vertex  0.000000e+000 -2.650000e+001  3.245314e-015
      vertex  1.800000e+000 -2.572996e+001 -6.341865e+000
      vertex  1.800000e+000 -2.650000e+001  3.245314e-015
    endloop
  endfacet
  facet normal  0.000000e+000 -9.927089e-001  1.205368e-001
    outer loop
      vertex  0.000000e+000 -2.650000e+001  3.245314e-015
      vertex  1.800000e+000 -2.650000e+001  3.245314e-015
      vertex  0.000000e+000 -2.572996e+001  6.341865e+000
    endloop
  endfacet
  facet normal  0.000000e+000 -9.927089e-001  1.205368e-001
    outer loop
      vertex  0.000000e+000 -2.572996e+001  6.341865e+000
      vertex  1.800000e+000 -2.650000e+001  3.245314e-015
      vertex  1.800000e+000 -2.572996e+001  6.341865e+000
    endloop
  endfacet
  facet normal  0.000000e+000 -9.350163e-001  3.546049e-001
    outer loop
      vertex  0.000000e+000 -2.572996e+001  6.341865e+000
      vertex  1.800000e+000 -2.572996e+001  6.341865e+000
      vertex  0.000000e+000 -2.346458e+001  1.231516e+001
    endloop
  endfacet
  facet normal  0.000000e+000 -9.350163e-001  3.546049e-001
    outer loop
      vertex  0.000000e+000 -2.346458e+001  1.231516e+001
      vertex  1.800000e+000 -2.572996e+001  6.341865e+000
      vertex  1.800000e+000 -2.346458e+001  1.231516e+001
    endloop
  endfacet
  facet normal  0.000000e+000 -8.229839e-001  5.680647e-001
    outer loop
      vertex  0.000000e+000 -2.346458e+001  1.231516e+001
      vertex  1.800000e+000 -2.346458e+001  1.231516e+001
      vertex  0.000000e+000 -1.983554e+001  1.757275e+001
    endloop
  endfacet
  facet normal  0.000000e+000 -8.229839e-001  5.680647e-001
    outer loop
      vertex  0.000000e+000 -1.983554e+001  1.757275e+001
      vertex  1.800000e+000 -2.346458e+001  1.231516e+001
      vertex  1.800000e+000 -1.983554e+001  1.757275e+001
    endloop
  endfacet
  facet normal  0.000000e+000 -6.631227e-001  7.485108e-001
    outer loop
      vertex  0.000000e+000 -1.983554e+001  1.757275e+001
      vertex  1.800000e+000 -1.983554e+001  1.757275e+001
      vertex  0.000000e+000 -1.505372e+001  2.180907e+001
    endloop
  endfacet
  facet normal  0.000000e+000 -6.631227e-001  7.485108e-001
    outer loop
      vertex  0.000000e+000 -1.505372e+001  2.180907e+001
      vertex  1.800000e+000 -1.983554e+001  1.757275e+001
      vertex  1.800000e+000 -1.505372e+001  2.180907e+001
    endloop
  endfacet
  facet normal  0.000000e+000 -4.647233e-001  8.854560e-001
    outer loop
      vertex  0.000000e+000 -1.505372e+001  2.180907e+001
      vertex  1.800000e+000 -1.505372e+001  2.180907e+001
      vertex  0.000000e+000 -9.397030e+000  2.477793e+001
    endloop
  endfacet
  facet normal  0.000000e+000 -4.647233e-001  8.854560e-001
    outer loop
      vertex  0.000000e+000 -9.397030e+000  2.477793e+001
      vertex  1.800000e+000 -1.505372e+001  2.180907e+001
      vertex  1.800000e+000 -9.397030e+000  2.477793e+001
    endloop
  endfacet
  facet normal  0.000000e+000 -2.393156e-001  9.709418e-001
    outer loop
      vertex  0.000000e+000 -9.397030e+000  2.477793e+001
      vertex  1.800000e+000 -9.397030e+000  2.477793e+001
      vertex  0.000000e+000 -3.194222e+000  2.630679e+001
    endloop
  endfacet
  facet normal  0.000000e+000 -2.393156e-001  9.709418e-001
    outer loop
      vertex  0.000000e+000 -3.194222e+000  2.630679e+001
      vertex  1.800000e+000 -9.397030e+000  2.477793e+001
      vertex  1.800000e+000 -3.194222e+000  2.630679e+001
    endloop
  endfacet
  facet normal  0.000000e+000  0.000000e+000  1.000000e+000
    outer loop
      vertex  0.000000e+000 -3.194222e+000  2.630679e+001
      vertex  1.800000e+000 -3.194222e+000  2.630679e+001
      vertex  0.000000e+000  3.194222e+000  2.630679e+001
    endloop
  endfacet
  facet normal  -0.000000e+000  0.000000e+000  1.000000e+000
    outer loop
      vertex  0.000000e+000  3.194222e+000  2.630679e+001
      vertex  1.800000e+000 -3.194222e+000  2.630679e+001
      vertex  1.800000e+000  3.194222e+000  2.630679e+001
    endloop
  endfacet
  facet normal  0.000000e+000  2.393156e-001  9.709418e-001
    outer loop
      vertex  0.000000e+000  3.194222e+000  2.630679e+001
      vertex  1.800000e+000  3.194222e+000  2.630679e+001
      vertex  0.000000e+000  9.397030e+000  2.477793e+001
    endloop
  endfacet
  facet normal  -0.000000e+000  2.393156e-001  9.709418e-001
    outer loop
      vertex  0.000000e+000  9.397030e+000  2.477793e+001
      vertex  1.800000e+000  3.194222e+000  2.630679e+001
      vertex  1.800000e+000  9.397030e+000  2.477793e+001
    endloop
  endfacet
  facet normal  0.000000e+000  4.647233e-001  8.854560e-001
    outer loop
      vertex  0.000000e+000  9.397030e+000  2.477793e+001
      vertex  1.800000e+000  9.397030e+000  2.477793e+001
      vertex  0.000000e+000  1.505372e+001  2.180907e+001
    endloop
  endfacet
  facet normal  -0.000000e+000  4.647233e-001  8.854560e-001
    outer loop
      vertex  0.000000e+000  1.505372e+001  2.180907e+001
      vertex  1.800000e+000  9.397030e+000  2.477793e+001
      vertex  1.800000e+000  1.505372e+001  2.180907e+001
    endloop
  endfacet
  facet normal  0.000000e+000  6.631227e-001  7.485108e-001
    outer loop
      vertex  0.000000e+000  1.505372e+001  2.180907e+001
      vertex  1.800000e+000  1.505372e+001  2.180907e+001
      vertex  0.000000e+000  1.983554e+001  1.757275e+001
    endloop
  endfacet
  facet normal  -0.000000e+000  6.631227e-001  7.485108e-001
    outer loop
      vertex  0.000000e+000  1.983554e+001  1.757275e+001
      vertex  1.800000e+000  1.505372e+001  2.180907e+001
      vertex  1.800000e+000  1.983554e+001  1.757275e+001
    endloop
  endfacet
  facet normal  0.000000e+000  8.229839e-001  5.680647e-001
    outer loop
      vertex  0.000000e+000  1.983554e+001  1.757275e+001
      vertex  1.800000e+000  1.983554e+001  1.757275e+001
      vertex  0.000000e+000  2.346458e+001  1.231516e+001
    endloop
  endfacet
  facet normal  -0.000000e+000  8.229839e-001  5.680647e-001
    outer loop
      vertex  0.000000e+000  2.346458e+001  1.231516e+001
      vertex  1.800000e+000  1.983554e+001  1.757275e+001
      vertex  1.800000e+000  2.346458e+001  1.231516e+001
    endloop
  endfacet
  facet normal  0.000000e+000  9.350163e-001  3.546049e-001
    outer loop
      vertex  0.000000e+000  2.346458e+001  1.231516e+001
      vertex  1.800000e+000  2.346458e+001  1.231516e+001
      vertex  0.000000e+000  2.572996e+001  6.341865e+000
    endloop
  endfacet
  facet normal  -0.000000e+000  9.350163e-001  3.546049e-001
    outer loop
      vertex  0.000000e+000  2.572996e+001  6.341865e+000
      vertex  1.800000e+000  2.346458e+001  1.231516e+001
      vertex  1.800000e+000  2.572996e+001  6.341865e+000
    endloop
  endfacet
  facet normal  0.000000e+000  9.927089e-001  1.205368e-001
    outer loop
      vertex  0.000000e+000  2.572996e+001  6.341865e+000
      vertex  1.800000e+000  2.572996e+001  6.341865e+000
      vertex  0.000000e+000  2.650000e+001  0.000000e+000
    endloop
  endfacet
  facet normal  -0.000000e+000  9.927089e-001  1.205368e-001
    outer loop
      vertex  0.000000e+000  2.650000e+001  0.000000e+000
      vertex  1.800000e+000  2.572996e+001  6.341865e+000
      vertex  1.800000e+000  2.650000e+001  0.000000e+000
    endloop
  endfacet
endsolid CATIA STL
