solid CATIA STL
  facet normal  -0.000000e+000  0.000000e+000  1.000000e+000
    outer loop
      vertex  2.815395e-001  9.595496e-001  2.100000e+001
      vertex -4.794255e-001  8.775826e-001  2.100000e+001
      vertex  8.775826e-001  4.794255e-001  2.100000e+001
    endloop
  endfacet
  facet normal  0.000000e+000  0.000000e+000  1.000000e+000
    outer loop
      vertex  8.775826e-001  4.794255e-001  2.100000e+001
      vertex -4.794255e-001  8.775826e-001  2.100000e+001
      vertex -9.595496e-001  2.815395e-001  2.100000e+001
    endloop
  endfacet
  facet normal  -0.000000e+000  0.000000e+000  9.999999e-001
    outer loop
      vertex  8.775826e-001  4.794255e-001  2.100000e+001
      vertex -9.595496e-001  2.815395e-001  2.100000e+001
      vertex  9.595496e-001 -2.815395e-001  2.100000e+001
    endloop
  endfacet
  facet normal  0.000000e+000  0.000000e+000  9.999999e-001
    outer loop
      vertex  9.595496e-001 -2.815395e-001  2.100000e+001
      vertex -9.595496e-001  2.815395e-001  2.100000e+001
      vertex -8.775826e-001 -4.794255e-001  2.100000e+001
    endloop
  endfacet
  facet normal  -0.000000e+000  0.000000e+000  1.000000e+000
    outer loop
      vertex  9.595496e-001 -2.815395e-001  2.100000e+001
      vertex -8.775826e-001 -4.794255e-001  2.100000e+001
      vertex  4.794255e-001 -8.775826e-001  2.100000e+001
    endloop
  endfacet
  facet normal  0.000000e+000  0.000000e+000  1.000000e+000
    outer loop
      vertex  4.794255e-001 -8.775826e-001  2.100000e+001
      vertex -8.775826e-001 -4.794255e-001  2.100000e+001
      vertex -2.815395e-001 -9.595496e-001  2.100000e+001
    endloop
  endfacet
  facet normal  -0.000000e+000  0.000000e+000  1.000000e+000
    outer loop
      vertex  4.794255e-001 -8.775826e-001  1.950000e+001
      vertex -2.815395e-001 -9.595496e-001  1.950000e+001
      vertex -6.334639e-001 -2.158987e+000  1.950000e+001
    endloop
  endfacet
  facet normal  0.000000e+000  0.000000e+000  1.000000e+000
    outer loop
      vertex  4.794255e-001 -8.775826e-001  1.950000e+001
      vertex -6.334639e-001 -2.158987e+000  1.950000e+001
      vertex  1.078707e+000 -1.974561e+000  1.950000e+001
    endloop
  endfacet
  facet normal  0.000000e+000  -0.000000e+000  1.000000e+000
    outer loop
      vertex  4.794255e-001 -8.775826e-001  1.950000e+001
      vertex  1.078707e+000 -1.974561e+000  1.950000e+001
      vertex  2.158987e+000 -6.334639e-001  1.950000e+001
    endloop
  endfacet
  facet normal  0.000000e+000  0.000000e+000  1.000000e+000
    outer loop
      vertex  4.794255e-001 -8.775826e-001  1.950000e+001
      vertex  2.158987e+000 -6.334639e-001  1.950000e+001
      vertex  9.595496e-001 -2.815395e-001  1.950000e+001
    endloop
  endfacet
  facet normal  0.000000e+000  0.000000e+000  1.000000e+000
    outer loop
      vertex -1.078707e+000  1.974561e+000  1.950000e+001
      vertex -2.158987e+000  6.334639e-001  1.950000e+001
      vertex -4.794255e-001  8.775826e-001  1.950000e+001
    endloop
  endfacet
  facet normal  0.000000e+000  -0.000000e+000  1.000000e+000
    outer loop
      vertex -1.078707e+000  1.974561e+000  1.950000e+001
      vertex -4.794255e-001  8.775826e-001  1.950000e+001
      vertex  2.815395e-001  9.595496e-001  1.950000e+001
    endloop
  endfacet
  facet normal  0.000000e+000  -0.000000e+000  9.999999e-001
    outer loop
      vertex -1.078707e+000  1.974561e+000  1.950000e+001
      vertex  2.815395e-001  9.595496e-001  1.950000e+001
      vertex  1.974561e+000  1.078707e+000  1.950000e+001
    endloop
  endfacet
  facet normal  0.000000e+000  0.000000e+000  1.000000e+000
    outer loop
      vertex -1.078707e+000  1.974561e+000  1.950000e+001
      vertex  1.974561e+000  1.078707e+000  1.950000e+001
      vertex  6.334639e-001  2.158987e+000  1.950000e+001
    endloop
  endfacet
  facet normal  0.000000e+000  0.000000e+000  1.000000e+000
    outer loop
      vertex -6.334639e-001 -2.158987e+000  1.950000e+001
      vertex -2.815395e-001 -9.595496e-001  1.950000e+001
      vertex -1.974561e+000 -1.078707e+000  1.950000e+001
    endloop
  endfacet
  facet normal  0.000000e+000  0.000000e+000  1.000000e+000
    outer loop
      vertex -1.974561e+000 -1.078707e+000  1.950000e+001
      vertex -2.815395e-001 -9.595496e-001  1.950000e+001
      vertex -8.775826e-001 -4.794255e-001  1.950000e+001
    endloop
  endfacet
  facet normal  0.000000e+000  0.000000e+000  1.000000e+000
    outer loop
      vertex -1.974561e+000 -1.078707e+000  1.950000e+001
      vertex -8.775826e-001 -4.794255e-001  1.950000e+001
      vertex -2.158987e+000  6.334639e-001  1.950000e+001
    endloop
  endfacet
  facet normal  0.000000e+000  0.000000e+000  1.000000e+000
    outer loop
      vertex -2.158987e+000  6.334639e-001  1.950000e+001
      vertex -8.775826e-001 -4.794255e-001  1.950000e+001
      vertex -9.595496e-001  2.815395e-001  1.950000e+001
    endloop
  endfacet
  facet normal  0.000000e+000  -0.000000e+000  9.999999e-001
    outer loop
      vertex -2.158987e+000  6.334639e-001  1.950000e+001
      vertex -9.595496e-001  2.815395e-001  1.950000e+001
      vertex -4.794255e-001  8.775826e-001  1.950000e+001
    endloop
  endfacet
  facet normal  0.000000e+000  0.000000e+000  1.000000e+000
    outer loop
      vertex  9.595496e-001 -2.815395e-001  1.950000e+001
      vertex  2.158987e+000 -6.334639e-001  1.950000e+001
      vertex  8.775826e-001  4.794255e-001  1.950000e+001
    endloop
  endfacet
  facet normal  -0.000000e+000  0.000000e+000  1.000000e+000
    outer loop
      vertex  8.775826e-001  4.794255e-001  1.950000e+001
      vertex  2.158987e+000 -6.334639e-001  1.950000e+001
      vertex  1.974561e+000  1.078707e+000  1.950000e+001
    endloop
  endfacet
  facet normal  0.000000e+000  0.000000e+000  1.000000e+000
    outer loop
      vertex  8.775826e-001  4.794255e-001  1.950000e+001
      vertex  1.974561e+000  1.078707e+000  1.950000e+001
      vertex  2.815395e-001  9.595496e-001  1.950000e+001
    endloop
  endfacet
  facet normal  0.000000e+000  -0.000000e+000 -9.999999e-001
    outer loop
      vertex  4.794255e-001 -8.775826e-001  1.800000e+001
      vertex  9.595496e-001 -2.815395e-001  1.800000e+001
      vertex  2.158987e+000 -6.334639e-001  1.800000e+001
    endloop
  endfacet
  facet normal  0.000000e+000  0.000000e+000 -1.000000e+000
    outer loop
      vertex  4.794255e-001 -8.775826e-001  1.800000e+001
      vertex  2.158987e+000 -6.334639e-001  1.800000e+001
      vertex  1.078707e+000 -1.974561e+000  1.800000e+001
    endloop
  endfacet
  facet normal  -0.000000e+000  0.000000e+000 -1.000000e+000
    outer loop
      vertex  4.794255e-001 -8.775826e-001  1.800000e+001
      vertex  1.078707e+000 -1.974561e+000  1.800000e+001
      vertex -6.334639e-001 -2.158987e+000  1.800000e+001
    endloop
  endfacet
  facet normal  0.000000e+000  0.000000e+000 -1.000000e+000
    outer loop
      vertex  4.794255e-001 -8.775826e-001  1.800000e+001
      vertex -6.334639e-001 -2.158987e+000  1.800000e+001
      vertex -2.815395e-001 -9.595496e-001  1.800000e+001
    endloop
  endfacet
  facet normal  0.000000e+000  -0.000000e+000 -1.000000e+000
    outer loop
      vertex -1.078707e+000  1.974561e+000  1.800000e+001
      vertex  6.334639e-001  2.158987e+000  1.800000e+001
      vertex  1.974561e+000  1.078707e+000  1.800000e+001
    endloop
  endfacet
  facet normal  -0.000000e+000  0.000000e+000 -1.000000e+000
    outer loop
      vertex -1.078707e+000  1.974561e+000  1.800000e+001
      vertex  1.974561e+000  1.078707e+000  1.800000e+001
      vertex  2.815395e-001  9.595496e-001  1.800000e+001
    endloop
  endfacet
  facet normal  -0.000000e+000  0.000000e+000 -1.000000e+000
    outer loop
      vertex -1.078707e+000  1.974561e+000  1.800000e+001
      vertex  2.815395e-001  9.595496e-001  1.800000e+001
      vertex -4.794255e-001  8.775826e-001  1.800000e+001
    endloop
  endfacet
  facet normal  -0.000000e+000  0.000000e+000 -1.000000e+000
    outer loop
      vertex -1.078707e+000  1.974561e+000  1.800000e+001
      vertex -4.794255e-001  8.775826e-001  1.800000e+001
      vertex -2.158987e+000  6.334639e-001  1.800000e+001
    endloop
  endfacet
  facet normal  0.000000e+000  0.000000e+000 -9.999999e-001
    outer loop
      vertex -4.794255e-001  8.775826e-001  1.800000e+001
      vertex -9.595496e-001  2.815395e-001  1.800000e+001
      vertex -2.158987e+000  6.334639e-001  1.800000e+001
    endloop
  endfacet
  facet normal  0.000000e+000  0.000000e+000 -1.000000e+000
    outer loop
      vertex -2.158987e+000  6.334639e-001  1.800000e+001
      vertex -9.595496e-001  2.815395e-001  1.800000e+001
      vertex -8.775826e-001 -4.794255e-001  1.800000e+001
    endloop
  endfacet
  facet normal  -0.000000e+000  0.000000e+000 -1.000000e+000
    outer loop
      vertex -2.158987e+000  6.334639e-001  1.800000e+001
      vertex -8.775826e-001 -4.794255e-001  1.800000e+001
      vertex -1.974561e+000 -1.078707e+000  1.800000e+001
    endloop
  endfacet
  facet normal  0.000000e+000  0.000000e+000 -1.000000e+000
    outer loop
      vertex -1.974561e+000 -1.078707e+000  1.800000e+001
      vertex -8.775826e-001 -4.794255e-001  1.800000e+001
      vertex -2.815395e-001 -9.595496e-001  1.800000e+001
    endloop
  endfacet
  facet normal  0.000000e+000  0.000000e+000 -1.000000e+000
    outer loop
      vertex -1.974561e+000 -1.078707e+000  1.800000e+001
      vertex -2.815395e-001 -9.595496e-001  1.800000e+001
      vertex -6.334639e-001 -2.158987e+000  1.800000e+001
    endloop
  endfacet
  facet normal  0.000000e+000  0.000000e+000 -1.000000e+000
    outer loop
      vertex  2.815395e-001  9.595496e-001  1.800000e+001
      vertex  1.974561e+000  1.078707e+000  1.800000e+001
      vertex  8.775826e-001  4.794255e-001  1.800000e+001
    endloop
  endfacet
  facet normal  0.000000e+000  0.000000e+000 -1.000000e+000
    outer loop
      vertex  8.775826e-001  4.794255e-001  1.800000e+001
      vertex  1.974561e+000  1.078707e+000  1.800000e+001
      vertex  2.158987e+000 -6.334639e-001  1.800000e+001
    endloop
  endfacet
  facet normal  0.000000e+000  0.000000e+000 -1.000000e+000
    outer loop
      vertex  8.775826e-001  4.794255e-001  1.800000e+001
      vertex  2.158987e+000 -6.334639e-001  1.800000e+001
      vertex  9.595496e-001 -2.815395e-001  1.800000e+001
    endloop
  endfacet
  facet normal  -0.000000e+000  0.000000e+000  1.000000e+000
    outer loop
      vertex  4.794255e-001 -8.775826e-001  3.000000e+000
      vertex -2.815395e-001 -9.595496e-001  3.000000e+000
      vertex -6.334639e-001 -2.158987e+000  3.000000e+000
    endloop
  endfacet
  facet normal  0.000000e+000  0.000000e+000  1.000000e+000
    outer loop
      vertex  4.794255e-001 -8.775826e-001  3.000000e+000
      vertex -6.334639e-001 -2.158987e+000  3.000000e+000
      vertex  1.078707e+000 -1.974561e+000  3.000000e+000
    endloop
  endfacet
  facet normal  0.000000e+000  -0.000000e+000  1.000000e+000
    outer loop
      vertex  4.794255e-001 -8.775826e-001  3.000000e+000
      vertex  1.078707e+000 -1.974561e+000  3.000000e+000
      vertex  2.158987e+000 -6.334639e-001  3.000000e+000
    endloop
  endfacet
  facet normal  0.000000e+000  0.000000e+000  1.000000e+000
    outer loop
      vertex  4.794255e-001 -8.775826e-001  3.000000e+000
      vertex  2.158987e+000 -6.334639e-001  3.000000e+000
      vertex  9.595496e-001 -2.815395e-001  3.000000e+000
    endloop
  endfacet
  facet normal  0.000000e+000  0.000000e+000  1.000000e+000
    outer loop
      vertex -1.078707e+000  1.974561e+000  3.000000e+000
      vertex -2.158987e+000  6.334639e-001  3.000000e+000
      vertex -4.794255e-001  8.775826e-001  3.000000e+000
    endloop
  endfacet
  facet normal  0.000000e+000  -0.000000e+000  1.000000e+000
    outer loop
      vertex -1.078707e+000  1.974561e+000  3.000000e+000
      vertex -4.794255e-001  8.775826e-001  3.000000e+000
      vertex  2.815395e-001  9.595496e-001  3.000000e+000
    endloop
  endfacet
  facet normal  0.000000e+000  -0.000000e+000  9.999999e-001
    outer loop
      vertex -1.078707e+000  1.974561e+000  3.000000e+000
      vertex  2.815395e-001  9.595496e-001  3.000000e+000
      vertex  1.974561e+000  1.078707e+000  3.000000e+000
    endloop
  endfacet
  facet normal  0.000000e+000  0.000000e+000  1.000000e+000
    outer loop
      vertex -1.078707e+000  1.974561e+000  3.000000e+000
      vertex  1.974561e+000  1.078707e+000  3.000000e+000
      vertex  6.334639e-001  2.158987e+000  3.000000e+000
    endloop
  endfacet
  facet normal  0.000000e+000  0.000000e+000  1.000000e+000
    outer loop
      vertex -6.334639e-001 -2.158987e+000  3.000000e+000
      vertex -2.815395e-001 -9.595496e-001  3.000000e+000
      vertex -1.974561e+000 -1.078707e+000  3.000000e+000
    endloop
  endfacet
  facet normal  0.000000e+000  0.000000e+000  1.000000e+000
    outer loop
      vertex -1.974561e+000 -1.078707e+000  3.000000e+000
      vertex -2.815395e-001 -9.595496e-001  3.000000e+000
      vertex -8.775826e-001 -4.794255e-001  3.000000e+000
    endloop
  endfacet
  facet normal  0.000000e+000  0.000000e+000  1.000000e+000
    outer loop
      vertex -1.974561e+000 -1.078707e+000  3.000000e+000
      vertex -8.775826e-001 -4.794255e-001  3.000000e+000
      vertex -2.158987e+000  6.334639e-001  3.000000e+000
    endloop
  endfacet
  facet normal  0.000000e+000  0.000000e+000  1.000000e+000
    outer loop
      vertex -2.158987e+000  6.334639e-001  3.000000e+000
      vertex -8.775826e-001 -4.794255e-001  3.000000e+000
      vertex -9.595496e-001  2.815395e-001  3.000000e+000
    endloop
  endfacet
  facet normal  0.000000e+000  -0.000000e+000  9.999999e-001
    outer loop
      vertex -2.158987e+000  6.334639e-001  3.000000e+000
      vertex -9.595496e-001  2.815395e-001  3.000000e+000
      vertex -4.794255e-001  8.775826e-001  3.000000e+000
    endloop
  endfacet
  facet normal  0.000000e+000  0.000000e+000  1.000000e+000
    outer loop
      vertex  9.595496e-001 -2.815395e-001  3.000000e+000
      vertex  2.158987e+000 -6.334639e-001  3.000000e+000
      vertex  8.775826e-001  4.794255e-001  3.000000e+000
    endloop
  endfacet
  facet normal  -0.000000e+000  0.000000e+000  1.000000e+000
    outer loop
      vertex  8.775826e-001  4.794255e-001  3.000000e+000
      vertex  2.158987e+000 -6.334639e-001  3.000000e+000
      vertex  1.974561e+000  1.078707e+000  3.000000e+000
    endloop
  endfacet
  facet normal  0.000000e+000  0.000000e+000  1.000000e+000
    outer loop
      vertex  8.775826e-001  4.794255e-001  3.000000e+000
      vertex  1.974561e+000  1.078707e+000  3.000000e+000
      vertex  2.815395e-001  9.595496e-001  3.000000e+000
    endloop
  endfacet
  facet normal  0.000000e+000  -0.000000e+000 -9.999999e-001
    outer loop
      vertex  4.794255e-001 -8.775826e-001  1.500000e+000
      vertex  9.595496e-001 -2.815395e-001  1.500000e+000
      vertex  2.158987e+000 -6.334639e-001  1.500000e+000
    endloop
  endfacet
  facet normal  0.000000e+000  0.000000e+000 -1.000000e+000
    outer loop
      vertex  4.794255e-001 -8.775826e-001  1.500000e+000
      vertex  2.158987e+000 -6.334639e-001  1.500000e+000
      vertex  1.078707e+000 -1.974561e+000  1.500000e+000
    endloop
  endfacet
  facet normal  -0.000000e+000  0.000000e+000 -1.000000e+000
    outer loop
      vertex  4.794255e-001 -8.775826e-001  1.500000e+000
      vertex  1.078707e+000 -1.974561e+000  1.500000e+000
      vertex -6.334639e-001 -2.158987e+000  1.500000e+000
    endloop
  endfacet
  facet normal  0.000000e+000  0.000000e+000 -1.000000e+000
    outer loop
      vertex  4.794255e-001 -8.775826e-001  1.500000e+000
      vertex -6.334639e-001 -2.158987e+000  1.500000e+000
      vertex -2.815395e-001 -9.595496e-001  1.500000e+000
    endloop
  endfacet
  facet normal  0.000000e+000  -0.000000e+000 -1.000000e+000
    outer loop
      vertex -1.078707e+000  1.974561e+000  1.500000e+000
      vertex  6.334639e-001  2.158987e+000  1.500000e+000
      vertex  1.974561e+000  1.078707e+000  1.500000e+000
    endloop
  endfacet
  facet normal  -0.000000e+000  0.000000e+000 -1.000000e+000
    outer loop
      vertex -1.078707e+000  1.974561e+000  1.500000e+000
      vertex  1.974561e+000  1.078707e+000  1.500000e+000
      vertex  2.815395e-001  9.595496e-001  1.500000e+000
    endloop
  endfacet
  facet normal  -0.000000e+000  0.000000e+000 -1.000000e+000
    outer loop
      vertex -1.078707e+000  1.974561e+000  1.500000e+000
      vertex  2.815395e-001  9.595496e-001  1.500000e+000
      vertex -4.794255e-001  8.775826e-001  1.500000e+000
    endloop
  endfacet
  facet normal  -0.000000e+000  0.000000e+000 -1.000000e+000
    outer loop
      vertex -1.078707e+000  1.974561e+000  1.500000e+000
      vertex -4.794255e-001  8.775826e-001  1.500000e+000
      vertex -2.158987e+000  6.334639e-001  1.500000e+000
    endloop
  endfacet
  facet normal  0.000000e+000  0.000000e+000 -9.999999e-001
    outer loop
      vertex -4.794255e-001  8.775826e-001  1.500000e+000
      vertex -9.595496e-001  2.815395e-001  1.500000e+000
      vertex -2.158987e+000  6.334639e-001  1.500000e+000
    endloop
  endfacet
  facet normal  0.000000e+000  0.000000e+000 -1.000000e+000
    outer loop
      vertex -2.158987e+000  6.334639e-001  1.500000e+000
      vertex -9.595496e-001  2.815395e-001  1.500000e+000
      vertex -8.775826e-001 -4.794255e-001  1.500000e+000
    endloop
  endfacet
  facet normal  -0.000000e+000  0.000000e+000 -1.000000e+000
    outer loop
      vertex -2.158987e+000  6.334639e-001  1.500000e+000
      vertex -8.775826e-001 -4.794255e-001  1.500000e+000
      vertex -1.974561e+000 -1.078707e+000  1.500000e+000
    endloop
  endfacet
  facet normal  0.000000e+000  0.000000e+000 -1.000000e+000
    outer loop
      vertex -1.974561e+000 -1.078707e+000  1.500000e+000
      vertex -8.775826e-001 -4.794255e-001  1.500000e+000
      vertex -2.815395e-001 -9.595496e-001  1.500000e+000
    endloop
  endfacet
  facet normal  0.000000e+000  0.000000e+000 -1.000000e+000
    outer loop
      vertex -1.974561e+000 -1.078707e+000  1.500000e+000
      vertex -2.815395e-001 -9.595496e-001  1.500000e+000
      vertex -6.334639e-001 -2.158987e+000  1.500000e+000
    endloop
  endfacet
  facet normal  0.000000e+000  0.000000e+000 -1.000000e+000
    outer loop
      vertex  2.815395e-001  9.595496e-001  1.500000e+000
      vertex  1.974561e+000  1.078707e+000  1.500000e+000
      vertex  8.775826e-001  4.794255e-001  1.500000e+000
    endloop
  endfacet
  facet normal  0.000000e+000  0.000000e+000 -1.000000e+000
    outer loop
      vertex  8.775826e-001  4.794255e-001  1.500000e+000
      vertex  1.974561e+000  1.078707e+000  1.500000e+000
      vertex  2.158987e+000 -6.334639e-001  1.500000e+000
    endloop
  endfacet
  facet normal  0.000000e+000  0.000000e+000 -1.000000e+000
    outer loop
      vertex  8.775826e-001  4.794255e-001  1.500000e+000
      vertex  2.158987e+000 -6.334639e-001  1.500000e+000
      vertex  9.595496e-001 -2.815395e-001  1.500000e+000
    endloop
  endfacet
  facet normal  0.000000e+000  0.000000e+000 -1.000000e+000
    outer loop
      vertex  8.775826e-001  4.794255e-001  0.000000e+000
      vertex -4.794255e-001  8.775826e-001  0.000000e+000
      vertex  2.815395e-001  9.595496e-001  0.000000e+000
    endloop
  endfacet
  facet normal  -0.000000e+000  0.000000e+000 -1.000000e+000
    outer loop
      vertex -4.794255e-001  8.775826e-001  0.000000e+000
      vertex  8.775826e-001  4.794255e-001  0.000000e+000
      vertex -9.595496e-001  2.815395e-001  0.000000e+000
    endloop
  endfacet
  facet normal  0.000000e+000  0.000000e+000 -9.999999e-001
    outer loop
      vertex -9.595496e-001  2.815395e-001  0.000000e+000
      vertex  8.775826e-001  4.794255e-001  0.000000e+000
      vertex  9.595496e-001 -2.815395e-001  0.000000e+000
    endloop
  endfacet
  facet normal  -0.000000e+000  0.000000e+000 -9.999999e-001
    outer loop
      vertex -9.595496e-001  2.815395e-001  0.000000e+000
      vertex  9.595496e-001 -2.815395e-001  0.000000e+000
      vertex -8.775826e-001 -4.794255e-001  0.000000e+000
    endloop
  endfacet
  facet normal  0.000000e+000  0.000000e+000 -1.000000e+000
    outer loop
      vertex -8.775826e-001 -4.794255e-001  0.000000e+000
      vertex  9.595496e-001 -2.815395e-001  0.000000e+000
      vertex  4.794255e-001 -8.775826e-001  0.000000e+000
    endloop
  endfacet
  facet normal  -0.000000e+000  0.000000e+000 -1.000000e+000
    outer loop
      vertex -8.775826e-001 -4.794255e-001  0.000000e+000
      vertex  4.794255e-001 -8.775826e-001  0.000000e+000
      vertex -2.815395e-001 -9.595496e-001  0.000000e+000
    endloop
  endfacet
  facet normal -1.070951e-001  9.942488e-001  0.000000e+000
    outer loop
      vertex -4.794255e-001  8.775826e-001  1.950000e+001
      vertex -4.794255e-001  8.775826e-001  2.100000e+001
      vertex  2.815395e-001  9.595496e-001  1.950000e+001
    endloop
  endfacet
  facet normal -1.070951e-001  9.942488e-001  0.000000e+000
    outer loop
      vertex  2.815395e-001  9.595496e-001  1.950000e+001
      vertex -4.794255e-001  8.775826e-001  2.100000e+001
      vertex  2.815395e-001  9.595496e-001  2.100000e+001
    endloop
  endfacet
  facet normal  6.273123e-001  7.787677e-001  0.000000e+000
    outer loop
      vertex  2.815395e-001  9.595496e-001  1.950000e+001
      vertex  2.815395e-001  9.595496e-001  2.100000e+001
      vertex  8.775826e-001  4.794255e-001  1.950000e+001
    endloop
  endfacet
  facet normal  6.273123e-001  7.787677e-001  -0.000000e+000
    outer loop
      vertex  8.775826e-001  4.794255e-001  1.950000e+001
      vertex  2.815395e-001  9.595496e-001  2.100000e+001
      vertex  8.775826e-001  4.794255e-001  2.100000e+001
    endloop
  endfacet
  facet normal  9.942488e-001  1.070951e-001  0.000000e+000
    outer loop
      vertex  8.775826e-001  4.794255e-001  1.950000e+001
      vertex  8.775826e-001  4.794255e-001  2.100000e+001
      vertex  9.595496e-001 -2.815395e-001  1.950000e+001
    endloop
  endfacet
  facet normal  9.942488e-001  1.070951e-001  -0.000000e+000
    outer loop
      vertex  9.595496e-001 -2.815395e-001  1.950000e+001
      vertex  8.775826e-001  4.794255e-001  2.100000e+001
      vertex  9.595496e-001 -2.815395e-001  2.100000e+001
    endloop
  endfacet
  facet normal  7.787677e-001 -6.273123e-001  0.000000e+000
    outer loop
      vertex  9.595496e-001 -2.815395e-001  1.950000e+001
      vertex  9.595496e-001 -2.815395e-001  2.100000e+001
      vertex  4.794255e-001 -8.775826e-001  1.950000e+001
    endloop
  endfacet
  facet normal  7.787677e-001 -6.273123e-001  0.000000e+000
    outer loop
      vertex  4.794255e-001 -8.775826e-001  1.950000e+001
      vertex  9.595496e-001 -2.815395e-001  2.100000e+001
      vertex  4.794255e-001 -8.775826e-001  2.100000e+001
    endloop
  endfacet
  facet normal -1.070951e-001  9.942488e-001  0.000000e+000
    outer loop
      vertex -1.078707e+000  1.974561e+000  1.800000e+001
      vertex -1.078707e+000  1.974561e+000  1.950000e+001
      vertex  6.334639e-001  2.158987e+000  1.800000e+001
    endloop
  endfacet
  facet normal -1.070951e-001  9.942488e-001  0.000000e+000
    outer loop
      vertex  6.334639e-001  2.158987e+000  1.800000e+001
      vertex -1.078707e+000  1.974561e+000  1.950000e+001
      vertex  6.334639e-001  2.158987e+000  1.950000e+001
    endloop
  endfacet
  facet normal  6.273123e-001  7.787678e-001  0.000000e+000
    outer loop
      vertex  6.334639e-001  2.158987e+000  1.800000e+001
      vertex  6.334639e-001  2.158987e+000  1.950000e+001
      vertex  1.974561e+000  1.078707e+000  1.800000e+001
    endloop
  endfacet
  facet normal  6.273123e-001  7.787678e-001  -0.000000e+000
    outer loop
      vertex  1.974561e+000  1.078707e+000  1.800000e+001
      vertex  6.334639e-001  2.158987e+000  1.950000e+001
      vertex  1.974561e+000  1.078707e+000  1.950000e+001
    endloop
  endfacet
  facet normal  9.942488e-001  1.070951e-001  0.000000e+000
    outer loop
      vertex  1.974561e+000  1.078707e+000  1.800000e+001
      vertex  1.974561e+000  1.078707e+000  1.950000e+001
      vertex  2.158987e+000 -6.334639e-001  1.800000e+001
    endloop
  endfacet
  facet normal  9.942488e-001  1.070951e-001  -0.000000e+000
    outer loop
      vertex  2.158987e+000 -6.334639e-001  1.800000e+001
      vertex  1.974561e+000  1.078707e+000  1.950000e+001
      vertex  2.158987e+000 -6.334639e-001  1.950000e+001
    endloop
  endfacet
  facet normal  7.787678e-001 -6.273123e-001  0.000000e+000
    outer loop
      vertex  2.158987e+000 -6.334639e-001  1.800000e+001
      vertex  2.158987e+000 -6.334639e-001  1.950000e+001
      vertex  1.078707e+000 -1.974561e+000  1.800000e+001
    endloop
  endfacet
  facet normal  7.787678e-001 -6.273123e-001  0.000000e+000
    outer loop
      vertex  1.078707e+000 -1.974561e+000  1.800000e+001
      vertex  2.158987e+000 -6.334639e-001  1.950000e+001
      vertex  1.078707e+000 -1.974561e+000  1.950000e+001
    endloop
  endfacet
  facet normal -1.070951e-001  9.942487e-001  0.000000e+000
    outer loop
      vertex -4.794255e-001  8.775826e-001  3.000000e+000
      vertex -4.794255e-001  8.775826e-001  1.800000e+001
      vertex  2.815395e-001  9.595496e-001  3.000000e+000
    endloop
  endfacet
  facet normal -1.070951e-001  9.942487e-001  0.000000e+000
    outer loop
      vertex  2.815395e-001  9.595496e-001  3.000000e+000
      vertex -4.794255e-001  8.775826e-001  1.800000e+001
      vertex  2.815395e-001  9.595496e-001  1.800000e+001
    endloop
  endfacet
  facet normal  6.273123e-001  7.787677e-001  0.000000e+000
    outer loop
      vertex  2.815395e-001  9.595496e-001  3.000000e+000
      vertex  2.815395e-001  9.595496e-001  1.800000e+001
      vertex  8.775826e-001  4.794255e-001  3.000000e+000
    endloop
  endfacet
  facet normal  6.273123e-001  7.787677e-001  -0.000000e+000
    outer loop
      vertex  8.775826e-001  4.794255e-001  3.000000e+000
      vertex  2.815395e-001  9.595496e-001  1.800000e+001
      vertex  8.775826e-001  4.794255e-001  1.800000e+001
    endloop
  endfacet
  facet normal  9.942487e-001  1.070951e-001  0.000000e+000
    outer loop
      vertex  8.775826e-001  4.794255e-001  3.000000e+000
      vertex  8.775826e-001  4.794255e-001  1.800000e+001
      vertex  9.595496e-001 -2.815395e-001  3.000000e+000
    endloop
  endfacet
  facet normal  9.942487e-001  1.070951e-001  -0.000000e+000
    outer loop
      vertex  9.595496e-001 -2.815395e-001  3.000000e+000
      vertex  8.775826e-001  4.794255e-001  1.800000e+001
      vertex  9.595496e-001 -2.815395e-001  1.800000e+001
    endloop
  endfacet
  facet normal  7.787677e-001 -6.273123e-001  0.000000e+000
    outer loop
      vertex  9.595496e-001 -2.815395e-001  3.000000e+000
      vertex  9.595496e-001 -2.815395e-001  1.800000e+001
      vertex  4.794255e-001 -8.775826e-001  3.000000e+000
    endloop
  endfacet
  facet normal  7.787677e-001 -6.273123e-001  0.000000e+000
    outer loop
      vertex  4.794255e-001 -8.775826e-001  3.000000e+000
      vertex  9.595496e-001 -2.815395e-001  1.800000e+001
      vertex  4.794255e-001 -8.775826e-001  1.800000e+001
    endloop
  endfacet
  facet normal -1.070951e-001  9.942488e-001  0.000000e+000
    outer loop
      vertex -1.078707e+000  1.974561e+000  1.500000e+000
      vertex -1.078707e+000  1.974561e+000  3.000000e+000
      vertex  6.334639e-001  2.158987e+000  1.500000e+000
    endloop
  endfacet
  facet normal -1.070951e-001  9.942488e-001  0.000000e+000
    outer loop
      vertex  6.334639e-001  2.158987e+000  1.500000e+000
      vertex -1.078707e+000  1.974561e+000  3.000000e+000
      vertex  6.334639e-001  2.158987e+000  3.000000e+000
    endloop
  endfacet
  facet normal  6.273123e-001  7.787678e-001  0.000000e+000
    outer loop
      vertex  6.334639e-001  2.158987e+000  1.500000e+000
      vertex  6.334639e-001  2.158987e+000  3.000000e+000
      vertex  1.974561e+000  1.078707e+000  1.500000e+000
    endloop
  endfacet
  facet normal  6.273123e-001  7.787678e-001  -0.000000e+000
    outer loop
      vertex  1.974561e+000  1.078707e+000  1.500000e+000
      vertex  6.334639e-001  2.158987e+000  3.000000e+000
      vertex  1.974561e+000  1.078707e+000  3.000000e+000
    endloop
  endfacet
  facet normal  9.942488e-001  1.070951e-001  0.000000e+000
    outer loop
      vertex  1.974561e+000  1.078707e+000  1.500000e+000
      vertex  1.974561e+000  1.078707e+000  3.000000e+000
      vertex  2.158987e+000 -6.334639e-001  1.500000e+000
    endloop
  endfacet
  facet normal  9.942488e-001  1.070951e-001  -0.000000e+000
    outer loop
      vertex  2.158987e+000 -6.334639e-001  1.500000e+000
      vertex  1.974561e+000  1.078707e+000  3.000000e+000
      vertex  2.158987e+000 -6.334639e-001  3.000000e+000
    endloop
  endfacet
  facet normal  7.787678e-001 -6.273123e-001  0.000000e+000
    outer loop
      vertex  2.158987e+000 -6.334639e-001  1.500000e+000
      vertex  2.158987e+000 -6.334639e-001  3.000000e+000
      vertex  1.078707e+000 -1.974561e+000  1.500000e+000
    endloop
  endfacet
  facet normal  7.787678e-001 -6.273123e-001  0.000000e+000
    outer loop
      vertex  1.078707e+000 -1.974561e+000  1.500000e+000
      vertex  2.158987e+000 -6.334639e-001  3.000000e+000
      vertex  1.078707e+000 -1.974561e+000  3.000000e+000
    endloop
  endfacet
  facet normal -1.070951e-001  9.942488e-001  0.000000e+000
    outer loop
      vertex -4.794255e-001  8.775826e-001  0.000000e+000
      vertex -4.794255e-001  8.775826e-001  1.500000e+000
      vertex  2.815395e-001  9.595496e-001  0.000000e+000
    endloop
  endfacet
  facet normal -1.070951e-001  9.942488e-001  0.000000e+000
    outer loop
      vertex  2.815395e-001  9.595496e-001  0.000000e+000
      vertex -4.794255e-001  8.775826e-001  1.500000e+000
      vertex  2.815395e-001  9.595496e-001  1.500000e+000
    endloop
  endfacet
  facet normal  6.273123e-001  7.787677e-001  0.000000e+000
    outer loop
      vertex  2.815395e-001  9.595496e-001  0.000000e+000
      vertex  2.815395e-001  9.595496e-001  1.500000e+000
      vertex  8.775826e-001  4.794255e-001  0.000000e+000
    endloop
  endfacet
  facet normal  6.273123e-001  7.787677e-001  -0.000000e+000
    outer loop
      vertex  8.775826e-001  4.794255e-001  0.000000e+000
      vertex  2.815395e-001  9.595496e-001  1.500000e+000
      vertex  8.775826e-001  4.794255e-001  1.500000e+000
    endloop
  endfacet
  facet normal  9.942488e-001  1.070951e-001  0.000000e+000
    outer loop
      vertex  8.775826e-001  4.794255e-001  0.000000e+000
      vertex  8.775826e-001  4.794255e-001  1.500000e+000
      vertex  9.595496e-001 -2.815395e-001  0.000000e+000
    endloop
  endfacet
  facet normal  9.942488e-001  1.070951e-001  -0.000000e+000
    outer loop
      vertex  9.595496e-001 -2.815395e-001  0.000000e+000
      vertex  8.775826e-001  4.794255e-001  1.500000e+000
      vertex  9.595496e-001 -2.815395e-001  1.500000e+000
    endloop
  endfacet
  facet normal  7.787677e-001 -6.273123e-001  0.000000e+000
    outer loop
      vertex  9.595496e-001 -2.815395e-001  0.000000e+000
      vertex  9.595496e-001 -2.815395e-001  1.500000e+000
      vertex  4.794255e-001 -8.775826e-001  0.000000e+000
    endloop
  endfacet
  facet normal  7.787677e-001 -6.273123e-001  0.000000e+000
    outer loop
      vertex  4.794255e-001 -8.775826e-001  0.000000e+000
      vertex  9.595496e-001 -2.815395e-001  1.500000e+000
      vertex  4.794255e-001 -8.775826e-001  1.500000e+000
    endloop
  endfacet
  facet normal  1.070951e-001 -9.942488e-001  0.000000e+000
    outer loop
      vertex  4.794255e-001 -8.775826e-001  1.950000e+001
      vertex  4.794255e-001 -8.775826e-001  2.100000e+001
      vertex -2.815395e-001 -9.595496e-001  1.950000e+001
    endloop
  endfacet
  facet normal  1.070951e-001 -9.942488e-001  0.000000e+000
    outer loop
      vertex -2.815395e-001 -9.595496e-001  1.950000e+001
      vertex  4.794255e-001 -8.775826e-001  2.100000e+001
      vertex -2.815395e-001 -9.595496e-001  2.100000e+001
    endloop
  endfacet
  facet normal -6.273123e-001 -7.787677e-001  -0.000000e+000
    outer loop
      vertex -2.815395e-001 -9.595496e-001  1.950000e+001
      vertex -2.815395e-001 -9.595496e-001  2.100000e+001
      vertex -8.775826e-001 -4.794255e-001  1.950000e+001
    endloop
  endfacet
  facet normal -6.273123e-001 -7.787677e-001  0.000000e+000
    outer loop
      vertex -8.775826e-001 -4.794255e-001  1.950000e+001
      vertex -2.815395e-001 -9.595496e-001  2.100000e+001
      vertex -8.775826e-001 -4.794255e-001  2.100000e+001
    endloop
  endfacet
  facet normal -9.942488e-001 -1.070951e-001  -0.000000e+000
    outer loop
      vertex -8.775826e-001 -4.794255e-001  1.950000e+001
      vertex -8.775826e-001 -4.794255e-001  2.100000e+001
      vertex -9.595496e-001  2.815395e-001  1.950000e+001
    endloop
  endfacet
  facet normal -9.942488e-001 -1.070951e-001  0.000000e+000
    outer loop
      vertex -9.595496e-001  2.815395e-001  1.950000e+001
      vertex -8.775826e-001 -4.794255e-001  2.100000e+001
      vertex -9.595496e-001  2.815395e-001  2.100000e+001
    endloop
  endfacet
  facet normal -7.787677e-001  6.273123e-001  0.000000e+000
    outer loop
      vertex -9.595496e-001  2.815395e-001  1.950000e+001
      vertex -9.595496e-001  2.815395e-001  2.100000e+001
      vertex -4.794255e-001  8.775826e-001  1.950000e+001
    endloop
  endfacet
  facet normal -7.787677e-001  6.273123e-001  0.000000e+000
    outer loop
      vertex -4.794255e-001  8.775826e-001  1.950000e+001
      vertex -9.595496e-001  2.815395e-001  2.100000e+001
      vertex -4.794255e-001  8.775826e-001  2.100000e+001
    endloop
  endfacet
  facet normal  1.070951e-001 -9.942488e-001  0.000000e+000
    outer loop
      vertex  1.078707e+000 -1.974561e+000  1.800000e+001
      vertex  1.078707e+000 -1.974561e+000  1.950000e+001
      vertex -6.334639e-001 -2.158987e+000  1.800000e+001
    endloop
  endfacet
  facet normal  1.070951e-001 -9.942488e-001  0.000000e+000
    outer loop
      vertex -6.334639e-001 -2.158987e+000  1.800000e+001
      vertex  1.078707e+000 -1.974561e+000  1.950000e+001
      vertex -6.334639e-001 -2.158987e+000  1.950000e+001
    endloop
  endfacet
  facet normal -6.273123e-001 -7.787678e-001  -0.000000e+000
    outer loop
      vertex -6.334639e-001 -2.158987e+000  1.800000e+001
      vertex -6.334639e-001 -2.158987e+000  1.950000e+001
      vertex -1.974561e+000 -1.078707e+000  1.800000e+001
    endloop
  endfacet
  facet normal -6.273123e-001 -7.787678e-001  0.000000e+000
    outer loop
      vertex -1.974561e+000 -1.078707e+000  1.800000e+001
      vertex -6.334639e-001 -2.158987e+000  1.950000e+001
      vertex -1.974561e+000 -1.078707e+000  1.950000e+001
    endloop
  endfacet
  facet normal -9.942488e-001 -1.070951e-001  -0.000000e+000
    outer loop
      vertex -1.974561e+000 -1.078707e+000  1.800000e+001
      vertex -1.974561e+000 -1.078707e+000  1.950000e+001
      vertex -2.158987e+000  6.334639e-001  1.800000e+001
    endloop
  endfacet
  facet normal -9.942488e-001 -1.070951e-001  0.000000e+000
    outer loop
      vertex -2.158987e+000  6.334639e-001  1.800000e+001
      vertex -1.974561e+000 -1.078707e+000  1.950000e+001
      vertex -2.158987e+000  6.334639e-001  1.950000e+001
    endloop
  endfacet
  facet normal -7.787678e-001  6.273123e-001  0.000000e+000
    outer loop
      vertex -2.158987e+000  6.334639e-001  1.800000e+001
      vertex -2.158987e+000  6.334639e-001  1.950000e+001
      vertex -1.078707e+000  1.974561e+000  1.800000e+001
    endloop
  endfacet
  facet normal -7.787678e-001  6.273123e-001  0.000000e+000
    outer loop
      vertex -1.078707e+000  1.974561e+000  1.800000e+001
      vertex -2.158987e+000  6.334639e-001  1.950000e+001
      vertex -1.078707e+000  1.974561e+000  1.950000e+001
    endloop
  endfacet
  facet normal  1.070951e-001 -9.942487e-001  0.000000e+000
    outer loop
      vertex  4.794255e-001 -8.775826e-001  3.000000e+000
      vertex  4.794255e-001 -8.775826e-001  1.800000e+001
      vertex -2.815395e-001 -9.595496e-001  3.000000e+000
    endloop
  endfacet
  facet normal  1.070951e-001 -9.942487e-001  0.000000e+000
    outer loop
      vertex -2.815395e-001 -9.595496e-001  3.000000e+000
      vertex  4.794255e-001 -8.775826e-001  1.800000e+001
      vertex -2.815395e-001 -9.595496e-001  1.800000e+001
    endloop
  endfacet
  facet normal -6.273123e-001 -7.787677e-001  -0.000000e+000
    outer loop
      vertex -2.815395e-001 -9.595496e-001  3.000000e+000
      vertex -2.815395e-001 -9.595496e-001  1.800000e+001
      vertex -8.775826e-001 -4.794255e-001  3.000000e+000
    endloop
  endfacet
  facet normal -6.273123e-001 -7.787677e-001  0.000000e+000
    outer loop
      vertex -8.775826e-001 -4.794255e-001  3.000000e+000
      vertex -2.815395e-001 -9.595496e-001  1.800000e+001
      vertex -8.775826e-001 -4.794255e-001  1.800000e+001
    endloop
  endfacet
  facet normal -9.942487e-001 -1.070951e-001  -0.000000e+000
    outer loop
      vertex -8.775826e-001 -4.794255e-001  3.000000e+000
      vertex -8.775826e-001 -4.794255e-001  1.800000e+001
      vertex -9.595496e-001  2.815395e-001  3.000000e+000
    endloop
  endfacet
  facet normal -9.942487e-001 -1.070951e-001  0.000000e+000
    outer loop
      vertex -9.595496e-001  2.815395e-001  3.000000e+000
      vertex -8.775826e-001 -4.794255e-001  1.800000e+001
      vertex -9.595496e-001  2.815395e-001  1.800000e+001
    endloop
  endfacet
  facet normal -7.787677e-001  6.273123e-001  0.000000e+000
    outer loop
      vertex -9.595496e-001  2.815395e-001  3.000000e+000
      vertex -9.595496e-001  2.815395e-001  1.800000e+001
      vertex -4.794255e-001  8.775826e-001  3.000000e+000
    endloop
  endfacet
  facet normal -7.787677e-001  6.273123e-001  0.000000e+000
    outer loop
      vertex -4.794255e-001  8.775826e-001  3.000000e+000
      vertex -9.595496e-001  2.815395e-001  1.800000e+001
      vertex -4.794255e-001  8.775826e-001  1.800000e+001
    endloop
  endfacet
  facet normal  1.070951e-001 -9.942488e-001  0.000000e+000
    outer loop
      vertex  1.078707e+000 -1.974561e+000  1.500000e+000
      vertex  1.078707e+000 -1.974561e+000  3.000000e+000
      vertex -6.334639e-001 -2.158987e+000  1.500000e+000
    endloop
  endfacet
  facet normal  1.070951e-001 -9.942488e-001  0.000000e+000
    outer loop
      vertex -6.334639e-001 -2.158987e+000  1.500000e+000
      vertex  1.078707e+000 -1.974561e+000  3.000000e+000
      vertex -6.334639e-001 -2.158987e+000  3.000000e+000
    endloop
  endfacet
  facet normal -6.273123e-001 -7.787678e-001  -0.000000e+000
    outer loop
      vertex -6.334639e-001 -2.158987e+000  1.500000e+000
      vertex -6.334639e-001 -2.158987e+000  3.000000e+000
      vertex -1.974561e+000 -1.078707e+000  1.500000e+000
    endloop
  endfacet
  facet normal -6.273123e-001 -7.787678e-001  0.000000e+000
    outer loop
      vertex -1.974561e+000 -1.078707e+000  1.500000e+000
      vertex -6.334639e-001 -2.158987e+000  3.000000e+000
      vertex -1.974561e+000 -1.078707e+000  3.000000e+000
    endloop
  endfacet
  facet normal -9.942488e-001 -1.070951e-001  -0.000000e+000
    outer loop
      vertex -1.974561e+000 -1.078707e+000  1.500000e+000
      vertex -1.974561e+000 -1.078707e+000  3.000000e+000
      vertex -2.158987e+000  6.334639e-001  1.500000e+000
    endloop
  endfacet
  facet normal -9.942488e-001 -1.070951e-001  0.000000e+000
    outer loop
      vertex -2.158987e+000  6.334639e-001  1.500000e+000
      vertex -1.974561e+000 -1.078707e+000  3.000000e+000
      vertex -2.158987e+000  6.334639e-001  3.000000e+000
    endloop
  endfacet
  facet normal -7.787678e-001  6.273123e-001  0.000000e+000
    outer loop
      vertex -2.158987e+000  6.334639e-001  1.500000e+000
      vertex -2.158987e+000  6.334639e-001  3.000000e+000
      vertex -1.078707e+000  1.974561e+000  1.500000e+000
    endloop
  endfacet
  facet normal -7.787678e-001  6.273123e-001  0.000000e+000
    outer loop
      vertex -1.078707e+000  1.974561e+000  1.500000e+000
      vertex -2.158987e+000  6.334639e-001  3.000000e+000
      vertex -1.078707e+000  1.974561e+000  3.000000e+000
    endloop
  endfacet
  facet normal  1.070951e-001 -9.942488e-001  0.000000e+000
    outer loop
      vertex  4.794255e-001 -8.775826e-001  0.000000e+000
      vertex  4.794255e-001 -8.775826e-001  1.500000e+000
      vertex -2.815395e-001 -9.595496e-001  0.000000e+000
    endloop
  endfacet
  facet normal  1.070951e-001 -9.942488e-001  0.000000e+000
    outer loop
      vertex -2.815395e-001 -9.595496e-001  0.000000e+000
      vertex  4.794255e-001 -8.775826e-001  1.500000e+000
      vertex -2.815395e-001 -9.595496e-001  1.500000e+000
    endloop
  endfacet
  facet normal -6.273123e-001 -7.787677e-001  -0.000000e+000
    outer loop
      vertex -2.815395e-001 -9.595496e-001  0.000000e+000
      vertex -2.815395e-001 -9.595496e-001  1.500000e+000
      vertex -8.775826e-001 -4.794255e-001  0.000000e+000
    endloop
  endfacet
  facet normal -6.273123e-001 -7.787677e-001  0.000000e+000
    outer loop
      vertex -8.775826e-001 -4.794255e-001  0.000000e+000
      vertex -2.815395e-001 -9.595496e-001  1.500000e+000
      vertex -8.775826e-001 -4.794255e-001  1.500000e+000
    endloop
  endfacet
  facet normal -9.942488e-001 -1.070951e-001  -0.000000e+000
    outer loop
      vertex -8.775826e-001 -4.794255e-001  0.000000e+000
      vertex -8.775826e-001 -4.794255e-001  1.500000e+000
      vertex -9.595496e-001  2.815395e-001  0.000000e+000
    endloop
  endfacet
  facet normal -9.942488e-001 -1.070951e-001  0.000000e+000
    outer loop
      vertex -9.595496e-001  2.815395e-001  0.000000e+000
      vertex -8.775826e-001 -4.794255e-001  1.500000e+000
      vertex -9.595496e-001  2.815395e-001  1.500000e+000
    endloop
  endfacet
  facet normal -7.787677e-001  6.273123e-001  0.000000e+000
    outer loop
      vertex -9.595496e-001  2.815395e-001  0.000000e+000
      vertex -9.595496e-001  2.815395e-001  1.500000e+000
      vertex -4.794255e-001  8.775826e-001  0.000000e+000
    endloop
  endfacet
  facet normal -7.787677e-001  6.273123e-001  0.000000e+000
    outer loop
      vertex -4.794255e-001  8.775826e-001  0.000000e+000
      vertex -9.595496e-001  2.815395e-001  1.500000e+000
      vertex -4.794255e-001  8.775826e-001  1.500000e+000
    endloop
  endfacet
endsolid CATIA STL
