solid CATIA STL
  facet normal  1.000000e+000  0.000000e+000  0.000000e+000
    outer loop
      vertex  2.000000e+000 -3.000000e+001 -5.000000e+000
      vertex  2.000000e+000 -1.852057e+001 -8.775826e-001
      vertex  2.000000e+000 -1.928154e+001 -9.595496e-001
    endloop
  endfacet
  facet normal  1.000000e+000  0.000000e+000  0.000000e+000
    outer loop
      vertex  2.000000e+000 -2.787758e+001 -4.794255e-001
      vertex  2.000000e+000 -3.000000e+001 -5.000000e+000
      vertex  2.000000e+000 -2.728154e+001 -9.595496e-001
    endloop
  endfacet
  facet normal  1.000000e+000  0.000000e+000  -0.000000e+000
    outer loop
      vertex  2.000000e+000  9.653408e-001  5.273681e-001
      vertex  2.000000e+000  1.055505e+000 -3.096935e-001
      vertex  2.000000e+000  1.275000e+001  0.000000e+000
    endloop
  endfacet
  facet normal  1.000000e+000  0.000000e+000  0.000000e+000
    outer loop
      vertex  2.000000e+000 -3.000000e+001  5.000000e+000
      vertex  2.000000e+000 -3.000000e+001 -5.000000e+000
      vertex  2.000000e+000 -2.787758e+001 -4.794255e-001
    endloop
  endfacet
  facet normal  1.000000e+000  0.000000e+000  0.000000e+000
    outer loop
      vertex  2.000000e+000 -3.000000e+001  5.000000e+000
      vertex  2.000000e+000 -2.787758e+001 -4.794255e-001
      vertex  2.000000e+000 -2.795955e+001  2.815395e-001
    endloop
  endfacet
  facet normal  9.999999e-001  0.000000e+000  -0.000000e+000
    outer loop
      vertex  2.000000e+000 -3.000000e+001  5.000000e+000
      vertex  2.000000e+000 -2.795955e+001  2.815395e-001
      vertex  2.000000e+000 -2.747943e+001  8.775826e-001
    endloop
  endfacet
  facet normal  1.000000e+000  0.000000e+000  -0.000000e+000
    outer loop
      vertex  2.000000e+000 -3.000000e+001  5.000000e+000
      vertex  2.000000e+000 -2.747943e+001  8.775826e-001
      vertex  2.000000e+000 -2.671846e+001  9.595496e-001
    endloop
  endfacet
  facet normal  1.000000e+000  -0.000000e+000  -0.000000e+000
    outer loop
      vertex  2.000000e+000 -3.000000e+001  5.000000e+000
      vertex  2.000000e+000 -2.671846e+001  9.595496e-001
      vertex  2.000000e+000 -2.347943e+001  8.775826e-001
    endloop
  endfacet
  facet normal  1.000000e+000  0.000000e+000  -0.000000e+000
    outer loop
      vertex  2.000000e+000 -3.000000e+001  5.000000e+000
      vertex  2.000000e+000 -2.347943e+001  8.775826e-001
      vertex  2.000000e+000 -2.271846e+001  9.595496e-001
    endloop
  endfacet
  facet normal  1.000000e+000  -0.000000e+000  -0.000000e+000
    outer loop
      vertex  2.000000e+000 -3.000000e+001  5.000000e+000
      vertex  2.000000e+000 -2.271846e+001  9.595496e-001
      vertex  2.000000e+000 -1.947943e+001  8.775826e-001
    endloop
  endfacet
  facet normal  1.000000e+000  0.000000e+000  -0.000000e+000
    outer loop
      vertex  2.000000e+000 -3.000000e+001  5.000000e+000
      vertex  2.000000e+000 -1.947943e+001  8.775826e-001
      vertex  2.000000e+000 -1.871846e+001  9.595496e-001
    endloop
  endfacet
  facet normal  1.000000e+000  -0.000000e+000  0.000000e+000
    outer loop
      vertex  2.000000e+000 -1.172870e+001  5.000000e+000
      vertex  2.000000e+000 -3.000000e+001  5.000000e+000
      vertex  2.000000e+000 -1.871846e+001  9.595496e-001
    endloop
  endfacet
  facet normal  1.000000e+000  0.000000e+000  0.000000e+000
    outer loop
      vertex  2.000000e+000 -1.172870e+001  5.000000e+000
      vertex  2.000000e+000 -1.871846e+001  9.595496e-001
      vertex  2.000000e+000 -5.273681e-001  9.653408e-001
    endloop
  endfacet
  facet normal  1.000000e+000  0.000000e+000  -0.000000e+000
    outer loop
      vertex  2.000000e+000 -1.172870e+001  5.000000e+000
      vertex  2.000000e+000 -5.273681e-001  9.653408e-001
      vertex  2.000000e+000  3.096935e-001  1.055505e+000
    endloop
  endfacet
  facet normal  1.000000e+000  0.000000e+000  0.000000e+000
    outer loop
      vertex  2.000000e+000 -1.172870e+001  5.000000e+000
      vertex  2.000000e+000  3.096935e-001  1.055505e+000
      vertex  2.000000e+000 -1.789775e+000  1.262376e+001
    endloop
  endfacet
  facet normal  1.000000e+000  0.000000e+000  0.000000e+000
    outer loop
      vertex  2.000000e+000 -1.172870e+001  5.000000e+000
      vertex  2.000000e+000 -1.789775e+000  1.262376e+001
      vertex  2.000000e+000 -5.923469e+000  1.129048e+001
    endloop
  endfacet
  facet normal  1.000000e+000  0.000000e+000  0.000000e+000
    outer loop
      vertex  2.000000e+000 -1.172870e+001  5.000000e+000
      vertex  2.000000e+000 -5.923469e+000  1.129048e+001
      vertex  2.000000e+000 -9.369758e+000  8.646974e+000
    endloop
  endfacet
  facet normal  1.000000e+000  0.000000e+000  -0.000000e+000
    outer loop
      vertex  2.000000e+000  5.273681e-001 -9.653408e-001
      vertex  2.000000e+000  2.551619e+000 -1.249207e+001
      vertex  2.000000e+000  6.596903e+000 -1.091070e+001
    endloop
  endfacet
  facet normal  1.000000e+000  0.000000e+000  -0.000000e+000
    outer loop
      vertex  2.000000e+000  5.273681e-001 -9.653408e-001
      vertex  2.000000e+000  6.596903e+000 -1.091070e+001
      vertex  2.000000e+000  9.876630e+000 -8.063168e+000
    endloop
  endfacet
  facet normal  1.000000e+000  0.000000e+000  -0.000000e+000
    outer loop
      vertex  2.000000e+000  5.273681e-001 -9.653408e-001
      vertex  2.000000e+000  9.876630e+000 -8.063168e+000
      vertex  2.000000e+000  1.201019e+001 -4.279922e+000
    endloop
  endfacet
  facet normal  1.000000e+000  0.000000e+000  -0.000000e+000
    outer loop
      vertex  2.000000e+000  5.273681e-001 -9.653408e-001
      vertex  2.000000e+000  1.201019e+001 -4.279922e+000
      vertex  2.000000e+000  1.275000e+001  0.000000e+000
    endloop
  endfacet
  facet normal  9.999999e-001  0.000000e+000  0.000000e+000
    outer loop
      vertex  2.000000e+000  5.273681e-001 -9.653408e-001
      vertex  2.000000e+000  1.275000e+001  0.000000e+000
      vertex  2.000000e+000  1.055505e+000 -3.096935e-001
    endloop
  endfacet
  facet normal  1.000000e+000  -0.000000e+000  -0.000000e+000
    outer loop
      vertex  2.000000e+000  3.096935e-001  1.055505e+000
      vertex  2.000000e+000  9.653408e-001  5.273681e-001
      vertex  2.000000e+000  1.275000e+001  0.000000e+000
    endloop
  endfacet
  facet normal  9.999999e-001  0.000000e+000  0.000000e+000
    outer loop
      vertex  2.000000e+000  3.096935e-001  1.055505e+000
      vertex  2.000000e+000  1.275000e+001  0.000000e+000
      vertex  2.000000e+000  1.201019e+001  4.279922e+000
    endloop
  endfacet
  facet normal  1.000000e+000  0.000000e+000  0.000000e+000
    outer loop
      vertex  2.000000e+000  3.096935e-001  1.055505e+000
      vertex  2.000000e+000  1.201019e+001  4.279922e+000
      vertex  2.000000e+000  9.876630e+000  8.063168e+000
    endloop
  endfacet
  facet normal  9.999999e-001  0.000000e+000  0.000000e+000
    outer loop
      vertex  2.000000e+000  3.096935e-001  1.055505e+000
      vertex  2.000000e+000  9.876630e+000  8.063168e+000
      vertex  2.000000e+000  6.596903e+000  1.091070e+001
    endloop
  endfacet
  facet normal  1.000000e+000  0.000000e+000  0.000000e+000
    outer loop
      vertex  2.000000e+000  3.096935e-001  1.055505e+000
      vertex  2.000000e+000  6.596903e+000  1.091070e+001
      vertex  2.000000e+000  2.551619e+000  1.249207e+001
    endloop
  endfacet
  facet normal  1.000000e+000  0.000000e+000  0.000000e+000
    outer loop
      vertex  2.000000e+000  3.096935e-001  1.055505e+000
      vertex  2.000000e+000  2.551619e+000  1.249207e+001
      vertex  2.000000e+000 -1.789775e+000  1.262376e+001
    endloop
  endfacet
  facet normal  1.000000e+000  0.000000e+000  0.000000e+000
    outer loop
      vertex  2.000000e+000  2.551619e+000 -1.249207e+001
      vertex  2.000000e+000  5.273681e-001 -9.653408e-001
      vertex  2.000000e+000 -1.789775e+000 -1.262376e+001
    endloop
  endfacet
  facet normal  1.000000e+000  0.000000e+000  0.000000e+000
    outer loop
      vertex  2.000000e+000 -1.789775e+000 -1.262376e+001
      vertex  2.000000e+000  5.273681e-001 -9.653408e-001
      vertex  2.000000e+000 -3.096935e-001 -1.055505e+000
    endloop
  endfacet
  facet normal  1.000000e+000  0.000000e+000  0.000000e+000
    outer loop
      vertex  2.000000e+000 -1.789775e+000 -1.262376e+001
      vertex  2.000000e+000 -3.096935e-001 -1.055505e+000
      vertex  2.000000e+000 -5.923469e+000 -1.129048e+001
    endloop
  endfacet
  facet normal  1.000000e+000  0.000000e+000  -0.000000e+000
    outer loop
      vertex  2.000000e+000 -5.923469e+000 -1.129048e+001
      vertex  2.000000e+000 -3.096935e-001 -1.055505e+000
      vertex  2.000000e+000 -1.172870e+001 -5.000000e+000
    endloop
  endfacet
  facet normal  1.000000e+000  0.000000e+000  0.000000e+000
    outer loop
      vertex  2.000000e+000 -5.923469e+000 -1.129048e+001
      vertex  2.000000e+000 -1.172870e+001 -5.000000e+000
      vertex  2.000000e+000 -9.369758e+000 -8.646974e+000
    endloop
  endfacet
  facet normal  1.000000e+000  -0.000000e+000  0.000000e+000
    outer loop
      vertex  2.000000e+000 -5.273681e-001  9.653408e-001
      vertex  2.000000e+000 -1.871846e+001  9.595496e-001
      vertex  2.000000e+000 -1.055505e+000  3.096935e-001
    endloop
  endfacet
  facet normal  1.000000e+000  0.000000e+000  0.000000e+000
    outer loop
      vertex  2.000000e+000 -1.055505e+000  3.096935e-001
      vertex  2.000000e+000 -1.871846e+001  9.595496e-001
      vertex  2.000000e+000 -1.812242e+001  4.794255e-001
    endloop
  endfacet
  facet normal  1.000000e+000  0.000000e+000  0.000000e+000
    outer loop
      vertex  2.000000e+000 -1.055505e+000  3.096935e-001
      vertex  2.000000e+000 -1.812242e+001  4.794255e-001
      vertex  2.000000e+000 -9.653408e-001 -5.273681e-001
    endloop
  endfacet
  facet normal  1.000000e+000  0.000000e+000  0.000000e+000
    outer loop
      vertex  2.000000e+000 -9.653408e-001 -5.273681e-001
      vertex  2.000000e+000 -1.812242e+001  4.794255e-001
      vertex  2.000000e+000 -1.804045e+001 -2.815395e-001
    endloop
  endfacet
  facet normal  1.000000e+000  0.000000e+000  0.000000e+000
    outer loop
      vertex  2.000000e+000 -9.653408e-001 -5.273681e-001
      vertex  2.000000e+000 -1.804045e+001 -2.815395e-001
      vertex  2.000000e+000 -3.096935e-001 -1.055505e+000
    endloop
  endfacet
  facet normal  1.000000e+000  0.000000e+000  0.000000e+000
    outer loop
      vertex  2.000000e+000 -3.096935e-001 -1.055505e+000
      vertex  2.000000e+000 -1.804045e+001 -2.815395e-001
      vertex  2.000000e+000 -1.852057e+001 -8.775826e-001
    endloop
  endfacet
  facet normal  1.000000e+000  0.000000e+000  0.000000e+000
    outer loop
      vertex  2.000000e+000 -3.096935e-001 -1.055505e+000
      vertex  2.000000e+000 -1.852057e+001 -8.775826e-001
      vertex  2.000000e+000 -1.172870e+001 -5.000000e+000
    endloop
  endfacet
  facet normal  1.000000e+000  0.000000e+000  0.000000e+000
    outer loop
      vertex  2.000000e+000 -1.172870e+001 -5.000000e+000
      vertex  2.000000e+000 -1.852057e+001 -8.775826e-001
      vertex  2.000000e+000 -3.000000e+001 -5.000000e+000
    endloop
  endfacet
  facet normal  1.000000e+000  0.000000e+000  0.000000e+000
    outer loop
      vertex  2.000000e+000 -1.947943e+001  8.775826e-001
      vertex  2.000000e+000 -2.271846e+001  9.595496e-001
      vertex  2.000000e+000 -1.995955e+001  2.815395e-001
    endloop
  endfacet
  facet normal  1.000000e+000  0.000000e+000  0.000000e+000
    outer loop
      vertex  2.000000e+000 -1.995955e+001  2.815395e-001
      vertex  2.000000e+000 -2.271846e+001  9.595496e-001
      vertex  2.000000e+000 -2.212242e+001  4.794255e-001
    endloop
  endfacet
  facet normal  9.999999e-001  0.000000e+000  0.000000e+000
    outer loop
      vertex  2.000000e+000 -1.995955e+001  2.815395e-001
      vertex  2.000000e+000 -2.212242e+001  4.794255e-001
      vertex  2.000000e+000 -1.987758e+001 -4.794255e-001
    endloop
  endfacet
  facet normal  9.999999e-001  0.000000e+000  0.000000e+000
    outer loop
      vertex  2.000000e+000 -1.987758e+001 -4.794255e-001
      vertex  2.000000e+000 -2.212242e+001  4.794255e-001
      vertex  2.000000e+000 -2.204045e+001 -2.815395e-001
    endloop
  endfacet
  facet normal  1.000000e+000  0.000000e+000  0.000000e+000
    outer loop
      vertex  2.000000e+000 -1.987758e+001 -4.794255e-001
      vertex  2.000000e+000 -2.204045e+001 -2.815395e-001
      vertex  2.000000e+000 -1.928154e+001 -9.595496e-001
    endloop
  endfacet
  facet normal  1.000000e+000  0.000000e+000  0.000000e+000
    outer loop
      vertex  2.000000e+000 -1.928154e+001 -9.595496e-001
      vertex  2.000000e+000 -2.204045e+001 -2.815395e-001
      vertex  2.000000e+000 -2.252057e+001 -8.775826e-001
    endloop
  endfacet
  facet normal  1.000000e+000  0.000000e+000  0.000000e+000
    outer loop
      vertex  2.000000e+000 -1.928154e+001 -9.595496e-001
      vertex  2.000000e+000 -2.252057e+001 -8.775826e-001
      vertex  2.000000e+000 -3.000000e+001 -5.000000e+000
    endloop
  endfacet
  facet normal  1.000000e+000  0.000000e+000  0.000000e+000
    outer loop
      vertex  2.000000e+000 -3.000000e+001 -5.000000e+000
      vertex  2.000000e+000 -2.252057e+001 -8.775826e-001
      vertex  2.000000e+000 -2.328154e+001 -9.595496e-001
    endloop
  endfacet
  facet normal  1.000000e+000  0.000000e+000  0.000000e+000
    outer loop
      vertex  2.000000e+000 -3.000000e+001 -5.000000e+000
      vertex  2.000000e+000 -2.328154e+001 -9.595496e-001
      vertex  2.000000e+000 -2.728154e+001 -9.595496e-001
    endloop
  endfacet
  facet normal  1.000000e+000  0.000000e+000  0.000000e+000
    outer loop
      vertex  2.000000e+000 -2.728154e+001 -9.595496e-001
      vertex  2.000000e+000 -2.328154e+001 -9.595496e-001
      vertex  2.000000e+000 -2.652057e+001 -8.775826e-001
    endloop
  endfacet
  facet normal  1.000000e+000  0.000000e+000  0.000000e+000
    outer loop
      vertex  2.000000e+000 -2.652057e+001 -8.775826e-001
      vertex  2.000000e+000 -2.328154e+001 -9.595496e-001
      vertex  2.000000e+000 -2.604045e+001 -2.815395e-001
    endloop
  endfacet
  facet normal  1.000000e+000  0.000000e+000  0.000000e+000
    outer loop
      vertex  2.000000e+000 -2.604045e+001 -2.815395e-001
      vertex  2.000000e+000 -2.328154e+001 -9.595496e-001
      vertex  2.000000e+000 -2.387758e+001 -4.794255e-001
    endloop
  endfacet
  facet normal  9.999999e-001  0.000000e+000  0.000000e+000
    outer loop
      vertex  2.000000e+000 -2.604045e+001 -2.815395e-001
      vertex  2.000000e+000 -2.387758e+001 -4.794255e-001
      vertex  2.000000e+000 -2.612242e+001  4.794255e-001
    endloop
  endfacet
  facet normal  9.999999e-001  0.000000e+000  0.000000e+000
    outer loop
      vertex  2.000000e+000 -2.612242e+001  4.794255e-001
      vertex  2.000000e+000 -2.387758e+001 -4.794255e-001
      vertex  2.000000e+000 -2.395955e+001  2.815395e-001
    endloop
  endfacet
  facet normal  1.000000e+000  0.000000e+000  0.000000e+000
    outer loop
      vertex  2.000000e+000 -2.612242e+001  4.794255e-001
      vertex  2.000000e+000 -2.395955e+001  2.815395e-001
      vertex  2.000000e+000 -2.671846e+001  9.595496e-001
    endloop
  endfacet
  facet normal  1.000000e+000  0.000000e+000  0.000000e+000
    outer loop
      vertex  2.000000e+000 -2.671846e+001  9.595496e-001
      vertex  2.000000e+000 -2.395955e+001  2.815395e-001
      vertex  2.000000e+000 -2.347943e+001  8.775826e-001
    endloop
  endfacet
  facet normal -1.000000e+000  0.000000e+000  0.000000e+000
    outer loop
      vertex  0.000000e+000 -3.000000e+001 -5.000000e+000
      vertex  0.000000e+000 -3.000000e+001  5.000000e+000
      vertex  0.000000e+000 -2.795955e+001  2.815395e-001
    endloop
  endfacet
  facet normal -1.000000e+000  9.597492e-016 -3.707861e-016
    outer loop
      vertex  0.000000e+000 -3.000000e+001 -5.000000e+000
      vertex  0.000000e+000 -2.795955e+001  2.815395e-001
      vertex  3.608225e-016 -2.787758e+001 -4.794255e-001
    endloop
  endfacet
  facet normal -1.000000e+000 -3.925929e-016  2.641409e-016
    outer loop
      vertex  0.000000e+000 -3.000000e+001 -5.000000e+000
      vertex  3.608225e-016 -2.787758e+001 -4.794255e-001
      vertex  0.000000e+000 -2.728154e+001 -9.595496e-001
    endloop
  endfacet
  facet normal -1.000000e+000  0.000000e+000  -0.000000e+000
    outer loop
      vertex  0.000000e+000 -3.000000e+001 -5.000000e+000
      vertex  0.000000e+000 -2.728154e+001 -9.595496e-001
      vertex  0.000000e+000 -2.652057e+001 -8.775826e-001
    endloop
  endfacet
  facet normal -1.000000e+000  0.000000e+000  -0.000000e+000
    outer loop
      vertex  0.000000e+000 -3.000000e+001 -5.000000e+000
      vertex  0.000000e+000 -2.652057e+001 -8.775826e-001
      vertex  0.000000e+000 -2.328154e+001 -9.595496e-001
    endloop
  endfacet
  facet normal -1.000000e+000  0.000000e+000  -0.000000e+000
    outer loop
      vertex  0.000000e+000 -3.000000e+001 -5.000000e+000
      vertex  0.000000e+000 -2.328154e+001 -9.595496e-001
      vertex  0.000000e+000 -2.252057e+001 -8.775826e-001
    endloop
  endfacet
  facet normal -1.000000e+000  0.000000e+000  -0.000000e+000
    outer loop
      vertex  0.000000e+000 -3.000000e+001 -5.000000e+000
      vertex  0.000000e+000 -2.252057e+001 -8.775826e-001
      vertex  0.000000e+000 -1.928154e+001 -9.595496e-001
    endloop
  endfacet
  facet normal -1.000000e+000  0.000000e+000  -0.000000e+000
    outer loop
      vertex  0.000000e+000 -3.000000e+001 -5.000000e+000
      vertex  0.000000e+000 -1.928154e+001 -9.595496e-001
      vertex  0.000000e+000 -1.852057e+001 -8.775826e-001
    endloop
  endfacet
  facet normal -1.000000e+000  0.000000e+000  -0.000000e+000
    outer loop
      vertex  0.000000e+000 -3.000000e+001 -5.000000e+000
      vertex  0.000000e+000 -1.852057e+001 -8.775826e-001
      vertex  0.000000e+000 -1.249207e+001 -2.551619e+000
    endloop
  endfacet
  facet normal -9.999999e-001  0.000000e+000  -0.000000e+000
    outer loop
      vertex  0.000000e+000 -3.000000e+001 -5.000000e+000
      vertex  0.000000e+000 -1.249207e+001 -2.551619e+000
      vertex  0.000000e+000 -1.172870e+001 -5.000000e+000
    endloop
  endfacet
  facet normal -1.000000e+000  -0.000000e+000  0.000000e+000
    outer loop
      vertex  0.000000e+000 -3.000000e+001  5.000000e+000
      vertex  0.000000e+000 -1.172870e+001  5.000000e+000
      vertex  0.000000e+000 -1.871846e+001  9.595496e-001
    endloop
  endfacet
  facet normal -1.000000e+000  -0.000000e+000  0.000000e+000
    outer loop
      vertex  0.000000e+000 -3.000000e+001  5.000000e+000
      vertex  0.000000e+000 -1.871846e+001  9.595496e-001
      vertex  0.000000e+000 -1.947943e+001  8.775826e-001
    endloop
  endfacet
  facet normal -1.000000e+000  0.000000e+000  0.000000e+000
    outer loop
      vertex  0.000000e+000 -3.000000e+001  5.000000e+000
      vertex  0.000000e+000 -1.947943e+001  8.775826e-001
      vertex  0.000000e+000 -2.271846e+001  9.595496e-001
    endloop
  endfacet
  facet normal -9.999999e-001  -0.000000e+000  0.000000e+000
    outer loop
      vertex  0.000000e+000 -3.000000e+001  5.000000e+000
      vertex  0.000000e+000 -2.271846e+001  9.595496e-001
      vertex  0.000000e+000 -2.347943e+001  8.775826e-001
    endloop
  endfacet
  facet normal -1.000000e+000  0.000000e+000  0.000000e+000
    outer loop
      vertex  0.000000e+000 -3.000000e+001  5.000000e+000
      vertex  0.000000e+000 -2.347943e+001  8.775826e-001
      vertex  0.000000e+000 -2.671846e+001  9.595496e-001
    endloop
  endfacet
  facet normal -9.999999e-001  -0.000000e+000  0.000000e+000
    outer loop
      vertex  0.000000e+000 -3.000000e+001  5.000000e+000
      vertex  0.000000e+000 -2.671846e+001  9.595496e-001
      vertex  0.000000e+000 -2.747943e+001  8.775826e-001
    endloop
  endfacet
  facet normal -9.999999e-001  -0.000000e+000  0.000000e+000
    outer loop
      vertex  0.000000e+000 -3.000000e+001  5.000000e+000
      vertex  0.000000e+000 -2.747943e+001  8.775826e-001
      vertex  0.000000e+000 -2.795955e+001  2.815395e-001
    endloop
  endfacet
  facet normal -1.000000e+000  0.000000e+000  0.000000e+000
    outer loop
      vertex  0.000000e+000 -2.604045e+001 -2.815395e-001
      vertex  0.000000e+000 -2.328154e+001 -9.595496e-001
      vertex  0.000000e+000 -2.652057e+001 -8.775826e-001
    endloop
  endfacet
  facet normal -1.000000e+000  2.657709e-016  1.081456e-015
    outer loop
      vertex  0.000000e+000 -2.328154e+001 -9.595496e-001
      vertex  0.000000e+000 -2.604045e+001 -2.815395e-001
      vertex  3.608225e-016 -2.387758e+001 -4.794255e-001
    endloop
  endfacet
  facet normal -9.999999e-001  2.123005e-016  4.970320e-016
    outer loop
      vertex  3.608225e-016 -2.387758e+001 -4.794255e-001
      vertex  0.000000e+000 -2.604045e+001 -2.815395e-001
      vertex  3.608225e-016 -2.612242e+001  4.794255e-001
    endloop
  endfacet
  facet normal -9.999999e-001 -2.123005e-016 -4.970320e-016
    outer loop
      vertex  3.608225e-016 -2.387758e+001 -4.794255e-001
      vertex  3.608225e-016 -2.612242e+001  4.794255e-001
      vertex  0.000000e+000 -2.395955e+001  2.815395e-001
    endloop
  endfacet
  facet normal -1.000000e+000 -2.657709e-016 -1.081456e-015
    outer loop
      vertex  0.000000e+000 -2.395955e+001  2.815395e-001
      vertex  3.608225e-016 -2.612242e+001  4.794255e-001
      vertex  0.000000e+000 -2.671846e+001  9.595496e-001
    endloop
  endfacet
  facet normal -1.000000e+000  0.000000e+000  0.000000e+000
    outer loop
      vertex  0.000000e+000 -2.395955e+001  2.815395e-001
      vertex  0.000000e+000 -2.671846e+001  9.595496e-001
      vertex  0.000000e+000 -2.347943e+001  8.775826e-001
    endloop
  endfacet
  facet normal -1.000000e+000  0.000000e+000  0.000000e+000
    outer loop
      vertex  0.000000e+000 -2.204045e+001 -2.815395e-001
      vertex  0.000000e+000 -1.928154e+001 -9.595496e-001
      vertex  0.000000e+000 -2.252057e+001 -8.775826e-001
    endloop
  endfacet
  facet normal -1.000000e+000  2.657709e-016  1.081456e-015
    outer loop
      vertex  0.000000e+000 -1.928154e+001 -9.595496e-001
      vertex  0.000000e+000 -2.204045e+001 -2.815395e-001
      vertex  3.608225e-016 -1.987758e+001 -4.794255e-001
    endloop
  endfacet
  facet normal -9.999999e-001  2.123005e-016  4.970320e-016
    outer loop
      vertex  3.608225e-016 -1.987758e+001 -4.794255e-001
      vertex  0.000000e+000 -2.204045e+001 -2.815395e-001
      vertex  3.608225e-016 -2.212242e+001  4.794255e-001
    endloop
  endfacet
  facet normal -9.999999e-001 -2.123005e-016 -4.970320e-016
    outer loop
      vertex  3.608225e-016 -1.987758e+001 -4.794255e-001
      vertex  3.608225e-016 -2.212242e+001  4.794255e-001
      vertex  0.000000e+000 -1.995955e+001  2.815395e-001
    endloop
  endfacet
  facet normal -1.000000e+000 -2.657709e-016 -1.081456e-015
    outer loop
      vertex  0.000000e+000 -1.995955e+001  2.815395e-001
      vertex  3.608225e-016 -2.212242e+001  4.794255e-001
      vertex  0.000000e+000 -2.271846e+001  9.595496e-001
    endloop
  endfacet
  facet normal -1.000000e+000  0.000000e+000  0.000000e+000
    outer loop
      vertex  0.000000e+000 -1.995955e+001  2.815395e-001
      vertex  0.000000e+000 -2.271846e+001  9.595496e-001
      vertex  0.000000e+000 -1.947943e+001  8.775826e-001
    endloop
  endfacet
  facet normal -9.999999e-001  -0.000000e+000  0.000000e+000
    outer loop
      vertex  0.000000e+000 -1.172870e+001  5.000000e+000
      vertex  0.000000e+000 -1.249207e+001  2.551619e+000
      vertex  0.000000e+000 -1.871846e+001  9.595496e-001
    endloop
  endfacet
  facet normal -9.999999e-001  0.000000e+000  0.000000e+000
    outer loop
      vertex  0.000000e+000 -1.871846e+001  9.595496e-001
      vertex  0.000000e+000 -1.249207e+001  2.551619e+000
      vertex  0.000000e+000 -1.275000e+001  1.561425e-015
    endloop
  endfacet
  facet normal -1.000000e+000 -1.509490e-016 -9.389127e-016
    outer loop
      vertex  0.000000e+000 -1.871846e+001  9.595496e-001
      vertex  0.000000e+000 -1.275000e+001  1.561425e-015
      vertex  3.608225e-016 -1.812242e+001  4.794255e-001
    endloop
  endfacet
  facet normal -1.000000e+000 -2.508957e-017  4.714618e-016
    outer loop
      vertex  3.608225e-016 -1.812242e+001  4.794255e-001
      vertex  0.000000e+000 -1.275000e+001  1.561425e-015
      vertex  0.000000e+000 -1.804045e+001 -2.815395e-001
    endloop
  endfacet
  facet normal -1.000000e+000  0.000000e+000  0.000000e+000
    outer loop
      vertex  0.000000e+000 -1.804045e+001 -2.815395e-001
      vertex  0.000000e+000 -1.275000e+001  1.561425e-015
      vertex  0.000000e+000 -1.249207e+001 -2.551619e+000
    endloop
  endfacet
  facet normal -1.000000e+000  0.000000e+000  0.000000e+000
    outer loop
      vertex  0.000000e+000 -1.804045e+001 -2.815395e-001
      vertex  0.000000e+000 -1.249207e+001 -2.551619e+000
      vertex  0.000000e+000 -1.852057e+001 -8.775826e-001
    endloop
  endfacet
  facet normal  0.000000e+000  7.787681e-001 -6.273119e-001
    outer loop
      vertex  0.000000e+000 -1.947943e+001  8.775826e-001
      vertex  2.000000e+000 -1.995955e+001  2.815395e-001
      vertex  0.000000e+000 -1.995955e+001  2.815395e-001
    endloop
  endfacet
  facet normal  -0.000000e+000  9.942489e-001  1.070943e-001
    outer loop
      vertex  0.000000e+000 -1.995955e+001  2.815395e-001
      vertex  2.000000e+000 -1.995955e+001  2.815395e-001
      vertex  2.000000e+000 -1.987758e+001 -4.794255e-001
    endloop
  endfacet
  facet normal  0.000000e+000  9.942489e-001  1.070943e-001
    outer loop
      vertex  0.000000e+000 -1.995955e+001  2.815395e-001
      vertex  2.000000e+000 -1.987758e+001 -4.794255e-001
      vertex  3.608225e-016 -1.987758e+001 -4.794255e-001
    endloop
  endfacet
  facet normal  0.000000e+000  7.787681e-001 -6.273119e-001
    outer loop
      vertex  2.000000e+000 -1.995955e+001  2.815395e-001
      vertex  0.000000e+000 -1.947943e+001  8.775826e-001
      vertex  2.000000e+000 -1.947943e+001  8.775826e-001
    endloop
  endfacet
  facet normal  0.000000e+000  1.070951e-001 -9.942488e-001
    outer loop
      vertex  2.000000e+000 -1.947943e+001  8.775826e-001
      vertex  0.000000e+000 -1.947943e+001  8.775826e-001
      vertex  0.000000e+000 -1.871846e+001  9.595496e-001
    endloop
  endfacet
  facet normal  0.000000e+000  1.070951e-001 -9.942488e-001
    outer loop
      vertex  2.000000e+000 -1.947943e+001  8.775826e-001
      vertex  0.000000e+000 -1.871846e+001  9.595496e-001
      vertex  2.000000e+000 -1.871846e+001  9.595496e-001
    endloop
  endfacet
  facet normal  -0.000000e+000 -6.273125e-001 -7.787675e-001
    outer loop
      vertex  2.000000e+000 -1.871846e+001  9.595496e-001
      vertex  0.000000e+000 -1.871846e+001  9.595496e-001
      vertex  3.608225e-016 -1.812242e+001  4.794255e-001
    endloop
  endfacet
  facet normal  0.000000e+000 -6.273125e-001 -7.787675e-001
    outer loop
      vertex  2.000000e+000 -1.871846e+001  9.595496e-001
      vertex  3.608225e-016 -1.812242e+001  4.794255e-001
      vertex  2.000000e+000 -1.812242e+001  4.794255e-001
    endloop
  endfacet
  facet normal  0.000000e+000 -7.787681e-001  6.273119e-001
    outer loop
      vertex  0.000000e+000 -1.852057e+001 -8.775826e-001
      vertex  2.000000e+000 -1.804045e+001 -2.815395e-001
      vertex  0.000000e+000 -1.804045e+001 -2.815395e-001
    endloop
  endfacet
  facet normal  0.000000e+000 -9.942489e-001 -1.070943e-001
    outer loop
      vertex  0.000000e+000 -1.804045e+001 -2.815395e-001
      vertex  2.000000e+000 -1.804045e+001 -2.815395e-001
      vertex  2.000000e+000 -1.812242e+001  4.794255e-001
    endloop
  endfacet
  facet normal  -0.000000e+000 -9.942489e-001 -1.070943e-001
    outer loop
      vertex  0.000000e+000 -1.804045e+001 -2.815395e-001
      vertex  2.000000e+000 -1.812242e+001  4.794255e-001
      vertex  3.608225e-016 -1.812242e+001  4.794255e-001
    endloop
  endfacet
  facet normal  0.000000e+000 -7.787681e-001  6.273119e-001
    outer loop
      vertex  2.000000e+000 -1.804045e+001 -2.815395e-001
      vertex  0.000000e+000 -1.852057e+001 -8.775826e-001
      vertex  2.000000e+000 -1.852057e+001 -8.775826e-001
    endloop
  endfacet
  facet normal  0.000000e+000 -1.070951e-001  9.942488e-001
    outer loop
      vertex  2.000000e+000 -1.852057e+001 -8.775826e-001
      vertex  0.000000e+000 -1.852057e+001 -8.775826e-001
      vertex  0.000000e+000 -1.928154e+001 -9.595496e-001
    endloop
  endfacet
  facet normal  0.000000e+000 -1.070951e-001  9.942488e-001
    outer loop
      vertex  2.000000e+000 -1.852057e+001 -8.775826e-001
      vertex  0.000000e+000 -1.928154e+001 -9.595496e-001
      vertex  2.000000e+000 -1.928154e+001 -9.595496e-001
    endloop
  endfacet
  facet normal  0.000000e+000  6.273125e-001  7.787675e-001
    outer loop
      vertex  2.000000e+000 -1.928154e+001 -9.595496e-001
      vertex  0.000000e+000 -1.928154e+001 -9.595496e-001
      vertex  3.608225e-016 -1.987758e+001 -4.794255e-001
    endloop
  endfacet
  facet normal  -0.000000e+000  6.273125e-001  7.787675e-001
    outer loop
      vertex  2.000000e+000 -1.928154e+001 -9.595496e-001
      vertex  3.608225e-016 -1.987758e+001 -4.794255e-001
      vertex  2.000000e+000 -1.987758e+001 -4.794255e-001
    endloop
  endfacet
  facet normal  0.000000e+000  7.787681e-001 -6.273119e-001
    outer loop
      vertex  0.000000e+000 -2.347943e+001  8.775826e-001
      vertex  2.000000e+000 -2.395955e+001  2.815395e-001
      vertex  0.000000e+000 -2.395955e+001  2.815395e-001
    endloop
  endfacet
  facet normal  -0.000000e+000  9.942489e-001  1.070943e-001
    outer loop
      vertex  0.000000e+000 -2.395955e+001  2.815395e-001
      vertex  2.000000e+000 -2.395955e+001  2.815395e-001
      vertex  2.000000e+000 -2.387758e+001 -4.794255e-001
    endloop
  endfacet
  facet normal  0.000000e+000  9.942489e-001  1.070943e-001
    outer loop
      vertex  0.000000e+000 -2.395955e+001  2.815395e-001
      vertex  2.000000e+000 -2.387758e+001 -4.794255e-001
      vertex  3.608225e-016 -2.387758e+001 -4.794255e-001
    endloop
  endfacet
  facet normal  0.000000e+000  7.787681e-001 -6.273119e-001
    outer loop
      vertex  2.000000e+000 -2.395955e+001  2.815395e-001
      vertex  0.000000e+000 -2.347943e+001  8.775826e-001
      vertex  2.000000e+000 -2.347943e+001  8.775826e-001
    endloop
  endfacet
  facet normal  0.000000e+000  1.070951e-001 -9.942488e-001
    outer loop
      vertex  2.000000e+000 -2.347943e+001  8.775826e-001
      vertex  0.000000e+000 -2.347943e+001  8.775826e-001
      vertex  0.000000e+000 -2.271846e+001  9.595496e-001
    endloop
  endfacet
  facet normal  0.000000e+000  1.070951e-001 -9.942488e-001
    outer loop
      vertex  2.000000e+000 -2.347943e+001  8.775826e-001
      vertex  0.000000e+000 -2.271846e+001  9.595496e-001
      vertex  2.000000e+000 -2.271846e+001  9.595496e-001
    endloop
  endfacet
  facet normal  -0.000000e+000 -6.273125e-001 -7.787675e-001
    outer loop
      vertex  2.000000e+000 -2.271846e+001  9.595496e-001
      vertex  0.000000e+000 -2.271846e+001  9.595496e-001
      vertex  3.608225e-016 -2.212242e+001  4.794255e-001
    endloop
  endfacet
  facet normal  0.000000e+000 -6.273125e-001 -7.787675e-001
    outer loop
      vertex  2.000000e+000 -2.271846e+001  9.595496e-001
      vertex  3.608225e-016 -2.212242e+001  4.794255e-001
      vertex  2.000000e+000 -2.212242e+001  4.794255e-001
    endloop
  endfacet
  facet normal  0.000000e+000 -7.787681e-001  6.273119e-001
    outer loop
      vertex  0.000000e+000 -2.252057e+001 -8.775826e-001
      vertex  2.000000e+000 -2.204045e+001 -2.815395e-001
      vertex  0.000000e+000 -2.204045e+001 -2.815395e-001
    endloop
  endfacet
  facet normal  0.000000e+000 -9.942489e-001 -1.070943e-001
    outer loop
      vertex  0.000000e+000 -2.204045e+001 -2.815395e-001
      vertex  2.000000e+000 -2.204045e+001 -2.815395e-001
      vertex  2.000000e+000 -2.212242e+001  4.794255e-001
    endloop
  endfacet
  facet normal  -0.000000e+000 -9.942489e-001 -1.070943e-001
    outer loop
      vertex  0.000000e+000 -2.204045e+001 -2.815395e-001
      vertex  2.000000e+000 -2.212242e+001  4.794255e-001
      vertex  3.608225e-016 -2.212242e+001  4.794255e-001
    endloop
  endfacet
  facet normal  0.000000e+000 -7.787681e-001  6.273119e-001
    outer loop
      vertex  2.000000e+000 -2.204045e+001 -2.815395e-001
      vertex  0.000000e+000 -2.252057e+001 -8.775826e-001
      vertex  2.000000e+000 -2.252057e+001 -8.775826e-001
    endloop
  endfacet
  facet normal  0.000000e+000 -1.070951e-001  9.942488e-001
    outer loop
      vertex  2.000000e+000 -2.252057e+001 -8.775826e-001
      vertex  0.000000e+000 -2.252057e+001 -8.775826e-001
      vertex  0.000000e+000 -2.328154e+001 -9.595496e-001
    endloop
  endfacet
  facet normal  0.000000e+000 -1.070951e-001  9.942488e-001
    outer loop
      vertex  2.000000e+000 -2.252057e+001 -8.775826e-001
      vertex  0.000000e+000 -2.328154e+001 -9.595496e-001
      vertex  2.000000e+000 -2.328154e+001 -9.595496e-001
    endloop
  endfacet
  facet normal  0.000000e+000  6.273125e-001  7.787675e-001
    outer loop
      vertex  2.000000e+000 -2.328154e+001 -9.595496e-001
      vertex  0.000000e+000 -2.328154e+001 -9.595496e-001
      vertex  3.608225e-016 -2.387758e+001 -4.794255e-001
    endloop
  endfacet
  facet normal  -0.000000e+000  6.273125e-001  7.787675e-001
    outer loop
      vertex  2.000000e+000 -2.328154e+001 -9.595496e-001
      vertex  3.608225e-016 -2.387758e+001 -4.794255e-001
      vertex  2.000000e+000 -2.387758e+001 -4.794255e-001
    endloop
  endfacet
  facet normal  0.000000e+000  7.787681e-001 -6.273119e-001
    outer loop
      vertex  0.000000e+000 -2.747943e+001  8.775826e-001
      vertex  2.000000e+000 -2.795955e+001  2.815395e-001
      vertex  0.000000e+000 -2.795955e+001  2.815395e-001
    endloop
  endfacet
  facet normal  -0.000000e+000  9.942489e-001  1.070943e-001
    outer loop
      vertex  0.000000e+000 -2.795955e+001  2.815395e-001
      vertex  2.000000e+000 -2.795955e+001  2.815395e-001
      vertex  2.000000e+000 -2.787758e+001 -4.794255e-001
    endloop
  endfacet
  facet normal  0.000000e+000  9.942489e-001  1.070943e-001
    outer loop
      vertex  0.000000e+000 -2.795955e+001  2.815395e-001
      vertex  2.000000e+000 -2.787758e+001 -4.794255e-001
      vertex  3.608225e-016 -2.787758e+001 -4.794255e-001
    endloop
  endfacet
  facet normal  0.000000e+000  7.787681e-001 -6.273119e-001
    outer loop
      vertex  2.000000e+000 -2.795955e+001  2.815395e-001
      vertex  0.000000e+000 -2.747943e+001  8.775826e-001
      vertex  2.000000e+000 -2.747943e+001  8.775826e-001
    endloop
  endfacet
  facet normal  0.000000e+000  1.070951e-001 -9.942488e-001
    outer loop
      vertex  2.000000e+000 -2.747943e+001  8.775826e-001
      vertex  0.000000e+000 -2.747943e+001  8.775826e-001
      vertex  0.000000e+000 -2.671846e+001  9.595496e-001
    endloop
  endfacet
  facet normal  0.000000e+000  1.070951e-001 -9.942488e-001
    outer loop
      vertex  2.000000e+000 -2.747943e+001  8.775826e-001
      vertex  0.000000e+000 -2.671846e+001  9.595496e-001
      vertex  2.000000e+000 -2.671846e+001  9.595496e-001
    endloop
  endfacet
  facet normal  -0.000000e+000 -6.273125e-001 -7.787675e-001
    outer loop
      vertex  2.000000e+000 -2.671846e+001  9.595496e-001
      vertex  0.000000e+000 -2.671846e+001  9.595496e-001
      vertex  3.608225e-016 -2.612242e+001  4.794255e-001
    endloop
  endfacet
  facet normal  0.000000e+000 -6.273125e-001 -7.787675e-001
    outer loop
      vertex  2.000000e+000 -2.671846e+001  9.595496e-001
      vertex  3.608225e-016 -2.612242e+001  4.794255e-001
      vertex  2.000000e+000 -2.612242e+001  4.794255e-001
    endloop
  endfacet
  facet normal  0.000000e+000 -7.787681e-001  6.273119e-001
    outer loop
      vertex  0.000000e+000 -2.652057e+001 -8.775826e-001
      vertex  2.000000e+000 -2.604045e+001 -2.815395e-001
      vertex  0.000000e+000 -2.604045e+001 -2.815395e-001
    endloop
  endfacet
  facet normal  0.000000e+000 -9.942489e-001 -1.070943e-001
    outer loop
      vertex  0.000000e+000 -2.604045e+001 -2.815395e-001
      vertex  2.000000e+000 -2.604045e+001 -2.815395e-001
      vertex  2.000000e+000 -2.612242e+001  4.794255e-001
    endloop
  endfacet
  facet normal  -0.000000e+000 -9.942489e-001 -1.070943e-001
    outer loop
      vertex  0.000000e+000 -2.604045e+001 -2.815395e-001
      vertex  2.000000e+000 -2.612242e+001  4.794255e-001
      vertex  3.608225e-016 -2.612242e+001  4.794255e-001
    endloop
  endfacet
  facet normal  0.000000e+000 -7.787681e-001  6.273119e-001
    outer loop
      vertex  2.000000e+000 -2.604045e+001 -2.815395e-001
      vertex  0.000000e+000 -2.652057e+001 -8.775826e-001
      vertex  2.000000e+000 -2.652057e+001 -8.775826e-001
    endloop
  endfacet
  facet normal  0.000000e+000 -1.070951e-001  9.942488e-001
    outer loop
      vertex  2.000000e+000 -2.652057e+001 -8.775826e-001
      vertex  0.000000e+000 -2.652057e+001 -8.775826e-001
      vertex  0.000000e+000 -2.728154e+001 -9.595496e-001
    endloop
  endfacet
  facet normal  0.000000e+000 -1.070951e-001  9.942488e-001
    outer loop
      vertex  2.000000e+000 -2.652057e+001 -8.775826e-001
      vertex  0.000000e+000 -2.728154e+001 -9.595496e-001
      vertex  2.000000e+000 -2.728154e+001 -9.595496e-001
    endloop
  endfacet
  facet normal  0.000000e+000  6.273125e-001  7.787675e-001
    outer loop
      vertex  2.000000e+000 -2.728154e+001 -9.595496e-001
      vertex  0.000000e+000 -2.728154e+001 -9.595496e-001
      vertex  3.608225e-016 -2.787758e+001 -4.794255e-001
    endloop
  endfacet
  facet normal  -0.000000e+000  6.273125e-001  7.787675e-001
    outer loop
      vertex  2.000000e+000 -2.728154e+001 -9.595496e-001
      vertex  3.608225e-016 -2.787758e+001 -4.794255e-001
      vertex  2.000000e+000 -2.787758e+001 -4.794255e-001
    endloop
  endfacet
  facet normal -1.000000e+000  0.000000e+000  0.000000e+000
    outer loop
      vertex  5.000000e-001 -3.096935e-001 -1.055505e+000
      vertex  5.000000e-001 -1.127631e+001 -4.104242e+000
      vertex  5.000000e-001 -9.653408e-001 -5.273681e-001
    endloop
  endfacet
  facet normal -1.000000e+000  0.000000e+000  0.000000e+000
    outer loop
      vertex  5.000000e-001  1.200000e+001  0.000000e+000
      vertex  5.000000e-001  1.055505e+000 -3.096935e-001
      vertex  5.000000e-001  9.653408e-001  5.273681e-001
    endloop
  endfacet
  facet normal -1.000000e+000  0.000000e+000  -0.000000e+000
    outer loop
      vertex  5.000000e-001  5.273681e-001 -9.653408e-001
      vertex  5.000000e-001  1.055505e+000 -3.096935e-001
      vertex  5.000000e-001  1.200000e+001  0.000000e+000
    endloop
  endfacet
  facet normal -1.000000e+000  0.000000e+000  0.000000e+000
    outer loop
      vertex  5.000000e-001  5.273681e-001 -9.653408e-001
      vertex  5.000000e-001  1.200000e+001  0.000000e+000
      vertex  5.000000e-001  1.127631e+001 -4.104242e+000
    endloop
  endfacet
  facet normal -9.999999e-001  -0.000000e+000  0.000000e+000
    outer loop
      vertex  5.000000e-001  5.273681e-001 -9.653408e-001
      vertex  5.000000e-001  1.127631e+001 -4.104242e+000
      vertex  5.000000e-001  9.192533e+000 -7.713451e+000
    endloop
  endfacet
  facet normal -1.000000e+000  -0.000000e+000  0.000000e+000
    outer loop
      vertex  5.000000e-001  5.273681e-001 -9.653408e-001
      vertex  5.000000e-001  9.192533e+000 -7.713451e+000
      vertex  5.000000e-001  6.000000e+000 -1.039230e+001
    endloop
  endfacet
  facet normal -1.000000e+000  -0.000000e+000  0.000000e+000
    outer loop
      vertex  5.000000e-001  5.273681e-001 -9.653408e-001
      vertex  5.000000e-001  6.000000e+000 -1.039230e+001
      vertex  5.000000e-001  2.083778e+000 -1.181769e+001
    endloop
  endfacet
  facet normal -1.000000e+000  0.000000e+000  -0.000000e+000
    outer loop
      vertex  5.000000e-001 -1.200000e+001  1.469576e-015
      vertex  5.000000e-001 -1.127631e+001  4.104242e+000
      vertex  5.000000e-001 -9.192533e+000  7.713451e+000
    endloop
  endfacet
  facet normal -1.000000e+000  0.000000e+000  -0.000000e+000
    outer loop
      vertex  5.000000e-001 -1.200000e+001  1.469576e-015
      vertex  5.000000e-001 -9.192533e+000  7.713451e+000
      vertex  5.000000e-001 -6.000000e+000  1.039230e+001
    endloop
  endfacet
  facet normal -1.000000e+000  0.000000e+000  -0.000000e+000
    outer loop
      vertex  5.000000e-001 -1.200000e+001  1.469576e-015
      vertex  5.000000e-001 -6.000000e+000  1.039230e+001
      vertex  5.000000e-001 -2.083778e+000  1.181769e+001
    endloop
  endfacet
  facet normal -1.000000e+000  0.000000e+000  -0.000000e+000
    outer loop
      vertex  5.000000e-001 -1.200000e+001  1.469576e-015
      vertex  5.000000e-001 -2.083778e+000  1.181769e+001
      vertex  5.000000e-001  3.096935e-001  1.055505e+000
    endloop
  endfacet
  facet normal -9.999999e-001  0.000000e+000  0.000000e+000
    outer loop
      vertex  5.000000e-001 -1.200000e+001  1.469576e-015
      vertex  5.000000e-001  3.096935e-001  1.055505e+000
      vertex  5.000000e-001 -5.273681e-001  9.653408e-001
    endloop
  endfacet
  facet normal -9.999999e-001  0.000000e+000  0.000000e+000
    outer loop
      vertex  5.000000e-001 -1.200000e+001  1.469576e-015
      vertex  5.000000e-001 -5.273681e-001  9.653408e-001
      vertex  5.000000e-001 -1.055505e+000  3.096935e-001
    endloop
  endfacet
  facet normal -1.000000e+000  0.000000e+000  -0.000000e+000
    outer loop
      vertex  5.000000e-001 -1.200000e+001  1.469576e-015
      vertex  5.000000e-001 -1.055505e+000  3.096935e-001
      vertex  5.000000e-001 -9.653408e-001 -5.273681e-001
    endloop
  endfacet
  facet normal -1.000000e+000  -0.000000e+000  0.000000e+000
    outer loop
      vertex  5.000000e-001 -1.200000e+001  1.469576e-015
      vertex  5.000000e-001 -9.653408e-001 -5.273681e-001
      vertex  5.000000e-001 -1.127631e+001 -4.104242e+000
    endloop
  endfacet
  facet normal -1.000000e+000  0.000000e+000  0.000000e+000
    outer loop
      vertex  5.000000e-001  3.096935e-001  1.055505e+000
      vertex  5.000000e-001 -2.083778e+000  1.181769e+001
      vertex  5.000000e-001  2.083778e+000  1.181769e+001
    endloop
  endfacet
  facet normal -1.000000e+000  0.000000e+000  -0.000000e+000
    outer loop
      vertex  5.000000e-001  3.096935e-001  1.055505e+000
      vertex  5.000000e-001  2.083778e+000  1.181769e+001
      vertex  5.000000e-001  6.000000e+000  1.039230e+001
    endloop
  endfacet
  facet normal -1.000000e+000  0.000000e+000  -0.000000e+000
    outer loop
      vertex  5.000000e-001  3.096935e-001  1.055505e+000
      vertex  5.000000e-001  6.000000e+000  1.039230e+001
      vertex  5.000000e-001  9.192533e+000  7.713451e+000
    endloop
  endfacet
  facet normal -1.000000e+000  0.000000e+000  -0.000000e+000
    outer loop
      vertex  5.000000e-001  3.096935e-001  1.055505e+000
      vertex  5.000000e-001  9.192533e+000  7.713451e+000
      vertex  5.000000e-001  1.127631e+001  4.104242e+000
    endloop
  endfacet
  facet normal -1.000000e+000  0.000000e+000  -0.000000e+000
    outer loop
      vertex  5.000000e-001  3.096935e-001  1.055505e+000
      vertex  5.000000e-001  1.127631e+001  4.104242e+000
      vertex  5.000000e-001  1.200000e+001  0.000000e+000
    endloop
  endfacet
  facet normal -1.000000e+000  0.000000e+000  0.000000e+000
    outer loop
      vertex  5.000000e-001  3.096935e-001  1.055505e+000
      vertex  5.000000e-001  1.200000e+001  0.000000e+000
      vertex  5.000000e-001  9.653408e-001  5.273681e-001
    endloop
  endfacet
  facet normal -1.000000e+000  0.000000e+000  0.000000e+000
    outer loop
      vertex  5.000000e-001 -9.192533e+000 -7.713451e+000
      vertex  5.000000e-001 -1.127631e+001 -4.104242e+000
      vertex  5.000000e-001 -6.000000e+000 -1.039230e+001
    endloop
  endfacet
  facet normal -1.000000e+000  0.000000e+000  0.000000e+000
    outer loop
      vertex  5.000000e-001 -6.000000e+000 -1.039230e+001
      vertex  5.000000e-001 -1.127631e+001 -4.104242e+000
      vertex  5.000000e-001 -3.096935e-001 -1.055505e+000
    endloop
  endfacet
  facet normal -1.000000e+000  0.000000e+000  0.000000e+000
    outer loop
      vertex  5.000000e-001 -6.000000e+000 -1.039230e+001
      vertex  5.000000e-001 -3.096935e-001 -1.055505e+000
      vertex  5.000000e-001 -2.083778e+000 -1.181769e+001
    endloop
  endfacet
  facet normal -1.000000e+000  0.000000e+000  0.000000e+000
    outer loop
      vertex  5.000000e-001 -2.083778e+000 -1.181769e+001
      vertex  5.000000e-001 -3.096935e-001 -1.055505e+000
      vertex  5.000000e-001  5.273681e-001 -9.653408e-001
    endloop
  endfacet
  facet normal -1.000000e+000  0.000000e+000  -0.000000e+000
    outer loop
      vertex  5.000000e-001 -2.083778e+000 -1.181769e+001
      vertex  5.000000e-001  5.273681e-001 -9.653408e-001
      vertex  5.000000e-001  2.083778e+000 -1.181769e+001
    endloop
  endfacet
  facet normal  0.000000e+000  7.787678e-001 -6.273124e-001
    outer loop
      vertex  5.000000e-001 -5.273681e-001  9.653408e-001
      vertex  2.000000e+000 -1.055505e+000  3.096935e-001
      vertex  5.000000e-001 -1.055505e+000  3.096935e-001
    endloop
  endfacet
  facet normal  -0.000000e+000  9.942487e-001  1.070951e-001
    outer loop
      vertex  5.000000e-001 -1.055505e+000  3.096935e-001
      vertex  2.000000e+000 -1.055505e+000  3.096935e-001
      vertex  2.000000e+000 -9.653408e-001 -5.273681e-001
    endloop
  endfacet
  facet normal  0.000000e+000  9.942487e-001  1.070951e-001
    outer loop
      vertex  5.000000e-001 -1.055505e+000  3.096935e-001
      vertex  2.000000e+000 -9.653408e-001 -5.273681e-001
      vertex  5.000000e-001 -9.653408e-001 -5.273681e-001
    endloop
  endfacet
  facet normal  0.000000e+000  7.787678e-001 -6.273124e-001
    outer loop
      vertex  2.000000e+000 -1.055505e+000  3.096935e-001
      vertex  5.000000e-001 -5.273681e-001  9.653408e-001
      vertex  2.000000e+000 -5.273681e-001  9.653408e-001
    endloop
  endfacet
  facet normal  0.000000e+000  1.070951e-001 -9.942487e-001
    outer loop
      vertex  2.000000e+000 -5.273681e-001  9.653408e-001
      vertex  5.000000e-001 -5.273681e-001  9.653408e-001
      vertex  5.000000e-001  3.096935e-001  1.055505e+000
    endloop
  endfacet
  facet normal  0.000000e+000  1.070951e-001 -9.942487e-001
    outer loop
      vertex  2.000000e+000 -5.273681e-001  9.653408e-001
      vertex  5.000000e-001  3.096935e-001  1.055505e+000
      vertex  2.000000e+000  3.096935e-001  1.055505e+000
    endloop
  endfacet
  facet normal  -0.000000e+000 -6.273124e-001 -7.787678e-001
    outer loop
      vertex  2.000000e+000  3.096935e-001  1.055505e+000
      vertex  5.000000e-001  3.096935e-001  1.055505e+000
      vertex  5.000000e-001  9.653408e-001  5.273681e-001
    endloop
  endfacet
  facet normal  0.000000e+000 -6.273124e-001 -7.787678e-001
    outer loop
      vertex  2.000000e+000  3.096935e-001  1.055505e+000
      vertex  5.000000e-001  9.653408e-001  5.273681e-001
      vertex  2.000000e+000  9.653408e-001  5.273681e-001
    endloop
  endfacet
  facet normal  0.000000e+000 -7.787678e-001  6.273124e-001
    outer loop
      vertex  5.000000e-001  5.273681e-001 -9.653408e-001
      vertex  2.000000e+000  1.055505e+000 -3.096935e-001
      vertex  5.000000e-001  1.055505e+000 -3.096935e-001
    endloop
  endfacet
  facet normal  0.000000e+000 -9.942487e-001 -1.070951e-001
    outer loop
      vertex  5.000000e-001  1.055505e+000 -3.096935e-001
      vertex  2.000000e+000  1.055505e+000 -3.096935e-001
      vertex  2.000000e+000  9.653408e-001  5.273681e-001
    endloop
  endfacet
  facet normal  -0.000000e+000 -9.942487e-001 -1.070951e-001
    outer loop
      vertex  5.000000e-001  1.055505e+000 -3.096935e-001
      vertex  2.000000e+000  9.653408e-001  5.273681e-001
      vertex  5.000000e-001  9.653408e-001  5.273681e-001
    endloop
  endfacet
  facet normal  0.000000e+000 -7.787678e-001  6.273124e-001
    outer loop
      vertex  2.000000e+000  1.055505e+000 -3.096935e-001
      vertex  5.000000e-001  5.273681e-001 -9.653408e-001
      vertex  2.000000e+000  5.273681e-001 -9.653408e-001
    endloop
  endfacet
  facet normal  0.000000e+000 -1.070951e-001  9.942487e-001
    outer loop
      vertex  2.000000e+000  5.273681e-001 -9.653408e-001
      vertex  5.000000e-001  5.273681e-001 -9.653408e-001
      vertex  5.000000e-001 -3.096935e-001 -1.055505e+000
    endloop
  endfacet
  facet normal  0.000000e+000 -1.070951e-001  9.942487e-001
    outer loop
      vertex  2.000000e+000  5.273681e-001 -9.653408e-001
      vertex  5.000000e-001 -3.096935e-001 -1.055505e+000
      vertex  2.000000e+000 -3.096935e-001 -1.055505e+000
    endloop
  endfacet
  facet normal  0.000000e+000  6.273124e-001  7.787678e-001
    outer loop
      vertex  2.000000e+000 -3.096935e-001 -1.055505e+000
      vertex  5.000000e-001 -3.096935e-001 -1.055505e+000
      vertex  5.000000e-001 -9.653408e-001 -5.273681e-001
    endloop
  endfacet
  facet normal  -0.000000e+000  6.273124e-001  7.787678e-001
    outer loop
      vertex  2.000000e+000 -3.096935e-001 -1.055505e+000
      vertex  5.000000e-001 -9.653408e-001 -5.273681e-001
      vertex  2.000000e+000 -9.653408e-001 -5.273681e-001
    endloop
  endfacet
  facet normal -1.000000e+000  0.000000e+000  -0.000000e+000
    outer loop
      vertex -1.300000e+001 -6.375000e+000  1.104182e+001
      vertex -1.300000e+001 -2.214014e+000  1.255630e+001
      vertex -1.300000e+001 -2.083778e+000  1.181769e+001
    endloop
  endfacet
  facet normal -1.000000e+000  0.000000e+000  0.000000e+000
    outer loop
      vertex -1.300000e+001 -2.083778e+000  1.181769e+001
      vertex -1.300000e+001 -6.000000e+000  1.039230e+001
      vertex -1.300000e+001 -6.375000e+000  1.104182e+001
    endloop
  endfacet
  facet normal -1.000000e+000  0.000000e+000  -0.000000e+000
    outer loop
      vertex -1.300000e+001 -6.375000e+000  1.104182e+001
      vertex -1.300000e+001 -6.000000e+000  1.039230e+001
      vertex -1.300000e+001 -9.192533e+000  7.713451e+000
    endloop
  endfacet
  facet normal -9.999999e-001  0.000000e+000  0.000000e+000
    outer loop
      vertex -1.300000e+001 -6.375000e+000  1.104182e+001
      vertex -1.300000e+001 -9.192533e+000  7.713451e+000
      vertex -1.300000e+001 -9.767067e+000  8.195542e+000
    endloop
  endfacet
  facet normal -1.000000e+000  0.000000e+000  -0.000000e+000
    outer loop
      vertex -1.300000e+001 -9.767067e+000  8.195542e+000
      vertex -1.300000e+001 -9.192533e+000  7.713451e+000
      vertex -1.300000e+001 -1.127631e+001  4.104242e+000
    endloop
  endfacet
  facet normal -1.000000e+000  0.000000e+000  0.000000e+000
    outer loop
      vertex -1.300000e+001 -9.767067e+000  8.195542e+000
      vertex -1.300000e+001 -1.127631e+001  4.104242e+000
      vertex -1.300000e+001 -1.198108e+001  4.360757e+000
    endloop
  endfacet
  facet normal -1.000000e+000  0.000000e+000  -0.000000e+000
    outer loop
      vertex -1.300000e+001 -1.198108e+001  4.360757e+000
      vertex -1.300000e+001 -1.127631e+001  4.104242e+000
      vertex -1.300000e+001 -1.200000e+001  1.469576e-015
    endloop
  endfacet
  facet normal -1.000000e+000  0.000000e+000  0.000000e+000
    outer loop
      vertex -1.300000e+001 -1.198108e+001  4.360757e+000
      vertex -1.300000e+001 -1.200000e+001  1.469576e-015
      vertex -1.300000e+001 -1.275000e+001  1.561425e-015
    endloop
  endfacet
  facet normal -1.000000e+000  0.000000e+000  0.000000e+000
    outer loop
      vertex -1.300000e+001 -1.275000e+001  1.561425e-015
      vertex -1.300000e+001 -1.200000e+001  1.469576e-015
      vertex -1.300000e+001 -1.127631e+001 -4.104242e+000
    endloop
  endfacet
  facet normal -1.000000e+000  -0.000000e+000  0.000000e+000
    outer loop
      vertex -1.300000e+001 -1.275000e+001  1.561425e-015
      vertex -1.300000e+001 -1.127631e+001 -4.104242e+000
      vertex -1.300000e+001 -1.198108e+001 -4.360757e+000
    endloop
  endfacet
  facet normal -1.000000e+000  0.000000e+000  0.000000e+000
    outer loop
      vertex -1.300000e+001 -1.198108e+001 -4.360757e+000
      vertex -1.300000e+001 -1.127631e+001 -4.104242e+000
      vertex -1.300000e+001 -9.192533e+000 -7.713451e+000
    endloop
  endfacet
  facet normal -9.999999e-001  -0.000000e+000  0.000000e+000
    outer loop
      vertex -1.300000e+001 -1.198108e+001 -4.360757e+000
      vertex -1.300000e+001 -9.192533e+000 -7.713451e+000
      vertex -1.300000e+001 -9.767067e+000 -8.195542e+000
    endloop
  endfacet
  facet normal -1.000000e+000  0.000000e+000  0.000000e+000
    outer loop
      vertex -1.300000e+001 -9.767067e+000 -8.195542e+000
      vertex -1.300000e+001 -9.192533e+000 -7.713451e+000
      vertex -1.300000e+001 -6.000000e+000 -1.039230e+001
    endloop
  endfacet
  facet normal -9.999999e-001  -0.000000e+000  0.000000e+000
    outer loop
      vertex -1.300000e+001 -9.767067e+000 -8.195542e+000
      vertex -1.300000e+001 -6.000000e+000 -1.039230e+001
      vertex -1.300000e+001 -6.375000e+000 -1.104182e+001
    endloop
  endfacet
  facet normal -1.000000e+000  0.000000e+000  0.000000e+000
    outer loop
      vertex -1.300000e+001 -6.375000e+000 -1.104182e+001
      vertex -1.300000e+001 -6.000000e+000 -1.039230e+001
      vertex -1.300000e+001 -2.083778e+000 -1.181769e+001
    endloop
  endfacet
  facet normal -1.000000e+000  -0.000000e+000  0.000000e+000
    outer loop
      vertex -1.300000e+001 -6.375000e+000 -1.104182e+001
      vertex -1.300000e+001 -2.083778e+000 -1.181769e+001
      vertex -1.300000e+001 -2.214014e+000 -1.255630e+001
    endloop
  endfacet
  facet normal -1.000000e+000  0.000000e+000  0.000000e+000
    outer loop
      vertex -1.300000e+001 -2.214014e+000 -1.255630e+001
      vertex -1.300000e+001 -2.083778e+000 -1.181769e+001
      vertex -1.300000e+001  2.083778e+000 -1.181769e+001
    endloop
  endfacet
  facet normal -1.000000e+000  0.000000e+000  -0.000000e+000
    outer loop
      vertex -1.300000e+001 -2.214014e+000 -1.255630e+001
      vertex -1.300000e+001  2.083778e+000 -1.181769e+001
      vertex -1.300000e+001  2.214014e+000 -1.255630e+001
    endloop
  endfacet
  facet normal -1.000000e+000  0.000000e+000  0.000000e+000
    outer loop
      vertex -1.300000e+001  2.214014e+000 -1.255630e+001
      vertex -1.300000e+001  2.083778e+000 -1.181769e+001
      vertex -1.300000e+001  6.000000e+000 -1.039230e+001
    endloop
  endfacet
  facet normal -1.000000e+000  0.000000e+000  -0.000000e+000
    outer loop
      vertex -1.300000e+001  2.214014e+000 -1.255630e+001
      vertex -1.300000e+001  6.000000e+000 -1.039230e+001
      vertex -1.300000e+001  6.375000e+000 -1.104182e+001
    endloop
  endfacet
  facet normal -1.000000e+000  0.000000e+000  0.000000e+000
    outer loop
      vertex -1.300000e+001  6.375000e+000 -1.104182e+001
      vertex -1.300000e+001  6.000000e+000 -1.039230e+001
      vertex -1.300000e+001  9.192533e+000 -7.713451e+000
    endloop
  endfacet
  facet normal -9.999999e-001  0.000000e+000  -0.000000e+000
    outer loop
      vertex -1.300000e+001  6.375000e+000 -1.104182e+001
      vertex -1.300000e+001  9.192533e+000 -7.713451e+000
      vertex -1.300000e+001  9.767067e+000 -8.195542e+000
    endloop
  endfacet
  facet normal -1.000000e+000  0.000000e+000  0.000000e+000
    outer loop
      vertex -1.300000e+001  9.767067e+000 -8.195542e+000
      vertex -1.300000e+001  9.192533e+000 -7.713451e+000
      vertex -1.300000e+001  1.127631e+001 -4.104242e+000
    endloop
  endfacet
  facet normal -1.000000e+000  0.000000e+000  -0.000000e+000
    outer loop
      vertex -1.300000e+001  9.767067e+000 -8.195542e+000
      vertex -1.300000e+001  1.127631e+001 -4.104242e+000
      vertex -1.300000e+001  1.198108e+001 -4.360757e+000
    endloop
  endfacet
  facet normal -1.000000e+000  0.000000e+000  0.000000e+000
    outer loop
      vertex -1.300000e+001  1.198108e+001 -4.360757e+000
      vertex -1.300000e+001  1.127631e+001 -4.104242e+000
      vertex -1.300000e+001  1.200000e+001  0.000000e+000
    endloop
  endfacet
  facet normal -1.000000e+000  0.000000e+000  -0.000000e+000
    outer loop
      vertex -1.300000e+001  1.198108e+001 -4.360757e+000
      vertex -1.300000e+001  1.200000e+001  0.000000e+000
      vertex -1.300000e+001  1.275000e+001  0.000000e+000
    endloop
  endfacet
  facet normal -1.000000e+000  0.000000e+000  0.000000e+000
    outer loop
      vertex -1.300000e+001  1.275000e+001  0.000000e+000
      vertex -1.300000e+001  1.200000e+001  0.000000e+000
      vertex -1.300000e+001  1.127631e+001  4.104242e+000
    endloop
  endfacet
  facet normal -1.000000e+000  0.000000e+000  0.000000e+000
    outer loop
      vertex -1.300000e+001  1.275000e+001  0.000000e+000
      vertex -1.300000e+001  1.127631e+001  4.104242e+000
      vertex -1.300000e+001  1.198108e+001  4.360757e+000
    endloop
  endfacet
  facet normal -1.000000e+000  -0.000000e+000  0.000000e+000
    outer loop
      vertex -1.300000e+001  1.198108e+001  4.360757e+000
      vertex -1.300000e+001  1.127631e+001  4.104242e+000
      vertex -1.300000e+001  9.192533e+000  7.713451e+000
    endloop
  endfacet
  facet normal -9.999999e-001  0.000000e+000  0.000000e+000
    outer loop
      vertex -1.300000e+001  1.198108e+001  4.360757e+000
      vertex -1.300000e+001  9.192533e+000  7.713451e+000
      vertex -1.300000e+001  9.767067e+000  8.195542e+000
    endloop
  endfacet
  facet normal -1.000000e+000  -0.000000e+000  0.000000e+000
    outer loop
      vertex -1.300000e+001  9.767067e+000  8.195542e+000
      vertex -1.300000e+001  9.192533e+000  7.713451e+000
      vertex -1.300000e+001  6.000000e+000  1.039230e+001
    endloop
  endfacet
  facet normal -9.999999e-001  0.000000e+000  0.000000e+000
    outer loop
      vertex -1.300000e+001  9.767067e+000  8.195542e+000
      vertex -1.300000e+001  6.000000e+000  1.039230e+001
      vertex -1.300000e+001  6.375000e+000  1.104182e+001
    endloop
  endfacet
  facet normal -1.000000e+000  -0.000000e+000  0.000000e+000
    outer loop
      vertex -1.300000e+001  6.375000e+000  1.104182e+001
      vertex -1.300000e+001  6.000000e+000  1.039230e+001
      vertex -1.300000e+001  2.083778e+000  1.181769e+001
    endloop
  endfacet
  facet normal -1.000000e+000  0.000000e+000  0.000000e+000
    outer loop
      vertex -1.300000e+001  6.375000e+000  1.104182e+001
      vertex -1.300000e+001  2.083778e+000  1.181769e+001
      vertex -1.300000e+001  2.214014e+000  1.255630e+001
    endloop
  endfacet
  facet normal -1.000000e+000  0.000000e+000  0.000000e+000
    outer loop
      vertex -1.300000e+001  2.214014e+000  1.255630e+001
      vertex -1.300000e+001  2.083778e+000  1.181769e+001
      vertex -1.300000e+001 -2.083778e+000  1.181769e+001
    endloop
  endfacet
  facet normal -1.000000e+000  0.000000e+000  0.000000e+000
    outer loop
      vertex -1.300000e+001  2.214014e+000  1.255630e+001
      vertex -1.300000e+001 -2.083778e+000  1.181769e+001
      vertex -1.300000e+001 -2.214014e+000  1.255630e+001
    endloop
  endfacet
  facet normal  0.000000e+000 -3.420202e-001  9.396927e-001
    outer loop
      vertex -1.300000e+001  2.083778e+000 -1.181769e+001
      vertex  5.000000e-001  6.000000e+000 -1.039230e+001
      vertex -1.300000e+001  6.000000e+000 -1.039230e+001
    endloop
  endfacet
  facet normal  0.000000e+000 -6.427875e-001  7.660445e-001
    outer loop
      vertex -1.300000e+001  6.000000e+000 -1.039230e+001
      vertex  5.000000e-001  6.000000e+000 -1.039230e+001
      vertex  5.000000e-001  9.192533e+000 -7.713451e+000
    endloop
  endfacet
  facet normal  0.000000e+000 -6.427875e-001  7.660445e-001
    outer loop
      vertex -1.300000e+001  6.000000e+000 -1.039230e+001
      vertex  5.000000e-001  9.192533e+000 -7.713451e+000
      vertex -1.300000e+001  9.192533e+000 -7.713451e+000
    endloop
  endfacet
  facet normal  0.000000e+000 -8.660254e-001  5.000001e-001
    outer loop
      vertex -1.300000e+001  9.192533e+000 -7.713451e+000
      vertex  5.000000e-001  9.192533e+000 -7.713451e+000
      vertex  5.000000e-001  1.127631e+001 -4.104242e+000
    endloop
  endfacet
  facet normal  0.000000e+000 -8.660254e-001  5.000001e-001
    outer loop
      vertex -1.300000e+001  9.192533e+000 -7.713451e+000
      vertex  5.000000e-001  1.127631e+001 -4.104242e+000
      vertex -1.300000e+001  1.127631e+001 -4.104242e+000
    endloop
  endfacet
  facet normal  0.000000e+000 -9.848078e-001  1.736481e-001
    outer loop
      vertex -1.300000e+001  1.127631e+001 -4.104242e+000
      vertex  5.000000e-001  1.127631e+001 -4.104242e+000
      vertex  5.000000e-001  1.200000e+001  0.000000e+000
    endloop
  endfacet
  facet normal  0.000000e+000 -9.848078e-001  1.736481e-001
    outer loop
      vertex -1.300000e+001  1.127631e+001 -4.104242e+000
      vertex  5.000000e-001  1.200000e+001  0.000000e+000
      vertex -1.300000e+001  1.200000e+001  0.000000e+000
    endloop
  endfacet
  facet normal  0.000000e+000 -3.420202e-001  9.396927e-001
    outer loop
      vertex  5.000000e-001  6.000000e+000 -1.039230e+001
      vertex -1.300000e+001  2.083778e+000 -1.181769e+001
      vertex  5.000000e-001  2.083778e+000 -1.181769e+001
    endloop
  endfacet
  facet normal  0.000000e+000  0.000000e+000  1.000000e+000
    outer loop
      vertex  5.000000e-001  2.083778e+000 -1.181769e+001
      vertex -1.300000e+001  2.083778e+000 -1.181769e+001
      vertex -1.300000e+001 -2.083778e+000 -1.181769e+001
    endloop
  endfacet
  facet normal  0.000000e+000  0.000000e+000  1.000000e+000
    outer loop
      vertex  5.000000e-001  2.083778e+000 -1.181769e+001
      vertex -1.300000e+001 -2.083778e+000 -1.181769e+001
      vertex  5.000000e-001 -2.083778e+000 -1.181769e+001
    endloop
  endfacet
  facet normal  0.000000e+000  3.420202e-001  9.396927e-001
    outer loop
      vertex  5.000000e-001 -2.083778e+000 -1.181769e+001
      vertex -1.300000e+001 -2.083778e+000 -1.181769e+001
      vertex -1.300000e+001 -6.000000e+000 -1.039230e+001
    endloop
  endfacet
  facet normal  -0.000000e+000  3.420202e-001  9.396927e-001
    outer loop
      vertex  5.000000e-001 -2.083778e+000 -1.181769e+001
      vertex -1.300000e+001 -6.000000e+000 -1.039230e+001
      vertex  5.000000e-001 -6.000000e+000 -1.039230e+001
    endloop
  endfacet
  facet normal  0.000000e+000  6.427875e-001  7.660445e-001
    outer loop
      vertex  5.000000e-001 -6.000000e+000 -1.039230e+001
      vertex -1.300000e+001 -6.000000e+000 -1.039230e+001
      vertex -1.300000e+001 -9.192533e+000 -7.713451e+000
    endloop
  endfacet
  facet normal  -0.000000e+000  6.427875e-001  7.660445e-001
    outer loop
      vertex  5.000000e-001 -6.000000e+000 -1.039230e+001
      vertex -1.300000e+001 -9.192533e+000 -7.713451e+000
      vertex  5.000000e-001 -9.192533e+000 -7.713451e+000
    endloop
  endfacet
  facet normal  0.000000e+000  8.660254e-001  5.000001e-001
    outer loop
      vertex  5.000000e-001 -9.192533e+000 -7.713451e+000
      vertex -1.300000e+001 -9.192533e+000 -7.713451e+000
      vertex -1.300000e+001 -1.127631e+001 -4.104242e+000
    endloop
  endfacet
  facet normal  -0.000000e+000  8.660254e-001  5.000001e-001
    outer loop
      vertex  5.000000e-001 -9.192533e+000 -7.713451e+000
      vertex -1.300000e+001 -1.127631e+001 -4.104242e+000
      vertex  5.000000e-001 -1.127631e+001 -4.104242e+000
    endloop
  endfacet
  facet normal  0.000000e+000  9.848078e-001  1.736481e-001
    outer loop
      vertex  5.000000e-001 -1.127631e+001 -4.104242e+000
      vertex -1.300000e+001 -1.127631e+001 -4.104242e+000
      vertex -1.300000e+001 -1.200000e+001  1.469576e-015
    endloop
  endfacet
  facet normal  -0.000000e+000  9.848078e-001  1.736481e-001
    outer loop
      vertex  5.000000e-001 -1.127631e+001 -4.104242e+000
      vertex -1.300000e+001 -1.200000e+001  1.469576e-015
      vertex  5.000000e-001 -1.200000e+001  1.469576e-015
    endloop
  endfacet
  facet normal  0.000000e+000  3.420202e-001 -9.396927e-001
    outer loop
      vertex -1.300000e+001 -2.083778e+000  1.181769e+001
      vertex  5.000000e-001 -6.000000e+000  1.039230e+001
      vertex -1.300000e+001 -6.000000e+000  1.039230e+001
    endloop
  endfacet
  facet normal  0.000000e+000  6.427875e-001 -7.660445e-001
    outer loop
      vertex -1.300000e+001 -6.000000e+000  1.039230e+001
      vertex  5.000000e-001 -6.000000e+000  1.039230e+001
      vertex  5.000000e-001 -9.192533e+000  7.713451e+000
    endloop
  endfacet
  facet normal  0.000000e+000  6.427875e-001 -7.660445e-001
    outer loop
      vertex -1.300000e+001 -6.000000e+000  1.039230e+001
      vertex  5.000000e-001 -9.192533e+000  7.713451e+000
      vertex -1.300000e+001 -9.192533e+000  7.713451e+000
    endloop
  endfacet
  facet normal  0.000000e+000  8.660254e-001 -5.000001e-001
    outer loop
      vertex -1.300000e+001 -9.192533e+000  7.713451e+000
      vertex  5.000000e-001 -9.192533e+000  7.713451e+000
      vertex  5.000000e-001 -1.127631e+001  4.104242e+000
    endloop
  endfacet
  facet normal  0.000000e+000  8.660254e-001 -5.000001e-001
    outer loop
      vertex -1.300000e+001 -9.192533e+000  7.713451e+000
      vertex  5.000000e-001 -1.127631e+001  4.104242e+000
      vertex -1.300000e+001 -1.127631e+001  4.104242e+000
    endloop
  endfacet
  facet normal  0.000000e+000  9.848078e-001 -1.736481e-001
    outer loop
      vertex -1.300000e+001 -1.127631e+001  4.104242e+000
      vertex  5.000000e-001 -1.127631e+001  4.104242e+000
      vertex  5.000000e-001 -1.200000e+001  1.469576e-015
    endloop
  endfacet
  facet normal  0.000000e+000  9.848078e-001 -1.736481e-001
    outer loop
      vertex -1.300000e+001 -1.127631e+001  4.104242e+000
      vertex  5.000000e-001 -1.200000e+001  1.469576e-015
      vertex -1.300000e+001 -1.200000e+001  1.469576e-015
    endloop
  endfacet
  facet normal  0.000000e+000  3.420202e-001 -9.396927e-001
    outer loop
      vertex  5.000000e-001 -6.000000e+000  1.039230e+001
      vertex -1.300000e+001 -2.083778e+000  1.181769e+001
      vertex  5.000000e-001 -2.083778e+000  1.181769e+001
    endloop
  endfacet
  facet normal  0.000000e+000  0.000000e+000 -1.000000e+000
    outer loop
      vertex  5.000000e-001 -2.083778e+000  1.181769e+001
      vertex -1.300000e+001 -2.083778e+000  1.181769e+001
      vertex -1.300000e+001  2.083778e+000  1.181769e+001
    endloop
  endfacet
  facet normal  0.000000e+000  0.000000e+000 -1.000000e+000
    outer loop
      vertex  5.000000e-001 -2.083778e+000  1.181769e+001
      vertex -1.300000e+001  2.083778e+000  1.181769e+001
      vertex  5.000000e-001  2.083778e+000  1.181769e+001
    endloop
  endfacet
  facet normal  -0.000000e+000 -3.420202e-001 -9.396927e-001
    outer loop
      vertex  5.000000e-001  2.083778e+000  1.181769e+001
      vertex -1.300000e+001  2.083778e+000  1.181769e+001
      vertex -1.300000e+001  6.000000e+000  1.039230e+001
    endloop
  endfacet
  facet normal  0.000000e+000 -3.420202e-001 -9.396927e-001
    outer loop
      vertex  5.000000e-001  2.083778e+000  1.181769e+001
      vertex -1.300000e+001  6.000000e+000  1.039230e+001
      vertex  5.000000e-001  6.000000e+000  1.039230e+001
    endloop
  endfacet
  facet normal  -0.000000e+000 -6.427875e-001 -7.660445e-001
    outer loop
      vertex  5.000000e-001  6.000000e+000  1.039230e+001
      vertex -1.300000e+001  6.000000e+000  1.039230e+001
      vertex -1.300000e+001  9.192533e+000  7.713451e+000
    endloop
  endfacet
  facet normal  0.000000e+000 -6.427875e-001 -7.660445e-001
    outer loop
      vertex  5.000000e-001  6.000000e+000  1.039230e+001
      vertex -1.300000e+001  9.192533e+000  7.713451e+000
      vertex  5.000000e-001  9.192533e+000  7.713451e+000
    endloop
  endfacet
  facet normal  -0.000000e+000 -8.660254e-001 -5.000001e-001
    outer loop
      vertex  5.000000e-001  9.192533e+000  7.713451e+000
      vertex -1.300000e+001  9.192533e+000  7.713451e+000
      vertex -1.300000e+001  1.127631e+001  4.104242e+000
    endloop
  endfacet
  facet normal  0.000000e+000 -8.660254e-001 -5.000001e-001
    outer loop
      vertex  5.000000e-001  9.192533e+000  7.713451e+000
      vertex -1.300000e+001  1.127631e+001  4.104242e+000
      vertex  5.000000e-001  1.127631e+001  4.104242e+000
    endloop
  endfacet
  facet normal  -0.000000e+000 -9.848078e-001 -1.736481e-001
    outer loop
      vertex  5.000000e-001  1.127631e+001  4.104242e+000
      vertex -1.300000e+001  1.127631e+001  4.104242e+000
      vertex -1.300000e+001  1.200000e+001  0.000000e+000
    endloop
  endfacet
  facet normal  0.000000e+000 -9.848078e-001 -1.736481e-001
    outer loop
      vertex  5.000000e-001  1.127631e+001  4.104242e+000
      vertex -1.300000e+001  1.200000e+001  0.000000e+000
      vertex  5.000000e-001  1.200000e+001  0.000000e+000
    endloop
  endfacet
  facet normal -1.913121e-003  8.660239e-001 -4.999991e-001
    outer loop
      vertex -1.300000e+001  1.198108e+001 -4.360757e+000
      vertex  2.000000e+000  9.876630e+000 -8.063168e+000
      vertex -1.300000e+001  9.767067e+000 -8.195542e+000
    endloop
  endfacet
  facet normal  1.875171e-003  6.556000e-001 -7.551060e-001
    outer loop
      vertex -1.300000e+001  9.767067e+000 -8.195542e+000
      vertex  2.000000e+000  9.876630e+000 -8.063168e+000
      vertex  2.000000e+000  6.596903e+000 -1.091070e+001
    endloop
  endfacet
  facet normal -2.812623e-003  6.427850e-001 -7.660414e-001
    outer loop
      vertex -1.300000e+001  9.767067e+000 -8.195542e+000
      vertex  2.000000e+000  6.596903e+000 -1.091070e+001
      vertex -1.300000e+001  6.375000e+000 -1.104182e+001
    endloop
  endfacet
  facet normal  2.755519e-003  3.640845e-001 -9.313619e-001
    outer loop
      vertex -1.300000e+001  6.375000e+000 -1.104182e+001
      vertex  2.000000e+000  6.596903e+000 -1.091070e+001
      vertex  2.000000e+000  2.551619e+000 -1.249207e+001
    endloop
  endfacet
  facet normal -3.673941e-003  3.420178e-001 -9.396863e-001
    outer loop
      vertex -1.300000e+001  6.375000e+000 -1.104182e+001
      vertex  2.000000e+000  2.551619e+000 -1.249207e+001
      vertex -1.300000e+001  2.214014e+000 -1.255630e+001
    endloop
  endfacet
  facet normal  3.597739e-003  3.031900e-002 -9.995338e-001
    outer loop
      vertex -1.300000e+001  2.214014e+000 -1.255630e+001
      vertex  2.000000e+000  2.551619e+000 -1.249207e+001
      vertex  2.000000e+000 -1.789775e+000 -1.262376e+001
    endloop
  endfacet
  facet normal -4.497038e-003  0.000000e+000 -9.999899e-001
    outer loop
      vertex -1.300000e+001  2.214014e+000 -1.255630e+001
      vertex  2.000000e+000 -1.789775e+000 -1.262376e+001
      vertex -1.300000e+001 -2.214014e+000 -1.255630e+001
    endloop
  endfacet
  facet normal  4.401790e-003 -3.069628e-001 -9.517114e-001
    outer loop
      vertex -1.300000e+001 -2.214014e+000 -1.255630e+001
      vertex  2.000000e+000 -1.789775e+000 -1.262376e+001
      vertex  2.000000e+000 -5.923469e+000 -1.129048e+001
    endloop
  endfacet
  facet normal -5.281958e-003 -3.420153e-001 -9.396795e-001
    outer loop
      vertex -1.300000e+001 -2.214014e+000 -1.255630e+001
      vertex  2.000000e+000 -5.923469e+000 -1.129048e+001
      vertex -1.300000e+001 -6.375000e+000 -1.104182e+001
    endloop
  endfacet
  facet normal  5.167558e-003 -6.086199e-001 -7.934451e-001
    outer loop
      vertex -1.300000e+001 -6.375000e+000 -1.104182e+001
      vertex  2.000000e+000 -5.923469e+000 -1.129048e+001
      vertex  2.000000e+000 -9.369758e+000 -8.646974e+000
    endloop
  endfacet
  facet normal -6.028620e-003 -6.427760e-001 -7.660306e-001
    outer loop
      vertex -1.300000e+001 -6.375000e+000 -1.104182e+001
      vertex  2.000000e+000 -9.369758e+000 -8.646974e+000
      vertex -1.300000e+001 -9.767067e+000 -8.195542e+000
    endloop
  endfacet
  facet normal  3.897363e-003 -9.546674e-001 -2.976488e-001
    outer loop
      vertex  0.000000e+000 -1.172870e+001 -5.000000e+000
      vertex  0.000000e+000 -1.249207e+001 -2.551619e+000
      vertex -1.300000e+001 -1.198108e+001 -4.360757e+000
    endloop
  endfacet
  facet normal -7.773379e-003 -8.659992e-001 -4.999848e-001
    outer loop
      vertex  0.000000e+000 -1.172870e+001 -5.000000e+000
      vertex -1.300000e+001 -1.198108e+001 -4.360757e+000
      vertex -1.300000e+001 -9.767067e+000 -8.195542e+000
    endloop
  endfacet
  facet normal  6.004669e-003 -8.411438e-001 -5.407783e-001
    outer loop
      vertex  0.000000e+000 -1.172870e+001 -5.000000e+000
      vertex -1.300000e+001 -9.767067e+000 -8.195542e+000
      vertex  2.000000e+000 -9.369758e+000 -8.646974e+000
    endloop
  endfacet
  facet normal  0.000000e+000 -8.396603e-001 -5.431117e-001
    outer loop
      vertex  0.000000e+000 -1.172870e+001 -5.000000e+000
      vertex  2.000000e+000 -9.369758e+000 -8.646974e+000
      vertex  2.000000e+000 -1.172870e+001 -5.000000e+000
    endloop
  endfacet
  facet normal  0.000000e+000  9.848078e-001 -1.736482e-001
    outer loop
      vertex -1.300000e+001  1.275000e+001  0.000000e+000
      vertex  2.000000e+000  1.275000e+001  0.000000e+000
      vertex -1.300000e+001  1.198108e+001 -4.360757e+000
    endloop
  endfacet
  facet normal -9.946543e-004  9.853868e-001 -1.703289e-001
    outer loop
      vertex -1.300000e+001  1.198108e+001 -4.360757e+000
      vertex  2.000000e+000  1.275000e+001  0.000000e+000
      vertex  2.000000e+000  1.201019e+001 -4.279922e+000
    endloop
  endfacet
  facet normal  9.565778e-004  8.710345e-001 -4.912208e-001
    outer loop
      vertex -1.300000e+001  1.198108e+001 -4.360757e+000
      vertex  2.000000e+000  1.201019e+001 -4.279922e+000
      vertex  2.000000e+000  9.876630e+000 -8.063168e+000
    endloop
  endfacet
  facet normal  0.000000e+000 -9.949297e-001 -1.005733e-001
    outer loop
      vertex  0.000000e+000 -1.275000e+001  1.561425e-015
      vertex -1.300000e+001 -1.275000e+001  1.561425e-015
      vertex  0.000000e+000 -1.249207e+001 -2.551619e+000
    endloop
  endfacet
  facet normal -1.454230e-002 -9.847037e-001 -1.736298e-001
    outer loop
      vertex  0.000000e+000 -1.249207e+001 -2.551619e+000
      vertex -1.300000e+001 -1.275000e+001  1.561425e-015
      vertex -1.300000e+001 -1.198108e+001 -4.360757e+000
    endloop
  endfacet
  facet normal -6.028620e-003 -6.427760e-001  7.660306e-001
    outer loop
      vertex -1.300000e+001 -6.375000e+000  1.104182e+001
      vertex -1.300000e+001 -9.767067e+000  8.195542e+000
      vertex  2.000000e+000 -9.369758e+000  8.646974e+000
    endloop
  endfacet
  facet normal  5.167558e-003 -6.086199e-001  7.934451e-001
    outer loop
      vertex  2.000000e+000 -9.369758e+000  8.646974e+000
      vertex  2.000000e+000 -5.923469e+000  1.129048e+001
      vertex -1.300000e+001 -6.375000e+000  1.104182e+001
    endloop
  endfacet
  facet normal -5.281959e-003 -3.420153e-001  9.396795e-001
    outer loop
      vertex -1.300000e+001 -2.214014e+000  1.255630e+001
      vertex -1.300000e+001 -6.375000e+000  1.104182e+001
      vertex  2.000000e+000 -5.923469e+000  1.129048e+001
    endloop
  endfacet
  facet normal  4.401790e-003 -3.069628e-001  9.517114e-001
    outer loop
      vertex  2.000000e+000 -5.923469e+000  1.129048e+001
      vertex  2.000000e+000 -1.789775e+000  1.262376e+001
      vertex -1.300000e+001 -2.214014e+000  1.255630e+001
    endloop
  endfacet
  facet normal -4.497038e-003  0.000000e+000  9.999899e-001
    outer loop
      vertex -1.300000e+001  2.214014e+000  1.255630e+001
      vertex -1.300000e+001 -2.214014e+000  1.255630e+001
      vertex  2.000000e+000 -1.789775e+000  1.262376e+001
    endloop
  endfacet
  facet normal  3.597739e-003  3.031900e-002  9.995338e-001
    outer loop
      vertex  2.000000e+000 -1.789775e+000  1.262376e+001
      vertex  2.000000e+000  2.551619e+000  1.249207e+001
      vertex -1.300000e+001  2.214014e+000  1.255630e+001
    endloop
  endfacet
  facet normal -3.673941e-003  3.420178e-001  9.396863e-001
    outer loop
      vertex -1.300000e+001  6.375000e+000  1.104182e+001
      vertex -1.300000e+001  2.214014e+000  1.255630e+001
      vertex  2.000000e+000  2.551619e+000  1.249207e+001
    endloop
  endfacet
  facet normal  2.755519e-003  3.640845e-001  9.313619e-001
    outer loop
      vertex  2.000000e+000  2.551619e+000  1.249207e+001
      vertex  2.000000e+000  6.596903e+000  1.091070e+001
      vertex -1.300000e+001  6.375000e+000  1.104182e+001
    endloop
  endfacet
  facet normal -2.812623e-003  6.427850e-001  7.660414e-001
    outer loop
      vertex -1.300000e+001  9.767067e+000  8.195542e+000
      vertex -1.300000e+001  6.375000e+000  1.104182e+001
      vertex  2.000000e+000  6.596903e+000  1.091070e+001
    endloop
  endfacet
  facet normal  1.875171e-003  6.556000e-001  7.551060e-001
    outer loop
      vertex  2.000000e+000  6.596903e+000  1.091070e+001
      vertex  2.000000e+000  9.876630e+000  8.063168e+000
      vertex -1.300000e+001  9.767067e+000  8.195542e+000
    endloop
  endfacet
  facet normal -1.913121e-003  8.660239e-001  4.999991e-001
    outer loop
      vertex -1.300000e+001  1.198108e+001  4.360757e+000
      vertex -1.300000e+001  9.767067e+000  8.195542e+000
      vertex  2.000000e+000  9.876630e+000  8.063168e+000
    endloop
  endfacet
  facet normal  0.000000e+000 -8.396603e-001  5.431117e-001
    outer loop
      vertex  0.000000e+000 -1.172870e+001  5.000000e+000
      vertex  2.000000e+000 -1.172870e+001  5.000000e+000
      vertex  2.000000e+000 -9.369758e+000  8.646974e+000
    endloop
  endfacet
  facet normal  6.004669e-003 -8.411438e-001  5.407783e-001
    outer loop
      vertex  0.000000e+000 -1.172870e+001  5.000000e+000
      vertex  2.000000e+000 -9.369758e+000  8.646974e+000
      vertex -1.300000e+001 -9.767067e+000  8.195542e+000
    endloop
  endfacet
  facet normal -7.773384e-003 -8.659992e-001  4.999848e-001
    outer loop
      vertex  0.000000e+000 -1.172870e+001  5.000000e+000
      vertex -1.300000e+001 -9.767067e+000  8.195542e+000
      vertex -1.300000e+001 -1.198108e+001  4.360757e+000
    endloop
  endfacet
  facet normal  3.897362e-003 -9.546674e-001  2.976488e-001
    outer loop
      vertex  0.000000e+000 -1.172870e+001  5.000000e+000
      vertex -1.300000e+001 -1.198108e+001  4.360757e+000
      vertex  0.000000e+000 -1.249207e+001  2.551619e+000
    endloop
  endfacet
  facet normal -2.510320e-002 -9.946162e-001  1.005416e-001
    outer loop
      vertex  0.000000e+000 -1.249207e+001  2.551619e+000
      vertex -1.300000e+001 -1.198108e+001  4.360757e+000
      vertex  0.000000e+000 -1.275000e+001  1.561425e-015
    endloop
  endfacet
  facet normal  0.000000e+000 -9.848078e-001  1.736482e-001
    outer loop
      vertex  0.000000e+000 -1.275000e+001  1.561425e-015
      vertex -1.300000e+001 -1.198108e+001  4.360757e+000
      vertex -1.300000e+001 -1.275000e+001  1.561425e-015
    endloop
  endfacet
  facet normal  -0.000000e+000  9.853872e-001  1.703289e-001
    outer loop
      vertex  2.000000e+000  1.275000e+001  0.000000e+000
      vertex -1.300000e+001  1.275000e+001  0.000000e+000
      vertex  2.000000e+000  1.201019e+001  4.279922e+000
    endloop
  endfacet
  facet normal -9.756422e-004  9.848073e-001  1.736481e-001
    outer loop
      vertex  2.000000e+000  1.201019e+001  4.279922e+000
      vertex -1.300000e+001  1.275000e+001  0.000000e+000
      vertex -1.300000e+001  1.198108e+001  4.360757e+000
    endloop
  endfacet
  facet normal  9.565777e-004  8.710345e-001  4.912208e-001
    outer loop
      vertex  2.000000e+000  1.201019e+001  4.279922e+000
      vertex -1.300000e+001  1.198108e+001  4.360757e+000
      vertex  2.000000e+000  9.876630e+000  8.063168e+000
    endloop
  endfacet
  facet normal  0.000000e+000  0.000000e+000 -1.000000e+000
    outer loop
      vertex  2.000000e+000 -1.172870e+001 -5.000000e+000
      vertex  2.000000e+000 -3.000000e+001 -5.000000e+000
      vertex  0.000000e+000 -1.172870e+001 -5.000000e+000
    endloop
  endfacet
  facet normal  0.000000e+000  0.000000e+000 -1.000000e+000
    outer loop
      vertex  0.000000e+000 -1.172870e+001 -5.000000e+000
      vertex  2.000000e+000 -3.000000e+001 -5.000000e+000
      vertex  0.000000e+000 -3.000000e+001 -5.000000e+000
    endloop
  endfacet
  facet normal  0.000000e+000  0.000000e+000  1.000000e+000
    outer loop
      vertex  2.000000e+000 -3.000000e+001  5.000000e+000
      vertex  2.000000e+000 -1.172870e+001  5.000000e+000
      vertex  0.000000e+000 -3.000000e+001  5.000000e+000
    endloop
  endfacet
  facet normal  0.000000e+000  0.000000e+000  1.000000e+000
    outer loop
      vertex  0.000000e+000 -3.000000e+001  5.000000e+000
      vertex  2.000000e+000 -1.172870e+001  5.000000e+000
      vertex  0.000000e+000 -1.172870e+001  5.000000e+000
    endloop
  endfacet
  facet normal  0.000000e+000 -1.000000e+000  -0.000000e+000
    outer loop
      vertex  2.000000e+000 -3.000000e+001 -5.000000e+000
      vertex  2.000000e+000 -3.000000e+001  5.000000e+000
      vertex  0.000000e+000 -3.000000e+001 -5.000000e+000
    endloop
  endfacet
  facet normal  0.000000e+000 -1.000000e+000  0.000000e+000
    outer loop
      vertex  0.000000e+000 -3.000000e+001 -5.000000e+000
      vertex  2.000000e+000 -3.000000e+001  5.000000e+000
      vertex  0.000000e+000 -3.000000e+001  5.000000e+000
    endloop
  endfacet
endsolid CATIA STL
