solid CATIA STL
  facet normal -1.000000e+000  0.000000e+000  -0.000000e+000
    outer loop
      vertex  0.000000e+000 -4.326238e+000 -1.331479e+001
      vertex  0.000000e+000 -2.170602e+000 -1.231010e+001
      vertex  0.000000e+000 -2.571758e-015 -1.400000e+001
    endloop
  endfacet
  facet normal -1.000000e+000  0.000000e+000  0.000000e+000
    outer loop
      vertex  0.000000e+000 -2.571758e-015 -1.400000e+001
      vertex  0.000000e+000 -2.170602e+000 -1.231010e+001
      vertex  0.000000e+000  2.170602e+000 -1.231010e+001
    endloop
  endfacet
  facet normal -1.000000e+000  0.000000e+000  -0.000000e+000
    outer loop
      vertex  0.000000e+000 -2.571758e-015 -1.400000e+001
      vertex  0.000000e+000  2.170602e+000 -1.231010e+001
      vertex  0.000000e+000  4.326238e+000 -1.331479e+001
    endloop
  endfacet
  facet normal -1.000000e+000  0.000000e+000  0.000000e+000
    outer loop
      vertex  0.000000e+000  4.326238e+000 -1.331479e+001
      vertex  0.000000e+000  2.170602e+000 -1.231010e+001
      vertex  0.000000e+000  6.250000e+000 -1.082532e+001
    endloop
  endfacet
  facet normal -1.000000e+000  0.000000e+000  -0.000000e+000
    outer loop
      vertex  0.000000e+000  4.326238e+000 -1.331479e+001
      vertex  0.000000e+000  6.250000e+000 -1.082532e+001
      vertex  0.000000e+000  8.228993e+000 -1.132624e+001
    endloop
  endfacet
  facet normal -1.000000e+000  0.000000e+000  0.000000e+000
    outer loop
      vertex  0.000000e+000  8.228993e+000 -1.132624e+001
      vertex  0.000000e+000  6.250000e+000 -1.082532e+001
      vertex  0.000000e+000  9.575556e+000 -8.034845e+000
    endloop
  endfacet
  facet normal -1.000000e+000  0.000000e+000  -0.000000e+000
    outer loop
      vertex  0.000000e+000  8.228993e+000 -1.132624e+001
      vertex  0.000000e+000  9.575556e+000 -8.034845e+000
      vertex  0.000000e+000  1.132624e+001 -8.228993e+000
    endloop
  endfacet
  facet normal -9.999999e-001  0.000000e+000  0.000000e+000
    outer loop
      vertex  0.000000e+000  1.132624e+001 -8.228993e+000
      vertex  0.000000e+000  9.575556e+000 -8.034845e+000
      vertex  0.000000e+000  1.174616e+001 -4.275252e+000
    endloop
  endfacet
  facet normal -1.000000e+000  0.000000e+000  -0.000000e+000
    outer loop
      vertex  0.000000e+000  1.132624e+001 -8.228993e+000
      vertex  0.000000e+000  1.174616e+001 -4.275252e+000
      vertex  0.000000e+000  1.331479e+001 -4.326238e+000
    endloop
  endfacet
  facet normal -1.000000e+000  0.000000e+000  0.000000e+000
    outer loop
      vertex  0.000000e+000  1.331479e+001 -4.326238e+000
      vertex  0.000000e+000  1.174616e+001 -4.275252e+000
      vertex  0.000000e+000  1.250000e+001  0.000000e+000
    endloop
  endfacet
  facet normal -9.999999e-001  0.000000e+000  0.000000e+000
    outer loop
      vertex  0.000000e+000  1.331479e+001 -4.326238e+000
      vertex  0.000000e+000  1.250000e+001  0.000000e+000
      vertex  0.000000e+000  1.400000e+001  0.000000e+000
    endloop
  endfacet
  facet normal -1.000000e+000  0.000000e+000  0.000000e+000
    outer loop
      vertex  0.000000e+000  1.400000e+001  0.000000e+000
      vertex  0.000000e+000  1.250000e+001  0.000000e+000
      vertex  0.000000e+000  1.174616e+001  4.275252e+000
    endloop
  endfacet
  facet normal -1.000000e+000  0.000000e+000  0.000000e+000
    outer loop
      vertex  0.000000e+000  1.400000e+001  0.000000e+000
      vertex  0.000000e+000  1.174616e+001  4.275252e+000
      vertex  0.000000e+000  1.331479e+001  4.326238e+000
    endloop
  endfacet
  facet normal -1.000000e+000  -0.000000e+000  0.000000e+000
    outer loop
      vertex  0.000000e+000  1.331479e+001  4.326238e+000
      vertex  0.000000e+000  1.174616e+001  4.275252e+000
      vertex  0.000000e+000  9.575556e+000  8.034845e+000
    endloop
  endfacet
  facet normal -1.000000e+000  0.000000e+000  0.000000e+000
    outer loop
      vertex  0.000000e+000  1.331479e+001  4.326238e+000
      vertex  0.000000e+000  9.575556e+000  8.034845e+000
      vertex  0.000000e+000  1.132624e+001  8.228993e+000
    endloop
  endfacet
  facet normal -1.000000e+000  -0.000000e+000  0.000000e+000
    outer loop
      vertex  0.000000e+000  1.132624e+001  8.228993e+000
      vertex  0.000000e+000  9.575556e+000  8.034845e+000
      vertex  0.000000e+000  6.250000e+000  1.082532e+001
    endloop
  endfacet
  facet normal -1.000000e+000  0.000000e+000  0.000000e+000
    outer loop
      vertex  0.000000e+000  1.132624e+001  8.228993e+000
      vertex  0.000000e+000  6.250000e+000  1.082532e+001
      vertex  0.000000e+000  8.228993e+000  1.132624e+001
    endloop
  endfacet
  facet normal -1.000000e+000  -0.000000e+000  0.000000e+000
    outer loop
      vertex  0.000000e+000  8.228993e+000  1.132624e+001
      vertex  0.000000e+000  6.250000e+000  1.082532e+001
      vertex  0.000000e+000  2.170602e+000  1.231010e+001
    endloop
  endfacet
  facet normal -1.000000e+000  0.000000e+000  0.000000e+000
    outer loop
      vertex  0.000000e+000  8.228993e+000  1.132624e+001
      vertex  0.000000e+000  2.170602e+000  1.231010e+001
      vertex  0.000000e+000  4.326238e+000  1.331479e+001
    endloop
  endfacet
  facet normal -1.000000e+000  0.000000e+000  0.000000e+000
    outer loop
      vertex  0.000000e+000  4.326238e+000  1.331479e+001
      vertex  0.000000e+000  2.170602e+000  1.231010e+001
      vertex  0.000000e+000 -2.170602e+000  1.231010e+001
    endloop
  endfacet
  facet normal -1.000000e+000  0.000000e+000  0.000000e+000
    outer loop
      vertex  0.000000e+000  4.326238e+000  1.331479e+001
      vertex  0.000000e+000 -2.170602e+000  1.231010e+001
      vertex  0.000000e+000  8.572528e-016  1.400000e+001
    endloop
  endfacet
  facet normal -1.000000e+000  0.000000e+000  0.000000e+000
    outer loop
      vertex  0.000000e+000  8.572528e-016  1.400000e+001
      vertex  0.000000e+000 -2.170602e+000  1.231010e+001
      vertex  0.000000e+000 -4.326238e+000  1.331479e+001
    endloop
  endfacet
  facet normal -1.000000e+000  0.000000e+000  -0.000000e+000
    outer loop
      vertex  0.000000e+000 -4.326238e+000  1.331479e+001
      vertex  0.000000e+000 -2.170602e+000  1.231010e+001
      vertex  0.000000e+000 -6.250000e+000  1.082532e+001
    endloop
  endfacet
  facet normal -1.000000e+000  0.000000e+000  0.000000e+000
    outer loop
      vertex  0.000000e+000 -4.326238e+000  1.331479e+001
      vertex  0.000000e+000 -6.250000e+000  1.082532e+001
      vertex  0.000000e+000 -8.228993e+000  1.132624e+001
    endloop
  endfacet
  facet normal -1.000000e+000  0.000000e+000  -0.000000e+000
    outer loop
      vertex  0.000000e+000 -8.228993e+000  1.132624e+001
      vertex  0.000000e+000 -6.250000e+000  1.082532e+001
      vertex  0.000000e+000 -9.575556e+000  8.034845e+000
    endloop
  endfacet
  facet normal -1.000000e+000  0.000000e+000  0.000000e+000
    outer loop
      vertex  0.000000e+000 -8.228993e+000  1.132624e+001
      vertex  0.000000e+000 -9.575556e+000  8.034845e+000
      vertex  0.000000e+000 -1.132624e+001  8.228993e+000
    endloop
  endfacet
  facet normal -9.999999e-001  0.000000e+000  -0.000000e+000
    outer loop
      vertex  0.000000e+000 -1.132624e+001  8.228993e+000
      vertex  0.000000e+000 -9.575556e+000  8.034845e+000
      vertex  0.000000e+000 -1.174616e+001  4.275252e+000
    endloop
  endfacet
  facet normal -1.000000e+000  0.000000e+000  0.000000e+000
    outer loop
      vertex  0.000000e+000 -1.132624e+001  8.228993e+000
      vertex  0.000000e+000 -1.174616e+001  4.275252e+000
      vertex  0.000000e+000 -1.331479e+001  4.326238e+000
    endloop
  endfacet
  facet normal -1.000000e+000  0.000000e+000  0.000000e+000
    outer loop
      vertex  0.000000e+000 -1.331479e+001  4.326238e+000
      vertex  0.000000e+000 -1.174616e+001  4.275252e+000
      vertex  0.000000e+000 -1.250000e+001  1.530808e-015
    endloop
  endfacet
  facet normal -9.999999e-001  0.000000e+000  0.000000e+000
    outer loop
      vertex  0.000000e+000 -1.331479e+001  4.326238e+000
      vertex  0.000000e+000 -1.250000e+001  1.530808e-015
      vertex  0.000000e+000 -1.400000e+001  1.714506e-015
    endloop
  endfacet
  facet normal -1.000000e+000  0.000000e+000  0.000000e+000
    outer loop
      vertex  0.000000e+000 -1.400000e+001  1.714506e-015
      vertex  0.000000e+000 -1.250000e+001  1.530808e-015
      vertex  0.000000e+000 -1.174616e+001 -4.275252e+000
    endloop
  endfacet
  facet normal -1.000000e+000  -0.000000e+000  0.000000e+000
    outer loop
      vertex  0.000000e+000 -1.400000e+001  1.714506e-015
      vertex  0.000000e+000 -1.174616e+001 -4.275252e+000
      vertex  0.000000e+000 -1.331479e+001 -4.326238e+000
    endloop
  endfacet
  facet normal -1.000000e+000  0.000000e+000  0.000000e+000
    outer loop
      vertex  0.000000e+000 -1.331479e+001 -4.326238e+000
      vertex  0.000000e+000 -1.174616e+001 -4.275252e+000
      vertex  0.000000e+000 -9.575556e+000 -8.034845e+000
    endloop
  endfacet
  facet normal -1.000000e+000  -0.000000e+000  0.000000e+000
    outer loop
      vertex  0.000000e+000 -1.331479e+001 -4.326238e+000
      vertex  0.000000e+000 -9.575556e+000 -8.034845e+000
      vertex  0.000000e+000 -1.132624e+001 -8.228993e+000
    endloop
  endfacet
  facet normal -1.000000e+000  0.000000e+000  0.000000e+000
    outer loop
      vertex  0.000000e+000 -1.132624e+001 -8.228993e+000
      vertex  0.000000e+000 -9.575556e+000 -8.034845e+000
      vertex  0.000000e+000 -6.250000e+000 -1.082532e+001
    endloop
  endfacet
  facet normal -1.000000e+000  -0.000000e+000  0.000000e+000
    outer loop
      vertex  0.000000e+000 -1.132624e+001 -8.228993e+000
      vertex  0.000000e+000 -6.250000e+000 -1.082532e+001
      vertex  0.000000e+000 -8.228993e+000 -1.132624e+001
    endloop
  endfacet
  facet normal -1.000000e+000  0.000000e+000  0.000000e+000
    outer loop
      vertex  0.000000e+000 -8.228993e+000 -1.132624e+001
      vertex  0.000000e+000 -6.250000e+000 -1.082532e+001
      vertex  0.000000e+000 -2.170602e+000 -1.231010e+001
    endloop
  endfacet
  facet normal -1.000000e+000  -0.000000e+000  0.000000e+000
    outer loop
      vertex  0.000000e+000 -8.228993e+000 -1.132624e+001
      vertex  0.000000e+000 -2.170602e+000 -1.231010e+001
      vertex  0.000000e+000 -4.326238e+000 -1.331479e+001
    endloop
  endfacet
  facet normal  0.000000e+000 -3.420201e-001  9.396926e-001
    outer loop
      vertex  0.000000e+000  2.170602e+000 -1.231010e+001
      vertex  2.800000e+001  6.250000e+000 -1.082532e+001
      vertex  0.000000e+000  6.250000e+000 -1.082532e+001
    endloop
  endfacet
  facet normal  0.000000e+000 -6.427875e-001  7.660445e-001
    outer loop
      vertex  0.000000e+000  6.250000e+000 -1.082532e+001
      vertex  2.800000e+001  6.250000e+000 -1.082532e+001
      vertex  2.800000e+001  9.575556e+000 -8.034845e+000
    endloop
  endfacet
  facet normal  0.000000e+000 -6.427875e-001  7.660445e-001
    outer loop
      vertex  0.000000e+000  6.250000e+000 -1.082532e+001
      vertex  2.800000e+001  9.575556e+000 -8.034845e+000
      vertex  0.000000e+000  9.575556e+000 -8.034845e+000
    endloop
  endfacet
  facet normal  0.000000e+000 -8.660255e-001  4.999999e-001
    outer loop
      vertex  0.000000e+000  9.575556e+000 -8.034845e+000
      vertex  2.800000e+001  9.575556e+000 -8.034845e+000
      vertex  2.800000e+001  1.174616e+001 -4.275252e+000
    endloop
  endfacet
  facet normal  0.000000e+000 -8.660255e-001  4.999999e-001
    outer loop
      vertex  0.000000e+000  9.575556e+000 -8.034845e+000
      vertex  2.800000e+001  1.174616e+001 -4.275252e+000
      vertex  0.000000e+000  1.174616e+001 -4.275252e+000
    endloop
  endfacet
  facet normal  0.000000e+000 -9.848077e-001  1.736482e-001
    outer loop
      vertex  0.000000e+000  1.174616e+001 -4.275252e+000
      vertex  2.800000e+001  1.174616e+001 -4.275252e+000
      vertex  2.800000e+001  1.250000e+001  0.000000e+000
    endloop
  endfacet
  facet normal  0.000000e+000 -9.848077e-001  1.736482e-001
    outer loop
      vertex  0.000000e+000  1.174616e+001 -4.275252e+000
      vertex  2.800000e+001  1.250000e+001  0.000000e+000
      vertex  0.000000e+000  1.250000e+001  0.000000e+000
    endloop
  endfacet
  facet normal  0.000000e+000 -3.420201e-001  9.396926e-001
    outer loop
      vertex  2.800000e+001  6.250000e+000 -1.082532e+001
      vertex  0.000000e+000  2.170602e+000 -1.231010e+001
      vertex  2.800000e+001  2.170602e+000 -1.231010e+001
    endloop
  endfacet
  facet normal  0.000000e+000  0.000000e+000  1.000000e+000
    outer loop
      vertex  2.800000e+001  2.170602e+000 -1.231010e+001
      vertex  0.000000e+000  2.170602e+000 -1.231010e+001
      vertex  0.000000e+000 -2.170602e+000 -1.231010e+001
    endloop
  endfacet
  facet normal  0.000000e+000  0.000000e+000  1.000000e+000
    outer loop
      vertex  2.800000e+001  2.170602e+000 -1.231010e+001
      vertex  0.000000e+000 -2.170602e+000 -1.231010e+001
      vertex  2.800000e+001 -2.170602e+000 -1.231010e+001
    endloop
  endfacet
  facet normal  0.000000e+000  3.420201e-001  9.396926e-001
    outer loop
      vertex  2.800000e+001 -2.170602e+000 -1.231010e+001
      vertex  0.000000e+000 -2.170602e+000 -1.231010e+001
      vertex  0.000000e+000 -6.250000e+000 -1.082532e+001
    endloop
  endfacet
  facet normal  -0.000000e+000  3.420201e-001  9.396926e-001
    outer loop
      vertex  2.800000e+001 -2.170602e+000 -1.231010e+001
      vertex  0.000000e+000 -6.250000e+000 -1.082532e+001
      vertex  2.800000e+001 -6.250000e+000 -1.082532e+001
    endloop
  endfacet
  facet normal  0.000000e+000  6.427875e-001  7.660445e-001
    outer loop
      vertex  2.800000e+001 -6.250000e+000 -1.082532e+001
      vertex  0.000000e+000 -6.250000e+000 -1.082532e+001
      vertex  0.000000e+000 -9.575556e+000 -8.034845e+000
    endloop
  endfacet
  facet normal  -0.000000e+000  6.427875e-001  7.660445e-001
    outer loop
      vertex  2.800000e+001 -6.250000e+000 -1.082532e+001
      vertex  0.000000e+000 -9.575556e+000 -8.034845e+000
      vertex  2.800000e+001 -9.575556e+000 -8.034845e+000
    endloop
  endfacet
  facet normal  0.000000e+000  8.660255e-001  4.999999e-001
    outer loop
      vertex  2.800000e+001 -9.575556e+000 -8.034845e+000
      vertex  0.000000e+000 -9.575556e+000 -8.034845e+000
      vertex  0.000000e+000 -1.174616e+001 -4.275252e+000
    endloop
  endfacet
  facet normal  -0.000000e+000  8.660255e-001  4.999999e-001
    outer loop
      vertex  2.800000e+001 -9.575556e+000 -8.034845e+000
      vertex  0.000000e+000 -1.174616e+001 -4.275252e+000
      vertex  2.800000e+001 -1.174616e+001 -4.275252e+000
    endloop
  endfacet
  facet normal  0.000000e+000  9.848077e-001  1.736482e-001
    outer loop
      vertex  2.800000e+001 -1.174616e+001 -4.275252e+000
      vertex  0.000000e+000 -1.174616e+001 -4.275252e+000
      vertex  0.000000e+000 -1.250000e+001  1.530808e-015
    endloop
  endfacet
  facet normal  -0.000000e+000  9.848077e-001  1.736482e-001
    outer loop
      vertex  2.800000e+001 -1.174616e+001 -4.275252e+000
      vertex  0.000000e+000 -1.250000e+001  1.530808e-015
      vertex  2.800000e+001 -1.250000e+001  1.530808e-015
    endloop
  endfacet
  facet normal  0.000000e+000  3.420201e-001 -9.396926e-001
    outer loop
      vertex  0.000000e+000 -2.170602e+000  1.231010e+001
      vertex  2.800000e+001 -6.250000e+000  1.082532e+001
      vertex  0.000000e+000 -6.250000e+000  1.082532e+001
    endloop
  endfacet
  facet normal  0.000000e+000  6.427875e-001 -7.660445e-001
    outer loop
      vertex  0.000000e+000 -6.250000e+000  1.082532e+001
      vertex  2.800000e+001 -6.250000e+000  1.082532e+001
      vertex  2.800000e+001 -9.575556e+000  8.034845e+000
    endloop
  endfacet
  facet normal  0.000000e+000  6.427875e-001 -7.660445e-001
    outer loop
      vertex  0.000000e+000 -6.250000e+000  1.082532e+001
      vertex  2.800000e+001 -9.575556e+000  8.034845e+000
      vertex  0.000000e+000 -9.575556e+000  8.034845e+000
    endloop
  endfacet
  facet normal  0.000000e+000  8.660255e-001 -4.999999e-001
    outer loop
      vertex  0.000000e+000 -9.575556e+000  8.034845e+000
      vertex  2.800000e+001 -9.575556e+000  8.034845e+000
      vertex  2.800000e+001 -1.174616e+001  4.275252e+000
    endloop
  endfacet
  facet normal  0.000000e+000  8.660255e-001 -4.999999e-001
    outer loop
      vertex  0.000000e+000 -9.575556e+000  8.034845e+000
      vertex  2.800000e+001 -1.174616e+001  4.275252e+000
      vertex  0.000000e+000 -1.174616e+001  4.275252e+000
    endloop
  endfacet
  facet normal  0.000000e+000  9.848077e-001 -1.736482e-001
    outer loop
      vertex  0.000000e+000 -1.174616e+001  4.275252e+000
      vertex  2.800000e+001 -1.174616e+001  4.275252e+000
      vertex  2.800000e+001 -1.250000e+001  1.530808e-015
    endloop
  endfacet
  facet normal  0.000000e+000  9.848077e-001 -1.736482e-001
    outer loop
      vertex  0.000000e+000 -1.174616e+001  4.275252e+000
      vertex  2.800000e+001 -1.250000e+001  1.530808e-015
      vertex  0.000000e+000 -1.250000e+001  1.530808e-015
    endloop
  endfacet
  facet normal  0.000000e+000  3.420201e-001 -9.396926e-001
    outer loop
      vertex  2.800000e+001 -6.250000e+000  1.082532e+001
      vertex  0.000000e+000 -2.170602e+000  1.231010e+001
      vertex  2.800000e+001 -2.170602e+000  1.231010e+001
    endloop
  endfacet
  facet normal  0.000000e+000  0.000000e+000 -1.000000e+000
    outer loop
      vertex  2.800000e+001 -2.170602e+000  1.231010e+001
      vertex  0.000000e+000 -2.170602e+000  1.231010e+001
      vertex  0.000000e+000  2.170602e+000  1.231010e+001
    endloop
  endfacet
  facet normal  0.000000e+000  0.000000e+000 -1.000000e+000
    outer loop
      vertex  2.800000e+001 -2.170602e+000  1.231010e+001
      vertex  0.000000e+000  2.170602e+000  1.231010e+001
      vertex  2.800000e+001  2.170602e+000  1.231010e+001
    endloop
  endfacet
  facet normal  -0.000000e+000 -3.420201e-001 -9.396926e-001
    outer loop
      vertex  2.800000e+001  2.170602e+000  1.231010e+001
      vertex  0.000000e+000  2.170602e+000  1.231010e+001
      vertex  0.000000e+000  6.250000e+000  1.082532e+001
    endloop
  endfacet
  facet normal  0.000000e+000 -3.420201e-001 -9.396926e-001
    outer loop
      vertex  2.800000e+001  2.170602e+000  1.231010e+001
      vertex  0.000000e+000  6.250000e+000  1.082532e+001
      vertex  2.800000e+001  6.250000e+000  1.082532e+001
    endloop
  endfacet
  facet normal  -0.000000e+000 -6.427875e-001 -7.660445e-001
    outer loop
      vertex  2.800000e+001  6.250000e+000  1.082532e+001
      vertex  0.000000e+000  6.250000e+000  1.082532e+001
      vertex  0.000000e+000  9.575556e+000  8.034845e+000
    endloop
  endfacet
  facet normal  0.000000e+000 -6.427875e-001 -7.660445e-001
    outer loop
      vertex  2.800000e+001  6.250000e+000  1.082532e+001
      vertex  0.000000e+000  9.575556e+000  8.034845e+000
      vertex  2.800000e+001  9.575556e+000  8.034845e+000
    endloop
  endfacet
  facet normal  -0.000000e+000 -8.660255e-001 -4.999999e-001
    outer loop
      vertex  2.800000e+001  9.575556e+000  8.034845e+000
      vertex  0.000000e+000  9.575556e+000  8.034845e+000
      vertex  0.000000e+000  1.174616e+001  4.275252e+000
    endloop
  endfacet
  facet normal  0.000000e+000 -8.660255e-001 -4.999999e-001
    outer loop
      vertex  2.800000e+001  9.575556e+000  8.034845e+000
      vertex  0.000000e+000  1.174616e+001  4.275252e+000
      vertex  2.800000e+001  1.174616e+001  4.275252e+000
    endloop
  endfacet
  facet normal  -0.000000e+000 -9.848077e-001 -1.736482e-001
    outer loop
      vertex  2.800000e+001  1.174616e+001  4.275252e+000
      vertex  0.000000e+000  1.174616e+001  4.275252e+000
      vertex  0.000000e+000  1.250000e+001  0.000000e+000
    endloop
  endfacet
  facet normal  0.000000e+000 -9.848077e-001 -1.736482e-001
    outer loop
      vertex  2.800000e+001  1.174616e+001  4.275252e+000
      vertex  0.000000e+000  1.250000e+001  0.000000e+000
      vertex  2.800000e+001  1.250000e+001  0.000000e+000
    endloop
  endfacet
  facet normal -1.000000e+000  0.000000e+000  0.000000e+000
    outer loop
      vertex  2.800000e+001  1.250000e+001  0.000000e+000
      vertex  2.800000e+001 -1.174616e+001  4.275252e+000
      vertex  2.800000e+001  1.174616e+001  4.275252e+000
    endloop
  endfacet
  facet normal -1.000000e+000  0.000000e+000  0.000000e+000
    outer loop
      vertex  2.800000e+001  1.174616e+001  4.275252e+000
      vertex  2.800000e+001 -1.174616e+001  4.275252e+000
      vertex  2.800000e+001 -9.575556e+000  8.034845e+000
    endloop
  endfacet
  facet normal -1.000000e+000  0.000000e+000  0.000000e+000
    outer loop
      vertex  2.800000e+001  1.174616e+001  4.275252e+000
      vertex  2.800000e+001 -9.575556e+000  8.034845e+000
      vertex  2.800000e+001  9.575556e+000  8.034845e+000
    endloop
  endfacet
  facet normal -1.000000e+000  0.000000e+000  0.000000e+000
    outer loop
      vertex  2.800000e+001  9.575556e+000  8.034845e+000
      vertex  2.800000e+001 -9.575556e+000  8.034845e+000
      vertex  2.800000e+001 -6.250000e+000  1.082532e+001
    endloop
  endfacet
  facet normal -1.000000e+000  0.000000e+000  0.000000e+000
    outer loop
      vertex  2.800000e+001  9.575556e+000  8.034845e+000
      vertex  2.800000e+001 -6.250000e+000  1.082532e+001
      vertex  2.800000e+001  6.250000e+000  1.082532e+001
    endloop
  endfacet
  facet normal -1.000000e+000  0.000000e+000  0.000000e+000
    outer loop
      vertex  2.800000e+001  6.250000e+000  1.082532e+001
      vertex  2.800000e+001 -6.250000e+000  1.082532e+001
      vertex  2.800000e+001 -2.170602e+000  1.231010e+001
    endloop
  endfacet
  facet normal -1.000000e+000  0.000000e+000  0.000000e+000
    outer loop
      vertex  2.800000e+001  6.250000e+000  1.082532e+001
      vertex  2.800000e+001 -2.170602e+000  1.231010e+001
      vertex  2.800000e+001  2.170602e+000  1.231010e+001
    endloop
  endfacet
  facet normal -9.999999e-001  0.000000e+000  0.000000e+000
    outer loop
      vertex  2.800000e+001 -1.174616e+001  4.275252e+000
      vertex  2.800000e+001  1.250000e+001  0.000000e+000
      vertex  2.800000e+001 -1.250000e+001  1.530808e-015
    endloop
  endfacet
  facet normal -9.999999e-001  0.000000e+000  0.000000e+000
    outer loop
      vertex  2.800000e+001 -1.250000e+001  1.530808e-015
      vertex  2.800000e+001  1.250000e+001  0.000000e+000
      vertex  2.800000e+001  1.174616e+001 -4.275252e+000
    endloop
  endfacet
  facet normal -1.000000e+000  0.000000e+000  0.000000e+000
    outer loop
      vertex  2.800000e+001 -1.250000e+001  1.530808e-015
      vertex  2.800000e+001  1.174616e+001 -4.275252e+000
      vertex  2.800000e+001 -1.174616e+001 -4.275252e+000
    endloop
  endfacet
  facet normal -1.000000e+000  0.000000e+000  0.000000e+000
    outer loop
      vertex  2.800000e+001 -1.174616e+001 -4.275252e+000
      vertex  2.800000e+001  1.174616e+001 -4.275252e+000
      vertex  2.800000e+001  9.575556e+000 -8.034845e+000
    endloop
  endfacet
  facet normal -1.000000e+000  0.000000e+000  0.000000e+000
    outer loop
      vertex  2.800000e+001 -1.174616e+001 -4.275252e+000
      vertex  2.800000e+001  9.575556e+000 -8.034845e+000
      vertex  2.800000e+001 -9.575556e+000 -8.034845e+000
    endloop
  endfacet
  facet normal -1.000000e+000  0.000000e+000  0.000000e+000
    outer loop
      vertex  2.800000e+001 -9.575556e+000 -8.034845e+000
      vertex  2.800000e+001  9.575556e+000 -8.034845e+000
      vertex  2.800000e+001  6.250000e+000 -1.082532e+001
    endloop
  endfacet
  facet normal -1.000000e+000  0.000000e+000  0.000000e+000
    outer loop
      vertex  2.800000e+001 -9.575556e+000 -8.034845e+000
      vertex  2.800000e+001  6.250000e+000 -1.082532e+001
      vertex  2.800000e+001 -6.250000e+000 -1.082532e+001
    endloop
  endfacet
  facet normal -1.000000e+000  0.000000e+000  0.000000e+000
    outer loop
      vertex  2.800000e+001 -6.250000e+000 -1.082532e+001
      vertex  2.800000e+001  6.250000e+000 -1.082532e+001
      vertex  2.800000e+001  2.170602e+000 -1.231010e+001
    endloop
  endfacet
  facet normal -1.000000e+000  0.000000e+000  0.000000e+000
    outer loop
      vertex  2.800000e+001 -6.250000e+000 -1.082532e+001
      vertex  2.800000e+001  2.170602e+000 -1.231010e+001
      vertex  2.800000e+001 -2.170602e+000 -1.231010e+001
    endloop
  endfacet
  facet normal  1.000000e+000  0.000000e+000  0.000000e+000
    outer loop
      vertex  3.000000e+001 -4.326238e+000  1.331479e+001
      vertex  3.000000e+001  4.326238e+000  1.331479e+001
      vertex  3.000000e+001  8.572528e-016  1.400000e+001
    endloop
  endfacet
  facet normal  1.000000e+000  -0.000000e+000  0.000000e+000
    outer loop
      vertex  3.000000e+001  4.326238e+000  1.331479e+001
      vertex  3.000000e+001 -4.326238e+000  1.331479e+001
      vertex  3.000000e+001  8.228993e+000  1.132624e+001
    endloop
  endfacet
  facet normal  1.000000e+000  0.000000e+000  0.000000e+000
    outer loop
      vertex  3.000000e+001  8.228993e+000  1.132624e+001
      vertex  3.000000e+001 -4.326238e+000  1.331479e+001
      vertex  3.000000e+001 -8.228993e+000  1.132624e+001
    endloop
  endfacet
  facet normal  1.000000e+000  -0.000000e+000  0.000000e+000
    outer loop
      vertex  3.000000e+001  8.228993e+000  1.132624e+001
      vertex  3.000000e+001 -8.228993e+000  1.132624e+001
      vertex  3.000000e+001  1.132624e+001  8.228993e+000
    endloop
  endfacet
  facet normal  1.000000e+000  0.000000e+000  0.000000e+000
    outer loop
      vertex  3.000000e+001  1.132624e+001  8.228993e+000
      vertex  3.000000e+001 -8.228993e+000  1.132624e+001
      vertex  3.000000e+001 -1.132624e+001  8.228993e+000
    endloop
  endfacet
  facet normal  1.000000e+000  -0.000000e+000  0.000000e+000
    outer loop
      vertex  3.000000e+001  1.132624e+001  8.228993e+000
      vertex  3.000000e+001 -1.132624e+001  8.228993e+000
      vertex  3.000000e+001  1.331479e+001  4.326238e+000
    endloop
  endfacet
  facet normal  1.000000e+000  0.000000e+000  0.000000e+000
    outer loop
      vertex  3.000000e+001  1.331479e+001  4.326238e+000
      vertex  3.000000e+001 -1.132624e+001  8.228993e+000
      vertex  3.000000e+001 -1.331479e+001  4.326238e+000
    endloop
  endfacet
  facet normal  1.000000e+000  -0.000000e+000  0.000000e+000
    outer loop
      vertex  3.000000e+001  1.331479e+001  4.326238e+000
      vertex  3.000000e+001 -1.331479e+001  4.326238e+000
      vertex  3.000000e+001  1.400000e+001  0.000000e+000
    endloop
  endfacet
  facet normal  1.000000e+000  0.000000e+000  0.000000e+000
    outer loop
      vertex  3.000000e+001  1.400000e+001  0.000000e+000
      vertex  3.000000e+001 -1.331479e+001  4.326238e+000
      vertex  3.000000e+001 -1.400000e+001  1.714506e-015
    endloop
  endfacet
  facet normal  1.000000e+000  0.000000e+000  0.000000e+000
    outer loop
      vertex  3.000000e+001  1.400000e+001  0.000000e+000
      vertex  3.000000e+001 -1.400000e+001  1.714506e-015
      vertex  3.000000e+001  1.331479e+001 -4.326238e+000
    endloop
  endfacet
  facet normal  1.000000e+000  0.000000e+000  0.000000e+000
    outer loop
      vertex  3.000000e+001  1.331479e+001 -4.326238e+000
      vertex  3.000000e+001 -1.400000e+001  1.714506e-015
      vertex  3.000000e+001 -1.331479e+001 -4.326238e+000
    endloop
  endfacet
  facet normal  1.000000e+000  -0.000000e+000  0.000000e+000
    outer loop
      vertex  3.000000e+001  1.331479e+001 -4.326238e+000
      vertex  3.000000e+001 -1.331479e+001 -4.326238e+000
      vertex  3.000000e+001  1.132624e+001 -8.228993e+000
    endloop
  endfacet
  facet normal  1.000000e+000  0.000000e+000  0.000000e+000
    outer loop
      vertex  3.000000e+001  1.132624e+001 -8.228993e+000
      vertex  3.000000e+001 -1.331479e+001 -4.326238e+000
      vertex  3.000000e+001 -1.132624e+001 -8.228993e+000
    endloop
  endfacet
  facet normal  1.000000e+000  -0.000000e+000  0.000000e+000
    outer loop
      vertex  3.000000e+001  1.132624e+001 -8.228993e+000
      vertex  3.000000e+001 -1.132624e+001 -8.228993e+000
      vertex  3.000000e+001  8.228993e+000 -1.132624e+001
    endloop
  endfacet
  facet normal  1.000000e+000  0.000000e+000  0.000000e+000
    outer loop
      vertex  3.000000e+001  8.228993e+000 -1.132624e+001
      vertex  3.000000e+001 -1.132624e+001 -8.228993e+000
      vertex  3.000000e+001 -8.228993e+000 -1.132624e+001
    endloop
  endfacet
  facet normal  1.000000e+000  -0.000000e+000  0.000000e+000
    outer loop
      vertex  3.000000e+001  8.228993e+000 -1.132624e+001
      vertex  3.000000e+001 -8.228993e+000 -1.132624e+001
      vertex  3.000000e+001  4.326238e+000 -1.331479e+001
    endloop
  endfacet
  facet normal  1.000000e+000  0.000000e+000  0.000000e+000
    outer loop
      vertex  3.000000e+001  4.326238e+000 -1.331479e+001
      vertex  3.000000e+001 -8.228993e+000 -1.132624e+001
      vertex  3.000000e+001 -4.326238e+000 -1.331479e+001
    endloop
  endfacet
  facet normal  1.000000e+000  -0.000000e+000  0.000000e+000
    outer loop
      vertex  3.000000e+001  4.326238e+000 -1.331479e+001
      vertex  3.000000e+001 -4.326238e+000 -1.331479e+001
      vertex  3.000000e+001 -2.571758e-015 -1.400000e+001
    endloop
  endfacet
  facet normal  0.000000e+000  9.876883e-001 -1.564344e-001
    outer loop
      vertex  0.000000e+000  1.400000e+001  0.000000e+000
      vertex  3.000000e+001  1.400000e+001  0.000000e+000
      vertex  0.000000e+000  1.331479e+001 -4.326238e+000
    endloop
  endfacet
  facet normal  0.000000e+000  9.876883e-001 -1.564344e-001
    outer loop
      vertex  0.000000e+000  1.331479e+001 -4.326238e+000
      vertex  3.000000e+001  1.400000e+001  0.000000e+000
      vertex  3.000000e+001  1.331479e+001 -4.326238e+000
    endloop
  endfacet
  facet normal  0.000000e+000  8.910064e-001 -4.539906e-001
    outer loop
      vertex  0.000000e+000  1.331479e+001 -4.326238e+000
      vertex  3.000000e+001  1.331479e+001 -4.326238e+000
      vertex  0.000000e+000  1.132624e+001 -8.228993e+000
    endloop
  endfacet
  facet normal  0.000000e+000  8.910064e-001 -4.539906e-001
    outer loop
      vertex  0.000000e+000  1.132624e+001 -8.228993e+000
      vertex  3.000000e+001  1.331479e+001 -4.326238e+000
      vertex  3.000000e+001  1.132624e+001 -8.228993e+000
    endloop
  endfacet
  facet normal  0.000000e+000  7.071067e-001 -7.071067e-001
    outer loop
      vertex  0.000000e+000  1.132624e+001 -8.228993e+000
      vertex  3.000000e+001  1.132624e+001 -8.228993e+000
      vertex  0.000000e+000  8.228993e+000 -1.132624e+001
    endloop
  endfacet
  facet normal  0.000000e+000  7.071067e-001 -7.071067e-001
    outer loop
      vertex  0.000000e+000  8.228993e+000 -1.132624e+001
      vertex  3.000000e+001  1.132624e+001 -8.228993e+000
      vertex  3.000000e+001  8.228993e+000 -1.132624e+001
    endloop
  endfacet
  facet normal  0.000000e+000  4.539906e-001 -8.910064e-001
    outer loop
      vertex  0.000000e+000  8.228993e+000 -1.132624e+001
      vertex  3.000000e+001  8.228993e+000 -1.132624e+001
      vertex  0.000000e+000  4.326238e+000 -1.331479e+001
    endloop
  endfacet
  facet normal  0.000000e+000  4.539906e-001 -8.910064e-001
    outer loop
      vertex  0.000000e+000  4.326238e+000 -1.331479e+001
      vertex  3.000000e+001  8.228993e+000 -1.132624e+001
      vertex  3.000000e+001  4.326238e+000 -1.331479e+001
    endloop
  endfacet
  facet normal  0.000000e+000  1.564344e-001 -9.876883e-001
    outer loop
      vertex  0.000000e+000  4.326238e+000 -1.331479e+001
      vertex  3.000000e+001  4.326238e+000 -1.331479e+001
      vertex  0.000000e+000 -2.571758e-015 -1.400000e+001
    endloop
  endfacet
  facet normal  0.000000e+000  1.564344e-001 -9.876883e-001
    outer loop
      vertex  0.000000e+000 -2.571758e-015 -1.400000e+001
      vertex  3.000000e+001  4.326238e+000 -1.331479e+001
      vertex  3.000000e+001 -2.571758e-015 -1.400000e+001
    endloop
  endfacet
  facet normal  -0.000000e+000 -1.564344e-001 -9.876883e-001
    outer loop
      vertex  0.000000e+000 -2.571758e-015 -1.400000e+001
      vertex  3.000000e+001 -2.571758e-015 -1.400000e+001
      vertex  0.000000e+000 -4.326238e+000 -1.331479e+001
    endloop
  endfacet
  facet normal  0.000000e+000 -1.564344e-001 -9.876883e-001
    outer loop
      vertex  0.000000e+000 -4.326238e+000 -1.331479e+001
      vertex  3.000000e+001 -2.571758e-015 -1.400000e+001
      vertex  3.000000e+001 -4.326238e+000 -1.331479e+001
    endloop
  endfacet
  facet normal  -0.000000e+000 -4.539906e-001 -8.910064e-001
    outer loop
      vertex  0.000000e+000 -4.326238e+000 -1.331479e+001
      vertex  3.000000e+001 -4.326238e+000 -1.331479e+001
      vertex  0.000000e+000 -8.228993e+000 -1.132624e+001
    endloop
  endfacet
  facet normal  0.000000e+000 -4.539906e-001 -8.910064e-001
    outer loop
      vertex  0.000000e+000 -8.228993e+000 -1.132624e+001
      vertex  3.000000e+001 -4.326238e+000 -1.331479e+001
      vertex  3.000000e+001 -8.228993e+000 -1.132624e+001
    endloop
  endfacet
  facet normal  -0.000000e+000 -7.071067e-001 -7.071067e-001
    outer loop
      vertex  0.000000e+000 -8.228993e+000 -1.132624e+001
      vertex  3.000000e+001 -8.228993e+000 -1.132624e+001
      vertex  0.000000e+000 -1.132624e+001 -8.228993e+000
    endloop
  endfacet
  facet normal  0.000000e+000 -7.071067e-001 -7.071067e-001
    outer loop
      vertex  0.000000e+000 -1.132624e+001 -8.228993e+000
      vertex  3.000000e+001 -8.228993e+000 -1.132624e+001
      vertex  3.000000e+001 -1.132624e+001 -8.228993e+000
    endloop
  endfacet
  facet normal  -0.000000e+000 -8.910064e-001 -4.539906e-001
    outer loop
      vertex  0.000000e+000 -1.132624e+001 -8.228993e+000
      vertex  3.000000e+001 -1.132624e+001 -8.228993e+000
      vertex  0.000000e+000 -1.331479e+001 -4.326238e+000
    endloop
  endfacet
  facet normal  0.000000e+000 -8.910064e-001 -4.539906e-001
    outer loop
      vertex  0.000000e+000 -1.331479e+001 -4.326238e+000
      vertex  3.000000e+001 -1.132624e+001 -8.228993e+000
      vertex  3.000000e+001 -1.331479e+001 -4.326238e+000
    endloop
  endfacet
  facet normal  -0.000000e+000 -9.876883e-001 -1.564344e-001
    outer loop
      vertex  0.000000e+000 -1.331479e+001 -4.326238e+000
      vertex  3.000000e+001 -1.331479e+001 -4.326238e+000
      vertex  0.000000e+000 -1.400000e+001  1.714506e-015
    endloop
  endfacet
  facet normal  0.000000e+000 -9.876883e-001 -1.564344e-001
    outer loop
      vertex  0.000000e+000 -1.400000e+001  1.714506e-015
      vertex  3.000000e+001 -1.331479e+001 -4.326238e+000
      vertex  3.000000e+001 -1.400000e+001  1.714506e-015
    endloop
  endfacet
  facet normal  0.000000e+000 -9.876883e-001  1.564344e-001
    outer loop
      vertex  0.000000e+000 -1.400000e+001  1.714506e-015
      vertex  3.000000e+001 -1.400000e+001  1.714506e-015
      vertex  0.000000e+000 -1.331479e+001  4.326238e+000
    endloop
  endfacet
  facet normal  0.000000e+000 -9.876883e-001  1.564344e-001
    outer loop
      vertex  0.000000e+000 -1.331479e+001  4.326238e+000
      vertex  3.000000e+001 -1.400000e+001  1.714506e-015
      vertex  3.000000e+001 -1.331479e+001  4.326238e+000
    endloop
  endfacet
  facet normal  0.000000e+000 -8.910064e-001  4.539906e-001
    outer loop
      vertex  0.000000e+000 -1.331479e+001  4.326238e+000
      vertex  3.000000e+001 -1.331479e+001  4.326238e+000
      vertex  0.000000e+000 -1.132624e+001  8.228993e+000
    endloop
  endfacet
  facet normal  0.000000e+000 -8.910064e-001  4.539906e-001
    outer loop
      vertex  0.000000e+000 -1.132624e+001  8.228993e+000
      vertex  3.000000e+001 -1.331479e+001  4.326238e+000
      vertex  3.000000e+001 -1.132624e+001  8.228993e+000
    endloop
  endfacet
  facet normal  0.000000e+000 -7.071067e-001  7.071067e-001
    outer loop
      vertex  0.000000e+000 -1.132624e+001  8.228993e+000
      vertex  3.000000e+001 -1.132624e+001  8.228993e+000
      vertex  0.000000e+000 -8.228993e+000  1.132624e+001
    endloop
  endfacet
  facet normal  0.000000e+000 -7.071067e-001  7.071067e-001
    outer loop
      vertex  0.000000e+000 -8.228993e+000  1.132624e+001
      vertex  3.000000e+001 -1.132624e+001  8.228993e+000
      vertex  3.000000e+001 -8.228993e+000  1.132624e+001
    endloop
  endfacet
  facet normal  0.000000e+000 -4.539906e-001  8.910064e-001
    outer loop
      vertex  0.000000e+000 -8.228993e+000  1.132624e+001
      vertex  3.000000e+001 -8.228993e+000  1.132624e+001
      vertex  0.000000e+000 -4.326238e+000  1.331479e+001
    endloop
  endfacet
  facet normal  0.000000e+000 -4.539906e-001  8.910064e-001
    outer loop
      vertex  0.000000e+000 -4.326238e+000  1.331479e+001
      vertex  3.000000e+001 -8.228993e+000  1.132624e+001
      vertex  3.000000e+001 -4.326238e+000  1.331479e+001
    endloop
  endfacet
  facet normal  0.000000e+000 -1.564344e-001  9.876883e-001
    outer loop
      vertex  0.000000e+000 -4.326238e+000  1.331479e+001
      vertex  3.000000e+001 -4.326238e+000  1.331479e+001
      vertex  0.000000e+000  8.572528e-016  1.400000e+001
    endloop
  endfacet
  facet normal  0.000000e+000 -1.564344e-001  9.876883e-001
    outer loop
      vertex  0.000000e+000  8.572528e-016  1.400000e+001
      vertex  3.000000e+001 -4.326238e+000  1.331479e+001
      vertex  3.000000e+001  8.572528e-016  1.400000e+001
    endloop
  endfacet
  facet normal  0.000000e+000  1.564344e-001  9.876883e-001
    outer loop
      vertex  0.000000e+000  8.572528e-016  1.400000e+001
      vertex  3.000000e+001  8.572528e-016  1.400000e+001
      vertex  0.000000e+000  4.326238e+000  1.331479e+001
    endloop
  endfacet
  facet normal  -0.000000e+000  1.564344e-001  9.876883e-001
    outer loop
      vertex  0.000000e+000  4.326238e+000  1.331479e+001
      vertex  3.000000e+001  8.572528e-016  1.400000e+001
      vertex  3.000000e+001  4.326238e+000  1.331479e+001
    endloop
  endfacet
  facet normal  0.000000e+000  4.539906e-001  8.910064e-001
    outer loop
      vertex  0.000000e+000  4.326238e+000  1.331479e+001
      vertex  3.000000e+001  4.326238e+000  1.331479e+001
      vertex  0.000000e+000  8.228993e+000  1.132624e+001
    endloop
  endfacet
  facet normal  -0.000000e+000  4.539906e-001  8.910064e-001
    outer loop
      vertex  0.000000e+000  8.228993e+000  1.132624e+001
      vertex  3.000000e+001  4.326238e+000  1.331479e+001
      vertex  3.000000e+001  8.228993e+000  1.132624e+001
    endloop
  endfacet
  facet normal  0.000000e+000  7.071067e-001  7.071067e-001
    outer loop
      vertex  0.000000e+000  8.228993e+000  1.132624e+001
      vertex  3.000000e+001  8.228993e+000  1.132624e+001
      vertex  0.000000e+000  1.132624e+001  8.228993e+000
    endloop
  endfacet
  facet normal  -0.000000e+000  7.071067e-001  7.071067e-001
    outer loop
      vertex  0.000000e+000  1.132624e+001  8.228993e+000
      vertex  3.000000e+001  8.228993e+000  1.132624e+001
      vertex  3.000000e+001  1.132624e+001  8.228993e+000
    endloop
  endfacet
  facet normal  0.000000e+000  8.910064e-001  4.539906e-001
    outer loop
      vertex  0.000000e+000  1.132624e+001  8.228993e+000
      vertex  3.000000e+001  1.132624e+001  8.228993e+000
      vertex  0.000000e+000  1.331479e+001  4.326238e+000
    endloop
  endfacet
  facet normal  -0.000000e+000  8.910064e-001  4.539906e-001
    outer loop
      vertex  0.000000e+000  1.331479e+001  4.326238e+000
      vertex  3.000000e+001  1.132624e+001  8.228993e+000
      vertex  3.000000e+001  1.331479e+001  4.326238e+000
    endloop
  endfacet
  facet normal  0.000000e+000  9.876883e-001  1.564344e-001
    outer loop
      vertex  0.000000e+000  1.331479e+001  4.326238e+000
      vertex  3.000000e+001  1.331479e+001  4.326238e+000
      vertex  0.000000e+000  1.400000e+001  0.000000e+000
    endloop
  endfacet
  facet normal  -0.000000e+000  9.876883e-001  1.564344e-001
    outer loop
      vertex  0.000000e+000  1.400000e+001  0.000000e+000
      vertex  3.000000e+001  1.331479e+001  4.326238e+000
      vertex  3.000000e+001  1.400000e+001  0.000000e+000
    endloop
  endfacet
endsolid CATIA STL
