solid CATIA STL
  facet normal  1.000000e+000  0.000000e+000  0.000000e+000
    outer loop
      vertex  1.150000e+001  2.000000e+001 -6.500000e+000
      vertex  1.150000e+001  1.778599e+001 -7.443701e+000
      vertex  1.150000e+001  2.417173e+001 -7.160737e+000
    endloop
  endfacet
  facet normal  1.000000e+000  0.000000e+000  0.000000e+000
    outer loop
      vertex  1.150000e+001  2.417173e+001 -7.160737e+000
      vertex  1.150000e+001  1.778599e+001 -7.443701e+000
      vertex  1.150000e+001  2.221401e+001 -7.443701e+000
    endloop
  endfacet
  facet normal  1.000000e+000  -0.000000e+000  0.000000e+000
    outer loop
      vertex  1.150000e+001  2.417173e+001 -7.160737e+000
      vertex  1.150000e+001  2.221401e+001 -7.443701e+000
      vertex  1.150000e+001  2.793510e+001 -9.078271e+000
    endloop
  endfacet
  facet normal  1.000000e+000  0.000000e+000  0.000000e+000
    outer loop
      vertex  1.150000e+001  2.793510e+001 -9.078271e+000
      vertex  1.150000e+001  2.221401e+001 -7.443701e+000
      vertex  1.150000e+001  2.637500e+001 -8.958176e+000
    endloop
  endfacet
  facet normal  1.000000e+000  0.000000e+000  0.000000e+000
    outer loop
      vertex  1.150000e+001  2.793510e+001 -9.078271e+000
      vertex  1.150000e+001  2.637500e+001 -8.958176e+000
      vertex  1.150000e+001  3.092173e+001 -1.206490e+001
    endloop
  endfacet
  facet normal  1.000000e+000  0.000000e+000  0.000000e+000
    outer loop
      vertex  1.150000e+001  3.092173e+001 -1.206490e+001
      vertex  1.150000e+001  2.637500e+001 -8.958176e+000
      vertex  1.150000e+001  2.976707e+001 -1.180446e+001
    endloop
  endfacet
  facet normal  9.999999e-001  0.000000e+000  0.000000e+000
    outer loop
      vertex  1.150000e+001  3.092173e+001 -1.206490e+001
      vertex  1.150000e+001  2.976707e+001 -1.180446e+001
      vertex  1.150000e+001  3.283926e+001 -1.582827e+001
    endloop
  endfacet
  facet normal  1.000000e+000  0.000000e+000  0.000000e+000
    outer loop
      vertex  1.150000e+001  3.283926e+001 -1.582827e+001
      vertex  1.150000e+001  2.976707e+001 -1.180446e+001
      vertex  1.150000e+001  3.198108e+001 -1.563924e+001
    endloop
  endfacet
  facet normal  1.000000e+000  0.000000e+000  0.000000e+000
    outer loop
      vertex  1.150000e+001  3.283926e+001 -1.582827e+001
      vertex  1.150000e+001  3.198108e+001 -1.563924e+001
      vertex  1.150000e+001  3.350000e+001 -2.000000e+001
    endloop
  endfacet
  facet normal  1.000000e+000  0.000000e+000  0.000000e+000
    outer loop
      vertex  1.150000e+001  3.350000e+001 -2.000000e+001
      vertex  1.150000e+001  3.198108e+001 -1.563924e+001
      vertex  1.150000e+001  3.275000e+001 -2.000000e+001
    endloop
  endfacet
  facet normal  1.000000e+000  -0.000000e+000  0.000000e+000
    outer loop
      vertex  1.150000e+001  3.350000e+001 -2.000000e+001
      vertex  1.150000e+001  3.275000e+001 -2.000000e+001
      vertex  1.150000e+001  3.283926e+001 -2.417173e+001
    endloop
  endfacet
  facet normal  1.000000e+000  0.000000e+000  0.000000e+000
    outer loop
      vertex  1.150000e+001  3.283926e+001 -2.417173e+001
      vertex  1.150000e+001  3.275000e+001 -2.000000e+001
      vertex  1.150000e+001  3.198108e+001 -2.436076e+001
    endloop
  endfacet
  facet normal  1.000000e+000  -0.000000e+000  0.000000e+000
    outer loop
      vertex  1.150000e+001  3.283926e+001 -2.417173e+001
      vertex  1.150000e+001  3.198108e+001 -2.436076e+001
      vertex  1.150000e+001  3.092173e+001 -2.793510e+001
    endloop
  endfacet
  facet normal  1.000000e+000  0.000000e+000  -0.000000e+000
    outer loop
      vertex  1.150000e+001  3.092173e+001 -2.793510e+001
      vertex  1.150000e+001  3.198108e+001 -2.436076e+001
      vertex  1.150000e+001  2.976707e+001 -2.819554e+001
    endloop
  endfacet
  facet normal  9.999999e-001  -0.000000e+000  0.000000e+000
    outer loop
      vertex  1.150000e+001  3.092173e+001 -2.793510e+001
      vertex  1.150000e+001  2.976707e+001 -2.819554e+001
      vertex  1.150000e+001  2.793510e+001 -3.092173e+001
    endloop
  endfacet
  facet normal  1.000000e+000  0.000000e+000  -0.000000e+000
    outer loop
      vertex  1.150000e+001  2.793510e+001 -3.092173e+001
      vertex  1.150000e+001  2.976707e+001 -2.819554e+001
      vertex  1.150000e+001  2.637500e+001 -3.104182e+001
    endloop
  endfacet
  facet normal  1.000000e+000  -0.000000e+000  0.000000e+000
    outer loop
      vertex  1.150000e+001  2.793510e+001 -3.092173e+001
      vertex  1.150000e+001  2.637500e+001 -3.104182e+001
      vertex  1.150000e+001  2.417173e+001 -3.283926e+001
    endloop
  endfacet
  facet normal  1.000000e+000  0.000000e+000  -0.000000e+000
    outer loop
      vertex  1.150000e+001  2.417173e+001 -3.283926e+001
      vertex  1.150000e+001  2.637500e+001 -3.104182e+001
      vertex  1.150000e+001  2.221401e+001 -3.255630e+001
    endloop
  endfacet
  facet normal  1.000000e+000  0.000000e+000  0.000000e+000
    outer loop
      vertex  1.150000e+001  2.417173e+001 -3.283926e+001
      vertex  1.150000e+001  2.221401e+001 -3.255630e+001
      vertex  1.150000e+001  2.000000e+001 -3.350000e+001
    endloop
  endfacet
  facet normal  1.000000e+000  0.000000e+000  -0.000000e+000
    outer loop
      vertex  1.150000e+001  2.000000e+001 -3.350000e+001
      vertex  1.150000e+001  2.221401e+001 -3.255630e+001
      vertex  1.150000e+001  1.778599e+001 -3.255630e+001
    endloop
  endfacet
  facet normal  1.000000e+000  0.000000e+000  0.000000e+000
    outer loop
      vertex  1.150000e+001  2.000000e+001 -3.350000e+001
      vertex  1.150000e+001  1.778599e+001 -3.255630e+001
      vertex  1.150000e+001  1.582827e+001 -3.283926e+001
    endloop
  endfacet
  facet normal  1.000000e+000  0.000000e+000  0.000000e+000
    outer loop
      vertex  1.150000e+001  1.582827e+001 -3.283926e+001
      vertex  1.150000e+001  1.778599e+001 -3.255630e+001
      vertex  1.150000e+001  1.206490e+001 -3.092173e+001
    endloop
  endfacet
  facet normal  1.000000e+000  0.000000e+000  0.000000e+000
    outer loop
      vertex  1.150000e+001  1.206490e+001 -3.092173e+001
      vertex  1.150000e+001  1.778599e+001 -3.255630e+001
      vertex  1.150000e+001  1.362500e+001 -3.104182e+001
    endloop
  endfacet
  facet normal  1.000000e+000  0.000000e+000  0.000000e+000
    outer loop
      vertex  1.150000e+001  1.206490e+001 -3.092173e+001
      vertex  1.150000e+001  1.362500e+001 -3.104182e+001
      vertex  1.150000e+001  9.078271e+000 -2.793510e+001
    endloop
  endfacet
  facet normal  1.000000e+000  0.000000e+000  0.000000e+000
    outer loop
      vertex  1.150000e+001  9.078271e+000 -2.793510e+001
      vertex  1.150000e+001  1.362500e+001 -3.104182e+001
      vertex  1.150000e+001  1.023293e+001 -2.819554e+001
    endloop
  endfacet
  facet normal  1.000000e+000  0.000000e+000  0.000000e+000
    outer loop
      vertex  1.150000e+001  9.078271e+000 -2.793510e+001
      vertex  1.150000e+001  1.023293e+001 -2.819554e+001
      vertex  1.150000e+001  7.160737e+000 -2.417173e+001
    endloop
  endfacet
  facet normal  1.000000e+000  0.000000e+000  0.000000e+000
    outer loop
      vertex  1.150000e+001  7.160737e+000 -2.417173e+001
      vertex  1.150000e+001  1.023293e+001 -2.819554e+001
      vertex  1.150000e+001  8.018919e+000 -2.436076e+001
    endloop
  endfacet
  facet normal  1.000000e+000  0.000000e+000  0.000000e+000
    outer loop
      vertex  1.150000e+001  7.160737e+000 -2.417173e+001
      vertex  1.150000e+001  8.018919e+000 -2.436076e+001
      vertex  1.150000e+001  6.500000e+000 -2.000000e+001
    endloop
  endfacet
  facet normal  9.999999e-001  -0.000000e+000  0.000000e+000
    outer loop
      vertex  1.150000e+001  6.500000e+000 -2.000000e+001
      vertex  1.150000e+001  8.018919e+000 -2.436076e+001
      vertex  1.150000e+001  7.250000e+000 -2.000000e+001
    endloop
  endfacet
  facet normal  1.000000e+000  0.000000e+000  0.000000e+000
    outer loop
      vertex  1.150000e+001  6.500000e+000 -2.000000e+001
      vertex  1.150000e+001  7.250000e+000 -2.000000e+001
      vertex  1.150000e+001  7.160737e+000 -1.582827e+001
    endloop
  endfacet
  facet normal  1.000000e+000  -0.000000e+000  0.000000e+000
    outer loop
      vertex  1.150000e+001  7.160737e+000 -1.582827e+001
      vertex  1.150000e+001  7.250000e+000 -2.000000e+001
      vertex  1.150000e+001  8.018919e+000 -1.563924e+001
    endloop
  endfacet
  facet normal  9.999999e-001  0.000000e+000  -0.000000e+000
    outer loop
      vertex  1.150000e+001  7.160737e+000 -1.582827e+001
      vertex  1.150000e+001  8.018919e+000 -1.563924e+001
      vertex  1.150000e+001  9.078271e+000 -1.206490e+001
    endloop
  endfacet
  facet normal  1.000000e+000  -0.000000e+000  0.000000e+000
    outer loop
      vertex  1.150000e+001  9.078271e+000 -1.206490e+001
      vertex  1.150000e+001  8.018919e+000 -1.563924e+001
      vertex  1.150000e+001  1.023293e+001 -1.180446e+001
    endloop
  endfacet
  facet normal  1.000000e+000  0.000000e+000  -0.000000e+000
    outer loop
      vertex  1.150000e+001  9.078271e+000 -1.206490e+001
      vertex  1.150000e+001  1.023293e+001 -1.180446e+001
      vertex  1.150000e+001  1.206490e+001 -9.078271e+000
    endloop
  endfacet
  facet normal  1.000000e+000  -0.000000e+000  0.000000e+000
    outer loop
      vertex  1.150000e+001  1.206490e+001 -9.078271e+000
      vertex  1.150000e+001  1.023293e+001 -1.180446e+001
      vertex  1.150000e+001  1.362500e+001 -8.958176e+000
    endloop
  endfacet
  facet normal  1.000000e+000  0.000000e+000  -0.000000e+000
    outer loop
      vertex  1.150000e+001  1.206490e+001 -9.078271e+000
      vertex  1.150000e+001  1.362500e+001 -8.958176e+000
      vertex  1.150000e+001  1.582827e+001 -7.160737e+000
    endloop
  endfacet
  facet normal  1.000000e+000  0.000000e+000  0.000000e+000
    outer loop
      vertex  1.150000e+001  1.582827e+001 -7.160737e+000
      vertex  1.150000e+001  1.362500e+001 -8.958176e+000
      vertex  1.150000e+001  1.778599e+001 -7.443701e+000
    endloop
  endfacet
  facet normal  1.000000e+000  0.000000e+000  -0.000000e+000
    outer loop
      vertex  1.150000e+001  1.582827e+001 -7.160737e+000
      vertex  1.150000e+001  1.778599e+001 -7.443701e+000
      vertex  1.150000e+001  2.000000e+001 -6.500000e+000
    endloop
  endfacet
  facet normal  0.000000e+000 -3.420197e-001  9.396927e-001
    outer loop
      vertex  1.500000e+000  2.221401e+001 -3.255630e+001
      vertex  1.150000e+001  2.637500e+001 -3.104182e+001
      vertex  1.500000e+000  2.637500e+001 -3.104182e+001
    endloop
  endfacet
  facet normal  0.000000e+000 -6.427877e-001  7.660443e-001
    outer loop
      vertex  1.500000e+000  2.637500e+001 -3.104182e+001
      vertex  1.150000e+001  2.637500e+001 -3.104182e+001
      vertex  1.150000e+001  2.976707e+001 -2.819554e+001
    endloop
  endfacet
  facet normal  0.000000e+000 -6.427877e-001  7.660443e-001
    outer loop
      vertex  1.500000e+000  2.637500e+001 -3.104182e+001
      vertex  1.150000e+001  2.976707e+001 -2.819554e+001
      vertex  1.500000e+000  2.976707e+001 -2.819554e+001
    endloop
  endfacet
  facet normal  0.000000e+000 -8.660254e-001  5.000000e-001
    outer loop
      vertex  1.500000e+000  2.976707e+001 -2.819554e+001
      vertex  1.150000e+001  2.976707e+001 -2.819554e+001
      vertex  1.150000e+001  3.198108e+001 -2.436076e+001
    endloop
  endfacet
  facet normal  0.000000e+000 -8.660254e-001  5.000000e-001
    outer loop
      vertex  1.500000e+000  2.976707e+001 -2.819554e+001
      vertex  1.150000e+001  3.198108e+001 -2.436076e+001
      vertex  1.500000e+000  3.198108e+001 -2.436076e+001
    endloop
  endfacet
  facet normal  0.000000e+000 -9.848077e-001  1.736482e-001
    outer loop
      vertex  1.500000e+000  3.198108e+001 -2.436076e+001
      vertex  1.150000e+001  3.198108e+001 -2.436076e+001
      vertex  1.150000e+001  3.275000e+001 -2.000000e+001
    endloop
  endfacet
  facet normal  0.000000e+000 -9.848077e-001  1.736482e-001
    outer loop
      vertex  1.500000e+000  3.198108e+001 -2.436076e+001
      vertex  1.150000e+001  3.275000e+001 -2.000000e+001
      vertex  1.500000e+000  3.275000e+001 -2.000000e+001
    endloop
  endfacet
  facet normal  0.000000e+000 -3.420197e-001  9.396927e-001
    outer loop
      vertex  1.150000e+001  2.637500e+001 -3.104182e+001
      vertex  1.500000e+000  2.221401e+001 -3.255630e+001
      vertex  1.150000e+001  2.221401e+001 -3.255630e+001
    endloop
  endfacet
  facet normal  0.000000e+000  0.000000e+000  1.000000e+000
    outer loop
      vertex  1.150000e+001  2.221401e+001 -3.255630e+001
      vertex  1.500000e+000  2.221401e+001 -3.255630e+001
      vertex  1.500000e+000  1.778599e+001 -3.255630e+001
    endloop
  endfacet
  facet normal  0.000000e+000  0.000000e+000  1.000000e+000
    outer loop
      vertex  1.150000e+001  2.221401e+001 -3.255630e+001
      vertex  1.500000e+000  1.778599e+001 -3.255630e+001
      vertex  1.150000e+001  1.778599e+001 -3.255630e+001
    endloop
  endfacet
  facet normal  0.000000e+000  3.420197e-001  9.396927e-001
    outer loop
      vertex  1.150000e+001  1.778599e+001 -3.255630e+001
      vertex  1.500000e+000  1.778599e+001 -3.255630e+001
      vertex  1.500000e+000  1.362500e+001 -3.104182e+001
    endloop
  endfacet
  facet normal  -0.000000e+000  3.420197e-001  9.396927e-001
    outer loop
      vertex  1.150000e+001  1.778599e+001 -3.255630e+001
      vertex  1.500000e+000  1.362500e+001 -3.104182e+001
      vertex  1.150000e+001  1.362500e+001 -3.104182e+001
    endloop
  endfacet
  facet normal  0.000000e+000  6.427877e-001  7.660443e-001
    outer loop
      vertex  1.150000e+001  1.362500e+001 -3.104182e+001
      vertex  1.500000e+000  1.362500e+001 -3.104182e+001
      vertex  1.500000e+000  1.023293e+001 -2.819554e+001
    endloop
  endfacet
  facet normal  -0.000000e+000  6.427877e-001  7.660443e-001
    outer loop
      vertex  1.150000e+001  1.362500e+001 -3.104182e+001
      vertex  1.500000e+000  1.023293e+001 -2.819554e+001
      vertex  1.150000e+001  1.023293e+001 -2.819554e+001
    endloop
  endfacet
  facet normal  0.000000e+000  8.660254e-001  5.000000e-001
    outer loop
      vertex  1.150000e+001  1.023293e+001 -2.819554e+001
      vertex  1.500000e+000  1.023293e+001 -2.819554e+001
      vertex  1.500000e+000  8.018919e+000 -2.436076e+001
    endloop
  endfacet
  facet normal  -0.000000e+000  8.660254e-001  5.000000e-001
    outer loop
      vertex  1.150000e+001  1.023293e+001 -2.819554e+001
      vertex  1.500000e+000  8.018919e+000 -2.436076e+001
      vertex  1.150000e+001  8.018919e+000 -2.436076e+001
    endloop
  endfacet
  facet normal  0.000000e+000  9.848077e-001  1.736482e-001
    outer loop
      vertex  1.150000e+001  8.018919e+000 -2.436076e+001
      vertex  1.500000e+000  8.018919e+000 -2.436076e+001
      vertex  1.500000e+000  7.250000e+000 -2.000000e+001
    endloop
  endfacet
  facet normal  -0.000000e+000  9.848077e-001  1.736482e-001
    outer loop
      vertex  1.150000e+001  8.018919e+000 -2.436076e+001
      vertex  1.500000e+000  7.250000e+000 -2.000000e+001
      vertex  1.150000e+001  7.250000e+000 -2.000000e+001
    endloop
  endfacet
  facet normal  0.000000e+000  3.420200e-001 -9.396927e-001
    outer loop
      vertex  1.500000e+000  1.778599e+001 -7.443701e+000
      vertex  1.150000e+001  1.362500e+001 -8.958176e+000
      vertex  1.500000e+000  1.362500e+001 -8.958176e+000
    endloop
  endfacet
  facet normal  0.000000e+000  6.427876e-001 -7.660444e-001
    outer loop
      vertex  1.500000e+000  1.362500e+001 -8.958176e+000
      vertex  1.150000e+001  1.362500e+001 -8.958176e+000
      vertex  1.150000e+001  1.023293e+001 -1.180446e+001
    endloop
  endfacet
  facet normal  0.000000e+000  6.427876e-001 -7.660444e-001
    outer loop
      vertex  1.500000e+000  1.362500e+001 -8.958176e+000
      vertex  1.150000e+001  1.023293e+001 -1.180446e+001
      vertex  1.500000e+000  1.023293e+001 -1.180446e+001
    endloop
  endfacet
  facet normal  0.000000e+000  8.660254e-001 -5.000000e-001
    outer loop
      vertex  1.500000e+000  1.023293e+001 -1.180446e+001
      vertex  1.150000e+001  1.023293e+001 -1.180446e+001
      vertex  1.150000e+001  8.018919e+000 -1.563924e+001
    endloop
  endfacet
  facet normal  0.000000e+000  8.660254e-001 -5.000000e-001
    outer loop
      vertex  1.500000e+000  1.023293e+001 -1.180446e+001
      vertex  1.150000e+001  8.018919e+000 -1.563924e+001
      vertex  1.500000e+000  8.018919e+000 -1.563924e+001
    endloop
  endfacet
  facet normal  0.000000e+000  9.848077e-001 -1.736482e-001
    outer loop
      vertex  1.500000e+000  8.018919e+000 -1.563924e+001
      vertex  1.150000e+001  8.018919e+000 -1.563924e+001
      vertex  1.150000e+001  7.250000e+000 -2.000000e+001
    endloop
  endfacet
  facet normal  0.000000e+000  9.848077e-001 -1.736482e-001
    outer loop
      vertex  1.500000e+000  8.018919e+000 -1.563924e+001
      vertex  1.150000e+001  7.250000e+000 -2.000000e+001
      vertex  1.500000e+000  7.250000e+000 -2.000000e+001
    endloop
  endfacet
  facet normal  0.000000e+000  3.420200e-001 -9.396927e-001
    outer loop
      vertex  1.150000e+001  1.362500e+001 -8.958176e+000
      vertex  1.500000e+000  1.778599e+001 -7.443701e+000
      vertex  1.150000e+001  1.778599e+001 -7.443701e+000
    endloop
  endfacet
  facet normal  0.000000e+000  0.000000e+000 -1.000000e+000
    outer loop
      vertex  1.150000e+001  1.778599e+001 -7.443701e+000
      vertex  1.500000e+000  1.778599e+001 -7.443701e+000
      vertex  1.500000e+000  2.221401e+001 -7.443701e+000
    endloop
  endfacet
  facet normal  0.000000e+000  0.000000e+000 -1.000000e+000
    outer loop
      vertex  1.150000e+001  1.778599e+001 -7.443701e+000
      vertex  1.500000e+000  2.221401e+001 -7.443701e+000
      vertex  1.150000e+001  2.221401e+001 -7.443701e+000
    endloop
  endfacet
  facet normal  -0.000000e+000 -3.420200e-001 -9.396927e-001
    outer loop
      vertex  1.150000e+001  2.221401e+001 -7.443701e+000
      vertex  1.500000e+000  2.221401e+001 -7.443701e+000
      vertex  1.500000e+000  2.637500e+001 -8.958176e+000
    endloop
  endfacet
  facet normal  0.000000e+000 -3.420200e-001 -9.396927e-001
    outer loop
      vertex  1.150000e+001  2.221401e+001 -7.443701e+000
      vertex  1.500000e+000  2.637500e+001 -8.958176e+000
      vertex  1.150000e+001  2.637500e+001 -8.958176e+000
    endloop
  endfacet
  facet normal  -0.000000e+000 -6.427876e-001 -7.660444e-001
    outer loop
      vertex  1.150000e+001  2.637500e+001 -8.958176e+000
      vertex  1.500000e+000  2.637500e+001 -8.958176e+000
      vertex  1.500000e+000  2.976707e+001 -1.180446e+001
    endloop
  endfacet
  facet normal  0.000000e+000 -6.427876e-001 -7.660444e-001
    outer loop
      vertex  1.150000e+001  2.637500e+001 -8.958176e+000
      vertex  1.500000e+000  2.976707e+001 -1.180446e+001
      vertex  1.150000e+001  2.976707e+001 -1.180446e+001
    endloop
  endfacet
  facet normal  -0.000000e+000 -8.660254e-001 -5.000000e-001
    outer loop
      vertex  1.150000e+001  2.976707e+001 -1.180446e+001
      vertex  1.500000e+000  2.976707e+001 -1.180446e+001
      vertex  1.500000e+000  3.198108e+001 -1.563924e+001
    endloop
  endfacet
  facet normal  0.000000e+000 -8.660254e-001 -5.000000e-001
    outer loop
      vertex  1.150000e+001  2.976707e+001 -1.180446e+001
      vertex  1.500000e+000  3.198108e+001 -1.563924e+001
      vertex  1.150000e+001  3.198108e+001 -1.563924e+001
    endloop
  endfacet
  facet normal  -0.000000e+000 -9.848077e-001 -1.736482e-001
    outer loop
      vertex  1.150000e+001  3.198108e+001 -1.563924e+001
      vertex  1.500000e+000  3.198108e+001 -1.563924e+001
      vertex  1.500000e+000  3.275000e+001 -2.000000e+001
    endloop
  endfacet
  facet normal  0.000000e+000 -9.848077e-001 -1.736482e-001
    outer loop
      vertex  1.150000e+001  3.198108e+001 -1.563924e+001
      vertex  1.500000e+000  3.275000e+001 -2.000000e+001
      vertex  1.150000e+001  3.275000e+001 -2.000000e+001
    endloop
  endfacet
  facet normal  1.000000e+000  -0.000000e+000  0.000000e+000
    outer loop
      vertex  1.500000e+000  2.221401e+001 -7.443701e+000
      vertex  1.500000e+000  1.778599e+001 -7.443701e+000
      vertex  1.500000e+000  2.637500e+001 -8.958176e+000
    endloop
  endfacet
  facet normal  1.000000e+000  0.000000e+000  0.000000e+000
    outer loop
      vertex  1.500000e+000  2.637500e+001 -8.958176e+000
      vertex  1.500000e+000  1.778599e+001 -7.443701e+000
      vertex  1.500000e+000  1.362500e+001 -8.958176e+000
    endloop
  endfacet
  facet normal  9.999999e-001  -0.000000e+000  0.000000e+000
    outer loop
      vertex  1.500000e+000  2.637500e+001 -8.958176e+000
      vertex  1.500000e+000  1.362500e+001 -8.958176e+000
      vertex  1.500000e+000  2.976707e+001 -1.180446e+001
    endloop
  endfacet
  facet normal  1.000000e+000  0.000000e+000  0.000000e+000
    outer loop
      vertex  1.500000e+000  2.976707e+001 -1.180446e+001
      vertex  1.500000e+000  1.362500e+001 -8.958176e+000
      vertex  1.500000e+000  1.023293e+001 -1.180446e+001
    endloop
  endfacet
  facet normal  1.000000e+000  -0.000000e+000  0.000000e+000
    outer loop
      vertex  1.500000e+000  2.976707e+001 -1.180446e+001
      vertex  1.500000e+000  1.023293e+001 -1.180446e+001
      vertex  1.500000e+000  3.198108e+001 -1.563924e+001
    endloop
  endfacet
  facet normal  1.000000e+000  0.000000e+000  0.000000e+000
    outer loop
      vertex  1.500000e+000  3.198108e+001 -1.563924e+001
      vertex  1.500000e+000  1.023293e+001 -1.180446e+001
      vertex  1.500000e+000  8.018919e+000 -1.563924e+001
    endloop
  endfacet
  facet normal  1.000000e+000  -0.000000e+000  0.000000e+000
    outer loop
      vertex  1.500000e+000  3.198108e+001 -1.563924e+001
      vertex  1.500000e+000  8.018919e+000 -1.563924e+001
      vertex  1.500000e+000  3.275000e+001 -2.000000e+001
    endloop
  endfacet
  facet normal  1.000000e+000  0.000000e+000  0.000000e+000
    outer loop
      vertex  1.500000e+000  3.275000e+001 -2.000000e+001
      vertex  1.500000e+000  8.018919e+000 -1.563924e+001
      vertex  1.500000e+000  7.250000e+000 -2.000000e+001
    endloop
  endfacet
  facet normal  1.000000e+000  -0.000000e+000  0.000000e+000
    outer loop
      vertex  1.500000e+000  3.275000e+001 -2.000000e+001
      vertex  1.500000e+000  7.250000e+000 -2.000000e+001
      vertex  1.500000e+000  3.198108e+001 -2.436076e+001
    endloop
  endfacet
  facet normal  1.000000e+000  0.000000e+000  0.000000e+000
    outer loop
      vertex  1.500000e+000  3.198108e+001 -2.436076e+001
      vertex  1.500000e+000  7.250000e+000 -2.000000e+001
      vertex  1.500000e+000  8.018919e+000 -2.436076e+001
    endloop
  endfacet
  facet normal  1.000000e+000  -0.000000e+000  0.000000e+000
    outer loop
      vertex  1.500000e+000  3.198108e+001 -2.436076e+001
      vertex  1.500000e+000  8.018919e+000 -2.436076e+001
      vertex  1.500000e+000  2.976707e+001 -2.819554e+001
    endloop
  endfacet
  facet normal  1.000000e+000  0.000000e+000  0.000000e+000
    outer loop
      vertex  1.500000e+000  2.976707e+001 -2.819554e+001
      vertex  1.500000e+000  8.018919e+000 -2.436076e+001
      vertex  1.500000e+000  1.023293e+001 -2.819554e+001
    endloop
  endfacet
  facet normal  1.000000e+000  -0.000000e+000  0.000000e+000
    outer loop
      vertex  1.500000e+000  2.976707e+001 -2.819554e+001
      vertex  1.500000e+000  1.023293e+001 -2.819554e+001
      vertex  1.500000e+000  2.637500e+001 -3.104182e+001
    endloop
  endfacet
  facet normal  1.000000e+000  0.000000e+000  0.000000e+000
    outer loop
      vertex  1.500000e+000  2.637500e+001 -3.104182e+001
      vertex  1.500000e+000  1.023293e+001 -2.819554e+001
      vertex  1.500000e+000  1.362500e+001 -3.104182e+001
    endloop
  endfacet
  facet normal  1.000000e+000  -0.000000e+000  0.000000e+000
    outer loop
      vertex  1.500000e+000  2.637500e+001 -3.104182e+001
      vertex  1.500000e+000  1.362500e+001 -3.104182e+001
      vertex  1.500000e+000  2.221401e+001 -3.255630e+001
    endloop
  endfacet
  facet normal  1.000000e+000  0.000000e+000  0.000000e+000
    outer loop
      vertex  1.500000e+000  2.221401e+001 -3.255630e+001
      vertex  1.500000e+000  1.362500e+001 -3.104182e+001
      vertex  1.500000e+000  1.778599e+001 -3.255630e+001
    endloop
  endfacet
  facet normal  1.000000e+000  0.000000e+000  0.000000e+000
    outer loop
      vertex  1.500000e+000 -1.000000e+001  1.000000e+001
      vertex  1.500000e+000 -1.000000e+001 -5.000000e+001
      vertex  1.500000e+000  7.160737e+000 -1.582827e+001
    endloop
  endfacet
  facet normal  1.000000e+000  0.000000e+000  -0.000000e+000
    outer loop
      vertex  1.500000e+000 -1.000000e+001  1.000000e+001
      vertex  1.500000e+000  7.160737e+000 -1.582827e+001
      vertex  1.500000e+000  9.078271e+000 -1.206490e+001
    endloop
  endfacet
  facet normal  1.000000e+000  0.000000e+000  -0.000000e+000
    outer loop
      vertex  1.500000e+000 -1.000000e+001  1.000000e+001
      vertex  1.500000e+000  9.078271e+000 -1.206490e+001
      vertex  1.500000e+000  1.206490e+001 -9.078271e+000
    endloop
  endfacet
  facet normal  9.999999e-001  0.000000e+000  -0.000000e+000
    outer loop
      vertex  1.500000e+000 -1.000000e+001  1.000000e+001
      vertex  1.500000e+000  1.206490e+001 -9.078271e+000
      vertex  1.500000e+000  1.582827e+001 -7.160737e+000
    endloop
  endfacet
  facet normal  9.999999e-001  0.000000e+000  -0.000000e+000
    outer loop
      vertex  1.500000e+000 -1.000000e+001  1.000000e+001
      vertex  1.500000e+000  1.582827e+001 -7.160737e+000
      vertex  1.500000e+000  2.000000e+001 -6.500000e+000
    endloop
  endfacet
  facet normal  1.000000e+000  0.000000e+000  -0.000000e+000
    outer loop
      vertex  1.500000e+000 -1.000000e+001  1.000000e+001
      vertex  1.500000e+000  2.000000e+001 -6.500000e+000
      vertex  1.500000e+000  5.000000e+001  1.000000e+001
    endloop
  endfacet
  facet normal  1.000000e+000  0.000000e+000  0.000000e+000
    outer loop
      vertex  1.500000e+000 -1.000000e+001 -5.000000e+001
      vertex  1.500000e+000  5.000000e+001 -5.000000e+001
      vertex  1.500000e+000  2.000000e+001 -3.350000e+001
    endloop
  endfacet
  facet normal  1.000000e+000  0.000000e+000  0.000000e+000
    outer loop
      vertex  1.500000e+000 -1.000000e+001 -5.000000e+001
      vertex  1.500000e+000  2.000000e+001 -3.350000e+001
      vertex  1.500000e+000  1.582827e+001 -3.283926e+001
    endloop
  endfacet
  facet normal  1.000000e+000  0.000000e+000  0.000000e+000
    outer loop
      vertex  1.500000e+000 -1.000000e+001 -5.000000e+001
      vertex  1.500000e+000  1.582827e+001 -3.283926e+001
      vertex  1.500000e+000  1.206490e+001 -3.092173e+001
    endloop
  endfacet
  facet normal  1.000000e+000  0.000000e+000  0.000000e+000
    outer loop
      vertex  1.500000e+000 -1.000000e+001 -5.000000e+001
      vertex  1.500000e+000  1.206490e+001 -3.092173e+001
      vertex  1.500000e+000  9.078271e+000 -2.793510e+001
    endloop
  endfacet
  facet normal  1.000000e+000  0.000000e+000  0.000000e+000
    outer loop
      vertex  1.500000e+000 -1.000000e+001 -5.000000e+001
      vertex  1.500000e+000  9.078271e+000 -2.793510e+001
      vertex  1.500000e+000  7.160737e+000 -2.417173e+001
    endloop
  endfacet
  facet normal  1.000000e+000  0.000000e+000  0.000000e+000
    outer loop
      vertex  1.500000e+000 -1.000000e+001 -5.000000e+001
      vertex  1.500000e+000  7.160737e+000 -2.417173e+001
      vertex  1.500000e+000  6.500000e+000 -2.000000e+001
    endloop
  endfacet
  facet normal  1.000000e+000  0.000000e+000  -0.000000e+000
    outer loop
      vertex  1.500000e+000 -1.000000e+001 -5.000000e+001
      vertex  1.500000e+000  6.500000e+000 -2.000000e+001
      vertex  1.500000e+000  7.160737e+000 -1.582827e+001
    endloop
  endfacet
  facet normal  1.000000e+000  0.000000e+000  0.000000e+000
    outer loop
      vertex  1.500000e+000  5.000000e+001 -5.000000e+001
      vertex  1.500000e+000  3.283926e+001 -1.582827e+001
      vertex  1.500000e+000  3.350000e+001 -2.000000e+001
    endloop
  endfacet
  facet normal  1.000000e+000  0.000000e+000  0.000000e+000
    outer loop
      vertex  1.500000e+000  5.000000e+001 -5.000000e+001
      vertex  1.500000e+000  3.350000e+001 -2.000000e+001
      vertex  1.500000e+000  3.283926e+001 -2.417173e+001
    endloop
  endfacet
  facet normal  9.999999e-001  0.000000e+000  0.000000e+000
    outer loop
      vertex  1.500000e+000  5.000000e+001 -5.000000e+001
      vertex  1.500000e+000  3.283926e+001 -2.417173e+001
      vertex  1.500000e+000  3.092173e+001 -2.793510e+001
    endloop
  endfacet
  facet normal  9.999999e-001  0.000000e+000  0.000000e+000
    outer loop
      vertex  1.500000e+000  5.000000e+001 -5.000000e+001
      vertex  1.500000e+000  3.092173e+001 -2.793510e+001
      vertex  1.500000e+000  2.793510e+001 -3.092173e+001
    endloop
  endfacet
  facet normal  1.000000e+000  0.000000e+000  0.000000e+000
    outer loop
      vertex  1.500000e+000  5.000000e+001 -5.000000e+001
      vertex  1.500000e+000  2.793510e+001 -3.092173e+001
      vertex  1.500000e+000  2.417173e+001 -3.283926e+001
    endloop
  endfacet
  facet normal  1.000000e+000  0.000000e+000  0.000000e+000
    outer loop
      vertex  1.500000e+000  5.000000e+001 -5.000000e+001
      vertex  1.500000e+000  2.417173e+001 -3.283926e+001
      vertex  1.500000e+000  2.000000e+001 -3.350000e+001
    endloop
  endfacet
  facet normal  1.000000e+000  -0.000000e+000  0.000000e+000
    outer loop
      vertex  1.500000e+000  5.000000e+001  1.000000e+001
      vertex  1.500000e+000  2.000000e+001 -6.500000e+000
      vertex  1.500000e+000  2.417173e+001 -7.160737e+000
    endloop
  endfacet
  facet normal  9.999999e-001  -0.000000e+000  0.000000e+000
    outer loop
      vertex  1.500000e+000  5.000000e+001  1.000000e+001
      vertex  1.500000e+000  2.417173e+001 -7.160737e+000
      vertex  1.500000e+000  2.793510e+001 -9.078271e+000
    endloop
  endfacet
  facet normal  9.999999e-001  -0.000000e+000  0.000000e+000
    outer loop
      vertex  1.500000e+000  5.000000e+001  1.000000e+001
      vertex  1.500000e+000  2.793510e+001 -9.078271e+000
      vertex  1.500000e+000  3.092173e+001 -1.206490e+001
    endloop
  endfacet
  facet normal  9.999999e-001  -0.000000e+000  0.000000e+000
    outer loop
      vertex  1.500000e+000  5.000000e+001  1.000000e+001
      vertex  1.500000e+000  3.092173e+001 -1.206490e+001
      vertex  1.500000e+000  3.283926e+001 -1.582827e+001
    endloop
  endfacet
  facet normal  1.000000e+000  -0.000000e+000  0.000000e+000
    outer loop
      vertex  1.500000e+000  5.000000e+001  1.000000e+001
      vertex  1.500000e+000  3.283926e+001 -1.582827e+001
      vertex  1.500000e+000  5.000000e+001 -5.000000e+001
    endloop
  endfacet
  facet normal  0.000000e+000  9.876884e-001 -1.564342e-001
    outer loop
      vertex  1.500000e+000  3.350000e+001 -2.000000e+001
      vertex  1.150000e+001  3.350000e+001 -2.000000e+001
      vertex  1.500000e+000  3.283926e+001 -2.417173e+001
    endloop
  endfacet
  facet normal  0.000000e+000  9.876884e-001 -1.564342e-001
    outer loop
      vertex  1.500000e+000  3.283926e+001 -2.417173e+001
      vertex  1.150000e+001  3.350000e+001 -2.000000e+001
      vertex  1.150000e+001  3.283926e+001 -2.417173e+001
    endloop
  endfacet
  facet normal  0.000000e+000  8.910065e-001 -4.539906e-001
    outer loop
      vertex  1.500000e+000  3.283926e+001 -2.417173e+001
      vertex  1.150000e+001  3.283926e+001 -2.417173e+001
      vertex  1.500000e+000  3.092173e+001 -2.793510e+001
    endloop
  endfacet
  facet normal  0.000000e+000  8.910065e-001 -4.539906e-001
    outer loop
      vertex  1.500000e+000  3.092173e+001 -2.793510e+001
      vertex  1.150000e+001  3.283926e+001 -2.417173e+001
      vertex  1.150000e+001  3.092173e+001 -2.793510e+001
    endloop
  endfacet
  facet normal  0.000000e+000  7.071068e-001 -7.071068e-001
    outer loop
      vertex  1.500000e+000  3.092173e+001 -2.793510e+001
      vertex  1.150000e+001  3.092173e+001 -2.793510e+001
      vertex  1.500000e+000  2.793510e+001 -3.092173e+001
    endloop
  endfacet
  facet normal  0.000000e+000  7.071068e-001 -7.071068e-001
    outer loop
      vertex  1.500000e+000  2.793510e+001 -3.092173e+001
      vertex  1.150000e+001  3.092173e+001 -2.793510e+001
      vertex  1.150000e+001  2.793510e+001 -3.092173e+001
    endloop
  endfacet
  facet normal  0.000000e+000  4.539906e-001 -8.910065e-001
    outer loop
      vertex  1.500000e+000  2.793510e+001 -3.092173e+001
      vertex  1.150000e+001  2.793510e+001 -3.092173e+001
      vertex  1.500000e+000  2.417173e+001 -3.283926e+001
    endloop
  endfacet
  facet normal  0.000000e+000  4.539906e-001 -8.910065e-001
    outer loop
      vertex  1.500000e+000  2.417173e+001 -3.283926e+001
      vertex  1.150000e+001  2.793510e+001 -3.092173e+001
      vertex  1.150000e+001  2.417173e+001 -3.283926e+001
    endloop
  endfacet
  facet normal  0.000000e+000  1.564342e-001 -9.876884e-001
    outer loop
      vertex  1.500000e+000  2.417173e+001 -3.283926e+001
      vertex  1.150000e+001  2.417173e+001 -3.283926e+001
      vertex  1.500000e+000  2.000000e+001 -3.350000e+001
    endloop
  endfacet
  facet normal  0.000000e+000  1.564342e-001 -9.876884e-001
    outer loop
      vertex  1.500000e+000  2.000000e+001 -3.350000e+001
      vertex  1.150000e+001  2.417173e+001 -3.283926e+001
      vertex  1.150000e+001  2.000000e+001 -3.350000e+001
    endloop
  endfacet
  facet normal  -0.000000e+000 -1.564343e-001 -9.876884e-001
    outer loop
      vertex  1.500000e+000  2.000000e+001 -3.350000e+001
      vertex  1.150000e+001  2.000000e+001 -3.350000e+001
      vertex  1.500000e+000  1.582827e+001 -3.283926e+001
    endloop
  endfacet
  facet normal  0.000000e+000 -1.564343e-001 -9.876884e-001
    outer loop
      vertex  1.500000e+000  1.582827e+001 -3.283926e+001
      vertex  1.150000e+001  2.000000e+001 -3.350000e+001
      vertex  1.150000e+001  1.582827e+001 -3.283926e+001
    endloop
  endfacet
  facet normal  -0.000000e+000 -4.539906e-001 -8.910065e-001
    outer loop
      vertex  1.500000e+000  1.582827e+001 -3.283926e+001
      vertex  1.150000e+001  1.582827e+001 -3.283926e+001
      vertex  1.500000e+000  1.206490e+001 -3.092173e+001
    endloop
  endfacet
  facet normal  0.000000e+000 -4.539906e-001 -8.910065e-001
    outer loop
      vertex  1.500000e+000  1.206490e+001 -3.092173e+001
      vertex  1.150000e+001  1.582827e+001 -3.283926e+001
      vertex  1.150000e+001  1.206490e+001 -3.092173e+001
    endloop
  endfacet
  facet normal  -0.000000e+000 -7.071069e-001 -7.071066e-001
    outer loop
      vertex  1.500000e+000  1.206490e+001 -3.092173e+001
      vertex  1.150000e+001  1.206490e+001 -3.092173e+001
      vertex  1.500000e+000  9.078271e+000 -2.793510e+001
    endloop
  endfacet
  facet normal  0.000000e+000 -7.071069e-001 -7.071066e-001
    outer loop
      vertex  1.500000e+000  9.078271e+000 -2.793510e+001
      vertex  1.150000e+001  1.206490e+001 -3.092173e+001
      vertex  1.150000e+001  9.078271e+000 -2.793510e+001
    endloop
  endfacet
  facet normal  -0.000000e+000 -8.910065e-001 -4.539906e-001
    outer loop
      vertex  1.500000e+000  9.078271e+000 -2.793510e+001
      vertex  1.150000e+001  9.078271e+000 -2.793510e+001
      vertex  1.500000e+000  7.160737e+000 -2.417173e+001
    endloop
  endfacet
  facet normal  0.000000e+000 -8.910065e-001 -4.539906e-001
    outer loop
      vertex  1.500000e+000  7.160737e+000 -2.417173e+001
      vertex  1.150000e+001  9.078271e+000 -2.793510e+001
      vertex  1.150000e+001  7.160737e+000 -2.417173e+001
    endloop
  endfacet
  facet normal  -0.000000e+000 -9.876884e-001 -1.564344e-001
    outer loop
      vertex  1.500000e+000  7.160737e+000 -2.417173e+001
      vertex  1.150000e+001  7.160737e+000 -2.417173e+001
      vertex  1.500000e+000  6.500000e+000 -2.000000e+001
    endloop
  endfacet
  facet normal  0.000000e+000 -9.876884e-001 -1.564344e-001
    outer loop
      vertex  1.500000e+000  6.500000e+000 -2.000000e+001
      vertex  1.150000e+001  7.160737e+000 -2.417173e+001
      vertex  1.150000e+001  6.500000e+000 -2.000000e+001
    endloop
  endfacet
  facet normal  0.000000e+000 -9.876883e-001  1.564345e-001
    outer loop
      vertex  1.500000e+000  6.500000e+000 -2.000000e+001
      vertex  1.150000e+001  6.500000e+000 -2.000000e+001
      vertex  1.500000e+000  7.160737e+000 -1.582827e+001
    endloop
  endfacet
  facet normal  0.000000e+000 -9.876883e-001  1.564345e-001
    outer loop
      vertex  1.500000e+000  7.160737e+000 -1.582827e+001
      vertex  1.150000e+001  6.500000e+000 -2.000000e+001
      vertex  1.150000e+001  7.160737e+000 -1.582827e+001
    endloop
  endfacet
  facet normal  0.000000e+000 -8.910065e-001  4.539906e-001
    outer loop
      vertex  1.500000e+000  7.160737e+000 -1.582827e+001
      vertex  1.150000e+001  7.160737e+000 -1.582827e+001
      vertex  1.500000e+000  9.078271e+000 -1.206490e+001
    endloop
  endfacet
  facet normal  0.000000e+000 -8.910065e-001  4.539906e-001
    outer loop
      vertex  1.500000e+000  9.078271e+000 -1.206490e+001
      vertex  1.150000e+001  7.160737e+000 -1.582827e+001
      vertex  1.150000e+001  9.078271e+000 -1.206490e+001
    endloop
  endfacet
  facet normal  0.000000e+000 -7.071068e-001  7.071068e-001
    outer loop
      vertex  1.500000e+000  9.078271e+000 -1.206490e+001
      vertex  1.150000e+001  9.078271e+000 -1.206490e+001
      vertex  1.500000e+000  1.206490e+001 -9.078271e+000
    endloop
  endfacet
  facet normal  0.000000e+000 -7.071068e-001  7.071068e-001
    outer loop
      vertex  1.500000e+000  1.206490e+001 -9.078271e+000
      vertex  1.150000e+001  9.078271e+000 -1.206490e+001
      vertex  1.150000e+001  1.206490e+001 -9.078271e+000
    endloop
  endfacet
  facet normal  0.000000e+000 -4.539906e-001  8.910065e-001
    outer loop
      vertex  1.500000e+000  1.206490e+001 -9.078271e+000
      vertex  1.150000e+001  1.206490e+001 -9.078271e+000
      vertex  1.500000e+000  1.582827e+001 -7.160737e+000
    endloop
  endfacet
  facet normal  0.000000e+000 -4.539906e-001  8.910065e-001
    outer loop
      vertex  1.500000e+000  1.582827e+001 -7.160737e+000
      vertex  1.150000e+001  1.206490e+001 -9.078271e+000
      vertex  1.150000e+001  1.582827e+001 -7.160737e+000
    endloop
  endfacet
  facet normal  0.000000e+000 -1.564345e-001  9.876883e-001
    outer loop
      vertex  1.500000e+000  1.582827e+001 -7.160737e+000
      vertex  1.150000e+001  1.582827e+001 -7.160737e+000
      vertex  1.500000e+000  2.000000e+001 -6.500000e+000
    endloop
  endfacet
  facet normal  0.000000e+000 -1.564345e-001  9.876883e-001
    outer loop
      vertex  1.500000e+000  2.000000e+001 -6.500000e+000
      vertex  1.150000e+001  1.582827e+001 -7.160737e+000
      vertex  1.150000e+001  2.000000e+001 -6.500000e+000
    endloop
  endfacet
  facet normal  0.000000e+000  1.564344e-001  9.876884e-001
    outer loop
      vertex  1.500000e+000  2.000000e+001 -6.500000e+000
      vertex  1.150000e+001  2.000000e+001 -6.500000e+000
      vertex  1.500000e+000  2.417173e+001 -7.160737e+000
    endloop
  endfacet
  facet normal  -0.000000e+000  1.564344e-001  9.876884e-001
    outer loop
      vertex  1.500000e+000  2.417173e+001 -7.160737e+000
      vertex  1.150000e+001  2.000000e+001 -6.500000e+000
      vertex  1.150000e+001  2.417173e+001 -7.160737e+000
    endloop
  endfacet
  facet normal  0.000000e+000  4.539906e-001  8.910065e-001
    outer loop
      vertex  1.500000e+000  2.417173e+001 -7.160737e+000
      vertex  1.150000e+001  2.417173e+001 -7.160737e+000
      vertex  1.500000e+000  2.793510e+001 -9.078271e+000
    endloop
  endfacet
  facet normal  -0.000000e+000  4.539906e-001  8.910065e-001
    outer loop
      vertex  1.500000e+000  2.793510e+001 -9.078271e+000
      vertex  1.150000e+001  2.417173e+001 -7.160737e+000
      vertex  1.150000e+001  2.793510e+001 -9.078271e+000
    endloop
  endfacet
  facet normal  0.000000e+000  7.071066e-001  7.071069e-001
    outer loop
      vertex  1.500000e+000  2.793510e+001 -9.078271e+000
      vertex  1.150000e+001  2.793510e+001 -9.078271e+000
      vertex  1.500000e+000  3.092173e+001 -1.206490e+001
    endloop
  endfacet
  facet normal  -0.000000e+000  7.071066e-001  7.071069e-001
    outer loop
      vertex  1.500000e+000  3.092173e+001 -1.206490e+001
      vertex  1.150000e+001  2.793510e+001 -9.078271e+000
      vertex  1.150000e+001  3.092173e+001 -1.206490e+001
    endloop
  endfacet
  facet normal  0.000000e+000  8.910065e-001  4.539906e-001
    outer loop
      vertex  1.500000e+000  3.092173e+001 -1.206490e+001
      vertex  1.150000e+001  3.092173e+001 -1.206490e+001
      vertex  1.500000e+000  3.283926e+001 -1.582827e+001
    endloop
  endfacet
  facet normal  -0.000000e+000  8.910065e-001  4.539906e-001
    outer loop
      vertex  1.500000e+000  3.283926e+001 -1.582827e+001
      vertex  1.150000e+001  3.092173e+001 -1.206490e+001
      vertex  1.150000e+001  3.283926e+001 -1.582827e+001
    endloop
  endfacet
  facet normal  0.000000e+000  9.876884e-001  1.564343e-001
    outer loop
      vertex  1.500000e+000  3.283926e+001 -1.582827e+001
      vertex  1.150000e+001  3.283926e+001 -1.582827e+001
      vertex  1.500000e+000  3.350000e+001 -2.000000e+001
    endloop
  endfacet
  facet normal  -0.000000e+000  9.876884e-001  1.564343e-001
    outer loop
      vertex  1.500000e+000  3.350000e+001 -2.000000e+001
      vertex  1.150000e+001  3.283926e+001 -1.582827e+001
      vertex  1.150000e+001  3.350000e+001 -2.000000e+001
    endloop
  endfacet
  facet normal -1.000000e+000  0.000000e+000  0.000000e+000
    outer loop
      vertex  0.000000e+000 -1.000000e+001 -5.000000e+001
      vertex  0.000000e+000 -1.000000e+001  1.000000e+001
      vertex  0.000000e+000  5.000000e+001 -5.000000e+001
    endloop
  endfacet
  facet normal -1.000000e+000  0.000000e+000  0.000000e+000
    outer loop
      vertex  0.000000e+000  5.000000e+001 -5.000000e+001
      vertex  0.000000e+000 -1.000000e+001  1.000000e+001
      vertex  0.000000e+000  5.000000e+001  1.000000e+001
    endloop
  endfacet
  facet normal  0.000000e+000  0.000000e+000  1.000000e+000
    outer loop
      vertex  1.500000e+000 -1.000000e+001  1.000000e+001
      vertex  1.500000e+000  5.000000e+001  1.000000e+001
      vertex  0.000000e+000 -1.000000e+001  1.000000e+001
    endloop
  endfacet
  facet normal  0.000000e+000  0.000000e+000  1.000000e+000
    outer loop
      vertex  0.000000e+000 -1.000000e+001  1.000000e+001
      vertex  1.500000e+000  5.000000e+001  1.000000e+001
      vertex  0.000000e+000  5.000000e+001  1.000000e+001
    endloop
  endfacet
  facet normal  0.000000e+000  1.000000e+000  0.000000e+000
    outer loop
      vertex  1.500000e+000  5.000000e+001 -5.000000e+001
      vertex  0.000000e+000  5.000000e+001 -5.000000e+001
      vertex  1.500000e+000  5.000000e+001  1.000000e+001
    endloop
  endfacet
  facet normal  0.000000e+000  1.000000e+000  0.000000e+000
    outer loop
      vertex  1.500000e+000  5.000000e+001  1.000000e+001
      vertex  0.000000e+000  5.000000e+001 -5.000000e+001
      vertex  0.000000e+000  5.000000e+001  1.000000e+001
    endloop
  endfacet
  facet normal  0.000000e+000  0.000000e+000 -1.000000e+000
    outer loop
      vertex  1.500000e+000  5.000000e+001 -5.000000e+001
      vertex  1.500000e+000 -1.000000e+001 -5.000000e+001
      vertex  0.000000e+000  5.000000e+001 -5.000000e+001
    endloop
  endfacet
  facet normal  0.000000e+000  0.000000e+000 -1.000000e+000
    outer loop
      vertex  0.000000e+000  5.000000e+001 -5.000000e+001
      vertex  1.500000e+000 -1.000000e+001 -5.000000e+001
      vertex  0.000000e+000 -1.000000e+001 -5.000000e+001
    endloop
  endfacet
  facet normal  0.000000e+000 -1.000000e+000  0.000000e+000
    outer loop
      vertex  1.500000e+000 -1.000000e+001  1.000000e+001
      vertex  0.000000e+000 -1.000000e+001  1.000000e+001
      vertex  1.500000e+000 -1.000000e+001 -5.000000e+001
    endloop
  endfacet
  facet normal  0.000000e+000 -1.000000e+000  0.000000e+000
    outer loop
      vertex  1.500000e+000 -1.000000e+001 -5.000000e+001
      vertex  0.000000e+000 -1.000000e+001  1.000000e+001
      vertex  0.000000e+000 -1.000000e+001 -5.000000e+001
    endloop
  endfacet
endsolid CATIA STL
