  0
SECTION
  2
HEADER
  9
$ACADVER
  1
AC1004
  9
$INSBASE
 10
0.0
 20
0.0
  9
$EXTMIN
 10
2.002136
 20
2.001862
  9
$EXTMAX
 10
5.425512
 20
5.88
  9
$LIMMIN
 10
0.0
 20
0.0
  9
$LIMMAX
 10
0.0
 20
0.0
  9
$VIEWCTR
 10
6.591288
 20
4.579184
  9
$VIEWSIZE
 40
9.158369
  9
$SNAPMODE
 70
     0
  9
$SNAPUNIT
 10
1.0
 20
1.0
  9
$SNAPBASE
 10
0.0
 20
0.0
  9
$SNAPANG
 50
0.0
  9
$SNAPSTYLE
 70
     0
  9
$SNAPISOPAIR
 70
     0
  9
$GRIDMODE
 70
     0
  9
$GRIDUNIT
 10
0.0
 20
0.0
  9
$ORTHOMODE
 70
     0
  9
$REGENMODE
 70
     1
  9
$FILLMODE
 70
     1
  9
$QTEXTMODE
 70
     0
  9
$DRAGMODE
 70
     2
  9
$LTSCALE
 40
1.0
  9
$OSMODE
 70
     0
  9
$ATTMODE
 70
     1
  9
$TEXTSIZE
 40
0.2
  9
$TRACEWID
 40
0.05
  9
$TEXTSTYLE
  7
STANDARD
  9
$CLAYER
  8
0
  9
$CELTYPE
  6
CONTINUOUS
  9
$CECOLOR
 62
   256
  9
$DIMSCALE
 40
1.0
  9
$DIMASZ
 40
0.18
  9
$DIMEXO
 40
0.0625
  9
$DIMDLI
 40
0.38
  9
$DIMRND
 40
0.0
  9
$DIMDLE
 40
0.0
  9
$DIMEXE
 40
0.18
  9
$DIMTP
 40
0.0
  9
$DIMTM
 40
0.0
  9
$DIMTXT
 40
0.18
  9
$DIMCEN
 40
0.09
  9
$DIMTSZ
 40
0.0
  9
$DIMTOL
 70
     0
  9
$DIMLIM
 70
     0
  9
$DIMTIH
 70
     1
  9
$DIMTOH
 70
     1
  9
$DIMSE1
 70
     0
  9
$DIMSE2
 70
     0
  9
$DIMTAD
 70
     0
  9
$DIMZIN
 70
     0
  9
$DIMBLK
  1

  9
$DIMASO
 70
     1
  9
$DIMSHO
 70
     1
  9
$DIMPOST
  1

  9
$DIMAPOST
  1

  9
$DIMALT
 70
     0
  9
$DIMALTD
 70
     2
  9
$DIMALTF
 40
25.4
  9
$DIMLFAC
 40
1.0
  9
$LUNITS
 70
     2
  9
$LUPREC
 70
     4
  9
$AXISMODE
 70
     0
  9
$AXISUNIT
 10
0.0
 20
0.0
  9
$SKETCHINC
 40
0.1
  9
$FILLETRAD
 40
0.0
  9
$AUNITS
 70
     0
  9
$AUPREC
 70
     0
  9
$MENU
  1
acad
  9
$ELEVATION
 40
0.0
  9
$THICKNESS
 40
0.0
  9
$VIEWDIR
 10
0.0
 20
0.0
 30
1.0
  9
$LIMCHECK
 70
     0
  9
$BLIPMODE
 70
     1
  9
$CHAMFERA
 40
0.0
  9
$CHAMFERB
 40
0.0
  9
$FASTZOOM
 70
     1
  9
$SKPOLY
 70
     0
  9
$TDCREATE
 40
0.000000000
  9
$TDUPDATE
 40
0.000000000
  9
$TDINDWG
 40
0.0000000000
  9
$TDUSRTIMER
 40
0.0000000000
  9
$USRTIMER
 70
     1
  9
$ANGBASE
 50
0.0
  9
$ANGDIR
 70
     0
  9
$PDMODE
 70
     0
  9
$PDSIZE
 40
0.0
  9
$PLINEWID
 40
0.0
  9
$COORDS
 70
     0
  9
$SPLFRAME
 70
     0
  9
$SPLINESEGS
 70
     8
  9
$ATTDIA
 70
     0
  9
$ATTREQ
 70
     1
  9
$USERI1
 70
     0
  9
$USERI2
 70
     0
  9
$USERI3
 70
     0
  9
$USERI4
 70
     0
  9
$USERI5
 70
     0
  9
$USERR1
 40
0.0
  9
$USERR2
 40
0.0
  9
$USERR3
 40
0.0
  9
$USERR4
 40
0.0
  9
$USERR5
 40
0.0
  0
ENDSEC
  0
SECTION
  2
TABLES
  0
TABLE
  2
LTYPE
 70
     1
  0
LTYPE
  2
CONTINUOUS
 70
    64
  3
Solid line
 72
    65
 73
     0
 40
0.0
  0
ENDTAB
  0
TABLE
  2
LAYER
 70
     9
  0
LAYER
  2
0
 70
     0
 62
     7
  6
CONTINUOUS
  0
LAYER
  2
TOPLAYER
 70
     0
 62
     1
  6
CONTINUOUS
  0
LAYER
  2
BOTTOMLAYER
 70
     0
 62
     5
  6
CONTINUOUS
  0
LAYER
  2
MECHANICAL4
 70
     0
 62
    56
  6
CONTINUOUS
  0
LAYER
  2
MECHANICAL1
 70
     0
 62
     6
  6
CONTINUOUS
  0
LAYER
  2
TOPPASTE
 70
     0
 62
     8
  6
CONTINUOUS
  0
LAYER
  2
BOTTOMPASTE
 70
     0
 62
    16
  6
CONTINUOUS
  0
LAYER
  2
TOPSOLDER
 70
     0
 62
   216
  6
CONTINUOUS
  0
LAYER
  2
BOTTOMSOLDER
 70
     0
 62
     6
  6
CONTINUOUS
  0
ENDTAB
  0
TABLE
  2
STYLE
 70
     1
  0
STYLE
  2
STANDARD
 70
     0
 40
0.0
 41
1.0
 50
0.0
 71
     0
 42
0.0
  3
txt
  4

  0
ENDTAB
  0
TABLE
  2
VIEW
 70
     0
  0
ENDTAB
  0
ENDSEC
  0
SECTION
  2
BLOCKS
  0
ENDSEC
  0
SECTION
  2
ENTITIES
  0
POLYLINE
  8
MECHANICAL1
 66
     1
 40
0.01
 41
0.01
  0
VERTEX
  8
MECHANICAL1
 10
4.265
 20
5.875
  0
VERTEX
  8
MECHANICAL1
 10
4.885078
 20
5.875
  0
SEQEND
  8
0
  0
POLYLINE
  8
MECHANICAL1
 66
     1
 70
     1
 40
0.005
 41
0.005
  0
VERTEX
  8
MECHANICAL1
 10
4.2625
 20
5.875
 42
1.0
  0
VERTEX
  8
MECHANICAL1
 10
4.2675
 20
5.875
 42
1.0
  0
SEQEND
  8
0
  0
POLYLINE
  8
MECHANICAL1
 66
     1
 70
     1
 40
0.005
 41
0.005
  0
VERTEX
  8
MECHANICAL1
 10
4.882579
 20
5.875
 42
1.0
  0
VERTEX
  8
MECHANICAL1
 10
4.887579
 20
5.875
 42
1.0
  0
SEQEND
  8
0
  0
POLYLINE
  8
MECHANICAL1
 66
     1
 40
0.01
 41
0.01
  0
VERTEX
  8
MECHANICAL1
 10
5.276811
 20
5.749016
  0
VERTEX
  8
MECHANICAL1
 10
5.276811
 20
5.875
  0
SEQEND
  8
0
  0
POLYLINE
  8
MECHANICAL1
 66
     1
 70
     1
 40
0.005
 41
0.005
  0
VERTEX
  8
MECHANICAL1
 10
5.274311
 20
5.749016
 42
1.0
  0
VERTEX
  8
MECHANICAL1
 10
5.279311
 20
5.749016
 42
1.0
  0
SEQEND
  8
0
  0
POLYLINE
  8
MECHANICAL1
 66
     1
 70
     1
 40
0.005
 41
0.005
  0
VERTEX
  8
MECHANICAL1
 10
5.274311
 20
5.875
 42
1.0
  0
VERTEX
  8
MECHANICAL1
 10
5.279311
 20
5.875
 42
1.0
  0
SEQEND
  8
0
  0
POLYLINE
  8
MECHANICAL1
 66
     1
 40
0.01
 41
0.01
  0
VERTEX
  8
MECHANICAL1
 10
4.121299
 20
3.867126
  0
VERTEX
  8
MECHANICAL1
 10
5.420512
 20
3.867126
  0
SEQEND
  8
0
  0
POLYLINE
  8
MECHANICAL1
 66
     1
 70
     1
 40
0.005
 41
0.005
  0
VERTEX
  8
MECHANICAL1
 10
4.118799
 20
3.867126
 42
1.0
  0
VERTEX
  8
MECHANICAL1
 10
4.123799
 20
3.867126
 42
1.0
  0
SEQEND
  8
0
  0
POLYLINE
  8
MECHANICAL1
 66
     1
 70
     1
 40
0.005
 41
0.005
  0
VERTEX
  8
MECHANICAL1
 10
5.418012
 20
3.867126
 42
1.0
  0
VERTEX
  8
MECHANICAL1
 10
5.423012
 20
3.867126
 42
1.0
  0
SEQEND
  8
0
  0
POLYLINE
  8
MECHANICAL1
 66
     1
 40
0.01
 41
0.01
  0
VERTEX
  8
MECHANICAL1
 10
4.121299
 20
3.867126
  0
VERTEX
  8
MECHANICAL1
 10
4.121299
 20
5.71752
  0
SEQEND
  8
0
  0
POLYLINE
  8
MECHANICAL1
 66
     1
 70
     1
 40
0.005
 41
0.005
  0
VERTEX
  8
MECHANICAL1
 10
4.118799
 20
3.867126
 42
1.0
  0
VERTEX
  8
MECHANICAL1
 10
4.123799
 20
3.867126
 42
1.0
  0
SEQEND
  8
0
  0
POLYLINE
  8
MECHANICAL1
 66
     1
 70
     1
 40
0.005
 41
0.005
  0
VERTEX
  8
MECHANICAL1
 10
4.118799
 20
5.71752
 42
1.0
  0
VERTEX
  8
MECHANICAL1
 10
4.123799
 20
5.71752
 42
1.0
  0
SEQEND
  8
0
  0
POLYLINE
  8
MECHANICAL1
 66
     1
 40
0.01
 41
0.01
  0
VERTEX
  8
MECHANICAL1
 10
4.265
 20
5.749016
  0
VERTEX
  8
MECHANICAL1
 10
4.265
 20
5.875
  0
SEQEND
  8
0
  0
POLYLINE
  8
MECHANICAL1
 66
     1
 70
     1
 40
0.005
 41
0.005
  0
VERTEX
  8
MECHANICAL1
 10
4.2625
 20
5.749016
 42
1.0
  0
VERTEX
  8
MECHANICAL1
 10
4.2675
 20
5.749016
 42
1.0
  0
SEQEND
  8
0
  0
POLYLINE
  8
MECHANICAL1
 66
     1
 70
     1
 40
0.005
 41
0.005
  0
VERTEX
  8
MECHANICAL1
 10
4.2625
 20
5.875
 42
1.0
  0
VERTEX
  8
MECHANICAL1
 10
4.2675
 20
5.875
 42
1.0
  0
SEQEND
  8
0
  0
POLYLINE
  8
MECHANICAL1
 66
     1
 40
0.01
 41
0.01
  0
VERTEX
  8
MECHANICAL1
 10
5.420512
 20
3.867126
  0
VERTEX
  8
MECHANICAL1
 10
5.420512
 20
5.71752
  0
SEQEND
  8
0
  0
POLYLINE
  8
MECHANICAL1
 66
     1
 70
     1
 40
0.005
 41
0.005
  0
VERTEX
  8
MECHANICAL1
 10
5.418012
 20
3.867126
 42
1.0
  0
VERTEX
  8
MECHANICAL1
 10
5.423012
 20
3.867126
 42
1.0
  0
SEQEND
  8
0
  0
POLYLINE
  8
MECHANICAL1
 66
     1
 70
     1
 40
0.005
 41
0.005
  0
VERTEX
  8
MECHANICAL1
 10
5.418012
 20
5.71752
 42
1.0
  0
VERTEX
  8
MECHANICAL1
 10
5.423012
 20
5.71752
 42
1.0
  0
SEQEND
  8
0
  0
POLYLINE
  8
MECHANICAL1
 66
     1
 40
0.01
 41
0.01
  0
VERTEX
  8
MECHANICAL1
 10
5.308307
 20
5.71752
  0
VERTEX
  8
MECHANICAL1
 10
5.420512
 20
5.71752
  0
SEQEND
  8
0
  0
POLYLINE
  8
MECHANICAL1
 66
     1
 70
     1
 40
0.005
 41
0.005
  0
VERTEX
  8
MECHANICAL1
 10
5.305807
 20
5.71752
 42
1.0
  0
VERTEX
  8
MECHANICAL1
 10
5.310807
 20
5.71752
 42
1.0
  0
SEQEND
  8
0
  0
POLYLINE
  8
MECHANICAL1
 66
     1
 70
     1
 40
0.005
 41
0.005
  0
VERTEX
  8
MECHANICAL1
 10
5.418012
 20
5.71752
 42
1.0
  0
VERTEX
  8
MECHANICAL1
 10
5.423012
 20
5.71752
 42
1.0
  0
SEQEND
  8
0
  0
POLYLINE
  8
MECHANICAL1
 66
     1
 40
0.01
 41
0.01
  0
VERTEX
  8
MECHANICAL1
 10
4.121299
 20
5.71752
  0
VERTEX
  8
MECHANICAL1
 10
4.233504
 20
5.71752
  0
SEQEND
  8
0
  0
POLYLINE
  8
MECHANICAL1
 66
     1
 70
     1
 40
0.005
 41
0.005
  0
VERTEX
  8
MECHANICAL1
 10
4.118799
 20
5.71752
 42
1.0
  0
VERTEX
  8
MECHANICAL1
 10
4.123799
 20
5.71752
 42
1.0
  0
SEQEND
  8
0
  0
POLYLINE
  8
MECHANICAL1
 66
     1
 70
     1
 40
0.005
 41
0.005
  0
VERTEX
  8
MECHANICAL1
 10
4.231004
 20
5.71752
 42
1.0
  0
VERTEX
  8
MECHANICAL1
 10
4.236004
 20
5.71752
 42
1.0
  0
SEQEND
  8
0
  0
POLYLINE
  8
MECHANICAL1
 66
     1
 40
0.00001
 41
0.00001
  0
VERTEX
  8
MECHANICAL1
 10
2.002265
 20
2.003875
  0
VERTEX
  8
MECHANICAL1
 10
2.003277
 20
2.003875
  0
SEQEND
  8
0
  0
POLYLINE
  8
MECHANICAL1
 66
     1
 70
     1
 40
0.000005
 41
0.000005
  0
VERTEX
  8
MECHANICAL1
 10
2.002263
 20
2.003875
 42
1.0
  0
VERTEX
  8
MECHANICAL1
 10
2.002267
 20
2.003875
 42
1.0
  0
SEQEND
  8
0
  0
POLYLINE
  8
MECHANICAL1
 66
     1
 70
     1
 40
0.000005
 41
0.000005
  0
VERTEX
  8
MECHANICAL1
 10
2.003274
 20
2.003875
 42
1.0
  0
VERTEX
  8
MECHANICAL1
 10
2.00328
 20
2.003875
 42
1.0
  0
SEQEND
  8
0
  0
POLYLINE
  8
MECHANICAL1
 66
     1
 40
0.00001
 41
0.00001
  0
VERTEX
  8
MECHANICAL1
 10
2.003277
 20
2.003749
  0
VERTEX
  8
MECHANICAL1
 10
2.003277
 20
2.003875
  0
SEQEND
  8
0
  0
POLYLINE
  8
MECHANICAL1
 66
     1
 70
     1
 40
0.000005
 41
0.000005
  0
VERTEX
  8
MECHANICAL1
 10
2.003274
 20
2.003749
 42
1.0
  0
VERTEX
  8
MECHANICAL1
 10
2.00328
 20
2.003749
 42
1.0
  0
SEQEND
  8
0
  0
POLYLINE
  8
MECHANICAL1
 66
     1
 70
     1
 40
0.000005
 41
0.000005
  0
VERTEX
  8
MECHANICAL1
 10
2.003274
 20
2.003875
 42
1.0
  0
VERTEX
  8
MECHANICAL1
 10
2.00328
 20
2.003875
 42
1.0
  0
SEQEND
  8
0
  0
POLYLINE
  8
MECHANICAL1
 66
     1
 40
0.00001
 41
0.00001
  0
VERTEX
  8
MECHANICAL1
 10
2.002141
 20
2.001867
  0
VERTEX
  8
MECHANICAL1
 10
2.003401
 20
2.001867
  0
SEQEND
  8
0
  0
POLYLINE
  8
MECHANICAL1
 66
     1
 70
     1
 40
0.000005
 41
0.000005
  0
VERTEX
  8
MECHANICAL1
 10
2.002139
 20
2.001867
 42
1.0
  0
VERTEX
  8
MECHANICAL1
 10
2.002143
 20
2.001867
 42
1.0
  0
SEQEND
  8
0
  0
POLYLINE
  8
MECHANICAL1
 66
     1
 70
     1
 40
0.000005
 41
0.000005
  0
VERTEX
  8
MECHANICAL1
 10
2.003398
 20
2.001867
 42
1.0
  0
VERTEX
  8
MECHANICAL1
 10
2.003404
 20
2.001867
 42
1.0
  0
SEQEND
  8
0
  0
POLYLINE
  8
MECHANICAL1
 66
     1
 40
0.00001
 41
0.00001
  0
VERTEX
  8
MECHANICAL1
 10
2.002141
 20
2.001867
  0
VERTEX
  8
MECHANICAL1
 10
2.002141
 20
2.003718
  0
SEQEND
  8
0
  0
POLYLINE
  8
MECHANICAL1
 66
     1
 70
     1
 40
0.000005
 41
0.000005
  0
VERTEX
  8
MECHANICAL1
 10
2.002139
 20
2.001867
 42
1.0
  0
VERTEX
  8
MECHANICAL1
 10
2.002143
 20
2.001867
 42
1.0
  0
SEQEND
  8
0
  0
POLYLINE
  8
MECHANICAL1
 66
     1
 70
     1
 40
0.000005
 41
0.000005
  0
VERTEX
  8
MECHANICAL1
 10
2.002139
 20
2.003718
 42
1.0
  0
VERTEX
  8
MECHANICAL1
 10
2.002143
 20
2.003718
 42
1.0
  0
SEQEND
  8
0
  0
POLYLINE
  8
MECHANICAL1
 66
     1
 40
0.00001
 41
0.00001
  0
VERTEX
  8
MECHANICAL1
 10
2.002265
 20
2.003749
  0
VERTEX
  8
MECHANICAL1
 10
2.002265
 20
2.003875
  0
SEQEND
  8
0
  0
POLYLINE
  8
MECHANICAL1
 66
     1
 70
     1
 40
0.000005
 41
0.000005
  0
VERTEX
  8
MECHANICAL1
 10
2.002263
 20
2.003749
 42
1.0
  0
VERTEX
  8
MECHANICAL1
 10
2.002267
 20
2.003749
 42
1.0
  0
SEQEND
  8
0
  0
POLYLINE
  8
MECHANICAL1
 66
     1
 70
     1
 40
0.000005
 41
0.000005
  0
VERTEX
  8
MECHANICAL1
 10
2.002263
 20
2.003875
 42
1.0
  0
VERTEX
  8
MECHANICAL1
 10
2.002267
 20
2.003875
 42
1.0
  0
SEQEND
  8
0
  0
POLYLINE
  8
MECHANICAL1
 66
     1
 40
0.00001
 41
0.00001
  0
VERTEX
  8
MECHANICAL1
 10
2.003401
 20
2.001867
  0
VERTEX
  8
MECHANICAL1
 10
2.003401
 20
2.003718
  0
SEQEND
  8
0
  0
POLYLINE
  8
MECHANICAL1
 66
     1
 70
     1
 40
0.000005
 41
0.000005
  0
VERTEX
  8
MECHANICAL1
 10
2.003398
 20
2.001867
 42
1.0
  0
VERTEX
  8
MECHANICAL1
 10
2.003404
 20
2.001867
 42
1.0
  0
SEQEND
  8
0
  0
POLYLINE
  8
MECHANICAL1
 66
     1
 70
     1
 40
0.000005
 41
0.000005
  0
VERTEX
  8
MECHANICAL1
 10
2.003398
 20
2.003718
 42
1.0
  0
VERTEX
  8
MECHANICAL1
 10
2.003404
 20
2.003718
 42
1.0
  0
SEQEND
  8
0
  0
POLYLINE
  8
MECHANICAL1
 66
     1
 40
0.00001
 41
0.00001
  0
VERTEX
  8
MECHANICAL1
 10
2.003308
 20
2.003718
  0
VERTEX
  8
MECHANICAL1
 10
2.003401
 20
2.003718
  0
SEQEND
  8
0
  0
POLYLINE
  8
MECHANICAL1
 66
     1
 70
     1
 40
0.000005
 41
0.000005
  0
VERTEX
  8
MECHANICAL1
 10
2.003306
 20
2.003718
 42
1.0
  0
VERTEX
  8
MECHANICAL1
 10
2.00331
 20
2.003718
 42
1.0
  0
SEQEND
  8
0
  0
POLYLINE
  8
MECHANICAL1
 66
     1
 70
     1
 40
0.000005
 41
0.000005
  0
VERTEX
  8
MECHANICAL1
 10
2.003398
 20
2.003718
 42
1.0
  0
VERTEX
  8
MECHANICAL1
 10
2.003404
 20
2.003718
 42
1.0
  0
SEQEND
  8
0
  0
POLYLINE
  8
MECHANICAL1
 66
     1
 40
0.00001
 41
0.00001
  0
VERTEX
  8
MECHANICAL1
 10
2.002141
 20
2.003718
  0
VERTEX
  8
MECHANICAL1
 10
2.002233
 20
2.003718
  0
SEQEND
  8
0
  0
POLYLINE
  8
MECHANICAL1
 66
     1
 70
     1
 40
0.000005
 41
0.000005
  0
VERTEX
  8
MECHANICAL1
 10
2.002139
 20
2.003718
 42
1.0
  0
VERTEX
  8
MECHANICAL1
 10
2.002143
 20
2.003718
 42
1.0
  0
SEQEND
  8
0
  0
POLYLINE
  8
MECHANICAL1
 66
     1
 70
     1
 40
0.000005
 41
0.000005
  0
VERTEX
  8
MECHANICAL1
 10
2.002231
 20
2.003718
 42
1.0
  0
VERTEX
  8
MECHANICAL1
 10
2.002235
 20
2.003718
 42
1.0
  0
SEQEND
  8
0
  0
POLYLINE
  8
MECHANICAL1
 66
     1
 40
0.01
 41
0.01
  0
VERTEX
  8
MECHANICAL1
 10
4.944134
 20
5.709646
  0
VERTEX
  8
MECHANICAL1
 10
4.944134
 20
5.875
  0
SEQEND
  8
0
  0
POLYLINE
  8
MECHANICAL1
 66
     1
 70
     1
 40
0.005
 41
0.005
  0
VERTEX
  8
MECHANICAL1
 10
4.941634
 20
5.709646
 42
1.0
  0
VERTEX
  8
MECHANICAL1
 10
4.946634
 20
5.709646
 42
1.0
  0
SEQEND
  8
0
  0
POLYLINE
  8
MECHANICAL1
 66
     1
 70
     1
 40
0.005
 41
0.005
  0
VERTEX
  8
MECHANICAL1
 10
4.941634
 20
5.875
 42
1.0
  0
VERTEX
  8
MECHANICAL1
 10
4.946634
 20
5.875
 42
1.0
  0
SEQEND
  8
0
  0
POLYLINE
  8
MECHANICAL1
 66
     1
 40
0.01
 41
0.01
  0
VERTEX
  8
MECHANICAL1
 10
4.885078
 20
5.709646
  0
VERTEX
  8
MECHANICAL1
 10
4.885078
 20
5.875
  0
SEQEND
  8
0
  0
POLYLINE
  8
MECHANICAL1
 66
     1
 70
     1
 40
0.005
 41
0.005
  0
VERTEX
  8
MECHANICAL1
 10
4.882579
 20
5.709646
 42
1.0
  0
VERTEX
  8
MECHANICAL1
 10
4.887579
 20
5.709646
 42
1.0
  0
SEQEND
  8
0
  0
POLYLINE
  8
MECHANICAL1
 66
     1
 70
     1
 40
0.005
 41
0.005
  0
VERTEX
  8
MECHANICAL1
 10
4.882579
 20
5.875
 42
1.0
  0
VERTEX
  8
MECHANICAL1
 10
4.887579
 20
5.875
 42
1.0
  0
SEQEND
  8
0
  0
POLYLINE
  8
MECHANICAL1
 66
     1
 40
0.01
 41
0.01
  0
VERTEX
  8
MECHANICAL1
 10
4.944134
 20
5.875
  0
VERTEX
  8
MECHANICAL1
 10
5.276811
 20
5.875
  0
SEQEND
  8
0
  0
POLYLINE
  8
MECHANICAL1
 66
     1
 70
     1
 40
0.005
 41
0.005
  0
VERTEX
  8
MECHANICAL1
 10
4.941634
 20
5.875
 42
1.0
  0
VERTEX
  8
MECHANICAL1
 10
4.946634
 20
5.875
 42
1.0
  0
SEQEND
  8
0
  0
POLYLINE
  8
MECHANICAL1
 66
     1
 70
     1
 40
0.005
 41
0.005
  0
VERTEX
  8
MECHANICAL1
 10
5.274311
 20
5.875
 42
1.0
  0
VERTEX
  8
MECHANICAL1
 10
5.279311
 20
5.875
 42
1.0
  0
SEQEND
  8
0
  0
POLYLINE
  8
MECHANICAL4
 66
     1
 40
0.00001
 41
0.00001
  0
VERTEX
  8
MECHANICAL4
 10
2.003308
 20
2.003718
 42
-0.414214
  0
VERTEX
  8
MECHANICAL4
 10
2.003277
 20
2.003749
  0
SEQEND
  8
0
  0
POLYLINE
  8
MECHANICAL4
 66
     1
 70
     1
 40
0.000005
 41
0.000005
  0
VERTEX
  8
MECHANICAL4
 10
2.003306
 20
2.003718
 42
1.0
  0
VERTEX
  8
MECHANICAL4
 10
2.00331
 20
2.003718
 42
1.0
  0
SEQEND
  8
0
  0
POLYLINE
  8
MECHANICAL4
 66
     1
 70
     1
 40
0.000005
 41
0.000005
  0
VERTEX
  8
MECHANICAL4
 10
2.003274
 20
2.003749
 42
1.0
  0
VERTEX
  8
MECHANICAL4
 10
2.00328
 20
2.003749
 42
1.0
  0
SEQEND
  8
0
  0
POLYLINE
  8
MECHANICAL4
 66
     1
 40
0.00001
 41
0.00001
  0
VERTEX
  8
MECHANICAL4
 10
2.002265
 20
2.003749
 42
-0.414214
  0
VERTEX
  8
MECHANICAL4
 10
2.002233
 20
2.003718
  0
SEQEND
  8
0
  0
POLYLINE
  8
MECHANICAL4
 66
     1
 70
     1
 40
0.000005
 41
0.000005
  0
VERTEX
  8
MECHANICAL4
 10
2.002263
 20
2.003749
 42
1.0
  0
VERTEX
  8
MECHANICAL4
 10
2.002267
 20
2.003749
 42
1.0
  0
SEQEND
  8
0
  0
POLYLINE
  8
MECHANICAL4
 66
     1
 70
     1
 40
0.000005
 41
0.000005
  0
VERTEX
  8
MECHANICAL4
 10
2.002231
 20
2.003718
 42
1.0
  0
VERTEX
  8
MECHANICAL4
 10
2.002235
 20
2.003718
 42
1.0
  0
SEQEND
  8
0
  0
POLYLINE
  8
MECHANICAL1
 66
     1
 40
0.01
 41
0.01
  0
VERTEX
  8
MECHANICAL1
 10
4.265
 20
5.749016
 42
-0.414214
  0
VERTEX
  8
MECHANICAL1
 10
4.233504
 20
5.71752
  0
SEQEND
  8
0
  0
POLYLINE
  8
MECHANICAL1
 66
     1
 70
     1
 40
0.005
 41
0.005
  0
VERTEX
  8
MECHANICAL1
 10
4.2625
 20
5.749016
 42
1.0
  0
VERTEX
  8
MECHANICAL1
 10
4.2675
 20
5.749016
 42
1.0
  0
SEQEND
  8
0
  0
POLYLINE
  8
MECHANICAL1
 66
     1
 70
     1
 40
0.005
 41
0.005
  0
VERTEX
  8
MECHANICAL1
 10
4.231004
 20
5.71752
 42
1.0
  0
VERTEX
  8
MECHANICAL1
 10
4.236004
 20
5.71752
 42
1.0
  0
SEQEND
  8
0
  0
POLYLINE
  8
MECHANICAL1
 66
     1
 40
0.01
 41
0.01
  0
VERTEX
  8
MECHANICAL1
 10
4.944134
 20
5.709646
 42
-1.0
  0
VERTEX
  8
MECHANICAL1
 10
4.885079
 20
5.709646
  0
SEQEND
  8
0
  0
POLYLINE
  8
MECHANICAL1
 66
     1
 70
     1
 40
0.005
 41
0.005
  0
VERTEX
  8
MECHANICAL1
 10
4.941634
 20
5.709646
 42
1.0
  0
VERTEX
  8
MECHANICAL1
 10
4.946634
 20
5.709646
 42
1.0
  0
SEQEND
  8
0
  0
POLYLINE
  8
MECHANICAL1
 66
     1
 70
     1
 40
0.005
 41
0.005
  0
VERTEX
  8
MECHANICAL1
 10
4.882579
 20
5.709646
 42
1.0
  0
VERTEX
  8
MECHANICAL1
 10
4.887579
 20
5.709646
 42
1.0
  0
SEQEND
  8
0
  0
POLYLINE
  8
MECHANICAL1
 66
     1
 40
0.01
 41
0.01
  0
VERTEX
  8
MECHANICAL1
 10
5.308307
 20
5.71752
 42
-0.414214
  0
VERTEX
  8
MECHANICAL1
 10
5.276811
 20
5.749016
  0
SEQEND
  8
0
  0
POLYLINE
  8
MECHANICAL1
 66
     1
 70
     1
 40
0.005
 41
0.005
  0
VERTEX
  8
MECHANICAL1
 10
5.305807
 20
5.71752
 42
1.0
  0
VERTEX
  8
MECHANICAL1
 10
5.310807
 20
5.71752
 42
1.0
  0
SEQEND
  8
0
  0
POLYLINE
  8
MECHANICAL1
 66
     1
 70
     1
 40
0.005
 41
0.005
  0
VERTEX
  8
MECHANICAL1
 10
5.274311
 20
5.749016
 42
1.0
  0
VERTEX
  8
MECHANICAL1
 10
5.279311
 20
5.749016
 42
1.0
  0
SEQEND
  8
0
  0
POLYLINE
  8
MECHANICAL4
 66
     1
 70
     1
 40
0.005
 41
0.005
  0
VERTEX
  8
MECHANICAL4
 10
5.274311
 20
5.875
 42
1.0
  0
VERTEX
  8
MECHANICAL4
 10
5.279311
 20
5.875
 42
1.0
  0
SEQEND
  8
0
  0
POLYLINE
  8
MECHANICAL4
 66
     1
 70
     1
 40
0.000005
 41
0.000005
  0
VERTEX
  8
MECHANICAL4
 10
2.002139
 20
2.003718
 42
1.0
  0
VERTEX
  8
MECHANICAL4
 10
2.002144
 20
2.003718
 42
1.0
  0
SEQEND
  8
0
  0
POLYLINE
  8
MECHANICAL4
 66
     1
 70
     1
 40
0.000005
 41
0.000005
  0
VERTEX
  8
MECHANICAL4
 10
2.002231
 20
2.003718
 42
1.0
  0
VERTEX
  8
MECHANICAL4
 10
2.002236
 20
2.003718
 42
1.0
  0
SEQEND
  8
0
  0
POLYLINE
  8
MECHANICAL4
 66
     1
 70
     1
 40
0.000005
 41
0.000005
  0
VERTEX
  8
MECHANICAL4
 10
2.003306
 20
2.003718
 42
1.0
  0
VERTEX
  8
MECHANICAL4
 10
2.003311
 20
2.003718
 42
1.0
  0
SEQEND
  8
0
  0
POLYLINE
  8
MECHANICAL4
 66
     1
 70
     1
 40
0.000005
 41
0.000005
  0
VERTEX
  8
MECHANICAL4
 10
2.003398
 20
2.003718
 42
1.0
  0
VERTEX
  8
MECHANICAL4
 10
2.003403
 20
2.003718
 42
1.0
  0
SEQEND
  8
0
  0
POLYLINE
  8
MECHANICAL4
 66
     1
 70
     1
 40
0.000005
 41
0.000005
  0
VERTEX
  8
MECHANICAL4
 10
2.003398
 20
2.001867
 42
1.0
  0
VERTEX
  8
MECHANICAL4
 10
2.003403
 20
2.001867
 42
1.0
  0
SEQEND
  8
0
  0
POLYLINE
  8
MECHANICAL4
 66
     1
 70
     1
 40
0.000005
 41
0.000005
  0
VERTEX
  8
MECHANICAL4
 10
2.003398
 20
2.003718
 42
1.0
  0
VERTEX
  8
MECHANICAL4
 10
2.003403
 20
2.003718
 42
1.0
  0
SEQEND
  8
0
  0
POLYLINE
  8
MECHANICAL4
 66
     1
 70
     1
 40
0.000005
 41
0.000005
  0
VERTEX
  8
MECHANICAL4
 10
2.002263
 20
2.003749
 42
1.0
  0
VERTEX
  8
MECHANICAL4
 10
2.002268
 20
2.003749
 42
1.0
  0
SEQEND
  8
0
  0
POLYLINE
  8
MECHANICAL4
 66
     1
 70
     1
 40
0.000005
 41
0.000005
  0
VERTEX
  8
MECHANICAL4
 10
2.002263
 20
2.003875
 42
1.0
  0
VERTEX
  8
MECHANICAL4
 10
2.002268
 20
2.003875
 42
1.0
  0
SEQEND
  8
0
  0
POLYLINE
  8
MECHANICAL4
 66
     1
 70
     1
 40
0.000005
 41
0.000005
  0
VERTEX
  8
MECHANICAL4
 10
2.002139
 20
2.001867
 42
1.0
  0
VERTEX
  8
MECHANICAL4
 10
2.002144
 20
2.001867
 42
1.0
  0
SEQEND
  8
0
  0
POLYLINE
  8
MECHANICAL4
 66
     1
 70
     1
 40
0.000005
 41
0.000005
  0
VERTEX
  8
MECHANICAL4
 10
2.002139
 20
2.003718
 42
1.0
  0
VERTEX
  8
MECHANICAL4
 10
2.002144
 20
2.003718
 42
1.0
  0
SEQEND
  8
0
  0
POLYLINE
  8
MECHANICAL4
 66
     1
 70
     1
 40
0.000005
 41
0.000005
  0
VERTEX
  8
MECHANICAL4
 10
2.002139
 20
2.001867
 42
1.0
  0
VERTEX
  8
MECHANICAL4
 10
2.002144
 20
2.001867
 42
1.0
  0
SEQEND
  8
0
  0
POLYLINE
  8
MECHANICAL4
 66
     1
 70
     1
 40
0.000005
 41
0.000005
  0
VERTEX
  8
MECHANICAL4
 10
2.003398
 20
2.001867
 42
1.0
  0
VERTEX
  8
MECHANICAL4
 10
2.003403
 20
2.001867
 42
1.0
  0
SEQEND
  8
0
  0
POLYLINE
  8
MECHANICAL4
 66
     1
 70
     1
 40
0.000005
 41
0.000005
  0
VERTEX
  8
MECHANICAL4
 10
2.003274
 20
2.003749
 42
1.0
  0
VERTEX
  8
MECHANICAL4
 10
2.003279
 20
2.003749
 42
1.0
  0
SEQEND
  8
0
  0
POLYLINE
  8
MECHANICAL4
 66
     1
 70
     1
 40
0.000005
 41
0.000005
  0
VERTEX
  8
MECHANICAL4
 10
2.003274
 20
2.003875
 42
1.0
  0
VERTEX
  8
MECHANICAL4
 10
2.003279
 20
2.003875
 42
1.0
  0
SEQEND
  8
0
  0
POLYLINE
  8
MECHANICAL4
 66
     1
 70
     1
 40
0.000005
 41
0.000005
  0
VERTEX
  8
MECHANICAL4
 10
2.002263
 20
2.003875
 42
1.0
  0
VERTEX
  8
MECHANICAL4
 10
2.002268
 20
2.003875
 42
1.0
  0
SEQEND
  8
0
  0
POLYLINE
  8
MECHANICAL4
 66
     1
 70
     1
 40
0.000005
 41
0.000005
  0
VERTEX
  8
MECHANICAL4
 10
2.003274
 20
2.003875
 42
1.0
  0
VERTEX
  8
MECHANICAL4
 10
2.003279
 20
2.003875
 42
1.0
  0
SEQEND
  8
0
  0
POLYLINE
  8
MECHANICAL4
 66
     1
 70
     1
 40
0.005
 41
0.005
  0
VERTEX
  8
MECHANICAL4
 10
4.231004
 20
5.71752
 42
1.0
  0
VERTEX
  8
MECHANICAL4
 10
4.236004
 20
5.71752
 42
1.0
  0
SEQEND
  8
0
  0
POLYLINE
  8
MECHANICAL4
 66
     1
 70
     1
 40
0.005
 41
0.005
  0
VERTEX
  8
MECHANICAL4
 10
5.305807
 20
5.71752
 42
1.0
  0
VERTEX
  8
MECHANICAL4
 10
5.310807
 20
5.71752
 42
1.0
  0
SEQEND
  8
0
  0
POLYLINE
  8
MECHANICAL4
 66
     1
 70
     1
 40
0.005
 41
0.005
  0
VERTEX
  8
MECHANICAL4
 10
4.2625
 20
5.749016
 42
1.0
  0
VERTEX
  8
MECHANICAL4
 10
4.2675
 20
5.749016
 42
1.0
  0
SEQEND
  8
0
  0
POLYLINE
  8
MECHANICAL4
 66
     1
 70
     1
 40
0.005
 41
0.005
  0
VERTEX
  8
MECHANICAL4
 10
4.2625
 20
5.875
 42
1.0
  0
VERTEX
  8
MECHANICAL4
 10
4.2675
 20
5.875
 42
1.0
  0
SEQEND
  8
0
  0
POLYLINE
  8
MECHANICAL4
 66
     1
 70
     1
 40
0.005
 41
0.005
  0
VERTEX
  8
MECHANICAL4
 10
5.274311
 20
5.749016
 42
1.0
  0
VERTEX
  8
MECHANICAL4
 10
5.279311
 20
5.749016
 42
1.0
  0
SEQEND
  8
0
  0
POLYLINE
  8
MECHANICAL4
 66
     1
 70
     1
 40
0.005
 41
0.005
  0
VERTEX
  8
MECHANICAL4
 10
5.274311
 20
5.875
 42
1.0
  0
VERTEX
  8
MECHANICAL4
 10
5.279311
 20
5.875
 42
1.0
  0
SEQEND
  8
0
  0
POLYLINE
  8
MECHANICAL4
 66
     1
 70
     1
 40
0.005
 41
0.005
  0
VERTEX
  8
MECHANICAL4
 10
4.2625
 20
5.875
 42
1.0
  0
VERTEX
  8
MECHANICAL4
 10
4.2675
 20
5.875
 42
1.0
  0
SEQEND
  8
0
  0
POLYLINE
  8
MECHANICAL4
 66
     1
 70
     1
 40
0.000005
 41
0.000005
  0
VERTEX
  8
MECHANICAL4
 10
2.003306
 20
2.003718
 42
1.0
  0
VERTEX
  8
MECHANICAL4
 10
2.003311
 20
2.003718
 42
1.0
  0
SEQEND
  8
0
  0
POLYLINE
  8
MECHANICAL4
 66
     1
 70
     1
 40
0.000005
 41
0.000005
  0
VERTEX
  8
MECHANICAL4
 10
2.003274
 20
2.003749
 42
1.0
  0
VERTEX
  8
MECHANICAL4
 10
2.003279
 20
2.003749
 42
1.0
  0
SEQEND
  8
0
  0
POLYLINE
  8
MECHANICAL4
 66
     1
 70
     1
 40
0.000005
 41
0.000005
  0
VERTEX
  8
MECHANICAL4
 10
2.002263
 20
2.003749
 42
1.0
  0
VERTEX
  8
MECHANICAL4
 10
2.002268
 20
2.003749
 42
1.0
  0
SEQEND
  8
0
  0
POLYLINE
  8
MECHANICAL4
 66
     1
 70
     1
 40
0.000005
 41
0.000005
  0
VERTEX
  8
MECHANICAL4
 10
2.002231
 20
2.003718
 42
1.0
  0
VERTEX
  8
MECHANICAL4
 10
2.002236
 20
2.003718
 42
1.0
  0
SEQEND
  8
0
  0
POLYLINE
  8
MECHANICAL4
 66
     1
 70
     1
 40
0.005
 41
0.005
  0
VERTEX
  8
MECHANICAL4
 10
5.305807
 20
5.71752
 42
1.0
  0
VERTEX
  8
MECHANICAL4
 10
5.310807
 20
5.71752
 42
1.0
  0
SEQEND
  8
0
  0
POLYLINE
  8
MECHANICAL4
 66
     1
 70
     1
 40
0.005
 41
0.005
  0
VERTEX
  8
MECHANICAL4
 10
5.274311
 20
5.749016
 42
1.0
  0
VERTEX
  8
MECHANICAL4
 10
5.279311
 20
5.749016
 42
1.0
  0
SEQEND
  8
0
  0
POLYLINE
  8
MECHANICAL4
 66
     1
 70
     1
 40
0.005
 41
0.005
  0
VERTEX
  8
MECHANICAL4
 10
4.2625
 20
5.749016
 42
1.0
  0
VERTEX
  8
MECHANICAL4
 10
4.2675
 20
5.749016
 42
1.0
  0
SEQEND
  8
0
  0
POLYLINE
  8
MECHANICAL4
 66
     1
 70
     1
 40
0.005
 41
0.005
  0
VERTEX
  8
MECHANICAL4
 10
4.231004
 20
5.71752
 42
1.0
  0
VERTEX
  8
MECHANICAL4
 10
4.236004
 20
5.71752
 42
1.0
  0
SEQEND
  8
0
  0
POLYLINE
  8
MECHANICAL4
 66
     1
 70
     1
 40
0.005
 41
0.005
  0
VERTEX
  8
MECHANICAL4
 10
5.274311
 20
5.749016
 42
1.0
  0
VERTEX
  8
MECHANICAL4
 10
5.279311
 20
5.749016
 42
1.0
  0
SEQEND
  8
0
  0
POLYLINE
  8
MECHANICAL4
 66
     1
 70
     1
 40
0.005
 41
0.005
  0
VERTEX
  8
MECHANICAL4
 10
5.305807
 20
5.71752
 42
1.0
  0
VERTEX
  8
MECHANICAL4
 10
5.310807
 20
5.71752
 42
1.0
  0
SEQEND
  8
0
  0
POLYLINE
  8
MECHANICAL4
 66
     1
 70
     1
 40
0.005
 41
0.005
  0
VERTEX
  8
MECHANICAL4
 10
4.231004
 20
5.71752
 42
1.0
  0
VERTEX
  8
MECHANICAL4
 10
4.236004
 20
5.71752
 42
1.0
  0
SEQEND
  8
0
  0
POLYLINE
  8
MECHANICAL4
 66
     1
 70
     1
 40
0.005
 41
0.005
  0
VERTEX
  8
MECHANICAL4
 10
4.2625
 20
5.749016
 42
1.0
  0
VERTEX
  8
MECHANICAL4
 10
4.2675
 20
5.749016
 42
1.0
  0
SEQEND
  8
0
  0
POLYLINE
  8
MECHANICAL4
 66
     1
 70
     1
 40
0.005
 41
0.005
  0
VERTEX
  8
MECHANICAL4
 10
5.274311
 20
5.875
 42
1.0
  0
VERTEX
  8
MECHANICAL4
 10
5.279311
 20
5.875
 42
1.0
  0
SEQEND
  8
0
  0
POLYLINE
  8
MECHANICAL4
 66
     1
 70
     1
 40
0.005
 41
0.005
  0
VERTEX
  8
MECHANICAL4
 10
4.2625
 20
5.875
 42
1.0
  0
VERTEX
  8
MECHANICAL4
 10
4.2675
 20
5.875
 42
1.0
  0
SEQEND
  8
0
  0
POLYLINE
  8
MECHANICAL4
 66
     1
 70
     1
 40
0.005
 41
0.005
  0
VERTEX
  8
MECHANICAL4
 10
5.274311
 20
5.875
 42
1.0
  0
VERTEX
  8
MECHANICAL4
 10
5.279311
 20
5.875
 42
1.0
  0
SEQEND
  8
0
  0
POLYLINE
  8
MECHANICAL4
 66
     1
 70
     1
 40
0.005
 41
0.005
  0
VERTEX
  8
MECHANICAL4
 10
5.274311
 20
5.749016
 42
1.0
  0
VERTEX
  8
MECHANICAL4
 10
5.279311
 20
5.749016
 42
1.0
  0
SEQEND
  8
0
  0
POLYLINE
  8
MECHANICAL4
 66
     1
 70
     1
 40
0.005
 41
0.005
  0
VERTEX
  8
MECHANICAL4
 10
4.2625
 20
5.875
 42
1.0
  0
VERTEX
  8
MECHANICAL4
 10
4.2675
 20
5.875
 42
1.0
  0
SEQEND
  8
0
  0
POLYLINE
  8
MECHANICAL4
 66
     1
 70
     1
 40
0.005
 41
0.005
  0
VERTEX
  8
MECHANICAL4
 10
4.2625
 20
5.749016
 42
1.0
  0
VERTEX
  8
MECHANICAL4
 10
4.2675
 20
5.749016
 42
1.0
  0
SEQEND
  8
0
  0
POLYLINE
  8
MECHANICAL4
 66
     1
 70
     1
 40
0.005
 41
0.005
  0
VERTEX
  8
MECHANICAL4
 10
5.305807
 20
5.71752
 42
1.0
  0
VERTEX
  8
MECHANICAL4
 10
5.310807
 20
5.71752
 42
1.0
  0
SEQEND
  8
0
  0
POLYLINE
  8
MECHANICAL4
 66
     1
 70
     1
 40
0.005
 41
0.005
  0
VERTEX
  8
MECHANICAL4
 10
4.231004
 20
5.71752
 42
1.0
  0
VERTEX
  8
MECHANICAL4
 10
4.236004
 20
5.71752
 42
1.0
  0
SEQEND
  8
0
  0
POLYLINE
  8
MECHANICAL4
 66
     1
 70
     1
 40
0.000005
 41
0.000005
  0
VERTEX
  8
MECHANICAL4
 10
2.003274
 20
2.003749
 42
1.0
  0
VERTEX
  8
MECHANICAL4
 10
2.003279
 20
2.003749
 42
1.0
  0
SEQEND
  8
0
  0
POLYLINE
  8
MECHANICAL4
 66
     1
 70
     1
 40
0.000005
 41
0.000005
  0
VERTEX
  8
MECHANICAL4
 10
2.003306
 20
2.003718
 42
1.0
  0
VERTEX
  8
MECHANICAL4
 10
2.003311
 20
2.003718
 42
1.0
  0
SEQEND
  8
0
  0
POLYLINE
  8
MECHANICAL4
 66
     1
 70
     1
 40
0.000005
 41
0.000005
  0
VERTEX
  8
MECHANICAL4
 10
2.002231
 20
2.003718
 42
1.0
  0
VERTEX
  8
MECHANICAL4
 10
2.002236
 20
2.003718
 42
1.0
  0
SEQEND
  8
0
  0
POLYLINE
  8
MECHANICAL4
 66
     1
 70
     1
 40
0.000005
 41
0.000005
  0
VERTEX
  8
MECHANICAL4
 10
2.002263
 20
2.003749
 42
1.0
  0
VERTEX
  8
MECHANICAL4
 10
2.002268
 20
2.003749
 42
1.0
  0
SEQEND
  8
0
  0
POLYLINE
  8
MECHANICAL4
 66
     1
 70
     1
 40
0.000005
 41
0.000005
  0
VERTEX
  8
MECHANICAL4
 10
2.003274
 20
2.003875
 42
1.0
  0
VERTEX
  8
MECHANICAL4
 10
2.003279
 20
2.003875
 42
1.0
  0
SEQEND
  8
0
  0
POLYLINE
  8
MECHANICAL4
 66
     1
 70
     1
 40
0.000005
 41
0.000005
  0
VERTEX
  8
MECHANICAL4
 10
2.002263
 20
2.003875
 42
1.0
  0
VERTEX
  8
MECHANICAL4
 10
2.002268
 20
2.003875
 42
1.0
  0
SEQEND
  8
0
  0
POLYLINE
  8
MECHANICAL4
 66
     1
 70
     1
 40
0.000005
 41
0.000005
  0
VERTEX
  8
MECHANICAL4
 10
2.003274
 20
2.003875
 42
1.0
  0
VERTEX
  8
MECHANICAL4
 10
2.003279
 20
2.003875
 42
1.0
  0
SEQEND
  8
0
  0
POLYLINE
  8
MECHANICAL4
 66
     1
 70
     1
 40
0.000005
 41
0.000005
  0
VERTEX
  8
MECHANICAL4
 10
2.003274
 20
2.003749
 42
1.0
  0
VERTEX
  8
MECHANICAL4
 10
2.003279
 20
2.003749
 42
1.0
  0
SEQEND
  8
0
  0
POLYLINE
  8
MECHANICAL4
 66
     1
 70
     1
 40
0.000005
 41
0.000005
  0
VERTEX
  8
MECHANICAL4
 10
2.003398
 20
2.001867
 42
1.0
  0
VERTEX
  8
MECHANICAL4
 10
2.003403
 20
2.001867
 42
1.0
  0
SEQEND
  8
0
  0
POLYLINE
  8
MECHANICAL4
 66
     1
 70
     1
 40
0.000005
 41
0.000005
  0
VERTEX
  8
MECHANICAL4
 10
2.002139
 20
2.001867
 42
1.0
  0
VERTEX
  8
MECHANICAL4
 10
2.002144
 20
2.001867
 42
1.0
  0
SEQEND
  8
0
  0
POLYLINE
  8
MECHANICAL4
 66
     1
 70
     1
 40
0.000005
 41
0.000005
  0
VERTEX
  8
MECHANICAL4
 10
2.002139
 20
2.003718
 42
1.0
  0
VERTEX
  8
MECHANICAL4
 10
2.002144
 20
2.003718
 42
1.0
  0
SEQEND
  8
0
  0
POLYLINE
  8
MECHANICAL4
 66
     1
 70
     1
 40
0.000005
 41
0.000005
  0
VERTEX
  8
MECHANICAL4
 10
2.002139
 20
2.001867
 42
1.0
  0
VERTEX
  8
MECHANICAL4
 10
2.002144
 20
2.001867
 42
1.0
  0
SEQEND
  8
0
  0
POLYLINE
  8
MECHANICAL4
 66
     1
 70
     1
 40
0.000005
 41
0.000005
  0
VERTEX
  8
MECHANICAL4
 10
2.002263
 20
2.003875
 42
1.0
  0
VERTEX
  8
MECHANICAL4
 10
2.002268
 20
2.003875
 42
1.0
  0
SEQEND
  8
0
  0
POLYLINE
  8
MECHANICAL4
 66
     1
 70
     1
 40
0.000005
 41
0.000005
  0
VERTEX
  8
MECHANICAL4
 10
2.002263
 20
2.003749
 42
1.0
  0
VERTEX
  8
MECHANICAL4
 10
2.002268
 20
2.003749
 42
1.0
  0
SEQEND
  8
0
  0
POLYLINE
  8
MECHANICAL4
 66
     1
 70
     1
 40
0.000005
 41
0.000005
  0
VERTEX
  8
MECHANICAL4
 10
2.003398
 20
2.003718
 42
1.0
  0
VERTEX
  8
MECHANICAL4
 10
2.003403
 20
2.003718
 42
1.0
  0
SEQEND
  8
0
  0
POLYLINE
  8
MECHANICAL4
 66
     1
 70
     1
 40
0.000005
 41
0.000005
  0
VERTEX
  8
MECHANICAL4
 10
2.003398
 20
2.001867
 42
1.0
  0
VERTEX
  8
MECHANICAL4
 10
2.003403
 20
2.001867
 42
1.0
  0
SEQEND
  8
0
  0
POLYLINE
  8
MECHANICAL4
 66
     1
 70
     1
 40
0.000005
 41
0.000005
  0
VERTEX
  8
MECHANICAL4
 10
2.003398
 20
2.003718
 42
1.0
  0
VERTEX
  8
MECHANICAL4
 10
2.003403
 20
2.003718
 42
1.0
  0
SEQEND
  8
0
  0
POLYLINE
  8
MECHANICAL4
 66
     1
 70
     1
 40
0.000005
 41
0.000005
  0
VERTEX
  8
MECHANICAL4
 10
2.003306
 20
2.003718
 42
1.0
  0
VERTEX
  8
MECHANICAL4
 10
2.003311
 20
2.003718
 42
1.0
  0
SEQEND
  8
0
  0
POLYLINE
  8
MECHANICAL4
 66
     1
 70
     1
 40
0.000005
 41
0.000005
  0
VERTEX
  8
MECHANICAL4
 10
2.002231
 20
2.003718
 42
1.0
  0
VERTEX
  8
MECHANICAL4
 10
2.002236
 20
2.003718
 42
1.0
  0
SEQEND
  8
0
  0
POLYLINE
  8
MECHANICAL4
 66
     1
 70
     1
 40
0.000005
 41
0.000005
  0
VERTEX
  8
MECHANICAL4
 10
2.002139
 20
2.003718
 42
1.0
  0
VERTEX
  8
MECHANICAL4
 10
2.002144
 20
2.003718
 42
1.0
  0
SEQEND
  8
0
  0
ENDSEC
  0
EOF
