G04 ================== begin FILE IDENTIFICATION RECORD ==================*
G04 Layout Name:  F:/work/ZM/Frogs/Design/M3/pcb/PARK/GetWay/RF/allegro/lora.brd*
G04 Film Name:    BOTTOM*
G04 File Format:  Gerber RS274X*
G04 File Origin:  Cadence Allegro 16.6-2015-S108*
G04 Origin Date:  Tue Nov 13 10:08:04 2018*
G04 *
G04 Layer:  BOARD GEOMETRY/OUTLINE*
G04 Layer:  ETCH/BOTTOM*
G04 Layer:  PIN/BOTTOM*
G04 Layer:  VIA CLASS/BOTTOM*
G04 *
G04 Offset:    (0.000 0.000)*
G04 Mirror:    No*
G04 Mode:      Positive*
G04 Rotation:  0*
G04 FullContactRelief:  No*
G04 UndefLineWidth:     6.000*
G04 ================== end FILE IDENTIFICATION RECORD ====================*
%FSLAX25Y25*MOIN*%
%IR0*IPPOS*OFA0.00000B0.00000*MIA0B0*SFA1.00000B1.00000*%
%ADD12C,.02*%
%ADD11C,.03*%
%ADD13C,.04*%
%ADD10C,.059059*%
%ADD14C,.005*%
%ADD15C,.008*%
%ADD16C,.004988*%
%ADD17C,.01*%
%ADD18C,.006*%
%ADD21C,.054004*%
%ADD20C,.083064*%
%ADD19C,.069064*%
%ADD22C,.099064*%
G75*
%LPD*%
G75*
G36*
G01X500Y500D02*
Y82937D01*
X84113D01*
G02X84499Y82432I0J-400D01*
G03X84460Y82263I2123J-577D01*
G02X84197Y82112I-197J37D01*
G03X81870Y78525I-727J-2077D01*
G01Y77528D01*
G03X85010Y74447I1600J-1510D01*
G02X85273Y74462I140J-143D01*
G03X88222Y77710I1349J1738D01*
G01Y80346D01*
G03X88745Y82432I-1600J1510D01*
G02X89131Y82937I386J105D01*
G01X142209D01*
Y500D01*
X90604D01*
G02X90297Y1157I0J400D01*
G03X86155I-2071J1732D01*
G02X85848Y500I-307J-257D01*
G01X500D01*
G37*
%LPC*%
G75*
G36*
G01X24016Y10123D02*
G02X18504I-2756J-3107D01*
G03X18239Y10823I-265J299D01*
G01X16805D01*
G02Y13723I-1655J1450D01*
G01X91082D01*
X92243Y12563D01*
X92329Y12566D01*
G02X90191Y10425I61J-2199D01*
G01X90193Y10511D01*
X89882Y10823D01*
X54281D01*
G03X54015Y10123I0J-400D01*
G02X48504I-2756J-3107D01*
G03X48239Y10823I-265J299D01*
G01X43061D01*
G03X42874Y10069I0J-400D01*
G02X39646I-1614J-3053D01*
G03X39459Y10823I-187J354D01*
G01X34281D01*
G03X34016Y10123I0J-400D01*
G02X28504I-2756J-3107D01*
G03X28239Y10823I-265J299D01*
G01X24281D01*
G03X24016Y10123I0J-400D01*
G37*
G36*
G01X18595Y18232D02*
G02Y21132I-1655J1450D01*
G01X23220D01*
G03X23460Y21852I0J400D01*
G02X24843Y25809I1323J1758D01*
G01X24929Y25807D01*
X25588Y26466D01*
X25749D01*
G03X26149Y26892I0J400D01*
G02X26848Y28647I2196J142D01*
G03X26576Y29340I-272J293D01*
G01X24307D01*
X23366Y30282D01*
X23042D01*
Y30034D01*
X23063Y29992D01*
G02X18128Y29739I-2412J-1215D01*
G03X17754Y30282I-374J142D01*
G01X10474D01*
G02X10475Y33182I-3891J1451D01*
G01X13294D01*
G03X13577Y33865I0J400D01*
G01X10536Y36906D01*
Y38886D01*
G03X9824Y39136I-400J0D01*
G02X4181Y45122I-3241J2597D01*
G03X3950Y45848I-231J326D01*
G01X3225D01*
X1264Y47811D01*
Y58465D01*
X2804Y60004D01*
X2752Y60128D01*
G02X4979Y57902I3831J1605D01*
G01X4855Y57954D01*
X4164Y57263D01*
Y55814D01*
G03X4742Y55456I400J0D01*
G02X10475Y53182I1841J-3723D01*
G01X11094D01*
X15154Y49122D01*
Y48501D01*
G02X13816Y44649I-1450J-1655D01*
G03X13436Y44249I20J-399D01*
G01Y38108D01*
X15283Y36261D01*
X31006D01*
G02X34506Y36009I1655J-1450D01*
G03X35197Y36042I336J218D01*
G02X35700Y36684I1953J-1013D01*
G01Y37525D01*
X35426Y37799D01*
X19677D01*
X17542Y39936D01*
Y58723D01*
X8311Y67954D01*
X8187Y67902D01*
G02X10413Y70128I-1604J3831D01*
G01X10362Y70005D01*
X19016Y61351D01*
X19157Y61491D01*
G02X22902Y59893I1545J-1567D01*
G02X21146Y56263I-85J-2199D01*
G03X20442Y56002I-304J-260D01*
G01Y41136D01*
X20879Y40699D01*
X36628D01*
X37247Y40080D01*
G03X37866Y40147I283J283D01*
G02X41371Y40406I1850J-1191D01*
G01X80876D01*
G03X81189Y41055I0J400D01*
G02X85414I2113J1682D01*
G03X85727Y40406I313J-249D01*
G01X88774D01*
X97072Y48705D01*
X97070Y48791D01*
G02X98169Y50757I2199J60D01*
G03X98264Y51373I-200J346D01*
G02X99742Y55055I1622J1487D01*
G03X99928Y55268I-13J200D01*
G02X99930Y55568I2196J142D01*
G03X99754Y55781I-199J14D01*
G02X97833Y58225I264J2184D01*
G03X97436Y58672I-397J47D01*
G01X57987D01*
G03X57600Y58170I0J-400D01*
G02X51410I-3095J-812D01*
G03X51023Y58672I-387J102D01*
G01X32177D01*
G02X30195Y62438I-1486J1622D01*
G03X30503Y62869I-90J390D01*
G02X32858Y65294I2188J231D01*
G03X33288Y65672I30J399D01*
G02X36735Y67368I2197J-114D01*
G01X46609D01*
G03X46884Y68059I0J400D01*
G02X51287I2202J2323D01*
G03X51563Y67368I275J-290D01*
G01X101485D01*
G02X105081Y65677I1397J-1700D01*
G03X105444Y65281I400J2D01*
G02X105552Y60913I-208J-2190D01*
G03X105210Y60495I57J-396D01*
G02X102675Y58198I-2197J-123D01*
G03X102214Y57828I-61J-395D01*
G02X102213Y57807I-2196J138D01*
G03X102388Y57594I199J-14D01*
G02X102268Y53214I-264J-2184D01*
G03X102081Y53002I13J-200D01*
G02X100986Y50954I-2196J-142D01*
G03X100891Y50338I200J-346D01*
G02X99209Y46652I-1622J-1487D01*
G01X99123Y46654D01*
X89976Y37506D01*
X41371D01*
G02X39426Y36775I-1655J1450D01*
G03X39031Y36171I-53J-397D01*
G02X39332Y34743I-1881J-1142D01*
G03X39728Y34291I397J-52D01*
G01X71897D01*
X75234Y30955D01*
X94356D01*
X94878Y31477D01*
X94875Y31563D01*
G02X99274Y31705I2199J61D01*
G03X99454Y31513I200J7D01*
G02X99493Y27137I-209J-2190D01*
G01X99423Y27129D01*
X95860Y23566D01*
X26990D01*
X26972Y23386D01*
G02X26106Y21852I-2189J224D01*
G03X26346Y21132I241J-320D01*
G01X90754D01*
G02Y18232I1655J-1450D01*
G01X18595D01*
G37*
G54D21*
X26390Y74072D03*
X107930Y68213D03*
G54D20*
X6583Y21733D03*
G54D19*
Y11733D03*
X135717Y49292D03*
Y59292D03*
Y69292D03*
G54D22*
X122799Y14744D03*
%LPD*%
G75*
G36*
G01X30939Y26466D02*
G02X30540Y26892I0J400D01*
G03X30315Y28012I-2196J142D01*
G02X30675Y28590I358J178D01*
G03X32878Y30960I9J2200D01*
G02X33276Y31391I399J31D01*
G01X70696D01*
X74033Y28055D01*
X95558D01*
X96858Y29355D01*
X97049Y29164D01*
X97057Y29093D01*
G03X97070Y28992I2188J230D01*
G01X97085Y28892D01*
X94659Y26466D01*
X30939D01*
G37*
G54D10*
X6583Y11733D03*
Y21733D03*
Y31733D03*
Y41733D03*
Y51733D03*
Y61733D03*
Y71733D03*
X31260Y7016D03*
X21260D03*
X41260D03*
X51260D03*
X122799Y14744D03*
X135717Y49292D03*
Y59292D03*
Y69292D03*
G54D11*
X11370Y6139D03*
X4583Y3044D03*
X11815Y78810D03*
X20651Y28777D03*
X29277Y41846D03*
X27949Y46465D03*
X16260Y58016D03*
X27734Y61680D03*
X16636Y74397D03*
X16896Y68018D03*
X26390Y74072D03*
X17749Y80331D03*
X24387Y80738D03*
X41521Y29596D03*
X35921Y30264D03*
X50088Y29800D03*
X48568Y53332D03*
X57672Y73266D03*
X65900Y22400D03*
X76700Y34000D03*
X65776Y47324D03*
X67203Y72431D03*
X88226Y2889D03*
X83301Y42737D03*
X78051Y54593D03*
X83911D03*
X90067Y54296D03*
X84245Y68240D03*
X107757Y10367D03*
X101972Y10404D03*
X96001Y10219D03*
X95000Y5138D03*
X102899Y2208D03*
X107962Y21252D03*
X100433Y21326D03*
X98512Y44095D03*
X107312Y56484D03*
X107930Y68213D03*
X95012Y80760D03*
X104100Y80800D03*
X95111Y76362D03*
X109800Y2400D03*
X123668Y8216D03*
X114470Y10144D03*
X117697Y2245D03*
X113840Y21103D03*
X119866Y22476D03*
X120030Y41531D03*
X117993Y36309D03*
X114210Y54778D03*
X120515Y54704D03*
X119996Y49660D03*
X120030Y61531D03*
X112100Y80600D03*
X118772Y79997D03*
X130640Y9069D03*
X125200Y2500D03*
X132531Y2653D03*
X138910D03*
X125911Y23403D03*
X131845Y23996D03*
X129935Y27853D03*
X125781Y41501D03*
X130528Y34900D03*
X137501Y37051D03*
X131715Y40166D03*
X136536Y31191D03*
X127190Y54852D03*
X126152Y48251D03*
X126634Y80219D03*
X134348Y80145D03*
X131752Y76881D03*
G54D12*
X13704Y46846D03*
X15150Y12273D03*
X24783Y23610D03*
X28344Y27034D03*
X16940Y19682D03*
X28722Y32841D03*
X22817Y57694D03*
X20702Y59924D03*
X30684Y30790D03*
X37150Y35029D03*
X32661Y34811D03*
X39716Y38956D03*
X30691Y60294D03*
X32691Y63100D03*
X35485Y65558D03*
X92390Y10366D03*
X92409Y19682D03*
X86622Y81856D03*
Y76200D03*
X83470Y80035D03*
Y76018D03*
X99245Y29323D03*
X97075Y31624D03*
X99886Y52860D03*
X102124Y55410D03*
X100018Y57965D03*
X99269Y48851D03*
X103013Y60372D03*
X105236Y63090D03*
X102881Y65668D03*
G54D13*
X54505Y57358D03*
X49086Y70381D03*
G54D14*
G01X6583Y31733D02*
X6583Y31732D01*
X23966D01*
X24908Y30790D01*
X30684D01*
G01X6583Y61733D02*
X6583Y61732D01*
X2714Y57864D01*
Y48411D01*
X3826Y47298D01*
X10391D01*
X11986Y45703D01*
Y37507D01*
X14682Y34811D01*
X32661D01*
G01X6583Y51733D02*
X6583Y51732D01*
X10493D01*
X13704Y48521D01*
Y46846D01*
G01X6583Y71733D02*
X6583Y71732D01*
X18992Y59324D01*
Y40536D01*
X20278Y39249D01*
X36027D01*
X37150Y38126D01*
Y35029D01*
G01X24783Y23610D02*
X26189Y25016D01*
X95260D01*
X99245Y29001D01*
Y29323D01*
G01X92390Y10366D02*
X90482Y12273D01*
X15150D01*
G01X92409Y19682D02*
X16940D01*
G01X97075Y31624D02*
X94957Y29505D01*
X74634D01*
X71297Y32841D01*
X28722D01*
G01X39716Y38956D02*
X89375D01*
X99269Y48851D01*
G54D15*
G01X86622Y76200D02*
Y81856D01*
G01X83470Y76018D02*
Y80035D01*
G54D16*
G01X6583Y8080D02*
Y11733D01*
G01D02*
Y15386D01*
G01X2930Y11733D02*
X6583D01*
G01D02*
X10236D01*
G01X41260Y3363D02*
Y7016D01*
G01X37607D02*
X41260D01*
G01D02*
X44913D01*
G01X135717Y55639D02*
Y59292D01*
G01Y45639D02*
Y49292D01*
G01D02*
Y52945D01*
G01X132064Y49292D02*
X135717D01*
G01D02*
X139370D01*
G01X135717Y65639D02*
Y69292D01*
G01D02*
Y72945D01*
G01X132064Y69292D02*
X135717D01*
G01D02*
X139370D01*
G01X135717Y59292D02*
Y62945D01*
G01X132064Y59292D02*
X135717D01*
G01D02*
X139370D01*
G54D17*
G01X103013Y60372D02*
X30768D01*
X30691Y60294D01*
G01X32691Y63100D02*
X32701Y63090D01*
X105236D01*
G01X35485Y65558D02*
X35594Y65668D01*
X102881D01*
G54D18*
G01X0Y0D02*
X142709D01*
Y83437D01*
X0D01*
Y0D01*
M02*
