G04 ================== begin FILE IDENTIFICATION RECORD ==================*
G04 Layout Name:  F:/work/ZM/Frogs/Design/M3/pcb/PARK/GetWay/RF/allegro/lora.brd*
G04 Film Name:    DRILL*
G04 File Format:  Gerber RS274X*
G04 File Origin:  Cadence Allegro 16.6-2015-S108*
G04 Origin Date:  Tue Nov 13 10:08:05 2018*
G04 *
G04 Layer:  MANUFACTURING/PHOTOPLOT_OUTLINE*
G04 Layer:  MANUFACTURING/NCDRILL_FIGURE*
G04 Layer:  BOARD GEOMETRY/TOOLING_CORNERS*
G04 Layer:  BOARD GEOMETRY/DIMENSION*
G04 Layer:  MANUFACTURING/NCLEGEND-1-4*
G04 Layer:  MANUFACTURING/NCDRILL_LEGEND*
G04 Layer:  DRAWING FORMAT/TITLE_BLOCK*
G04 Layer:  BOARD GEOMETRY/OUTLINE*
G04 Layer:  ETCH/TOP*
G04 *
G04 Offset:    (0.000 0.000)*
G04 Mirror:    No*
G04 Mode:      Positive*
G04 Rotation:  0*
G04 FullContactRelief:  No*
G04 UndefLineWidth:     0.000*
G04 ================== end FILE IDENTIFICATION RECORD ====================*
%FSLAX25Y25*MOIN*%
%IR0*IPPOS*OFA0.00000B0.00000*MIA0B0*SFA1.00000B1.00000*%
%AMMACRO12*
1,1,0.0,.006,0.0*
20,1,0.0,.006,0.0,-.006,0.0,0.0*
1,1,0.0,-.006,0.0*
1,1,0.0,0.0,.006*
20,1,0.0,0.0,.006,0.0,-.006,0.0*
1,1,0.0,0.0,-.006*
%
%ADD12MACRO12*%
%AMMACRO13*
1,1,0.0,.0125,0.0*
20,1,0.0,.0125,0.0,.00625,.010825,0.0*
1,1,0.0,.00625,.010825*
20,1,0.0,.00625,.010825,-.00625,.010825,0.0*
1,1,0.0,-.00625,.010825*
20,1,0.0,-.00625,.010825,-.0125,0.0,0.0*
1,1,0.0,-.0125,0.0*
20,1,0.0,-.0125,0.0,-.00625,-.010825,0.0*
1,1,0.0,-.00625,-.010825*
20,1,0.0,-.00625,-.010825,.00625,-.010825,0.0*
1,1,0.0,.00625,-.010825*
20,1,0.0,.00625,-.010825,.0125,0.0,0.0*
1,1,0.0,.0125,0.0*
%
%ADD13MACRO13*%
%AMMACRO10*
1,1,0.0,0.0,.017715*
20,1,0.0,0.0,.017715,-.015341,.008857,0.0*
1,1,0.0,-.015341,.008857*
20,1,0.0,-.015341,.008857,-.015341,-.008857,0.0*
1,1,0.0,-.015341,-.008857*
20,1,0.0,-.015341,-.008857,0.0,-.017715,0.0*
1,1,0.0,0.0,-.017715*
20,1,0.0,0.0,-.017715,.015341,-.008857,0.0*
1,1,0.0,.015341,-.008857*
20,1,0.0,.015341,-.008857,.015341,.008857,0.0*
1,1,0.0,.015341,.008857*
20,1,0.0,.015341,.008857,0.0,.017715,0.0*
1,1,0.0,0.0,.017715*
%
%ADD10MACRO10*%
%AMMACRO11*
1,1,0.0,.01,.01*
20,1,0.0,.01,.01,.01,-.01,0.0*
1,1,0.0,.01,-.01*
20,1,0.0,.01,-.01,-.01,-.01,0.0*
1,1,0.0,-.01,-.01*
20,1,0.0,-.01,-.01,-.01,.01,0.0*
1,1,0.0,-.01,.01*
20,1,0.0,-.01,.01,.01,.01,0.0*
1,1,0.0,.01,.01*
%
%ADD11MACRO11*%
%ADD14C,.005*%
%ADD15C,.008*%
%ADD16C,.005909*%
%ADD17C,.004988*%
%ADD18C,.01*%
%ADD19C,.02*%
%ADD20C,.015*%
%ADD22C,.083064*%
%ADD24R,.041504X.042684*%
%ADD23R,.042684X.041504*%
%ADD21C,.069064*%
%ADD26R,.042686X.041504*%
%ADD25R,.041504X.042686*%
G75*
%LPD*%
G75*
G36*
G01X500Y500D02*
Y82937D01*
X44670D01*
G02X44953Y82254I0J-400D01*
G01X40952Y78253D01*
X40891Y78242D01*
G03X39816Y77659I362J-1951D01*
G02X39126Y77935I-290J276D01*
G01Y78912D01*
X33858D01*
Y77907D01*
X32789D01*
Y78291D01*
X28289D01*
Y76786D01*
G02X27695Y76436I-400J0D01*
G03X24156Y72556I-1305J-2364D01*
G01X24190Y72506D01*
Y71185D01*
X24140D01*
Y67670D01*
X23486D01*
Y70713D01*
X19986D01*
Y67670D01*
X19486D01*
Y63702D01*
X20286D01*
Y62722D01*
X19273Y61708D01*
Y61599D01*
X19208Y61540D01*
G03X19051Y58470I1494J-1616D01*
G01Y52357D01*
X18667D01*
Y50389D01*
X18568D01*
Y50248D01*
X11005D01*
G02X10616Y50744I0J400D01*
G03X6209Y47597I-4034J990D01*
G02X6456Y46916I-36J-398D01*
G01X6397Y46857D01*
Y45882D01*
G03X9363Y44818I186J-4149D01*
G01X9297Y44878D01*
Y45655D01*
X10990Y47348D01*
X11106D01*
G02X11505Y46932I0J-400D01*
G03X13700Y44646I2199J-86D01*
G01Y13927D01*
G03X16600I1450J-1655D01*
G01Y17082D01*
G02X16991Y17482I400J0D01*
G03X18796Y18500I-51J2200D01*
G02X19416Y18568I337J-215D01*
G01X22168Y15816D01*
X31327D01*
Y15441D01*
X36595D01*
Y20591D01*
X36161D01*
Y22441D01*
X36595D01*
Y27591D01*
X31327D01*
Y22441D01*
X31761D01*
Y20591D01*
X31327D01*
Y20216D01*
X23991D01*
X22851Y21356D01*
Y21509D01*
G02X23487Y21832I400J0D01*
G03X26296Y25208I1296J1778D01*
G01X26233Y25267D01*
Y25781D01*
X26532D01*
X26593Y25702D01*
G03X30315Y28012I1752J1332D01*
G02X30675Y28590I358J178D01*
G03X32523Y31999I9J2200D01*
G02X32827Y32617I334J220D01*
G03X34475Y33566I-166J2194D01*
G01X35507D01*
G03X39031Y36171I1643J1463D01*
G02X39426Y36775I342J208D01*
G03X41171Y37306I291J2181D01*
G01X41228Y37356D01*
X41439D01*
X41491Y37320D01*
G03X43594Y37225I1128J1633D01*
G02X44191Y36877I197J-348D01*
G01Y36336D01*
X47223D01*
G03X50382Y34343I3159J1507D01*
G01X54405D01*
X54421Y34340D01*
G03X54976Y34296I555J3456D01*
G01X56851D01*
Y31551D01*
X56866Y31536D01*
Y27769D01*
X56863Y27753D01*
G03X57184Y25648I3457J-550D01*
G01X57247Y25521D01*
X56790Y25052D01*
Y19786D01*
G03X57265Y18025I3500J0D01*
G03X56760Y16213I2995J-1812D01*
G01Y12559D01*
G03X58510Y9528I3500J0D01*
G01Y7532D01*
X60751D01*
X60790Y7381D01*
G03X65723Y5106I3391J867D01*
G01X65851Y5169D01*
X66329Y4689D01*
X70538D01*
Y3162D01*
X74038D01*
Y4650D01*
X76358D01*
G03X78129Y5131I0J3500D01*
G03X79901Y4650I1772J3019D01*
G01X79902D01*
G03X80300Y4672I0J3500D01*
G01X80311Y4674D01*
X82329D01*
Y3146D01*
X85129D01*
G02X85529Y2764I0J-400D01*
G03X86155Y1157I2697J125D01*
G02X85848Y500I-307J-257D01*
G01X500D01*
G37*
G36*
G01X22636Y39168D02*
Y40546D01*
X22628D01*
Y41302D01*
X23128D01*
Y50062D01*
X34316D01*
Y39660D01*
X23194D01*
Y39168D01*
X22636D01*
G37*
G36*
G01X28640Y67001D02*
X29635D01*
X32739Y70105D01*
Y70780D01*
X32789D01*
Y74707D01*
X33858D01*
Y73762D01*
X38362D01*
Y72613D01*
X33858D01*
Y67039D01*
G03X33288Y65672I1627J-1481D01*
G02X32858Y65294I-399J21D01*
G03X30503Y62869I-167J-2194D01*
G02X30195Y62438I-398J-42D01*
G03X28991Y58898I496J-2144D01*
G01Y54621D01*
X24417D01*
Y56184D01*
G03X22902Y59893I-1600J1510D01*
G03X22699Y60849I-2200J31D01*
G01X22640Y60975D01*
X23186Y61522D01*
Y63702D01*
X24140D01*
Y63674D01*
X28640D01*
Y67001D01*
G37*
G36*
G01X46322Y44796D02*
X46488Y44962D01*
Y61123D01*
X46970D01*
X47010Y61105D01*
G03X47922Y60907I912J2002D01*
G01X51264D01*
Y60524D01*
X51639D01*
Y58782D01*
X51619Y58741D01*
G03X52211Y55127I2886J-1383D01*
G02X52207Y54565I-287J-279D01*
G01X47132Y49490D01*
Y44113D01*
X46605D01*
G02X46322Y44796I0J400D01*
G37*
G36*
G01X50494Y73471D02*
G03X50645Y73944I-1800J835D01*
G01X50657Y74005D01*
X51666Y75015D01*
X77354D01*
Y74225D01*
X75295D01*
Y70485D01*
X74114D01*
Y69304D01*
X70374D01*
Y65295D01*
X65236D01*
X65208Y65322D01*
X63815D01*
Y65757D01*
X58665D01*
Y65358D01*
X56414D01*
Y65793D01*
X51264D01*
Y65307D01*
X50172D01*
Y67371D01*
G03X51111Y67903I-1087J3010D01*
G02X51764Y67593I253J-310D01*
G01Y67323D01*
X55914D01*
Y71591D01*
X52048D01*
G03X50582Y73210I-2963J-1210D01*
G02X50494Y73471I94J177D01*
G37*
G36*
G01X65993Y15471D02*
G03X64051Y16059I-1942J-2912D01*
G01X63791D01*
X63790Y16258D01*
G03X63309Y18014I-3500J-16D01*
G03X63790Y19786I-3019J1772D01*
G01Y22206D01*
X63820Y22237D01*
Y23660D01*
G03X63362Y25392I-3500J0D01*
G03X63866Y27203I-2995J1811D01*
G01Y31229D01*
X65393D01*
Y34729D01*
X63851D01*
Y37795D01*
G03X63370Y39567I-3500J0D01*
G03X63823Y41785I-3019J1771D01*
G01X63821Y41798D01*
Y45450D01*
G02X67729Y49358I3908J-1D01*
G01X68026D01*
G02X68386Y48784I0J-400D01*
G03X67764Y46064I5637J-2720D01*
G01Y42742D01*
X66237D01*
Y39242D01*
X67775D01*
Y36866D01*
G03X68256Y35095I3500J0D01*
G03X67775Y33323I3019J-1772D01*
G01Y28384D01*
G03X67796Y27993I3500J0D01*
G01X67798Y27981D01*
Y24029D01*
G03X68279Y22258I3500J0D01*
G03X67798Y20486I3019J-1772D01*
G01Y19902D01*
G03X68853Y16472I6102J0D01*
G02X68441Y15855I-331J-225D01*
G03X67725Y15929I-715J-3426D01*
G01X67724D01*
G03X65993Y15471I0J-3500D01*
G37*
G36*
G01X110944Y17777D02*
G03X109162Y18264I-1782J-3013D01*
G01X106943D01*
Y19791D01*
X103443D01*
Y18264D01*
X102005D01*
X102001Y18268D01*
X100551D01*
G03X99008Y17910I0J-3500D01*
G01X98879Y17847D01*
X98450Y18276D01*
X94666D01*
Y18926D01*
X94544D01*
Y19149D01*
X94549Y19172D01*
G03X93220Y21727I-2140J510D01*
G01Y24227D01*
X89252D01*
Y23727D01*
X86209D01*
Y20835D01*
X77785D01*
X77750Y20800D01*
X74788D01*
X74764Y20972D01*
G03X74317Y22258I-3466J-486D01*
G03X74798Y24029I-3019J1772D01*
G01Y26626D01*
X76310D01*
Y30126D01*
X74775D01*
Y33323D01*
G03X74294Y35095I-3500J0D01*
G03X74775Y36866I-3019J1771D01*
G01Y42393D01*
X74764Y42404D01*
Y45323D01*
X75945D01*
Y40870D01*
X79020Y37795D01*
Y34256D01*
G03X79245Y33116I3000J0D01*
G01Y31422D01*
X81036D01*
X81066Y31411D01*
G03X82974I954J2845D01*
G01X83005Y31422D01*
X84795D01*
Y31657D01*
X90162D01*
Y31328D01*
X91952D01*
X91983Y31317D01*
G03X93891I954J2845D01*
G01X93922Y31328D01*
X94889D01*
X94922Y31169D01*
G03X96865Y29434I2153J455D01*
G02X97046Y29242I-19J-199D01*
G03X101166Y28250I2199J81D01*
G01X103733D01*
Y23423D01*
X109333D01*
Y22723D01*
X116457D01*
Y23930D01*
X117146D01*
X117922Y24706D01*
X117924Y24707D01*
G03X117952Y24735I-1917J1972D01*
G01X118829Y25612D01*
G03X118867Y25651I-1945J1944D01*
G01X118868Y25653D01*
X119433Y26217D01*
X120883D01*
G03X122503Y26744I0J2750D01*
G01X122556Y26783D01*
X123333D01*
Y27717D01*
X123354Y27759D01*
G03Y30175I-2471J1208D01*
G01X123333Y30217D01*
Y31151D01*
X122633D01*
Y33994D01*
X119133D01*
Y31717D01*
X118295D01*
G03X118239Y31717I2J-2750D01*
G01X117156D01*
X116380Y30941D01*
X116379Y30940D01*
G03X116322Y30883I1918J-1971D01*
G01X116321Y30882D01*
X116075Y30636D01*
X115645D01*
Y31777D01*
X115584Y31838D01*
X115686Y32085D01*
X115757D01*
Y38597D01*
X110158D01*
Y39297D01*
X109346D01*
Y42670D01*
X111652D01*
Y46170D01*
X108809D01*
Y47257D01*
X111652D01*
Y50757D01*
X108609D01*
Y51257D01*
X106691D01*
X105041Y52907D01*
X103654D01*
G02X103418Y53631I0J400D01*
G03X102388Y57594I-1294J1779D01*
G02X102213Y57807I24J199D01*
G03X102214Y57828I-2194J159D01*
G02X102675Y58198I399J-25D01*
G03X105210Y60495I338J2174D01*
G02X105552Y60913I399J22D01*
G03X105444Y65281I-316J2177D01*
G02X105081Y65677I38J398D01*
G03X105077Y65801I-2200J-9D01*
G01X105077Y65807D01*
Y66013D01*
X106363D01*
X106414Y65978D01*
G03X109446I1516J2235D01*
G01X109496Y66013D01*
X110508D01*
Y65553D01*
X110942D01*
Y63823D01*
X110508D01*
Y58673D01*
X115776D01*
Y63823D01*
X115342D01*
Y65553D01*
X115776D01*
Y70703D01*
X115342D01*
Y72433D01*
X115776D01*
Y77583D01*
X110508D01*
Y72433D01*
X110942D01*
Y70703D01*
X110508D01*
Y70413D01*
X109496D01*
X109446Y70448D01*
G03X106365Y70413I-1516J-2235D01*
G01X95776D01*
G03X94622Y70086I0J-2200D01*
G02X94012Y70427I-210J341D01*
G01Y70485D01*
X92831D01*
Y74225D01*
X90781D01*
Y77323D01*
X88369Y79735D01*
X87861D01*
Y80035D01*
X87942Y80095D01*
G03X88745Y82432I-1319J1761D01*
G02X89131Y82937I386J105D01*
G01X142209D01*
Y22356D01*
X133801D01*
Y18508D01*
G02X133287Y18124I-400J0D01*
G03X132291Y18269I-996J-3355D01*
G01X130758D01*
G03X130278Y18236I0J-3500D01*
G01X130264Y18234D01*
X126314D01*
G03X119351Y18301I-3515J-3490D01*
G01X119293Y18244D01*
X118683D01*
Y19760D01*
X115183D01*
Y18232D01*
X113122D01*
X113111Y18233D01*
G03X112713Y18256I-398J-3478D01*
G01X112712D01*
G03X110944Y17777I0J-3500D01*
G37*
G36*
G01X90604Y500D02*
G02X90297Y1157I0J400D01*
G03X90461Y4405I-2071J1732D01*
G01X90426Y4456D01*
Y5472D01*
X93753D01*
Y8639D01*
G03X94590Y10421I-1363J1727D01*
G01X94590Y10424D01*
Y10626D01*
X94666D01*
Y11276D01*
X96773D01*
X96779Y11275D01*
G03X98551Y11626I229J3493D01*
G01X98680Y11690D01*
X99105Y11264D01*
X108928D01*
X108935Y11264D01*
G03X110689Y11603I234J3492D01*
G01X110820Y11666D01*
X111233Y11232D01*
X116933D01*
G03X117217Y11243I0J3500D01*
G01X117225Y11244D01*
X119294D01*
G03X126293Y11234I3505J3500D01*
G01X132291D01*
G03X133287Y11378I0J3500D01*
G02X133801Y10995I114J-383D01*
G01Y7182D01*
X142209D01*
Y500D01*
X90604D01*
G37*
G36*
G01X100598Y38090D02*
X93025Y45664D01*
G02X93308Y46347I283J283D01*
G01X93331D01*
Y47373D01*
X97640D01*
G03X101049Y47558I1629J1479D01*
G01X104641D01*
Y46870D01*
X104441D01*
Y46102D01*
X104401Y46048D01*
G03X103846Y44392I2195J-1656D01*
G01Y39297D01*
X103033D01*
Y38090D01*
X100598D01*
G37*
G36*
G01X135502Y12120D02*
G02X135172Y12747I0J400D01*
G03X135791Y14734I-2881J1987D01*
G01Y14769D01*
G03X135150Y16788I-3500J0D01*
G02X135477Y17418I327J231D01*
G01X142209D01*
Y12120D01*
X135502D01*
G37*
%LPC*%
G75*
G36*
G01X121575Y60262D02*
Y59173D01*
X117307D01*
Y63323D01*
X119141D01*
G02X120879Y63342I888J-1792D01*
G01X120919Y63323D01*
X121575D01*
Y62802D01*
X121616Y62749D01*
G02X121575Y60262I-1587J-1218D01*
G37*
G54D22*
X6583Y21733D03*
Y31733D03*
Y61733D03*
Y71733D03*
X31260Y7016D03*
X21260D03*
X51260D03*
G54D24*
X61240Y69422D03*
X92937Y27863D03*
G54D23*
X40260Y18016D03*
Y25016D03*
G54D21*
X6583Y11733D03*
X41260Y7016D03*
X135717Y49292D03*
Y59292D03*
Y69292D03*
G54D26*
X119441Y75008D03*
Y68128D03*
G54D25*
X87642Y27992D03*
X82020Y27957D03*
%LPD*%
G75*
G54D10*
X6583Y11733D03*
Y21733D03*
Y31733D03*
Y41733D03*
Y51733D03*
Y61733D03*
Y71733D03*
X31260Y7016D03*
X21260D03*
X41260D03*
X51260D03*
X122799Y14744D03*
X135717Y49292D03*
Y59292D03*
Y69292D03*
X169400Y24000D03*
G54D20*
G01X20651Y38956D02*
X20651Y36865D01*
G01X72350Y60536D02*
X68343D01*
X65515Y57708D01*
X59946D01*
X50382Y48144D01*
Y41386D01*
G01X72350Y57977D02*
X78000D01*
G01X72351Y60536D02*
X72350Y60536D01*
G54D11*
X11370Y6139D03*
X4583Y3044D03*
X11815Y78810D03*
X20651Y28777D03*
X29277Y41846D03*
X27949Y46465D03*
X16260Y58016D03*
X27734Y61680D03*
X16636Y74397D03*
X16896Y68018D03*
X26390Y74072D03*
X17749Y80331D03*
X24387Y80738D03*
X41521Y29596D03*
X35921Y30264D03*
X50088Y29800D03*
X48568Y53332D03*
X57672Y73266D03*
X65900Y22400D03*
X76700Y34000D03*
X65776Y47324D03*
X67203Y72431D03*
X88226Y2889D03*
X83301Y42737D03*
X78051Y54593D03*
X83911D03*
X90067Y54296D03*
X84245Y68240D03*
X107757Y10367D03*
X101972Y10404D03*
X96001Y10219D03*
X95000Y5138D03*
X102899Y2208D03*
X107962Y21252D03*
X100433Y21326D03*
X98512Y44095D03*
X107312Y56484D03*
X107930Y68213D03*
X95012Y80760D03*
X104100Y80800D03*
X95111Y76362D03*
X109800Y2400D03*
X123668Y8216D03*
X114470Y10144D03*
X117697Y2245D03*
X113840Y21103D03*
X119866Y22476D03*
X120030Y41531D03*
X117993Y36309D03*
X114210Y54778D03*
X120515Y54704D03*
X119996Y49660D03*
X120030Y61531D03*
X112100Y80600D03*
X118772Y79997D03*
X130640Y9069D03*
X125200Y2500D03*
X132531Y2653D03*
X138910D03*
X125911Y23403D03*
X131845Y23996D03*
X129935Y27853D03*
X125781Y41501D03*
X130528Y34900D03*
X137501Y37051D03*
X131715Y40166D03*
X136536Y31191D03*
X127190Y54852D03*
X126152Y48251D03*
X126634Y80219D03*
X134348Y80145D03*
X131752Y76881D03*
X169400Y36000D03*
G54D12*
X13704Y46846D03*
X15150Y12273D03*
X24783Y23610D03*
X28344Y27034D03*
X16940Y19682D03*
X28722Y32841D03*
X22817Y57694D03*
X20702Y59924D03*
X30684Y30790D03*
X37150Y35029D03*
X32661Y34811D03*
X39716Y38956D03*
X30691Y60294D03*
X32691Y63100D03*
X35485Y65558D03*
X92390Y10366D03*
X92409Y19682D03*
X86622Y81856D03*
Y76200D03*
X83470Y80035D03*
Y76018D03*
X99245Y29323D03*
X97075Y31624D03*
X99886Y52860D03*
X102124Y55410D03*
X100018Y57965D03*
X99269Y48851D03*
X103013Y60372D03*
X105236Y63090D03*
X102881Y65668D03*
X169400Y42000D03*
G54D13*
X54505Y57358D03*
X49086Y70381D03*
X169400Y30000D03*
G54D14*
G01X20848Y48798D02*
X10389D01*
X7847Y46256D01*
Y42996D01*
X6583Y41732D01*
Y41733D01*
G01X20848Y46830D02*
X20832Y46846D01*
X13704D01*
G01X24783Y23610D02*
Y28399D01*
G01X26754Y37381D02*
Y34000D01*
X26754Y28624D01*
X28344Y27034D01*
G01X20848Y44861D02*
X16098D01*
X15150Y43914D01*
Y12273D01*
G01X20848Y42892D02*
X18000D01*
X18000Y42893D01*
X17869D01*
X16940Y41964D01*
Y19682D01*
G01X23134Y40518D02*
X22727Y40924D01*
G01D02*
X20848D01*
G01X24785Y37381D02*
Y28401D01*
X24783Y28399D01*
G01X24785Y37381D02*
G01X28722Y37381D02*
Y32841D01*
G01Y37381D02*
G01X28972Y44720D02*
Y44776D01*
G01X29014Y44774D02*
X29012Y44776D01*
X28972D01*
G01D02*
X25560D01*
G01X20848Y46829D02*
Y46830D01*
G01X20702Y59924D02*
Y58360D01*
X20723D01*
G01Y60000D02*
Y58360D01*
G01X20651Y58266D02*
X20723Y58338D01*
Y58360D01*
G01X27734Y61680D02*
X22709D01*
G01X26232Y62167D02*
X27246D01*
X27734Y61680D01*
G01X21736Y65686D02*
Y62122D01*
X20723Y61108D01*
Y60000D01*
G01X26390Y65658D02*
X21764D01*
X21736Y65685D01*
Y65686D01*
G01X44989Y32878D02*
X45941Y33830D01*
G01X30690Y37381D02*
X30691D01*
X30684Y37374D01*
Y30790D01*
G01X30690Y37381D02*
X30691D01*
X30690Y37381D01*
G01X34628Y37184D02*
X34628Y36196D01*
X34628Y35648D01*
X35260Y35016D01*
X37137D01*
X37150Y35029D01*
G01X32659Y37381D02*
X32659Y34813D01*
X32661Y34811D01*
G01X32659Y37381D02*
G01X36793Y38956D02*
X39716Y38956D01*
G01X36793Y38955D02*
Y38956D01*
G01X45941Y33830D02*
Y37820D01*
G01Y41363D02*
X50359D01*
X50382Y41386D01*
G01X67490Y55418D02*
X60534D01*
X54976Y49860D01*
Y41339D01*
G01X78000Y57977D02*
X81504D01*
X84063Y60536D01*
G01X78203Y68213D02*
X76386D01*
G01X78654Y65654D02*
X72351D01*
G01X74577Y66555D02*
Y65986D01*
X80028Y60536D01*
X84063D01*
G01X76386Y68213D02*
X72351D01*
G01X92362Y10366D02*
Y10362D01*
X91769Y9769D01*
Y7722D01*
G01X89051Y19465D02*
X87693Y20823D01*
Y21977D01*
G01X91236D02*
Y20855D01*
X92409Y19682D01*
G01X116884Y27557D02*
X116007Y26680D01*
X112895D01*
Y30636D01*
X112520Y31010D01*
X106000D01*
G01X86622Y47937D02*
Y48823D01*
G01X91740D02*
X99242Y48823D01*
X99269Y48851D01*
G01X84063Y60536D02*
G01X78945Y65654D02*
X84063Y60536D01*
G01X78799Y65799D02*
X78945Y65654D01*
G01X78199Y66400D02*
X78799Y65799D01*
G01X78199Y68166D02*
Y66400D01*
G01X78654Y65654D02*
X78945D01*
G01X92386Y12217D02*
X92362Y12193D01*
Y10366D01*
G01X92390D02*
X92362D01*
G01X92386Y17335D02*
X92386Y19659D01*
X92409Y19682D01*
G01X106625Y44420D02*
X106596Y44392D01*
Y35341D01*
G01X95776Y52859D02*
X95777Y52860D01*
X99886D01*
G01X101566Y55410D02*
X102124D01*
G01X95776Y55418D02*
X95783Y55410D01*
X101566D01*
G01X100000Y57965D02*
X100018D01*
G01X95776Y57977D02*
X95787Y57965D01*
X100000D01*
G01X106625Y49007D02*
Y49273D01*
X104440Y51457D01*
X101876D01*
X99269Y48851D01*
G01X120883Y28967D02*
X118295D01*
G54D15*
G01X22816Y52538D02*
X22817D01*
Y57694D01*
G01X22816Y52538D02*
G01X20651Y50766D02*
X20651Y59928D01*
X20723Y60000D01*
G01X44521Y73468D02*
X43000Y71947D01*
Y46000D01*
X39892Y42892D01*
X36596D01*
G01Y40924D02*
X40186D01*
X44888Y45625D01*
Y70500D01*
X48694Y74306D01*
G01X39716Y38956D02*
X42615D01*
X42618Y38953D01*
G01X36596Y46830D02*
X39099Y46830D01*
X39962Y47693D01*
Y75000D01*
X41253Y76291D01*
G01X36596Y46829D02*
Y46830D01*
G01X36596Y44861D02*
X39105D01*
X41366Y47122D01*
Y73514D01*
X45933Y78081D01*
G01X30690Y52341D02*
X30691D01*
Y57000D01*
G01X34628Y52538D02*
X34628Y58000D01*
G01X36793Y50766D02*
Y50767D01*
G01X89181Y72248D02*
Y76660D01*
X87706Y78135D01*
X49189D01*
X44521Y73468D01*
G01X86622Y81856D02*
X84337D01*
X84257Y81935D01*
X82683D01*
X82604Y81856D01*
X46818D01*
X41253Y76291D01*
G01X30804Y76307D02*
X36402D01*
X36432Y76337D01*
G01X81504Y72248D02*
Y74925D01*
X79814Y76615D01*
X51003D01*
X48694Y74306D01*
G01X45933Y78081D02*
X47887Y80035D01*
X83470D01*
G01X86622Y72248D02*
G01Y72248D02*
Y76200D01*
G01X89181Y72248D02*
G01X81504D02*
G54D16*
G01X162267Y46500D02*
Y49500D01*
X163533D01*
G01X163067Y48050D02*
X162267D01*
G01X165100Y49500D02*
X165900D01*
G01X165500D02*
Y46500D01*
G01X165100D02*
X165900D01*
G01X168300Y48000D02*
X168967D01*
Y47100D01*
X168767Y46800D01*
X168533Y46600D01*
X168200Y46500D01*
X167867Y46600D01*
X167633Y46800D01*
X167433Y47100D01*
X167300Y47450D01*
X167233Y47850D01*
Y48200D01*
X167300Y48500D01*
X167433Y48850D01*
X167633Y49150D01*
X167833Y49350D01*
X168100Y49500D01*
X168333D01*
X168600Y49400D01*
X168800Y49200D01*
G01X169967Y49500D02*
Y47350D01*
X170100Y46900D01*
X170367Y46600D01*
X170700Y46500D01*
X171033Y46600D01*
X171300Y46900D01*
X171433Y47350D01*
Y49500D01*
G01X172633Y46500D02*
Y49500D01*
X173467D01*
X173733Y49350D01*
X173900Y49150D01*
X173967Y48750D01*
X173900Y48350D01*
X173700Y48100D01*
X173467Y47950D01*
X172633D01*
G01X173467D02*
X173967Y46500D01*
G01X176567D02*
X175233D01*
Y49500D01*
X176567D01*
G01X176033Y48050D02*
X175233D01*
G01X183767Y52500D02*
X184600Y55500D01*
X185433Y52500D01*
G01X185133Y53550D02*
X184067D01*
G01X186533Y55500D02*
Y52500D01*
X187867D01*
G01X189133Y55500D02*
Y52500D01*
X190467D01*
G01X194267Y55500D02*
Y53350D01*
X194400Y52900D01*
X194667Y52600D01*
X195000Y52500D01*
X195333Y52600D01*
X195600Y52900D01*
X195733Y53350D01*
Y55500D01*
G01X196833Y52500D02*
Y55500D01*
X198367Y52500D01*
Y55500D01*
G01X199800D02*
X200600D01*
G01X200200D02*
Y52500D01*
G01X199800D02*
X200600D01*
G01X202800Y55500D02*
Y52500D01*
G01X202033Y55500D02*
X203567D01*
G01X204700Y52900D02*
X204967Y52650D01*
X205267Y52500D01*
X205533D01*
X205800Y52650D01*
X206000Y52900D01*
X206100Y53250D01*
X206033Y53600D01*
X205867Y53900D01*
X205567Y54100D01*
X205167Y54200D01*
X204933Y54400D01*
X204833Y54750D01*
X204900Y55100D01*
X205067Y55350D01*
X205300Y55500D01*
X205533D01*
X205767Y55400D01*
X205967Y55150D01*
G01X209767Y52500D02*
X210600Y55500D01*
X211433Y52500D01*
G01X211133Y53550D02*
X210067D01*
G01X212533Y52500D02*
Y55500D01*
X213367D01*
X213633Y55350D01*
X213800Y55150D01*
X213867Y54750D01*
X213800Y54350D01*
X213600Y54100D01*
X213367Y53950D01*
X212533D01*
G01X213367D02*
X213867Y52500D01*
G01X216467D02*
X215133D01*
Y55500D01*
X216467D01*
G01X215933Y54050D02*
X215133D01*
G01X220600Y55500D02*
X221400D01*
G01X221000D02*
Y52500D01*
G01X220600D02*
X221400D01*
G01X222833D02*
Y55500D01*
X224367Y52500D01*
Y55500D01*
G01X227933Y52500D02*
Y55500D01*
X228800Y53000D01*
X229667Y55500D01*
Y52500D01*
G01X231000Y55500D02*
X231800D01*
G01X231400D02*
Y52500D01*
G01X231000D02*
X231800D01*
G01X233333Y55500D02*
Y52500D01*
X234667D01*
G01X235900Y52900D02*
X236167Y52650D01*
X236467Y52500D01*
X236733D01*
X237000Y52650D01*
X237200Y52900D01*
X237300Y53250D01*
X237233Y53600D01*
X237067Y53900D01*
X236767Y54100D01*
X236367Y54200D01*
X236133Y54400D01*
X236033Y54750D01*
X236100Y55100D01*
X236267Y55350D01*
X236500Y55500D01*
X236733D01*
X236967Y55400D01*
X237167Y55150D01*
G01X177367Y77500D02*
Y80500D01*
X178033D01*
X178300Y80350D01*
X178500Y80150D01*
X178667Y79850D01*
X178800Y79500D01*
X178833Y79000D01*
X178800Y78500D01*
X178667Y78150D01*
X178500Y77850D01*
X178300Y77650D01*
X178033Y77500D01*
X177367D01*
G01X180033D02*
Y80500D01*
X180867D01*
X181133Y80350D01*
X181300Y80150D01*
X181367Y79750D01*
X181300Y79350D01*
X181100Y79100D01*
X180867Y78950D01*
X180033D01*
G01X180867D02*
X181367Y77500D01*
G01X182900Y80500D02*
X183700D01*
G01X183300D02*
Y77500D01*
G01X182900D02*
X183700D01*
G01X185233Y80500D02*
Y77500D01*
X186567D01*
G01X187833Y80500D02*
Y77500D01*
X189167D01*
G01X194433Y80250D02*
X194233Y80400D01*
X194000Y80500D01*
X193733D01*
X193433Y80350D01*
X193200Y80100D01*
X193033Y79800D01*
X192900Y79300D01*
X192867Y78850D01*
X192933Y78400D01*
X193033Y78100D01*
X193233Y77800D01*
X193467Y77600D01*
X193700Y77500D01*
X193933D01*
X194167Y77600D01*
X194367Y77750D01*
X194533Y77950D01*
G01X195600Y77500D02*
Y80500D01*
G01X197000D02*
Y77500D01*
G01Y79000D02*
X195600D01*
G01X198067Y77500D02*
X198900Y80500D01*
X199733Y77500D01*
G01X199433Y78550D02*
X198367D01*
G01X200833Y77500D02*
Y80500D01*
X201667D01*
X201933Y80350D01*
X202100Y80150D01*
X202167Y79750D01*
X202100Y79350D01*
X201900Y79100D01*
X201667Y78950D01*
X200833D01*
G01X201667D02*
X202167Y77500D01*
G01X204100Y80500D02*
Y77500D01*
G01X203333Y80500D02*
X204867D01*
G01X206700Y77400D02*
X206633Y77450D01*
Y77550D01*
X206700Y77600D01*
X206767Y77550D01*
Y77450D01*
X206700Y77400D01*
G01Y78750D02*
X206633Y78800D01*
Y78900D01*
X206700Y78950D01*
X206767Y78900D01*
Y78800D01*
X206700Y78750D01*
G01X211900Y80500D02*
Y77500D01*
G01X211133Y80500D02*
X212667D01*
G01X214500Y77500D02*
X214233Y77550D01*
X214000Y77750D01*
X213800Y78050D01*
X213667Y78400D01*
X213600Y78800D01*
Y79200D01*
X213667Y79600D01*
X213800Y79950D01*
X214000Y80250D01*
X214233Y80450D01*
X214500Y80500D01*
X214767Y80450D01*
X215000Y80250D01*
X215200Y79950D01*
X215333Y79600D01*
X215400Y79200D01*
Y78800D01*
X215333Y78400D01*
X215200Y78050D01*
X215000Y77750D01*
X214767Y77550D01*
X214500Y77500D01*
G01X216433D02*
Y80500D01*
X217233D01*
X217500Y80350D01*
X217700Y80000D01*
X217767Y79600D01*
X217700Y79200D01*
X217533Y78900D01*
X217233Y78750D01*
X216433D01*
G01X222300Y80500D02*
Y77500D01*
G01X221833Y79500D02*
X222767D01*
G01X224900Y77500D02*
X224700Y77550D01*
X224500Y77750D01*
X224367Y78100D01*
X224300Y78500D01*
X224367Y78900D01*
X224500Y79250D01*
X224700Y79450D01*
X224900Y79500D01*
X225100Y79450D01*
X225300Y79250D01*
X225433Y78900D01*
X225467Y78500D01*
X225433Y78100D01*
X225300Y77750D01*
X225100Y77550D01*
X224900Y77500D01*
G01X230367Y79100D02*
X230500Y79250D01*
X230600Y79500D01*
X230667Y79850D01*
X230600Y80150D01*
X230467Y80350D01*
X230233Y80500D01*
X229333D01*
Y77500D01*
X230433D01*
X230667Y77700D01*
X230800Y78000D01*
X230867Y78350D01*
X230800Y78700D01*
X230600Y79000D01*
X230367Y79100D01*
X229333D01*
G01X232700Y77500D02*
X232433Y77550D01*
X232200Y77750D01*
X232000Y78050D01*
X231867Y78400D01*
X231800Y78800D01*
Y79200D01*
X231867Y79600D01*
X232000Y79950D01*
X232200Y80250D01*
X232433Y80450D01*
X232700Y80500D01*
X232967Y80450D01*
X233200Y80250D01*
X233400Y79950D01*
X233533Y79600D01*
X233600Y79200D01*
Y78800D01*
X233533Y78400D01*
X233400Y78050D01*
X233200Y77750D01*
X232967Y77550D01*
X232700Y77500D01*
G01X235300Y80500D02*
Y77500D01*
G01X234533Y80500D02*
X236067D01*
G01X237900D02*
Y77500D01*
G01X237133Y80500D02*
X238667D01*
G01X240500Y77500D02*
X240233Y77550D01*
X240000Y77750D01*
X239800Y78050D01*
X239667Y78400D01*
X239600Y78800D01*
Y79200D01*
X239667Y79600D01*
X239800Y79950D01*
X240000Y80250D01*
X240233Y80450D01*
X240500Y80500D01*
X240767Y80450D01*
X241000Y80250D01*
X241200Y79950D01*
X241333Y79600D01*
X241400Y79200D01*
Y78800D01*
X241333Y78400D01*
X241200Y78050D01*
X241000Y77750D01*
X240767Y77550D01*
X240500Y77500D01*
G01X242233D02*
Y80500D01*
X243100Y78000D01*
X243967Y80500D01*
Y77500D01*
G01X194067Y31000D02*
X194267Y31300D01*
X194500Y31450D01*
X194767Y31500D01*
X195100Y31400D01*
X195333Y31150D01*
X195400Y30850D01*
X195367Y30550D01*
X195233Y30300D01*
X194567Y29800D01*
X194267Y29450D01*
X194067Y28950D01*
X194000Y28500D01*
X195400D01*
G01X196567Y28950D02*
X196767Y28700D01*
X197000Y28550D01*
X197300Y28500D01*
X197600Y28600D01*
X197833Y28800D01*
X198000Y29150D01*
X198033Y29550D01*
X197967Y29950D01*
X197800Y30200D01*
X197567Y30400D01*
X197333Y30450D01*
X197100Y30400D01*
X196800Y30200D01*
X196900Y31500D01*
X197800D01*
G01X199900Y28400D02*
X199833Y28450D01*
Y28550D01*
X199900Y28600D01*
X199967Y28550D01*
Y28450D01*
X199900Y28400D01*
G01X202500Y31500D02*
X202233Y31400D01*
X202033Y31150D01*
X201900Y30850D01*
X201800Y30450D01*
X201767Y30000D01*
X201800Y29550D01*
X201900Y29150D01*
X202033Y28850D01*
X202233Y28600D01*
X202500Y28500D01*
X202767Y28600D01*
X202967Y28850D01*
X203100Y29150D01*
X203200Y29550D01*
X203233Y30000D01*
X203200Y30450D01*
X203100Y30850D01*
X202967Y31150D01*
X202767Y31400D01*
X202500Y31500D01*
G01X191367Y23100D02*
X191567Y22750D01*
X191833Y22550D01*
X192133Y22500D01*
X192400Y22550D01*
X192667Y22800D01*
X192833Y23100D01*
X192867Y23400D01*
X192800Y23750D01*
X192567Y24000D01*
X192333Y24100D01*
X192033D01*
G01X192333D02*
X192533Y24250D01*
X192700Y24500D01*
X192767Y24800D01*
X192700Y25100D01*
X192533Y25350D01*
X192233Y25500D01*
X191933Y25450D01*
X191633Y25250D01*
G01X193967Y22950D02*
X194167Y22700D01*
X194400Y22550D01*
X194700Y22500D01*
X195000Y22600D01*
X195233Y22800D01*
X195400Y23150D01*
X195433Y23550D01*
X195367Y23950D01*
X195200Y24200D01*
X194967Y24400D01*
X194733Y24450D01*
X194500Y24400D01*
X194200Y24200D01*
X194300Y25500D01*
X195200D01*
G01X197300Y22400D02*
X197233Y22450D01*
Y22550D01*
X197300Y22600D01*
X197367Y22550D01*
Y22450D01*
X197300Y22400D01*
G01X200300Y22500D02*
Y25500D01*
X199067Y23350D01*
X200733D01*
G01X201867Y25000D02*
X202067Y25300D01*
X202300Y25450D01*
X202567Y25500D01*
X202900Y25400D01*
X203133Y25150D01*
X203200Y24850D01*
X203167Y24550D01*
X203033Y24300D01*
X202367Y23800D01*
X202067Y23450D01*
X201867Y22950D01*
X201800Y22500D01*
X203200D01*
G01X204533Y22850D02*
X204767Y22600D01*
X205033Y22500D01*
X205300Y22600D01*
X205533Y22900D01*
X205700Y23350D01*
X205767Y23800D01*
Y24350D01*
X205700Y24800D01*
X205533Y25200D01*
X205333Y25400D01*
X205100Y25500D01*
X204833Y25400D01*
X204633Y25200D01*
X204500Y24900D01*
X204433Y24500D01*
X204500Y24150D01*
X204667Y23800D01*
X204867Y23600D01*
X205100Y23550D01*
X205367Y23650D01*
X205567Y23900D01*
X205767Y24350D01*
G01X194700Y40500D02*
Y43500D01*
X194300Y42900D01*
G01Y40500D02*
X195100D01*
G01X196667Y43000D02*
X196867Y43300D01*
X197100Y43450D01*
X197367Y43500D01*
X197700Y43400D01*
X197933Y43150D01*
X198000Y42850D01*
X197967Y42550D01*
X197833Y42300D01*
X197167Y41800D01*
X196867Y41450D01*
X196667Y40950D01*
X196600Y40500D01*
X198000D01*
G01X199900Y40400D02*
X199833Y40450D01*
Y40550D01*
X199900Y40600D01*
X199967Y40550D01*
Y40450D01*
X199900Y40400D01*
G01X202500Y43500D02*
X202233Y43400D01*
X202033Y43150D01*
X201900Y42850D01*
X201800Y42450D01*
X201767Y42000D01*
X201800Y41550D01*
X201900Y41150D01*
X202033Y40850D01*
X202233Y40600D01*
X202500Y40500D01*
X202767Y40600D01*
X202967Y40850D01*
X203100Y41150D01*
X203200Y41550D01*
X203233Y42000D01*
X203200Y42450D01*
X203100Y42850D01*
X202967Y43150D01*
X202767Y43400D01*
X202500Y43500D01*
G01X194067Y37000D02*
X194267Y37300D01*
X194500Y37450D01*
X194767Y37500D01*
X195100Y37400D01*
X195333Y37150D01*
X195400Y36850D01*
X195367Y36550D01*
X195233Y36300D01*
X194567Y35800D01*
X194267Y35450D01*
X194067Y34950D01*
X194000Y34500D01*
X195400D01*
G01X197300Y37500D02*
X197033Y37400D01*
X196833Y37150D01*
X196700Y36850D01*
X196600Y36450D01*
X196567Y36000D01*
X196600Y35550D01*
X196700Y35150D01*
X196833Y34850D01*
X197033Y34600D01*
X197300Y34500D01*
X197567Y34600D01*
X197767Y34850D01*
X197900Y35150D01*
X198000Y35550D01*
X198033Y36000D01*
X198000Y36450D01*
X197900Y36850D01*
X197767Y37150D01*
X197567Y37400D01*
X197300Y37500D01*
G01X199900Y34400D02*
X199833Y34450D01*
Y34550D01*
X199900Y34600D01*
X199967Y34550D01*
Y34450D01*
X199900Y34400D01*
G01X202500Y37500D02*
X202233Y37400D01*
X202033Y37150D01*
X201900Y36850D01*
X201800Y36450D01*
X201767Y36000D01*
X201800Y35550D01*
X201900Y35150D01*
X202033Y34850D01*
X202233Y34600D01*
X202500Y34500D01*
X202767Y34600D01*
X202967Y34850D01*
X203100Y35150D01*
X203200Y35550D01*
X203233Y36000D01*
X203200Y36450D01*
X203100Y36850D01*
X202967Y37150D01*
X202767Y37400D01*
X202500Y37500D01*
G01X194000Y46900D02*
X194267Y46650D01*
X194567Y46500D01*
X194833D01*
X195100Y46650D01*
X195300Y46900D01*
X195400Y47250D01*
X195333Y47600D01*
X195167Y47900D01*
X194867Y48100D01*
X194467Y48200D01*
X194233Y48400D01*
X194133Y48750D01*
X194200Y49100D01*
X194367Y49350D01*
X194600Y49500D01*
X194833D01*
X195067Y49400D01*
X195267Y49150D01*
G01X196900Y49500D02*
X197700D01*
G01X197300D02*
Y46500D01*
G01X196900D02*
X197700D01*
G01X199267Y49500D02*
X200533D01*
X199267Y46500D01*
X200533D01*
G01X203167D02*
X201833D01*
Y49500D01*
X203167D01*
G01X202633Y48050D02*
X201833D01*
G01X224533Y28500D02*
Y31500D01*
X225333D01*
X225600Y31350D01*
X225800Y31000D01*
X225867Y30600D01*
X225800Y30200D01*
X225633Y29900D01*
X225333Y29750D01*
X224533D01*
G01X227133Y31500D02*
Y28500D01*
X228467D01*
G01X229567D02*
X230400Y31500D01*
X231233Y28500D01*
G01X230933Y29550D02*
X229867D01*
G01X233000Y31500D02*
Y28500D01*
G01X232233Y31500D02*
X233767D01*
G01X236267Y28500D02*
X234933D01*
Y31500D01*
X236267D01*
G01X235733Y30050D02*
X234933D01*
G01X237467Y28500D02*
Y31500D01*
X238133D01*
X238400Y31350D01*
X238600Y31150D01*
X238767Y30850D01*
X238900Y30500D01*
X238933Y30000D01*
X238900Y29500D01*
X238767Y29150D01*
X238600Y28850D01*
X238400Y28650D01*
X238133Y28500D01*
X237467D01*
G01X224533Y22500D02*
Y25500D01*
X225333D01*
X225600Y25350D01*
X225800Y25000D01*
X225867Y24600D01*
X225800Y24200D01*
X225633Y23900D01*
X225333Y23750D01*
X224533D01*
G01X227133Y25500D02*
Y22500D01*
X228467D01*
G01X229567D02*
X230400Y25500D01*
X231233Y22500D01*
G01X230933Y23550D02*
X229867D01*
G01X233000Y25500D02*
Y22500D01*
G01X232233Y25500D02*
X233767D01*
G01X236267Y22500D02*
X234933D01*
Y25500D01*
X236267D01*
G01X235733Y24050D02*
X234933D01*
G01X237467Y22500D02*
Y25500D01*
X238133D01*
X238400Y25350D01*
X238600Y25150D01*
X238767Y24850D01*
X238900Y24500D01*
X238933Y24000D01*
X238900Y23500D01*
X238767Y23150D01*
X238600Y22850D01*
X238400Y22650D01*
X238133Y22500D01*
X237467D01*
G01X224533Y40500D02*
Y43500D01*
X225333D01*
X225600Y43350D01*
X225800Y43000D01*
X225867Y42600D01*
X225800Y42200D01*
X225633Y41900D01*
X225333Y41750D01*
X224533D01*
G01X227133Y43500D02*
Y40500D01*
X228467D01*
G01X229567D02*
X230400Y43500D01*
X231233Y40500D01*
G01X230933Y41550D02*
X229867D01*
G01X233000Y43500D02*
Y40500D01*
G01X232233Y43500D02*
X233767D01*
G01X236267Y40500D02*
X234933D01*
Y43500D01*
X236267D01*
G01X235733Y42050D02*
X234933D01*
G01X237467Y40500D02*
Y43500D01*
X238133D01*
X238400Y43350D01*
X238600Y43150D01*
X238767Y42850D01*
X238900Y42500D01*
X238933Y42000D01*
X238900Y41500D01*
X238767Y41150D01*
X238600Y40850D01*
X238400Y40650D01*
X238133Y40500D01*
X237467D01*
G01X224533Y34500D02*
Y37500D01*
X225333D01*
X225600Y37350D01*
X225800Y37000D01*
X225867Y36600D01*
X225800Y36200D01*
X225633Y35900D01*
X225333Y35750D01*
X224533D01*
G01X227133Y37500D02*
Y34500D01*
X228467D01*
G01X229567D02*
X230400Y37500D01*
X231233Y34500D01*
G01X230933Y35550D02*
X229867D01*
G01X233000Y37500D02*
Y34500D01*
G01X232233Y37500D02*
X233767D01*
G01X236267Y34500D02*
X234933D01*
Y37500D01*
X236267D01*
G01X235733Y36050D02*
X234933D01*
G01X237467Y34500D02*
Y37500D01*
X238133D01*
X238400Y37350D01*
X238600Y37150D01*
X238767Y36850D01*
X238900Y36500D01*
X238933Y36000D01*
X238900Y35500D01*
X238767Y35150D01*
X238600Y34850D01*
X238400Y34650D01*
X238133Y34500D01*
X237467D01*
G01X224533Y46500D02*
Y49500D01*
X225333D01*
X225600Y49350D01*
X225800Y49000D01*
X225867Y48600D01*
X225800Y48200D01*
X225633Y47900D01*
X225333Y47750D01*
X224533D01*
G01X227133Y49500D02*
Y46500D01*
X228467D01*
G01X229567D02*
X230400Y49500D01*
X231233Y46500D01*
G01X230933Y47550D02*
X229867D01*
G01X233000Y49500D02*
Y46500D01*
G01X232233Y49500D02*
X233767D01*
G01X236267Y46500D02*
X234933D01*
Y49500D01*
X236267D01*
G01X235733Y48050D02*
X234933D01*
G01X237467Y46500D02*
Y49500D01*
X238133D01*
X238400Y49350D01*
X238600Y49150D01*
X238767Y48850D01*
X238900Y48500D01*
X238933Y48000D01*
X238900Y47500D01*
X238767Y47150D01*
X238600Y46850D01*
X238400Y46650D01*
X238133Y46500D01*
X237467D01*
G01X252467Y31000D02*
X252667Y31300D01*
X252900Y31450D01*
X253167Y31500D01*
X253500Y31400D01*
X253733Y31150D01*
X253800Y30850D01*
X253767Y30550D01*
X253633Y30300D01*
X252967Y29800D01*
X252667Y29450D01*
X252467Y28950D01*
X252400Y28500D01*
X253800D01*
G01X251800Y22500D02*
Y25500D01*
X251400Y24900D01*
G01Y22500D02*
X252200D01*
G01X253667Y22950D02*
X253867Y22700D01*
X254100Y22550D01*
X254400Y22500D01*
X254700Y22600D01*
X254933Y22800D01*
X255100Y23150D01*
X255133Y23550D01*
X255067Y23950D01*
X254900Y24200D01*
X254667Y24400D01*
X254433Y24450D01*
X254200Y24400D01*
X253900Y24200D01*
X254000Y25500D01*
X254900D01*
G01X251067Y41100D02*
X251267Y40750D01*
X251533Y40550D01*
X251833Y40500D01*
X252100Y40550D01*
X252367Y40800D01*
X252533Y41100D01*
X252567Y41400D01*
X252500Y41750D01*
X252267Y42000D01*
X252033Y42100D01*
X251733D01*
G01X252033D02*
X252233Y42250D01*
X252400Y42500D01*
X252467Y42800D01*
X252400Y43100D01*
X252233Y43350D01*
X251933Y43500D01*
X251633Y43450D01*
X251333Y43250D01*
G01X254400Y43500D02*
X254133Y43400D01*
X253933Y43150D01*
X253800Y42850D01*
X253700Y42450D01*
X253667Y42000D01*
X253700Y41550D01*
X253800Y41150D01*
X253933Y40850D01*
X254133Y40600D01*
X254400Y40500D01*
X254667Y40600D01*
X254867Y40850D01*
X255000Y41150D01*
X255100Y41550D01*
X255133Y42000D01*
X255100Y42450D01*
X255000Y42850D01*
X254867Y43150D01*
X254667Y43400D01*
X254400Y43500D01*
G01X251733Y34500D02*
X251800Y35150D01*
X251900Y35700D01*
X252033Y36200D01*
X252200Y36750D01*
X252467Y37500D01*
X251133D01*
G01X253767Y37000D02*
X253967Y37300D01*
X254200Y37450D01*
X254467Y37500D01*
X254800Y37400D01*
X255033Y37150D01*
X255100Y36850D01*
X255067Y36550D01*
X254933Y36300D01*
X254267Y35800D01*
X253967Y35450D01*
X253767Y34950D01*
X253700Y34500D01*
X255100D01*
G01X250500Y46500D02*
X250233Y46550D01*
X250000Y46750D01*
X249800Y47050D01*
X249667Y47400D01*
X249600Y47800D01*
Y48200D01*
X249667Y48600D01*
X249800Y48950D01*
X250000Y49250D01*
X250233Y49450D01*
X250500Y49500D01*
X250767Y49450D01*
X251000Y49250D01*
X251200Y48950D01*
X251333Y48600D01*
X251400Y48200D01*
Y47800D01*
X251333Y47400D01*
X251200Y47050D01*
X251000Y46750D01*
X250767Y46550D01*
X250500Y46500D01*
G01X250767Y47300D02*
X251167Y46500D01*
G01X253100Y49500D02*
Y46500D01*
G01X252333Y49500D02*
X253867D01*
G01X255700Y46500D02*
Y47850D01*
X255033Y49500D01*
G01X256367D02*
X255700Y47850D01*
G54D17*
G01X6583Y8080D02*
Y11733D01*
G01D02*
Y15386D01*
G01X2930Y11733D02*
X6583D01*
G01D02*
X10236D01*
G01X21736Y69229D02*
Y70913D01*
G01X19786Y69229D02*
X21736D01*
G01D02*
X23686D01*
G01X41260Y3363D02*
Y7016D01*
G01D02*
Y10669D01*
G01X37607Y7016D02*
X41260D01*
G01D02*
X44913D01*
G01X40260Y22741D02*
Y25016D01*
G01D02*
Y27291D01*
G01X37926Y25016D02*
X40260D01*
G01D02*
X42594D01*
G01X40260Y15741D02*
Y18016D01*
G01D02*
Y20291D01*
G01X37926Y18016D02*
X40260D01*
G01D02*
X42594D01*
G01X60260Y7332D02*
Y9016D01*
G01X58310D02*
X60260D01*
G01X72350Y55418D02*
X67490D01*
G01X58965Y69422D02*
X61240D01*
G01X53839Y67123D02*
Y69457D01*
G01D02*
Y71791D01*
G01Y69457D02*
X56114D01*
G01X72288Y2962D02*
Y4646D01*
G01X70338D02*
X72288D01*
G01D02*
X74238D01*
G01X74826Y26426D02*
Y28376D01*
G01X63909Y31029D02*
Y32979D01*
G01D02*
Y34929D01*
G01Y32979D02*
X65593D01*
G01X67721Y39042D02*
Y40992D01*
G01D02*
Y42942D01*
G01X66037Y40992D02*
X67721D01*
G01X74826Y28376D02*
Y30326D01*
G01Y28376D02*
X76510D01*
G01X76386Y68213D02*
Y72248D01*
G01X72351Y65654D02*
X72350D01*
G01X78199Y66400D02*
X76386Y68213D01*
G01X72351D02*
X72350D01*
G01D02*
Y69504D01*
G01X70174Y68213D02*
X72350D01*
G01X76386Y72248D02*
Y74425D01*
G01X75095Y72248D02*
X76386D01*
G01X61240Y67088D02*
Y69422D01*
G01D02*
Y71756D01*
G01Y69422D02*
X63515D01*
G01X84079Y2946D02*
Y4630D01*
G01X82129D02*
X84079D01*
G01X82020Y25623D02*
Y27957D01*
G01X87642Y25658D02*
Y27992D01*
G01X87693Y21977D02*
Y23927D01*
G01X86009Y21977D02*
X87693D01*
G01X106596Y35341D02*
X99459D01*
X89200Y45600D01*
Y48804D01*
X89181Y48823D01*
G01X106000Y31010D02*
X105990Y31000D01*
X102000D01*
X86622Y46378D01*
Y47937D01*
G01X90662Y27863D02*
X92937D01*
G01X82020Y27957D02*
Y30291D01*
G01X79745Y27957D02*
X82020D01*
G01D02*
X84295D01*
G01X87642Y27992D02*
Y30326D01*
G01X85367Y27992D02*
X87642D01*
G01D02*
X89917D01*
G01X91740Y48823D02*
X99241D01*
X99269Y48851D01*
G01X78799Y65799D02*
X78654Y65654D01*
G01X90600Y68100D02*
X91740Y69240D01*
Y72248D01*
G01D02*
Y74425D01*
G01Y72248D02*
X93031D01*
G01X106596Y23223D02*
Y26680D01*
G01X103533D02*
X106596D01*
G01X105193Y18307D02*
Y19991D01*
G01X103243Y18307D02*
X105193D01*
G01D02*
X107143D01*
G01X92937Y25529D02*
Y27863D01*
G01X106596Y35341D02*
G01X92937Y27863D02*
Y30197D01*
G01Y27863D02*
X95212D01*
G01X95776Y52859D02*
X99885D01*
X99886Y52860D01*
G01X95776Y55418D02*
X101559D01*
X101566Y55410D01*
G01X95776Y57977D02*
X99988D01*
X100000Y57965D01*
G01X106625Y49007D02*
X101018D01*
G01X118295Y28967D02*
X118294D01*
X116884Y27557D01*
G01X112895Y26680D02*
X116007D01*
X116884Y27557D01*
G01X116933Y18276D02*
Y19960D01*
G01X114983Y18276D02*
X116933D01*
G01D02*
X118883D01*
G01X112895Y35341D02*
Y38797D01*
G01Y35341D02*
X115957D01*
G01X120883Y32510D02*
Y34194D01*
G01X118933Y32510D02*
X120883D01*
G01D02*
X122833D01*
G01X110168Y42470D02*
Y44420D01*
G01X119441Y58973D02*
Y61248D01*
G01X110168Y47057D02*
Y49007D01*
G01D02*
Y50957D01*
G01Y49007D02*
X111852D01*
G01X110168Y44420D02*
Y46370D01*
G01Y44420D02*
X111852D01*
G01X119441Y65853D02*
Y68128D01*
G01D02*
Y70403D01*
G01X117107Y68128D02*
X119441D01*
G01D02*
X121775D01*
G01X119441Y61248D02*
Y63523D01*
G01X117107Y61248D02*
X119441D01*
G01Y72733D02*
Y75008D01*
G01D02*
Y77283D01*
G01X117107Y75008D02*
X119441D01*
G01D02*
X121775D01*
G01X137845Y6982D02*
Y9651D01*
G01D02*
Y12320D01*
G01X133601Y9651D02*
X137845D01*
G01Y17218D02*
Y19887D01*
G01D02*
Y22556D01*
G01X133601Y19887D02*
X137845D01*
G01X135717Y55639D02*
Y59292D01*
G01Y45639D02*
Y49292D01*
G01D02*
Y52945D01*
G01X132064Y49292D02*
X135717D01*
G01D02*
X139370D01*
G01X135717Y65639D02*
Y69292D01*
G01D02*
Y72945D01*
G01X132064Y69292D02*
X135717D01*
G01D02*
X139370D01*
G01X135717Y59292D02*
Y62945D01*
G01X132064Y59292D02*
X135717D01*
G01D02*
X139370D01*
G54D18*
G01X30691Y57000D02*
Y60294D01*
G01X30690Y52341D02*
X30691Y52342D01*
Y57000D01*
G01X32691Y63100D02*
Y59466D01*
X32659Y59434D01*
Y52341D01*
G01Y52341D02*
G01X34628Y58000D02*
Y60392D01*
X35485Y61249D01*
Y65558D01*
G01X36793Y50767D02*
Y59618D01*
X37485Y60309D01*
Y66387D01*
X36492Y67381D01*
Y70038D01*
G01X30539Y76307D02*
X30804D01*
G01X36432Y76337D02*
X36492D01*
G01X84063Y48823D02*
Y45870D01*
X92937Y36996D01*
Y34162D01*
G01X78945Y48823D02*
Y42113D01*
X82020Y39038D01*
Y34256D01*
G01X84063Y72248D02*
Y75425D01*
X83470Y76018D01*
G01X100433Y21326D02*
Y17018D01*
G01X95776Y60536D02*
G01X95776Y60536D02*
G01X103013Y60372D02*
X95776D01*
Y60536D01*
G01Y63095D02*
G01Y63095D02*
X99995D01*
X100000Y63090D01*
X105236D01*
G01X95776Y63095D02*
G01Y65654D02*
X102867D01*
X102881Y65668D01*
G54D19*
G01X33961Y18016D02*
X23080D01*
X20651Y20445D01*
Y28777D01*
G01Y36865D02*
Y28777D01*
G01X26390Y69201D02*
Y74072D01*
G01Y69201D02*
X28724Y69201D01*
X30539Y71016D01*
Y72764D01*
G01X33961Y18016D02*
Y25016D01*
G01X60260Y12559D02*
Y16213D01*
X60290Y16243D01*
G01X60260Y12559D02*
X64051Y12559D01*
X64181Y12429D01*
G01X60290Y19786D02*
Y23629D01*
X60320Y23660D01*
G01Y27203D02*
X60366D01*
Y32979D01*
G01X60351Y37795D02*
Y32994D01*
X60366Y32979D01*
G01X50382Y37843D02*
X54929D01*
X54976Y37796D01*
G01D02*
X60350D01*
X60351Y37795D01*
G01X69000Y52858D02*
X67730D01*
G03X60321Y45450I0J-7409D01*
G01Y41368D01*
X60351Y41338D01*
G01X53839Y63158D02*
Y58025D01*
X54505Y57358D01*
G01X47922Y63107D02*
X53788D01*
X53839Y63158D01*
G01Y63158D02*
X61205Y63158D01*
X61240Y63122D01*
Y63123D01*
G01X72350Y63095D02*
X64343D01*
X64315Y63122D01*
X61240D01*
Y63123D01*
G01X49086Y70381D02*
X47922Y69216D01*
Y66650D01*
G01X64181Y8248D02*
Y12429D01*
G01X67724D02*
X67725D01*
Y8248D01*
X67724D01*
G01D02*
X67725D01*
X67784Y8189D01*
X72288D01*
G01D02*
X72327Y8150D01*
X76358D01*
G01D02*
Y12170D01*
X76398Y12209D01*
G01X71298Y24029D02*
Y28360D01*
X71283Y28376D01*
G01X71275Y33323D02*
Y28384D01*
X71283Y28376D01*
G01X86284Y17335D02*
X79235D01*
X79200Y17300D01*
X73900D01*
G02X71298Y19902I0J2602D01*
G01Y20486D01*
G01X71275Y36866D02*
Y40981D01*
X71264Y40992D01*
G01D02*
Y46064D01*
G02X74023Y48823I2759J0D01*
G01X76386D01*
G01X72351Y52859D02*
X72351Y52858D01*
X69000D01*
G01X72350Y52859D02*
X69001D01*
X69000Y52858D01*
G01X72350Y63095D02*
X72351Y63095D01*
X72350Y63095D01*
G01X88226Y7722D02*
Y2889D01*
G01X84079Y8173D02*
Y8174D01*
X79925D01*
X79902Y8150D01*
X79901D01*
G01D02*
X79902D01*
Y12170D01*
X79941Y12209D01*
G01X86284Y12217D02*
G03X84079Y10012I0J-2205D01*
G01Y8173D01*
G01X92386Y14776D02*
X97000Y14776D01*
X97008Y14768D01*
G01X87642Y34291D02*
Y38396D01*
X83301Y42737D01*
G01X81504Y48823D02*
Y44534D01*
X83301Y42737D01*
G01X100551Y14768D02*
X100555Y14764D01*
X105193D01*
G01D02*
X109162D01*
X109169Y14756D01*
G01X95776Y68213D02*
X107930D01*
G01D02*
X113057D01*
X113142Y68128D01*
G01X122799Y14744D02*
X116945D01*
X116933Y14732D01*
Y14733D01*
G01D02*
Y14732D01*
X112736D01*
X112713Y14756D01*
X112712D01*
G01X122799Y14744D02*
X122810Y14734D01*
X132291D01*
Y14769D01*
X130758D01*
G01X113083Y75008D02*
X113142D01*
G01Y68128D02*
Y75008D01*
G01Y61248D02*
Y68128D01*
G01D02*
X113083D01*
M02*
