G04 ================== begin FILE IDENTIFICATION RECORD ==================*
G04 Layout Name:  F:/work/ZM/Frogs/Design/M3/pcb/PARK/GetWay/RF/allegro/lora.brd*
G04 Film Name:    POWER*
G04 File Format:  Gerber RS274X*
G04 File Origin:  Cadence Allegro 16.6-2015-S108*
G04 Origin Date:  Tue Nov 13 10:08:04 2018*
G04 *
G04 Layer:  BOARD GEOMETRY/OUTLINE*
G04 Layer:  ETCH/POWER*
G04 Layer:  PIN/POWER*
G04 Layer:  VIA CLASS/POWER*
G04 *
G04 Offset:    (0.000 0.000)*
G04 Mirror:    No*
G04 Mode:      Positive*
G04 Rotation:  0*
G04 FullContactRelief:  No*
G04 UndefLineWidth:     0.000*
G04 ================== end FILE IDENTIFICATION RECORD ====================*
%FSLAX25Y25*MOIN*%
%IR0*IPPOS*OFA0.00000B0.00000*MIA0B0*SFA1.00000B1.00000*%
%ADD12C,.02*%
%ADD11C,.03*%
%ADD13C,.04*%
%ADD10C,.059059*%
%ADD14C,.005*%
%ADD15C,.008*%
%ADD16C,.015*%
%ADD20C,.044004*%
%ADD18C,.054004*%
%ADD17C,.083064*%
%ADD19C,.069064*%
G75*
%LPD*%
G75*
G36*
G01X700Y900D02*
Y82800D01*
X15440D01*
G02X15738Y82133I0J-400D01*
G03X19760I2011J-1802D01*
G02X20058Y82800I298J267D01*
G01X21770D01*
G02X22108Y82186I0J-400D01*
G03X26667I2280J-1447D01*
G02X27004Y82800I338J214D01*
G01X51600D01*
Y58700D01*
G03X51583Y56054I2905J-1342D01*
G01X51600Y56015D01*
Y54970D01*
G02X50860Y54759I-400J0D01*
G03Y51905I-2292J-1427D01*
G02X51600Y51693I340J-211D01*
G01Y32694D01*
G02X51057Y32321I-400J0D01*
G03X47508Y29002I-968J-2521D01*
G02X47126Y28484I-382J-118D01*
G01X44538D01*
G02X44149Y28976I0J400D01*
G03X39215Y31001I-2628J620D01*
G02X38493Y31087I-342J208D01*
G03X37726Y32272I-2572J-823D01*
G02X37864Y32948I267J297D01*
G03X39031Y36171I-714J2081D01*
G02X39426Y36775I342J208D01*
G03X37835Y37814I291J2181D01*
G02X37441Y37210I-342J-208D01*
G03X35197Y36042I-291J-2181D01*
G02X34506Y36009I-355J184D01*
G03X30471Y35024I-1846J-1198D01*
G02X29865Y34721I-398J39D01*
G03X28488Y30653I-1143J-1880D01*
G03X28713Y29812I2196J137D01*
G02X28353Y29234I-358J-178D01*
G03X29999Y25584I-9J-2200D01*
G01X51600D01*
Y15704D01*
G02X50917Y15421I-400J0D01*
G01X49369Y16969D01*
X25760D01*
X22268Y20460D01*
X21860Y20869D01*
Y26263D01*
X19851Y28271D01*
Y49671D01*
X25641Y55460D01*
X26601D01*
Y58667D01*
G02X27096Y59056I400J0D01*
G03X28786Y59193I638J2624D01*
G03X32879Y60525I1905J1101D01*
G02X33187Y60956I398J42D01*
G03X34888Y62986I-496J2144D01*
G02X35318Y63364I399J-21D01*
G03X33288Y65672I167J2194D01*
G02X32858Y65294I-399J21D01*
G03X30537Y63547I-167J-2194D01*
G02X29834Y63377I-392J81D01*
G03X25035Y61762I-2100J-1697D01*
G02X24635Y61374I-400J12D01*
G01X22357D01*
G03X18550Y60383I-1655J-1450D01*
G02X17914Y60150I-391J83D01*
G03X18946Y57746I-1654J-2134D01*
G02X19553Y58048I398J-40D01*
G03X19926Y57865I1149J1876D01*
G02X20068Y57208I-141J-374D01*
G01X15566Y52706D01*
Y48996D01*
G02X14941Y48666I-400J0D01*
G03Y45027I-1237J-1820D01*
G02X15566Y44696I225J-331D01*
G01Y26448D01*
X17660Y24354D01*
Y22262D01*
G02X17210Y21865I-400J0D01*
G03X18442Y18074I-270J-2184D01*
G01X18583Y18206D01*
X21912Y14876D01*
Y14788D01*
X27641Y9059D01*
X27573Y8929D01*
G03X30303Y11058I3686J-1913D01*
G01X30194Y11032D01*
X27840Y13386D01*
G02X28123Y14069I283J283D01*
G01X48167D01*
X49810Y12426D01*
Y10908D01*
G03X51205Y2863I1450J-3892D01*
G02X51600Y2463I-5J-400D01*
G01Y900D01*
X7146D01*
G02X6816Y1525I0J400D01*
G03X2351I-2232J1519D01*
G02X2020Y900I-331J-225D01*
G01X700D01*
G37*
G36*
G01X52800Y600D02*
Y3159D01*
G03Y10873I-1540J3857D01*
G01Y25584D01*
X101665D01*
X103574Y27495D01*
Y53755D01*
G03X104276Y54950I-1450J1655D01*
G02X105008Y55075I391J-84D01*
G03X104638Y56862I2304J1409D01*
G02X103916Y56686I-396J56D01*
G03X102388Y57594I-1792J-1276D01*
G02X102213Y57807I24J199D01*
G03X102214Y57828I-2194J159D01*
G02X102675Y58198I399J-25D01*
G03X105210Y60495I338J2174D01*
G02X105552Y60913I399J22D01*
G03X105444Y65281I-316J2177D01*
G02X105081Y65677I38J398D01*
G03X102673Y63478I-2200J-9D01*
G02X103036Y63081I-38J-398D01*
G03X103039Y62968I2200J9D01*
G02X102697Y62549I-399J-22D01*
G03X100817Y60509I316J-2177D01*
G02X100356Y60139I-399J25D01*
G03X98335Y59382I-338J-2174D01*
G01X96859D01*
X95625Y58148D01*
Y47093D01*
X94554Y46022D01*
Y41860D01*
X95625Y40790D01*
Y33279D01*
G03X96865Y29434I1450J-1655D01*
G02X97046Y29242I-19J-199D01*
G03X97076Y28952I2199J80D01*
G02X96682Y28484I-394J-68D01*
G01X52800D01*
Y82500D01*
X81890D01*
G02X82133Y81782I0J-400D01*
G03X82073Y78336I1337J-1747D01*
G02Y77718I-254J-309D01*
G03X85010Y74447I1397J-1699D01*
G02X85273Y74462I140J-143D01*
G03X85082Y77771I1349J1738D01*
G02X84819Y77756I-140J143D01*
G03X84675Y77859I-1350J-1738D01*
G02Y78194I109J167D01*
G03X85590Y79445I-1205J1841D01*
G02X86074Y79725I385J-107D01*
G03X88812Y82062I548J2131D01*
G02X89211Y82500I398J38D01*
G01X92216D01*
G02X92577Y81927I0J-400D01*
G03X93153Y78802I2435J-1167D01*
G02X93165Y78234I-275J-290D01*
G03X96970Y78320I1946J-1872D01*
G02X96957Y78887I275J290D01*
G03X97447Y81927I-1946J1872D01*
G02X97807Y82500I361J173D01*
G01X101286D01*
G02X101649Y81932I0J-400D01*
G03X106551I2451J-1132D01*
G02X106914Y82500I363J168D01*
G01X109387D01*
G02X109737Y81906I0J-400D01*
G03X114463I2363J-1306D01*
G02X114813Y82500I350J194D01*
G01X116494D01*
G02X116788Y81829I0J-400D01*
G03X120756I1984J-1832D01*
G02X121050Y82500I294J271D01*
G01X124170D01*
G02X124488Y81857I0J-400D01*
G03X128780I2146J-1638D01*
G02X129098Y82500I318J243D01*
G01X131942D01*
G02X132252Y81848I0J-400D01*
G03X131654Y79967I2096J-1703D01*
G02X131319Y79546I-399J-26D01*
G03X134446Y77059I433J-2665D01*
G02X134781Y77480I399J26D01*
G03X136444Y81848I-433J2665D01*
G02X136754Y82500I310J252D01*
G01X142100D01*
Y600D01*
X141533D01*
G02X141194Y1213I0J400D01*
G03X136626I-2284J1440D01*
G02X136287Y600I-338J-213D01*
G01X135154D01*
G02X134815Y1213I0J400D01*
G03X130247I-2284J1440D01*
G02X129908Y600I-338J-213D01*
G01X127913D01*
G02X127563Y1194I0J400D01*
G03X122837I-2363J1306D01*
G02X122487Y600I-350J-194D01*
G01X120536D01*
G02X120170Y1161I0J400D01*
G03X115224I-2473J1084D01*
G02X114858Y600I-366J-161D01*
G01X112566D01*
G02X112209Y1181I0J400D01*
G03X107391I-2409J1219D01*
G02X107034Y600I-357J-181D01*
G01X105754D01*
G02X105386Y1156I0J400D01*
G03X100412I-2487J1052D01*
G02X100044Y600I-368J-156D01*
G01X52800D01*
G37*
G36*
G01X52100Y54600D02*
Y69306D01*
X52111Y69338D01*
G03Y71424I-3025J1043D01*
G01X52100Y71456D01*
Y82937D01*
X58300D01*
Y76358D01*
G02X57871Y75959I-400J0D01*
G03Y70573I-199J-2693D01*
G02X58300Y70174I29J-399D01*
G01Y54600D01*
X52100D01*
G37*
%LPC*%
G75*
G36*
G01X27059Y43386D02*
G03X26888Y43982I-329J228D01*
G02X30167Y44925I1061J2483D01*
G03X30338Y44329I329J-228D01*
G02X27059Y43386I-1061J-2483D01*
G37*
G36*
G01X121835Y52348D02*
G03X121768Y51697I196J-349D01*
G02X118676Y52016I-1772J-2038D01*
G03X118743Y52666I-196J349D01*
G02X121835Y52348I1772J2038D01*
G37*
G36*
G01X132494Y37581D02*
G03X132341Y36901I115J-383D01*
G02X129749Y37485I-1813J-2001D01*
G03X129902Y38165I-115J383D01*
G02X132494Y37581I1813J2001D01*
G37*
G36*
G01X132509Y27036D02*
G03X132755Y26538I381J-121D01*
G02X129271Y24813I-910J-2542D01*
G03X129025Y25311I-381J121D01*
G02X132509Y27036I910J2542D01*
G37*
G36*
G01X125661Y10702D02*
G03X125606Y10097I231J-326D01*
G02X121306Y9524I-1937J-1881D01*
G03X121094Y10094I-350J194D01*
G02X125661Y10702I1705J4650D01*
G37*
G36*
G01X97022Y7719D02*
G03X96893Y7064I151J-370D01*
G02X93979Y7638I-1893J-1926D01*
G03X94108Y8293I-151J370D01*
G02X93906Y8515I1893J1925D01*
G03X93638Y8554I-155J-126D01*
G02X93781Y12071I-1248J1812D01*
G03X94052Y12087I126J155D01*
G02X97022Y7719I1949J-1868D01*
G37*
G36*
G01X119955Y38164D02*
G02X117804Y39003I-1963J-1855D01*
G03X118067Y39676I-28J399D01*
G02X122540Y42527I1963J1855D01*
G03X123282Y42523I372J147D01*
G02X123271Y40506I2500J-1022D01*
G03X122529Y40510I-372J-147D01*
G02X120218Y38838I-2500J1021D01*
G03X119955Y38164I28J-399D01*
G37*
G36*
G01X105244Y11354D02*
G02X105232Y9412I2513J-988D01*
G03X104485Y9416I-374J-142D01*
G02X104498Y11359I-2513J988D01*
G03X105244Y11354I374J142D01*
G37*
G54D20*
X15150Y12273D03*
X24783Y23610D03*
X92409Y19682D03*
G54D18*
X11370Y6139D03*
X11815Y78810D03*
X16636Y74397D03*
X16896Y68018D03*
X57672Y73266D03*
X65900Y22400D03*
X76700Y34000D03*
X65776Y47324D03*
X67203Y72431D03*
X78051Y54593D03*
X83911D03*
X90067Y54296D03*
X84245Y68240D03*
X107962Y21252D03*
X100433Y21326D03*
X114470Y10144D03*
X113840Y21103D03*
X119866Y22476D03*
X114210Y54778D03*
X120030Y61531D03*
X130640Y9069D03*
X125911Y23403D03*
X137501Y37051D03*
X136536Y31191D03*
X127190Y54852D03*
X126152Y48251D03*
G54D17*
X6583Y11733D03*
Y31733D03*
Y41733D03*
Y51733D03*
Y61733D03*
Y71733D03*
X41260Y7016D03*
X135717Y49292D03*
Y59292D03*
Y69292D03*
G54D19*
X6583Y21733D03*
X21260Y7016D03*
%LPD*%
G75*
G54D10*
X6583Y11733D03*
Y21733D03*
Y31733D03*
Y41733D03*
Y51733D03*
Y61733D03*
Y71733D03*
X31260Y7016D03*
X21260D03*
X41260D03*
X51260D03*
X122799Y14744D03*
X135717Y49292D03*
Y59292D03*
Y69292D03*
G54D11*
X11370Y6139D03*
X4583Y3044D03*
X11815Y78810D03*
X20651Y28777D03*
X29277Y41846D03*
X27949Y46465D03*
X16260Y58016D03*
X27734Y61680D03*
X16636Y74397D03*
X16896Y68018D03*
X26390Y74072D03*
X17749Y80331D03*
X24387Y80738D03*
X41521Y29596D03*
X35921Y30264D03*
X50088Y29800D03*
X48568Y53332D03*
X57672Y73266D03*
X65900Y22400D03*
X76700Y34000D03*
X65776Y47324D03*
X67203Y72431D03*
X88226Y2889D03*
X83301Y42737D03*
X78051Y54593D03*
X83911D03*
X90067Y54296D03*
X84245Y68240D03*
X107757Y10367D03*
X101972Y10404D03*
X96001Y10219D03*
X95000Y5138D03*
X102899Y2208D03*
X107962Y21252D03*
X100433Y21326D03*
X98512Y44095D03*
X107312Y56484D03*
X107930Y68213D03*
X95012Y80760D03*
X104100Y80800D03*
X95111Y76362D03*
X109800Y2400D03*
X123668Y8216D03*
X114470Y10144D03*
X117697Y2245D03*
X113840Y21103D03*
X119866Y22476D03*
X120030Y41531D03*
X117993Y36309D03*
X114210Y54778D03*
X120515Y54704D03*
X119996Y49660D03*
X120030Y61531D03*
X112100Y80600D03*
X118772Y79997D03*
X130640Y9069D03*
X125200Y2500D03*
X132531Y2653D03*
X138910D03*
X125911Y23403D03*
X131845Y23996D03*
X129935Y27853D03*
X125781Y41501D03*
X130528Y34900D03*
X137501Y37051D03*
X131715Y40166D03*
X136536Y31191D03*
X127190Y54852D03*
X126152Y48251D03*
X126634Y80219D03*
X134348Y80145D03*
X131752Y76881D03*
G54D12*
X13704Y46846D03*
X15150Y12273D03*
X24783Y23610D03*
X28344Y27034D03*
X16940Y19682D03*
X28722Y32841D03*
X22817Y57694D03*
X20702Y59924D03*
X30684Y30790D03*
X37150Y35029D03*
X32661Y34811D03*
X39716Y38956D03*
X30691Y60294D03*
X32691Y63100D03*
X35485Y65558D03*
X92390Y10366D03*
X92409Y19682D03*
X86622Y81856D03*
Y76200D03*
X83470Y80035D03*
Y76018D03*
X99245Y29323D03*
X97075Y31624D03*
X99886Y52860D03*
X102124Y55410D03*
X100018Y57965D03*
X99269Y48851D03*
X103013Y60372D03*
X105236Y63090D03*
X102881Y65668D03*
G54D13*
X54505Y57358D03*
X49086Y70381D03*
G54D14*
G01X102124Y55410D02*
Y28095D01*
X101064Y27034D01*
X28344D01*
G01X51260Y7016D02*
Y13027D01*
X48768Y15519D01*
X25160D01*
X21243Y19435D01*
X20410Y20268D01*
Y25662D01*
X18401Y27670D01*
Y50272D01*
X25040Y56910D01*
X25151D01*
Y58886D01*
X24113Y59924D01*
X20702D01*
G01X99886Y52860D02*
X101124Y51622D01*
Y41298D01*
X99295Y39469D01*
Y33392D01*
X99245Y33342D01*
Y29323D01*
G01X97075Y31624D02*
Y41390D01*
X96004Y42461D01*
Y45421D01*
X97075Y46492D01*
Y57547D01*
X97460Y57932D01*
X99985D01*
X100018Y57965D01*
G54D15*
G01X22817Y57694D02*
X17166Y52043D01*
Y27111D01*
X19260Y25016D01*
Y19792D01*
X23512Y15539D01*
Y15451D01*
X31260Y7703D01*
Y7016D01*
G54D16*
G01X6583Y18080D02*
Y21733D01*
G01D02*
Y25386D01*
G01X2930Y21733D02*
X6583D01*
G01D02*
X10236D01*
G01X21260Y3363D02*
Y7016D01*
G01D02*
Y10669D01*
G01X17607Y7016D02*
X21260D01*
G01D02*
X24913D01*
M02*
