G04 ================== begin FILE IDENTIFICATION RECORD ==================*
G04 Layout Name:  F:/work/ZM/Frogs/Design/M3/pcb/PARK/GetWay/RF/allegro/lora.brd*
G04 Film Name:    SOLDERMASK_BOTTOM*
G04 File Format:  Gerber RS274X*
G04 File Origin:  Cadence Allegro 16.6-2015-S108*
G04 Origin Date:  Tue Nov 13 10:08:05 2018*
G04 *
G04 Layer:  VIA CLASS/SOLDERMASK_BOTTOM*
G04 Layer:  PIN/SOLDERMASK_BOTTOM*
G04 Layer:  VIA CLASS/BOTTOM*
G04 Layer:  PIN/BOTTOM*
G04 Layer:  BOARD GEOMETRY/SOLDERMASK_BOTTOM*
G04 *
G04 Offset:    (0.000 0.000)*
G04 Mirror:    No*
G04 Mode:      Positive*
G04 Rotation:  0*
G04 FullContactRelief:  No*
G04 UndefLineWidth:     0.000*
G04 ================== end FILE IDENTIFICATION RECORD ====================*
%FSLAX25Y25*MOIN*%
%IR0*IPPOS*OFA0.00000B0.00000*MIA0B0*SFA1.00000B1.00000*%
%ADD12C,.02*%
%ADD11C,.03*%
%ADD13C,.04*%
%ADD10C,.059059*%
%LPD*%
G75*
G54D10*
X6583Y11733D03*
D03*
Y21733D03*
D03*
Y31733D03*
D03*
Y41733D03*
D03*
Y51733D03*
D03*
Y61733D03*
D03*
Y71733D03*
D03*
X31260Y7016D03*
D03*
X21260D03*
D03*
X41260D03*
D03*
X51260D03*
D03*
X122799Y14744D03*
D03*
X135717Y49292D03*
D03*
Y59292D03*
D03*
Y69292D03*
D03*
G54D11*
X11370Y6139D03*
X4583Y3044D03*
X11815Y78810D03*
X20651Y28777D03*
X29277Y41846D03*
X27949Y46465D03*
X16260Y58016D03*
X27734Y61680D03*
X16636Y74397D03*
X16896Y68018D03*
X26390Y74072D03*
X17749Y80331D03*
X24387Y80738D03*
X41521Y29596D03*
X35921Y30264D03*
X50088Y29800D03*
X48568Y53332D03*
X57672Y73266D03*
X65900Y22400D03*
X76700Y34000D03*
X65776Y47324D03*
X67203Y72431D03*
X88226Y2889D03*
X83301Y42737D03*
X78051Y54593D03*
X83911D03*
X90067Y54296D03*
X84245Y68240D03*
X107757Y10367D03*
X101972Y10404D03*
X96001Y10219D03*
X95000Y5138D03*
X102899Y2208D03*
X107962Y21252D03*
X100433Y21326D03*
X98512Y44095D03*
X107312Y56484D03*
X107930Y68213D03*
X95012Y80760D03*
X104100Y80800D03*
X95111Y76362D03*
X109800Y2400D03*
X123668Y8216D03*
X114470Y10144D03*
X117697Y2245D03*
X113840Y21103D03*
X119866Y22476D03*
X120030Y41531D03*
X117993Y36309D03*
X114210Y54778D03*
X120515Y54704D03*
X119996Y49660D03*
X120030Y61531D03*
X112100Y80600D03*
X118772Y79997D03*
X130640Y9069D03*
X125200Y2500D03*
X132531Y2653D03*
X138910D03*
X125911Y23403D03*
X131845Y23996D03*
X129935Y27853D03*
X125781Y41501D03*
X130528Y34900D03*
X137501Y37051D03*
X131715Y40166D03*
X136536Y31191D03*
X127190Y54852D03*
X126152Y48251D03*
X126634Y80219D03*
X134348Y80145D03*
X131752Y76881D03*
G54D12*
X13704Y46846D03*
X15150Y12273D03*
X24783Y23610D03*
X28344Y27034D03*
X16940Y19682D03*
X28722Y32841D03*
X22817Y57694D03*
X20702Y59924D03*
X30684Y30790D03*
X37150Y35029D03*
X32661Y34811D03*
X39716Y38956D03*
X30691Y60294D03*
X32691Y63100D03*
X35485Y65558D03*
X92390Y10366D03*
X92409Y19682D03*
X86622Y81856D03*
Y76200D03*
X83470Y80035D03*
Y76018D03*
X99245Y29323D03*
X97075Y31624D03*
X99886Y52860D03*
X102124Y55410D03*
X100018Y57965D03*
X99269Y48851D03*
X103013Y60372D03*
X105236Y63090D03*
X102881Y65668D03*
G54D13*
X54505Y57358D03*
X49086Y70381D03*
M02*
