%FSLAX25Y25*%
%MOIN*%
G70*
G01*
G75*
G04 Layer_Color=16711935*
%ADD10C,0.03000*%
%ADD11C,0.02000*%
%ADD12R,0.01575X0.01181*%
%ADD13R,0.03937X0.02362*%
%ADD14R,0.07480X0.11811*%
%ADD15O,0.06890X0.02362*%
%ADD16O,0.01378X0.06693*%
%ADD17R,0.02362X0.02362*%
%ADD18R,0.13386X0.13386*%
%ADD19O,0.00984X0.03740*%
%ADD20O,0.03740X0.00984*%
%ADD21R,0.03347X0.02756*%
%ADD22R,0.02756X0.03347*%
%ADD23R,0.02362X0.02362*%
%ADD24R,0.03937X0.07087*%
%ADD25O,0.03150X0.05906*%
%ADD26R,0.03150X0.02559*%
%ADD27R,0.01181X0.01575*%
%ADD28R,0.07087X0.03937*%
%ADD29O,0.05906X0.03150*%
%ADD30C,0.03937*%
%ADD31R,0.10000X0.07000*%
%ADD32R,0.04724X0.09843*%
%ADD33R,0.07874X0.07874*%
%ADD34R,0.03937X0.05906*%
%ADD35R,0.03937X0.05118*%
%ADD36R,0.08898X0.25590*%
%ADD37R,0.01063X0.06693*%
%ADD38R,0.06693X0.01063*%
%ADD39O,0.06693X0.01063*%
%ADD40R,0.07087X0.07874*%
%ADD41R,0.04803X0.02441*%
%ADD42R,0.08661X0.16929*%
%ADD43O,0.03740X0.01378*%
%ADD44R,0.04724X0.03150*%
%ADD45R,0.04800X0.05600*%
%ADD46R,0.02500X0.05906*%
%ADD47O,0.03937X0.01181*%
%ADD48R,0.03937X0.01181*%
%ADD49R,0.07874X0.07874*%
%ADD50R,0.01575X0.05906*%
%ADD51R,0.07874X0.03937*%
%ADD52R,0.01200X0.01800*%
G04:AMPARAMS|DCode=53|XSize=35.43mil|YSize=157.48mil|CornerRadius=1.77mil|HoleSize=0mil|Usage=FLASHONLY|Rotation=90.000|XOffset=0mil|YOffset=0mil|HoleType=Round|Shape=RoundedRectangle|*
%AMROUNDEDRECTD53*
21,1,0.03543,0.15394,0,0,90.0*
21,1,0.03189,0.15748,0,0,90.0*
1,1,0.00354,0.07697,0.01595*
1,1,0.00354,0.07697,-0.01595*
1,1,0.00354,-0.07697,-0.01595*
1,1,0.00354,-0.07697,0.01595*
%
%ADD53ROUNDEDRECTD53*%
%ADD54R,0.00984X0.01299*%
%ADD55R,0.02362X0.01969*%
%ADD56R,0.00984X0.01575*%
%ADD57O,0.02362X0.07087*%
%ADD58O,0.07087X0.02362*%
%ADD59O,0.06299X0.02362*%
%ADD60C,0.01000*%
%ADD61C,0.01500*%
%ADD62C,0.00800*%
%ADD63C,0.01200*%
%ADD64C,0.02500*%
%ADD65C,0.08000*%
%ADD66R,0.04800X0.04800*%
%ADD67R,0.04169X0.04500*%
%ADD68R,0.11300X0.08500*%
%ADD69R,0.04900X0.04500*%
%ADD70R,0.05658X0.04458*%
%ADD71R,0.27300X0.16100*%
%ADD72R,0.06600X0.19900*%
%ADD73R,0.05000X0.07173*%
%ADD74R,0.08700X0.05400*%
%ADD75R,0.08100X0.13300*%
%ADD76R,0.05700X0.21700*%
%ADD77R,0.10400X0.95500*%
%ADD78R,0.06200X0.14700*%
%ADD79R,0.04200X0.18700*%
%ADD80R,0.06700X0.09800*%
%ADD81R,0.06000X0.09600*%
%ADD82R,0.10500X0.06400*%
%ADD83R,0.18000X0.08400*%
%ADD84R,0.26500X0.16000*%
%ADD85R,0.34969X0.11400*%
%ADD86C,0.00500*%
%ADD87R,0.07874X0.07874*%
%ADD88C,0.07874*%
%ADD89R,0.05906X0.05906*%
%ADD90C,0.05906*%
%ADD91R,0.07874X0.11811*%
%ADD92O,0.07874X0.11811*%
%ADD93C,0.13780*%
%ADD94R,0.05315X0.07284*%
%ADD95C,0.01969*%
G04:AMPARAMS|DCode=96|XSize=51.18mil|YSize=173.23mil|CornerRadius=2.56mil|HoleSize=0mil|Usage=FLASHONLY|Rotation=90.000|XOffset=0mil|YOffset=0mil|HoleType=Round|Shape=RoundedRectangle|*
%AMROUNDEDRECTD96*
21,1,0.05118,0.16811,0,0,90.0*
21,1,0.04606,0.17323,0,0,90.0*
1,1,0.00512,0.08406,0.02303*
1,1,0.00512,0.08406,-0.02303*
1,1,0.00512,-0.08406,-0.02303*
1,1,0.00512,-0.08406,0.02303*
%
%ADD96ROUNDEDRECTD96*%
%ADD97C,0.02000*%
%ADD98C,0.03000*%
%ADD99C,0.04000*%
%ADD100C,0.03500*%
%ADD101C,0.02598*%
%ADD102C,0.04000*%
%ADD103R,0.02258X0.03258*%
%ADD104R,0.09400X0.04700*%
%ADD105R,0.15100X0.08700*%
%ADD106R,0.12100X0.12100*%
%ADD107R,0.09500X0.12000*%
%ADD108R,0.10200X0.09400*%
%ADD109R,0.42200X0.13900*%
%ADD110C,0.05000*%
%ADD111R,0.08300X0.14100*%
%ADD112R,0.08400X0.08100*%
%ADD113R,0.27100X0.16800*%
%ADD114R,0.19300X0.05600*%
%ADD115R,0.21900X0.04900*%
%ADD116R,0.06200X0.13300*%
%ADD117R,0.39000X0.13800*%
%ADD118R,0.08661X0.11024*%
%ADD119R,0.01969X0.07874*%
%ADD120R,0.19685X0.05118*%
%ADD121R,0.02362X0.03937*%
%ADD122R,0.03150X0.04724*%
%ADD123R,0.05118X0.19685*%
%ADD124R,0.07874X0.01969*%
%ADD125R,0.03347X0.01575*%
%ADD126O,0.03543X0.01969*%
%ADD127R,0.03543X0.01969*%
%ADD128O,0.03543X0.01969*%
%ADD129R,0.08268X0.02756*%
%ADD130R,0.04843X0.02559*%
%ADD131R,0.07000X0.10000*%
%ADD132R,0.16929X0.08661*%
%ADD133O,0.01378X0.03740*%
%ADD134O,0.08661X0.02362*%
%ADD135O,0.09843X0.02362*%
%ADD136R,0.07087X0.03937*%
%ADD137R,0.07874X0.14410*%
%ADD138R,0.06299X0.01969*%
%ADD139R,0.02500X0.05500*%
%ADD140C,0.09000*%
%ADD141R,0.05182X0.06835*%
%ADD142R,0.09300X0.11700*%
%ADD143R,0.22300X0.05500*%
%ADD144R,0.26931X0.16000*%
%ADD145R,0.15800X0.09700*%
%ADD146R,0.15200X0.28165*%
%ADD147R,0.08900X0.10200*%
%ADD148R,0.03474X0.08965*%
%ADD149R,0.07600X0.09400*%
%ADD150R,0.04900X0.17100*%
%ADD151R,0.08500X0.39500*%
%ADD152R,0.14700X0.03700*%
%ADD153R,0.48700X0.11300*%
%ADD154R,0.14000X0.54700*%
%ADD155R,0.29300X0.15600*%
%ADD156R,0.08800X0.07400*%
%ADD157R,0.11100X0.13400*%
%ADD158R,0.03600X0.11400*%
%ADD159R,0.05400X0.08800*%
%ADD160R,0.08600X0.09700*%
%ADD161C,0.00984*%
%ADD162C,0.02362*%
%ADD163C,0.00700*%
%ADD164C,0.00787*%
%ADD165C,0.00600*%
%ADD166C,0.00300*%
%ADD167R,0.05417X0.06634*%
%ADD168R,0.02375X0.01981*%
%ADD169R,0.04737X0.03162*%
%ADD170R,0.08280X0.12611*%
%ADD171O,0.07690X0.03162*%
%ADD172O,0.02178X0.07493*%
%ADD173R,0.03162X0.03162*%
%ADD174R,0.14186X0.14186*%
%ADD175O,0.01784X0.04540*%
%ADD176O,0.04540X0.01784*%
%ADD177R,0.04147X0.03556*%
%ADD178R,0.03556X0.04147*%
%ADD179R,0.03162X0.03162*%
%ADD180R,0.04737X0.07887*%
%ADD181O,0.03950X0.06706*%
%ADD182R,0.03950X0.03359*%
%ADD183R,0.01981X0.02375*%
%ADD184R,0.07887X0.04737*%
%ADD185O,0.06706X0.03950*%
%ADD186C,0.04737*%
%ADD187R,0.10800X0.07800*%
%ADD188R,0.05524X0.10642*%
%ADD189R,0.08674X0.08674*%
%ADD190R,0.04737X0.06706*%
%ADD191R,0.04737X0.05918*%
%ADD192R,0.09698X0.26391*%
%ADD193R,0.01863X0.07493*%
%ADD194R,0.07493X0.01863*%
%ADD195O,0.07493X0.01863*%
%ADD196R,0.07887X0.08674*%
%ADD197R,0.05603X0.03241*%
%ADD198R,0.09461X0.17729*%
%ADD199O,0.04540X0.02178*%
%ADD200R,0.05524X0.03950*%
%ADD201R,0.05600X0.06400*%
%ADD202R,0.03300X0.06706*%
%ADD203O,0.04737X0.01981*%
%ADD204R,0.04737X0.01981*%
%ADD205R,0.08674X0.08674*%
%ADD206R,0.02375X0.06706*%
%ADD207R,0.08674X0.04737*%
%ADD208R,0.02000X0.02600*%
G04:AMPARAMS|DCode=209|XSize=39.37mil|YSize=161.42mil|CornerRadius=1.97mil|HoleSize=0mil|Usage=FLASHONLY|Rotation=90.000|XOffset=0mil|YOffset=0mil|HoleType=Round|Shape=RoundedRectangle|*
%AMROUNDEDRECTD209*
21,1,0.03937,0.15748,0,0,90.0*
21,1,0.03543,0.16142,0,0,90.0*
1,1,0.00394,0.07874,0.01772*
1,1,0.00394,0.07874,-0.01772*
1,1,0.00394,-0.07874,-0.01772*
1,1,0.00394,-0.07874,0.01772*
%
%ADD209ROUNDEDRECTD209*%
%ADD210R,0.01784X0.02099*%
%ADD211R,0.03162X0.02769*%
%ADD212R,0.01784X0.02375*%
%ADD213O,0.03162X0.07887*%
%ADD214O,0.07887X0.03162*%
%ADD215O,0.07099X0.03162*%
%ADD216R,0.08674X0.08674*%
%ADD217C,0.08674*%
%ADD218R,0.06706X0.06706*%
%ADD219C,0.06706*%
%ADD220R,0.08674X0.12611*%
%ADD221O,0.08674X0.12611*%
%ADD222C,0.14579*%
%ADD223R,0.06115X0.08083*%
%ADD224C,0.02769*%
G04:AMPARAMS|DCode=225|XSize=55.12mil|YSize=177.16mil|CornerRadius=2.76mil|HoleSize=0mil|Usage=FLASHONLY|Rotation=90.000|XOffset=0mil|YOffset=0mil|HoleType=Round|Shape=RoundedRectangle|*
%AMROUNDEDRECTD225*
21,1,0.05512,0.17165,0,0,90.0*
21,1,0.04961,0.17716,0,0,90.0*
1,1,0.00551,0.08583,0.02480*
1,1,0.00551,0.08583,-0.02480*
1,1,0.00551,-0.08583,-0.02480*
1,1,0.00551,-0.08583,0.02480*
%
%ADD225ROUNDEDRECTD225*%
%ADD226R,0.09461X0.11824*%
%ADD227R,0.02769X0.08674*%
%ADD228R,0.20485X0.05918*%
%ADD229R,0.03162X0.04737*%
%ADD230R,0.03950X0.05524*%
%ADD231R,0.05918X0.20485*%
%ADD232R,0.08674X0.02769*%
%ADD233R,0.04147X0.02375*%
%ADD234O,0.04343X0.02769*%
%ADD235R,0.04343X0.02769*%
%ADD236O,0.04343X0.02769*%
%ADD237R,0.09068X0.03556*%
%ADD238R,0.05643X0.03359*%
%ADD239R,0.07800X0.10800*%
%ADD240R,0.17729X0.09461*%
%ADD241O,0.02178X0.04540*%
%ADD242O,0.09461X0.03162*%
%ADD243O,0.10642X0.03162*%
%ADD244R,0.07887X0.04737*%
%ADD245R,0.08674X0.15210*%
%ADD246R,0.07099X0.02769*%
%ADD247R,0.03300X0.06300*%
%ADD248C,0.03398*%
D86*
X386632Y-23921D02*
Y212300D01*
X-7068Y-23921D02*
X386632D01*
X-7068D02*
Y212300D01*
X386632D01*
D173*
X316000Y192437D02*
D03*
Y188500D02*
D03*
D177*
X166532Y165706D02*
D03*
Y159800D02*
D03*
X156532Y165706D02*
D03*
Y159800D02*
D03*
X340231Y46494D02*
D03*
Y52400D02*
D03*
X249232Y-6905D02*
D03*
Y-1000D02*
D03*
X279700Y7800D02*
D03*
Y13705D02*
D03*
X234331Y15405D02*
D03*
Y9500D02*
D03*
X221265Y15405D02*
D03*
Y9500D02*
D03*
X214732Y15405D02*
D03*
Y9500D02*
D03*
X227798Y15405D02*
D03*
Y9500D02*
D03*
X146700Y165506D02*
D03*
Y159600D02*
D03*
X185531Y78200D02*
D03*
Y72294D02*
D03*
X191631Y78200D02*
D03*
Y72294D02*
D03*
X70550Y8100D02*
D03*
Y2194D02*
D03*
X76700Y2194D02*
D03*
Y8100D02*
D03*
X102865Y-11245D02*
D03*
Y-5339D02*
D03*
X345632Y192506D02*
D03*
Y186600D02*
D03*
X322031Y192405D02*
D03*
Y186500D02*
D03*
X305600Y188094D02*
D03*
Y194000D02*
D03*
X268200Y182895D02*
D03*
Y188800D02*
D03*
X278200Y159195D02*
D03*
Y165100D02*
D03*
X158132Y133494D02*
D03*
Y139400D02*
D03*
X152131Y133494D02*
D03*
Y139400D02*
D03*
X140131Y133494D02*
D03*
Y139400D02*
D03*
X161932Y72294D02*
D03*
Y78200D02*
D03*
X156032Y78200D02*
D03*
Y72294D02*
D03*
X150131Y72294D02*
D03*
Y78200D02*
D03*
X144231Y72294D02*
D03*
Y78200D02*
D03*
X146800Y49526D02*
D03*
Y55431D02*
D03*
X146700Y43437D02*
D03*
Y37532D02*
D03*
X127431Y24105D02*
D03*
Y18200D02*
D03*
X120332Y18200D02*
D03*
Y24105D02*
D03*
X113232Y18200D02*
D03*
Y24105D02*
D03*
X141800Y-7006D02*
D03*
Y-1100D02*
D03*
X135900Y-6805D02*
D03*
Y-900D02*
D03*
X108957Y-11222D02*
D03*
Y-5316D02*
D03*
X93032Y30500D02*
D03*
Y24595D02*
D03*
X87057Y24595D02*
D03*
Y30500D02*
D03*
X81082Y24595D02*
D03*
Y30500D02*
D03*
X72700Y29406D02*
D03*
Y23500D02*
D03*
X64400Y2194D02*
D03*
Y8100D02*
D03*
X202500Y38026D02*
D03*
Y43931D02*
D03*
X195700Y43931D02*
D03*
Y38026D02*
D03*
D178*
X374905Y56200D02*
D03*
X369000D02*
D03*
X374905Y40000D02*
D03*
X369000D02*
D03*
X374905Y23400D02*
D03*
X369000D02*
D03*
X374905Y7300D02*
D03*
X369000D02*
D03*
X232537Y37700D02*
D03*
X238442D02*
D03*
X233139Y479D02*
D03*
X227234D02*
D03*
X255995Y21900D02*
D03*
X261900D02*
D03*
X374905Y72600D02*
D03*
X369000D02*
D03*
X188531Y115700D02*
D03*
X194437D02*
D03*
X188531Y121600D02*
D03*
X194437D02*
D03*
X331426Y178000D02*
D03*
X337332D02*
D03*
X337526Y206200D02*
D03*
X343431D02*
D03*
X262405Y85600D02*
D03*
X256500D02*
D03*
X245232Y110300D02*
D03*
X239326D02*
D03*
X239326Y104440D02*
D03*
X245232D02*
D03*
X245232Y98580D02*
D03*
X239326D02*
D03*
X239326Y92720D02*
D03*
X245232D02*
D03*
X239326Y86860D02*
D03*
X245232D02*
D03*
X245232Y81000D02*
D03*
X239326D02*
D03*
X211094Y140237D02*
D03*
X217000D02*
D03*
X204569Y153763D02*
D03*
X210474D02*
D03*
X194437Y134200D02*
D03*
X188531D02*
D03*
X194437Y128100D02*
D03*
X188531D02*
D03*
X136737Y116300D02*
D03*
X130832D02*
D03*
X131026Y110300D02*
D03*
X136932D02*
D03*
X137037Y94600D02*
D03*
X131131D02*
D03*
X136937Y88700D02*
D03*
X131032D02*
D03*
X90905Y82800D02*
D03*
X85000D02*
D03*
X72326Y69100D02*
D03*
X78232D02*
D03*
X72426Y63100D02*
D03*
X78332D02*
D03*
X174305Y28300D02*
D03*
X168400D02*
D03*
X120726Y29800D02*
D03*
X126631D02*
D03*
X34905Y12800D02*
D03*
X29000D02*
D03*
X29294Y19600D02*
D03*
X35200D02*
D03*
X34806Y26000D02*
D03*
X28900D02*
D03*
X34606Y34400D02*
D03*
X28700D02*
D03*
X28795Y40400D02*
D03*
X34700D02*
D03*
X28200Y55100D02*
D03*
X34106D02*
D03*
X34005Y61500D02*
D03*
X28100D02*
D03*
X295568Y179100D02*
D03*
X301474D02*
D03*
D183*
X153063Y66000D02*
D03*
X157000D02*
D03*
D186*
X365929Y48626D02*
D03*
X374905D02*
D03*
X374932Y15950D02*
D03*
X365955D02*
D03*
Y32200D02*
D03*
X374932D02*
D03*
Y64700D02*
D03*
X365955D02*
D03*
Y-300D02*
D03*
X374932D02*
D03*
D187*
X329432Y44300D02*
D03*
Y32300D02*
D03*
X315531Y43800D02*
D03*
Y31800D02*
D03*
X106600Y186500D02*
D03*
Y174500D02*
D03*
X121400Y186000D02*
D03*
Y174000D02*
D03*
X304832Y151200D02*
D03*
Y163200D02*
D03*
X289531Y151200D02*
D03*
Y163200D02*
D03*
D190*
X251300Y120800D02*
D03*
X237521D02*
D03*
D191*
X265100Y50100D02*
D03*
X257226D02*
D03*
X128858Y123700D02*
D03*
X136732D02*
D03*
X28926Y48100D02*
D03*
X36800D02*
D03*
D205*
X319131Y148984D02*
D03*
Y164732D02*
D03*
D216*
X18900Y18000D02*
D03*
D217*
Y28000D02*
D03*
Y38000D02*
D03*
Y48000D02*
D03*
Y58000D02*
D03*
Y68000D02*
D03*
Y78000D02*
D03*
Y88000D02*
D03*
Y98000D02*
D03*
Y108000D02*
D03*
X34931Y168300D02*
D03*
Y138300D02*
D03*
D218*
X249131Y-14700D02*
D03*
X146531Y176700D02*
D03*
D219*
X239131Y-14700D02*
D03*
X229132D02*
D03*
X219131D02*
D03*
X176532Y176700D02*
D03*
X166532D02*
D03*
X156532D02*
D03*
X83500Y160400D02*
D03*
D220*
X52400Y1800D02*
D03*
D221*
X42400Y1406D02*
D03*
D222*
X2774Y-14078D02*
D03*
X376790D02*
D03*
Y202457D02*
D03*
X2774D02*
D03*
D223*
X190527Y201733D02*
D03*
X212772D02*
D03*
D224*
X209524Y191300D02*
D03*
X193776D02*
D03*
D225*
X376144Y164064D02*
D03*
Y184536D02*
D03*
D226*
X10600Y155000D02*
D03*
X28317D02*
D03*
D227*
X56753Y90400D02*
D03*
X53800D02*
D03*
X120953Y84300D02*
D03*
X118000D02*
D03*
D228*
X55100Y127113D02*
D03*
Y150735D02*
D03*
D229*
X255358Y28205D02*
D03*
X259295Y38048D02*
D03*
X263231Y28205D02*
D03*
X275800Y192500D02*
D03*
X279737Y182658D02*
D03*
X283674Y192500D02*
D03*
X299400Y188400D02*
D03*
X295463Y198242D02*
D03*
X291526Y188400D02*
D03*
D230*
X107700Y70000D02*
D03*
X94314D02*
D03*
D231*
X29600Y179700D02*
D03*
X5978D02*
D03*
D232*
X321831Y201053D02*
D03*
Y198100D02*
D03*
D233*
X255290Y98759D02*
D03*
X262573Y96200D02*
D03*
Y98759D02*
D03*
X255290Y96200D02*
D03*
Y93641D02*
D03*
X262573D02*
D03*
D234*
X327931Y185120D02*
D03*
X339742Y188860D02*
D03*
Y185120D02*
D03*
D235*
Y192600D02*
D03*
D236*
X327931D02*
D03*
D237*
X330402Y66673D02*
D03*
X283158D02*
D03*
X330402Y117815D02*
D03*
X283158D02*
D03*
D238*
X276800Y91240D02*
D03*
Y96240D02*
D03*
Y101240D02*
D03*
Y106240D02*
D03*
Y111240D02*
D03*
Y86240D02*
D03*
Y82500D02*
D03*
D239*
X130131Y42400D02*
D03*
X118131D02*
D03*
X130231Y57300D02*
D03*
X118231D02*
D03*
X130231Y71800D02*
D03*
X118231D02*
D03*
X30500Y80800D02*
D03*
X42500D02*
D03*
X43100Y96100D02*
D03*
X31100D02*
D03*
D240*
X96832Y48200D02*
D03*
D241*
X103721Y55582D02*
D03*
X101753D02*
D03*
X99784D02*
D03*
X97816D02*
D03*
X95847D02*
D03*
X93879D02*
D03*
X91910D02*
D03*
X89942D02*
D03*
Y40818D02*
D03*
X91910D02*
D03*
X93879D02*
D03*
X95847D02*
D03*
X97816D02*
D03*
X99784D02*
D03*
X101753D02*
D03*
X103721D02*
D03*
D242*
X64549Y49400D02*
D03*
Y44400D02*
D03*
Y39400D02*
D03*
Y34400D02*
D03*
Y29400D02*
D03*
Y24400D02*
D03*
Y19400D02*
D03*
Y14400D02*
D03*
X45651Y49400D02*
D03*
Y44400D02*
D03*
Y39400D02*
D03*
Y34400D02*
D03*
Y29400D02*
D03*
Y24400D02*
D03*
Y19400D02*
D03*
Y14400D02*
D03*
D243*
X157511Y37732D02*
D03*
Y42731D02*
D03*
Y47732D02*
D03*
Y52732D02*
D03*
X182989Y37631D02*
D03*
Y42632D02*
D03*
Y47631D02*
D03*
Y52631D02*
D03*
D244*
X104931Y30900D02*
D03*
Y18105D02*
D03*
D245*
X59921Y178413D02*
D03*
X50079D02*
D03*
D246*
X62874Y182448D02*
D03*
X47126D02*
D03*
D247*
X52500Y191700D02*
D03*
Y169062D02*
D03*
X62500Y191700D02*
D03*
X57500D02*
D03*
X62500Y169062D02*
D03*
X47500Y191700D02*
D03*
Y169062D02*
D03*
X57500D02*
D03*
D248*
X58894Y69538D02*
D03*
X54169D02*
D03*
X58894Y74262D02*
D03*
X54169D02*
D03*
X94469Y50562D02*
D03*
Y45838D02*
D03*
X99194Y50562D02*
D03*
Y45838D02*
D03*
M02*
