*
*
G04 PADS VX.1.2 Build Number: 698008 generated Gerber (RS-274-X) file*
G04 PC Version=2.1*
*
%IN "GETWAY_LTE_ZM_V1.0_2018"*%
*
%MOIN*%
*
%FSLAX35Y35*%
*
*
*
*
G04 PC Standard Apertures*
*
*
G04 Thermal Relief Aperture macro.*
%AMTER*
1,1,$1,0,0*
1,0,$1-$2,0,0*
21,0,$3,$4,0,0,45*
21,0,$3,$4,0,0,135*
%
*
*
G04 Annular Aperture macro.*
%AMANN*
1,1,$1,0,0*
1,0,$2,0,0*
%
*
*
G04 Odd Aperture macro.*
%AMODD*
1,1,$1,0,0*
1,0,$1-0.005,0,0*
%
*
*
G04 PC Custom Aperture Macros*
*
*
*
*
*
*
G04 PC Aperture Table*
*
%ADD010C,0.001*%
%ADD012C,0.15748*%
%ADD019C,0.02*%
%ADD021C,0.012*%
%ADD023C,0.03*%
%ADD024C,0.04*%
*
*
*
*
G04 PC Circuitry*
G04 Layer Name GETWAY_LTE_ZM_V1.0_2018 - circuitry*
%LPD*%
*
*
G04 PC Custom Flashes*
G04 Layer Name GETWAY_LTE_ZM_V1.0_2018 - flashes*
%LPD*%
*
*
G04 PC Circuitry*
G04 Layer Name GETWAY_LTE_ZM_V1.0_2018 - circuitry*
%LPD*%
*
G54D10*
G54D12*
G01X212795Y111811D03*
X117520D03*
G54D19*
X123070Y199348D03*
X150270Y203748D03*
X139470Y208948D03*
X128470Y229748D03*
Y242948D03*
X131500Y263900D03*
X127600Y266300D03*
X135400Y266400D03*
X139400Y264400D03*
X147300Y264600D03*
X163000Y263600D03*
X190600Y263500D03*
X191900Y270600D03*
X195100Y272800D03*
X198200Y268800D03*
X201400Y275800D03*
X119500Y287300D03*
X122700Y287800D03*
X125800Y280700D03*
X127800Y284300D03*
X142900Y281600D03*
X150900Y286500D03*
X149170Y283548D03*
X146970Y281148D03*
X163600Y286300D03*
X162700Y280100D03*
X169070Y280048D03*
X172170Y284548D03*
X174300Y287600D03*
X209770Y278948D03*
X206870Y281248D03*
X204870Y286848D03*
G54D21*
X204200Y275800D02*
G75*
G03X204200I-2800J0D01*
G01X173470Y196048D02*
G03X173470I-3800J0D01*
G01X172858Y206337D02*
G03X172858I-3800J0D01*
G01X173170Y216748D02*
G03X173170I-3800J0D01*
G01X165800Y263600D02*
G03X165800I-2800J0D01*
G01X166400Y286300D02*
G03X166400I-2800J0D01*
G01X150100Y264600D02*
G03X150100I-2800J0D01*
G01X142270Y208948D02*
G03X142270I-2800J0D01*
G01X125870Y199348D02*
G03X125870I-2800J0D01*
G01X131270Y229748D02*
G03X131270I-2800J0D01*
G01Y242948D02*
G03X131270I-2800J0D01*
G01X193400Y263500D02*
G03X193400I-2800J0D01*
G01X228151Y102373D02*
Y282613D01*
G03X227551Y283213I-600J-0*
G01X218731*
X214411Y285746D02*
G03X218731Y283213I4320J2416D01*
G01X214411Y285746D02*
G03X213397Y285798I-524J-293D01*
G01X212799Y290246D02*
G03X213397Y285798I-2099J-2546D01*
G01X212799Y290246D02*
G03X213781Y290709I382J463D01*
G01Y298361*
G03X213181Y298961I-600J-0*
G01X184713*
G03X184113Y298361I0J-600*
G01Y284225*
X175020Y282290D02*
G03X184113Y284225I4341J1935D01*
G01X175020Y282290D02*
G03X174066Y282487I-548J-244D01*
G01X172266Y281750D02*
G03X174066Y282487I-96J2798D01*
G01X172266Y281750D02*
G03X171719Y280956I21J-600D01*
G01X168974Y282846D02*
G03X171719Y280956I96J-2798D01*
G01X168974Y282846D02*
G03X169521Y283641I-20J600D01*
G01X173683Y286904D02*
G03X169521Y283641I-1513J-2356D01*
G01X173683Y286904D02*
G03X174608Y287409I325J505D01*
G01Y298361*
G03X174008Y298961I-600J-0*
G01X116800*
G03X116200Y298361I0J-600*
G01Y289366*
G03X117276Y289002I600J0*
G01X116914Y286226D02*
G03X117276Y289002I2586J1074D01*
G01X116914Y286226D02*
G03X115807Y286230I-554J-230D01*
G01X111250Y283213D02*
G03X115807Y286230I0J4949D01*
G01X111250Y283213D02*
X102430D01*
G03X101830Y282613I-0J-600*
G01Y102373*
G03X102430Y101773I600J0*
G01X113460*
G03X113697Y102924I-0J600*
G01X121343D02*
G03X113697I-3823J8887D01*
G01X121343D02*
G03X121580Y101773I237J-551D01*
G01X208735*
G03X208972Y102924I0J600*
G01X216618D02*
G03X208972I-3823J8887D01*
G01X216618D02*
G03X216855Y101773I237J-551D01*
G01X227551*
G03X228151Y102373I0J600*
G01X208136Y164309D02*
G03Y169787I2634J2739D01*
G01Y164309D02*
G03X207304I-416J-432D01*
G01X204779Y163250D02*
G03X207304Y164309I-109J3798D01*
G01X204779Y163250D02*
G03X204206Y162540I17J-600D01*
G01X199037Y158329D02*
G03X204206Y162540I1433J3519D01*
G01X199037Y158329D02*
G03X198232Y157933I-227J-556D01*
G01X196004Y162467D02*
G03X198232Y157933I-1434J-3519D01*
G01X196004Y162467D02*
G03X196808Y162863I226J556D01*
G01X200361Y165646D02*
G03X196808Y162863I109J-3798D01*
G01X200361Y165646D02*
G03X200934Y166356I-17J600D01*
G01X200871Y166970D02*
G03X200934Y166356I3799J78D01*
G01X200871Y166970D02*
G03X200312Y167557I-600J-12D01*
G01X204369Y171426D02*
G03X200312Y167557I-3799J-78D01*
G01X204369Y171426D02*
G03X204928Y170839I600J12D01*
G01X207304Y169787D02*
G03X204928Y170839I-2634J-2739D01*
G01X207304Y169787D02*
G03X208136I416J432D01*
G01X195400Y268821D02*
G03X198402Y271593I2800J-21D01*
G01X195400Y268821D02*
G03X194288Y269138I-600J4D01*
G01X191915Y273400D02*
G03X194288Y269138I-15J-2800D01*
G01X191915Y273400D02*
G03X192480Y273788I4J600D01*
G01X197855Y272299D02*
G03X192480Y273788I-2755J501D01*
G01X197855Y272299D02*
G03X198402Y271593I590J-108D01*
G01X204200Y275800D02*
G03X204200I-2800J0D01*
G01X207116Y278055D02*
G03X210036Y281735I2654J893D01*
G01X207116Y278055D02*
G03X206605Y278461I-568J-192D01*
G01X209524Y282141D02*
G03X206605Y278461I-2654J-893D01*
G01X209524Y282141D02*
G03X210036Y281735I568J192D01*
G01X173470Y196048D02*
G03X173470I-3800J0D01*
G01X172858Y206337D02*
G03X172858I-3800J0D01*
G01X173170Y216748D02*
G03X173170I-3800J0D01*
G01X165800Y263600D02*
G03X165800I-2800J0D01*
G01X166400Y286300D02*
G03X166400I-2800J0D01*
G01X150100Y264600D02*
G03X150100I-2800J0D01*
G01X150076Y280899D02*
G03X146452Y284221I-906J2649D01*
G01X150076Y280899D02*
G03X149688Y280475I194J-568D01*
G01X146064Y283797D02*
G03X149688Y280475I906J-2649D01*
G01X146064Y283797D02*
G03X146452Y284221I-194J568D01*
G01X142270Y208948D02*
G03X142270I-2800J0D01*
G01X120916Y163734D02*
G03X121015Y169448I2554J2814D01*
G01X120916Y163734D02*
G03X120125Y163748I-403J-444D01*
G01X114622Y164379D02*
G03X120125Y163748I3048J2269D01*
G01X114622Y164379D02*
G03X113663Y164384I-481J-358D01*
G01X113686Y168952D02*
G03X113663Y164384I-3049J-2269D01*
G01X113686Y168952D02*
G03X114645Y168947I481J358D01*
G01X120224Y169462D02*
G03X114645Y168947I-2554J-2814D01*
G01X120224Y169462D02*
G03X121015Y169448I403J444D01*
G01X125870Y199348D02*
G03X125870I-2800J0D01*
G01X131270Y229748D02*
G03X131270I-2800J0D01*
G01Y242948D02*
G03X131270I-2800J0D01*
G01X136810Y263337D02*
G03X138696Y267110I2590J1063D01*
G01X136810Y263337D02*
G03X136104Y263690I-555J-228D01*
G01X134900Y263645D02*
G03X136104Y263690I500J2755D01*
G01X134900Y263645D02*
G03X134212Y263204I-107J-590D01*
G01X128809Y263125D02*
G03X134212Y263204I2691J775D01*
G01X128809Y263125D02*
G03X128121Y263549I-576J-166D01*
G01X130291Y267075D02*
G03X128121Y263549I-2691J-775D01*
G01X130291Y267075D02*
G03X130979Y266651I576J166D01*
G01X132000Y266655D02*
G03X130979Y266651I-500J-2755D01*
G01X132000Y266655D02*
G03X132688Y267096I107J590D01*
G01X137990Y267463D02*
G03X132688Y267096I-2590J-1063D01*
G01X137990Y267463D02*
G03X138696Y267110I555J228D01*
G01X139666Y282525D02*
G03X133734I-2966J2375D01*
G01X139666D02*
G03Y281775I469J-375D01*
G01X133734D02*
G03X139666I2966J-2375D01*
G01X133734D02*
G03Y282525I-469J375D01*
G01X128924Y281736D02*
G03X125029Y283900I-1124J2564D01*
G01X128924Y281736D02*
G03X128571Y281100I241J-550D01*
G01X124676Y283264D02*
G03X128571Y281100I1124J-2564D01*
G01X124676Y283264D02*
G03X125029Y283900I-241J550D01*
G01X193400Y263500D02*
G03X193400I-2800J0D01*
G01X209581Y282019D02*
X228151D01*
X211739Y280939D02*
X228151D01*
X212418Y279859D02*
X228151D01*
X212565Y278779D02*
X228151D01*
X212276Y277699D02*
X228151D01*
X211324Y276619D02*
X228151D01*
X204188Y275539D02*
X228151D01*
X203858Y274459D02*
X228151D01*
X202806Y273379D02*
X228151D01*
X197855Y272299D02*
X228151D01*
X199611Y271219D02*
X228151D01*
X200659Y270139D02*
X228151D01*
X200988Y269059D02*
X228151D01*
X200877Y267979D02*
X228151D01*
X200256Y266899D02*
X228151D01*
X192170Y265819D02*
X228151D01*
X193111Y264739D02*
X228151D01*
X193396Y263659D02*
X228151D01*
X193244Y262579D02*
X228151D01*
X192558Y261499D02*
X228151D01*
X101830Y260419D02*
X228151D01*
X101830Y259339D02*
X228151D01*
X101830Y258259D02*
X228151D01*
X101830Y257179D02*
X228151D01*
X101830Y256099D02*
X228151D01*
X101830Y255019D02*
X228151D01*
X101830Y253939D02*
X228151D01*
X101830Y252859D02*
X228151D01*
X101830Y251779D02*
X228151D01*
X101830Y250699D02*
X228151D01*
X101830Y249619D02*
X228151D01*
X101830Y248539D02*
X228151D01*
X101830Y247459D02*
X228151D01*
X101830Y246379D02*
X228151D01*
X129991Y245299D02*
X228151D01*
X130965Y244219D02*
X228151D01*
X131264Y243139D02*
X228151D01*
X131125Y242059D02*
X228151D01*
X130461Y240979D02*
X228151D01*
X101830Y239899D02*
X228151D01*
X101830Y238819D02*
X228151D01*
X101830Y237739D02*
X228151D01*
X101830Y236659D02*
X228151D01*
X101830Y235579D02*
X228151D01*
X101830Y234499D02*
X228151D01*
X101830Y233419D02*
X228151D01*
X129532Y232339D02*
X228151D01*
X130828Y231259D02*
X228151D01*
X131237Y230179D02*
X228151D01*
X131194Y229099D02*
X228151D01*
X130672Y228019D02*
X228151D01*
X101830Y226939D02*
X228151D01*
X101830Y225859D02*
X228151D01*
X101830Y224779D02*
X228151D01*
X101830Y223699D02*
X228151D01*
X101830Y222619D02*
X228151D01*
X101830Y221539D02*
X228151D01*
X170189Y220459D02*
X228151D01*
X172112Y219379D02*
X228151D01*
X172839Y218299D02*
X228151D01*
X173141Y217219D02*
X228151D01*
X173121Y216139D02*
X228151D01*
X172774Y215059D02*
X228151D01*
X171972Y213979D02*
X228151D01*
X101830Y212899D02*
X228151D01*
X101830Y211819D02*
X228151D01*
X141623Y210739D02*
X228151D01*
X170904Y209659D02*
X228151D01*
X172126Y208579D02*
X228151D01*
X172676Y207499D02*
X228151D01*
X172857Y206419D02*
X228151D01*
X172724Y205339D02*
X228151D01*
X172239Y204259D02*
X228151D01*
X171170Y203179D02*
X228151D01*
X123594Y202099D02*
X228151D01*
X125317Y201019D02*
X228151D01*
X125807Y199939D02*
X228151D01*
X172228Y198859D02*
X228151D01*
X173053Y197779D02*
X228151D01*
X173414Y196699D02*
X228151D01*
X173446Y195619D02*
X228151D01*
X173158Y194539D02*
X228151D01*
X172451Y193459D02*
X228151D01*
X170658Y192379D02*
X228151D01*
X101830Y191299D02*
X228151D01*
X101830Y190219D02*
X228151D01*
X101830Y189139D02*
X228151D01*
X101830Y188059D02*
X228151D01*
X101830Y186979D02*
X228151D01*
X101830Y185899D02*
X228151D01*
X101830Y184819D02*
X228151D01*
X101830Y183739D02*
X228151D01*
X101830Y182659D02*
X228151D01*
X101830Y181579D02*
X228151D01*
X101830Y180499D02*
X228151D01*
X101830Y179419D02*
X228151D01*
X101830Y178339D02*
X228151D01*
X101830Y177259D02*
X228151D01*
X101830Y176179D02*
X228151D01*
X201181Y175099D02*
X228151D01*
X203273Y174019D02*
X228151D01*
X204021Y172939D02*
X228151D01*
X204336Y171859D02*
X228151D01*
X211493Y170779D02*
X228151D01*
X213493Y169699D02*
X228151D01*
X214230Y168619D02*
X228151D01*
X214538Y167539D02*
X228151D01*
X214524Y166459D02*
X228151D01*
X214184Y165379D02*
X228151D01*
X213393Y164299D02*
X228151D01*
X204606Y163219D02*
X228151D01*
X204259Y162139D02*
X228151D01*
X204187Y161059D02*
X228151D01*
X203779Y159979D02*
X228151D01*
X202866Y158899D02*
X228151D01*
X198198Y157819D02*
X228151D01*
X197662Y156739D02*
X228151D01*
X196473Y155659D02*
X228151D01*
X101830Y154579D02*
X228151D01*
X101830Y153499D02*
X228151D01*
X101830Y152419D02*
X228151D01*
X101830Y151339D02*
X228151D01*
X101830Y150259D02*
X228151D01*
X101830Y149179D02*
X228151D01*
X101830Y148099D02*
X228151D01*
X101830Y147019D02*
X228151D01*
X101830Y145939D02*
X228151D01*
X101830Y144859D02*
X228151D01*
X101830Y143779D02*
X228151D01*
X101830Y142699D02*
X228151D01*
X101830Y141619D02*
X228151D01*
X101830Y140539D02*
X228151D01*
X101830Y139459D02*
X228151D01*
X101830Y138379D02*
X228151D01*
X101830Y137299D02*
X228151D01*
X101830Y136219D02*
X228151D01*
X101830Y135139D02*
X228151D01*
X101830Y134059D02*
X228151D01*
X101830Y132979D02*
X228151D01*
X101830Y131899D02*
X228151D01*
X101830Y130819D02*
X228151D01*
X101830Y129739D02*
X228151D01*
X101830Y128659D02*
X228151D01*
X101830Y127579D02*
X228151D01*
X101830Y126499D02*
X228151D01*
X101830Y125419D02*
X228151D01*
X101830Y124339D02*
X228151D01*
X101830Y123259D02*
X228151D01*
X101830Y122179D02*
X228151D01*
X215502Y121099D02*
X228151D01*
X217916Y120019D02*
X228151D01*
X219336Y118939D02*
X228151D01*
X220346Y117859D02*
X228151D01*
X221096Y116779D02*
X228151D01*
X221654Y115699D02*
X228151D01*
X222053Y114619D02*
X228151D01*
X222314Y113539D02*
X228151D01*
X222448Y112459D02*
X228151D01*
X222460Y111379D02*
X228151D01*
X222350Y110299D02*
X228151D01*
X222116Y109219D02*
X228151D01*
X221745Y108139D02*
X228151D01*
X221222Y107059D02*
X228151D01*
X220513Y105979D02*
X228151D01*
X219563Y104899D02*
X228151D01*
X218246Y103819D02*
X228151D01*
X216379Y102739D02*
X228151D01*
X208971Y283099D02*
X227903D01*
X184113Y284179D02*
X215793D01*
X212920Y285259D02*
X214722D01*
X184113Y298219D02*
X213781D01*
X184113Y297139D02*
X213781D01*
X184113Y296059D02*
X213781D01*
X184113Y294979D02*
X213781D01*
X184113Y293899D02*
X213781D01*
X184113Y292819D02*
X213781D01*
X184113Y291739D02*
X213781D01*
X212162Y290659D02*
X213779D01*
X120226Y121099D02*
X210089D01*
X205393Y170779D02*
X210047D01*
X184113Y290659D02*
X209238D01*
X121104Y102739D02*
X209211D01*
X184113Y285259D02*
X208480D01*
X204078Y276619D02*
X208216D01*
X207293Y164299D02*
X208147D01*
X207422Y169699D02*
X208018D01*
X184113Y289579D02*
X207987D01*
X184113Y286339D02*
X207694D01*
X122640Y120019D02*
X207675D01*
X184113Y288499D02*
X207498D01*
X184113Y287419D02*
X207412D01*
X122970Y103819D02*
X207345D01*
X203458Y277699D02*
X207264D01*
X124061Y118939D02*
X206254D01*
X124288Y104899D02*
X206027D01*
X171566Y278779D02*
X205550D01*
X125070Y117859D02*
X205245D01*
X125238Y105979D02*
X205077D01*
X183978Y283099D02*
X204769D01*
X125821Y116779D02*
X204494D01*
X181237Y279859D02*
X204439D01*
X125946Y107059D02*
X204369D01*
X183570Y282019D02*
X204178D01*
X182794Y280939D02*
X204087D01*
X126378Y115699D02*
X203937D01*
X126470Y108139D02*
X203845D01*
X126777Y114619D02*
X203538D01*
X126840Y109219D02*
X203475D01*
X127038Y113539D02*
X203277D01*
X127075Y110299D02*
X203240D01*
X127172Y112459D02*
X203143D01*
X127184Y111379D02*
X203131D01*
X127269Y166459D02*
X200916D01*
X127139Y167539D02*
X200423D01*
X197840Y273379D02*
X199994D01*
X101830Y175099D02*
X199960D01*
X170593Y277699D02*
X199342D01*
X127086Y165379D02*
X199065D01*
X197356Y274459D02*
X198942D01*
X139289Y276619D02*
X198722D01*
X195683Y275539D02*
X198612D01*
X126656Y168619D02*
X197926D01*
X101830Y174019D02*
X197867D01*
X126533Y164299D02*
X197566D01*
X125595Y169699D02*
X197147D01*
X101830Y172939D02*
X197119D01*
X125302Y163219D02*
X196926D01*
X101830Y170779D02*
X196813D01*
X101830Y171859D02*
X196805D01*
X148899Y266899D02*
X196144D01*
X192884Y267979D02*
X195523D01*
X194238Y269059D02*
X195353D01*
X101830Y275539D02*
X194517D01*
X101830Y274459D02*
X192844D01*
X101830Y155659D02*
X192667D01*
X101830Y162139D02*
X192506D01*
X101830Y273379D02*
X191555D01*
X101830Y156739D02*
X191478D01*
X101830Y161059D02*
X191410D01*
X101830Y157819D02*
X190942D01*
X137713Y267979D02*
X190916D01*
X101830Y159979D02*
X190913D01*
X101830Y158899D02*
X190770D01*
X101830Y272299D02*
X189674D01*
X136278Y269059D02*
X189562D01*
X101830Y271219D02*
X189169D01*
X101830Y270139D02*
X189138D01*
X164708Y265819D02*
X189030D01*
X164851Y261499D02*
X188642D01*
X165558Y264739D02*
X188089D01*
X165607Y262579D02*
X187956D01*
X165799Y263659D02*
X187804D01*
X171864Y279859D02*
X177484D01*
X171725Y280939D02*
X175927D01*
X173371Y282019D02*
X175151D01*
X116200Y298219D02*
X174608D01*
X116200Y297139D02*
X174608D01*
X116200Y296059D02*
X174608D01*
X116200Y294979D02*
X174608D01*
X116200Y293899D02*
X174608D01*
X116200Y292819D02*
X174608D01*
X116200Y291739D02*
X174608D01*
X116200Y290659D02*
X174608D01*
X121127Y289579D02*
X174608D01*
X165334Y288499D02*
X174608D01*
X166167Y287419D02*
X174608D01*
X166400Y286339D02*
X170018D01*
X166199Y285259D02*
X169462D01*
X151934Y283099D02*
X169443D01*
X165428Y284179D02*
X169395D01*
X101830Y192379D02*
X168682D01*
X101830Y220459D02*
X168551D01*
X140098Y277699D02*
X167547D01*
X142178Y209659D02*
X167211D01*
X125827Y198859D02*
X167113D01*
X151516Y282019D02*
X167081D01*
X101830Y203179D02*
X166945D01*
X101830Y193459D02*
X166889D01*
X101830Y213979D02*
X166768D01*
X101830Y219379D02*
X166628D01*
X148462Y278779D02*
X166574D01*
X150186Y280939D02*
X166416D01*
X125389Y197779D02*
X166287D01*
X149456Y279859D02*
X166276D01*
X101830Y194539D02*
X166183D01*
X142246Y208579D02*
X165989D01*
X101830Y215059D02*
X165966D01*
X123976Y196699D02*
X165926D01*
X101830Y218299D02*
X165901D01*
X101830Y195619D02*
X165894D01*
X101830Y204259D02*
X165877D01*
X101830Y216139D02*
X165619D01*
X101830Y217219D02*
X165599D01*
X141866Y207499D02*
X165439D01*
X101830Y205339D02*
X165391D01*
X140671Y206419D02*
X165258D01*
X137920Y288499D02*
X161866D01*
X151898Y284179D02*
X161772D01*
X149821Y265819D02*
X161292D01*
X132940Y261499D02*
X161149D01*
X139545Y287419D02*
X161033D01*
X151387Y285259D02*
X161001D01*
X149399Y286339D02*
X160800D01*
X150097Y264739D02*
X160442D01*
X149238Y262579D02*
X160393D01*
X149937Y263659D02*
X160201D01*
X140217Y286339D02*
X148941D01*
X140483Y285259D02*
X146953D01*
X140431Y284179D02*
X146440D01*
X140664Y266899D02*
X145701D01*
X140449Y278779D02*
X145478D01*
X141527Y262579D02*
X145362D01*
X140046Y283099D02*
X144961D01*
X141814Y265819D02*
X144779D01*
X142100Y263659D02*
X144663D01*
X142179Y264739D02*
X144503D01*
X140472Y279859D02*
X144485D01*
X139549Y282019D02*
X144309D01*
X140175Y280939D02*
X144178D01*
X101830Y206419D02*
X138269D01*
X101830Y210739D02*
X137318D01*
X133969Y262579D02*
X137273D01*
X101830Y207499D02*
X137074D01*
X101830Y209659D02*
X136762D01*
X101830Y208579D02*
X136695D01*
X135970Y263659D02*
X136495D01*
X122030Y288499D02*
X135480D01*
X128079Y269059D02*
X134522D01*
X101830Y276619D02*
X134111D01*
X122298Y287419D02*
X133855D01*
X129423Y282019D02*
X133851D01*
X130329Y283099D02*
X133354D01*
X101830Y277699D02*
X133302D01*
X128590Y280939D02*
X133225D01*
X129719Y286339D02*
X133183D01*
X129841Y267979D02*
X133087D01*
X130597Y284179D02*
X132969D01*
X127837Y278779D02*
X132951D01*
X128471Y279859D02*
X132928D01*
X130431Y285259D02*
X132917D01*
X130374Y266899D02*
X132596D01*
X101830Y261499D02*
X130060D01*
X101830Y262579D02*
X129031D01*
X101830Y232339D02*
X127408D01*
X101830Y269059D02*
X127121D01*
X101830Y245299D02*
X126949D01*
X101830Y263659D02*
X126671D01*
X101830Y240979D02*
X126480D01*
X101830Y228019D02*
X126268D01*
X101830Y231259D02*
X126113D01*
X101830Y244219D02*
X125975D01*
X122130Y286339D02*
X125881D01*
X101830Y242059D02*
X125815D01*
X101830Y229099D02*
X125746D01*
X101830Y230179D02*
X125703D01*
X101830Y243139D02*
X125677D01*
X101830Y267979D02*
X125359D01*
X101830Y264739D02*
X125276D01*
X121417Y285259D02*
X125169D01*
X114188Y284179D02*
X125003D01*
X101830Y266899D02*
X124865D01*
X101830Y265819D02*
X124842D01*
X102078Y283099D02*
X124356D01*
X101830Y278779D02*
X123763D01*
X101830Y282019D02*
X123330D01*
X101830Y279859D02*
X123129D01*
X101830Y280939D02*
X123010D01*
X101830Y202099D02*
X122547D01*
X101830Y196699D02*
X122164D01*
X119307Y163219D02*
X121638D01*
X119936Y169699D02*
X121346D01*
X101830Y201019D02*
X120823D01*
X101830Y197779D02*
X120751D01*
X101830Y199939D02*
X120333D01*
X101830Y198859D02*
X120313D01*
X116200Y289579D02*
X117873D01*
X115259Y285259D02*
X117583D01*
X115867Y286339D02*
X116853D01*
X112199Y163219D02*
X116033D01*
X112950Y169699D02*
X115404D01*
X101830Y121099D02*
X114813D01*
X113596Y164299D02*
X114683D01*
X101830Y102739D02*
X113935D01*
X101830Y120019D02*
X112399D01*
X101830Y103819D02*
X112069D01*
X101830Y118939D02*
X110979D01*
X101830Y104899D02*
X110752D01*
X101830Y117859D02*
X109969D01*
X101830Y105979D02*
X109801D01*
X101830Y116779D02*
X109219D01*
X101830Y107059D02*
X109093D01*
X101830Y163219D02*
X109076D01*
X101830Y115699D02*
X108661D01*
X101830Y108139D02*
X108570D01*
X101830Y169699D02*
X108325D01*
X101830Y114619D02*
X108262D01*
X101830Y109219D02*
X108199D01*
X101830Y113539D02*
X108001D01*
X101830Y110299D02*
X107965D01*
X101830Y112459D02*
X107867D01*
X101830Y111379D02*
X107855D01*
X101830Y164299D02*
X107679D01*
X101830Y168619D02*
X107367D01*
X101830Y165379D02*
X107068D01*
X101830Y167539D02*
X106935D01*
X101830Y166459D02*
X106844D01*
G54D23*
X168000Y104600D03*
X181700Y105400D03*
X195800Y104800D03*
X157000Y108300D03*
X169800Y117500D03*
X177200Y110900D03*
X188400Y112700D03*
X107300Y125800D03*
X116300Y126300D03*
X128400Y121000D03*
X149700Y126800D03*
X155800Y119400D03*
X162400Y126600D03*
X181400Y118900D03*
X177200Y126100D03*
X191400Y126400D03*
X202400Y120900D03*
X196600Y119200D03*
X223400Y122500D03*
X110300Y133700D03*
X143000Y130700D03*
X207200Y128300D03*
X218200Y130300D03*
X132400Y147100D03*
X116900Y156400D03*
X118200Y148900D03*
X149400Y150700D03*
X157600Y156000D03*
X177700Y150900D03*
X188000Y155300D03*
X196300Y150500D03*
X209700Y154500D03*
X149300Y160000D03*
X176000Y166300D03*
X149300Y173900D03*
X158500Y169200D03*
X174600Y177500D03*
X209600Y178800D03*
X119700Y197500D03*
X189600Y192800D03*
X203700Y188300D03*
X162200Y200400D03*
X154200Y199500D03*
X203800Y200600D03*
X159400Y208200D03*
X203200Y210800D03*
X214200Y210400D03*
X112200Y221300D03*
X124400D03*
X153200Y220100D03*
X203000Y221600D03*
X215000Y222200D03*
X141400Y238000D03*
X141600Y229900D03*
X188600Y235800D03*
X201300Y237300D03*
X215400D03*
X141600Y244100D03*
X192400Y240300D03*
X215400Y244400D03*
X188200Y248400D03*
X200600Y249800D03*
X210700Y287700D03*
G54D24*
X110637Y166683D03*
X117670Y166648D03*
X123470Y166548D03*
X200470Y161848D03*
X194570Y158948D03*
X210770Y167048D03*
X204670D03*
X200570Y171348D03*
X169670Y196048D03*
X169058Y206337D03*
X169370Y216748D03*
X136700Y279400D03*
Y284900D03*
G74*
X0Y0D02*
M02*
