*
*
G04 PADS VX.1.2 Build Number: 698008 generated Gerber (RS-274-X) file*
G04 PC Version=2.1*
*
%IN "GETWAY_LTE_ZM_V1.0_2018"*%
*
%MOIN*%
*
%FSLAX35Y35*%
*
*
*
*
G04 PC Standard Apertures*
*
*
G04 Thermal Relief Aperture macro.*
%AMTER*
1,1,$1,0,0*
1,0,$1-$2,0,0*
21,0,$3,$4,0,0,45*
21,0,$3,$4,0,0,135*
%
*
*
G04 Annular Aperture macro.*
%AMANN*
1,1,$1,0,0*
1,0,$2,0,0*
%
*
*
G04 Odd Aperture macro.*
%AMODD*
1,1,$1,0,0*
1,0,$1-0.005,0,0*
%
*
*
G04 PC Custom Aperture Macros*
*
*
*
*
*
*
G04 PC Aperture Table*
*
%ADD010C,0.001*%
%ADD025C,0.005*%
%ADD033C,0.006*%
%ADD051C,0.00591*%
%ADD052C,0.00787*%
%ADD053C,0.007*%
*
*
*
*
G04 PC Circuitry*
G04 Layer Name GETWAY_LTE_ZM_V1.0_2018 - circuitry*
%LPD*%
*
*
G04 PC Custom Flashes*
G04 Layer Name GETWAY_LTE_ZM_V1.0_2018 - flashes*
%LPD*%
*
*
G04 PC Circuitry*
G04 Layer Name GETWAY_LTE_ZM_V1.0_2018 - circuitry*
%LPD*%
*
G54D10*
G54D25*
G01X155461Y256920D02*
G75*
G03Y261250I-2033J2165D01*
G01Y256920D02*
X145618Y256919D01*
Y261250D02*
G03Y256920I1915J-2165D01*
G01Y261251D02*
X155461Y261250D01*
X147860Y242505D02*
G03X143530I-2165J-2033D01*
G01X147860Y242506D02*
X147861Y232663D01*
X143530Y232662D02*
G03X147860I2165J1916D01*
G01X143529Y232663D02*
X143530Y242506D01*
X136370Y166088D02*
X141717D01*
Y158608*
X136370*
X130370Y166088D02*
X126169D01*
X124709Y164978*
Y159911*
X126169Y158608*
X130370*
X186898Y170314D02*
X181552D01*
Y177795*
X186898*
X192898Y170314D02*
X197099D01*
X198560Y171425*
Y176491*
X197099Y177795*
X192898*
X136370Y176288D02*
X141717D01*
Y168808*
X136370*
X130370Y176288D02*
X126169D01*
X124709Y175178*
Y170111*
X126169Y168808*
X130370*
X187000Y160939D02*
X181654D01*
Y168419*
X187000*
X193000Y160939D02*
X197201D01*
X198661Y162049*
Y167116*
X197201Y168419*
X193000*
X178531Y204625D02*
X183878D01*
Y197145*
X178531*
X172531Y204625D02*
X168331D01*
X166870Y203515*
Y198448*
X168331Y197145*
X172531*
X168198Y194409D02*
G03Y190079I2033J-2165D01*
G01Y194409D02*
X178041Y194410D01*
Y190079D02*
G03Y194409I-1915J2165D01*
G01Y190079D02*
X168198D01*
X122543Y226462D02*
G03Y222132I2033J-2165D01*
G01Y226462D02*
X132386D01*
X132387Y222131D02*
G03Y226462I-1916J2166D01*
G01X132386Y222131D02*
X122543Y222132D01*
X178568Y215640D02*
X183914D01*
Y208160*
X178568*
X172568Y215640D02*
X168367D01*
X166906Y214530*
Y209463*
X168367Y208160*
X172568*
X124880Y246056D02*
G03Y250386I-2033J2165D01*
G01X124881Y246056D02*
X115038Y246055D01*
X115037Y250386D02*
G03Y246056I1916J-2165D01*
G01X115038Y250386D02*
X124881D01*
X123391Y190683D02*
G03Y195013I-2033J2165D01*
G01Y190683D02*
X113548Y190682D01*
Y195013D02*
G03Y190683I1915J-2165D01*
G01Y195014D02*
X123391Y195013D01*
X137069Y206042D02*
G03Y201712I2033J-2165D01*
G01Y206041D02*
X146912Y206042D01*
Y201711D02*
G03Y206042I-1916J2166D01*
G01Y201711D02*
X137069Y201712D01*
X190950Y182410D02*
X188263D01*
Y186190*
X190950*
X193450Y182410D02*
X196137D01*
Y186190*
X193450*
X141864Y258600D02*
X141773Y258350D01*
X141591Y258100*
X141409Y257975*
X141045*
X140864Y258100*
X140682Y258350*
X140591Y258600*
X140500Y258975*
Y259600*
X140591Y259975*
X140682Y260225*
X140864Y260475*
X141045Y260600*
X141409*
X141591Y260475*
X141773Y260225*
X141864Y259975*
X142682Y258475D02*
X142864Y258350D01*
X143136Y257975*
Y260600*
X151300Y235264D02*
X151550Y235173D01*
X151800Y234991*
X151925Y234809*
Y234445*
X151800Y234264*
X151550Y234082*
X151300Y233991*
X150925Y233900*
X150300*
X149925Y233991*
X149675Y234082*
X149425Y234264*
X149300Y234445*
Y234809*
X149425Y234991*
X149675Y235173*
X149925Y235264*
X151300Y236173D02*
X151425D01*
X151675Y236264*
X151800Y236355*
X151925Y236536*
Y236900*
X151800Y237082*
X151675Y237173*
X151425Y237264*
X151175*
X150925Y237173*
X150550Y236991*
X149300Y236082*
Y237355*
X151300Y238264D02*
X151425D01*
X151675Y238355*
X151800Y238445*
X151925Y238627*
Y238991*
X151800Y239173*
X151675Y239264*
X151425Y239355*
X151175*
X150925Y239264*
X150550Y239082*
X149300Y238173*
Y239445*
X151925Y240718D02*
X151800Y240445D01*
X151550Y240355*
X151300*
X151050Y240445*
X150925Y240627*
X150800Y240991*
X150675Y241264*
X150425Y241445*
X150175Y241536*
X149800*
X149550Y241445*
X149425Y241355*
X149300Y241082*
Y240718*
X149425Y240445*
X149550Y240355*
X149800Y240264*
X150175*
X150425Y240355*
X150675Y240536*
X150800Y240809*
X150925Y241173*
X151050Y241355*
X151300Y241445*
X151550*
X151800Y241355*
X151925Y241082*
Y240718*
X172500Y258025D02*
Y255400D01*
X171409*
X170591Y257525D02*
X170409Y257650D01*
X170136Y258025*
Y255400*
X169318Y257525D02*
X169136Y257650D01*
X168864Y258025*
Y255400*
X145036Y163100D02*
X145127Y163350D01*
X145309Y163600*
X145491Y163725*
X145855*
X146036Y163600*
X146218Y163350*
X146309Y163100*
X146400Y162725*
Y162100*
X146309Y161725*
X146218Y161475*
X146036Y161225*
X145855Y161100*
X145491*
X145309Y161225*
X145127Y161475*
X145036Y161725*
X144127Y163100D02*
Y163225D01*
X144036Y163475*
X143945Y163600*
X143764Y163725*
X143400*
X143218Y163600*
X143127Y163475*
X143036Y163225*
Y162975*
X143127Y162725*
X143309Y162350*
X144218Y161100*
X142945*
X177064Y173600D02*
X176973Y173350D01*
X176791Y173100*
X176609Y172975*
X176245*
X176064Y173100*
X175882Y173350*
X175791Y173600*
X175700Y173975*
Y174600*
X175791Y174975*
X175882Y175225*
X176064Y175475*
X176245Y175600*
X176609*
X176791Y175475*
X176973Y175225*
X177064Y174975*
X178064Y172975D02*
X179064D01*
X178518Y173975*
X178791*
X178973Y174100*
X179064Y174225*
X179155Y174600*
Y174850*
X179064Y175225*
X178882Y175475*
X178609Y175600*
X178336*
X178064Y175475*
X177973Y175350*
X177882Y175100*
X145036Y173300D02*
X145127Y173550D01*
X145309Y173800*
X145491Y173925*
X145855*
X146036Y173800*
X146218Y173550*
X146309Y173300*
X146400Y172925*
Y172300*
X146309Y171925*
X146218Y171675*
X146036Y171425*
X145855Y171300*
X145491*
X145309Y171425*
X145127Y171675*
X145036Y171925*
X143309Y173925D02*
X144218Y172175D01*
X142855*
X143309Y173925D02*
Y171300D01*
X177964Y162200D02*
X177873Y161950D01*
X177691Y161700*
X177509Y161575*
X177145*
X176964Y161700*
X176782Y161950*
X176691Y162200*
X176600Y162575*
Y163200*
X176691Y163575*
X176782Y163825*
X176964Y164075*
X177145Y164200*
X177509*
X177691Y164075*
X177873Y163825*
X177964Y163575*
X179964Y161575D02*
X179055D01*
X178964Y162700*
X179055Y162575*
X179327Y162450*
X179600*
X179873Y162575*
X180055Y162825*
X180145Y163200*
X180055Y163450*
X179964Y163825*
X179782Y164075*
X179509Y164200*
X179236*
X178964Y164075*
X178873Y163950*
X178782Y163700*
X186136Y193100D02*
X186227Y193350D01*
X186409Y193600*
X186591Y193725*
X186955*
X187136Y193600*
X187318Y193350*
X187409Y193100*
X187500Y192725*
Y192100*
X187409Y191725*
X187318Y191475*
X187136Y191225*
X186955Y191100*
X186591*
X186409Y191225*
X186227Y191475*
X186136Y191725*
X185227Y193100D02*
Y193225D01*
X185136Y193475*
X185045Y193600*
X184864Y193725*
X184500*
X184318Y193600*
X184227Y193475*
X184136Y193225*
Y192975*
X184227Y192725*
X184409Y192350*
X185318Y191100*
X184045*
X183045Y193725D02*
X182045D01*
X182591Y192725*
X182318*
X182136Y192600*
X182045Y192475*
X181955Y192100*
Y191850*
X182045Y191475*
X182227Y191225*
X182500Y191100*
X182773*
X183045Y191225*
X183136Y191350*
X183227Y191600*
X180591Y193725D02*
X180864Y193600D01*
X181045Y193225*
X181136Y192600*
Y192225*
X181045Y191600*
X180864Y191225*
X180591Y191100*
X180409*
X180136Y191225*
X179955Y191600*
X179864Y192225*
Y192600*
X179955Y193225*
X180136Y193600*
X180409Y193725*
X180591*
X192236Y201700D02*
X192327Y201950D01*
X192509Y202200*
X192691Y202325*
X193055*
X193236Y202200*
X193418Y201950*
X193509Y201700*
X193600Y201325*
Y200700*
X193509Y200325*
X193418Y200075*
X193236Y199825*
X193055Y199700*
X192691*
X192509Y199825*
X192327Y200075*
X192236Y200325*
X191327Y201700D02*
Y201825D01*
X191236Y202075*
X191145Y202200*
X190964Y202325*
X190600*
X190418Y202200*
X190327Y202075*
X190236Y201825*
Y201575*
X190327Y201325*
X190509Y200950*
X191418Y199700*
X190145*
X189145Y202325D02*
X188145D01*
X188691Y201325*
X188418*
X188236Y201200*
X188145Y201075*
X188055Y200700*
Y200450*
X188145Y200075*
X188327Y199825*
X188600Y199700*
X188873*
X189145Y199825*
X189236Y199950*
X189327Y200200*
X187236Y201825D02*
X187055Y201950D01*
X186782Y202325*
Y199700*
X145400Y227625D02*
Y225000D01*
Y227625D02*
X144582D01*
X144309Y227500*
X144218Y227375*
X144127Y227125*
Y226875*
X144218Y226625*
X144309Y226500*
X144582Y226375*
X145400*
X144764D02*
X144127Y225000D01*
X143309Y227125D02*
X143127Y227250D01*
X142855Y227625*
Y225000*
X140764Y227625D02*
X141673Y225000D01*
X142036Y227625D02*
X140764D01*
X139491D02*
X139764Y227500D01*
X139855Y227250*
Y227000*
X139764Y226750*
X139582Y226625*
X139218Y226500*
X138945Y226375*
X138764Y226125*
X138673Y225875*
Y225500*
X138764Y225250*
X138855Y225125*
X139127Y225000*
X139491*
X139764Y225125*
X139855Y225250*
X139945Y225500*
Y225875*
X139855Y226125*
X139673Y226375*
X139400Y226500*
X139036Y226625*
X138855Y226750*
X138764Y227000*
Y227250*
X138855Y227500*
X139127Y227625*
X139491*
X117836Y225500D02*
X117927Y225750D01*
X118109Y226000*
X118291Y226125*
X118655*
X118836Y226000*
X119018Y225750*
X119109Y225500*
X119200Y225125*
Y224500*
X119109Y224125*
X119018Y223875*
X118836Y223625*
X118655Y223500*
X118291*
X118109Y223625*
X117927Y223875*
X117836Y224125*
X116564Y226125D02*
X116836Y226000D01*
X116927Y225750*
Y225500*
X116836Y225250*
X116655Y225125*
X116291Y225000*
X116018Y224875*
X115836Y224625*
X115745Y224375*
Y224000*
X115836Y223750*
X115927Y223625*
X116200Y223500*
X116564*
X116836Y223625*
X116927Y223750*
X117018Y224000*
Y224375*
X116927Y224625*
X116745Y224875*
X116473Y225000*
X116109Y225125*
X115927Y225250*
X115836Y225500*
Y225750*
X115927Y226000*
X116200Y226125*
X116564*
X137400Y239425D02*
Y237550D01*
X137309Y237175*
X137127Y236925*
X136855Y236800*
X136673*
X136400Y236925*
X136218Y237175*
X136127Y237550*
Y239425*
X135218Y238800D02*
Y238925D01*
X135127Y239175*
X135036Y239300*
X134855Y239425*
X134491*
X134309Y239300*
X134218Y239175*
X134127Y238925*
Y238675*
X134218Y238425*
X134400Y238050*
X135309Y236800*
X134036*
X132036Y239425D02*
X132945D01*
X133036Y238300*
X132945Y238425*
X132673Y238550*
X132400*
X132127Y238425*
X131945Y238175*
X131855Y237800*
X131945Y237550*
X132036Y237175*
X132218Y236925*
X132491Y236800*
X132764*
X133036Y236925*
X133127Y237050*
X133218Y237300*
X192636Y212900D02*
X192727Y213150D01*
X192909Y213400*
X193091Y213525*
X193455*
X193636Y213400*
X193818Y213150*
X193909Y212900*
X194000Y212525*
Y211900*
X193909Y211525*
X193818Y211275*
X193636Y211025*
X193455Y210900*
X193091*
X192909Y211025*
X192727Y211275*
X192636Y211525*
X191727Y212900D02*
Y213025D01*
X191636Y213275*
X191545Y213400*
X191364Y213525*
X191000*
X190818Y213400*
X190727Y213275*
X190636Y213025*
Y212775*
X190727Y212525*
X190909Y212150*
X191818Y210900*
X190545*
X189545Y213525D02*
X188545D01*
X189091Y212525*
X188818*
X188636Y212400*
X188545Y212275*
X188455Y211900*
Y211650*
X188545Y211275*
X188727Y211025*
X189000Y210900*
X189273*
X189545Y211025*
X189636Y211150*
X189727Y211400*
X187545Y212900D02*
Y213025D01*
X187455Y213275*
X187364Y213400*
X187182Y213525*
X186818*
X186636Y213400*
X186545Y213275*
X186455Y213025*
Y212775*
X186545Y212525*
X186727Y212150*
X187636Y210900*
X186364*
X117564Y252400D02*
X117473Y252150D01*
X117291Y251900*
X117109Y251775*
X116745*
X116564Y251900*
X116382Y252150*
X116291Y252400*
X116200Y252775*
Y253400*
X116291Y253775*
X116382Y254025*
X116564Y254275*
X116745Y254400*
X117109*
X117291Y254275*
X117473Y254025*
X117564Y253775*
X118473Y252400D02*
Y252275D01*
X118564Y252025*
X118655Y251900*
X118836Y251775*
X119200*
X119382Y251900*
X119473Y252025*
X119564Y252275*
Y252525*
X119473Y252775*
X119291Y253150*
X118382Y254400*
X119655*
X120564Y252400D02*
Y252275D01*
X120655Y252025*
X120745Y251900*
X120927Y251775*
X121291*
X121473Y251900*
X121564Y252025*
X121655Y252275*
Y252525*
X121564Y252775*
X121382Y253150*
X120473Y254400*
X121745*
X123655Y252150D02*
X123564Y251900D01*
X123291Y251775*
X123109*
X122836Y251900*
X122655Y252275*
X122564Y252900*
Y253525*
X122655Y254025*
X122836Y254275*
X123109Y254400*
X123200*
X123473Y254275*
X123655Y254025*
X123745Y253650*
Y253525*
X123655Y253150*
X123473Y252900*
X123200Y252775*
X123109*
X122836Y252900*
X122655Y253150*
X122564Y253525*
X131025Y191000D02*
X128400D01*
X131025D02*
Y191818D01*
X130900Y192091*
X130775Y192182*
X130525Y192273*
X130275*
X130025Y192182*
X129900Y192091*
X129775Y191818*
Y191000*
Y191636D02*
X128400Y192273D01*
X130525Y193091D02*
X130650Y193273D01*
X131025Y193545*
X128400*
X131025Y195636D02*
X128400Y194727D01*
X131025Y194364D02*
Y195636D01*
X130150Y197636D02*
X129775Y197545D01*
X129525Y197364*
X129400Y197091*
Y197000*
X129525Y196727*
X129775Y196545*
X130150Y196455*
X130275*
X130650Y196545*
X130900Y196727*
X131025Y197000*
Y197091*
X130900Y197364*
X130650Y197545*
X130150Y197636*
X129525*
X128900Y197545*
X128525Y197364*
X128400Y197091*
Y196909*
X128525Y196636*
X128775Y196545*
X135225Y191100D02*
X132600D01*
X135225D02*
Y191918D01*
X135100Y192191*
X134975Y192282*
X134725Y192373*
X134475*
X134225Y192282*
X134100Y192191*
X133975Y191918*
Y191100*
Y191736D02*
X132600Y192373D01*
X134725Y193191D02*
X134850Y193373D01*
X135225Y193645*
X132600*
X135225Y195736D02*
X132600Y194827D01*
X135225Y194464D02*
Y195736D01*
X134850Y197645D02*
X135100Y197555D01*
X135225Y197282*
Y197100*
X135100Y196827*
X134725Y196645*
X134100Y196555*
X133475*
X132975Y196645*
X132725Y196827*
X132600Y197100*
Y197191*
X132725Y197464*
X132975Y197645*
X133350Y197736*
X133475*
X133850Y197645*
X134100Y197464*
X134225Y197191*
Y197100*
X134100Y196827*
X133850Y196645*
X133475Y196555*
X158900Y214525D02*
Y211900D01*
Y214525D02*
X158082D01*
X157809Y214400*
X157718Y214275*
X157627Y214025*
Y213775*
X157718Y213525*
X157809Y213400*
X158082Y213275*
X158900*
X158264D02*
X157627Y211900D01*
X156809Y214025D02*
X156627Y214150D01*
X156355Y214525*
Y211900*
X155082Y214525D02*
X155355Y214400D01*
X155445Y214150*
Y213900*
X155355Y213650*
X155173Y213525*
X154809Y213400*
X154536Y213275*
X154355Y213025*
X154264Y212775*
Y212400*
X154355Y212150*
X154445Y212025*
X154718Y211900*
X155082*
X155355Y212025*
X155445Y212150*
X155536Y212400*
Y212775*
X155445Y213025*
X155264Y213275*
X154991Y213400*
X154627Y213525*
X154445Y213650*
X154355Y213900*
Y214150*
X154445Y214400*
X154718Y214525*
X155082*
X152900D02*
X153173Y214400D01*
X153355Y214025*
X153445Y213400*
Y213025*
X153355Y212400*
X153173Y212025*
X152900Y211900*
X152718*
X152445Y212025*
X152264Y212400*
X152173Y213025*
Y213400*
X152264Y214025*
X152445Y214400*
X152718Y214525*
X152900*
X119400Y219825D02*
Y217200D01*
Y219825D02*
X118582D01*
X118309Y219700*
X118218Y219575*
X118127Y219325*
Y219075*
X118218Y218825*
X118309Y218700*
X118582Y218575*
X119400*
X118764D02*
X118127Y217200D01*
X117309Y219325D02*
X117127Y219450D01*
X116855Y219825*
Y217200*
X114764Y219825D02*
X115673Y217200D01*
X116036Y219825D02*
X114764D01*
X112673D02*
X113582Y217200D01*
X113945Y219825D02*
X112673D01*
X116264Y186000D02*
X116173Y185750D01*
X115991Y185500*
X115809Y185375*
X115445*
X115264Y185500*
X115082Y185750*
X114991Y186000*
X114900Y186375*
Y187000*
X114991Y187375*
X115082Y187625*
X115264Y187875*
X115445Y188000*
X115809*
X115991Y187875*
X116173Y187625*
X116264Y187375*
X117173Y186000D02*
Y185875D01*
X117264Y185625*
X117355Y185500*
X117536Y185375*
X117900*
X118082Y185500*
X118173Y185625*
X118264Y185875*
Y186125*
X118173Y186375*
X117991Y186750*
X117082Y188000*
X118355*
X119264Y186000D02*
Y185875D01*
X119355Y185625*
X119445Y185500*
X119627Y185375*
X119991*
X120173Y185500*
X120264Y185625*
X120355Y185875*
Y186125*
X120264Y186375*
X120082Y186750*
X119173Y188000*
X120445*
X122445Y186250D02*
X122355Y186625D01*
X122173Y186875*
X121900Y187000*
X121809*
X121536Y186875*
X121355Y186625*
X121264Y186250*
Y186125*
X121355Y185750*
X121536Y185500*
X121809Y185375*
X121900*
X122173Y185500*
X122355Y185750*
X122445Y186250*
Y186875*
X122355Y187500*
X122173Y187875*
X121900Y188000*
X121718*
X121445Y187875*
X121355Y187625*
X108525Y234700D02*
X105900D01*
X108525D02*
Y235518D01*
X108400Y235791*
X108275Y235882*
X108025Y235973*
X107775*
X107525Y235882*
X107400Y235791*
X107275Y235518*
Y234700*
Y235336D02*
X105900Y235973D01*
X107900Y236882D02*
X108025D01*
X108275Y236973*
X108400Y237064*
X108525Y237245*
Y237609*
X108400Y237791*
X108275Y237882*
X108025Y237973*
X107775*
X107525Y237882*
X107150Y237700*
X105900Y236791*
Y238064*
X108025Y238882D02*
X108150Y239064D01*
X108525Y239336*
X105900*
X108150Y241245D02*
X108400Y241155D01*
X108525Y240882*
Y240700*
X108400Y240427*
X108025Y240245*
X107400Y240155*
X106775*
X106275Y240245*
X106025Y240427*
X105900Y240700*
Y240791*
X106025Y241064*
X106275Y241245*
X106650Y241336*
X106775*
X107150Y241245*
X107400Y241064*
X107525Y240791*
Y240700*
X107400Y240427*
X107150Y240245*
X106775Y240155*
X159336Y205000D02*
X159427Y205250D01*
X159609Y205500*
X159791Y205625*
X160155*
X160336Y205500*
X160518Y205250*
X160609Y205000*
X160700Y204625*
Y204000*
X160609Y203625*
X160518Y203375*
X160336Y203125*
X160155Y203000*
X159791*
X159609Y203125*
X159427Y203375*
X159336Y203625*
X158064Y205625D02*
X158336Y205500D01*
X158427Y205250*
Y205000*
X158336Y204750*
X158155Y204625*
X157791Y204500*
X157518Y204375*
X157336Y204125*
X157245Y203875*
Y203500*
X157336Y203250*
X157427Y203125*
X157700Y203000*
X158064*
X158336Y203125*
X158427Y203250*
X158518Y203500*
Y203875*
X158427Y204125*
X158245Y204375*
X157973Y204500*
X157609Y204625*
X157427Y204750*
X157336Y205000*
Y205250*
X157427Y205500*
X157700Y205625*
X158064*
X156336Y205000D02*
Y205125D01*
X156245Y205375*
X156155Y205500*
X155973Y205625*
X155609*
X155427Y205500*
X155336Y205375*
X155245Y205125*
Y204875*
X155336Y204625*
X155518Y204250*
X156427Y203000*
X155155*
X153155Y205625D02*
X154064D01*
X154155Y204500*
X154064Y204625*
X153791Y204750*
X153518*
X153245Y204625*
X153064Y204375*
X152973Y204000*
X153064Y203750*
X153155Y203375*
X153336Y203125*
X153609Y203000*
X153882*
X154155Y203125*
X154245Y203250*
X154336Y203500*
X152155Y205125D02*
X151973Y205250D01*
X151700Y205625*
Y203000*
X104325Y234900D02*
X101700D01*
X104325D02*
Y235718D01*
X104200Y235991*
X104075Y236082*
X103825Y236173*
X103575*
X103325Y236082*
X103200Y235991*
X103075Y235718*
Y234900*
Y235536D02*
X101700Y236173D01*
X103700Y237082D02*
X103825D01*
X104075Y237173*
X104200Y237264*
X104325Y237445*
Y237809*
X104200Y237991*
X104075Y238082*
X103825Y238173*
X103575*
X103325Y238082*
X102950Y237900*
X101700Y236991*
Y238264*
X103825Y239082D02*
X103950Y239264D01*
X104325Y239536*
X101700*
X104325Y241627D02*
X101700Y240718D01*
X104325Y240355D02*
Y241627D01*
X111187Y202278D02*
X108562D01*
X111187D02*
Y203096D01*
X111062Y203369*
X110937Y203460*
X110687Y203551*
X110437*
X110187Y203460*
X110062Y203369*
X109937Y203096*
Y202278*
Y202914D02*
X108562Y203551D01*
X110687Y204369D02*
X110812Y204551D01*
X111187Y204824*
X108562*
X111187Y206096D02*
X111062Y205824D01*
X110812Y205733*
X110562*
X110312Y205824*
X110187Y206005*
X110062Y206369*
X109937Y206642*
X109687Y206824*
X109437Y206914*
X109062*
X108812Y206824*
X108687Y206733*
X108562Y206460*
Y206096*
X108687Y205824*
X108812Y205733*
X109062Y205642*
X109437*
X109687Y205733*
X109937Y205914*
X110062Y206187*
X110187Y206551*
X110312Y206733*
X110562Y206824*
X110812*
X111062Y206733*
X111187Y206460*
Y206096*
X110687Y207733D02*
X110812Y207914D01*
X111187Y208187*
X108562*
X184050Y183153D02*
Y185450D01*
Y183153D02*
X184686D01*
X184959Y183262*
X184959D02*
X185141Y183481D01*
X185232Y183700*
X185323Y184028*
Y184575*
X185232Y184903*
X185141Y185122*
X184959Y185341*
X184686Y185450*
X184050*
X186141Y183591D02*
X186323Y183481D01*
X186595Y183153*
Y185450*
G54D33*
X136525Y217426D02*
Y223426D01*
X148525*
Y217426*
X136525*
X119984Y213017D02*
X125984D01*
Y201017*
X119984*
Y213017*
X133744Y200857D02*
X127744D01*
Y212857*
X133744*
Y200857*
X136685Y210066D02*
Y216066D01*
X148685*
Y210066*
X136685*
X133624Y220817D02*
Y214817D01*
X121624*
Y220817*
X133624*
X120140Y243652D02*
X126140D01*
Y231652*
X120140*
Y243652*
X118446Y231703D02*
X112446D01*
Y243703*
X118446*
Y231703*
X118384Y200857D02*
X112384D01*
Y212857*
X118384*
Y200857*
G54D51*
X158114Y221714D02*
X157956Y221872D01*
Y252422*
X182142*
X182208Y252357*
Y221714*
X158114*
G54D52*
X158210Y242830D02*
X182004D01*
X158101Y231488D02*
X182017D01*
G54D53*
X128376Y235768D02*
X140187D01*
Y239949*
X128376*
Y235768*
X128639Y235873D02*
X130532Y237766D01*
X128529Y239769*
Y235873*
X128639*
G74*
X0Y0D02*
M02*
