*
*
G04 PADS VX.1.2 Build Number: 698008 generated Gerber (RS-274-X) file*
G04 PC Version=2.1*
*
%IN "GETWAY_Base_ZM_V1.0_201"*%
*
%MOIN*%
*
%FSLAX35Y35*%
*
*
*
*
G04 PC Standard Apertures*
*
*
G04 Thermal Relief Aperture macro.*
%AMTER*
1,1,$1,0,0*
1,0,$1-$2,0,0*
21,0,$3,$4,0,0,45*
21,0,$3,$4,0,0,135*
%
*
*
G04 Annular Aperture macro.*
%AMANN*
1,1,$1,0,0*
1,0,$2,0,0*
%
*
*
G04 Odd Aperture macro.*
%AMODD*
1,1,$1,0,0*
1,0,$1-0.005,0,0*
%
*
*
G04 PC Custom Aperture Macros*
*
*
*
*
*
*
G04 PC Aperture Table*
*
%ADD010C,0.001*%
%ADD012C,0.0374*%
%ADD013C,0.05709*%
%ADD015C,0.15748*%
%ADD022ANN,0.05906X0.03543*%
%ADD031ANN,0.07087X0.04724*%
%ADD039ANN,0.23622X0.15748*%
%ADD042C,0.012*%
%ADD043C,0.05*%
%ADD044C,0.02*%
%ADD045C,0.04*%
%ADD046C,0.08*%
%ADD051C,0.045*%
%ADD052C,0.01*%
%ADD053C,0.015*%
*
*
*
*
G04 PC Circuitry*
G04 Layer Name GETWAY_Base_ZM_V1.0_201 - circuitry*
%LPD*%
*
*
G04 PC Custom Flashes*
G04 Layer Name GETWAY_Base_ZM_V1.0_201 - flashes*
%LPD*%
*
*
G04 PC Circuitry*
G04 Layer Name GETWAY_Base_ZM_V1.0_201 - circuitry*
%LPD*%
*
G54D10*
G54D12*
G01X992244Y735392D03*
X1085551Y440592D03*
X995118Y544014D03*
G54D13*
X992244Y636967D03*
X1085551Y539017D03*
X995118Y445589D03*
G54D15*
X802717Y637205D03*
Y732480D03*
X1275079Y538780D03*
Y443504D03*
X805591Y445827D03*
Y541102D03*
G54D22*
X1127126Y776870D03*
X1159252D03*
X1310118Y776929D03*
X1320118D03*
X1330118D03*
G54D31*
X1308268Y415906D03*
X1328268D03*
G54D39*
X834646Y409449D03*
Y574803D03*
X1216535D03*
Y409449D03*
X1362205Y771654D03*
Y409449D03*
X803150Y771654D03*
Y409449D03*
G54D42*
X920236Y449803D02*
X960433D01*
X964370Y449921*
X1040433Y475118D02*
Y624528D01*
X1021614Y490866D02*
Y575197D01*
X1025630Y487717D02*
Y595354D01*
X1030118Y484764D02*
Y599016D01*
X1125669Y487323D02*
X1125748Y487402D01*
X1125669*
X1300906Y512087D02*
X1316181D01*
X1337913Y497244D02*
Y526220D01*
X1341614Y529921*
X1322756Y496850D02*
Y507559D01*
X1324291Y509094*
Y547677*
X1021890Y575472D02*
X1021614Y575197D01*
Y590866*
X1171772Y595394D02*
X1171732Y595354D01*
Y632638*
X1175000Y590866D02*
Y627953D01*
X1179724Y599016D02*
Y623150D01*
Y707087*
X1187638Y715000*
X1274409*
X1175000Y627953D02*
Y738425D01*
X1182992Y746417*
X1321654*
X1171732Y632638D02*
Y745787D01*
X1180236Y754291*
X1305315*
X1310118Y759094*
Y774557*
X966260Y660197D02*
X1144961D01*
X1145197Y660433*
X968701Y657047D02*
X1128622D01*
X969016Y650748D02*
X1150669D01*
X955315Y641339D02*
Y644252D01*
X955472Y644409*
X1145236Y660236D02*
Y660394D01*
X1145197Y660433*
X1161496Y653858D02*
X1161457Y653898D01*
X966457*
X1150669Y658504D02*
Y693661D01*
X1145315Y699016*
X966629Y710865D02*
G75*
G03X967279Y710591I650J630D01*
X966629Y710316I-0J-905*
G01X966339Y710591D02*
X971535D01*
X973740Y712795*
Y768881*
X967062Y707716D02*
G03X967712Y707441I650J630D01*
X967062Y707166I-0J-905*
G01X966772Y707441D02*
X973898D01*
X976220Y709764*
Y771811*
X1137008Y696102D02*
Y721850D01*
X1139528Y724370*
X1149252*
X1142677Y698819D02*
Y707480D01*
X1142756Y707559*
Y716220*
X1145315Y699016D02*
Y718701D01*
X1142441Y721575*
X966929Y723661D02*
X967126D01*
X899346Y772952D02*
G03X899995Y772677I649J630D01*
X899346Y772402I0J-904*
G01X969764Y729488D02*
Y732290D01*
X967802Y734252*
Y762198*
X964933Y765067*
X907717*
X900107Y772677*
X899055*
X967126Y724601D02*
G03X967401Y723952I905J0D01*
G01X966851D02*
G03X967126Y724601I-630J649D01*
G01Y723661D02*
Y726850D01*
X969764Y729488*
X1081378Y717480D02*
Y734016D01*
Y760984*
X1081260Y761102*
X1157047Y721260D02*
X1152362D01*
X1149252Y724370*
X1267520Y742087D02*
X1303858D01*
X906862Y773077D02*
G03X907515Y773342I13J904D01*
X907250Y772688I640J-640*
G01X906850Y772677D02*
X909331Y775157D01*
X972874*
X914976Y773031D02*
G03X915625Y772756I649J629D01*
X914976Y772481I0J-905*
G01X973740Y768881D02*
X973062Y769559D01*
Y769722*
X970028Y772756*
X914685*
X976220Y771811D02*
X972874Y775157D01*
G54D43*
X1055118Y411535D02*
Y459094D01*
X964370Y449921D02*
Y541181D01*
X1055118Y459094D02*
Y525512D01*
X1125669Y443346D02*
Y487323D01*
Y487402*
Y534685*
X1055118Y525512D02*
Y570630D01*
X1125669Y534685D02*
Y570591D01*
X1187520D02*
Y605748D01*
X1221299Y639528*
Y646181*
X1211339Y656142*
Y699134*
X955394Y693189D02*
X955472D01*
X998386Y761102D02*
X1081260D01*
X1178543*
G54D44*
X1045906Y700551D02*
Y718780D01*
Y735591*
X790602Y428222D03*
X800602D03*
X810602D03*
X820602D03*
Y418222D03*
Y398222D03*
X840602Y428222D03*
X850602D03*
Y418222D03*
Y408222D03*
Y398222D03*
X860602Y418222D03*
Y408222D03*
Y398222D03*
Y428222D03*
X830602D03*
X890602Y408222D03*
X880602Y428222D03*
Y418222D03*
Y408222D03*
Y398222D03*
X890602D03*
Y428222D03*
Y418222D03*
X900602Y428222D03*
Y418222D03*
Y408222D03*
Y398222D03*
X870602Y428222D03*
Y418222D03*
Y408222D03*
Y398222D03*
X930602Y428222D03*
Y418222D03*
X931378Y409291D03*
X930602Y398222D03*
X940602D03*
Y428222D03*
Y418222D03*
X910602Y428222D03*
Y418222D03*
Y408222D03*
Y398222D03*
X920602D03*
X980602Y408222D03*
Y398222D03*
Y428222D03*
Y418222D03*
X950602Y428222D03*
Y418222D03*
Y408222D03*
Y398222D03*
X960602Y428222D03*
Y418222D03*
Y408222D03*
Y398222D03*
X970602Y428222D03*
Y418222D03*
Y408222D03*
Y398222D03*
X990602Y428222D03*
Y418222D03*
Y408222D03*
Y398222D03*
X1000602Y428222D03*
Y418222D03*
Y408222D03*
Y398222D03*
X1010602Y428222D03*
Y418222D03*
Y408222D03*
Y398222D03*
X1020602Y408222D03*
Y398222D03*
Y428222D03*
Y418222D03*
X1030602Y408222D03*
Y398222D03*
Y428222D03*
Y418222D03*
X1040602Y428222D03*
Y418222D03*
Y408222D03*
Y398222D03*
X1050602D03*
X1060602Y408222D03*
Y398222D03*
X1070602Y428222D03*
Y418222D03*
Y408222D03*
Y398222D03*
X1080602Y418222D03*
Y408222D03*
Y398222D03*
Y428222D03*
X1090602Y418222D03*
Y408222D03*
Y398222D03*
X1097402Y418228D03*
X1100602Y408222D03*
Y398222D03*
Y428222D03*
X1140602D03*
Y418222D03*
Y408222D03*
Y398222D03*
X1110602Y428222D03*
Y418222D03*
Y408222D03*
Y398222D03*
X1120602Y418222D03*
Y408222D03*
Y398222D03*
Y428222D03*
X1130602D03*
Y418222D03*
Y408222D03*
Y398222D03*
X1150602Y428222D03*
Y418222D03*
Y408222D03*
Y398222D03*
X1160602Y408222D03*
Y398222D03*
Y428222D03*
Y418222D03*
X1170602Y428222D03*
Y418222D03*
Y408222D03*
Y398222D03*
X1180602Y428222D03*
Y418222D03*
Y408222D03*
Y398222D03*
X1200602Y428222D03*
Y418222D03*
Y408222D03*
Y398222D03*
X1210602Y428222D03*
X1220602D03*
X1190602D03*
Y418222D03*
Y408222D03*
Y398222D03*
X1260602Y428222D03*
Y418222D03*
Y408222D03*
Y398222D03*
X1230602Y418222D03*
Y398222D03*
Y428222D03*
X1240602D03*
Y418222D03*
Y408222D03*
Y398222D03*
X1250602Y428222D03*
Y418222D03*
Y408222D03*
Y398222D03*
X1270602Y428222D03*
Y418222D03*
Y408222D03*
Y398222D03*
X1280602Y428222D03*
Y418222D03*
Y408222D03*
Y398222D03*
X1290602Y428222D03*
Y418222D03*
Y408222D03*
Y398222D03*
X1300602D03*
X1320602Y428222D03*
Y418222D03*
Y408222D03*
X1330602Y398222D03*
Y428222D03*
Y408222D03*
X1340602Y428222D03*
Y418222D03*
Y408222D03*
Y398222D03*
X1310602D03*
X1320602D03*
X1350602Y428222D03*
Y398222D03*
X1360602Y428222D03*
X1370602D03*
X790602Y448222D03*
Y438222D03*
Y468222D03*
Y458222D03*
X800602Y468222D03*
Y458222D03*
X810602Y468222D03*
Y458222D03*
X820602Y468222D03*
Y458222D03*
Y448222D03*
Y438222D03*
X830602Y468222D03*
Y458222D03*
X840602Y468222D03*
Y458222D03*
Y448222D03*
Y438222D03*
X850602Y468222D03*
Y458222D03*
Y448222D03*
Y438222D03*
X860602Y468222D03*
Y458222D03*
Y448222D03*
Y438222D03*
X830602Y448222D03*
Y438222D03*
X880602Y468222D03*
Y458222D03*
Y448222D03*
Y438222D03*
X890602D03*
Y468222D03*
Y458222D03*
Y448222D03*
X900602Y468222D03*
Y458222D03*
Y448222D03*
Y438222D03*
X870602Y468222D03*
Y458222D03*
Y448222D03*
Y438222D03*
X920236Y449803D03*
X920602Y468222D03*
X919252Y460118D03*
X930602Y468222D03*
Y458222D03*
Y438222D03*
X940602Y468222D03*
Y458222D03*
Y438222D03*
X910602Y468222D03*
Y458222D03*
Y448222D03*
Y438222D03*
X980602D03*
X950602Y468222D03*
Y458222D03*
Y438222D03*
X960602D03*
X970602Y468222D03*
Y458222D03*
Y438222D03*
X990602D03*
X1000602Y458222D03*
Y448222D03*
Y438222D03*
X1020602Y468222D03*
Y458222D03*
Y448222D03*
Y438222D03*
X1040433Y475118D03*
X1030602Y468222D03*
Y458222D03*
Y448222D03*
Y438222D03*
X1040602Y468222D03*
Y458222D03*
Y448222D03*
Y438222D03*
X1070602D03*
X1080602Y468222D03*
Y458222D03*
Y448222D03*
Y438222D03*
X1090602Y468222D03*
X1100602Y438222D03*
X1140602Y468222D03*
Y458222D03*
Y448222D03*
Y438222D03*
X1110602Y458222D03*
Y448222D03*
Y438222D03*
Y468222D03*
X1120602Y438222D03*
X1130602D03*
X1150602Y468222D03*
Y458222D03*
Y448222D03*
Y438222D03*
X1160602Y468222D03*
Y458222D03*
Y448222D03*
Y438222D03*
X1170602Y468222D03*
Y458222D03*
Y448222D03*
Y438222D03*
X1180602Y458222D03*
Y448222D03*
Y438222D03*
Y468222D03*
X1200602D03*
Y458222D03*
Y448222D03*
Y438222D03*
X1210602Y468222D03*
Y458222D03*
Y448222D03*
Y438222D03*
X1220602Y468222D03*
Y458222D03*
Y448222D03*
Y438222D03*
X1190602Y468222D03*
Y458222D03*
Y448222D03*
Y438222D03*
X1260602Y458222D03*
Y448222D03*
Y438222D03*
Y468222D03*
X1230602D03*
Y458222D03*
Y448222D03*
Y438222D03*
X1240602Y468222D03*
Y458222D03*
Y448222D03*
Y438222D03*
X1250602Y468222D03*
Y458222D03*
Y448222D03*
Y438222D03*
X1270602Y468222D03*
Y458222D03*
X1280602Y468222D03*
Y458222D03*
X1290602D03*
Y448222D03*
Y438222D03*
Y468222D03*
X1300602D03*
Y458222D03*
Y448222D03*
X1320602Y438222D03*
X1330602Y458222D03*
Y448222D03*
Y438222D03*
X1340602Y458222D03*
Y448222D03*
Y438222D03*
Y468222D03*
X1350602Y438222D03*
Y468222D03*
Y458222D03*
Y448222D03*
X1360602D03*
Y438222D03*
Y468222D03*
Y458222D03*
X1370602Y448222D03*
Y438222D03*
Y468222D03*
Y458222D03*
X790602Y508222D03*
Y498222D03*
Y488222D03*
Y478222D03*
X800602Y508222D03*
Y498222D03*
Y488222D03*
Y478222D03*
X810602Y508222D03*
Y498222D03*
Y488222D03*
Y478222D03*
X820602Y508222D03*
Y498222D03*
Y488222D03*
Y478222D03*
X830602Y508222D03*
Y498222D03*
Y488222D03*
Y478222D03*
X840602Y488222D03*
Y478222D03*
Y508222D03*
Y498222D03*
X850602Y508222D03*
Y498222D03*
Y488222D03*
Y478222D03*
X860602Y508222D03*
Y498222D03*
Y488222D03*
Y478222D03*
X880602Y498222D03*
Y488222D03*
Y478222D03*
Y508222D03*
X890602D03*
Y498222D03*
Y488222D03*
Y478222D03*
X900602Y508222D03*
Y498222D03*
Y488222D03*
Y478222D03*
X870602Y508222D03*
Y498222D03*
Y488222D03*
Y478222D03*
X920602Y508222D03*
Y498222D03*
Y488222D03*
Y478222D03*
X930602Y488222D03*
Y478222D03*
Y508222D03*
Y498222D03*
X940602D03*
Y488222D03*
Y478222D03*
Y508222D03*
X910602Y478222D03*
Y508222D03*
Y498222D03*
Y488222D03*
X980602Y478222D03*
X950602Y508222D03*
Y498222D03*
Y488222D03*
Y478222D03*
X970602Y508222D03*
Y488222D03*
Y478222D03*
X1021614Y490866D03*
X1025630Y487717D03*
X990602Y508222D03*
Y498222D03*
X1000602Y508222D03*
Y498222D03*
Y488222D03*
X1030118Y484764D03*
X1080602Y478222D03*
X1090602Y488222D03*
Y478222D03*
Y508222D03*
Y498222D03*
X1100602Y508222D03*
X1140602D03*
Y498222D03*
Y488222D03*
Y478222D03*
X1110602Y508222D03*
Y498222D03*
Y478222D03*
X1150602Y508222D03*
Y498222D03*
Y488222D03*
Y478222D03*
X1160602Y498222D03*
Y488222D03*
Y478222D03*
Y508222D03*
X1170602D03*
Y498222D03*
Y488222D03*
Y478222D03*
X1180602Y508222D03*
Y498222D03*
Y488222D03*
Y478222D03*
X1190602Y508222D03*
Y498222D03*
X1200602Y508222D03*
Y498222D03*
Y488222D03*
Y478222D03*
X1210602Y508222D03*
Y498222D03*
Y488222D03*
Y478222D03*
X1220602Y498222D03*
Y488222D03*
Y478222D03*
Y508222D03*
X1190602Y488222D03*
Y478222D03*
X1260602Y508222D03*
Y498222D03*
Y488222D03*
Y478222D03*
X1230602Y508222D03*
Y498222D03*
Y488222D03*
Y478222D03*
X1240602Y488222D03*
Y478222D03*
Y508222D03*
Y498222D03*
X1250602Y488222D03*
Y478222D03*
Y508222D03*
Y498222D03*
X1300906Y512087D03*
X1270602Y508222D03*
Y498222D03*
Y488222D03*
Y478222D03*
X1280602Y508222D03*
Y498222D03*
Y488222D03*
Y478222D03*
X1290602Y508222D03*
Y498222D03*
Y488222D03*
Y478222D03*
X1300602Y498222D03*
Y488222D03*
Y478222D03*
X1337913Y497244D03*
X1322756Y496850D03*
X1316181Y512087D03*
X1320602Y478222D03*
X1330602D03*
X1340602Y488222D03*
Y478222D03*
X1312165Y498189D03*
X1310602Y478222D03*
X1350602Y488222D03*
Y478222D03*
X1360602Y488222D03*
Y478222D03*
X1370602Y508222D03*
Y498222D03*
Y488222D03*
Y478222D03*
X800602Y518222D03*
X810602D03*
X790602D03*
Y548222D03*
Y538222D03*
Y528222D03*
X800602D03*
X810602D03*
X820602Y548222D03*
Y538222D03*
Y528222D03*
Y518222D03*
X830602Y548222D03*
Y538222D03*
Y528222D03*
Y518222D03*
X840602Y528222D03*
Y518222D03*
Y548222D03*
Y538222D03*
X850602Y548222D03*
Y538222D03*
Y528222D03*
Y518222D03*
X860602Y548222D03*
Y538222D03*
Y528222D03*
Y518222D03*
X880602Y548222D03*
Y538222D03*
Y528222D03*
Y518222D03*
X890602Y548222D03*
Y538222D03*
Y528222D03*
Y518222D03*
X900602Y548222D03*
Y538222D03*
Y528222D03*
Y518222D03*
X870602Y548222D03*
Y538222D03*
Y528222D03*
Y518222D03*
X920602Y548222D03*
Y538222D03*
Y528222D03*
Y518222D03*
X930602Y548222D03*
Y538222D03*
Y528222D03*
Y518222D03*
X940602Y548222D03*
Y538222D03*
Y528222D03*
Y518222D03*
X910602Y548222D03*
Y538222D03*
Y528222D03*
Y518222D03*
X980602Y548222D03*
X950602D03*
Y538222D03*
Y528222D03*
Y518222D03*
X970602Y548222D03*
Y538222D03*
Y518222D03*
X990602D03*
Y548222D03*
Y538222D03*
Y528222D03*
X1000602Y548222D03*
Y538222D03*
Y528222D03*
Y518222D03*
X1070602Y538222D03*
X1080602Y548222D03*
Y528222D03*
Y518222D03*
X1090602Y548222D03*
Y528222D03*
Y518222D03*
X1100602Y538222D03*
Y548222D03*
X1140602D03*
Y538222D03*
Y528222D03*
Y518222D03*
X1110602Y548222D03*
Y538222D03*
Y528222D03*
Y518222D03*
X1150602Y548222D03*
Y538222D03*
Y528222D03*
Y518222D03*
X1160602Y548222D03*
Y538222D03*
Y528222D03*
Y518222D03*
X1170602D03*
Y548222D03*
Y538222D03*
Y528222D03*
X1180602Y548222D03*
Y538222D03*
Y528222D03*
Y518222D03*
X1190602Y548222D03*
Y538222D03*
Y528222D03*
Y518222D03*
X1200602Y538222D03*
Y528222D03*
Y518222D03*
Y548222D03*
X1210602D03*
Y538222D03*
Y528222D03*
Y518222D03*
X1220602Y548222D03*
Y538222D03*
Y528222D03*
Y518222D03*
X1260602Y548222D03*
Y538222D03*
Y528222D03*
Y518222D03*
X1230602Y528222D03*
Y518222D03*
Y548222D03*
Y538222D03*
X1240602Y548222D03*
Y538222D03*
Y528222D03*
Y518222D03*
X1250602Y548222D03*
Y538222D03*
Y528222D03*
Y518222D03*
X1270602D03*
Y528222D03*
X1280602D03*
Y518222D03*
X1290602Y548222D03*
Y538222D03*
Y528222D03*
Y518222D03*
X1341614Y529921D03*
X1324291Y547677D03*
X1330602Y548222D03*
X1340602D03*
X1310602D03*
X1315079Y527835D03*
X1313543Y550984D03*
X1360602Y548222D03*
Y538222D03*
X1370602Y548222D03*
Y538222D03*
Y528222D03*
Y518222D03*
X790602Y588222D03*
Y578222D03*
Y568222D03*
Y558222D03*
X800602Y588222D03*
Y578222D03*
Y568222D03*
Y558222D03*
X810602Y588222D03*
Y578222D03*
Y568222D03*
Y558222D03*
X820602Y588222D03*
Y568222D03*
Y558222D03*
X830602D03*
X840602D03*
X850602Y588222D03*
Y578222D03*
Y568222D03*
Y558222D03*
X860602Y578222D03*
Y568222D03*
Y558222D03*
Y588222D03*
X880602D03*
Y578222D03*
Y568222D03*
Y558222D03*
X890602D03*
Y588222D03*
Y578222D03*
Y568222D03*
X900602Y588222D03*
Y578222D03*
Y568222D03*
Y558222D03*
X870602Y588222D03*
Y578222D03*
Y568222D03*
Y558222D03*
X920602Y588222D03*
Y578222D03*
Y568222D03*
Y558222D03*
X930602Y588222D03*
Y578222D03*
Y568222D03*
Y558222D03*
X940602Y578222D03*
Y568222D03*
Y558222D03*
Y588222D03*
X910602D03*
Y578222D03*
Y568222D03*
Y558222D03*
X980602Y588222D03*
Y578222D03*
Y558222D03*
X950602D03*
Y588222D03*
Y578222D03*
Y568222D03*
X960602Y588222D03*
Y578222D03*
Y568222D03*
X970602Y588222D03*
Y578222D03*
Y558222D03*
X1021614Y590866D03*
X1025630Y595354D03*
X990602Y588222D03*
Y578222D03*
Y558222D03*
X1000602Y588222D03*
Y578222D03*
Y558222D03*
X1010602Y588222D03*
Y578222D03*
Y558222D03*
X1050602Y578222D03*
X1060602D03*
X1070602D03*
Y558222D03*
X1080602Y578222D03*
Y558222D03*
X1090602Y578222D03*
Y558222D03*
X1100602Y578222D03*
Y558222D03*
X1130602Y578222D03*
X1140602D03*
Y558222D03*
X1110602Y578222D03*
Y558222D03*
X1120602Y578222D03*
X1175000Y590866D03*
X1171772Y595394D03*
X1150602Y578222D03*
Y558222D03*
X1160602Y578222D03*
Y558222D03*
X1170602Y578222D03*
Y558222D03*
X1180602Y588222D03*
Y578222D03*
Y558222D03*
X1190602D03*
X1200602Y588222D03*
Y578222D03*
Y568222D03*
Y558222D03*
X1210602D03*
X1220602D03*
X1260602Y568222D03*
Y558222D03*
Y588222D03*
Y578222D03*
X1230602Y588222D03*
Y568222D03*
Y558222D03*
X1240602Y588222D03*
Y578222D03*
Y568222D03*
Y558222D03*
X1250602Y588222D03*
Y578222D03*
Y568222D03*
Y558222D03*
X1290602Y578222D03*
X1270602Y588222D03*
Y578222D03*
Y568222D03*
Y558222D03*
X1280602Y588222D03*
Y578222D03*
Y568222D03*
Y558222D03*
X1290602Y568222D03*
Y558222D03*
Y588222D03*
X1300602D03*
Y578222D03*
X1320602Y588222D03*
Y578222D03*
Y568222D03*
X1330602Y578222D03*
Y568222D03*
Y588222D03*
X1340602D03*
Y578222D03*
Y568222D03*
X1310602Y588222D03*
Y578222D03*
X1360602Y588222D03*
Y578222D03*
Y568222D03*
Y558222D03*
X1370602Y588222D03*
Y578222D03*
Y568222D03*
Y558222D03*
X800602Y618222D03*
X790602Y598222D03*
Y628222D03*
Y618222D03*
Y608222D03*
X800602D03*
Y598222D03*
X810602Y608222D03*
Y598222D03*
Y628222D03*
Y618222D03*
X820602Y628222D03*
Y618222D03*
Y608222D03*
Y598222D03*
X830602Y628222D03*
Y618222D03*
Y608222D03*
Y598222D03*
X840602Y628222D03*
Y618222D03*
Y608222D03*
Y598222D03*
X850602Y628222D03*
Y618222D03*
Y608222D03*
Y598222D03*
X860602Y628222D03*
Y618222D03*
Y608222D03*
Y598222D03*
X880602Y618222D03*
Y608222D03*
Y598222D03*
Y628222D03*
X890602D03*
Y618222D03*
Y608222D03*
Y598222D03*
X900602Y628222D03*
Y618222D03*
Y608222D03*
Y598222D03*
X870602Y628222D03*
Y618222D03*
Y608222D03*
Y598222D03*
X920602Y628222D03*
Y618222D03*
Y608222D03*
Y598222D03*
X930602Y628222D03*
Y618222D03*
Y608222D03*
Y598222D03*
X940602Y628222D03*
Y618222D03*
Y608222D03*
Y598222D03*
X910602Y628222D03*
Y618222D03*
Y608222D03*
Y598222D03*
X970602Y628222D03*
Y618222D03*
X980602Y628222D03*
Y618222D03*
Y598222D03*
X950602D03*
X960602D03*
X970602D03*
X990602D03*
Y628222D03*
Y618222D03*
X1000602D03*
Y598222D03*
Y628222D03*
X1010602Y618222D03*
Y598222D03*
X1020602Y628222D03*
Y618222D03*
Y598222D03*
X1040433Y624528D03*
X1030118Y599016D03*
X1060602Y628222D03*
X1030602D03*
Y618222D03*
X1050602Y628222D03*
X1070602D03*
X1090602D03*
X1179724Y599016D03*
Y623150D03*
X1175000Y627953D03*
X1171732Y632638D03*
X1190602Y628222D03*
X1200602Y598222D03*
X1210602Y618222D03*
X1211850Y609449D03*
X1220602Y608222D03*
Y628222D03*
Y618222D03*
X1260602Y628222D03*
Y618222D03*
Y598222D03*
X1230602Y608222D03*
X1270602Y628222D03*
Y618222D03*
Y598222D03*
X1280602Y628222D03*
Y618222D03*
Y598222D03*
X1290602Y628222D03*
Y618222D03*
Y598222D03*
X1300602Y628222D03*
Y618222D03*
Y598222D03*
X1320602Y628222D03*
Y618222D03*
Y598222D03*
X1330602Y628222D03*
Y618222D03*
Y598222D03*
X1340602Y628222D03*
Y618222D03*
Y598222D03*
X1310602D03*
Y628222D03*
Y618222D03*
X1351890Y609528D03*
X1350602Y628222D03*
Y618222D03*
X1360602Y628222D03*
Y618222D03*
Y608222D03*
Y598222D03*
X1370602Y608222D03*
Y598222D03*
Y628222D03*
Y618222D03*
X790602Y668222D03*
Y658222D03*
Y648222D03*
Y638222D03*
X800602Y668222D03*
Y658222D03*
X810602Y668222D03*
Y658222D03*
Y648222D03*
X820602Y638222D03*
Y668222D03*
Y658222D03*
Y648222D03*
X840602D03*
X830602Y668222D03*
Y658222D03*
Y648222D03*
Y638222D03*
X840602D03*
Y668222D03*
Y658222D03*
X850602Y668222D03*
Y658222D03*
Y648222D03*
Y638222D03*
X860602Y668222D03*
Y658222D03*
Y648222D03*
Y638222D03*
X870602Y668222D03*
Y658222D03*
Y648222D03*
Y638222D03*
X880602Y668222D03*
Y658222D03*
Y648222D03*
Y638222D03*
X890602Y668222D03*
Y658222D03*
Y648222D03*
Y638222D03*
X900602Y668222D03*
Y658222D03*
Y648222D03*
Y638222D03*
X920602Y668222D03*
Y658222D03*
Y648222D03*
Y638222D03*
X930602Y668222D03*
Y658222D03*
Y648222D03*
Y638222D03*
X940602Y658222D03*
Y648222D03*
Y638222D03*
Y668222D03*
X910602Y638222D03*
Y668222D03*
Y658222D03*
Y648222D03*
X966260Y660197D03*
X968701Y657047D03*
X966457Y653898D03*
X969016Y650748D03*
X970602Y668222D03*
X970512Y637205D03*
X980602Y668222D03*
Y638222D03*
X990602Y668222D03*
X1000602Y638222D03*
X1010602D03*
X1020602D03*
X1060602Y668222D03*
Y638222D03*
X1068386Y667638D03*
X1030602Y638222D03*
X1040602Y668222D03*
Y638222D03*
X1050602D03*
Y668222D03*
X1070602Y638222D03*
X1079606Y667913D03*
X1080602Y638222D03*
X1090602Y668222D03*
Y638222D03*
X1145236Y660236D03*
X1128622Y657047D03*
X1130602Y638222D03*
X1140602Y668222D03*
Y638222D03*
X1120602Y668222D03*
Y638222D03*
X1161496Y653858D03*
X1150669Y650748D03*
Y658504D03*
X1150602Y638222D03*
X1160602Y648222D03*
Y638222D03*
X1190602D03*
Y668222D03*
Y658222D03*
Y648222D03*
X1210602D03*
Y638222D03*
X1220602Y658222D03*
X1260602D03*
X1230602D03*
X1240602D03*
X1250602D03*
X1270602Y668222D03*
Y658222D03*
Y648222D03*
X1280602D03*
Y638222D03*
Y668222D03*
Y658222D03*
X1290602Y668222D03*
Y658222D03*
Y648222D03*
Y638222D03*
X1300602Y668222D03*
Y658222D03*
Y648222D03*
Y638222D03*
X1320602D03*
Y668222D03*
Y658222D03*
Y648222D03*
X1330602Y668222D03*
Y658222D03*
Y648222D03*
Y638222D03*
X1340602Y668222D03*
Y658222D03*
Y648222D03*
Y638222D03*
X1310602Y668222D03*
Y658222D03*
Y648222D03*
Y638222D03*
X1350602Y668222D03*
Y658222D03*
Y648222D03*
Y638222D03*
X1360602D03*
Y668222D03*
Y658222D03*
Y648222D03*
X1370602Y668222D03*
Y658222D03*
Y648222D03*
Y638222D03*
X790602Y678222D03*
Y708222D03*
Y698222D03*
Y688222D03*
X800602Y708222D03*
Y698222D03*
Y688222D03*
Y678222D03*
X810602Y708222D03*
Y698222D03*
Y688222D03*
Y678222D03*
X820602Y708222D03*
Y698222D03*
Y688222D03*
Y678222D03*
X830602Y708222D03*
Y698222D03*
Y688222D03*
Y678222D03*
X840602Y708222D03*
Y698222D03*
Y688222D03*
Y678222D03*
X850602Y708222D03*
Y698222D03*
Y688222D03*
Y678222D03*
X860602Y708222D03*
Y698222D03*
Y688222D03*
Y678222D03*
X870602Y708222D03*
Y698222D03*
Y688222D03*
Y678222D03*
X880602Y708222D03*
Y698222D03*
Y688222D03*
Y678222D03*
X890602Y708222D03*
Y698222D03*
Y688222D03*
Y678222D03*
X900602Y708222D03*
Y698222D03*
Y688222D03*
Y678222D03*
X920602Y708222D03*
Y698222D03*
Y688222D03*
Y678222D03*
X930602Y708222D03*
Y698222D03*
Y688222D03*
Y678222D03*
X940602Y708222D03*
Y698222D03*
Y688222D03*
Y678222D03*
X910602Y708222D03*
Y698222D03*
Y688222D03*
Y678222D03*
X966339Y710591D03*
X966772Y707441D03*
X990602Y708222D03*
Y698222D03*
X1020748Y693858D03*
X1020602Y708222D03*
Y698222D03*
X1060602Y688222D03*
X1030602Y678222D03*
X1040602Y698222D03*
Y688222D03*
X1050602D03*
Y678222D03*
X1049528Y686102D03*
X1070602Y708222D03*
Y698222D03*
Y688222D03*
X1069409Y679134D03*
X1080602Y708222D03*
Y698222D03*
Y678222D03*
X1090602Y708222D03*
Y698222D03*
Y688222D03*
Y678222D03*
X1079843Y688268D03*
X1137008Y696102D03*
X1142677Y698819D03*
X1142756Y716220D03*
X1145315Y699016D03*
X1130602Y698222D03*
X1140866Y692520D03*
X1140906Y677205D03*
X1133189Y714961D03*
X1120602Y708222D03*
Y698222D03*
Y688222D03*
Y678222D03*
X1150602Y708222D03*
X1187756Y706260D03*
X1154843Y694528D03*
X1159252Y709488D03*
X1190602Y678222D03*
X1200602D03*
X1220602Y688222D03*
Y678222D03*
X1250602Y708222D03*
X1260602Y698222D03*
Y708222D03*
X1230602Y688222D03*
Y678222D03*
X1240602Y688222D03*
Y678222D03*
Y708222D03*
Y698222D03*
X1250602D03*
X1274409Y715000D03*
X1270602Y708222D03*
Y698222D03*
Y678222D03*
X1280602Y708222D03*
Y698222D03*
Y688222D03*
Y678222D03*
X1290602Y688222D03*
Y678222D03*
X1300602Y698222D03*
Y688222D03*
Y678222D03*
X1320602Y708222D03*
Y698222D03*
Y688222D03*
Y678222D03*
X1330602D03*
Y708222D03*
Y698222D03*
Y688222D03*
X1340602Y708222D03*
Y698222D03*
Y688222D03*
Y678222D03*
X1310602Y698222D03*
Y688222D03*
Y678222D03*
X1350602Y688222D03*
Y678222D03*
X1360602Y708222D03*
Y698222D03*
Y688222D03*
Y678222D03*
X1370602Y708222D03*
Y698222D03*
Y688222D03*
Y678222D03*
X800602Y748222D03*
X790602D03*
Y738222D03*
Y728222D03*
Y718222D03*
X800602D03*
X810602Y748222D03*
Y718222D03*
X820602Y748222D03*
Y738222D03*
Y728222D03*
Y718222D03*
X830602D03*
Y748222D03*
Y738222D03*
Y728222D03*
X840602Y748222D03*
Y738222D03*
Y728222D03*
Y718222D03*
X850602Y738222D03*
Y728222D03*
Y718222D03*
Y748222D03*
X860602Y738222D03*
Y728222D03*
Y718222D03*
Y748222D03*
X870602Y738222D03*
X880602Y728222D03*
X870602D03*
Y718222D03*
Y748222D03*
X880602Y718222D03*
Y748222D03*
Y738222D03*
X890602Y718222D03*
Y748222D03*
Y738222D03*
Y728222D03*
X900602Y748222D03*
Y738222D03*
Y728222D03*
Y718222D03*
X940602Y738222D03*
X920602Y748222D03*
Y738222D03*
Y728222D03*
Y718222D03*
X930602Y748222D03*
Y738222D03*
Y728222D03*
Y718222D03*
X940602Y728222D03*
Y718222D03*
Y748222D03*
X910602D03*
Y738222D03*
Y728222D03*
Y718222D03*
X967126Y723661D03*
X970602Y748222D03*
Y738222D03*
X980602Y748222D03*
Y738222D03*
X960602Y748222D03*
X963701Y725906D03*
X990602Y748222D03*
X1000602D03*
Y738222D03*
X1010602Y748222D03*
Y738222D03*
X1020602Y748222D03*
Y738222D03*
Y728222D03*
Y718222D03*
X1060602Y748222D03*
Y738222D03*
Y718222D03*
X1030602Y748222D03*
Y738222D03*
Y728222D03*
X1040602Y748222D03*
Y738222D03*
Y728222D03*
X1050602Y748222D03*
Y728222D03*
X1081378Y717480D03*
Y734016D03*
X1070602Y748222D03*
Y738222D03*
Y718222D03*
X1090602Y748222D03*
Y738222D03*
Y718222D03*
X1100602Y748222D03*
Y738222D03*
Y718222D03*
X1142441Y721575D03*
X1133071Y722559D03*
X1130602Y748222D03*
X1140602D03*
Y738222D03*
X1110602Y748222D03*
Y738222D03*
Y728222D03*
X1120602Y748222D03*
Y728222D03*
Y718222D03*
X1157047Y721260D03*
X1150602Y748222D03*
Y738222D03*
X1160602Y718222D03*
Y748222D03*
Y738222D03*
X1186220Y743031D03*
X1190602Y728222D03*
X1200602D03*
X1267520Y742087D03*
X1250602Y738222D03*
Y728222D03*
X1260602Y738222D03*
Y728222D03*
X1240602Y738222D03*
Y728222D03*
X1303858Y742087D03*
X1270602Y738222D03*
Y728222D03*
X1280602Y738222D03*
Y728222D03*
Y718222D03*
X1290602D03*
X1300602D03*
X1321654Y746417D03*
X1320602Y738222D03*
Y728222D03*
Y718222D03*
X1330602Y748222D03*
Y738222D03*
Y728222D03*
Y718222D03*
X1340602Y748222D03*
Y738222D03*
Y728222D03*
Y718222D03*
X1310602Y728222D03*
Y718222D03*
X1350602Y748222D03*
Y728222D03*
X1360602Y748222D03*
Y738222D03*
Y728222D03*
Y718222D03*
X1370602Y748222D03*
Y738222D03*
Y728222D03*
Y718222D03*
X790602Y758222D03*
X810602D03*
X820602D03*
Y778222D03*
Y768222D03*
X830602Y778222D03*
Y768222D03*
Y758222D03*
X840602Y778222D03*
Y768222D03*
Y758222D03*
X850602Y778222D03*
Y768222D03*
Y758222D03*
X860602Y778222D03*
Y768222D03*
Y758222D03*
X899055Y772677D03*
X906850D03*
X870602Y778222D03*
Y768222D03*
Y758222D03*
X880602Y778222D03*
Y768222D03*
Y758222D03*
X890602Y778222D03*
Y768222D03*
Y758222D03*
X900602Y778222D03*
Y768222D03*
Y758222D03*
X914685Y772756D03*
X920602Y778222D03*
Y768222D03*
Y758222D03*
X930602Y778222D03*
Y768222D03*
Y758222D03*
X940602Y778222D03*
Y768222D03*
Y758222D03*
X910602Y778222D03*
Y768222D03*
Y758222D03*
X970602Y768222D03*
Y758222D03*
X980602Y768222D03*
Y758222D03*
X960602Y778222D03*
Y768222D03*
Y758222D03*
X990602D03*
Y768222D03*
X1010602Y778222D03*
Y768222D03*
X1017441Y778386D03*
X1020602Y768222D03*
X1060602Y778222D03*
Y768222D03*
X1035748Y770039D03*
X1030602Y768222D03*
X1040602D03*
X1050602Y778222D03*
Y768222D03*
X1070602D03*
X1080602Y778222D03*
Y768222D03*
X1090602Y778222D03*
Y768222D03*
X1100602Y778222D03*
Y768222D03*
X1130602D03*
X1140602Y778222D03*
Y768222D03*
X1110602Y778222D03*
Y768222D03*
X1120602Y778222D03*
Y768222D03*
X1150602Y778222D03*
Y768222D03*
X1160602D03*
X1170602Y778222D03*
Y768222D03*
X1180602Y778222D03*
Y768222D03*
X1190602Y778222D03*
Y768222D03*
X1200602D03*
Y778222D03*
X1210602D03*
Y768222D03*
X1220602Y778222D03*
Y768222D03*
X1290602Y778222D03*
Y768222D03*
X1300602Y778222D03*
Y768222D03*
X1320602D03*
Y758222D03*
X1330602Y768222D03*
Y758222D03*
X1340602Y778222D03*
Y768222D03*
Y758222D03*
X1350602D03*
X1370602D03*
G54D45*
X1055118Y411535D03*
X964370Y449921D03*
X1055118Y459094D03*
X1125669Y443346D03*
X964567Y497244D03*
X1125669Y487402D03*
X1333307Y506772D03*
X1332480Y513701D03*
X964370Y541181D03*
X1055118Y525512D03*
X1125669Y534685D03*
X1334764Y518346D03*
X1352638Y536693D03*
X1055118Y570630D03*
X1125669Y570591D03*
X1187520D03*
X1267795Y609724D03*
X1300472Y610276D03*
X1283858Y610000D03*
X1346299Y606181D03*
X1339291Y609882D03*
X1327795Y610000D03*
X1317480Y610157D03*
X1221299Y646181D03*
X1045906Y700551D03*
X1211339Y699134D03*
X1045906Y735591D03*
Y718780D03*
X998386Y761102D03*
X1178543D03*
G54D46*
X955472Y609764D02*
Y644409D01*
Y693189*
Y727323*
X960787Y732638*
G54D51*
X1353031Y559606D03*
X955472Y609764D03*
X955315Y641339D03*
X955394Y693189D03*
X960787Y732638D03*
G54D52*
X1356638Y536693D02*
G03X1356638I-4000J0D01*
G01X1357282Y559606D02*
G03X1357282I-4251J0D01*
G01X1333811Y415906D02*
G03X1333811I-5543J0D01*
G01X1331795Y610000D02*
G03X1331795I-4000J0D01*
G01X1313811Y415906D02*
G03X1313811I-5543J0D01*
G01X1321480Y610157D02*
G03X1321480I-4000J0D01*
G01X1304472Y610276D02*
G03X1304472I-4000J0D01*
G01X1284953Y443504D02*
G03X1284953I-9874J0D01*
G01Y538780D02*
G03X1284953I-9874J0D01*
G01X1287858Y610000D02*
G03X1287858I-4000J0D01*
G01X1271795Y609724D02*
G03X1271795I-4000J0D01*
G01X1230346Y574803D02*
G03X1230346I-13811J0D01*
G01X1164205Y776870D02*
G03X1164205I-4953J0D01*
G01X1132079D02*
G03X1132079I-4953J0D01*
G01X848457Y574803D02*
G03X848457I-13811J0D01*
G01X815465Y445827D02*
G03X815465I-9874J0D01*
G01Y541102D02*
G03X815465I-9874J0D01*
G01X812591Y637205D02*
G03X812591I-9874J0D01*
G01Y732480D02*
G03X812591I-9874J0D01*
G01X995214Y735392D02*
G03X995214I-2970J0D01*
G01X1088521Y440592D02*
G03X1088521I-2970J0D01*
G01X1089506Y539017D02*
G03X1089506I-3955J0D01*
G01X999072Y445589D02*
G03X999072I-3954J0D01*
G01X998088Y544014D02*
G03X998088I-2970J0D01*
G01X996198Y636967D02*
G03X996198I-3954J0D01*
G01X1376253Y414059D02*
Y767043D01*
G03X1375279Y767204I-500J-0*
G01X1356381Y784177D02*
G03X1375279Y767204I5824J-12523D01*
G01X1356381Y784177D02*
G03X1356170Y785130I-211J453D01*
G01X1290043*
G03X1289543Y784630I0J-500*
G01Y761232*
X1289043Y760732D02*
G03X1289543Y761232I0J500D01*
G01X1289043Y760732D02*
X1223713D01*
X1223213Y761232D02*
G03X1223713Y760732I500J0D01*
G01X1223213Y761232D02*
Y784630D01*
G03X1222713Y785130I-500J-0*
G01X809184*
G03X808974Y784177I0J-500*
G01X790075Y767204D02*
G03X808974Y784177I13075J4450D01*
G01X790075Y767204D02*
G03X789102Y767043I-473J-161D01*
G01Y414059*
G03X790075Y413898I500J0*
G01X807599Y396374D02*
G03X790075Y413898I-4449J13075D01*
G01X807599Y396374D02*
G03X807760Y395401I161J-473D01*
G01X830035*
G03X830196Y396374I0J500*
G01X839095D02*
G03X830196I-4449J13075D01*
G01X839095D02*
G03X839256Y395401I161J-473D01*
G01X1211925*
G03X1212086Y396374I-0J500*
G01X1220985D02*
G03X1212086I-4450J13075D01*
G01X1220985D02*
G03X1221146Y395401I161J-473D01*
G01X1357594*
G03X1357755Y396374I0J500*
G01X1375279Y413898D02*
G03X1357755Y396374I-13074J-4449D01*
G01X1375279Y413898D02*
G03X1376253Y414059I474J161D01*
G01X971140Y763445D02*
Y767624D01*
G03X971031Y767936I-500J-0*
G01X970795Y768285D02*
G03X971031Y767936I2267J1274D01*
G01X970795Y768285D02*
G03X970713Y768394I-435J-245D01*
G01X969097Y770009*
G03X968744Y770156I-353J-353*
G01X916310*
G03X916078Y770099I-0J-500*
G01X911745Y772157D02*
G03X916078Y770099I2940J599D01*
G01X911745Y772157D02*
G03X911255Y772557I-490J-100D01*
G01X910615*
G03X910261Y772411I-0J-500*
G01X909838Y771988*
G03X909714Y771783I353J-354*
G01X907704Y769801D02*
G03X909714Y771783I-854J2876D01*
G01X907704Y769801D02*
G03X907493Y768968I142J-479D01*
G01X908647Y767814*
G03X909001Y767667I354J353*
G01X964933*
X966771Y766906D02*
G03X964933Y767667I-1838J-1839D01*
G01X966771Y766906D02*
X969640Y764037D01*
X970182Y763244D02*
G03X969640Y764037I-2380J-1046D01*
G01X970182Y763244D02*
G03X971140Y763445I458J201D01*
G01X1356638Y536693D02*
G03X1356638I-4000J0D01*
G01X1357282Y559606D02*
G03X1357282I-4251J0D01*
G01X1342508Y527058D02*
G03X1338750Y530815I-894J2863D01*
G01X1342508Y527058D02*
G03X1342304Y526934I149J-478D01*
G01X1340660Y525290*
G03X1340513Y524936I353J-354*
G01Y498869*
G03X1340571Y498637I500J-0*
G01X1335256D02*
G03X1340571I2657J-1393D01*
G01X1335256D02*
G03X1335313Y498869I-443J232D01*
G01Y526220*
X1336075Y528059D02*
G03X1335313Y526220I1838J-1839D01*
G01X1336075Y528059D02*
X1338627Y530611D01*
G03X1338750Y530815I-354J353*
G01X1342299Y606150D02*
G03X1344070Y609502I4000J31D01*
G01X1342299Y606150D02*
G03X1341521Y606561I-500J-4D01*
G01X1343291Y609913D02*
G03X1341521Y606561I-4000J-31D01*
G01X1343291Y609913D02*
G03X1344070Y609502I500J4D01*
G01X1333811Y415906D02*
G03X1333811I-5543J0D01*
G01X1326948Y546284D02*
G03X1321634I-2657J1393D01*
G01X1326949D02*
G03X1326891Y546052I442J-232D01*
G01Y509094*
X1326130Y507256D02*
G03X1326891Y509094I-1839J1838D01*
G01X1326130Y507256D02*
X1325502Y506629D01*
G03X1325356Y506275I354J-354*
G01Y498475*
G03X1325413Y498243I500J0*
G01X1320099D02*
G03X1325413I2657J-1393D01*
G01X1320099D02*
G03X1320156Y498475I-443J232D01*
G01Y507559*
X1320917Y509398D02*
G03X1320156Y507559I1839J-1839D01*
G01X1320917Y509398D02*
X1321545Y510025D01*
G03X1321691Y510379I-354J354*
G01Y546052*
G03X1321634Y546284I-500J0*
G01X1331795Y610000D02*
G03X1331795I-4000J0D01*
G01X1313811Y415906D02*
G03X1313811I-5543J0D01*
G01X1314788Y509429D02*
G03Y514744I1393J2658D01*
G01Y509429D02*
G03X1314556Y509487I-232J-442D01*
G01X1302530*
G03X1302298Y509429I0J-500*
G01Y514744D02*
G03Y509429I-1392J-2657D01*
G01Y514744D02*
G03X1302530Y514687I232J443D01*
G01X1314556*
G03X1314788Y514744I0J500*
G01X1321480Y610157D02*
G03X1321480I-4000J0D01*
G01X1304472Y610276D02*
G03X1304472I-4000J0D01*
G01X1284953Y443504D02*
G03X1284953I-9874J0D01*
G01Y538780D02*
G03X1284953I-9874J0D01*
G01X1287858Y610000D02*
G03X1287858I-4000J0D01*
G01X1271795Y609724D02*
G03X1271795I-4000J0D01*
G01X1230346Y574803D02*
G03X1230346I-13811J0D01*
G01X1325577Y774953D02*
G03Y778905I4541J1976D01*
G01Y774953D02*
G03X1324660I-459J-199D01*
G01X1315577D02*
G03X1324660I4541J1976D01*
G01X1315577D02*
G03X1314660I-459J-199D01*
G01X1312934Y772855D02*
G03X1314660Y774953I-2816J4074D01*
G01X1312934Y772855D02*
G03X1312718Y772443I284J-412D01*
G01Y759094*
X1311957Y757256D02*
G03X1312718Y759094I-1839J1838D01*
G01X1311957Y757256D02*
X1307153Y752453D01*
X1305315Y751691D02*
G03X1307153Y752453I-0J2600D01*
G01X1305315Y751691D02*
X1181520D01*
G03X1181167Y751545I0J-500*
G01X1174479Y744857*
G03X1174332Y744503I353J-354*
G01Y742642*
G03X1175186Y742288I500J-0*
G01X1181154Y748256*
X1182992Y749017D02*
G03X1181154Y748256I0J-2600D01*
G01X1182992Y749017D02*
X1320029D01*
G03X1320261Y749074I-0J500*
G01Y743760D02*
G03Y749074I1393J2657D01*
G01Y743760D02*
G03X1320029Y743817I-232J-443D01*
G01X1307135*
G03X1306667Y743141I-0J-500*
G01X1302466Y739429D02*
G03X1306667Y743141I1392J2658D01*
G01X1302466Y739429D02*
G03X1302233Y739487I-233J-442D01*
G01X1269144*
X1269144D02*
G03X1268912Y739429I0J-500D01*
G01X1264711Y743141D02*
G03X1268912Y739429I2809J-1054D01*
G01X1264711Y743141D02*
G03X1264243Y743817I-468J176D01*
G01X1184276*
G03X1183923Y743671I0J-500*
G01X1177746Y737495*
G03X1177600Y737141I354J-354*
G01Y709846*
G03X1178454Y709493I500J0*
G01X1185799Y716838*
X1187638Y717600D02*
G03X1185799Y716838I-0J-2600D01*
G01X1187638Y717600D02*
X1272785D01*
G03X1273017Y717657I-0J500*
G01Y712343D02*
G03Y717657I1392J2657D01*
G01Y712343D02*
G03X1272785Y712400I-232J-443D01*
G01X1188922*
G03X1188568Y712254I-0J-500*
G01X1182471Y706156*
G03X1182324Y705803I353J-353*
G01Y624774*
G03X1182382Y624542I500J0*
G01Y621757D02*
G03Y624542I-2658J1393D01*
G01Y621757D02*
G03X1182324Y621525I442J-232D01*
G01Y607467*
G03X1183294Y607295I500J-0*
G01X1184338Y608930D02*
G03X1183294Y607295I3182J-3182D01*
G01X1184338Y608930D02*
X1216653Y641245D01*
G03X1216799Y641599I-354J354*
G01Y644110*
G03X1216653Y644464I-500J0*
G01X1208157Y652960*
X1206839Y656142D02*
G03X1208157Y652960I4500J-0D01*
G01X1206839Y656142D02*
Y699134D01*
X1215839D02*
G03X1206839I-4500J-0D01*
G01X1215839D02*
Y658213D01*
G03X1215985Y657859I500J-0*
G01X1224481Y649363*
X1225799Y646181D02*
G03X1224481Y649363I-4500J0D01*
G01X1225799Y646181D02*
Y639528D01*
X1224481Y636346D02*
G03X1225799Y639528I-3182J3182D01*
G01X1224481Y636346D02*
X1192166Y604031D01*
G03X1192020Y603677I354J-354*
G01Y570591*
X1183020D02*
G03X1192020I4500J-0D01*
G01X1183020D02*
Y596909D01*
G03X1182120Y597210I-500J0*
G01X1178332Y596358D02*
G03X1182120Y597210I1392J2658D01*
G01X1178332Y596358D02*
G03X1177600Y595916I-232J-442D01*
G01Y592491*
G03X1177657Y592259I500J-0*
G01X1172133Y591749D02*
G03X1177657Y592259I2867J-883D01*
G01X1172133Y591749D02*
G03X1171671Y592395I-478J147D01*
G01X1169081Y596720D02*
G03X1171672Y592395I2691J-1326D01*
G01X1169081Y596720D02*
G03X1169132Y596941I-449J221D01*
G01Y631013*
G03X1169075Y631245I-500J-0*
G01Y634030D02*
G03Y631245I2657J-1392D01*
G01Y634030D02*
G03X1169132Y634263I-443J233D01*
G01Y745787*
X1169894Y747626D02*
G03X1169132Y745787I1838J-1839D01*
G01X1169894Y747626D02*
X1178017Y755749D01*
G03X1177663Y756602I-354J353*
G01X1084478*
G03X1083978Y756102I-0J-500*
G01Y735641*
G03X1084035Y735408I500J-0*
G01Y732623D02*
G03Y735408I-2657J1393D01*
G01Y732623D02*
G03X1083978Y732391I443J-232D01*
G01Y719105*
G03X1084035Y718873I500J0*
G01X1078721D02*
G03X1084035I2657J-1393D01*
G01X1078721D02*
G03X1078778Y719105I-443J232D01*
G01Y732391*
G03X1078721Y732623I-500J-0*
G01Y735408D02*
G03Y732623I2657J-1392D01*
G01Y735408D02*
G03X1078778Y735641I-443J233D01*
G01Y756102*
G03X1078278Y756602I-500J0*
G01X998386*
Y765602D02*
G03Y756602I-0J-4500D01*
G01Y765602D02*
X1081260D01*
X1178543*
X1181559Y757762D02*
G03X1178543Y765602I-3016J3340D01*
G01X1181559Y757762D02*
G03X1181894Y756891I335J-371D01*
G01X1304031*
G03X1304384Y757038I-0J500*
G01X1307372Y760025*
G03X1307518Y760379I-354J354*
G01Y772443*
G03X1307302Y772855I-500J0*
G01X1314660Y778905D02*
G03X1307302Y772855I-4542J-1976D01*
G01X1314660Y778905D02*
G03X1315577I458J200D01*
G01X1324660D02*
G03X1315577I-4542J-1976D01*
G01X1324660D02*
G03X1325577I458J200D01*
G01X1164205Y776870D02*
G03X1164205I-4953J0D01*
G01X1132079D02*
G03X1132079I-4953J0D01*
G01X978820Y771811D02*
Y709764D01*
X978059Y707925D02*
G03X978820Y709764I-1839J1839D01*
G01X978059Y707925D02*
X975736Y705602D01*
X973898Y704841D02*
G03X975736Y705602I-0J2600D01*
G01X973898Y704841D02*
X968396D01*
G03X968164Y704784I0J-500*
G01X963938Y708427D02*
G03X968164Y704784I2834J-986D01*
G01X963938Y708427D02*
G03X963876Y708877I-472J164D01*
G01X967731Y713248D02*
G03X963876Y708877I-1392J-2657D01*
G01X967731Y713248D02*
G03X967963Y713191I232J443D01*
G01X970251*
G03X970605Y713337I0J500*
G01X970994Y713726*
G03X971140Y714079I-354J353*
G01Y725980*
G03X970287Y726334I-500J0*
G01X969872Y725920*
G03X969726Y725566I354J-354*
G01Y725286*
G03X969783Y725054I500J0*
G01X964469D02*
G03X969783I2657J-1393D01*
G01X964469D02*
G03X964526Y725286I-443J232D01*
G01Y726684*
G03X963672Y727037I-500J-0*
G01X961619Y724984*
G03X961472Y724630I353J-354*
G01Y693189*
Y644409*
Y609764*
X949472D02*
G03X961472I6000J-0D01*
G01X949472D02*
Y644409D01*
Y693189*
Y727323*
X951230Y731565D02*
G03X949472Y727323I4242J-4242D01*
G01X951230Y731565D02*
X956545Y736880D01*
X964400Y737428D02*
G03X956545Y736880I-3613J-4790D01*
G01X964400Y737428D02*
G03X965202Y737827I302J399D01*
G01Y760914*
G03X965055Y761268I-500J0*
G01X964002Y762321*
G03X963649Y762467I-353J-354*
G01X907717*
X905878Y763229D02*
G03X907717Y762467I1839J1838D01*
G01X905878Y763229D02*
X899572Y769535D01*
G03X899195Y769680I-353J-354*
G01X900582Y775260D02*
G03X899195Y769680I-1527J-2583D01*
G01X900582Y775260D02*
G03X900719Y775204I254J430D01*
G01X901945Y774516D02*
G03X900719Y775204I-1838J-1839D01*
G01X901945Y774516D02*
X903141Y773319D01*
G03X903974Y773531I354J354*
G01X905956Y775541D02*
G03X903974Y773531I894J-2864D01*
G01X905956Y775541D02*
G03X906161Y775665I-149J477D01*
G01X907492Y776996*
X909331Y777757D02*
G03X907492Y776996I-0J-2600D01*
G01X909331Y777758D02*
X918661D01*
X918661D02*
X972874D01*
X974713Y776996D02*
G03X972874Y777758I-1839J-1839D01*
G01X974713Y776996D02*
X978059Y773650D01*
X978820Y771811D02*
G03X978059Y773650I-2600J0D01*
G01X848457Y574803D02*
G03X848457I-13811J0D01*
G01X815465Y445827D02*
G03X815465I-9874J0D01*
G01Y541102D02*
G03X815465I-9874J0D01*
G01X812591Y637205D02*
G03X812591I-9874J0D01*
G01Y732480D02*
G03X812591I-9874J0D01*
G01X1049017Y733076D02*
G03X1042794I-3111J2515D01*
G01X1049017D02*
G03X1048906Y732762I389J-314D01*
G01Y721608*
G03X1049017Y721294I500J-0*
G01Y716265D02*
G03Y721294I-3111J2515D01*
G01Y716265D02*
G03X1048906Y715951I389J-314D01*
G01Y703380*
G03X1049017Y703065I500J-0*
G01X1042794D02*
G03X1049017I3112J-2514D01*
G01X1042794D02*
G03X1042905Y703380I-389J315D01*
G01Y715951*
G03X1042794Y716265I-500J0*
G01Y721294D02*
G03Y716265I3112J-2514D01*
G01Y721294D02*
G03X1042905Y721608I-389J314D01*
G01Y732762*
G03X1042794Y733076I-500J0*
G01X995214Y735392D02*
G03X995214I-2970J0D01*
G01X1130169Y570591D02*
Y534685D01*
Y487402*
Y487323*
Y443346*
X1121169D02*
G03X1130169I4500J0D01*
G01X1121169D02*
Y487323D01*
Y487402*
Y534685*
Y570591*
X1130169D02*
G03X1121169I-4500J-0D01*
G01X1088521Y440592D02*
G03X1088521I-2970J0D01*
G01X1089506Y539017D02*
G03X1089506I-3955J0D01*
G01X1059618Y570630D02*
Y525512D01*
Y459094*
Y411535*
X1050618D02*
G03X1059618I4500J0D01*
G01X1050618D02*
Y459094D01*
Y525512*
Y570630*
X1059618D02*
G03X1050618I-4500J-0D01*
G01X1043090Y623135D02*
G03X1037776I-2657J1393D01*
G01X1043090D02*
G03X1043033Y622903I443J-232D01*
G01Y476743*
G03X1043090Y476511I500J-0*
G01X1037776D02*
G03X1043090I2657J-1393D01*
G01X1037776D02*
G03X1037833Y476743I-443J232D01*
G01Y622903*
G03X1037776Y623135I-500J-0*
G01X1032775Y597623D02*
G03X1027130Y598752I-2657J1393D01*
G01X1032775Y597623D02*
G03X1032718Y597391I443J-232D01*
G01Y486389*
G03X1032775Y486156I500J-0*
G01X1027138Y484423D02*
G03X1032775Y486156I2980J341D01*
G01X1027138Y484423D02*
G03X1026496Y484844I-497J-57D01*
G01X1022642Y487451D02*
G03X1026496Y484844I2988J266D01*
G01X1022642Y487451D02*
G03X1022068Y487901I-498J-45D01*
G01X1018957Y492259D02*
G03X1022068Y487901I2657J-1393D01*
G01X1018957Y492259D02*
G03X1019014Y492491I-443J232D01*
G01Y575197*
Y589241*
G03X1018957Y589473I-500J0*
G01X1022196Y593809D02*
G03X1018957Y589473I-582J-2943D01*
G01X1022196Y593809D02*
G03X1022769Y594450I97J491D01*
G01X1026489Y598229D02*
G03X1022769Y594450I-859J-2875D01*
G01X1026489Y598229D02*
G03X1027130Y598752I143J479D01*
G01X999072Y445589D02*
G03X999072I-3954J0D01*
G01X998088Y544014D02*
G03X998088I-2970J0D01*
G01X996198Y636967D02*
G03X996198I-3954J0D01*
G01X968870Y541181D02*
Y449921D01*
X960925Y447027D02*
G03X968870Y449921I3445J2894D01*
G01X960925Y447027D02*
G03X960527Y447205I-383J-322D01*
G01X960511Y447204*
X960433Y447203D02*
G03X960511Y447204I0J2600D01*
G01X960433Y447203D02*
X921861D01*
G03X921629Y447146I0J-500*
G01Y452460D02*
G03Y447146I-1393J-2657D01*
G01Y452460D02*
G03X921861Y452403I232J443D01*
G01X959370*
G03X959870Y452903I0J500*
G01Y541181*
X968870D02*
G03X959870I-4500J0D01*
G01X1160041Y651235D02*
G03X1160170Y656549I1455J2623D01*
G01X1160041Y651235D02*
G03X1159798Y651298I-243J-437D01*
G01X1154169*
G03X1153669Y650791I-0J-500*
G01X1149277Y648091D02*
G03X1153669Y650791I1392J2657D01*
G01X1149277Y648091D02*
G03X1149044Y648148I-233J-443D01*
G01X970641*
G03X970408Y648091I-0J-500*
G01X966022Y650556D02*
G03X970408Y648091I2994J192D01*
G01X966022Y650556D02*
G03X965656Y651006I-499J-32D01*
G01X965067Y656557D02*
G03X965656Y651006I1390J-2659D01*
G01X965067Y656557D02*
G03X965039Y657456I-231J443D01*
G01X967653Y662854D02*
G03X965039Y657456I-1393J-2657D01*
G01X967653Y662854D02*
G03X967885Y662797I232J443D01*
G01X1143538*
G03X1143781Y662860I0J500*
G01X1147236Y662473D02*
G03X1143781Y662860I-2000J-2237D01*
G01X1147236Y662473D02*
G03X1148069Y662845I333J372D01*
G01Y692377*
G03X1147923Y692731I-500J0*
G01X1144625Y696028*
G03X1144421Y696152I-353J-353*
G01X1144391Y696161D02*
G03X1144421Y696152I924J2855D01*
G01X1144391Y696161D02*
G03X1144014Y696133I-154J-475D01*
G01X1140818Y696465D02*
G03X1144014Y696133I1859J2354D01*
G01X1140818Y696465D02*
G03X1140008Y696077I-310J-393D01*
G01X1134351Y697495D02*
G03X1140008Y696077I2657J-1393D01*
G01X1134351Y697495D02*
G03X1134408Y697727I-443J232D01*
G01Y721850*
X1135169Y723689D02*
G03X1134408Y721850I1839J-1839D01*
G01X1135169Y723689D02*
X1137689Y726209D01*
X1139528Y726970D02*
G03X1137689Y726209I-0J-2600D01*
G01X1139528Y726970D02*
X1149252D01*
X1151090Y726209D02*
G03X1149252Y726970I-1838J-1839D01*
G01X1151090Y726209D02*
X1153293Y724006D01*
G03X1153646Y723860I353J354*
G01X1155422*
G03X1155655Y723917I0J500*
G01Y718603D02*
G03Y723917I1392J2657D01*
G01Y718603D02*
G03X1155422Y718660I-233J-443D01*
G01X1152362*
X1150524Y719421D02*
G03X1152362Y718660I1838J1839D01*
G01X1150524Y719421D02*
X1148321Y721624D01*
G03X1147968Y721770I-353J-354*
G01X1147130*
G03X1146776Y720917I-0J-500*
G01X1147153Y720539*
X1147915Y718701D02*
G03X1147153Y720539I-2600J-0D01*
G01X1147915Y718701D02*
Y700641D01*
G03X1147972Y700408I500J-0*
G01X1148179Y699910D02*
G03X1147972Y700408I-2864J-894D01*
G01X1148179Y699910D02*
G03X1148302Y699705I477J149D01*
G01X1152508Y695500*
X1153269Y693661D02*
G03X1152508Y695500I-2600J0D01*
G01X1153269Y693661D02*
Y660129D01*
G03X1153326Y659897I500J-0*
G01X1153377Y657213D02*
G03X1153326Y659897I-2708J1291D01*
G01X1153377Y657213D02*
G03X1153829Y656498I452J-215D01*
G01X1159949*
G03X1160170Y656549I-0J500*
G01X1374893Y766199D02*
X1376253D01*
X1374467Y765299D02*
X1376253D01*
X1373957Y764399D02*
X1376253D01*
X1373352Y763499D02*
X1376253D01*
X1372634Y762599D02*
X1376253D01*
X1371779Y761699D02*
X1376253D01*
X1370745Y760799D02*
X1376253D01*
X1369456Y759899D02*
X1376253D01*
X1367738Y758999D02*
X1376253D01*
X1364857Y758099D02*
X1376253D01*
X1311900Y757199D02*
X1376253D01*
X1311000Y756299D02*
X1376253D01*
X1310100Y755399D02*
X1376253D01*
X1309200Y754499D02*
X1376253D01*
X1308300Y753599D02*
X1376253D01*
X1307400Y752699D02*
X1376253D01*
X1306057Y751799D02*
X1376253D01*
X1180521Y750899D02*
X1376253D01*
X1179621Y749999D02*
X1376253D01*
X1322997Y749099D02*
X1376253D01*
X1324067Y748199D02*
X1376253D01*
X1324521Y747299D02*
X1376253D01*
X1324654Y746399D02*
X1376253D01*
X1324510Y745499D02*
X1376253D01*
X1324040Y744599D02*
X1376253D01*
X1322924Y743699D02*
X1376253D01*
X1306772Y742799D02*
X1376253D01*
X1306852Y741899D02*
X1376253D01*
X1306654Y740999D02*
X1376253D01*
X1306106Y740099D02*
X1376253D01*
X1304674Y739199D02*
X1376253D01*
X1178551Y738299D02*
X1376253D01*
X1177672Y737399D02*
X1376253D01*
X1177600Y736499D02*
X1376253D01*
X1177600Y735599D02*
X1376253D01*
X1177600Y734699D02*
X1376253D01*
X1177600Y733799D02*
X1376253D01*
X1177600Y732899D02*
X1376253D01*
X1177600Y731999D02*
X1376253D01*
X1177600Y731099D02*
X1376253D01*
X1177600Y730199D02*
X1376253D01*
X1177600Y729299D02*
X1376253D01*
X1177600Y728399D02*
X1376253D01*
X1177600Y727499D02*
X1376253D01*
X1177600Y726599D02*
X1376253D01*
X1177600Y725699D02*
X1376253D01*
X1177600Y724799D02*
X1376253D01*
X1177600Y723899D02*
X1376253D01*
X1177600Y722999D02*
X1376253D01*
X1177600Y722099D02*
X1376253D01*
X1177600Y721199D02*
X1376253D01*
X1177600Y720299D02*
X1376253D01*
X1177600Y719399D02*
X1376253D01*
X1177600Y718499D02*
X1376253D01*
X1275907Y717599D02*
X1376253D01*
X1276882Y716699D02*
X1376253D01*
X1277301Y715799D02*
X1376253D01*
X1277408Y714899D02*
X1376253D01*
X1277238Y713999D02*
X1376253D01*
X1276731Y713099D02*
X1376253D01*
X1275485Y712199D02*
X1376253D01*
X1187614Y711299D02*
X1376253D01*
X1186714Y710399D02*
X1376253D01*
X1185814Y709499D02*
X1376253D01*
X1184914Y708599D02*
X1376253D01*
X1184014Y707699D02*
X1376253D01*
X1183114Y706799D02*
X1376253D01*
X1182334Y705899D02*
X1376253D01*
X1182324Y704999D02*
X1376253D01*
X1182324Y704099D02*
X1376253D01*
X1213268Y703199D02*
X1376253D01*
X1214537Y702299D02*
X1376253D01*
X1215227Y701399D02*
X1376253D01*
X1215626Y700499D02*
X1376253D01*
X1215814Y699599D02*
X1376253D01*
X1215839Y698699D02*
X1376253D01*
X1215839Y697799D02*
X1376253D01*
X1215839Y696899D02*
X1376253D01*
X1215839Y695999D02*
X1376253D01*
X1215839Y695099D02*
X1376253D01*
X1215839Y694199D02*
X1376253D01*
X1215839Y693299D02*
X1376253D01*
X1215839Y692399D02*
X1376253D01*
X1215839Y691499D02*
X1376253D01*
X1215839Y690599D02*
X1376253D01*
X1215839Y689699D02*
X1376253D01*
X1215839Y688799D02*
X1376253D01*
X1215839Y687899D02*
X1376253D01*
X1215839Y686999D02*
X1376253D01*
X1215839Y686099D02*
X1376253D01*
X1215839Y685199D02*
X1376253D01*
X1215839Y684299D02*
X1376253D01*
X1215839Y683399D02*
X1376253D01*
X1215839Y682499D02*
X1376253D01*
X1215839Y681599D02*
X1376253D01*
X1215839Y680699D02*
X1376253D01*
X1215839Y679799D02*
X1376253D01*
X1215839Y678899D02*
X1376253D01*
X1215839Y677999D02*
X1376253D01*
X1215839Y677099D02*
X1376253D01*
X1215839Y676199D02*
X1376253D01*
X1215839Y675299D02*
X1376253D01*
X1215839Y674399D02*
X1376253D01*
X1215839Y673499D02*
X1376253D01*
X1215839Y672599D02*
X1376253D01*
X1215839Y671699D02*
X1376253D01*
X1215839Y670799D02*
X1376253D01*
X1215839Y669899D02*
X1376253D01*
X1215839Y668999D02*
X1376253D01*
X1215839Y668099D02*
X1376253D01*
X1215839Y667199D02*
X1376253D01*
X1215839Y666299D02*
X1376253D01*
X1215839Y665399D02*
X1376253D01*
X1215839Y664499D02*
X1376253D01*
X1215839Y663599D02*
X1376253D01*
X1215839Y662699D02*
X1376253D01*
X1215839Y661799D02*
X1376253D01*
X1215839Y660899D02*
X1376253D01*
X1215839Y659999D02*
X1376253D01*
X1215839Y659099D02*
X1376253D01*
X1215839Y658199D02*
X1376253D01*
X1216545Y657299D02*
X1376253D01*
X1217445Y656399D02*
X1376253D01*
X1218345Y655499D02*
X1376253D01*
X1219245Y654599D02*
X1376253D01*
X1220145Y653699D02*
X1376253D01*
X1221045Y652799D02*
X1376253D01*
X1221945Y651899D02*
X1376253D01*
X1222845Y650999D02*
X1376253D01*
X1223745Y650099D02*
X1376253D01*
X1224637Y649199D02*
X1376253D01*
X1225269Y648299D02*
X1376253D01*
X1225631Y647399D02*
X1376253D01*
X1225788Y646499D02*
X1376253D01*
X1225799Y645599D02*
X1376253D01*
X1225799Y644699D02*
X1376253D01*
X1225799Y643799D02*
X1376253D01*
X1225799Y642899D02*
X1376253D01*
X1225799Y641999D02*
X1376253D01*
X1225799Y641099D02*
X1376253D01*
X1225799Y640199D02*
X1376253D01*
X1225793Y639299D02*
X1376253D01*
X1225656Y638399D02*
X1376253D01*
X1225316Y637499D02*
X1376253D01*
X1224716Y636599D02*
X1376253D01*
X1223835Y635699D02*
X1376253D01*
X1222935Y634799D02*
X1376253D01*
X1222035Y633899D02*
X1376253D01*
X1221135Y632999D02*
X1376253D01*
X1220235Y632099D02*
X1376253D01*
X1219335Y631199D02*
X1376253D01*
X1218435Y630299D02*
X1376253D01*
X1217535Y629399D02*
X1376253D01*
X1216635Y628499D02*
X1376253D01*
X1215735Y627599D02*
X1376253D01*
X1214835Y626699D02*
X1376253D01*
X1213935Y625799D02*
X1376253D01*
X1213035Y624899D02*
X1376253D01*
X1212135Y623999D02*
X1376253D01*
X1211235Y623099D02*
X1376253D01*
X1210335Y622199D02*
X1376253D01*
X1209435Y621299D02*
X1376253D01*
X1208535Y620399D02*
X1376253D01*
X1207635Y619499D02*
X1376253D01*
X1206735Y618599D02*
X1376253D01*
X1205835Y617699D02*
X1376253D01*
X1204935Y616799D02*
X1376253D01*
X1204035Y615899D02*
X1376253D01*
X1203135Y614999D02*
X1376253D01*
X1318159Y614099D02*
X1376253D01*
X1341526Y613199D02*
X1376253D01*
X1342478Y612299D02*
X1376253D01*
X1342992Y611399D02*
X1376253D01*
X1343243Y610499D02*
X1376253D01*
X1348376Y609599D02*
X1376253D01*
X1349407Y608699D02*
X1376253D01*
X1349957Y607799D02*
X1376253D01*
X1350234Y606899D02*
X1376253D01*
X1350295Y605999D02*
X1376253D01*
X1350150Y605099D02*
X1376253D01*
X1349774Y604199D02*
X1376253D01*
X1349073Y603299D02*
X1376253D01*
X1347603Y602399D02*
X1376253D01*
X1192020Y601499D02*
X1376253D01*
X1192020Y600599D02*
X1376253D01*
X1192020Y599699D02*
X1376253D01*
X1192020Y598799D02*
X1376253D01*
X1192020Y597899D02*
X1376253D01*
X1192020Y596999D02*
X1376253D01*
X1192020Y596099D02*
X1376253D01*
X1192020Y595199D02*
X1376253D01*
X1192020Y594299D02*
X1376253D01*
X1192020Y593399D02*
X1376253D01*
X1192020Y592499D02*
X1376253D01*
X1192020Y591599D02*
X1376253D01*
X1192020Y590699D02*
X1376253D01*
X1192020Y589799D02*
X1376253D01*
X1192020Y588899D02*
X1376253D01*
X1220610Y587999D02*
X1376253D01*
X1222824Y587099D02*
X1376253D01*
X1224337Y586199D02*
X1376253D01*
X1225512Y585299D02*
X1376253D01*
X1226468Y584399D02*
X1376253D01*
X1227265Y583499D02*
X1376253D01*
X1227936Y582599D02*
X1376253D01*
X1228501Y581699D02*
X1376253D01*
X1228977Y580799D02*
X1376253D01*
X1229372Y579899D02*
X1376253D01*
X1229694Y578999D02*
X1376253D01*
X1229947Y578099D02*
X1376253D01*
X1230137Y577199D02*
X1376253D01*
X1230265Y576299D02*
X1376253D01*
X1230334Y575399D02*
X1376253D01*
X1230343Y574499D02*
X1376253D01*
X1230294Y573599D02*
X1376253D01*
X1230185Y572699D02*
X1376253D01*
X1230016Y571799D02*
X1376253D01*
X1229783Y570899D02*
X1376253D01*
X1229484Y569999D02*
X1376253D01*
X1229114Y569099D02*
X1376253D01*
X1228665Y568199D02*
X1376253D01*
X1228130Y567299D02*
X1376253D01*
X1227496Y566399D02*
X1376253D01*
X1226743Y565499D02*
X1376253D01*
X1225843Y564599D02*
X1376253D01*
X1354175Y563699D02*
X1376253D01*
X1355836Y562799D02*
X1376253D01*
X1356610Y561899D02*
X1376253D01*
X1357047Y560999D02*
X1376253D01*
X1357253Y560099D02*
X1376253D01*
X1357262Y559199D02*
X1376253D01*
X1357076Y558299D02*
X1376253D01*
X1356664Y557399D02*
X1376253D01*
X1355932Y556499D02*
X1376253D01*
X1354449Y555599D02*
X1376253D01*
X1130169Y554699D02*
X1376253D01*
X1130169Y553799D02*
X1376253D01*
X1130169Y552899D02*
X1376253D01*
X1130169Y551999D02*
X1376253D01*
X1130169Y551099D02*
X1376253D01*
X1325916Y550199D02*
X1376253D01*
X1326815Y549299D02*
X1376253D01*
X1327203Y548399D02*
X1376253D01*
X1327286Y547499D02*
X1376253D01*
X1327091Y546599D02*
X1376253D01*
X1326891Y545699D02*
X1376253D01*
X1326891Y544799D02*
X1376253D01*
X1326891Y543899D02*
X1376253D01*
X1326891Y542999D02*
X1376253D01*
X1326891Y542099D02*
X1376253D01*
X1326891Y541199D02*
X1376253D01*
X1354368Y540299D02*
X1376253D01*
X1355583Y539399D02*
X1376253D01*
X1356207Y538499D02*
X1376253D01*
X1356534Y537599D02*
X1376253D01*
X1356638Y536699D02*
X1376253D01*
X1356537Y535799D02*
X1376253D01*
X1356213Y534899D02*
X1376253D01*
X1355595Y533999D02*
X1376253D01*
X1354395Y533099D02*
X1376253D01*
X1343566Y532199D02*
X1376253D01*
X1344279Y531299D02*
X1376253D01*
X1344576Y530399D02*
X1376253D01*
X1344584Y529499D02*
X1376253D01*
X1344307Y528599D02*
X1376253D01*
X1343630Y527699D02*
X1376253D01*
X1342169Y526799D02*
X1376253D01*
X1341269Y525899D02*
X1376253D01*
X1340517Y524999D02*
X1376253D01*
X1340513Y524099D02*
X1376253D01*
X1340513Y523199D02*
X1376253D01*
X1340513Y522299D02*
X1376253D01*
X1340513Y521399D02*
X1376253D01*
X1340513Y520499D02*
X1376253D01*
X1340513Y519599D02*
X1376253D01*
X1340513Y518699D02*
X1376253D01*
X1340513Y517799D02*
X1376253D01*
X1340513Y516899D02*
X1376253D01*
X1340513Y515999D02*
X1376253D01*
X1340513Y515099D02*
X1376253D01*
X1340513Y514199D02*
X1376253D01*
X1340513Y513299D02*
X1376253D01*
X1340513Y512399D02*
X1376253D01*
X1340513Y511499D02*
X1376253D01*
X1340513Y510599D02*
X1376253D01*
X1340513Y509699D02*
X1376253D01*
X1340513Y508799D02*
X1376253D01*
X1340513Y507899D02*
X1376253D01*
X1340513Y506999D02*
X1376253D01*
X1340513Y506099D02*
X1376253D01*
X1340513Y505199D02*
X1376253D01*
X1340513Y504299D02*
X1376253D01*
X1340513Y503399D02*
X1376253D01*
X1340513Y502499D02*
X1376253D01*
X1340513Y501599D02*
X1376253D01*
X1340513Y500699D02*
X1376253D01*
X1340513Y499799D02*
X1376253D01*
X1340513Y498899D02*
X1376253D01*
X1340817Y497999D02*
X1376253D01*
X1340910Y497099D02*
X1376253D01*
X1340726Y496199D02*
X1376253D01*
X1340198Y495299D02*
X1376253D01*
X1338866Y494399D02*
X1376253D01*
X1130169Y493499D02*
X1376253D01*
X1130169Y492599D02*
X1376253D01*
X1130169Y491699D02*
X1376253D01*
X1130169Y490799D02*
X1376253D01*
X1130169Y489899D02*
X1376253D01*
X1130169Y488999D02*
X1376253D01*
X1130169Y488099D02*
X1376253D01*
X1130169Y487199D02*
X1376253D01*
X1130169Y486299D02*
X1376253D01*
X1130169Y485399D02*
X1376253D01*
X1130169Y484499D02*
X1376253D01*
X1130169Y483599D02*
X1376253D01*
X1130169Y482699D02*
X1376253D01*
X1130169Y481799D02*
X1376253D01*
X1130169Y480899D02*
X1376253D01*
X1130169Y479999D02*
X1376253D01*
X1130169Y479099D02*
X1376253D01*
X1130169Y478199D02*
X1376253D01*
X1130169Y477299D02*
X1376253D01*
X1130169Y476399D02*
X1376253D01*
X1130169Y475499D02*
X1376253D01*
X1130169Y474599D02*
X1376253D01*
X1130169Y473699D02*
X1376253D01*
X1130169Y472799D02*
X1376253D01*
X1130169Y471899D02*
X1376253D01*
X1130169Y470999D02*
X1376253D01*
X1130169Y470099D02*
X1376253D01*
X1130169Y469199D02*
X1376253D01*
X1130169Y468299D02*
X1376253D01*
X1130169Y467399D02*
X1376253D01*
X1130169Y466499D02*
X1376253D01*
X1130169Y465599D02*
X1376253D01*
X1130169Y464699D02*
X1376253D01*
X1130169Y463799D02*
X1376253D01*
X1130169Y462899D02*
X1376253D01*
X1130169Y461999D02*
X1376253D01*
X1130169Y461099D02*
X1376253D01*
X1130169Y460199D02*
X1376253D01*
X1130169Y459299D02*
X1376253D01*
X1130169Y458399D02*
X1376253D01*
X1130169Y457499D02*
X1376253D01*
X1130169Y456599D02*
X1376253D01*
X1130169Y455699D02*
X1376253D01*
X1130169Y454799D02*
X1376253D01*
X1130169Y453899D02*
X1376253D01*
X1277786Y452999D02*
X1376253D01*
X1279938Y452099D02*
X1376253D01*
X1281265Y451199D02*
X1376253D01*
X1282242Y450299D02*
X1376253D01*
X1283000Y449399D02*
X1376253D01*
X1283596Y448499D02*
X1376253D01*
X1284063Y447599D02*
X1376253D01*
X1284421Y446699D02*
X1376253D01*
X1284682Y445799D02*
X1376253D01*
X1284854Y444899D02*
X1376253D01*
X1284940Y443999D02*
X1376253D01*
X1284944Y443099D02*
X1376253D01*
X1284866Y442199D02*
X1376253D01*
X1284704Y441299D02*
X1376253D01*
X1284452Y440399D02*
X1376253D01*
X1284104Y439499D02*
X1376253D01*
X1283649Y438599D02*
X1376253D01*
X1283067Y437699D02*
X1376253D01*
X1282328Y436799D02*
X1376253D01*
X1281377Y435899D02*
X1376253D01*
X1280096Y434999D02*
X1376253D01*
X1278088Y434099D02*
X1376253D01*
X1059618Y433199D02*
X1376253D01*
X1059618Y432299D02*
X1376253D01*
X1059618Y431399D02*
X1376253D01*
X1059618Y430499D02*
X1376253D01*
X1059618Y429599D02*
X1376253D01*
X1059618Y428699D02*
X1376253D01*
X1059618Y427799D02*
X1376253D01*
X1059618Y426899D02*
X1376253D01*
X1059618Y425999D02*
X1376253D01*
X1059618Y425099D02*
X1376253D01*
X1059618Y424199D02*
X1376253D01*
X1059618Y423299D02*
X1376253D01*
X1367003Y422399D02*
X1376253D01*
X1368952Y421499D02*
X1376253D01*
X1370354Y420599D02*
X1376253D01*
X1371460Y419699D02*
X1376253D01*
X1372369Y418799D02*
X1376253D01*
X1373129Y417899D02*
X1376253D01*
X1373769Y416999D02*
X1376253D01*
X1374309Y416099D02*
X1376253D01*
X1374762Y415199D02*
X1376253D01*
X1375136Y414299D02*
X1376253D01*
X1375243Y767099D02*
X1376250D01*
X1312520Y758099D02*
X1359553D01*
X1220844Y396299D02*
X1357896D01*
X1221334Y422399D02*
X1357406D01*
X1312716Y758999D02*
X1356671D01*
X1289543Y784199D02*
X1356424D01*
X1289872Y785099D02*
X1356342D01*
X1222915Y397199D02*
X1355825D01*
X1223283Y421499D02*
X1355457D01*
X1312718Y759899D02*
X1354953D01*
X1289543Y783299D02*
X1354781D01*
X1224405Y398099D02*
X1354335D01*
X1331216Y420599D02*
X1354056D01*
X1312718Y760799D02*
X1353665D01*
X1289543Y782399D02*
X1353529D01*
X1225566Y398999D02*
X1353174D01*
X1332309Y419699D02*
X1352949D01*
X1312718Y761699D02*
X1352631D01*
X1332026Y781499D02*
X1352520D01*
X1226513Y399899D02*
X1352227D01*
X1332996Y418799D02*
X1352041D01*
X1224748Y563699D02*
X1351888D01*
X1312718Y762599D02*
X1351775D01*
X1333444Y780599D02*
X1351683D01*
X1130169Y555599D02*
X1351614D01*
X1227303Y400799D02*
X1351437D01*
X1333440Y417899D02*
X1351281D01*
X1312718Y763499D02*
X1351058D01*
X1334224Y779699D02*
X1350979D01*
X1326891Y540299D02*
X1350908D01*
X1326891Y533099D02*
X1350881D01*
X1227968Y401699D02*
X1350773D01*
X1333702Y416999D02*
X1350640D01*
X1312718Y764399D02*
X1350452D01*
X1334704Y778799D02*
X1350386D01*
X1223366Y562799D02*
X1350227D01*
X1228528Y402599D02*
X1350212D01*
X1130169Y556499D02*
X1350131D01*
X1333808Y416099D02*
X1350100D01*
X1312718Y765299D02*
X1349942D01*
X1334975Y777899D02*
X1349887D01*
X1228999Y403499D02*
X1349741D01*
X1326891Y539399D02*
X1349693D01*
X1326891Y533999D02*
X1349680D01*
X1333766Y415199D02*
X1349648D01*
X1312718Y766199D02*
X1349516D01*
X1335070Y776999D02*
X1349470D01*
X1221459Y561899D02*
X1349453D01*
X1130169Y557399D02*
X1349399D01*
X1229390Y404399D02*
X1349350D01*
X1333573Y414299D02*
X1349274D01*
X1312718Y767099D02*
X1349166D01*
X1335001Y776099D02*
X1349129D01*
X1326891Y538499D02*
X1349069D01*
X1326891Y534899D02*
X1349062D01*
X1229708Y405299D02*
X1349032D01*
X1216987Y560999D02*
X1349016D01*
X1130169Y558299D02*
X1348987D01*
X1333212Y413399D02*
X1348971D01*
X1312718Y767999D02*
X1348886D01*
X1334759Y775199D02*
X1348857D01*
X1130169Y560099D02*
X1348810D01*
X1130169Y559199D02*
X1348801D01*
X1229959Y406199D02*
X1348781D01*
X1326891Y537599D02*
X1348742D01*
X1326891Y535799D02*
X1348739D01*
X1332641Y412499D02*
X1348735D01*
X1312718Y768899D02*
X1348671D01*
X1334315Y774299D02*
X1348650D01*
X1326891Y536699D02*
X1348638D01*
X1230145Y407099D02*
X1348595D01*
X1331759Y411599D02*
X1348562D01*
X1312718Y769799D02*
X1348519D01*
X1333593Y773399D02*
X1348504D01*
X1230270Y407999D02*
X1348470D01*
X1330172Y410699D02*
X1348450D01*
X1312718Y770699D02*
X1348427D01*
X1332334Y772499D02*
X1348420D01*
X1230336Y408899D02*
X1348405D01*
X1230342Y409799D02*
X1348398D01*
X1312718Y771599D02*
X1348394D01*
X1192020Y602399D02*
X1344996D01*
X1343405Y609599D02*
X1344222D01*
X1192020Y603299D02*
X1343525D01*
X1192335Y604199D02*
X1342825D01*
X1193235Y605099D02*
X1342448D01*
X1340254Y605999D02*
X1342303D01*
X1326891Y532199D02*
X1339662D01*
X1326891Y531299D02*
X1338949D01*
X1326891Y530399D02*
X1338415D01*
X1269253Y605999D02*
X1338328D01*
X1326891Y529499D02*
X1337515D01*
X1330196Y613199D02*
X1337057D01*
X1324486Y494399D02*
X1336960D01*
X1330323Y606899D02*
X1336626D01*
X1326891Y528599D02*
X1336615D01*
X1331068Y612299D02*
X1336105D01*
X1331136Y607799D02*
X1335876D01*
X1326891Y527699D02*
X1335775D01*
X1325324Y495299D02*
X1335629D01*
X1331542Y611399D02*
X1335590D01*
X1331578Y608699D02*
X1335470D01*
X1326891Y526799D02*
X1335379D01*
X1331764Y610499D02*
X1335339D01*
X1326891Y525899D02*
X1335313D01*
X1326891Y524999D02*
X1335313D01*
X1326891Y524099D02*
X1335313D01*
X1326891Y523199D02*
X1335313D01*
X1326891Y522299D02*
X1335313D01*
X1326891Y521399D02*
X1335313D01*
X1326891Y520499D02*
X1335313D01*
X1326891Y519599D02*
X1335313D01*
X1326891Y518699D02*
X1335313D01*
X1326891Y517799D02*
X1335313D01*
X1326891Y516899D02*
X1335313D01*
X1326891Y515999D02*
X1335313D01*
X1326891Y515099D02*
X1335313D01*
X1326891Y514199D02*
X1335313D01*
X1326891Y513299D02*
X1335313D01*
X1326891Y512399D02*
X1335313D01*
X1326891Y511499D02*
X1335313D01*
X1326891Y510599D02*
X1335313D01*
X1326891Y509699D02*
X1335313D01*
X1326875Y508799D02*
X1335313D01*
X1326600Y507899D02*
X1335313D01*
X1325873Y506999D02*
X1335313D01*
X1325356Y506099D02*
X1335313D01*
X1325356Y505199D02*
X1335313D01*
X1325356Y504299D02*
X1335313D01*
X1325356Y503399D02*
X1335313D01*
X1325356Y502499D02*
X1335313D01*
X1325356Y501599D02*
X1335313D01*
X1325356Y500699D02*
X1335313D01*
X1325356Y499799D02*
X1335313D01*
X1325356Y498899D02*
X1335313D01*
X1331775Y609599D02*
X1335301D01*
X1325684Y496199D02*
X1335101D01*
X1325527Y497999D02*
X1335010D01*
X1325746Y497099D02*
X1334917D01*
X1322026Y781499D02*
X1328210D01*
X1322334Y772499D02*
X1327903D01*
X1323444Y780599D02*
X1326793D01*
X1323593Y773399D02*
X1326644D01*
X1310172Y410699D02*
X1326364D01*
X1324224Y779699D02*
X1326013D01*
X1324315Y774299D02*
X1325921D01*
X1324722Y778799D02*
X1325514D01*
X1320078Y613199D02*
X1325395D01*
X1324892Y775199D02*
X1325344D01*
X1311216Y420599D02*
X1325319D01*
X1319801Y606899D02*
X1325268D01*
X1311759Y411599D02*
X1324777D01*
X1320858Y612299D02*
X1324522D01*
X1320711Y607799D02*
X1324455D01*
X1312309Y419699D02*
X1324226D01*
X1321283Y611399D02*
X1324048D01*
X1321205Y608699D02*
X1324013D01*
X1312641Y412499D02*
X1323894D01*
X1321466Y610499D02*
X1323827D01*
X1321441Y609599D02*
X1323815D01*
X1312996Y418799D02*
X1323540D01*
X1313212Y413399D02*
X1323323D01*
X1313440Y417899D02*
X1323095D01*
X1313573Y414299D02*
X1322962D01*
X1313702Y416999D02*
X1322833D01*
X1313766Y415199D02*
X1322770D01*
X1313808Y416099D02*
X1322728D01*
X1130169Y550199D02*
X1322667D01*
X1130169Y549299D02*
X1321768D01*
X1282122Y545699D02*
X1321691D01*
X1282905Y544799D02*
X1321691D01*
X1283522Y543899D02*
X1321691D01*
X1284006Y542999D02*
X1321691D01*
X1284378Y542099D02*
X1321691D01*
X1284652Y541199D02*
X1321691D01*
X1284835Y540299D02*
X1321691D01*
X1284933Y539399D02*
X1321691D01*
X1284949Y538499D02*
X1321691D01*
X1284882Y537599D02*
X1321691D01*
X1284731Y536699D02*
X1321691D01*
X1284492Y535799D02*
X1321691D01*
X1284158Y534899D02*
X1321691D01*
X1283719Y533999D02*
X1321691D01*
X1283155Y533099D02*
X1321691D01*
X1282441Y532199D02*
X1321691D01*
X1281524Y531299D02*
X1321691D01*
X1280301Y530399D02*
X1321691D01*
X1278452Y529499D02*
X1321691D01*
X1130169Y528599D02*
X1321691D01*
X1130169Y527699D02*
X1321691D01*
X1130169Y526799D02*
X1321691D01*
X1130169Y525899D02*
X1321691D01*
X1130169Y524999D02*
X1321691D01*
X1130169Y524099D02*
X1321691D01*
X1130169Y523199D02*
X1321691D01*
X1130169Y522299D02*
X1321691D01*
X1130169Y521399D02*
X1321691D01*
X1130169Y520499D02*
X1321691D01*
X1130169Y519599D02*
X1321691D01*
X1130169Y518699D02*
X1321691D01*
X1130169Y517799D02*
X1321691D01*
X1130169Y516899D02*
X1321691D01*
X1130169Y515999D02*
X1321691D01*
X1130169Y515099D02*
X1321691D01*
X1318311Y514199D02*
X1321691D01*
X1318925Y513299D02*
X1321691D01*
X1319165Y512399D02*
X1321691D01*
X1319123Y511499D02*
X1321691D01*
X1318787Y510599D02*
X1321691D01*
X1281107Y546599D02*
X1321492D01*
X1277304Y548399D02*
X1321380D01*
X1279711Y547499D02*
X1321297D01*
X1317998Y509699D02*
X1321219D01*
X1130169Y494399D02*
X1321026D01*
X1130169Y508799D02*
X1320471D01*
X1306812Y743699D02*
X1320383D01*
X1178721Y749099D02*
X1320310D01*
X1130169Y495299D02*
X1320188D01*
X1130169Y507899D02*
X1320178D01*
X1130169Y506999D02*
X1320156D01*
X1130169Y506099D02*
X1320156D01*
X1130169Y505199D02*
X1320156D01*
X1130169Y504299D02*
X1320156D01*
X1130169Y503399D02*
X1320156D01*
X1130169Y502499D02*
X1320156D01*
X1130169Y501599D02*
X1320156D01*
X1130169Y500699D02*
X1320156D01*
X1130169Y499799D02*
X1320156D01*
X1130169Y498899D02*
X1320156D01*
X1130169Y497999D02*
X1319985D01*
X1130169Y496199D02*
X1319827D01*
X1130169Y497099D02*
X1319766D01*
X1312026Y781499D02*
X1318210D01*
X1312721Y772499D02*
X1317903D01*
X1301646Y614099D02*
X1316802D01*
X1313444Y780599D02*
X1316793D01*
X1313593Y773399D02*
X1316644D01*
X1314224Y779699D02*
X1316013D01*
X1314315Y774299D02*
X1315921D01*
X1314722Y778799D02*
X1315514D01*
X1314892Y775199D02*
X1315344D01*
X1302618Y606899D02*
X1315160D01*
X1303202Y613199D02*
X1314883D01*
X1303614Y607799D02*
X1314249D01*
X1303923Y612299D02*
X1314102D01*
X1304149Y608699D02*
X1313755D01*
X1304311Y611399D02*
X1313678D01*
X1304415Y609599D02*
X1313519D01*
X1304466Y610499D02*
X1313495D01*
X1289543Y781499D02*
X1308210D01*
X1289543Y771599D02*
X1307518D01*
X1289543Y770699D02*
X1307518D01*
X1289543Y769799D02*
X1307518D01*
X1289543Y768899D02*
X1307518D01*
X1289543Y767999D02*
X1307518D01*
X1289543Y767099D02*
X1307518D01*
X1289543Y766199D02*
X1307518D01*
X1289543Y765299D02*
X1307518D01*
X1289543Y764399D02*
X1307518D01*
X1289543Y763499D02*
X1307518D01*
X1289543Y762599D02*
X1307518D01*
X1289543Y761699D02*
X1307518D01*
X1289294Y760799D02*
X1307518D01*
X1289543Y772499D02*
X1307515D01*
X1182880Y759899D02*
X1307246D01*
X1289543Y780599D02*
X1306793D01*
X1289543Y773399D02*
X1306644D01*
X1230290Y410699D02*
X1306364D01*
X1182522Y758999D02*
X1306346D01*
X1289543Y779699D02*
X1306013D01*
X1289543Y774299D02*
X1305921D01*
X1289543Y778799D02*
X1305532D01*
X1289543Y775199D02*
X1305477D01*
X1181895Y758099D02*
X1305446D01*
X1224685Y420599D02*
X1305319D01*
X1289543Y777899D02*
X1305261D01*
X1289543Y776099D02*
X1305235D01*
X1289543Y776999D02*
X1305166D01*
X1230178Y411599D02*
X1304777D01*
X1181433Y757199D02*
X1304546D01*
X1225791Y419699D02*
X1304226D01*
X1230005Y412499D02*
X1303894D01*
X1226700Y418799D02*
X1303540D01*
X1229769Y413399D02*
X1303323D01*
X1227459Y417899D02*
X1303095D01*
X1268335Y739199D02*
X1303043D01*
X1229467Y414299D02*
X1302962D01*
X1228100Y416999D02*
X1302833D01*
X1229092Y415199D02*
X1302770D01*
X1228640Y416099D02*
X1302728D01*
X1202235Y614099D02*
X1299299D01*
X1130169Y509699D02*
X1299088D01*
X1130169Y514199D02*
X1298776D01*
X1286386Y606899D02*
X1298327D01*
X1130169Y510599D02*
X1298300D01*
X1130169Y513299D02*
X1298162D01*
X1130169Y511499D02*
X1297964D01*
X1130169Y512399D02*
X1297922D01*
X1286259Y613199D02*
X1297743D01*
X1287199Y607799D02*
X1297331D01*
X1287131Y612299D02*
X1297022D01*
X1287641Y608699D02*
X1296796D01*
X1287605Y611399D02*
X1296634D01*
X1287838Y609599D02*
X1296530D01*
X1287827Y610499D02*
X1296479D01*
X1269776Y613199D02*
X1281458D01*
X1270627Y606899D02*
X1281331D01*
X1270856Y612299D02*
X1280585D01*
X1271302Y607799D02*
X1280518D01*
X1271428Y611399D02*
X1280111D01*
X1271662Y608699D02*
X1280076D01*
X1271719Y610499D02*
X1279890D01*
X1271793Y609599D02*
X1279878D01*
X1188514Y712199D02*
X1273334D01*
X1130169Y548399D02*
X1272853D01*
X1130169Y452999D02*
X1272371D01*
X1059618Y434099D02*
X1272070D01*
X1130169Y529499D02*
X1271706D01*
X1130169Y547499D02*
X1270446D01*
X1130169Y452099D02*
X1270219D01*
X1059618Y434999D02*
X1270062D01*
X1130169Y530399D02*
X1269857D01*
X1130169Y546599D02*
X1269050D01*
X1130169Y451199D02*
X1268892D01*
X1059618Y435899D02*
X1268780D01*
X1130169Y531299D02*
X1268633D01*
X1130169Y545699D02*
X1268035D01*
X1130169Y450299D02*
X1267915D01*
X1059618Y436799D02*
X1267830D01*
X1130169Y532199D02*
X1267717D01*
X1130169Y544799D02*
X1267252D01*
X1130169Y449399D02*
X1267158D01*
X1086225Y437699D02*
X1267091D01*
X1130169Y533099D02*
X1267002D01*
X1179451Y739199D02*
X1266704D01*
X1130169Y543899D02*
X1266636D01*
X1130169Y448499D02*
X1266562D01*
X1087754Y438599D02*
X1266509D01*
X1130169Y533999D02*
X1266439D01*
X1194135Y605999D02*
X1266337D01*
X1130169Y542999D02*
X1266152D01*
X1130169Y447599D02*
X1266094D01*
X1128004Y439499D02*
X1266053D01*
X1130169Y534899D02*
X1265999D01*
X1201335Y613199D02*
X1265814D01*
X1130169Y542099D02*
X1265780D01*
X1130169Y446699D02*
X1265736D01*
X1129070Y440399D02*
X1265705D01*
X1130169Y535799D02*
X1265665D01*
X1130169Y541199D02*
X1265506D01*
X1130169Y445799D02*
X1265475D01*
X1129677Y441299D02*
X1265454D01*
X1130169Y536699D02*
X1265426D01*
X1130169Y540299D02*
X1265322D01*
X1130169Y444899D02*
X1265304D01*
X1130021Y442199D02*
X1265291D01*
X1130169Y537599D02*
X1265275D01*
X1180351Y740099D02*
X1265272D01*
X1130169Y539399D02*
X1265224D01*
X1130169Y443999D02*
X1265217D01*
X1130163Y443099D02*
X1265213D01*
X1130169Y538499D02*
X1265209D01*
X1195035Y606899D02*
X1264963D01*
X1200435Y612299D02*
X1264734D01*
X1181251Y740999D02*
X1264724D01*
X1183051Y742799D02*
X1264606D01*
X1183954Y743699D02*
X1264566D01*
X1182151Y741899D02*
X1264526D01*
X1195935Y607799D02*
X1264289D01*
X1199535Y611399D02*
X1264163D01*
X1196835Y608699D02*
X1263929D01*
X1198635Y610499D02*
X1263871D01*
X1197735Y609599D02*
X1263797D01*
X1183033Y760799D02*
X1223462D01*
X808930Y784199D02*
X1223213D01*
X810574Y783299D02*
X1223213D01*
X811825Y782399D02*
X1223213D01*
X1161012Y781499D02*
X1223213D01*
X1162511Y780599D02*
X1223213D01*
X1163317Y779699D02*
X1223213D01*
X1163813Y778799D02*
X1223213D01*
X1164097Y777899D02*
X1223213D01*
X1164203Y776999D02*
X1223213D01*
X1164144Y776099D02*
X1223213D01*
X1163914Y775199D02*
X1223213D01*
X1163485Y774299D02*
X1223213D01*
X1162785Y773399D02*
X1223213D01*
X1161582Y772499D02*
X1223213D01*
X978820Y771599D02*
X1223213D01*
X978820Y770699D02*
X1223213D01*
X978820Y769799D02*
X1223213D01*
X978820Y768899D02*
X1223213D01*
X978820Y767999D02*
X1223213D01*
X978820Y767099D02*
X1223213D01*
X978820Y766199D02*
X1223213D01*
X1180166Y765299D02*
X1223213D01*
X1181606Y764399D02*
X1223213D01*
X1182352Y763499D02*
X1223213D01*
X1182787Y762599D02*
X1223213D01*
X1183004Y761699D02*
X1223213D01*
X809013Y785099D02*
X1222884D01*
X1182324Y643799D02*
X1216799D01*
X1182324Y642899D02*
X1216799D01*
X1182324Y641999D02*
X1216799D01*
X1182324Y641099D02*
X1216507D01*
X1182324Y644699D02*
X1216417D01*
X1130169Y560999D02*
X1216084D01*
X1182324Y640199D02*
X1215607D01*
X1182324Y645599D02*
X1215517D01*
X1182324Y639299D02*
X1214707D01*
X1182324Y646499D02*
X1214617D01*
X1182324Y638399D02*
X1213807D01*
X1182324Y647399D02*
X1213717D01*
X1182324Y637499D02*
X1212907D01*
X1182324Y648299D02*
X1212817D01*
X1192020Y587999D02*
X1212461D01*
X838955Y396299D02*
X1212227D01*
X1182324Y636599D02*
X1212007D01*
X1182324Y649199D02*
X1211917D01*
X1059618Y422399D02*
X1211737D01*
X1130169Y561899D02*
X1211612D01*
X1182324Y635699D02*
X1211107D01*
X1182324Y650099D02*
X1211017D01*
X1192020Y587099D02*
X1210247D01*
X1182324Y634799D02*
X1210207D01*
X841025Y397199D02*
X1210156D01*
X1182324Y650999D02*
X1210117D01*
X1059618Y421499D02*
X1209788D01*
X1130169Y562799D02*
X1209705D01*
X1182324Y703199D02*
X1209410D01*
X1182324Y633899D02*
X1209307D01*
X1182324Y651899D02*
X1209217D01*
X1192020Y586199D02*
X1208734D01*
X842516Y398099D02*
X1208665D01*
X1182324Y632999D02*
X1208407D01*
X1059618Y420599D02*
X1208386D01*
X1130169Y563699D02*
X1208322D01*
X1182324Y652799D02*
X1208317D01*
X1182324Y702299D02*
X1208140D01*
X1192020Y585299D02*
X1207559D01*
X1182324Y653699D02*
X1207559D01*
X1182324Y632099D02*
X1207507D01*
X843677Y398999D02*
X1207505D01*
X1182324Y701399D02*
X1207451D01*
X1059618Y419699D02*
X1207280D01*
X1130169Y564599D02*
X1207228D01*
X1182324Y654599D02*
X1207111D01*
X1182324Y700499D02*
X1207051D01*
X1182324Y655499D02*
X1206885D01*
X1182324Y699599D02*
X1206863D01*
X1182324Y698699D02*
X1206839D01*
X1182324Y697799D02*
X1206839D01*
X1182324Y696899D02*
X1206839D01*
X1182324Y695999D02*
X1206839D01*
X1182324Y695099D02*
X1206839D01*
X1182324Y694199D02*
X1206839D01*
X1182324Y693299D02*
X1206839D01*
X1182324Y692399D02*
X1206839D01*
X1182324Y691499D02*
X1206839D01*
X1182324Y690599D02*
X1206839D01*
X1182324Y689699D02*
X1206839D01*
X1182324Y688799D02*
X1206839D01*
X1182324Y687899D02*
X1206839D01*
X1182324Y686999D02*
X1206839D01*
X1182324Y686099D02*
X1206839D01*
X1182324Y685199D02*
X1206839D01*
X1182324Y684299D02*
X1206839D01*
X1182324Y683399D02*
X1206839D01*
X1182324Y682499D02*
X1206839D01*
X1182324Y681599D02*
X1206839D01*
X1182324Y680699D02*
X1206839D01*
X1182324Y679799D02*
X1206839D01*
X1182324Y678899D02*
X1206839D01*
X1182324Y677999D02*
X1206839D01*
X1182324Y677099D02*
X1206839D01*
X1182324Y676199D02*
X1206839D01*
X1182324Y675299D02*
X1206839D01*
X1182324Y674399D02*
X1206839D01*
X1182324Y673499D02*
X1206839D01*
X1182324Y672599D02*
X1206839D01*
X1182324Y671699D02*
X1206839D01*
X1182324Y670799D02*
X1206839D01*
X1182324Y669899D02*
X1206839D01*
X1182324Y668999D02*
X1206839D01*
X1182324Y668099D02*
X1206839D01*
X1182324Y667199D02*
X1206839D01*
X1182324Y666299D02*
X1206839D01*
X1182324Y665399D02*
X1206839D01*
X1182324Y664499D02*
X1206839D01*
X1182324Y663599D02*
X1206839D01*
X1182324Y662699D02*
X1206839D01*
X1182324Y661799D02*
X1206839D01*
X1182324Y660899D02*
X1206839D01*
X1182324Y659999D02*
X1206839D01*
X1182324Y659099D02*
X1206839D01*
X1182324Y658199D02*
X1206839D01*
X1182324Y657299D02*
X1206839D01*
X1182324Y656399D02*
X1206839D01*
X1182324Y631199D02*
X1206607D01*
X1192020Y584399D02*
X1206603D01*
X844623Y399899D02*
X1206558D01*
X1059618Y418799D02*
X1206371D01*
X1130169Y565499D02*
X1206328D01*
X1192020Y583499D02*
X1205806D01*
X845413Y400799D02*
X1205768D01*
X1182324Y630299D02*
X1205707D01*
X1059618Y417899D02*
X1205612D01*
X1189158Y566399D02*
X1205575D01*
X1192020Y582599D02*
X1205135D01*
X846078Y401699D02*
X1205103D01*
X1059618Y416999D02*
X1204971D01*
X1190589Y567299D02*
X1204941D01*
X1182324Y629399D02*
X1204807D01*
X1192020Y581699D02*
X1204569D01*
X846639Y402599D02*
X1204542D01*
X1059618Y416099D02*
X1204431D01*
X1191332Y568199D02*
X1204405D01*
X1192020Y580799D02*
X1204094D01*
X847110Y403499D02*
X1204071D01*
X1059618Y415199D02*
X1203979D01*
X1191765Y569099D02*
X1203957D01*
X1182324Y628499D02*
X1203907D01*
X1192020Y579899D02*
X1203699D01*
X847501Y404399D02*
X1203681D01*
X1059618Y414299D02*
X1203604D01*
X1191981Y569999D02*
X1203587D01*
X1192020Y578999D02*
X1203377D01*
X847819Y405299D02*
X1203362D01*
X1059618Y413399D02*
X1203301D01*
X1192020Y570899D02*
X1203288D01*
X1192020Y578099D02*
X1203124D01*
X848069Y406199D02*
X1203112D01*
X1059618Y412499D02*
X1203066D01*
X1192020Y571799D02*
X1203055D01*
X1182324Y627599D02*
X1203007D01*
X1192020Y577199D02*
X1202934D01*
X1055875Y407099D02*
X1202926D01*
X1059618Y411599D02*
X1202893D01*
X1192020Y572699D02*
X1202886D01*
X1192020Y576299D02*
X1202806D01*
X1057902Y407999D02*
X1202801D01*
X1059540Y410699D02*
X1202781D01*
X1192020Y573599D02*
X1202777D01*
X1192020Y575399D02*
X1202737D01*
X1058765Y408899D02*
X1202735D01*
X1059270Y409799D02*
X1202729D01*
X1192020Y574499D02*
X1202728D01*
X1182324Y626699D02*
X1202107D01*
X1182324Y625799D02*
X1201207D01*
X1182324Y624899D02*
X1200307D01*
X1182602Y623999D02*
X1199407D01*
X1182724Y623099D02*
X1198507D01*
X1182570Y622199D02*
X1197607D01*
X1182324Y621299D02*
X1196707D01*
X1182324Y620399D02*
X1195807D01*
X1182324Y619499D02*
X1194907D01*
X1182324Y618599D02*
X1194007D01*
X1182324Y617699D02*
X1193107D01*
X1182324Y616799D02*
X1192207D01*
X1182324Y615899D02*
X1191307D01*
X1182324Y614999D02*
X1190407D01*
X1182324Y614099D02*
X1189507D01*
X1182324Y613199D02*
X1188607D01*
X1182324Y612299D02*
X1187707D01*
X1177600Y717599D02*
X1187586D01*
X1182324Y611399D02*
X1186807D01*
X1182324Y610499D02*
X1185907D01*
X1130169Y566399D02*
X1185881D01*
X1177600Y716699D02*
X1185660D01*
X1182324Y609599D02*
X1185007D01*
X1177600Y715799D02*
X1184760D01*
X1130169Y567299D02*
X1184451D01*
X1182324Y608699D02*
X1184123D01*
X1177600Y714899D02*
X1183860D01*
X1130169Y568199D02*
X1183707D01*
X1182324Y607799D02*
X1183514D01*
X1130169Y569099D02*
X1183274D01*
X1130169Y569999D02*
X1183059D01*
X1180428Y596099D02*
X1183020D01*
X1177600Y595199D02*
X1183020D01*
X1177600Y594299D02*
X1183020D01*
X1177600Y593399D02*
X1183020D01*
X1177600Y592499D02*
X1183020D01*
X1177909Y591599D02*
X1183020D01*
X1177995Y590699D02*
X1183020D01*
X1177804Y589799D02*
X1183020D01*
X1177265Y588899D02*
X1183020D01*
X1175885Y587999D02*
X1183020D01*
X1043033Y587099D02*
X1183020D01*
X1043033Y586199D02*
X1183020D01*
X1043033Y585299D02*
X1183020D01*
X1043033Y584399D02*
X1183020D01*
X1043033Y583499D02*
X1183020D01*
X1043033Y582599D02*
X1183020D01*
X1043033Y581699D02*
X1183020D01*
X1043033Y580799D02*
X1183020D01*
X1043033Y579899D02*
X1183020D01*
X1043033Y578999D02*
X1183020D01*
X1043033Y578099D02*
X1183020D01*
X1043033Y577199D02*
X1183020D01*
X1043033Y576299D02*
X1183020D01*
X1043033Y575399D02*
X1183020D01*
X1127899Y574499D02*
X1183020D01*
X1129015Y573599D02*
X1183020D01*
X1129645Y572699D02*
X1183020D01*
X1130004Y571799D02*
X1183020D01*
X1130159Y570899D02*
X1183020D01*
X1181946Y596999D02*
X1183011D01*
X1177600Y713999D02*
X1182960D01*
X1177600Y713099D02*
X1182060D01*
X1177600Y712199D02*
X1181160D01*
X1177821Y748199D02*
X1181097D01*
X1177600Y711299D02*
X1180260D01*
X1176921Y747299D02*
X1180197D01*
X1177600Y710399D02*
X1179360D01*
X1176021Y746399D02*
X1179297D01*
X1177635Y596099D02*
X1179020D01*
X1177740Y709499D02*
X1178460D01*
X1175121Y745499D02*
X1178397D01*
X1084018Y756299D02*
X1178123D01*
X1083978Y755399D02*
X1177667D01*
X1174342Y744599D02*
X1177497D01*
X1083978Y754499D02*
X1176767D01*
X1174332Y743699D02*
X1176597D01*
X1083978Y753599D02*
X1175867D01*
X1174332Y742799D02*
X1175697D01*
X1083978Y752699D02*
X1174967D01*
X1043033Y587999D02*
X1174115D01*
X1083978Y751799D02*
X1174067D01*
X1083978Y750899D02*
X1173167D01*
X1043033Y588899D02*
X1172735D01*
X1083978Y749999D02*
X1172267D01*
X1043033Y589799D02*
X1172196D01*
X1043033Y591599D02*
X1172091D01*
X1043033Y590699D02*
X1172005D01*
X1083978Y749099D02*
X1171367D01*
X1043033Y592499D02*
X1170982D01*
X1083978Y748199D02*
X1170467D01*
X1083978Y747299D02*
X1169617D01*
X1043033Y593399D02*
X1169530D01*
X1083978Y746399D02*
X1169205D01*
X1083978Y745499D02*
X1169132D01*
X1083978Y744599D02*
X1169132D01*
X1083978Y743699D02*
X1169132D01*
X1083978Y742799D02*
X1169132D01*
X1083978Y741899D02*
X1169132D01*
X1083978Y740999D02*
X1169132D01*
X1083978Y740099D02*
X1169132D01*
X1083978Y739199D02*
X1169132D01*
X1083978Y738299D02*
X1169132D01*
X1083978Y737399D02*
X1169132D01*
X1083978Y736499D02*
X1169132D01*
X1083980Y735599D02*
X1169132D01*
X1084299Y734699D02*
X1169132D01*
X1084370Y733799D02*
X1169132D01*
X1084163Y732899D02*
X1169132D01*
X1083978Y731999D02*
X1169132D01*
X1083978Y731099D02*
X1169132D01*
X1083978Y730199D02*
X1169132D01*
X1083978Y729299D02*
X1169132D01*
X1083978Y728399D02*
X1169132D01*
X1083978Y727499D02*
X1169132D01*
X1150590Y726599D02*
X1169132D01*
X1151600Y725699D02*
X1169132D01*
X1152500Y724799D02*
X1169132D01*
X1158473Y723899D02*
X1169132D01*
X1159491Y722999D02*
X1169132D01*
X1159927Y722099D02*
X1169132D01*
X1160047Y721199D02*
X1169132D01*
X1159889Y720299D02*
X1169132D01*
X1159401Y719399D02*
X1169132D01*
X1158222Y718499D02*
X1169132D01*
X1147915Y717599D02*
X1169132D01*
X1147915Y716699D02*
X1169132D01*
X1147915Y715799D02*
X1169132D01*
X1147915Y714899D02*
X1169132D01*
X1147915Y713999D02*
X1169132D01*
X1147915Y713099D02*
X1169132D01*
X1147915Y712199D02*
X1169132D01*
X1147915Y711299D02*
X1169132D01*
X1147915Y710399D02*
X1169132D01*
X1147915Y709499D02*
X1169132D01*
X1147915Y708599D02*
X1169132D01*
X1147915Y707699D02*
X1169132D01*
X1147915Y706799D02*
X1169132D01*
X1147915Y705899D02*
X1169132D01*
X1147915Y704999D02*
X1169132D01*
X1147915Y704099D02*
X1169132D01*
X1147915Y703199D02*
X1169132D01*
X1147915Y702299D02*
X1169132D01*
X1147915Y701399D02*
X1169132D01*
X1147935Y700499D02*
X1169132D01*
X1148408Y699599D02*
X1169132D01*
X1149308Y698699D02*
X1169132D01*
X1150208Y697799D02*
X1169132D01*
X1151108Y696899D02*
X1169132D01*
X1152008Y695999D02*
X1169132D01*
X1152835Y695099D02*
X1169132D01*
X1153213Y694199D02*
X1169132D01*
X1153269Y693299D02*
X1169132D01*
X1153269Y692399D02*
X1169132D01*
X1153269Y691499D02*
X1169132D01*
X1153269Y690599D02*
X1169132D01*
X1153269Y689699D02*
X1169132D01*
X1153269Y688799D02*
X1169132D01*
X1153269Y687899D02*
X1169132D01*
X1153269Y686999D02*
X1169132D01*
X1153269Y686099D02*
X1169132D01*
X1153269Y685199D02*
X1169132D01*
X1153269Y684299D02*
X1169132D01*
X1153269Y683399D02*
X1169132D01*
X1153269Y682499D02*
X1169132D01*
X1153269Y681599D02*
X1169132D01*
X1153269Y680699D02*
X1169132D01*
X1153269Y679799D02*
X1169132D01*
X1153269Y678899D02*
X1169132D01*
X1153269Y677999D02*
X1169132D01*
X1153269Y677099D02*
X1169132D01*
X1153269Y676199D02*
X1169132D01*
X1153269Y675299D02*
X1169132D01*
X1153269Y674399D02*
X1169132D01*
X1153269Y673499D02*
X1169132D01*
X1153269Y672599D02*
X1169132D01*
X1153269Y671699D02*
X1169132D01*
X1153269Y670799D02*
X1169132D01*
X1153269Y669899D02*
X1169132D01*
X1153269Y668999D02*
X1169132D01*
X1153269Y668099D02*
X1169132D01*
X1153269Y667199D02*
X1169132D01*
X1153269Y666299D02*
X1169132D01*
X1153269Y665399D02*
X1169132D01*
X1153269Y664499D02*
X1169132D01*
X1153269Y663599D02*
X1169132D01*
X1153269Y662699D02*
X1169132D01*
X1153269Y661799D02*
X1169132D01*
X1153269Y660899D02*
X1169132D01*
X1153286Y659999D02*
X1169132D01*
X1153610Y659099D02*
X1169132D01*
X1153654Y658199D02*
X1169132D01*
X1153417Y657299D02*
X1169132D01*
X1163091Y656399D02*
X1169132D01*
X1164007Y655499D02*
X1169132D01*
X1164403Y654599D02*
X1169132D01*
X1164492Y653699D02*
X1169132D01*
X1164303Y652799D02*
X1169132D01*
X1163768Y651899D02*
X1169132D01*
X1162406Y650999D02*
X1169132D01*
X1153598Y650099D02*
X1169132D01*
X1153239Y649199D02*
X1169132D01*
X1152403Y648299D02*
X1169132D01*
X961472Y647399D02*
X1169132D01*
X961472Y646499D02*
X1169132D01*
X961472Y645599D02*
X1169132D01*
X961472Y644699D02*
X1169132D01*
X961472Y643799D02*
X1169132D01*
X961472Y642899D02*
X1169132D01*
X961472Y641999D02*
X1169132D01*
X961472Y641099D02*
X1169132D01*
X994522Y640199D02*
X1169132D01*
X995437Y639299D02*
X1169132D01*
X995930Y638399D02*
X1169132D01*
X996162Y637499D02*
X1169132D01*
X996181Y636599D02*
X1169132D01*
X995990Y635699D02*
X1169132D01*
X995552Y634799D02*
X1169132D01*
X961472Y630299D02*
X1169132D01*
X961472Y629399D02*
X1169132D01*
X961472Y628499D02*
X1169132D01*
X961472Y627599D02*
X1169132D01*
X1042503Y626699D02*
X1169132D01*
X1043150Y625799D02*
X1169132D01*
X1043410Y624899D02*
X1169132D01*
X1043386Y623999D02*
X1169132D01*
X1043073Y623099D02*
X1169132D01*
X1043033Y622199D02*
X1169132D01*
X1043033Y621299D02*
X1169132D01*
X1043033Y620399D02*
X1169132D01*
X1043033Y619499D02*
X1169132D01*
X1043033Y618599D02*
X1169132D01*
X1043033Y617699D02*
X1169132D01*
X1043033Y616799D02*
X1169132D01*
X1043033Y615899D02*
X1169132D01*
X1043033Y614999D02*
X1169132D01*
X1043033Y614099D02*
X1169132D01*
X1043033Y613199D02*
X1169132D01*
X1043033Y612299D02*
X1169132D01*
X1043033Y611399D02*
X1169132D01*
X1043033Y610499D02*
X1169132D01*
X1043033Y609599D02*
X1169132D01*
X1043033Y608699D02*
X1169132D01*
X1043033Y607799D02*
X1169132D01*
X1043033Y606899D02*
X1169132D01*
X1043033Y605999D02*
X1169132D01*
X1043033Y605099D02*
X1169132D01*
X1043033Y604199D02*
X1169132D01*
X1043033Y603299D02*
X1169132D01*
X1043033Y602399D02*
X1169132D01*
X1043033Y601499D02*
X1169132D01*
X1043033Y600599D02*
X1169132D01*
X1043033Y599699D02*
X1169132D01*
X1043033Y598799D02*
X1169132D01*
X1043033Y597899D02*
X1169132D01*
X1043033Y596999D02*
X1169132D01*
X961472Y631199D02*
X1169096D01*
X994740Y633899D02*
X1169010D01*
X1043033Y594299D02*
X1168978D01*
X1043033Y596099D02*
X1168856D01*
X961472Y632099D02*
X1168781D01*
X1043033Y595199D02*
X1168778D01*
X961472Y632999D02*
X1168754D01*
X1153712Y650999D02*
X1160586D01*
X1128886Y781499D02*
X1157492D01*
X1129456Y772499D02*
X1156922D01*
X1130385Y780599D02*
X1155993D01*
X1147915Y718499D02*
X1155872D01*
X1130659Y773399D02*
X1155719D01*
X1153451Y723899D02*
X1155618D01*
X1131191Y779699D02*
X1155187D01*
X1131359Y774299D02*
X1155019D01*
X1131687Y778799D02*
X1154690D01*
X1131789Y775199D02*
X1154589D01*
X1131971Y777899D02*
X1154407D01*
X1132018Y776099D02*
X1154360D01*
X1132077Y776999D02*
X1154301D01*
X1147819Y719399D02*
X1150546D01*
X1147365Y720299D02*
X1149646D01*
X1146635Y721199D02*
X1148746D01*
X961472Y691499D02*
X1148069D01*
X961472Y690599D02*
X1148069D01*
X961472Y689699D02*
X1148069D01*
X961472Y688799D02*
X1148069D01*
X961472Y687899D02*
X1148069D01*
X961472Y686999D02*
X1148069D01*
X961472Y686099D02*
X1148069D01*
X961472Y685199D02*
X1148069D01*
X961472Y684299D02*
X1148069D01*
X961472Y683399D02*
X1148069D01*
X961472Y682499D02*
X1148069D01*
X961472Y681599D02*
X1148069D01*
X961472Y680699D02*
X1148069D01*
X961472Y679799D02*
X1148069D01*
X961472Y678899D02*
X1148069D01*
X961472Y677999D02*
X1148069D01*
X961472Y677099D02*
X1148069D01*
X961472Y676199D02*
X1148069D01*
X961472Y675299D02*
X1148069D01*
X961472Y674399D02*
X1148069D01*
X961472Y673499D02*
X1148069D01*
X961472Y672599D02*
X1148069D01*
X961472Y671699D02*
X1148069D01*
X961472Y670799D02*
X1148069D01*
X961472Y669899D02*
X1148069D01*
X961472Y668999D02*
X1148069D01*
X961472Y668099D02*
X1148069D01*
X961472Y667199D02*
X1148069D01*
X961472Y666299D02*
X1148069D01*
X961472Y665399D02*
X1148069D01*
X961472Y664499D02*
X1148069D01*
X961472Y663599D02*
X1148069D01*
X961472Y692399D02*
X1148069D01*
X1146949Y662699D02*
X1148048D01*
X1138077Y693299D02*
X1147354D01*
X1139327Y694199D02*
X1146454D01*
X1139835Y695099D02*
X1145554D01*
X1143702Y695999D02*
X1144654D01*
X1140006D02*
X1141652D01*
X1083978Y726599D02*
X1138190D01*
X1083978Y725699D02*
X1137180D01*
X1083978Y724799D02*
X1136280D01*
X961472Y693299D02*
X1135938D01*
X1083978Y723899D02*
X1135380D01*
X961472Y694199D02*
X1134689D01*
X1083978Y722999D02*
X1134676D01*
X1083978Y722099D02*
X1134420D01*
X1083978Y721199D02*
X1134408D01*
X1083978Y720299D02*
X1134408D01*
X1083978Y719399D02*
X1134408D01*
X1084200Y718499D02*
X1134408D01*
X1084376Y717599D02*
X1134408D01*
X1084275Y716699D02*
X1134408D01*
X1083863Y715799D02*
X1134408D01*
X1082907Y714899D02*
X1134408D01*
X1048906Y713999D02*
X1134408D01*
X1048906Y713099D02*
X1134408D01*
X1048906Y712199D02*
X1134408D01*
X1048906Y711299D02*
X1134408D01*
X1048906Y710399D02*
X1134408D01*
X1048906Y709499D02*
X1134408D01*
X1048906Y708599D02*
X1134408D01*
X1048906Y707699D02*
X1134408D01*
X1048906Y706799D02*
X1134408D01*
X1048906Y705899D02*
X1134408D01*
X1048906Y704999D02*
X1134408D01*
X1048906Y704099D02*
X1134408D01*
X1048939Y703199D02*
X1134408D01*
X1049503Y702299D02*
X1134408D01*
X1049815Y701399D02*
X1134408D01*
X1049905Y700499D02*
X1134408D01*
X1049791Y699599D02*
X1134408D01*
X1049451Y698699D02*
X1134408D01*
X1048809Y697799D02*
X1134408D01*
X961472Y695099D02*
X1134180D01*
X1047538Y696899D02*
X1134116D01*
X961472Y695999D02*
X1134010D01*
X812835Y781499D02*
X1125366D01*
X978728Y772499D02*
X1124796D01*
X813672Y780599D02*
X1123867D01*
X978279Y773399D02*
X1123593D01*
X1057415Y574499D02*
X1123440D01*
X1088313Y439499D02*
X1123335D01*
X814375Y779699D02*
X1123061D01*
X977409Y774299D02*
X1122893D01*
X814968Y778799D02*
X1122564D01*
X976509Y775199D02*
X1122463D01*
X1058499Y573599D02*
X1122323D01*
X815468Y777899D02*
X1122281D01*
X1088515Y440399D02*
X1122268D01*
X975609Y776099D02*
X1122234D01*
X974709Y776999D02*
X1122175D01*
X1059114Y572699D02*
X1121694D01*
X1088436Y441299D02*
X1121662D01*
X1059463Y571799D02*
X1121335D01*
X1088049Y442199D02*
X1121318D01*
X1059610Y570899D02*
X1121180D01*
X1087143Y443099D02*
X1121176D01*
X1059618Y569999D02*
X1121169D01*
X1059618Y569099D02*
X1121169D01*
X1059618Y568199D02*
X1121169D01*
X1059618Y567299D02*
X1121169D01*
X1059618Y566399D02*
X1121169D01*
X1059618Y565499D02*
X1121169D01*
X1059618Y564599D02*
X1121169D01*
X1059618Y563699D02*
X1121169D01*
X1059618Y562799D02*
X1121169D01*
X1059618Y561899D02*
X1121169D01*
X1059618Y560999D02*
X1121169D01*
X1059618Y560099D02*
X1121169D01*
X1059618Y559199D02*
X1121169D01*
X1059618Y558299D02*
X1121169D01*
X1059618Y557399D02*
X1121169D01*
X1059618Y556499D02*
X1121169D01*
X1059618Y555599D02*
X1121169D01*
X1059618Y554699D02*
X1121169D01*
X1059618Y553799D02*
X1121169D01*
X1059618Y552899D02*
X1121169D01*
X1059618Y551999D02*
X1121169D01*
X1059618Y551099D02*
X1121169D01*
X1059618Y550199D02*
X1121169D01*
X1059618Y549299D02*
X1121169D01*
X1059618Y548399D02*
X1121169D01*
X1059618Y547499D02*
X1121169D01*
X1059618Y546599D02*
X1121169D01*
X1059618Y545699D02*
X1121169D01*
X1059618Y544799D02*
X1121169D01*
X1059618Y543899D02*
X1121169D01*
X1059618Y542999D02*
X1121169D01*
X1088028Y542099D02*
X1121169D01*
X1088849Y541199D02*
X1121169D01*
X1089292Y540299D02*
X1121169D01*
X1089487Y539399D02*
X1121169D01*
X1089471Y538499D02*
X1121169D01*
X1089243Y537599D02*
X1121169D01*
X1088755Y536699D02*
X1121169D01*
X1087850Y535799D02*
X1121169D01*
X1059618Y534899D02*
X1121169D01*
X1059618Y533999D02*
X1121169D01*
X1059618Y533099D02*
X1121169D01*
X1059618Y532199D02*
X1121169D01*
X1059618Y531299D02*
X1121169D01*
X1059618Y530399D02*
X1121169D01*
X1059618Y529499D02*
X1121169D01*
X1059618Y528599D02*
X1121169D01*
X1059618Y527699D02*
X1121169D01*
X1059618Y526799D02*
X1121169D01*
X1059618Y525899D02*
X1121169D01*
X1059618Y524999D02*
X1121169D01*
X1059618Y524099D02*
X1121169D01*
X1059618Y523199D02*
X1121169D01*
X1059618Y522299D02*
X1121169D01*
X1059618Y521399D02*
X1121169D01*
X1059618Y520499D02*
X1121169D01*
X1059618Y519599D02*
X1121169D01*
X1059618Y518699D02*
X1121169D01*
X1059618Y517799D02*
X1121169D01*
X1059618Y516899D02*
X1121169D01*
X1059618Y515999D02*
X1121169D01*
X1059618Y515099D02*
X1121169D01*
X1059618Y514199D02*
X1121169D01*
X1059618Y513299D02*
X1121169D01*
X1059618Y512399D02*
X1121169D01*
X1059618Y511499D02*
X1121169D01*
X1059618Y510599D02*
X1121169D01*
X1059618Y509699D02*
X1121169D01*
X1059618Y508799D02*
X1121169D01*
X1059618Y507899D02*
X1121169D01*
X1059618Y506999D02*
X1121169D01*
X1059618Y506099D02*
X1121169D01*
X1059618Y505199D02*
X1121169D01*
X1059618Y504299D02*
X1121169D01*
X1059618Y503399D02*
X1121169D01*
X1059618Y502499D02*
X1121169D01*
X1059618Y501599D02*
X1121169D01*
X1059618Y500699D02*
X1121169D01*
X1059618Y499799D02*
X1121169D01*
X1059618Y498899D02*
X1121169D01*
X1059618Y497999D02*
X1121169D01*
X1059618Y497099D02*
X1121169D01*
X1059618Y496199D02*
X1121169D01*
X1059618Y495299D02*
X1121169D01*
X1059618Y494399D02*
X1121169D01*
X1059618Y493499D02*
X1121169D01*
X1059618Y492599D02*
X1121169D01*
X1059618Y491699D02*
X1121169D01*
X1059618Y490799D02*
X1121169D01*
X1059618Y489899D02*
X1121169D01*
X1059618Y488999D02*
X1121169D01*
X1059618Y488099D02*
X1121169D01*
X1059618Y487199D02*
X1121169D01*
X1059618Y486299D02*
X1121169D01*
X1059618Y485399D02*
X1121169D01*
X1059618Y484499D02*
X1121169D01*
X1059618Y483599D02*
X1121169D01*
X1059618Y482699D02*
X1121169D01*
X1059618Y481799D02*
X1121169D01*
X1059618Y480899D02*
X1121169D01*
X1059618Y479999D02*
X1121169D01*
X1059618Y479099D02*
X1121169D01*
X1059618Y478199D02*
X1121169D01*
X1059618Y477299D02*
X1121169D01*
X1059618Y476399D02*
X1121169D01*
X1059618Y475499D02*
X1121169D01*
X1059618Y474599D02*
X1121169D01*
X1059618Y473699D02*
X1121169D01*
X1059618Y472799D02*
X1121169D01*
X1059618Y471899D02*
X1121169D01*
X1059618Y470999D02*
X1121169D01*
X1059618Y470099D02*
X1121169D01*
X1059618Y469199D02*
X1121169D01*
X1059618Y468299D02*
X1121169D01*
X1059618Y467399D02*
X1121169D01*
X1059618Y466499D02*
X1121169D01*
X1059618Y465599D02*
X1121169D01*
X1059618Y464699D02*
X1121169D01*
X1059618Y463799D02*
X1121169D01*
X1059618Y462899D02*
X1121169D01*
X1059618Y461999D02*
X1121169D01*
X1059618Y461099D02*
X1121169D01*
X1059618Y460199D02*
X1121169D01*
X1059618Y459299D02*
X1121169D01*
X1059618Y458399D02*
X1121169D01*
X1059618Y457499D02*
X1121169D01*
X1059618Y456599D02*
X1121169D01*
X1059618Y455699D02*
X1121169D01*
X1059618Y454799D02*
X1121169D01*
X1059618Y453899D02*
X1121169D01*
X1059618Y452999D02*
X1121169D01*
X1059618Y452099D02*
X1121169D01*
X1059618Y451199D02*
X1121169D01*
X1059618Y450299D02*
X1121169D01*
X1059618Y449399D02*
X1121169D01*
X1059618Y448499D02*
X1121169D01*
X1059618Y447599D02*
X1121169D01*
X1059618Y446699D02*
X1121169D01*
X1059618Y445799D02*
X1121169D01*
X1059618Y444899D02*
X1121169D01*
X1059618Y443999D02*
X1121169D01*
X1059618Y437699D02*
X1084877D01*
X1059618Y443099D02*
X1083959D01*
X1059618Y438599D02*
X1083349D01*
X1059618Y535799D02*
X1083253D01*
X1059618Y542099D02*
X1083074D01*
X1059618Y442199D02*
X1083054D01*
X1059618Y439499D02*
X1082789D01*
X1059618Y441299D02*
X1082667D01*
X1059618Y440399D02*
X1082587D01*
X1059618Y536699D02*
X1082347D01*
X1059618Y541199D02*
X1082253D01*
X1059618Y537599D02*
X1081860D01*
X1059618Y540299D02*
X1081810D01*
X1059618Y538499D02*
X1081631D01*
X1059618Y539399D02*
X1081615D01*
X1048906Y714899D02*
X1079848D01*
X1048906Y715799D02*
X1078893D01*
X978820Y755399D02*
X1078778D01*
X978820Y754499D02*
X1078778D01*
X978820Y753599D02*
X1078778D01*
X978820Y752699D02*
X1078778D01*
X978820Y751799D02*
X1078778D01*
X978820Y750899D02*
X1078778D01*
X978820Y749999D02*
X1078778D01*
X978820Y749099D02*
X1078778D01*
X978820Y748199D02*
X1078778D01*
X978820Y747299D02*
X1078778D01*
X978820Y746399D02*
X1078778D01*
X978820Y745499D02*
X1078778D01*
X978820Y744599D02*
X1078778D01*
X978820Y743699D02*
X1078778D01*
X978820Y742799D02*
X1078778D01*
X978820Y741899D02*
X1078778D01*
X978820Y740999D02*
X1078778D01*
X978820Y740099D02*
X1078778D01*
X1047631Y739199D02*
X1078778D01*
X1048849Y738299D02*
X1078778D01*
X1049473Y737399D02*
X1078778D01*
X1049801Y736499D02*
X1078778D01*
X1048906Y731999D02*
X1078778D01*
X1048906Y731099D02*
X1078778D01*
X1048906Y730199D02*
X1078778D01*
X1048906Y729299D02*
X1078778D01*
X1048906Y728399D02*
X1078778D01*
X1048906Y727499D02*
X1078778D01*
X1048906Y726599D02*
X1078778D01*
X1048906Y725699D02*
X1078778D01*
X1048906Y724799D02*
X1078778D01*
X1048906Y723899D02*
X1078778D01*
X1048906Y722999D02*
X1078778D01*
X1048906Y722099D02*
X1078778D01*
X1049090Y721199D02*
X1078778D01*
X1049605Y720299D02*
X1078778D01*
X1049857Y719399D02*
X1078778D01*
X1049906Y735599D02*
X1078776D01*
X978820Y756299D02*
X1078737D01*
X1048925Y732899D02*
X1078593D01*
X1049896Y718499D02*
X1078556D01*
X1049322Y716699D02*
X1078481D01*
X1049805Y734699D02*
X1078457D01*
X1049482Y733799D02*
X1078386D01*
X1049728Y717599D02*
X1078380D01*
X848255Y407099D02*
X1054361D01*
X1043033Y574499D02*
X1052821D01*
X848380Y407999D02*
X1052335D01*
X1043033Y573599D02*
X1051737D01*
X848446Y408899D02*
X1051471D01*
X1043033Y572699D02*
X1051122D01*
X848452Y409799D02*
X1050966D01*
X1043033Y571799D02*
X1050773D01*
X848400Y410699D02*
X1050696D01*
X1043033Y570899D02*
X1050626D01*
X1043033Y569999D02*
X1050618D01*
X1043033Y569099D02*
X1050618D01*
X1043033Y568199D02*
X1050618D01*
X1043033Y567299D02*
X1050618D01*
X1043033Y566399D02*
X1050618D01*
X1043033Y565499D02*
X1050618D01*
X1043033Y564599D02*
X1050618D01*
X1043033Y563699D02*
X1050618D01*
X1043033Y562799D02*
X1050618D01*
X1043033Y561899D02*
X1050618D01*
X1043033Y560999D02*
X1050618D01*
X1043033Y560099D02*
X1050618D01*
X1043033Y559199D02*
X1050618D01*
X1043033Y558299D02*
X1050618D01*
X1043033Y557399D02*
X1050618D01*
X1043033Y556499D02*
X1050618D01*
X1043033Y555599D02*
X1050618D01*
X1043033Y554699D02*
X1050618D01*
X1043033Y553799D02*
X1050618D01*
X1043033Y552899D02*
X1050618D01*
X1043033Y551999D02*
X1050618D01*
X1043033Y551099D02*
X1050618D01*
X1043033Y550199D02*
X1050618D01*
X1043033Y549299D02*
X1050618D01*
X1043033Y548399D02*
X1050618D01*
X1043033Y547499D02*
X1050618D01*
X1043033Y546599D02*
X1050618D01*
X1043033Y545699D02*
X1050618D01*
X1043033Y544799D02*
X1050618D01*
X1043033Y543899D02*
X1050618D01*
X1043033Y542999D02*
X1050618D01*
X1043033Y542099D02*
X1050618D01*
X1043033Y541199D02*
X1050618D01*
X1043033Y540299D02*
X1050618D01*
X1043033Y539399D02*
X1050618D01*
X1043033Y538499D02*
X1050618D01*
X1043033Y537599D02*
X1050618D01*
X1043033Y536699D02*
X1050618D01*
X1043033Y535799D02*
X1050618D01*
X1043033Y534899D02*
X1050618D01*
X1043033Y533999D02*
X1050618D01*
X1043033Y533099D02*
X1050618D01*
X1043033Y532199D02*
X1050618D01*
X1043033Y531299D02*
X1050618D01*
X1043033Y530399D02*
X1050618D01*
X1043033Y529499D02*
X1050618D01*
X1043033Y528599D02*
X1050618D01*
X1043033Y527699D02*
X1050618D01*
X1043033Y526799D02*
X1050618D01*
X1043033Y525899D02*
X1050618D01*
X1043033Y524999D02*
X1050618D01*
X1043033Y524099D02*
X1050618D01*
X1043033Y523199D02*
X1050618D01*
X1043033Y522299D02*
X1050618D01*
X1043033Y521399D02*
X1050618D01*
X1043033Y520499D02*
X1050618D01*
X1043033Y519599D02*
X1050618D01*
X1043033Y518699D02*
X1050618D01*
X1043033Y517799D02*
X1050618D01*
X1043033Y516899D02*
X1050618D01*
X1043033Y515999D02*
X1050618D01*
X1043033Y515099D02*
X1050618D01*
X1043033Y514199D02*
X1050618D01*
X1043033Y513299D02*
X1050618D01*
X1043033Y512399D02*
X1050618D01*
X1043033Y511499D02*
X1050618D01*
X1043033Y510599D02*
X1050618D01*
X1043033Y509699D02*
X1050618D01*
X1043033Y508799D02*
X1050618D01*
X1043033Y507899D02*
X1050618D01*
X1043033Y506999D02*
X1050618D01*
X1043033Y506099D02*
X1050618D01*
X1043033Y505199D02*
X1050618D01*
X1043033Y504299D02*
X1050618D01*
X1043033Y503399D02*
X1050618D01*
X1043033Y502499D02*
X1050618D01*
X1043033Y501599D02*
X1050618D01*
X1043033Y500699D02*
X1050618D01*
X1043033Y499799D02*
X1050618D01*
X1043033Y498899D02*
X1050618D01*
X1043033Y497999D02*
X1050618D01*
X1043033Y497099D02*
X1050618D01*
X1043033Y496199D02*
X1050618D01*
X1043033Y495299D02*
X1050618D01*
X1043033Y494399D02*
X1050618D01*
X1043033Y493499D02*
X1050618D01*
X1043033Y492599D02*
X1050618D01*
X1043033Y491699D02*
X1050618D01*
X1043033Y490799D02*
X1050618D01*
X1043033Y489899D02*
X1050618D01*
X1043033Y488999D02*
X1050618D01*
X1043033Y488099D02*
X1050618D01*
X1043033Y487199D02*
X1050618D01*
X1043033Y486299D02*
X1050618D01*
X1043033Y485399D02*
X1050618D01*
X1043033Y484499D02*
X1050618D01*
X1043033Y483599D02*
X1050618D01*
X1043033Y482699D02*
X1050618D01*
X1043033Y481799D02*
X1050618D01*
X1043033Y480899D02*
X1050618D01*
X1043033Y479999D02*
X1050618D01*
X1043033Y479099D02*
X1050618D01*
X1043033Y478199D02*
X1050618D01*
X1043033Y477299D02*
X1050618D01*
X1043146Y476399D02*
X1050618D01*
X1043409Y475499D02*
X1050618D01*
X1043388Y474599D02*
X1050618D01*
X1043076Y473699D02*
X1050618D01*
X1042337Y472799D02*
X1050618D01*
X968870Y471899D02*
X1050618D01*
X968870Y470999D02*
X1050618D01*
X968870Y470099D02*
X1050618D01*
X968870Y469199D02*
X1050618D01*
X968870Y468299D02*
X1050618D01*
X968870Y467399D02*
X1050618D01*
X968870Y466499D02*
X1050618D01*
X968870Y465599D02*
X1050618D01*
X968870Y464699D02*
X1050618D01*
X968870Y463799D02*
X1050618D01*
X968870Y462899D02*
X1050618D01*
X968870Y461999D02*
X1050618D01*
X968870Y461099D02*
X1050618D01*
X968870Y460199D02*
X1050618D01*
X968870Y459299D02*
X1050618D01*
X968870Y458399D02*
X1050618D01*
X968870Y457499D02*
X1050618D01*
X968870Y456599D02*
X1050618D01*
X968870Y455699D02*
X1050618D01*
X968870Y454799D02*
X1050618D01*
X968870Y453899D02*
X1050618D01*
X968870Y452999D02*
X1050618D01*
X968870Y452099D02*
X1050618D01*
X968870Y451199D02*
X1050618D01*
X968870Y450299D02*
X1050618D01*
X996175Y449399D02*
X1050618D01*
X997795Y448499D02*
X1050618D01*
X998523Y447599D02*
X1050618D01*
X998913Y446699D02*
X1050618D01*
X999067Y445799D02*
X1050618D01*
X999012Y444899D02*
X1050618D01*
X998739Y443999D02*
X1050618D01*
X998190Y443099D02*
X1050618D01*
X997155Y442199D02*
X1050618D01*
X814366Y441299D02*
X1050618D01*
X813839Y440399D02*
X1050618D01*
X813171Y439499D02*
X1050618D01*
X812318Y438599D02*
X1050618D01*
X811198Y437699D02*
X1050618D01*
X809591Y436799D02*
X1050618D01*
X789102Y435899D02*
X1050618D01*
X789102Y434999D02*
X1050618D01*
X789102Y434099D02*
X1050618D01*
X789102Y433199D02*
X1050618D01*
X789102Y432299D02*
X1050618D01*
X789102Y431399D02*
X1050618D01*
X789102Y430499D02*
X1050618D01*
X789102Y429599D02*
X1050618D01*
X789102Y428699D02*
X1050618D01*
X789102Y427799D02*
X1050618D01*
X789102Y426899D02*
X1050618D01*
X789102Y425999D02*
X1050618D01*
X789102Y425099D02*
X1050618D01*
X789102Y424199D02*
X1050618D01*
X789102Y423299D02*
X1050618D01*
X839444Y422399D02*
X1050618D01*
X841393Y421499D02*
X1050618D01*
X842795Y420599D02*
X1050618D01*
X843901Y419699D02*
X1050618D01*
X844810Y418799D02*
X1050618D01*
X845570Y417899D02*
X1050618D01*
X846210Y416999D02*
X1050618D01*
X846750Y416099D02*
X1050618D01*
X847203Y415199D02*
X1050618D01*
X847577Y414299D02*
X1050618D01*
X847880Y413399D02*
X1050618D01*
X848116Y412499D02*
X1050618D01*
X848288Y411599D02*
X1050618D01*
X961472Y696899D02*
X1044273D01*
X978820Y739199D02*
X1044180D01*
X961472Y697799D02*
X1043002D01*
X992851Y738299D02*
X1042962D01*
X978820Y731999D02*
X1042905D01*
X978820Y731099D02*
X1042905D01*
X978820Y730199D02*
X1042905D01*
X978820Y729299D02*
X1042905D01*
X978820Y728399D02*
X1042905D01*
X978820Y727499D02*
X1042905D01*
X978820Y726599D02*
X1042905D01*
X978820Y725699D02*
X1042905D01*
X978820Y724799D02*
X1042905D01*
X978820Y723899D02*
X1042905D01*
X978820Y722999D02*
X1042905D01*
X978820Y722099D02*
X1042905D01*
X978820Y715799D02*
X1042905D01*
X978820Y714899D02*
X1042905D01*
X978820Y713999D02*
X1042905D01*
X978820Y713099D02*
X1042905D01*
X978820Y712199D02*
X1042905D01*
X978820Y711299D02*
X1042905D01*
X978820Y710399D02*
X1042905D01*
X978807Y709499D02*
X1042905D01*
X978545Y708599D02*
X1042905D01*
X977833Y707699D02*
X1042905D01*
X976933Y706799D02*
X1042905D01*
X976033Y705899D02*
X1042905D01*
X974792Y704999D02*
X1042905D01*
X961472Y704099D02*
X1042905D01*
X993859Y732899D02*
X1042886D01*
X961472Y703199D02*
X1042872D01*
X978820Y721199D02*
X1042721D01*
X978820Y716699D02*
X1042489D01*
X961472Y698699D02*
X1042360D01*
X994433Y737399D02*
X1042338D01*
X994751Y733799D02*
X1042329D01*
X961472Y702299D02*
X1042308D01*
X978820Y720299D02*
X1042206D01*
X978820Y717599D02*
X1042084D01*
X961472Y699599D02*
X1042020D01*
X995000Y736499D02*
X1042010D01*
X995132Y734699D02*
X1042006D01*
X961472Y701399D02*
X1041996D01*
X978820Y719399D02*
X1041954D01*
X978820Y718499D02*
X1041915D01*
X961472Y700499D02*
X1041906D01*
X995207Y735599D02*
X1041906D01*
X968870Y472799D02*
X1038529D01*
X961472Y626699D02*
X1038364D01*
X961472Y622199D02*
X1037833D01*
X961472Y621299D02*
X1037833D01*
X961472Y620399D02*
X1037833D01*
X961472Y619499D02*
X1037833D01*
X961472Y618599D02*
X1037833D01*
X961472Y617699D02*
X1037833D01*
X961472Y616799D02*
X1037833D01*
X961472Y615899D02*
X1037833D01*
X961472Y614999D02*
X1037833D01*
X961472Y614099D02*
X1037833D01*
X961472Y613199D02*
X1037833D01*
X961472Y612299D02*
X1037833D01*
X961472Y611399D02*
X1037833D01*
X961472Y610499D02*
X1037833D01*
X961470Y609599D02*
X1037833D01*
X961377Y608699D02*
X1037833D01*
X961142Y607799D02*
X1037833D01*
X960745Y606899D02*
X1037833D01*
X960145Y605999D02*
X1037833D01*
X959247Y605099D02*
X1037833D01*
X957717Y604199D02*
X1037833D01*
X789102Y603299D02*
X1037833D01*
X789102Y602399D02*
X1037833D01*
X1031801Y601499D02*
X1037833D01*
X1032666Y600599D02*
X1037833D01*
X1033039Y599699D02*
X1037833D01*
X1033110Y598799D02*
X1037833D01*
X1032903Y597899D02*
X1037833D01*
X1032718Y596999D02*
X1037833D01*
X1032718Y596099D02*
X1037833D01*
X1032718Y595199D02*
X1037833D01*
X1032718Y594299D02*
X1037833D01*
X1032718Y593399D02*
X1037833D01*
X1032718Y592499D02*
X1037833D01*
X1032718Y591599D02*
X1037833D01*
X1032718Y590699D02*
X1037833D01*
X1032718Y589799D02*
X1037833D01*
X1032718Y588899D02*
X1037833D01*
X1032718Y587999D02*
X1037833D01*
X1032718Y587099D02*
X1037833D01*
X1032718Y586199D02*
X1037833D01*
X1032718Y585299D02*
X1037833D01*
X1032718Y584399D02*
X1037833D01*
X1032718Y583499D02*
X1037833D01*
X1032718Y582599D02*
X1037833D01*
X1032718Y581699D02*
X1037833D01*
X1032718Y580799D02*
X1037833D01*
X1032718Y579899D02*
X1037833D01*
X1032718Y578999D02*
X1037833D01*
X1032718Y578099D02*
X1037833D01*
X1032718Y577199D02*
X1037833D01*
X1032718Y576299D02*
X1037833D01*
X1032718Y575399D02*
X1037833D01*
X1032718Y574499D02*
X1037833D01*
X1032718Y573599D02*
X1037833D01*
X1032718Y572699D02*
X1037833D01*
X1032718Y571799D02*
X1037833D01*
X1032718Y570899D02*
X1037833D01*
X1032718Y569999D02*
X1037833D01*
X1032718Y569099D02*
X1037833D01*
X1032718Y568199D02*
X1037833D01*
X1032718Y567299D02*
X1037833D01*
X1032718Y566399D02*
X1037833D01*
X1032718Y565499D02*
X1037833D01*
X1032718Y564599D02*
X1037833D01*
X1032718Y563699D02*
X1037833D01*
X1032718Y562799D02*
X1037833D01*
X1032718Y561899D02*
X1037833D01*
X1032718Y560999D02*
X1037833D01*
X1032718Y560099D02*
X1037833D01*
X1032718Y559199D02*
X1037833D01*
X1032718Y558299D02*
X1037833D01*
X1032718Y557399D02*
X1037833D01*
X1032718Y556499D02*
X1037833D01*
X1032718Y555599D02*
X1037833D01*
X1032718Y554699D02*
X1037833D01*
X1032718Y553799D02*
X1037833D01*
X1032718Y552899D02*
X1037833D01*
X1032718Y551999D02*
X1037833D01*
X1032718Y551099D02*
X1037833D01*
X1032718Y550199D02*
X1037833D01*
X1032718Y549299D02*
X1037833D01*
X1032718Y548399D02*
X1037833D01*
X1032718Y547499D02*
X1037833D01*
X1032718Y546599D02*
X1037833D01*
X1032718Y545699D02*
X1037833D01*
X1032718Y544799D02*
X1037833D01*
X1032718Y543899D02*
X1037833D01*
X1032718Y542999D02*
X1037833D01*
X1032718Y542099D02*
X1037833D01*
X1032718Y541199D02*
X1037833D01*
X1032718Y540299D02*
X1037833D01*
X1032718Y539399D02*
X1037833D01*
X1032718Y538499D02*
X1037833D01*
X1032718Y537599D02*
X1037833D01*
X1032718Y536699D02*
X1037833D01*
X1032718Y535799D02*
X1037833D01*
X1032718Y534899D02*
X1037833D01*
X1032718Y533999D02*
X1037833D01*
X1032718Y533099D02*
X1037833D01*
X1032718Y532199D02*
X1037833D01*
X1032718Y531299D02*
X1037833D01*
X1032718Y530399D02*
X1037833D01*
X1032718Y529499D02*
X1037833D01*
X1032718Y528599D02*
X1037833D01*
X1032718Y527699D02*
X1037833D01*
X1032718Y526799D02*
X1037833D01*
X1032718Y525899D02*
X1037833D01*
X1032718Y524999D02*
X1037833D01*
X1032718Y524099D02*
X1037833D01*
X1032718Y523199D02*
X1037833D01*
X1032718Y522299D02*
X1037833D01*
X1032718Y521399D02*
X1037833D01*
X1032718Y520499D02*
X1037833D01*
X1032718Y519599D02*
X1037833D01*
X1032718Y518699D02*
X1037833D01*
X1032718Y517799D02*
X1037833D01*
X1032718Y516899D02*
X1037833D01*
X1032718Y515999D02*
X1037833D01*
X1032718Y515099D02*
X1037833D01*
X1032718Y514199D02*
X1037833D01*
X1032718Y513299D02*
X1037833D01*
X1032718Y512399D02*
X1037833D01*
X1032718Y511499D02*
X1037833D01*
X1032718Y510599D02*
X1037833D01*
X1032718Y509699D02*
X1037833D01*
X1032718Y508799D02*
X1037833D01*
X1032718Y507899D02*
X1037833D01*
X1032718Y506999D02*
X1037833D01*
X1032718Y506099D02*
X1037833D01*
X1032718Y505199D02*
X1037833D01*
X1032718Y504299D02*
X1037833D01*
X1032718Y503399D02*
X1037833D01*
X1032718Y502499D02*
X1037833D01*
X1032718Y501599D02*
X1037833D01*
X1032718Y500699D02*
X1037833D01*
X1032718Y499799D02*
X1037833D01*
X1032718Y498899D02*
X1037833D01*
X1032718Y497999D02*
X1037833D01*
X1032718Y497099D02*
X1037833D01*
X1032718Y496199D02*
X1037833D01*
X1032718Y495299D02*
X1037833D01*
X1032718Y494399D02*
X1037833D01*
X1032718Y493499D02*
X1037833D01*
X1032718Y492599D02*
X1037833D01*
X1032718Y491699D02*
X1037833D01*
X1032718Y490799D02*
X1037833D01*
X1032718Y489899D02*
X1037833D01*
X1032718Y488999D02*
X1037833D01*
X1032718Y488099D02*
X1037833D01*
X1032718Y487199D02*
X1037833D01*
X1032726Y486299D02*
X1037833D01*
X1033050Y485399D02*
X1037833D01*
X1033106Y484499D02*
X1037833D01*
X1032883Y483599D02*
X1037833D01*
X1032295Y482699D02*
X1037833D01*
X1030580Y481799D02*
X1037833D01*
X968870Y480899D02*
X1037833D01*
X968870Y479999D02*
X1037833D01*
X968870Y479099D02*
X1037833D01*
X968870Y478199D02*
X1037833D01*
X968870Y477299D02*
X1037833D01*
X961472Y623099D02*
X1037793D01*
X968870Y473699D02*
X1037790D01*
X968870Y476399D02*
X1037720D01*
X961472Y625799D02*
X1037716D01*
X961472Y623999D02*
X1037480D01*
X968870Y474599D02*
X1037478D01*
X968870Y475499D02*
X1037457D01*
X961472Y624899D02*
X1037456D01*
X968870Y481799D02*
X1029656D01*
X789102Y601499D02*
X1028436D01*
X968870Y482699D02*
X1027941D01*
X789102Y600599D02*
X1027570D01*
X968870Y483599D02*
X1027353D01*
X789102Y599699D02*
X1027197D01*
X789102Y598799D02*
X1027126D01*
X968870Y484499D02*
X1027123D01*
X789102Y597899D02*
X1024042D01*
X968870Y485399D02*
X1023724D01*
X789102Y596999D02*
X1023121D01*
X968870Y486299D02*
X1022986D01*
X789102Y594299D02*
X1022793D01*
X789102Y596099D02*
X1022724D01*
X968870Y487199D02*
X1022675D01*
X789102Y595199D02*
X1022634D01*
X968870Y488099D02*
X1020454D01*
X789102Y593399D02*
X1020007D01*
X968870Y488999D02*
X1019266D01*
X789102Y592499D02*
X1019098D01*
X789102Y588899D02*
X1019014D01*
X838720Y587999D02*
X1019014D01*
X840934Y587099D02*
X1019014D01*
X842447Y586199D02*
X1019014D01*
X843622Y585299D02*
X1019014D01*
X844578Y584399D02*
X1019014D01*
X845375Y583499D02*
X1019014D01*
X846046Y582599D02*
X1019014D01*
X846612Y581699D02*
X1019014D01*
X847087Y580799D02*
X1019014D01*
X847482Y579899D02*
X1019014D01*
X847804Y578999D02*
X1019014D01*
X848058Y578099D02*
X1019014D01*
X848247Y577199D02*
X1019014D01*
X848375Y576299D02*
X1019014D01*
X848444Y575399D02*
X1019014D01*
X848453Y574499D02*
X1019014D01*
X848404Y573599D02*
X1019014D01*
X848296Y572699D02*
X1019014D01*
X848126Y571799D02*
X1019014D01*
X847894Y570899D02*
X1019014D01*
X847594Y569999D02*
X1019014D01*
X847224Y569099D02*
X1019014D01*
X846776Y568199D02*
X1019014D01*
X846241Y567299D02*
X1019014D01*
X845606Y566399D02*
X1019014D01*
X844853Y565499D02*
X1019014D01*
X843953Y564599D02*
X1019014D01*
X842859Y563699D02*
X1019014D01*
X841476Y562799D02*
X1019014D01*
X839569Y561899D02*
X1019014D01*
X835097Y560999D02*
X1019014D01*
X789102Y560099D02*
X1019014D01*
X789102Y559199D02*
X1019014D01*
X789102Y558299D02*
X1019014D01*
X789102Y557399D02*
X1019014D01*
X789102Y556499D02*
X1019014D01*
X789102Y555599D02*
X1019014D01*
X789102Y554699D02*
X1019014D01*
X789102Y553799D02*
X1019014D01*
X789102Y552899D02*
X1019014D01*
X789102Y551999D02*
X1019014D01*
X789102Y551099D02*
X1019014D01*
X809430Y550199D02*
X1019014D01*
X811095Y549299D02*
X1019014D01*
X812243Y548399D02*
X1019014D01*
X813112Y547499D02*
X1019014D01*
X996580Y546599D02*
X1019014D01*
X997564Y545699D02*
X1019014D01*
X997983Y544799D02*
X1019014D01*
X998086Y543899D02*
X1019014D01*
X997910Y542999D02*
X1019014D01*
X997389Y542099D02*
X1019014D01*
X996066Y541199D02*
X1019014D01*
X968870Y540299D02*
X1019014D01*
X968870Y539399D02*
X1019014D01*
X968870Y538499D02*
X1019014D01*
X968870Y537599D02*
X1019014D01*
X968870Y536699D02*
X1019014D01*
X968870Y535799D02*
X1019014D01*
X968870Y534899D02*
X1019014D01*
X968870Y533999D02*
X1019014D01*
X968870Y533099D02*
X1019014D01*
X968870Y532199D02*
X1019014D01*
X968870Y531299D02*
X1019014D01*
X968870Y530399D02*
X1019014D01*
X968870Y529499D02*
X1019014D01*
X968870Y528599D02*
X1019014D01*
X968870Y527699D02*
X1019014D01*
X968870Y526799D02*
X1019014D01*
X968870Y525899D02*
X1019014D01*
X968870Y524999D02*
X1019014D01*
X968870Y524099D02*
X1019014D01*
X968870Y523199D02*
X1019014D01*
X968870Y522299D02*
X1019014D01*
X968870Y521399D02*
X1019014D01*
X968870Y520499D02*
X1019014D01*
X968870Y519599D02*
X1019014D01*
X968870Y518699D02*
X1019014D01*
X968870Y517799D02*
X1019014D01*
X968870Y516899D02*
X1019014D01*
X968870Y515999D02*
X1019014D01*
X968870Y515099D02*
X1019014D01*
X968870Y514199D02*
X1019014D01*
X968870Y513299D02*
X1019014D01*
X968870Y512399D02*
X1019014D01*
X968870Y511499D02*
X1019014D01*
X968870Y510599D02*
X1019014D01*
X968870Y509699D02*
X1019014D01*
X968870Y508799D02*
X1019014D01*
X968870Y507899D02*
X1019014D01*
X968870Y506999D02*
X1019014D01*
X968870Y506099D02*
X1019014D01*
X968870Y505199D02*
X1019014D01*
X968870Y504299D02*
X1019014D01*
X968870Y503399D02*
X1019014D01*
X968870Y502499D02*
X1019014D01*
X968870Y501599D02*
X1019014D01*
X968870Y500699D02*
X1019014D01*
X968870Y499799D02*
X1019014D01*
X968870Y498899D02*
X1019014D01*
X968870Y497999D02*
X1019014D01*
X968870Y497099D02*
X1019014D01*
X968870Y496199D02*
X1019014D01*
X968870Y495299D02*
X1019014D01*
X968870Y494399D02*
X1019014D01*
X968870Y493499D02*
X1019014D01*
X968870Y492599D02*
X1019014D01*
X789102Y589799D02*
X1018810D01*
X968870Y489899D02*
X1018774D01*
X968870Y491699D02*
X1018732D01*
X789102Y591599D02*
X1018705D01*
X789102Y590699D02*
X1018619D01*
X968870Y490799D02*
X1018615D01*
X978820Y765299D02*
X996763D01*
X978820Y757199D02*
X996146D01*
X978820Y764399D02*
X995323D01*
X978820Y758099D02*
X995034D01*
X978820Y763499D02*
X994577D01*
X978820Y758999D02*
X994407D01*
X968870Y541199D02*
X994170D01*
X978820Y762599D02*
X994142D01*
X968840Y449399D02*
X994061D01*
X978820Y759899D02*
X994050D01*
X978820Y761699D02*
X993926D01*
X978820Y760799D02*
X993896D01*
X813793Y546599D02*
X993656D01*
X814774Y442199D02*
X993081D01*
X968775Y542099D02*
X992848D01*
X814329Y545699D02*
X992672D01*
X968640Y448499D02*
X992441D01*
X968486Y542999D02*
X992327D01*
X967045Y544799D02*
X992254D01*
X967956Y543899D02*
X992150D01*
X815080Y443099D02*
X992046D01*
X968225Y447599D02*
X991713D01*
X978820Y738299D02*
X991637D01*
X815294Y443999D02*
X991497D01*
X967512Y446699D02*
X991323D01*
X815421Y444899D02*
X991224D01*
X966176Y445799D02*
X991169D01*
X978820Y732899D02*
X990629D01*
X978820Y737399D02*
X990055D01*
X961472Y640199D02*
X989967D01*
X961472Y633899D02*
X989749D01*
X978820Y733799D02*
X989737D01*
X978820Y736499D02*
X989488D01*
X978820Y734699D02*
X989356D01*
X978820Y735599D02*
X989281D01*
X961472Y639299D02*
X989051D01*
X961472Y634799D02*
X988937D01*
X961472Y638399D02*
X988558D01*
X961472Y635699D02*
X988498D01*
X961472Y637499D02*
X988326D01*
X961472Y636599D02*
X988307D01*
X969744Y725699D02*
X971140D01*
X969902Y724799D02*
X971140D01*
X970117Y723899D02*
X971140D01*
X970052Y722999D02*
X971140D01*
X969687Y722099D02*
X971140D01*
X968840Y721199D02*
X971140D01*
X961472Y720299D02*
X971140D01*
X961472Y719399D02*
X971140D01*
X961472Y718499D02*
X971140D01*
X961472Y717599D02*
X971140D01*
X961472Y716699D02*
X971140D01*
X961472Y715799D02*
X971140D01*
X961472Y714899D02*
X971140D01*
X961472Y713999D02*
X971134D01*
X961472Y648299D02*
X967282D01*
X961472Y649199D02*
X966446D01*
X961472Y650099D02*
X966087D01*
X961472Y650999D02*
X965679D01*
X961472Y721199D02*
X965412D01*
X961472Y657299D02*
X965236D01*
X811690Y760799D02*
X965202D01*
X810401Y759899D02*
X965202D01*
X808683Y758999D02*
X965202D01*
X805802Y758099D02*
X965202D01*
X789102Y757199D02*
X965202D01*
X789102Y756299D02*
X965202D01*
X789102Y755399D02*
X965202D01*
X789102Y754499D02*
X965202D01*
X789102Y753599D02*
X965202D01*
X789102Y752699D02*
X965202D01*
X789102Y751799D02*
X965202D01*
X789102Y750899D02*
X965202D01*
X789102Y749999D02*
X965202D01*
X789102Y749099D02*
X965202D01*
X789102Y748199D02*
X965202D01*
X789102Y747299D02*
X965202D01*
X789102Y746399D02*
X965202D01*
X789102Y745499D02*
X965202D01*
X789102Y744599D02*
X965202D01*
X789102Y743699D02*
X965202D01*
X789102Y742799D02*
X965202D01*
X805679Y741899D02*
X965202D01*
X807709Y740999D02*
X965202D01*
X808997Y740099D02*
X965202D01*
X809952Y739199D02*
X965202D01*
X962774Y738299D02*
X965202D01*
X961472Y704999D02*
X965028D01*
X964443Y737399D02*
X964961D01*
X961472Y656399D02*
X964801D01*
X961472Y713099D02*
X964694D01*
X812724Y761699D02*
X964624D01*
X961472Y662699D02*
X964605D01*
X961472Y722099D02*
X964565D01*
X963234Y726599D02*
X964526D01*
X962334Y725699D02*
X964526D01*
X961502Y724799D02*
X964350D01*
X961472Y651899D02*
X964219D01*
X961472Y722999D02*
X964200D01*
X961472Y705899D02*
X964198D01*
X961472Y723899D02*
X964135D01*
X961472Y658199D02*
X964021D01*
X961472Y708599D02*
X963966D01*
X961472Y655499D02*
X963920D01*
X961472Y706799D02*
X963841D01*
X961472Y712199D02*
X963807D01*
X961472Y707699D02*
X963783D01*
X961472Y661799D02*
X963724D01*
X961472Y652799D02*
X963665D01*
X961472Y709499D02*
X963544D01*
X961472Y654599D02*
X963540D01*
X961472Y659099D02*
X963468D01*
X961472Y653699D02*
X963463D01*
X961472Y711299D02*
X963424D01*
X961472Y710399D02*
X963345D01*
X961472Y660899D02*
X963343D01*
X961472Y659999D02*
X963266D01*
X815465Y445799D02*
X962564D01*
X814746Y544799D02*
X961695D01*
X815426Y446699D02*
X961228D01*
X815060Y543899D02*
X960784D01*
X815281Y542999D02*
X960254D01*
X815414Y542099D02*
X959965D01*
X815464Y541199D02*
X959870D01*
X815432Y540299D02*
X959870D01*
X815317Y539399D02*
X959870D01*
X815115Y538499D02*
X959870D01*
X814822Y537599D02*
X959870D01*
X814429Y536699D02*
X959870D01*
X813920Y535799D02*
X959870D01*
X813273Y534899D02*
X959870D01*
X812450Y533999D02*
X959870D01*
X811374Y533099D02*
X959870D01*
X809861Y532199D02*
X959870D01*
X806774Y531299D02*
X959870D01*
X789102Y530399D02*
X959870D01*
X789102Y529499D02*
X959870D01*
X789102Y528599D02*
X959870D01*
X789102Y527699D02*
X959870D01*
X789102Y526799D02*
X959870D01*
X789102Y525899D02*
X959870D01*
X789102Y524999D02*
X959870D01*
X789102Y524099D02*
X959870D01*
X789102Y523199D02*
X959870D01*
X789102Y522299D02*
X959870D01*
X789102Y521399D02*
X959870D01*
X789102Y520499D02*
X959870D01*
X789102Y519599D02*
X959870D01*
X789102Y518699D02*
X959870D01*
X789102Y517799D02*
X959870D01*
X789102Y516899D02*
X959870D01*
X789102Y515999D02*
X959870D01*
X789102Y515099D02*
X959870D01*
X789102Y514199D02*
X959870D01*
X789102Y513299D02*
X959870D01*
X789102Y512399D02*
X959870D01*
X789102Y511499D02*
X959870D01*
X789102Y510599D02*
X959870D01*
X789102Y509699D02*
X959870D01*
X789102Y508799D02*
X959870D01*
X789102Y507899D02*
X959870D01*
X789102Y506999D02*
X959870D01*
X789102Y506099D02*
X959870D01*
X789102Y505199D02*
X959870D01*
X789102Y504299D02*
X959870D01*
X789102Y503399D02*
X959870D01*
X789102Y502499D02*
X959870D01*
X789102Y501599D02*
X959870D01*
X789102Y500699D02*
X959870D01*
X789102Y499799D02*
X959870D01*
X789102Y498899D02*
X959870D01*
X789102Y497999D02*
X959870D01*
X789102Y497099D02*
X959870D01*
X789102Y496199D02*
X959870D01*
X789102Y495299D02*
X959870D01*
X789102Y494399D02*
X959870D01*
X789102Y493499D02*
X959870D01*
X789102Y492599D02*
X959870D01*
X789102Y491699D02*
X959870D01*
X789102Y490799D02*
X959870D01*
X789102Y489899D02*
X959870D01*
X789102Y488999D02*
X959870D01*
X789102Y488099D02*
X959870D01*
X789102Y487199D02*
X959870D01*
X789102Y486299D02*
X959870D01*
X789102Y485399D02*
X959870D01*
X789102Y484499D02*
X959870D01*
X789102Y483599D02*
X959870D01*
X789102Y482699D02*
X959870D01*
X789102Y481799D02*
X959870D01*
X789102Y480899D02*
X959870D01*
X789102Y479999D02*
X959870D01*
X789102Y479099D02*
X959870D01*
X789102Y478199D02*
X959870D01*
X789102Y477299D02*
X959870D01*
X789102Y476399D02*
X959870D01*
X789102Y475499D02*
X959870D01*
X789102Y474599D02*
X959870D01*
X789102Y473699D02*
X959870D01*
X789102Y472799D02*
X959870D01*
X789102Y471899D02*
X959870D01*
X789102Y470999D02*
X959870D01*
X789102Y470099D02*
X959870D01*
X789102Y469199D02*
X959870D01*
X789102Y468299D02*
X959870D01*
X789102Y467399D02*
X959870D01*
X789102Y466499D02*
X959870D01*
X789102Y465599D02*
X959870D01*
X789102Y464699D02*
X959870D01*
X789102Y463799D02*
X959870D01*
X789102Y462899D02*
X959870D01*
X789102Y461999D02*
X959870D01*
X789102Y461099D02*
X959870D01*
X789102Y460199D02*
X959870D01*
X789102Y459299D02*
X959870D01*
X789102Y458399D02*
X959870D01*
X789102Y457499D02*
X959870D01*
X789102Y456599D02*
X959870D01*
X805752Y455699D02*
X959870D01*
X809712Y454799D02*
X959870D01*
X811276Y453899D02*
X959870D01*
X812376Y452999D02*
X959870D01*
X810694Y738299D02*
X958801D01*
X811278Y737399D02*
X957137D01*
X811736Y736499D02*
X956164D01*
X812085Y735599D02*
X955264D01*
X812338Y734699D02*
X954364D01*
X812502Y733799D02*
X953464D01*
X789102Y604199D02*
X953228D01*
X812582Y732899D02*
X952564D01*
X789102Y605099D02*
X951698D01*
X812579Y731999D02*
X951664D01*
X812494Y731099D02*
X950810D01*
X789102Y605999D02*
X950800D01*
X812324Y730199D02*
X950207D01*
X789102Y606899D02*
X950200D01*
X812064Y729299D02*
X949807D01*
X789102Y607799D02*
X949803D01*
X811708Y728399D02*
X949570D01*
X789102Y608699D02*
X949568D01*
X811242Y727499D02*
X949475D01*
X789102Y609599D02*
X949475D01*
X810648Y726599D02*
X949472D01*
X809894Y725699D02*
X949472D01*
X808922Y724799D02*
X949472D01*
X807602Y723899D02*
X949472D01*
X805475Y722999D02*
X949472D01*
X789102Y722099D02*
X949472D01*
X789102Y721199D02*
X949472D01*
X789102Y720299D02*
X949472D01*
X789102Y719399D02*
X949472D01*
X789102Y718499D02*
X949472D01*
X789102Y717599D02*
X949472D01*
X789102Y716699D02*
X949472D01*
X789102Y715799D02*
X949472D01*
X789102Y714899D02*
X949472D01*
X789102Y713999D02*
X949472D01*
X789102Y713099D02*
X949472D01*
X789102Y712199D02*
X949472D01*
X789102Y711299D02*
X949472D01*
X789102Y710399D02*
X949472D01*
X789102Y709499D02*
X949472D01*
X789102Y708599D02*
X949472D01*
X789102Y707699D02*
X949472D01*
X789102Y706799D02*
X949472D01*
X789102Y705899D02*
X949472D01*
X789102Y704999D02*
X949472D01*
X789102Y704099D02*
X949472D01*
X789102Y703199D02*
X949472D01*
X789102Y702299D02*
X949472D01*
X789102Y701399D02*
X949472D01*
X789102Y700499D02*
X949472D01*
X789102Y699599D02*
X949472D01*
X789102Y698699D02*
X949472D01*
X789102Y697799D02*
X949472D01*
X789102Y696899D02*
X949472D01*
X789102Y695999D02*
X949472D01*
X789102Y695099D02*
X949472D01*
X789102Y694199D02*
X949472D01*
X789102Y693299D02*
X949472D01*
X789102Y692399D02*
X949472D01*
X789102Y691499D02*
X949472D01*
X789102Y690599D02*
X949472D01*
X789102Y689699D02*
X949472D01*
X789102Y688799D02*
X949472D01*
X789102Y687899D02*
X949472D01*
X789102Y686999D02*
X949472D01*
X789102Y686099D02*
X949472D01*
X789102Y685199D02*
X949472D01*
X789102Y684299D02*
X949472D01*
X789102Y683399D02*
X949472D01*
X789102Y682499D02*
X949472D01*
X789102Y681599D02*
X949472D01*
X789102Y680699D02*
X949472D01*
X789102Y679799D02*
X949472D01*
X789102Y678899D02*
X949472D01*
X789102Y677999D02*
X949472D01*
X789102Y677099D02*
X949472D01*
X789102Y676199D02*
X949472D01*
X789102Y675299D02*
X949472D01*
X789102Y674399D02*
X949472D01*
X789102Y673499D02*
X949472D01*
X789102Y672599D02*
X949472D01*
X789102Y671699D02*
X949472D01*
X789102Y670799D02*
X949472D01*
X789102Y669899D02*
X949472D01*
X789102Y668999D02*
X949472D01*
X789102Y668099D02*
X949472D01*
X789102Y667199D02*
X949472D01*
X789102Y666299D02*
X949472D01*
X789102Y665399D02*
X949472D01*
X789102Y664499D02*
X949472D01*
X789102Y663599D02*
X949472D01*
X789102Y662699D02*
X949472D01*
X789102Y661799D02*
X949472D01*
X789102Y660899D02*
X949472D01*
X789102Y659999D02*
X949472D01*
X789102Y659099D02*
X949472D01*
X789102Y658199D02*
X949472D01*
X789102Y657299D02*
X949472D01*
X789102Y656399D02*
X949472D01*
X789102Y655499D02*
X949472D01*
X789102Y654599D02*
X949472D01*
X789102Y653699D02*
X949472D01*
X789102Y652799D02*
X949472D01*
X789102Y651899D02*
X949472D01*
X789102Y650999D02*
X949472D01*
X789102Y650099D02*
X949472D01*
X789102Y649199D02*
X949472D01*
X789102Y648299D02*
X949472D01*
X789102Y647399D02*
X949472D01*
X806049Y646499D02*
X949472D01*
X807915Y645599D02*
X949472D01*
X809145Y644699D02*
X949472D01*
X810065Y643799D02*
X949472D01*
X810783Y642899D02*
X949472D01*
X811348Y641999D02*
X949472D01*
X811790Y641099D02*
X949472D01*
X812125Y640199D02*
X949472D01*
X812366Y639299D02*
X949472D01*
X812518Y638399D02*
X949472D01*
X812586Y637499D02*
X949472D01*
X812572Y636599D02*
X949472D01*
X812475Y635699D02*
X949472D01*
X812293Y634799D02*
X949472D01*
X812021Y633899D02*
X949472D01*
X811650Y632999D02*
X949472D01*
X811168Y632099D02*
X949472D01*
X810555Y631199D02*
X949472D01*
X809774Y630299D02*
X949472D01*
X808764Y629399D02*
X949472D01*
X807377Y628499D02*
X949472D01*
X805005Y627599D02*
X949472D01*
X789102Y626699D02*
X949472D01*
X789102Y625799D02*
X949472D01*
X789102Y624899D02*
X949472D01*
X789102Y623999D02*
X949472D01*
X789102Y623099D02*
X949472D01*
X789102Y622199D02*
X949472D01*
X789102Y621299D02*
X949472D01*
X789102Y620399D02*
X949472D01*
X789102Y619499D02*
X949472D01*
X789102Y618599D02*
X949472D01*
X789102Y617699D02*
X949472D01*
X789102Y616799D02*
X949472D01*
X789102Y615899D02*
X949472D01*
X789102Y614999D02*
X949472D01*
X789102Y614099D02*
X949472D01*
X789102Y613199D02*
X949472D01*
X789102Y612299D02*
X949472D01*
X789102Y611399D02*
X949472D01*
X789102Y610499D02*
X949472D01*
X813216Y452099D02*
X918306D01*
X815304Y447599D02*
X918201D01*
X813875Y451199D02*
X917581D01*
X815096Y448499D02*
X917534D01*
X814393Y450299D02*
X917278D01*
X814796Y449399D02*
X917263D01*
X815884Y776999D02*
X907496D01*
X813579Y762599D02*
X906898D01*
X816225Y776099D02*
X906596D01*
X814297Y763499D02*
X905607D01*
X900737Y775199D02*
X905226D01*
X814902Y764399D02*
X904707D01*
X902161Y774299D02*
X904327D01*
X903061Y773399D02*
X903914D01*
X815412Y765299D02*
X903807D01*
X815838Y766199D02*
X902907D01*
X816188Y767099D02*
X902007D01*
X816468Y767999D02*
X901107D01*
X816683Y768899D02*
X900207D01*
X816836Y769799D02*
X898207D01*
X816498Y775199D02*
X897431D01*
X816928Y770699D02*
X896799D01*
X816705Y774299D02*
X896532D01*
X816961Y771599D02*
X896255D01*
X816850Y773399D02*
X896143D01*
X816935Y772499D02*
X896060D01*
X789102Y560999D02*
X834194D01*
X789102Y587999D02*
X830571D01*
X807458Y396299D02*
X830337D01*
X807948Y422399D02*
X829847D01*
X789102Y561899D02*
X829722D01*
X789102Y587099D02*
X828357D01*
X809529Y397199D02*
X828266D01*
X809897Y421499D02*
X827898D01*
X789102Y562799D02*
X827815D01*
X789102Y586199D02*
X826844D01*
X811020Y398099D02*
X826776D01*
X811299Y420599D02*
X826497D01*
X789102Y563699D02*
X826433D01*
X789102Y585299D02*
X825669D01*
X812180Y398999D02*
X825615D01*
X812405Y419699D02*
X825390D01*
X789102Y564599D02*
X825338D01*
X789102Y584399D02*
X824713D01*
X813127Y399899D02*
X824668D01*
X813314Y418799D02*
X824482D01*
X789102Y565499D02*
X824438D01*
X789102Y583499D02*
X823916D01*
X813917Y400799D02*
X823878D01*
X814073Y417899D02*
X823722D01*
X789102Y566399D02*
X823686D01*
X789102Y582599D02*
X823246D01*
X814582Y401699D02*
X823214D01*
X814714Y416999D02*
X823081D01*
X789102Y567299D02*
X823051D01*
X789102Y581699D02*
X822680D01*
X815143Y402599D02*
X822653D01*
X815254Y416099D02*
X822541D01*
X789102Y568199D02*
X822516D01*
X789102Y580799D02*
X822204D01*
X815614Y403499D02*
X822182D01*
X815706Y415199D02*
X822089D01*
X789102Y569099D02*
X822067D01*
X789102Y579899D02*
X821809D01*
X816005Y404399D02*
X821791D01*
X816081Y414299D02*
X821714D01*
X789102Y569999D02*
X821697D01*
X789102Y578999D02*
X821488D01*
X816323Y405299D02*
X821473D01*
X816384Y413399D02*
X821412D01*
X789102Y570899D02*
X821398D01*
X789102Y578099D02*
X821234D01*
X816573Y406199D02*
X821222D01*
X816620Y412499D02*
X821176D01*
X789102Y571799D02*
X821165D01*
X789102Y577199D02*
X821044D01*
X816759Y407099D02*
X821036D01*
X816792Y411599D02*
X821003D01*
X789102Y572699D02*
X820996D01*
X789102Y576299D02*
X820916D01*
X816884Y407999D02*
X820911D01*
X816904Y410699D02*
X820891D01*
X789102Y573599D02*
X820887D01*
X789102Y575399D02*
X820848D01*
X816950Y408899D02*
X820846D01*
X816956Y409799D02*
X820839D01*
X789102Y574499D02*
X820838D01*
X789102Y455699D02*
X805430D01*
X789102Y531299D02*
X804407D01*
X789102Y550199D02*
X801751D01*
X789102Y436799D02*
X801590D01*
X789102Y454799D02*
X801469D01*
X789102Y532199D02*
X801320D01*
X789102Y758099D02*
X800498D01*
X789102Y627599D02*
X800428D01*
X789102Y549299D02*
X800086D01*
X789102Y437699D02*
X799983D01*
X789102Y722999D02*
X799958D01*
X789102Y453899D02*
X799905D01*
X789102Y533099D02*
X799807D01*
X789102Y741899D02*
X799754D01*
X789102Y646499D02*
X799384D01*
X789102Y548399D02*
X798939D01*
X789102Y438599D02*
X798863D01*
X789102Y452999D02*
X798805D01*
X789102Y533999D02*
X798732D01*
X789102Y422399D02*
X798351D01*
X789102Y547499D02*
X798069D01*
X789102Y628499D02*
X798057D01*
X789102Y439499D02*
X798010D01*
X789102Y452099D02*
X797965D01*
X789102Y534899D02*
X797908D01*
X789102Y723899D02*
X797831D01*
X789102Y740999D02*
X797725D01*
X789102Y758999D02*
X797616D01*
X789102Y645599D02*
X797518D01*
X789102Y546599D02*
X797388D01*
X789102Y440399D02*
X797342D01*
X789102Y451199D02*
X797306D01*
X789102Y535799D02*
X797261D01*
X789102Y545699D02*
X796852D01*
X789102Y441299D02*
X796816D01*
X789102Y450299D02*
X796788D01*
X789102Y536699D02*
X796752D01*
X789102Y629399D02*
X796669D01*
X789102Y724799D02*
X796512D01*
X789102Y740099D02*
X796436D01*
X789102Y544799D02*
X796435D01*
X789102Y442199D02*
X796407D01*
X789102Y421499D02*
X796402D01*
X789102Y449399D02*
X796386D01*
X789102Y537599D02*
X796359D01*
X789102Y644699D02*
X796288D01*
X789102Y543899D02*
X796121D01*
X789102Y443099D02*
X796101D01*
X789102Y448499D02*
X796085D01*
X789102Y538499D02*
X796066D01*
X789102Y542999D02*
X795900D01*
X789102Y759899D02*
X795898D01*
X789102Y443999D02*
X795887D01*
X789102Y447599D02*
X795877D01*
X789102Y539399D02*
X795864D01*
X789102Y542099D02*
X795767D01*
X789102Y444899D02*
X795760D01*
X789102Y446699D02*
X795755D01*
X789102Y540299D02*
X795749D01*
X789102Y541199D02*
X795717D01*
X789102Y445799D02*
X795717D01*
X789102Y630299D02*
X795659D01*
X789102Y725699D02*
X795539D01*
X789102Y739199D02*
X795481D01*
X789102Y643799D02*
X795368D01*
X789102Y420599D02*
X795001D01*
X789102Y631199D02*
X794879D01*
X789102Y726599D02*
X794785D01*
X789102Y738299D02*
X794739D01*
X789102Y642899D02*
X794650D01*
X789102Y760799D02*
X794609D01*
X789102Y632099D02*
X794265D01*
X789102Y727499D02*
X794191D01*
X789102Y737399D02*
X794155D01*
X789102Y641999D02*
X794085D01*
X789102Y419699D02*
X793894D01*
X789102Y632999D02*
X793783D01*
X789102Y728399D02*
X793725D01*
X789102Y736499D02*
X793698D01*
X789102Y641099D02*
X793643D01*
X789102Y761699D02*
X793576D01*
X789102Y633899D02*
X793412D01*
X789102Y729299D02*
X793369D01*
X789102Y735599D02*
X793348D01*
X789102Y640199D02*
X793308D01*
X789102Y634799D02*
X793140D01*
X789102Y730199D02*
X793110D01*
X789102Y734699D02*
X793095D01*
X789102Y639299D02*
X793067D01*
X789102Y418799D02*
X792985D01*
X789102Y635699D02*
X792958D01*
X789102Y731099D02*
X792940D01*
X789102Y733799D02*
X792931D01*
X789102Y638399D02*
X792915D01*
X789102Y636599D02*
X792861D01*
X789102Y731999D02*
X792854D01*
X789102Y732899D02*
X792851D01*
X789102Y637499D02*
X792847D01*
X789102Y762599D02*
X792720D01*
X789102Y417899D02*
X792226D01*
X789102Y763499D02*
X792003D01*
X789102Y416999D02*
X791585D01*
X789102Y764399D02*
X791397D01*
X789102Y416099D02*
X791045D01*
X789102Y765299D02*
X790887D01*
X789102Y415199D02*
X790593D01*
X789102Y766199D02*
X790461D01*
X789102Y414299D02*
X790218D01*
X789105Y767099D02*
X790111D01*
X965989Y767443D02*
X971140D01*
X967134Y766543D02*
X971140D01*
X968034Y765643D02*
X971140D01*
X968934Y764743D02*
X971140D01*
X969815Y763843D02*
X971140D01*
X908118Y768343D02*
X970757D01*
X907352Y769243D02*
X969864D01*
X916198Y770143D02*
X968856D01*
X908456D02*
X913211D01*
X909366Y771043D02*
X912222D01*
X909798Y771943D02*
X911797D01*
X787402Y787402D02*
X1377953D01*
Y393701*
X787402*
Y787402*
G54D53*
X1333811Y415906D02*
X1331811D01*
X1328268Y421449D02*
Y419449D01*
X1322724Y415906D02*
X1324724D01*
X1328268Y410362D02*
Y412362D01*
X1335071Y776929D02*
X1333071D01*
X1330118Y781882D02*
Y779882D01*
Y771976D02*
Y773976D01*
G74*
X0Y0D02*
M02*
