*
*
G04 PADS VX.1.2 Build Number: 698008 generated Gerber (RS-274-X) file*
G04 PC Version=2.1*
*
%IN "R06-MIC-SENSOR-V1.0.pcb"*%
*
%MOIN*%
*
%FSLAX35Y35*%
*
*
*
*
G04 PC Standard Apertures*
*
*
G04 Thermal Relief Aperture macro.*
%AMTER*
1,1,$1,0,0*
1,0,$1-$2,0,0*
21,0,$3,$4,0,0,45*
21,0,$3,$4,0,0,135*
%
*
*
G04 Annular Aperture macro.*
%AMANN*
1,1,$1,0,0*
1,0,$2,0,0*
%
*
*
G04 Odd Aperture macro.*
%AMODD*
1,1,$1,0,0*
1,0,$1-0.005,0,0*
%
*
*
G04 PC Custom Aperture Macros*
*
*
*
*
*
*
G04 PC Aperture Table*
*
%ADD047C,0.015*%
%ADD067C,0.005*%
%ADD118C,0.001*%
%ADD134C,0.01969*%
%ADD531ANN,0.04819X0.0248*%
*
*
*
*
G04 PC Circuitry*
G04 Layer Name R06-MIC-SENSOR-V1.0.pcb - circuitry*
%LPD*%
*
*
G04 PC Custom Flashes*
G04 Layer Name R06-MIC-SENSOR-V1.0.pcb - flashes*
%LPD*%
*
*
G04 PC Circuitry*
G04 Layer Name R06-MIC-SENSOR-V1.0.pcb - circuitry*
%LPD*%
*
G54D47*
G01X2004784Y1586018D02*
X2004799Y1586034D01*
X2004947Y1586037*
Y1593318*
X2006096Y1594468*
X2035437*
X1938841Y1587377D02*
Y1588227D01*
X1942100Y1590637D02*
X1941250D01*
X1938841Y1593896D02*
Y1593046D01*
X1935581Y1590637D02*
X1936431D01*
X2060888Y1593896D02*
Y1593046D01*
X2057629Y1590637D02*
X2058479D01*
X2060888Y1587377D02*
Y1588227D01*
X2064148Y1590637D02*
X2063298D01*
G54D67*
X2064148D02*
G75*
G03X2064148I-3260J0D01*
G01X1942100D02*
G03X1942100I-3259J0D01*
G01X2067343Y1580812D02*
Y1601237D01*
G03X2067093Y1601487I-250J-0*
G01X1932961*
G03X1932711Y1601237I-0J-250*
G01Y1580812*
G03X1932961Y1580562I250J0*
G01X2067093*
G03X2067343Y1580812I-0J250*
G01X2064148Y1590637D02*
G03X2064148I-3260J0D01*
G01X2033523Y1592783D02*
G03Y1596153I1914J1685D01*
G01Y1592783D02*
G03X2033336Y1592868I-187J-165D01*
G01X2006863*
G03X2006686Y1592795I-0J-250*
G01X2006620Y1592729*
G03X2006547Y1592552I177J-177*
G01Y1587964*
G03X2006617Y1587790I250J0*
G01X2003247Y1588053D02*
G03X2006617Y1587790I1537J-2035D01*
G01X2003247Y1588053D02*
G03X2003347Y1588252I-150J199D01*
G01Y1593318*
X2003815Y1594450D02*
G03X2003347Y1593318I1132J-1132D01*
G01X2003815Y1594450D02*
X2004965Y1595599D01*
X2006096Y1596068D02*
G03X2004965Y1595599I0J-1600D01*
G01X2006096Y1596068D02*
X2033336D01*
G03X2033523Y1596153I-0J250*
G01X1942100Y1590637D02*
G03X1942100I-3259J0D01*
G01X1932711Y1600823D02*
X2067343D01*
X1932711Y1600373D02*
X2067343D01*
X1932711Y1599923D02*
X2067343D01*
X1932711Y1599473D02*
X2067343D01*
X1932711Y1599023D02*
X2067343D01*
X1932711Y1598573D02*
X2067343D01*
X1932711Y1598123D02*
X2067343D01*
X1932711Y1597673D02*
X2067343D01*
X1932711Y1597223D02*
X2067343D01*
X2036528Y1596773D02*
X2067343D01*
X2037187Y1596323D02*
X2067343D01*
X2037565Y1595873D02*
X2067343D01*
X2037801Y1595423D02*
X2067343D01*
X2037936Y1594973D02*
X2067343D01*
X2037986Y1594523D02*
X2067343D01*
X2037956Y1594073D02*
X2067343D01*
X2062195Y1593623D02*
X2067343D01*
X2062936Y1593173D02*
X2067343D01*
X2063393Y1592723D02*
X2067343D01*
X2063707Y1592273D02*
X2067343D01*
X2063924Y1591823D02*
X2067343D01*
X2064063Y1591373D02*
X2067343D01*
X2064135Y1590923D02*
X2067343D01*
X2064143Y1590473D02*
X2067343D01*
X2064089Y1590023D02*
X2067343D01*
X2063969Y1589573D02*
X2067343D01*
X2063775Y1589123D02*
X2067343D01*
X2063489Y1588673D02*
X2067343D01*
X2063078Y1588223D02*
X2067343D01*
X2062444Y1587773D02*
X2067343D01*
X2006974Y1587323D02*
X2067343D01*
X2007186Y1586873D02*
X2067343D01*
X2007301Y1586423D02*
X2067343D01*
X2007333Y1585973D02*
X2067343D01*
X2007285Y1585523D02*
X2067343D01*
X2007152Y1585073D02*
X2067343D01*
X2006918Y1584623D02*
X2067343D01*
X2006543Y1584173D02*
X2067343D01*
X2005893Y1583723D02*
X2067343D01*
X1932711Y1583273D02*
X2067343D01*
X1932711Y1582823D02*
X2067343D01*
X1932711Y1582373D02*
X2067343D01*
X1932711Y1581923D02*
X2067343D01*
X1932711Y1581473D02*
X2067343D01*
X1932711Y1581023D02*
X2067343D01*
X1932713Y1601273D02*
X2067340D01*
X1932889Y1580573D02*
X2067164D01*
X2037843Y1593623D02*
X2059581D01*
X2006634Y1587773D02*
X2059332D01*
X2037633Y1593173D02*
X2058840D01*
X2006547Y1588223D02*
X2058698D01*
X2037296Y1592723D02*
X2058384D01*
X2006547Y1588673D02*
X2058287D01*
X2036734Y1592273D02*
X2058069D01*
X2006547Y1589123D02*
X2058002D01*
X2006547Y1591823D02*
X2057852D01*
X2006547Y1589573D02*
X2057807D01*
X2006547Y1591373D02*
X2057713D01*
X2006547Y1590023D02*
X2057687D01*
X2006547Y1590923D02*
X2057641D01*
X2006547Y1590473D02*
X2057633D01*
X1932711Y1596773D02*
X2034347D01*
X2006547Y1592273D02*
X2034141D01*
X1932711Y1596323D02*
X2033688D01*
X2006614Y1592723D02*
X2033578D01*
X1932711Y1595873D02*
X2005330D01*
X1932711Y1595423D02*
X2004788D01*
X1932711Y1594973D02*
X2004338D01*
X1932711Y1594523D02*
X2003888D01*
X1932711Y1583723D02*
X2003674D01*
X1932711Y1594073D02*
X2003536D01*
X1940148Y1593623D02*
X2003376D01*
X1940889Y1593173D02*
X2003347D01*
X1941345Y1592723D02*
X2003347D01*
X1941660Y1592273D02*
X2003347D01*
X1941877Y1591823D02*
X2003347D01*
X1942016Y1591373D02*
X2003347D01*
X1942088Y1590923D02*
X2003347D01*
X1942096Y1590473D02*
X2003347D01*
X1942042Y1590023D02*
X2003347D01*
X1941922Y1589573D02*
X2003347D01*
X1941727Y1589123D02*
X2003347D01*
X1941442Y1588673D02*
X2003347D01*
X1941031Y1588223D02*
X2003345D01*
X1932711Y1584173D02*
X2003025D01*
X1940397Y1587773D02*
X2002934D01*
X1932711Y1584623D02*
X2002650D01*
X1932711Y1587323D02*
X2002593D01*
X1932711Y1585073D02*
X2002416D01*
X1932711Y1586873D02*
X2002382D01*
X1932711Y1585523D02*
X2002283D01*
X1932711Y1586423D02*
X2002266D01*
X1932711Y1585973D02*
X2002235D01*
X1932711Y1593623D02*
X1937534D01*
X1932711Y1587773D02*
X1937285D01*
X1932711Y1593173D02*
X1936793D01*
X1932711Y1588223D02*
X1936651D01*
X1932711Y1592723D02*
X1936336D01*
X1932711Y1588673D02*
X1936240D01*
X1932711Y1592273D02*
X1936022D01*
X1932711Y1589123D02*
X1935954D01*
X1932711Y1591823D02*
X1935805D01*
X1932711Y1589573D02*
X1935760D01*
X1932711Y1591373D02*
X1935666D01*
X1932711Y1590023D02*
X1935640D01*
X1932711Y1590923D02*
X1935594D01*
X1932711Y1590473D02*
X1935586D01*
X1930961Y1578812D02*
X2069093D01*
Y1621188*
X1930961*
Y1578812*
X1930907Y1603226D02*
X2069041D01*
Y1603229*
G54D118*
G54D134*
X1936295Y1582460D03*
X1940750Y1582101D03*
X1946529Y1582219D03*
X1952068Y1581987D03*
X1956569Y1581977D03*
X1968401Y1581797D03*
X1962058Y1581987D03*
X1975921Y1581873D03*
X1996723Y1584401D03*
X2004784Y1586018D03*
X2023125Y1583745D03*
X2030192Y1582682D03*
X2057170Y1585547D03*
X2057349Y1581730D03*
X2064803Y1581671D03*
X1966540Y1592774D03*
X1961488Y1592470D03*
X1973301Y1594293D03*
X1988164Y1589002D03*
X1980403Y1588596D03*
X1997647Y1589074D03*
X1992784Y1588856D03*
X2019785Y1589177D03*
X2035437Y1594468D03*
X2038358Y1588380D03*
X2034066Y1589937D03*
X1934786Y1599800D03*
X1944168D03*
X1939478Y1599840D03*
X1948889Y1599912D03*
X1965894Y1600066D03*
X1984505Y1596610D03*
X1978618Y1596496D03*
X1996795Y1599818D03*
X2030230Y1600116D03*
X2038385Y1599567D03*
X2046675Y1599799D03*
X2053175Y1599620D03*
X2058041Y1599224D03*
X2063312Y1599918D03*
G54D531*
X2060888Y1590637D03*
X1938841D03*
G74*
X0Y0D02*
M02*
