%
T1C.01299F095S3
X01256Y010315
X01211Y010316
X010978Y010327
X011556Y010339
X010533Y010363
X010382Y012097
X01132Y012097
X010851Y012101
X011792Y012109
X013493Y012124
X015354Y011778
X014765Y011767
X014233Y011547
X013557Y011395
X013052Y011364
X014944Y010977
X013109Y010316
X014495Y010305
X013743Y010297
X016576Y010557
X017382Y010719
X016182Y011003
X01572Y011018
X016668Y011025
X016583Y012099
X019926Y012129
X02031Y011111
X018882Y011035
X019216Y010492
X019923Y010386
X022638Y01029
X02262Y010672
X020739Y010955
X020447Y011564
X022707Y01204
X020742Y012074
X022221Y012079
X021571Y012097
X023235Y012109
X023384Y010284
T2C.03937F197S55
X010787Y011181
X022992Y011181
M30
