*
*
G04 PADS VX.1.2 Build Number: 698008 generated Gerber (RS-274-X) file*
G04 PC Version=2.1*
*
%IN "R06-MIC-SENSOR-V1.0.pcb"*%
*
%MOIN*%
*
%FSLAX35Y35*%
*
*
*
*
G04 PC Standard Apertures*
*
*
G04 Thermal Relief Aperture macro.*
%AMTER*
1,1,$1,0,0*
1,0,$1-$2,0,0*
21,0,$3,$4,0,0,45*
21,0,$3,$4,0,0,135*
%
*
*
G04 Annular Aperture macro.*
%AMANN*
1,1,$1,0,0*
1,0,$2,0,0*
%
*
*
G04 Odd Aperture macro.*
%AMODD*
1,1,$1,0,0*
1,0,$1-0.005,0,0*
%
*
*
G04 PC Custom Aperture Macros*
*
*
*
*
*
*
G04 PC Aperture Table*
*
%ADD067C,0.005*%
%ADD073C,0.007*%
%ADD118C,0.001*%
%ADD532C,0.0015*%
*
*
*
*
G04 PC Circuitry*
G04 Layer Name R06-MIC-SENSOR-V1.0.pcb - circuitry*
%LPD*%
*
*
G04 PC Custom Flashes*
G04 Layer Name R06-MIC-SENSOR-V1.0.pcb - flashes*
%LPD*%
*
*
G04 PC Circuitry*
G04 Layer Name R06-MIC-SENSOR-V1.0.pcb - circuitry*
%LPD*%
*
G54D67*
G01X2050595Y1596768D02*
Y1584957D01*
X2065398*
Y1596768*
X2050595D02*
X2065398D01*
X2047472Y1595846D02*
G75*
G03X2044716I-1378J-1378D01*
G01Y1589941*
X2044718Y1589940D02*
G03X2047473Y1589942I1376J1589D01*
G01X2047472Y1589941D02*
Y1595846D01*
X2041127Y1585711D02*
Y1588467D01*
X2047427*
Y1585711*
X2041127*
X2041096Y1581364D02*
Y1584120D01*
X2047396*
Y1581364*
X2041096*
X2042806Y1595848D02*
G03X2040050I-1378J-1378D01*
G01Y1589943*
X2040051Y1589942D02*
G03X2042807Y1589944I1377J1589D01*
G01X2042806Y1589943D02*
Y1595848D01*
X1956239Y1585999D02*
G03X1958995I1378J1378D01*
G01Y1591904*
X1958994Y1591905D02*
G03X1956238Y1591903I-1377J-1589D01*
G01X1956239Y1591904D02*
Y1585999D01*
X1958661Y1599554D02*
Y1596798D01*
X1952361*
Y1599554*
X1958661*
X1958589Y1596000D02*
Y1593244D01*
X1952289*
Y1596000*
X1958589*
X1952200Y1585935D02*
G03X1954956I1378J1378D01*
G01Y1591840*
X1954954Y1591842D02*
G03X1952198Y1591839I-1376J-1590D01*
G01X1952200Y1591840D02*
Y1585935D01*
X1949134Y1584957D02*
Y1596768D01*
X1934331*
Y1584957*
X1949134D02*
X1934331D01*
X2021966Y1581010D02*
Y1583510D01*
X2022080Y1583979*
X2022193Y1584135*
X2022420Y1584291*
X2022648*
X2022875Y1584135*
X2022989Y1583979*
X2023102Y1583510*
Y1583198*
X2020943Y1581635D02*
X2020716Y1581479D01*
X2020375Y1581010*
Y1584291*
X1930961Y1579038D02*
X2069093D01*
Y1621414*
X1930961*
Y1579038*
X1930907Y1603452D02*
X2069041D01*
Y1603455*
G54D73*
X1982429Y1578686D02*
Y1587832D01*
X2017304*
Y1578686*
X1982429*
X1983239Y1588293D02*
Y1591895D01*
X1987531*
X2016813Y1588600D02*
Y1591639D01*
X2012082*
G54D118*
G54D532*
X2051624Y1587060D02*
X2052327D01*
X2052468Y1587094*
X2052562Y1587162*
X2052609Y1587264*
Y1587332*
X2052562Y1587435*
X2052468Y1587503*
X2052327Y1587537*
X2051624*
X2051812Y1587844D02*
X2051765Y1587912D01*
X2051624Y1588014*
X2052609*
X1948105Y1594666D02*
X1947402D01*
X1947261Y1594632*
X1947167Y1594564*
X1947120Y1594461*
Y1594393*
X1947167Y1594291*
X1947261Y1594223*
X1947402Y1594189*
X1948105*
X1947870Y1593848D02*
X1947917D01*
X1948011Y1593814*
X1948058Y1593780*
X1948105Y1593711*
Y1593575*
X1948058Y1593507*
X1948011Y1593473*
X1947917Y1593439*
X1947824*
X1947730Y1593473*
X1947589Y1593541*
X1947120Y1593882*
Y1593405*
G74*
X0Y0D02*
M02*
