*
*
G04 PADS VX.2.3 Build Number: 9191294 generated Gerber (RS-274-X) file*
G04 PC Version=2.1*
*
%IN "GETWAY_LTE_ZM_V1.0_2018"*%
*
%MOIN*%
*
%FSLAX35Y35*%
*
*
*
*
G04 PC Standard Apertures*
*
*
G04 Thermal Relief Aperture macro.*
%AMTER*
1,1,$1,0,0*
1,0,$1-$2,0,0*
21,0,$3,$4,0,0,45*
21,0,$3,$4,0,0,135*
%
*
*
G04 Annular Aperture macro.*
%AMANN*
1,1,$1,0,0*
1,0,$2,0,0*
%
*
*
G04 Odd Aperture macro.*
%AMODD*
1,1,$1,0,0*
1,0,$1-0.005,0,0*
%
*
*
G04 PC Custom Aperture Macros*
*
*
*
*
*
*
G04 PC Aperture Table*
*
%ADD010C,0.001*%
%ADD011R,0.02362X0.09055*%
%ADD013R,0.02559X0.09055*%
%ADD014C,0.00709*%
%ADD015R,0.02362X0.07087*%
%ADD016R,0.07087X0.02362*%
%ADD017O,0.0315X0.05906*%
%ADD018R,0.03937X0.07087*%
*
*
*
*
G04 PC Circuitry*
G04 Layer Name GETWAY_LTE_ZM_V1.0_2018 - circuitry*
%LPD*%
*
*
G04 PC Custom Flashes*
G04 Layer Name GETWAY_LTE_ZM_V1.0_2018 - flashes*
%LPD*%
*
*
G04 PC Circuitry*
G04 Layer Name GETWAY_LTE_ZM_V1.0_2018 - circuitry*
%LPD*%
*
G54D10*
G54D11*
G01X210839Y295500D03*
X207689D03*
G54D13*
X204539D03*
X201390D03*
X198240D03*
X195091D03*
X191941D03*
X188791D03*
X173043D03*
X169894D03*
X166744D03*
X163594D03*
X160445D03*
X157295D03*
X154146D03*
X150996D03*
X147846D03*
X144697D03*
X141547D03*
X138398D03*
X135248D03*
X132098D03*
X128949D03*
X125799D03*
X122650D03*
X119500D03*
G54D14*
X201323Y260810D02*
X202977D01*
Y254432*
X201323*
Y260810*
Y254488D02*
X202977D01*
X201323Y255197D02*
X202977D01*
X201323Y255906D02*
X202977D01*
X201323Y256614D02*
X202977D01*
X201323Y257323D02*
X202977D01*
X201323Y258031D02*
X202977D01*
X201323Y258740D02*
X202977D01*
X201323Y259449D02*
X202977D01*
X201323Y260157D02*
X202977D01*
X201339Y254432D02*
Y260810D01*
X202047Y254432D02*
Y260810D01*
X202756Y254432D02*
Y260810D01*
G54D15*
X198213Y257621D03*
X194276D03*
X190339D03*
X186402D03*
X182465D03*
X178528D03*
X174591D03*
X170654D03*
X166717D03*
X162780D03*
X158843D03*
X154906D03*
X150969D03*
X147031D03*
X143094D03*
X139157D03*
X135220D03*
X131283D03*
X127346D03*
Y138724D03*
X131283D03*
X135220D03*
X139157D03*
X143094D03*
X147031D03*
X150969D03*
X154906D03*
X158843D03*
X162780D03*
X166717D03*
X170654D03*
X174591D03*
X178528D03*
X182465D03*
X186402D03*
X190339D03*
X194276D03*
X198213D03*
X202150D03*
X123409Y257621D03*
Y138724D03*
X206087D03*
G54D16*
X105299Y235574D03*
Y231637D03*
Y227700D03*
Y223763D03*
Y219826D03*
Y215889D03*
Y211952D03*
Y208015D03*
Y204078D03*
Y200141D03*
Y196204D03*
Y192267D03*
Y188330D03*
Y184393D03*
Y180456D03*
Y176519D03*
Y172582D03*
Y168645D03*
Y164708D03*
Y160771D03*
X224197D03*
Y164708D03*
Y168645D03*
Y172582D03*
Y176519D03*
Y180456D03*
Y184393D03*
Y188330D03*
Y192267D03*
Y196204D03*
Y200141D03*
Y204078D03*
Y208015D03*
Y211952D03*
Y215889D03*
Y219826D03*
Y223763D03*
Y227700D03*
Y231637D03*
Y235574D03*
X105299Y156834D03*
Y239511D03*
X224197D03*
Y156834D03*
G54D17*
X138643Y120681D03*
G54D18*
X143761Y113594D03*
X133525D03*
X0Y0D02*
M02*
