*
*
G04 PADS VX.1.2 Build Number: 698008 generated Gerber (RS-274-X) file*
G04 PC Version=2.1*
*
%IN "LockBase_ZM_V1.0_201808"*%
*
%MOIN*%
*
%FSLAX35Y35*%
*
*
*
*
G04 PC Standard Apertures*
*
*
G04 Thermal Relief Aperture macro.*
%AMTER*
1,1,$1,0,0*
1,0,$1-$2,0,0*
21,0,$3,$4,0,0,45*
21,0,$3,$4,0,0,135*
%
*
*
G04 Annular Aperture macro.*
%AMANN*
1,1,$1,0,0*
1,0,$2,0,0*
%
*
*
G04 Odd Aperture macro.*
%AMODD*
1,1,$1,0,0*
1,0,$1-0.005,0,0*
%
*
*
G04 PC Custom Aperture Macros*
*
*
*
*
*
*
G04 PC Aperture Table*
*
%ADD010C,0.001*%
%ADD012R,0.036X0.036*%
%ADD013R,0.036X0.05*%
%ADD014R,0.03149X0.0378*%
%ADD015R,0.04724X0.01772*%
%ADD016R,0.11811X0.07874*%
%ADD017R,0.0378X0.03149*%
%ADD018R,0.07874X0.07874*%
%ADD019R,0.11811X0.03937*%
%ADD020R,0.03937X0.07874*%
%ADD022R,0.038X0.038*%
%ADD023R,0.04724X0.07874*%
%ADD024R,0.09843X0.0315*%
%ADD026R,0.02362X0.07874*%
*
*
*
*
G04 PC Circuitry*
G04 Layer Name LockBase_ZM_V1.0_201808 - circuitry*
%LPD*%
*
*
G04 PC Custom Flashes*
G04 Layer Name LockBase_ZM_V1.0_201808 - flashes*
%LPD*%
*
*
G04 PC Circuitry*
G04 Layer Name LockBase_ZM_V1.0_201808 - circuitry*
%LPD*%
*
G54D10*
G54D12*
G01X228736Y172028D03*
X236236D03*
G54D13*
X232486Y180028D03*
G54D14*
X303739Y149757D03*
Y143458D03*
X297228Y149812D03*
Y143513D03*
X272245Y177045D03*
Y170746D03*
X220883Y181570D03*
Y187868D03*
G54D15*
X263360Y171142D03*
Y177047D03*
Y182953D03*
G54D16*
X251549Y177047D03*
G54D17*
X253385Y151997D03*
X259683D03*
X230146Y120240D03*
X236445D03*
X121272Y179227D03*
X114973D03*
X301755Y196068D03*
X308053D03*
X280231Y195958D03*
X286530D03*
X253424Y159008D03*
X259723D03*
G54D18*
X247617Y200979D03*
X263365D03*
G54D19*
X203289Y133963D03*
Y141837D03*
Y149711D03*
Y157585D03*
Y165459D03*
Y173333D03*
Y181207D03*
Y189081D03*
X140297D03*
Y181207D03*
Y173333D03*
Y165459D03*
Y157585D03*
Y149711D03*
Y141837D03*
Y133963D03*
G54D20*
X191478Y196955D03*
X183604D03*
X175730D03*
X167856D03*
X159982D03*
X152108D03*
X106930Y132583D03*
G54D22*
X236437Y113260D03*
X230137D03*
X235181Y145785D03*
X228881D03*
X270764Y130898D03*
Y124598D03*
X260791Y131012D03*
Y124712D03*
X121276Y196546D03*
X114976D03*
X279256Y142358D03*
Y148658D03*
X288073Y142651D03*
Y148951D03*
X121348Y187684D03*
X115048D03*
X220906Y165695D03*
Y171995D03*
X235044Y164143D03*
X228744D03*
X235158Y137996D03*
X228858D03*
X228941Y128427D03*
X235241D03*
G54D23*
X124647Y165654D03*
Y132583D03*
X106930Y165654D03*
G54D24*
X317138Y129642D03*
Y149327D03*
G54D26*
X286689Y163474D03*
X291689D03*
X296689D03*
X301689D03*
Y187096D03*
X296689D03*
X291689D03*
X286689D03*
X0Y0D02*
M02*
