*
*
G04 PADS VX.2.3 Build Number: 9191294 generated Gerber (RS-274-X) file*
G04 PC Version=2.1*
*
%IN "MODULE_LORA_ZM_V1.0_201"*%
*
%MOIN*%
*
%FSLAX35Y35*%
*
*
*
*
G04 PC Standard Apertures*
*
*
G04 Thermal Relief Aperture macro.*
%AMTER*
1,1,$1,0,0*
1,0,$1-$2,0,0*
21,0,$3,$4,0,0,45*
21,0,$3,$4,0,0,135*
%
*
*
G04 Annular Aperture macro.*
%AMANN*
1,1,$1,0,0*
1,0,$2,0,0*
%
*
*
G04 Odd Aperture macro.*
%AMODD*
1,1,$1,0,0*
1,0,$1-0.005,0,0*
%
*
*
G04 PC Custom Aperture Macros*
*
*
*
*
*
*
G04 PC Aperture Table*
*
%ADD010C,0.001*%
%ADD017R,0.0378X0.03149*%
%ADD021ANN,0.05906X0.03543*%
%ADD022R,0.038X0.038*%
%ADD028C,0.03*%
%ADD029C,0.02*%
%ADD033C,0.01*%
%ADD034C,0.015*%
%ADD059ANN,0.05906X0.0354*%
%ADD061R,0.01772X0.00984*%
%ADD062R,0.02756X0.00984*%
%ADD063R,0.00984X0.01772*%
%ADD064R,0.00984X0.02756*%
*
*
*
*
G04 PC Circuitry*
G04 Layer Name MODULE_LORA_ZM_V1.0_201 - circuitry*
%LPD*%
*
*
G04 PC Custom Flashes*
G04 Layer Name MODULE_LORA_ZM_V1.0_201 - flashes*
%LPD*%
*
*
G04 PC Circuitry*
G04 Layer Name MODULE_LORA_ZM_V1.0_201 - circuitry*
%LPD*%
*
G54D10*
G54D17*
G01X160000Y176000D03*
X166299D03*
X168378Y132567D03*
X174677D03*
X158846Y150661D03*
X165145D03*
X168374Y138449D03*
X174673D03*
X158815Y156854D03*
X165114D03*
G54D21*
X111339Y105732D03*
X121339D03*
X131339D03*
X141339D03*
X151339D03*
X161339D03*
X171339D03*
X140862Y117669D03*
X150862D03*
X160862D03*
X170862D03*
G54D22*
X126993Y118988D03*
X120693D03*
X159527Y166913D03*
X165827D03*
X157291Y135985D03*
Y129685D03*
X148787Y136115D03*
Y129815D03*
G54D28*
X163652Y108046D02*
X167299Y111693D01*
X174750*
X177743Y114686*
Y124196*
X168378Y135544D02*
Y130605D01*
Y132567*
X177743Y124196D02*
X175307Y126632D01*
X169698*
X168378Y127952*
Y130605*
Y135544D02*
Y142037D01*
X166110Y144305*
X161521*
X159237Y146589*
Y150661*
X158846*
X137494Y126425D03*
X136966Y165724D03*
X124169Y175767D03*
G54D29*
X168378Y132567D02*
Y135544D01*
Y138449*
X168374*
X168378Y135544D02*
X164448D01*
Y135652*
X158846Y150661D02*
X158815D01*
Y156854*
X105879Y102200D03*
X175879D03*
X105879Y112200D03*
Y122200D03*
X124407Y112762D03*
X155879Y122200D03*
X117633Y128132D03*
X115879Y132200D03*
X126767Y130524D03*
X122420Y129869D03*
X127131Y123797D03*
X120831Y123970D03*
X140078Y132522D03*
X119618Y141677D03*
X124669Y139292D03*
X152791Y136748D03*
X164448Y135652D03*
X126000Y146000D03*
X122057Y143841D03*
X131474Y151008D03*
X140491Y150705D03*
X147921Y149978D03*
X150223Y152216D03*
X150985Y149639D03*
X152297Y147372D03*
X156098Y147336D03*
X139819Y159837D03*
X142299Y158646D03*
X168254Y160728D03*
X125879Y172200D03*
X140728Y163234D03*
X153076Y167542D03*
X155017Y164665D03*
X155751Y170420D03*
X170439Y168623D03*
X105879Y182200D03*
X137850Y181319D03*
X145724Y177236D03*
X145879Y182200D03*
X155879D03*
X165879D03*
X175879D03*
X105879Y192200D03*
X115879D03*
X125879D03*
X133475Y187063D03*
X135784Y184329D03*
X135879Y192200D03*
X145879D03*
X155879D03*
X168769Y185245D03*
X165879Y192200D03*
X175879D03*
X105879Y202200D03*
X115879D03*
X125879D03*
X135879D03*
X145879D03*
X155879D03*
X165879D03*
X175879D03*
X105879Y212200D03*
X115879D03*
X125879D03*
X135879D03*
X145879D03*
X155879D03*
X165879D03*
X175879D03*
X105879Y222200D03*
X115879D03*
X125879D03*
X135879D03*
X145879D03*
X165879D03*
X175879D03*
X105879Y232200D03*
X145879D03*
X165879D03*
X175879D03*
G54D33*
X135514Y109908D02*
X131339Y108185D01*
X133791Y105732*
X135514Y109908*
X133524Y106000D02*
X133902D01*
X132524Y107000D02*
X134314D01*
X131524Y108000D02*
X134727D01*
X133314Y109000D02*
X135140D01*
X132000Y107524D02*
Y108458D01*
X133000Y106524D02*
Y108871D01*
X134000Y106238D02*
Y109283D01*
X135000Y108661D02*
Y109696D01*
X145490Y109884D02*
X141339Y108185D01*
X143791Y105732*
X145490Y109884*
X143524Y106000D02*
X143901D01*
X142524Y107000D02*
X144310D01*
X141524Y108000D02*
X144719D01*
X143330Y109000D02*
X145129D01*
X142000Y107524D02*
Y108456D01*
X143000Y106524D02*
Y108865D01*
X144000Y106242D02*
Y109274D01*
X145000Y108686D02*
Y109683D01*
X120831Y121970D02*
X121185Y123616D01*
X120477*
X120831Y121970*
X120825Y122000D02*
X120837D01*
X120610Y123000D02*
X121052D01*
X121000Y122757D02*
Y123616D01*
X134957Y117669D02*
X139128Y115935D01*
Y119404*
X134957Y117669*
X138971Y116000D02*
X139128D01*
X136566Y117000D02*
X139128D01*
X135752Y118000D02*
X139128D01*
X138157Y119000D02*
X139128D01*
X135000Y117651D02*
Y117687D01*
X136000Y117235D02*
Y118103D01*
X137000Y116820D02*
Y118519D01*
X138000Y116404D02*
Y118935D01*
X139000Y115988D02*
Y119350D01*
X150862Y122604D02*
X149128Y119404D01*
X152597*
X150862Y122604*
X149451Y120000D02*
X152273D01*
X149993Y121000D02*
X151731D01*
X150535Y122000D02*
X151189D01*
X150000Y119404D02*
Y121013D01*
X151000Y119404D02*
Y122350D01*
X152000Y119404D02*
Y120504D01*
X166686Y121845D02*
X168409Y117669D01*
X170862Y120122*
X166686Y121845*
X168273Y118000D02*
X168740D01*
X167860Y119000D02*
X169740D01*
X167448Y120000D02*
X170740D01*
X167035Y121000D02*
X168735D01*
X167000Y121085D02*
Y121716D01*
X168000Y118662D02*
Y121303D01*
X169000Y118260D02*
Y120890D01*
X170000Y119260D02*
Y120478D01*
X128181Y131938D02*
X126767Y131024D01*
X127267Y130524*
X128181Y131938*
X126791Y131000D02*
X127575D01*
X127000Y130791D02*
Y131175D01*
X128000Y131658D02*
Y131821D01*
X128545Y125211D02*
X127131Y124297D01*
X127631Y123797*
X128545Y125211*
X127428Y124000D02*
X127762D01*
X128218Y125000D02*
X128409D01*
X128000Y124368D02*
Y124859D01*
X140078Y134522D02*
X139724Y132876D01*
X140432*
X140078Y134522*
X139751Y133000D02*
X140405D01*
X139966Y134000D02*
X140190D01*
X140000Y132876D02*
Y134159D01*
X150883Y145958D02*
X152297Y146872D01*
X151797Y147372*
X150883Y145958*
X150910Y146000D02*
X150948D01*
X151557Y147000D02*
X152169D01*
X151000Y146034D02*
Y146139D01*
X152000Y146680D02*
Y147169D01*
X124669Y141292D02*
X124315Y139646D01*
X125023*
X124669Y141292*
X124392Y140000D02*
X124946D01*
X124606Y141000D02*
X124732D01*
X125000Y139646D02*
Y139751D01*
X156098Y145656D02*
X156452Y146982D01*
X155744*
X156098Y145656*
X156006Y146000D02*
X156190D01*
X156000Y146024D02*
Y146982D01*
X126000Y148000D02*
X125646Y146354D01*
X126354*
X126000Y148000*
X125785Y147000D02*
X126215D01*
X126000Y148000D02*
X126000D01*
Y146354D02*
Y148000D01*
X166706Y160728D02*
X167869Y160409D01*
Y161047*
X166706Y160728*
X167697Y161000D02*
X167869D01*
X167000Y160647D02*
Y160809D01*
X157751Y170420D02*
X156105Y170774D01*
Y170066*
X157751Y170420*
X157000Y170259D02*
Y170581D01*
X170183Y183831D02*
X169269Y185245D01*
X168769Y184745*
X170183Y183831*
X169921Y184000D02*
X170074D01*
X169024Y185000D02*
X169427D01*
X169000Y184596D02*
Y184976D01*
X170000Y183949D02*
Y184114D01*
X132945Y107339D02*
X136922Y111316D01*
X140240*
X144915Y115991*
X142945Y107339D02*
X146551Y110945D01*
Y124507*
X120693Y118988D02*
X120831D01*
Y123970*
X126993Y118988D02*
Y119284D01*
X131514*
X144915Y115991D02*
Y121614D01*
X142790Y123739*
X138591Y117669D02*
X133129D01*
X131514Y119284*
X150862Y119941D02*
Y124104D01*
X148787Y126179*
Y129815*
X169256Y119276D02*
X164552Y123980D01*
Y127992*
X162859Y129685*
X157291*
X117633Y128132D02*
Y128254D01*
X130218Y140839*
X122370Y130004D02*
X132242Y139876D01*
Y145767*
X135882Y149407*
Y154823*
X126767Y130524D02*
X134212Y137969D01*
Y144655*
X137850Y148293*
Y154823*
X122420Y129869D02*
Y129954D01*
X122370Y130004*
X127131Y123797D02*
X137216Y133882D01*
Y141048*
X145724Y149556*
Y154322*
X140078Y132522D02*
Y140614D01*
X147921Y148457*
Y149978*
X146551Y124507D02*
X144390Y126668D01*
Y139465*
X152297Y147372*
X142790Y123739D02*
Y141062D01*
X151176Y149448*
X119571Y162110D02*
Y141543D01*
X119618*
Y141677*
X130218Y140839D02*
Y145602D01*
X129973Y145847*
X124669Y139292D02*
Y144331D01*
X123900Y145100*
Y153155*
X148787Y136115D02*
Y136809D01*
X152786*
X152791Y136748D02*
X152786Y136809D01*
X157291Y135985D02*
Y142963D01*
X156098Y144156*
Y147336*
X129973Y145847D02*
X133913Y149787D01*
Y154322*
X126000Y146000D02*
Y156714D01*
X128046Y158760*
X131945*
X122057Y143841D02*
X122000Y144000D01*
Y160260*
X131474Y151008D02*
X131445D01*
Y156791*
X140491Y150705D02*
X142339D01*
X143756Y152122*
Y154823*
X150223Y152216D02*
X150142D01*
Y156791*
X151176Y149448D02*
X150985Y149639D01*
X119571Y162110D02*
X122126Y164665D01*
X131945*
X123900Y153155D02*
Y158475D01*
X126153Y160728*
X131945*
X122000Y160260D02*
X124437Y162697D01*
X131945*
X139819Y159837D02*
X139819D01*
Y154823*
X141787D02*
Y158134D01*
X142299Y158646*
X147693Y158760D02*
X145217Y158813D01*
X140796Y163234*
X140728*
X163349Y162081D02*
X164389Y163121D01*
X167390*
X170439Y166170*
Y168623*
X163349Y162081D02*
X150787D01*
X150171Y162697*
X147693*
X164959Y160481D02*
X165206Y160728D01*
X168254*
X164959Y160481D02*
X147940D01*
X147693Y160728*
X137850Y170571D02*
Y174500D01*
X135882Y170571D02*
Y176683D01*
X135750Y176815*
Y182192*
X133913Y171071D02*
Y174648D01*
X133416Y175145*
Y187063*
X145724Y171071D02*
Y177236D01*
X145724*
X147693Y164665D02*
X155017D01*
X147693Y166634D02*
X152168D01*
X153076Y167542*
X148193Y168602D02*
X150891D01*
X151785Y169496*
Y173976*
X153808Y175999*
X160000*
Y176000*
X159527Y170231D02*
Y171383D01*
X160000Y171856*
Y176000*
X159527Y170231D02*
X159338Y170420D01*
X155751*
X155017Y164665D02*
X155017D01*
X159527Y166913D02*
Y170231D01*
X165827Y166913D02*
Y170867D01*
X166905Y171945*
X171226*
X171903Y172622*
X137900Y174500D02*
X137850D01*
Y181319*
X135750Y182192D02*
X135784Y182226D01*
Y184329*
X137850Y181319D02*
X137850D01*
X171903Y172622D02*
Y182111D01*
X168769Y185245*
X133475Y187063D02*
X133416D01*
X163134Y117669D02*
G75*
G03X163134I-2272J0D01*
G01X181577Y113082D02*
G03X180627Y113299I-500J-0D01*
G01X180006Y112423D02*
G03X180627Y113299I-2263J2263D01*
G01X180006Y112423D02*
X177013Y109430D01*
X174750Y108493D02*
G03X177013Y109430I0J3200D01*
G01X174750Y108493D02*
X172942D01*
G03X172653Y107585I0J-500*
G01X170024D02*
G03X172653I1315J-1853D01*
G01X170024D02*
G03X169735Y108493I-289J408D01*
G01X168832*
G03X168478Y108347I-0J-500*
G01X166137Y106005*
G03X165991Y105660I354J-353*
G01X164118Y102001D02*
G03X165991Y105660I-2779J3731D01*
G01X164118Y102001D02*
G03X164417Y101100I299J-401D01*
G01X181077*
G03X181577Y101600I0J500*
G01Y113082*
Y240132D02*
G03X181077Y240632I-500J0D01*
G01X162216*
G03X161873Y239768I-0J-500*
G01X154395D02*
G03X161873I3739J-3969D01*
G01X154395D02*
G03X154052Y240632I-343J364D01*
G01X101600*
G03X101100Y240132I0J-500*
G01Y101600*
G03X101600Y101100I500J0*
G01X108260*
G03X108559Y102001I0J500*
G01X115853Y106857D02*
G03X108559Y102001I-4514J-1125D01*
G01X115853Y106857D02*
G03X116824I486J121D01*
G01X125853D02*
G03X116824I-4514J-1125D01*
G01X125853D02*
G03X126824I486J121D01*
G01X130771Y110350D02*
G03X126824Y106857I568J-4618D01*
G01X130771Y110350D02*
G03X130901Y110384I-61J497D01*
G01X134177Y111736*
G03X134340Y111845I-191J462*
G01X135367Y112872*
X136763Y113510D02*
G03X135367Y112872I159J-2194D01*
G01X136763Y113510D02*
G03X136919Y114471I-36J499D01*
G01X134610Y115431*
G03X134418Y115469I-192J-462*
G01X133129*
X131573Y116114D02*
G03X133129Y115469I1556J1555D01*
G01X131573Y116114D02*
X131219Y116468D01*
G03X130417Y116336I-354J-354*
G01X128893Y115388D02*
G03X130417Y116336I-0J1700D01*
G01X128893Y115388D02*
X125093D01*
X124127Y115689D02*
G03X125093Y115388I966J1399D01*
G01X124127Y115689D02*
G03X123558I-284J-411D01*
G01X122593Y115388D02*
G03X123558Y115689I-0J1700D01*
G01X122593Y115388D02*
X118793D01*
X117092Y117088D02*
G03X118793Y115388I1701J0D01*
G01X117092Y117088D02*
Y120888D01*
X118047Y122416D02*
G03X117092Y120888I746J-1528D01*
G01X118047Y122416D02*
G03X118297Y123038I-219J449D01*
G01X118131Y123970D02*
G03X118297Y123038I2700J0D01*
G01X118257Y124785D02*
G03X118131Y123970I2574J-815D01*
G01X118257Y124785D02*
G03X117757Y125435I-477J150D01*
G01X116910Y130733D02*
G03X117757Y125435I723J-2601D01*
G01X116910Y130733D02*
G03X117129Y130861I-134J482D01*
G01X122853Y136586*
G03X123000Y136939I-353J353*
X122839Y137307I-500J0*
G01X121975Y139106D02*
G03X122839Y137307I2694J186D01*
G01X121975Y139106D02*
G03X121186Y139479I-498J-34D01*
G01X117300Y143062D02*
G03X121186Y139479I2318J-1385D01*
G01X117300Y143062D02*
G03X117371Y143318I-429J256D01*
G01Y162110*
X118017Y163668D02*
G03X117371Y162110I1554J-1558D01*
G01X118017Y163668D02*
X120570Y166221D01*
X122126Y166865D02*
G03X120570Y166221I-0J-2200D01*
G01X122126Y166865D02*
X128380D01*
G03X128877Y167311I-0J500*
G01X128907Y167493D02*
G03X128877Y167311I1660J-367D01*
G01X128907Y167493D02*
G03X128905Y167717I-488J108D01*
G01X128859Y168110D02*
G03X128905Y167717I1700J0D01*
G01X128859Y168110D02*
Y169094D01*
X130559Y170795D02*
G03X128859Y169094I0J-1701D01*
G01X130559Y170795D02*
X131213D01*
G03X131713Y171295I-0J500*
G01Y173584*
G03X131621Y173873I-500J-0*
G01X131216Y175145D02*
G03X131621Y173873I2200J-0D01*
G01X131216Y175145D02*
Y185442D01*
G03X131147Y185695I-500J-0*
G01X136159Y187354D02*
G03X131147Y185695I-2684J-291D01*
G01X136159Y187354D02*
G03X136520Y186927I497J54D01*
G01X138484Y184329D02*
G03X136520Y186927I-2700J0D01*
G01X138484Y184314D02*
G03Y184329I-2700J15D01*
G01Y184314D02*
Y184311D01*
G03X138807Y183844I500J0*
G01X140128Y179870D02*
G03X138807Y183844I-2278J1449D01*
G01X140128Y179870D02*
G03X140050Y179602I422J-268D01*
G01Y175015*
G03X140060Y174920I500J0*
G01X140100Y174500D02*
G03X140060Y174920I-2200J0D01*
G01X140100Y174500D02*
X140100D01*
X140080Y174201D02*
G03X140100Y174500I-2180J299D01*
G01X140080Y174201D02*
G03X140075Y174133I495J-68D01*
X140515Y173637I500J-0*
G01X140691Y173606D02*
G03X140515Y173637I-380J-1657D01*
G01X140691Y173606D02*
G03X140915I112J487D01*
G01X141295Y173649D02*
G03X140915Y173606I0J-1700D01*
G01X141295Y173649D02*
X142280D01*
X142660Y173606D02*
G03X142280Y173649I-380J-1657D01*
G01X142660Y173606D02*
G03X142883I112J487D01*
G01X143078Y173639D02*
G03X142884Y173606I186J-1690D01*
G01X143078Y173639D02*
G03X143524Y174136I-54J497D01*
G01Y175519*
G03X143446Y175787I-500J-0*
G01X148424Y177236D02*
G03X143446Y175787I-2700J0D01*
G01X148002D02*
G03X148424Y177236I-2278J1449D01*
G01X148002Y175787D02*
G03X147924Y175518I422J-269D01*
G01Y171302*
G03X148424Y170802I500J0*
G01X149085*
G03X149585Y171302I-0J500*
G01Y173976*
X150229Y175532D02*
G03X149585Y173976I1556J-1556D01*
G01X150229Y175532D02*
X152252Y177555D01*
X153808Y178199D02*
G03X152252Y177555I0J-2200D01*
G01X153808Y178199D02*
X156219D01*
G03X156649Y178444I-0J500*
G01X158110Y179275D02*
G03X156649Y178443I-0J-1700D01*
G01X158110Y179275D02*
X161890D01*
X162863Y178969D02*
G03X161890Y179275I-973J-1394D01*
G01X162863Y178969D02*
G03X163436I286J410D01*
G01X164409Y179275D02*
G03X163436Y178969I-0J-1700D01*
G01X164409Y179275D02*
X168189D01*
X168973Y179083D02*
G03X168189Y179275I-784J-1508D01*
G01X168973Y179083D02*
G03X169703Y179527I230J444D01*
G01Y180993*
G03X169557Y181346I-500J-0*
G01X168830Y182072*
G03X168748Y182139I-353J-353*
G01X167944Y182659*
G03X167844Y182708I-271J-420*
G01X171306Y186170D02*
G03X167844Y182708I-2537J-925D01*
G01X171306Y186170D02*
G03X171355Y186070I469J171D01*
G01X171875Y185266*
G03X171942Y185184I420J271*
G01X173459Y183667*
X174103Y182111D02*
G03X173459Y183667I-2200J-0D01*
G01X174103Y182111D02*
Y172622D01*
X173457Y171065D02*
G03X174103Y172622I-1554J1557D01*
G01X173457Y171065D02*
X172897Y170505D01*
G03X172811Y169912I354J-354*
G01X172717Y167174D02*
G03X172811Y169912I-2278J1449D01*
G01X172717Y167174D02*
G03X172639Y166905I422J-269D01*
G01Y166170*
X171995Y164614D02*
G03X172639Y166170I-1556J1556D01*
G01X171995Y164614D02*
X170427Y163046D01*
G03X170280Y162692I353J-354*
X170385Y162385I500J0*
G01X169056Y158150D02*
G03X170385Y162385I-802J2578D01*
G01X169056Y158150D02*
G03X168704Y157672I148J-478D01*
G01Y155280*
X168244Y154116D02*
G03X168704Y155280I-1240J1164D01*
G01X168244Y154116D02*
G03X168251Y153425I364J-342D01*
G01X168735Y152236D02*
G03X168251Y153425I-1700J0D01*
G01X168735Y152236D02*
Y149087D01*
X168013Y147696D02*
G03X168735Y149087I-978J1391D01*
G01X168013Y147696D02*
G03X168005Y146884I288J-409D01*
G01X168373Y146568D02*
G03X168005Y146884I-2263J-2263D01*
G01X168373Y146568D02*
X170641Y144300D01*
X171577Y142098D02*
G03X170641Y144300I-3199J-61D01*
G01X171577Y142098D02*
G03X172238Y141634I500J9D01*
G01X172783Y141724D02*
G03X172238Y141634I-0J-1700D01*
G01X172783Y141724D02*
X176563D01*
X178263Y140024D02*
G03X176563Y141724I-1700J-0D01*
G01X178263Y140024D02*
Y136874D01*
X177897Y135820D02*
G03X178263Y136874I-1334J1054D01*
G01X177897Y135820D02*
G03X177789Y135510I392J-310D01*
X177898Y135199I500J0*
G01X178267Y134142D02*
G03X177898Y135199I-1700J-0D01*
G01X178267Y134142D02*
Y130992D01*
X177610Y129650D02*
G03X178267Y130992I-1043J1342D01*
G01X177610Y129650D02*
G03X177564Y128901I307J-395D01*
G01X177570Y128894*
X180005Y126460*
X180627Y125583D02*
G03X180005Y126460I-2884J-1387D01*
G01X180627Y125583D02*
G03X181577Y125800I450J217D01*
G01Y240132*
X166244Y117102D02*
G03X166750Y115492I4618J567D01*
G01X166244Y117102D02*
G03X166210Y117232I-496J-61D01*
G01X164858Y120508*
G03X164750Y120671I-462J-191*
G01X162996Y122424*
X162352Y123980D02*
G03X162996Y122424I2200J-0D01*
G01X162352Y123980D02*
Y126874D01*
G03X162205Y127227I-500J-0*
G01X162095Y127338*
G03X161741Y127485I-354J-353*
G01X161241*
G03X160775Y127166I-0J-500*
G01X159191Y126085D02*
G03X160775Y127166I0J1700D01*
G01X159191Y126085D02*
X155391D01*
X153691Y127785D02*
G03X155391Y126085I1700J-0D01*
G01X153691Y127785D02*
Y131585D01*
X153992Y132551D02*
G03X153691Y131585I1399J-966D01*
G01X153992Y132551D02*
G03X154081Y132835I-411J284D01*
G01X154081*
G03X153992Y133119I-500J-0*
G01X153736Y133695D02*
G03X153992Y133119I1655J390D01*
G01X153736Y133695D02*
G03X153178Y134076I-486J-114D01*
G01X152785Y134048D02*
G03X153178Y134076I6J2700D01*
G01X152785Y134048D02*
G03X152308Y133699I-1J-500D01*
G01X152086Y133249D02*
G03X152308Y133699I-1399J966D01*
G01X152086Y133249D02*
G03Y132680I412J-284D01*
G01X152387Y131715D02*
G03X152086Y132680I-1700J-0D01*
G01X152387Y131715D02*
Y127915D01*
X151958Y126785D02*
G03X152387Y127915I-1271J1130D01*
G01X151958Y126785D02*
G03X151832Y126453I374J-332D01*
X151978Y126099I500J-0*
G01X152418Y125659*
X153062Y124104D02*
G03X152418Y125659I-2200J-0D01*
G01X153062Y124104D02*
Y123288D01*
G03X153123Y123050I500J0*
G01X154379Y120733*
G03X154434Y120651I439J238*
G01X149407Y113250D02*
G03X154434Y120651I1455J4419D01*
G01X149407Y113250D02*
G03X148751Y112775I-156J-475D01*
G01Y110945*
X148709Y110517D02*
G03X148751Y110945I-2158J428D01*
G01X148709Y110517D02*
G03X148700Y110420I491J-97D01*
X149407Y109965I500J0*
G01X155853Y106857D02*
G03X149407Y109965I-4514J-1125D01*
G01X155853Y106857D02*
G03X156824I486J121D01*
G01X161266Y110384D02*
G03X156824Y106857I73J-4652D01*
G01X161266Y110384D02*
G03X161612Y110531I-8J500D01*
G01X165037Y113956*
X166442Y114776D02*
G03X165037Y113956I857J-3083D01*
G01X166442Y114776D02*
G03X166750Y115492I-134J482D01*
G01X140590Y123739D02*
G03X140731Y122963I2200J0D01*
G01X140590Y123739D02*
Y129322D01*
G03X140088Y129822I-500J0*
G01X138006Y130791D02*
G03X140088Y129822I2072J1731D01*
G01X138006Y130791D02*
G03X137269Y130824I-384J-321D01*
G01X130304Y123858*
G03X130237Y123776I353J-353*
G01X129718Y122973*
G03X129638Y122702I420J-271*
X129855Y122290I500J-0*
G01X130367Y121735D02*
G03X129855Y122290I-1474J-847D01*
G01X130367Y121735D02*
G03X130800Y121484I433J249D01*
G01X131514*
X133071Y120838D02*
G03X131514Y121484I-1557J-1554D01*
G01X133071Y120838D02*
X133894Y120016D01*
G03X134247Y119869I353J353*
G01X134418*
G03X134610Y119908I-0J500*
G01X137882Y121268*
G03X137998Y121336I-192J462*
G01X140321Y122291D02*
G03X137998Y121336I541J-4622D01*
G01X140321Y122291D02*
G03X140731Y122963I-58J496D01*
G01X144671Y165650D02*
G03X144658Y165761I-500J-0D01*
G01X144615Y166142D02*
G03X144658Y165761I1700J-0D01*
G01X144615Y166142D02*
Y166993D01*
G03X144115Y167493I-500J-0*
G01X143264*
X142883Y167536D02*
G03X143264Y167493I381J1657D01*
G01X142883Y167536D02*
G03X142660I-111J-487D01*
G01X142280Y167493D02*
G03X142660Y167536I-0J1700D01*
G01X142280Y167493D02*
X141295D01*
X140915Y167536D02*
G03X141295Y167493I380J1657D01*
G01X140915Y167536D02*
G03X140691I-112J-487D01*
G01X140311Y167493D02*
G03X140691Y167536I0J1700D01*
G01X140311Y167493D02*
X139327D01*
X138946Y167536D02*
G03X139327Y167493I381J1657D01*
G01X138946Y167536D02*
G03X138723I-111J-487D01*
G01X138343Y167493D02*
G03X138723Y167536I-0J1700D01*
G01X138343Y167493D02*
X137358D01*
X136978Y167536D02*
G03X137358Y167493I380J1657D01*
G01X136978Y167536D02*
G03X136754I-112J-487D01*
G01X136374Y167493D02*
G03X136754Y167536I0J1700D01*
G01X136374Y167493D02*
X135523D01*
G03X135023Y166993I-0J-500*
G01Y166142*
X134980Y165761D02*
G03X135023Y166142I-1657J381D01*
G01X134980Y165761D02*
G03X134967Y165650I487J-111D01*
G01X134967*
G03X134980Y165538I500J-0*
G01X135023Y165157D02*
G03X134980Y165538I-1700J0D01*
G01X135023Y165157D02*
Y164173D01*
X134980Y163793D02*
G03X135023Y164173I-1657J380D01*
G01X134980Y163793D02*
G03X134967Y163681I487J-112D01*
G01X134967*
G03X134980Y163569I500J0*
G01X135023Y163189D02*
G03X134980Y163569I-1700J-0D01*
G01X135023Y163189D02*
Y162205D01*
X134980Y161824D02*
G03X135023Y162205I-1657J381D01*
G01X134980Y161824D02*
G03X134967Y161713I487J-111D01*
G01X134967*
G03X134980Y161601I500J-0*
G01X135023Y161220D02*
G03X134980Y161601I-1700J0D01*
G01X135023Y161220D02*
Y160236D01*
X134980Y159856D02*
G03X135023Y160236I-1657J380D01*
G01X134980Y159856D02*
G03X134967Y159744I487J-112D01*
G01X134967*
G03X134980Y159632I500J0*
G01X135023Y159252D02*
G03X134980Y159632I-1700J-0D01*
G01X135023Y159252D02*
Y158401D01*
G03X135523Y157901I500J-0*
G01X136374*
X136754Y157858D02*
G03X136374Y157901I-380J-1657D01*
G01X136754Y157858D02*
G03X136978I112J487D01*
G01X137063Y157875D02*
G03X136978Y157858I295J-1674D01*
G01X137063Y157875D02*
G03X137421Y158597I-87J492D01*
G01X141921Y161532D02*
G03X137421Y158597I-2102J-1695D01*
G01X141921Y161532D02*
G03X142308Y161346I389J314D01*
G01X143832Y160869D02*
G03X142308Y161346I-1533J-2223D01*
G01X143832Y160869D02*
G03X144616Y161267I284J411D01*
G01X144658Y161601D02*
G03X144616Y161267I1657J-381D01*
G01X144658Y161601D02*
G03X144671Y161713I-487J112D01*
G01X144671*
G03X144658Y161824I-500J-0*
G01X144615Y162205D02*
G03X144658Y161824I1700J-0D01*
G01X144615Y162205D02*
Y163189D01*
X144658Y163569D02*
G03X144615Y163189I1657J-380D01*
G01X144658Y163569D02*
G03X144671Y163681I-487J112D01*
G01X144671*
G03X144658Y163793I-500J0*
G01X144615Y164173D02*
G03X144658Y163793I1700J0D01*
G01X144615Y164173D02*
Y165157D01*
X144658Y165538D02*
G03X144615Y165157I1657J-381D01*
G01X144658Y165538D02*
G03X144671Y165650I-487J112D01*
G01X144671*
X129178Y228542D02*
G03X128223I-477J-149D01*
G01X119265Y228796D02*
G03X128223Y228542I4515J1125D01*
G01X119265Y228796D02*
G03X118294I-485J-121D01*
G01Y231047D02*
G03Y228796I-4514J-1126D01*
G01Y231047D02*
G03X119265I486J121D01*
G01X128223Y231301D02*
G03X119265Y231047I-4443J-1380D01*
G01X128223Y231301D02*
G03X129178I478J148D01*
G01Y228542D02*
G03Y231301I4444J1379D01*
G01X163134Y117669D02*
G03X163134I-2272J0D01*
G01X180327Y112799D02*
X181577D01*
X179481Y111899D02*
X181577D01*
X178581Y110999D02*
X181577D01*
X177681Y110099D02*
X181577D01*
X176755Y109199D02*
X181577D01*
X172547Y108299D02*
X181577D01*
X172882Y107399D02*
X181577D01*
X173477Y106499D02*
X181577D01*
X173606Y105599D02*
X181577D01*
X173362Y104699D02*
X181577D01*
X172531Y103799D02*
X181577D01*
X165029Y102899D02*
X181577D01*
X164115Y101999D02*
X181577D01*
X165571Y103799D02*
X170146D01*
X168431Y108299D02*
X170131D01*
X167531Y107399D02*
X169795D01*
X165875Y104699D02*
X169316D01*
X166631Y106499D02*
X169200D01*
X165989Y105599D02*
X169071D01*
X161946Y239699D02*
X181577D01*
X162688Y238799D02*
X181577D01*
X163166Y237899D02*
X181577D01*
X163453Y236999D02*
X181577D01*
X163579Y236099D02*
X181577D01*
X163554Y235199D02*
X181577D01*
X163376Y234299D02*
X181577D01*
X163030Y233399D02*
X181577D01*
X162475Y232499D02*
X181577D01*
X161611Y231599D02*
X181577D01*
X160063Y230699D02*
X181577D01*
X138273Y229799D02*
X181577D01*
X138161Y228899D02*
X181577D01*
X137859Y227999D02*
X181577D01*
X137321Y227099D02*
X181577D01*
X136414Y226199D02*
X181577D01*
X134154Y225299D02*
X181577D01*
X101100Y224399D02*
X181577D01*
X101100Y223499D02*
X181577D01*
X101100Y222599D02*
X181577D01*
X101100Y221699D02*
X181577D01*
X101100Y220799D02*
X181577D01*
X101100Y219899D02*
X181577D01*
X101100Y218999D02*
X181577D01*
X101100Y218099D02*
X181577D01*
X101100Y217199D02*
X181577D01*
X101100Y216299D02*
X181577D01*
X101100Y215399D02*
X181577D01*
X101100Y214499D02*
X181577D01*
X101100Y213599D02*
X181577D01*
X101100Y212699D02*
X181577D01*
X101100Y211799D02*
X181577D01*
X101100Y210899D02*
X181577D01*
X101100Y209999D02*
X181577D01*
X101100Y209099D02*
X181577D01*
X101100Y208199D02*
X181577D01*
X101100Y207299D02*
X181577D01*
X101100Y206399D02*
X181577D01*
X101100Y205499D02*
X181577D01*
X101100Y204599D02*
X181577D01*
X101100Y203699D02*
X181577D01*
X101100Y202799D02*
X181577D01*
X101100Y201899D02*
X181577D01*
X101100Y200999D02*
X181577D01*
X101100Y200099D02*
X181577D01*
X101100Y199199D02*
X181577D01*
X101100Y198299D02*
X181577D01*
X101100Y197399D02*
X181577D01*
X101100Y196499D02*
X181577D01*
X101100Y195599D02*
X181577D01*
X101100Y194699D02*
X181577D01*
X101100Y193799D02*
X181577D01*
X101100Y192899D02*
X181577D01*
X101100Y191999D02*
X181577D01*
X101100Y191099D02*
X181577D01*
X101100Y190199D02*
X181577D01*
X134989Y189299D02*
X181577D01*
X135821Y188399D02*
X181577D01*
X170256Y187499D02*
X181577D01*
X171105Y186599D02*
X181577D01*
X171595Y185699D02*
X181577D01*
X172327Y184799D02*
X181577D01*
X173227Y183899D02*
X181577D01*
X173916Y182999D02*
X181577D01*
X174103Y182099D02*
X181577D01*
X174103Y181199D02*
X181577D01*
X174103Y180299D02*
X181577D01*
X174103Y179399D02*
X181577D01*
X174103Y178499D02*
X181577D01*
X174103Y177599D02*
X181577D01*
X174103Y176699D02*
X181577D01*
X174103Y175799D02*
X181577D01*
X174103Y174899D02*
X181577D01*
X174103Y173999D02*
X181577D01*
X174103Y173099D02*
X181577D01*
X174062Y172199D02*
X181577D01*
X173661Y171299D02*
X181577D01*
X172816Y170399D02*
X181577D01*
X172993Y169499D02*
X181577D01*
X173139Y168599D02*
X181577D01*
X172976Y167699D02*
X181577D01*
X172639Y166799D02*
X181577D01*
X172622Y165899D02*
X181577D01*
X172302Y164999D02*
X181577D01*
X171479Y164099D02*
X181577D01*
X170579Y163199D02*
X181577D01*
X170450Y162299D02*
X181577D01*
X170869Y161399D02*
X181577D01*
X170944Y160499D02*
X181577D01*
X170707Y159599D02*
X181577D01*
X170035Y158699D02*
X181577D01*
X168720Y157799D02*
X181577D01*
X168704Y156899D02*
X181577D01*
X168704Y155999D02*
X181577D01*
X168694Y155099D02*
X181577D01*
X168316Y154199D02*
X181577D01*
X168362Y153299D02*
X181577D01*
X168728Y152399D02*
X181577D01*
X168735Y151499D02*
X181577D01*
X168735Y150599D02*
X181577D01*
X168735Y149699D02*
X181577D01*
X168711Y148799D02*
X181577D01*
X168252Y147899D02*
X181577D01*
X167892Y146999D02*
X181577D01*
X168842Y146099D02*
X181577D01*
X169742Y145199D02*
X181577D01*
X170642Y144299D02*
X181577D01*
X171274Y143399D02*
X181577D01*
X171544Y142499D02*
X181577D01*
X177202Y141599D02*
X181577D01*
X178123Y140699D02*
X181577D01*
X178263Y139799D02*
X181577D01*
X178263Y138899D02*
X181577D01*
X178263Y137999D02*
X181577D01*
X178263Y137099D02*
X181577D01*
X178123Y136199D02*
X181577D01*
X177836Y135299D02*
X181577D01*
X178247Y134399D02*
X181577D01*
X178267Y133499D02*
X181577D01*
X178267Y132599D02*
X181577D01*
X178267Y131699D02*
X181577D01*
X178256Y130799D02*
X181577D01*
X177869Y129899D02*
X181577D01*
X177487Y128999D02*
X181577D01*
X178366Y128099D02*
X181577D01*
X179266Y127199D02*
X181577D01*
X180155Y126299D02*
X181577D01*
X180779Y125399D02*
X181375D01*
X162036Y240599D02*
X181257D01*
X140350Y180299D02*
X169703D01*
X147340Y179399D02*
X169686D01*
X140547Y181199D02*
X169659D01*
X140435Y182099D02*
X168802D01*
X136140Y187499D02*
X167282D01*
X139964Y182999D02*
X167271D01*
X137246Y186599D02*
X166433D01*
X138702Y183899D02*
X166429D01*
X138111Y185699D02*
X166107D01*
X138443Y184799D02*
X166106D01*
X148111Y178499D02*
X156683D01*
X138210Y230699D02*
X156205D01*
X137962Y231599D02*
X154657D01*
X101100Y239699D02*
X154322D01*
X101420Y240599D02*
X154232D01*
X137496Y232499D02*
X153793D01*
X101100Y238799D02*
X153580D01*
X136714Y233399D02*
X153238D01*
X101100Y237899D02*
X153101D01*
X135200Y234299D02*
X152891D01*
X101100Y236999D02*
X152814D01*
X101100Y235199D02*
X152714D01*
X101100Y236099D02*
X152689D01*
X148400Y177599D02*
X152298D01*
X148370Y176699D02*
X151396D01*
X148010Y175799D02*
X150496D01*
X147924Y174899D02*
X149788D01*
X147924Y173999D02*
X149585D01*
X147924Y173099D02*
X149585D01*
X147924Y172199D02*
X149585D01*
X147924Y171299D02*
X149585D01*
X140050Y179399D02*
X144108D01*
X140064Y174899D02*
X143524D01*
X140093Y173999D02*
X143505D01*
X140050Y175799D02*
X143438D01*
X140050Y178499D02*
X143337D01*
X140050Y176699D02*
X143078D01*
X140050Y177599D02*
X143048D01*
X101100Y113699D02*
X137119D01*
X101100Y114599D02*
X136611D01*
X101100Y112799D02*
X135294D01*
X101100Y111899D02*
X134394D01*
X124311Y225299D02*
X133090D01*
X129496Y115499D02*
X132770D01*
X101100Y110999D02*
X132390D01*
X125357Y234299D02*
X132045D01*
X101100Y189299D02*
X131961D01*
X101100Y173099D02*
X131713D01*
X101100Y172199D02*
X131713D01*
X101100Y171299D02*
X131713D01*
X101100Y173999D02*
X131538D01*
X130454Y116399D02*
X131288D01*
X101100Y174899D02*
X131230D01*
X101100Y184799D02*
X131216D01*
X101100Y183899D02*
X131216D01*
X101100Y182999D02*
X131216D01*
X101100Y182099D02*
X131216D01*
X101100Y181199D02*
X131216D01*
X101100Y180299D02*
X131216D01*
X101100Y179399D02*
X131216D01*
X101100Y178499D02*
X131216D01*
X101100Y177599D02*
X131216D01*
X101100Y176699D02*
X131216D01*
X101100Y175799D02*
X131216D01*
X101100Y185699D02*
X131145D01*
X101100Y188399D02*
X131129D01*
X126571Y226199D02*
X130830D01*
X101100Y186599D02*
X130815D01*
X101100Y187499D02*
X130810D01*
X126871Y233399D02*
X130530D01*
X127479Y227099D02*
X129923D01*
X127653Y232499D02*
X129748D01*
X122946Y110099D02*
X129732D01*
X101100Y170399D02*
X129469D01*
X128017Y227999D02*
X129385D01*
X128120Y231599D02*
X129282D01*
X101100Y167699D02*
X128909D01*
X101100Y169499D02*
X128908D01*
X101100Y168599D02*
X128859D01*
X124442Y109199D02*
X128235D01*
X125220Y108299D02*
X127458D01*
X125683Y107399D02*
X126994D01*
X126195Y106499D02*
X126482D01*
X123196Y115499D02*
X124490D01*
X114311Y225299D02*
X123248D01*
X101100Y137099D02*
X122974D01*
X101100Y136199D02*
X122466D01*
X101100Y137999D02*
X122299D01*
X115357Y234299D02*
X122202D01*
X101100Y138899D02*
X121998D01*
X101100Y166799D02*
X121589D01*
X101100Y135299D02*
X121566D01*
X116571Y226199D02*
X120988D01*
X116871Y233399D02*
X120688D01*
X101100Y134399D02*
X120666D01*
X101100Y165899D02*
X120248D01*
X117479Y227099D02*
X120080D01*
X117653Y232499D02*
X119906D01*
X101100Y133499D02*
X119766D01*
X112946Y110099D02*
X119732D01*
X118017Y227999D02*
X119542D01*
X118120Y231599D02*
X119439D01*
X101100Y164999D02*
X119348D01*
X118332Y228899D02*
X119227D01*
X118606Y230699D02*
X118953D01*
X101100Y132599D02*
X118866D01*
X101100Y164099D02*
X118448D01*
X101100Y122699D02*
X118299D01*
X114442Y109199D02*
X118235D01*
X101100Y115499D02*
X118190D01*
X101100Y124499D02*
X118183D01*
X101100Y123599D02*
X118157D01*
X101100Y125399D02*
X117968D01*
X101100Y131699D02*
X117966D01*
X101100Y139799D02*
X117679D01*
X101100Y163199D02*
X117659D01*
X115220Y108299D02*
X117458D01*
X101100Y162299D02*
X117379D01*
X101100Y161399D02*
X117371D01*
X101100Y160499D02*
X117371D01*
X101100Y159599D02*
X117371D01*
X101100Y158699D02*
X117371D01*
X101100Y157799D02*
X117371D01*
X101100Y156899D02*
X117371D01*
X101100Y155999D02*
X117371D01*
X101100Y155099D02*
X117371D01*
X101100Y154199D02*
X117371D01*
X101100Y153299D02*
X117371D01*
X101100Y152399D02*
X117371D01*
X101100Y151499D02*
X117371D01*
X101100Y150599D02*
X117371D01*
X101100Y149699D02*
X117371D01*
X101100Y148799D02*
X117371D01*
X101100Y147899D02*
X117371D01*
X101100Y146999D02*
X117371D01*
X101100Y146099D02*
X117371D01*
X101100Y145199D02*
X117371D01*
X101100Y144299D02*
X117371D01*
X101100Y143399D02*
X117371D01*
X101100Y121799D02*
X117357D01*
X101100Y116399D02*
X117239D01*
X101100Y140699D02*
X117102D01*
X101100Y120899D02*
X117093D01*
X101100Y119999D02*
X117092D01*
X101100Y119099D02*
X117092D01*
X101100Y118199D02*
X117092D01*
X101100Y117299D02*
X117092D01*
X101100Y130799D02*
X117053D01*
X101100Y142499D02*
X117046D01*
X115683Y107399D02*
X116994D01*
X101100Y141599D02*
X116919D01*
X116195Y106499D02*
X116482D01*
X101100Y126299D02*
X115651D01*
X101100Y129899D02*
X115591D01*
X101100Y127199D02*
X115099D01*
X101100Y128999D02*
X115076D01*
X101100Y128099D02*
X114933D01*
X101100Y225299D02*
X113248D01*
X101100Y234299D02*
X112202D01*
X101100Y226199D02*
X110988D01*
X101100Y233399D02*
X110688D01*
X101100Y227099D02*
X110080D01*
X101100Y232499D02*
X109906D01*
X101100Y110099D02*
X109732D01*
X101100Y227999D02*
X109542D01*
X101100Y231599D02*
X109439D01*
X101100Y228899D02*
X109240D01*
X101100Y230699D02*
X109192D01*
X101100Y229799D02*
X109128D01*
X101100Y101999D02*
X108562D01*
X101100Y109199D02*
X108235D01*
X101100Y102899D02*
X107648D01*
X101100Y108299D02*
X107458D01*
X101100Y103799D02*
X107107D01*
X101100Y107399D02*
X106994D01*
X101100Y104699D02*
X106802D01*
X101100Y106499D02*
X106749D01*
X101100Y105599D02*
X106688D01*
X161532Y115499D02*
X166747D01*
X162745Y116399D02*
X166386D01*
X163103Y117299D02*
X166182D01*
X154358Y114599D02*
X165959D01*
X163071Y118199D02*
X165811D01*
X162628Y119099D02*
X165440D01*
X154890Y119999D02*
X165068D01*
X153288Y113699D02*
X164779D01*
X154289Y120899D02*
X164521D01*
X148752Y112799D02*
X163879D01*
X153801Y121799D02*
X163621D01*
X148751Y111899D02*
X162979D01*
X153313Y122699D02*
X162763D01*
X153062Y123599D02*
X162385D01*
X160017Y126299D02*
X162352D01*
X152641Y125399D02*
X162352D01*
X153026Y124499D02*
X162352D01*
X160789Y127199D02*
X162232D01*
X148751Y110999D02*
X162079D01*
X154978Y115499D02*
X160192D01*
X152946Y110099D02*
X159732D01*
X155290Y119099D02*
X159097D01*
X155338Y116399D02*
X158979D01*
X155485Y118199D02*
X158653D01*
X155500Y117299D02*
X158621D01*
X154442Y109199D02*
X158235D01*
X155220Y108299D02*
X157458D01*
X155683Y107399D02*
X156994D01*
X156195Y106499D02*
X156482D01*
X151856Y126299D02*
X154565D01*
X152139Y132599D02*
X154022D01*
X152229Y133499D02*
X153795D01*
X152229Y127199D02*
X153795D01*
X152387Y131699D02*
X153695D01*
X152387Y130799D02*
X153691D01*
X152387Y129899D02*
X153691D01*
X152387Y128999D02*
X153691D01*
X152387Y128099D02*
X153691D01*
X148817Y110099D02*
X149732D01*
X129638Y122699D02*
X140755D01*
X130122Y123599D02*
X140594D01*
X135444Y128999D02*
X140590D01*
X134544Y128099D02*
X140590D01*
X133644Y127199D02*
X140590D01*
X132744Y126299D02*
X140590D01*
X131844Y125399D02*
X140590D01*
X130944Y124499D02*
X140590D01*
X136344Y129899D02*
X139439D01*
X130328Y121799D02*
X138718D01*
X137244Y130799D02*
X137999D01*
X133008Y120899D02*
X136993D01*
X133911Y119999D02*
X134829D01*
X135005Y165899D02*
X144632D01*
X142086Y161399D02*
X144624D01*
X135021Y164099D02*
X144617D01*
X135023Y163199D02*
X144615D01*
X135023Y166799D02*
X144615D01*
X135023Y164999D02*
X144615D01*
X140928Y162299D02*
X144615D01*
X135023D02*
X138710D01*
X135013Y161399D02*
X137616D01*
X135023Y158699D02*
X137371D01*
X135023Y160499D02*
X137201D01*
X134987Y159599D02*
X137130D01*
X166299Y179275D02*
Y177575D01*
X168704Y156854D02*
X167004D01*
X174673Y141724D02*
Y140024D01*
X178263Y138449D02*
X176563D01*
X168735Y150661D02*
X167035D01*
X178267Y132567D02*
X176567D01*
X100000Y241732D02*
X182677D01*
Y100000*
X100000*
Y241732*
G54D34*
X150142Y156791D02*
X158815D01*
Y156854*
X148193Y156791D02*
X150142D01*
G54D59*
X133622Y229921D03*
X113780D03*
X123780D03*
X158134Y235799D03*
G54D61*
X148193Y168602D03*
Y156791D03*
X131445D03*
Y168602D03*
G54D62*
X147693Y166634D03*
Y164665D03*
Y162697D03*
Y160728D03*
Y158760D03*
X131945D03*
Y160728D03*
Y162697D03*
Y164665D03*
Y166634D03*
G54D63*
X145724Y154322D03*
X133913D03*
Y171071D03*
X145724D03*
G54D64*
X143756Y154823D03*
X141787D03*
X139819D03*
X137850D03*
X135882D03*
Y170571D03*
X137850D03*
X139819D03*
X141787D03*
X143756D03*
G74*
X0Y0D02*
M02*
