%FSLAX25Y25*%
%MOIN*%
G70*
G01*
G75*
G04 Layer_Color=128*
%ADD10R,0.07874X0.07874*%
%ADD11R,0.02756X0.03347*%
%ADD12R,0.03347X0.02756*%
%ADD13R,0.03937X0.02362*%
%ADD14O,0.07480X0.02362*%
%ADD15O,0.03543X0.01969*%
%ADD16O,0.03543X0.01969*%
%ADD17R,0.03543X0.01969*%
%ADD18R,0.05118X0.03937*%
%ADD19C,0.04000*%
%ADD20C,0.01200*%
%ADD21C,0.01000*%
%ADD22C,0.01500*%
%ADD23C,0.03000*%
%ADD24C,0.02000*%
%ADD25C,0.05000*%
%ADD26C,0.00800*%
%ADD27C,0.00500*%
%ADD28C,0.07874*%
%ADD29C,0.03937*%
%ADD30C,0.05906*%
%ADD31C,0.06000*%
%ADD32C,0.04724*%
%ADD33R,0.05906X0.05906*%
%ADD34C,0.03000*%
%ADD35C,0.02000*%
%ADD36C,0.04000*%
%ADD37O,0.06693X0.02165*%
%ADD38O,0.02165X0.06693*%
%ADD39R,0.03000X0.06000*%
%ADD40R,0.03937X0.05118*%
%ADD41C,0.00984*%
%ADD42C,0.02362*%
%ADD43C,0.00787*%
%ADD44C,0.00500*%
%ADD45R,0.08674X0.08674*%
%ADD46R,0.03556X0.04147*%
%ADD47R,0.04147X0.03556*%
%ADD48R,0.04737X0.03162*%
%ADD49O,0.08280X0.03162*%
%ADD50O,0.04343X0.02769*%
%ADD51O,0.04343X0.02769*%
%ADD52R,0.04343X0.02769*%
%ADD53R,0.05918X0.04737*%
%ADD54C,0.08674*%
%ADD55C,0.04737*%
%ADD56C,0.06706*%
%ADD57C,0.06800*%
%ADD58C,0.05524*%
%ADD59R,0.06706X0.06706*%
%ADD60O,0.07493X0.02965*%
%ADD61O,0.02965X0.07493*%
%ADD62R,0.03800X0.06800*%
%ADD63R,0.04737X0.05918*%
D11*
X160900Y-493300D02*
D03*
X154994D02*
D03*
X160900Y-526800D02*
D03*
X154994D02*
D03*
X160900Y-510100D02*
D03*
X154994D02*
D03*
X146118Y-237300D02*
D03*
X140213D02*
D03*
X146118Y-230500D02*
D03*
X140213D02*
D03*
X169265Y-259800D02*
D03*
X163360D02*
D03*
X160900Y-560700D02*
D03*
X154994D02*
D03*
X160900Y-543100D02*
D03*
X154994D02*
D03*
X7600Y-76300D02*
D03*
X13506D02*
D03*
X103200Y-77700D02*
D03*
X97294D02*
D03*
X132500Y-76400D02*
D03*
X138406D02*
D03*
X79200Y-76800D02*
D03*
X73294D02*
D03*
X199000Y-76300D02*
D03*
X193094D02*
D03*
X181000D02*
D03*
X186906D02*
D03*
X52100Y-77400D02*
D03*
X46194D02*
D03*
X151000Y-76300D02*
D03*
X145094D02*
D03*
X31300Y-77400D02*
D03*
X37206D02*
D03*
X29400Y-551200D02*
D03*
X23494D02*
D03*
X29400Y-533500D02*
D03*
X23494D02*
D03*
X29400Y-517700D02*
D03*
X23494D02*
D03*
X29400Y-502100D02*
D03*
X23494D02*
D03*
X29400Y-568900D02*
D03*
X23494D02*
D03*
X158700Y-349400D02*
D03*
X152794D02*
D03*
X158700Y-370400D02*
D03*
X152794D02*
D03*
D12*
X133200Y-303000D02*
D03*
Y-308906D02*
D03*
X150000Y-303000D02*
D03*
Y-308906D02*
D03*
X90100Y-341394D02*
D03*
Y-347300D02*
D03*
X96565D02*
D03*
Y-341394D02*
D03*
X109200Y-347300D02*
D03*
Y-341394D02*
D03*
X26700Y-413406D02*
D03*
Y-407500D02*
D03*
X43500Y-413400D02*
D03*
Y-407494D02*
D03*
X149800Y-413306D02*
D03*
Y-407400D02*
D03*
X26400Y-303106D02*
D03*
Y-297200D02*
D03*
X43600Y-303106D02*
D03*
Y-297200D02*
D03*
X25000Y-192894D02*
D03*
Y-198800D02*
D03*
X44100Y-192600D02*
D03*
Y-198506D02*
D03*
X132300Y-192894D02*
D03*
Y-198800D02*
D03*
X149100Y-192894D02*
D03*
Y-198800D02*
D03*
X198500Y-144400D02*
D03*
Y-138494D02*
D03*
X176600Y-92500D02*
D03*
Y-98406D02*
D03*
X15400Y-23600D02*
D03*
Y-29506D02*
D03*
X176000Y-23300D02*
D03*
Y-29206D02*
D03*
X116400Y-341394D02*
D03*
Y-347300D02*
D03*
X130200Y-341394D02*
D03*
Y-347300D02*
D03*
X123500Y-341394D02*
D03*
Y-347300D02*
D03*
X23900Y-462506D02*
D03*
Y-456600D02*
D03*
X157400Y-220100D02*
D03*
Y-226006D02*
D03*
Y-241600D02*
D03*
Y-235694D02*
D03*
X41400Y-462100D02*
D03*
Y-456194D02*
D03*
X163365Y-272306D02*
D03*
Y-266400D02*
D03*
X170265D02*
D03*
Y-272306D02*
D03*
X156500Y-266400D02*
D03*
Y-272306D02*
D03*
X132700Y-413406D02*
D03*
Y-407500D02*
D03*
D13*
X174400Y-226974D02*
D03*
X164557Y-223037D02*
D03*
X174400Y-219100D02*
D03*
X174243Y-245574D02*
D03*
X164400Y-241637D02*
D03*
X174243Y-237700D02*
D03*
X181400Y-136226D02*
D03*
X191243Y-140163D02*
D03*
X181400Y-144100D02*
D03*
X151800Y-364700D02*
D03*
X161643Y-360763D02*
D03*
X151800Y-356826D02*
D03*
Y-385300D02*
D03*
X161643Y-381363D02*
D03*
X151800Y-377426D02*
D03*
D14*
X88201Y-285500D02*
D03*
Y-280500D02*
D03*
Y-275500D02*
D03*
Y-270500D02*
D03*
Y-265500D02*
D03*
Y-260500D02*
D03*
Y-255500D02*
D03*
Y-250500D02*
D03*
Y-245500D02*
D03*
Y-240500D02*
D03*
Y-235500D02*
D03*
Y-230500D02*
D03*
Y-225500D02*
D03*
Y-220500D02*
D03*
Y-215500D02*
D03*
Y-210500D02*
D03*
X125799Y-285500D02*
D03*
Y-280500D02*
D03*
Y-275500D02*
D03*
Y-270500D02*
D03*
Y-265500D02*
D03*
Y-260500D02*
D03*
Y-255500D02*
D03*
Y-250500D02*
D03*
Y-245500D02*
D03*
Y-240500D02*
D03*
Y-235500D02*
D03*
Y-230500D02*
D03*
Y-225500D02*
D03*
Y-220500D02*
D03*
Y-215500D02*
D03*
Y-210500D02*
D03*
D18*
X123900Y-190426D02*
D03*
Y-198300D02*
D03*
X59400Y-378300D02*
D03*
Y-386174D02*
D03*
D27*
X212598Y-610236D02*
G03*
X216535Y-606299I0J3937D01*
G01*
X0D02*
G03*
X3937Y-610236I3937J0D01*
G01*
X216535Y-3937D02*
G03*
X212598Y0I-3937J0D01*
G01*
X3937D02*
G03*
X0Y-3937I0J-3937D01*
G01*
X203740Y-590551D02*
G03*
X203740Y-590551I-6890J0D01*
G01*
X26575D02*
G03*
X26575Y-590551I-6890J0D01*
G01*
X203740Y-49213D02*
G03*
X203740Y-49213I-6890J0D01*
G01*
X26575D02*
G03*
X26575Y-49213I-6890J0D01*
G01*
X3937Y0D02*
X212500D01*
X0Y-606299D02*
Y-3937D01*
X216535Y-606265D02*
Y-4035D01*
X3937Y-610236D02*
X212564D01*
D37*
X91261Y-365876D02*
D03*
Y-369026D02*
D03*
Y-372176D02*
D03*
Y-375325D02*
D03*
Y-378475D02*
D03*
Y-381624D02*
D03*
Y-384774D02*
D03*
Y-387924D02*
D03*
X123939D02*
D03*
Y-384774D02*
D03*
Y-381624D02*
D03*
Y-378475D02*
D03*
Y-375325D02*
D03*
Y-372176D02*
D03*
Y-369026D02*
D03*
Y-365876D02*
D03*
D38*
X96576Y-393239D02*
D03*
X99726D02*
D03*
X102876D02*
D03*
X106025D02*
D03*
X109175D02*
D03*
X112324D02*
D03*
X115474D02*
D03*
X118624D02*
D03*
Y-360561D02*
D03*
X115474D02*
D03*
X112324D02*
D03*
X109175D02*
D03*
X106025D02*
D03*
X102876D02*
D03*
X99726D02*
D03*
X96576D02*
D03*
D39*
X90200Y-592061D02*
D03*
X80200D02*
D03*
X85200D02*
D03*
X130200Y-527100D02*
D03*
X135200D02*
D03*
X120200D02*
D03*
X125200D02*
D03*
X110200D02*
D03*
X115200D02*
D03*
X100200D02*
D03*
X105200D02*
D03*
X90200D02*
D03*
X95200D02*
D03*
X85200D02*
D03*
X80200D02*
D03*
D40*
X37300Y-368700D02*
D03*
X29426D02*
D03*
X37474Y-359600D02*
D03*
X29600D02*
D03*
M02*
