%FSLAX25Y25*%
%MOIN*%
G70*
G01*
G75*
G04 Layer_Physical_Order=2*
G04 Layer_Color=16711680*
%ADD10R,0.07874X0.07874*%
%ADD11R,0.02756X0.03347*%
%ADD12R,0.03347X0.02756*%
%ADD13R,0.03937X0.02362*%
%ADD14O,0.07480X0.02362*%
%ADD15O,0.03543X0.01969*%
%ADD16O,0.03543X0.01969*%
%ADD17R,0.03543X0.01969*%
%ADD18R,0.05118X0.03937*%
%ADD19C,0.04000*%
%ADD20C,0.01200*%
%ADD21C,0.01000*%
%ADD22C,0.01500*%
%ADD23C,0.03000*%
%ADD24C,0.02000*%
%ADD25C,0.05000*%
%ADD26C,0.00800*%
%ADD27C,0.00500*%
%ADD28C,0.07874*%
%ADD29C,0.03937*%
%ADD30C,0.05906*%
%ADD31C,0.06000*%
%ADD32C,0.04724*%
%ADD33R,0.05906X0.05906*%
%ADD34C,0.03000*%
%ADD35C,0.02000*%
%ADD36C,0.04000*%
%ADD37O,0.06693X0.02165*%
%ADD38O,0.02165X0.06693*%
%ADD39R,0.03000X0.06000*%
%ADD40R,0.03937X0.05118*%
G36*
X202169Y-255076D02*
Y-269112D01*
X201728Y-269348D01*
X201680Y-269316D01*
X200900Y-269161D01*
X200120Y-269316D01*
X199458Y-269758D01*
X199016Y-270420D01*
X198891Y-271046D01*
X198619Y-271319D01*
X195566Y-274371D01*
X172939D01*
Y-272806D01*
X167592D01*
Y-274371D01*
X166039D01*
Y-269928D01*
X160692D01*
Y-270674D01*
X159173D01*
Y-269928D01*
X153827D01*
Y-270674D01*
X153094D01*
X152470Y-270798D01*
X151941Y-271152D01*
X149892Y-273201D01*
X149430Y-273009D01*
Y-265600D01*
Y-260600D01*
X149310Y-259686D01*
X149255Y-259553D01*
X151776Y-257031D01*
X160982D01*
Y-257127D01*
X160982D01*
Y-262473D01*
X161728D01*
Y-264022D01*
X160692D01*
Y-268778D01*
X166039D01*
Y-268031D01*
X167592D01*
Y-268778D01*
X172939D01*
Y-268031D01*
X183100D01*
X183724Y-267907D01*
X184254Y-267553D01*
X184254Y-267553D01*
X184254Y-267553D01*
X190053Y-261754D01*
X190407Y-261224D01*
X190531Y-260600D01*
X190531Y-260600D01*
X190531Y-260600D01*
Y-260600D01*
Y-259003D01*
X190893Y-258853D01*
X191719Y-258219D01*
X192353Y-257393D01*
X192751Y-256432D01*
X192887Y-255400D01*
X192751Y-254368D01*
X192353Y-253407D01*
X191719Y-252581D01*
X190893Y-251947D01*
X190917Y-251831D01*
X198924D01*
X202169Y-255076D01*
D02*
G37*
G36*
X151163Y-346300D02*
Y-346727D01*
X150417D01*
Y-350969D01*
X145758D01*
X145380Y-350716D01*
X144600Y-350561D01*
X143820Y-350716D01*
X143158Y-351158D01*
X142716Y-351820D01*
X142561Y-352600D01*
X142716Y-353380D01*
X143158Y-354042D01*
X143820Y-354484D01*
X144600Y-354639D01*
X145380Y-354484D01*
X145758Y-354231D01*
X148831D01*
Y-354645D01*
X148831D01*
Y-355297D01*
X143874D01*
X143289Y-355413D01*
X142793Y-355745D01*
X139505Y-359032D01*
X120747D01*
Y-358298D01*
X120585Y-357485D01*
X120125Y-356796D01*
X119436Y-356336D01*
X118624Y-356174D01*
X117811Y-356336D01*
X117546Y-356513D01*
X117105Y-356277D01*
Y-356186D01*
X119260Y-354031D01*
X119942D01*
X120320Y-354284D01*
X121100Y-354439D01*
X121880Y-354284D01*
X122542Y-353842D01*
X122984Y-353180D01*
X123139Y-352400D01*
X122984Y-351620D01*
X122542Y-350958D01*
X121880Y-350516D01*
X121100Y-350361D01*
X120320Y-350516D01*
X119942Y-350769D01*
X118720D01*
X118403Y-350382D01*
X118439Y-350200D01*
Y-349849D01*
X123500D01*
X124360Y-349678D01*
X126173D01*
Y-349339D01*
X127527D01*
Y-349678D01*
X132873D01*
Y-349339D01*
X147200D01*
X147980Y-349184D01*
X148642Y-348742D01*
X149084Y-348080D01*
X149239Y-347300D01*
X149084Y-346520D01*
X149065Y-346492D01*
X148986Y-346372D01*
X149221Y-345931D01*
X150861D01*
X151163Y-346300D01*
D02*
G37*
G36*
X87171Y-42286D02*
Y-52796D01*
X86697Y-52956D01*
X86153Y-52247D01*
X85317Y-51606D01*
X84344Y-51203D01*
X83300Y-51065D01*
X82256Y-51203D01*
X81283Y-51606D01*
X80447Y-52247D01*
X79806Y-53083D01*
X79403Y-54056D01*
X79265Y-55100D01*
X79403Y-56144D01*
X79806Y-57117D01*
X80447Y-57953D01*
X81283Y-58594D01*
X81771Y-58796D01*
Y-68431D01*
X81322Y-68652D01*
X80828Y-68273D01*
X80106Y-67974D01*
X79331Y-67872D01*
X78556Y-67974D01*
X77834Y-68273D01*
X77214Y-68749D01*
X76738Y-69369D01*
X76439Y-70091D01*
X76337Y-70866D01*
X76439Y-71641D01*
X76738Y-72363D01*
X77214Y-72983D01*
X77416Y-73138D01*
Y-74127D01*
X76822D01*
Y-79473D01*
X81578D01*
Y-78984D01*
X82056Y-78839D01*
X82219Y-79081D01*
X86116Y-82979D01*
X86035Y-83473D01*
X85790Y-83593D01*
X85285Y-83206D01*
X84312Y-82803D01*
X83268Y-82665D01*
X82224Y-82803D01*
X81251Y-83206D01*
X80415Y-83847D01*
X79774Y-84683D01*
X79371Y-85656D01*
X79233Y-86700D01*
X79371Y-87744D01*
X79774Y-88717D01*
X80415Y-89553D01*
X81251Y-90194D01*
X82224Y-90597D01*
X83268Y-90734D01*
X84312Y-90597D01*
X85285Y-90194D01*
X85790Y-89807D01*
X86238Y-90028D01*
Y-121566D01*
X84800Y-123005D01*
X84312Y-122803D01*
X83268Y-122666D01*
X82224Y-122803D01*
X81251Y-123206D01*
X80415Y-123847D01*
X79774Y-124683D01*
X79371Y-125656D01*
X79233Y-126700D01*
X79371Y-127744D01*
X79573Y-128232D01*
X72946Y-134859D01*
X72484Y-134667D01*
Y-122600D01*
X72417Y-122260D01*
X72348Y-121917D01*
X72348Y-121917D01*
Y-121917D01*
X71962Y-121338D01*
X71962Y-121338D01*
X67178Y-116554D01*
Y-92520D01*
X67178Y-92520D01*
X67178Y-92520D01*
Y-92520D01*
Y-73239D01*
X67511Y-72983D01*
X67987Y-72363D01*
X68286Y-71641D01*
X68388Y-70866D01*
X68286Y-70091D01*
X67987Y-69369D01*
X67511Y-68749D01*
X66891Y-68273D01*
X66169Y-67974D01*
X65394Y-67872D01*
X64619Y-67974D01*
X63897Y-68273D01*
X63277Y-68749D01*
X62801Y-69369D01*
X62502Y-70091D01*
X62400Y-70866D01*
X62502Y-71641D01*
X62801Y-72363D01*
X63277Y-72983D01*
X63609Y-73239D01*
Y-90735D01*
X36900D01*
X36645Y-90402D01*
X36025Y-89927D01*
X35302Y-89627D01*
X34528Y-89526D01*
X33753Y-89627D01*
X33031Y-89927D01*
X32410Y-90402D01*
X32258Y-90601D01*
X31784Y-90441D01*
Y-89439D01*
X38467Y-82756D01*
X38467Y-82756D01*
X38661Y-82467D01*
X38854Y-82177D01*
X38990Y-81494D01*
X38990Y-81494D01*
Y-80073D01*
X39584D01*
Y-79184D01*
X43816D01*
Y-80073D01*
X48572D01*
Y-74727D01*
X47979D01*
Y-48945D01*
X54539Y-42384D01*
X71510D01*
Y-74127D01*
X70916D01*
Y-79473D01*
X75672D01*
Y-74127D01*
X75079D01*
Y-42384D01*
X84370D01*
X84520Y-42484D01*
X85300Y-42639D01*
X86080Y-42484D01*
X86730Y-42050D01*
X87171Y-42286D01*
D02*
G37*
G36*
X27661Y-328931D02*
Y-344726D01*
X27661Y-344726D01*
X27661D01*
X27816Y-345506D01*
X28258Y-346168D01*
X28795Y-346705D01*
X28795D01*
X28795Y-346705D01*
X35435Y-353345D01*
Y-356041D01*
X34506D01*
Y-363159D01*
X40442D01*
Y-362549D01*
X42600D01*
X43576Y-362355D01*
X44402Y-361802D01*
X44955Y-360976D01*
X45149Y-360000D01*
X44955Y-359025D01*
X44402Y-358198D01*
X43576Y-357645D01*
X42600Y-357451D01*
X40442D01*
Y-356041D01*
X39513D01*
Y-352829D01*
X39975Y-352638D01*
X51118Y-363781D01*
X51615Y-364113D01*
X51712Y-364132D01*
X52200Y-364229D01*
X69367D01*
X81544Y-376407D01*
X82040Y-376738D01*
X82625Y-376855D01*
X87045D01*
X87281Y-377296D01*
X87036Y-377662D01*
X86874Y-378475D01*
X87036Y-379287D01*
X87281Y-379654D01*
X87045Y-380095D01*
X79758D01*
X67281Y-367619D01*
X66785Y-367287D01*
X66200Y-367171D01*
X40268D01*
Y-365141D01*
X34332D01*
Y-372259D01*
X40268D01*
Y-370229D01*
X65566D01*
X77865Y-382528D01*
X77674Y-382990D01*
X72526D01*
X72526Y-382990D01*
X71843Y-383125D01*
X71554Y-383319D01*
X71264Y-383512D01*
X71264Y-383512D01*
X63861Y-390916D01*
X33639D01*
X27072Y-384349D01*
Y-381717D01*
X27520Y-381496D01*
X27704Y-381637D01*
X28522Y-381976D01*
X29400Y-382091D01*
X30278Y-381976D01*
X31096Y-381637D01*
X31798Y-381098D01*
X32337Y-380396D01*
X32676Y-379578D01*
X32791Y-378700D01*
X32676Y-377822D01*
X32337Y-377004D01*
X31798Y-376302D01*
X31096Y-375763D01*
X30955Y-375705D01*
Y-372259D01*
X32394D01*
Y-365141D01*
X31129D01*
Y-363159D01*
X32568D01*
Y-356041D01*
X27072D01*
Y-329298D01*
X27084Y-329280D01*
X27163Y-328882D01*
X27661Y-328931D01*
D02*
G37*
G36*
X39672Y-68493D02*
X39340Y-68749D01*
X38864Y-69369D01*
X38565Y-70091D01*
X38463Y-70866D01*
X38565Y-71641D01*
X38864Y-72363D01*
X39340Y-72983D01*
X39960Y-73459D01*
X40682Y-73758D01*
X41457Y-73860D01*
X42232Y-73758D01*
X42954Y-73459D01*
X43574Y-72983D01*
X43937Y-72510D01*
X44410Y-72671D01*
Y-74727D01*
X43816D01*
Y-75616D01*
X39584D01*
Y-74727D01*
X34828D01*
Y-80073D01*
X35421D01*
Y-80755D01*
X28738Y-87438D01*
X28352Y-88017D01*
X28216Y-88700D01*
Y-152700D01*
X28216Y-152700D01*
X28216D01*
X28352Y-153383D01*
X28738Y-153962D01*
X36638Y-161862D01*
X36638Y-161862D01*
X36928Y-162055D01*
X37217Y-162249D01*
X37900Y-162384D01*
X37900Y-162384D01*
X53161D01*
X59588Y-168812D01*
X59588Y-168812D01*
X64416Y-173639D01*
Y-279432D01*
X64045Y-279768D01*
X63784Y-279742D01*
Y-232264D01*
X63784Y-232264D01*
X63784Y-232264D01*
Y-232264D01*
X63728Y-231982D01*
X63648Y-231581D01*
X63648Y-231581D01*
X63648Y-231581D01*
X63401Y-231211D01*
X63262Y-231002D01*
X63262Y-231002D01*
X63262Y-231002D01*
X63262Y-231002D01*
X62037Y-229778D01*
X62002Y-229601D01*
X61902Y-229452D01*
Y-195286D01*
X62235Y-195031D01*
X62711Y-194411D01*
X63010Y-193688D01*
X63112Y-192913D01*
X63010Y-192139D01*
X62711Y-191416D01*
X62235Y-190796D01*
X61902Y-190541D01*
Y-175218D01*
X61767Y-174535D01*
X61380Y-173957D01*
X51562Y-164138D01*
X50983Y-163751D01*
X50300Y-163616D01*
X27839D01*
X21484Y-157261D01*
Y-94208D01*
X21958Y-94047D01*
X22410Y-94637D01*
X23031Y-95113D01*
X23753Y-95412D01*
X24528Y-95514D01*
X25302Y-95412D01*
X26025Y-95113D01*
X26645Y-94637D01*
X27121Y-94017D01*
X27420Y-93295D01*
X27522Y-92520D01*
X27420Y-91745D01*
X27121Y-91022D01*
X26645Y-90402D01*
X26025Y-89927D01*
X25302Y-89627D01*
X24528Y-89526D01*
X23753Y-89627D01*
X23031Y-89927D01*
X22410Y-90402D01*
X21958Y-90992D01*
X21484Y-90832D01*
Y-73046D01*
Y-73046D01*
X21484Y-73046D01*
X21396Y-72604D01*
X21349Y-72364D01*
X21348Y-72364D01*
X21348Y-72364D01*
X21167Y-72092D01*
X20962Y-71785D01*
X20962Y-71785D01*
X20962Y-71785D01*
X20459Y-71282D01*
X20514Y-70866D01*
X20412Y-70091D01*
X20113Y-69369D01*
X19637Y-68749D01*
X19304Y-68494D01*
Y-64219D01*
X20739Y-62784D01*
X39672D01*
Y-68493D01*
D02*
G37*
G36*
X86238Y-130028D02*
Y-130567D01*
X81519Y-135286D01*
X81187Y-135783D01*
X81071Y-136368D01*
Y-194700D01*
X81071Y-194700D01*
X81071D01*
X81187Y-195285D01*
X81519Y-195781D01*
X84541Y-198804D01*
X84492Y-199301D01*
X83958Y-199658D01*
X83516Y-200320D01*
X83361Y-201100D01*
X83516Y-201880D01*
X83958Y-202542D01*
X84620Y-202984D01*
X85246Y-203109D01*
X89951Y-207814D01*
X89760Y-208276D01*
X88701D01*
Y-210501D01*
Y-212724D01*
X90760D01*
X91611Y-212555D01*
X92332Y-212072D01*
X92814Y-211351D01*
X92823Y-211309D01*
X93301Y-211164D01*
X94171Y-212034D01*
Y-237767D01*
X92967Y-238971D01*
X92361D01*
X92332Y-238928D01*
X91611Y-238445D01*
X90760Y-238276D01*
X85642D01*
X84791Y-238445D01*
X84069Y-238928D01*
X83587Y-239649D01*
X83418Y-240500D01*
X83587Y-241351D01*
X84069Y-242073D01*
X84791Y-242555D01*
X85642Y-242724D01*
X90760D01*
X91611Y-242555D01*
X92332Y-242073D01*
X92361Y-242029D01*
X93600D01*
X94185Y-241913D01*
X94681Y-241581D01*
X96009Y-240254D01*
X96471Y-240446D01*
Y-245766D01*
X93819Y-248419D01*
X93487Y-248915D01*
X93371Y-249500D01*
Y-249895D01*
X92873Y-249944D01*
X92814Y-249649D01*
X92332Y-248927D01*
X91611Y-248445D01*
X90760Y-248276D01*
X85642D01*
X84791Y-248445D01*
X84386Y-248716D01*
X80600D01*
X79917Y-248851D01*
X79338Y-249238D01*
X77291Y-251285D01*
X76829Y-251094D01*
Y-248334D01*
X78133Y-247029D01*
X84040D01*
X84069Y-247073D01*
X84791Y-247555D01*
X85642Y-247724D01*
X90760D01*
X91611Y-247555D01*
X92332Y-247073D01*
X92814Y-246351D01*
X92984Y-245500D01*
X92814Y-244649D01*
X92332Y-243928D01*
X91611Y-243445D01*
X90760Y-243276D01*
X85642D01*
X84791Y-243445D01*
X84069Y-243928D01*
X84040Y-243971D01*
X77500D01*
X76915Y-244087D01*
X76419Y-244419D01*
X75291Y-245546D01*
X74829Y-245354D01*
Y-237190D01*
X75291Y-236998D01*
X76465Y-238172D01*
X76465D01*
X76465Y-238172D01*
X76465Y-238172D01*
Y-238172D01*
X76994Y-238526D01*
X77618Y-238650D01*
X82282D01*
X82906Y-238526D01*
X83435Y-238172D01*
X84348Y-237259D01*
X84791Y-237555D01*
X85642Y-237724D01*
X90760D01*
X91611Y-237555D01*
X92332Y-237072D01*
X92814Y-236351D01*
X92984Y-235500D01*
X92814Y-234649D01*
X92332Y-233927D01*
X91611Y-233445D01*
X90760Y-233276D01*
X85642D01*
X84791Y-233445D01*
X84157Y-233869D01*
X83800D01*
X83176Y-233993D01*
X82647Y-234347D01*
X81606Y-235387D01*
X81090D01*
X80898Y-234925D01*
X83539Y-232284D01*
X84386D01*
X84791Y-232555D01*
X85642Y-232724D01*
X90760D01*
X91611Y-232555D01*
X92332Y-232072D01*
X92814Y-231351D01*
X92984Y-230500D01*
X92814Y-229649D01*
X92332Y-228927D01*
X91611Y-228445D01*
X90760Y-228276D01*
X85642D01*
X84791Y-228445D01*
X84386Y-228716D01*
X82800D01*
X82117Y-228852D01*
X81538Y-229238D01*
X81538Y-229238D01*
X78277Y-232499D01*
X78101Y-232534D01*
X77472Y-232955D01*
X77031Y-232719D01*
Y-227588D01*
X77472Y-227352D01*
X77520Y-227384D01*
X78300Y-227539D01*
X79080Y-227384D01*
X79229Y-227284D01*
X84386D01*
X84791Y-227555D01*
X85642Y-227724D01*
X90760D01*
X91611Y-227555D01*
X92332Y-227073D01*
X92814Y-226351D01*
X92984Y-225500D01*
X92814Y-224649D01*
X92332Y-223927D01*
X91611Y-223445D01*
X90760Y-223276D01*
X85642D01*
X84791Y-223445D01*
X84386Y-223716D01*
X79229D01*
X79080Y-223616D01*
X78300Y-223461D01*
X77520Y-223616D01*
X77472Y-223648D01*
X77031Y-223412D01*
Y-212776D01*
X77976Y-211831D01*
X79492D01*
X79517Y-211848D01*
X80200Y-211984D01*
X80870D01*
X81020Y-212084D01*
X81800Y-212239D01*
X82580Y-212084D01*
X83242Y-211642D01*
X83262Y-211612D01*
X83762Y-211612D01*
X84069Y-212072D01*
X84791Y-212555D01*
X85642Y-212724D01*
X87701D01*
Y-210501D01*
Y-208276D01*
X85642D01*
X84791Y-208445D01*
X84069Y-208927D01*
X83962Y-209088D01*
X83462D01*
X83242Y-208758D01*
X82580Y-208316D01*
X81800Y-208161D01*
X81020Y-208316D01*
X80870Y-208416D01*
X80200D01*
X79517Y-208552D01*
X79492Y-208569D01*
X77300D01*
X76676Y-208693D01*
X76147Y-209047D01*
X75291Y-209902D01*
X74829Y-209710D01*
Y-137301D01*
X81736Y-130395D01*
X82224Y-130597D01*
X83268Y-130735D01*
X84312Y-130597D01*
X85285Y-130194D01*
X85790Y-129807D01*
X86238Y-130028D01*
D02*
G37*
G36*
X121943Y-148680D02*
X121916Y-148720D01*
X121761Y-149500D01*
X121916Y-150280D01*
X122358Y-150942D01*
X123020Y-151384D01*
X123800Y-151539D01*
X124580Y-151384D01*
X124730Y-151284D01*
X146771D01*
X146920Y-151384D01*
X147700Y-151539D01*
X148480Y-151384D01*
X148629Y-151284D01*
X158361D01*
X160338Y-153262D01*
X160338Y-153262D01*
X160917Y-153648D01*
X161600Y-153784D01*
X204561D01*
X211266Y-160489D01*
Y-183306D01*
X210787Y-183451D01*
X210458Y-182958D01*
X209796Y-182516D01*
X209016Y-182361D01*
X208235Y-182516D01*
X207705Y-182871D01*
X139712D01*
X139480Y-182716D01*
X138700Y-182561D01*
X137920Y-182716D01*
X137258Y-183158D01*
X136816Y-183820D01*
X136661Y-184600D01*
X136816Y-185380D01*
X137258Y-186042D01*
X137920Y-186484D01*
X138700Y-186639D01*
X139480Y-186484D01*
X140142Y-186042D01*
X140217Y-185929D01*
X207705D01*
X208235Y-186284D01*
X209016Y-186439D01*
X209796Y-186284D01*
X210458Y-185842D01*
X210787Y-185349D01*
X211266Y-185494D01*
Y-230305D01*
X210804Y-230497D01*
X206128Y-225820D01*
X205598Y-225467D01*
X204974Y-225343D01*
X177368D01*
Y-224793D01*
X171432D01*
Y-229155D01*
X177368D01*
Y-228605D01*
X204298D01*
X209069Y-233376D01*
Y-278724D01*
X206224Y-281569D01*
X178800D01*
X178176Y-281693D01*
X177647Y-282047D01*
X174346Y-285347D01*
X173993Y-285876D01*
X173869Y-286500D01*
Y-293142D01*
X173616Y-293520D01*
X173461Y-294300D01*
X173616Y-295080D01*
X173915Y-295528D01*
X173679Y-295969D01*
X160376D01*
X157131Y-292724D01*
Y-284600D01*
X157007Y-283976D01*
X156653Y-283447D01*
X153968Y-280761D01*
X154204Y-280320D01*
X154300Y-280339D01*
X155080Y-280184D01*
X155742Y-279742D01*
X156184Y-279080D01*
X156308Y-278454D01*
X157334Y-277429D01*
X172810D01*
X173002Y-277891D01*
X170046Y-280847D01*
X169693Y-281376D01*
X169569Y-282000D01*
Y-291642D01*
X169316Y-292020D01*
X169161Y-292800D01*
X169316Y-293580D01*
X169758Y-294242D01*
X170420Y-294684D01*
X171200Y-294839D01*
X171980Y-294684D01*
X172642Y-294242D01*
X173084Y-293580D01*
X173239Y-292800D01*
X173084Y-292020D01*
X172831Y-291642D01*
Y-282676D01*
X175876Y-279631D01*
X200000D01*
X200624Y-279507D01*
X201153Y-279153D01*
X204954Y-275354D01*
X205307Y-274824D01*
X205431Y-274200D01*
Y-254400D01*
X205307Y-253776D01*
X204954Y-253246D01*
X200753Y-249046D01*
X200224Y-248693D01*
X199600Y-248569D01*
X192137D01*
X191916Y-248120D01*
X192353Y-247551D01*
X192751Y-246589D01*
X192821Y-246057D01*
X184979D01*
X185049Y-246589D01*
X185447Y-247551D01*
X185884Y-248120D01*
X185791Y-248309D01*
X185298Y-248391D01*
X181327Y-244421D01*
X180798Y-244067D01*
X180174Y-243943D01*
X177211D01*
Y-243393D01*
X171274D01*
Y-243393D01*
X171185D01*
X170831Y-243039D01*
Y-239881D01*
X171274D01*
Y-239881D01*
X177211D01*
Y-235519D01*
X171274D01*
Y-235519D01*
X171185D01*
X170831Y-235165D01*
Y-221482D01*
X171247Y-221205D01*
X171432Y-221281D01*
Y-221281D01*
X171432Y-221281D01*
X177368D01*
Y-217185D01*
X177368Y-217185D01*
D01*
D01*
X177368Y-216919D01*
D01*
X177456Y-216831D01*
X184930D01*
X185152Y-217280D01*
X184747Y-217807D01*
X184349Y-218768D01*
X184213Y-219800D01*
X184349Y-220832D01*
X184747Y-221793D01*
X185381Y-222619D01*
X186207Y-223253D01*
X187168Y-223651D01*
X188200Y-223787D01*
X189232Y-223651D01*
X190193Y-223253D01*
X191019Y-222619D01*
X191653Y-221793D01*
X192051Y-220832D01*
X192187Y-219800D01*
X192051Y-218768D01*
X191653Y-217807D01*
X191019Y-216981D01*
X191070Y-216831D01*
X205542D01*
X205920Y-217084D01*
X206700Y-217239D01*
X207480Y-217084D01*
X208142Y-216642D01*
X208584Y-215980D01*
X208739Y-215200D01*
X208584Y-214420D01*
X208142Y-213758D01*
X207480Y-213316D01*
X206700Y-213161D01*
X205920Y-213316D01*
X205542Y-213569D01*
X190765D01*
X190604Y-213095D01*
X191019Y-212776D01*
X191653Y-211951D01*
X192051Y-210989D01*
X192121Y-210457D01*
X184279D01*
X184349Y-210989D01*
X184747Y-211951D01*
X185381Y-212776D01*
X185796Y-213095D01*
X185635Y-213569D01*
X135104D01*
X134806Y-213167D01*
X134842Y-213049D01*
X149300D01*
X150276Y-212855D01*
X151102Y-212302D01*
X151217Y-212131D01*
X173600D01*
X174224Y-212007D01*
X174753Y-211653D01*
X174753Y-211653D01*
X174753Y-211653D01*
X188434Y-197973D01*
X188880Y-197884D01*
X189542Y-197442D01*
X189984Y-196780D01*
X190139Y-196000D01*
X189984Y-195220D01*
X189542Y-194558D01*
X188880Y-194116D01*
X188100Y-193961D01*
X187320Y-194116D01*
X186658Y-194558D01*
X186216Y-195220D01*
X186127Y-195666D01*
X172924Y-208869D01*
X151217D01*
X151102Y-208698D01*
X150276Y-208145D01*
X149300Y-207951D01*
X128348D01*
Y-206699D01*
X128154Y-205724D01*
X127602Y-204897D01*
X126449Y-203744D01*
Y-201269D01*
X127459D01*
Y-195332D01*
X120341D01*
Y-195751D01*
X118956D01*
X116349Y-193144D01*
Y-188200D01*
X116155Y-187224D01*
X115602Y-186398D01*
X114776Y-185845D01*
X113800Y-185651D01*
X112824Y-185845D01*
X111998Y-186398D01*
X111445Y-187224D01*
X111251Y-188200D01*
Y-193464D01*
X110789Y-193655D01*
X101827Y-184693D01*
Y-180300D01*
Y-168091D01*
X121556Y-148362D01*
X121943Y-148680D01*
D02*
G37*
G36*
X16745Y-73758D02*
X17520Y-73860D01*
X17540Y-73858D01*
X17916Y-74187D01*
Y-158000D01*
X17916Y-158000D01*
X17916D01*
X18052Y-158683D01*
X18438Y-159262D01*
X25838Y-166662D01*
X26417Y-167049D01*
X27100Y-167184D01*
X49561D01*
X58334Y-175957D01*
Y-190541D01*
X58001Y-190796D01*
X57525Y-191416D01*
X57226Y-192139D01*
X57124Y-192913D01*
X57226Y-193688D01*
X57525Y-194411D01*
X58001Y-195031D01*
X58334Y-195286D01*
Y-229452D01*
X58234Y-229601D01*
X58079Y-230382D01*
X58234Y-231162D01*
X58676Y-231824D01*
X59338Y-232266D01*
X59514Y-232301D01*
X60216Y-233003D01*
Y-279105D01*
X59737Y-279250D01*
X59542Y-278958D01*
X58880Y-278516D01*
X58100Y-278361D01*
X57320Y-278516D01*
X56658Y-278958D01*
X56216Y-279620D01*
X56061Y-280400D01*
X55529Y-280506D01*
X53119Y-278096D01*
X53084Y-277920D01*
X52954Y-277725D01*
X53190Y-277284D01*
X56571D01*
X56720Y-277384D01*
X57500Y-277539D01*
X58280Y-277384D01*
X58942Y-276942D01*
X59384Y-276280D01*
X59539Y-275500D01*
X59384Y-274720D01*
X58942Y-274058D01*
X58280Y-273616D01*
X57500Y-273461D01*
X56720Y-273616D01*
X56571Y-273716D01*
X40923D01*
X40687Y-273275D01*
X40884Y-272980D01*
X41039Y-272200D01*
X40884Y-271420D01*
X40529Y-270889D01*
Y-243665D01*
X40413Y-243080D01*
X40081Y-242584D01*
X30608Y-233111D01*
X30484Y-232485D01*
X30042Y-231823D01*
X29380Y-231381D01*
X28600Y-231226D01*
X27820Y-231381D01*
X27158Y-231823D01*
X26716Y-232485D01*
X26561Y-233265D01*
X26716Y-234046D01*
X27158Y-234707D01*
X27820Y-235149D01*
X28446Y-235274D01*
X37471Y-244299D01*
Y-249554D01*
X37009Y-249746D01*
X34801Y-247538D01*
X34305Y-247207D01*
X33720Y-247090D01*
X29991D01*
X29461Y-246736D01*
X28680Y-246580D01*
X27900Y-246736D01*
X27239Y-247178D01*
X26796Y-247839D01*
X26641Y-248620D01*
X26796Y-249400D01*
X27239Y-250061D01*
X27900Y-250504D01*
X28680Y-250659D01*
X29461Y-250504D01*
X29991Y-250149D01*
X33086D01*
X34571Y-251634D01*
Y-264254D01*
X34109Y-264446D01*
X32555Y-262893D01*
X32059Y-262561D01*
X31474Y-262445D01*
X30237D01*
X29706Y-262090D01*
X28926Y-261935D01*
X28146Y-262090D01*
X27484Y-262532D01*
X27042Y-263194D01*
X26887Y-263974D01*
X27042Y-264754D01*
X27484Y-265416D01*
X28146Y-265858D01*
X28926Y-266013D01*
X29706Y-265858D01*
X30237Y-265503D01*
X30841D01*
X32071Y-266734D01*
Y-270789D01*
X31716Y-271320D01*
X31561Y-272100D01*
X31716Y-272880D01*
X31980Y-273275D01*
X31744Y-273716D01*
X28730D01*
X28580Y-273616D01*
X27800Y-273461D01*
X27020Y-273616D01*
X26358Y-274058D01*
X25963Y-274650D01*
X25484Y-274505D01*
Y-229639D01*
X27039Y-228084D01*
X48671D01*
X48820Y-228184D01*
X49600Y-228339D01*
X50380Y-228184D01*
X51042Y-227742D01*
X51484Y-227080D01*
X51639Y-226300D01*
X51484Y-225520D01*
X51042Y-224858D01*
X50380Y-224416D01*
X49600Y-224261D01*
X48820Y-224416D01*
X48671Y-224516D01*
X26300D01*
X26300Y-224516D01*
X25617Y-224652D01*
X25038Y-225038D01*
X25038Y-225038D01*
X22438Y-227638D01*
X22263Y-227901D01*
X21784Y-227756D01*
Y-221139D01*
X22204Y-220719D01*
X22380Y-220684D01*
X23042Y-220242D01*
X23484Y-219580D01*
X23639Y-218800D01*
X23484Y-218020D01*
X23042Y-217358D01*
X22380Y-216916D01*
X21600Y-216761D01*
X20820Y-216916D01*
X20158Y-217358D01*
X19763Y-217950D01*
X19284Y-217805D01*
Y-216330D01*
X19384Y-216180D01*
X19539Y-215400D01*
X19384Y-214620D01*
X18942Y-213958D01*
X18280Y-213516D01*
X17500Y-213361D01*
X16720Y-213516D01*
X16058Y-213958D01*
X15616Y-214620D01*
X15533Y-215039D01*
X15035Y-214990D01*
Y-78973D01*
X15883D01*
Y-73852D01*
X16299Y-73574D01*
X16745Y-73758D01*
D02*
G37*
G36*
X212598Y-1275D02*
Y-1277D01*
X213287Y-1368D01*
X213928Y-1634D01*
X214479Y-2056D01*
X214902Y-2607D01*
X215167Y-3249D01*
X215258Y-3937D01*
X215261D01*
X215271Y-3986D01*
X215261Y-4035D01*
Y-159344D01*
X214763Y-159393D01*
X214699Y-159067D01*
X214312Y-158488D01*
X214312Y-158488D01*
X206562Y-150738D01*
X205983Y-150352D01*
X205300Y-150216D01*
X205158D01*
X204842Y-149742D01*
X205284Y-149080D01*
X205439Y-148300D01*
X205284Y-147520D01*
X204842Y-146858D01*
X204180Y-146416D01*
X203400Y-146261D01*
X202620Y-146416D01*
X202089Y-146771D01*
X201173D01*
Y-142022D01*
X195827D01*
Y-142769D01*
X194211D01*
Y-142344D01*
X194211D01*
Y-141692D01*
X194237D01*
X194822Y-141576D01*
X195318Y-141244D01*
X195318Y-141244D01*
X195318Y-141244D01*
X195730Y-140832D01*
X195827Y-140872D01*
Y-140872D01*
X195827Y-140872D01*
X201173D01*
Y-136117D01*
X195827D01*
Y-136981D01*
X195320Y-137081D01*
X194824Y-137413D01*
X194242Y-137995D01*
X194211Y-137982D01*
Y-137982D01*
X194211Y-137982D01*
X188274D01*
Y-141486D01*
X188100Y-142361D01*
X187320Y-142516D01*
X186658Y-142958D01*
X186216Y-143620D01*
X186061Y-144400D01*
X186216Y-145180D01*
X186658Y-145842D01*
X187320Y-146284D01*
X187223Y-146771D01*
X184369D01*
Y-146281D01*
X184369D01*
Y-141919D01*
X178431D01*
Y-146281D01*
X179871D01*
Y-146500D01*
X179987Y-147085D01*
X180319Y-147581D01*
X182119Y-149381D01*
X182615Y-149713D01*
X182641Y-149718D01*
X182592Y-150216D01*
X162339D01*
X160362Y-148238D01*
X159783Y-147852D01*
X159100Y-147716D01*
X148629D01*
X148480Y-147616D01*
X147700Y-147461D01*
X146920Y-147616D01*
X146771Y-147716D01*
X124730D01*
X124580Y-147616D01*
X123800Y-147461D01*
X123020Y-147616D01*
X122980Y-147643D01*
X122662Y-147256D01*
X130491Y-139427D01*
X141100D01*
X141100Y-139427D01*
X141646Y-139319D01*
X142109Y-139009D01*
X146909Y-134209D01*
X146909Y-134209D01*
X147219Y-133746D01*
X147219Y-133746D01*
X147219Y-133746D01*
X147327Y-133200D01*
X147327Y-133200D01*
Y-91100D01*
X147219Y-90554D01*
X147095Y-90368D01*
X146909Y-90091D01*
X146909Y-90091D01*
X136827Y-80009D01*
Y-79073D01*
X140784D01*
Y-78184D01*
X142717D01*
Y-78973D01*
X147472D01*
Y-73627D01*
X144084D01*
Y-57100D01*
Y-55500D01*
Y-42384D01*
X146071D01*
X146220Y-42484D01*
X147000Y-42639D01*
X147780Y-42484D01*
X148442Y-42042D01*
X148884Y-41380D01*
X149039Y-40600D01*
X148884Y-39820D01*
X148442Y-39158D01*
X147780Y-38716D01*
X147000Y-38561D01*
X146220Y-38716D01*
X146071Y-38816D01*
X128330D01*
X128180Y-38716D01*
X127400Y-38561D01*
X126620Y-38716D01*
X126370Y-38883D01*
X125929Y-38647D01*
Y-24633D01*
X128881Y-21681D01*
X129281Y-21281D01*
X129281Y-21282D01*
X129281Y-21281D01*
X131768Y-18795D01*
X132256Y-18997D01*
X133300Y-19135D01*
X134344Y-18997D01*
X135317Y-18594D01*
X136153Y-17953D01*
X136794Y-17117D01*
X137197Y-16144D01*
X137335Y-15100D01*
X137197Y-14056D01*
X136794Y-13083D01*
X136153Y-12247D01*
X135317Y-11606D01*
X134344Y-11203D01*
X133300Y-11066D01*
X132256Y-11203D01*
X131283Y-11606D01*
X130447Y-12247D01*
X129806Y-13083D01*
X129403Y-14056D01*
X129265Y-15100D01*
X129403Y-16144D01*
X129605Y-16632D01*
X127119Y-19119D01*
X126719Y-19519D01*
X123319Y-22919D01*
X122987Y-23415D01*
X122871Y-24000D01*
Y-46100D01*
X122871Y-46100D01*
X122871D01*
X122987Y-46685D01*
X123319Y-47181D01*
X126271Y-50134D01*
Y-51772D01*
X125822Y-51993D01*
X125317Y-51606D01*
X124344Y-51203D01*
X123300Y-51065D01*
X122256Y-51203D01*
X121283Y-51606D01*
X120447Y-52247D01*
X120403Y-52305D01*
X119929Y-52144D01*
Y-47300D01*
X119813Y-46715D01*
X119481Y-46219D01*
X114829Y-41567D01*
Y-18796D01*
X115317Y-18594D01*
X116153Y-17953D01*
X116794Y-17117D01*
X117197Y-16144D01*
X117334Y-15100D01*
X117197Y-14056D01*
X116794Y-13083D01*
X116153Y-12247D01*
X115317Y-11606D01*
X114344Y-11203D01*
X113300Y-11066D01*
X112256Y-11203D01*
X111283Y-11606D01*
X110447Y-12247D01*
X109806Y-13083D01*
X109403Y-14056D01*
X109265Y-15100D01*
X109403Y-16144D01*
X109806Y-17117D01*
X110447Y-17953D01*
X111283Y-18594D01*
X111771Y-18796D01*
Y-42200D01*
X111771Y-42200D01*
X111771D01*
X111887Y-42785D01*
X112219Y-43281D01*
X116871Y-47934D01*
Y-52405D01*
X116397Y-52565D01*
X116153Y-52247D01*
X115317Y-51606D01*
X114344Y-51203D01*
X113300Y-51065D01*
X112256Y-51203D01*
X111283Y-51606D01*
X110447Y-52247D01*
X109806Y-53083D01*
X109403Y-54056D01*
X109265Y-55100D01*
X109403Y-56144D01*
X109806Y-57117D01*
X110447Y-57953D01*
X111283Y-58594D01*
X112256Y-58997D01*
X113300Y-59135D01*
X114344Y-58997D01*
X115317Y-58594D01*
X116153Y-57953D01*
X116397Y-57635D01*
X116871Y-57795D01*
Y-75128D01*
X116987Y-75714D01*
X117319Y-76210D01*
X123316Y-82207D01*
X123155Y-82680D01*
X122224Y-82803D01*
X121250Y-83206D01*
X120415Y-83847D01*
X119774Y-84683D01*
X119371Y-85656D01*
X119233Y-86700D01*
X119371Y-87744D01*
X119774Y-88717D01*
X120415Y-89553D01*
X121250Y-90194D01*
X121738Y-90396D01*
Y-92354D01*
X121276Y-92546D01*
X116963Y-88232D01*
X117165Y-87744D01*
X117302Y-86700D01*
X117165Y-85656D01*
X116762Y-84683D01*
X116121Y-83847D01*
X115285Y-83206D01*
X114312Y-82803D01*
X113268Y-82665D01*
X113215Y-82559D01*
X114529Y-81244D01*
X114530Y-81244D01*
X114530Y-81244D01*
X114760Y-80899D01*
X114916Y-80665D01*
Y-80665D01*
X114916Y-80665D01*
X114998Y-80254D01*
X115052Y-79983D01*
Y-79983D01*
Y-79983D01*
Y-73239D01*
X115385Y-72983D01*
X115861Y-72363D01*
X116160Y-71641D01*
X116262Y-70866D01*
X116160Y-70091D01*
X115861Y-69369D01*
X115385Y-68749D01*
X114765Y-68273D01*
X114043Y-67974D01*
X113268Y-67872D01*
X112493Y-67974D01*
X111771Y-68273D01*
X111151Y-68749D01*
X110675Y-69369D01*
X110376Y-70091D01*
X110274Y-70866D01*
X110376Y-71641D01*
X110675Y-72363D01*
X111151Y-72983D01*
X111484Y-73239D01*
Y-79243D01*
X109891Y-80836D01*
X109429Y-80644D01*
Y-67200D01*
X109313Y-66615D01*
X108981Y-66119D01*
X102350Y-59487D01*
X102571Y-59039D01*
X103300Y-59135D01*
X104344Y-58997D01*
X105317Y-58594D01*
X106153Y-57953D01*
X106794Y-57117D01*
X107197Y-56144D01*
X107334Y-55100D01*
X107197Y-54056D01*
X106794Y-53083D01*
X106153Y-52247D01*
X105317Y-51606D01*
X104344Y-51203D01*
X103300Y-51065D01*
X102256Y-51203D01*
X101283Y-51606D01*
X100447Y-52247D01*
X99903Y-52956D01*
X99429Y-52796D01*
Y-21134D01*
X101768Y-18795D01*
X102256Y-18997D01*
X103300Y-19135D01*
X104344Y-18997D01*
X105317Y-18594D01*
X106153Y-17953D01*
X106794Y-17117D01*
X107197Y-16144D01*
X107334Y-15100D01*
X107197Y-14056D01*
X106794Y-13083D01*
X106153Y-12247D01*
X105317Y-11606D01*
X104344Y-11203D01*
X103300Y-11066D01*
X102256Y-11203D01*
X101283Y-11606D01*
X100447Y-12247D01*
X99806Y-13083D01*
X99403Y-14056D01*
X99265Y-15100D01*
X99403Y-16144D01*
X99605Y-16632D01*
X96819Y-19419D01*
X96487Y-19915D01*
X96371Y-20500D01*
Y-51849D01*
X95922Y-52070D01*
X95317Y-51606D01*
X94344Y-51203D01*
X93300Y-51065D01*
X92256Y-51203D01*
X91283Y-51606D01*
X90678Y-52070D01*
X90229Y-51849D01*
Y-20334D01*
X91768Y-18795D01*
X92256Y-18997D01*
X93300Y-19135D01*
X94344Y-18997D01*
X95317Y-18594D01*
X96153Y-17953D01*
X96794Y-17117D01*
X97197Y-16144D01*
X97334Y-15100D01*
X97197Y-14056D01*
X96794Y-13083D01*
X96153Y-12247D01*
X95317Y-11606D01*
X94344Y-11203D01*
X93300Y-11066D01*
X92256Y-11203D01*
X91283Y-11606D01*
X90447Y-12247D01*
X89806Y-13083D01*
X89403Y-14056D01*
X89266Y-15100D01*
X89403Y-16144D01*
X89605Y-16632D01*
X87619Y-18619D01*
X87287Y-19115D01*
X87171Y-19700D01*
Y-38914D01*
X86730Y-39150D01*
X86080Y-38716D01*
X85300Y-38561D01*
X84520Y-38716D01*
X84370Y-38816D01*
X53800D01*
X53117Y-38952D01*
X52538Y-39338D01*
X52538Y-39338D01*
X44933Y-46944D01*
X44546Y-47523D01*
X44410Y-48206D01*
Y-69061D01*
X43937Y-69222D01*
X43574Y-68749D01*
X43241Y-68493D01*
Y-30551D01*
X43241Y-30551D01*
X43105Y-29868D01*
X42718Y-29289D01*
X37467Y-24038D01*
X37522Y-23622D01*
X37420Y-22847D01*
X37121Y-22125D01*
X36645Y-21505D01*
X36025Y-21029D01*
X35302Y-20730D01*
X34528Y-20628D01*
X33753Y-20730D01*
X33031Y-21029D01*
X32410Y-21505D01*
X31935Y-22125D01*
X31635Y-22847D01*
X31534Y-23622D01*
X31635Y-24397D01*
X31935Y-25119D01*
X32410Y-25739D01*
X33031Y-26215D01*
X33753Y-26514D01*
X34528Y-26616D01*
X34944Y-26561D01*
X39672Y-31290D01*
Y-59216D01*
X20000D01*
X20000Y-59216D01*
X19317Y-59351D01*
X18738Y-59738D01*
X18738Y-59738D01*
X16258Y-62219D01*
X15871Y-62798D01*
X15735Y-63480D01*
Y-68494D01*
X15402Y-68749D01*
X14927Y-69369D01*
X14627Y-70091D01*
X14525Y-70866D01*
X14627Y-71641D01*
X14927Y-72363D01*
X15402Y-72983D01*
X15624Y-73153D01*
X15463Y-73627D01*
X11128D01*
Y-78973D01*
X11976D01*
Y-259451D01*
X11535Y-259686D01*
X11280Y-259516D01*
X10500Y-259361D01*
X9720Y-259516D01*
X9058Y-259958D01*
X8616Y-260620D01*
X8527Y-261066D01*
X8247Y-261347D01*
X7893Y-261876D01*
X7769Y-262500D01*
Y-310647D01*
X5447D01*
Y-318553D01*
X13353D01*
Y-310647D01*
X11031D01*
Y-286377D01*
X11516Y-286280D01*
X11958Y-286942D01*
X12620Y-287384D01*
X13400Y-287539D01*
X14180Y-287384D01*
X14842Y-286942D01*
X15237Y-286350D01*
X15716Y-286495D01*
Y-409400D01*
X15716Y-409400D01*
X15716D01*
X15852Y-410083D01*
X16238Y-410662D01*
X20244Y-414667D01*
X20244Y-414667D01*
X20823Y-415054D01*
X21506Y-415190D01*
X24027D01*
Y-415784D01*
X29373D01*
Y-415190D01*
X30836D01*
X31120Y-415876D01*
X31912Y-416907D01*
X32943Y-417698D01*
X34144Y-418196D01*
X35433Y-418365D01*
X36722Y-418196D01*
X37923Y-417698D01*
X38954Y-416907D01*
X39746Y-415876D01*
X40243Y-414675D01*
X40328Y-414030D01*
X40827Y-414062D01*
Y-415778D01*
X46173D01*
Y-415184D01*
X47756D01*
X48001Y-415503D01*
X48621Y-415979D01*
X49343Y-416278D01*
X50118Y-416380D01*
X50893Y-416278D01*
X51615Y-415979D01*
X52235Y-415503D01*
X52697Y-415660D01*
Y-444279D01*
X50638Y-446338D01*
X50252Y-446917D01*
X50116Y-447600D01*
Y-459201D01*
X49697Y-459407D01*
X48975Y-459108D01*
X48200Y-459006D01*
X47425Y-459108D01*
X46703Y-459407D01*
X46083Y-459883D01*
X45751Y-460316D01*
X44073D01*
Y-459722D01*
X38727D01*
Y-459834D01*
X38236Y-459932D01*
X38227Y-459910D01*
X37436Y-458879D01*
X36405Y-458087D01*
X35204Y-457590D01*
X33915Y-457420D01*
X32626Y-457590D01*
X31425Y-458087D01*
X30394Y-458879D01*
X29603Y-459910D01*
X29267Y-460721D01*
X26573D01*
Y-460128D01*
X21227D01*
Y-464884D01*
X26573D01*
Y-464290D01*
X29354D01*
X29603Y-464890D01*
X30394Y-465921D01*
X31425Y-466713D01*
X32626Y-467210D01*
X33915Y-467380D01*
X35204Y-467210D01*
X36405Y-466713D01*
X37436Y-465921D01*
X38227Y-464890D01*
X38398Y-464478D01*
X38727D01*
Y-464478D01*
X44073D01*
Y-463884D01*
X45904D01*
X46083Y-464117D01*
X46703Y-464593D01*
X47425Y-464892D01*
X48200Y-464994D01*
X48975Y-464892D01*
X49697Y-464593D01*
X50116Y-464799D01*
Y-481871D01*
X50016Y-482020D01*
X49861Y-482800D01*
X50016Y-483580D01*
X50458Y-484242D01*
X51120Y-484684D01*
X51900Y-484839D01*
X52680Y-484684D01*
X53342Y-484242D01*
X53784Y-483580D01*
X53939Y-482800D01*
X53784Y-482020D01*
X53684Y-481871D01*
Y-478945D01*
X54146Y-478753D01*
X55069Y-479676D01*
Y-493224D01*
X53124Y-495169D01*
X51558D01*
X51180Y-494916D01*
X50400Y-494761D01*
X49620Y-494916D01*
X48958Y-495358D01*
X48516Y-496020D01*
X48361Y-496800D01*
X48516Y-497580D01*
X48958Y-498242D01*
X49620Y-498684D01*
X50400Y-498839D01*
X51180Y-498684D01*
X51558Y-498431D01*
X53800D01*
X54424Y-498307D01*
X54953Y-497954D01*
X57854Y-495053D01*
X58207Y-494524D01*
X58331Y-493900D01*
X58331Y-493900D01*
X58331Y-493900D01*
Y-493900D01*
Y-479000D01*
X58207Y-478376D01*
X57854Y-477846D01*
X55900Y-475893D01*
Y-464542D01*
X56348Y-464321D01*
X56703Y-464593D01*
X57425Y-464892D01*
X58200Y-464994D01*
X58975Y-464892D01*
X59697Y-464593D01*
X60317Y-464117D01*
X60793Y-463497D01*
X61092Y-462775D01*
X61194Y-462000D01*
X61092Y-461225D01*
X60793Y-460503D01*
X60317Y-459883D01*
X59697Y-459407D01*
X58975Y-459108D01*
X58200Y-459006D01*
X57425Y-459108D01*
X56703Y-459407D01*
X56348Y-459679D01*
X55900Y-459458D01*
Y-451407D01*
X61272Y-446035D01*
X61574Y-445583D01*
X62052Y-445728D01*
Y-501524D01*
X61458Y-502118D01*
X60985Y-501958D01*
X60884Y-501194D01*
X60585Y-500471D01*
X60109Y-499851D01*
X59489Y-499375D01*
X58767Y-499076D01*
X57992Y-498974D01*
X57217Y-499076D01*
X56495Y-499375D01*
X55875Y-499851D01*
X55519Y-500316D01*
X31778D01*
Y-499427D01*
X27022D01*
Y-504773D01*
X31778D01*
Y-503884D01*
X55721D01*
X55875Y-504086D01*
X56495Y-504561D01*
X57217Y-504860D01*
X57981Y-504961D01*
X58142Y-505435D01*
X50338Y-513238D01*
X49951Y-513817D01*
X49816Y-514500D01*
Y-531753D01*
X49651Y-531967D01*
X49352Y-532690D01*
X49250Y-533465D01*
X49352Y-534239D01*
X49651Y-534962D01*
X50127Y-535582D01*
X50747Y-536058D01*
X51469Y-536357D01*
X52244Y-536459D01*
X53019Y-536357D01*
X53741Y-536058D01*
X54361Y-535582D01*
X54837Y-534962D01*
X55136Y-534239D01*
X55238Y-533465D01*
X55136Y-532690D01*
X54837Y-531967D01*
X54361Y-531347D01*
X53741Y-530872D01*
X53384Y-530724D01*
Y-519726D01*
X53858Y-519565D01*
X54064Y-519834D01*
X54684Y-520310D01*
X55406Y-520609D01*
X56181Y-520711D01*
X56956Y-520609D01*
X57678Y-520310D01*
X58298Y-519834D01*
X58749Y-519246D01*
X66483D01*
X67069Y-519130D01*
X67565Y-518798D01*
X67565Y-518798D01*
X67565Y-518798D01*
X75881Y-510481D01*
X76213Y-509985D01*
X76329Y-509400D01*
X76329Y-509400D01*
X76329Y-509400D01*
Y-509400D01*
Y-412111D01*
X76684Y-411580D01*
X76839Y-410800D01*
X76684Y-410020D01*
X76242Y-409358D01*
X75580Y-408916D01*
X74800Y-408761D01*
X74020Y-408916D01*
X73358Y-409358D01*
X72916Y-410020D01*
X72761Y-410800D01*
X72916Y-411580D01*
X73271Y-412111D01*
Y-508767D01*
X65850Y-516187D01*
X58749D01*
X58298Y-515599D01*
X57678Y-515124D01*
X56956Y-514824D01*
X56181Y-514722D01*
X55406Y-514824D01*
X54684Y-515124D01*
X54064Y-515599D01*
X53858Y-515868D01*
X53384Y-515708D01*
Y-515239D01*
X65026Y-503597D01*
X65226Y-503610D01*
X65810Y-504000D01*
X65875Y-504086D01*
X66495Y-504561D01*
X67217Y-504860D01*
X67992Y-504962D01*
X68767Y-504860D01*
X69489Y-504561D01*
X70109Y-504086D01*
X70585Y-503466D01*
X70884Y-502743D01*
X70986Y-501968D01*
X70884Y-501194D01*
X70585Y-500471D01*
X70109Y-499851D01*
X69776Y-499596D01*
Y-397422D01*
X69876Y-397273D01*
X70031Y-396492D01*
X69876Y-395712D01*
X69434Y-395050D01*
X68773Y-394608D01*
X67992Y-394453D01*
X67212Y-394608D01*
X66550Y-395050D01*
X66108Y-395712D01*
X65953Y-396492D01*
X66108Y-397273D01*
X66208Y-397422D01*
Y-398759D01*
X65721Y-398856D01*
X65279Y-398195D01*
X64617Y-397753D01*
X63837Y-397598D01*
X63056Y-397753D01*
X62395Y-398195D01*
X61953Y-398856D01*
X61797Y-399637D01*
X61953Y-400417D01*
X62052Y-400566D01*
Y-410577D01*
X61615Y-410793D01*
X60893Y-410494D01*
X60118Y-410392D01*
X59343Y-410494D01*
X58621Y-410793D01*
X58001Y-411269D01*
X57525Y-411889D01*
X57226Y-412611D01*
X57124Y-413386D01*
X57226Y-414161D01*
X57525Y-414883D01*
X58001Y-415503D01*
X58487Y-415876D01*
Y-444206D01*
X56198Y-446494D01*
X55812Y-446177D01*
X56130Y-445701D01*
X56266Y-445018D01*
X56266Y-445018D01*
Y-398557D01*
X56584Y-398080D01*
X56739Y-397300D01*
X56584Y-396520D01*
X56142Y-395858D01*
X55480Y-395416D01*
X54700Y-395261D01*
X53920Y-395416D01*
X53258Y-395858D01*
X52816Y-396520D01*
X52661Y-397300D01*
X52701Y-397501D01*
X52697Y-397518D01*
Y-411112D01*
X52235Y-411269D01*
X51615Y-410793D01*
X50893Y-410494D01*
X50118Y-410392D01*
X49343Y-410494D01*
X48621Y-410793D01*
X48001Y-411269D01*
X47735Y-411616D01*
X46173D01*
Y-411022D01*
X40827D01*
Y-412709D01*
X40328Y-412742D01*
X40243Y-412097D01*
X39746Y-410896D01*
X38954Y-409865D01*
X37923Y-409073D01*
X36722Y-408576D01*
X35433Y-408406D01*
X34144Y-408576D01*
X32943Y-409073D01*
X31912Y-409865D01*
X31120Y-410896D01*
X30820Y-411621D01*
X29373D01*
Y-411028D01*
X24027D01*
Y-411621D01*
X22245D01*
X19284Y-408661D01*
Y-398995D01*
X19763Y-398850D01*
X20158Y-399442D01*
X20820Y-399884D01*
X21600Y-400039D01*
X22380Y-399884D01*
X23042Y-399442D01*
X23484Y-398780D01*
X23639Y-398000D01*
X23484Y-397220D01*
X23042Y-396558D01*
X22380Y-396116D01*
X22204Y-396081D01*
X21784Y-395661D01*
Y-289744D01*
X22263Y-289599D01*
X22438Y-289862D01*
X23181Y-290604D01*
X23216Y-290780D01*
X23658Y-291442D01*
X24320Y-291884D01*
X25100Y-292039D01*
X25880Y-291884D01*
X26542Y-291442D01*
X26984Y-290780D01*
X27139Y-290000D01*
X26984Y-289220D01*
X26542Y-288558D01*
X25880Y-288116D01*
X25704Y-288081D01*
X25484Y-287861D01*
Y-276495D01*
X25963Y-276350D01*
X26358Y-276942D01*
X27020Y-277384D01*
X27800Y-277539D01*
X28580Y-277384D01*
X28730Y-277284D01*
X49210D01*
X49446Y-277725D01*
X49316Y-277920D01*
X49161Y-278700D01*
X49316Y-279480D01*
X49758Y-280142D01*
X50420Y-280584D01*
X50596Y-280619D01*
X52916Y-282939D01*
Y-301141D01*
X52442Y-301302D01*
X52235Y-301032D01*
X51615Y-300557D01*
X50893Y-300257D01*
X50118Y-300155D01*
X49343Y-300257D01*
X48621Y-300557D01*
X48001Y-301032D01*
X47779Y-301321D01*
X46273D01*
Y-300728D01*
X40927D01*
Y-305484D01*
X46273D01*
Y-304890D01*
X47712D01*
X48001Y-305267D01*
X48621Y-305743D01*
X49343Y-306042D01*
X50118Y-306144D01*
X50893Y-306042D01*
X51615Y-305743D01*
X52235Y-305267D01*
X52442Y-304997D01*
X52916Y-305158D01*
Y-329871D01*
X52816Y-330020D01*
X52661Y-330800D01*
X52816Y-331580D01*
X53258Y-332242D01*
X53920Y-332684D01*
X54700Y-332839D01*
X55480Y-332684D01*
X56142Y-332242D01*
X56584Y-331580D01*
X56739Y-330800D01*
X56584Y-330020D01*
X56484Y-329871D01*
Y-298895D01*
X56963Y-298750D01*
X57158Y-299042D01*
X57820Y-299484D01*
X58600Y-299639D01*
X59380Y-299484D01*
X60042Y-299042D01*
X60484Y-298380D01*
X60639Y-297600D01*
X60484Y-296820D01*
X60042Y-296158D01*
X59884Y-296053D01*
Y-290945D01*
X60363Y-290800D01*
X60738Y-291362D01*
X62281Y-292904D01*
X62316Y-293080D01*
X62758Y-293742D01*
X63420Y-294184D01*
X64200Y-294339D01*
X64980Y-294184D01*
X65642Y-293742D01*
X66084Y-293080D01*
X66239Y-292300D01*
X66084Y-291520D01*
X65642Y-290858D01*
X64980Y-290416D01*
X64804Y-290381D01*
X63784Y-289361D01*
Y-281058D01*
X64282Y-281009D01*
X64316Y-281180D01*
X64758Y-281842D01*
X65420Y-282284D01*
X66200Y-282439D01*
X66980Y-282284D01*
X67642Y-281842D01*
X68084Y-281180D01*
X68239Y-280400D01*
X68084Y-279620D01*
X67984Y-279470D01*
Y-172900D01*
X67848Y-172217D01*
X67694Y-171985D01*
X67462Y-171638D01*
X67462Y-171638D01*
X64156Y-168333D01*
X64155Y-168332D01*
X62207Y-166384D01*
X62112Y-166288D01*
X62112Y-166288D01*
X62112Y-166288D01*
X55162Y-159338D01*
X54583Y-158951D01*
X53900Y-158816D01*
X38639D01*
X31784Y-151961D01*
Y-94599D01*
X32258Y-94438D01*
X32410Y-94637D01*
X33031Y-95113D01*
X33753Y-95412D01*
X34528Y-95514D01*
X35302Y-95412D01*
X36025Y-95113D01*
X36645Y-94637D01*
X36900Y-94304D01*
X63609D01*
Y-117294D01*
X63677Y-117633D01*
X63745Y-117976D01*
X63745Y-117976D01*
Y-117976D01*
X64132Y-118555D01*
X64132Y-118555D01*
X68916Y-123339D01*
Y-214721D01*
X68761Y-215500D01*
X68916Y-216279D01*
Y-292568D01*
Y-297661D01*
X65211Y-301365D01*
X62491D01*
X62235Y-301032D01*
X61615Y-300557D01*
X60893Y-300257D01*
X60118Y-300155D01*
X59343Y-300257D01*
X58621Y-300557D01*
X58001Y-301032D01*
X57525Y-301653D01*
X57226Y-302375D01*
X57124Y-303150D01*
X57226Y-303924D01*
X57525Y-304647D01*
X58001Y-305267D01*
X58621Y-305743D01*
X59343Y-306042D01*
X60118Y-306144D01*
X60893Y-306042D01*
X61615Y-305743D01*
X62235Y-305267D01*
X62491Y-304934D01*
X65950D01*
X66633Y-304798D01*
X67212Y-304411D01*
X71962Y-299662D01*
X72348Y-299083D01*
X72484Y-298400D01*
X72484Y-298400D01*
Y-273258D01*
X72745Y-273232D01*
X73116Y-273568D01*
Y-302075D01*
X72919Y-302369D01*
X72764Y-303150D01*
X72919Y-303930D01*
X73361Y-304591D01*
X74023Y-305034D01*
X74803Y-305189D01*
X75583Y-305034D01*
X76245Y-304591D01*
X76687Y-303930D01*
X76842Y-303150D01*
X76687Y-302369D01*
X76684Y-302365D01*
Y-279901D01*
X77146Y-279709D01*
X79019Y-281581D01*
X79515Y-281913D01*
X80100Y-282029D01*
X84040D01*
X84069Y-282072D01*
X84791Y-282555D01*
X85642Y-282724D01*
X90760D01*
X91611Y-282555D01*
X92332Y-282072D01*
X92814Y-281351D01*
X92984Y-280500D01*
X92814Y-279649D01*
X92332Y-278927D01*
X91611Y-278445D01*
X90760Y-278276D01*
X85642D01*
X84791Y-278445D01*
X84069Y-278927D01*
X84040Y-278971D01*
X80734D01*
X78929Y-277167D01*
Y-273143D01*
X79320Y-272934D01*
X80100Y-273089D01*
X80880Y-272934D01*
X81542Y-272492D01*
X81984Y-271830D01*
X82058Y-271458D01*
X82129Y-271353D01*
X82264Y-270670D01*
Y-266080D01*
X82264Y-266080D01*
X82129Y-265397D01*
X81742Y-264818D01*
X79334Y-262411D01*
Y-254289D01*
X81339Y-252284D01*
X84386D01*
X84791Y-252555D01*
X85642Y-252724D01*
X90760D01*
X91611Y-252555D01*
X92332Y-252073D01*
X92814Y-251351D01*
X92873Y-251056D01*
X93371Y-251105D01*
Y-252467D01*
X92079Y-253758D01*
X91611Y-253445D01*
X90760Y-253276D01*
X85642D01*
X84791Y-253445D01*
X84069Y-253927D01*
X83587Y-254649D01*
X83418Y-255500D01*
X83587Y-256351D01*
X84069Y-257072D01*
X84791Y-257555D01*
X85642Y-257724D01*
X90760D01*
X91611Y-257555D01*
X92332Y-257072D01*
X92361Y-257029D01*
X92500D01*
X93085Y-256913D01*
X93581Y-256581D01*
X95981Y-254181D01*
X96292Y-253716D01*
X96771Y-253862D01*
Y-258407D01*
X96380Y-258616D01*
X95600Y-258461D01*
X94820Y-258616D01*
X94289Y-258971D01*
X92361D01*
X92332Y-258927D01*
X91611Y-258445D01*
X90760Y-258276D01*
X85642D01*
X84791Y-258445D01*
X84069Y-258927D01*
X83587Y-259649D01*
X83418Y-260500D01*
X83587Y-261351D01*
X84069Y-262072D01*
X84791Y-262555D01*
X85642Y-262724D01*
X90760D01*
X91611Y-262555D01*
X92332Y-262072D01*
X92361Y-262029D01*
X94289D01*
X94820Y-262384D01*
X95217Y-262463D01*
X95315Y-262953D01*
X95158Y-263058D01*
X94716Y-263720D01*
X94561Y-264500D01*
X94716Y-265280D01*
X95158Y-265942D01*
X95491Y-266164D01*
X95615Y-266787D01*
X95119Y-267119D01*
X93266Y-268971D01*
X92361D01*
X92332Y-268928D01*
X91611Y-268445D01*
X90760Y-268276D01*
X85642D01*
X84791Y-268445D01*
X84069Y-268928D01*
X83587Y-269649D01*
X83418Y-270500D01*
X83587Y-271351D01*
X84069Y-272073D01*
X84791Y-272555D01*
X85642Y-272724D01*
X90760D01*
X91611Y-272555D01*
X92332Y-272073D01*
X92361Y-272029D01*
X93900D01*
X94485Y-271913D01*
X94981Y-271581D01*
X96655Y-269907D01*
X96920Y-270084D01*
X97700Y-270239D01*
X98480Y-270084D01*
X98871Y-270293D01*
Y-272567D01*
X97466Y-273971D01*
X92361D01*
X92332Y-273927D01*
X91611Y-273445D01*
X90760Y-273276D01*
X85642D01*
X84791Y-273445D01*
X84069Y-273927D01*
X83587Y-274649D01*
X83418Y-275500D01*
X83587Y-276351D01*
X84069Y-277073D01*
X84791Y-277555D01*
X85642Y-277724D01*
X90760D01*
X91611Y-277555D01*
X92332Y-277073D01*
X92361Y-277029D01*
X98100D01*
X98685Y-276913D01*
X99181Y-276581D01*
X99181Y-276581D01*
X99181Y-276581D01*
X100409Y-275354D01*
X100871Y-275546D01*
Y-279167D01*
X96066Y-283971D01*
X92361D01*
X92332Y-283927D01*
X91611Y-283445D01*
X90760Y-283276D01*
X85642D01*
X84791Y-283445D01*
X84069Y-283927D01*
X83587Y-284649D01*
X83418Y-285500D01*
X83587Y-286351D01*
X84069Y-287072D01*
X84791Y-287555D01*
X85642Y-287724D01*
X90760D01*
X91611Y-287555D01*
X92332Y-287072D01*
X92361Y-287029D01*
X96700D01*
X97285Y-286913D01*
X97781Y-286581D01*
X97781Y-286581D01*
X97781Y-286581D01*
X103481Y-280881D01*
X103813Y-280385D01*
X103929Y-279800D01*
X103929Y-279800D01*
X103929Y-279800D01*
Y-279800D01*
Y-270220D01*
X104370Y-269984D01*
X104520Y-270084D01*
X105300Y-270239D01*
X106080Y-270084D01*
X106742Y-269642D01*
X107184Y-268980D01*
X107339Y-268200D01*
X107184Y-267420D01*
X106829Y-266889D01*
Y-261446D01*
X107291Y-261254D01*
X115571Y-269533D01*
Y-282700D01*
X115571Y-282700D01*
X115571D01*
X115687Y-283285D01*
X116019Y-283781D01*
X118819Y-286581D01*
X119315Y-286913D01*
X119900Y-287029D01*
X121639D01*
X121668Y-287072D01*
X122389Y-287555D01*
X123240Y-287724D01*
X128358D01*
X129209Y-287555D01*
X129931Y-287072D01*
X130413Y-286351D01*
X130582Y-285500D01*
X130413Y-284649D01*
X129931Y-283927D01*
X129209Y-283445D01*
X128358Y-283276D01*
X123240D01*
X122389Y-283445D01*
X121668Y-283927D01*
X121639Y-283971D01*
X120534D01*
X118629Y-282066D01*
Y-268900D01*
X118513Y-268315D01*
X118181Y-267819D01*
X117528Y-267165D01*
X117600Y-267029D01*
X121639D01*
X121668Y-267073D01*
X122389Y-267555D01*
X123240Y-267724D01*
X128358D01*
X129209Y-267555D01*
X129931Y-267073D01*
X130413Y-266351D01*
X130582Y-265500D01*
X130413Y-264649D01*
X129931Y-263928D01*
X129209Y-263445D01*
X128358Y-263276D01*
X123240D01*
X122389Y-263445D01*
X121668Y-263928D01*
X121639Y-263971D01*
X118234D01*
X116799Y-262536D01*
X116900Y-262029D01*
X121639D01*
X121668Y-262072D01*
X122389Y-262555D01*
X123240Y-262724D01*
X128358D01*
X129209Y-262555D01*
X129931Y-262072D01*
X130413Y-261351D01*
X130582Y-260500D01*
X130413Y-259649D01*
X129931Y-258927D01*
X129209Y-258445D01*
X128358Y-258276D01*
X123240D01*
X122389Y-258445D01*
X121668Y-258927D01*
X121639Y-258971D01*
X117534D01*
X116379Y-257817D01*
X116480Y-257484D01*
X117011Y-257129D01*
X121753D01*
X122389Y-257555D01*
X123240Y-257724D01*
X128358D01*
X129209Y-257555D01*
X129931Y-257072D01*
X130413Y-256351D01*
X130582Y-255500D01*
X130413Y-254649D01*
X129931Y-253927D01*
X129209Y-253445D01*
X128358Y-253276D01*
X123240D01*
X122389Y-253445D01*
X121668Y-253927D01*
X121572Y-254071D01*
X117011D01*
X116480Y-253716D01*
X115700Y-253561D01*
X114920Y-253716D01*
X114770Y-253816D01*
X114329Y-253580D01*
Y-246246D01*
X114791Y-246054D01*
X115319Y-246581D01*
X115815Y-246913D01*
X116400Y-247029D01*
X121639D01*
X121668Y-247073D01*
X122389Y-247555D01*
X123240Y-247724D01*
X128358D01*
X129209Y-247555D01*
X129931Y-247073D01*
X130413Y-246351D01*
X130582Y-245500D01*
X130413Y-244649D01*
X129931Y-243928D01*
X129209Y-243445D01*
X128358Y-243276D01*
X123240D01*
X122389Y-243445D01*
X121668Y-243928D01*
X121639Y-243971D01*
X117034D01*
X116329Y-243267D01*
Y-242253D01*
X116770Y-242017D01*
X117320Y-242384D01*
X118100Y-242539D01*
X118880Y-242384D01*
X119411Y-242029D01*
X121639D01*
X121668Y-242073D01*
X122389Y-242555D01*
X123240Y-242724D01*
X128358D01*
X129209Y-242555D01*
X129931Y-242073D01*
X130413Y-241351D01*
X130582Y-240500D01*
X130413Y-239649D01*
X129931Y-238928D01*
X129209Y-238445D01*
X128358Y-238276D01*
X123240D01*
X122389Y-238445D01*
X121668Y-238928D01*
X121639Y-238971D01*
X119411D01*
X118880Y-238616D01*
X118100Y-238461D01*
X117320Y-238616D01*
X116770Y-238983D01*
X116329Y-238747D01*
Y-237153D01*
X116770Y-236917D01*
X117320Y-237284D01*
X118100Y-237439D01*
X118880Y-237284D01*
X119261Y-237029D01*
X121639D01*
X121668Y-237072D01*
X122389Y-237555D01*
X123240Y-237724D01*
X128358D01*
X129209Y-237555D01*
X129931Y-237072D01*
X130413Y-236351D01*
X130582Y-235500D01*
X130413Y-234649D01*
X130294Y-234471D01*
X130530Y-234030D01*
X137187D01*
Y-237300D01*
X137290Y-238083D01*
X137592Y-238813D01*
X137835Y-239129D01*
Y-239973D01*
X138827D01*
X139429Y-240223D01*
X140213Y-240326D01*
X140996Y-240223D01*
X141598Y-239973D01*
X142591D01*
Y-239129D01*
X142833Y-238813D01*
X143135Y-238083D01*
X143238Y-237300D01*
Y-232702D01*
X143654Y-232424D01*
X143740Y-232460D01*
Y-233173D01*
X145618D01*
Y-230501D01*
Y-227827D01*
X143740D01*
Y-228540D01*
X143337Y-228707D01*
X143267Y-228731D01*
X142709Y-228004D01*
X142591Y-227913D01*
Y-227827D01*
X142478D01*
X141978Y-227443D01*
X141215Y-227127D01*
Y-227127D01*
X141215D01*
X141126Y-227090D01*
Y-227090D01*
X141130Y-227029D01*
X149866D01*
X150171Y-227333D01*
Y-239100D01*
X150171Y-239100D01*
X150171D01*
X150287Y-239685D01*
X150619Y-240181D01*
X153156Y-242718D01*
X153652Y-243050D01*
X154237Y-243166D01*
X154727D01*
Y-243978D01*
X160073D01*
Y-243166D01*
X161432D01*
Y-243818D01*
X166921D01*
X167113Y-244280D01*
X165324Y-246069D01*
X136358D01*
X135980Y-245816D01*
X135200Y-245661D01*
X134420Y-245816D01*
X133758Y-246258D01*
X133316Y-246920D01*
X133161Y-247700D01*
X133316Y-248480D01*
X133108Y-248869D01*
X129843D01*
X129209Y-248445D01*
X128358Y-248276D01*
X123240D01*
X122389Y-248445D01*
X121668Y-248927D01*
X121186Y-249649D01*
X121016Y-250500D01*
X121186Y-251351D01*
X121668Y-252073D01*
X122389Y-252555D01*
X123240Y-252724D01*
X128358D01*
X129209Y-252555D01*
X129843Y-252131D01*
X133124D01*
X134546Y-253554D01*
X135076Y-253907D01*
X135700Y-254031D01*
X149508D01*
X149700Y-254493D01*
X146947Y-257245D01*
X146814Y-257190D01*
X145900Y-257070D01*
X144986Y-257190D01*
X144135Y-257543D01*
X143404Y-258104D01*
X142843Y-258835D01*
X142490Y-259686D01*
X142370Y-260600D01*
Y-265600D01*
Y-282500D01*
X142370Y-282500D01*
X142370D01*
X142490Y-283414D01*
X142843Y-284265D01*
X143404Y-284996D01*
X146404Y-287996D01*
X147135Y-288557D01*
X147986Y-288910D01*
X148900Y-289030D01*
X149814Y-288910D01*
X150665Y-288557D01*
X151396Y-287996D01*
X151957Y-287265D01*
X152310Y-286414D01*
X152430Y-285500D01*
X152310Y-284586D01*
X152186Y-284286D01*
X152601Y-284008D01*
X153869Y-285276D01*
Y-293400D01*
X153869Y-293400D01*
X153869D01*
X153993Y-294024D01*
X154347Y-294553D01*
X158546Y-298753D01*
X158546D01*
X158546Y-298753D01*
X158546Y-298754D01*
Y-298753D01*
X159076Y-299107D01*
X159700Y-299231D01*
X179968D01*
X180592Y-299107D01*
X181121Y-298753D01*
X183776Y-296099D01*
X185097D01*
X185257Y-296573D01*
X184781Y-296938D01*
X184147Y-297764D01*
X183749Y-298726D01*
X183679Y-299257D01*
X191521D01*
X191451Y-298726D01*
X191053Y-297764D01*
X190419Y-296938D01*
X189593Y-296305D01*
X189634Y-296099D01*
X203192D01*
X209069Y-301976D01*
Y-365259D01*
X208682Y-365577D01*
X208100Y-365461D01*
X207320Y-365616D01*
X206658Y-366058D01*
X206509Y-366281D01*
X190704D01*
X190483Y-365832D01*
X190853Y-365351D01*
X191251Y-364389D01*
X191387Y-363357D01*
X191251Y-362326D01*
X190853Y-361364D01*
X190219Y-360538D01*
X189393Y-359905D01*
X188432Y-359506D01*
X187400Y-359370D01*
X186368Y-359506D01*
X185407Y-359905D01*
X184581Y-360538D01*
X183947Y-361364D01*
X183549Y-362326D01*
X183413Y-363357D01*
X183549Y-364389D01*
X183947Y-365351D01*
X184317Y-365832D01*
X184096Y-366281D01*
X178890D01*
X178305Y-366397D01*
X177808Y-366729D01*
X171467Y-373071D01*
X163311D01*
X162780Y-372716D01*
X162000Y-372561D01*
X161465Y-372667D01*
X161078Y-372350D01*
Y-367727D01*
X157351D01*
Y-363811D01*
X158352Y-362811D01*
X158674Y-362944D01*
Y-362944D01*
X158674Y-362944D01*
X164611D01*
Y-358582D01*
X163172D01*
Y-350743D01*
X163056Y-350157D01*
X162890Y-349909D01*
X162925Y-349856D01*
X184897D01*
X185058Y-350330D01*
X184581Y-350696D01*
X183947Y-351522D01*
X183549Y-352483D01*
X183479Y-353015D01*
X191321D01*
X191251Y-352483D01*
X190853Y-351522D01*
X190219Y-350696D01*
X189393Y-350062D01*
X189434Y-349856D01*
X196816D01*
X197195Y-350109D01*
X197975Y-350264D01*
X198755Y-350109D01*
X199417Y-349667D01*
X199859Y-349006D01*
X200014Y-348225D01*
X199859Y-347445D01*
X199417Y-346783D01*
X198755Y-346341D01*
X197975Y-346186D01*
X197195Y-346341D01*
X196816Y-346594D01*
X190706D01*
X190485Y-346145D01*
X190853Y-345666D01*
X191251Y-344704D01*
X191387Y-343672D01*
X191251Y-342640D01*
X190853Y-341679D01*
X190219Y-340853D01*
X189393Y-340220D01*
X188432Y-339821D01*
X187400Y-339686D01*
X186368Y-339821D01*
X185407Y-340220D01*
X184581Y-340853D01*
X183947Y-341679D01*
X183549Y-342640D01*
X183413Y-343672D01*
X183549Y-344704D01*
X183947Y-345666D01*
X184315Y-346145D01*
X184094Y-346594D01*
X167038D01*
X166802Y-346153D01*
X166984Y-345880D01*
X167139Y-345100D01*
X166984Y-344320D01*
X166542Y-343658D01*
X165880Y-343216D01*
X165434Y-343127D01*
X164053Y-341746D01*
X163524Y-341393D01*
X162900Y-341269D01*
X153083D01*
X152459Y-341393D01*
X151930Y-341746D01*
X151007Y-342669D01*
X139758D01*
X139380Y-342416D01*
X138600Y-342261D01*
X137820Y-342416D01*
X137158Y-342858D01*
X136716Y-343520D01*
X136561Y-344300D01*
X136675Y-344874D01*
X136358Y-345261D01*
X132873D01*
Y-344922D01*
X127527D01*
Y-345261D01*
X126173D01*
Y-344922D01*
X124360D01*
X123500Y-344751D01*
X116400D01*
X115540Y-344922D01*
X113727D01*
Y-349678D01*
D01*
X113727Y-349678D01*
X113727Y-349678D01*
X113727D01*
Y-349938D01*
X113233Y-350036D01*
X112407Y-350589D01*
X111854Y-351416D01*
X111743Y-351973D01*
X111191Y-352525D01*
X110729Y-352333D01*
Y-349678D01*
X111873D01*
Y-344922D01*
X106527D01*
Y-349678D01*
X107671D01*
Y-356362D01*
X107230Y-356598D01*
X106838Y-356336D01*
X106525Y-356274D01*
Y-360562D01*
Y-364849D01*
X106838Y-364787D01*
X107527Y-364327D01*
X107673D01*
X108362Y-364787D01*
X109175Y-364949D01*
X109987Y-364787D01*
X110676Y-364327D01*
X110823D01*
X111512Y-364787D01*
X112324Y-364949D01*
X113137Y-364787D01*
X113826Y-364327D01*
X113972D01*
X114661Y-364787D01*
X115474Y-364949D01*
X116287Y-364787D01*
X116975Y-364327D01*
X117122D01*
X117811Y-364787D01*
X118624Y-364949D01*
X119340Y-364806D01*
X119694Y-365160D01*
X119551Y-365876D01*
X119713Y-366689D01*
X120173Y-367378D01*
Y-367525D01*
X119713Y-368213D01*
X119551Y-369026D01*
X119713Y-369839D01*
X120173Y-370528D01*
Y-370674D01*
X119713Y-371363D01*
X119551Y-372176D01*
X119713Y-372988D01*
X120173Y-373677D01*
Y-373824D01*
X119713Y-374513D01*
X119551Y-375325D01*
X119713Y-376138D01*
X120173Y-376827D01*
Y-376973D01*
X119713Y-377662D01*
X119551Y-378475D01*
X119713Y-379287D01*
X120173Y-379976D01*
Y-380123D01*
X119713Y-380812D01*
X119551Y-381624D01*
X119713Y-382437D01*
X120173Y-383126D01*
Y-383273D01*
X119713Y-383961D01*
X119551Y-384774D01*
X119713Y-385587D01*
X120173Y-386276D01*
Y-386422D01*
X119713Y-387111D01*
X119551Y-387924D01*
X119694Y-388640D01*
X119340Y-388994D01*
X118624Y-388851D01*
X117811Y-389013D01*
X117122Y-389473D01*
X116975D01*
X116287Y-389013D01*
X115474Y-388851D01*
X114661Y-389013D01*
X113972Y-389473D01*
X113826D01*
X113137Y-389013D01*
X112324Y-388851D01*
X111512Y-389013D01*
X110823Y-389473D01*
X110676D01*
X109987Y-389013D01*
X109175Y-388851D01*
X108362Y-389013D01*
X107673Y-389473D01*
X107527D01*
X106838Y-389013D01*
X106025Y-388851D01*
X105213Y-389013D01*
X104524Y-389473D01*
X104377D01*
X103688Y-389013D01*
X102876Y-388851D01*
X102063Y-389013D01*
X101374Y-389473D01*
X101227D01*
X100539Y-389013D01*
X99726Y-388851D01*
X98913Y-389013D01*
X98225Y-389473D01*
X98078D01*
X97389Y-389013D01*
X96576Y-388851D01*
X95860Y-388994D01*
X95506Y-388640D01*
X95649Y-387924D01*
X95487Y-387111D01*
X95027Y-386422D01*
Y-386276D01*
X95487Y-385587D01*
X95649Y-384774D01*
X95487Y-383961D01*
X95027Y-383273D01*
Y-383126D01*
X95487Y-382437D01*
X95649Y-381624D01*
X95487Y-380812D01*
X95027Y-380123D01*
X95032Y-380106D01*
X105567D01*
X105945Y-380359D01*
X106725Y-380514D01*
X107506Y-380359D01*
X108167Y-379917D01*
X108609Y-379255D01*
X108764Y-378475D01*
X108609Y-377694D01*
X108167Y-377033D01*
X107506Y-376591D01*
X106725Y-376436D01*
X105945Y-376591D01*
X105567Y-376843D01*
X95546D01*
X95310Y-376402D01*
X95487Y-376138D01*
X95649Y-375325D01*
X95487Y-374513D01*
X95027Y-373824D01*
X95032Y-373807D01*
X102966D01*
X103344Y-374060D01*
X104124Y-374215D01*
X104905Y-374060D01*
X105566Y-373618D01*
X106008Y-372956D01*
X106164Y-372176D01*
X106008Y-371395D01*
X105566Y-370734D01*
X104905Y-370292D01*
X104124Y-370136D01*
X103344Y-370292D01*
X102966Y-370544D01*
X95546D01*
X95310Y-370103D01*
X95487Y-369839D01*
X95649Y-369026D01*
X95487Y-368213D01*
X95027Y-367525D01*
Y-367378D01*
X95487Y-366689D01*
X95649Y-365876D01*
X95506Y-365160D01*
X95860Y-364806D01*
X96576Y-364949D01*
X97389Y-364787D01*
X98078Y-364327D01*
X98225D01*
X98913Y-364787D01*
X99726Y-364949D01*
X100539Y-364787D01*
X101227Y-364327D01*
X101374D01*
X102063Y-364787D01*
X102876Y-364949D01*
X103688Y-364787D01*
X104377Y-364327D01*
X104524D01*
X105213Y-364787D01*
X105525Y-364849D01*
Y-360562D01*
Y-356274D01*
X105213Y-356336D01*
X105172Y-356363D01*
X104731Y-356127D01*
Y-343200D01*
X104607Y-342576D01*
X104253Y-342046D01*
X104173Y-341966D01*
X104084Y-341520D01*
X103642Y-340858D01*
X102980Y-340416D01*
X102200Y-340261D01*
X101420Y-340416D01*
X100758Y-340858D01*
X100316Y-341520D01*
X100161Y-342300D01*
X100316Y-343080D01*
X100758Y-343742D01*
X101148Y-344003D01*
X101173Y-344502D01*
X101082Y-344577D01*
X100500Y-344461D01*
X99720Y-344616D01*
X99251Y-344929D01*
X99239Y-344922D01*
Y-344922D01*
X99239Y-344922D01*
X93892D01*
Y-345771D01*
X92773D01*
Y-344922D01*
X87427D01*
Y-344922D01*
X87283D01*
X86929Y-344568D01*
Y-343772D01*
X87427D01*
Y-343772D01*
X89600D01*
Y-341395D01*
Y-339016D01*
X87427D01*
Y-339016D01*
X87283D01*
X86929Y-338663D01*
Y-306234D01*
X96181Y-296981D01*
X96513Y-296485D01*
X96629Y-295900D01*
X96629Y-295900D01*
X96629Y-295900D01*
Y-295900D01*
Y-294811D01*
X96984Y-294280D01*
X97139Y-293500D01*
X96984Y-292720D01*
X96542Y-292058D01*
X95880Y-291616D01*
X95100Y-291461D01*
X94320Y-291616D01*
X93658Y-292058D01*
X93216Y-292720D01*
X93061Y-293500D01*
X93216Y-294280D01*
X93571Y-294811D01*
Y-295267D01*
X84319Y-304519D01*
X83987Y-305015D01*
X83871Y-305600D01*
Y-350366D01*
X82867Y-351371D01*
X76111D01*
X75580Y-351016D01*
X74800Y-350861D01*
X74020Y-351016D01*
X73358Y-351458D01*
X72916Y-352120D01*
X72761Y-352900D01*
X72916Y-353680D01*
X73358Y-354342D01*
X74020Y-354784D01*
X74800Y-354939D01*
X75580Y-354784D01*
X76111Y-354429D01*
X83500D01*
X84085Y-354313D01*
X84581Y-353981D01*
X84581Y-353981D01*
X84581Y-353981D01*
X86481Y-352081D01*
X86813Y-351585D01*
X86929Y-351000D01*
X86929Y-351000D01*
X86929Y-351000D01*
Y-351000D01*
Y-349678D01*
X87427D01*
Y-349678D01*
X88571D01*
Y-353366D01*
X85466Y-356471D01*
X55033D01*
X42808Y-344246D01*
X42684Y-343620D01*
X42242Y-342958D01*
X41580Y-342516D01*
X40800Y-342361D01*
X40020Y-342516D01*
X39358Y-342958D01*
X39027Y-343453D01*
X38800Y-343476D01*
X38429Y-343140D01*
Y-336811D01*
X38784Y-336280D01*
X38939Y-335500D01*
X38784Y-334720D01*
X38342Y-334058D01*
X37680Y-333616D01*
X36900Y-333461D01*
X36120Y-333616D01*
X35458Y-334058D01*
X35016Y-334720D01*
X34861Y-335500D01*
X35016Y-336280D01*
X35371Y-336811D01*
Y-343054D01*
X34909Y-343246D01*
X34229Y-342566D01*
Y-339911D01*
X34584Y-339380D01*
X34739Y-338600D01*
X34584Y-337820D01*
X34142Y-337158D01*
X33480Y-336716D01*
X32700Y-336561D01*
X32126Y-336675D01*
X31739Y-336358D01*
Y-326500D01*
X31584Y-325720D01*
X31142Y-325058D01*
X29742Y-323658D01*
X29080Y-323216D01*
X28300Y-323061D01*
X27520Y-323216D01*
X26858Y-323658D01*
X26416Y-324320D01*
X26261Y-325100D01*
X26416Y-325880D01*
X26858Y-326542D01*
X27661Y-327345D01*
Y-328069D01*
X27163Y-328118D01*
X27084Y-327720D01*
X26642Y-327058D01*
X25980Y-326616D01*
X25200Y-326461D01*
X24420Y-326616D01*
X23758Y-327058D01*
X23316Y-327720D01*
X23161Y-328500D01*
X23316Y-329280D01*
X23504Y-329561D01*
Y-380416D01*
Y-385088D01*
X23504Y-385088D01*
X23504D01*
X23639Y-385771D01*
X24026Y-386350D01*
X31638Y-393962D01*
X32217Y-394349D01*
X32900Y-394484D01*
X64600D01*
X65283Y-394349D01*
X65862Y-393962D01*
X73265Y-386558D01*
X85826D01*
X86017Y-387020D01*
X84119Y-388919D01*
X83787Y-389415D01*
X83671Y-390000D01*
Y-523100D01*
X80700D01*
Y-527101D01*
Y-531100D01*
X134700D01*
Y-527101D01*
Y-523100D01*
X131729D01*
Y-511900D01*
X131613Y-511315D01*
X131281Y-510819D01*
X113854Y-493391D01*
Y-457710D01*
X114332Y-457565D01*
X114393Y-457655D01*
X140119Y-483381D01*
X140615Y-483713D01*
X141200Y-483829D01*
X183855D01*
X184047Y-484293D01*
X184681Y-485119D01*
X185507Y-485753D01*
X186468Y-486151D01*
X187500Y-486287D01*
X188532Y-486151D01*
X189493Y-485753D01*
X190319Y-485119D01*
X190953Y-484293D01*
X191351Y-483332D01*
X191487Y-482300D01*
X191351Y-481268D01*
X190953Y-480307D01*
X190319Y-479481D01*
X189493Y-478847D01*
X188532Y-478449D01*
X187500Y-478313D01*
X186468Y-478449D01*
X185507Y-478847D01*
X184681Y-479481D01*
X184047Y-480307D01*
X183855Y-480771D01*
X141833D01*
X117003Y-455940D01*
Y-452360D01*
X117482Y-452215D01*
X117542Y-452305D01*
X138776Y-473539D01*
X138776D01*
X138776Y-473539D01*
X138776Y-473539D01*
Y-473539D01*
X139272Y-473870D01*
X139857Y-473987D01*
X183855D01*
X184047Y-474451D01*
X184681Y-475277D01*
X185507Y-475910D01*
X186468Y-476308D01*
X187500Y-476444D01*
X188532Y-476308D01*
X189493Y-475910D01*
X190319Y-475277D01*
X190953Y-474451D01*
X191351Y-473489D01*
X191487Y-472457D01*
X191351Y-471425D01*
X190953Y-470464D01*
X190319Y-469638D01*
X189493Y-469005D01*
X188532Y-468606D01*
X187500Y-468470D01*
X186468Y-468606D01*
X185507Y-469005D01*
X184681Y-469638D01*
X184047Y-470464D01*
X183855Y-470928D01*
X140491D01*
X123392Y-453829D01*
X123600Y-453439D01*
X124380Y-453284D01*
X125042Y-452842D01*
X125484Y-452180D01*
X125639Y-451400D01*
X125484Y-450620D01*
X125231Y-450242D01*
Y-449347D01*
X125693Y-449156D01*
X140234Y-463696D01*
X140234D01*
X140234Y-463696D01*
X140234Y-463696D01*
Y-463696D01*
X140730Y-464028D01*
X141315Y-464144D01*
X183855D01*
X184047Y-464608D01*
X184681Y-465434D01*
X185507Y-466068D01*
X186468Y-466466D01*
X187500Y-466602D01*
X188532Y-466466D01*
X189493Y-466068D01*
X190319Y-465434D01*
X190953Y-464608D01*
X191351Y-463647D01*
X191487Y-462615D01*
X191351Y-461583D01*
X190953Y-460622D01*
X190319Y-459796D01*
X190391Y-459584D01*
X201600D01*
X202283Y-459448D01*
X202862Y-459062D01*
X214312Y-447612D01*
X214312Y-447612D01*
X214699Y-447033D01*
X214699Y-447033D01*
X215254Y-446755D01*
X215261Y-446756D01*
Y-606265D01*
X215264Y-606282D01*
X215261Y-606299D01*
X215258D01*
X215168Y-606988D01*
X214902Y-607629D01*
X214479Y-608180D01*
X213928Y-608603D01*
X213287Y-608868D01*
X212598Y-608959D01*
Y-608962D01*
X212581Y-608965D01*
X212564Y-608962D01*
X88764D01*
X88603Y-608488D01*
X88821Y-608321D01*
X89613Y-607290D01*
X90110Y-606089D01*
X90280Y-604800D01*
X90110Y-603511D01*
X89613Y-602310D01*
X88821Y-601279D01*
X87790Y-600488D01*
X87749Y-600471D01*
Y-596061D01*
X89700D01*
Y-592062D01*
Y-588061D01*
X80700D01*
Y-592062D01*
Y-596061D01*
X82651D01*
Y-600610D01*
X81779Y-601279D01*
X80988Y-602310D01*
X80490Y-603511D01*
X80320Y-604800D01*
X80490Y-606089D01*
X80988Y-607290D01*
X81779Y-608321D01*
X81997Y-608488D01*
X81836Y-608962D01*
X3937D01*
Y-608959D01*
X3249Y-608868D01*
X2607Y-608603D01*
X2056Y-608180D01*
X1634Y-607629D01*
X1368Y-606988D01*
X1277Y-606299D01*
X1275D01*
Y-3937D01*
X1277D01*
X1368Y-3249D01*
X1634Y-2607D01*
X2056Y-2056D01*
X2607Y-1634D01*
X3249Y-1368D01*
X3937Y-1277D01*
Y-1275D01*
X170470D01*
X170615Y-1753D01*
X170158Y-2058D01*
X169716Y-2720D01*
X169561Y-3500D01*
X169716Y-4280D01*
X170019Y-4734D01*
X169851Y-5204D01*
X169592Y-5283D01*
X169442Y-5058D01*
X168780Y-4616D01*
X168000Y-4461D01*
X167220Y-4616D01*
X166558Y-5058D01*
X166116Y-5720D01*
X165961Y-6500D01*
X166116Y-7280D01*
X166471Y-7811D01*
Y-22389D01*
X166116Y-22920D01*
X165961Y-23700D01*
X166116Y-24480D01*
X166558Y-25142D01*
X167220Y-25584D01*
X168000Y-25739D01*
X168780Y-25584D01*
X169442Y-25142D01*
X169884Y-24480D01*
X170039Y-23700D01*
X169884Y-22920D01*
X169529Y-22389D01*
Y-19762D01*
X170008Y-19617D01*
X170158Y-19842D01*
X170820Y-20284D01*
X171600Y-20439D01*
X172380Y-20284D01*
X173042Y-19842D01*
X173484Y-19180D01*
X173639Y-18400D01*
X173484Y-17620D01*
X173129Y-17089D01*
Y-4811D01*
X173484Y-4280D01*
X173639Y-3500D01*
X173484Y-2720D01*
X173042Y-2058D01*
X172585Y-1753D01*
X172730Y-1275D01*
X212500D01*
X212549Y-1265D01*
X212598Y-1275D01*
D02*
G37*
G36*
X146219Y-382381D02*
X146715Y-382713D01*
X147178Y-382805D01*
Y-383305D01*
X146620Y-383416D01*
X145958Y-383858D01*
X145516Y-384520D01*
X145361Y-385300D01*
X145516Y-386080D01*
X145958Y-386742D01*
X146620Y-387184D01*
X147400Y-387339D01*
X148180Y-387184D01*
X148390Y-387043D01*
X148831Y-387279D01*
Y-387481D01*
X154769D01*
Y-384785D01*
X155230Y-384593D01*
X157619Y-386981D01*
X158115Y-387313D01*
X158700Y-387429D01*
X177166D01*
X180871Y-391133D01*
Y-408215D01*
X180987Y-408800D01*
X181319Y-409296D01*
X182719Y-410696D01*
X182719D01*
X182719Y-410697D01*
X182719Y-410697D01*
Y-410697D01*
X183215Y-411028D01*
X183751Y-411135D01*
X183947Y-411608D01*
X184493Y-412320D01*
X184272Y-412769D01*
X180776D01*
X180239Y-412232D01*
X179710Y-411879D01*
X179086Y-411754D01*
X168907D01*
X168535Y-411269D01*
X167914Y-410793D01*
X167192Y-410494D01*
X166417Y-410392D01*
X165642Y-410494D01*
X164920Y-410793D01*
X164300Y-411269D01*
X163824Y-411889D01*
X163525Y-412611D01*
X163423Y-413386D01*
X163525Y-414161D01*
X163824Y-414883D01*
X164300Y-415503D01*
X164920Y-415979D01*
X165642Y-416278D01*
X166417Y-416380D01*
X167192Y-416278D01*
X167914Y-415979D01*
X168535Y-415503D01*
X168907Y-415017D01*
X178410D01*
X178946Y-415554D01*
X179476Y-415907D01*
X180100Y-416031D01*
X180100Y-416031D01*
X184594D01*
X184755Y-416505D01*
X184581Y-416638D01*
X183947Y-417464D01*
X183549Y-418426D01*
X183479Y-418957D01*
X191321D01*
X191251Y-418426D01*
X190853Y-417464D01*
X190219Y-416638D01*
X190045Y-416505D01*
X190206Y-416031D01*
X205542D01*
X205920Y-416284D01*
X206700Y-416439D01*
X207480Y-416284D01*
X208142Y-415842D01*
X208584Y-415180D01*
X209069Y-415277D01*
Y-425924D01*
X197802Y-437191D01*
X197600Y-437151D01*
X196625Y-437345D01*
X195798Y-437898D01*
X195245Y-438725D01*
X195051Y-439700D01*
X195245Y-440675D01*
X195798Y-441502D01*
X196625Y-442055D01*
X197600Y-442249D01*
X198575Y-442055D01*
X199402Y-441502D01*
X199955Y-440675D01*
X200149Y-439700D01*
X200109Y-439498D01*
X210804Y-428803D01*
X211266Y-428995D01*
Y-445611D01*
X200861Y-456016D01*
X190559D01*
X190338Y-455567D01*
X190953Y-454766D01*
X191351Y-453804D01*
X191487Y-452772D01*
X191351Y-451741D01*
X190953Y-450779D01*
X190319Y-449953D01*
X189493Y-449320D01*
X188532Y-448921D01*
X187500Y-448785D01*
X186468Y-448921D01*
X185507Y-449320D01*
X184681Y-449953D01*
X184047Y-450779D01*
X183855Y-451243D01*
X139006D01*
X130189Y-442427D01*
X129929Y-442167D01*
Y-415784D01*
X129929D01*
X130027D01*
X130283Y-415784D01*
X130283Y-415784D01*
Y-415784D01*
X135373D01*
Y-415190D01*
X137136D01*
X137420Y-415876D01*
X138211Y-416907D01*
X139242Y-417698D01*
X140443Y-418196D01*
X141732Y-418365D01*
X143021Y-418196D01*
X144222Y-417698D01*
X145253Y-416907D01*
X146045Y-415876D01*
X146542Y-414675D01*
X146628Y-414024D01*
X147127Y-414056D01*
Y-415684D01*
X152473D01*
Y-415090D01*
X153983D01*
X154300Y-415503D01*
X154920Y-415979D01*
X155642Y-416278D01*
X156417Y-416380D01*
X157192Y-416278D01*
X157914Y-415979D01*
X158535Y-415503D01*
X159010Y-414883D01*
X159309Y-414161D01*
X159412Y-413386D01*
X159309Y-412611D01*
X159010Y-411889D01*
X158535Y-411269D01*
X157914Y-410793D01*
X157192Y-410494D01*
X156417Y-410392D01*
X155642Y-410494D01*
X154920Y-410793D01*
X154300Y-411269D01*
X154106Y-411521D01*
X152473D01*
Y-410928D01*
X147127D01*
Y-412715D01*
X146628Y-412748D01*
X146542Y-412097D01*
X146045Y-410896D01*
X145253Y-409865D01*
X144222Y-409073D01*
X143021Y-408576D01*
X141732Y-408406D01*
X140443Y-408576D01*
X139242Y-409073D01*
X138211Y-409865D01*
X137420Y-410896D01*
X137119Y-411621D01*
X135373D01*
Y-411028D01*
X130283D01*
X130283Y-411028D01*
Y-411028D01*
X130027Y-411028D01*
X129929Y-410930D01*
Y-409878D01*
X129929D01*
X130027D01*
X130283Y-409878D01*
X130283Y-409878D01*
Y-409878D01*
X132200D01*
Y-407501D01*
Y-405122D01*
X130283D01*
X130283Y-405122D01*
Y-405122D01*
X130027Y-405122D01*
X129929Y-405025D01*
Y-402533D01*
X130881Y-401581D01*
X130881Y-401581D01*
X130881Y-401581D01*
X134181Y-398281D01*
X134513Y-397785D01*
X134532Y-397688D01*
X134629Y-397200D01*
Y-393490D01*
X135091Y-393298D01*
X140746Y-398954D01*
X141276Y-399307D01*
X141900Y-399431D01*
X173850D01*
X173898Y-399502D01*
X174724Y-400055D01*
X175700Y-400249D01*
X176675Y-400055D01*
X177502Y-399502D01*
X178055Y-398675D01*
X178249Y-397700D01*
X178055Y-396725D01*
X177502Y-395898D01*
X176675Y-395345D01*
X175700Y-395151D01*
X175502Y-394855D01*
X175555Y-394776D01*
X175749Y-393800D01*
X175555Y-392825D01*
X175002Y-391998D01*
X174176Y-391445D01*
X173200Y-391251D01*
X172287Y-391432D01*
X172073Y-391218D01*
X171944Y-391026D01*
X172049Y-390500D01*
X171855Y-389525D01*
X171302Y-388698D01*
X170475Y-388145D01*
X169500Y-387951D01*
X168525Y-388145D01*
X167698Y-388698D01*
X167583Y-388869D01*
X144776D01*
X142531Y-386624D01*
Y-379347D01*
X142993Y-379156D01*
X146219Y-382381D01*
D02*
G37*
%LPC*%
G36*
X165100Y-364261D02*
X164320Y-364416D01*
X163658Y-364858D01*
X163216Y-365520D01*
X163061Y-366300D01*
X163216Y-367080D01*
X163658Y-367742D01*
X164320Y-368184D01*
X165100Y-368339D01*
X165880Y-368184D01*
X166542Y-367742D01*
X166984Y-367080D01*
X167139Y-366300D01*
X166984Y-365520D01*
X166542Y-364858D01*
X165880Y-364416D01*
X165100Y-364261D01*
D02*
G37*
G36*
X9400Y-340613D02*
X8368Y-340749D01*
X7407Y-341147D01*
X6581Y-341781D01*
X5947Y-342607D01*
X5549Y-343568D01*
X5413Y-344600D01*
X5549Y-345632D01*
X5947Y-346593D01*
X6581Y-347419D01*
X7407Y-348053D01*
X8368Y-348451D01*
X9400Y-348587D01*
X10432Y-348451D01*
X11393Y-348053D01*
X12219Y-347419D01*
X12853Y-346593D01*
X13251Y-345632D01*
X13387Y-344600D01*
X13251Y-343568D01*
X12853Y-342607D01*
X12219Y-341781D01*
X11393Y-341147D01*
X10432Y-340749D01*
X9400Y-340613D01*
D02*
G37*
G36*
X39900Y-375375D02*
Y-378200D01*
X42725D01*
X42676Y-377822D01*
X42337Y-377004D01*
X41798Y-376302D01*
X41096Y-375763D01*
X40278Y-375424D01*
X39900Y-375375D01*
D02*
G37*
G36*
X191321Y-354015D02*
X187900D01*
Y-357436D01*
X188432Y-357366D01*
X189393Y-356968D01*
X190219Y-356334D01*
X190853Y-355508D01*
X191251Y-354547D01*
X191321Y-354015D01*
D02*
G37*
G36*
X89500Y-291361D02*
X88720Y-291516D01*
X88058Y-291958D01*
X87616Y-292620D01*
X87581Y-292796D01*
X79838Y-300538D01*
X79452Y-301117D01*
X79316Y-301800D01*
Y-318300D01*
Y-322100D01*
Y-345071D01*
X79216Y-345220D01*
X79061Y-346000D01*
X79216Y-346780D01*
X79658Y-347442D01*
X80320Y-347884D01*
X81100Y-348039D01*
X81880Y-347884D01*
X82542Y-347442D01*
X82984Y-346780D01*
X83139Y-346000D01*
X82984Y-345220D01*
X82884Y-345071D01*
Y-322100D01*
Y-302539D01*
X90104Y-295319D01*
X90280Y-295284D01*
X90942Y-294842D01*
X91384Y-294180D01*
X91539Y-293400D01*
X91384Y-292620D01*
X90942Y-291958D01*
X90280Y-291516D01*
X89500Y-291361D01*
D02*
G37*
G36*
X186900Y-354015D02*
X183479D01*
X183549Y-354547D01*
X183947Y-355508D01*
X184581Y-356334D01*
X185407Y-356968D01*
X186368Y-357366D01*
X186900Y-357436D01*
Y-354015D01*
D02*
G37*
G36*
X62959Y-386674D02*
X59900D01*
Y-389142D01*
X62959D01*
Y-386674D01*
D02*
G37*
G36*
X58900Y-383206D02*
X55841D01*
Y-385674D01*
X58900D01*
Y-383206D01*
D02*
G37*
G36*
Y-386674D02*
X55841D01*
Y-389142D01*
X58900D01*
Y-386674D01*
D02*
G37*
G36*
X29373Y-405122D02*
X27200D01*
Y-407000D01*
X29373D01*
Y-405122D01*
D02*
G37*
G36*
X135373D02*
X133200D01*
Y-407000D01*
X135373D01*
Y-405122D01*
D02*
G37*
G36*
X49400Y-375309D02*
X48522Y-375424D01*
X47704Y-375763D01*
X47002Y-376302D01*
X46463Y-377004D01*
X46124Y-377822D01*
X46009Y-378700D01*
X46124Y-379578D01*
X46463Y-380396D01*
X47002Y-381098D01*
X47704Y-381637D01*
X48522Y-381976D01*
X49400Y-382091D01*
X50278Y-381976D01*
X51096Y-381637D01*
X51798Y-381098D01*
X52073Y-380739D01*
X55841D01*
Y-381269D01*
X62959D01*
Y-375331D01*
X55841D01*
Y-376661D01*
X52073D01*
X51798Y-376302D01*
X51096Y-375763D01*
X50278Y-375424D01*
X49400Y-375309D01*
D02*
G37*
G36*
X38900Y-375375D02*
X38522Y-375424D01*
X37704Y-375763D01*
X37002Y-376302D01*
X36463Y-377004D01*
X36124Y-377822D01*
X36075Y-378200D01*
X38900D01*
Y-375375D01*
D02*
G37*
G36*
X42725Y-379200D02*
X39900D01*
Y-382025D01*
X40278Y-381976D01*
X41096Y-381637D01*
X41798Y-381098D01*
X42337Y-380396D01*
X42676Y-379578D01*
X42725Y-379200D01*
D02*
G37*
G36*
X62959Y-383206D02*
X59900D01*
Y-385674D01*
X62959D01*
Y-383206D01*
D02*
G37*
G36*
X38900Y-379200D02*
X36075D01*
X36124Y-379578D01*
X36463Y-380396D01*
X37002Y-381098D01*
X37704Y-381637D01*
X38522Y-381976D01*
X38900Y-382025D01*
Y-379200D01*
D02*
G37*
G36*
X119073Y-339016D02*
X116900D01*
Y-340894D01*
X119073D01*
Y-339016D01*
D02*
G37*
G36*
X123000D02*
X120827D01*
Y-340894D01*
X123000D01*
Y-339016D01*
D02*
G37*
G36*
X115900D02*
X113727D01*
Y-340894D01*
X115900D01*
Y-339016D01*
D02*
G37*
G36*
X108700D02*
X106527D01*
Y-340894D01*
X108700D01*
Y-339016D01*
D02*
G37*
G36*
X111873D02*
X109700D01*
Y-340894D01*
X111873D01*
Y-339016D01*
D02*
G37*
G36*
X126173D02*
X124000D01*
Y-340894D01*
X126173D01*
Y-339016D01*
D02*
G37*
G36*
X13321Y-335100D02*
X9900D01*
Y-338521D01*
X10432Y-338451D01*
X11393Y-338053D01*
X12219Y-337419D01*
X12853Y-336593D01*
X13251Y-335632D01*
X13321Y-335100D01*
D02*
G37*
G36*
X187900Y-329843D02*
X186868Y-329979D01*
X185907Y-330377D01*
X185081Y-331011D01*
X184447Y-331837D01*
X184049Y-332798D01*
X183913Y-333830D01*
X184049Y-334862D01*
X184447Y-335823D01*
X185081Y-336649D01*
X185907Y-337283D01*
X186868Y-337681D01*
X187900Y-337817D01*
X188932Y-337681D01*
X189893Y-337283D01*
X190719Y-336649D01*
X191353Y-335823D01*
X191751Y-334862D01*
X191887Y-333830D01*
X191751Y-332798D01*
X191353Y-331837D01*
X190719Y-331011D01*
X189893Y-330377D01*
X188932Y-329979D01*
X187900Y-329843D01*
D02*
G37*
G36*
X8900Y-335100D02*
X5479D01*
X5549Y-335632D01*
X5947Y-336593D01*
X6581Y-337419D01*
X7407Y-338053D01*
X8368Y-338451D01*
X8900Y-338521D01*
Y-335100D01*
D02*
G37*
G36*
X129700Y-339016D02*
X127527D01*
Y-340894D01*
X129700D01*
Y-339016D01*
D02*
G37*
G36*
X132873D02*
X130700D01*
Y-340894D01*
X132873D01*
Y-339016D01*
D02*
G37*
G36*
X111873Y-341894D02*
X109700D01*
Y-343772D01*
X111873D01*
Y-341894D01*
D02*
G37*
G36*
X115900D02*
X113727D01*
Y-343772D01*
X115900D01*
Y-341894D01*
D02*
G37*
G36*
X108700D02*
X106527D01*
Y-343772D01*
X108700D01*
Y-341894D01*
D02*
G37*
G36*
X38100Y-314661D02*
X37320Y-314816D01*
X36658Y-315258D01*
X36216Y-315920D01*
X36061Y-316700D01*
X36216Y-317480D01*
X36658Y-318142D01*
X37320Y-318584D01*
X37946Y-318708D01*
X39271Y-320034D01*
Y-331600D01*
X39271Y-331600D01*
X39271D01*
X39387Y-332185D01*
X39719Y-332681D01*
X50319Y-343281D01*
X50318D01*
X50319Y-343281D01*
X50319Y-343282D01*
Y-343281D01*
X50815Y-343613D01*
X51400Y-343729D01*
X71389D01*
X71920Y-344084D01*
X72700Y-344239D01*
X73480Y-344084D01*
X74142Y-343642D01*
X74584Y-342980D01*
X74739Y-342200D01*
X74584Y-341420D01*
X74142Y-340758D01*
X73480Y-340316D01*
X72700Y-340161D01*
X71920Y-340316D01*
X71389Y-340671D01*
X52034D01*
X42329Y-330966D01*
Y-319400D01*
X42213Y-318815D01*
X41881Y-318319D01*
X40108Y-316546D01*
X39984Y-315920D01*
X39542Y-315258D01*
X38880Y-314816D01*
X38100Y-314661D01*
D02*
G37*
G36*
X92773Y-341894D02*
X90600D01*
Y-343772D01*
X92773D01*
Y-341894D01*
D02*
G37*
G36*
X119073D02*
X116900D01*
Y-343772D01*
X119073D01*
Y-341894D01*
D02*
G37*
G36*
X132873D02*
X130700D01*
Y-343772D01*
X132873D01*
Y-341894D01*
D02*
G37*
G36*
X92773Y-339016D02*
X90600D01*
Y-340894D01*
X92773D01*
Y-339016D01*
D02*
G37*
G36*
X129700Y-341894D02*
X127527D01*
Y-343772D01*
X129700D01*
Y-341894D01*
D02*
G37*
G36*
X123000D02*
X120827D01*
Y-343772D01*
X123000D01*
Y-341894D01*
D02*
G37*
G36*
X126173D02*
X124000D01*
Y-343772D01*
X126173D01*
Y-341894D01*
D02*
G37*
G36*
X164291Y-530506D02*
X163516Y-530608D01*
X162794Y-530907D01*
X162174Y-531383D01*
X161698Y-532003D01*
X161399Y-532725D01*
X161297Y-533500D01*
X161399Y-534275D01*
X161698Y-534997D01*
X162174Y-535617D01*
X162794Y-536093D01*
X163516Y-536392D01*
X164291Y-536494D01*
X165066Y-536392D01*
X165788Y-536093D01*
X166409Y-535617D01*
X166884Y-534997D01*
X167183Y-534275D01*
X167286Y-533500D01*
X167183Y-532725D01*
X166884Y-532003D01*
X166409Y-531383D01*
X165788Y-530907D01*
X165066Y-530608D01*
X164291Y-530506D01*
D02*
G37*
G36*
X163278Y-524127D02*
X158522D01*
Y-529473D01*
X163278D01*
Y-528584D01*
X170761D01*
X172507Y-530331D01*
Y-531127D01*
X172174Y-531383D01*
X171698Y-532003D01*
X171399Y-532725D01*
X171297Y-533500D01*
X171399Y-534275D01*
X171698Y-534997D01*
X172174Y-535617D01*
X172794Y-536093D01*
X173516Y-536392D01*
X174291Y-536494D01*
X175066Y-536392D01*
X175788Y-536093D01*
X176409Y-535617D01*
X176884Y-534997D01*
X177183Y-534275D01*
X177286Y-533500D01*
X177183Y-532725D01*
X176884Y-532003D01*
X176409Y-531383D01*
X176076Y-531127D01*
Y-529591D01*
X176076Y-529591D01*
X175940Y-528909D01*
X175553Y-528330D01*
X175553Y-528330D01*
X172762Y-525538D01*
X172183Y-525151D01*
X171500Y-525016D01*
X163278D01*
Y-524127D01*
D02*
G37*
G36*
X40276Y-548187D02*
X39501Y-548289D01*
X38778Y-548588D01*
X38158Y-549064D01*
X37888Y-549416D01*
X31778D01*
Y-548527D01*
X27022D01*
Y-553873D01*
X31778D01*
Y-552984D01*
X37918D01*
X38158Y-553298D01*
X38778Y-553774D01*
X39501Y-554073D01*
X40276Y-554175D01*
X41050Y-554073D01*
X41773Y-553774D01*
X42393Y-553298D01*
X42869Y-552678D01*
X43168Y-551956D01*
X43270Y-551181D01*
X43168Y-550406D01*
X42869Y-549684D01*
X42393Y-549064D01*
X41773Y-548588D01*
X41050Y-548289D01*
X40276Y-548187D01*
D02*
G37*
G36*
X50276D02*
X49501Y-548289D01*
X48779Y-548588D01*
X48158Y-549064D01*
X47683Y-549684D01*
X47383Y-550406D01*
X47282Y-551181D01*
X47383Y-551956D01*
X47683Y-552678D01*
X48158Y-553298D01*
X48779Y-553774D01*
X49501Y-554073D01*
X50276Y-554175D01*
X51051Y-554073D01*
X51773Y-553774D01*
X52393Y-553298D01*
X52869Y-552678D01*
X53168Y-551956D01*
X53270Y-551181D01*
X53168Y-550406D01*
X52869Y-549684D01*
X52393Y-549064D01*
X51773Y-548588D01*
X51051Y-548289D01*
X50276Y-548187D01*
D02*
G37*
G36*
X163278Y-540427D02*
X158522D01*
Y-545773D01*
X163278D01*
Y-544884D01*
X172061D01*
X174476Y-547299D01*
Y-548808D01*
X174143Y-549064D01*
X173667Y-549684D01*
X173368Y-550406D01*
X173266Y-551181D01*
X173368Y-551956D01*
X173667Y-552678D01*
X174143Y-553298D01*
X174663Y-553697D01*
X174502Y-554171D01*
X171412D01*
X169157Y-551916D01*
X169254Y-551181D01*
X169152Y-550406D01*
X168853Y-549684D01*
X168377Y-549064D01*
X167757Y-548588D01*
X167035Y-548289D01*
X166260Y-548187D01*
X165485Y-548289D01*
X164763Y-548588D01*
X164143Y-549064D01*
X163667Y-549684D01*
X163368Y-550406D01*
X163266Y-551181D01*
X163368Y-551956D01*
X163667Y-552678D01*
X164143Y-553298D01*
X164763Y-553774D01*
X165485Y-554073D01*
X166260Y-554175D01*
X166994Y-554078D01*
X169697Y-556781D01*
X169697Y-556781D01*
X169697Y-556781D01*
Y-556781D01*
X169697Y-556781D01*
Y-556781D01*
X170194Y-557113D01*
X170779Y-557229D01*
X201189D01*
X201720Y-557584D01*
X202500Y-557739D01*
X203280Y-557584D01*
X203942Y-557142D01*
X204384Y-556480D01*
X204539Y-555700D01*
X204384Y-554920D01*
X203942Y-554258D01*
X203280Y-553816D01*
X202500Y-553661D01*
X201720Y-553816D01*
X201189Y-554171D01*
X178018D01*
X177857Y-553697D01*
X178377Y-553298D01*
X178853Y-552678D01*
X179152Y-551956D01*
X179254Y-551181D01*
X179152Y-550406D01*
X178853Y-549684D01*
X178377Y-549064D01*
X178044Y-548808D01*
Y-546560D01*
X178044Y-546560D01*
X177908Y-545877D01*
X177522Y-545298D01*
X177522Y-545298D01*
X174062Y-541838D01*
X173483Y-541452D01*
X172800Y-541316D01*
X163278D01*
Y-540427D01*
D02*
G37*
G36*
X79700Y-523100D02*
X77700D01*
Y-526600D01*
X79700D01*
Y-523100D01*
D02*
G37*
G36*
X137700D02*
X135700D01*
Y-526600D01*
X137700D01*
Y-523100D01*
D02*
G37*
G36*
Y-527600D02*
X135700D01*
Y-531100D01*
X137700D01*
Y-527600D01*
D02*
G37*
G36*
X42244Y-530471D02*
X41469Y-530573D01*
X40747Y-530872D01*
X40127Y-531347D01*
X39844Y-531716D01*
X31778D01*
Y-530827D01*
X27022D01*
Y-536173D01*
X31778D01*
Y-535284D01*
X39899D01*
X40127Y-535582D01*
X40747Y-536058D01*
X41469Y-536357D01*
X42244Y-536459D01*
X43019Y-536357D01*
X43741Y-536058D01*
X44361Y-535582D01*
X44837Y-534962D01*
X45136Y-534239D01*
X45238Y-533465D01*
X45136Y-532690D01*
X44837Y-531967D01*
X44361Y-531347D01*
X43741Y-530872D01*
X43019Y-530573D01*
X42244Y-530471D01*
D02*
G37*
G36*
X79700Y-527600D02*
X77700D01*
Y-531100D01*
X79700D01*
Y-527600D01*
D02*
G37*
G36*
X46181Y-565904D02*
X45406Y-566006D01*
X44684Y-566305D01*
X44064Y-566780D01*
X43807Y-567116D01*
X31778D01*
Y-566227D01*
X27022D01*
Y-571573D01*
X31778D01*
Y-570684D01*
X43810D01*
X44064Y-571015D01*
X44684Y-571491D01*
X45406Y-571790D01*
X46181Y-571892D01*
X46956Y-571790D01*
X47678Y-571491D01*
X48298Y-571015D01*
X48774Y-570395D01*
X49073Y-569672D01*
X49175Y-568898D01*
X49073Y-568123D01*
X48774Y-567401D01*
X48298Y-566780D01*
X47678Y-566305D01*
X46956Y-566006D01*
X46181Y-565904D01*
D02*
G37*
G36*
X92700Y-592561D02*
X90700D01*
Y-596061D01*
X92700D01*
Y-592561D01*
D02*
G37*
G36*
X79700Y-588061D02*
X77700D01*
Y-591561D01*
X79700D01*
Y-588061D01*
D02*
G37*
G36*
Y-592561D02*
X77700D01*
Y-596061D01*
X79700D01*
Y-592561D01*
D02*
G37*
G36*
X19685Y-582372D02*
X18089Y-582529D01*
X16555Y-582995D01*
X15141Y-583750D01*
X13902Y-584768D01*
X12884Y-586007D01*
X12128Y-587421D01*
X11663Y-588955D01*
X11506Y-590551D01*
X11663Y-592147D01*
X12128Y-593681D01*
X12884Y-595095D01*
X13902Y-596335D01*
X15141Y-597352D01*
X16555Y-598108D01*
X18089Y-598573D01*
X19685Y-598730D01*
X21281Y-598573D01*
X22815Y-598108D01*
X24229Y-597352D01*
X25469Y-596335D01*
X26486Y-595095D01*
X27242Y-593681D01*
X27707Y-592147D01*
X27864Y-590551D01*
X27707Y-588955D01*
X27242Y-587421D01*
X26486Y-586007D01*
X25469Y-584768D01*
X24229Y-583750D01*
X22815Y-582995D01*
X21281Y-582529D01*
X19685Y-582372D01*
D02*
G37*
G36*
X196850D02*
X195255Y-582529D01*
X193720Y-582995D01*
X192306Y-583750D01*
X191067Y-584768D01*
X190050Y-586007D01*
X189294Y-587421D01*
X188828Y-588955D01*
X188671Y-590551D01*
X188828Y-592147D01*
X189294Y-593681D01*
X190050Y-595095D01*
X191067Y-596335D01*
X192306Y-597352D01*
X193720Y-598108D01*
X195255Y-598573D01*
X196850Y-598730D01*
X198446Y-598573D01*
X199980Y-598108D01*
X201395Y-597352D01*
X202634Y-596335D01*
X203651Y-595095D01*
X204407Y-593681D01*
X204872Y-592147D01*
X205030Y-590551D01*
X204872Y-588955D01*
X204407Y-587421D01*
X203651Y-586007D01*
X202634Y-584768D01*
X201395Y-583750D01*
X199980Y-582995D01*
X198446Y-582529D01*
X196850Y-582372D01*
D02*
G37*
G36*
X163278Y-558027D02*
X158522D01*
Y-563373D01*
X163278D01*
Y-562484D01*
X167261D01*
X168570Y-563794D01*
Y-566525D01*
X168237Y-566780D01*
X167761Y-567401D01*
X167462Y-568123D01*
X167360Y-568898D01*
X167462Y-569672D01*
X167761Y-570395D01*
X168237Y-571015D01*
X168857Y-571491D01*
X169580Y-571790D01*
X170354Y-571892D01*
X171129Y-571790D01*
X171852Y-571491D01*
X172472Y-571015D01*
X172947Y-570395D01*
X173247Y-569672D01*
X173348Y-568898D01*
X173247Y-568123D01*
X172947Y-567401D01*
X172472Y-566780D01*
X172139Y-566525D01*
Y-563054D01*
X172003Y-562372D01*
X171616Y-561793D01*
X171616Y-561793D01*
X169262Y-559438D01*
X168683Y-559052D01*
X168000Y-558916D01*
X163278D01*
Y-558027D01*
D02*
G37*
G36*
X23494Y-480866D02*
X22714Y-481022D01*
X22052Y-481464D01*
X21610Y-482125D01*
X21455Y-482906D01*
X21610Y-483686D01*
X21710Y-483835D01*
Y-499427D01*
X21116D01*
Y-504773D01*
X21710D01*
Y-515027D01*
X21116D01*
Y-520373D01*
X21710D01*
Y-530827D01*
X21116D01*
Y-536173D01*
X21710D01*
Y-548527D01*
X21116D01*
Y-553873D01*
X21710D01*
Y-566227D01*
X21116D01*
Y-571573D01*
X25872D01*
Y-566227D01*
X25279D01*
Y-553873D01*
X25872D01*
Y-548527D01*
X25279D01*
Y-536173D01*
X25872D01*
Y-530827D01*
X25279D01*
Y-520373D01*
X25872D01*
Y-515027D01*
X25279D01*
Y-504773D01*
X25872D01*
Y-499427D01*
X25279D01*
Y-483835D01*
X25378Y-483686D01*
X25534Y-482906D01*
X25378Y-482125D01*
X24936Y-481464D01*
X24275Y-481022D01*
X23494Y-480866D01*
D02*
G37*
G36*
X56181Y-565904D02*
X55406Y-566006D01*
X54684Y-566305D01*
X54064Y-566780D01*
X53588Y-567401D01*
X53289Y-568123D01*
X53187Y-568898D01*
X53289Y-569672D01*
X53588Y-570395D01*
X54064Y-571015D01*
X54684Y-571491D01*
X55406Y-571790D01*
X56181Y-571892D01*
X56956Y-571790D01*
X57678Y-571491D01*
X58298Y-571015D01*
X58774Y-570395D01*
X59073Y-569672D01*
X59175Y-568898D01*
X59073Y-568123D01*
X58774Y-567401D01*
X58298Y-566780D01*
X57678Y-566305D01*
X56956Y-566006D01*
X56181Y-565904D01*
D02*
G37*
G36*
X92700Y-588061D02*
X90700D01*
Y-591561D01*
X92700D01*
Y-588061D01*
D02*
G37*
G36*
X160354Y-565904D02*
X159580Y-566006D01*
X158857Y-566305D01*
X158237Y-566780D01*
X157761Y-567401D01*
X157462Y-568123D01*
X157360Y-568898D01*
X157462Y-569672D01*
X157761Y-570395D01*
X158237Y-571015D01*
X158825Y-571466D01*
Y-573154D01*
X158941Y-573740D01*
X159273Y-574236D01*
X161119Y-576081D01*
X161119D01*
X161119Y-576082D01*
X161119Y-576082D01*
Y-576082D01*
X161615Y-576413D01*
X162200Y-576529D01*
X210089D01*
X210620Y-576884D01*
X211400Y-577039D01*
X212180Y-576884D01*
X212842Y-576442D01*
X213284Y-575780D01*
X213439Y-575000D01*
X213284Y-574220D01*
X212842Y-573558D01*
X212180Y-573116D01*
X211400Y-572961D01*
X210620Y-573116D01*
X210089Y-573471D01*
X162833D01*
X161884Y-572521D01*
Y-571466D01*
X162472Y-571015D01*
X162947Y-570395D01*
X163247Y-569672D01*
X163348Y-568898D01*
X163247Y-568123D01*
X162947Y-567401D01*
X162472Y-566780D01*
X161852Y-566305D01*
X161129Y-566006D01*
X160354Y-565904D01*
D02*
G37*
G36*
Y-514722D02*
X159580Y-514824D01*
X158857Y-515124D01*
X158237Y-515599D01*
X157761Y-516220D01*
X157462Y-516942D01*
X157360Y-517717D01*
X157462Y-518492D01*
X157761Y-519214D01*
X158237Y-519834D01*
X158857Y-520310D01*
X159580Y-520609D01*
X160354Y-520711D01*
X161129Y-520609D01*
X161852Y-520310D01*
X162472Y-519834D01*
X162947Y-519214D01*
X163247Y-518492D01*
X163348Y-517717D01*
X163247Y-516942D01*
X162947Y-516220D01*
X162472Y-515599D01*
X161852Y-515124D01*
X161129Y-514824D01*
X160354Y-514722D01*
D02*
G37*
G36*
X191321Y-419957D02*
X187900D01*
Y-423378D01*
X188432Y-423308D01*
X189393Y-422910D01*
X190219Y-422276D01*
X190853Y-421451D01*
X191251Y-420489D01*
X191321Y-419957D01*
D02*
G37*
G36*
X26200Y-408000D02*
X24027D01*
Y-409878D01*
X26200D01*
Y-408000D01*
D02*
G37*
G36*
X186900Y-419957D02*
X183479D01*
X183549Y-420489D01*
X183947Y-421451D01*
X184581Y-422276D01*
X185407Y-422910D01*
X186368Y-423308D01*
X186900Y-423378D01*
Y-419957D01*
D02*
G37*
G36*
X187400Y-425313D02*
X186368Y-425449D01*
X185407Y-425847D01*
X184581Y-426481D01*
X183947Y-427307D01*
X183549Y-428268D01*
X183413Y-429300D01*
X183549Y-430332D01*
X183947Y-431293D01*
X184581Y-432119D01*
X185407Y-432753D01*
X186368Y-433151D01*
X187400Y-433287D01*
X188432Y-433151D01*
X189393Y-432753D01*
X190219Y-432119D01*
X190853Y-431293D01*
X191251Y-430332D01*
X191387Y-429300D01*
X191251Y-428268D01*
X190853Y-427307D01*
X190219Y-426481D01*
X189393Y-425847D01*
X188432Y-425449D01*
X187400Y-425313D01*
D02*
G37*
G36*
X31400Y-428561D02*
X30620Y-428716D01*
X30470Y-428816D01*
X22430D01*
X22280Y-428716D01*
X21500Y-428561D01*
X20720Y-428716D01*
X20058Y-429158D01*
X19616Y-429820D01*
X19461Y-430600D01*
X19616Y-431380D01*
X20058Y-432042D01*
X20720Y-432484D01*
X21500Y-432639D01*
X22280Y-432484D01*
X22430Y-432384D01*
X30470D01*
X30620Y-432484D01*
X31400Y-432639D01*
X32180Y-432484D01*
X32842Y-432042D01*
X33284Y-431380D01*
X33439Y-430600D01*
X33284Y-429820D01*
X32842Y-429158D01*
X32180Y-428716D01*
X31400Y-428561D01*
D02*
G37*
G36*
X152473Y-405022D02*
X147127D01*
Y-409778D01*
X152473D01*
Y-409184D01*
X159571D01*
X159720Y-409284D01*
X160500Y-409439D01*
X161280Y-409284D01*
X161942Y-408842D01*
X162384Y-408180D01*
X162539Y-407400D01*
X162384Y-406620D01*
X161942Y-405958D01*
X161280Y-405516D01*
X160500Y-405361D01*
X159720Y-405516D01*
X159571Y-405616D01*
X152473D01*
Y-405022D01*
D02*
G37*
G36*
X26200Y-405122D02*
X24027D01*
Y-407000D01*
X26200D01*
Y-405122D01*
D02*
G37*
G36*
X43600Y-401061D02*
X42820Y-401216D01*
X42158Y-401658D01*
X41716Y-402320D01*
X41561Y-403100D01*
X41716Y-403879D01*
Y-405116D01*
X40827D01*
Y-409872D01*
X46173D01*
Y-405116D01*
X45284D01*
Y-404179D01*
X45484Y-403880D01*
X45639Y-403100D01*
X45484Y-402320D01*
X45042Y-401658D01*
X44380Y-401216D01*
X43600Y-401061D01*
D02*
G37*
G36*
X29373Y-408000D02*
X27200D01*
Y-409878D01*
X29373D01*
Y-408000D01*
D02*
G37*
G36*
X135373D02*
X133200D01*
Y-409878D01*
X135373D01*
Y-408000D01*
D02*
G37*
G36*
X160500Y-441461D02*
X159720Y-441616D01*
X159571Y-441716D01*
X140429D01*
X140280Y-441616D01*
X139500Y-441461D01*
X138720Y-441616D01*
X138058Y-442058D01*
X137616Y-442720D01*
X137461Y-443500D01*
X137616Y-444280D01*
X138058Y-444942D01*
X138720Y-445384D01*
X139500Y-445539D01*
X140280Y-445384D01*
X140429Y-445284D01*
X159571D01*
X159720Y-445384D01*
X160500Y-445539D01*
X161280Y-445384D01*
X161942Y-444942D01*
X162384Y-444280D01*
X162539Y-443500D01*
X162384Y-442720D01*
X161942Y-442058D01*
X161280Y-441616D01*
X160500Y-441461D01*
D02*
G37*
G36*
X154994Y-487261D02*
X154214Y-487416D01*
X153552Y-487858D01*
X153110Y-488520D01*
X152955Y-489300D01*
X153110Y-490080D01*
X153181Y-490186D01*
X152945Y-490627D01*
X152617D01*
Y-495973D01*
X153041D01*
Y-507427D01*
X152617D01*
Y-512773D01*
X153041D01*
Y-524127D01*
X152617D01*
Y-529473D01*
X153041D01*
Y-540427D01*
X152617D01*
Y-545773D01*
X153041D01*
Y-558027D01*
X152617D01*
Y-563373D01*
X157372D01*
Y-558027D01*
X156609D01*
Y-545773D01*
X157372D01*
Y-540427D01*
X156609D01*
Y-529473D01*
X157372D01*
Y-524127D01*
X156609D01*
Y-512773D01*
X157372D01*
Y-507427D01*
X156609D01*
Y-504777D01*
X157046Y-504561D01*
X157768Y-504860D01*
X158543Y-504962D01*
X159318Y-504860D01*
X160040Y-504561D01*
X160661Y-504086D01*
X161136Y-503466D01*
X161435Y-502743D01*
X161538Y-501968D01*
X161483Y-501552D01*
X162162Y-500874D01*
X162162Y-500874D01*
X162548Y-500295D01*
X162684Y-499612D01*
X162684Y-499612D01*
Y-495973D01*
X163278D01*
Y-490627D01*
X158522D01*
Y-495973D01*
X159116D01*
Y-498670D01*
X158740Y-499000D01*
X158543Y-498974D01*
X157768Y-499076D01*
X157046Y-499375D01*
X156609Y-499160D01*
Y-495973D01*
X157372D01*
Y-490627D01*
X157044D01*
X156808Y-490186D01*
X156878Y-490080D01*
X157034Y-489300D01*
X156878Y-488520D01*
X156436Y-487858D01*
X155775Y-487416D01*
X154994Y-487261D01*
D02*
G37*
G36*
X81100Y-396361D02*
X80320Y-396516D01*
X79658Y-396958D01*
X79216Y-397620D01*
X79061Y-398400D01*
X79216Y-399180D01*
X79316Y-399329D01*
Y-488371D01*
X79216Y-488520D01*
X79061Y-489300D01*
X79216Y-490080D01*
X79658Y-490742D01*
X80320Y-491184D01*
X81100Y-491339D01*
X81880Y-491184D01*
X82542Y-490742D01*
X82984Y-490080D01*
X83139Y-489300D01*
X82984Y-488520D01*
X82884Y-488371D01*
Y-399329D01*
X82984Y-399180D01*
X83139Y-398400D01*
X82984Y-397620D01*
X82542Y-396958D01*
X81880Y-396516D01*
X81100Y-396361D01*
D02*
G37*
G36*
X148543Y-498974D02*
X147768Y-499076D01*
X147046Y-499375D01*
X146426Y-499851D01*
X145950Y-500471D01*
X145651Y-501194D01*
X145549Y-501968D01*
X145651Y-502743D01*
X145950Y-503466D01*
X146426Y-504086D01*
X147046Y-504561D01*
X147768Y-504860D01*
X148543Y-504962D01*
X149318Y-504860D01*
X150040Y-504561D01*
X150661Y-504086D01*
X151136Y-503466D01*
X151435Y-502743D01*
X151538Y-501968D01*
X151435Y-501194D01*
X151136Y-500471D01*
X150661Y-499851D01*
X150040Y-499375D01*
X149318Y-499076D01*
X148543Y-498974D01*
D02*
G37*
G36*
X163278Y-507427D02*
X158522D01*
Y-512773D01*
X163278D01*
Y-511884D01*
X166161D01*
X168570Y-514293D01*
Y-515344D01*
X168237Y-515599D01*
X167761Y-516220D01*
X167462Y-516942D01*
X167360Y-517717D01*
X167462Y-518492D01*
X167761Y-519214D01*
X168237Y-519834D01*
X168857Y-520310D01*
X169580Y-520609D01*
X170354Y-520711D01*
X171129Y-520609D01*
X171852Y-520310D01*
X172472Y-519834D01*
X172947Y-519214D01*
X173247Y-518492D01*
X173348Y-517717D01*
X173247Y-516942D01*
X172947Y-516220D01*
X172472Y-515599D01*
X172139Y-515344D01*
Y-513554D01*
X172139Y-513554D01*
X172003Y-512872D01*
X171616Y-512293D01*
X168162Y-508838D01*
X167583Y-508452D01*
X166900Y-508316D01*
X163278D01*
Y-507427D01*
D02*
G37*
G36*
X46181Y-514722D02*
X45406Y-514824D01*
X44684Y-515124D01*
X44064Y-515599D01*
X43821Y-515916D01*
X31778D01*
Y-515027D01*
X27022D01*
Y-520373D01*
X31778D01*
Y-519484D01*
X43796D01*
X44064Y-519834D01*
X44684Y-520310D01*
X45406Y-520609D01*
X46181Y-520711D01*
X46956Y-520609D01*
X47678Y-520310D01*
X48298Y-519834D01*
X48774Y-519214D01*
X49073Y-518492D01*
X49175Y-517717D01*
X49073Y-516942D01*
X48774Y-516220D01*
X48298Y-515599D01*
X47678Y-515124D01*
X46956Y-514824D01*
X46181Y-514722D01*
D02*
G37*
G36*
X23400Y-454222D02*
X21227D01*
Y-456100D01*
X23400D01*
Y-454222D01*
D02*
G37*
G36*
X26573D02*
X24400D01*
Y-456100D01*
X26573D01*
Y-454222D01*
D02*
G37*
G36*
X41400Y-417861D02*
X40620Y-418016D01*
X39958Y-418458D01*
X39516Y-419120D01*
X39361Y-419900D01*
X39516Y-420680D01*
X39616Y-420829D01*
Y-442421D01*
X39416Y-442720D01*
X39261Y-443500D01*
X39416Y-444280D01*
X39616Y-444579D01*
Y-453816D01*
X38727D01*
Y-458572D01*
X44073D01*
Y-453816D01*
X43184D01*
Y-444279D01*
X43339Y-443500D01*
X43184Y-442721D01*
Y-420829D01*
X43284Y-420680D01*
X43439Y-419900D01*
X43284Y-419120D01*
X42842Y-418458D01*
X42180Y-418016D01*
X41400Y-417861D01*
D02*
G37*
G36*
X23400Y-457100D02*
X21227D01*
Y-458978D01*
X23400D01*
Y-457100D01*
D02*
G37*
G36*
X26573D02*
X24400D01*
Y-458978D01*
X26573D01*
Y-457100D01*
D02*
G37*
G36*
X8900Y-330679D02*
X8368Y-330749D01*
X7407Y-331147D01*
X6581Y-331781D01*
X5947Y-332607D01*
X5549Y-333568D01*
X5479Y-334100D01*
X8900D01*
Y-330679D01*
D02*
G37*
G36*
X127459Y-190926D02*
X124400D01*
Y-193394D01*
X127459D01*
Y-190926D01*
D02*
G37*
G36*
X35433Y-187934D02*
X34144Y-188103D01*
X32943Y-188601D01*
X31912Y-189392D01*
X31120Y-190424D01*
X30828Y-191129D01*
X27673D01*
Y-190516D01*
X22327D01*
Y-195272D01*
X27673D01*
Y-194698D01*
X30828D01*
X31120Y-195403D01*
X31912Y-196434D01*
X32943Y-197226D01*
X34144Y-197723D01*
X35433Y-197893D01*
X36722Y-197723D01*
X37923Y-197226D01*
X38954Y-196434D01*
X39746Y-195403D01*
X40243Y-194202D01*
X40413Y-192913D01*
X40243Y-191625D01*
X39746Y-190424D01*
X38954Y-189392D01*
X37923Y-188601D01*
X36722Y-188103D01*
X35433Y-187934D01*
D02*
G37*
G36*
X123400Y-190926D02*
X120341D01*
Y-193394D01*
X123400D01*
Y-190926D01*
D02*
G37*
G36*
X105500Y-178961D02*
X104720Y-179116D01*
X104058Y-179558D01*
X103616Y-180220D01*
X103461Y-181000D01*
X103616Y-181780D01*
X104058Y-182442D01*
X104720Y-182884D01*
X105500Y-183039D01*
X106280Y-182884D01*
X106811Y-182529D01*
X128867D01*
X130771Y-184433D01*
Y-190516D01*
X129627D01*
Y-195272D01*
X134973D01*
Y-194424D01*
X137014D01*
X137420Y-195403D01*
X138211Y-196434D01*
X139242Y-197226D01*
X140443Y-197723D01*
X141732Y-197893D01*
X143021Y-197723D01*
X144222Y-197226D01*
X145253Y-196434D01*
X146045Y-195403D01*
X146124Y-195212D01*
X146427Y-195272D01*
Y-195272D01*
X146427Y-195272D01*
X151773D01*
Y-194424D01*
X153835D01*
X154300Y-195031D01*
X154920Y-195506D01*
X155642Y-195806D01*
X156417Y-195907D01*
X157192Y-195806D01*
X157914Y-195506D01*
X158535Y-195031D01*
X159010Y-194411D01*
X159309Y-193688D01*
X159412Y-192913D01*
X159309Y-192139D01*
X159010Y-191416D01*
X158535Y-190796D01*
X157914Y-190320D01*
X157192Y-190021D01*
X156417Y-189919D01*
X155642Y-190021D01*
X154920Y-190320D01*
X154300Y-190796D01*
X153864Y-191365D01*
X151773D01*
Y-190516D01*
X146427D01*
X146427Y-190516D01*
Y-190516D01*
X146109Y-190580D01*
X146045Y-190424D01*
X145253Y-189392D01*
X144222Y-188601D01*
X143021Y-188103D01*
X141732Y-187934D01*
X140443Y-188103D01*
X139242Y-188601D01*
X138211Y-189392D01*
X137420Y-190424D01*
X137030Y-191365D01*
X134973D01*
Y-190516D01*
X133829D01*
Y-183800D01*
X133713Y-183215D01*
X133381Y-182719D01*
X130581Y-179919D01*
X130085Y-179587D01*
X129500Y-179471D01*
X106811D01*
X106280Y-179116D01*
X105500Y-178961D01*
D02*
G37*
G36*
X166417Y-189919D02*
X165642Y-190021D01*
X164920Y-190320D01*
X164300Y-190796D01*
X163824Y-191416D01*
X163525Y-192139D01*
X163423Y-192913D01*
X163525Y-193688D01*
X163824Y-194411D01*
X164300Y-195031D01*
X164920Y-195506D01*
X165642Y-195806D01*
X166417Y-195907D01*
X167192Y-195806D01*
X167914Y-195506D01*
X168535Y-195031D01*
X169010Y-194411D01*
X169309Y-193688D01*
X169412Y-192913D01*
X169309Y-192139D01*
X169010Y-191416D01*
X168535Y-190796D01*
X167914Y-190320D01*
X167192Y-190021D01*
X166417Y-189919D01*
D02*
G37*
G36*
X155300Y-171961D02*
X154520Y-172116D01*
X154370Y-172216D01*
X106430D01*
X106280Y-172116D01*
X105500Y-171961D01*
X104720Y-172116D01*
X104058Y-172558D01*
X103616Y-173220D01*
X103461Y-174000D01*
X103616Y-174780D01*
X104058Y-175442D01*
X104720Y-175884D01*
X105500Y-176039D01*
X106280Y-175884D01*
X106430Y-175784D01*
X154370D01*
X154520Y-175884D01*
X155300Y-176039D01*
X156080Y-175884D01*
X156742Y-175442D01*
X157184Y-174780D01*
X157339Y-174000D01*
X157184Y-173220D01*
X156742Y-172558D01*
X156080Y-172116D01*
X155300Y-171961D01*
D02*
G37*
G36*
X198200Y-169961D02*
X197420Y-170116D01*
X197042Y-170369D01*
X169258D01*
X168880Y-170116D01*
X168100Y-169961D01*
X167320Y-170116D01*
X166658Y-170558D01*
X166216Y-171220D01*
X166061Y-172000D01*
X166216Y-172780D01*
X166658Y-173442D01*
X167320Y-173884D01*
X168100Y-174039D01*
X168880Y-173884D01*
X169258Y-173631D01*
X170534D01*
X170679Y-174110D01*
X170158Y-174458D01*
X169716Y-175120D01*
X169561Y-175900D01*
X169716Y-176680D01*
X170158Y-177342D01*
X170820Y-177784D01*
X171600Y-177939D01*
X172380Y-177784D01*
X172911Y-177429D01*
X199589D01*
X200120Y-177784D01*
X200900Y-177939D01*
X201680Y-177784D01*
X202342Y-177342D01*
X202784Y-176680D01*
X202939Y-175900D01*
X202784Y-175120D01*
X202342Y-174458D01*
X201680Y-174016D01*
X200900Y-173861D01*
X200120Y-174016D01*
X199589Y-174371D01*
X199077D01*
X198980Y-173884D01*
X199642Y-173442D01*
X200084Y-172780D01*
X200239Y-172000D01*
X200084Y-171220D01*
X199642Y-170558D01*
X198980Y-170116D01*
X198200Y-169961D01*
D02*
G37*
G36*
X127459Y-187458D02*
X124400D01*
Y-189926D01*
X127459D01*
Y-187458D01*
D02*
G37*
G36*
X50118Y-189919D02*
X49343Y-190021D01*
X48621Y-190320D01*
X48001Y-190796D01*
X47746Y-191129D01*
X46773D01*
Y-190222D01*
X41427D01*
Y-194978D01*
X46773D01*
Y-194698D01*
X47746D01*
X48001Y-195031D01*
X48621Y-195506D01*
X49343Y-195806D01*
X50118Y-195907D01*
X50893Y-195806D01*
X51615Y-195506D01*
X52235Y-195031D01*
X52711Y-194411D01*
X53010Y-193688D01*
X53112Y-192913D01*
X53010Y-192139D01*
X52711Y-191416D01*
X52235Y-190796D01*
X51615Y-190320D01*
X50893Y-190021D01*
X50118Y-189919D01*
D02*
G37*
G36*
X123400Y-187458D02*
X120341D01*
Y-189926D01*
X123400D01*
Y-187458D01*
D02*
G37*
G36*
X134973Y-196422D02*
X132800D01*
Y-198300D01*
X134973D01*
Y-196422D01*
D02*
G37*
G36*
X24500Y-199300D02*
X22327D01*
Y-201178D01*
X24500D01*
Y-199300D01*
D02*
G37*
G36*
X27673D02*
X25500D01*
Y-201178D01*
X27673D01*
Y-199300D01*
D02*
G37*
G36*
X151773Y-196422D02*
X146427D01*
Y-201178D01*
X151773D01*
Y-200584D01*
X155161D01*
X155838Y-201262D01*
X155838Y-201262D01*
X156128Y-201455D01*
X156417Y-201648D01*
X157100Y-201784D01*
X157100Y-201784D01*
X159470D01*
X159620Y-201884D01*
X160400Y-202039D01*
X161180Y-201884D01*
X161842Y-201442D01*
X162284Y-200780D01*
X162439Y-200000D01*
X162284Y-199220D01*
X161842Y-198558D01*
X161180Y-198116D01*
X160400Y-197961D01*
X159620Y-198116D01*
X159470Y-198216D01*
X157839D01*
X157162Y-197538D01*
X156583Y-197152D01*
X155900Y-197016D01*
X151773D01*
Y-196422D01*
D02*
G37*
G36*
X187700Y-206036D02*
X187168Y-206106D01*
X186207Y-206505D01*
X185381Y-207138D01*
X184747Y-207964D01*
X184349Y-208926D01*
X184279Y-209457D01*
X187700D01*
Y-206036D01*
D02*
G37*
G36*
X188700D02*
Y-209457D01*
X192121D01*
X192051Y-208926D01*
X191653Y-207964D01*
X191019Y-207138D01*
X190193Y-206505D01*
X189232Y-206106D01*
X188700Y-206036D01*
D02*
G37*
G36*
X27673Y-196422D02*
X25500D01*
Y-198300D01*
X27673D01*
Y-196422D01*
D02*
G37*
G36*
X131800D02*
X129627D01*
Y-198300D01*
X131800D01*
Y-196422D01*
D02*
G37*
G36*
X24500D02*
X22327D01*
Y-198300D01*
X24500D01*
Y-196422D01*
D02*
G37*
G36*
X131800Y-199300D02*
X129627D01*
Y-201178D01*
X131800D01*
Y-199300D01*
D02*
G37*
G36*
X134973D02*
X132800D01*
Y-201178D01*
X134973D01*
Y-199300D01*
D02*
G37*
G36*
X19685Y-41034D02*
X18089Y-41191D01*
X16555Y-41656D01*
X15141Y-42412D01*
X13902Y-43429D01*
X12884Y-44668D01*
X12128Y-46083D01*
X11663Y-47617D01*
X11506Y-49213D01*
X11663Y-50808D01*
X12128Y-52343D01*
X12884Y-53757D01*
X13902Y-54996D01*
X15141Y-56013D01*
X16555Y-56769D01*
X18089Y-57235D01*
X19685Y-57392D01*
X21281Y-57235D01*
X22815Y-56769D01*
X24229Y-56013D01*
X25469Y-54996D01*
X26486Y-53757D01*
X27242Y-52343D01*
X27707Y-50808D01*
X27864Y-49213D01*
X27707Y-47617D01*
X27242Y-46083D01*
X26486Y-44668D01*
X25469Y-43429D01*
X24229Y-42412D01*
X22815Y-41656D01*
X21281Y-41191D01*
X19685Y-41034D01*
D02*
G37*
G36*
X196850D02*
X195255Y-41191D01*
X193720Y-41656D01*
X192306Y-42412D01*
X191067Y-43429D01*
X190050Y-44668D01*
X189294Y-46083D01*
X188828Y-47617D01*
X188671Y-49213D01*
X188828Y-50808D01*
X189294Y-52343D01*
X190050Y-53757D01*
X191067Y-54996D01*
X192306Y-56013D01*
X193720Y-56769D01*
X195255Y-57235D01*
X196850Y-57392D01*
X198446Y-57235D01*
X199980Y-56769D01*
X201395Y-56013D01*
X202634Y-54996D01*
X203651Y-53757D01*
X204407Y-52343D01*
X204872Y-50808D01*
X205030Y-49213D01*
X204872Y-47617D01*
X204407Y-46083D01*
X203651Y-44668D01*
X202634Y-43429D01*
X201395Y-42412D01*
X199980Y-41656D01*
X198446Y-41191D01*
X196850Y-41034D01*
D02*
G37*
G36*
X209016Y-67809D02*
X208241Y-67911D01*
X207519Y-68210D01*
X206899Y-68686D01*
X206423Y-69306D01*
X206124Y-70028D01*
X206022Y-70803D01*
X206124Y-71578D01*
X206423Y-72300D01*
X206899Y-72920D01*
X207519Y-73396D01*
X208241Y-73695D01*
X209016Y-73797D01*
X209791Y-73695D01*
X210513Y-73396D01*
X211133Y-72920D01*
X211609Y-72300D01*
X211908Y-71578D01*
X212010Y-70803D01*
X211908Y-70028D01*
X211609Y-69306D01*
X211133Y-68686D01*
X210513Y-68210D01*
X209791Y-67911D01*
X209016Y-67809D01*
D02*
G37*
G36*
X199016D02*
X198241Y-67911D01*
X197519Y-68210D01*
X196899Y-68686D01*
X196423Y-69306D01*
X196124Y-70028D01*
X196022Y-70803D01*
X196124Y-71578D01*
X196423Y-72300D01*
X196899Y-72920D01*
X197202Y-73153D01*
X197041Y-73627D01*
X196622D01*
Y-78973D01*
X201378D01*
Y-73627D01*
X200990D01*
X200829Y-73153D01*
X201133Y-72920D01*
X201609Y-72300D01*
X201908Y-71578D01*
X202010Y-70803D01*
X201908Y-70028D01*
X201609Y-69306D01*
X201133Y-68686D01*
X200513Y-68210D01*
X199791Y-67911D01*
X199016Y-67809D01*
D02*
G37*
G36*
X55394Y-67872D02*
X54619Y-67974D01*
X53897Y-68273D01*
X53277Y-68749D01*
X52801Y-69369D01*
X52502Y-70091D01*
X52400Y-70866D01*
X52454Y-71282D01*
X50838Y-72898D01*
X50451Y-73477D01*
X50316Y-74160D01*
Y-74727D01*
X49722D01*
Y-80073D01*
X54478D01*
Y-74727D01*
X54478Y-74727D01*
X54478D01*
X54355Y-74429D01*
X54978Y-73805D01*
X55394Y-73860D01*
X56169Y-73758D01*
X56891Y-73459D01*
X57511Y-72983D01*
X57987Y-72363D01*
X58286Y-71641D01*
X58388Y-70866D01*
X58286Y-70091D01*
X57987Y-69369D01*
X57511Y-68749D01*
X56891Y-68273D01*
X56169Y-67974D01*
X55394Y-67872D01*
D02*
G37*
G36*
X83300Y-11066D02*
X82256Y-11203D01*
X81283Y-11606D01*
X80447Y-12247D01*
X79806Y-13083D01*
X79403Y-14056D01*
X79265Y-15100D01*
X79403Y-16144D01*
X79806Y-17117D01*
X80447Y-17953D01*
X81283Y-18594D01*
X82256Y-18997D01*
X83300Y-19135D01*
X84344Y-18997D01*
X85317Y-18594D01*
X86153Y-17953D01*
X86794Y-17117D01*
X87197Y-16144D01*
X87335Y-15100D01*
X87197Y-14056D01*
X86794Y-13083D01*
X86153Y-12247D01*
X85317Y-11606D01*
X84344Y-11203D01*
X83300Y-11066D01*
D02*
G37*
G36*
X123300D02*
X122256Y-11203D01*
X121283Y-11606D01*
X120447Y-12247D01*
X119806Y-13083D01*
X119403Y-14056D01*
X119265Y-15100D01*
X119403Y-16144D01*
X119806Y-17117D01*
X120447Y-17953D01*
X121283Y-18594D01*
X122256Y-18997D01*
X123300Y-19135D01*
X124344Y-18997D01*
X125317Y-18594D01*
X126153Y-17953D01*
X126794Y-17117D01*
X127197Y-16144D01*
X127334Y-15100D01*
X127197Y-14056D01*
X126794Y-13083D01*
X126153Y-12247D01*
X125317Y-11606D01*
X124344Y-11203D01*
X123300Y-11066D01*
D02*
G37*
G36*
X24528Y-20628D02*
X23753Y-20730D01*
X23031Y-21029D01*
X22410Y-21505D01*
X21976Y-22071D01*
X18073D01*
Y-21222D01*
X12727D01*
Y-25978D01*
X18073D01*
Y-25129D01*
X21942D01*
X22410Y-25739D01*
X23031Y-26215D01*
X23753Y-26514D01*
X24528Y-26616D01*
X25302Y-26514D01*
X26025Y-26215D01*
X26645Y-25739D01*
X27121Y-25119D01*
X27420Y-24397D01*
X27522Y-23622D01*
X27420Y-22847D01*
X27121Y-22125D01*
X26645Y-21505D01*
X26025Y-21029D01*
X25302Y-20730D01*
X24528Y-20628D01*
D02*
G37*
G36*
X76400Y-8261D02*
X75620Y-8416D01*
X74958Y-8858D01*
X74516Y-9520D01*
X74361Y-10300D01*
X74516Y-11080D01*
X74871Y-11611D01*
Y-33289D01*
X74516Y-33820D01*
X74361Y-34600D01*
X74516Y-35380D01*
X74958Y-36042D01*
X75620Y-36484D01*
X76400Y-36639D01*
X77180Y-36484D01*
X77842Y-36042D01*
X78284Y-35380D01*
X78439Y-34600D01*
X78284Y-33820D01*
X77929Y-33289D01*
Y-11611D01*
X78284Y-11080D01*
X78439Y-10300D01*
X78284Y-9520D01*
X77842Y-8858D01*
X77180Y-8416D01*
X76400Y-8261D01*
D02*
G37*
G36*
X182283Y-20628D02*
X181509Y-20730D01*
X180786Y-21029D01*
X180166Y-21505D01*
X179715Y-22093D01*
X178673D01*
Y-20922D01*
X173327D01*
Y-25678D01*
X178673D01*
Y-25151D01*
X179715D01*
X180166Y-25739D01*
X180786Y-26215D01*
X181509Y-26514D01*
X182283Y-26616D01*
X183058Y-26514D01*
X183781Y-26215D01*
X184401Y-25739D01*
X184876Y-25119D01*
X185176Y-24397D01*
X185277Y-23622D01*
X185176Y-22847D01*
X184876Y-22125D01*
X184401Y-21505D01*
X183781Y-21029D01*
X183058Y-20730D01*
X182283Y-20628D01*
D02*
G37*
G36*
X12700Y-3416D02*
X12017Y-3551D01*
X11438Y-3938D01*
X4938Y-10438D01*
X4552Y-11017D01*
X4416Y-11700D01*
Y-26900D01*
X4416Y-26900D01*
X4416D01*
X4552Y-27583D01*
X4938Y-28162D01*
X7544Y-30767D01*
X7544Y-30767D01*
X8123Y-31154D01*
X8806Y-31290D01*
X9670D01*
X9820Y-31390D01*
X10600Y-31545D01*
X11380Y-31390D01*
X11530Y-31290D01*
X12727D01*
Y-31884D01*
X18073D01*
Y-27128D01*
X12727D01*
Y-27721D01*
X11530D01*
X11380Y-27622D01*
X10600Y-27466D01*
X9820Y-27622D01*
X9670Y-27721D01*
X9545D01*
X7984Y-26161D01*
Y-12439D01*
X13439Y-6984D01*
X152761D01*
X155316Y-9539D01*
Y-29206D01*
Y-91500D01*
X155316Y-91500D01*
X155316D01*
X155452Y-92183D01*
X155838Y-92762D01*
X162744Y-99667D01*
X162744Y-99667D01*
X163323Y-100054D01*
X164006Y-100190D01*
X173927D01*
Y-100784D01*
X179273D01*
Y-96028D01*
X173927D01*
Y-96621D01*
X164745D01*
X158884Y-90761D01*
Y-73441D01*
X159333Y-73220D01*
X159645Y-73459D01*
X160367Y-73758D01*
X161142Y-73860D01*
X161917Y-73758D01*
X162639Y-73459D01*
X163259Y-72983D01*
X163735Y-72363D01*
X164034Y-71641D01*
X164136Y-70866D01*
X164034Y-70091D01*
X163735Y-69369D01*
X163259Y-68749D01*
X162926Y-68494D01*
Y-38497D01*
X165639Y-35784D01*
X166278D01*
X166513Y-36225D01*
X166116Y-36820D01*
X165961Y-37600D01*
X166116Y-38380D01*
X166471Y-38911D01*
Y-89189D01*
X166116Y-89720D01*
X165961Y-90500D01*
X166116Y-91280D01*
X166558Y-91942D01*
X167220Y-92384D01*
X168000Y-92539D01*
X168780Y-92384D01*
X169442Y-91942D01*
X169592Y-91717D01*
X170071Y-91862D01*
Y-92389D01*
X169716Y-92920D01*
X169561Y-93700D01*
X169716Y-94480D01*
X170158Y-95142D01*
X170820Y-95584D01*
X171600Y-95739D01*
X172380Y-95584D01*
X173042Y-95142D01*
X173448Y-94534D01*
X173927Y-94679D01*
Y-94878D01*
X179273D01*
Y-94251D01*
X179747Y-94090D01*
X180166Y-94637D01*
X180786Y-95113D01*
X181509Y-95412D01*
X182283Y-95514D01*
X183058Y-95412D01*
X183781Y-95113D01*
X184401Y-94637D01*
X184876Y-94017D01*
X185176Y-93295D01*
X185277Y-92520D01*
X185176Y-91745D01*
X184876Y-91022D01*
X184401Y-90402D01*
X183781Y-89927D01*
X183058Y-89627D01*
X182283Y-89526D01*
X181509Y-89627D01*
X180786Y-89927D01*
X180166Y-90402D01*
X179747Y-90949D01*
X179273Y-90789D01*
Y-90122D01*
X173927D01*
Y-92721D01*
X173448Y-92866D01*
X173129Y-92389D01*
Y-74918D01*
X173627Y-74869D01*
X173666Y-75064D01*
X173997Y-75560D01*
X175819Y-77381D01*
X176315Y-77713D01*
X176900Y-77829D01*
X178622D01*
Y-78973D01*
X182498D01*
Y-83828D01*
X182498Y-83828D01*
X182498D01*
X182615Y-84413D01*
X182946Y-84909D01*
X189506Y-91469D01*
X189391Y-91745D01*
X189289Y-92520D01*
X189391Y-93295D01*
X189690Y-94017D01*
X190166Y-94637D01*
X190786Y-95113D01*
X191508Y-95412D01*
X192283Y-95514D01*
X193058Y-95412D01*
X193781Y-95113D01*
X194401Y-94637D01*
X194876Y-94017D01*
X195176Y-93295D01*
X195278Y-92520D01*
X195176Y-91745D01*
X194876Y-91022D01*
X194401Y-90402D01*
X193781Y-89927D01*
X193058Y-89627D01*
X192283Y-89526D01*
X191934Y-89571D01*
X185557Y-83194D01*
Y-78973D01*
X189284D01*
Y-78336D01*
X189670Y-78019D01*
X190000Y-78084D01*
X190330Y-78019D01*
X190717Y-78336D01*
Y-78973D01*
X195472D01*
Y-73627D01*
X191784D01*
Y-64400D01*
X191648Y-63717D01*
X191262Y-63138D01*
X187984Y-59861D01*
Y-41530D01*
X188084Y-41380D01*
X188239Y-40600D01*
X188084Y-39820D01*
X187642Y-39158D01*
X186980Y-38716D01*
X186200Y-38561D01*
X185420Y-38716D01*
X184758Y-39158D01*
X184316Y-39820D01*
X184161Y-40600D01*
X184316Y-41380D01*
X184416Y-41530D01*
Y-60600D01*
X184416Y-60600D01*
X184416D01*
X184552Y-61283D01*
X184938Y-61862D01*
X188216Y-65139D01*
Y-69401D01*
X187725Y-69498D01*
X187672Y-69369D01*
X187196Y-68749D01*
X186576Y-68273D01*
X185854Y-67974D01*
X185079Y-67872D01*
X184304Y-67974D01*
X183582Y-68273D01*
X182962Y-68749D01*
X182486Y-69369D01*
X182187Y-70091D01*
X182085Y-70866D01*
X182187Y-71641D01*
X182486Y-72363D01*
X182932Y-72945D01*
X182615Y-73420D01*
X182607Y-73459D01*
X182573Y-73627D01*
X178622D01*
Y-74771D01*
X177533D01*
X176608Y-73845D01*
Y-73434D01*
X177196Y-72983D01*
X177672Y-72363D01*
X177971Y-71641D01*
X178073Y-70866D01*
X177971Y-70091D01*
X177672Y-69369D01*
X177196Y-68749D01*
X176576Y-68273D01*
X175854Y-67974D01*
X175079Y-67872D01*
X174304Y-67974D01*
X173582Y-68273D01*
X173578Y-68276D01*
X173129Y-68055D01*
Y-38111D01*
X173484Y-37580D01*
X173639Y-36800D01*
X173484Y-36020D01*
X173610Y-35784D01*
X189183D01*
X189866Y-35649D01*
X190445Y-35262D01*
X193545Y-32162D01*
X193932Y-31583D01*
X194068Y-30900D01*
X194068Y-30900D01*
X194068Y-30900D01*
Y-30900D01*
Y-25995D01*
X194401Y-25739D01*
X194876Y-25119D01*
X195176Y-24397D01*
X195278Y-23622D01*
X195176Y-22847D01*
X194876Y-22125D01*
X194401Y-21505D01*
X193781Y-21029D01*
X193058Y-20730D01*
X192283Y-20628D01*
X191508Y-20730D01*
X190786Y-21029D01*
X190166Y-21505D01*
X189690Y-22125D01*
X189391Y-22847D01*
X189289Y-23622D01*
X189391Y-24397D01*
X189690Y-25119D01*
X190166Y-25739D01*
X190499Y-25995D01*
Y-30161D01*
X188444Y-32216D01*
X164900D01*
X164900Y-32216D01*
X164217Y-32351D01*
X163928Y-32545D01*
X163638Y-32738D01*
X163638Y-32738D01*
X159880Y-36496D01*
X159493Y-37075D01*
X159382Y-37636D01*
X158884Y-37587D01*
Y-30990D01*
X173327D01*
Y-31584D01*
X178673D01*
Y-26828D01*
X173327D01*
Y-27421D01*
X158884D01*
Y-8800D01*
X158884Y-8800D01*
X158748Y-8117D01*
X158362Y-7538D01*
X154762Y-3938D01*
X154183Y-3551D01*
X153500Y-3416D01*
X12700D01*
X12700Y-3416D01*
D02*
G37*
G36*
X200485Y-127700D02*
X197064D01*
X197134Y-128232D01*
X197532Y-129193D01*
X198166Y-130019D01*
X198992Y-130653D01*
X199953Y-131051D01*
X200485Y-131121D01*
Y-127700D01*
D02*
G37*
G36*
X204906D02*
X201485D01*
Y-131121D01*
X202017Y-131051D01*
X202978Y-130653D01*
X203804Y-130019D01*
X204438Y-129193D01*
X204836Y-128232D01*
X204906Y-127700D01*
D02*
G37*
G36*
X181300Y-123213D02*
X180268Y-123349D01*
X179307Y-123747D01*
X178481Y-124381D01*
X177847Y-125207D01*
X177449Y-126168D01*
X177313Y-127200D01*
X177449Y-128232D01*
X177847Y-129193D01*
X178481Y-130019D01*
X179307Y-130653D01*
X179871Y-130886D01*
Y-134045D01*
X178431D01*
Y-138407D01*
X184369D01*
Y-134045D01*
X182929D01*
Y-130804D01*
X183293Y-130653D01*
X184119Y-130019D01*
X184753Y-129193D01*
X185151Y-128232D01*
X185287Y-127200D01*
X185151Y-126168D01*
X184753Y-125207D01*
X184119Y-124381D01*
X183293Y-123747D01*
X182332Y-123349D01*
X181300Y-123213D01*
D02*
G37*
G36*
X161142Y-160861D02*
X160361Y-161016D01*
X159700Y-161458D01*
X159692Y-161471D01*
X120211D01*
X119680Y-161116D01*
X118900Y-160961D01*
X118120Y-161116D01*
X117458Y-161558D01*
X117016Y-162220D01*
X116861Y-163000D01*
X117016Y-163780D01*
X117458Y-164442D01*
X118120Y-164884D01*
X118900Y-165039D01*
X119680Y-164884D01*
X120211Y-164529D01*
X159980D01*
X160361Y-164784D01*
X161142Y-164939D01*
X161922Y-164784D01*
X162584Y-164342D01*
X163026Y-163680D01*
X163181Y-162900D01*
X163026Y-162120D01*
X162584Y-161458D01*
X161922Y-161016D01*
X161142Y-160861D01*
D02*
G37*
G36*
X150500Y-152861D02*
X149720Y-153016D01*
X149571Y-153116D01*
X123430D01*
X123280Y-153016D01*
X122500Y-152861D01*
X121720Y-153016D01*
X121058Y-153458D01*
X120616Y-154120D01*
X120461Y-154900D01*
X120616Y-155680D01*
X121058Y-156342D01*
X121720Y-156784D01*
X121623Y-157271D01*
X117711D01*
X117180Y-156916D01*
X116400Y-156761D01*
X115620Y-156916D01*
X114958Y-157358D01*
X114516Y-158020D01*
X114361Y-158800D01*
X114516Y-159580D01*
X114958Y-160242D01*
X115620Y-160684D01*
X116400Y-160839D01*
X117180Y-160684D01*
X117711Y-160329D01*
X191122D01*
X191503Y-160584D01*
X192283Y-160739D01*
X193064Y-160584D01*
X193725Y-160142D01*
X194167Y-159480D01*
X194323Y-158700D01*
X194167Y-157920D01*
X193725Y-157258D01*
X193064Y-156816D01*
X192283Y-156661D01*
X191503Y-156816D01*
X190841Y-157258D01*
X190833Y-157271D01*
X151377D01*
X151280Y-156784D01*
X151942Y-156342D01*
X152384Y-155680D01*
X152539Y-154900D01*
X152384Y-154120D01*
X151942Y-153458D01*
X151280Y-153016D01*
X150500Y-152861D01*
D02*
G37*
G36*
X7520Y-67872D02*
X6745Y-67974D01*
X6022Y-68273D01*
X5402Y-68749D01*
X4927Y-69369D01*
X4628Y-70091D01*
X4526Y-70866D01*
X4628Y-71641D01*
X4927Y-72363D01*
X5402Y-72983D01*
X5624Y-73153D01*
X5463Y-73627D01*
X5222D01*
Y-78973D01*
X9978D01*
Y-73627D01*
X9576D01*
X9415Y-73153D01*
X9637Y-72983D01*
X10113Y-72363D01*
X10412Y-71641D01*
X10514Y-70866D01*
X10412Y-70091D01*
X10113Y-69369D01*
X9637Y-68749D01*
X9017Y-68273D01*
X8294Y-67974D01*
X7520Y-67872D01*
D02*
G37*
G36*
X151142D02*
X150367Y-67974D01*
X149645Y-68273D01*
X149025Y-68749D01*
X148549Y-69369D01*
X148250Y-70091D01*
X148148Y-70866D01*
X148250Y-71641D01*
X148549Y-72363D01*
X149025Y-72983D01*
X149246Y-73153D01*
X149085Y-73627D01*
X148622D01*
Y-78973D01*
X153378D01*
Y-73627D01*
X153198D01*
X153038Y-73153D01*
X153259Y-72983D01*
X153735Y-72363D01*
X154034Y-71641D01*
X154136Y-70866D01*
X154034Y-70091D01*
X153735Y-69369D01*
X153259Y-68749D01*
X152639Y-68273D01*
X151917Y-67974D01*
X151142Y-67872D01*
D02*
G37*
G36*
X31457Y-67872D02*
X30682Y-67974D01*
X29960Y-68273D01*
X29340Y-68749D01*
X28864Y-69369D01*
X28565Y-70091D01*
X28463Y-70866D01*
X28565Y-71641D01*
X28864Y-72363D01*
X29340Y-72983D01*
X29516Y-73118D01*
Y-74727D01*
X28922D01*
Y-80073D01*
X33678D01*
Y-74727D01*
X33084D01*
Y-73359D01*
X33574Y-72983D01*
X34050Y-72363D01*
X34349Y-71641D01*
X34451Y-70866D01*
X34349Y-70091D01*
X34050Y-69369D01*
X33574Y-68749D01*
X32954Y-68273D01*
X32232Y-67974D01*
X31457Y-67872D01*
D02*
G37*
G36*
X200485Y-123279D02*
X199953Y-123349D01*
X198992Y-123747D01*
X198166Y-124381D01*
X197532Y-125207D01*
X197134Y-126168D01*
X197064Y-126700D01*
X200485D01*
Y-123279D01*
D02*
G37*
G36*
X201485D02*
Y-126700D01*
X204906D01*
X204836Y-126168D01*
X204438Y-125207D01*
X203804Y-124381D01*
X202978Y-123747D01*
X202017Y-123349D01*
X201485Y-123279D01*
D02*
G37*
G36*
X25900Y-294822D02*
X23727D01*
Y-296700D01*
X25900D01*
Y-294822D01*
D02*
G37*
G36*
X29073D02*
X26900D01*
Y-296700D01*
X29073D01*
Y-294822D01*
D02*
G37*
G36*
X43600Y-280561D02*
X42820Y-280716D01*
X42158Y-281158D01*
X41716Y-281820D01*
X41561Y-282600D01*
X41716Y-283380D01*
X41816Y-283529D01*
Y-291570D01*
X41716Y-291720D01*
X41561Y-292500D01*
X41716Y-293280D01*
X41816Y-293429D01*
Y-294822D01*
X40927D01*
Y-299578D01*
X46273D01*
Y-294822D01*
X45384D01*
Y-293429D01*
X45484Y-293280D01*
X45639Y-292500D01*
X45484Y-291720D01*
X45384Y-291570D01*
Y-283529D01*
X45484Y-283380D01*
X45639Y-282600D01*
X45484Y-281820D01*
X45042Y-281158D01*
X44380Y-280716D01*
X43600Y-280561D01*
D02*
G37*
G36*
X25900Y-297700D02*
X23727D01*
Y-299578D01*
X25900D01*
Y-297700D01*
D02*
G37*
G36*
X29073D02*
X26900D01*
Y-299578D01*
X29073D01*
Y-297700D01*
D02*
G37*
G36*
X128358Y-268276D02*
X123240D01*
X122389Y-268445D01*
X121668Y-268928D01*
X121186Y-269649D01*
X121016Y-270500D01*
X121186Y-271351D01*
X121668Y-272073D01*
X122389Y-272555D01*
X123240Y-272724D01*
X128358D01*
X129209Y-272555D01*
X129931Y-272073D01*
X129959Y-272029D01*
X135766D01*
X135792Y-272054D01*
X135916Y-272680D01*
X136358Y-273342D01*
X137020Y-273784D01*
X137800Y-273939D01*
X138580Y-273784D01*
X139242Y-273342D01*
X139684Y-272680D01*
X139839Y-271900D01*
X139684Y-271120D01*
X139242Y-270458D01*
X138580Y-270016D01*
X137954Y-269892D01*
X137481Y-269419D01*
X136985Y-269087D01*
X136400Y-268971D01*
X129959D01*
X129931Y-268928D01*
X129209Y-268445D01*
X128358Y-268276D01*
D02*
G37*
G36*
X169765Y-269928D02*
X167592D01*
Y-271806D01*
X169765D01*
Y-269928D01*
D02*
G37*
G36*
X128358Y-273276D02*
X123240D01*
X122389Y-273445D01*
X121668Y-273927D01*
X121186Y-274649D01*
X121016Y-275500D01*
X121186Y-276351D01*
X121668Y-277073D01*
X122389Y-277555D01*
X123240Y-277724D01*
X128358D01*
X129209Y-277555D01*
X129931Y-277073D01*
X130413Y-276351D01*
X130582Y-275500D01*
X130413Y-274649D01*
X129931Y-273927D01*
X129209Y-273445D01*
X128358Y-273276D01*
D02*
G37*
G36*
X135200Y-290261D02*
X134420Y-290416D01*
X133758Y-290858D01*
X133316Y-291520D01*
X133227Y-291966D01*
X130024Y-295169D01*
X103558D01*
X103180Y-294916D01*
X102400Y-294761D01*
X101620Y-294916D01*
X100958Y-295358D01*
X95123Y-301193D01*
X94681Y-301854D01*
X94526Y-302635D01*
Y-335035D01*
Y-339016D01*
X93892D01*
Y-343772D01*
X99239D01*
Y-339016D01*
X98605D01*
Y-335939D01*
X107400D01*
X108180Y-335784D01*
X108842Y-335342D01*
X109284Y-334680D01*
X109439Y-333900D01*
X109284Y-333120D01*
X108842Y-332458D01*
X108180Y-332016D01*
X107400Y-331861D01*
X98605D01*
Y-327435D01*
X98991Y-327118D01*
X99600Y-327239D01*
X100380Y-327084D01*
X101042Y-326642D01*
X101484Y-325980D01*
X101573Y-325534D01*
X104976Y-322131D01*
X174342D01*
X174720Y-322384D01*
X175500Y-322539D01*
X176280Y-322384D01*
X176942Y-321942D01*
X177384Y-321280D01*
X177539Y-320500D01*
X177384Y-319720D01*
X176942Y-319058D01*
X176280Y-318616D01*
X175500Y-318461D01*
X174720Y-318616D01*
X174342Y-318869D01*
X173441D01*
X173123Y-318482D01*
X173239Y-317900D01*
X173084Y-317120D01*
X172642Y-316458D01*
X171980Y-316016D01*
X171200Y-315861D01*
X170420Y-316016D01*
X170042Y-316269D01*
X122258D01*
X121880Y-316016D01*
X121100Y-315861D01*
X120320Y-316016D01*
X119658Y-316458D01*
X119216Y-317120D01*
X119061Y-317900D01*
X119177Y-318482D01*
X118859Y-318869D01*
X104300D01*
X103676Y-318993D01*
X103147Y-319346D01*
X99266Y-323227D01*
X98991Y-323282D01*
X98605Y-322965D01*
Y-303479D01*
X103653Y-298431D01*
X130700D01*
X131324Y-298307D01*
X131853Y-297954D01*
X131853Y-297954D01*
X131853Y-297954D01*
X135534Y-294273D01*
X135980Y-294184D01*
X136642Y-293742D01*
X137084Y-293080D01*
X137239Y-292300D01*
X137084Y-291520D01*
X136642Y-290858D01*
X135980Y-290416D01*
X135200Y-290261D01*
D02*
G37*
G36*
X128358Y-278276D02*
X123240D01*
X122389Y-278445D01*
X121668Y-278927D01*
X121186Y-279649D01*
X121016Y-280500D01*
X121186Y-281351D01*
X121668Y-282072D01*
X122389Y-282555D01*
X123240Y-282724D01*
X128358D01*
X129209Y-282555D01*
X129931Y-282072D01*
X130413Y-281351D01*
X130582Y-280500D01*
X130413Y-279649D01*
X129931Y-278927D01*
X129209Y-278445D01*
X128358Y-278276D01*
D02*
G37*
G36*
X156417Y-300155D02*
X155642Y-300257D01*
X154920Y-300557D01*
X154300Y-301032D01*
X154160Y-301216D01*
X152673D01*
Y-300622D01*
X147327D01*
Y-305378D01*
X152673D01*
Y-304784D01*
X153930D01*
X154300Y-305267D01*
X154920Y-305743D01*
X155642Y-306042D01*
X156417Y-306144D01*
X157192Y-306042D01*
X157914Y-305743D01*
X158535Y-305267D01*
X159010Y-304647D01*
X159309Y-303924D01*
X159412Y-303150D01*
X159309Y-302375D01*
X159010Y-301653D01*
X158535Y-301032D01*
X157914Y-300557D01*
X157192Y-300257D01*
X156417Y-300155D01*
D02*
G37*
G36*
X135873Y-309406D02*
X133700D01*
Y-311284D01*
X135873D01*
Y-309406D01*
D02*
G37*
G36*
X152673Y-306528D02*
X147327D01*
Y-311284D01*
X152673D01*
Y-310690D01*
X159476D01*
X159625Y-310790D01*
X160406Y-310945D01*
X161186Y-310790D01*
X161847Y-310348D01*
X162290Y-309686D01*
X162445Y-308906D01*
X162290Y-308125D01*
X161847Y-307464D01*
X161186Y-307022D01*
X160406Y-306866D01*
X159625Y-307022D01*
X159476Y-307121D01*
X152673D01*
Y-306528D01*
D02*
G37*
G36*
X132700Y-309406D02*
X130527D01*
Y-311284D01*
X132700D01*
Y-309406D01*
D02*
G37*
G36*
X9900Y-330679D02*
Y-334100D01*
X13321D01*
X13251Y-333568D01*
X12853Y-332607D01*
X12219Y-331781D01*
X11393Y-331147D01*
X10432Y-330749D01*
X9900Y-330679D01*
D02*
G37*
G36*
X9400Y-320613D02*
X8368Y-320749D01*
X7407Y-321147D01*
X6581Y-321781D01*
X5947Y-322607D01*
X5549Y-323568D01*
X5413Y-324600D01*
X5549Y-325632D01*
X5947Y-326593D01*
X6581Y-327419D01*
X7407Y-328053D01*
X8368Y-328451D01*
X9400Y-328587D01*
X10432Y-328451D01*
X11393Y-328053D01*
X12219Y-327419D01*
X12853Y-326593D01*
X13251Y-325632D01*
X13387Y-324600D01*
X13251Y-323568D01*
X12853Y-322607D01*
X12219Y-321781D01*
X11393Y-321147D01*
X10432Y-320749D01*
X9400Y-320613D01*
D02*
G37*
G36*
X35433Y-298170D02*
X34144Y-298340D01*
X32943Y-298837D01*
X31912Y-299628D01*
X31120Y-300660D01*
X30828Y-301365D01*
X29073D01*
Y-300728D01*
X23727D01*
Y-305484D01*
X29073D01*
Y-304934D01*
X30828D01*
X31120Y-305639D01*
X31912Y-306671D01*
X32943Y-307462D01*
X34144Y-307960D01*
X35433Y-308129D01*
X36722Y-307960D01*
X37923Y-307462D01*
X38954Y-306671D01*
X39746Y-305639D01*
X40243Y-304438D01*
X40413Y-303150D01*
X40243Y-301861D01*
X39746Y-300660D01*
X38954Y-299628D01*
X37923Y-298837D01*
X36722Y-298340D01*
X35433Y-298170D01*
D02*
G37*
G36*
X141732D02*
X140443Y-298340D01*
X139242Y-298837D01*
X138211Y-299628D01*
X137420Y-300660D01*
X137127Y-301365D01*
X135873D01*
Y-300622D01*
X130527D01*
Y-305378D01*
X135873D01*
Y-304934D01*
X137127D01*
X137420Y-305639D01*
X138211Y-306671D01*
X139242Y-307462D01*
X140443Y-307960D01*
X141732Y-308129D01*
X143021Y-307960D01*
X144222Y-307462D01*
X145253Y-306671D01*
X146045Y-305639D01*
X146542Y-304438D01*
X146712Y-303150D01*
X146542Y-301861D01*
X146045Y-300660D01*
X145253Y-299628D01*
X144222Y-298837D01*
X143021Y-298340D01*
X141732Y-298170D01*
D02*
G37*
G36*
X166417Y-300155D02*
X165642Y-300257D01*
X164920Y-300557D01*
X164300Y-301032D01*
X163824Y-301653D01*
X163525Y-302375D01*
X163423Y-303150D01*
X163525Y-303924D01*
X163824Y-304647D01*
X164300Y-305267D01*
X164920Y-305743D01*
X165642Y-306042D01*
X166417Y-306144D01*
X167192Y-306042D01*
X167914Y-305743D01*
X168535Y-305267D01*
X168986Y-304679D01*
X170716D01*
X171419Y-305381D01*
X171915Y-305713D01*
X172500Y-305829D01*
X185243D01*
X185404Y-306303D01*
X184781Y-306781D01*
X184147Y-307607D01*
X183749Y-308568D01*
X183613Y-309600D01*
X183749Y-310632D01*
X184147Y-311593D01*
X184781Y-312419D01*
X185607Y-313053D01*
X186568Y-313451D01*
X187600Y-313587D01*
X188632Y-313451D01*
X189593Y-313053D01*
X190419Y-312419D01*
X191053Y-311593D01*
X191451Y-310632D01*
X191587Y-309600D01*
X191451Y-308568D01*
X191053Y-307607D01*
X190419Y-306781D01*
X189593Y-306147D01*
X189657Y-305829D01*
X202189D01*
X202720Y-306184D01*
X203500Y-306339D01*
X204280Y-306184D01*
X204942Y-305742D01*
X205384Y-305080D01*
X205539Y-304300D01*
X205384Y-303520D01*
X204942Y-302858D01*
X204280Y-302416D01*
X203500Y-302261D01*
X202720Y-302416D01*
X202189Y-302771D01*
X190835D01*
X190614Y-302322D01*
X191053Y-301751D01*
X191451Y-300789D01*
X191521Y-300257D01*
X183679D01*
X183749Y-300789D01*
X184147Y-301751D01*
X184586Y-302322D01*
X184364Y-302771D01*
X173134D01*
X172431Y-302068D01*
X171935Y-301737D01*
X171350Y-301620D01*
X168986D01*
X168535Y-301032D01*
X167914Y-300557D01*
X167192Y-300257D01*
X166417Y-300155D01*
D02*
G37*
G36*
X132700Y-306528D02*
X130527D01*
Y-308406D01*
X132700D01*
Y-306528D01*
D02*
G37*
G36*
X135873D02*
X133700D01*
Y-308406D01*
X135873D01*
Y-306528D01*
D02*
G37*
G36*
X148496Y-237800D02*
X146618D01*
Y-239973D01*
X148496D01*
Y-237800D01*
D02*
G37*
G36*
X145618Y-234627D02*
X143740D01*
Y-236800D01*
X145618D01*
Y-234627D01*
D02*
G37*
G36*
Y-237800D02*
X143740D01*
Y-239973D01*
X145618D01*
Y-237800D01*
D02*
G37*
G36*
X188400Y-241636D02*
X187868Y-241706D01*
X186907Y-242105D01*
X186081Y-242738D01*
X185447Y-243564D01*
X185049Y-244526D01*
X184979Y-245057D01*
X188400D01*
Y-241636D01*
D02*
G37*
G36*
X189400D02*
Y-245057D01*
X192821D01*
X192751Y-244526D01*
X192353Y-243564D01*
X191719Y-242738D01*
X190893Y-242105D01*
X189932Y-241706D01*
X189400Y-241636D01*
D02*
G37*
G36*
X90760Y-218276D02*
X85642D01*
X84791Y-218445D01*
X84386Y-218716D01*
X80830D01*
X80680Y-218616D01*
X79900Y-218461D01*
X79120Y-218616D01*
X78458Y-219058D01*
X78016Y-219720D01*
X77861Y-220500D01*
X78016Y-221280D01*
X78458Y-221942D01*
X79120Y-222384D01*
X79900Y-222539D01*
X80680Y-222384D01*
X80830Y-222284D01*
X84386D01*
X84791Y-222555D01*
X85642Y-222724D01*
X90760D01*
X91611Y-222555D01*
X92332Y-222073D01*
X92814Y-221351D01*
X92984Y-220500D01*
X92814Y-219649D01*
X92332Y-218928D01*
X91611Y-218445D01*
X90760Y-218276D01*
D02*
G37*
G36*
Y-213276D02*
X85642D01*
X84791Y-213445D01*
X84069Y-213928D01*
X83587Y-214649D01*
X83418Y-215500D01*
X83587Y-216351D01*
X84069Y-217073D01*
X84791Y-217555D01*
X85642Y-217724D01*
X90760D01*
X91611Y-217555D01*
X92332Y-217073D01*
X92814Y-216351D01*
X92984Y-215500D01*
X92814Y-214649D01*
X92332Y-213928D01*
X91611Y-213445D01*
X90760Y-213276D01*
D02*
G37*
G36*
X148496Y-227827D02*
X146618D01*
Y-230000D01*
X148496D01*
Y-227827D01*
D02*
G37*
G36*
Y-234627D02*
X146618D01*
Y-236800D01*
X148496D01*
Y-234627D01*
D02*
G37*
G36*
Y-231000D02*
X146618D01*
Y-233173D01*
X148496D01*
Y-231000D01*
D02*
G37*
G36*
X46773Y-196128D02*
X41427D01*
Y-200884D01*
X46773D01*
Y-200290D01*
X53110D01*
Y-259465D01*
X53010Y-259614D01*
X52855Y-260394D01*
X53010Y-261175D01*
X53452Y-261836D01*
X54114Y-262278D01*
X54894Y-262434D01*
X55675Y-262278D01*
X56336Y-261836D01*
X56778Y-261175D01*
X56934Y-260394D01*
X56778Y-259614D01*
X56679Y-259465D01*
Y-199435D01*
X56778Y-199286D01*
X56934Y-198506D01*
X56778Y-197725D01*
X56336Y-197064D01*
X55675Y-196622D01*
X54894Y-196466D01*
X54114Y-196622D01*
X53965Y-196721D01*
X46773D01*
Y-196128D01*
D02*
G37*
G36*
X87701Y-266000D02*
X83517D01*
X83587Y-266351D01*
X84069Y-267073D01*
X84791Y-267555D01*
X85642Y-267724D01*
X87701D01*
Y-266000D01*
D02*
G37*
G36*
X92884D02*
X88701D01*
Y-267724D01*
X90760D01*
X91611Y-267555D01*
X92332Y-267073D01*
X92814Y-266351D01*
X92884Y-266000D01*
D02*
G37*
G36*
X159173Y-266900D02*
X157000D01*
Y-268778D01*
X159173D01*
Y-266900D01*
D02*
G37*
G36*
X172939Y-269928D02*
X170765D01*
Y-271806D01*
X172939D01*
Y-269928D01*
D02*
G37*
G36*
X156000Y-266900D02*
X153827D01*
Y-268778D01*
X156000D01*
Y-266900D01*
D02*
G37*
G36*
X87701Y-263276D02*
X85642D01*
X84791Y-263445D01*
X84069Y-263928D01*
X83587Y-264649D01*
X83517Y-265000D01*
X87701D01*
Y-263276D01*
D02*
G37*
G36*
X90760D02*
X88701D01*
Y-265000D01*
X92884D01*
X92814Y-264649D01*
X92332Y-263928D01*
X91611Y-263445D01*
X90760Y-263276D01*
D02*
G37*
G36*
X46700Y-251961D02*
X45920Y-252116D01*
X45258Y-252558D01*
X44816Y-253220D01*
X44661Y-254000D01*
X44816Y-254780D01*
X45069Y-255158D01*
Y-262342D01*
X44816Y-262720D01*
X44661Y-263500D01*
X44816Y-264280D01*
X45258Y-264942D01*
X45920Y-265384D01*
X46700Y-265539D01*
X47480Y-265384D01*
X48142Y-264942D01*
X48584Y-264280D01*
X48739Y-263500D01*
X48584Y-262720D01*
X48331Y-262342D01*
Y-255158D01*
X48584Y-254780D01*
X48739Y-254000D01*
X48584Y-253220D01*
X48142Y-252558D01*
X47480Y-252116D01*
X46700Y-251961D01*
D02*
G37*
G36*
X156000Y-264022D02*
X153827D01*
Y-265900D01*
X156000D01*
Y-264022D01*
D02*
G37*
G36*
X159173D02*
X157000D01*
Y-265900D01*
X159173D01*
Y-264022D01*
D02*
G37*
%LPD*%
D11*
X160900Y-493300D02*
D03*
X154994D02*
D03*
X160900Y-526800D02*
D03*
X154994D02*
D03*
X160900Y-510100D02*
D03*
X154994D02*
D03*
X146118Y-237300D02*
D03*
X140213D02*
D03*
X146118Y-230500D02*
D03*
X140213D02*
D03*
X169265Y-259800D02*
D03*
X163360D02*
D03*
X160900Y-560700D02*
D03*
X154994D02*
D03*
X160900Y-543100D02*
D03*
X154994D02*
D03*
X7600Y-76300D02*
D03*
X13506D02*
D03*
X103200Y-77700D02*
D03*
X97294D02*
D03*
X132500Y-76400D02*
D03*
X138406D02*
D03*
X79200Y-76800D02*
D03*
X73294D02*
D03*
X199000Y-76300D02*
D03*
X193094D02*
D03*
X181000D02*
D03*
X186906D02*
D03*
X52100Y-77400D02*
D03*
X46194D02*
D03*
X151000Y-76300D02*
D03*
X145094D02*
D03*
X31300Y-77400D02*
D03*
X37206D02*
D03*
X29400Y-551200D02*
D03*
X23494D02*
D03*
X29400Y-533500D02*
D03*
X23494D02*
D03*
X29400Y-517700D02*
D03*
X23494D02*
D03*
X29400Y-502100D02*
D03*
X23494D02*
D03*
X29400Y-568900D02*
D03*
X23494D02*
D03*
X158700Y-349400D02*
D03*
X152794D02*
D03*
X158700Y-370400D02*
D03*
X152794D02*
D03*
D12*
X133200Y-303000D02*
D03*
Y-308906D02*
D03*
X150000Y-303000D02*
D03*
Y-308906D02*
D03*
X90100Y-341394D02*
D03*
Y-347300D02*
D03*
X96565D02*
D03*
Y-341394D02*
D03*
X109200Y-347300D02*
D03*
Y-341394D02*
D03*
X26700Y-413406D02*
D03*
Y-407500D02*
D03*
X43500Y-413400D02*
D03*
Y-407494D02*
D03*
X149800Y-413306D02*
D03*
Y-407400D02*
D03*
X26400Y-303106D02*
D03*
Y-297200D02*
D03*
X43600Y-303106D02*
D03*
Y-297200D02*
D03*
X25000Y-192894D02*
D03*
Y-198800D02*
D03*
X44100Y-192600D02*
D03*
Y-198506D02*
D03*
X132300Y-192894D02*
D03*
Y-198800D02*
D03*
X149100Y-192894D02*
D03*
Y-198800D02*
D03*
X198500Y-144400D02*
D03*
Y-138494D02*
D03*
X176600Y-92500D02*
D03*
Y-98406D02*
D03*
X15400Y-23600D02*
D03*
Y-29506D02*
D03*
X176000Y-23300D02*
D03*
Y-29206D02*
D03*
X116400Y-341394D02*
D03*
Y-347300D02*
D03*
X130200Y-341394D02*
D03*
Y-347300D02*
D03*
X123500Y-341394D02*
D03*
Y-347300D02*
D03*
X23900Y-462506D02*
D03*
Y-456600D02*
D03*
X157400Y-220100D02*
D03*
Y-226006D02*
D03*
Y-241600D02*
D03*
Y-235694D02*
D03*
X41400Y-462100D02*
D03*
Y-456194D02*
D03*
X163365Y-272306D02*
D03*
Y-266400D02*
D03*
X170265D02*
D03*
Y-272306D02*
D03*
X156500Y-266400D02*
D03*
Y-272306D02*
D03*
X132700Y-413406D02*
D03*
Y-407500D02*
D03*
D13*
X174400Y-226974D02*
D03*
X164557Y-223037D02*
D03*
X174400Y-219100D02*
D03*
X174243Y-245574D02*
D03*
X164400Y-241637D02*
D03*
X174243Y-237700D02*
D03*
X181400Y-136226D02*
D03*
X191243Y-140163D02*
D03*
X181400Y-144100D02*
D03*
X151800Y-364700D02*
D03*
X161643Y-360763D02*
D03*
X151800Y-356826D02*
D03*
Y-385300D02*
D03*
X161643Y-381363D02*
D03*
X151800Y-377426D02*
D03*
D14*
X88201Y-285500D02*
D03*
Y-280500D02*
D03*
Y-275500D02*
D03*
Y-270500D02*
D03*
Y-265500D02*
D03*
Y-260500D02*
D03*
Y-255500D02*
D03*
Y-250500D02*
D03*
Y-245500D02*
D03*
Y-240500D02*
D03*
Y-235500D02*
D03*
Y-230500D02*
D03*
Y-225500D02*
D03*
Y-220500D02*
D03*
Y-215500D02*
D03*
Y-210500D02*
D03*
X125799Y-285500D02*
D03*
Y-280500D02*
D03*
Y-275500D02*
D03*
Y-270500D02*
D03*
Y-265500D02*
D03*
Y-260500D02*
D03*
Y-255500D02*
D03*
Y-250500D02*
D03*
Y-245500D02*
D03*
Y-240500D02*
D03*
Y-235500D02*
D03*
Y-230500D02*
D03*
Y-225500D02*
D03*
Y-220500D02*
D03*
Y-215500D02*
D03*
Y-210500D02*
D03*
D18*
X123900Y-190426D02*
D03*
Y-198300D02*
D03*
X59400Y-378300D02*
D03*
Y-386174D02*
D03*
D19*
X140213Y-237300D02*
Y-230500D01*
D20*
X46700Y-263500D02*
Y-254000D01*
X102400Y-296800D02*
X130700D01*
X135200Y-292300D01*
X169200Y-236600D02*
X170300Y-237700D01*
X169200Y-244500D02*
Y-236600D01*
X135200Y-247700D02*
X166000D01*
X169200Y-244500D01*
Y-236600D02*
Y-220800D01*
X199600Y-250200D02*
X203800Y-254400D01*
X171200Y-292800D02*
Y-282000D01*
X175200Y-278000D01*
X200000D01*
X203800Y-274200D01*
Y-254400D01*
X184800Y-250200D02*
X199600D01*
X204974Y-226974D02*
X210700Y-232700D01*
X202800Y-283200D02*
X206900D01*
X178800D02*
X202800D01*
X206900D02*
X210700Y-279400D01*
Y-232700D01*
X102200Y-342300D02*
X103100Y-343200D01*
Y-360337D02*
Y-343200D01*
X102876Y-360561D02*
X103100Y-360337D01*
X115474Y-355510D02*
X118584Y-352400D01*
X121100D01*
X115474Y-360561D02*
Y-355510D01*
X99600Y-325200D02*
X104300Y-320500D01*
X175500D01*
X121100Y-317900D02*
X171200D01*
X175500Y-294300D02*
Y-286500D01*
X178800Y-283200D01*
X179968Y-297600D02*
X183100Y-294468D01*
X159700Y-297600D02*
X179968D01*
X155500Y-293400D02*
X159700Y-297600D01*
X155500Y-293400D02*
Y-284600D01*
X150600Y-279700D02*
X155500Y-284600D01*
X183100Y-294468D02*
X203868D01*
X210700Y-301300D01*
Y-426600D02*
Y-301300D01*
X180174Y-245574D02*
X184800Y-250200D01*
X174243Y-245574D02*
X180174D01*
X174400Y-226974D02*
X204974D01*
X170300Y-237700D02*
X174243D01*
X169200Y-220800D02*
X170900Y-219100D01*
X174400D01*
X145900Y-260600D02*
X151100Y-255400D01*
X168000D01*
X169265Y-256665D01*
Y-259800D02*
Y-256665D01*
X149300Y-210500D02*
X173600D01*
X188100Y-196000D01*
Y-144400D02*
X198500D01*
X157400Y-230800D02*
Y-226006D01*
Y-235694D02*
Y-230800D01*
X197600Y-439700D02*
X210700Y-426600D01*
X180100Y-414400D02*
X206700D01*
X9400Y-262500D02*
X10500Y-261400D01*
X9400Y-314600D02*
Y-262500D01*
X91261Y-372176D02*
X104124D01*
X91261Y-378475D02*
X106725D01*
X138600Y-344300D02*
X151683D01*
X153083Y-342900D02*
X162900D01*
X165100Y-345100D01*
X151683Y-344300D02*
X153083Y-342900D01*
X159800Y-345100D02*
X162925Y-348225D01*
X188000D01*
X197975D01*
X188000D02*
X194675D01*
X153994Y-345100D02*
X159800D01*
X152794Y-346300D02*
X153994Y-345100D01*
X152794Y-349400D02*
Y-346300D01*
X144600Y-352600D02*
X152200D01*
X152794Y-352006D01*
Y-349400D01*
X144700Y-370400D02*
X152794D01*
X147400Y-364700D02*
X151800D01*
X147400Y-385300D02*
X151800D01*
X133600Y-215200D02*
X206700D01*
X179086Y-413386D02*
X180100Y-414400D01*
X166417Y-413386D02*
X179086D01*
X123600Y-451400D02*
Y-388262D01*
X150600Y-279700D02*
Y-274800D01*
X153094Y-272306D01*
X156500D01*
X163365D01*
X163360Y-266394D02*
X163365Y-266400D01*
X163360Y-266394D02*
Y-259800D01*
X170265Y-266400D02*
X183100D01*
X163365D02*
X170265D01*
X183100D02*
X188900Y-260600D01*
Y-255400D01*
X138300Y-390200D02*
X141900Y-393800D01*
X173200D01*
X135900Y-391800D02*
X141900Y-397800D01*
X175600D02*
X175700Y-397700D01*
X141900Y-397800D02*
X175600D01*
X144100Y-390500D02*
X169500D01*
X140900Y-387300D02*
X144100Y-390500D01*
X140900Y-387300D02*
Y-379200D01*
X133876Y-372176D02*
X140900Y-379200D01*
X123939Y-372176D02*
X133876D01*
X138300Y-390200D02*
Y-380800D01*
X132825Y-375325D02*
X138300Y-380800D01*
X123939Y-375325D02*
X132825D01*
X135900Y-391800D02*
Y-381700D01*
X132675Y-378475D02*
X135900Y-381700D01*
X123939Y-378475D02*
X132675D01*
X56700Y-493900D02*
Y-479000D01*
X53800Y-496800D02*
X56700Y-493900D01*
X50400Y-496800D02*
X53800D01*
X54268Y-450732D02*
X60118Y-444882D01*
X54268Y-476569D02*
X56700Y-479000D01*
X54268Y-476569D02*
Y-450732D01*
X60118Y-444882D02*
Y-413386D01*
X82282Y-237018D02*
X83800Y-235500D01*
X77618Y-237018D02*
X82282D01*
X75400Y-234800D02*
X77618Y-237018D01*
X75400Y-234800D02*
Y-212100D01*
X77300Y-210200D01*
X83800Y-235500D02*
X87000D01*
X77300Y-210200D02*
X81800D01*
X125799Y-250500D02*
X133800D01*
X135700Y-252400D01*
X181500D01*
X168100Y-172000D02*
X198200D01*
D21*
X75300Y-265900D02*
Y-247700D01*
Y-265900D02*
X77730Y-268330D01*
X73300Y-267464D02*
X77400Y-271565D01*
Y-277800D02*
Y-271565D01*
X94900Y-249500D02*
X98000Y-246400D01*
X94900Y-253100D02*
Y-249500D01*
X118900Y-163000D02*
X161142D01*
X98300Y-259300D02*
Y-252600D01*
X97400Y-251700D02*
X98300Y-252600D01*
Y-262800D02*
Y-259300D01*
X92500Y-255500D02*
X94900Y-253100D01*
X98000Y-246400D02*
Y-210100D01*
X81800Y-280500D02*
X88201D01*
X80100D02*
X82700D01*
X77400Y-277800D02*
X80100Y-280500D01*
X98200Y-185772D02*
X114800Y-202372D01*
Y-217900D02*
Y-202372D01*
Y-243900D02*
Y-217900D01*
X98200Y-185772D02*
Y-183000D01*
X95700Y-186100D02*
X112800Y-203200D01*
Y-214600D02*
Y-203200D01*
Y-256400D02*
Y-214600D01*
X95700Y-186100D02*
Y-182600D01*
Y-165300D01*
X119900Y-285500D02*
X125799D01*
X117100Y-282700D02*
Y-268900D01*
Y-282700D02*
X119900Y-285500D01*
X107800Y-259600D02*
X117100Y-268900D01*
X107800Y-259600D02*
Y-245900D01*
Y-204300D01*
X110800Y-258700D02*
X117600Y-265500D01*
X125799D01*
X110800Y-258700D02*
Y-248700D01*
Y-204100D01*
X96600Y-264500D02*
X98300Y-262800D01*
X88201Y-260500D02*
X95600D01*
X88201Y-255500D02*
X92500D01*
X138700Y-184400D02*
X209016D01*
X40800Y-331600D02*
X51400Y-342200D01*
X72700D01*
X40800Y-331600D02*
Y-319400D01*
X38100Y-316700D02*
X40800Y-319400D01*
X82625Y-375325D02*
X91261D01*
X70000Y-362700D02*
X82625Y-375325D01*
X52200Y-362700D02*
X70000D01*
X32700Y-343200D02*
X52200Y-362700D01*
X32700Y-343200D02*
Y-338600D01*
X83476Y-365876D02*
X91261D01*
X78300Y-360700D02*
X83476Y-365876D01*
X53600Y-360700D02*
X78300D01*
X39800Y-346900D02*
X53600Y-360700D01*
X36900Y-344036D02*
X39764Y-346900D01*
X36900Y-344036D02*
Y-335500D01*
X39764Y-346900D02*
X39800D01*
X54400Y-358000D02*
X86100D01*
X40800Y-344400D02*
X54400Y-358000D01*
X33600Y-272100D02*
Y-266100D01*
X99726Y-360561D02*
Y-354274D01*
X100500Y-353500D01*
Y-346500D01*
X31474Y-263974D02*
X33600Y-266100D01*
X28926Y-263974D02*
X31474D01*
X36100Y-269500D02*
Y-251000D01*
X33720Y-248620D02*
X36100Y-251000D01*
X28680Y-248620D02*
X33720D01*
X39000Y-272200D02*
Y-243665D01*
X28600Y-233265D02*
X39000Y-243665D01*
X172100Y-374600D02*
X178890Y-367810D01*
X207790D01*
X208100Y-367500D01*
X156700Y-275900D02*
X196200D01*
X199700Y-272400D01*
X200900Y-271200D01*
X154300Y-278300D02*
X156700Y-275900D01*
X132300Y-192894D02*
Y-183800D01*
X129500Y-181000D02*
X132300Y-183800D01*
X105500Y-181000D02*
X129500D01*
X85400Y-201100D02*
X95700Y-211400D01*
Y-238400D02*
Y-211400D01*
X93600Y-240500D02*
X95700Y-238400D01*
X88201Y-240500D02*
X93600D01*
X126199Y-220100D02*
X157400D01*
X125799Y-220500D02*
X126199Y-220100D01*
X164557Y-223037D02*
Y-221257D01*
X163400Y-220100D02*
X164557Y-221257D01*
X157400Y-220100D02*
X163400D01*
X154237Y-241637D02*
X164400D01*
X151700Y-239100D02*
X154237Y-241637D01*
X151700Y-239100D02*
Y-226700D01*
X150500Y-225500D02*
X151700Y-226700D01*
X125799Y-225500D02*
X150500D01*
X160354Y-573154D02*
Y-568898D01*
Y-573154D02*
X162200Y-575000D01*
X211400D01*
X147300Y-381300D02*
X151000D01*
X135026Y-369026D02*
X147300Y-381300D01*
X123939Y-369026D02*
X135026D01*
X135776Y-365876D02*
X147326Y-377426D01*
X148200D01*
X131300Y-365876D02*
X135776D01*
X123939D02*
X131300D01*
X162000Y-374600D02*
X172100D01*
X183200Y-148300D02*
X203400D01*
X181400Y-146500D02*
X183200Y-148300D01*
X181400Y-146500D02*
Y-144100D01*
X75300Y-247700D02*
X77500Y-245500D01*
X88201D01*
X73300Y-267464D02*
Y-136668D01*
X125900Y-447200D02*
X141315Y-462615D01*
X150500D01*
X187500D01*
X125900Y-447200D02*
Y-399600D01*
X127700Y-397800D01*
X130100Y-395400D01*
X129108Y-443508D02*
X138372Y-452772D01*
X128400Y-442800D02*
Y-401900D01*
Y-442800D02*
X129834Y-444235D01*
X128400Y-401900D02*
X129800Y-400500D01*
X133100Y-397200D01*
X148200Y-377426D02*
X151800D01*
X90100Y-354000D02*
Y-347300D01*
X86100Y-358000D02*
X90100Y-354000D01*
X85400Y-351000D02*
Y-305600D01*
X83500Y-352900D02*
X85400Y-351000D01*
X74800Y-352900D02*
X83500D01*
X85400Y-305600D02*
X95100Y-295900D01*
X94500Y-206600D02*
X98000Y-210100D01*
X82600Y-194700D02*
X94500Y-206600D01*
X172500Y-304300D02*
X203500D01*
X171350Y-303150D02*
X172500Y-304300D01*
X166417Y-303150D02*
X171350D01*
X116400Y-158800D02*
X192283D01*
X170779Y-555700D02*
X202500D01*
X166260Y-551181D02*
X170779Y-555700D01*
X56181Y-517717D02*
X66483D01*
X74800Y-509400D01*
Y-410800D01*
X95100Y-295900D02*
Y-293500D01*
X96200Y-268200D02*
X97700D01*
X84600Y-193000D02*
X100400Y-208800D01*
X92600Y-275500D02*
X98100D01*
X100400Y-273200D02*
Y-208800D01*
X98100Y-275500D02*
X100400Y-273200D01*
X88201Y-275500D02*
X92600D01*
X73300Y-136668D02*
X80991Y-128977D01*
X124400Y-24000D02*
X127800Y-20600D01*
X124400Y-24000D02*
X128200Y-20200D01*
X155822Y-383022D02*
Y-382900D01*
X85200Y-527100D02*
Y-390000D01*
X87276Y-387924D01*
X91261D01*
X99726Y-505126D02*
Y-393239D01*
X110200Y-527100D02*
Y-515600D01*
X99726Y-505126D02*
X110200Y-515600D01*
X102876Y-501776D02*
Y-393239D01*
X115200Y-527100D02*
Y-514100D01*
X102876Y-501776D02*
X115200Y-514100D01*
X106025Y-499525D02*
Y-393239D01*
Y-499525D02*
X120200Y-513700D01*
Y-527100D02*
Y-513700D01*
X109175Y-496375D02*
Y-393239D01*
Y-496375D02*
X125200Y-512400D01*
Y-527100D02*
Y-512400D01*
X130200Y-527100D02*
Y-511900D01*
X112324Y-494024D02*
X130200Y-511900D01*
X112324Y-494024D02*
Y-393239D01*
X29600Y-368526D02*
Y-359600D01*
X158700Y-349400D02*
X160300D01*
X161643Y-350743D01*
Y-360763D02*
Y-350743D01*
X158237Y-360763D02*
X161643D01*
X155822Y-363178D02*
X158237Y-360763D01*
X90100Y-347300D02*
X96565D01*
Y-360550D02*
Y-347300D01*
X109200Y-360536D02*
Y-347300D01*
X109175Y-360561D02*
X109200Y-360536D01*
X158700Y-380700D02*
Y-370400D01*
Y-380700D02*
X159363Y-381363D01*
X161643D01*
X182263D01*
X187400Y-386500D01*
Y-399772D02*
Y-386500D01*
X155822Y-382900D02*
Y-363178D01*
X158700Y-385900D02*
X177800D01*
X182400Y-390500D01*
Y-408215D02*
Y-390500D01*
X183800Y-409615D02*
X187400D01*
X155822Y-383022D02*
X158700Y-385900D01*
X182400Y-408215D02*
X183800Y-409615D01*
X123939Y-381624D02*
X130424D01*
X133100Y-384300D01*
Y-397200D02*
Y-384300D01*
X138372Y-452772D02*
X187500D01*
X123939Y-384774D02*
X128974D01*
X115474Y-456574D02*
Y-393239D01*
X141200Y-482300D02*
X187500D01*
X115474Y-456574D02*
X141200Y-482300D01*
X128974Y-384774D02*
X130100Y-385900D01*
Y-395400D02*
Y-385900D01*
X118624Y-451224D02*
Y-393239D01*
Y-451224D02*
X139857Y-472457D01*
X187500D01*
X118624Y-360561D02*
X140139D01*
X143874Y-356826D01*
X151800D01*
X96576Y-507076D02*
Y-393239D01*
X105200Y-527100D02*
Y-515700D01*
X96576Y-507076D02*
X105200Y-515700D01*
X88700Y-19700D02*
X93300Y-15100D01*
X103268Y-86700D02*
X107900Y-82068D01*
X122900Y-76800D02*
X132800Y-86700D01*
X133268D01*
X83268Y-126700D02*
X87768Y-122200D01*
X83300Y-78000D02*
Y-55100D01*
Y-78000D02*
X87768Y-82468D01*
Y-122200D02*
Y-82468D01*
X113300Y-42200D02*
Y-15100D01*
Y-42200D02*
X118400Y-47300D01*
X29426Y-378674D02*
Y-368700D01*
X37300D02*
X66200D01*
X79124Y-381624D01*
X91261D01*
X122900Y-76800D02*
Y-69500D01*
X96700Y-285500D02*
X102400Y-279800D01*
X88201Y-285500D02*
X96700D01*
X93268Y-120032D02*
Y-86700D01*
X93900Y-270500D02*
X96200Y-268200D01*
X88201Y-270500D02*
X93900D01*
X118400Y-75128D02*
Y-47300D01*
Y-75128D02*
X128500Y-85228D01*
X113268Y-86700D02*
X128200Y-101632D01*
X140200Y-128800D02*
Y-109800D01*
X123268Y-92868D02*
Y-86700D01*
Y-92868D02*
X140200Y-109800D01*
X143200Y-131400D02*
Y-108200D01*
X128500Y-93500D02*
X143200Y-108200D01*
X128500Y-93500D02*
Y-85228D01*
X122900Y-69500D02*
X127800Y-64600D01*
X116900Y-260500D02*
X125799D01*
X112800Y-256400D02*
X116900Y-260500D01*
X114800Y-243900D02*
X116400Y-245500D01*
X125799D01*
X118200Y-235500D02*
X125799D01*
X118100Y-240500D02*
X125799D01*
X7600Y-76300D02*
Y-70946D01*
X176900Y-76300D02*
X181000D01*
X175079Y-74479D02*
X176900Y-76300D01*
X175079Y-74479D02*
Y-70866D01*
X199000Y-76300D02*
Y-70819D01*
X184028Y-83828D02*
X192283Y-92083D01*
Y-92520D02*
Y-92083D01*
X185079Y-72954D02*
Y-70866D01*
X184028Y-83828D02*
Y-74005D01*
X185079Y-72954D01*
X176600Y-92500D02*
X182264D01*
X15400Y-23600D02*
X24506D01*
X24528Y-23622D01*
X176322D02*
X182283D01*
X97900Y-20500D02*
X103300Y-15100D01*
X97900Y-57200D02*
Y-20500D01*
X107900Y-82068D02*
Y-67200D01*
X97900Y-57200D02*
X107900Y-67200D01*
X103268Y-118432D02*
Y-86700D01*
X98300Y-123400D02*
X103268Y-118432D01*
X128200Y-128132D02*
Y-101632D01*
X136100Y-132900D02*
X140200Y-128800D01*
X128100Y-132900D02*
X136100D01*
X139200Y-135400D02*
X143200Y-131400D01*
X129400Y-135400D02*
X139200D01*
X97294Y-77700D02*
X97768Y-78173D01*
X88700Y-62532D02*
Y-19700D01*
Y-62532D02*
X93268Y-67100D01*
Y-86700D02*
Y-67100D01*
X128200Y-20200D02*
X133300Y-15100D01*
X124400Y-46100D02*
Y-24000D01*
Y-46100D02*
X127800Y-49500D01*
Y-64600D02*
Y-49500D01*
X186906Y-76300D02*
X190000D01*
X193094D01*
X13506Y-284494D02*
Y-76300D01*
X98200Y-166600D02*
X129400Y-135400D01*
X102400Y-279800D02*
Y-206700D01*
X105300Y-268200D02*
Y-205400D01*
X87768Y-125532D02*
X93268Y-120032D01*
X87768Y-131200D02*
Y-125532D01*
X82600Y-136368D02*
X87768Y-131200D01*
X82600Y-194700D02*
Y-136368D01*
X93268Y-130132D02*
Y-126700D01*
X84600Y-193000D02*
Y-138800D01*
X93268Y-130132D01*
X98300Y-131500D02*
Y-123400D01*
X86700Y-191000D02*
Y-143100D01*
Y-191000D02*
X102400Y-206700D01*
X86700Y-143100D02*
X98300Y-131500D01*
X89200Y-189300D02*
Y-150768D01*
X113268Y-126700D01*
X89200Y-189300D02*
X105300Y-205400D01*
X91700Y-158268D02*
X123268Y-126700D01*
X91700Y-188200D02*
Y-158268D01*
Y-188200D02*
X107800Y-204300D01*
X93700Y-187000D02*
Y-162632D01*
Y-187000D02*
X110800Y-204100D01*
X93700Y-162632D02*
X128200Y-128132D01*
X95700Y-165300D02*
X128100Y-132900D01*
X98200Y-183000D02*
Y-166600D01*
X181400Y-136226D02*
Y-127300D01*
X195906Y-138494D02*
X198500D01*
X194237Y-140163D02*
X195906Y-138494D01*
X191243Y-140163D02*
X194237D01*
X149100Y-192894D02*
X156398D01*
X132300D02*
X141713D01*
X141732Y-192913D01*
X115700Y-255600D02*
X125699D01*
X168000Y-23700D02*
Y-6500D01*
Y-90500D02*
Y-37600D01*
X76400Y-34600D02*
Y-10300D01*
X171600Y-18400D02*
Y-3500D01*
Y-93700D02*
Y-36800D01*
Y-175900D02*
X200900D01*
X125799Y-270500D02*
X136400D01*
X137800Y-271900D01*
D22*
X80480Y-270670D02*
Y-266080D01*
X80100Y-271050D02*
X80480Y-270670D01*
X77550Y-263150D02*
X80480Y-266080D01*
X80600Y-250500D02*
X88201D01*
X77550Y-263150D02*
Y-253550D01*
X80600Y-250500D01*
X23700Y-288600D02*
Y-228900D01*
X26300Y-226300D01*
X23700Y-288600D02*
X25100Y-290000D01*
X20000Y-396400D02*
Y-220400D01*
Y-396400D02*
X21600Y-398000D01*
X32900Y-392700D02*
X64600D01*
X25288Y-385088D02*
X32900Y-392700D01*
X25288Y-385088D02*
Y-380416D01*
X21500Y-430600D02*
X31400D01*
X25288Y-328512D02*
X25300Y-328500D01*
X25288Y-380416D02*
Y-328512D01*
X41400Y-456194D02*
Y-419900D01*
X51200Y-278700D02*
X54700Y-282200D01*
Y-330800D02*
Y-282200D01*
X51900Y-463577D02*
X51919Y-463559D01*
X51900Y-460441D02*
X51919Y-460460D01*
X54482Y-397518D02*
X54700Y-397300D01*
X26300Y-226300D02*
X49600D01*
X20000Y-220400D02*
X21600Y-218800D01*
X43600Y-292500D02*
Y-282600D01*
X213050Y-446350D02*
Y-159750D01*
X201600Y-457800D02*
X213050Y-446350D01*
X205300Y-152000D02*
X213050Y-159750D01*
X161600Y-152000D02*
X205300D01*
X72526Y-384774D02*
X91261D01*
X64600Y-392700D02*
X72526Y-384774D01*
X25288Y-380416D02*
X25300Y-380428D01*
X150000Y-308906D02*
X160406D01*
X139500Y-443500D02*
X160500D01*
X149800Y-407400D02*
X160500D01*
X43500Y-407494D02*
Y-403200D01*
X147700Y-149500D02*
X159100D01*
X161600Y-152000D01*
X163600Y-457800D02*
X201600D01*
X81100Y-301800D02*
X89500Y-293400D01*
X81100Y-322100D02*
Y-301800D01*
Y-322100D02*
Y-318300D01*
Y-346000D02*
Y-322100D01*
Y-489300D02*
Y-398400D01*
X154994Y-493300D02*
Y-489300D01*
X154825Y-526800D02*
Y-510100D01*
Y-493470D01*
X54482Y-445018D02*
Y-397518D01*
X51900Y-447600D02*
X54482Y-445018D01*
X51900Y-482800D02*
Y-463577D01*
X51919Y-463559D02*
Y-460460D01*
X51900Y-460441D02*
Y-447600D01*
X51600Y-514500D02*
X63837Y-502263D01*
Y-399637D01*
X51600Y-532821D02*
Y-514500D01*
Y-532821D02*
X52244Y-533465D01*
X74803Y-303150D02*
X74900Y-303053D01*
Y-272600D01*
X58100Y-297100D02*
X58600Y-297600D01*
X58100Y-297100D02*
Y-280400D01*
X87000Y-235500D02*
X88201D01*
X80200Y-210200D02*
X81800D01*
X78882Y-234418D02*
X82800Y-230500D01*
X88201D01*
X23494Y-502100D02*
Y-482906D01*
X43600Y-297200D02*
Y-292500D01*
X78300Y-225500D02*
X88201D01*
X21506Y-413406D02*
X26700D01*
X17500Y-409400D02*
X21506Y-413406D01*
X17500Y-409400D02*
Y-215400D01*
X79900Y-220500D02*
X88201D01*
X70700Y-298400D02*
Y-292568D01*
Y-122600D01*
X154825Y-560530D02*
Y-526800D01*
X142300Y-57100D02*
Y-40600D01*
X127400D02*
X142300D01*
Y-76400D02*
Y-57100D01*
X138406Y-76400D02*
X142300D01*
X53800Y-40600D02*
X85300D01*
X154825Y-526800D02*
Y-510100D01*
Y-543100D02*
Y-526800D01*
Y-560530D02*
Y-543100D01*
X70700Y-215500D02*
Y-122600D01*
Y-298400D02*
Y-215500D01*
X113268Y-79983D02*
Y-70866D01*
X108518Y-84732D02*
X113268Y-79983D01*
X17520Y-70866D02*
Y-63480D01*
X20000Y-61000D01*
X151142Y-76158D02*
Y-70866D01*
X151000Y-76300D02*
X151142Y-76158D01*
X144994Y-76400D02*
X145094Y-76300D01*
X34528Y-23622D02*
X41457Y-30551D01*
X20000Y-61000D02*
X30400D01*
X36100D01*
X30400D02*
X40857D01*
X41457Y-70866D02*
Y-30551D01*
X129400Y-76400D02*
X132500D01*
X127205Y-74205D02*
X129400Y-76400D01*
X127205Y-74205D02*
Y-70866D01*
X79200Y-76800D02*
Y-70997D01*
X52100Y-77400D02*
Y-74160D01*
X55394Y-70866D01*
X37206Y-77400D02*
X46194D01*
X31300D02*
Y-71023D01*
X103200Y-77700D02*
Y-70934D01*
X164006Y-98406D02*
X176600D01*
X157100Y-91500D02*
X164006Y-98406D01*
X6200Y-11700D02*
X12700Y-5200D01*
X6200Y-26900D02*
Y-11700D01*
Y-26900D02*
X8806Y-29506D01*
X10600D01*
X15400D01*
X17520Y-70866D02*
X19700Y-73046D01*
X65394Y-92520D02*
Y-70866D01*
X108518Y-109518D02*
Y-84732D01*
X94900Y-63300D02*
X97294Y-65694D01*
Y-77700D02*
Y-65694D01*
X46194Y-48206D02*
X53800Y-40600D01*
X46194Y-77400D02*
Y-48206D01*
X142300Y-76400D02*
X144994D01*
X142300Y-57100D02*
Y-55500D01*
Y-40600D02*
X147000D01*
X147100D01*
X186200Y-60600D02*
Y-40600D01*
Y-60600D02*
X190000Y-64400D01*
Y-76300D02*
Y-64400D01*
X12700Y-5200D02*
X153500D01*
X157100Y-8800D01*
X73294Y-76800D02*
Y-40806D01*
X19700Y-158000D02*
Y-73046D01*
Y-158000D02*
X27100Y-165400D01*
X50300D01*
X60118Y-175218D01*
Y-192913D02*
Y-175218D01*
X44413Y-192913D02*
X50118D01*
X25019D02*
X35433D01*
X60118Y-230382D02*
Y-192913D01*
X37206Y-81494D02*
Y-77400D01*
X30000Y-88700D02*
X37206Y-81494D01*
X30000Y-152700D02*
Y-88700D01*
Y-152700D02*
X37900Y-160600D01*
X53900D01*
X65394Y-117294D02*
Y-92520D01*
X34528D02*
X65394D01*
Y-117294D02*
X70700Y-122600D01*
X53900Y-160600D02*
X60850Y-167550D01*
X62894Y-169594D01*
X60850Y-167550D02*
X66200Y-172900D01*
X157100Y-91500D02*
Y-29206D01*
Y-8800D01*
Y-29206D02*
X176000D01*
X123800Y-149500D02*
X147700D01*
X122500Y-154900D02*
X150500D01*
X161142Y-37758D02*
X164900Y-34000D01*
X189183D01*
X161142Y-70866D02*
Y-37758D01*
X189183Y-34000D02*
X192283Y-30900D01*
Y-23622D01*
X66200Y-280400D02*
Y-172900D01*
X27800Y-275500D02*
X57500D01*
X44100Y-198506D02*
X54894D01*
X105500Y-174000D02*
X155300D01*
X149100Y-198800D02*
X155900D01*
X157100Y-200000D01*
X160400D01*
X54894Y-260394D02*
Y-198506D01*
X43600Y-303106D02*
X50074D01*
X26444Y-303150D02*
X35433D01*
X133350D02*
X141732D01*
X150000Y-303000D02*
X156268D01*
X26700Y-413406D02*
X35413D01*
X43500Y-413400D02*
X50104D01*
X149800Y-413306D02*
X156337D01*
X132700Y-413406D02*
X141713D01*
X41400Y-462100D02*
X48100D01*
X23900Y-462506D02*
X33809D01*
X158543Y-501968D02*
X160900Y-499612D01*
Y-493300D01*
Y-510100D02*
X166900D01*
X170354Y-513554D01*
Y-517717D02*
Y-513554D01*
X160900Y-526800D02*
X171500D01*
X174291Y-529591D01*
Y-533500D02*
Y-529591D01*
X160900Y-543100D02*
X172800D01*
X176260Y-546560D01*
Y-551181D02*
Y-546560D01*
X154825Y-493470D02*
X154994Y-493300D01*
X154825Y-560530D02*
X154994Y-560700D01*
X160900D02*
X168000D01*
X170354Y-563054D01*
Y-568898D02*
Y-563054D01*
X23494Y-551200D02*
Y-533500D01*
Y-517700D01*
Y-502100D01*
Y-568900D02*
Y-551200D01*
X29400Y-502100D02*
X57861D01*
X29400Y-517700D02*
X46165D01*
X29400Y-533500D02*
X42209D01*
X29400Y-551200D02*
X40257D01*
X29400Y-568900D02*
X46179D01*
X67992Y-501968D02*
Y-396492D01*
X65950Y-303150D02*
X70700Y-298400D01*
X60118Y-303150D02*
X65950D01*
X62000Y-290100D02*
X64200Y-292300D01*
X62000Y-290100D02*
Y-232264D01*
X60118Y-230382D02*
X62000Y-232264D01*
D23*
X85200Y-604700D02*
Y-592061D01*
X123900Y-204800D02*
Y-198300D01*
X117900D02*
X123900D01*
X113800Y-194200D02*
X117900Y-198300D01*
X113800Y-194200D02*
Y-188200D01*
X134100Y-210500D02*
X149300D01*
X134100D02*
X141000D01*
X125799D02*
X134100D01*
X123900Y-204800D02*
X125799Y-206699D01*
Y-210500D02*
Y-206699D01*
X90800Y-509700D02*
X100200Y-519100D01*
X90800Y-509700D02*
Y-397700D01*
X100200Y-527100D02*
Y-519100D01*
X37474Y-359600D02*
X37874Y-360000D01*
X42600D01*
X116400Y-347300D02*
X123500D01*
D24*
X29700Y-344726D02*
Y-326500D01*
X28300Y-325100D02*
X29700Y-326500D01*
Y-344726D02*
X30237Y-345263D01*
X37474Y-352500D01*
X96565Y-335035D02*
X97700Y-333900D01*
X96565Y-335035D02*
Y-302635D01*
Y-341394D02*
Y-335035D01*
Y-302635D02*
X102400Y-296800D01*
X97700Y-333900D02*
X107400D01*
X112324Y-354276D02*
X114950Y-351650D01*
X130200Y-347300D02*
X147200D01*
X114950Y-351650D02*
X116400Y-350200D01*
X37474Y-359600D02*
Y-352500D01*
X112324Y-360561D02*
Y-354276D01*
X116400Y-350200D02*
Y-347300D01*
X123500D02*
X130200D01*
X49400Y-378700D02*
X59000D01*
X59400Y-378300D01*
D25*
X145900Y-282500D02*
Y-265600D01*
Y-282500D02*
X148900Y-285500D01*
X145900Y-265600D02*
Y-260600D01*
X125799Y-230500D02*
X140213D01*
D26*
X100400Y-185285D02*
X117300Y-202185D01*
Y-210000D02*
Y-202185D01*
Y-213600D02*
Y-210000D01*
X100400Y-185285D02*
Y-180300D01*
Y-167500D01*
X135400Y-72671D02*
X137205Y-70866D01*
X135400Y-80600D02*
Y-72671D01*
Y-80600D02*
X145900Y-91100D01*
Y-133200D02*
Y-91100D01*
X141100Y-138000D02*
X145900Y-133200D01*
X129900Y-138000D02*
X141100D01*
X117300Y-213600D02*
X119100Y-215400D01*
X100400Y-167500D02*
X129900Y-138000D01*
D27*
X212598Y-610236D02*
G03*
X216535Y-606299I0J3937D01*
G01*
X0D02*
G03*
X3937Y-610236I3937J0D01*
G01*
X216535Y-3937D02*
G03*
X212598Y0I-3937J0D01*
G01*
X3937D02*
G03*
X0Y-3937I0J-3937D01*
G01*
X203740Y-590551D02*
G03*
X203740Y-590551I-6890J0D01*
G01*
X26575D02*
G03*
X26575Y-590551I-6890J0D01*
G01*
X203740Y-49213D02*
G03*
X203740Y-49213I-6890J0D01*
G01*
X26575D02*
G03*
X26575Y-49213I-6890J0D01*
G01*
X3937Y0D02*
X212500D01*
X0Y-606299D02*
Y-3937D01*
X216535Y-606265D02*
Y-4035D01*
X3937Y-610236D02*
X212564D01*
D28*
X141732Y-303150D02*
D03*
Y-413386D02*
D03*
X33915Y-462400D02*
D03*
X35433Y-413386D02*
D03*
Y-303150D02*
D03*
Y-192913D02*
D03*
X141732D02*
D03*
X85300Y-604800D02*
D03*
D29*
X166417Y-303150D02*
D03*
X156417D02*
D03*
X58200Y-462000D02*
D03*
X48200D02*
D03*
X60118Y-413386D02*
D03*
X50118D02*
D03*
X60118Y-303150D02*
D03*
X50118D02*
D03*
X60118Y-192913D02*
D03*
X50118D02*
D03*
X166417D02*
D03*
X156417D02*
D03*
X192283Y-92520D02*
D03*
X182283D02*
D03*
X192283Y-23622D02*
D03*
X182283D02*
D03*
X34528D02*
D03*
X24528D02*
D03*
X34528Y-92520D02*
D03*
X24528D02*
D03*
X166417Y-413386D02*
D03*
X156417D02*
D03*
X174291Y-533500D02*
D03*
X164291D02*
D03*
X170354Y-517717D02*
D03*
X160354D02*
D03*
X158543Y-501968D02*
D03*
X148543D02*
D03*
X46181Y-568898D02*
D03*
X56181D02*
D03*
X40276Y-551181D02*
D03*
X50276D02*
D03*
X42244Y-533465D02*
D03*
X52244D02*
D03*
X46181Y-517717D02*
D03*
X56181D02*
D03*
X57992Y-501968D02*
D03*
X67992D02*
D03*
X176260Y-551181D02*
D03*
X166260D02*
D03*
X170354Y-568898D02*
D03*
X160354D02*
D03*
X31457Y-70866D02*
D03*
X41457D02*
D03*
X151142Y-70866D02*
D03*
X161142D02*
D03*
X55394Y-70866D02*
D03*
X65394D02*
D03*
X175079Y-70866D02*
D03*
X185079D02*
D03*
X199016Y-70803D02*
D03*
X209016D02*
D03*
X127205Y-70866D02*
D03*
X137205D02*
D03*
X103268D02*
D03*
X113268D02*
D03*
X79331D02*
D03*
X89331D02*
D03*
X7520Y-70866D02*
D03*
X17520D02*
D03*
D30*
X181300Y-127200D02*
D03*
X200985D02*
D03*
X187400Y-343672D02*
D03*
Y-363357D02*
D03*
Y-373200D02*
D03*
Y-353515D02*
D03*
X187900Y-333830D02*
D03*
X187400Y-399772D02*
D03*
Y-419457D02*
D03*
Y-429300D02*
D03*
Y-409615D02*
D03*
X187500Y-452772D02*
D03*
Y-472457D02*
D03*
Y-482300D02*
D03*
Y-462615D02*
D03*
X187600Y-289915D02*
D03*
Y-309600D02*
D03*
Y-299757D02*
D03*
X188900Y-255400D02*
D03*
Y-245557D02*
D03*
X188200Y-219800D02*
D03*
Y-209957D02*
D03*
X9400Y-324600D02*
D03*
Y-334600D02*
D03*
Y-344600D02*
D03*
D31*
X83268Y-126700D02*
D03*
X93268D02*
D03*
X103268D02*
D03*
X113268D02*
D03*
X123268D02*
D03*
X133268D02*
D03*
Y-86700D02*
D03*
X123268D02*
D03*
X113268D02*
D03*
X103268D02*
D03*
X93268D02*
D03*
X83268D02*
D03*
X83300Y-15100D02*
D03*
X93300D02*
D03*
X103300D02*
D03*
X113300D02*
D03*
X123300D02*
D03*
X133300D02*
D03*
Y-55100D02*
D03*
X123300D02*
D03*
X113300D02*
D03*
X103300D02*
D03*
X93300D02*
D03*
X83300D02*
D03*
D32*
X29400Y-378700D02*
D03*
X39400D02*
D03*
X49400D02*
D03*
D33*
X9400Y-314600D02*
D03*
D34*
X140213Y-234200D02*
D03*
X58600Y-254800D02*
D03*
X29600Y-395000D02*
D03*
X194200Y-500500D02*
D03*
X183900Y-500400D02*
D03*
X178100Y-488100D02*
D03*
X133600Y-352800D02*
D03*
X127400Y-356300D02*
D03*
X115900Y-384600D02*
D03*
X107900Y-368800D02*
D03*
X100800Y-375400D02*
D03*
X112300Y-375300D02*
D03*
X111000Y-383900D02*
D03*
X102100Y-383800D02*
D03*
X156300Y-154000D02*
D03*
X155200Y-168000D02*
D03*
X123600Y-169000D02*
D03*
X108900Y-166200D02*
D03*
X153600Y-129500D02*
D03*
X175500Y-145900D02*
D03*
X202000Y-161400D02*
D03*
X192800Y-166500D02*
D03*
X179600Y-165800D02*
D03*
X192700Y-192100D02*
D03*
X174200Y-200600D02*
D03*
X176400Y-191900D02*
D03*
X185200Y-234700D02*
D03*
X140200Y-258800D02*
D03*
X189000Y-270000D02*
D03*
X194900Y-262800D02*
D03*
X139200Y-295100D02*
D03*
X139500Y-284800D02*
D03*
X151700Y-332100D02*
D03*
X168500Y-325700D02*
D03*
X179300Y-325500D02*
D03*
X183000Y-318800D02*
D03*
X177400Y-357000D02*
D03*
X169200Y-443700D02*
D03*
X178000Y-434400D02*
D03*
X141300Y-435800D02*
D03*
X134100Y-425500D02*
D03*
X79900Y-495900D02*
D03*
X80900Y-508700D02*
D03*
X137300Y-508600D02*
D03*
X124300Y-495600D02*
D03*
X126000Y-480100D02*
D03*
X120900Y-472000D02*
D03*
X188300Y-562400D02*
D03*
X206900Y-567100D02*
D03*
X196300Y-541500D02*
D03*
X194000Y-522000D02*
D03*
X188700Y-509400D02*
D03*
X114300Y-598000D02*
D03*
X139200Y-598300D02*
D03*
X126300Y-537600D02*
D03*
X143900Y-524000D02*
D03*
X74200Y-521000D02*
D03*
X68900Y-535600D02*
D03*
X68200Y-604300D02*
D03*
X38400Y-598900D02*
D03*
X82500Y-578400D02*
D03*
X111700Y-581700D02*
D03*
X105400Y-561800D02*
D03*
X130300Y-577000D02*
D03*
X149800Y-581400D02*
D03*
X198600Y-566400D02*
D03*
X177400Y-586300D02*
D03*
X181000Y-599300D02*
D03*
X160100Y-590000D02*
D03*
X157500Y-599600D02*
D03*
X124300Y-603600D02*
D03*
X125000Y-584700D02*
D03*
X99100Y-577400D02*
D03*
X129900Y-559500D02*
D03*
X119000Y-558800D02*
D03*
X89800Y-557500D02*
D03*
X67400Y-561000D02*
D03*
X66400Y-582100D02*
D03*
X54700Y-590800D02*
D03*
X36300Y-582600D02*
D03*
X16300Y-574000D02*
D03*
X8600Y-564000D02*
D03*
X36700Y-560600D02*
D03*
X36800Y-540500D02*
D03*
X35400Y-522800D02*
D03*
X44100Y-508900D02*
D03*
X36200Y-510300D02*
D03*
X45100Y-488600D02*
D03*
X35200Y-490200D02*
D03*
X20900Y-473100D02*
D03*
X4100Y-501600D02*
D03*
X9500Y-542000D02*
D03*
X13200Y-515700D02*
D03*
X13700Y-489600D02*
D03*
X9500Y-467800D02*
D03*
X7300Y-451900D02*
D03*
X47100Y-437000D02*
D03*
X31500Y-447100D02*
D03*
X30800Y-437400D02*
D03*
X15500Y-439100D02*
D03*
X9600Y-421100D02*
D03*
Y-397200D02*
D03*
X8600Y-372900D02*
D03*
X73300Y-348600D02*
D03*
X76300Y-330900D02*
D03*
X73500Y-320400D02*
D03*
X123800Y-291900D02*
D03*
X107300Y-275500D02*
D03*
X105200Y-286100D02*
D03*
X79100Y-204400D02*
D03*
X77700Y-176700D02*
D03*
X78400Y-152300D02*
D03*
X7200Y-206100D02*
D03*
X7800Y-237100D02*
D03*
X8800Y-181100D02*
D03*
X7800Y-131400D02*
D03*
X41000Y-171600D02*
D03*
X21100Y-171900D02*
D03*
X25500Y-143400D02*
D03*
X24300Y-116900D02*
D03*
X61300Y-142500D02*
D03*
X53700Y-151700D02*
D03*
X39800Y-139600D02*
D03*
X38200Y-118400D02*
D03*
X41000Y-104500D02*
D03*
X198100Y-117300D02*
D03*
X184400Y-117700D02*
D03*
X199400Y-101100D02*
D03*
X203300Y-91200D02*
D03*
X61200Y-124700D02*
D03*
X57100Y-115700D02*
D03*
Y-101300D02*
D03*
X97800Y-106000D02*
D03*
X78100Y-117100D02*
D03*
X76000Y-104300D02*
D03*
X73600Y-91400D02*
D03*
X114300Y-114800D02*
D03*
X113000Y-99000D02*
D03*
X123300Y-108000D02*
D03*
X155500Y-141800D02*
D03*
X146200Y-142000D02*
D03*
X154200Y-118400D02*
D03*
X153200Y-102800D02*
D03*
X150600Y-90300D02*
D03*
X210400Y-17700D02*
D03*
X179200Y-3900D02*
D03*
X200900Y-11400D02*
D03*
X202500Y-23200D02*
D03*
X200200Y-36900D02*
D03*
X207800Y-37200D02*
D03*
X209200Y-58700D02*
D03*
X197700Y-62000D02*
D03*
X177700Y-59700D02*
D03*
X175500Y-46000D02*
D03*
X151500Y-56100D02*
D03*
X149800Y-47300D02*
D03*
X152100Y-21800D02*
D03*
X144200Y-15600D02*
D03*
X143200Y-26500D02*
D03*
X138900Y-34300D02*
D03*
X118300Y-33900D02*
D03*
X119500Y-22600D02*
D03*
X104700Y-34100D02*
D03*
X104900Y-25500D02*
D03*
X91900Y-27100D02*
D03*
X81000Y-26100D02*
D03*
X57100Y-50200D02*
D03*
X33600Y-52000D02*
D03*
X33400Y-41700D02*
D03*
X21600Y-36000D02*
D03*
X9700Y-38400D02*
D03*
X71000Y-20400D02*
D03*
X64500Y-34500D02*
D03*
X56800Y-24900D02*
D03*
X59500Y-13200D02*
D03*
X43500Y-21100D02*
D03*
X40400Y-10500D02*
D03*
X113800Y-188200D02*
D03*
X90800Y-423500D02*
D03*
X149300Y-210500D02*
D03*
X197600Y-439700D02*
D03*
X175700Y-397700D02*
D03*
X173200Y-393800D02*
D03*
X169500Y-390500D02*
D03*
X114209Y-352391D02*
D03*
X90800Y-397700D02*
D03*
X42600Y-360000D02*
D03*
X100200Y-519100D02*
D03*
D35*
X97400Y-251700D02*
D03*
X96600Y-264500D02*
D03*
X124100Y-203400D02*
D03*
X46700Y-263500D02*
D03*
Y-254000D02*
D03*
X102400Y-296800D02*
D03*
X135200Y-292300D02*
D03*
Y-247700D02*
D03*
X107400Y-333900D02*
D03*
X32700Y-338600D02*
D03*
X36900Y-335500D02*
D03*
X33600Y-272100D02*
D03*
X36100Y-269500D02*
D03*
X100500Y-346500D02*
D03*
X72700Y-342200D02*
D03*
X38100Y-316700D02*
D03*
X28300Y-325100D02*
D03*
X43600Y-282600D02*
D03*
X39000Y-272200D02*
D03*
X28926Y-263974D02*
D03*
X28680Y-248620D02*
D03*
X28600Y-233265D02*
D03*
X121100Y-352400D02*
D03*
X102200Y-342300D02*
D03*
X121100Y-317900D02*
D03*
X99600Y-325200D02*
D03*
X175500Y-320500D02*
D03*
X171200Y-317900D02*
D03*
X175500Y-294300D02*
D03*
X171200Y-292800D02*
D03*
X105500Y-181000D02*
D03*
X85400Y-201100D02*
D03*
X188100Y-196000D02*
D03*
Y-144400D02*
D03*
X157400Y-230800D02*
D03*
X151000Y-381300D02*
D03*
X162000Y-374600D02*
D03*
X208100Y-367500D02*
D03*
X203400Y-148300D02*
D03*
X10500Y-261400D02*
D03*
X106725Y-378475D02*
D03*
X104124Y-372176D02*
D03*
X138600Y-344300D02*
D03*
X165100Y-366300D02*
D03*
Y-345100D02*
D03*
X197975Y-348225D02*
D03*
X144600Y-352600D02*
D03*
X144700Y-370400D02*
D03*
X147200Y-347300D02*
D03*
X147400Y-364700D02*
D03*
Y-385300D02*
D03*
X133600Y-215200D02*
D03*
X206700D02*
D03*
Y-414400D02*
D03*
X123600Y-451400D02*
D03*
X40800Y-344400D02*
D03*
X25200Y-328500D02*
D03*
X160406Y-308906D02*
D03*
X41300Y-443500D02*
D03*
X139500D02*
D03*
X160500D02*
D03*
Y-407400D02*
D03*
X43600Y-403100D02*
D03*
X41400Y-419900D02*
D03*
X163600Y-457800D02*
D03*
X81100Y-346000D02*
D03*
Y-398400D02*
D03*
Y-489300D02*
D03*
X154994D02*
D03*
X203500Y-304300D02*
D03*
X202500Y-555700D02*
D03*
X211400Y-575000D02*
D03*
X50400Y-496800D02*
D03*
X63837Y-399637D02*
D03*
X89500Y-293400D02*
D03*
X74900Y-272600D02*
D03*
X77730Y-268330D02*
D03*
X74803Y-303150D02*
D03*
X80100Y-271050D02*
D03*
X58600Y-297600D02*
D03*
X58100Y-280400D02*
D03*
X74800Y-410800D02*
D03*
Y-352900D02*
D03*
X95100Y-293500D02*
D03*
X95600Y-260500D02*
D03*
X25100Y-290000D02*
D03*
X49600Y-226300D02*
D03*
X81800Y-210200D02*
D03*
X78882Y-234418D02*
D03*
X23494Y-482906D02*
D03*
X51900Y-482800D02*
D03*
X54700Y-397300D02*
D03*
Y-330800D02*
D03*
X51200Y-278700D02*
D03*
X43600Y-292500D02*
D03*
X31400Y-430600D02*
D03*
X21500D02*
D03*
X21600Y-398000D02*
D03*
Y-218800D02*
D03*
X78300Y-225500D02*
D03*
X17500Y-215400D02*
D03*
X79900Y-220500D02*
D03*
X105300Y-268200D02*
D03*
X97700D02*
D03*
X118100Y-235400D02*
D03*
Y-240500D02*
D03*
X10600Y-29506D02*
D03*
X85300Y-40600D02*
D03*
X94900Y-63300D02*
D03*
X127400Y-40600D02*
D03*
X147000D02*
D03*
X186200D02*
D03*
X60118Y-230382D02*
D03*
X108518Y-109518D02*
D03*
X119100Y-215400D02*
D03*
X192283Y-158700D02*
D03*
X209016Y-184400D02*
D03*
X138700Y-184600D02*
D03*
X116400Y-158800D02*
D03*
X118900Y-163000D02*
D03*
X147700Y-149500D02*
D03*
X123800D02*
D03*
X122500Y-154900D02*
D03*
X150500D02*
D03*
X161142Y-162900D02*
D03*
X115700Y-255600D02*
D03*
X168000Y-6500D02*
D03*
Y-23700D02*
D03*
Y-37600D02*
D03*
Y-90500D02*
D03*
X181500Y-252400D02*
D03*
X198200Y-172000D02*
D03*
X168100D02*
D03*
X76400Y-34600D02*
D03*
Y-10300D02*
D03*
X171600Y-3500D02*
D03*
Y-18400D02*
D03*
Y-36800D02*
D03*
Y-93700D02*
D03*
Y-175900D02*
D03*
X200900D02*
D03*
Y-271200D02*
D03*
X154300Y-278300D02*
D03*
X137800Y-271900D02*
D03*
X70800Y-215500D02*
D03*
X66200Y-280400D02*
D03*
X13400Y-285500D02*
D03*
X57500Y-275500D02*
D03*
X27800D02*
D03*
X54894Y-198506D02*
D03*
X105500Y-174000D02*
D03*
X155300D02*
D03*
X160400Y-200000D02*
D03*
X54894Y-260394D02*
D03*
X67992Y-396492D02*
D03*
X64200Y-292300D02*
D03*
D36*
X145900Y-260600D02*
D03*
X148900Y-285500D02*
D03*
D37*
X91261Y-365876D02*
D03*
Y-369026D02*
D03*
Y-372176D02*
D03*
Y-375325D02*
D03*
Y-378475D02*
D03*
Y-381624D02*
D03*
Y-384774D02*
D03*
Y-387924D02*
D03*
X123939D02*
D03*
Y-384774D02*
D03*
Y-381624D02*
D03*
Y-378475D02*
D03*
Y-375325D02*
D03*
Y-372176D02*
D03*
Y-369026D02*
D03*
Y-365876D02*
D03*
D38*
X96576Y-393239D02*
D03*
X99726D02*
D03*
X102876D02*
D03*
X106025D02*
D03*
X109175D02*
D03*
X112324D02*
D03*
X115474D02*
D03*
X118624D02*
D03*
Y-360561D02*
D03*
X115474D02*
D03*
X112324D02*
D03*
X109175D02*
D03*
X106025D02*
D03*
X102876D02*
D03*
X99726D02*
D03*
X96576D02*
D03*
D39*
X90200Y-592061D02*
D03*
X80200D02*
D03*
X85200D02*
D03*
X130200Y-527100D02*
D03*
X135200D02*
D03*
X120200D02*
D03*
X125200D02*
D03*
X110200D02*
D03*
X115200D02*
D03*
X100200D02*
D03*
X105200D02*
D03*
X90200D02*
D03*
X95200D02*
D03*
X85200D02*
D03*
X80200D02*
D03*
D40*
X37300Y-368700D02*
D03*
X29426D02*
D03*
X37474Y-359600D02*
D03*
X29600D02*
D03*
M02*
