%FSLAX25Y25*%
%MOIN*%
G70*
G01*
G75*
G04 Layer_Color=16711935*
%ADD10R,0.07874X0.07874*%
%ADD11R,0.02756X0.03347*%
%ADD12R,0.03347X0.02756*%
%ADD13R,0.03937X0.02362*%
%ADD14O,0.07480X0.02362*%
%ADD15O,0.03543X0.01969*%
%ADD16O,0.03543X0.01969*%
%ADD17R,0.03543X0.01969*%
%ADD18R,0.05118X0.03937*%
%ADD19C,0.04000*%
%ADD20C,0.01200*%
%ADD21C,0.01000*%
%ADD22C,0.01500*%
%ADD23C,0.03000*%
%ADD24C,0.02000*%
%ADD25C,0.05000*%
%ADD26C,0.00800*%
%ADD27C,0.00500*%
%ADD28C,0.07874*%
%ADD29C,0.03937*%
%ADD30C,0.05906*%
%ADD31C,0.06000*%
%ADD32C,0.04724*%
%ADD33R,0.05906X0.05906*%
%ADD34C,0.03000*%
%ADD35C,0.02000*%
%ADD36C,0.04000*%
%ADD37O,0.06693X0.02165*%
%ADD38O,0.02165X0.06693*%
%ADD39R,0.03000X0.06000*%
%ADD40R,0.03937X0.05118*%
%ADD41C,0.00984*%
%ADD42C,0.02362*%
%ADD43C,0.00787*%
%ADD44C,0.00500*%
%ADD45R,0.08674X0.08674*%
%ADD46R,0.03556X0.04147*%
%ADD47R,0.04147X0.03556*%
%ADD48R,0.04737X0.03162*%
%ADD49O,0.08280X0.03162*%
%ADD50O,0.04343X0.02769*%
%ADD51O,0.04343X0.02769*%
%ADD52R,0.04343X0.02769*%
%ADD53R,0.05918X0.04737*%
%ADD54C,0.08674*%
%ADD55C,0.04737*%
%ADD56C,0.06706*%
%ADD57C,0.06800*%
%ADD58C,0.05524*%
%ADD59R,0.06706X0.06706*%
%ADD60O,0.07493X0.02965*%
%ADD61O,0.02965X0.07493*%
%ADD62R,0.03800X0.06800*%
%ADD63R,0.04737X0.05918*%
D27*
X203740Y-590551D02*
G03*
X203740Y-590551I-6890J0D01*
G01*
X26575D02*
G03*
X26575Y-590551I-6890J0D01*
G01*
X203740Y-49213D02*
G03*
X203740Y-49213I-6890J0D01*
G01*
X26575D02*
G03*
X26575Y-49213I-6890J0D01*
G01*
X3937Y0D02*
G03*
X0Y-3937I0J-3937D01*
G01*
X216535D02*
G03*
X212598Y0I-3937J0D01*
G01*
X0Y-606299D02*
G03*
X3937Y-610236I3937J0D01*
G01*
X212598D02*
G03*
X216535Y-606299I0J3937D01*
G01*
X3937Y-610236D02*
X212564D01*
X216535Y-606265D02*
Y-4035D01*
X0Y-606700D02*
Y-3800D01*
X3800Y0D02*
X212500D01*
X212598Y-610236D02*
G03*
X216535Y-606299I0J3937D01*
G01*
X0D02*
G03*
X3937Y-610236I3937J0D01*
G01*
X216535Y-3937D02*
G03*
X212598Y0I-3937J0D01*
G01*
X3937D02*
G03*
X0Y-3937I0J-3937D01*
G01*
X203740Y-590551D02*
G03*
X203740Y-590551I-6890J0D01*
G01*
X26575D02*
G03*
X26575Y-590551I-6890J0D01*
G01*
X203740Y-49213D02*
G03*
X203740Y-49213I-6890J0D01*
G01*
X26575D02*
G03*
X26575Y-49213I-6890J0D01*
G01*
X3937Y0D02*
X212500D01*
X0Y-606299D02*
Y-3937D01*
X216535Y-606265D02*
Y-4035D01*
X3937Y-610236D02*
X212564D01*
M02*
