*
*
G04 PADS VX.2.3 Build Number: 9191294 generated Gerber (RS-274-X) file*
G04 PC Version=2.1*
*
%IN "LockBase_ZM_V1.3_201809"*%
*
%MOIN*%
*
%FSLAX35Y35*%
*
*
*
*
G04 PC Standard Apertures*
*
*
G04 Thermal Relief Aperture macro.*
%AMTER*
1,1,$1,0,0*
1,0,$1-$2,0,0*
21,0,$3,$4,0,0,45*
21,0,$3,$4,0,0,135*
%
*
*
G04 Annular Aperture macro.*
%AMANN*
1,1,$1,0,0*
1,0,$2,0,0*
%
*
*
G04 Odd Aperture macro.*
%AMODD*
1,1,$1,0,0*
1,0,$1-0.005,0,0*
%
*
*
G04 PC Custom Aperture Macros*
*
*
*
*
*
*
G04 PC Aperture Table*
*
%ADD010C,0.001*%
%ADD011ANN,0.07087X0.04724*%
%ADD021ANN,0.05906X0.03543*%
%ADD025ANN,0.15748X0.07874*%
%ADD029C,0.02*%
%ADD031C,0.04*%
%ADD032C,0.055*%
%ADD033C,0.01*%
*
*
*
*
G04 PC Circuitry*
G04 Layer Name LockBase_ZM_V1.3_201809 - circuitry*
%LPD*%
*
*
G04 PC Custom Flashes*
G04 Layer Name LockBase_ZM_V1.3_201809 - flashes*
%LPD*%
*
*
G04 PC Circuitry*
G04 Layer Name LockBase_ZM_V1.3_201809 - circuitry*
%LPD*%
*
G54D10*
G54D11*
G01X343348Y234894D03*
X323348D03*
X303348D03*
X283348D03*
X263348D03*
X243348D03*
G54D21*
X284810Y107688D03*
X294810D03*
X304810D03*
X314810D03*
X324810D03*
X334810D03*
X344810D03*
X201823Y242364D03*
X191823D03*
X181823D03*
X171823D03*
X144152Y242673D03*
X134152D03*
X203089Y214608D03*
X193089D03*
X183089D03*
X173089D03*
G54D25*
X365791Y109835D03*
Y247630D03*
X109886D03*
Y109835D03*
G54D29*
X164388Y117098D03*
X170553Y124247D03*
X273529Y123352D03*
X284738Y125634D03*
X290488Y121156D03*
X321807Y125340D03*
X335171Y116608D03*
X328551Y116545D03*
X344497Y118220D03*
X170553Y135188D03*
X185985Y129911D03*
X219080Y134699D03*
X239150Y133257D03*
X259707Y135526D03*
X294823Y128266D03*
X297498Y132598D03*
X340307Y134000D03*
X163265Y145318D03*
X216307Y141000D03*
X236635Y138870D03*
X232030Y139025D03*
X241822Y139996D03*
X239298Y136994D03*
X242193Y144369D03*
X257360Y141017D03*
X263526Y144758D03*
X278307Y143000D03*
X310369Y139337D03*
X359325Y139600D03*
X369325D03*
X129248Y148987D03*
X136117Y149577D03*
X216307Y149000D03*
X246882Y147066D03*
X250096Y154244D03*
X253834Y151947D03*
X250630Y147159D03*
X263199Y153576D03*
X338618Y154783D03*
X351649Y146010D03*
X150753Y164782D03*
X160993Y155962D03*
X214307Y159000D03*
X208529Y158419D03*
X226307Y163000D03*
X231307Y164000D03*
X241307Y160000D03*
X260363Y158065D03*
X266652Y161583D03*
X263028Y165373D03*
X286870Y162580D03*
X320711Y160980D03*
X324801Y161264D03*
X121077Y175386D03*
X194222Y168938D03*
X202033Y170134D03*
X201251Y166069D03*
X204744Y166756D03*
X233307Y167000D03*
X235307Y169000D03*
X324377Y171255D03*
X142483Y182604D03*
X170554Y178242D03*
X195015Y179292D03*
X202207Y176781D03*
X225394Y179315D03*
X222195Y176648D03*
X123621Y188468D03*
X127312Y190223D03*
X131045Y188278D03*
X177162Y186276D03*
X228115Y195495D03*
X230400Y193474D03*
X246588Y189206D03*
X246882Y186296D03*
X250121Y188388D03*
X247723Y195580D03*
X249740Y193526D03*
X177756Y201214D03*
X244148Y203919D03*
X249825Y197682D03*
X259529Y197661D03*
X324813Y201824D03*
X373391Y201676D03*
X322587Y211573D03*
X373391Y211676D03*
X331801Y224817D03*
X373391Y221676D03*
X331801Y234817D03*
X373391Y231676D03*
X325411Y242509D03*
X364747Y236706D03*
X326285Y255280D03*
X336285D03*
X346285D03*
X355756Y252072D03*
G54D31*
X187601Y152546D03*
X343665Y155516D03*
X343611Y150181D03*
X368249Y155798D03*
X142325Y161470D03*
X351921Y158010D03*
X365850Y162037D03*
X335697Y175708D03*
X340333Y171389D03*
X359189Y166332D03*
X365246Y173711D03*
X343704Y175919D03*
X359716Y183609D03*
X359241Y175974D03*
X368038Y182661D03*
X283832Y192047D03*
X323899Y189824D03*
X359189Y192037D03*
X366723Y191558D03*
G54D32*
X160040Y105800D03*
X268381Y107265D03*
X120536Y123421D03*
X137121Y122039D03*
X155087Y119620D03*
X197912Y125690D03*
X305005Y124886D03*
X314328Y119792D03*
X114548Y134016D03*
X137864Y137446D03*
X178215Y136391D03*
X110977Y147721D03*
X150900Y150341D03*
X179635Y148324D03*
X228837Y151238D03*
X176701Y165416D03*
X276794Y161152D03*
X312261Y163353D03*
X109250Y172483D03*
X130051Y171005D03*
X273333Y170148D03*
X110513Y195429D03*
X272873Y187078D03*
X205778Y205406D03*
X275061Y200898D03*
X109595Y206343D03*
X137093Y210437D03*
X150293Y214596D03*
X192649Y206672D03*
X331654Y208888D03*
X342601Y209510D03*
X211908Y225552D03*
X324205Y222370D03*
X342816Y222534D03*
X124107Y232371D03*
G54D33*
X347497Y118220D02*
G75*
G03X347497I-3000J0D01*
G01X319078Y119792D02*
G03X319078I-4750J0D01*
G01X324807Y125340D02*
G03X324807I-3000J0D01*
G01X309755Y124886D02*
G03X309755I-4750J0D01*
G01X293488Y121156D02*
G03X293488I-3000J0D01*
G01X287738Y125634D02*
G03X287738I-3000J0D01*
G01X273131Y107265D02*
G03X273131I-4750J0D01*
G01X276529Y123352D02*
G03X276529I-3000J0D01*
G01X281307Y143000D02*
G03X281307I-3000J0D01*
G01X266526Y144758D02*
G03X266526I-3000J0D01*
G01X277623Y187078D02*
G03X277623I-4750J0D01*
G01X247148Y203919D02*
G03X247148I-3000J0D01*
G01X233587Y151238D02*
G03X233587I-4750J0D01*
G01X248891Y234894D02*
G03X248891I-5543J0D01*
G01X222080Y134699D02*
G03X222080I-3000J0D01*
G01X210528Y205406D02*
G03X210528I-4750J0D01*
G01X216658Y225552D02*
G03X216658I-4750J0D01*
G01X205361Y214608D02*
G03X205361I-2272J0D01*
G01X197222Y168938D02*
G03X197222I-3000J0D01*
G01X198015Y179292D02*
G03X198015I-3000J0D01*
G01X188985Y129911D02*
G03X188985I-3000J0D01*
G01X184385Y148324D02*
G03X184385I-4750J0D01*
G01X181451Y165416D02*
G03X181451I-4750J0D01*
G01X180162Y186276D02*
G03X180162I-3000J0D01*
G01X180756Y201214D02*
G03X180756I-3000J0D01*
G01X173554Y178242D02*
G03X173554I-3000J0D01*
G01X167388Y117098D02*
G03X167388I-3000J0D01*
G01X159837Y119620D02*
G03X159837I-4750J0D01*
G01X163993Y155962D02*
G03X163993I-3000J0D01*
G01X155650Y150341D02*
G03X155650I-4750J0D01*
G01X153753Y164782D02*
G03X153753I-3000J0D01*
G01X155043Y214596D02*
G03X155043I-4750J0D01*
G01X141871Y122039D02*
G03X141871I-4750J0D01*
G01X142614Y137446D02*
G03X142614I-4750J0D01*
G01X145483Y182604D02*
G03X145483I-3000J0D01*
G01X132248Y148987D02*
G03X132248I-3000J0D01*
G01X134801Y171005D02*
G03X134801I-4750J0D01*
G01X125286Y123421D02*
G03X125286I-4750J0D01*
G01X119298Y134016D02*
G03X119298I-4750J0D01*
G01X124077Y175386D02*
G03X124077I-3000J0D01*
G01X141843Y210437D02*
G03X141843I-4750J0D01*
G01X149104Y242673D02*
G03X149104I-4952J0D01*
G01X136423D02*
G03X136423I-2271J0D01*
G01X128857Y232371D02*
G03X128857I-4750J0D01*
G01X115727Y147721D02*
G03X115727I-4750J0D01*
G01X114000Y172483D02*
G03X114000I-4750J0D01*
G01X115263Y195429D02*
G03X115263I-4750J0D01*
G01X114345Y206343D02*
G03X114345I-4750J0D01*
G01X354649Y146010D02*
G03X354649I-3000J0D01*
G01X355921Y158010D02*
G03X355921I-4000J0D01*
G01X341618Y154783D02*
G03X341618I-3000J0D01*
G01X347351Y209510D02*
G03X347351I-4750J0D01*
G01X347566Y222534D02*
G03X347566I-4750J0D01*
G01X348891Y234894D02*
G03X348891I-5543J0D01*
G01X327377Y171255D02*
G03X327377I-3000J0D01*
G01X327899Y189824D02*
G03X327899I-4000J0D01*
G01X327813Y201824D02*
G03X327813I-3000J0D01*
G01X336404Y208888D02*
G03X336404I-4750J0D01*
G01X325587Y211573D02*
G03X325587I-3000J0D01*
G01X308891Y234894D02*
G03X308891I-5543J0D01*
G01X288891D02*
G03X288891I-5543J0D01*
G01X266210D02*
G03X266210I-2862J0D01*
G01X374133Y134029D02*
G03X373633Y134529I-500J-0D01*
G01X343807*
G03X343307Y134029I-0J-500*
G01Y134025*
Y134000D02*
G03Y134025I-3000J-0D01*
G01Y134000D02*
X343307D01*
X337307D02*
G03X343307I3000J0D01*
G01X337307D02*
X337307D01*
Y134025D02*
G03Y134000I3000J-25D01*
G01Y134025D02*
Y134029D01*
G03X336807Y134529I-500J-0*
G01X311831*
Y135886*
G03X311792Y136079I-500J-0*
G01X311766Y136143D02*
G03X311792Y136079I2332J900D01*
G01X311766Y136143D02*
G03X311167Y136445I-466J-180D01*
G01X310994Y142271D02*
G03X311167Y136445I-625J-2934D01*
G01X310994Y142271D02*
G03X311598Y142760I104J489D01*
G01Y158233*
G03X311209Y158720I-500J-0*
G01Y167985D02*
G03Y158720I1052J-4632D01*
G01Y167985D02*
G03X311598Y168472I-111J487D01*
G01Y196466*
G03X311098Y196966I-500J-0*
G01X277875*
G03X277607Y196888I-0J-500*
G01X272515D02*
G03X277607I2546J4010D01*
G01X272515D02*
G03X272247Y196966I-268J-422D01*
G01X262818*
G03X262348Y196637I0J-500*
G01X256620Y196926D02*
G03X262348Y196637I2909J735D01*
G01X256620Y196926D02*
G03X256136Y197303I-484J-123D01*
G01X254718*
Y255880*
G03X254218Y256380I-500J0*
G01X116174*
G03X115871Y255483I0J-500*
G01X101999Y241688D02*
G03X115871Y255483I7887J5942D01*
G01X101999Y241688D02*
G03X101100Y241387I-399J-301D01*
G01Y116077*
G03X101999Y115776I500J0*
G01X116158Y102209D02*
G03X101999Y115776I-6272J7626D01*
G01X116158Y102209D02*
G03X115976Y101823I318J-386D01*
X116476Y101323I500J-0*
G01X156612*
G03X156939Y102202I0J500*
G01X163141D02*
G03X156939I-3101J3598D01*
G01X163141D02*
G03X163467Y101323I326J-379D01*
G01X171398*
G03X171898Y101823I-0J500*
G01Y120850*
G03X171277Y121335I-500J0*
G01X173397Y125201D02*
G03X171277Y121335I-2844J-954D01*
G01X173397Y125201D02*
G03X173871Y124860I474J159D01*
G01X192673*
G03X193173Y125360I-0J500*
G01X193173*
G03X193172Y125391I-500J-0*
G01X193162Y125690D02*
G03X193172Y125391I4750J-0D01*
G01X193162Y125690D02*
X193162D01*
X202662D02*
G03X193162I-4750J-0D01*
G01X202662D02*
X202662D01*
X202653Y125391D02*
G03X202662Y125690I-4741J299D01*
G01X202653Y125391D02*
G03X202652Y125360I499J-31D01*
G01X202652*
G03X203152Y124860I500J-0*
G01X235252*
Y101823*
G03X235752Y101323I500J-0*
G01X359201*
G03X359701Y101823I-0J500*
X359518Y102209I-500J-0*
G01X373255Y116299D02*
G03X359518Y102209I-7464J-6464D01*
G01X373255Y116299D02*
G03X374133Y116627I378J328D01*
G01Y134029*
X374491Y241275D02*
G03X373595Y241581I-500J-0D01*
G01X368036Y238014D02*
G03X373595Y241581I-2245J9616D01*
G01X368036Y238014D02*
G03X367663Y237410I113J-487D01*
G01X367747Y236706D02*
G03X367663Y237410I-3000J-0D01*
G01X362017Y237949D02*
G03X367747Y236706I2730J-1243D01*
G01X362017Y237949D02*
G03X361766Y238613I-455J208D01*
G01X355917Y247630D02*
G03X361766Y238613I9874J-0D01*
G01X355917Y247630D02*
X355917D01*
X355959Y248538D02*
G03X355917Y247630I9832J-908D01*
G01X355959Y248538D02*
G03X355503Y249083I-498J46D01*
G01X357799Y254269D02*
G03X355503Y249083I-2043J-2197D01*
G01X357799Y254269D02*
G03X358508Y254298I340J366D01*
G01X359805Y255483D02*
G03X358508Y254297I5986J-7853D01*
G01X359805Y255483D02*
G03X359502Y256380I-303J397D01*
G01X349733*
G03X349233Y255880I0J-500*
X349241Y255795I500J0*
G01X343329D02*
G03X349241I2956J-515D01*
G01X343329D02*
G03X343337Y255880I-492J85D01*
X342837Y256380I-500J0*
G01X339733*
G03X339233Y255880I0J-500*
X339241Y255795I500J0*
G01X333329D02*
G03X339241I2956J-515D01*
G01X333329D02*
G03X333337Y255880I-492J85D01*
X332837Y256380I-500J0*
G01X329733*
G03X329233Y255880I0J-500*
X329241Y255795I500J0*
G01X323329D02*
G03X329241I2956J-515D01*
G01X323329D02*
G03X323337Y255880I-492J85D01*
X322837Y256380I-500J0*
G01X258028*
G03X257528Y255880I-0J-500*
G01Y200823*
G03X258242Y200371I500J0*
G01X261497Y199926D02*
G03X258242Y200371I-1968J-2265D01*
G01X261497Y199926D02*
G03X261825Y199803I328J377D01*
G01X269845*
G03X270345Y200303I-0J500*
X270341Y200360I-501J0*
G01X270311Y200898D02*
G03X270341Y200360I4750J-0D01*
G01X270311Y200898D02*
X270311D01*
X279811D02*
G03X270311I-4750J-0D01*
G01X279811D02*
X279811D01*
X279780Y200360D02*
G03X279811Y200898I-4719J538D01*
G01X279780Y200360D02*
G03X279777Y200303I497J-57D01*
X280277Y199803I500J0*
G01X311831*
X312982Y199522D02*
G03X311831Y199803I-1151J-2219D01*
G01X312982Y199522D02*
G03X313213Y199466I231J444D01*
G01X314098*
Y198461*
G03X314137Y198268I500J-0*
G01X314331Y197303D02*
G03X314137Y198268I-2500J0D01*
G01X314331Y197303D02*
Y167930D01*
G03X314586Y167494I500J0*
G01Y159211D02*
G03Y167494I-2325J4142D01*
G01Y159211D02*
G03X314331Y158775I245J-436D01*
G01Y137543*
G03X314831Y137043I500J0*
G01X356493*
G03X356897Y137837I-0J500*
G01X356325Y139600D02*
G03X356897Y137837I3000J0D01*
G01X362325Y139600D02*
G03X356325I-3000J0D01*
G01X361752Y137837D02*
G03X362325Y139600I-2427J1763D01*
G01X361752Y137837D02*
G03X362157Y137043I405J-294D01*
G01X366493*
G03X366897Y137837I-0J500*
G01X366325Y139600D02*
G03X366897Y137837I3000J0D01*
G01X372325Y139600D02*
G03X366325I-3000J0D01*
G01X371752Y137837D02*
G03X372325Y139600I-2427J1763D01*
G01X371752Y137837D02*
G03X372157Y137043I405J-294D01*
G01X373991*
G03X374491Y137543I-0J500*
G01Y198228*
G03X373905Y198721I-500J0*
G01Y204632D02*
G03Y198721I-514J-2956D01*
G01Y204632D02*
G03X374491Y205124I86J492D01*
G01Y208228*
G03X373905Y208721I-500J0*
G01Y214632D02*
G03Y208721I-514J-2956D01*
G01Y214632D02*
G03X374491Y215124I86J492D01*
G01Y218228*
G03X373905Y218721I-500J0*
G01Y224632D02*
G03Y218721I-514J-2956D01*
G01Y224632D02*
G03X374491Y225124I86J492D01*
G01Y228228*
G03X373905Y228721I-500J0*
G01Y234632D02*
G03Y228721I-514J-2956D01*
G01Y234632D02*
G03X374491Y235124I86J492D01*
G01Y241275*
X340269Y105712D02*
G03X339352I-459J-199D01*
G01X330269D02*
G03X339352I4541J1976D01*
G01X330269D02*
G03X329352I-459J-199D01*
G01X320269D02*
G03X329352I4541J1976D01*
G01X320269D02*
G03X319352I-459J-199D01*
G01X310269D02*
G03X319352I4541J1976D01*
G01X310269D02*
G03X309352I-459J-199D01*
G01X300269D02*
G03X309352I4541J1976D01*
G01X300269D02*
G03X299352I-459J-199D01*
G01X290269D02*
G03X299352I4541J1976D01*
G01X290269D02*
G03X289352I-459J-199D01*
G01Y109664D02*
G03Y105712I-4542J-1976D01*
G01Y109664D02*
G03X290269I458J199D01*
G01X299352D02*
G03X290269I-4542J-1976D01*
G01X299352D02*
G03X300269I458J199D01*
G01X309352D02*
G03X300269I-4542J-1976D01*
G01X309352D02*
G03X310269I458J199D01*
G01X319352D02*
G03X310269I-4542J-1976D01*
G01X319352D02*
G03X320269I458J199D01*
G01X329352D02*
G03X320269I-4542J-1976D01*
G01X329352D02*
G03X330269I458J199D01*
G01X334711Y112640D02*
G03X330269Y109664I99J-4952D01*
G01X334711Y112640D02*
G03X335015Y112751I-10J500D01*
X335309Y112616I344J362*
G01X339352Y109664D02*
G03X335309Y112616I-4542J-1976D01*
G01X339352Y109664D02*
G03X340269I458J199D01*
G01Y105712D02*
G03Y109664I4541J1976D01*
G01X347497Y118220D02*
G03X347497I-3000J0D01*
G01X335332Y113612D02*
G03X335045Y113502I27J-499D01*
X334768Y113635I-344J-362*
G01X332343Y115606D02*
G03X334768Y113635I2828J1002D01*
G01X332343Y115606D02*
G03X331398Y115597I-471J-167D01*
G01X331379Y117547D02*
G03X331398Y115597I-2828J-1002D01*
G01X331379Y117547D02*
G03X332325Y117556I471J167D01*
G01X335332Y113612D02*
G03X332325Y117556I-161J2996D01*
G01X319078Y119792D02*
G03X319078I-4750J0D01*
G01X324807Y125340D02*
G03X324807I-3000J0D01*
G01X309755Y124886D02*
G03X309755I-4750J0D01*
G01X293488Y121156D02*
G03X293488I-3000J0D01*
G01X298104Y129660D02*
G03X297704Y129170I100J-490D01*
G01X297704*
G03X297721Y129041I500J-0*
G01X294217Y131204D02*
G03X297721Y129041I606J-2938D01*
G01X294217Y131204D02*
G03X294616Y131694I-101J490D01*
G01X294616*
G03X294599Y131823I-500J-0*
G01X298104Y129660D02*
G03X294599Y131823I-606J2938D01*
G01X287738Y125634D02*
G03X287738I-3000J0D01*
G01X273131Y107265D02*
G03X273131I-4750J0D01*
G01X276529Y123352D02*
G03X276529I-3000J0D01*
G01X281307Y143000D02*
G03X281307I-3000J0D01*
G01X273469Y164545D02*
G03X273140Y165402I-350J357D01*
G01X276658Y166755D02*
G03X273140Y165402I-3325J3393D01*
G01X276658Y166755D02*
G03X276988Y165899I350J-357D01*
G01X273469Y164545D02*
G03X276988Y165898I3325J-3393D01*
G01X257262Y137264D02*
G03X256927Y138048I-408J290D01*
G01X259805Y139279D02*
G03X256927Y138048I-2445J1738D01*
G01X259805Y139279D02*
G03X260140Y138495I408J-289D01*
G01X257262Y137264D02*
G03X260140Y138495I2445J-1738D01*
G01X266526Y144758D02*
G03X266526I-3000J0D01*
G01X260331Y154456D02*
G03X260199Y153576I2868J-880D01*
G01X260331Y154456D02*
G03X259926Y155097I-478J147D01*
G01X263363Y158065D02*
G03X259926Y155097I-3000J0D01*
G01X263232Y157185D02*
G03X263363Y158065I-2869J880D01*
G01X263232Y157185D02*
G03X263637Y156544I478J-146D01*
G01X260199Y153576D02*
G03X263637Y156544I3000J0D01*
G01X263663Y161834D02*
G03X263652Y161583I2989J-251D01*
G01X263663Y161834D02*
G03X263664Y161875I-499J41D01*
G01X263664*
G03X263145Y162375I-500J0*
G01X260028Y165373D02*
G03X263145Y162375I3000J-0D01*
G01X266028Y165373D02*
G03X260028I-3000J-0D01*
G01X266017Y165122D02*
G03X266028Y165373I-2989J251D01*
G01X266017Y165122D02*
G03X266015Y165080I498J-42D01*
G01X266015*
G03X266535Y164580I500J-0*
G01X263652Y161583D02*
G03X266535Y164580I3000J-0D01*
G01X277623Y187078D02*
G03X277623I-4750J0D01*
G01X245822Y144260D02*
G03X245152Y143875I-177J-468D01*
G01X244363Y142297D02*
G03X245152Y143875I-2170J2072D01*
G01X244363Y142297D02*
G03X244310Y141672I362J-345D01*
G01X242642Y137110D02*
G03X244310Y141672I-820J2886D01*
G01X242642Y137110D02*
G03X242282Y136681I137J-481D01*
G01X236627Y135627D02*
G03X242282Y136681I2671J1367D01*
G01X236627Y135627D02*
G03X236247Y135895I-445J-227D01*
G01X234585Y136679D02*
G03X236247Y135895I2050J2191D01*
G01X234585Y136679D02*
G03X233928Y136702I-341J-365D01*
G01X234080Y141216D02*
G03X233928Y136702I-2050J-2191D01*
G01X234080Y141216D02*
G03X234737Y141194I341J365D01*
G01X238443Y141264D02*
G03X234737Y141194I-1808J-2394D01*
G01X238443Y141264D02*
G03X239184Y141425I302J399D01*
G01X239652Y142067D02*
G03X239184Y141425I2170J-2071D01*
G01X239652Y142067D02*
G03X239705Y142692I-361J345D01*
G01X243253Y147175D02*
G03X239705Y142692I-1060J-2806D01*
G01X243253Y147175D02*
G03X243923Y147560I177J468D01*
G01X245822Y144260D02*
G03X243923Y147560I1060J2806D01*
G01X251008Y150940D02*
G03X250474Y151268I-471J-168D01*
G01X252922Y155251D02*
G03X250474Y151268I-2826J-1007D01*
G01X252922Y155251D02*
G03X253456Y154923I471J168D01*
G01X251008Y150940D02*
G03X253456Y154923I2826J1007D01*
G01X250092Y185389D02*
G03X249629Y185090I-5J-500D01*
G01X244045Y187269D02*
G03X249629Y185090I2837J-973D01*
G01X244045Y187269D02*
G03X244002Y187684I-473J162D01*
G01X245952Y192138D02*
G03X244002Y187684I636J-2932D01*
G01X245952Y192138D02*
G03X246114Y193048I-107J488D01*
G01X246703Y198402D02*
G03X246114Y193048I1020J-2822D01*
G01X246703Y198402D02*
G03X247004Y198702I-170J470D01*
G01X252202Y195852D02*
G03X247004Y198702I-2377J1830D01*
G01X252202Y195852D02*
G03X252190Y195258I396J-305D01*
G01X252740Y193526D02*
G03X252190Y195258I-3000J0D01*
G01X251929Y191474D02*
G03X252740Y193526I-2189J2052D01*
G01X251929Y191474D02*
G03X251983Y190740I365J-342D01*
G01X250092Y185389D02*
G03X251983Y190740I29J2999D01*
G01X247148Y203919D02*
G03X247148I-3000J0D01*
G01X233587Y151238D02*
G03X233587I-4750J0D01*
G01X238307Y169000D02*
X238307D01*
X236390Y166202D02*
G03X238307Y169000I-1083J2798D01*
G01X236390Y166202D02*
G03X236105Y165917I181J-466D01*
G01X234590Y164288D02*
G03X236105Y165917I-1283J2712D01*
G01X234590Y164288D02*
G03X234304Y163859I213J-452D01*
G01X229567Y161556D02*
G03X234304Y163859I1740J2444D01*
G01X229567Y161556D02*
G03X228853Y161413I-290J-407D01*
G01X228047Y165444D02*
G03X228853Y161413I-1740J-2444D01*
G01X228047Y165444D02*
G03X228761Y165587I290J407D01*
G01X230025Y166712D02*
G03X228761Y165587I1282J-2712D01*
G01X230025Y166712D02*
G03X230310Y167141I-214J452D01*
G01X232224Y169798D02*
G03X230310Y167141I1083J-2798D01*
G01X232224Y169798D02*
G03X232509Y170083I-181J466D01*
G01X238307Y169000D02*
G03X232509Y170083I-3000J0D01*
G01X248891Y234894D02*
G03X248891I-5543J0D01*
G01X222080Y134699D02*
G03X222080I-3000J0D01*
G01X225567Y176320D02*
G03X225110Y175939I28J-499D01*
G01X219195Y176648D02*
G03X225109Y175939I3000J0D01*
G01X222022Y179643D02*
G03X219195Y176648I173J-2995D01*
G01X222022Y179643D02*
G03X222479Y180024I-29J499D01*
G01X225567Y176320D02*
G03X222479Y180024I-173J2995D01*
G01X227632Y192317D02*
G03X227305Y192606I-461J-192D01*
G01X230883Y196652D02*
G03X227305Y192606I-2768J-1157D01*
G01X230883Y196652D02*
G03X231209Y196363I461J192D01*
G01X227632Y192317D02*
G03X231209Y196363I2768J1157D01*
G01X211998Y157084D02*
G03X211173Y157001I-384J-319D01*
G01X210838Y160334D02*
G03X211173Y157001I-2309J-1915D01*
G01X210838Y160334D02*
G03X211663Y160417I384J320D01*
G01X211998Y157084D02*
G03X211663Y160417I2309J1916D01*
G01X203745Y163927D02*
G03X203246Y163829I-166J-471D01*
G01X199211Y168269D02*
G03X203246Y163829I2040J-2200D01*
G01X199211Y168269D02*
G03X199322Y168849I-340J366D01*
G01X201170Y173007D02*
G03X199322Y168849I863J-2873D01*
G01X201170Y173007D02*
G03X201194Y173957I-144J479D01*
G01X203071Y173908D02*
G03X201194Y173957I-864J2873D01*
G01X203071Y173908D02*
G03X203046Y172958I144J-479D01*
G01X205033Y170161D02*
G03X203046Y172958I-3000J-27D01*
G01X205033Y170161D02*
G03X205420Y169679I500J5D01*
G01X203745Y163927D02*
G03X205420Y169679I999J2829D01*
G01X210528Y205406D02*
G03X210528I-4750J0D01*
G01X216658Y225552D02*
G03X216658I-4750J0D01*
G01X205361Y214608D02*
G03X205361I-2272J0D01*
G01X197222Y168938D02*
G03X197222I-3000J0D01*
G01X198015Y179292D02*
G03X198015I-3000J0D01*
G01X188985Y129911D02*
G03X188985I-3000J0D01*
G01X196132Y210700D02*
G03X196078Y209959I307J-395D01*
G01X189604Y210319D02*
G03X196078Y209959I3045J-3647D01*
G01X189604Y210319D02*
G03X189633Y211060I-320J383D01*
G01X188548Y212632D02*
G03X189633Y211060I4541J1976D01*
G01X188548Y212632D02*
G03X187631I-459J-200D01*
G01X178548D02*
G03X187631I4541J1976D01*
G01X178548D02*
G03X177631I-459J-200D01*
G01Y216584D02*
G03Y212632I-4542J-1976D01*
G01Y216584D02*
G03X178548I458J199D01*
G01X187631D02*
G03X178548I-4542J-1976D01*
G01X187631D02*
G03X188548I458J199D01*
G01X196132Y210700D02*
G03X188548Y216584I-3043J3908D01*
G01X174143Y133945D02*
G03X173263Y133902I-428J-258D01*
G01X172738Y137243D02*
G03X173263Y133902I-2185J-2055D01*
G01X172738Y137243D02*
G03X173589Y137471I365J342D01*
G01X174143Y133945D02*
G03X173589Y137471I4072J2446D01*
G01X184385Y148324D02*
G03X184385I-4750J0D01*
G01X181451Y165416D02*
G03X181451I-4750J0D01*
G01X180162Y186276D02*
G03X180162I-3000J0D01*
G01X180756Y201214D02*
G03X180756I-3000J0D01*
G01X173554Y178242D02*
G03X173554I-3000J0D01*
G01X167388Y117098D02*
G03X167388I-3000J0D01*
G01X197281Y240388D02*
G03X196364I-458J-200D01*
G01X187281D02*
G03X196364I4542J1976D01*
G01X187281D02*
G03X186364I-458J-200D01*
G01X177281D02*
G03X186364I4542J1976D01*
G01X177281D02*
G03X176364I-458J-200D01*
G01Y244340D02*
G03Y240388I-4541J-1976D01*
G01Y244340D02*
G03X177281I459J199D01*
G01X186364D02*
G03X177281I-4541J-1976D01*
G01X186364D02*
G03X187281I459J199D01*
G01X196364D02*
G03X187281I-4541J-1976D01*
G01X196364D02*
G03X197281I459J199D01*
G01Y240388D02*
G03Y244340I4542J1976D01*
G01X159837Y119620D02*
G03X159837I-4750J0D01*
G01X163993Y155962D02*
G03X163993I-3000J0D01*
G01X155650Y150341D02*
G03X155650I-4750J0D01*
G01X153753Y164782D02*
G03X153753I-3000J0D01*
G01X155043Y214596D02*
G03X155043I-4750J0D01*
G01X141871Y122039D02*
G03X141871I-4750J0D01*
G01X142614Y137446D02*
G03X142614I-4750J0D01*
G01X145483Y182604D02*
G03X145483I-3000J0D01*
G01X132248Y148987D02*
G03X132248I-3000J0D01*
G01X134801Y171005D02*
G03X134801I-4750J0D01*
G01X125286Y123421D02*
G03X125286I-4750J0D01*
G01X119298Y134016D02*
G03X119298I-4750J0D01*
G01X124077Y175386D02*
G03X124077I-3000J0D01*
G01X128337Y186986D02*
G03X127804Y187264I-451J-215D01*
G01X126776Y187272D02*
G03X127804Y187264I536J2951D01*
G01X126776Y187272D02*
G03X126248Y187021I-90J-492D01*
G01X124157Y191420D02*
G03X126248Y187021I-536J-2952D01*
G01X124157Y191420D02*
G03X124685Y191671I90J492D01*
G01X130020Y191516D02*
G03X124685Y191671I-2708J-1293D01*
G01X130020Y191516D02*
G03X130553Y191238I451J215D01*
G01X128337Y186986D02*
G03X130553Y191238I2708J1292D01*
G01X141843Y210437D02*
G03X141843I-4750J0D01*
G01X149104Y242673D02*
G03X149104I-4952J0D01*
G01X136423D02*
G03X136423I-2271J0D01*
G01X128857Y232371D02*
G03X128857I-4750J0D01*
G01X115727Y147721D02*
G03X115727I-4750J0D01*
G01X114000Y172483D02*
G03X114000I-4750J0D01*
G01X115263Y195429D02*
G03X115263I-4750J0D01*
G01X114345Y206343D02*
G03X114345I-4750J0D01*
G01X364683Y157610D02*
G03X364737Y157836I-446J226D01*
X364416Y158303I-500J0*
G01X361850Y162037D02*
G03X364416Y158303I4000J0D01*
G01X361863Y162353D02*
G03X361850Y162037I3987J-316D01*
G01X361863Y162353D02*
G03X361864Y162393I-499J40D01*
X361122Y162830I-500J-0*
G01X363189Y166332D02*
G03X361122Y162830I-4000J0D01*
G01X363177Y166016D02*
G03X363189Y166332I-3988J316D01*
G01X363177Y166016D02*
G03X363175Y165976I498J-40D01*
X363917Y165539I500J0*
G01X369416Y160225D02*
G03X363917Y165539I-3566J1812D01*
G01X369416Y160225D02*
G03X369362Y159999I446J-226D01*
X369683Y159532I500J-0*
G01X364683Y157610D02*
G03X369683Y159532I3566J-1812D01*
G01X354649Y146010D02*
G03X354649I-3000J0D01*
G01X355921Y158010D02*
G03X355921I-4000J0D01*
G01X364174Y181628D02*
G03X363249Y181733I-483J-129D01*
G01X361608Y180085D02*
G03X363249Y181733I-1892J3524D01*
G01X361608Y180085D02*
G03X361345Y179644I237J-441D01*
X361556Y179236I500J0*
G01X362899Y177593D02*
G03X361556Y179236I-3658J-1619D01*
G01X362899Y177593D02*
G03X363566Y177341I457J202D01*
G01X361588Y172092D02*
G03X363566Y177341I3658J1619D01*
G01X361588Y172092D02*
G03X360921Y172343I-457J-202D01*
G01X357349Y179498D02*
G03X360921Y172343I1892J-3524D01*
G01X357349Y179498D02*
G03X357613Y179938I-236J440D01*
X357402Y180346I-500J0*
G01X358101Y187268D02*
G03X357402Y180346I1615J-3659D01*
G01X358101Y187268D02*
G03X358042Y188205I-202J458D01*
G01X355189Y192037D02*
G03X358042Y188205I4000J0D01*
G01X362676Y193998D02*
G03X355189Y192037I-3487J-1961D01*
G01X362676Y193998D02*
G03X363513Y193944I436J245D01*
G01X367457Y187626D02*
G03X363513Y193944I-734J3932D01*
G01X367457Y187626D02*
G03X367312Y187575I91J-492D01*
X367158Y187582I-99J-490*
G01X363236Y189597D02*
G03X367158Y187582I3487J1961D01*
G01X363236Y189597D02*
G03X362399Y189651I-435J-245D01*
G01X360804Y188378D02*
G03X362399Y189651I-1615J3659D01*
G01X360804Y188378D02*
G03X360863Y187441I202J-458D01*
G01X363580Y184642D02*
G03X360863Y187441I-3864J-1033D01*
G01X363580Y184642D02*
G03X364505Y184537I483J129D01*
G01X367305Y186593D02*
G03X364505Y184537I733J-3932D01*
G01X367305Y186593D02*
G03X367449Y186644I-92J492D01*
X367603Y186637I99J490*
G01X364174Y181628D02*
G03X367603Y186637I3864J1033D01*
G01X341618Y154783D02*
G03X341618I-3000J0D01*
G01X344705Y172046D02*
G03X344330Y171543I125J-484D01*
G01X344333Y171389D02*
G03X344330Y171543I-4000J0D01*
G01X344333Y171389D02*
X344333D01*
X336336Y171230D02*
G03X344333Y171389I3997J159D01*
G01X336336Y171230D02*
G03X335821Y171710I-499J-20D01*
G01X331697Y175708D02*
G03X335821Y171710I4000J0D01*
G01X339208Y177625D02*
G03X331697Y175708I-3511J-1917D01*
G01X339208Y177625D02*
G03X340097Y177649I439J240D01*
G01X344705Y172046D02*
G03X340097Y177649I-1001J3873D01*
G01X347351Y209510D02*
G03X347351I-4750J0D01*
G01X347566Y222534D02*
G03X347566I-4750J0D01*
G01X348891Y234894D02*
G03X348891I-5543J0D01*
G01X323217Y158717D02*
G03X322632Y158676I-265J-425D01*
G01X322296Y163528D02*
G03X322632Y158676I-1585J-2548D01*
G01X322296Y163528D02*
G03X322880Y163568I264J424D01*
G01X323217Y158717D02*
G03X322880Y163568I1584J2547D01*
G01X327377Y171255D02*
G03X327377I-3000J0D01*
G01X327899Y189824D02*
G03X327899I-4000J0D01*
G01X327813Y201824D02*
G03X327813I-3000J0D01*
G01X336404Y208888D02*
G03X336404I-4750J0D01*
G01X325587Y211573D02*
G03X325587I-3000J0D01*
G01X329788Y222592D02*
G03X328953Y222235I-335J-371D01*
G01X327982Y225251D02*
G03X328953Y222235I-3777J-2881D01*
G01X327982Y225251D02*
G03X328868Y225449I397J303D01*
G01X329788Y222592D02*
G03X328868Y225449I2013J2225D01*
G01X329392Y233029D02*
G03X328524Y232910I-401J-298D01*
G01X322414Y240358D02*
G03X328524Y232910I934J-5464D01*
G01X322414Y240358D02*
G03X322829Y240851I-85J493D01*
X322770Y241088I-500J-0*
G01X328411Y242509D02*
G03X322770Y241088I-3000J0D01*
G01X326974Y239948D02*
G03X328411Y242509I-1563J2561D01*
G01X326974Y239948D02*
G03X326913Y239139I260J-426D01*
G01X328559Y236784D02*
G03X326913Y239139I-5211J-1890D01*
G01X328559Y236784D02*
G03X329425Y236649I470J170D01*
G01X329392Y233029D02*
G03X329425Y236649I2409J1788D01*
G01X308891Y234894D02*
G03X308891I-5543J0D01*
G01X288891D02*
G03X288891I-5543J0D01*
G01X266210D02*
G03X266210I-2862J0D01*
G01X343294Y133722D02*
X374133D01*
X343066Y132822D02*
X374133D01*
X342470Y131922D02*
X374133D01*
X340666Y131022D02*
X374133D01*
X299191Y130122D02*
X374133D01*
X306945Y129222D02*
X374133D01*
X322140Y128322D02*
X374133D01*
X323968Y127422D02*
X374133D01*
X324565Y126522D02*
X374133D01*
X324794Y125622D02*
X374133D01*
X324743Y124722D02*
X374133D01*
X324394Y123822D02*
X374133D01*
X323582Y122922D02*
X374133D01*
X318522Y122022D02*
X374133D01*
X345260Y121122D02*
X374133D01*
X346732Y120222D02*
X374133D01*
X368528Y119322D02*
X374133D01*
X370665Y118422D02*
X374133D01*
X371988Y117522D02*
X374133D01*
X372963Y116622D02*
X374133D01*
X347288Y119322D02*
X363054D01*
X347490Y118422D02*
X360917D01*
X347415Y117522D02*
X359594D01*
X235252Y102222D02*
X359503D01*
X347036Y116622D02*
X358619D01*
X346728Y103122D02*
X358550D01*
X346158Y115722D02*
X357864D01*
X348140Y104022D02*
X357809D01*
X337581Y114822D02*
X357269D01*
X348918Y104922D02*
X357226D01*
X336506Y113922D02*
X356803D01*
X349398Y105822D02*
X356769D01*
X235252Y113022D02*
X356445D01*
X349668Y106722D02*
X356421D01*
X347018Y112122D02*
X356185D01*
X349762Y107622D02*
X356168D01*
X348281Y111222D02*
X356015D01*
X349692Y108522D02*
X356005D01*
X349005Y110322D02*
X355929D01*
X349450Y109422D02*
X355926D01*
X318888Y121122D02*
X343735D01*
X336728Y103122D02*
X342892D01*
X338037Y115722D02*
X342836D01*
X337018Y112122D02*
X342602D01*
X319059Y120222D02*
X342262D01*
X338171Y116622D02*
X341958D01*
X336451Y119322D02*
X341707D01*
X338029Y117522D02*
X341580D01*
X337561Y118422D02*
X341504D01*
X338140Y104022D02*
X341480D01*
X338281Y111222D02*
X341340D01*
X338918Y104922D02*
X340702D01*
X339005Y110322D02*
X340616D01*
X339417Y105822D02*
X340203D01*
X339576Y109422D02*
X340044D01*
X300050Y131022D02*
X339948D01*
X300420Y131922D02*
X338144D01*
X300489Y132822D02*
X337548D01*
X300279Y133722D02*
X337320D01*
X329687Y119322D02*
X333892D01*
X330006Y113922D02*
X333836D01*
X326728Y103122D02*
X332892D01*
X330892Y118422D02*
X332781D01*
X331007Y114822D02*
X332761D01*
X327018Y112122D02*
X332602D01*
X331389Y117522D02*
X332312D01*
X331459Y115722D02*
X332285D01*
X328140Y104022D02*
X331480D01*
X328281Y111222D02*
X331340D01*
X328918Y104922D02*
X330702D01*
X329005Y110322D02*
X330616D01*
X329417Y105822D02*
X330203D01*
X329576Y109422D02*
X330044D01*
X319055Y119322D02*
X327415D01*
X235252Y113922D02*
X327096D01*
X318876Y118422D02*
X326210D01*
X235252Y114822D02*
X326096D01*
X318501Y117522D02*
X325714D01*
X316777Y115722D02*
X325666D01*
X317866Y116622D02*
X325552D01*
X316728Y103122D02*
X322892D01*
X317018Y112122D02*
X322602D01*
X318140Y104022D02*
X321480D01*
X308285Y128322D02*
X321474D01*
X318281Y111222D02*
X321340D01*
X318918Y104922D02*
X320702D01*
X319005Y110322D02*
X320616D01*
X319417Y105822D02*
X320203D01*
X319576Y109422D02*
X320044D01*
X317901Y122922D02*
X320032D01*
X309021Y127422D02*
X319647D01*
X316843Y123822D02*
X319220D01*
X309464Y126522D02*
X319050D01*
X309752Y124722D02*
X318872D01*
X309698Y125622D02*
X318820D01*
X306728Y103122D02*
X312892D01*
X307018Y112122D02*
X312602D01*
X235252Y115722D02*
X311880D01*
X298170Y135522D02*
X311831D01*
X299712Y134622D02*
X311831D01*
X309634Y123822D02*
X311814D01*
X261898Y195822D02*
X311598D01*
X260751Y194922D02*
X311598D01*
X252699Y194022D02*
X311598D01*
X252713Y193122D02*
X311598D01*
X252442Y192222D02*
X311598D01*
X275006Y191322D02*
X311598D01*
X276246Y190422D02*
X311598D01*
X276946Y189522D02*
X311598D01*
X277365Y188622D02*
X311598D01*
X277579Y187722D02*
X311598D01*
X277616Y186822D02*
X311598D01*
X277480Y185922D02*
X311598D01*
X277155Y185022D02*
X311598D01*
X276591Y184122D02*
X311598D01*
X275646Y183222D02*
X311598D01*
X145470Y182322D02*
X311598D01*
X227530Y181422D02*
X311598D01*
X228140Y180522D02*
X311598D01*
X228378Y179622D02*
X311598D01*
X228334Y178722D02*
X311598D01*
X227995Y177822D02*
X311598D01*
X227202Y176922D02*
X311598D01*
X225137Y176022D02*
X311598D01*
X224777Y175122D02*
X311598D01*
X275776Y174222D02*
X311598D01*
X276867Y173322D02*
X311598D01*
X277504Y172422D02*
X311598D01*
X277880Y171522D02*
X311598D01*
X278060Y170622D02*
X311598D01*
X278064Y169722D02*
X311598D01*
X277894Y168822D02*
X311598D01*
X280366Y158022D02*
X311598D01*
X279307Y157122D02*
X311598D01*
X264614Y156222D02*
X311598D01*
X265639Y155322D02*
X311598D01*
X266078Y154422D02*
X311598D01*
X266199Y153522D02*
X311598D01*
X266044Y152622D02*
X311598D01*
X265558Y151722D02*
X311598D01*
X264388Y150822D02*
X311598D01*
X256047Y149922D02*
X311598D01*
X254499Y149022D02*
X311598D01*
X249691Y148122D02*
X311598D01*
X265237Y147222D02*
X311598D01*
X266086Y146322D02*
X311598D01*
X280078Y145422D02*
X311598D01*
X280893Y144522D02*
X311598D01*
X281242Y143622D02*
X311598D01*
X281294Y142722D02*
X311597D01*
X277324Y196722D02*
X311528D01*
X311075Y136422D02*
X311500D01*
X308140Y104022D02*
X311480D01*
X308281Y111222D02*
X311340D01*
X277529Y167922D02*
X310962D01*
X235252Y116622D02*
X310791D01*
X309330Y122922D02*
X310755D01*
X308918Y104922D02*
X310702D01*
X309005Y110322D02*
X310616D01*
X280988Y158922D02*
X310549D01*
X309417Y105822D02*
X310203D01*
X235252Y117522D02*
X310156D01*
X308794Y122022D02*
X310134D01*
X309576Y109422D02*
X310044D01*
X291722Y118422D02*
X309780D01*
X307902Y121122D02*
X309768D01*
X262571Y136422D02*
X309663D01*
X292862Y119322D02*
X309602D01*
X305903Y120222D02*
X309598D01*
X276910Y167022D02*
X309244D01*
X281354Y159822D02*
X309083D01*
X281066Y141822D02*
X308687D01*
X276591Y166122D02*
X308401D01*
X281525Y160722D02*
X308306D01*
X262111Y137322D02*
X308147D01*
X279245Y165222D02*
X307894D01*
X281521Y161622D02*
X307837D01*
X280470Y140922D02*
X307821D01*
X280332Y164322D02*
X307610D01*
X261025Y138222D02*
X307584D01*
X281343Y162522D02*
X307584D01*
X280967Y163422D02*
X307511D01*
X278666Y140022D02*
X307448D01*
X259730Y139122D02*
X307377D01*
X293339Y120222D02*
X304107D01*
X297707Y129222D02*
X303064D01*
X296728Y103122D02*
X302892D01*
X297018Y112122D02*
X302602D01*
X293488Y121122D02*
X302108D01*
X297823Y128322D02*
X301725D01*
X298140Y104022D02*
X301480D01*
X298281Y111222D02*
X301340D01*
X293361Y122022D02*
X301216D01*
X297702Y127422D02*
X300988D01*
X298918Y104922D02*
X300702D01*
X292914Y122922D02*
X300680D01*
X299005Y110322D02*
X300616D01*
X297264Y126522D02*
X300545D01*
X291865Y123822D02*
X300376D01*
X296240Y125622D02*
X300312D01*
X287596Y124722D02*
X300258D01*
X299417Y105822D02*
X300203D01*
X299576Y109422D02*
X300044D01*
X262707Y135522D02*
X296826D01*
X262568Y134622D02*
X295283D01*
X262104Y133722D02*
X294716D01*
X220214Y131922D02*
X294575D01*
X261005Y132822D02*
X294506D01*
X188772Y131022D02*
X293637D01*
X287738Y125622D02*
X293406D01*
X286728Y103122D02*
X292892D01*
X287018Y112122D02*
X292602D01*
X199622Y130122D02*
X292466D01*
X287604Y126522D02*
X292382D01*
X201089Y129222D02*
X291979D01*
X287148Y127422D02*
X291944D01*
X286072Y128322D02*
X291824D01*
X288140Y104022D02*
X291480D01*
X288281Y111222D02*
X291340D01*
X288918Y104922D02*
X290702D01*
X289005Y110322D02*
X290616D01*
X289417Y105822D02*
X290203D01*
X289576Y109422D02*
X290044D01*
X235252Y118422D02*
X289254D01*
X287129Y123822D02*
X289111D01*
X235252Y119322D02*
X288115D01*
X286020Y122922D02*
X288063D01*
X235252Y120222D02*
X287637D01*
X276218Y122022D02*
X287616D01*
X275535Y121122D02*
X287488D01*
X276498Y122922D02*
X283457D01*
X201867Y128322D02*
X283405D01*
X270704Y103122D02*
X282892D01*
X235252Y112122D02*
X282602D01*
X276492Y123822D02*
X282348D01*
X202336Y127422D02*
X282329D01*
X276198Y124722D02*
X281881D01*
X202589Y126522D02*
X281873D01*
X275491Y125622D02*
X281738D01*
X271851Y104022D02*
X281480D01*
X271009Y111222D02*
X281340D01*
X272513Y104922D02*
X280702D01*
X272017Y110322D02*
X280616D01*
X272906Y105822D02*
X280222D01*
X272613Y109422D02*
X280171D01*
X273100Y106722D02*
X279953D01*
X272962Y108522D02*
X279928D01*
X273118Y107622D02*
X279858D01*
X260190Y140022D02*
X277948D01*
X266451Y145422D02*
X276536D01*
X260358Y140922D02*
X276144D01*
X266516Y144522D02*
X275722D01*
X264140Y141822D02*
X275548D01*
X266302Y143622D02*
X275372D01*
X265728Y142722D02*
X275320D01*
X263216Y157122D02*
X274281D01*
X266024Y165222D02*
X273504D01*
X267876Y164322D02*
X273256D01*
X263363Y158022D02*
X273222D01*
X262389Y196722D02*
X272798D01*
X269023Y163422D02*
X272621D01*
X268037Y158922D02*
X272601D01*
X269502Y162522D02*
X272246D01*
X269081Y159822D02*
X272234D01*
X269652Y161622D02*
X272067D01*
X269526Y160722D02*
X272064D01*
X202662Y125622D02*
X271567D01*
X235252Y121122D02*
X271523D01*
X223958Y174222D02*
X270891D01*
X235252Y124722D02*
X270860D01*
X235252Y122022D02*
X270840D01*
X265933Y166122D02*
X270813D01*
X251831Y191322D02*
X270739D01*
X235252Y123822D02*
X270566D01*
X235252Y122922D02*
X270560D01*
X145419Y183222D02*
X270099D01*
X202726Y173322D02*
X269799D01*
X265534Y167022D02*
X269757D01*
X252327Y190422D02*
X269499D01*
X203975Y172422D02*
X269163D01*
X248949Y184122D02*
X269154D01*
X264610Y167922D02*
X269137D01*
X252899Y189522D02*
X268799D01*
X236933Y171522D02*
X268786D01*
X238302Y168822D02*
X268772D01*
X237831Y170622D02*
X268607D01*
X238219Y169722D02*
X268602D01*
X249598Y185022D02*
X268591D01*
X253112Y188622D02*
X268380D01*
X251828Y185922D02*
X268265D01*
X253046Y187722D02*
X268166D01*
X252679Y186822D02*
X268129D01*
X235252Y103122D02*
X266058D01*
X235252Y111222D02*
X265753D01*
X263239Y158922D02*
X265267D01*
X235252Y104022D02*
X264911D01*
X235252Y110322D02*
X264745D01*
X235252Y104922D02*
X264249D01*
X262796Y159822D02*
X264224D01*
X235252Y109422D02*
X264149D01*
X235252Y105822D02*
X263855D01*
X235252Y108522D02*
X263800D01*
X261758Y160722D02*
X263778D01*
X235252Y106722D02*
X263662D01*
X233135Y161622D02*
X263652D01*
X235252Y107622D02*
X263644D01*
X260250Y141822D02*
X262911D01*
X233917Y162522D02*
X262094D01*
X256615Y150822D02*
X262011D01*
X249878Y147222D02*
X261814D01*
X238107Y167922D02*
X261445D01*
X259828Y142722D02*
X261323D01*
X249789Y146322D02*
X260965D01*
X256826Y151722D02*
X260841D01*
X258849Y143622D02*
X260749D01*
X234251Y163422D02*
X260749D01*
X249391Y145422D02*
X260600D01*
X248471Y144522D02*
X260535D01*
X237562Y167022D02*
X260521D01*
X256757Y152622D02*
X260355D01*
X255530Y154422D02*
X260321D01*
X234658Y164322D02*
X260218D01*
X256388Y153522D02*
X260200D01*
X236252Y166122D02*
X260123D01*
X235723Y165222D02*
X260031D01*
X252896Y155322D02*
X259150D01*
X228259Y160722D02*
X258969D01*
X221420Y132822D02*
X258409D01*
X252396Y194922D02*
X258307D01*
X252352Y156222D02*
X257997D01*
X217192Y159822D02*
X257931D01*
X250945Y157122D02*
X257516D01*
X217306Y158922D02*
X257488D01*
X217143Y158022D02*
X257364D01*
X221916Y133722D02*
X257311D01*
X243182Y137322D02*
X257297D01*
X252180Y195822D02*
X257159D01*
X241134Y134622D02*
X256847D01*
X242243Y136422D02*
X256844D01*
X241912Y135522D02*
X256707D01*
X252667Y196722D02*
X256680D01*
X244241Y138222D02*
X256271D01*
X245098Y143622D02*
X255871D01*
X244692Y139122D02*
X255034D01*
X244700Y142722D02*
X254891D01*
X116199Y255222D02*
X254718D01*
X117146Y254322D02*
X254718D01*
X117883Y253422D02*
X254718D01*
X118463Y252522D02*
X254718D01*
X118917Y251622D02*
X254718D01*
X119263Y250722D02*
X254718D01*
X119513Y249822D02*
X254718D01*
X119675Y248922D02*
X254718D01*
X119752Y248022D02*
X254718D01*
X203198Y247122D02*
X254718D01*
X204929Y246222D02*
X254718D01*
X205795Y245322D02*
X254718D01*
X206328Y244422D02*
X254718D01*
X206638Y243522D02*
X254718D01*
X206769Y242622D02*
X254718D01*
X206734Y241722D02*
X254718D01*
X206529Y240822D02*
X254718D01*
X245682Y239922D02*
X254718D01*
X247048Y239022D02*
X254718D01*
X247854Y238122D02*
X254718D01*
X248379Y237222D02*
X254718D01*
X248704Y236322D02*
X254718D01*
X248866Y235422D02*
X254718D01*
X248879Y234522D02*
X254718D01*
X248743Y233622D02*
X254718D01*
X248448Y232722D02*
X254718D01*
X247962Y231822D02*
X254718D01*
X247214Y230922D02*
X254718D01*
X245992Y230022D02*
X254718D01*
X215041Y229122D02*
X254718D01*
X215836Y228222D02*
X254718D01*
X216316Y227322D02*
X254718D01*
X216577Y226422D02*
X254718D01*
X216658Y225522D02*
X254718D01*
X216566Y224622D02*
X254718D01*
X216291Y223722D02*
X254718D01*
X215795Y222822D02*
X254718D01*
X214971Y221922D02*
X254718D01*
X213336Y221022D02*
X254718D01*
X101100Y220122D02*
X254718D01*
X194890Y219222D02*
X254718D01*
X196366Y218322D02*
X254718D01*
X197165Y217422D02*
X254718D01*
X204313Y216522D02*
X254718D01*
X205122Y215622D02*
X254718D01*
X205358Y214722D02*
X254718D01*
X205221Y213822D02*
X254718D01*
X204612Y212922D02*
X254718D01*
X197313Y212022D02*
X254718D01*
X196607Y211122D02*
X254718D01*
X195946Y210222D02*
X254718D01*
X208467Y209322D02*
X254718D01*
X209448Y208422D02*
X254718D01*
X210031Y207522D02*
X254718D01*
X245450Y206622D02*
X254718D01*
X246546Y205722D02*
X254718D01*
X247009Y204822D02*
X254718D01*
X247148Y203922D02*
X254718D01*
X247011Y203022D02*
X254718D01*
X246550Y202122D02*
X254718D01*
X245462Y201222D02*
X254718D01*
X251251Y200322D02*
X254718D01*
X252269Y199422D02*
X254718D01*
X252705Y198522D02*
X254718D01*
X252824Y197622D02*
X254718D01*
X115736Y256122D02*
X254656D01*
X244822Y140022D02*
X254530D01*
X244242Y141822D02*
X254469D01*
X244676Y140922D02*
X254361D01*
X249158Y149022D02*
X253170D01*
X247803Y149922D02*
X251621D01*
X233569Y150822D02*
X251053D01*
X216646Y157122D02*
X249247D01*
X233562Y151722D02*
X248472D01*
X180620Y200322D02*
X248399D01*
X215439Y156222D02*
X247840D01*
X233381Y152622D02*
X247572D01*
X180161Y199422D02*
X247381D01*
X231264Y155322D02*
X247296D01*
X233002Y153522D02*
X247184D01*
X232363Y154422D02*
X247101D01*
X179078Y198522D02*
X246890D01*
X233126Y192222D02*
X246139D01*
X233379Y193122D02*
X246004D01*
X233401Y149922D02*
X245962D01*
X230231Y197622D02*
X245524D01*
X233350Y194022D02*
X245160D01*
X230853Y196722D02*
X244948D01*
X179250Y184122D02*
X244816D01*
X233028Y194922D02*
X244796D01*
X232268Y195822D02*
X244733D01*
X233038Y149022D02*
X244607D01*
X232490Y191322D02*
X244461D01*
X179887Y185022D02*
X244167D01*
X232421Y148122D02*
X244074D01*
X179791Y187722D02*
X243981D01*
X180112Y186822D02*
X243929D01*
X180141Y185922D02*
X243906D01*
X133144Y190422D02*
X243845D01*
X243121Y147222D02*
X243700D01*
X179032Y188622D02*
X243645D01*
X133775Y189522D02*
X243605D01*
X210370Y206622D02*
X242847D01*
X208027Y201222D02*
X242835D01*
X210518Y205722D02*
X241750D01*
X209210Y202122D02*
X241746D01*
X210492Y204822D02*
X241287D01*
X209886Y203022D02*
X241286D01*
X231372Y147222D02*
X241265D01*
X210290Y203922D02*
X241148D01*
X206132Y239922D02*
X241013D01*
X213515Y230022D02*
X240704D01*
X183942Y146322D02*
X239915D01*
X101100Y142722D02*
X239686D01*
X205478Y239022D02*
X239648D01*
X128630Y230922D02*
X239481D01*
X237173Y141822D02*
X239442D01*
X183395Y145422D02*
X239384D01*
X180307Y143622D02*
X239287D01*
X182482Y144522D02*
X239197D01*
X204379Y238122D02*
X238841D01*
X128825Y231822D02*
X238734D01*
X101100Y237222D02*
X238317D01*
X128844Y232722D02*
X238248D01*
X126744Y236322D02*
X237991D01*
X128689Y233622D02*
X237952D01*
X127748Y235422D02*
X237830D01*
X128342Y234522D02*
X237817D01*
X222079Y134622D02*
X237462D01*
X221965Y135522D02*
X236684D01*
X233116Y141822D02*
X236097D01*
X233520Y136422D02*
X234902D01*
X204693Y171522D02*
X233682D01*
X204994Y170622D02*
X232783D01*
X205304Y169722D02*
X232045D01*
X139711Y141822D02*
X230943D01*
X206919Y168822D02*
X230923D01*
X221536Y136422D02*
X230540D01*
X207508Y167922D02*
X230452D01*
X207732Y167022D02*
X230290D01*
X179643Y140922D02*
X229705D01*
X220537Y137322D02*
X229561D01*
X229115Y161622D02*
X229440D01*
X181278Y140022D02*
X229200D01*
X207676Y166122D02*
X229186D01*
X182598Y138222D02*
X229139D01*
X182102Y139122D02*
X229031D01*
X130184Y191322D02*
X228310D01*
X129550Y192222D02*
X227674D01*
X163924Y155322D02*
X226410D01*
X184255Y147222D02*
X226302D01*
X128087Y193122D02*
X226280D01*
X114727Y197622D02*
X225999D01*
X115050Y194022D02*
X225502D01*
X115084Y196722D02*
X225377D01*
X163567Y154422D02*
X225311D01*
X184381Y148122D02*
X225252D01*
X115236Y194922D02*
X225170D01*
X115247Y195822D02*
X225133D01*
X162737Y153522D02*
X224672D01*
X184333Y149022D02*
X224636D01*
X216764Y160722D02*
X224356D01*
X181658Y152622D02*
X224293D01*
X207321Y165222D02*
X224291D01*
X184108Y149922D02*
X224273D01*
X182954Y151722D02*
X224112D01*
X183675Y150822D02*
X224105D01*
X215766Y161622D02*
X223643D01*
X206497Y164322D02*
X223614D01*
X180467Y162522D02*
X223345D01*
X202662Y163422D02*
X223337D01*
X197128Y181422D02*
X223258D01*
X197751Y180522D02*
X222647D01*
X203172Y179622D02*
X221794D01*
X203772Y174222D02*
X220431D01*
X204495Y178722D02*
X220026D01*
X204706Y175122D02*
X219612D01*
X205021Y177822D02*
X219433D01*
X205109Y176022D02*
X219261D01*
X205204Y176922D02*
X219207D01*
X188212Y131922D02*
X217946D01*
X182873Y137322D02*
X217623D01*
X186712Y132822D02*
X216740D01*
X182965Y136422D02*
X216624D01*
X182144Y133722D02*
X216243D01*
X182885Y135522D02*
X216195D01*
X182623Y134622D02*
X216081D01*
X210572Y156222D02*
X213176D01*
X179558Y161622D02*
X212848D01*
X211263Y157122D02*
X211964D01*
X210452Y160722D02*
X211850D01*
X101100Y221022D02*
X210479D01*
X128235Y230022D02*
X210300D01*
X101100Y221922D02*
X208844D01*
X127571Y229122D02*
X208774D01*
X101100Y222822D02*
X208021D01*
X126418Y228222D02*
X207979D01*
X101100Y223722D02*
X207524D01*
X101100Y227322D02*
X207500D01*
X101100Y224622D02*
X207250D01*
X101100Y226422D02*
X207238D01*
X101100Y225522D02*
X207158D01*
X177426Y160722D02*
X206606D01*
X163982Y156222D02*
X206486D01*
X101100Y159822D02*
X205877D01*
X163760Y157122D02*
X205824D01*
X161487Y158922D02*
X205571D01*
X163175Y158022D02*
X205555D01*
X180756Y201222D02*
X203530D01*
X196592Y209322D02*
X203090D01*
X194009Y202122D02*
X202346D01*
X197065Y208422D02*
X202108D01*
X197657Y216522D02*
X201866D01*
X195687Y203022D02*
X201670D01*
X197746Y212922D02*
X201567D01*
X197322Y207522D02*
X201525D01*
X134198Y173322D02*
X201498D01*
X196521Y203922D02*
X201266D01*
X197997Y179622D02*
X201243D01*
X197399Y206622D02*
X201186D01*
X197023Y204822D02*
X201064D01*
X197937Y215622D02*
X201056D01*
X197303Y205722D02*
X201039D01*
X197979Y213822D02*
X200958D01*
X198041Y214722D02*
X200820D01*
X133546Y174222D02*
X200642D01*
X193198Y247122D02*
X200448D01*
X134585Y172422D02*
X200092D01*
X197960Y178722D02*
X199919D01*
X181012Y163422D02*
X199840D01*
X132421Y175122D02*
X199708D01*
X197629Y177822D02*
X199393D01*
X195747Y171522D02*
X199373D01*
X197220Y168822D02*
X199335D01*
X172572Y176022D02*
X199305D01*
X194379Y238122D02*
X199266D01*
X196853Y176922D02*
X199210D01*
X196705Y170622D02*
X199073D01*
X197118Y169722D02*
X199062D01*
X197044Y167922D02*
X198891D01*
X181323Y164322D02*
X198812D01*
X194929Y246222D02*
X198717D01*
X196530Y167022D02*
X198406D01*
X181447Y165222D02*
X198373D01*
X195254Y166122D02*
X198251D01*
X195478Y239022D02*
X198168D01*
X195795Y245322D02*
X197850D01*
X196132Y239922D02*
X197514D01*
X196328Y244422D02*
X197318D01*
X188978Y130122D02*
X196203D01*
X188905Y129222D02*
X194736D01*
X188529Y128322D02*
X193958D01*
X187659Y127422D02*
X193489D01*
X172508Y126522D02*
X193236D01*
X181398Y166122D02*
X193190D01*
X173248Y176922D02*
X193177D01*
X173219Y125622D02*
X193163D01*
X145240Y181422D02*
X192901D01*
X134773Y171522D02*
X192696D01*
X173524Y177822D02*
X192400D01*
X172504Y180522D02*
X192278D01*
X173515Y178722D02*
X192070D01*
X173218Y179622D02*
X192033D01*
X181171Y167022D02*
X191914D01*
X134785Y170622D02*
X191738D01*
X180736Y167922D02*
X191399D01*
X178707Y169722D02*
X191326D01*
X184890Y219222D02*
X191289D01*
X180615Y202122D02*
X191288D01*
X180012Y168822D02*
X191224D01*
X183198Y247122D02*
X190448D01*
X186366Y218322D02*
X189813D01*
X180150Y203022D02*
X189610D01*
X186607Y211122D02*
X189571D01*
X185390Y210222D02*
X189492D01*
X184379Y238122D02*
X189266D01*
X187165Y217422D02*
X189013D01*
X187313Y212022D02*
X188865D01*
X179048Y203922D02*
X188776D01*
X184929Y246222D02*
X188717D01*
X141711Y209322D02*
X188706D01*
X187663Y216522D02*
X188515D01*
X114095Y204822D02*
X188274D01*
X141395Y208422D02*
X188232D01*
X187987Y212922D02*
X188192D01*
X185478Y239022D02*
X188168D01*
X137666Y205722D02*
X187995D01*
X140844Y207522D02*
X187975D01*
X139923Y206622D02*
X187899D01*
X185795Y245322D02*
X187850D01*
X186132Y239922D02*
X187514D01*
X186328Y244422D02*
X187318D01*
X181349Y132822D02*
X185258D01*
X123097Y127422D02*
X184311D01*
X179823Y131922D02*
X183758D01*
X101100Y128322D02*
X183441D01*
X118235Y131022D02*
X183198D01*
X101100Y129222D02*
X183065D01*
X117267Y130122D02*
X182992D01*
X174890Y219222D02*
X181289D01*
X175390Y210222D02*
X180789D01*
X173198Y247122D02*
X180448D01*
X176366Y218322D02*
X179813D01*
X176607Y211122D02*
X179571D01*
X174379Y238122D02*
X179266D01*
X177165Y217422D02*
X179013D01*
X113376Y143622D02*
X178963D01*
X177313Y212022D02*
X178865D01*
X174929Y246222D02*
X178717D01*
X177663Y216522D02*
X178515D01*
X177987Y212922D02*
X178192D01*
X175478Y239022D02*
X178168D01*
X175795Y245322D02*
X177850D01*
X155067Y152622D02*
X177612D01*
X176132Y239922D02*
X177514D01*
X176328Y244422D02*
X177318D01*
X114488Y144522D02*
X176788D01*
X141101Y140922D02*
X176787D01*
X118811Y131922D02*
X176607D01*
X113682Y203922D02*
X176463D01*
X114119Y198522D02*
X176433D01*
X155445Y151722D02*
X176316D01*
X101100Y160722D02*
X175976D01*
X115133Y145422D02*
X175875D01*
X155625Y150822D02*
X175595D01*
X112991Y203022D02*
X175361D01*
X113087Y199422D02*
X175350D01*
X153430Y146322D02*
X175328D01*
X134025Y188622D02*
X175292D01*
X155631Y149922D02*
X175162D01*
X141855Y140022D02*
X175152D01*
X172397Y132822D02*
X175081D01*
X145071Y184122D02*
X175074D01*
X154482Y147222D02*
X175015D01*
X155463Y149022D02*
X174936D01*
X111773Y202122D02*
X174896D01*
X101100Y200322D02*
X174891D01*
X155099Y148122D02*
X174889D01*
X101100Y201222D02*
X174756D01*
X134624Y169722D02*
X174695D01*
X133993Y187722D02*
X174534D01*
X144259Y185022D02*
X174437D01*
X142308Y139122D02*
X174328D01*
X173170Y133722D02*
X174286D01*
X133667Y186822D02*
X174212D01*
X132901Y185922D02*
X174183D01*
X101100Y161622D02*
X173843D01*
X142550Y138222D02*
X173832D01*
X172661Y137322D02*
X173527D01*
X134269Y168822D02*
X173389D01*
X152726Y162522D02*
X172934D01*
X133663Y167922D02*
X172665D01*
X153427Y163422D02*
X172390D01*
X152750Y167022D02*
X172230D01*
X153718Y164322D02*
X172078D01*
X153438Y166122D02*
X172003D01*
X153721Y165222D02*
X171955D01*
X159799Y120222D02*
X171898D01*
X166402Y119322D02*
X171898D01*
X167080Y118422D02*
X171898D01*
X167358Y117522D02*
X171898D01*
X167350Y116622D02*
X171898D01*
X167054Y115722D02*
X171898D01*
X166342Y114822D02*
X171898D01*
X118874Y113922D02*
X171898D01*
X119231Y113022D02*
X171898D01*
X119491Y112122D02*
X171898D01*
X119662Y111222D02*
X171898D01*
X161494Y110322D02*
X171898D01*
X163113Y109422D02*
X171898D01*
X163932Y108522D02*
X171898D01*
X164426Y107622D02*
X171898D01*
X164699Y106722D02*
X171898D01*
X164790Y105822D02*
X171898D01*
X164708Y104922D02*
X171898D01*
X164444Y104022D02*
X171898D01*
X163963Y103122D02*
X171898D01*
X163164Y102222D02*
X171898D01*
X159594Y121122D02*
X171818D01*
X151372Y219222D02*
X171289D01*
X152145Y210222D02*
X170789D01*
X146328Y247122D02*
X170448D01*
X153239Y218322D02*
X169813D01*
X153532Y211122D02*
X169571D01*
X146105Y238122D02*
X169266D01*
X154111Y217422D02*
X169013D01*
X154285Y212022D02*
X168865D01*
X147607Y246222D02*
X168717D01*
X138951Y132822D02*
X168708D01*
X144643Y180522D02*
X168604D01*
X138691Y126522D02*
X168597D01*
X159186Y122022D02*
X168540D01*
X124009Y176022D02*
X168536D01*
X154635Y216522D02*
X168521D01*
X142612Y137322D02*
X168444D01*
X154738Y212922D02*
X168432D01*
X154931Y215622D02*
X168241D01*
X154980Y213822D02*
X168199D01*
X147498Y239022D02*
X168168D01*
X155041Y214722D02*
X168138D01*
X140812Y133722D02*
X167935D01*
X142809Y179622D02*
X167890D01*
X140239Y125622D02*
X167886D01*
X158502Y122922D02*
X167861D01*
X123655Y176922D02*
X167860D01*
X148337Y245322D02*
X167850D01*
X142502Y136422D02*
X167818D01*
X141683Y134622D02*
X167606D01*
X101100Y178722D02*
X167592D01*
X141041Y124722D02*
X167590D01*
X122829Y177822D02*
X167583D01*
X157303Y123822D02*
X167583D01*
X142207Y135522D02*
X167571D01*
X148270Y239922D02*
X167514D01*
X148785Y244422D02*
X167318D01*
X148745Y240822D02*
X167116D01*
X149031Y243522D02*
X167007D01*
X149012Y241722D02*
X166912D01*
X149104Y242622D02*
X166877D01*
X118408Y114822D02*
X162434D01*
X159828Y119322D02*
X162374D01*
X157801Y115722D02*
X161722D01*
X159684Y118422D02*
X161696D01*
X158771Y116622D02*
X161426D01*
X159349Y117522D02*
X161418D01*
X101100Y158922D02*
X160499D01*
X154428Y153522D02*
X159249D01*
X101100Y158022D02*
X158811D01*
X119748Y110322D02*
X158585D01*
X153332Y154422D02*
X158419D01*
X101100Y157122D02*
X158226D01*
X101100Y155322D02*
X158062D01*
X101100Y156222D02*
X158004D01*
X119751Y109422D02*
X156966D01*
X116173Y102222D02*
X156916D01*
X119672Y108522D02*
X156147D01*
X117127Y103122D02*
X156117D01*
X119508Y107622D02*
X155653D01*
X117867Y104022D02*
X155635D01*
X119256Y106722D02*
X155380D01*
X118450Y104922D02*
X155371D01*
X118907Y105822D02*
X155290D01*
X141524Y123822D02*
X152871D01*
X117813Y115722D02*
X152374D01*
X141788Y122922D02*
X151672D01*
X117057Y116622D02*
X151403D01*
X141871Y122022D02*
X150989D01*
X138590Y117522D02*
X150826D01*
X141781Y121122D02*
X150581D01*
X140200Y118422D02*
X150491D01*
X141510Y120222D02*
X150375D01*
X141017Y119322D02*
X150347D01*
X101100Y219222D02*
X149214D01*
X101100Y162522D02*
X148781D01*
X132637Y167022D02*
X148757D01*
X101100Y154422D02*
X148468D01*
X141839Y210222D02*
X148441D01*
X130625Y146322D02*
X148369D01*
X101100Y163422D02*
X148080D01*
X101100Y166122D02*
X148069D01*
X101100Y164322D02*
X147789D01*
X101100Y165222D02*
X147786D01*
X101100Y153522D02*
X147371D01*
X101100Y218322D02*
X147347D01*
X131674Y147222D02*
X147318D01*
X141794Y211122D02*
X147054D01*
X101100Y152622D02*
X146733D01*
X132121Y148122D02*
X146700D01*
X101100Y217422D02*
X146475D01*
X130482Y151722D02*
X146355D01*
X132248Y149022D02*
X146337D01*
X141571Y212022D02*
X146301D01*
X131622Y150822D02*
X146174D01*
X132099Y149922D02*
X146168D01*
X101100Y216522D02*
X145951D01*
X141142Y212922D02*
X145848D01*
X101100Y215622D02*
X145655D01*
X140426Y213822D02*
X145607D01*
X139144Y214722D02*
X145545D01*
X112548Y238122D02*
X142198D01*
X101100Y179622D02*
X142156D01*
X119746Y247122D02*
X141975D01*
X114722Y239022D02*
X140805D01*
X101100Y185022D02*
X140707D01*
X119659Y246222D02*
X140697D01*
X101100Y180522D02*
X140323D01*
X116056Y239922D02*
X140033D01*
X119486Y245322D02*
X139967D01*
X101100Y184122D02*
X139895D01*
X101100Y181422D02*
X139726D01*
X135468Y240822D02*
X139558D01*
X101100Y183222D02*
X139547D01*
X135602Y244422D02*
X139518D01*
X101100Y182322D02*
X139496D01*
X136215Y241722D02*
X139291D01*
X136259Y243522D02*
X139272D01*
X136423Y242622D02*
X139199D01*
X119145Y132822D02*
X136777D01*
X114304Y205722D02*
X136521D01*
X101100Y141822D02*
X136016D01*
X116083Y117522D02*
X135652D01*
X124135Y126522D02*
X135550D01*
X101100Y214722D02*
X135043D01*
X119288Y133722D02*
X134915D01*
X101100Y140922D02*
X134627D01*
X114337Y206622D02*
X134264D01*
X119259Y134622D02*
X134044D01*
X114760Y118422D02*
X134042D01*
X124746Y125622D02*
X134002D01*
X101100Y140022D02*
X133873D01*
X101100Y213822D02*
X133761D01*
X119053Y135522D02*
X133521D01*
X101100Y139122D02*
X133419D01*
X114197Y207522D02*
X133343D01*
X118644Y136422D02*
X133225D01*
X122936Y119322D02*
X133225D01*
X125105Y124722D02*
X133201D01*
X116756Y138222D02*
X133178D01*
X117959Y137322D02*
X133115D01*
X101100Y212922D02*
X133045D01*
X117037Y240822D02*
X132835D01*
X113866Y208422D02*
X132792D01*
X124048Y120222D02*
X132732D01*
X125269Y123822D02*
X132718D01*
X119224Y244422D02*
X132702D01*
X101100Y212022D02*
X132616D01*
X113295Y209322D02*
X132476D01*
X124693Y121122D02*
X132460D01*
X125260Y122922D02*
X132454D01*
X101100Y211122D02*
X132393D01*
X125076Y122022D02*
X132371D01*
X112337Y210222D02*
X132348D01*
X117797Y241722D02*
X132089D01*
X118864Y243522D02*
X132045D01*
X118395Y242622D02*
X131881D01*
X125206Y185922D02*
X129188D01*
X126128Y186822D02*
X128422D01*
X113539Y151722D02*
X128014D01*
X115516Y146322D02*
X127871D01*
X124066Y175122D02*
X127680D01*
X101100Y167022D02*
X127464D01*
X114576Y150822D02*
X126874D01*
X115701Y147222D02*
X126822D01*
X123842Y174222D02*
X126555D01*
X114665Y193122D02*
X126537D01*
X110575Y167922D02*
X126438D01*
X115187Y149922D02*
X126397D01*
X115710Y148122D02*
X126376D01*
X115546Y149022D02*
X126248D01*
X123254Y173322D02*
X125904D01*
X112276Y168822D02*
X125832D01*
X121539Y172422D02*
X125517D01*
X113115Y169722D02*
X125477D01*
X113901Y171522D02*
X125329D01*
X113620Y170622D02*
X125316D01*
X114017Y192222D02*
X125075D01*
X112899Y191322D02*
X122693D01*
X101100Y185922D02*
X122035D01*
X101100Y228222D02*
X121795D01*
X101100Y236322D02*
X121469D01*
X101100Y190422D02*
X121344D01*
X101100Y186822D02*
X121113D01*
X101100Y189522D02*
X120812D01*
X101100Y187722D02*
X120715D01*
X101100Y229122D02*
X120642D01*
X101100Y188622D02*
X120625D01*
X113999Y172422D02*
X120616D01*
X101100Y235422D02*
X120465D01*
X101100Y230022D02*
X119978D01*
X101100Y234522D02*
X119871D01*
X101100Y230922D02*
X119583D01*
X101100Y233622D02*
X119524D01*
X101100Y231822D02*
X119389D01*
X101100Y232722D02*
X119370D01*
X101100Y177822D02*
X119326D01*
X113925Y173322D02*
X118901D01*
X110941Y176922D02*
X118500D01*
X113670Y174222D02*
X118313D01*
X112419Y176022D02*
X118146D01*
X112623Y119322D02*
X118136D01*
X113200Y175122D02*
X118089D01*
X101100Y127422D02*
X117976D01*
X101100Y120222D02*
X117025D01*
X101100Y126522D02*
X116938D01*
X101100Y121122D02*
X116380D01*
X101100Y125622D02*
X116327D01*
X101100Y122022D02*
X115997D01*
X101100Y124722D02*
X115968D01*
X101100Y122922D02*
X115813D01*
X101100Y123822D02*
X115803D01*
X101100Y138222D02*
X112339D01*
X101100Y130122D02*
X111828D01*
X101100Y137322D02*
X111136D01*
X101100Y131022D02*
X110861D01*
X101100Y136422D02*
X110452D01*
X101100Y131922D02*
X110284D01*
X101100Y135522D02*
X110042D01*
X101100Y132822D02*
X109950D01*
X101100Y134622D02*
X109836D01*
X101100Y133722D02*
X109807D01*
X101100Y143622D02*
X108579D01*
X101100Y151722D02*
X108416D01*
X101100Y191322D02*
X108128D01*
X101100Y199422D02*
X107940D01*
X101100Y167922D02*
X107925D01*
X101100Y176922D02*
X107558D01*
X101100Y144522D02*
X107467D01*
X101100Y202122D02*
X107417D01*
X101100Y150822D02*
X107378D01*
X101100Y238122D02*
X107223D01*
X101100Y119322D02*
X107148D01*
X101100Y192222D02*
X107010D01*
X101100Y198522D02*
X106908D01*
X101100Y210222D02*
X106853D01*
X101100Y145422D02*
X106821D01*
X101100Y149922D02*
X106767D01*
X101100Y146322D02*
X106438D01*
X101100Y149022D02*
X106409D01*
X101100Y193122D02*
X106362D01*
X101100Y197622D02*
X106300D01*
X101100Y147222D02*
X106254D01*
X101100Y148122D02*
X106244D01*
X101100Y168822D02*
X106224D01*
X101100Y203022D02*
X106199D01*
X101100Y176022D02*
X106081D01*
X101100Y194022D02*
X105977D01*
X101100Y196722D02*
X105943D01*
X101100Y209322D02*
X105895D01*
X101100Y194922D02*
X105791D01*
X101100Y195822D02*
X105780D01*
X101100Y203922D02*
X105509D01*
X101100Y169722D02*
X105385D01*
X101100Y208422D02*
X105324D01*
X101100Y175122D02*
X105300D01*
X101100Y204822D02*
X105095D01*
X101100Y239022D02*
X105049D01*
X101100Y118422D02*
X105011D01*
X101100Y207522D02*
X104994D01*
X101100Y205722D02*
X104886D01*
X101100Y170622D02*
X104880D01*
X101100Y206622D02*
X104853D01*
X101100Y174222D02*
X104829D01*
X101100Y171522D02*
X104598D01*
X101100Y173322D02*
X104574D01*
X101100Y172422D02*
X104500D01*
X101100Y239922D02*
X103715D01*
X101100Y117522D02*
X103688D01*
X101100Y240822D02*
X102734D01*
X101100Y116622D02*
X102714D01*
X101228Y241722D02*
X101972D01*
X101249Y115722D02*
X101951D01*
X372666Y240542D02*
X374491D01*
X371595Y239642D02*
X374491D01*
X370093Y238742D02*
X374491D01*
X367761Y237842D02*
X374491D01*
X367738Y236942D02*
X374491D01*
X367673Y236042D02*
X374491D01*
X367308Y235142D02*
X374491D01*
X257528Y227942D02*
X374491D01*
X344313Y227042D02*
X374491D01*
X345906Y226142D02*
X374491D01*
X346719Y225242D02*
X374491D01*
X344360Y218042D02*
X374491D01*
X257528Y217142D02*
X374491D01*
X257528Y216242D02*
X374491D01*
X257528Y215342D02*
X374491D01*
X347150Y208142D02*
X374491D01*
X346775Y207242D02*
X374491D01*
X346140Y206342D02*
X374491D01*
X345053Y205442D02*
X374491D01*
X314330Y197342D02*
X374491D01*
X314331Y196442D02*
X374491D01*
X367081Y195542D02*
X374491D01*
X369270Y194642D02*
X374491D01*
X370074Y193742D02*
X374491D01*
X370511Y192842D02*
X374491D01*
X370705Y191942D02*
X374491D01*
X370690Y191042D02*
X374491D01*
X370464Y190142D02*
X374491D01*
X369984Y189242D02*
X374491D01*
X369102Y188342D02*
X374491D01*
X360860Y187442D02*
X374491D01*
X369007Y186542D02*
X374491D01*
X370705Y185642D02*
X374491D01*
X371454Y184742D02*
X374491D01*
X371860Y183842D02*
X374491D01*
X372028Y182942D02*
X374491D01*
X371990Y182042D02*
X374491D01*
X371738Y181142D02*
X374491D01*
X371224Y180242D02*
X374491D01*
X370271Y179342D02*
X374491D01*
X362389Y178442D02*
X374491D01*
X366397Y177542D02*
X374491D01*
X367968Y176642D02*
X374491D01*
X368692Y175742D02*
X374491D01*
X369083Y174842D02*
X374491D01*
X369239Y173942D02*
X374491D01*
X369190Y173042D02*
X374491D01*
X368926Y172142D02*
X374491D01*
X368393Y171242D02*
X374491D01*
X367402Y170342D02*
X374491D01*
X361705Y169442D02*
X374491D01*
X362523Y168542D02*
X374491D01*
X362969Y167642D02*
X374491D01*
X363168Y166742D02*
X374491D01*
X367084Y165842D02*
X374491D01*
X368600Y164942D02*
X374491D01*
X369311Y164042D02*
X374491D01*
X369694Y163142D02*
X374491D01*
X369845Y162242D02*
X374491D01*
X369789Y161342D02*
X374491D01*
X369518Y160442D02*
X374491D01*
X369659Y159542D02*
X374491D01*
X371062Y158642D02*
X374491D01*
X371745Y157742D02*
X374491D01*
X372110Y156842D02*
X374491D01*
X372247Y155942D02*
X374491D01*
X372177Y155042D02*
X374491D01*
X371890Y154142D02*
X374491D01*
X371326Y153242D02*
X374491D01*
X370263Y152342D02*
X374491D01*
X314331Y151442D02*
X374491D01*
X314331Y150542D02*
X374491D01*
X314331Y149642D02*
X374491D01*
X352889Y148742D02*
X374491D01*
X354025Y147842D02*
X374491D01*
X354501Y146942D02*
X374491D01*
X354649Y146042D02*
X374491D01*
X354521Y145142D02*
X374491D01*
X354073Y144242D02*
X374491D01*
X353021Y143342D02*
X374491D01*
X370286Y142442D02*
X374491D01*
X371611Y141542D02*
X374491D01*
X372138Y140642D02*
X374491D01*
X372321Y139742D02*
X374491D01*
X372227Y138842D02*
X374491D01*
X371825Y137942D02*
X374491D01*
X314148Y198242D02*
X374490D01*
X373486Y241442D02*
X374462D01*
X333571Y204542D02*
X372503D01*
X257528Y228842D02*
X372407D01*
X323462Y214442D02*
X372228D01*
X345924Y218942D02*
X372156D01*
X347209Y224342D02*
X372014D01*
X347328Y209042D02*
X371955D01*
X366459Y234242D02*
X371836D01*
X326158Y199142D02*
X371785D01*
X327200Y203642D02*
X371124D01*
X345394Y229742D02*
X371097D01*
X345112Y213542D02*
X371041D01*
X346730Y219842D02*
X371017D01*
X347479Y223442D02*
X370965D01*
X347331Y209942D02*
X370943D01*
X348669Y233342D02*
X370895D01*
X327227Y200042D02*
X370875D01*
X327669Y202742D02*
X370586D01*
X346905Y230642D02*
X370574D01*
X346172Y212642D02*
X370550D01*
X347215Y220742D02*
X370540D01*
X347566Y222542D02*
X370518D01*
X347161Y210842D02*
X370509D01*
X348319Y232442D02*
X370490D01*
X327681Y200942D02*
X370482D01*
X327813Y201842D02*
X370395D01*
X347763Y231542D02*
X370394D01*
X346794Y211742D02*
X370391D01*
X347482Y221642D02*
X370391D01*
X360286Y142442D02*
X368364D01*
X362436Y186542D02*
X367070D01*
X361611Y141542D02*
X367038D01*
X361825Y137942D02*
X366824D01*
X362138Y140642D02*
X366511D01*
X362227Y138842D02*
X366422D01*
X361117Y195542D02*
X366365D01*
X362321Y139742D02*
X366328D01*
X340362Y152342D02*
X366235D01*
X361447Y179342D02*
X365806D01*
X363161Y185642D02*
X365371D01*
X341192Y153242D02*
X365172D01*
X361876Y180242D02*
X364852D01*
X355912Y157742D02*
X364728D01*
X363552Y184742D02*
X364622D01*
X363193Y165842D02*
X364616D01*
X352940Y154142D02*
X364608D01*
X355747Y156842D02*
X364388D01*
X360738Y188342D02*
X364345D01*
X362865Y181142D02*
X364338D01*
X354603Y155042D02*
X364321D01*
X355345Y155942D02*
X364252D01*
X362225Y194642D02*
X364176D01*
X362925Y177542D02*
X364096D01*
X355871Y158642D02*
X363735D01*
X362051Y189242D02*
X363462D01*
X344194Y170342D02*
X363090D01*
X348853Y234242D02*
X363035D01*
X355616Y159542D02*
X362724D01*
X348886Y235142D02*
X362187D01*
X355097Y160442D02*
X362182D01*
X344330Y171242D02*
X362099D01*
X348042Y237842D02*
X361971D01*
X354134Y161342D02*
X361911D01*
X327638Y162242D02*
X361855D01*
X348771Y236042D02*
X361822D01*
X348499Y236942D02*
X361757D01*
X360389Y172142D02*
X361563D01*
X347338Y238742D02*
X361489D01*
X349235Y255842D02*
X360001D01*
X346208Y239642D02*
X359987D01*
X356630Y254942D02*
X359156D01*
X327676Y240542D02*
X358916D01*
X314331Y142442D02*
X358364D01*
X327113Y187442D02*
X358311D01*
X328215Y241442D02*
X358096D01*
X345021Y172142D02*
X358094D01*
X327614Y188342D02*
X357657D01*
X314331Y180242D02*
X357510D01*
X328407Y242342D02*
X357452D01*
X314331Y195542D02*
X357262D01*
X345774Y179342D02*
X357084D01*
X314331Y141542D02*
X357038D01*
X326186Y186542D02*
X356996D01*
X328321Y243242D02*
X356945D01*
X314331Y137942D02*
X356824D01*
X327141Y163142D02*
X356776D01*
X343827Y169442D02*
X356674D01*
X314331Y181142D02*
X356567D01*
X327928Y244142D02*
X356554D01*
X346483Y173042D02*
X356520D01*
X314331Y140642D02*
X356511D01*
X314331Y138842D02*
X356422D01*
X314331Y139742D02*
X356328D01*
X327857Y189242D02*
X356328D01*
X314331Y185642D02*
X356271D01*
X327020Y245042D02*
X356262D01*
X314331Y194642D02*
X356154D01*
X346808Y178442D02*
X356094D01*
X257528Y245942D02*
X356062D01*
X314331Y182042D02*
X356036D01*
X257528Y248642D02*
X355958D01*
X257528Y246842D02*
X355948D01*
X257528Y247742D02*
X355918D01*
X325934Y164042D02*
X355909D01*
X314331Y184742D02*
X355880D01*
X343143Y168542D02*
X355855D01*
X347181Y173942D02*
X355796D01*
X314331Y182942D02*
X355772D01*
X314331Y183842D02*
X355723D01*
X327886Y190142D02*
X355666D01*
X324705Y193742D02*
X355571D01*
X347360Y177542D02*
X355562D01*
X316737Y164942D02*
X355438D01*
X341733Y167642D02*
X355410D01*
X347556Y174842D02*
X355405D01*
X327709Y191042D02*
X355315D01*
X347638Y176642D02*
X355298D01*
X326524Y192842D02*
X355271D01*
X347700Y175742D02*
X355248D01*
X316306Y165842D02*
X355219D01*
X315588Y166742D02*
X355210D01*
X327292Y191942D02*
X355190D01*
X349266Y254942D02*
X354883D01*
X257528Y249542D02*
X354144D01*
X349017Y254042D02*
X353494D01*
X257528Y250442D02*
X353238D01*
X348389Y253142D02*
X352954D01*
X257528Y251342D02*
X352846D01*
X257528Y252242D02*
X352761D01*
X341549Y154142D02*
X350902D01*
X314331Y148742D02*
X350410D01*
X314331Y143342D02*
X350277D01*
X327800Y161342D02*
X349708D01*
X314331Y147842D02*
X349274D01*
X341607Y155042D02*
X349239D01*
X314331Y144242D02*
X349226D01*
X314331Y146942D02*
X348798D01*
X314331Y145142D02*
X348778D01*
X327687Y160442D02*
X348745D01*
X314331Y146042D02*
X348649D01*
X341385Y155942D02*
X348497D01*
X327258Y159542D02*
X348226D01*
X340801Y156842D02*
X348095D01*
X326260Y158642D02*
X347971D01*
X339115Y157742D02*
X347930D01*
X338389Y253142D02*
X344181D01*
X339017Y254042D02*
X343552D01*
X339235Y255842D02*
X343335D01*
X339266Y254942D02*
X343304D01*
X337369Y179342D02*
X341634D01*
X333813Y227042D02*
X341319D01*
X325394Y229742D02*
X341301D01*
X326162Y218042D02*
X341272D01*
X338617Y178442D02*
X340600D01*
X326749Y239642D02*
X340487D01*
X334923Y205442D02*
X340149D01*
X332604Y213542D02*
X340090D01*
X339265Y177542D02*
X340028D01*
X326905Y230642D02*
X339791D01*
X334492Y226142D02*
X339727D01*
X327493Y218942D02*
X339708D01*
X327338Y238742D02*
X339358D01*
X335664Y206342D02*
X339062D01*
X334564Y212642D02*
X339030D01*
X314422Y167642D02*
X338933D01*
X327763Y231542D02*
X338933D01*
X334771Y225242D02*
X338914D01*
X328227Y219842D02*
X338903D01*
X328042Y237842D02*
X338654D01*
X336110Y207242D02*
X338427D01*
X334763Y224342D02*
X338424D01*
X328667Y220742D02*
X338417D01*
X335451Y211742D02*
X338408D01*
X333634Y232442D02*
X338376D01*
X333918Y236942D02*
X338197D01*
X334467Y223442D02*
X338154D01*
X328899Y221642D02*
X338151D01*
X314331Y157742D02*
X338121D01*
X333756Y222542D02*
X338066D01*
X336345Y208142D02*
X338052D01*
X335984Y210842D02*
X338042D01*
X334413Y233342D02*
X338026D01*
X334539Y236042D02*
X337925D01*
X336402Y209042D02*
X337874D01*
X336286Y209942D02*
X337871D01*
X334745Y234242D02*
X337843D01*
X334783Y235142D02*
X337810D01*
X325658Y168542D02*
X337523D01*
X314331Y152342D02*
X336875D01*
X326768Y169442D02*
X336839D01*
X327235Y170342D02*
X336473D01*
X314331Y156842D02*
X336436D01*
X327377Y171242D02*
X336336D01*
X314331Y153242D02*
X336044D01*
X314331Y155942D02*
X335851D01*
X314331Y154142D02*
X335688D01*
X314331Y155042D02*
X335629D01*
X328389Y253142D02*
X334181D01*
X314331Y179342D02*
X334025D01*
X327243Y172142D02*
X333885D01*
X329017Y254042D02*
X333552D01*
X329235Y255842D02*
X333335D01*
X329266Y254942D02*
X333304D01*
X314331Y178442D02*
X332777D01*
X326787Y173042D02*
X332715D01*
X314331Y177542D02*
X332142D01*
X325711Y173942D02*
X332108D01*
X314331Y176642D02*
X331808D01*
X314331Y174842D02*
X331792D01*
X314331Y175742D02*
X331697D01*
X324850Y213542D02*
X330704D01*
X328319Y232442D02*
X329968D01*
X329069Y222542D02*
X329845D01*
X325063Y227042D02*
X329788D01*
X326082Y204542D02*
X329737D01*
X328499Y236942D02*
X329683D01*
X327092Y226142D02*
X329109D01*
X327989Y225242D02*
X328770D01*
X325390Y212642D02*
X328744D01*
X276444Y205442D02*
X328385D01*
X325582Y211742D02*
X327857D01*
X257528Y206342D02*
X327644D01*
X325496Y210842D02*
X327325D01*
X257528Y207242D02*
X327198D01*
X325105Y209942D02*
X327022D01*
X257528Y208142D02*
X326963D01*
X324198Y209042D02*
X326907D01*
X257528Y253142D02*
X324181D01*
X257528Y245042D02*
X323803D01*
X316960Y164042D02*
X323669D01*
X257528Y254042D02*
X323552D01*
X278108Y204542D02*
X323544D01*
X314098Y199142D02*
X323468D01*
X257528Y227042D02*
X323348D01*
X322591Y158642D02*
X323343D01*
X257528Y255842D02*
X323335D01*
X257528Y254942D02*
X323304D01*
X314331Y168542D02*
X323096D01*
X314331Y193742D02*
X323093D01*
X314331Y173942D02*
X323043D01*
X257528Y244142D02*
X322894D01*
X257528Y240542D02*
X322723D01*
X257528Y241442D02*
X322608D01*
X257528Y243242D02*
X322502D01*
X278938Y203642D02*
X322427D01*
X257528Y242342D02*
X322416D01*
X279851Y200042D02*
X322400D01*
X257528Y218042D02*
X322248D01*
X314331Y169442D02*
X321987D01*
X314331Y173042D02*
X321968D01*
X279438Y202742D02*
X321957D01*
X279811Y200942D02*
X321946D01*
X279716Y201842D02*
X321813D01*
X257528Y214442D02*
X321711D01*
X314331Y186542D02*
X321612D01*
X314331Y170342D02*
X321519D01*
X314331Y172142D02*
X321511D01*
X314331Y171242D02*
X321377D01*
X257528Y226142D02*
X321318D01*
X305394Y229742D02*
X321301D01*
X314331Y192842D02*
X321274D01*
X257528Y209042D02*
X320975D01*
X257528Y218942D02*
X320917D01*
X314331Y187442D02*
X320686D01*
X314331Y191942D02*
X320506D01*
X306208Y239642D02*
X320487D01*
X257528Y225242D02*
X320422D01*
X257528Y213542D02*
X320324D01*
X314331Y188342D02*
X320184D01*
X257528Y219842D02*
X320184D01*
X314331Y191042D02*
X320089D01*
X257528Y209942D02*
X320068D01*
X314331Y189242D02*
X319942D01*
X314331Y190142D02*
X319912D01*
X257528Y224342D02*
X319884D01*
X306905Y230642D02*
X319791D01*
X257528Y212642D02*
X319784D01*
X257528Y220742D02*
X319743D01*
X257528Y210842D02*
X319677D01*
X257528Y211742D02*
X319591D01*
X257528Y223442D02*
X319578D01*
X257528Y221642D02*
X319511D01*
X257528Y222542D02*
X319458D01*
X307338Y238742D02*
X319358D01*
X307763Y231542D02*
X318933D01*
X314331Y158642D02*
X318832D01*
X308042Y237842D02*
X318654D01*
X317006Y163142D02*
X318631D01*
X308319Y232442D02*
X318376D01*
X308499Y236942D02*
X318197D01*
X315096Y159542D02*
X318079D01*
X308669Y233342D02*
X318026D01*
X316879Y162242D02*
X317989D01*
X308771Y236042D02*
X317925D01*
X308853Y234242D02*
X317843D01*
X308886Y235142D02*
X317810D01*
X316014Y160442D02*
X317760D01*
X316564Y161342D02*
X317733D01*
X285394Y229742D02*
X301301D01*
X286208Y239642D02*
X300487D01*
X286905Y230642D02*
X299791D01*
X287338Y238742D02*
X299358D01*
X287763Y231542D02*
X298933D01*
X288042Y237842D02*
X298654D01*
X288319Y232442D02*
X298376D01*
X288499Y236942D02*
X298197D01*
X288669Y233342D02*
X298026D01*
X288771Y236042D02*
X297925D01*
X288853Y234242D02*
X297843D01*
X288886Y235142D02*
X297810D01*
X257528Y229742D02*
X281301D01*
X257528Y239642D02*
X280487D01*
X257528Y230642D02*
X279791D01*
X257528Y238742D02*
X279358D01*
X257528Y231542D02*
X278933D01*
X257528Y237842D02*
X278654D01*
X264825Y232442D02*
X278376D01*
X265347Y236942D02*
X278197D01*
X265753Y233342D02*
X278026D01*
X265970Y236042D02*
X277925D01*
X266135Y234242D02*
X277843D01*
X266199Y235142D02*
X277810D01*
X257528Y205442D02*
X273677D01*
X257528Y204542D02*
X272014D01*
X257528Y203642D02*
X271184D01*
X257528Y202742D02*
X270683D01*
X257528Y201842D02*
X270405D01*
X257528Y200942D02*
X270311D01*
X261355Y200042D02*
X270271D01*
X257528Y232442D02*
X261871D01*
X257528Y236942D02*
X261349D01*
X257528Y233342D02*
X260943D01*
X257528Y236042D02*
X260726D01*
X257528Y234242D02*
X260561D01*
X257528Y235142D02*
X260496D01*
X100000Y257480D02*
X375591D01*
Y100000*
X100000*
Y257480*
G74*
X0Y0D02*
M02*
