*
*
G04 PADS VX.2.3 Build Number: 9191294 generated Gerber (RS-274-X) file*
G04 PC Version=2.1*
*
%IN "LockBase_ZM_V1.3_201809"*%
*
%MOIN*%
*
%FSLAX35Y35*%
*
*
*
*
G04 PC Standard Apertures*
*
*
G04 Thermal Relief Aperture macro.*
%AMTER*
1,1,$1,0,0*
1,0,$1-$2,0,0*
21,0,$3,$4,0,0,45*
21,0,$3,$4,0,0,135*
%
*
*
G04 Annular Aperture macro.*
%AMANN*
1,1,$1,0,0*
1,0,$2,0,0*
%
*
*
G04 Odd Aperture macro.*
%AMODD*
1,1,$1,0,0*
1,0,$1-0.005,0,0*
%
*
*
G04 PC Custom Aperture Macros*
*
*
*
*
*
*
G04 PC Aperture Table*
*
%ADD010C,0.001*%
%ADD011ANN,0.07087X0.04724*%
%ADD014R,0.03149X0.0378*%
%ADD018R,0.07874X0.07874*%
%ADD021ANN,0.05906X0.03543*%
%ADD022R,0.038X0.038*%
%ADD025ANN,0.15748X0.07874*%
%ADD027C,0.012*%
%ADD028C,0.03*%
%ADD029C,0.02*%
%ADD031C,0.04*%
%ADD032C,0.055*%
%ADD033C,0.01*%
%ADD035R,0.05906X0.04724*%
%ADD078C,0.008*%
*
*
*
*
G04 PC Circuitry*
G04 Layer Name LockBase_ZM_V1.3_201809 - circuitry*
%LPD*%
*
*
G04 PC Custom Flashes*
G04 Layer Name LockBase_ZM_V1.3_201809 - flashes*
%LPD*%
*
*
G04 PC Circuitry*
G04 Layer Name LockBase_ZM_V1.3_201809 - circuitry*
%LPD*%
*
G54D10*
G54D11*
G01X343348Y234894D03*
X323348D03*
X303348D03*
X283348D03*
X263348D03*
X243348D03*
G54D14*
X283752Y223232D03*
Y216933D03*
G54D18*
X219233Y199171D03*
Y214920D03*
X263457Y207460D03*
Y223208D03*
G54D21*
X284810Y107688D03*
X294810D03*
X304810D03*
X314810D03*
X324810D03*
X334810D03*
X344810D03*
X201823Y242364D03*
X191823D03*
X181823D03*
X171823D03*
X144152Y242673D03*
X134152D03*
X203089Y214608D03*
X193089D03*
X183089D03*
X173089D03*
G54D22*
X218885Y236059D03*
Y242359D03*
X336641Y121961D03*
X330341D03*
X181963Y228153D03*
Y234453D03*
X171730Y227920D03*
Y234220D03*
X330358Y129625D03*
X336658D03*
G54D25*
X365791Y109835D03*
Y247630D03*
X109886D03*
Y109835D03*
G54D27*
X321811Y125336D02*
Y128386D01*
X323050Y129625*
X330358*
X321811Y125336D02*
X321807Y125340D01*
X328551Y116545D02*
X330341Y118334D01*
Y121961*
X328551Y116545D02*
X328551D01*
X328551*
X335171Y116608D02*
X336993Y118430D01*
Y121961*
X336641*
X344497Y118220D02*
Y126997D01*
X341870Y129625*
X336658*
X344497Y118220D02*
X344497D01*
G54D28*
X206361Y214608D02*
X218921D01*
X263457Y223208D02*
Y234784D01*
X263348Y234894*
G54D29*
X349440Y102399D02*
X351713Y104672D01*
Y133464*
X349440Y102399D02*
X335664D01*
X334928Y103135*
X334882Y104917*
X351713Y133464D02*
X343611Y141566D01*
Y150181*
X263457Y223208D02*
X263481Y223232D01*
X275518*
X283752*
X218885Y242359D02*
X211178D01*
X211173Y242364*
X204594*
X164388Y117098D03*
X170553Y124247D03*
X273529Y123352D03*
X284738Y125634D03*
X290488Y121156D03*
X321807Y125340D03*
X335171Y116608D03*
X328551Y116545D03*
X344497Y118220D03*
X170553Y135188D03*
X185985Y129911D03*
X219080Y134699D03*
X239150Y133257D03*
X259707Y135526D03*
X294823Y128266D03*
X297498Y132598D03*
X340307Y134000D03*
X163265Y145318D03*
X216307Y141000D03*
X236635Y138870D03*
X232030Y139025D03*
X241822Y139996D03*
X239298Y136994D03*
X242193Y144369D03*
X257360Y141017D03*
X263526Y144758D03*
X278307Y143000D03*
X310369Y139337D03*
X359325Y139600D03*
X369325D03*
X129248Y148987D03*
X136117Y149577D03*
X216307Y149000D03*
X246882Y147066D03*
X250096Y154244D03*
X253834Y151947D03*
X250630Y147159D03*
X263199Y153576D03*
X338618Y154783D03*
X351649Y146010D03*
X150753Y164782D03*
X160993Y155962D03*
X214307Y159000D03*
X208529Y158419D03*
X226307Y163000D03*
X231307Y164000D03*
X241307Y160000D03*
X260363Y158065D03*
X266652Y161583D03*
X263028Y165373D03*
X286870Y162580D03*
X320711Y160980D03*
X324801Y161264D03*
X121077Y175386D03*
X194222Y168938D03*
X202033Y170134D03*
X201251Y166069D03*
X204744Y166756D03*
X233307Y167000D03*
X235307Y169000D03*
X324377Y171255D03*
X142483Y182604D03*
X170554Y178242D03*
X195015Y179292D03*
X202207Y176781D03*
X225394Y179315D03*
X222195Y176648D03*
X123621Y188468D03*
X127312Y190223D03*
X131045Y188278D03*
X177162Y186276D03*
X228115Y195495D03*
X230400Y193474D03*
X246588Y189206D03*
X246882Y186296D03*
X250121Y188388D03*
X247723Y195580D03*
X249740Y193526D03*
X177756Y201214D03*
X244148Y203919D03*
X249825Y197682D03*
X259529Y197661D03*
X324813Y201824D03*
X373391Y201676D03*
X322587Y211573D03*
X373391Y211676D03*
X331801Y224817D03*
X373391Y221676D03*
X331801Y234817D03*
X373391Y231676D03*
X325411Y242509D03*
X364747Y236706D03*
X326285Y255280D03*
X336285D03*
X346285D03*
X355756Y252072D03*
G54D31*
X343611Y150181D02*
Y160748D01*
X343374Y160986*
X352319Y169930*
Y245589*
X348516Y249392*
X263348Y239256D02*
Y246747D01*
X265993Y249392*
X348516*
X187601Y152546D03*
X343665Y155516D03*
X343611Y150181D03*
X368249Y155798D03*
X142325Y161470D03*
X351921Y158010D03*
X365850Y162037D03*
X335697Y175708D03*
X340333Y171389D03*
X359189Y166332D03*
X365246Y173711D03*
X343704Y175919D03*
X359716Y183609D03*
X359241Y175974D03*
X368038Y182661D03*
X283832Y192047D03*
X323899Y189824D03*
X359189Y192037D03*
X366723Y191558D03*
G54D32*
X160040Y105800D03*
X268381Y107265D03*
X120536Y123421D03*
X137121Y122039D03*
X155087Y119620D03*
X197912Y125690D03*
X305005Y124886D03*
X314328Y119792D03*
X114548Y134016D03*
X137864Y137446D03*
X178215Y136391D03*
X110977Y147721D03*
X150900Y150341D03*
X179635Y148324D03*
X228837Y151238D03*
X176701Y165416D03*
X276794Y161152D03*
X312261Y163353D03*
X109250Y172483D03*
X130051Y171005D03*
X273333Y170148D03*
X110513Y195429D03*
X272873Y187078D03*
X205778Y205406D03*
X275061Y200898D03*
X109595Y206343D03*
X137093Y210437D03*
X150293Y214596D03*
X192649Y206672D03*
X331654Y208888D03*
X342601Y209510D03*
X211908Y225552D03*
X324205Y222370D03*
X342816Y222534D03*
X124107Y232371D03*
G54D33*
X314810Y109960D02*
Y114494D01*
X316861Y116545*
X328551*
X324810Y109960D02*
Y112372D01*
X326057Y113619*
X343388*
X344497Y114728*
Y118220*
X346416Y109294D02*
X348755Y111633D01*
Y131482*
X347467Y132770*
X164388Y117098D02*
X164388D01*
X305866*
X315060Y126292*
Y136862*
X215381Y125634D02*
X284738D01*
X293029Y130222D02*
X295394Y132587D01*
X297498*
Y132598*
X293029Y130222D02*
X253274D01*
X246689Y136807*
X239298Y136994*
X294823Y128276D02*
X227166D01*
X227132Y128310*
X215696*
X212238Y131769*
Y157304*
X294823Y128276D02*
X289070Y128266D01*
X294823*
Y128276D02*
Y128266D01*
Y128276*
X294823*
X340307Y134000D02*
Y135491D01*
X338936Y136862*
X315060*
X307284*
X303320Y140826*
X277511*
X267275Y151062*
Y156482*
X265757Y158000*
X260363*
Y158065*
X212238Y157304D02*
X213933Y159000D01*
X214307*
X194222Y168938D02*
X194986Y169033D01*
X197088*
X201955Y173900*
X227330*
X235307Y169000D02*
Y169101D01*
X232129*
X227330Y173900*
X336404Y208888D02*
G75*
G03X336404I-4750J0D01*
G01X307082Y107688D02*
G03X307082I-2272J0D01*
G01X308891Y234894D02*
G03X308891I-5543J0D01*
G01X289870Y162580D02*
G03X289870I-3000J0D01*
G01X287832Y192047D02*
G03X287832I-4000J0D01*
G01X288891Y234894D02*
G03X288891I-5543J0D01*
G01X246210D02*
G03X246210I-2862J0D01*
G01X191601Y152546D02*
G03X191601I-4000J0D01*
G01X166265Y145318D02*
G03X166265I-3000J0D01*
G01X195361Y214608D02*
G03X195361I-2272J0D01*
G01X194095Y242364D02*
G03X194095I-2272J0D01*
G01X374491Y241275D02*
G03X373595Y241581I-500J-0D01*
G01X357251Y242673D02*
G03X373595Y241581I8540J4957D01*
G01X357251Y242673D02*
G03X356319Y242422I-432J-251D01*
G01Y169930*
X355146Y167100D02*
G03X356319Y169930I-2827J2830D01*
G01X355146Y167100D02*
X347758Y159712D01*
G03X347611Y159359I353J-353*
G01Y156212*
G03X347617Y156135I500J0*
G01X347665Y155516D02*
G03X347617Y156135I-4000J-0D01*
G01Y154896D02*
G03X347665Y155516I-3952J620D01*
G01X347617Y154896D02*
G03X347611Y154819I494J-77D01*
G01Y150181*
X346722Y147667D02*
G03X347611Y150181I-3111J2514D01*
G01X346722Y147667D02*
G03X346611Y147353I389J-314D01*
G01Y143016*
G03X346758Y142662I500J-0*
G01X350560Y138860*
G03X350914Y138713I354J353*
G01X373991*
G03X374491Y139213I-0J500*
G01Y241275*
X348319Y243725D02*
G03X348172Y244079I-500J0D01*
G01X347005Y245246*
G03X346652Y245392I-353J-354*
G01X320706*
G03X320206Y244892I-0J-500*
G01Y240329*
G03X320925Y239879I500J0*
G01Y229908D02*
G03Y239879I2423J4986D01*
G01Y229908D02*
G03X320206Y229458I-219J-450D01*
G01Y226284*
G03X321039Y225911I500J-0*
G01Y218829D02*
G03Y225911I3166J3541D01*
G01Y218829D02*
G03X320206Y218456I-333J-373D01*
G01Y164480*
G03X320707Y163980I500J0*
G01X323197Y159301D02*
G03X320707Y163980I-2486J1679D01*
G01X323197Y159301D02*
G03X323111Y159021I414J-280D01*
G01Y149663*
X322408Y147966D02*
G03X323111Y149663I-1697J1697D01*
G01X322408Y147966D02*
X320352Y145910D01*
G03X320206Y145556I354J-354*
G01Y142237*
G03X320706Y141737I500J0*
G01X340111*
G03X340611Y142237I0J500*
G01Y147353*
G03X340500Y147667I-500J-0*
G01X339611Y150181D02*
G03X340500Y147667I4000J0D01*
G01X339611Y150181D02*
Y159544D01*
G03X339585Y159704I-500J0*
G01X340547Y163815D02*
G03X339585Y159704I2827J-2829D01*
G01X340547Y163815D02*
X348172Y171441D01*
G03X348319Y171794I-353J353*
G01Y208929*
G03X347322Y208984I-500J0*
G01Y210036D02*
G03Y208984I-4721J-526D01*
G01Y210036D02*
G03X348319Y210091I497J55D01*
G01Y220942*
G03X347342Y221094I-500J-0*
G01Y223974D02*
G03Y221094I-4526J-1440D01*
G01Y223974D02*
G03X348319Y224126I477J152D01*
G01Y230828*
G03X347449Y231164I-500J-0*
G01Y238623D02*
G03Y231164I-4101J-3729D01*
G01Y238623D02*
G03X348319Y238960I370J337D01*
G01Y243725*
X359502Y256380D02*
X320706D01*
G03X320206Y255880I-0J-500*
G01Y253892*
G03X320706Y253392I500J0*
G01X348516*
X351346Y252219D02*
G03X348516Y253392I-2830J-2827D01*
G01X351346Y252219D02*
X355129Y248436D01*
Y248437D02*
G03X355979Y248734I353J353D01*
G01X359805Y255483D02*
G03X355979Y248734I5986J-7853D01*
G01X359805Y255483D02*
G03X359502Y256380I-303J397D01*
G01X331929Y103057D02*
G03X332232Y101819I2999J78D01*
G01X331929Y103057D02*
X331919Y103430D01*
G03X331730Y103809I-499J-13*
G01X330269Y105712D02*
G03X331730Y103809I4541J1976D01*
G01X330269Y105712D02*
G03X329352I-459J-199D01*
G01X320269D02*
G03X329352I4541J1976D01*
G01X320269D02*
G03X319352I-459J-199D01*
G01X312085Y111824D02*
G03X319352Y105712I2725J-4136D01*
G01X312085Y111824D02*
G03X312310Y112241I-275J417D01*
G01Y114494*
X313042Y116262D02*
G03X312310Y114494I1768J-1768D01*
G01X313042Y116262D02*
X315093Y118313D01*
X316861Y119045D02*
G03X315093Y118313I0J-2500D01*
G01X316861Y119045D02*
X325995D01*
G03X326484Y119648I-0J500*
G01X326441Y120061D02*
G03X326484Y119648I2000J-0D01*
G01X326441Y120061D02*
Y123861D01*
X327178Y125412D02*
G03X326441Y123861I1263J-1551D01*
G01X327178Y125412D02*
G03X327182Y126185I-315J388D01*
G01X326703Y126765D02*
G03X327182Y126185I1755J960D01*
G01X326703Y126765D02*
G03X326265Y127025I-438J-240D01*
G01X325101*
G03X324630Y126355I-0J-500*
G01X324807Y125340D02*
G03X324630Y126355I-3000J0D01*
G01X324807Y125340D02*
X324807D01*
X319153Y126739D02*
G03X324807Y125340I2654J-1399D01*
G01X319153Y126739D02*
G03X319211Y126972I-442J233D01*
G01Y128386*
X319973Y130224D02*
G03X319211Y128386I1838J-1838D01*
G01X319973Y130224D02*
X321211Y131463D01*
X323050Y132225D02*
G03X321211Y131463I-0J-2600D01*
G01X323050Y132225D02*
X326265D01*
G03X326703Y132485I-0J500*
G01X327749Y133395D02*
G03X326703Y132485I709J-1870D01*
G01X327749Y133395D02*
G03X327571Y134362I-178J467D01*
G01X318060*
G03X317560Y133862I0J-500*
G01Y126292*
X316828Y124524D02*
G03X317560Y126292I-1768J1768D01*
G01X316828Y124524D02*
X307634Y115330D01*
X305866Y114598D02*
G03X307634Y115330I0J2500D01*
G01X305866Y114598D02*
X231467D01*
G03X230967Y114098I0J-500*
G01Y101600*
G03X231467Y101100I500J0*
G01X331783*
G03X332232Y101819I-0J500*
G01X316008Y255880D02*
G03X315508Y256380I-500J0D01*
G01X116174*
G03X115871Y255483I0J-500*
G01X101999Y241688D02*
G03X115871Y255483I7887J5942D01*
G01X101999Y241688D02*
G03X101100Y241387I-399J-301D01*
G01Y116077*
G03X101999Y115776I500J0*
G01X119760Y109835D02*
G03X101999Y115776I-9874J-0D01*
G01X115891Y101997D02*
G03X119760Y109835I-6005J7838D01*
G01X115891Y101997D02*
G03X116195Y101100I304J-397D01*
G01X174939*
G03X175439Y101600I0J500*
G01Y114098*
G03X174939Y114598I-500J-0*
G01X166191*
G03X165933Y114527I-0J-500*
G01Y119669D02*
G03Y114527I-1545J-2571D01*
G01Y119669D02*
G03X166191Y119598I258J429D01*
G01X170627*
G03X171127Y120098I0J500*
X170981Y120452I-500J0*
G01X170275Y121158*
G03X170012Y121296I-354J-354*
G01X168712Y126616D02*
G03X170012Y121296I1841J-2369D01*
G01X168712Y126616D02*
G03X168906Y127011I-306J395D01*
X168406Y127511I-500J-0*
G01X131825*
X130128Y128214D02*
G03X131825Y127511I1697J1697D01*
G01X130128Y128214D02*
X127551Y130791D01*
X126848Y132488D02*
G03X127551Y130791I2400J0D01*
G01X126848Y132488D02*
Y147027D01*
G03X126762Y147307I-500J0*
G01X132147Y149758D02*
G03X126762Y147307I-2899J-771D01*
G01X132147Y149758D02*
G03X133129Y149842I483J128D01*
G01X135863Y152566D02*
G03X133129Y149842I254J-2989D01*
G01X135863Y152566D02*
G03X136117Y152661I-42J499D01*
X136370Y152566I296J404*
G01X133218Y148806D02*
G03X136370Y152566I2899J771D01*
G01X133218Y148806D02*
G03X132236Y148722I-484J-128D01*
G01X131734Y147307D02*
G03X132236Y148722I-2486J1680D01*
G01X131734Y147307D02*
G03X131648Y147027I414J-280D01*
G01Y133689*
G03X131794Y133336I500J0*
G01X131794D02*
X132673Y132457D01*
G03X133026Y132311I353J354*
G01X167983*
G03X168350Y133151I0J500*
G01X168067Y136867D02*
G03X168350Y133151I2486J-1679D01*
G01X168067Y136867D02*
G03X168152Y137147I-415J280D01*
G01Y159193*
X168154Y159266D02*
G03X168152Y159193I2398J-73D01*
G01X168154Y159266D02*
G03Y159281I-500J15D01*
G01Y176282*
G03X168068Y176562I-500J-0*
G01X173040D02*
G03X168068I-2486J1679D01*
G01X173040D02*
G03X172954Y176282I414J-280D01*
G01Y158226*
X172953Y158153D02*
G03X172954Y158226I-2399J73D01*
G01X172953Y158153D02*
G03Y158138I500J-15D01*
G01Y137147*
G03X173038Y136867I500J0*
G01X173553Y135188D02*
G03X173038Y136867I-3000J-0D01*
G01X172755Y133151D02*
G03X173553Y135188I-2202J2037D01*
G01X172755Y133151D02*
G03X173122Y132311I367J-340D01*
G01X184025*
G03X184305Y132397I0J500*
G01Y127425D02*
G03Y132397I1680J2486D01*
G01Y127425D02*
G03X184025Y127511I-280J-414D01*
G01X172699*
G03X172393Y126616I0J-500*
G01X173492Y124846D02*
G03X172393Y126616I-2939J-599D01*
G01X173492Y124846D02*
G03X173628Y124592I490J100D01*
G01X176796Y121425*
G03X177149Y121278I353J353*
G01X287009*
G03X287363Y121425I0J500*
G01X287405Y121468*
G03X287543Y121726I-353J353*
G01X293488Y121156D02*
G03X287543Y121726I-3000J0D01*
G01X293348Y120249D02*
G03X293488Y121156I-2860J907D01*
G01X293348Y120249D02*
G03X293824Y119598I476J-151D01*
G01X304623*
G03X304977Y119744I0J500*
G01X312414Y127181*
G03X312560Y127535I-354J354*
G01Y133862*
G03X312060Y134362I-500J0*
G01X307284*
X305516Y135094D02*
G03X307284Y134362I1768J1768D01*
G01X305516Y135094D02*
X302431Y138179D01*
G03X302078Y138326I-353J-353*
G01X277511*
X275744Y139058D02*
G03X277511Y138326I1767J1768D01*
G01X275744Y139058D02*
X265507Y149294D01*
X264861Y150411D02*
G03X265507Y149294I2414J651D01*
G01X264861Y150411D02*
G03X264210Y150751I-482J-130D01*
G01X263769Y150631D02*
G03X264210Y150751I-570J2945D01*
G01X263769Y150631D02*
G03X263511Y150493I95J-491D01*
G01X262254Y149236*
G03X262107Y148883I353J-353*
G01Y137486*
G03X262193Y137206I500J-0*
G01X261966Y133551D02*
G03X262193Y137206I-2259J1975D01*
G01X261966Y133551D02*
G03X261842Y133222I376J-329D01*
X262342Y132722I500J0*
G01X291786*
G03X292140Y132869I0J500*
G01X293626Y134355*
X295394Y135087D02*
G03X293626Y134355I-0J-2500D01*
G01X295394Y135087D02*
X295677D01*
G03X295937Y135160I0J500*
G01X298104Y129660D02*
G03X295937Y135160I-606J2938D01*
G01X298104Y129660D02*
G03X297704Y129170I100J-490D01*
G01X297704*
G03X297721Y129041I500J-0*
G01X293278Y125694D02*
G03X297721Y129041I1545J2572D01*
G01X293278Y125694D02*
G03X293020Y125766I-258J-428D01*
G01X289070*
X288861Y125775D02*
G03X289070Y125766I209J2491D01*
G01X288861Y125775D02*
G03X288819Y125776I-42J-499D01*
G01X288220*
G03X287723Y125328I0J-500*
G01X283193Y123063D02*
G03X287723Y125328I1545J2571D01*
G01X283193Y123063D02*
G03X282936Y123134I-257J-429D01*
G01X215381*
X213219Y124378D02*
G03X215381Y123134I2162J1256D01*
G01X213219Y124378D02*
G03X213140Y124480I-432J-251D01*
G01X206847Y130774*
X206144Y132471D02*
G03X206847Y130774I2400J-0D01*
G01X206144Y132471D02*
Y156050D01*
G03X206141Y156101I-500J0*
G01X206129Y156345D02*
G03X206141Y156101I2400J-0D01*
G01X206129Y156345D02*
Y156459D01*
G03X206043Y156739I-500J0*
G01X210838Y160334D02*
G03X206043Y156739I-2309J-1915D01*
G01X210838Y160334D02*
G03X211663Y160417I384J320D01*
G01X215105Y156108D02*
G03X211663Y160417I-798J2892D01*
G01X215105Y156108D02*
G03X214738Y155626I133J-482D01*
G01Y152333*
G03X215390Y151857I500J-0*
G01Y146143D02*
G03Y151857I917J2857D01*
G01Y146143D02*
G03X214738Y145667I-152J-476D01*
G01Y144333*
G03X215390Y143857I500J-0*
G01X217993Y138519D02*
G03X215390Y143857I-1686J2481D01*
G01X217993Y138519D02*
G03X218389Y137618I281J-414D01*
G01X218510Y137644D02*
G03X218389Y137618I570J-2945D01*
G01X218510Y137644D02*
G03X218768Y137782I-95J491D01*
G01X219367Y138380*
X221064Y139083D02*
G03X219367Y138380I-0J-2400D01*
G01X221064Y139083D02*
X228575D01*
G03X229068Y139503I-0J500*
G01X229699Y140914D02*
G03X229068Y139503I2331J-1889D01*
G01X229699Y140914D02*
G03X229810Y141201I-389J315D01*
G01X230509Y142765D02*
G03X229810Y141201I1697J-1697D01*
G01X230509Y142765D02*
X231711Y143967D01*
X233408Y144670D02*
G03X231711Y143967I0J-2400D01*
G01X233408Y144670D02*
X238786D01*
G03X239273Y145056I-0J500*
G01X241405Y147263D02*
G03X239273Y145056I788J-2894D01*
G01X241405Y147263D02*
G03X241773Y147746I-132J483D01*
G01Y156500*
G03X241278Y157000I-500J0*
G01Y163000D02*
G03Y157000I29J-3000D01*
G01Y163000D02*
G03X241773Y163500I-5J500D01*
G01Y201923*
G03X241684Y202208I-500J-0*
G01X247148Y203919D02*
G03X241684Y202208I-3000J-0D01*
G01X246655Y202271D02*
G03X247148Y203919I-2507J1648D01*
G01X246655Y202271D02*
G03X246573Y201996I418J-275D01*
G01Y199845*
G03X247466Y199536I500J-0*
G01X251505Y200168D02*
G03X247466Y199536I-1680J-2486D01*
G01X251505Y200168D02*
G03X251785Y200082I280J414D01*
G01X257600*
G03X257876Y200165I0J500*
G01X258984Y200612D02*
G03X257876Y200165I545J-2951D01*
G01X258984Y200612D02*
G03X259019Y201587I-91J491D01*
G01X257520Y203523D02*
G03X259019Y201587I2000J0D01*
G01X257520Y203523D02*
Y211397D01*
X259520Y213397D02*
G03X257520Y211397I0J-2000D01*
G01X259520Y213397D02*
X267394D01*
X269394Y211397D02*
G03X267394Y213397I-2000J0D01*
G01X269394Y211397D02*
Y203523D01*
X267394Y201523D02*
G03X269394Y203523I0J2000D01*
G01X267394Y201523D02*
X260502D01*
G03X260363Y200543I0J-500*
G01X262450Y198345D02*
G03X260363Y200543I-2921J-684D01*
G01X262450Y198345D02*
G03X262876Y197962I487J114D01*
G01X264280Y197277D02*
G03X262876Y197962I-1698J-1697D01*
G01X264280Y197277D02*
X268349Y193208D01*
X269052Y191510D02*
G03X268349Y193208I-2400J0D01*
G01X269052Y191510D02*
Y163542D01*
G03X269138Y163262I500J0*
G01X269652Y161583D02*
G03X269138Y163262I-3000J-0D01*
G01X268670Y159363D02*
G03X269652Y161583I-2018J2220D01*
G01X268670Y159363D02*
G03X268507Y158993I337J-370D01*
X268653Y158639I500J-0*
G01X269043Y158250*
X269775Y156482D02*
G03X269043Y158250I-2500J0D01*
G01X269775Y156482D02*
Y152305D01*
G03X269922Y151951I500J-0*
G01X276198Y145675*
G03X276803Y145595I354J353*
G01X279987Y145486D02*
G03X276803Y145595I-1680J-2486D01*
G01X279987Y145486D02*
G03X280267Y145400I280J414D01*
G01X312847*
G03X313201Y145546I0J500*
G01X315862Y148207*
G03X316008Y148561I-354J354*
G01Y244892*
G03X315508Y245392I-500J0*
G01X267857*
G03X267504Y245246I0J-500*
G01X267494Y245236*
G03X267348Y244883I354J-353*
G01Y238928*
G03X267475Y238594I500J-0*
G01X268891Y234894D02*
G03X267475Y238594I-5543J-0D01*
G01X268891Y234894D02*
X268891D01*
X267117Y230829D02*
G03X268891Y234894I-3769J4065D01*
G01X267117Y230829D02*
G03X266957Y230463I340J-366D01*
G01Y229645*
G03X267445Y229145I500J-0*
G01X269394Y227145D02*
G03X267445Y229145I-2000J0D01*
G01X269394Y227145D02*
Y226732D01*
G03X269894Y226232I500J-0*
G01X270339*
G03X270784Y226504I0J500*
G01X272565Y227594D02*
G03X270784Y226504I0J-2000D01*
G01X272565Y227594D02*
X278471D01*
X280121Y226724D02*
G03X278471Y227594I-1650J-1130D01*
G01X280121Y226724D02*
G03X280862Y226629I413J282D01*
G01X282177Y227122D02*
G03X280862Y226629I-0J-2000D01*
G01X282177Y227122D02*
X285326D01*
X287326Y225122D02*
G03X285326Y227122I-2000J-0D01*
G01X287326Y225122D02*
Y221342D01*
X287054Y220334D02*
G03X287326Y221342I-1728J1008D01*
G01X287054Y220334D02*
G03Y219831I432J-252D01*
G01X287326Y218823D02*
G03X287054Y219831I-2000J0D01*
G01X287326Y218823D02*
Y215043D01*
X285326Y213043D02*
G03X287326Y215043I0J2000D01*
G01X285326Y213043D02*
X282177D01*
X281212Y213291D02*
G03X282177Y213043I965J1752D01*
G01X281212Y213291D02*
G03X280471Y212853I-241J-438D01*
G01Y209846*
X278471Y207846D02*
G03X280471Y209846I-0J2000D01*
G01X278471Y207846D02*
X272565D01*
X270565Y209846D02*
G03X272565Y207846I2000J-0D01*
G01X270565Y209846D02*
Y214570D01*
X272523Y216570D02*
G03X270565Y214570I42J-2000D01*
G01X272523Y216570D02*
G03X273012Y217070I-11J500D01*
G01Y218370*
G03X272523Y218870I-500J0*
G01X270784Y219959D02*
G03X272523Y218870I1781J911D01*
G01X270784Y219959D02*
G03X270339Y220232I-445J-227D01*
G01X269894*
G03X269394Y219732I0J-500*
G01Y219271*
X267394Y217271D02*
G03X269394Y219271I0J2000D01*
G01X267394Y217271D02*
X259520D01*
X257520Y219271D02*
G03X259520Y217271I2000J0D01*
G01X257520Y219271D02*
Y227145D01*
X259470Y229145D02*
G03X257520Y227145I50J-2000D01*
G01X259470Y229145D02*
G03X259957Y229645I-13J500D01*
G01Y230269*
G03X259779Y230652I-500J0*
G01X259220Y238594D02*
G03X259779Y230652I4128J-3700D01*
G01X259220Y238594D02*
G03X259348Y238928I-372J334D01*
G01Y246747*
X260519Y249575D02*
G03X259348Y246747I2829J-2828D01*
G01X260519Y249575D02*
X263165Y252221D01*
X265993Y253392D02*
G03X263165Y252221I0J-4000D01*
G01X265993Y253392D02*
X315508D01*
G03X316008Y253892I0J500*
G01Y255880*
X280177Y218680D02*
G03X279436Y219118I-500J-0D01*
G01X278513Y218870D02*
G03X279436Y219118I-42J2000D01*
G01X278513Y218870D02*
G03X278024Y218370I11J-500D01*
G01Y217070*
G03X278513Y216570I500J-0*
G01X279436Y216322D02*
G03X278513Y216570I-965J-1752D01*
G01X279436Y216322D02*
G03X280177Y216760I241J438D01*
G01Y218680*
X257222Y137206D02*
G03X257449Y133551I2485J-1680D01*
G01X257222Y137206D02*
G03X257307Y137486I-415J280D01*
G01Y137561*
G03X256886Y138055I-500J-0*
G01X254874Y142697D02*
G03X256886Y138055I2486J-1680D01*
G01X254874Y142697D02*
G03X254960Y142977I-414J280D01*
G01Y187451*
G03X254813Y187805I-500J-0*
G01X253973Y188645*
G03X253120Y188305I-354J-354*
G01X252585Y186678D02*
G03X253120Y188305I-2464J1710D01*
G01X252585Y186678D02*
G03X252496Y186392I411J-286D01*
G01Y156204*
G03X252582Y155924I500J-0*
G01X249827Y151256D02*
G03X252582Y155924I269J2988D01*
G01X249827Y151256D02*
G03X249282Y150758I-45J-498D01*
G01Y150555*
G03X249904Y150069I500J-0*
G01X249087Y144586D02*
G03X249904Y150069I1543J2573D01*
G01X249087Y144586D02*
G03X248551Y144573I-258J-428D01*
G01X245867Y144243D02*
G03X248551Y144573I1015J2823D01*
G01X245867Y144243D02*
G03X245345Y144126I-169J-470D01*
G01X245276Y144057*
G03X245138Y143799I353J-353*
G01X244363Y142297D02*
G03X245138Y143799I-2170J2072D01*
G01X244363Y142297D02*
G03X244310Y141672I362J-345D01*
G01X244822Y139996D02*
G03X244310Y141672I-3000J-0D01*
G01X244822Y139996D02*
X244822D01*
X244819Y139864D02*
G03X244822Y139996I-2997J132D01*
G01X244819Y139864D02*
G03Y139843I500J-21D01*
G01X244819*
G03X245306Y139343I500J-0*
G01X246752Y139306*
X248457Y138575D02*
G03X246752Y139306I-1768J-1768D01*
G01X248457Y138575D02*
X254163Y132869D01*
G03X254516Y132722I353J353*
G01X257072*
G03X257449Y133551I0J500*
G01X236150Y133257D02*
G03X236677Y131559I3000J-0D01*
G01X236237Y133973D02*
G03X236150Y133257I2913J-716D01*
G01X236237Y133973D02*
G03X236252Y134092I-485J119D01*
X235527Y134539I-500J0*
G01X234448Y134283D02*
G03X235527Y134539I0J2400D01*
G01X234448Y134283D02*
X222458D01*
G03X221975Y133914I-0J-500*
G01X219830Y131794D02*
G03X221975Y133914I-750J2905D01*
G01X219830Y131794D02*
G03X219955Y130810I125J-484D01*
G01X227132*
X227506Y130782D02*
G03X227132Y130810I-374J-2472D01*
G01X227506Y130782D02*
G03X227581Y130776I75J494D01*
G01X236264*
G03X236677Y131559I0J500*
G01X217394Y137180D02*
G03X218329Y131794I1686J-2481D01*
G01X217394Y137180D02*
G03X216998Y138081I-281J414D01*
G01X215390Y138143D02*
G03X216998Y138081I917J2857D01*
G01X215390Y138143D02*
G03X214738Y137667I-152J-476D01*
G01Y133011*
G03X214884Y132658I500J0*
G01X216585Y130957*
G03X216939Y130810I354J353*
G01X218204*
G03X218329Y131794I0J500*
G01X336404Y208888D02*
G03X336404I-4750J0D01*
G01X307082Y107688D02*
G03X307082I-2272J0D01*
G01X290269Y105712D02*
G03X289352I-459J-199D01*
G01Y109664D02*
G03Y105712I-4542J-1976D01*
G01Y109664D02*
G03X290269I458J199D01*
G01Y105712D02*
G03Y109664I4541J1976D01*
G01X308891Y234894D02*
G03X308891I-5543J0D01*
G01X289870Y162580D02*
G03X289870I-3000J0D01*
G01X287832Y192047D02*
G03X287832I-4000J0D01*
G01X288891Y234894D02*
G03X288891I-5543J0D01*
G01X246210D02*
G03X246210I-2862J0D01*
G01X239295Y232073D02*
Y178966D01*
X238592Y177270D02*
G03X239295Y178966I-1697J1697D01*
G01X238592Y177270D02*
X236359Y175037D01*
X234662Y174334D02*
G03X236359Y175037I0J2400D01*
G01X234662Y174334D02*
X231638D01*
G03X231138Y173834I-0J-500*
X231284Y173481I500J0*
G01X233018Y171748*
G03X233371Y171601I353J353*
G01X233684*
G03X233916Y171658I0J500*
G01X236390Y166202D02*
G03X233916Y171658I-1083J2798D01*
G01X236390Y166202D02*
G03X236105Y165917I181J-466D01*
G01X234590Y164288D02*
G03X236105Y165917I-1283J2712D01*
G01X234590Y164288D02*
G03X234304Y163859I213J-452D01*
G01X229567Y161556D02*
G03X234304Y163859I1740J2444D01*
G01X229567Y161556D02*
G03X228853Y161413I-290J-407D01*
G01X223664Y164419D02*
G03X228853Y161413I2643J-1419D01*
G01X223664Y164419D02*
G03X223577Y165009I-440J237D01*
G01X222507Y166080*
G03X222153Y166226I-354J-354*
G01X211657*
G03X211303Y166080I-0J-500*
G01X208282Y163059*
X206585Y162356D02*
G03X208282Y163059I0J2400D01*
G01X206585Y162356D02*
X202564D01*
X200930Y162998D02*
G03X202564Y162356I1634J1758D01*
G01X200930Y162998D02*
G03X200684Y163123I-341J-366D01*
G01X198251Y166069D02*
G03X200684Y163123I3000J-0D01*
G01X198251Y166101D02*
G03Y166069I3000J-32D01*
G01Y166101D02*
G03Y166107I-500J6D01*
G01X198251*
G03X197640Y166595I-500J-0*
G01X197088Y166533D02*
G03X197640Y166595I-0J2500D01*
G01X197088Y166533D02*
X196173D01*
G03X195894Y166448I0J-500*
G01X195617Y171594D02*
G03X195894Y166448I-1395J-2656D01*
G01X195617Y171594D02*
G03X196203Y171683I232J443D01*
G01X200187Y175668*
X201955Y176400D02*
G03X200187Y175668I0J-2500D01*
G01X201955Y176400D02*
X218704D01*
G03X219202Y176864I-0J500*
G01X219572Y178105D02*
G03X219202Y176864I2623J-1457D01*
G01X219572Y178105D02*
G03X219135Y178848I-437J243D01*
G01X198385*
G03X197903Y178483I-0J-500*
G01X194445Y182238D02*
G03X197903Y178483I570J-2946D01*
G01X194445Y182238D02*
G03X194703Y182375I-95J491D01*
G01X195273Y182945*
X196970Y183648D02*
G03X195273Y182945I0J-2400D01*
G01X196970Y183648D02*
X223460D01*
X225158Y182945D02*
G03X223460Y183648I-1697J-1697D01*
G01X225158Y182945D02*
X225705Y182398D01*
G03X225964Y182260I354J353*
G01X228381Y179589D02*
G03X225964Y182260I-2987J-274D01*
G01X228381Y179589D02*
G03X228879Y179134I498J45D01*
G01X233461*
G03X233815Y179281I0J500*
G01X234349Y179815*
G03X234495Y180168I-354J353*
G01Y230872*
G03X234349Y231226I-500J0*
G01X232113Y233461*
G03X231759Y233608I-354J-353*
G01X223053*
G03X222599Y233318I0J-500*
G01X220785Y232159D02*
G03X222599Y233318I-0J2000D01*
G01X220785Y232159D02*
X216985D01*
X214985Y234159D02*
G03X216985Y232159I2000J0D01*
G01X214985Y234159D02*
Y237959D01*
X215119Y238679D02*
G03X214985Y237959I1866J-720D01*
G01X215119Y238679D02*
G03X214652Y239359I-467J180D01*
G01X211178*
X211028Y239363D02*
G03X211178Y239359I150J2996D01*
G01X211028Y239363D02*
G03X211004I-24J-500D01*
G01X206004*
G03X205621Y239184I0J-500*
G01Y245543D02*
G03Y239184I-3798J-3179D01*
G01Y245543D02*
G03X206004Y245364I383J321D01*
G01X211173*
X211322Y245360D02*
G03X211173Y245364I-149J-2996D01*
G01X211322Y245360D02*
G03X211347Y245359I25J499D01*
G01X215064*
G03X215448Y245539I-0J500*
G01X216985Y246259D02*
G03X215448Y245539I-0J-2000D01*
G01X216985Y246259D02*
X220785D01*
X222785Y244259D02*
G03X220785Y246259I-2000J0D01*
G01X222785Y244259D02*
Y240459D01*
X222517Y239459D02*
G03X222785Y240459I-1732J1000D01*
G01X222517Y239459D02*
G03X222450Y239209I433J-250D01*
X222517Y238959I500J0*
G01X222635Y238718D02*
G03X222517Y238959I-1850J-759D01*
G01X222635Y238718D02*
G03X223098Y238408I463J190D01*
G01X232961*
X234658Y237705D02*
G03X232961Y238408I-1697J-1697D01*
G01X234658Y237705D02*
X238592Y233771D01*
X239295Y232073D02*
G03X238592Y233771I-2400J0D01*
G01X191601Y152546D02*
G03X191601I-4000J0D01*
G01X166265Y145318D02*
G03X166265I-3000J0D01*
G01X159310Y153478D02*
G03X159030Y153564I-280J-413D01*
G01Y153565D02*
X136413D01*
G03X136117Y153468I-0J-500*
X135821Y153565I-296J-403*
G01X122752*
X121055Y154267D02*
G03X122752Y153565I1697J1698D01*
G01X121055Y154267D02*
X119380Y155942D01*
X118677Y157639D02*
G03X119380Y155942I2400J0D01*
G01X118677Y157639D02*
Y173426D01*
G03X118592Y173706I-500J0*
G01X123563D02*
G03X118592I-2486J1680D01*
G01X123563D02*
G03X123477Y173426I414J-280D01*
G01Y158865*
G03X123977Y158365I500J-0*
G01X138656*
G03X139156Y158865I0J500*
X139064Y159154I-500J-0*
G01X145586D02*
G03X139064I-3261J2316D01*
G01X145586D02*
G03X145494Y158865I408J-289D01*
X145994Y158365I500J-0*
G01X159036*
G03X159316Y158450I0J500*
G01X159310Y153478D02*
G03X159316Y158450I1683J2484D01*
G01X231412Y190650D02*
G03X231227Y190533I169J-471D01*
G01X227875Y187181*
X226178Y186478D02*
G03X227875Y187181I0J2400D01*
G01X226178Y186478D02*
X180649D01*
G03X180151Y186020I0J-500*
G01X175457Y183807D02*
G03X180151Y186020I1705J2469D01*
G01X175457Y183807D02*
G03X175173Y183896I-284J-411D01*
G01X148942*
G03X148827Y182909I-0J-500*
G01X149971Y182271D02*
G03X148827Y182909I-1697J-1697D01*
G01X149971Y182271D02*
X152450Y179792D01*
X153153Y178094D02*
G03X152450Y179792I-2400J0D01*
G01X153153Y178094D02*
Y166742D01*
G03X153239Y166462I500J-0*
G01X148268D02*
G03X153239I2485J-1680D01*
G01X148268D02*
G03X148353Y166742I-415J280D01*
G01Y176893*
G03X148207Y177247I-500J0*
G01X147426Y178027*
G03X147073Y178174I-353J-353*
G01X143427*
X141730Y178877D02*
G03X143427Y178174I1697J1697D01*
G01X141730Y178877D02*
X140786Y179821D01*
X140308Y180504D02*
G03X140786Y179821I2175J1014D01*
G01X140308Y180504D02*
G03X140230Y180623I-453J-212D01*
G01X140654Y184982D02*
G03X140230Y180623I1829J-2378D01*
G01X140654Y184982D02*
G03X140349Y185878I-305J396D01*
G01X133004*
G03X132724Y185792I0J-500*
G01X128337Y186986D02*
G03X132724Y185792I2708J1292D01*
G01X128337Y186986D02*
G03X127804Y187264I-451J-215D01*
G01X126776Y187272D02*
G03X127804Y187264I536J2951D01*
G01X126776Y187272D02*
G03X126248Y187021I-90J-492D01*
G01X121135Y190148D02*
G03X126248Y187021I2486J-1680D01*
G01X121135Y190148D02*
G03X121221Y190428I-414J280D01*
G01Y197963*
X121924Y199660D02*
G03X121221Y197963I1697J-1697D01*
G01X121924Y199660D02*
X125206Y202942D01*
X126903Y203645D02*
G03X125206Y202942I-0J-2400D01*
G01X126903Y203645D02*
X172018D01*
X172033D02*
G03X172018I-13J-2400D01*
G01X172033D02*
X175809Y203625D01*
G03X176089Y203709I3J500*
G01X176062Y198738D02*
G03X176089Y203709I1694J2476D01*
G01X176062Y198738D02*
G03X175783Y198825I-282J-413D01*
G01X172014Y198845*
X172012*
X128104*
G03X127751Y198699I0J-500*
G01X126167Y197116*
G03X126021Y196762I354J-354*
G01Y193633*
G03X126634Y193146I500J-0*
G01X128992Y192709D02*
G03X126634Y193146I-1680J-2486D01*
G01X128992Y192709D02*
G03X129272Y192623I280J414D01*
G01X129990*
G03X130087Y192633I-0J500*
G01X130551Y192678D02*
G03X130087Y192633I0J-2400D01*
G01X130551Y192678D02*
X213874D01*
G03X214159Y193589I0J500*
G01X213296Y195234D02*
G03X214159Y193589I2000J0D01*
G01X213296Y195234D02*
Y203108D01*
X215296Y205109D02*
G03X213296Y203108I0J-2001D01*
G01X215296Y205109D02*
X223170D01*
X225170Y203108D02*
G03X223170Y205109I-2000J0D01*
G01X225170Y203108D02*
Y198000D01*
G03X226019Y197642I500J-0*
G01X230883Y196652D02*
G03X226019Y197642I-2768J-1157D01*
G01X230883Y196652D02*
G03X231209Y196363I461J192D01*
G01X231412Y190650D02*
G03X231209Y196363I-1012J2824D01*
G01X225170Y218857D02*
Y210983D01*
X223170Y208982D02*
G03X225170Y210983I0J2001D01*
G01X223170Y208982D02*
X215296D01*
X213319Y210683D02*
G03X215296Y208982I1977J300D01*
G01X213319Y210683D02*
G03X212824Y211108I-495J-75D01*
G01X206795*
G03X206455Y210974I-0J-500*
G01X200501Y218830D02*
G03X206455Y210974I2588J-4222D01*
G01X200501Y218830D02*
G03X200740Y219257I-261J427D01*
G01Y222681*
G03X200594Y223034I-500J-0*
G01X198021Y225607*
G03X197668Y225753I-353J-354*
G01X186155*
G03X185696Y225453I-0J-500*
G01X183863Y224253D02*
G03X185696Y225453I0J2000D01*
G01X183863Y224253D02*
X180063D01*
X178324Y225266D02*
G03X180063Y224253I1739J987D01*
G01X178324Y225266D02*
G03X177889Y225520I-435J-246D01*
G01X175921*
G03X175463Y225220I-0J-500*
G01X173630Y224020D02*
G03X175463Y225220I-0J2000D01*
G01X173630Y224020D02*
X169830D01*
X167830Y226020D02*
G03X169830Y224020I2000J-0D01*
G01X167830Y226020D02*
Y229820D01*
X168098Y230820D02*
G03X167830Y229820I1732J-1000D01*
G01X168098Y230820D02*
G03Y231320I-433J250D01*
G01X167830Y232320D02*
G03X168098Y231320I2000J-0D01*
G01X167830Y232320D02*
Y236120D01*
X168659Y237741D02*
G03X167830Y236120I1171J-1621D01*
G01X168659Y237741D02*
G03X168683Y238533I-293J405D01*
G01X176364Y244340D02*
G03X168683Y238533I-4541J-1976D01*
G01X176364Y244340D02*
G03X177281I459J199D01*
G01X185114Y238662D02*
G03X177281Y244340I-3291J3702D01*
G01X185114Y238662D02*
G03X185129Y237901I332J-374D01*
G01X185863Y236353D02*
G03X185129Y237901I-2000J0D01*
G01X185863Y236353D02*
Y232553D01*
X185595Y231553D02*
G03X185863Y232553I-1732J1000D01*
G01X185595Y231553D02*
G03X185528Y231303I433J-250D01*
X185595Y231053I500J0*
G01X185696Y230853D02*
G03X185595Y231053I-1833J-800D01*
G01X185696Y230853D02*
G03X186155Y230553I459J200D01*
G01X198869*
X200566Y229850D02*
G03X198869Y230553I-1697J-1697D01*
G01X200566Y229850D02*
X204837Y225579D01*
X205540Y223882D02*
G03X204837Y225579I-2400J-0D01*
G01X205540Y223882D02*
Y219193D01*
G03X205769Y218773I500J-0*
G01X206455Y218241D02*
G03X205769Y218773I-3366J-3633D01*
G01X206455Y218241D02*
G03X206795Y218108I340J367D01*
G01X212796*
G03X213296Y218608I0J500*
G01Y218857*
X215296Y220857D02*
G03X213296Y218857I0J-2000D01*
G01X215296Y220857D02*
X223170D01*
X225170Y218857D02*
G03X223170Y220857I-2000J-0D01*
G01X195361Y214608D02*
G03X195361I-2272J0D01*
G01X178548Y212632D02*
G03X177631I-459J-200D01*
G01Y216584D02*
G03Y212632I-4542J-1976D01*
G01Y216584D02*
G03X178548I458J199D01*
G01Y212632D02*
G03Y216584I4541J1976D01*
G01X194095Y242364D02*
G03X194095I-2272J0D01*
G01X139610Y240697D02*
G03X138693I-458J-200D01*
G01Y244649D02*
G03Y240697I-4541J-1976D01*
G01Y244649D02*
G03X139610I459J199D01*
G01Y240697D02*
G03Y244649I4542J1976D01*
G01X372529Y240412D02*
X374491D01*
X371412Y239512D02*
X374491D01*
X369812Y238612D02*
X374491D01*
X356319Y237712D02*
X374491D01*
X356319Y236812D02*
X374491D01*
X356319Y235912D02*
X374491D01*
X356319Y235012D02*
X374491D01*
X356319Y234112D02*
X374491D01*
X356319Y233212D02*
X374491D01*
X356319Y232312D02*
X374491D01*
X356319Y231412D02*
X374491D01*
X356319Y230512D02*
X374491D01*
X356319Y229612D02*
X374491D01*
X356319Y228712D02*
X374491D01*
X356319Y227812D02*
X374491D01*
X356319Y226912D02*
X374491D01*
X356319Y226012D02*
X374491D01*
X356319Y225112D02*
X374491D01*
X356319Y224212D02*
X374491D01*
X356319Y223312D02*
X374491D01*
X356319Y222412D02*
X374491D01*
X356319Y221512D02*
X374491D01*
X356319Y220612D02*
X374491D01*
X356319Y219712D02*
X374491D01*
X356319Y218812D02*
X374491D01*
X356319Y217912D02*
X374491D01*
X356319Y217012D02*
X374491D01*
X356319Y216112D02*
X374491D01*
X356319Y215212D02*
X374491D01*
X356319Y214312D02*
X374491D01*
X356319Y213412D02*
X374491D01*
X356319Y212512D02*
X374491D01*
X356319Y211612D02*
X374491D01*
X356319Y210712D02*
X374491D01*
X356319Y209812D02*
X374491D01*
X356319Y208912D02*
X374491D01*
X356319Y208012D02*
X374491D01*
X356319Y207112D02*
X374491D01*
X356319Y206212D02*
X374491D01*
X356319Y205312D02*
X374491D01*
X356319Y204412D02*
X374491D01*
X356319Y203512D02*
X374491D01*
X356319Y202612D02*
X374491D01*
X356319Y201712D02*
X374491D01*
X356319Y200812D02*
X374491D01*
X356319Y199912D02*
X374491D01*
X356319Y199012D02*
X374491D01*
X356319Y198112D02*
X374491D01*
X356319Y197212D02*
X374491D01*
X356319Y196312D02*
X374491D01*
X356319Y195412D02*
X374491D01*
X356319Y194512D02*
X374491D01*
X356319Y193612D02*
X374491D01*
X356319Y192712D02*
X374491D01*
X356319Y191812D02*
X374491D01*
X356319Y190912D02*
X374491D01*
X356319Y190012D02*
X374491D01*
X356319Y189112D02*
X374491D01*
X356319Y188212D02*
X374491D01*
X356319Y187312D02*
X374491D01*
X356319Y186412D02*
X374491D01*
X356319Y185512D02*
X374491D01*
X356319Y184612D02*
X374491D01*
X356319Y183712D02*
X374491D01*
X356319Y182812D02*
X374491D01*
X356319Y181912D02*
X374491D01*
X356319Y181012D02*
X374491D01*
X356319Y180112D02*
X374491D01*
X356319Y179212D02*
X374491D01*
X356319Y178312D02*
X374491D01*
X356319Y177412D02*
X374491D01*
X356319Y176512D02*
X374491D01*
X356319Y175612D02*
X374491D01*
X356319Y174712D02*
X374491D01*
X356319Y173812D02*
X374491D01*
X356319Y172912D02*
X374491D01*
X356319Y172012D02*
X374491D01*
X356319Y171112D02*
X374491D01*
X356319Y170212D02*
X374491D01*
X356271Y169312D02*
X374491D01*
X356019Y168412D02*
X374491D01*
X355505Y167512D02*
X374491D01*
X354657Y166612D02*
X374491D01*
X353757Y165712D02*
X374491D01*
X352857Y164812D02*
X374491D01*
X351957Y163912D02*
X374491D01*
X351057Y163012D02*
X374491D01*
X350157Y162112D02*
X374491D01*
X349257Y161212D02*
X374491D01*
X348357Y160312D02*
X374491D01*
X347614Y159412D02*
X374491D01*
X347611Y158512D02*
X374491D01*
X347611Y157612D02*
X374491D01*
X347611Y156712D02*
X374491D01*
X347654Y155812D02*
X374491D01*
X347620Y154912D02*
X374491D01*
X347611Y154012D02*
X374491D01*
X347611Y153112D02*
X374491D01*
X347611Y152212D02*
X374491D01*
X347611Y151312D02*
X374491D01*
X347611Y150412D02*
X374491D01*
X347555Y149512D02*
X374491D01*
X347290Y148612D02*
X374491D01*
X346758Y147712D02*
X374491D01*
X346611Y146812D02*
X374491D01*
X346611Y145912D02*
X374491D01*
X346611Y145012D02*
X374491D01*
X346611Y144112D02*
X374491D01*
X346611Y143212D02*
X374491D01*
X347108Y142312D02*
X374491D01*
X348008Y141412D02*
X374491D01*
X348908Y140512D02*
X374491D01*
X349808Y139612D02*
X374491D01*
X373379Y241312D02*
X374489D01*
X356319Y238612D02*
X361770D01*
X356319Y239512D02*
X360170D01*
X356319Y240412D02*
X359053D01*
X356319Y241312D02*
X358203D01*
X356319Y242212D02*
X357536D01*
X320206Y243112D02*
X348319D01*
X320206Y242212D02*
X348319D01*
X320206Y241312D02*
X348319D01*
X343876Y240412D02*
X348319D01*
X346414Y239512D02*
X348319D01*
X346743Y230512D02*
X348319D01*
X345030Y229612D02*
X348319D01*
X320206Y228712D02*
X348319D01*
X320206Y227812D02*
X348319D01*
X344659Y226912D02*
X348319D01*
X346051Y226012D02*
X348319D01*
X346806Y225112D02*
X348319D01*
X347260Y224212D02*
X348319D01*
X347160Y220612D02*
X348319D01*
X346637Y219712D02*
X348319D01*
X345767Y218812D02*
X348319D01*
X343910Y217912D02*
X348319D01*
X320206Y217012D02*
X348319D01*
X320206Y216112D02*
X348319D01*
X320206Y215212D02*
X348319D01*
X320206Y214312D02*
X348319D01*
X345310Y213412D02*
X348319D01*
X346282Y212512D02*
X348319D01*
X346861Y211612D02*
X348319D01*
X347197Y210712D02*
X348319D01*
X347313Y208912D02*
X348319D01*
X347109Y208012D02*
X348319D01*
X346701Y207112D02*
X348319D01*
X346019Y206212D02*
X348319D01*
X344823Y205312D02*
X348319D01*
X333243Y204412D02*
X348319D01*
X320206Y203512D02*
X348319D01*
X320206Y202612D02*
X348319D01*
X320206Y201712D02*
X348319D01*
X320206Y200812D02*
X348319D01*
X320206Y199912D02*
X348319D01*
X320206Y199012D02*
X348319D01*
X320206Y198112D02*
X348319D01*
X320206Y197212D02*
X348319D01*
X320206Y196312D02*
X348319D01*
X320206Y195412D02*
X348319D01*
X320206Y194512D02*
X348319D01*
X320206Y193612D02*
X348319D01*
X320206Y192712D02*
X348319D01*
X320206Y191812D02*
X348319D01*
X320206Y190912D02*
X348319D01*
X320206Y190012D02*
X348319D01*
X320206Y189112D02*
X348319D01*
X320206Y188212D02*
X348319D01*
X320206Y187312D02*
X348319D01*
X320206Y186412D02*
X348319D01*
X320206Y185512D02*
X348319D01*
X320206Y184612D02*
X348319D01*
X320206Y183712D02*
X348319D01*
X320206Y182812D02*
X348319D01*
X320206Y181912D02*
X348319D01*
X320206Y181012D02*
X348319D01*
X320206Y180112D02*
X348319D01*
X320206Y179212D02*
X348319D01*
X320206Y178312D02*
X348319D01*
X320206Y177412D02*
X348319D01*
X320206Y176512D02*
X348319D01*
X320206Y175612D02*
X348319D01*
X320206Y174712D02*
X348319D01*
X320206Y173812D02*
X348319D01*
X320206Y172912D02*
X348319D01*
X320206Y172012D02*
X348319D01*
X347404Y209812D02*
X348234D01*
X320206Y244012D02*
X348229D01*
X347460Y238612D02*
X348178D01*
X320206Y171112D02*
X347843D01*
X320206Y244912D02*
X347339D01*
X320206Y170212D02*
X346943D01*
X320206Y169312D02*
X346043D01*
X320206Y168412D02*
X345143D01*
X320206Y167512D02*
X344243D01*
X320206Y166612D02*
X343343D01*
X323876Y240412D02*
X342819D01*
X320206Y165712D02*
X342443D01*
X325844Y217912D02*
X341722D01*
X325030Y229612D02*
X341666D01*
X320206Y164812D02*
X341543D01*
X325596Y226912D02*
X340973D01*
X321349Y163912D02*
X340643D01*
X321254Y146812D02*
X340611D01*
X320354Y145912D02*
X340611D01*
X320206Y145012D02*
X340611D01*
X320206Y144112D02*
X340611D01*
X320206Y143212D02*
X340611D01*
X320206Y142312D02*
X340611D01*
X322154Y147712D02*
X340464D01*
X334780Y205312D02*
X340379D01*
X326414Y239512D02*
X340282D01*
X326743Y230512D02*
X339953D01*
X322869Y148612D02*
X339932D01*
X322919Y163012D02*
X339925D01*
X333103Y213412D02*
X339892D01*
X327352Y218812D02*
X339865D01*
X323107Y149512D02*
X339667D01*
X323269Y159412D02*
X339611D01*
X323111Y158512D02*
X339611D01*
X323111Y157612D02*
X339611D01*
X323111Y156712D02*
X339611D01*
X323111Y155812D02*
X339611D01*
X323111Y154912D02*
X339611D01*
X323111Y154012D02*
X339611D01*
X323111Y153112D02*
X339611D01*
X323111Y152212D02*
X339611D01*
X323111Y151312D02*
X339611D01*
X323111Y150412D02*
X339611D01*
X327255Y226012D02*
X339581D01*
X323490Y162112D02*
X339536D01*
X323636Y160312D02*
X339431D01*
X323702Y161212D02*
X339380D01*
X327459Y238612D02*
X339236D01*
X335578Y206212D02*
X339183D01*
X327661Y231412D02*
X339034D01*
X328142Y219712D02*
X338995D01*
X334725Y212512D02*
X338920D01*
X328084Y225112D02*
X338826D01*
X328121Y237712D02*
X338574D01*
X336060Y207112D02*
X338501D01*
X328618Y220612D02*
X338472D01*
X328253Y232312D02*
X338442D01*
X328584Y224212D02*
X338372D01*
X335546Y211612D02*
X338341D01*
X328877Y221512D02*
X338177D01*
X328549Y236812D02*
X338147D01*
X328861Y223312D02*
X338130D01*
X336323Y208012D02*
X338094D01*
X328955Y222412D02*
X338068D01*
X328630Y233212D02*
X338066D01*
X336040Y210712D02*
X338006D01*
X328797Y235912D02*
X337899D01*
X336404Y208912D02*
X337889D01*
X336313Y209812D02*
X337861D01*
X328836Y234112D02*
X337860D01*
X328890Y235012D02*
X337806D01*
X320206Y213412D02*
X330206D01*
X320206Y204412D02*
X330065D01*
X320206Y212512D02*
X328583D01*
X320206Y205312D02*
X328528D01*
X320206Y211612D02*
X327763D01*
X320206Y206212D02*
X327730D01*
X320206Y210712D02*
X327268D01*
X320206Y207112D02*
X327249D01*
X320206Y209812D02*
X326995D01*
X320206Y208012D02*
X326986D01*
X320206Y208912D02*
X326904D01*
X320206Y240412D02*
X322819D01*
X320206Y226912D02*
X322814D01*
X320206Y217912D02*
X322566D01*
X320230Y229612D02*
X321666D01*
X320286Y226012D02*
X321155D01*
X320355Y218812D02*
X321058D01*
X320206Y255712D02*
X359973D01*
X320206Y254812D02*
X359015D01*
X320206Y253912D02*
X358173D01*
X350219Y253012D02*
X357513D01*
X351453Y252112D02*
X356993D01*
X352353Y251212D02*
X356590D01*
X353253Y250312D02*
X356288D01*
X354153Y249412D02*
X356079D01*
X355053Y248512D02*
X355897D01*
X230967Y101999D02*
X332152D01*
X326072Y102899D02*
X331937D01*
X327877Y103799D02*
X331743D01*
X328759Y104699D02*
X330861D01*
X329301Y105599D02*
X330320D01*
X317560Y133499D02*
X327915D01*
X324807Y125399D02*
X327162D01*
X324650Y126299D02*
X327055D01*
X317560Y132599D02*
X326771D01*
X324687Y124499D02*
X326545D01*
X312302Y119999D02*
X326442D01*
X324250Y123599D02*
X326441D01*
X323230Y122699D02*
X326441D01*
X314102Y121799D02*
X326441D01*
X313202Y120899D02*
X326441D01*
X311402Y119099D02*
X326220D01*
X316072Y102899D02*
X323548D01*
X317877Y103799D02*
X321744D01*
X317560Y131699D02*
X321482D01*
X318759Y104699D02*
X320861D01*
X317560Y130799D02*
X320547D01*
X315002Y122699D02*
X320385D01*
X319301Y105599D02*
X320320D01*
X317560Y129899D02*
X319696D01*
X315902Y123599D02*
X319364D01*
X317560Y128999D02*
X319284D01*
X317560Y128099D02*
X319211D01*
X317560Y127199D02*
X319211D01*
X317560Y126299D02*
X318964D01*
X316802Y124499D02*
X318927D01*
X317395Y125399D02*
X318808D01*
X310502Y118199D02*
X314979D01*
X309602Y117299D02*
X314079D01*
X296072Y102899D02*
X313548D01*
X308702Y116399D02*
X313179D01*
X307802Y115499D02*
X312521D01*
X305926Y114599D02*
X312312D01*
X230967Y113699D02*
X312310D01*
X230967Y112799D02*
X312310D01*
X297418Y111899D02*
X312174D01*
X297877Y103799D02*
X311744D01*
X298494Y110999D02*
X311126D01*
X298759Y104699D02*
X310861D01*
X299137Y110099D02*
X310484D01*
X305702Y105599D02*
X310320D01*
X306507Y109199D02*
X310093D01*
X306746Y106499D02*
X310002D01*
X306998Y108299D02*
X309895D01*
X307063Y107399D02*
X309866D01*
X299301Y105599D02*
X303918D01*
X299527Y109199D02*
X303114D01*
X299618Y106499D02*
X302875D01*
X299725Y108299D02*
X302622D01*
X299754Y107399D02*
X302557D01*
X286072Y102899D02*
X293548D01*
X287418Y111899D02*
X292202D01*
X287877Y103799D02*
X291744D01*
X288494Y110999D02*
X291126D01*
X288759Y104699D02*
X290861D01*
X289137Y110099D02*
X290484D01*
X289301Y105599D02*
X290320D01*
X230967Y102899D02*
X283548D01*
X230967Y111899D02*
X282202D01*
X230967Y103799D02*
X281744D01*
X230967Y110999D02*
X281126D01*
X230967Y104699D02*
X280861D01*
X230967Y110099D02*
X280484D01*
X230967Y105599D02*
X280320D01*
X230967Y109199D02*
X280093D01*
X230967Y106499D02*
X280002D01*
X230967Y108299D02*
X279895D01*
X230967Y107399D02*
X279866D01*
X116458Y254999D02*
X316008D01*
X117345Y254099D02*
X316008D01*
X267348Y244199D02*
X316008D01*
X267348Y243299D02*
X316008D01*
X267348Y242399D02*
X316008D01*
X267348Y241499D02*
X316008D01*
X267348Y240599D02*
X316008D01*
X306112Y239699D02*
X316008D01*
X307282Y238799D02*
X316008D01*
X308006Y237899D02*
X316008D01*
X308476Y236999D02*
X316008D01*
X308759Y236099D02*
X316008D01*
X308883Y235199D02*
X316008D01*
X308859Y234299D02*
X316008D01*
X308686Y233399D02*
X316008D01*
X308347Y232499D02*
X316008D01*
X307806Y231599D02*
X316008D01*
X306971Y230699D02*
X316008D01*
X305532Y229799D02*
X316008D01*
X268357Y228899D02*
X316008D01*
X269203Y227999D02*
X316008D01*
X285630Y227099D02*
X316008D01*
X287012Y226199D02*
X316008D01*
X287319Y225299D02*
X316008D01*
X287326Y224399D02*
X316008D01*
X287326Y223499D02*
X316008D01*
X287326Y222599D02*
X316008D01*
X287326Y221699D02*
X316008D01*
X287251Y220799D02*
X316008D01*
X287021Y219899D02*
X316008D01*
X287319Y218999D02*
X316008D01*
X287326Y218099D02*
X316008D01*
X287326Y217199D02*
X316008D01*
X287326Y216299D02*
X316008D01*
X287326Y215399D02*
X316008D01*
X287251Y214499D02*
X316008D01*
X286710Y213599D02*
X316008D01*
X280471Y212699D02*
X316008D01*
X280471Y211799D02*
X316008D01*
X280471Y210899D02*
X316008D01*
X280471Y209999D02*
X316008D01*
X280326Y209099D02*
X316008D01*
X279605Y208199D02*
X316008D01*
X269394Y207299D02*
X316008D01*
X269394Y206399D02*
X316008D01*
X269394Y205499D02*
X316008D01*
X269394Y204599D02*
X316008D01*
X269394Y203699D02*
X316008D01*
X269259Y202799D02*
X316008D01*
X268561Y201899D02*
X316008D01*
X260003Y200999D02*
X316008D01*
X261278Y200099D02*
X316008D01*
X262105Y199199D02*
X316008D01*
X262463Y198299D02*
X316008D01*
X264149Y197399D02*
X316008D01*
X265058Y196499D02*
X316008D01*
X285672Y195599D02*
X316008D01*
X286827Y194699D02*
X316008D01*
X287428Y193799D02*
X316008D01*
X287740Y192899D02*
X316008D01*
X287832Y191999D02*
X316008D01*
X287718Y191099D02*
X316008D01*
X287379Y190199D02*
X316008D01*
X286738Y189299D02*
X316008D01*
X285472Y188399D02*
X316008D01*
X269052Y187499D02*
X316008D01*
X269052Y186599D02*
X316008D01*
X269052Y185699D02*
X316008D01*
X269052Y184799D02*
X316008D01*
X269052Y183899D02*
X316008D01*
X269052Y182999D02*
X316008D01*
X269052Y182099D02*
X316008D01*
X269052Y181199D02*
X316008D01*
X269052Y180299D02*
X316008D01*
X269052Y179399D02*
X316008D01*
X269052Y178499D02*
X316008D01*
X269052Y177599D02*
X316008D01*
X269052Y176699D02*
X316008D01*
X269052Y175799D02*
X316008D01*
X269052Y174899D02*
X316008D01*
X269052Y173999D02*
X316008D01*
X269052Y173099D02*
X316008D01*
X269052Y172199D02*
X316008D01*
X269052Y171299D02*
X316008D01*
X269052Y170399D02*
X316008D01*
X269052Y169499D02*
X316008D01*
X269052Y168599D02*
X316008D01*
X269052Y167699D02*
X316008D01*
X269052Y166799D02*
X316008D01*
X269052Y165899D02*
X316008D01*
X288645Y164999D02*
X316008D01*
X289457Y164099D02*
X316008D01*
X289806Y163199D02*
X316008D01*
X289857Y162299D02*
X316008D01*
X289628Y161399D02*
X316008D01*
X289031Y160499D02*
X316008D01*
X287205Y159599D02*
X316008D01*
X268603Y158699D02*
X316008D01*
X269400Y157799D02*
X316008D01*
X269740Y156899D02*
X316008D01*
X269775Y155999D02*
X316008D01*
X269775Y155099D02*
X316008D01*
X269775Y154199D02*
X316008D01*
X269775Y153299D02*
X316008D01*
X269775Y152399D02*
X316008D01*
X270374Y151499D02*
X316008D01*
X271274Y150599D02*
X316008D01*
X272174Y149699D02*
X316008D01*
X273074Y148799D02*
X316008D01*
X115675Y255899D02*
X316008D01*
X267397Y245099D02*
X315964D01*
X273974Y147899D02*
X315553D01*
X274874Y146999D02*
X314653D01*
X275774Y146099D02*
X313753D01*
X300359Y133499D02*
X312560D01*
X300498Y132599D02*
X312560D01*
X300360Y131699D02*
X312560D01*
X299898Y130799D02*
X312560D01*
X298807Y129899D02*
X312560D01*
X297732Y128999D02*
X312560D01*
X297819Y128099D02*
X312560D01*
X297627Y127199D02*
X312430D01*
X297088Y126299D02*
X311531D01*
X295706Y125399D02*
X310631D01*
X287515Y124499D02*
X309731D01*
X292230Y123599D02*
X308831D01*
X293061Y122699D02*
X307931D01*
X293419Y121799D02*
X307031D01*
X299897Y134399D02*
X306858D01*
X293477Y120899D02*
X306131D01*
X298803Y135299D02*
X305312D01*
X293334Y119999D02*
X305231D01*
X262631Y136199D02*
X304412D01*
X262262Y137099D02*
X303512D01*
X262107Y137999D02*
X302612D01*
X285532Y229799D02*
X301164D01*
X286112Y239699D02*
X300584D01*
X286971Y230699D02*
X299724D01*
X287282Y238799D02*
X299413D01*
X287806Y231599D02*
X298890D01*
X288006Y237899D02*
X298690D01*
X288347Y232499D02*
X298349D01*
X288476Y236999D02*
X298220D01*
X288686Y233399D02*
X298010D01*
X288759Y236099D02*
X297937D01*
X288859Y234299D02*
X297836D01*
X288883Y235199D02*
X297813D01*
X262699Y135299D02*
X296192D01*
X287735Y125399D02*
X293940D01*
X262487Y134399D02*
X293671D01*
X261925Y133499D02*
X292770D01*
X286942Y123599D02*
X288746D01*
X285357Y122699D02*
X287915D01*
X176422Y121799D02*
X287558D01*
X268903Y159599D02*
X286535D01*
X269052Y164999D02*
X285095D01*
X269450Y160499D02*
X284709D01*
X269052Y164099D02*
X284283D01*
X175522Y122699D02*
X284120D01*
X269647Y161399D02*
X284112D01*
X269180Y163199D02*
X283935D01*
X269566Y162299D02*
X283883D01*
X269052Y188399D02*
X282192D01*
X265958Y195599D02*
X281992D01*
X279788Y227099D02*
X281873D01*
X266957Y229799D02*
X281164D01*
X269052Y189299D02*
X280926D01*
X266858Y194699D02*
X280837D01*
X267348Y239699D02*
X280584D01*
X269052Y190199D02*
X280285D01*
X267758Y193799D02*
X280236D01*
X269052Y191099D02*
X279946D01*
X268610Y192899D02*
X279924D01*
X269002Y191999D02*
X279832D01*
X267017Y230699D02*
X279724D01*
X267365Y238799D02*
X279413D01*
X267806Y231599D02*
X278890D01*
X268006Y237899D02*
X278690D01*
X268347Y232499D02*
X278349D01*
X268476Y236999D02*
X278220D01*
X268686Y233399D02*
X278010D01*
X268759Y236099D02*
X277937D01*
X268859Y234299D02*
X277836D01*
X268883Y235199D02*
X277813D01*
X262107Y138899D02*
X275919D01*
X262107Y139799D02*
X275003D01*
X262107Y140699D02*
X274103D01*
X262107Y141599D02*
X273203D01*
X269015Y218099D02*
X273012D01*
X239295Y217199D02*
X273012D01*
X262107Y142499D02*
X272303D01*
X269376Y218999D02*
X271858D01*
X239295Y216299D02*
X271559D01*
X269394Y208199D02*
X271431D01*
X262107Y143399D02*
X271403D01*
X269394Y227099D02*
X271248D01*
X269423Y219899D02*
X270817D01*
X239295Y215399D02*
X270745D01*
X269394Y209099D02*
X270710D01*
X239295Y214499D02*
X270565D01*
X239295Y213599D02*
X270565D01*
X268913Y212699D02*
X270565D01*
X269354Y211799D02*
X270565D01*
X269394Y210899D02*
X270565D01*
X269394Y209999D02*
X270565D01*
X262107Y144299D02*
X270503D01*
X262107Y145199D02*
X269603D01*
X262107Y146099D02*
X268703D01*
X262107Y146999D02*
X267803D01*
X262107Y147899D02*
X266903D01*
X262107Y148799D02*
X266003D01*
X262716Y149699D02*
X265180D01*
X263666Y150599D02*
X264764D01*
X118039Y253199D02*
X264764D01*
X118586Y252299D02*
X263245D01*
X119012Y251399D02*
X262343D01*
X119334Y250499D02*
X261443D01*
X119561Y249599D02*
X260543D01*
X239295Y229799D02*
X259957D01*
X119702Y248699D02*
X259856D01*
X239295Y230699D02*
X259724D01*
X119758Y247799D02*
X259489D01*
X246573Y200999D02*
X259382D01*
X203813Y246899D02*
X259351D01*
X221772Y245999D02*
X259348D01*
X222600Y245099D02*
X259348D01*
X222785Y244199D02*
X259348D01*
X222785Y243299D02*
X259348D01*
X222785Y242399D02*
X259348D01*
X222785Y241499D02*
X259348D01*
X222785Y240599D02*
X259348D01*
X222635Y239699D02*
X259348D01*
X222600Y238799D02*
X259331D01*
X239295Y231599D02*
X258890D01*
X234439Y237899D02*
X258690D01*
X239295Y228899D02*
X258558D01*
X246573Y201899D02*
X258354D01*
X244915Y232499D02*
X258349D01*
X245287Y236999D02*
X258220D01*
X245789Y233399D02*
X258010D01*
X239295Y212699D02*
X258002D01*
X245944Y236099D02*
X257937D01*
X239295Y218099D02*
X257900D01*
X246147Y234299D02*
X257836D01*
X246194Y235199D02*
X257813D01*
X251657Y200099D02*
X257728D01*
X239295Y227999D02*
X257712D01*
X246931Y202799D02*
X257656D01*
X239295Y211799D02*
X257561D01*
X239295Y218999D02*
X257539D01*
X239295Y227099D02*
X257520D01*
X239295Y226199D02*
X257520D01*
X239295Y225299D02*
X257520D01*
X239295Y224399D02*
X257520D01*
X239295Y223499D02*
X257520D01*
X239295Y222599D02*
X257520D01*
X239295Y221699D02*
X257520D01*
X239295Y220799D02*
X257520D01*
X239295Y219899D02*
X257520D01*
X239295Y210899D02*
X257520D01*
X239295Y209999D02*
X257520D01*
X239295Y209099D02*
X257520D01*
X239295Y208199D02*
X257520D01*
X239295Y207299D02*
X257520D01*
X245836Y206399D02*
X257520D01*
X246698Y205499D02*
X257520D01*
X247070Y204599D02*
X257520D01*
X247140Y203699D02*
X257520D01*
X246573Y200099D02*
X248047D01*
X239295Y206399D02*
X242460D01*
X239257Y232499D02*
X241780D01*
X239295Y201899D02*
X241773D01*
X239295Y200999D02*
X241773D01*
X239295Y200099D02*
X241773D01*
X239295Y199199D02*
X241773D01*
X239295Y198299D02*
X241773D01*
X239295Y197399D02*
X241773D01*
X239295Y196499D02*
X241773D01*
X239295Y195599D02*
X241773D01*
X239295Y194699D02*
X241773D01*
X239295Y193799D02*
X241773D01*
X239295Y192899D02*
X241773D01*
X239295Y191999D02*
X241773D01*
X239295Y191099D02*
X241773D01*
X239295Y190199D02*
X241773D01*
X239295Y189299D02*
X241773D01*
X239295Y188399D02*
X241773D01*
X239295Y187499D02*
X241773D01*
X239295Y186599D02*
X241773D01*
X239295Y185699D02*
X241773D01*
X239295Y184799D02*
X241773D01*
X239295Y183899D02*
X241773D01*
X239295Y182999D02*
X241773D01*
X239295Y182099D02*
X241773D01*
X239295Y181199D02*
X241773D01*
X239295Y180299D02*
X241773D01*
X239295Y179399D02*
X241773D01*
X239249Y178499D02*
X241773D01*
X238867Y177599D02*
X241773D01*
X238021Y176699D02*
X241773D01*
X237121Y175799D02*
X241773D01*
X236208Y174899D02*
X241773D01*
X231166Y173999D02*
X241773D01*
X231667Y173099D02*
X241773D01*
X232567Y172199D02*
X241773D01*
X237235Y171299D02*
X241773D01*
X237961Y170399D02*
X241773D01*
X238265Y169499D02*
X241773D01*
X238280Y168599D02*
X241773D01*
X238010Y167699D02*
X241773D01*
X237345Y166799D02*
X241773D01*
X236098Y165899D02*
X241773D01*
X235542Y164999D02*
X241773D01*
X234378Y164099D02*
X241773D01*
X214904Y155999D02*
X241773D01*
X214738Y155099D02*
X241773D01*
X214738Y154199D02*
X241773D01*
X214738Y153299D02*
X241773D01*
X214738Y152399D02*
X241773D01*
X217967Y151499D02*
X241773D01*
X218846Y150599D02*
X241773D01*
X219225Y149699D02*
X241773D01*
X219300Y148799D02*
X241773D01*
X219098Y147899D02*
X241773D01*
X234198Y163199D02*
X241672D01*
X239295Y205499D02*
X241598D01*
X216448Y156899D02*
X241575D01*
X235364Y236999D02*
X241408D01*
X239295Y202799D02*
X241365D01*
X239295Y204599D02*
X241226D01*
X239295Y203699D02*
X241156D01*
X238896Y233399D02*
X240907D01*
X236264Y236099D02*
X240752D01*
X218542Y146999D02*
X240750D01*
X238064Y234299D02*
X240548D01*
X237164Y235199D02*
X240502D01*
X217070Y146099D02*
X239742D01*
X233778Y162299D02*
X239379D01*
X214738Y145199D02*
X239310D01*
X217056Y157799D02*
X239269D01*
X232802Y161399D02*
X238653D01*
X217292Y158699D02*
X238604D01*
X227963Y160499D02*
X238349D01*
X217247Y159599D02*
X238334D01*
X185802Y230699D02*
X234495D01*
X200617Y229799D02*
X234495D01*
X201517Y228899D02*
X234495D01*
X202417Y227999D02*
X234495D01*
X203317Y227099D02*
X234495D01*
X204217Y226199D02*
X234495D01*
X205077Y225299D02*
X234495D01*
X205484Y224399D02*
X234495D01*
X205540Y223499D02*
X234495D01*
X205540Y222599D02*
X234495D01*
X205540Y221699D02*
X234495D01*
X223648Y220799D02*
X234495D01*
X224877Y219899D02*
X234495D01*
X225165Y218999D02*
X234495D01*
X225170Y218099D02*
X234495D01*
X225170Y217199D02*
X234495D01*
X225170Y216299D02*
X234495D01*
X225170Y215399D02*
X234495D01*
X225170Y214499D02*
X234495D01*
X225170Y213599D02*
X234495D01*
X225170Y212699D02*
X234495D01*
X225170Y211799D02*
X234495D01*
X225168Y210899D02*
X234495D01*
X224912Y209999D02*
X234495D01*
X223842Y209099D02*
X234495D01*
X101100Y208199D02*
X234495D01*
X101100Y207299D02*
X234495D01*
X101100Y206399D02*
X234495D01*
X101100Y205499D02*
X234495D01*
X224504Y204599D02*
X234495D01*
X225081Y203699D02*
X234495D01*
X225170Y202799D02*
X234495D01*
X225170Y201899D02*
X234495D01*
X225170Y200999D02*
X234495D01*
X225170Y200099D02*
X234495D01*
X225170Y199199D02*
X234495D01*
X229182Y198299D02*
X234495D01*
X230433Y197399D02*
X234495D01*
X230983Y196499D02*
X234495D01*
X232518Y195599D02*
X234495D01*
X233139Y194699D02*
X234495D01*
X233382Y193799D02*
X234495D01*
X233344Y192899D02*
X234495D01*
X233012Y191999D02*
X234495D01*
X232232Y191099D02*
X234495D01*
X230893Y190199D02*
X234495D01*
X229993Y189299D02*
X234495D01*
X229093Y188399D02*
X234495D01*
X228193Y187499D02*
X234495D01*
X226930Y186599D02*
X234495D01*
X180106Y185699D02*
X234495D01*
X179773Y184799D02*
X234495D01*
X178993Y183899D02*
X234495D01*
X225102Y182999D02*
X234495D01*
X226512Y182099D02*
X234495D01*
X227728Y181199D02*
X234495D01*
X228228Y180299D02*
X234495D01*
X185621Y231599D02*
X233976D01*
X228438Y179399D02*
X233932D01*
X221900Y232499D02*
X233076D01*
X222646Y233399D02*
X232176D01*
X214739Y144299D02*
X232125D01*
X218109Y143399D02*
X231142D01*
X218906Y142499D02*
X230279D01*
X219247Y141599D02*
X229865D01*
X228844Y161399D02*
X229813D01*
X219292Y140699D02*
X229540D01*
X219056Y139799D02*
X229131D01*
X225170Y198299D02*
X227048D01*
X216906Y160499D02*
X224651D01*
X216109Y161399D02*
X223770D01*
X210222Y164999D02*
X223588D01*
X209322Y164099D02*
X223515D01*
X172954Y162299D02*
X223390D01*
X208422Y163199D02*
X223314D01*
X211122Y165899D02*
X222688D01*
X218448Y138899D02*
X220141D01*
X197908Y178499D02*
X219611D01*
X197491Y177599D02*
X219349D01*
X196522Y176699D02*
X219161D01*
X217785Y137999D02*
X218985D01*
X205187Y245999D02*
X215998D01*
X185863Y232499D02*
X215870D01*
X214985Y146099D02*
X215544D01*
X205261Y238799D02*
X215149D01*
X185863Y233399D02*
X215135D01*
X203967Y237899D02*
X214985D01*
X185756Y236999D02*
X214985D01*
X185863Y236099D02*
X214985D01*
X185863Y235199D02*
X214985D01*
X185863Y234299D02*
X214985D01*
X205540Y220799D02*
X214819D01*
X101100Y209099D02*
X214624D01*
X128670Y192899D02*
X214289D01*
X101100Y204599D02*
X213962D01*
X174622Y123599D02*
X213929D01*
X126021Y193799D02*
X213904D01*
X205540Y219899D02*
X213589D01*
X204903Y209999D02*
X213555D01*
X179437Y203699D02*
X213385D01*
X126021Y194699D02*
X213369D01*
X205579Y218999D02*
X213301D01*
X180303Y202799D02*
X213296D01*
X180676Y201899D02*
X213296D01*
X180748Y200999D02*
X213296D01*
X180540Y200099D02*
X213296D01*
X179978Y199199D02*
X213296D01*
X178463Y198299D02*
X213296D01*
X126450Y197399D02*
X213296D01*
X126021Y196499D02*
X213296D01*
X126021Y195599D02*
X213296D01*
X206372Y210899D02*
X213231D01*
X173722Y124499D02*
X213122D01*
X208875Y161399D02*
X212505D01*
X173323Y125399D02*
X212222D01*
X210691Y160499D02*
X211708D01*
X172741Y126299D02*
X211322D01*
X187267Y127199D02*
X210422D01*
X188376Y128099D02*
X209522D01*
X188843Y128999D02*
X208622D01*
X172954Y161399D02*
X208183D01*
X188985Y129899D02*
X207722D01*
X188851Y130799D02*
X206822D01*
X172954Y160499D02*
X206367D01*
X188394Y131699D02*
X206271D01*
X189620Y155999D02*
X206144D01*
X190680Y155099D02*
X206144D01*
X191244Y154199D02*
X206144D01*
X191530Y153299D02*
X206144D01*
X191599Y152399D02*
X206144D01*
X191462Y151499D02*
X206144D01*
X191095Y150599D02*
X206144D01*
X190411Y149699D02*
X206144D01*
X189002Y148799D02*
X206144D01*
X172953Y147899D02*
X206144D01*
X172953Y146999D02*
X206144D01*
X172953Y146099D02*
X206144D01*
X172953Y145199D02*
X206144D01*
X172953Y144299D02*
X206144D01*
X172953Y143399D02*
X206144D01*
X172953Y142499D02*
X206144D01*
X172953Y141599D02*
X206144D01*
X172953Y140699D02*
X206144D01*
X172953Y139799D02*
X206144D01*
X172953Y138899D02*
X206144D01*
X172953Y137999D02*
X206144D01*
X172955Y137099D02*
X206144D01*
X173377Y136199D02*
X206144D01*
X173551Y135299D02*
X206144D01*
X173447Y134399D02*
X206144D01*
X173032Y133499D02*
X206144D01*
X187318Y132599D02*
X206144D01*
X172953Y156899D02*
X205942D01*
X172954Y159599D02*
X205771D01*
X172953Y157799D02*
X205594D01*
X172954Y158699D02*
X205542D01*
X184903Y209999D02*
X201276D01*
X101100Y222599D02*
X200740D01*
X101100Y221699D02*
X200740D01*
X101100Y220799D02*
X200740D01*
X101100Y219899D02*
X200740D01*
X185380Y218999D02*
X200668D01*
X172954Y163199D02*
X200378D01*
X172954Y175799D02*
X200329D01*
X101100Y223499D02*
X200129D01*
X183813Y246899D02*
X199832D01*
X186372Y210899D02*
X199807D01*
X185133Y237899D02*
X199679D01*
X186602Y218099D02*
X199576D01*
X172954Y174899D02*
X199418D01*
X184612Y224399D02*
X199229D01*
X187168Y211799D02*
X199010D01*
X172954Y164099D02*
X198988D01*
X187310Y217199D02*
X198868D01*
X194321Y212699D02*
X198519D01*
X172954Y173999D02*
X198518D01*
X185187Y245999D02*
X198459D01*
X172954Y164999D02*
X198448D01*
X194606Y216299D02*
X198434D01*
X185261Y238799D02*
X198385D01*
X185621Y225299D02*
X198329D01*
X172954Y165899D02*
X198256D01*
X195125Y213599D02*
X198240D01*
X195219Y215399D02*
X198200D01*
X195358Y214499D02*
X198138D01*
X185952Y245099D02*
X197694D01*
X185998Y239699D02*
X197648D01*
X172954Y173099D02*
X197618D01*
X193162Y244199D02*
X197223D01*
X193253Y240599D02*
X197195D01*
X193893Y243299D02*
X196959D01*
X193923Y241499D02*
X196946D01*
X194094Y242399D02*
X196870D01*
X172954Y172199D02*
X196718D01*
X148638Y182999D02*
X195329D01*
X150143Y182099D02*
X193954D01*
X173127Y176699D02*
X193507D01*
X171059Y181199D02*
X192698D01*
X173484Y177599D02*
X192539D01*
X172954Y171299D02*
X192370D01*
X172737Y180299D02*
X192188D01*
X173543Y178499D02*
X192122D01*
X172954Y166799D02*
X192119D01*
X173322Y179399D02*
X192017D01*
X187659Y212699D02*
X191858D01*
X172954Y170399D02*
X191601D01*
X187744Y216299D02*
X191572D01*
X172954Y167699D02*
X191490D01*
X172954Y169499D02*
X191275D01*
X172954Y168599D02*
X191241D01*
X187938Y213599D02*
X191054D01*
X187978Y215399D02*
X190960D01*
X188041Y214499D02*
X190820D01*
X186423Y244199D02*
X190484D01*
X186451Y240599D02*
X190392D01*
X186687Y243299D02*
X189753D01*
X186700Y241499D02*
X189722D01*
X186775Y242399D02*
X189551D01*
X172953Y148799D02*
X186201D01*
X172953Y155999D02*
X185582D01*
X172953Y149699D02*
X184791D01*
X172236Y127199D02*
X184703D01*
X172669Y132599D02*
X184652D01*
X172953Y155099D02*
X184522D01*
X172953Y150599D02*
X184107D01*
X172953Y154199D02*
X183959D01*
X172953Y151499D02*
X183741D01*
X172953Y153299D02*
X183673D01*
X172953Y152399D02*
X183604D01*
X174903Y209999D02*
X181276D01*
X175380Y218999D02*
X180798D01*
X173813Y246899D02*
X179832D01*
X176372Y210899D02*
X179807D01*
X176602Y218099D02*
X179576D01*
X174801Y224399D02*
X179314D01*
X177168Y211799D02*
X179010D01*
X177310Y217199D02*
X178868D01*
X177666Y212699D02*
X178512D01*
X175187Y245999D02*
X178459D01*
X175506Y225299D02*
X178304D01*
X177965Y216299D02*
X178213D01*
X175952Y245099D02*
X177694D01*
X176457Y244199D02*
X177189D01*
X127350Y198299D02*
X177049D01*
X101100Y203699D02*
X176073D01*
X118972Y113699D02*
X175439D01*
X119304Y112799D02*
X175439D01*
X119541Y111899D02*
X175439D01*
X119691Y110999D02*
X175439D01*
X119756Y110099D02*
X175439D01*
X119739Y109199D02*
X175439D01*
X119639Y108299D02*
X175439D01*
X119454Y107399D02*
X175439D01*
X119179Y106499D02*
X175439D01*
X118805Y105599D02*
X175439D01*
X118319Y104699D02*
X175439D01*
X117700Y103799D02*
X175439D01*
X116913Y102899D02*
X175439D01*
X115894Y101999D02*
X175439D01*
X101100Y209999D02*
X171276D01*
X165154Y119999D02*
X171117D01*
X101100Y218999D02*
X170798D01*
X101100Y120899D02*
X170534D01*
X151043Y181199D02*
X170049D01*
X146735Y246899D02*
X169832D01*
X101100Y210899D02*
X169807D01*
X101100Y218099D02*
X169576D01*
X101100Y211799D02*
X169010D01*
X101100Y127199D02*
X168869D01*
X101100Y217199D02*
X168868D01*
X101100Y121799D02*
X168818D01*
X145470Y237899D02*
X168800D01*
X101100Y224399D02*
X168658D01*
X101100Y212699D02*
X168519D01*
X147822Y245999D02*
X168459D01*
X132532Y132599D02*
X168436D01*
X101100Y216299D02*
X168434D01*
X147237Y238799D02*
X168385D01*
X151943Y180299D02*
X168370D01*
X101100Y126299D02*
X168364D01*
X101100Y213599D02*
X168240D01*
X101100Y215399D02*
X168200D01*
X153153Y175799D02*
X168154D01*
X153153Y174899D02*
X168154D01*
X153153Y173999D02*
X168154D01*
X153153Y173099D02*
X168154D01*
X153153Y172199D02*
X168154D01*
X153153Y171299D02*
X168154D01*
X153153Y170399D02*
X168154D01*
X153153Y169499D02*
X168154D01*
X153153Y168599D02*
X168154D01*
X153153Y167699D02*
X168154D01*
X153153Y166799D02*
X168154D01*
X153538Y165899D02*
X168154D01*
X153745Y164999D02*
X168154D01*
X153674Y164099D02*
X168154D01*
X153301Y163199D02*
X168154D01*
X152436Y162299D02*
X168154D01*
X146324Y161399D02*
X168154D01*
X146205Y160499D02*
X168154D01*
X145860Y159599D02*
X168154D01*
X162223Y158699D02*
X168152D01*
X163365Y157799D02*
X168152D01*
X163843Y156899D02*
X168152D01*
X163993Y155999D02*
X168152D01*
X163866Y155099D02*
X168152D01*
X163420Y154199D02*
X168152D01*
X162373Y153299D02*
X168152D01*
X137136Y152399D02*
X168152D01*
X138421Y151499D02*
X168152D01*
X138938Y150599D02*
X168152D01*
X139114Y149699D02*
X168152D01*
X139014Y148799D02*
X168152D01*
X164794Y147899D02*
X168152D01*
X165750Y146999D02*
X168152D01*
X166162Y146099D02*
X168152D01*
X166263Y145199D02*
X168152D01*
X166087Y144299D02*
X168152D01*
X165571Y143399D02*
X168152D01*
X164292Y142499D02*
X168152D01*
X131648Y141599D02*
X168152D01*
X131648Y140699D02*
X168152D01*
X131648Y139799D02*
X168152D01*
X131648Y138899D02*
X168152D01*
X131648Y137999D02*
X168152D01*
X131648Y137099D02*
X168150D01*
X101100Y214499D02*
X168138D01*
X131686Y133499D02*
X168073D01*
X101100Y236999D02*
X168033D01*
X101100Y230699D02*
X168033D01*
X101100Y122699D02*
X167983D01*
X153153Y176699D02*
X167981D01*
X101100Y231599D02*
X167964D01*
X101100Y225299D02*
X167964D01*
X101100Y236099D02*
X167830D01*
X101100Y235199D02*
X167830D01*
X101100Y234299D02*
X167830D01*
X101100Y233399D02*
X167830D01*
X101100Y232499D02*
X167830D01*
X101100Y229799D02*
X167830D01*
X101100Y228899D02*
X167830D01*
X101100Y227999D02*
X167830D01*
X101100Y227099D02*
X167830D01*
X101100Y226199D02*
X167830D01*
X152768Y179399D02*
X167786D01*
X101100Y125399D02*
X167783D01*
X131648Y136199D02*
X167728D01*
X148470Y245099D02*
X167694D01*
X131648Y134399D02*
X167658D01*
X148112Y239699D02*
X167648D01*
X153153Y177599D02*
X167623D01*
X101100Y123599D02*
X167623D01*
X153119Y178499D02*
X167565D01*
X101100Y124499D02*
X167563D01*
X131648Y135299D02*
X167555D01*
X148864Y244199D02*
X167223D01*
X148649Y240599D02*
X167195D01*
X149065Y243299D02*
X166959D01*
X148963Y241499D02*
X166946D01*
X149097Y242399D02*
X166870D01*
X101100Y119999D02*
X163623D01*
X118534Y114599D02*
X162729D01*
X131648Y142499D02*
X162238D01*
X113302Y119099D02*
X162153D01*
X117973Y115499D02*
X161850D01*
X138603Y147899D02*
X161736D01*
X115133Y118199D02*
X161597D01*
X117262Y116399D02*
X161471D01*
X116349Y117299D02*
X161395D01*
X131648Y143399D02*
X160959D01*
X137651Y146999D02*
X160780D01*
X131648Y144299D02*
X160443D01*
X131648Y146099D02*
X160369D01*
X131648Y145199D02*
X160267D01*
X145522Y158699D02*
X159763D01*
X101100Y153299D02*
X159613D01*
X146238Y162299D02*
X149070D01*
X123775Y176699D02*
X148353D01*
X124049Y175799D02*
X148353D01*
X124038Y174899D02*
X148353D01*
X123738Y173999D02*
X148353D01*
X123477Y173099D02*
X148353D01*
X123477Y172199D02*
X148353D01*
X123477Y171299D02*
X148353D01*
X123477Y170399D02*
X148353D01*
X123477Y169499D02*
X148353D01*
X123477Y168599D02*
X148353D01*
X123477Y167699D02*
X148353D01*
X123477Y166799D02*
X148353D01*
X145932Y163199D02*
X148205D01*
X123477Y165899D02*
X147969D01*
X123103Y177599D02*
X147855D01*
X145340Y164099D02*
X147832D01*
X144209Y164999D02*
X147761D01*
X135470Y237899D02*
X142833D01*
X101100Y178499D02*
X142221D01*
X136735Y246899D02*
X141569D01*
X101100Y179399D02*
X141208D01*
X137237Y238799D02*
X141066D01*
X132576Y185699D02*
X140733D01*
X137822Y245999D02*
X140482D01*
X123477Y164999D02*
X140441D01*
X101100Y184799D02*
X140438D01*
X101100Y180299D02*
X140416D01*
X138112Y239699D02*
X140191D01*
X138470Y245099D02*
X139834D01*
X101100Y181199D02*
X139832D01*
X101100Y183899D02*
X139777D01*
X138649Y240599D02*
X139654D01*
X101100Y182099D02*
X139526D01*
X101100Y182999D02*
X139509D01*
X123477Y164099D02*
X139310D01*
X123506Y158699D02*
X139128D01*
X123477Y159599D02*
X138790D01*
X123477Y163199D02*
X138718D01*
X123477Y160499D02*
X138445D01*
X123477Y162299D02*
X138412D01*
X123477Y161399D02*
X138326D01*
X101100Y152399D02*
X135098D01*
X131648Y146999D02*
X134583D01*
X130888Y151499D02*
X133813D01*
X132044Y147899D02*
X133630D01*
X131778Y150599D02*
X133296D01*
X132249Y148799D02*
X133220D01*
X132167Y149699D02*
X133094D01*
X111560Y237899D02*
X132833D01*
X119732Y246899D02*
X131569D01*
X114302Y238799D02*
X131066D01*
X119624Y245999D02*
X130482D01*
X101100Y128099D02*
X130252D01*
X115767Y239699D02*
X130191D01*
X119430Y245099D02*
X129834D01*
X116818Y240599D02*
X129654D01*
X124773Y185699D02*
X129513D01*
X119144Y244199D02*
X129440D01*
X101100Y128999D02*
X129343D01*
X117625Y241499D02*
X129340D01*
X118759Y243299D02*
X129239D01*
X118260Y242399D02*
X129207D01*
X125967Y186599D02*
X128559D01*
X101100Y129899D02*
X128443D01*
X101100Y151499D02*
X127608D01*
X101100Y130799D02*
X127543D01*
X101100Y131699D02*
X126982D01*
X101100Y146999D02*
X126848D01*
X101100Y146099D02*
X126848D01*
X101100Y145199D02*
X126848D01*
X101100Y144299D02*
X126848D01*
X101100Y143399D02*
X126848D01*
X101100Y142499D02*
X126848D01*
X101100Y141599D02*
X126848D01*
X101100Y140699D02*
X126848D01*
X101100Y139799D02*
X126848D01*
X101100Y138899D02*
X126848D01*
X101100Y137999D02*
X126848D01*
X101100Y137099D02*
X126848D01*
X101100Y136199D02*
X126848D01*
X101100Y135299D02*
X126848D01*
X101100Y134399D02*
X126848D01*
X101100Y133499D02*
X126848D01*
X101100Y132599D02*
X126848D01*
X101100Y150599D02*
X126718D01*
X101100Y147899D02*
X126452D01*
X101100Y149699D02*
X126334D01*
X101100Y148799D02*
X126254D01*
X101100Y202799D02*
X125062D01*
X101100Y201899D02*
X124162D01*
X101100Y200999D02*
X123262D01*
X101100Y185699D02*
X122468D01*
X101100Y200099D02*
X122362D01*
X101100Y199199D02*
X121563D01*
X101100Y186599D02*
X121275D01*
X101100Y198299D02*
X121244D01*
X101100Y197399D02*
X121221D01*
X101100Y196499D02*
X121221D01*
X101100Y195599D02*
X121221D01*
X101100Y194699D02*
X121221D01*
X101100Y193799D02*
X121221D01*
X101100Y192899D02*
X121221D01*
X101100Y191999D02*
X121221D01*
X101100Y191099D02*
X121221D01*
X101100Y190199D02*
X121165D01*
X101100Y154199D02*
X121127D01*
X101100Y187499D02*
X120782D01*
X101100Y189299D02*
X120738D01*
X101100Y188399D02*
X120622D01*
X101100Y155099D02*
X120224D01*
X101100Y155999D02*
X119326D01*
X101100Y177599D02*
X119052D01*
X101100Y156899D02*
X118794D01*
X101100Y173099D02*
X118677D01*
X101100Y172199D02*
X118677D01*
X101100Y171299D02*
X118677D01*
X101100Y170399D02*
X118677D01*
X101100Y169499D02*
X118677D01*
X101100Y168599D02*
X118677D01*
X101100Y167699D02*
X118677D01*
X101100Y166799D02*
X118677D01*
X101100Y165899D02*
X118677D01*
X101100Y164999D02*
X118677D01*
X101100Y164099D02*
X118677D01*
X101100Y163199D02*
X118677D01*
X101100Y162299D02*
X118677D01*
X101100Y161399D02*
X118677D01*
X101100Y160499D02*
X118677D01*
X101100Y159599D02*
X118677D01*
X101100Y158699D02*
X118677D01*
X101100Y157799D02*
X118677D01*
X101100Y173999D02*
X118417D01*
X101100Y176699D02*
X118380D01*
X101100Y174899D02*
X118117D01*
X101100Y175799D02*
X118106D01*
X101100Y237899D02*
X108211D01*
X101100Y119099D02*
X106469D01*
X101100Y238799D02*
X105469D01*
X101100Y118199D02*
X104638D01*
X101100Y239699D02*
X104004D01*
X101100Y117299D02*
X103422D01*
X101100Y240599D02*
X102953D01*
X101100Y116399D02*
X102509D01*
X101113Y241499D02*
X102146D01*
X278024Y218099D02*
X280177D01*
X278024Y217199D02*
X280177D01*
X279178Y218999D02*
X280062D01*
X279485Y216299D02*
X279869D01*
X253533Y133499D02*
X257489D01*
X249933Y137099D02*
X257152D01*
X249033Y137999D02*
X257049D01*
X252633Y134399D02*
X256927D01*
X250833Y136199D02*
X256784D01*
X251733Y135299D02*
X256716D01*
X248058Y138899D02*
X255235D01*
X252540Y186599D02*
X254960D01*
X252496Y185699D02*
X254960D01*
X252496Y184799D02*
X254960D01*
X252496Y183899D02*
X254960D01*
X252496Y182999D02*
X254960D01*
X252496Y182099D02*
X254960D01*
X252496Y181199D02*
X254960D01*
X252496Y180299D02*
X254960D01*
X252496Y179399D02*
X254960D01*
X252496Y178499D02*
X254960D01*
X252496Y177599D02*
X254960D01*
X252496Y176699D02*
X254960D01*
X252496Y175799D02*
X254960D01*
X252496Y174899D02*
X254960D01*
X252496Y173999D02*
X254960D01*
X252496Y173099D02*
X254960D01*
X252496Y172199D02*
X254960D01*
X252496Y171299D02*
X254960D01*
X252496Y170399D02*
X254960D01*
X252496Y169499D02*
X254960D01*
X252496Y168599D02*
X254960D01*
X252496Y167699D02*
X254960D01*
X252496Y166799D02*
X254960D01*
X252496Y165899D02*
X254960D01*
X252496Y164999D02*
X254960D01*
X252496Y164099D02*
X254960D01*
X252496Y163199D02*
X254960D01*
X252496Y162299D02*
X254960D01*
X252496Y161399D02*
X254960D01*
X252496Y160499D02*
X254960D01*
X252496Y159599D02*
X254960D01*
X252496Y158699D02*
X254960D01*
X252496Y157799D02*
X254960D01*
X252496Y156899D02*
X254960D01*
X252540Y155999D02*
X254960D01*
X252972Y155099D02*
X254960D01*
X253095Y154199D02*
X254960D01*
X252943Y153299D02*
X254960D01*
X252461Y152399D02*
X254960D01*
X251305Y151499D02*
X254960D01*
X249282Y150599D02*
X254960D01*
X252227Y149699D02*
X254960D01*
X253142Y148799D02*
X254960D01*
X253538Y147899D02*
X254960D01*
X253626Y146999D02*
X254960D01*
X253437Y146099D02*
X254960D01*
X252901Y145199D02*
X254960D01*
X251536Y144299D02*
X254960D01*
X245032Y143399D02*
X254960D01*
X252986Y187499D02*
X254957D01*
X244539Y142499D02*
X254751D01*
X244821Y139799D02*
X254618D01*
X244358Y141599D02*
X254417D01*
X244739Y140699D02*
X254377D01*
X253131Y188399D02*
X254219D01*
X248040Y144299D02*
X249725D01*
X219641Y131699D02*
X236587D01*
X227372Y130799D02*
X236412D01*
X221222Y132599D02*
X236223D01*
X221829Y133499D02*
X236160D01*
X235184Y134399D02*
X236147D01*
X215843Y131699D02*
X218519D01*
X214863Y137999D02*
X217406D01*
X214738Y137099D02*
X217279D01*
X214943Y132599D02*
X216938D01*
X214738Y136199D02*
X216482D01*
X214738Y133499D02*
X216330D01*
X214738Y135299D02*
X216140D01*
X214738Y134399D02*
X216095D01*
X257520Y207460D02*
X259520D01*
X263457Y213397D02*
Y211397D01*
X269394Y207460D02*
X267394D01*
X263457Y201523D02*
Y203523D01*
X287326Y216933D02*
X285326D01*
X283752Y213043D02*
Y215043D01*
X280177Y216933D02*
X282177D01*
X213296Y199171D02*
X215296D01*
X219233Y205108D02*
Y203108D01*
X225170Y199171D02*
X223170D01*
X280471Y212208D02*
X278471D01*
X275518Y207846D02*
Y209846D01*
X270565Y212208D02*
X272565D01*
X100000Y257480D02*
X375591D01*
Y100000*
X100000*
Y257480*
G54D35*
X275518Y223232D03*
Y212208D03*
G54D78*
X215381Y125634D02*
X208544Y132471D01*
Y156330*
X208529Y156345*
Y158419*
X290488Y121156D02*
X288211Y118878D01*
X175948*
X171724Y123103*
X171697*
X170553Y124247*
X170552Y135188D02*
Y159193D01*
X170554Y159194*
X170552Y135188D02*
X170553D01*
X185985Y129911D02*
X131825D01*
X129248Y132488*
Y148987*
X219080Y134699D02*
X221064Y136683D01*
X234448*
X236635Y138870*
X259707Y135526D02*
Y150084D01*
X263199Y153576*
X347467Y132770D02*
X340900Y139337D01*
X310369*
X232030Y139025D02*
X232206Y139101D01*
Y141068*
X233408Y142270*
X239548*
X241822Y139996D02*
X239548Y142270D01*
X242193Y144369D02*
X244173Y146349D01*
Y203894*
X257360Y141017D02*
Y188652D01*
X254714Y191298*
X278307Y143000D02*
X314049D01*
X320711Y149663*
Y160980*
X246882Y147066D02*
Y186296D01*
X250096Y154244D02*
Y188364D01*
X250121Y188388*
X150753Y164782D02*
Y178094D01*
X148274Y180574*
X143427*
X142483Y181518*
Y182604*
X160993Y155962D02*
Y155965D01*
X122752*
X121077Y157639*
Y175386*
X170554Y178242D02*
Y159194D01*
Y158226*
X206585Y164756D02*
X210455Y168626D01*
X223355*
X206585Y164756D02*
X202564D01*
X201251Y166069*
X226307Y163000D02*
Y165674D01*
X223355Y168626*
X231307Y164000D02*
X229961D01*
X223626Y170334*
X266652Y161583D02*
Y191510D01*
X262582Y195580*
X247723*
X263028Y165373D02*
X263028D01*
Y191202*
X260703Y193526*
X256933*
X121077Y175386D02*
X121077D01*
X201985Y171308D02*
X202780Y172102D01*
X224858*
X202033Y170134D02*
X201985D01*
Y171308*
X204744Y166756D02*
X204772D01*
Y169550*
X205557Y170334*
X205557D02*
X223626D01*
X233307Y167000D02*
X229961D01*
X224858Y172102*
X259440Y167612D02*
Y191020D01*
X256933Y193526*
X142483Y182604D02*
X146175Y186296D01*
X177142*
X142483Y182604D02*
X142483D01*
X195015Y179292D02*
X196970Y181248D01*
X223461*
X225394Y179315D02*
X223461Y181248D01*
X222195Y176648D02*
Y176734D01*
X234662*
X236895Y178967*
Y232073*
X232961Y236008*
X218885*
Y236059*
X123621Y188468D02*
Y197963D01*
X126903Y201245*
X172020*
X123621Y188468D02*
X123621D01*
X127312Y190223D02*
X130496D01*
X130551Y190278*
X222898*
X228115Y195495*
X131045Y188278D02*
X154056D01*
X154656Y188878*
X226178*
X230587Y193287*
X177162Y186276D02*
X177142Y186296D01*
X230587Y193287D02*
X230400Y193474D01*
X246588Y189206D02*
X246588D01*
X248680Y191298*
X254714*
X246588Y189206D02*
X246588D01*
X246588*
X249740Y193526D02*
X256933D01*
X177756Y201214D02*
X172020Y201245D01*
X244173Y203894D02*
X244148Y203919D01*
X259529Y197661D02*
X259508Y197682D01*
X249825*
X203140Y214658D02*
Y223882D01*
X198869Y228153*
X181963*
X203089Y214608D02*
X203140Y214658D01*
X218921Y214608D02*
X219233Y214920D01*
X171730Y234220D02*
X171823Y234313D01*
Y240192*
X171730Y227920D02*
X181730D01*
X181963Y228153*
Y234453D02*
Y242223D01*
X181823Y242364*
G74*
X0Y0D02*
M02*
