*
*
G04 PADS VX.2.3 Build Number: 9191294 generated Gerber (RS-274-X) file*
G04 PC Version=2.1*
*
%IN "LockBase_ZM_V1.3_201809"*%
*
%MOIN*%
*
%FSLAX35Y35*%
*
*
*
*
G04 PC Standard Apertures*
*
*
G04 Thermal Relief Aperture macro.*
%AMTER*
1,1,$1,0,0*
1,0,$1-$2,0,0*
21,0,$3,$4,0,0,45*
21,0,$3,$4,0,0,135*
%
*
*
G04 Annular Aperture macro.*
%AMANN*
1,1,$1,0,0*
1,0,$2,0,0*
%
*
*
G04 Odd Aperture macro.*
%AMODD*
1,1,$1,0,0*
1,0,$1-0.005,0,0*
%
*
*
G04 PC Custom Aperture Macros*
*
*
*
*
*
*
G04 PC Aperture Table*
*
%ADD010C,0.001*%
%ADD011ANN,0.07087X0.04724*%
%ADD021ANN,0.05906X0.03543*%
%ADD025ANN,0.15748X0.07874*%
%ADD029C,0.02*%
%ADD031C,0.04*%
%ADD032C,0.055*%
%ADD033C,0.01*%
%ADD078C,0.008*%
*
*
*
*
G04 PC Circuitry*
G04 Layer Name LockBase_ZM_V1.3_201809 - circuitry*
%LPD*%
*
*
G04 PC Custom Flashes*
G04 Layer Name LockBase_ZM_V1.3_201809 - flashes*
%LPD*%
*
*
G04 PC Circuitry*
G04 Layer Name LockBase_ZM_V1.3_201809 - circuitry*
%LPD*%
*
G54D10*
G54D11*
G01X343348Y234894D03*
X323348D03*
X303348D03*
X283348D03*
X263348D03*
X243348D03*
G54D21*
X284810Y107688D03*
X294810D03*
X304810D03*
X314810D03*
X324810D03*
X334810D03*
X344810D03*
X201823Y242364D03*
X191823D03*
X181823D03*
X171823D03*
X144152Y242673D03*
X134152D03*
X203089Y214608D03*
X193089D03*
X183089D03*
X173089D03*
G54D25*
X365791Y109835D03*
Y247630D03*
X109886D03*
Y109835D03*
G54D29*
X164388Y117098D03*
X170553Y124247D03*
X273529Y123352D03*
X284738Y125634D03*
X290488Y121156D03*
X321807Y125340D03*
X335171Y116608D03*
X328551Y116545D03*
X344497Y118220D03*
X170553Y135188D03*
X185985Y129911D03*
X219080Y134699D03*
X239150Y133257D03*
X259707Y135526D03*
X294823Y128266D03*
X297498Y132598D03*
X340307Y134000D03*
X163265Y145318D03*
X216307Y141000D03*
X236635Y138870D03*
X232030Y139025D03*
X241822Y139996D03*
X239298Y136994D03*
X242193Y144369D03*
X257360Y141017D03*
X263526Y144758D03*
X278307Y143000D03*
X310369Y139337D03*
X359325Y139600D03*
X369325D03*
X129248Y148987D03*
X136117Y149577D03*
X216307Y149000D03*
X246882Y147066D03*
X250096Y154244D03*
X253834Y151947D03*
X250630Y147159D03*
X263199Y153576D03*
X338618Y154783D03*
X351649Y146010D03*
X150753Y164782D03*
X160993Y155962D03*
X214307Y159000D03*
X208529Y158419D03*
X226307Y163000D03*
X231307Y164000D03*
X241307Y160000D03*
X260363Y158065D03*
X266652Y161583D03*
X263028Y165373D03*
X286870Y162580D03*
X320711Y160980D03*
X324801Y161264D03*
X121077Y175386D03*
X194222Y168938D03*
X202033Y170134D03*
X201251Y166069D03*
X204744Y166756D03*
X233307Y167000D03*
X235307Y169000D03*
X324377Y171255D03*
X142483Y182604D03*
X170554Y178242D03*
X195015Y179292D03*
X202207Y176781D03*
X225394Y179315D03*
X222195Y176648D03*
X123621Y188468D03*
X127312Y190223D03*
X131045Y188278D03*
X177162Y186276D03*
X228115Y195495D03*
X230400Y193474D03*
X246588Y189206D03*
X246882Y186296D03*
X250121Y188388D03*
X247723Y195580D03*
X249740Y193526D03*
X177756Y201214D03*
X244148Y203919D03*
X249825Y197682D03*
X259529Y197661D03*
X324813Y201824D03*
X373391Y201676D03*
X322587Y211573D03*
X373391Y211676D03*
X331801Y224817D03*
X373391Y221676D03*
X331801Y234817D03*
X373391Y231676D03*
X325411Y242509D03*
X364747Y236706D03*
X326285Y255280D03*
X336285D03*
X346285D03*
X355756Y252072D03*
G54D31*
X187601Y152546D03*
X343665Y155516D03*
X343611Y150181D03*
X368249Y155798D03*
X142325Y161470D03*
X351921Y158010D03*
X365850Y162037D03*
X335697Y175708D03*
X340333Y171389D03*
X359189Y166332D03*
X365246Y173711D03*
X343704Y175919D03*
X359716Y183609D03*
X359241Y175974D03*
X368038Y182661D03*
X283832Y192047D03*
X323899Y189824D03*
X359189Y192037D03*
X366723Y191558D03*
G54D32*
X160040Y105800D03*
X268381Y107265D03*
X120536Y123421D03*
X137121Y122039D03*
X155087Y119620D03*
X197912Y125690D03*
X305005Y124886D03*
X314328Y119792D03*
X114548Y134016D03*
X137864Y137446D03*
X178215Y136391D03*
X110977Y147721D03*
X150900Y150341D03*
X179635Y148324D03*
X228837Y151238D03*
X176701Y165416D03*
X276794Y161152D03*
X312261Y163353D03*
X109250Y172483D03*
X130051Y171005D03*
X273333Y170148D03*
X110513Y195429D03*
X272873Y187078D03*
X205778Y205406D03*
X275061Y200898D03*
X109595Y206343D03*
X137093Y210437D03*
X150293Y214596D03*
X192649Y206672D03*
X331654Y208888D03*
X342601Y209510D03*
X211908Y225552D03*
X324205Y222370D03*
X342816Y222534D03*
X124107Y232371D03*
G54D33*
X347351Y209510D02*
G75*
G03X347351I-4750J0D01*
G01X347566Y222534D02*
G03X347566I-4750J0D01*
G01X348891Y234894D02*
G03X348891I-5543J0D01*
G01X336404Y208888D02*
G03X336404I-4750J0D01*
G01X347497Y118220D02*
G03X347497I-3000J0D01*
G01X324807Y125340D02*
G03X324807I-3000J0D01*
G01X313369Y139337D02*
G03X313369I-3000J0D01*
G01X307082Y107688D02*
G03X307082I-2272J0D01*
G01X293488Y121156D02*
G03X293488I-3000J0D01*
G01X308891Y234894D02*
G03X308891I-5543J0D01*
G01X287738Y125634D02*
G03X287738I-3000J0D01*
G01X289870Y162580D02*
G03X289870I-3000J0D01*
G01X281307Y143000D02*
G03X281307I-3000J0D01*
G01X287832Y192047D02*
G03X287832I-4000J0D01*
G01X288891Y234894D02*
G03X288891I-5543J0D01*
G01X262529Y197661D02*
G03X262529I-3000J0D01*
G01X268891Y234894D02*
G03X268891I-5543J0D01*
G01X253096Y154244D02*
G03X253096I-3000J0D01*
G01X244307Y160000D02*
G03X244307I-3000J0D01*
G01X247148Y203919D02*
G03X247148I-3000J0D01*
G01X246210Y234894D02*
G03X246210I-2862J0D01*
G01X219307Y149000D02*
G03X219307I-3000J0D01*
G01X208042Y214608D02*
G03X208042I-4953J0D01*
G01X188985Y129911D02*
G03X188985I-3000J0D01*
G01X191601Y152546D02*
G03X191601I-4000J0D01*
G01X197222Y168938D02*
G03X197222I-3000J0D01*
G01X198015Y179292D02*
G03X198015I-3000J0D01*
G01X206776Y242364D02*
G03X206776I-4953J0D01*
G01X195361Y214608D02*
G03X195361I-2272J0D01*
G01X194095Y242364D02*
G03X194095I-2272J0D01*
G01X180162Y186276D02*
G03X180162I-3000J0D01*
G01X180756Y201214D02*
G03X180756I-3000J0D01*
G01X173553Y135188D02*
G03X173553I-3000J0D01*
G01X173554Y178242D02*
G03X173554I-3000J0D01*
G01X167388Y117098D02*
G03X167388I-3000J0D01*
G01X166265Y145318D02*
G03X166265I-3000J0D01*
G01X163993Y155962D02*
G03X163993I-3000J0D01*
G01X153753Y164782D02*
G03X153753I-3000J0D01*
G01X146325Y161470D02*
G03X146325I-4000J0D01*
G01X145483Y182604D02*
G03X145483I-3000J0D01*
G01X124077Y175386D02*
G03X124077I-3000J0D01*
G01X374491Y241275D02*
G03X373595Y241581I-500J-0D01*
G01X359805Y255483D02*
G03X373595Y241581I5986J-7853D01*
G01X359805Y255483D02*
G03X359502Y256380I-303J397D01*
G01X320209*
G03X319709Y255880I0J-500*
G01Y240058*
G03X320469Y239631I500J0*
G01Y230157D02*
G03Y239631I2879J4737D01*
G01Y230157D02*
G03X319709Y229729I-260J-428D01*
G01Y225775*
G03X320590Y225451I500J0*
G01Y219289D02*
G03Y225451I3615J3081D01*
G01Y219289D02*
G03X319709Y218965I-381J-324D01*
G01Y164444*
G03X320281Y163949I500J0*
G01Y158011D02*
G03Y163949I430J2969D01*
G01Y158011D02*
G03X319709Y157517I-72J-494D01*
G01Y137918*
G03X320209Y137418I500J-0*
G01X373991*
G03X374491Y137918I-0J500*
G01Y241275*
Y133513D02*
G03X373991Y134013I-500J0D01*
G01X343773*
G03X343278Y133583I0J-500*
G01X337336D02*
G03X343278I2971J417D01*
G01X337336D02*
G03X336841Y134013I-495J-70D01*
G01X317823*
X315323Y136513D02*
G03X317823Y134013I2500J0D01*
G01X315323Y136513D02*
Y255880D01*
G03X314823Y256380I-500J0*
G01X116174*
G03X115871Y255483I0J-500*
G01X101999Y241688D02*
G03X115871Y255483I7887J5942D01*
G01X101999Y241688D02*
G03X101100Y241387I-399J-301D01*
G01Y116077*
G03X101999Y115776I500J0*
G01X119760Y109835D02*
G03X101999Y115776I-9874J-0D01*
G01X115891Y101997D02*
G03X119760Y109835I-6005J7838D01*
G01X115891Y101997D02*
G03X116195Y101100I304J-397D01*
G01X170811*
G03X171311Y101600I0J500*
G01Y120756*
G03X170774Y121255I-500J0*
G01X173139Y125766D02*
G03X170774Y121255I-2586J-1519D01*
G01X173139Y125766D02*
G03X173570Y125520I431J254D01*
G01X235692*
Y101600*
G03X236192Y101100I500J0*
G01X359481*
G03X359785Y101997I0J500*
G01X355917Y109835D02*
G03X359785Y101997I9874J-0D01*
G01X373595Y115883D02*
G03X355917Y109835I-7804J-6048D01*
G01X373595Y115883D02*
G03X374491Y116190I396J307D01*
G01Y133513*
X346863Y153112D02*
G03X346762Y152812I399J-300D01*
X346857Y152519I500J-0*
G01X340414Y152585D02*
G03X346857Y152519I3197J-2404D01*
G01X340414Y152585D02*
G03X340514Y152885I-400J300D01*
X340420Y153178I-500J0*
G01X346863Y153112D02*
G03X340420Y153178I-3198J2404D01*
G01X347351Y209510D02*
G03X347351I-4750J0D01*
G01X347566Y222534D02*
G03X347566I-4750J0D01*
G01X348891Y234894D02*
G03X348891I-5543J0D01*
G01X336404Y208888D02*
G03X336404I-4750J0D01*
G01X340269Y105712D02*
G03X339352I-459J-199D01*
G01X330269D02*
G03X339352I4541J1976D01*
G01X330269D02*
G03X329352I-459J-199D01*
G01X320269D02*
G03X329352I4541J1976D01*
G01X320269D02*
G03X319352I-459J-199D01*
G01Y109664D02*
G03Y105712I-4542J-1976D01*
G01Y109664D02*
G03X320269I458J199D01*
G01X329352D02*
G03X320269I-4542J-1976D01*
G01X329352D02*
G03X330269I458J199D01*
G01X334711Y112640D02*
G03X330269Y109664I99J-4952D01*
G01X334711Y112640D02*
G03X335015Y112751I-10J500D01*
X335309Y112616I344J362*
G01X339352Y109664D02*
G03X335309Y112616I-4542J-1976D01*
G01X339352Y109664D02*
G03X340269I458J199D01*
G01Y105712D02*
G03Y109664I4541J1976D01*
G01X347497Y118220D02*
G03X347497I-3000J0D01*
G01X335332Y113612D02*
G03X335045Y113502I27J-499D01*
X334768Y113635I-344J-362*
G01X332343Y115606D02*
G03X334768Y113635I2828J1002D01*
G01X332343Y115606D02*
G03X331398Y115597I-471J-167D01*
G01X331379Y117547D02*
G03X331398Y115597I-2828J-1002D01*
G01X331379Y117547D02*
G03X332325Y117556I471J167D01*
G01X335332Y113612D02*
G03X332325Y117556I-161J2996D01*
G01X324807Y125340D02*
G03X324807I-3000J0D01*
G01X313369Y139337D02*
G03X313369I-3000J0D01*
G01X307082Y107688D02*
G03X307082I-2272J0D01*
G01X290269Y105712D02*
G03X289352I-459J-199D01*
G01Y109664D02*
G03Y105712I-4542J-1976D01*
G01Y109664D02*
G03X290269I458J199D01*
G01Y105712D02*
G03Y109664I4541J1976D01*
G01X293488Y121156D02*
G03X293488I-3000J0D01*
G01X298104Y129660D02*
G03X297704Y129170I100J-490D01*
G01X297704*
G03X297721Y129041I500J-0*
G01X294217Y131204D02*
G03X297721Y129041I606J-2938D01*
G01X294217Y131204D02*
G03X294616Y131694I-101J490D01*
G01X294616*
G03X294599Y131823I-500J-0*
G01X298104Y129660D02*
G03X294599Y131823I-606J2938D01*
G01X308891Y234894D02*
G03X308891I-5543J0D01*
G01X287738Y125634D02*
G03X287738I-3000J0D01*
G01X289870Y162580D02*
G03X289870I-3000J0D01*
G01X281307Y143000D02*
G03X281307I-3000J0D01*
G01X287832Y192047D02*
G03X287832I-4000J0D01*
G01X288891Y234894D02*
G03X288891I-5543J0D01*
G01X257262Y137264D02*
G03X256927Y138048I-408J290D01*
G01X259805Y139279D02*
G03X256927Y138048I-2445J1738D01*
G01X259805Y139279D02*
G03X260140Y138495I408J-289D01*
G01X257262Y137264D02*
G03X260140Y138495I2445J-1738D01*
G01X260331Y154456D02*
G03X260199Y153576I2868J-880D01*
G01X260331Y154456D02*
G03X259926Y155097I-478J147D01*
G01X263363Y158065D02*
G03X259926Y155097I-3000J0D01*
G01X263232Y157185D02*
G03X263363Y158065I-2869J880D01*
G01X263232Y157185D02*
G03X263637Y156544I478J-146D01*
G01X260199Y153576D02*
G03X263637Y156544I3000J0D01*
G01X263663Y161834D02*
G03X263652Y161583I2989J-251D01*
G01X263663Y161834D02*
G03X263664Y161875I-499J41D01*
G01X263664*
G03X263145Y162375I-500J0*
G01X260028Y165373D02*
G03X263145Y162375I3000J-0D01*
G01X266028Y165373D02*
G03X260028I-3000J-0D01*
G01X266017Y165122D02*
G03X266028Y165373I-2989J251D01*
G01X266017Y165122D02*
G03X266015Y165080I498J-42D01*
G01X266015*
G03X266535Y164580I500J-0*
G01X263652Y161583D02*
G03X266535Y164580I3000J-0D01*
G01X262529Y197661D02*
G03X262529I-3000J0D01*
G01X268891Y234894D02*
G03X268891I-5543J0D01*
G01X249087Y144586D02*
G03X248551Y144573I-258J-428D01*
G01X245822Y144260D02*
G03X248551Y144573I1060J2806D01*
G01X245822Y144260D02*
G03X245152Y143875I-177J-468D01*
G01X244363Y142297D02*
G03X245152Y143875I-2170J2072D01*
G01X244363Y142297D02*
G03X244310Y141672I362J-345D01*
G01X242642Y137110D02*
G03X244310Y141672I-820J2886D01*
G01X242642Y137110D02*
G03X242282Y136681I137J-481D01*
G01X241769Y135292D02*
G03X242282Y136681I-2471J1702D01*
G01X241769Y135292D02*
G03X241748Y134758I411J-284D01*
G01X236680Y134958D02*
G03X241748Y134758I2470J-1701D01*
G01X236680Y134958D02*
G03X236768Y135242I-412J284D01*
X236701Y135492I-500J0*
G01X236627Y135627D02*
G03X236701Y135492I2671J1367D01*
G01X236627Y135627D02*
G03X236247Y135895I-445J-227D01*
G01X234585Y136679D02*
G03X236247Y135895I2050J2191D01*
G01X234585Y136679D02*
G03X233928Y136702I-341J-365D01*
G01X234080Y141216D02*
G03X233928Y136702I-2050J-2191D01*
G01X234080Y141216D02*
G03X234737Y141194I341J365D01*
G01X238443Y141264D02*
G03X234737Y141194I-1808J-2394D01*
G01X238443Y141264D02*
G03X239184Y141425I302J399D01*
G01X239652Y142067D02*
G03X239184Y141425I2170J-2071D01*
G01X239652Y142067D02*
G03X239705Y142692I-361J345D01*
G01X243253Y147175D02*
G03X239705Y142692I-1060J-2806D01*
G01X243253Y147175D02*
G03X243923Y147560I177J468D01*
G01X248426Y149639D02*
G03X243923Y147560I-1544J-2573D01*
G01X248426Y149639D02*
G03X248961Y149652I257J428D01*
G01X249087Y144586D02*
G03X248961Y149652I1543J2573D01*
G01X253096Y154244D02*
G03X253096I-3000J0D01*
G01X244307Y160000D02*
G03X244307I-3000J0D01*
G01X250092Y185389D02*
G03X249629Y185090I-5J-500D01*
G01X244045Y187269D02*
G03X249629Y185090I2837J-973D01*
G01X244045Y187269D02*
G03X244002Y187684I-473J162D01*
G01X245952Y192138D02*
G03X244002Y187684I636J-2932D01*
G01X245952Y192138D02*
G03X246114Y193048I-107J488D01*
G01X246703Y198402D02*
G03X246114Y193048I1020J-2822D01*
G01X246703Y198402D02*
G03X247004Y198702I-170J470D01*
G01X252202Y195852D02*
G03X247004Y198702I-2377J1830D01*
G01X252202Y195852D02*
G03X252190Y195258I396J-305D01*
G01X252740Y193526D02*
G03X252190Y195258I-3000J0D01*
G01X251929Y191474D02*
G03X252740Y193526I-2189J2052D01*
G01X251929Y191474D02*
G03X251983Y190740I365J-342D01*
G01X250092Y185389D02*
G03X251983Y190740I29J2999D01*
G01X247148Y203919D02*
G03X247148I-3000J0D01*
G01X246210Y234894D02*
G03X246210I-2862J0D01*
G01X238307Y169000D02*
X238307D01*
X236390Y166202D02*
G03X238307Y169000I-1083J2798D01*
G01X236390Y166202D02*
G03X236105Y165917I181J-466D01*
G01X234590Y164288D02*
G03X236105Y165917I-1283J2712D01*
G01X234590Y164288D02*
G03X234304Y163859I213J-452D01*
G01X229567Y161556D02*
G03X234304Y163859I1740J2444D01*
G01X229567Y161556D02*
G03X228853Y161413I-290J-407D01*
G01X228047Y165444D02*
G03X228853Y161413I-1740J-2444D01*
G01X228047Y165444D02*
G03X228761Y165587I290J407D01*
G01X230025Y166712D02*
G03X228761Y165587I1282J-2712D01*
G01X230025Y166712D02*
G03X230310Y167141I-214J452D01*
G01X232224Y169798D02*
G03X230310Y167141I1083J-2798D01*
G01X232224Y169798D02*
G03X232509Y170083I-181J466D01*
G01X238307Y169000D02*
G03X232509Y170083I-3000J0D01*
G01X217394Y137180D02*
G03X216998Y138081I-281J414D01*
G01X217993Y138519D02*
G03X216998Y138081I-1686J2481D01*
G01X217993Y138519D02*
G03X218389Y137618I281J-414D01*
G01X217394Y137180D02*
G03X218389Y137618I1686J-2481D01*
G01X219307Y149000D02*
G03X219307I-3000J0D01*
G01X225567Y176320D02*
G03X225110Y175939I28J-499D01*
G01X219195Y176648D02*
G03X225109Y175939I3000J0D01*
G01X222022Y179643D02*
G03X219195Y176648I173J-2995D01*
G01X222022Y179643D02*
G03X222479Y180024I-29J499D01*
G01X225567Y176320D02*
G03X222479Y180024I-173J2995D01*
G01X227632Y192317D02*
G03X227305Y192606I-461J-192D01*
G01X230883Y196652D02*
G03X227305Y192606I-2768J-1157D01*
G01X230883Y196652D02*
G03X231209Y196363I461J192D01*
G01X227632Y192317D02*
G03X231209Y196363I2768J1157D01*
G01X211998Y157084D02*
G03X211173Y157001I-384J-319D01*
G01X210838Y160334D02*
G03X211173Y157001I-2309J-1915D01*
G01X210838Y160334D02*
G03X211663Y160417I384J320D01*
G01X211998Y157084D02*
G03X211663Y160417I2309J1916D01*
G01X203745Y163927D02*
G03X203246Y163829I-166J-471D01*
G01X199211Y168269D02*
G03X203246Y163829I2040J-2200D01*
G01X199211Y168269D02*
G03X199322Y168849I-340J366D01*
G01X205033Y170161D02*
G03X199322Y168849I-3000J-27D01*
G01X205033Y170161D02*
G03X205420Y169679I500J5D01*
G01X203745Y163927D02*
G03X205420Y169679I999J2829D01*
G01X208042Y214608D02*
G03X208042I-4953J0D01*
G01X188985Y129911D02*
G03X188985I-3000J0D01*
G01X191601Y152546D02*
G03X191601I-4000J0D01*
G01X197222Y168938D02*
G03X197222I-3000J0D01*
G01X198015Y179292D02*
G03X198015I-3000J0D01*
G01X206776Y242364D02*
G03X206776I-4953J0D01*
G01X195361Y214608D02*
G03X195361I-2272J0D01*
G01X194095Y242364D02*
G03X194095I-2272J0D01*
G01X180162Y186276D02*
G03X180162I-3000J0D01*
G01X180756Y201214D02*
G03X180756I-3000J0D01*
G01X173553Y135188D02*
G03X173553I-3000J0D01*
G01X173554Y178242D02*
G03X173554I-3000J0D01*
G01X178548Y212632D02*
G03X177631I-459J-200D01*
G01Y216584D02*
G03Y212632I-4542J-1976D01*
G01Y216584D02*
G03X178548I458J199D01*
G01Y212632D02*
G03Y216584I4541J1976D01*
G01X167388Y117098D02*
G03X167388I-3000J0D01*
G01X177281Y240388D02*
G03X176364I-458J-200D01*
G01Y244340D02*
G03Y240388I-4541J-1976D01*
G01Y244340D02*
G03X177281I459J199D01*
G01Y240388D02*
G03Y244340I4542J1976D01*
G01X166265Y145318D02*
G03X166265I-3000J0D01*
G01X163993Y155962D02*
G03X163993I-3000J0D01*
G01X153753Y164782D02*
G03X153753I-3000J0D01*
G01X133218Y148806D02*
G03X132236Y148722I-484J-128D01*
G01X132147Y149758D02*
G03X132236Y148722I-2899J-771D01*
G01X132147Y149758D02*
G03X133129Y149842I483J128D01*
G01X133218Y148806D02*
G03X133129Y149842I2899J771D01*
G01X146325Y161470D02*
G03X146325I-4000J0D01*
G01X145483Y182604D02*
G03X145483I-3000J0D01*
G01X124077Y175386D02*
G03X124077I-3000J0D01*
G01X128337Y186986D02*
G03X127804Y187264I-451J-215D01*
G01X126776Y187272D02*
G03X127804Y187264I536J2951D01*
G01X126776Y187272D02*
G03X126248Y187021I-90J-492D01*
G01X124157Y191420D02*
G03X126248Y187021I-536J-2952D01*
G01X124157Y191420D02*
G03X124685Y191671I90J492D01*
G01X130020Y191516D02*
G03X124685Y191671I-2708J-1293D01*
G01X130020Y191516D02*
G03X130553Y191238I451J215D01*
G01X128337Y186986D02*
G03X130553Y191238I2708J1292D01*
G01X139610Y240697D02*
G03X138693I-458J-200D01*
G01Y244649D02*
G03Y240697I-4541J-1976D01*
G01Y244649D02*
G03X139610I459J199D01*
G01Y240697D02*
G03Y244649I4542J1976D01*
G01X373032Y240917D02*
X374491D01*
X372079Y240017D02*
X374491D01*
X370793Y239117D02*
X374491D01*
X368772Y238217D02*
X374491D01*
X348334Y237317D02*
X374491D01*
X348678Y236417D02*
X374491D01*
X348856Y235517D02*
X374491D01*
X348884Y234617D02*
X374491D01*
X348765Y233717D02*
X374491D01*
X348487Y232817D02*
X374491D01*
X348024Y231917D02*
X374491D01*
X347310Y231017D02*
X374491D01*
X346160Y230117D02*
X374491D01*
X319709Y229217D02*
X374491D01*
X319709Y228317D02*
X374491D01*
X319709Y227417D02*
X374491D01*
X345405Y226517D02*
X374491D01*
X346430Y225617D02*
X374491D01*
X347035Y224717D02*
X374491D01*
X347390Y223817D02*
X374491D01*
X347551Y222917D02*
X374491D01*
X347538Y222017D02*
X374491D01*
X347350Y221117D02*
X374491D01*
X346962Y220217D02*
X374491D01*
X346310Y219317D02*
X374491D01*
X345184Y218417D02*
X374491D01*
X319709Y217517D02*
X374491D01*
X319709Y216617D02*
X374491D01*
X319709Y215717D02*
X374491D01*
X319709Y214817D02*
X374491D01*
X344375Y213917D02*
X374491D01*
X345805Y213017D02*
X374491D01*
X346572Y212117D02*
X374491D01*
X347034Y211217D02*
X374491D01*
X347282Y210317D02*
X374491D01*
X347350Y209417D02*
X374491D01*
X347246Y208517D02*
X374491D01*
X346957Y207617D02*
X374491D01*
X346443Y206717D02*
X374491D01*
X345588Y205817D02*
X374491D01*
X343811Y204917D02*
X374491D01*
X319709Y204017D02*
X374491D01*
X319709Y203117D02*
X374491D01*
X319709Y202217D02*
X374491D01*
X319709Y201317D02*
X374491D01*
X319709Y200417D02*
X374491D01*
X319709Y199517D02*
X374491D01*
X319709Y198617D02*
X374491D01*
X319709Y197717D02*
X374491D01*
X319709Y196817D02*
X374491D01*
X319709Y195917D02*
X374491D01*
X319709Y195017D02*
X374491D01*
X319709Y194117D02*
X374491D01*
X319709Y193217D02*
X374491D01*
X319709Y192317D02*
X374491D01*
X319709Y191417D02*
X374491D01*
X319709Y190517D02*
X374491D01*
X319709Y189617D02*
X374491D01*
X319709Y188717D02*
X374491D01*
X319709Y187817D02*
X374491D01*
X319709Y186917D02*
X374491D01*
X319709Y186017D02*
X374491D01*
X319709Y185117D02*
X374491D01*
X319709Y184217D02*
X374491D01*
X319709Y183317D02*
X374491D01*
X319709Y182417D02*
X374491D01*
X319709Y181517D02*
X374491D01*
X319709Y180617D02*
X374491D01*
X319709Y179717D02*
X374491D01*
X319709Y178817D02*
X374491D01*
X319709Y177917D02*
X374491D01*
X319709Y177017D02*
X374491D01*
X319709Y176117D02*
X374491D01*
X319709Y175217D02*
X374491D01*
X319709Y174317D02*
X374491D01*
X319709Y173417D02*
X374491D01*
X319709Y172517D02*
X374491D01*
X319709Y171617D02*
X374491D01*
X319709Y170717D02*
X374491D01*
X319709Y169817D02*
X374491D01*
X319709Y168917D02*
X374491D01*
X319709Y168017D02*
X374491D01*
X319709Y167117D02*
X374491D01*
X319709Y166217D02*
X374491D01*
X319709Y165317D02*
X374491D01*
X319710Y164417D02*
X374491D01*
X322314Y163517D02*
X374491D01*
X323226Y162617D02*
X374491D01*
X323620Y161717D02*
X374491D01*
X323707Y160817D02*
X374491D01*
X323516Y159917D02*
X374491D01*
X345600Y159017D02*
X374491D01*
X346704Y158117D02*
X374491D01*
X347286Y157217D02*
X374491D01*
X347584Y156317D02*
X374491D01*
X347664Y155417D02*
X374491D01*
X347539Y154517D02*
X374491D01*
X347186Y153617D02*
X374491D01*
X346771Y152717D02*
X374491D01*
X347261Y151817D02*
X374491D01*
X347543Y150917D02*
X374491D01*
X347608Y150017D02*
X374491D01*
X347467Y149117D02*
X374491D01*
X347095Y148217D02*
X374491D01*
X346403Y147317D02*
X374491D01*
X344964Y146417D02*
X374491D01*
X319709Y145517D02*
X374491D01*
X319709Y144617D02*
X374491D01*
X319709Y143717D02*
X374491D01*
X319709Y142817D02*
X374491D01*
X319709Y141917D02*
X374491D01*
X319709Y141017D02*
X374491D01*
X319709Y140117D02*
X374491D01*
X319709Y139217D02*
X374491D01*
X319709Y138317D02*
X374491D01*
X347785Y238217D02*
X362810D01*
X346939Y239117D02*
X360789D01*
X319839Y256217D02*
X359872D01*
X319709Y255317D02*
X359593D01*
X345466Y240017D02*
X359503D01*
X319709Y254417D02*
X358619D01*
X319709Y240917D02*
X358550D01*
X319709Y253517D02*
X357864D01*
X319709Y241817D02*
X357810D01*
X319709Y252617D02*
X357269D01*
X319709Y242717D02*
X357226D01*
X319709Y251717D02*
X356802D01*
X319709Y243617D02*
X356769D01*
X319709Y250817D02*
X356445D01*
X319709Y244517D02*
X356421D01*
X319709Y249917D02*
X356185D01*
X319709Y245417D02*
X356168D01*
X319709Y249017D02*
X356015D01*
X319709Y246317D02*
X356005D01*
X319709Y248117D02*
X355929D01*
X319709Y247217D02*
X355926D01*
X319709Y146417D02*
X342259D01*
X322979Y159017D02*
X341730D01*
X334260Y204917D02*
X341392D01*
X325466Y240017D02*
X341230D01*
X319709Y213917D02*
X340828D01*
X319709Y147317D02*
X340819D01*
X321605Y158117D02*
X340626D01*
X326160Y230117D02*
X340536D01*
X319709Y152717D02*
X340485D01*
X326838Y218417D02*
X340448D01*
X326522Y226517D02*
X340227D01*
X319709Y153617D02*
X340145D01*
X319709Y148217D02*
X340127D01*
X319709Y157217D02*
X340045D01*
X319709Y151817D02*
X339961D01*
X319709Y154517D02*
X339792D01*
X326939Y239117D02*
X339757D01*
X319709Y149117D02*
X339755D01*
X319709Y156317D02*
X339746D01*
X319709Y150917D02*
X339679D01*
X319709Y155417D02*
X339667D01*
X319709Y150017D02*
X339614D01*
X335277Y205817D02*
X339614D01*
X334003Y213017D02*
X339397D01*
X327310Y231017D02*
X339386D01*
X327844Y219317D02*
X339322D01*
X327672Y225617D02*
X339202D01*
X327785Y238217D02*
X338911D01*
X335879Y206717D02*
X338759D01*
X328024Y231917D02*
X338672D01*
X328439Y220217D02*
X338670D01*
X335138Y212117D02*
X338630D01*
X328335Y224717D02*
X338597D01*
X328334Y237317D02*
X338362D01*
X328787Y221117D02*
X338282D01*
X336231Y207617D02*
X338245D01*
X328729Y223817D02*
X338242D01*
X328487Y232817D02*
X338208D01*
X335794Y211217D02*
X338168D01*
X328942Y222017D02*
X338094D01*
X328924Y222917D02*
X338081D01*
X328678Y236417D02*
X338018D01*
X336390Y208517D02*
X337956D01*
X328765Y233717D02*
X337931D01*
X336184Y210317D02*
X337920D01*
X336375Y209417D02*
X337852D01*
X328856Y235517D02*
X337840D01*
X328884Y234617D02*
X337811D01*
X319709Y213017D02*
X329305D01*
X319709Y204917D02*
X329048D01*
X319709Y212117D02*
X328170D01*
X319709Y205817D02*
X328031D01*
X319709Y211217D02*
X327514D01*
X319709Y206717D02*
X327429D01*
X319709Y210317D02*
X327124D01*
X319709Y207617D02*
X327077D01*
X319709Y209417D02*
X326934D01*
X319709Y208517D02*
X326919D01*
X319709Y226517D02*
X321888D01*
X319709Y218417D02*
X321572D01*
X319711Y240017D02*
X321230D01*
X319735Y225617D02*
X320738D01*
X319854Y219317D02*
X320565D01*
X319893Y230117D02*
X320536D01*
X343265Y133499D02*
X374491D01*
X342960Y132599D02*
X374491D01*
X342232Y131699D02*
X374491D01*
X299898Y130799D02*
X374491D01*
X298807Y129899D02*
X374491D01*
X297732Y128999D02*
X374491D01*
X322986Y128099D02*
X374491D01*
X324162Y127199D02*
X374491D01*
X324650Y126299D02*
X374491D01*
X324807Y125399D02*
X374491D01*
X324687Y124499D02*
X374491D01*
X324250Y123599D02*
X374491D01*
X323230Y122699D02*
X374491D01*
X293419Y121799D02*
X374491D01*
X345848Y120899D02*
X374491D01*
X346913Y119999D02*
X374491D01*
X369207Y119099D02*
X374491D01*
X371039Y118199D02*
X374491D01*
X372255Y117299D02*
X374491D01*
X373167Y116399D02*
X374491D01*
X347366Y119099D02*
X362375D01*
X347497Y118199D02*
X360543D01*
X235692Y101999D02*
X359783D01*
X347352Y117299D02*
X359327D01*
X346072Y102899D02*
X358763D01*
X346881Y116399D02*
X358415D01*
X347877Y103799D02*
X357977D01*
X345760Y115499D02*
X357703D01*
X348759Y104699D02*
X357358D01*
X337399Y114599D02*
X357142D01*
X349301Y105599D02*
X356872D01*
X335903Y113699D02*
X356705D01*
X349618Y106499D02*
X356498D01*
X235692Y112799D02*
X356372D01*
X349754Y107399D02*
X356222D01*
X347418Y111899D02*
X356135D01*
X349725Y108299D02*
X356037D01*
X348494Y110999D02*
X355986D01*
X349527Y109199D02*
X355937D01*
X349137Y110099D02*
X355921D01*
X336072Y102899D02*
X343548D01*
X337958Y115499D02*
X343234D01*
X293477Y120899D02*
X343146D01*
X337418Y111899D02*
X342202D01*
X338164Y116399D02*
X342113D01*
X293256Y119999D02*
X342081D01*
X337877Y103799D02*
X341744D01*
X338091Y117299D02*
X341642D01*
X336843Y119099D02*
X341629D01*
X337715Y118199D02*
X341497D01*
X338494Y110999D02*
X341126D01*
X338759Y104699D02*
X340861D01*
X339137Y110099D02*
X340484D01*
X339301Y105599D02*
X340320D01*
X300360Y131699D02*
X338382D01*
X300498Y132599D02*
X337654D01*
X300359Y133499D02*
X337349D01*
X329499Y113699D02*
X334439D01*
X326072Y102899D02*
X333548D01*
X330125Y119099D02*
X333499D01*
X330834Y114599D02*
X332943D01*
X331054Y118199D02*
X332628D01*
X331363Y115499D02*
X332384D01*
X327418Y111899D02*
X332202D01*
X331571Y117299D02*
X332129D01*
X327877Y103799D02*
X331744D01*
X328494Y110999D02*
X331126D01*
X328759Y104699D02*
X330861D01*
X329137Y110099D02*
X330484D01*
X329301Y105599D02*
X330320D01*
X235692Y113699D02*
X327603D01*
X292672Y119099D02*
X326977D01*
X235692Y114599D02*
X326268D01*
X290992Y118199D02*
X326048D01*
X235692Y115499D02*
X325739D01*
X235692Y117299D02*
X325647D01*
X235692Y116399D02*
X325555D01*
X316072Y102899D02*
X323548D01*
X317418Y111899D02*
X322202D01*
X317877Y103799D02*
X321744D01*
X318494Y110999D02*
X321126D01*
X318759Y104699D02*
X320861D01*
X297819Y128099D02*
X320628D01*
X319137Y110099D02*
X320484D01*
X293061Y122699D02*
X320385D01*
X319301Y105599D02*
X320320D01*
X297627Y127199D02*
X319452D01*
X292230Y123599D02*
X319364D01*
X297088Y126299D02*
X318964D01*
X287515Y124499D02*
X318927D01*
X295706Y125399D02*
X318808D01*
X299897Y134399D02*
X316489D01*
X298803Y135299D02*
X315638D01*
X262631Y136199D02*
X315343D01*
X116458Y254999D02*
X315323D01*
X117345Y254099D02*
X315323D01*
X118039Y253199D02*
X315323D01*
X118586Y252299D02*
X315323D01*
X119012Y251399D02*
X315323D01*
X119334Y250499D02*
X315323D01*
X119561Y249599D02*
X315323D01*
X119702Y248699D02*
X315323D01*
X119758Y247799D02*
X315323D01*
X203813Y246899D02*
X315323D01*
X205187Y245999D02*
X315323D01*
X205952Y245099D02*
X315323D01*
X206423Y244199D02*
X315323D01*
X206687Y243299D02*
X315323D01*
X206775Y242399D02*
X315323D01*
X206700Y241499D02*
X315323D01*
X206451Y240599D02*
X315323D01*
X306112Y239699D02*
X315323D01*
X307282Y238799D02*
X315323D01*
X308006Y237899D02*
X315323D01*
X308476Y236999D02*
X315323D01*
X308759Y236099D02*
X315323D01*
X308883Y235199D02*
X315323D01*
X308859Y234299D02*
X315323D01*
X308686Y233399D02*
X315323D01*
X308347Y232499D02*
X315323D01*
X307806Y231599D02*
X315323D01*
X306971Y230699D02*
X315323D01*
X305532Y229799D02*
X315323D01*
X101100Y228899D02*
X315323D01*
X101100Y227999D02*
X315323D01*
X101100Y227099D02*
X315323D01*
X101100Y226199D02*
X315323D01*
X101100Y225299D02*
X315323D01*
X101100Y224399D02*
X315323D01*
X101100Y223499D02*
X315323D01*
X101100Y222599D02*
X315323D01*
X101100Y221699D02*
X315323D01*
X101100Y220799D02*
X315323D01*
X101100Y219899D02*
X315323D01*
X205380Y218999D02*
X315323D01*
X206602Y218099D02*
X315323D01*
X207310Y217199D02*
X315323D01*
X207744Y216299D02*
X315323D01*
X207978Y215399D02*
X315323D01*
X208041Y214499D02*
X315323D01*
X207938Y213599D02*
X315323D01*
X207659Y212699D02*
X315323D01*
X207168Y211799D02*
X315323D01*
X206372Y210899D02*
X315323D01*
X204903Y209999D02*
X315323D01*
X101100Y209099D02*
X315323D01*
X101100Y208199D02*
X315323D01*
X101100Y207299D02*
X315323D01*
X245836Y206399D02*
X315323D01*
X246698Y205499D02*
X315323D01*
X247070Y204599D02*
X315323D01*
X247140Y203699D02*
X315323D01*
X246931Y202799D02*
X315323D01*
X246366Y201899D02*
X315323D01*
X244837Y200999D02*
X315323D01*
X261278Y200099D02*
X315323D01*
X262105Y199199D02*
X315323D01*
X262460Y198299D02*
X315323D01*
X262517Y197399D02*
X315323D01*
X262294Y196499D02*
X315323D01*
X285672Y195599D02*
X315323D01*
X286827Y194699D02*
X315323D01*
X287428Y193799D02*
X315323D01*
X287740Y192899D02*
X315323D01*
X287832Y191999D02*
X315323D01*
X287718Y191099D02*
X315323D01*
X287379Y190199D02*
X315323D01*
X286738Y189299D02*
X315323D01*
X285472Y188399D02*
X315323D01*
X252986Y187499D02*
X315323D01*
X252528Y186599D02*
X315323D01*
X251449Y185699D02*
X315323D01*
X249482Y184799D02*
X315323D01*
X248686Y183899D02*
X315323D01*
X145457Y182999D02*
X315323D01*
X226512Y182099D02*
X315323D01*
X227729Y181199D02*
X315323D01*
X228228Y180299D02*
X315323D01*
X228392Y179399D02*
X315323D01*
X228280Y178499D02*
X315323D01*
X227854Y177599D02*
X315323D01*
X226862Y176699D02*
X315323D01*
X225072Y175799D02*
X315323D01*
X224632Y174899D02*
X315323D01*
X223602Y173999D02*
X315323D01*
X202495Y173099D02*
X315323D01*
X204210Y172199D02*
X315323D01*
X237235Y171299D02*
X315323D01*
X237961Y170399D02*
X315323D01*
X238265Y169499D02*
X315323D01*
X238280Y168599D02*
X315323D01*
X264922Y167699D02*
X315323D01*
X265667Y166799D02*
X315323D01*
X265981Y165899D02*
X315323D01*
X288645Y164999D02*
X315323D01*
X289457Y164099D02*
X315323D01*
X289806Y163199D02*
X315323D01*
X289857Y162299D02*
X315323D01*
X289628Y161399D02*
X315323D01*
X289031Y160499D02*
X315323D01*
X287205Y159599D02*
X315323D01*
X267479Y158699D02*
X315323D01*
X263352Y157799D02*
X315323D01*
X263230Y156899D02*
X315323D01*
X264969Y155999D02*
X315323D01*
X265784Y155099D02*
X315323D01*
X266134Y154199D02*
X315323D01*
X266187Y153299D02*
X315323D01*
X265959Y152399D02*
X315323D01*
X265364Y151499D02*
X315323D01*
X263567Y150599D02*
X315323D01*
X252227Y149699D02*
X315323D01*
X253142Y148799D02*
X315323D01*
X253538Y147899D02*
X315323D01*
X253626Y146999D02*
X315323D01*
X253437Y146099D02*
X315323D01*
X280348Y145199D02*
X315323D01*
X281011Y144299D02*
X315323D01*
X281280Y143399D02*
X315323D01*
X281265Y142499D02*
X315323D01*
X312340Y141599D02*
X315323D01*
X313042Y140699D02*
X315323D01*
X313333Y139799D02*
X315323D01*
X313337Y138899D02*
X315323D01*
X313054Y137999D02*
X315323D01*
X312366Y137099D02*
X315323D01*
X115675Y255899D02*
X315323D01*
X296072Y102899D02*
X313548D01*
X297418Y111899D02*
X312202D01*
X297877Y103799D02*
X311744D01*
X298494Y110999D02*
X311126D01*
X298759Y104699D02*
X310861D01*
X299137Y110099D02*
X310484D01*
X305702Y105599D02*
X310320D01*
X306507Y109199D02*
X310093D01*
X306746Y106499D02*
X310002D01*
X306998Y108299D02*
X309895D01*
X307063Y107399D02*
X309866D01*
X280960Y141599D02*
X308397D01*
X262262Y137099D02*
X308372D01*
X280232Y140699D02*
X307695D01*
X261406Y137999D02*
X307684D01*
X260101Y139799D02*
X307404D01*
X259721Y138899D02*
X307401D01*
X299301Y105599D02*
X303918D01*
X299527Y109199D02*
X303114D01*
X299618Y106499D02*
X302875D01*
X299725Y108299D02*
X302622D01*
X299754Y107399D02*
X302557D01*
X285532Y229799D02*
X301164D01*
X286112Y239699D02*
X300584D01*
X286971Y230699D02*
X299724D01*
X287282Y238799D02*
X299413D01*
X287806Y231599D02*
X298890D01*
X288006Y237899D02*
X298690D01*
X288347Y232499D02*
X298349D01*
X288476Y236999D02*
X298220D01*
X288686Y233399D02*
X298010D01*
X288759Y236099D02*
X297937D01*
X288859Y234299D02*
X297836D01*
X288883Y235199D02*
X297813D01*
X262699Y135299D02*
X296192D01*
X262487Y134399D02*
X295098D01*
X261919Y133499D02*
X294636D01*
X241714Y131699D02*
X294616D01*
X260363Y132599D02*
X294498D01*
X287729Y125399D02*
X293940D01*
X286072Y102899D02*
X293548D01*
X240870Y130799D02*
X293215D01*
X287664Y126299D02*
X292558D01*
X188985Y129899D02*
X292306D01*
X287418Y111899D02*
X292202D01*
X287298Y127199D02*
X292019D01*
X188843Y128999D02*
X291914D01*
X286449Y128099D02*
X291828D01*
X287877Y103799D02*
X291744D01*
X288494Y110999D02*
X291126D01*
X288759Y104699D02*
X290861D01*
X289137Y110099D02*
X290484D01*
X289301Y105599D02*
X290320D01*
X235692Y118199D02*
X289984D01*
X286942Y123599D02*
X288746D01*
X235692Y119099D02*
X288305D01*
X285357Y122699D02*
X287915D01*
X235692Y119999D02*
X287720D01*
X235692Y121799D02*
X287558D01*
X235692Y120899D02*
X287499D01*
X268903Y159599D02*
X286535D01*
X266022Y164999D02*
X285095D01*
X269450Y160499D02*
X284709D01*
X268286Y164099D02*
X284283D01*
X235692Y122699D02*
X284120D01*
X269647Y161399D02*
X284112D01*
X269180Y163199D02*
X283935D01*
X269566Y162299D02*
X283883D01*
X235692Y102899D02*
X283548D01*
X188376Y128099D02*
X283028D01*
X235692Y123599D02*
X282535D01*
X235692Y111899D02*
X282202D01*
X253121Y188399D02*
X282192D01*
X187267Y127199D02*
X282179D01*
X261707Y195599D02*
X281992D01*
X235692Y124499D02*
X281962D01*
X172741Y126299D02*
X281813D01*
X235692Y125399D02*
X281748D01*
X235692Y103799D02*
X281744D01*
X265532Y229799D02*
X281164D01*
X235692Y110999D02*
X281126D01*
X252979Y189299D02*
X280926D01*
X235692Y104699D02*
X280861D01*
X260001Y194699D02*
X280837D01*
X266112Y239699D02*
X280584D01*
X235692Y110099D02*
X280484D01*
X235692Y105599D02*
X280320D01*
X252513Y190199D02*
X280285D01*
X252728Y193799D02*
X280236D01*
X235692Y109199D02*
X280093D01*
X235692Y106499D02*
X280002D01*
X251795Y191099D02*
X279946D01*
X252674Y192899D02*
X279924D01*
X235692Y108299D02*
X279895D01*
X235692Y107399D02*
X279866D01*
X252322Y191999D02*
X279832D01*
X266971Y230699D02*
X279724D01*
X267282Y238799D02*
X279413D01*
X267806Y231599D02*
X278890D01*
X268006Y237899D02*
X278690D01*
X268347Y232499D02*
X278349D01*
X268476Y236999D02*
X278220D01*
X268686Y233399D02*
X278010D01*
X268759Y236099D02*
X277937D01*
X268859Y234299D02*
X277836D01*
X268883Y235199D02*
X277813D01*
X260343Y140699D02*
X276382D01*
X252901Y145199D02*
X276266D01*
X260303Y141599D02*
X275654D01*
X251536Y144299D02*
X275603D01*
X259968Y142499D02*
X275349D01*
X259184Y143399D02*
X275334D01*
X263296Y158699D02*
X265826D01*
X262942Y159599D02*
X264402D01*
X262118Y160499D02*
X263855D01*
X243961Y161399D02*
X263658D01*
X243235Y162299D02*
X263430D01*
X218846Y150599D02*
X262832D01*
X101100Y229799D02*
X261164D01*
X238010Y167699D02*
X261133D01*
X251305Y151499D02*
X261035D01*
X234198Y163199D02*
X260960D01*
X205998Y239699D02*
X260584D01*
X252461Y152399D02*
X260440D01*
X237345Y166799D02*
X260388D01*
X234378Y164099D02*
X260311D01*
X253095Y154199D02*
X260265D01*
X252943Y153299D02*
X260212D01*
X236098Y165899D02*
X260074D01*
X235542Y164999D02*
X260051D01*
X252972Y155099D02*
X259917D01*
X101100Y230699D02*
X259724D01*
X205261Y238799D02*
X259413D01*
X252502Y194699D02*
X259057D01*
X242077Y132599D02*
X259052D01*
X101100Y231599D02*
X258890D01*
X203967Y237899D02*
X258690D01*
X244265Y160499D02*
X258609D01*
X244915Y232499D02*
X258349D01*
X245287Y236999D02*
X258220D01*
X252529Y155999D02*
X258189D01*
X245789Y233399D02*
X258010D01*
X245944Y236099D02*
X257937D01*
X246147Y234299D02*
X257836D01*
X246194Y235199D02*
X257813D01*
X244280Y159599D02*
X257785D01*
X251603Y200099D02*
X257780D01*
X251493Y156899D02*
X257600D01*
X242141Y133499D02*
X257496D01*
X244010Y158699D02*
X257431D01*
X243345Y157799D02*
X257375D01*
X252101Y195599D02*
X257350D01*
X242608Y137099D02*
X257152D01*
X244061Y137999D02*
X257082D01*
X252413Y199199D02*
X256953D01*
X241924Y134399D02*
X256927D01*
X242191Y136199D02*
X256784D01*
X252582Y196499D02*
X256763D01*
X241773Y135299D02*
X256716D01*
X252761Y198299D02*
X256597D01*
X252812Y197399D02*
X256540D01*
X245032Y143399D02*
X255535D01*
X244615Y138899D02*
X255235D01*
X244539Y142499D02*
X254751D01*
X244816Y139799D02*
X254618D01*
X244358Y141599D02*
X254417D01*
X244739Y140699D02*
X254377D01*
X248040Y144299D02*
X249725D01*
X248321Y149699D02*
X249034D01*
X217967Y151499D02*
X248886D01*
X216448Y156899D02*
X248698D01*
X180540Y200099D02*
X248047D01*
X191599Y152399D02*
X247730D01*
X210302Y155999D02*
X247662D01*
X191530Y153299D02*
X247249D01*
X179978Y199199D02*
X247237D01*
X190680Y155099D02*
X247220D01*
X191244Y154199D02*
X247096D01*
X229182Y198299D02*
X246454D01*
X233344Y192899D02*
X246265D01*
X233012Y191999D02*
X245492D01*
X219225Y149699D02*
X245444D01*
X230433Y197399D02*
X245337D01*
X233382Y193799D02*
X245309D01*
X178993Y183899D02*
X245079D01*
X230983Y196499D02*
X244867D01*
X233139Y194699D02*
X244855D01*
X232518Y195599D02*
X244723D01*
X219300Y148799D02*
X244433D01*
X179773Y184799D02*
X244283D01*
X232233Y191099D02*
X244260D01*
X179901Y187499D02*
X244067D01*
X219098Y147899D02*
X244000D01*
X180106Y185699D02*
X243943D01*
X180145Y186599D02*
X243898D01*
X133349Y190199D02*
X243757D01*
X179282Y188399D02*
X243699D01*
X133866Y189299D02*
X243589D01*
X180748Y200999D02*
X243460D01*
X101100Y206399D02*
X242460D01*
X180676Y201899D02*
X241930D01*
X101100Y232499D02*
X241780D01*
X101100Y205499D02*
X241598D01*
X101100Y236999D02*
X241408D01*
X180303Y202799D02*
X241365D01*
X101100Y204599D02*
X241226D01*
X179437Y203699D02*
X241156D01*
X101100Y233399D02*
X240907D01*
X101100Y236099D02*
X240752D01*
X218542Y146999D02*
X240750D01*
X101100Y234299D02*
X240548D01*
X101100Y235199D02*
X240502D01*
X218906Y142499D02*
X239783D01*
X217070Y146099D02*
X239742D01*
X233778Y162299D02*
X239379D01*
X218109Y143399D02*
X239354D01*
X166263Y145199D02*
X239310D01*
X237882Y141599D02*
X239286D01*
X217056Y157799D02*
X239269D01*
X166087Y144299D02*
X239194D01*
X232802Y161399D02*
X238653D01*
X217292Y158699D02*
X238604D01*
X227963Y160499D02*
X238349D01*
X217247Y159599D02*
X238334D01*
X188851Y130799D02*
X237430D01*
X222019Y135299D02*
X236765D01*
X188394Y131699D02*
X236587D01*
X222065Y134399D02*
X236376D01*
X221222Y132599D02*
X236223D01*
X221829Y133499D02*
X236160D01*
X233572Y141599D02*
X235388D01*
X233035Y136199D02*
X235270D01*
X204798Y171299D02*
X233379D01*
X205022Y170399D02*
X232653D01*
X205959Y169499D02*
X231647D01*
X221678Y136199D02*
X231024D01*
X207111Y168599D02*
X230769D01*
X219247Y141599D02*
X230488D01*
X207592Y167699D02*
X230390D01*
X207743Y166799D02*
X230152D01*
X228844Y161399D02*
X229813D01*
X220880Y137099D02*
X229730D01*
X219292Y140699D02*
X229540D01*
X217785Y137999D02*
X229211D01*
X219056Y139799D02*
X229131D01*
X218448Y138899D02*
X229032D01*
X227080Y165899D02*
X228984D01*
X132067Y191099D02*
X228568D01*
X129731Y191999D02*
X227788D01*
X178463Y198299D02*
X227048D01*
X128670Y192899D02*
X226612D01*
X101100Y197399D02*
X225796D01*
X101100Y193799D02*
X225640D01*
X207619Y165899D02*
X225534D01*
X101100Y196499D02*
X225288D01*
X101100Y194699D02*
X225222D01*
X101100Y195599D02*
X225117D01*
X216906Y160499D02*
X224651D01*
X196075Y182099D02*
X224275D01*
X207175Y164999D02*
X224070D01*
X216109Y161399D02*
X223770D01*
X206136Y164099D02*
X223515D01*
X152436Y162299D02*
X223390D01*
X202124Y163199D02*
X223314D01*
X197331Y181199D02*
X223059D01*
X197841Y180299D02*
X222559D01*
X198013Y179399D02*
X220996D01*
X123738Y173999D02*
X220787D01*
X197908Y178499D02*
X219833D01*
X124038Y174899D02*
X219758D01*
X197491Y177599D02*
X219349D01*
X172295Y175799D02*
X219317D01*
X196522Y176699D02*
X219195D01*
X171601Y137999D02*
X217406D01*
X172865Y137099D02*
X217279D01*
X187318Y132599D02*
X216938D01*
X173377Y136199D02*
X216482D01*
X173032Y133499D02*
X216330D01*
X173551Y135299D02*
X216140D01*
X173447Y134399D02*
X216095D01*
X166162Y146099D02*
X215544D01*
X191462Y151499D02*
X214647D01*
X165571Y143399D02*
X214505D01*
X101100Y138899D02*
X214166D01*
X165750Y146999D02*
X214072D01*
X191095Y150599D02*
X213769D01*
X164292Y142499D02*
X213708D01*
X101100Y139799D02*
X213558D01*
X164794Y147899D02*
X213517D01*
X190411Y149699D02*
X213390D01*
X101100Y141599D02*
X213367D01*
X101100Y140699D02*
X213322D01*
X189002Y148799D02*
X213314D01*
X208875Y161399D02*
X212505D01*
X211115Y156899D02*
X212166D01*
X210691Y160499D02*
X211708D01*
X146324Y161399D02*
X208183D01*
X189620Y155999D02*
X206756D01*
X146205Y160499D02*
X206367D01*
X163843Y156899D02*
X205942D01*
X145860Y159599D02*
X205771D01*
X163365Y157799D02*
X205594D01*
X162223Y158699D02*
X205542D01*
X123019Y173099D02*
X201572D01*
X184903Y209999D02*
X201276D01*
X185380Y218999D02*
X200798D01*
X153301Y163199D02*
X200378D01*
X101100Y172199D02*
X199857D01*
X183813Y246899D02*
X199832D01*
X186372Y210899D02*
X199807D01*
X183967Y237899D02*
X199679D01*
X186602Y218099D02*
X199576D01*
X197203Y168599D02*
X199369D01*
X196074Y171299D02*
X199268D01*
X197169Y169499D02*
X199101D01*
X196842Y170399D02*
X199045D01*
X187168Y211799D02*
X199010D01*
X153674Y164099D02*
X198988D01*
X187310Y217199D02*
X198868D01*
X196954Y167699D02*
X198732D01*
X194321Y212699D02*
X198519D01*
X185187Y245999D02*
X198459D01*
X153745Y164999D02*
X198448D01*
X194606Y216299D02*
X198434D01*
X185261Y238799D02*
X198385D01*
X196325Y166799D02*
X198341D01*
X153538Y165899D02*
X198256D01*
X195125Y213599D02*
X198240D01*
X195219Y215399D02*
X198200D01*
X195358Y214499D02*
X198138D01*
X185952Y245099D02*
X197694D01*
X185998Y239699D02*
X197648D01*
X193162Y244199D02*
X197223D01*
X193253Y240599D02*
X197195D01*
X193893Y243299D02*
X196959D01*
X193923Y241499D02*
X196946D01*
X194094Y242399D02*
X196870D01*
X145440Y182099D02*
X193954D01*
X173127Y176699D02*
X193507D01*
X171059Y181199D02*
X192698D01*
X173484Y177599D02*
X192539D01*
X101100Y171299D02*
X192370D01*
X172737Y180299D02*
X192188D01*
X173543Y178499D02*
X192122D01*
X152974Y166799D02*
X192119D01*
X173322Y179399D02*
X192017D01*
X187659Y212699D02*
X191858D01*
X101100Y170399D02*
X191601D01*
X187744Y216299D02*
X191572D01*
X151456Y167699D02*
X191490D01*
X101100Y169499D02*
X191275D01*
X101100Y168599D02*
X191241D01*
X187938Y213599D02*
X191054D01*
X187978Y215399D02*
X190960D01*
X188041Y214499D02*
X190820D01*
X186423Y244199D02*
X190484D01*
X186451Y240599D02*
X190392D01*
X186687Y243299D02*
X189753D01*
X186700Y241499D02*
X189722D01*
X186775Y242399D02*
X189551D01*
X139014Y148799D02*
X186201D01*
X163993Y155999D02*
X185582D01*
X139114Y149699D02*
X184791D01*
X171087Y127199D02*
X184703D01*
X172068Y132599D02*
X184652D01*
X163866Y155099D02*
X184522D01*
X138937Y150599D02*
X184107D01*
X163420Y154199D02*
X183959D01*
X138421Y151499D02*
X183741D01*
X162373Y153299D02*
X183673D01*
X137136Y152399D02*
X183604D01*
X101100Y128099D02*
X183594D01*
X101100Y131699D02*
X183576D01*
X101100Y128999D02*
X183127D01*
X101100Y130799D02*
X183119D01*
X101100Y129899D02*
X182985D01*
X174903Y209999D02*
X181276D01*
X175380Y218999D02*
X180798D01*
X173813Y246899D02*
X179832D01*
X176372Y210899D02*
X179807D01*
X173967Y237899D02*
X179679D01*
X176602Y218099D02*
X179576D01*
X177168Y211799D02*
X179010D01*
X177310Y217199D02*
X178868D01*
X177666Y212699D02*
X178512D01*
X175187Y245999D02*
X178459D01*
X175261Y238799D02*
X178385D01*
X177965Y216299D02*
X178213D01*
X175952Y245099D02*
X177694D01*
X175998Y239699D02*
X177648D01*
X176457Y244199D02*
X177189D01*
X176538Y240599D02*
X177108D01*
X101100Y198299D02*
X177049D01*
X101100Y203699D02*
X176074D01*
X101100Y199199D02*
X175533D01*
X145189Y183899D02*
X175332D01*
X101100Y202799D02*
X175208D01*
X134042Y188399D02*
X175043D01*
X101100Y200099D02*
X174971D01*
X101100Y201899D02*
X174835D01*
X101100Y200999D02*
X174763D01*
X144528Y184799D02*
X174551D01*
X133942Y187499D02*
X174423D01*
X132576Y185699D02*
X174218D01*
X133530Y186599D02*
X174180D01*
X165154Y119999D02*
X171311D01*
X166624Y119099D02*
X171311D01*
X167179Y118199D02*
X171311D01*
X167381Y117299D02*
X171311D01*
X167305Y116399D02*
X171311D01*
X166926Y115499D02*
X171311D01*
X166047Y114599D02*
X171311D01*
X118972Y113699D02*
X171311D01*
X119304Y112799D02*
X171311D01*
X119541Y111899D02*
X171311D01*
X119691Y110999D02*
X171311D01*
X119756Y110099D02*
X171311D01*
X119739Y109199D02*
X171311D01*
X119639Y108299D02*
X171311D01*
X119454Y107399D02*
X171311D01*
X119179Y106499D02*
X171311D01*
X118805Y105599D02*
X171311D01*
X118319Y104699D02*
X171311D01*
X117700Y103799D02*
X171311D01*
X116913Y102899D02*
X171311D01*
X115894Y101999D02*
X171311D01*
X101100Y120899D02*
X171290D01*
X101100Y209999D02*
X171276D01*
X101100Y218999D02*
X170798D01*
X145134Y181199D02*
X170049D01*
X101100Y127199D02*
X170018D01*
X146735Y246899D02*
X169832D01*
X101100Y210899D02*
X169807D01*
X145470Y237899D02*
X169679D01*
X101100Y218099D02*
X169576D01*
X101100Y137999D02*
X169505D01*
X101100Y132599D02*
X169037D01*
X101100Y211799D02*
X169010D01*
X101100Y217199D02*
X168868D01*
X101100Y121799D02*
X168818D01*
X124049Y175799D02*
X168812D01*
X101100Y212699D02*
X168519D01*
X147822Y245999D02*
X168459D01*
X101100Y216299D02*
X168434D01*
X147237Y238799D02*
X168385D01*
X144403Y180299D02*
X168370D01*
X101100Y126299D02*
X168364D01*
X101100Y213599D02*
X168240D01*
X101100Y137099D02*
X168240D01*
X101100Y215399D02*
X168200D01*
X101100Y214499D02*
X168138D01*
X101100Y133499D02*
X168073D01*
X101100Y122699D02*
X167983D01*
X123775Y176699D02*
X167981D01*
X101100Y179399D02*
X167786D01*
X101100Y125399D02*
X167783D01*
X101100Y136199D02*
X167728D01*
X148470Y245099D02*
X167694D01*
X101100Y134399D02*
X167658D01*
X148112Y239699D02*
X167648D01*
X123103Y177599D02*
X167623D01*
X101100Y123599D02*
X167623D01*
X101100Y178499D02*
X167565D01*
X101100Y124499D02*
X167563D01*
X101100Y135299D02*
X167555D01*
X148864Y244199D02*
X167223D01*
X148649Y240599D02*
X167195D01*
X149065Y243299D02*
X166959D01*
X148963Y241499D02*
X166946D01*
X149097Y242399D02*
X166870D01*
X101100Y119999D02*
X163623D01*
X118534Y114599D02*
X162729D01*
X101100Y142499D02*
X162238D01*
X113302Y119099D02*
X162153D01*
X117973Y115499D02*
X161850D01*
X138603Y147899D02*
X161736D01*
X115133Y118199D02*
X161597D01*
X117262Y116399D02*
X161471D01*
X116349Y117299D02*
X161395D01*
X101100Y143399D02*
X160959D01*
X137651Y146999D02*
X160780D01*
X101100Y144299D02*
X160443D01*
X130060Y146099D02*
X160369D01*
X101100Y145199D02*
X160267D01*
X145209Y158699D02*
X159763D01*
X101100Y153299D02*
X159613D01*
X143913Y157799D02*
X158620D01*
X101100Y154199D02*
X158566D01*
X101100Y156899D02*
X158143D01*
X101100Y155099D02*
X158120D01*
X101100Y155999D02*
X157993D01*
X101100Y167699D02*
X150051D01*
X146238Y162299D02*
X149070D01*
X101100Y166799D02*
X148532D01*
X145932Y163199D02*
X148205D01*
X101100Y165899D02*
X147969D01*
X145340Y164099D02*
X147832D01*
X144209Y164999D02*
X147761D01*
X135470Y237899D02*
X142833D01*
X136735Y246899D02*
X141569D01*
X137237Y238799D02*
X141066D01*
X101100Y157799D02*
X140737D01*
X101100Y180299D02*
X140563D01*
X137822Y245999D02*
X140482D01*
X101100Y164999D02*
X140441D01*
X101100Y184799D02*
X140438D01*
X138112Y239699D02*
X140191D01*
X138470Y245099D02*
X139834D01*
X101100Y181199D02*
X139832D01*
X101100Y183899D02*
X139777D01*
X138649Y240599D02*
X139654D01*
X101100Y182099D02*
X139526D01*
X101100Y182999D02*
X139509D01*
X101100Y158699D02*
X139441D01*
X101100Y164099D02*
X139310D01*
X101100Y159599D02*
X138790D01*
X101100Y163199D02*
X138718D01*
X101100Y160499D02*
X138445D01*
X101100Y162299D02*
X138412D01*
X101100Y161399D02*
X138326D01*
X101100Y152399D02*
X135098D01*
X131495Y146999D02*
X134583D01*
X130888Y151499D02*
X133813D01*
X132044Y147899D02*
X133630D01*
X131778Y150599D02*
X133296D01*
X132249Y148799D02*
X133220D01*
X132167Y149699D02*
X133094D01*
X111560Y237899D02*
X132833D01*
X119732Y246899D02*
X131569D01*
X114302Y238799D02*
X131066D01*
X119624Y245999D02*
X130482D01*
X115767Y239699D02*
X130191D01*
X119430Y245099D02*
X129834D01*
X116818Y240599D02*
X129654D01*
X124773Y185699D02*
X129513D01*
X119144Y244199D02*
X129440D01*
X117625Y241499D02*
X129340D01*
X118759Y243299D02*
X129239D01*
X118260Y242399D02*
X129207D01*
X125967Y186599D02*
X128559D01*
X101100Y146099D02*
X128437D01*
X101100Y151499D02*
X127608D01*
X101100Y146999D02*
X127001D01*
X101100Y150599D02*
X126718D01*
X101100Y147899D02*
X126452D01*
X101100Y149699D02*
X126334D01*
X101100Y148799D02*
X126254D01*
X101100Y192899D02*
X125955D01*
X101100Y191999D02*
X124894D01*
X101100Y185699D02*
X122468D01*
X101100Y191099D02*
X122178D01*
X101100Y186599D02*
X121275D01*
X101100Y190199D02*
X121170D01*
X101100Y187499D02*
X120782D01*
X101100Y189299D02*
X120738D01*
X101100Y188399D02*
X120622D01*
X101100Y173099D02*
X119136D01*
X101100Y177599D02*
X119052D01*
X101100Y173999D02*
X118417D01*
X101100Y176699D02*
X118380D01*
X101100Y174899D02*
X118117D01*
X101100Y175799D02*
X118106D01*
X101100Y237899D02*
X108211D01*
X101100Y119099D02*
X106469D01*
X101100Y238799D02*
X105469D01*
X101100Y118199D02*
X104638D01*
X101100Y239699D02*
X104004D01*
X101100Y117299D02*
X103422D01*
X101100Y240599D02*
X102953D01*
X101100Y116399D02*
X102509D01*
X101113Y241499D02*
X102146D01*
X100000Y257480D02*
X375591D01*
Y100000*
X100000*
Y257480*
G54D78*
X254000Y152000D02*
X254053Y151947D01*
X253834*
G74*
X0Y0D02*
M02*
