*
*
G04 PADS VX.2.3 Build Number: 9191294 generated Gerber (RS-274-X) file*
G04 PC Version=2.1*
*
%IN "LockBase_ZM_V1.3_201809"*%
*
%MOIN*%
*
%FSLAX35Y35*%
*
*
*
*
G04 PC Standard Apertures*
*
*
G04 Thermal Relief Aperture macro.*
%AMTER*
1,1,$1,0,0*
1,0,$1-$2,0,0*
21,0,$3,$4,0,0,45*
21,0,$3,$4,0,0,135*
%
*
*
G04 Annular Aperture macro.*
%AMANN*
1,1,$1,0,0*
1,0,$2,0,0*
%
*
*
G04 Odd Aperture macro.*
%AMODD*
1,1,$1,0,0*
1,0,$1-0.005,0,0*
%
*
*
G04 PC Custom Aperture Macros*
*
*
*
*
*
*
G04 PC Aperture Table*
*
%ADD010C,0.001*%
%ADD029C,0.02*%
%ADD033C,0.01*%
%ADD034C,0.015*%
%ADD039ANN,0.08087X0.05724*%
%ADD040R,0.046X0.046*%
%ADD041R,0.046X0.06*%
%ADD042R,0.04149X0.0478*%
%ADD045R,0.0478X0.04149*%
%ADD046R,0.08874X0.08874*%
%ADD049ANN,0.06906X0.04543*%
%ADD050R,0.048X0.048*%
%ADD051R,0.05724X0.08874*%
%ADD052R,0.10843X0.0415*%
%ADD053ANN,0.16748X0.08874*%
%ADD054R,0.03362X0.08874*%
%ADD079R,0.02969X0.02969*%
%ADD080R,0.02969X0.02968*%
%ADD081R,0.02968X0.02969*%
%ADD082R,0.10843X0.03362*%
%ADD083R,0.02968X0.02969*%
%ADD084R,0.02969X0.02968*%
%ADD085R,0.01984X0.02969*%
%ADD086R,0.02969X0.01984*%
%ADD087R,0.13598X0.13598*%
%ADD088C,0.0415*%
%ADD089R,0.09465X0.0474*%
%ADD090R,0.09465X0.13795*%
%ADD091R,0.05724X0.06906*%
%ADD092R,0.02969X0.19*%
%ADD093R,0.04543X0.20291*%
%ADD094R,0.20685X0.02969*%
%ADD095R,0.02969X0.11394*%
%ADD096R,0.08874X0.02969*%
%ADD097R,0.1163X0.02969*%
%ADD098R,0.02969X0.16512*%
%ADD099R,0.05528X0.06512*%
%ADD103R,0.02575X0.07496*%
*
*
*
*
G04 PC Circuitry*
G04 Layer Name LockBase_ZM_V1.3_201809 - circuitry*
%LPD*%
*
*
G04 PC Custom Flashes*
G04 Layer Name LockBase_ZM_V1.3_201809 - flashes*
%LPD*%
*
*
G04 PC Circuitry*
G04 Layer Name LockBase_ZM_V1.3_201809 - circuitry*
%LPD*%
*
G54D10*
G01X259895Y111789D02*
X254248Y117436D01*
X250828Y114016*
X256475Y108369*
X259895Y111789*
X256443Y108400D02*
X256506D01*
X256343Y108500D02*
X256606D01*
X256243Y108600D02*
X256706D01*
X256143Y108700D02*
X256806D01*
X256043Y108800D02*
X256906D01*
X255943Y108900D02*
X257006D01*
X255843Y109000D02*
X257106D01*
X255743Y109100D02*
X257206D01*
X255643Y109200D02*
X257306D01*
X255543Y109300D02*
X257406D01*
X255443Y109400D02*
X257506D01*
X255343Y109500D02*
X257606D01*
X255243Y109600D02*
X257706D01*
X255143Y109700D02*
X257806D01*
X255043Y109800D02*
X257906D01*
X254943Y109900D02*
X258006D01*
X254843Y110000D02*
X258106D01*
X254743Y110100D02*
X258206D01*
X254643Y110200D02*
X258306D01*
X254543Y110300D02*
X258406D01*
X254443Y110400D02*
X258506D01*
X254343Y110500D02*
X258606D01*
X254243Y110600D02*
X258706D01*
X254143Y110700D02*
X258806D01*
X254043Y110800D02*
X258906D01*
X253943Y110900D02*
X259006D01*
X253843Y111000D02*
X259106D01*
X253743Y111100D02*
X259206D01*
X253643Y111200D02*
X259306D01*
X253543Y111300D02*
X259406D01*
X253443Y111400D02*
X259506D01*
X253343Y111500D02*
X259606D01*
X253243Y111600D02*
X259706D01*
X253143Y111700D02*
X259806D01*
X253043Y111800D02*
X259884D01*
X252943Y111900D02*
X259784D01*
X252843Y112000D02*
X259684D01*
X252743Y112100D02*
X259584D01*
X252643Y112200D02*
X259484D01*
X252543Y112300D02*
X259384D01*
X252443Y112400D02*
X259284D01*
X252343Y112500D02*
X259184D01*
X252243Y112600D02*
X259084D01*
X252143Y112700D02*
X258984D01*
X252043Y112800D02*
X258884D01*
X251943Y112900D02*
X258784D01*
X251843Y113000D02*
X258684D01*
X251743Y113100D02*
X258584D01*
X251643Y113200D02*
X258484D01*
X251543Y113300D02*
X258384D01*
X251443Y113400D02*
X258284D01*
X251343Y113500D02*
X258184D01*
X251243Y113600D02*
X258084D01*
X251143Y113700D02*
X257984D01*
X251043Y113800D02*
X257884D01*
X250943Y113900D02*
X257784D01*
X250843Y114000D02*
X257684D01*
X250912Y114100D02*
X257584D01*
X251012Y114200D02*
X257484D01*
X251112Y114300D02*
X257384D01*
X251212Y114400D02*
X257284D01*
X251312Y114500D02*
X257184D01*
X251412Y114600D02*
X257084D01*
X251512Y114700D02*
X256984D01*
X251612Y114800D02*
X256884D01*
X251712Y114900D02*
X256784D01*
X251812Y115000D02*
X256684D01*
X251912Y115100D02*
X256584D01*
X252012Y115200D02*
X256484D01*
X252112Y115300D02*
X256384D01*
X252212Y115400D02*
X256284D01*
X252312Y115500D02*
X256184D01*
X252412Y115600D02*
X256084D01*
X252512Y115700D02*
X255984D01*
X252612Y115800D02*
X255884D01*
X252712Y115900D02*
X255784D01*
X252812Y116000D02*
X255684D01*
X252912Y116100D02*
X255584D01*
X253012Y116200D02*
X255484D01*
X253112Y116300D02*
X255384D01*
X253212Y116400D02*
X255284D01*
X253312Y116500D02*
X255184D01*
X253412Y116600D02*
X255084D01*
X253512Y116700D02*
X254984D01*
X253612Y116800D02*
X254884D01*
X253712Y116900D02*
X254784D01*
X253812Y117000D02*
X254684D01*
X253912Y117100D02*
X254584D01*
X254012Y117200D02*
X254484D01*
X254112Y117300D02*
X254384D01*
X254212Y117400D02*
X254284D01*
X250900Y113943D02*
Y114088D01*
X251000Y113843D02*
Y114188D01*
X251100Y113743D02*
Y114288D01*
X251200Y113643D02*
Y114388D01*
X251300Y113543D02*
Y114488D01*
X251400Y113443D02*
Y114588D01*
X251500Y113343D02*
Y114688D01*
X251600Y113243D02*
Y114788D01*
X251700Y113143D02*
Y114888D01*
X251800Y113043D02*
Y114988D01*
X251900Y112943D02*
Y115088D01*
X252000Y112843D02*
Y115188D01*
X252100Y112743D02*
Y115288D01*
X252200Y112643D02*
Y115388D01*
X252300Y112543D02*
Y115488D01*
X252400Y112443D02*
Y115588D01*
X252500Y112343D02*
Y115688D01*
X252600Y112243D02*
Y115788D01*
X252700Y112143D02*
Y115888D01*
X252800Y112043D02*
Y115988D01*
X252900Y111943D02*
Y116088D01*
X253000Y111843D02*
Y116188D01*
X253100Y111743D02*
Y116288D01*
X253200Y111643D02*
Y116388D01*
X253300Y111543D02*
Y116488D01*
X253400Y111443D02*
Y116588D01*
X253500Y111343D02*
Y116688D01*
X253600Y111243D02*
Y116788D01*
X253700Y111143D02*
Y116888D01*
X253800Y111043D02*
Y116988D01*
X253900Y110943D02*
Y117088D01*
X254000Y110843D02*
Y117188D01*
X254100Y110743D02*
Y117288D01*
X254200Y110643D02*
Y117388D01*
X254300Y110543D02*
Y117384D01*
X254400Y110443D02*
Y117284D01*
X254500Y110343D02*
Y117184D01*
X254600Y110243D02*
Y117084D01*
X254700Y110143D02*
Y116984D01*
X254800Y110043D02*
Y116884D01*
X254900Y109943D02*
Y116784D01*
X255000Y109843D02*
Y116684D01*
X255100Y109743D02*
Y116584D01*
X255200Y109643D02*
Y116484D01*
X255300Y109543D02*
Y116384D01*
X255400Y109443D02*
Y116284D01*
X255500Y109343D02*
Y116184D01*
X255600Y109243D02*
Y116084D01*
X255700Y109143D02*
Y115984D01*
X255800Y109043D02*
Y115884D01*
X255900Y108943D02*
Y115784D01*
X256000Y108843D02*
Y115684D01*
X256100Y108743D02*
Y115584D01*
X256200Y108643D02*
Y115484D01*
X256300Y108543D02*
Y115384D01*
X256400Y108443D02*
Y115284D01*
X256500Y108394D02*
Y115184D01*
X256600Y108494D02*
Y115084D01*
X256700Y108594D02*
Y114984D01*
X256800Y108694D02*
Y114884D01*
X256900Y108794D02*
Y114784D01*
X257000Y108894D02*
Y114684D01*
X257100Y108994D02*
Y114584D01*
X257200Y109094D02*
Y114484D01*
X257300Y109194D02*
Y114384D01*
X257400Y109294D02*
Y114284D01*
X257500Y109394D02*
Y114184D01*
X257600Y109494D02*
Y114084D01*
X257700Y109594D02*
Y113984D01*
X257800Y109694D02*
Y113884D01*
X257900Y109794D02*
Y113784D01*
X258000Y109894D02*
Y113684D01*
X258100Y109994D02*
Y113584D01*
X258200Y110094D02*
Y113484D01*
X258300Y110194D02*
Y113384D01*
X258400Y110294D02*
Y113284D01*
X258500Y110394D02*
Y113184D01*
X258600Y110494D02*
Y113084D01*
X258700Y110594D02*
Y112984D01*
X258800Y110694D02*
Y112884D01*
X258900Y110794D02*
Y112784D01*
X259000Y110894D02*
Y112684D01*
X259100Y110994D02*
Y112584D01*
X259200Y111094D02*
Y112484D01*
X259300Y111194D02*
Y112384D01*
X259400Y111294D02*
Y112284D01*
X259500Y111394D02*
Y112184D01*
X259600Y111494D02*
Y112084D01*
X259700Y111594D02*
Y111984D01*
X259800Y111694D02*
Y111884D01*
X252657Y104551D02*
X247010Y110198D01*
X243590Y106778*
X249237Y101131*
X252657Y104551*
X249168Y101200D02*
X249306D01*
X249068Y101300D02*
X249406D01*
X248968Y101400D02*
X249506D01*
X248868Y101500D02*
X249606D01*
X248768Y101600D02*
X249706D01*
X248668Y101700D02*
X249806D01*
X248568Y101800D02*
X249906D01*
X248468Y101900D02*
X250006D01*
X248368Y102000D02*
X250106D01*
X248268Y102100D02*
X250206D01*
X248168Y102200D02*
X250306D01*
X248068Y102300D02*
X250406D01*
X247968Y102400D02*
X250506D01*
X247868Y102500D02*
X250606D01*
X247768Y102600D02*
X250706D01*
X247668Y102700D02*
X250806D01*
X247568Y102800D02*
X250906D01*
X247468Y102900D02*
X251006D01*
X247368Y103000D02*
X251106D01*
X247268Y103100D02*
X251206D01*
X247168Y103200D02*
X251306D01*
X247068Y103300D02*
X251406D01*
X246968Y103400D02*
X251506D01*
X246868Y103500D02*
X251606D01*
X246768Y103600D02*
X251706D01*
X246668Y103700D02*
X251806D01*
X246568Y103800D02*
X251906D01*
X246468Y103900D02*
X252006D01*
X246368Y104000D02*
X252106D01*
X246268Y104100D02*
X252206D01*
X246168Y104200D02*
X252306D01*
X246068Y104300D02*
X252406D01*
X245968Y104400D02*
X252506D01*
X245868Y104500D02*
X252606D01*
X245768Y104600D02*
X252608D01*
X245668Y104700D02*
X252508D01*
X245568Y104800D02*
X252408D01*
X245468Y104900D02*
X252308D01*
X245368Y105000D02*
X252208D01*
X245268Y105100D02*
X252108D01*
X245168Y105200D02*
X252008D01*
X245068Y105300D02*
X251908D01*
X244968Y105400D02*
X251808D01*
X244868Y105500D02*
X251708D01*
X244768Y105600D02*
X251608D01*
X244668Y105700D02*
X251508D01*
X244568Y105800D02*
X251408D01*
X244468Y105900D02*
X251308D01*
X244368Y106000D02*
X251208D01*
X244268Y106100D02*
X251108D01*
X244168Y106200D02*
X251008D01*
X244068Y106300D02*
X250908D01*
X243968Y106400D02*
X250808D01*
X243868Y106500D02*
X250708D01*
X243768Y106600D02*
X250608D01*
X243668Y106700D02*
X250508D01*
X243611Y106800D02*
X250408D01*
X243711Y106900D02*
X250308D01*
X243811Y107000D02*
X250208D01*
X243911Y107100D02*
X250108D01*
X244011Y107200D02*
X250008D01*
X244111Y107300D02*
X249908D01*
X244211Y107400D02*
X249808D01*
X244311Y107500D02*
X249708D01*
X244411Y107600D02*
X249608D01*
X244511Y107700D02*
X249508D01*
X244611Y107800D02*
X249408D01*
X244711Y107900D02*
X249308D01*
X244811Y108000D02*
X249208D01*
X244911Y108100D02*
X249108D01*
X245011Y108200D02*
X249008D01*
X245111Y108300D02*
X248908D01*
X245211Y108400D02*
X248808D01*
X245311Y108500D02*
X248708D01*
X245411Y108600D02*
X248608D01*
X245511Y108700D02*
X248508D01*
X245611Y108800D02*
X248408D01*
X245711Y108900D02*
X248308D01*
X245811Y109000D02*
X248208D01*
X245911Y109100D02*
X248108D01*
X246011Y109200D02*
X248008D01*
X246111Y109300D02*
X247908D01*
X246211Y109400D02*
X247808D01*
X246311Y109500D02*
X247708D01*
X246411Y109600D02*
X247608D01*
X246511Y109700D02*
X247508D01*
X246611Y109800D02*
X247408D01*
X246711Y109900D02*
X247308D01*
X246811Y110000D02*
X247208D01*
X246911Y110100D02*
X247108D01*
X243600Y106768D02*
Y106789D01*
X243700Y106668D02*
Y106889D01*
X243800Y106568D02*
Y106989D01*
X243900Y106468D02*
Y107089D01*
X244000Y106368D02*
Y107189D01*
X244100Y106268D02*
Y107289D01*
X244200Y106168D02*
Y107389D01*
X244300Y106068D02*
Y107489D01*
X244400Y105968D02*
Y107589D01*
X244500Y105868D02*
Y107689D01*
X244600Y105768D02*
Y107789D01*
X244700Y105668D02*
Y107889D01*
X244800Y105568D02*
Y107989D01*
X244900Y105468D02*
Y108089D01*
X245000Y105368D02*
Y108189D01*
X245100Y105268D02*
Y108289D01*
X245200Y105168D02*
Y108389D01*
X245300Y105068D02*
Y108489D01*
X245400Y104968D02*
Y108589D01*
X245500Y104868D02*
Y108689D01*
X245600Y104768D02*
Y108789D01*
X245700Y104668D02*
Y108889D01*
X245800Y104568D02*
Y108989D01*
X245900Y104468D02*
Y109089D01*
X246000Y104368D02*
Y109189D01*
X246100Y104268D02*
Y109289D01*
X246200Y104168D02*
Y109389D01*
X246300Y104068D02*
Y109489D01*
X246400Y103968D02*
Y109589D01*
X246500Y103868D02*
Y109689D01*
X246600Y103768D02*
Y109789D01*
X246700Y103668D02*
Y109889D01*
X246800Y103568D02*
Y109989D01*
X246900Y103468D02*
Y110089D01*
X247000Y103368D02*
Y110189D01*
X247100Y103268D02*
Y110108D01*
X247200Y103168D02*
Y110008D01*
X247300Y103068D02*
Y109908D01*
X247400Y102968D02*
Y109808D01*
X247500Y102868D02*
Y109708D01*
X247600Y102768D02*
Y109608D01*
X247700Y102668D02*
Y109508D01*
X247800Y102568D02*
Y109408D01*
X247900Y102468D02*
Y109308D01*
X248000Y102368D02*
Y109208D01*
X248100Y102268D02*
Y109108D01*
X248200Y102168D02*
Y109008D01*
X248300Y102068D02*
Y108908D01*
X248400Y101968D02*
Y108808D01*
X248500Y101868D02*
Y108708D01*
X248600Y101768D02*
Y108608D01*
X248700Y101668D02*
Y108508D01*
X248800Y101568D02*
Y108408D01*
X248900Y101468D02*
Y108308D01*
X249000Y101368D02*
Y108208D01*
X249100Y101268D02*
Y108108D01*
X249200Y101168D02*
Y108008D01*
X249300Y101194D02*
Y107908D01*
X249400Y101294D02*
Y107808D01*
X249500Y101394D02*
Y107708D01*
X249600Y101494D02*
Y107608D01*
X249700Y101594D02*
Y107508D01*
X249800Y101694D02*
Y107408D01*
X249900Y101794D02*
Y107308D01*
X250000Y101894D02*
Y107208D01*
X250100Y101994D02*
Y107108D01*
X250200Y102094D02*
Y107008D01*
X250300Y102194D02*
Y106908D01*
X250400Y102294D02*
Y106808D01*
X250500Y102394D02*
Y106708D01*
X250600Y102494D02*
Y106608D01*
X250700Y102594D02*
Y106508D01*
X250800Y102694D02*
Y106408D01*
X250900Y102794D02*
Y106308D01*
X251000Y102894D02*
Y106208D01*
X251100Y102994D02*
Y106108D01*
X251200Y103094D02*
Y106008D01*
X251300Y103194D02*
Y105908D01*
X251400Y103294D02*
Y105808D01*
X251500Y103394D02*
Y105708D01*
X251600Y103494D02*
Y105608D01*
X251700Y103594D02*
Y105508D01*
X251800Y103694D02*
Y105408D01*
X251900Y103794D02*
Y105308D01*
X252000Y103894D02*
Y105208D01*
X252100Y103994D02*
Y105108D01*
X252200Y104094D02*
Y105008D01*
X252300Y104194D02*
Y104908D01*
X252400Y104294D02*
Y104808D01*
X252500Y104394D02*
Y104708D01*
X252600Y104494D02*
Y104608D01*
X233130Y131814D02*
X235159Y129785D01*
X237187Y131814*
X235159Y133842*
X233130Y131814*
X235144Y129800D02*
X235173D01*
X235044Y129900D02*
X235273D01*
X234944Y130000D02*
X235373D01*
X234844Y130100D02*
X235473D01*
X234744Y130200D02*
X235573D01*
X234644Y130300D02*
X235673D01*
X234544Y130400D02*
X235773D01*
X234444Y130500D02*
X235873D01*
X234344Y130600D02*
X235973D01*
X234244Y130700D02*
X236073D01*
X234144Y130800D02*
X236173D01*
X234044Y130900D02*
X236273D01*
X233944Y131000D02*
X236373D01*
X233844Y131100D02*
X236473D01*
X233744Y131200D02*
X236573D01*
X233644Y131300D02*
X236673D01*
X233544Y131400D02*
X236773D01*
X233444Y131500D02*
X236873D01*
X233344Y131600D02*
X236973D01*
X233244Y131700D02*
X237073D01*
X233144Y131800D02*
X237173D01*
X233217Y131900D02*
X237101D01*
X233317Y132000D02*
X237001D01*
X233417Y132100D02*
X236901D01*
X233517Y132200D02*
X236801D01*
X233617Y132300D02*
X236701D01*
X233717Y132400D02*
X236601D01*
X233817Y132500D02*
X236501D01*
X233917Y132600D02*
X236401D01*
X234017Y132700D02*
X236301D01*
X234117Y132800D02*
X236201D01*
X234217Y132900D02*
X236101D01*
X234317Y133000D02*
X236001D01*
X234417Y133100D02*
X235901D01*
X234517Y133200D02*
X235801D01*
X234617Y133300D02*
X235701D01*
X234717Y133400D02*
X235601D01*
X234817Y133500D02*
X235501D01*
X234917Y133600D02*
X235401D01*
X235017Y133700D02*
X235301D01*
X235117Y133800D02*
X235201D01*
X233200Y131744D02*
Y131883D01*
X233300Y131644D02*
Y131983D01*
X233400Y131544D02*
Y132083D01*
X233500Y131444D02*
Y132183D01*
X233600Y131344D02*
Y132283D01*
X233700Y131244D02*
Y132383D01*
X233800Y131144D02*
Y132483D01*
X233900Y131044D02*
Y132583D01*
X234000Y130944D02*
Y132683D01*
X234100Y130844D02*
Y132783D01*
X234200Y130744D02*
Y132883D01*
X234300Y130644D02*
Y132983D01*
X234400Y130544D02*
Y133083D01*
X234500Y130444D02*
Y133183D01*
X234600Y130344D02*
Y133283D01*
X234700Y130244D02*
Y133383D01*
X234800Y130144D02*
Y133483D01*
X234900Y130044D02*
Y133583D01*
X235000Y129944D02*
Y133683D01*
X235100Y129844D02*
Y133783D01*
X235200Y129827D02*
Y133801D01*
X235300Y129927D02*
Y133701D01*
X235400Y130027D02*
Y133601D01*
X235500Y130127D02*
Y133501D01*
X235600Y130227D02*
Y133401D01*
X235700Y130327D02*
Y133301D01*
X235800Y130427D02*
Y133201D01*
X235900Y130527D02*
Y133101D01*
X236000Y130627D02*
Y133001D01*
X236100Y130727D02*
Y132901D01*
X236200Y130827D02*
Y132801D01*
X236300Y130927D02*
Y132701D01*
X236400Y131027D02*
Y132601D01*
X236500Y131127D02*
Y132501D01*
X236600Y131227D02*
Y132401D01*
X236700Y131327D02*
Y132301D01*
X236800Y131427D02*
Y132201D01*
X236900Y131527D02*
Y132101D01*
X237000Y131627D02*
Y132001D01*
X237100Y131727D02*
Y131901D01*
X230625Y134319D02*
X232653Y132291D01*
X234682Y134319*
X232653Y136347*
X230625Y134319*
X232644Y132300D02*
X232662D01*
X232544Y132400D02*
X232762D01*
X232444Y132500D02*
X232862D01*
X232344Y132600D02*
X232962D01*
X232244Y132700D02*
X233062D01*
X232144Y132800D02*
X233162D01*
X232044Y132900D02*
X233262D01*
X231944Y133000D02*
X233362D01*
X231844Y133100D02*
X233462D01*
X231744Y133200D02*
X233562D01*
X231644Y133300D02*
X233662D01*
X231544Y133400D02*
X233762D01*
X231444Y133500D02*
X233862D01*
X231344Y133600D02*
X233962D01*
X231244Y133700D02*
X234062D01*
X231144Y133800D02*
X234162D01*
X231044Y133900D02*
X234262D01*
X230944Y134000D02*
X234362D01*
X230844Y134100D02*
X234462D01*
X230744Y134200D02*
X234562D01*
X230644Y134300D02*
X234662D01*
X230706Y134400D02*
X234601D01*
X230806Y134500D02*
X234501D01*
X230906Y134600D02*
X234401D01*
X231006Y134700D02*
X234301D01*
X231106Y134800D02*
X234201D01*
X231206Y134900D02*
X234101D01*
X231306Y135000D02*
X234001D01*
X231406Y135100D02*
X233901D01*
X231506Y135200D02*
X233801D01*
X231606Y135300D02*
X233701D01*
X231706Y135400D02*
X233601D01*
X231806Y135500D02*
X233501D01*
X231906Y135600D02*
X233401D01*
X232006Y135700D02*
X233301D01*
X232106Y135800D02*
X233201D01*
X232206Y135900D02*
X233101D01*
X232306Y136000D02*
X233001D01*
X232406Y136100D02*
X232901D01*
X232506Y136200D02*
X232801D01*
X232606Y136300D02*
X232701D01*
X230700Y134244D02*
Y134394D01*
X230800Y134144D02*
Y134494D01*
X230900Y134044D02*
Y134594D01*
X231000Y133944D02*
Y134694D01*
X231100Y133844D02*
Y134794D01*
X231200Y133744D02*
Y134894D01*
X231300Y133644D02*
Y134994D01*
X231400Y133544D02*
Y135094D01*
X231500Y133444D02*
Y135194D01*
X231600Y133344D02*
Y135294D01*
X231700Y133244D02*
Y135394D01*
X231800Y133144D02*
Y135494D01*
X231900Y133044D02*
Y135594D01*
X232000Y132944D02*
Y135694D01*
X232100Y132844D02*
Y135794D01*
X232200Y132744D02*
Y135894D01*
X232300Y132644D02*
Y135994D01*
X232400Y132544D02*
Y136094D01*
X232500Y132444D02*
Y136194D01*
X232600Y132344D02*
Y136294D01*
X232700Y132338D02*
Y136301D01*
X232800Y132438D02*
Y136201D01*
X232900Y132538D02*
Y136101D01*
X233000Y132638D02*
Y136001D01*
X233100Y132738D02*
Y135901D01*
X233200Y132838D02*
Y135801D01*
X233300Y132938D02*
Y135701D01*
X233400Y133038D02*
Y135601D01*
X233500Y133138D02*
Y135501D01*
X233600Y133238D02*
Y135401D01*
X233700Y133338D02*
Y135301D01*
X233800Y133438D02*
Y135201D01*
X233900Y133538D02*
Y135101D01*
X234000Y133638D02*
Y135001D01*
X234100Y133738D02*
Y134901D01*
X234200Y133838D02*
Y134801D01*
X234300Y133938D02*
Y134701D01*
X234400Y134038D02*
Y134601D01*
X234500Y134138D02*
Y134501D01*
X234600Y134238D02*
Y134401D01*
G54D29*
X254583Y183873D02*
Y173665D01*
X254642*
X254808Y136559D02*
Y126093D01*
X254901Y155856D02*
Y151558D01*
X202162Y183914D02*
X225665D01*
X178584Y144789D02*
Y160047D01*
X217096Y125129D02*
X200444D01*
X242327Y124990D02*
X251952D01*
G54D33*
X100000Y257480D02*
X375591D01*
Y100000*
X100000*
Y257480*
G54D34*
X238005Y123121D02*
X244108Y117018D01*
X244089Y116999*
G54D39*
X343348Y234894D03*
X323348D03*
X303348D03*
X283348D03*
X263348D03*
X243348D03*
G54D40*
X156965Y190107D03*
X164465D03*
X321855Y121742D03*
X329355D03*
X336999Y121836D03*
X344499D03*
G54D41*
X160715Y198107D03*
X325605Y129742D03*
X340749Y129836D03*
G54D42*
X316346Y182923D03*
Y189221D03*
X347046Y149757D03*
Y143458D03*
X340535Y149812D03*
Y143513D03*
G54D45*
X158008Y175656D03*
X164307D03*
X302974Y158742D03*
X296675D03*
X345062Y196068D03*
X351361D03*
X323538Y195958D03*
X329837D03*
X243301Y129133D03*
X249599D03*
G54D46*
X290924Y200979D03*
X306672D03*
G54D49*
X284810Y107688D03*
X294810D03*
X304810D03*
X314810D03*
X324810D03*
X334810D03*
X344810D03*
X201823Y242364D03*
X191823D03*
X181823D03*
X171823D03*
X144152Y242673D03*
X134152D03*
X203089Y214608D03*
X193089D03*
X183089D03*
X173089D03*
G54D50*
X170119Y141929D03*
Y148229D03*
X121153Y193992D03*
Y200292D03*
X164604Y182632D03*
X158304D03*
X150543Y183757D03*
Y190057D03*
X322563Y142358D03*
Y148658D03*
X331381Y142651D03*
Y148951D03*
X278465Y137996D03*
X272165D03*
X272249Y129108D03*
X278549D03*
G54D51*
X129226Y108810D03*
Y141881D03*
X146289Y108786D03*
Y141857D03*
G54D52*
X360445Y129642D03*
Y149327D03*
G54D53*
X365791Y109835D03*
Y247630D03*
X109886D03*
Y109835D03*
G54D54*
X329996Y163474D03*
X334996D03*
X339996D03*
X344996D03*
X344997Y187096D03*
X339996D03*
X334996D03*
X329996D03*
G54D79*
X163451Y161201D03*
X159034Y161194D03*
X246340Y143324D03*
X185971Y133105D03*
X202445Y135538D03*
X155968Y141867D03*
X205980Y156678D03*
X187668Y156774D03*
X243270Y133388D03*
X224164Y138450D03*
X224199Y128060D03*
G54D80*
X249884Y143324D03*
X205989Y135538D03*
X202436Y156678D03*
X191212Y156774D03*
X246814Y133388D03*
X220620Y138450D03*
X220655Y128060D03*
G54D81*
X224145Y118971D03*
Y122514D03*
X133436Y153127D03*
Y149583D03*
X138234Y153032D03*
Y149489D03*
X127316Y196483D03*
Y192940D03*
X131685Y196475D03*
Y192932D03*
X154271Y164782D03*
Y161239D03*
X190118Y136517D03*
Y132974D03*
X294824Y121872D03*
Y118329D03*
X284738Y121886D03*
Y118343D03*
X231738Y175282D03*
Y178825D03*
X160372Y145324D03*
Y141781D03*
X211338Y155921D03*
Y159464D03*
X224157Y131551D03*
Y135094D03*
X194098Y136682D03*
Y133139D03*
G54D82*
X213149Y164031D03*
Y169031D03*
Y174031D03*
Y179031D03*
X187677D03*
Y174031D03*
Y169031D03*
Y164031D03*
G54D83*
X163451Y164745D03*
X183102Y197682D03*
Y201226D03*
X159034Y164738D03*
X185971Y136649D03*
X155968Y145411D03*
G54D84*
X213034Y130436D03*
X216577D03*
X247281Y151947D03*
X243738D03*
X186401Y141820D03*
X189944D03*
X246469Y136737D03*
X242926D03*
G54D85*
X222185Y141910D03*
X224154D03*
X226122D03*
X228091D03*
X230059D03*
X232028D03*
X233996D03*
X235965D03*
Y160020D03*
X233996D03*
X232028D03*
X230059D03*
X228091D03*
X226122D03*
X224154D03*
X222185D03*
G54D86*
X238130Y144075D03*
Y146044D03*
Y148012D03*
Y149981D03*
Y151949D03*
Y153918D03*
Y155886D03*
Y157855D03*
X220020D03*
Y155886D03*
Y153918D03*
Y151949D03*
Y149981D03*
Y148012D03*
Y146044D03*
Y144075D03*
G54D87*
X228949Y151112D03*
G54D88*
X245757Y115269D02*
X247706Y113320D01*
G54D89*
X306667Y171142D03*
Y180197D03*
Y189252D03*
G54D90*
X283832Y180197D03*
G54D91*
X296711Y150319D03*
X307735D03*
G54D92*
X224202Y111039D03*
G54D93*
X232470Y112539D03*
G54D94*
X224399Y101909D03*
G54D95*
X215541Y108090D03*
X205698D03*
X197037D03*
X187194D03*
G54D96*
X210620Y112303D03*
X192116D03*
G54D97*
X201368Y101909D03*
X182864D03*
G54D98*
X178533Y110649D03*
G54D99*
X205996Y140960D03*
Y151196D03*
X199697D03*
Y140960D03*
G54D103*
X138574Y182603D03*
X136074D03*
X133574D03*
X131074D03*
X128574D03*
X126074D03*
X123574D03*
X121074D03*
X118574D03*
X116074D03*
X113574D03*
X111074D03*
Y161934D03*
X113574D03*
X116074D03*
X118574D03*
X121074D03*
X123574D03*
X126074D03*
X128574D03*
X131074D03*
X133574D03*
X136074D03*
X138574D03*
X0Y0D02*
M02*
