*
*
G04 PADS VX.2.3 Build Number: 9191294 generated Gerber (RS-274-X) file*
G04 PC Version=2.1*
*
%IN "LockBase_ZM_V1.3_201809"*%
*
%MOIN*%
*
%FSLAX35Y35*%
*
*
*
*
G04 PC Standard Apertures*
*
*
G04 Thermal Relief Aperture macro.*
%AMTER*
1,1,$1,0,0*
1,0,$1-$2,0,0*
21,0,$3,$4,0,0,45*
21,0,$3,$4,0,0,135*
%
*
*
G04 Annular Aperture macro.*
%AMANN*
1,1,$1,0,0*
1,0,$2,0,0*
%
*
*
G04 Odd Aperture macro.*
%AMODD*
1,1,$1,0,0*
1,0,$1-0.005,0,0*
%
*
*
G04 PC Custom Aperture Macros*
*
*
*
*
*
*
G04 PC Aperture Table*
*
%ADD010C,0.001*%
%ADD012R,0.036X0.036*%
%ADD013R,0.036X0.05*%
%ADD014R,0.03149X0.0378*%
%ADD017R,0.0378X0.03149*%
%ADD018R,0.07874X0.07874*%
%ADD022R,0.038X0.038*%
%ADD023R,0.04724X0.07874*%
%ADD024R,0.09843X0.0315*%
%ADD026R,0.02362X0.07874*%
%ADD033C,0.01*%
%ADD057R,0.01969X0.01969*%
%ADD058R,0.01969X0.01968*%
%ADD059R,0.01968X0.01969*%
%ADD060R,0.09843X0.02362*%
%ADD061R,0.01968X0.01969*%
%ADD062R,0.01969X0.01968*%
%ADD063R,0.00984X0.01969*%
%ADD064R,0.01969X0.00984*%
%ADD065R,0.12598X0.12598*%
%ADD066C,0.0315*%
%ADD067R,0.08465X0.0374*%
%ADD068R,0.08465X0.12795*%
%ADD069R,0.04724X0.05906*%
%ADD070R,0.01969X0.18*%
%ADD071R,0.03543X0.19291*%
%ADD072R,0.19685X0.01969*%
%ADD073R,0.01969X0.10394*%
%ADD074R,0.07874X0.01969*%
%ADD075R,0.1063X0.01969*%
%ADD076R,0.01969X0.15512*%
%ADD077R,0.04528X0.05512*%
%ADD100R,0.01575X0.06496*%
*
*
*
*
G04 PC Circuitry*
G04 Layer Name LockBase_ZM_V1.3_201809 - circuitry*
%LPD*%
*
*
G04 PC Custom Flashes*
G04 Layer Name LockBase_ZM_V1.3_201809 - flashes*
%LPD*%
*
*
G04 PC Circuitry*
G04 Layer Name LockBase_ZM_V1.3_201809 - circuitry*
%LPD*%
*
G54D10*
G01X259188Y111789D02*
X254248Y116729D01*
X251535Y114016*
X256475Y109076*
X259188Y111789*
X256451Y109100D02*
X256499D01*
X256351Y109200D02*
X256599D01*
X256251Y109300D02*
X256699D01*
X256151Y109400D02*
X256799D01*
X256051Y109500D02*
X256899D01*
X255951Y109600D02*
X256999D01*
X255851Y109700D02*
X257099D01*
X255751Y109800D02*
X257199D01*
X255651Y109900D02*
X257299D01*
X255551Y110000D02*
X257399D01*
X255451Y110100D02*
X257499D01*
X255351Y110200D02*
X257599D01*
X255251Y110300D02*
X257699D01*
X255151Y110400D02*
X257799D01*
X255051Y110500D02*
X257899D01*
X254951Y110600D02*
X257999D01*
X254851Y110700D02*
X258099D01*
X254751Y110800D02*
X258199D01*
X254651Y110900D02*
X258299D01*
X254551Y111000D02*
X258399D01*
X254451Y111100D02*
X258499D01*
X254351Y111200D02*
X258599D01*
X254251Y111300D02*
X258699D01*
X254151Y111400D02*
X258799D01*
X254051Y111500D02*
X258899D01*
X253951Y111600D02*
X258999D01*
X253851Y111700D02*
X259099D01*
X253751Y111800D02*
X259177D01*
X253651Y111900D02*
X259077D01*
X253551Y112000D02*
X258977D01*
X253451Y112100D02*
X258877D01*
X253351Y112200D02*
X258777D01*
X253251Y112300D02*
X258677D01*
X253151Y112400D02*
X258577D01*
X253051Y112500D02*
X258477D01*
X252951Y112600D02*
X258377D01*
X252851Y112700D02*
X258277D01*
X252751Y112800D02*
X258177D01*
X252651Y112900D02*
X258077D01*
X252551Y113000D02*
X257977D01*
X252451Y113100D02*
X257877D01*
X252351Y113200D02*
X257777D01*
X252251Y113300D02*
X257677D01*
X252151Y113400D02*
X257577D01*
X252051Y113500D02*
X257477D01*
X251951Y113600D02*
X257377D01*
X251851Y113700D02*
X257277D01*
X251751Y113800D02*
X257177D01*
X251651Y113900D02*
X257077D01*
X251551Y114000D02*
X256977D01*
X251619Y114100D02*
X256877D01*
X251719Y114200D02*
X256777D01*
X251819Y114300D02*
X256677D01*
X251919Y114400D02*
X256577D01*
X252019Y114500D02*
X256477D01*
X252119Y114600D02*
X256377D01*
X252219Y114700D02*
X256277D01*
X252319Y114800D02*
X256177D01*
X252419Y114900D02*
X256077D01*
X252519Y115000D02*
X255977D01*
X252619Y115100D02*
X255877D01*
X252719Y115200D02*
X255777D01*
X252819Y115300D02*
X255677D01*
X252919Y115400D02*
X255577D01*
X253019Y115500D02*
X255477D01*
X253119Y115600D02*
X255377D01*
X253219Y115700D02*
X255277D01*
X253319Y115800D02*
X255177D01*
X253419Y115900D02*
X255077D01*
X253519Y116000D02*
X254977D01*
X253619Y116100D02*
X254877D01*
X253719Y116200D02*
X254777D01*
X253819Y116300D02*
X254677D01*
X253919Y116400D02*
X254577D01*
X254019Y116500D02*
X254477D01*
X254119Y116600D02*
X254377D01*
X254219Y116700D02*
X254277D01*
X251600Y113951D02*
Y114081D01*
X251700Y113851D02*
Y114181D01*
X251800Y113751D02*
Y114281D01*
X251900Y113651D02*
Y114381D01*
X252000Y113551D02*
Y114481D01*
X252100Y113451D02*
Y114581D01*
X252200Y113351D02*
Y114681D01*
X252300Y113251D02*
Y114781D01*
X252400Y113151D02*
Y114881D01*
X252500Y113051D02*
Y114981D01*
X252600Y112951D02*
Y115081D01*
X252700Y112851D02*
Y115181D01*
X252800Y112751D02*
Y115281D01*
X252900Y112651D02*
Y115381D01*
X253000Y112551D02*
Y115481D01*
X253100Y112451D02*
Y115581D01*
X253200Y112351D02*
Y115681D01*
X253300Y112251D02*
Y115781D01*
X253400Y112151D02*
Y115881D01*
X253500Y112051D02*
Y115981D01*
X253600Y111951D02*
Y116081D01*
X253700Y111851D02*
Y116181D01*
X253800Y111751D02*
Y116281D01*
X253900Y111651D02*
Y116381D01*
X254000Y111551D02*
Y116481D01*
X254100Y111451D02*
Y116581D01*
X254200Y111351D02*
Y116681D01*
X254300Y111251D02*
Y116677D01*
X254400Y111151D02*
Y116577D01*
X254500Y111051D02*
Y116477D01*
X254600Y110951D02*
Y116377D01*
X254700Y110851D02*
Y116277D01*
X254800Y110751D02*
Y116177D01*
X254900Y110651D02*
Y116077D01*
X255000Y110551D02*
Y115977D01*
X255100Y110451D02*
Y115877D01*
X255200Y110351D02*
Y115777D01*
X255300Y110251D02*
Y115677D01*
X255400Y110151D02*
Y115577D01*
X255500Y110051D02*
Y115477D01*
X255600Y109951D02*
Y115377D01*
X255700Y109851D02*
Y115277D01*
X255800Y109751D02*
Y115177D01*
X255900Y109651D02*
Y115077D01*
X256000Y109551D02*
Y114977D01*
X256100Y109451D02*
Y114877D01*
X256200Y109351D02*
Y114777D01*
X256300Y109251D02*
Y114677D01*
X256400Y109151D02*
Y114577D01*
X256500Y109101D02*
Y114477D01*
X256600Y109201D02*
Y114377D01*
X256700Y109301D02*
Y114277D01*
X256800Y109401D02*
Y114177D01*
X256900Y109501D02*
Y114077D01*
X257000Y109601D02*
Y113977D01*
X257100Y109701D02*
Y113877D01*
X257200Y109801D02*
Y113777D01*
X257300Y109901D02*
Y113677D01*
X257400Y110001D02*
Y113577D01*
X257500Y110101D02*
Y113477D01*
X257600Y110201D02*
Y113377D01*
X257700Y110301D02*
Y113277D01*
X257800Y110401D02*
Y113177D01*
X257900Y110501D02*
Y113077D01*
X258000Y110601D02*
Y112977D01*
X258100Y110701D02*
Y112877D01*
X258200Y110801D02*
Y112777D01*
X258300Y110901D02*
Y112677D01*
X258400Y111001D02*
Y112577D01*
X258500Y111101D02*
Y112477D01*
X258600Y111201D02*
Y112377D01*
X258700Y111301D02*
Y112277D01*
X258800Y111401D02*
Y112177D01*
X258900Y111501D02*
Y112077D01*
X259000Y111601D02*
Y111977D01*
X259100Y111701D02*
Y111877D01*
X251950Y104551D02*
X247010Y109491D01*
X244297Y106778*
X249237Y101838*
X251950Y104551*
X249175Y101900D02*
X249299D01*
X249075Y102000D02*
X249399D01*
X248975Y102100D02*
X249499D01*
X248875Y102200D02*
X249599D01*
X248775Y102300D02*
X249699D01*
X248675Y102400D02*
X249799D01*
X248575Y102500D02*
X249899D01*
X248475Y102600D02*
X249999D01*
X248375Y102700D02*
X250099D01*
X248275Y102800D02*
X250199D01*
X248175Y102900D02*
X250299D01*
X248075Y103000D02*
X250399D01*
X247975Y103100D02*
X250499D01*
X247875Y103200D02*
X250599D01*
X247775Y103300D02*
X250699D01*
X247675Y103400D02*
X250799D01*
X247575Y103500D02*
X250899D01*
X247475Y103600D02*
X250999D01*
X247375Y103700D02*
X251099D01*
X247275Y103800D02*
X251199D01*
X247175Y103900D02*
X251299D01*
X247075Y104000D02*
X251399D01*
X246975Y104100D02*
X251499D01*
X246875Y104200D02*
X251599D01*
X246775Y104300D02*
X251699D01*
X246675Y104400D02*
X251799D01*
X246575Y104500D02*
X251899D01*
X246475Y104600D02*
X251901D01*
X246375Y104700D02*
X251801D01*
X246275Y104800D02*
X251701D01*
X246175Y104900D02*
X251601D01*
X246075Y105000D02*
X251501D01*
X245975Y105100D02*
X251401D01*
X245875Y105200D02*
X251301D01*
X245775Y105300D02*
X251201D01*
X245675Y105400D02*
X251101D01*
X245575Y105500D02*
X251001D01*
X245475Y105600D02*
X250901D01*
X245375Y105700D02*
X250801D01*
X245275Y105800D02*
X250701D01*
X245175Y105900D02*
X250601D01*
X245075Y106000D02*
X250501D01*
X244975Y106100D02*
X250401D01*
X244875Y106200D02*
X250301D01*
X244775Y106300D02*
X250201D01*
X244675Y106400D02*
X250101D01*
X244575Y106500D02*
X250001D01*
X244475Y106600D02*
X249901D01*
X244375Y106700D02*
X249801D01*
X244319Y106800D02*
X249701D01*
X244419Y106900D02*
X249601D01*
X244519Y107000D02*
X249501D01*
X244619Y107100D02*
X249401D01*
X244719Y107200D02*
X249301D01*
X244819Y107300D02*
X249201D01*
X244919Y107400D02*
X249101D01*
X245019Y107500D02*
X249001D01*
X245119Y107600D02*
X248901D01*
X245219Y107700D02*
X248801D01*
X245319Y107800D02*
X248701D01*
X245419Y107900D02*
X248601D01*
X245519Y108000D02*
X248501D01*
X245619Y108100D02*
X248401D01*
X245719Y108200D02*
X248301D01*
X245819Y108300D02*
X248201D01*
X245919Y108400D02*
X248101D01*
X246019Y108500D02*
X248001D01*
X246119Y108600D02*
X247901D01*
X246219Y108700D02*
X247801D01*
X246319Y108800D02*
X247701D01*
X246419Y108900D02*
X247601D01*
X246519Y109000D02*
X247501D01*
X246619Y109100D02*
X247401D01*
X246719Y109200D02*
X247301D01*
X246819Y109300D02*
X247201D01*
X246919Y109400D02*
X247101D01*
X244300Y106775D02*
Y106781D01*
X244400Y106675D02*
Y106881D01*
X244500Y106575D02*
Y106981D01*
X244600Y106475D02*
Y107081D01*
X244700Y106375D02*
Y107181D01*
X244800Y106275D02*
Y107281D01*
X244900Y106175D02*
Y107381D01*
X245000Y106075D02*
Y107481D01*
X245100Y105975D02*
Y107581D01*
X245200Y105875D02*
Y107681D01*
X245300Y105775D02*
Y107781D01*
X245400Y105675D02*
Y107881D01*
X245500Y105575D02*
Y107981D01*
X245600Y105475D02*
Y108081D01*
X245700Y105375D02*
Y108181D01*
X245800Y105275D02*
Y108281D01*
X245900Y105175D02*
Y108381D01*
X246000Y105075D02*
Y108481D01*
X246100Y104975D02*
Y108581D01*
X246200Y104875D02*
Y108681D01*
X246300Y104775D02*
Y108781D01*
X246400Y104675D02*
Y108881D01*
X246500Y104575D02*
Y108981D01*
X246600Y104475D02*
Y109081D01*
X246700Y104375D02*
Y109181D01*
X246800Y104275D02*
Y109281D01*
X246900Y104175D02*
Y109381D01*
X247000Y104075D02*
Y109481D01*
X247100Y103975D02*
Y109401D01*
X247200Y103875D02*
Y109301D01*
X247300Y103775D02*
Y109201D01*
X247400Y103675D02*
Y109101D01*
X247500Y103575D02*
Y109001D01*
X247600Y103475D02*
Y108901D01*
X247700Y103375D02*
Y108801D01*
X247800Y103275D02*
Y108701D01*
X247900Y103175D02*
Y108601D01*
X248000Y103075D02*
Y108501D01*
X248100Y102975D02*
Y108401D01*
X248200Y102875D02*
Y108301D01*
X248300Y102775D02*
Y108201D01*
X248400Y102675D02*
Y108101D01*
X248500Y102575D02*
Y108001D01*
X248600Y102475D02*
Y107901D01*
X248700Y102375D02*
Y107801D01*
X248800Y102275D02*
Y107701D01*
X248900Y102175D02*
Y107601D01*
X249000Y102075D02*
Y107501D01*
X249100Y101975D02*
Y107401D01*
X249200Y101875D02*
Y107301D01*
X249300Y101901D02*
Y107201D01*
X249400Y102001D02*
Y107101D01*
X249500Y102101D02*
Y107001D01*
X249600Y102201D02*
Y106901D01*
X249700Y102301D02*
Y106801D01*
X249800Y102401D02*
Y106701D01*
X249900Y102501D02*
Y106601D01*
X250000Y102601D02*
Y106501D01*
X250100Y102701D02*
Y106401D01*
X250200Y102801D02*
Y106301D01*
X250300Y102901D02*
Y106201D01*
X250400Y103001D02*
Y106101D01*
X250500Y103101D02*
Y106001D01*
X250600Y103201D02*
Y105901D01*
X250700Y103301D02*
Y105801D01*
X250800Y103401D02*
Y105701D01*
X250900Y103501D02*
Y105601D01*
X251000Y103601D02*
Y105501D01*
X251100Y103701D02*
Y105401D01*
X251200Y103801D02*
Y105301D01*
X251300Y103901D02*
Y105201D01*
X251400Y104001D02*
Y105101D01*
X251500Y104101D02*
Y105001D01*
X251600Y104201D02*
Y104901D01*
X251700Y104301D02*
Y104801D01*
X251800Y104401D02*
Y104701D01*
X251900Y104501D02*
Y104601D01*
X233838Y131814D02*
X235159Y130492D01*
X236480Y131814*
X235159Y133135*
X233838Y131814*
X235151Y130500D02*
X235166D01*
X235051Y130600D02*
X235266D01*
X234951Y130700D02*
X235366D01*
X234851Y130800D02*
X235466D01*
X234751Y130900D02*
X235566D01*
X234651Y131000D02*
X235666D01*
X234551Y131100D02*
X235766D01*
X234451Y131200D02*
X235866D01*
X234351Y131300D02*
X235966D01*
X234251Y131400D02*
X236066D01*
X234151Y131500D02*
X236166D01*
X234051Y131600D02*
X236266D01*
X233951Y131700D02*
X236366D01*
X233851Y131800D02*
X236466D01*
X233924Y131900D02*
X236394D01*
X234024Y132000D02*
X236294D01*
X234124Y132100D02*
X236194D01*
X234224Y132200D02*
X236094D01*
X234324Y132300D02*
X235994D01*
X234424Y132400D02*
X235894D01*
X234524Y132500D02*
X235794D01*
X234624Y132600D02*
X235694D01*
X234724Y132700D02*
X235594D01*
X234824Y132800D02*
X235494D01*
X234924Y132900D02*
X235394D01*
X235024Y133000D02*
X235294D01*
X235124Y133100D02*
X235194D01*
X233900Y131751D02*
Y131876D01*
X234000Y131651D02*
Y131976D01*
X234100Y131551D02*
Y132076D01*
X234200Y131451D02*
Y132176D01*
X234300Y131351D02*
Y132276D01*
X234400Y131251D02*
Y132376D01*
X234500Y131151D02*
Y132476D01*
X234600Y131051D02*
Y132576D01*
X234700Y130951D02*
Y132676D01*
X234800Y130851D02*
Y132776D01*
X234900Y130751D02*
Y132876D01*
X235000Y130651D02*
Y132976D01*
X235100Y130551D02*
Y133076D01*
X235200Y130534D02*
Y133094D01*
X235300Y130634D02*
Y132994D01*
X235400Y130734D02*
Y132894D01*
X235500Y130834D02*
Y132794D01*
X235600Y130934D02*
Y132694D01*
X235700Y131034D02*
Y132594D01*
X235800Y131134D02*
Y132494D01*
X235900Y131234D02*
Y132394D01*
X236000Y131334D02*
Y132294D01*
X236100Y131434D02*
Y132194D01*
X236200Y131534D02*
Y132094D01*
X236300Y131634D02*
Y131994D01*
X236400Y131734D02*
Y131894D01*
X231332Y134319D02*
X232653Y132998D01*
X233975Y134319*
X232653Y135640*
X231332Y134319*
X232651Y133000D02*
X232655D01*
X232551Y133100D02*
X232755D01*
X232451Y133200D02*
X232855D01*
X232351Y133300D02*
X232955D01*
X232251Y133400D02*
X233055D01*
X232151Y133500D02*
X233155D01*
X232051Y133600D02*
X233255D01*
X231951Y133700D02*
X233355D01*
X231851Y133800D02*
X233455D01*
X231751Y133900D02*
X233555D01*
X231651Y134000D02*
X233655D01*
X231551Y134100D02*
X233755D01*
X231451Y134200D02*
X233855D01*
X231351Y134300D02*
X233955D01*
X231413Y134400D02*
X233894D01*
X231513Y134500D02*
X233794D01*
X231613Y134600D02*
X233694D01*
X231713Y134700D02*
X233594D01*
X231813Y134800D02*
X233494D01*
X231913Y134900D02*
X233394D01*
X232013Y135000D02*
X233294D01*
X232113Y135100D02*
X233194D01*
X232213Y135200D02*
X233094D01*
X232313Y135300D02*
X232994D01*
X232413Y135400D02*
X232894D01*
X232513Y135500D02*
X232794D01*
X232613Y135600D02*
X232694D01*
X231400Y134251D02*
Y134387D01*
X231500Y134151D02*
Y134487D01*
X231600Y134051D02*
Y134587D01*
X231700Y133951D02*
Y134687D01*
X231800Y133851D02*
Y134787D01*
X231900Y133751D02*
Y134887D01*
X232000Y133651D02*
Y134987D01*
X232100Y133551D02*
Y135087D01*
X232200Y133451D02*
Y135187D01*
X232300Y133351D02*
Y135287D01*
X232400Y133251D02*
Y135387D01*
X232500Y133151D02*
Y135487D01*
X232600Y133051D02*
Y135587D01*
X232700Y133045D02*
Y135594D01*
X232800Y133145D02*
Y135494D01*
X232900Y133245D02*
Y135394D01*
X233000Y133345D02*
Y135294D01*
X233100Y133445D02*
Y135194D01*
X233200Y133545D02*
Y135094D01*
X233300Y133645D02*
Y134994D01*
X233400Y133745D02*
Y134894D01*
X233500Y133845D02*
Y134794D01*
X233600Y133945D02*
Y134694D01*
X233700Y134045D02*
Y134594D01*
X233800Y134145D02*
Y134494D01*
X233900Y134245D02*
Y134394D01*
G54D12*
X156965Y190107D03*
X164465D03*
X321855Y121742D03*
X329355D03*
X336999Y121836D03*
X344499D03*
G54D13*
X160715Y198107D03*
X325605Y129742D03*
X340749Y129836D03*
G54D14*
X316346Y182923D03*
Y189221D03*
X347046Y149757D03*
Y143458D03*
X340535Y149812D03*
Y143513D03*
G54D17*
X158008Y175656D03*
X164307D03*
X302974Y158742D03*
X296675D03*
X345062Y196068D03*
X351361D03*
X323538Y195958D03*
X329837D03*
X243301Y129133D03*
X249599D03*
G54D18*
X290924Y200979D03*
X306672D03*
G54D22*
X170119Y141929D03*
Y148229D03*
X121153Y193992D03*
Y200292D03*
X164604Y182632D03*
X158304D03*
X150543Y183757D03*
Y190057D03*
X322563Y142358D03*
Y148658D03*
X331381Y142651D03*
Y148951D03*
X278465Y137996D03*
X272165D03*
X272249Y129108D03*
X278549D03*
G54D23*
X129226Y108810D03*
Y141881D03*
X146289Y108786D03*
Y141857D03*
G54D24*
X360445Y129642D03*
Y149327D03*
G54D26*
X329996Y163474D03*
X334996D03*
X339996D03*
X344996D03*
X344997Y187096D03*
X339996D03*
X334996D03*
X329996D03*
G54D33*
X100000Y257480D02*
X375591D01*
Y100000*
X100000*
Y257480*
G54D57*
X163451Y161201D03*
X159034Y161194D03*
X246340Y143324D03*
X185971Y133105D03*
X202445Y135538D03*
X155968Y141867D03*
X205980Y156678D03*
X187668Y156774D03*
X243270Y133388D03*
X224164Y138450D03*
X224199Y128060D03*
G54D58*
X249884Y143324D03*
X205989Y135538D03*
X202436Y156678D03*
X191212Y156774D03*
X246814Y133388D03*
X220620Y138450D03*
X220655Y128060D03*
G54D59*
X224145Y118971D03*
Y122514D03*
X133436Y153127D03*
Y149583D03*
X138234Y153032D03*
Y149489D03*
X127316Y196483D03*
Y192940D03*
X131685Y196475D03*
Y192932D03*
X154271Y164782D03*
Y161239D03*
X190118Y136517D03*
Y132974D03*
X294824Y121872D03*
Y118329D03*
X284738Y121886D03*
Y118343D03*
X231738Y175282D03*
Y178825D03*
X160372Y145324D03*
Y141781D03*
X211338Y155921D03*
Y159464D03*
X224157Y131551D03*
Y135094D03*
X194098Y136682D03*
Y133139D03*
G54D60*
X213149Y164031D03*
Y169031D03*
Y174031D03*
Y179031D03*
X187677D03*
Y174031D03*
Y169031D03*
Y164031D03*
G54D61*
X163451Y164745D03*
X183102Y197682D03*
Y201226D03*
X159034Y164738D03*
X185971Y136649D03*
X155968Y145411D03*
G54D62*
X213034Y130436D03*
X216577D03*
X247281Y151947D03*
X243738D03*
X186401Y141820D03*
X189944D03*
X246469Y136737D03*
X242926D03*
G54D63*
X222185Y141910D03*
X224154D03*
X226122D03*
X228091D03*
X230059D03*
X232028D03*
X233996D03*
X235965D03*
Y160020D03*
X233996D03*
X232028D03*
X230059D03*
X228091D03*
X226122D03*
X224154D03*
X222185D03*
G54D64*
X238130Y144075D03*
Y146044D03*
Y148012D03*
Y149981D03*
Y151949D03*
Y153918D03*
Y155886D03*
Y157855D03*
X220020D03*
Y155886D03*
Y153918D03*
Y151949D03*
Y149981D03*
Y148012D03*
Y146044D03*
Y144075D03*
G54D65*
X228949Y151112D03*
G54D66*
X245757Y115269D02*
X247706Y113320D01*
G54D67*
X306667Y171142D03*
Y180197D03*
Y189252D03*
G54D68*
X283832Y180197D03*
G54D69*
X296711Y150319D03*
X307735D03*
G54D70*
X224202Y111039D03*
G54D71*
X232470Y112539D03*
G54D72*
X224399Y101909D03*
G54D73*
X215541Y108090D03*
X205698D03*
X197037D03*
X187194D03*
G54D74*
X210620Y112303D03*
X192116D03*
G54D75*
X201368Y101909D03*
X182864D03*
G54D76*
X178533Y110649D03*
G54D77*
X205996Y140960D03*
Y151196D03*
X199697D03*
Y140960D03*
G54D100*
X138574Y182603D03*
X136074D03*
X133574D03*
X131074D03*
X128574D03*
X126074D03*
X123574D03*
X121074D03*
X118574D03*
X116074D03*
X113574D03*
X111074D03*
Y161934D03*
X113574D03*
X116074D03*
X118574D03*
X121074D03*
X123574D03*
X126074D03*
X128574D03*
X131074D03*
X133574D03*
X136074D03*
X138574D03*
X0Y0D02*
M02*
