*
*
G04 PADS VX.2.3 Build Number: 9191294 generated Gerber (RS-274-X) file*
G04 PC Version=2.1*
*
%IN "LockBase_ZM_V1.3_201809"*%
*
%MOIN*%
*
%FSLAX35Y35*%
*
*
*
*
G04 PC Standard Apertures*
*
*
G04 Thermal Relief Aperture macro.*
%AMTER*
1,1,$1,0,0*
1,0,$1-$2,0,0*
21,0,$3,$4,0,0,45*
21,0,$3,$4,0,0,135*
%
*
*
G04 Annular Aperture macro.*
%AMANN*
1,1,$1,0,0*
1,0,$2,0,0*
%
*
*
G04 Odd Aperture macro.*
%AMODD*
1,1,$1,0,0*
1,0,$1-0.005,0,0*
%
*
*
G04 PC Custom Aperture Macros*
*
*
*
*
*
*
G04 PC Aperture Table*
*
%ADD010C,0.001*%
%ADD033C,0.01*%
%ADD036C,0.005*%
%ADD037C,0.006*%
%ADD101C,0.00787*%
%ADD102C,0.0015*%
*
*
*
*
G04 PC Circuitry*
G04 Layer Name LockBase_ZM_V1.3_201809 - circuitry*
%LPD*%
*
*
G04 PC Custom Flashes*
G04 Layer Name LockBase_ZM_V1.3_201809 - flashes*
%LPD*%
*
*
G04 PC Circuitry*
G04 Layer Name LockBase_ZM_V1.3_201809 - circuitry*
%LPD*%
*
G54D10*
G54D33*
G01X157715Y198007D02*
X155215D01*
Y193007*
X163715Y198007D02*
X166215D01*
Y193007*
X160215Y189007D02*
X161215D01*
X278610Y113488D02*
X351487D01*
Y101788*
X278610*
Y113488*
X121942Y113534D02*
X136509D01*
X121942Y137164D02*
X136509D01*
X121942Y113534D02*
Y137156D01*
X136509Y113534D02*
Y137156D01*
X139005Y113510D02*
X153572D01*
X139005Y137140D02*
X153572D01*
X139005Y113510D02*
Y137133D01*
X153572Y113510D02*
Y137133D01*
X289667Y167642D02*
Y192542D01*
X300867*
Y167642*
X289667*
X353190Y214421D02*
X233505D01*
Y255760*
X353190*
Y214421*
X211429Y232521D02*
X162217D01*
Y255749*
X211429*
Y232521*
X189823Y232764D02*
X184023D01*
Y234364*
X189823*
Y232764*
X327996Y167411D02*
X325996D01*
X324983Y169311*
Y183159*
X327596*
X347690D02*
X348609D01*
Y167411*
X347483*
X354645Y126942D02*
Y152242D01*
X366245*
Y126942*
X354645*
X153994Y232830D02*
X124467D01*
Y256059*
X153994*
Y232830*
X141752Y233173D02*
X135952D01*
Y234873*
X141752*
Y233173*
X212696Y204765D02*
X163483D01*
Y227993*
X212696*
Y204765*
X191089Y205008D02*
X185289D01*
Y206608*
X191089*
Y205008*
X285624Y206279D02*
X312024D01*
Y195579*
X285624*
Y206279*
X297124Y204329D02*
X300524Y200929D01*
X297124Y197079*
Y204329*
X300924Y204679D02*
Y197079D01*
X322605Y129642D02*
X320105D01*
Y124642*
X328605Y129642D02*
X331105D01*
Y124642*
X325105Y120642D02*
X326105D01*
X337749Y129736D02*
X335249D01*
Y124736*
X343749Y129736D02*
X346249D01*
Y124736*
X340249Y120736D02*
X341249D01*
X100000Y257480D02*
X375591D01*
Y100000*
X100000*
Y257480*
X178560Y184025D02*
X254849D01*
Y125205*
X178560*
Y184025*
G54D36*
X219501Y140415D02*
X218265Y142067D01*
Y161487*
X239500*
Y140415*
X219501*
X164829Y165926D02*
G75*
G03X162073I-1378J-1378D01*
G01Y160019*
X162071Y160021D02*
G03X164828Y160018I1380J1587D01*
G01X164829Y160019D02*
Y165926D01*
X168224Y144161D02*
X172020D01*
X170122Y146029*
X168224Y144161*
X170150Y145701D02*
Y144198D01*
X168791Y146029D02*
X171637D01*
X225523Y117593D02*
X222767D01*
Y123892*
X225523*
Y117593*
X132058Y154505D02*
X134814D01*
X134814D02*
Y148205D01*
X134814D02*
X132058D01*
Y154505*
X136856Y154410D02*
X139612D01*
Y148111*
X136856*
Y154410*
X125938Y197861D02*
X128694D01*
Y191562*
X125938*
Y197861*
X130307Y197853D02*
X133063D01*
Y191554*
X130307*
Y197853*
X184480Y196304D02*
X181724D01*
Y202604*
X184480*
Y196304*
X166078Y173491D02*
G03Y177821I-2033J2165D01*
G01X166079D02*
X156236D01*
X156235D02*
G03Y173490I1916J-2165D01*
G01X156236D02*
X166079Y173491D01*
X160412Y165919D02*
G03X157656I-1378J-1378D01*
G01Y160013*
X157654Y160014D02*
G03X160411Y160012I1380J1587D01*
G01X160412Y160013D02*
Y165919D01*
X152893Y166160D02*
X155649D01*
Y159861*
X152893*
Y166160*
X251065Y141946D02*
G03Y144702I-1378J1378D01*
G01X245158Y144703*
X245160Y144704D02*
G03X245157Y141947I1587J-1380D01*
G01X245158Y141946D02*
X251065D01*
X187349Y137830D02*
G03X184593I-1378J-1378D01*
G01Y131924*
X184591Y131925D02*
G03X187348Y131922I1380J1587D01*
G01X187349Y131924D02*
Y137830D01*
X207171Y134160D02*
G03Y136916I-1379J1378D01*
G01X201264*
X201265Y136917D02*
G03X201263Y134161I1587J-1379D01*
G01X201264Y134159D02*
X207171Y134160D01*
X211656Y129058D02*
Y131814D01*
X217955*
Y129058*
X211656*
X188740Y137895D02*
X191496D01*
Y131596*
X188740*
Y137895*
X293446Y123250D02*
X296202D01*
Y116951*
X293446*
Y123250*
X283360Y123264D02*
X286116D01*
Y116965*
X283360*
Y123264*
X233116Y173904D02*
X230360D01*
Y180203*
X233116*
Y173904*
X256778Y108472D02*
X252471Y104166D01*
X246633Y110003*
X250940Y114310*
X256778Y108472*
X193815Y182299D02*
X206921D01*
Y160763*
X193815*
Y182299*
X206215Y162260D02*
G03X206215I-865J0D01*
G01X158994Y146702D02*
X161749D01*
Y140403*
X158994*
Y146702*
X157346Y146592D02*
G03X154590I-1378J-1378D01*
G01X154589Y140686*
X154588Y140687D02*
G03X157345Y140685I1380J1587D01*
G01X157346Y140686D02*
Y146592D01*
X248659Y153325D02*
Y150569D01*
X242360*
Y153325*
X248659*
X185023Y140442D02*
Y143198D01*
X191322*
Y140442*
X185023*
X201255Y158057D02*
G03Y155300I1378J-1379D01*
G01X207162*
X207160Y155299D02*
G03X207163Y158055I-1587J1379D01*
G01X207162Y158057D02*
X201255D01*
X212716Y154543D02*
X209960D01*
Y160842*
X212716*
Y154543*
X192393Y155396D02*
G03Y158153I-1378J1378D01*
G01X186487*
X186488Y158154D02*
G03X186486Y155397I1587J-1380D01*
G01X186487Y155396D02*
X192393D01*
X225535Y130173D02*
X222780D01*
Y136472*
X225535*
Y130173*
X318511Y190993D02*
G03X314181I-2165J-2033D01*
G01X314180Y181150*
X314181D02*
G03X318511I2165J1915D01*
G01X318512D02*
X318511Y190993D01*
X294904Y160907D02*
G03Y156577I2033J-2165D01*
G01X294903D02*
X304746Y156576D01*
X304747Y156577D02*
G03Y160907I-1916J2165D01*
G01X304746D02*
X294903D01*
X344881Y141687D02*
G03X349211I2165J2033D01*
G01X349212Y151530*
X349211D02*
G03X344881I-2165J-1916D01*
G01X344880D02*
X344881Y141687D01*
X338370Y141742D02*
G03X342700I2165J2033D01*
G01X342701Y151585*
G03X338370I-2166J-1916*
G01X338371Y141742*
X353132Y193903D02*
G03Y198233I-2033J2165D01*
G01X343289Y198234*
Y198233D02*
G03Y193903I1916J-2165D01*
G01X353132*
X331608Y193793D02*
G03Y198123I-2033J2165D01*
G01X331609D02*
X321766Y198124D01*
X321765Y198123D02*
G03Y193793I1916J-2165D01*
G01X321766Y193792D02*
X331609Y193793D01*
X247847Y138115D02*
Y135359D01*
X241548*
Y138115*
X247847*
X305223Y146579D02*
X310570D01*
Y154059*
X305223*
X299223Y146579D02*
X295022D01*
X293562Y147689*
Y152756*
X295022Y154059*
X299223*
X210892Y140131D02*
G03X210892I-1037J0D01*
G01X197926Y143220D02*
Y148952D01*
X207768Y143243D02*
Y148893D01*
X203492Y139779D02*
X202205D01*
X203524Y152377D02*
X202205D01*
X247995Y132010D02*
G03Y134767I-1378J1378D01*
G01X242089*
X242090Y134768D02*
G03X242088Y132012I1587J-1380D01*
G01X242089Y132010D02*
X247995D01*
X219439Y139828D02*
G03Y137072I1378J-1378D01*
G01X225345*
X225344Y137070D02*
G03X225347Y139827I-1587J1380D01*
G01X225345Y139828D02*
X219439D01*
X219474Y129439D02*
G03Y126682I1378J-1379D01*
G01X225381*
X225380Y126681D02*
G03X225382Y129437I-1588J1379D01*
G01X225381Y129439D02*
X219474D01*
X251371Y126968D02*
G03Y131298I-2033J2165D01*
G01Y131297D02*
X241528Y131298D01*
G03Y126967I1915J-2165*
G01X251371Y126968*
X192720Y138060D02*
X195476D01*
Y131761*
X192720*
Y138060*
X237108Y131814D02*
X235159Y129865D01*
X230705Y134319*
X232653Y136268*
X237108Y131814*
X235527Y165331D02*
Y163456D01*
X235618Y163081*
X235800Y162831*
X236073Y162706*
X236254*
X236527Y162831*
X236709Y163081*
X236800Y163456*
Y165331*
X238073D02*
X237800Y165206D01*
X237709Y164956*
Y164706*
X237800Y164456*
X237982Y164331*
X238345Y164206*
X238618Y164081*
X238800Y163831*
X238891Y163581*
Y163206*
X238800Y162956*
X238709Y162831*
X238436Y162706*
X238073*
X237800Y162831*
X237709Y162956*
X237618Y163206*
Y163581*
X237709Y163831*
X237891Y164081*
X238163Y164206*
X238527Y164331*
X238709Y164456*
X238800Y164706*
Y164956*
X238709Y165206*
X238436Y165331*
X238073*
X164533Y156896D02*
X164845Y157010D01*
X165158Y157237*
X165314Y157464*
Y157919*
X165158Y158146*
X164845Y158373*
X164533Y158487*
X164064Y158601*
X163283*
X162814Y158487*
X162502Y158373*
X162189Y158146*
X162033Y157919*
Y157464*
X162189Y157237*
X162502Y157010*
X162814Y156896*
X164533Y155760D02*
X164689D01*
X165002Y155646*
X165158Y155532*
X165314Y155305*
Y154851*
X165158Y154623*
X165002Y154510*
X164689Y154396*
X164377*
X164064Y154510*
X163595Y154737*
X162033Y155873*
Y154282*
X165314Y152692D02*
X165158Y153032D01*
X164845Y153146*
X164533*
X164220Y153032*
X164064Y152805*
X163908Y152351*
X163752Y152010*
X163439Y151782*
X163127Y151669*
X162658*
X162345Y151782*
X162189Y151896*
X162033Y152237*
Y152692*
X162189Y153032*
X162345Y153146*
X162658Y153260*
X163127*
X163439Y153146*
X163752Y152919*
X163908Y152578*
X164064Y152123*
X164220Y151896*
X164533Y151782*
X164845*
X165158Y151896*
X165314Y152237*
Y152692*
X146449Y174268D02*
X144574D01*
X144199Y174177*
X143949Y173996*
X143824Y173723*
Y173541*
X143949Y173268*
X144199Y173087*
X144574Y172996*
X146449*
X145949Y172177D02*
X146074Y171996D01*
X146449Y171723*
X143824*
X168770Y137341D02*
X166145D01*
X168770D02*
Y136705D01*
X168645Y136432*
X168395Y136250*
X168145Y136159*
X167770Y136069*
X167145*
X166770Y136159*
X166520Y136250*
X166270Y136432*
X166145Y136705*
Y137341*
X168145Y135159D02*
X168270D01*
X168520Y135069*
X168645Y134978*
X168770Y134796*
Y134432*
X168645Y134250*
X168520Y134159*
X168270Y134069*
X168020*
X167770Y134159*
X167395Y134341*
X166145Y135250*
Y133978*
X221127Y123092D02*
X218502D01*
X221127D02*
Y122274D01*
X221002Y122001*
X220877Y121910*
X220627Y121819*
X220377*
X220127Y121910*
X220002Y122001*
X219877Y122274*
Y123092*
Y122456D02*
X218502Y121819D01*
X220502Y120910D02*
X220627D01*
X220877Y120819*
X221002Y120728*
X221127Y120547*
Y120183*
X221002Y120001*
X220877Y119910*
X220627Y119819*
X220377*
X220127Y119910*
X219752Y120092*
X218502Y121001*
Y119728*
X220627Y118910D02*
X220752Y118728D01*
X221127Y118456*
X218502*
X134801Y146406D02*
X132176D01*
X134801D02*
Y145588D01*
X134676Y145315*
X134551Y145224*
X134301Y145133*
X134051*
X133801Y145224*
X133676Y145315*
X133551Y145588*
Y146406*
Y145769D02*
X132176Y145133D01*
X134301Y144315D02*
X134426Y144133D01*
X134801Y143860*
X132176*
X133926Y141860D02*
X133551Y141951D01*
X133301Y142133*
X133176Y142406*
Y142497*
X133301Y142769*
X133551Y142951*
X133926Y143042*
X134051*
X134426Y142951*
X134676Y142769*
X134801Y142497*
Y142406*
X134676Y142133*
X134426Y141951*
X133926Y141860*
X133301*
X132676Y141951*
X132301Y142133*
X132176Y142406*
Y142588*
X132301Y142860*
X132551Y142951*
X139100Y146780D02*
X136475D01*
X139100D02*
Y145961D01*
X138975Y145689*
X138850Y145598*
X138600Y145507*
X138350*
X138100Y145598*
X137975Y145689*
X137850Y145961*
Y146780*
Y146143D02*
X136475Y145507D01*
X138475Y144598D02*
X138600D01*
X138850Y144507*
X138975Y144416*
X139100Y144234*
Y143870*
X138975Y143689*
X138850Y143598*
X138600Y143507*
X138350*
X138100Y143598*
X137725Y143780*
X136475Y144689*
Y143416*
X139100Y142416D02*
Y141416D01*
X138100Y141961*
Y141689*
X137975Y141507*
X137850Y141416*
X137475Y141325*
X137225*
X136850Y141416*
X136600Y141598*
X136475Y141870*
Y142143*
X136600Y142416*
X136725Y142507*
X136975Y142598*
X122477Y209877D02*
X119852D01*
X122477D02*
Y209059D01*
X122352Y208786*
X122227Y208695*
X121977Y208604*
X121727*
X121477Y208695*
X121352Y208786*
X121227Y209059*
Y209877*
Y209240D02*
X119852Y208604D01*
X121977Y207786D02*
X122102Y207604D01*
X122477Y207331*
X119852*
X122477Y205968D02*
X122352Y206240D01*
X121977Y206422*
X121352Y206513*
X120977*
X120352Y206422*
X119977Y206240*
X119852Y205968*
Y205786*
X119977Y205513*
X120352Y205331*
X120977Y205240*
X121352*
X121977Y205331*
X122352Y205513*
X122477Y205786*
Y205968*
X128273Y202688D02*
X125648D01*
X128273D02*
Y201870D01*
X128148Y201597*
X128023Y201506*
X127773Y201415*
X127523*
X127273Y201506*
X127148Y201597*
X127023Y201870*
Y202688*
Y202052D02*
X125648Y201415D01*
X128273Y200415D02*
Y199415D01*
X127273Y199961*
Y199688*
X127148Y199506*
X127023Y199415*
X126648Y199324*
X126398*
X126023Y199415*
X125773Y199597*
X125648Y199870*
Y200142*
X125773Y200415*
X125898Y200506*
X126148Y200597*
X132601Y202468D02*
X129976D01*
X132601D02*
Y201650D01*
X132476Y201377*
X132351Y201286*
X132101Y201195*
X131851*
X131601Y201286*
X131476Y201377*
X131351Y201650*
Y202468*
Y201831D02*
X129976Y201195D01*
X132101Y200377D02*
X132226Y200195D01*
X132601Y199922*
X129976*
X189083Y202017D02*
X185802D01*
X189083D02*
Y200994D01*
X188927Y200653*
X188771Y200539*
X188458Y200426*
X188146*
X187833Y200539*
X187677Y200653*
X187521Y200994*
Y202017*
Y201221D02*
X185802Y200426D01*
X188302Y199289D02*
X188458D01*
X188771Y199176*
X188927Y199062*
X189083Y198835*
Y198380*
X188927Y198153*
X188771Y198039*
X188458Y197926*
X188146*
X187833Y198039*
X187365Y198267*
X185802Y199403*
Y197812*
X187990Y195312D02*
X187521Y195426D01*
X187208Y195653*
X187052Y195994*
Y196108*
X187208Y196449*
X187521Y196676*
X187990Y196789*
X188146*
X188615Y196676*
X188927Y196449*
X189083Y196108*
Y195994*
X188927Y195653*
X188615Y195426*
X187990Y195312*
X187208*
X186427Y195426*
X185958Y195653*
X185802Y195994*
Y196221*
X185958Y196562*
X186271Y196676*
X157483Y205893D02*
X157301Y205768D01*
X157119Y205518*
X157028Y205268*
X156937Y204893*
Y204268*
X157028Y203893*
X157119Y203643*
X157301Y203393*
X157483Y203268*
X157846*
X158028Y203393*
X158210Y203643*
X158301Y203893*
X158392Y204268*
Y204893*
X158301Y205268*
X158210Y205518*
X158028Y205768*
X157846Y205893*
X157483*
X157755Y203768D02*
X158301Y203018D01*
X159210Y205393D02*
X159392Y205518D01*
X159665Y205893*
Y203268*
X169431Y184467D02*
Y181842D01*
Y184467D02*
X170249D01*
X170522Y184342*
X170613Y184217*
X170704Y183967*
Y183717*
X170613Y183467*
X170522Y183342*
X170249Y183217*
X169431*
X170067D02*
X170704Y181842D01*
X171522Y183967D02*
X171704Y184092D01*
X171976Y184467*
Y181842*
X172886Y183842D02*
Y183967D01*
X172976Y184217*
X173067Y184342*
X173249Y184467*
X173613*
X173795Y184342*
X173886Y184217*
X173976Y183967*
Y183717*
X173886Y183467*
X173704Y183092*
X172795Y181842*
X174067*
X169870Y176606D02*
X169779Y176856D01*
X169598Y177106*
X169416Y177231*
X169052*
X168870Y177106*
X168688Y176856*
X168598Y176606*
X168507Y176231*
Y175606*
X168598Y175231*
X168688Y174981*
X168870Y174731*
X169052Y174606*
X169416*
X169598Y174731*
X169779Y174981*
X169870Y175231*
X170688Y176731D02*
X170870Y176856D01*
X171143Y177231*
Y174606*
X172052Y176606D02*
Y176731D01*
X172143Y176981*
X172234Y177106*
X172416Y177231*
X172779*
X172961Y177106*
X173052Y176981*
X173143Y176731*
Y176481*
X173052Y176231*
X172870Y175856*
X171961Y174606*
X173234*
X148611Y197223D02*
Y194598D01*
Y197223D02*
X149429D01*
X149702Y197098*
X149792Y196973*
X149883Y196723*
Y196473*
X149792Y196223*
X149702Y196098*
X149429Y195973*
X148611*
X149247D02*
X149883Y194598D01*
X150702Y196723D02*
X150883Y196848D01*
X151156Y197223*
Y194598*
X151974Y196723D02*
X152156Y196848D01*
X152429Y197223*
Y194598*
X159487Y157176D02*
X159799Y157290D01*
X160112Y157517*
X160268Y157745*
Y158199*
X160112Y158426*
X159799Y158654*
X159487Y158767*
X159018Y158881*
X158237*
X157768Y158767*
X157456Y158654*
X157143Y158426*
X156987Y158199*
Y157745*
X157143Y157517*
X157456Y157290*
X157768Y157176*
X159487Y156040D02*
X159643D01*
X159956Y155926*
X160112Y155813*
X160268Y155586*
Y155131*
X160112Y154904*
X159956Y154790*
X159643Y154676*
X159331*
X159018Y154790*
X158549Y155017*
X156987Y156154*
Y154563*
X159174Y152063D02*
X158706Y152176D01*
X158393Y152404*
X158237Y152745*
Y152858*
X158393Y153199*
X158706Y153426*
X159174Y153540*
X159331*
X159799Y153426*
X160112Y153199*
X160268Y152858*
Y152745*
X160112Y152404*
X159799Y152176*
X159174Y152063*
X158393*
X157612Y152176*
X157143Y152404*
X156987Y152745*
Y152972*
X157143Y153313*
X157456Y153426*
X155080Y158881D02*
X152455D01*
X155080D02*
Y158063D01*
X154955Y157790*
X154830Y157699*
X154580Y157608*
X154330*
X154080Y157699*
X153955Y157790*
X153830Y158063*
Y158881*
Y158245D02*
X152455Y157608D01*
X155080Y156608D02*
Y155608D01*
X154080Y156154*
Y155881*
X153955Y155699*
X153830Y155608*
X153455Y155517*
X153205*
X152830Y155608*
X152580Y155790*
X152455Y156063*
Y156336*
X152580Y156608*
X152705Y156699*
X152955Y156790*
X155080Y154154D02*
X154955Y154426D01*
X154580Y154608*
X153955Y154699*
X153580*
X152955Y154608*
X152580Y154426*
X152455Y154154*
Y153972*
X152580Y153699*
X152955Y153517*
X153580Y153426*
X153955*
X154580Y153517*
X154955Y153699*
X155080Y153972*
Y154154*
X245712Y148128D02*
X245598Y148440D01*
X245371Y148753*
X245144Y148909*
X244689*
X244462Y148753*
X244234Y148440*
X244121Y148128*
X244007Y147659*
Y146878*
X244121Y146409*
X244234Y146097*
X244462Y145784*
X244689Y145628*
X245144*
X245371Y145784*
X245598Y146097*
X245712Y146409*
X246848Y148128D02*
Y148284D01*
X246962Y148597*
X247075Y148753*
X247303Y148909*
X247757*
X247984Y148753*
X248098Y148597*
X248212Y148284*
Y147972*
X248098Y147659*
X247871Y147190*
X246734Y145628*
X248325*
X249575Y148909D02*
X250825D01*
X250144Y147659*
X250484*
X250712Y147503*
X250825Y147347*
X250939Y146878*
Y146565*
X250825Y146097*
X250598Y145784*
X250257Y145628*
X249916*
X249575Y145784*
X249462Y145940*
X249348Y146253*
X182588Y134658D02*
X182901Y134772D01*
X183213Y134999*
X183369Y135227*
Y135681*
X183213Y135908*
X182901Y136136*
X182588Y136249*
X182119Y136363*
X181338*
X180869Y136249*
X180557Y136136*
X180244Y135908*
X180088Y135681*
Y135227*
X180244Y134999*
X180557Y134772*
X180869Y134658*
X182588Y133522D02*
X182744D01*
X183057Y133408*
X183213Y133295*
X183369Y133068*
Y132613*
X183213Y132386*
X183057Y132272*
X182744Y132158*
X182432*
X182119Y132272*
X181651Y132499*
X180088Y133636*
Y132045*
X182744Y131022D02*
X182901Y130795D01*
X183369Y130454*
X180088*
X203463Y132766D02*
X203349Y133079D01*
X203349D02*
X203122Y133391D01*
X202894Y133547*
X202440*
X202213Y133391*
X201985Y133079*
X201985D02*
X201872Y132766D01*
X201758Y132297*
Y131516*
X201872Y131047*
X201985Y130735*
X202213Y130422*
X202440Y130266*
X202894*
X203122Y130422*
X203349Y130735*
X203463Y131047*
X204599Y132766D02*
Y132922D01*
X204713Y133235*
X204826Y133391*
X205054Y133547*
X205508*
X205735Y133391*
X205849Y133235*
X205963Y132922*
Y132610*
X205849Y132297*
X205622Y131829*
X205622D02*
X204485Y130266D01*
X206076*
X208690Y133547D02*
X207554Y130266D01*
X207099Y133547D02*
X208690D01*
X211550Y135598D02*
Y132973D01*
Y135598D02*
X212368D01*
X212641Y135473*
X212732Y135348*
X212823Y135098*
Y134848*
X212732Y134598*
X212641Y134473*
X212368Y134348*
X211550*
X212186D02*
X212823Y132973D01*
X213732Y134973D02*
Y135098D01*
X213823Y135348*
X213914Y135473*
X214095Y135598*
X214459*
X214641Y135473*
X214732Y135348*
X214823Y135098*
Y134848*
X214732Y134598*
X214550Y134223*
X213641Y132973*
X214914*
X215823Y134973D02*
Y135098D01*
X215914Y135348*
X216004Y135473*
X216186Y135598*
X216550*
X216732Y135473*
X216823Y135348*
X216914Y135098*
Y134848*
X216823Y134598*
X216641Y134223*
X215732Y132973*
X217004*
X191505Y131330D02*
X188880D01*
X191505D02*
Y130512D01*
X191380Y130239*
X191255Y130148*
X191005Y130057*
X190755*
X190505Y130148*
X190380Y130239*
X190255Y130512*
Y131330*
Y130694D02*
X188880Y130057D01*
X190880Y129148D02*
X191005D01*
X191255Y129057*
X191380Y128966*
X191505Y128785*
Y128421*
X191380Y128239*
X191255Y128148*
X191005Y128057*
X190755*
X190505Y128148*
X190130Y128330*
X188880Y129239*
Y127966*
X191130Y126057D02*
X191380Y126148D01*
X191505Y126421*
Y126603*
X191380Y126875*
X191005Y127057*
X190380Y127148*
X189755*
X189255Y127057*
X189005Y126875*
X188880Y126603*
Y126512*
X189005Y126239*
X189255Y126057*
X189630Y125966*
X189755*
X190130Y126057*
X190380Y126239*
X190505Y126512*
Y126603*
X190380Y126875*
X190130Y127057*
X189755Y127148*
X293796Y129143D02*
X291171D01*
X293796D02*
Y128324D01*
X293671Y128052*
X293546Y127961*
X293296Y127870*
X293046*
X292796Y127961*
X292671Y128052*
X292546Y128324*
Y129143*
Y128506D02*
X291171Y127870D01*
X293296Y127052D02*
X293421Y126870D01*
X293796Y126597*
X291171*
X293796Y124506D02*
X291171Y125415D01*
X293796Y125779D02*
Y124506D01*
X281975Y123069D02*
X279350D01*
X281975D02*
Y122250D01*
X281850Y121978*
X281725Y121887*
X281475Y121796*
X281225*
X280975Y121887*
X280850Y121978*
X280725Y122250*
Y123069*
Y122432D02*
X279350Y121796D01*
X281475Y120978D02*
X281600Y120796D01*
X281975Y120523*
X279350*
X281975Y119250D02*
X281850Y119523D01*
X281600Y119614*
X281350*
X281100Y119523*
X280975Y119341*
X280850Y118978*
X280725Y118705*
X280475Y118523*
X280225Y118432*
X279850*
X279600Y118523*
X279475Y118614*
X279350Y118887*
Y119250*
X279475Y119523*
X279600Y119614*
X279850Y119705*
X280225*
X280475Y119614*
X280725Y119432*
X280850Y119159*
X280975Y118796*
X281100Y118614*
X281350Y118523*
X281600*
X281850Y118614*
X281975Y118887*
Y119250*
X236961Y179122D02*
X234336D01*
X236961D02*
Y178304D01*
X236836Y178031*
X236711Y177940*
X236461Y177849*
X236211*
X235961Y177940*
X235836Y178031*
X235711Y178304*
Y179122*
Y178486D02*
X234336Y177849D01*
X236961Y175849D02*
Y176758D01*
X235836Y176849*
X235961Y176758*
X236086Y176486*
X236086D02*
Y176213D01*
X235961Y175940*
X235711Y175758*
X235336Y175667*
X235086Y175758*
X234711Y175849*
X234461Y176031*
X234336Y176304*
Y176576*
X234461Y176849*
X234586Y176940*
X234836Y177031*
X255333Y105144D02*
Y103503D01*
X255424Y103175*
X255606Y102956*
X255879Y102847*
X256060*
X256333Y102956*
X256515Y103175*
X256606Y103503*
Y105144*
X258606Y104378D02*
X258515Y104050D01*
X258333Y103831*
X258060Y103722*
X257969*
X257697Y103831*
X257515Y104050*
X257424Y104378*
Y104487*
X257515Y104815*
X257697Y105034*
X257969Y105144*
X258060*
X258333Y105034*
X258515Y104815*
X258606Y104378*
Y103831*
X258515Y103284*
X258333Y102956*
X258060Y102847*
X257879*
X257606Y102956*
X257515Y103175*
X209162Y117839D02*
Y115964D01*
X209253Y115589*
X209435Y115339*
X209707Y115214*
X209889*
X210162Y115339*
X210344Y115589*
X210435Y115964*
Y117839*
X211253Y117339D02*
X211435Y117464D01*
X211707Y117839*
Y115214*
X213071Y117839D02*
X212798Y117714D01*
X212616Y117339*
X212526Y116714*
Y116339*
X212616Y115714*
X212798Y115339*
X213071Y115214*
X213253*
X213526Y115339*
X213707Y115714*
X213798Y116339*
Y116714*
X213707Y117339*
X213526Y117714*
X213253Y117839*
X213071*
X199053Y172756D02*
Y170881D01*
X199144Y170506*
X199326Y170256*
X199599Y170131*
X199780*
X200053Y170256*
X200235Y170506*
X200326Y170881*
Y172756*
X202417D02*
X201508Y170131D01*
X201144Y172756D02*
X202417D01*
X275048Y108888D02*
Y106888D01*
X274957Y106513*
X274866Y106388*
X274685Y106263*
X274503*
X274321Y106388*
X274230Y106513*
X274139Y106888*
Y107138*
X276957Y108513D02*
X276866Y108763D01*
X276594Y108888*
X276412*
X276139Y108763*
X275957Y108388*
X275866Y107763*
Y107138*
X275957Y106638*
X276139Y106388*
X276412Y106263*
X276503*
X276776Y106388*
X276957Y106638*
X277048Y107013*
Y107138*
X276957Y107513*
X276776Y107763*
X276503Y107888*
X276412*
X276139Y107763*
X275957Y107513*
X275866Y107138*
X161341Y139164D02*
X158716D01*
X161341D02*
Y138345D01*
X161216Y138073*
X161091Y137982*
X160841Y137891*
X160591*
X160341Y137982*
X160216Y138073*
X160091Y138345*
Y139164*
Y138527D02*
X158716Y137891D01*
X160716Y136982D02*
X160841D01*
X161091Y136891*
X161216Y136800*
X161341Y136618*
Y136254*
X161216Y136073*
X161091Y135982*
X160841Y135891*
X160591*
X160341Y135982*
X159966Y136164*
X158716Y137073*
Y135800*
X156637Y137833D02*
X156949Y137946D01*
X157262Y138174*
X157418Y138401*
Y138855*
X157262Y139083*
X156949Y139310*
X156637Y139424*
X156168Y139537*
X155387*
X154918Y139424*
X154605Y139310*
X154293Y139083*
X154137Y138855*
Y138401*
X154293Y138174*
X154605Y137946*
X154918Y137833*
X156793Y136810D02*
X156949Y136583D01*
X157418Y136242*
X154137*
X242645Y156427D02*
Y153802D01*
Y156427D02*
X243463D01*
X243736Y156302*
X243827Y156177*
X243918Y155927*
Y155677*
X243827Y155427*
X243736Y155302*
X243463Y155177*
X242645*
X243281D02*
X243918Y153802D01*
X244827Y155802D02*
Y155927D01*
X244918Y156177*
X245009Y156302*
X245191Y156427*
X245554*
X245736Y156302*
X245827Y156177*
X245918Y155927*
Y155677*
X245827Y155427*
X245645Y155052*
X244736Y153802*
X246009*
X247372Y156427D02*
X247100Y156302D01*
X246918Y155927*
X246827Y155302*
Y154927*
X246918Y154302*
X247100Y153927*
X247372Y153802*
X247554*
X247827Y153927*
X248009Y154302*
X248100Y154927*
Y155302*
X248009Y155927*
X247827Y156302*
X247554Y156427*
X247372*
X118822Y116589D02*
X118640Y116839D01*
X118367Y116964*
X118003*
X117731Y116839*
X117549Y116589*
Y116339*
X117640Y116089*
X117731Y115964*
X117912Y115839*
X118458Y115589*
X118640Y115464*
X118731Y115339*
X118822Y115089*
Y114714*
X118640Y114464*
X118367Y114339*
X118003*
X117731Y114464*
X117549Y114714*
X119640Y116464D02*
X119822Y116589D01*
X120094Y116964*
Y114339*
X156503Y115460D02*
X156321Y115710D01*
X156048Y115835*
X155685*
X155412Y115710*
X155230Y115460*
Y115210*
X155321Y114960*
X155412Y114835*
X155594Y114710*
X156139Y114460*
X156321Y114335*
X156412Y114210*
X156503Y113960*
Y113585*
X156321Y113335*
X156048Y113210*
X155685*
X155412Y113335*
X155230Y113585*
X157412Y115210D02*
Y115335D01*
X157503Y115585*
X157594Y115710*
X157776Y115835*
X158139*
X158321Y115710*
X158412Y115585*
X158503Y115335*
Y115085*
X158412Y114835*
X158230Y114460*
X157321Y113210*
X158594*
X185013Y147807D02*
Y145182D01*
Y147807D02*
X185831D01*
X186104Y147682*
X186195Y147557*
X186286Y147307*
Y147057*
X186195Y146807*
X186104Y146682*
X185831Y146557*
X185013*
X185649D02*
X186286Y145182D01*
X187195Y147182D02*
Y147307D01*
X187286Y147557*
X187377Y147682*
X187559Y147807*
X187922*
X188104Y147682*
X188195Y147557*
X188286Y147307*
Y147057*
X188195Y146807*
X188013Y146432*
X187104Y145182*
X188377*
X190468Y147807D02*
X189559Y145182D01*
X189195Y147807D02*
X190468D01*
X195166Y157758D02*
X195053Y158071D01*
X194826Y158383*
X194598Y158539*
X194144*
X193916Y158383*
X193689Y158071*
X193576Y157758*
X193462Y157289*
Y156508*
X193576Y156039*
X193689Y155727*
X193916Y155414*
X194144Y155258*
X194598*
X194826Y155414*
X195053Y155727*
X195166Y156039*
X196303Y157758D02*
Y157914D01*
X196416Y158227*
X196530Y158383*
X196757Y158539*
X197212*
X197439Y158383*
X197553Y158227*
X197666Y157914*
Y157602*
X197553Y157289*
X197326Y156821*
X196189Y155258*
X197780*
X200166Y158071D02*
X200053Y158383D01*
X199712Y158539*
X199485*
X199144Y158383*
X198916Y157914*
X198803Y157133*
Y156352*
X198916Y155727*
X199144Y155414*
X199485Y155258*
X199598*
X199939Y155414*
X200166Y155727*
X200280Y156196*
Y156352*
X200166Y156821*
X199939Y157133*
X199598Y157289*
X199485*
X199144Y157133*
X198916Y156821*
X198803Y156352*
X212974Y152986D02*
X210349D01*
X212974D02*
Y152168D01*
X212849Y151895*
X212724Y151804*
X212474Y151713*
X212224*
X211974Y151804*
X211849Y151895*
X211724Y152168*
Y152986*
Y152350D02*
X210349Y151713D01*
X212474Y150895D02*
X212599Y150713D01*
X212974Y150441*
X210349*
X212974Y149441D02*
Y148441D01*
X211974Y148986*
Y148713*
X211849Y148531*
X211724Y148441*
X211349Y148350*
X211099*
X210724Y148441*
X210474Y148622*
X210349Y148895*
Y149168*
X210474Y149441*
X210599Y149531*
X210849Y149622*
X187037Y162215D02*
X186923Y162528D01*
X186923D02*
X186696Y162840D01*
X186468Y162996*
X186014*
X185787Y162840*
X185559Y162528*
X185559D02*
X185446Y162215D01*
X185332Y161746*
Y160965*
X185446Y160496*
X185559Y160184*
X185787Y159871*
X186014Y159715*
X186468*
X186696Y159871*
X186923Y160184*
X187037Y160496*
X188173Y162215D02*
Y162371D01*
X188287Y162684*
X188400Y162840*
X188628Y162996*
X189082*
X189309Y162840*
X189423Y162684*
X189537Y162371*
Y162059*
X189423Y161746*
X189196Y161278*
X189196D02*
X188059Y159715D01*
X189650*
X191355Y162996D02*
X191014Y162840D01*
X190787Y162371*
X190673Y161590*
Y161121*
X190787Y160340*
X191014Y159871*
X191355Y159715*
X191582*
X191923Y159871*
X192150Y160340*
X192264Y161121*
Y161590*
X192150Y162371*
X191923Y162840*
X191582Y162996*
X191355*
X221862Y135355D02*
X219237D01*
Y134264*
X221862Y132537D02*
X220112Y133446D01*
Y132082*
X221862Y132537D02*
X219237D01*
X293333Y165575D02*
Y163700D01*
X293424Y163325*
X293606Y163075*
X293879Y162950*
X294061*
X294333Y163075*
X294515Y163325*
X294606Y163700*
Y165575*
X295515Y164950D02*
Y165075D01*
X295606Y165325*
X295697Y165450*
X295879Y165575*
X296242*
X296424Y165450*
X296515Y165325*
X296606Y165075*
Y164825*
X296515Y164575*
X296333Y164200*
X295424Y162950*
X296697*
X316800Y176505D02*
X317050Y176596D01*
X317300Y176778*
X317425Y176960*
Y177324*
X317300Y177505*
X317050Y177687*
X316800Y177778*
X316425Y177869*
X315800*
X315425Y177778*
X315175Y177687*
X314925Y177505*
X314800Y177324*
Y176960*
X314925Y176778*
X315175Y176596*
X315425Y176505*
X316550Y174505D02*
X316175Y174596D01*
X315925Y174778*
X315800Y175051*
Y175142*
X315925Y175414*
X316175Y175596*
X316550Y175687*
X316675*
X317050Y175596*
X317300Y175414*
X317425Y175142*
Y175051*
X317300Y174778*
X317050Y174596*
X316550Y174505*
X315925*
X315300Y174596*
X314925Y174778*
X314800Y175051*
Y175233*
X314925Y175505*
X315175Y175596*
X311931Y160226D02*
X311840Y160476D01*
X311658Y160726*
X311476Y160851*
X311113*
X310931Y160726*
X310749Y160476*
X310658Y160226*
X310567Y159851*
Y159226*
X310658Y158851*
X310749Y158601*
X310931Y158351*
X311113Y158226*
X311476*
X311658Y158351*
X311840Y158601*
X311931Y158851*
X312749Y160351D02*
X312931Y160476D01*
X313203Y160851*
Y158226*
X314022Y160351D02*
X314203Y160476D01*
X314476Y160851*
Y158226*
X235710Y212558D02*
Y210558D01*
X235619Y210183*
X235528Y210058*
X235346Y209933*
X235164*
X234982Y210058*
X234891Y210183*
X234801Y210558*
Y210808*
X236619Y211933D02*
Y212058D01*
X236710Y212308*
X236801Y212433*
X236982Y212558*
X237346*
X237528Y212433*
X237619Y212308*
X237710Y212058*
Y211808*
X237619Y211558*
X237437Y211183*
X236528Y209933*
X237801*
X348560Y137569D02*
X348810Y137660D01*
X349060Y137842*
X349185Y138024*
Y138388*
X349060Y138569*
X348810Y138751*
X348560Y138842*
X348185Y138933*
X347560*
X347185Y138842*
X346935Y138751*
X346685Y138569*
X346560Y138388*
Y138024*
X346685Y137842*
X346935Y137660*
X347185Y137569*
X349185Y136569D02*
Y135569D01*
X348185Y136115*
Y135842*
X348060Y135660*
X347935Y135569*
X347560Y135479*
X347310*
X346935Y135569*
X346685Y135751*
X346560Y136024*
Y136297*
X346685Y136569*
X346810Y136660*
X347060Y136751*
X159341Y236328D02*
Y234328D01*
X159250Y233953*
X159159Y233828*
X158977Y233703*
X158795*
X158614Y233828*
X158523Y233953*
X158432Y234328*
Y234578*
X160159Y235828D02*
X160341Y235953D01*
X160614Y236328*
Y233703*
X353238Y177685D02*
X351363D01*
X350988Y177594*
X350738Y177412*
X350613Y177140*
Y176958*
X350738Y176685*
X350988Y176503*
X351363Y176412*
X353238*
Y174685D02*
X351488Y175594D01*
Y174230*
X353238Y174685D02*
X350613D01*
X323025Y157580D02*
X320400D01*
X323025D02*
Y156762D01*
X322900Y156489*
X322775Y156398*
X322525Y156307*
X322275*
X322025Y156398*
X321900Y156489*
X321775Y156762*
Y157580*
Y156944D02*
X320400Y156307D01*
X322650Y154398D02*
X322900Y154489D01*
X323025Y154762*
Y154944*
X322900Y155216*
X322525Y155398*
X321900Y155489*
X321275*
X320775Y155398*
X320525Y155216*
X320400Y154944*
Y154853*
X320525Y154580*
X320775Y154398*
X321150Y154307*
X321275*
X321650Y154398*
X321900Y154580*
X322025Y154853*
Y154944*
X321900Y155216*
X321650Y155398*
X321275Y155489*
X341404Y138237D02*
X341654Y138328D01*
X341904Y138510*
X342029Y138692*
Y139056*
X341904Y139237*
X341654Y139419*
X341404Y139510*
X341029Y139601*
X340404*
X340029Y139510*
X339779Y139419*
X339529Y139237*
X339404Y139056*
Y138692*
X339529Y138510*
X339779Y138328*
X340029Y138237*
X342029Y136237D02*
Y137147D01*
X340904Y137237*
X341029Y137147*
X341154Y136874*
Y136601*
X341029Y136328*
X340779Y136147*
X340404Y136056*
X340154Y136147*
X339779Y136237*
X339529Y136419*
X339404Y136692*
Y136965*
X339529Y137237*
X339654Y137328*
X339904Y137419*
X331363Y156928D02*
X328738D01*
X331363D02*
Y156110D01*
X331238Y155837*
X331113Y155746*
X330863Y155655*
X330613*
X330363Y155746*
X330238Y155837*
X330113Y156110*
Y156928*
Y156291D02*
X328738Y155655D01*
X331363Y153564D02*
X328738Y154473D01*
X331363Y154837D02*
Y153564D01*
X356705Y196749D02*
X356614Y196999D01*
X356432Y197249*
X356250Y197374*
X355887*
X355705Y197249*
X355523Y196999*
X355432Y196749*
X355341Y196374*
Y195749*
X355432Y195374*
X355523Y195124*
X355705Y194874*
X355887Y194749*
X356250*
X356432Y194874*
X356614Y195124*
X356705Y195374*
X358432Y197374D02*
X357523Y195624D01*
X358887*
X358432Y197374D02*
Y194749D01*
X317239Y196394D02*
X317148Y196644D01*
X316966Y196894*
X316784Y197019*
X316421*
X316239Y196894*
X316057Y196644*
X315966Y196394*
X315875Y196019*
Y195394*
X315966Y195019*
X316057Y194769*
X316239Y194519*
X316421Y194394*
X316784*
X316966Y194519*
X317148Y194769*
X317239Y195019*
X319148Y196644D02*
X319057Y196894D01*
X318784Y197019*
X318603*
X318330Y196894*
X318148Y196519*
X318057Y195894*
Y195269*
X318148Y194769*
X318330Y194519*
X318603Y194394*
X318694*
X318966Y194519*
X319148Y194769*
X319239Y195144*
Y195269*
X319148Y195644*
X318966Y195894*
X318694Y196019*
X318603*
X318330Y195894*
X318148Y195644*
X318057Y195269*
X358390Y157835D02*
Y155210D01*
Y157835D02*
X359208D01*
X359481Y157710*
X359572Y157585*
X359662Y157335*
Y157085*
X359572Y156835*
X359481Y156710*
X359208Y156585*
X358390*
X359026D02*
X359662Y155210D01*
X360935Y157835D02*
X360662Y157710D01*
X360572Y157460*
Y157210*
X360662Y156960*
X360844Y156835*
X361208Y156710*
X361481Y156585*
X361662Y156335*
X361753Y156085*
Y155710*
X361662Y155460*
X361572Y155335*
X361299Y155210*
X360935*
X360662Y155335*
X360572Y155460*
X360481Y155710*
Y156085*
X360572Y156335*
X360753Y156585*
X361026Y156710*
X361390Y156835*
X361572Y156960*
X361662Y157210*
Y157460*
X361572Y157710*
X361299Y157835*
X360935*
X126817Y230856D02*
Y228856D01*
X126726Y228481*
X126635Y228356*
X126453Y228231*
X126271*
X126090Y228356*
X125999Y228481*
X125908Y228856*
Y229106*
X127817Y230856D02*
X128817D01*
X128271Y229856*
X128544*
X128726Y229731*
X128817Y229606*
X128908Y229231*
Y228981*
X128817Y228606*
X128635Y228356*
X128362Y228231*
X128090*
X127817Y228356*
X127726Y228481*
X127635Y228731*
X262445Y139108D02*
Y136483D01*
Y139108D02*
X263264D01*
X263536Y138983*
X263627Y138858*
X263718Y138608*
Y138358*
X263627Y138108*
X263536Y137983*
X263264Y137858*
X262445*
X263082D02*
X263718Y136483D01*
X264718Y139108D02*
X265718D01*
X265173Y138108*
X265445*
X265627Y137983*
X265718Y137858*
X265809Y137483*
Y137233*
X265718Y136858*
X265536Y136608*
X265264Y136483*
X264991*
X264718Y136608*
X264627Y136733*
X264536Y136983*
X266718Y138483D02*
Y138608D01*
X266809Y138858*
X266900Y138983*
X267082Y139108*
X267445*
X267627Y138983*
X267718Y138858*
X267809Y138608*
Y138358*
X267718Y138108*
X267536Y137733*
X266627Y136483*
X267900*
X209990Y203193D02*
Y201193D01*
X209899Y200818*
X209808Y200693*
X209626Y200568*
X209444*
X209262Y200693*
X209172Y200818*
X209081Y201193*
Y201443*
X211990Y203193D02*
X211081D01*
X210990Y202068*
X211081Y202193*
X211353Y202318*
X211626*
X211899Y202193*
X212081Y201943*
X212172Y201568*
X212081Y201318*
X211990Y200943*
X211808Y200693*
X211535Y200568*
X211262*
X210990Y200693*
X210899Y200818*
X210808Y201068*
X280133Y208163D02*
Y205538D01*
Y208163D02*
X280769D01*
X281042Y208038*
X281223Y207788*
X281314Y207538*
X281405Y207163*
Y206538*
X281314Y206163*
X281223Y205913*
X281042Y205663*
X280769Y205538*
X280133*
X283133Y208163D02*
X282223Y206413D01*
X283587*
X283133Y208163D02*
Y205538D01*
X320024Y134301D02*
X319843Y134176D01*
X319661Y133926*
X319570Y133676*
X319479Y133301*
Y132676*
X319570Y132301*
X319661Y132051*
X319843Y131801*
X320024Y131676*
X320388*
X320570Y131801*
X320752Y132051*
X320843Y132301*
X320934Y132676*
Y133301*
X320843Y133676*
X320752Y133926*
X320570Y134176*
X320388Y134301*
X320024*
X320297Y132176D02*
X320843Y131426D01*
X322661Y134301D02*
X321752Y132551D01*
X323115*
X322661Y134301D02*
Y131676D01*
X345170Y134393D02*
X344988Y134268D01*
X344806Y134018*
X344716Y133768*
X344625Y133393*
Y132768*
X344716Y132393*
X344806Y132143*
X344988Y131893*
X345170Y131768*
X345534*
X345716Y131893*
X345897Y132143*
X345988Y132393*
X346079Y132768*
Y133393*
X345988Y133768*
X345897Y134018*
X345716Y134268*
X345534Y134393*
X345170*
X345443Y132268D02*
X345988Y131518D01*
X348079Y134393D02*
X347170D01*
X347079Y133268*
X347170Y133393*
X347443Y133518*
X347716*
X347988Y133393*
X348170Y133143*
X348261Y132768*
X348170Y132518*
X348079Y132143*
X347897Y131893*
X347625Y131768*
X347352*
X347079Y131893*
X346988Y132018*
X346897Y132268*
X248670Y138840D02*
Y136215D01*
Y138840D02*
X249488D01*
X249761Y138715*
X249852Y138590*
X249943Y138340*
Y138090*
X249852Y137840*
X249761Y137715*
X249488Y137590*
X248670*
X249306D02*
X249943Y136215D01*
X250761Y138340D02*
X250943Y138465D01*
X251216Y138840*
Y136215*
X252943Y138840D02*
X252034Y137090D01*
X253397*
X252943Y138840D02*
Y136215D01*
X262576Y130413D02*
Y127788D01*
Y130413D02*
X263395D01*
X263667Y130288*
X263758Y130163*
X263849Y129913*
Y129663*
X263758Y129413*
X263667Y129288*
X263395Y129163*
X262576*
X263213D02*
X263849Y127788D01*
X264849Y130413D02*
X265849D01*
X265304Y129413*
X265576*
X265758Y129288*
X265849Y129163*
X265940Y128788*
Y128538*
X265849Y128163*
X265667Y127913*
X265395Y127788*
X265122*
X264849Y127913*
X264758Y128038*
X264667Y128288*
X266940Y130413D02*
X267940D01*
X267395Y129413*
X267667*
X267849Y129288*
X267940Y129163*
X268031Y128788*
Y128538*
X267940Y128163*
X267758Y127913*
X267485Y127788*
X267213*
X266940Y127913*
X266849Y128038*
X266758Y128288*
X313479Y150986D02*
X313388Y151236D01*
X313206Y151486*
X313024Y151611*
X312661*
X312479Y151486*
X312297Y151236*
X312206Y150986*
X312115Y150611*
Y149986*
X312206Y149611*
X312297Y149361*
X312479Y149111*
X312661Y148986*
X313024*
X313206Y149111*
X313388Y149361*
X313479Y149611*
X314297Y151111D02*
X314479Y151236D01*
X314751Y151611*
Y148986*
X316115Y151611D02*
X315842Y151486D01*
X315661Y151111*
X315570Y150486*
Y150111*
X315661Y149486*
X315842Y149111*
X316115Y148986*
X316297*
X316570Y149111*
X316751Y149486*
X316842Y150111*
Y150486*
X316751Y151111*
X316570Y151486*
X316297Y151611*
X316115*
X193456Y145602D02*
X194183Y144352D01*
Y142977*
X194911Y145602D02*
X194183Y144352D01*
X195820Y144977D02*
Y145102D01*
X195911Y145352*
X196002Y145477*
X196183Y145602*
X196547*
X196729Y145477*
X196820Y145352*
X196911Y145102*
Y144852*
X196820Y144602*
X196638Y144227*
X195729Y142977*
X197002*
X250634Y134679D02*
X250520Y134991D01*
X250293Y135304*
X250065Y135460*
X249611*
X249384Y135304*
X249156Y134991*
X249043Y134679*
X248929Y134210*
Y133429*
X249043Y132960*
X249156Y132647*
X249156D02*
X249384Y132335D01*
X249611Y132179*
X250065*
X250293Y132335*
X250520Y132647*
X250520D02*
X250634Y132960D01*
X251770Y134679D02*
Y134835D01*
X251884Y135147*
X251884D02*
X251997Y135304D01*
X252224Y135460*
X252679*
X252906Y135304*
X253020Y135147*
X253020D02*
X253134Y134835D01*
Y134522*
X253134D02*
X253020Y134210D01*
X252793Y133741*
X251656Y132179*
X253247*
X213239Y139250D02*
X213125Y139563D01*
X212898Y139875*
X212670Y140032*
X212216*
X211989Y139875*
X211761Y139563*
X211648Y139250*
X211534Y138782*
Y138000*
X211648Y137532*
X211761Y137219*
X211989Y136907*
X212216Y136750*
X212670*
X212898Y136907*
X213125Y137219*
X213239Y137532*
X214375Y139250D02*
Y139407D01*
X214489Y139719*
X214602Y139875*
X214830Y140032*
X215284*
X215511Y139875*
X215625Y139719*
X215739Y139407*
Y139094*
X215625Y138782*
X215398Y138313*
X214261Y136750*
X215852*
X218011Y140032D02*
X216875Y137844D01*
X218580*
X218011Y140032D02*
Y136750D01*
X228284Y129485D02*
X228170Y129798D01*
X227943Y130110*
X227716Y130266*
X227261*
X227034Y130110*
X226806Y129798*
X226693Y129485*
X226579Y129016*
Y128235*
X226693Y127766*
X226806Y127454*
X227034Y127141*
X227261Y126985*
X227716*
X227943Y127141*
X228170Y127454*
X228284Y127766*
X229420Y129485D02*
Y129641D01*
X229534Y129954*
X229647Y130110*
X229875Y130266*
X230329*
X230556Y130110*
X230670Y129954*
X230784Y129641*
Y129329*
X230670Y129016*
X230443Y128548*
X229306Y126985*
X230897*
X233397Y130266D02*
X232261D01*
X232147Y128860*
X232261Y129016*
X232602Y129173*
X232943*
X233284Y129016*
X233511Y128704*
X233625Y128235*
X233511Y127923*
X233397Y127454*
X233170Y127141*
X232829Y126985*
X232488*
X232147Y127141*
X232034Y127298*
X231920Y127610*
X236026Y128378D02*
X235935Y128628D01*
X235753Y128878*
X235571Y129003*
X235208*
X235026Y128878*
X234844Y128628*
X234753Y128378*
X234662Y128003*
Y127378*
X234753Y127003*
X234844Y126753*
X235026Y126503*
X235208Y126378*
X235571*
X235753Y126503*
X235935Y126753*
X236026Y127003*
X236935Y128378D02*
Y128503D01*
X237026Y128753*
X237117Y128878*
X237299Y129003*
X237662*
X237844Y128878*
X237935Y128753*
X238026Y128503*
Y128253*
X237935Y128003*
X237753Y127628*
X236844Y126378*
X238117*
X239026Y128378D02*
Y128503D01*
X239117Y128753*
X239208Y128878*
X239390Y129003*
X239753*
X239935Y128878*
X240026Y128753*
X240117Y128503*
Y128253*
X240026Y128003*
X239844Y127628*
X238935Y126378*
X240208*
X199083Y136898D02*
X196458D01*
X199083D02*
Y136080D01*
X198958Y135807*
X198833Y135716*
X198583Y135625*
X198333*
X198083Y135716*
X197958Y135807*
X197833Y136080*
Y136898*
Y136261D02*
X196458Y135625D01*
X199083Y133898D02*
X197333Y134807D01*
Y133443*
X199083Y133898D02*
X196458D01*
X227588Y137887D02*
Y135262D01*
X228679*
X229679Y137887D02*
X230679D01*
X230133Y136887*
X230406*
X230588Y136762*
X230679Y136637*
X230770Y136262*
Y136012*
X230679Y135637*
X230497Y135387*
X230224Y135262*
X229952*
X229679Y135387*
X229588Y135512*
X229497Y135762*
G54D37*
X167119Y139079D02*
X173119D01*
Y151079*
X167119*
Y139079*
X118153Y191142D02*
X124153D01*
Y203142*
X118153*
Y191142*
X167454Y179632D02*
Y185632D01*
X155454*
Y179632*
X167454*
X147543Y180907D02*
X153543D01*
Y192907*
X147543*
Y180907*
X319563Y139508D02*
X325563D01*
Y151508*
X319563*
Y139508*
X328381Y139801D02*
X334381D01*
Y151801*
X328381*
Y139801*
X281315Y134996D02*
Y140996D01*
X269315*
Y134996*
X281315*
X269399Y132108D02*
Y126108D01*
X281399*
Y132108*
X269399*
G54D101*
X141852Y177977D02*
Y172982D01*
X139723*
Y171555*
X141852*
Y166560*
X107797*
Y177977*
X141852*
G54D102*
X365307Y108984D02*
Y108000D01*
Y108984D02*
X365580Y108000D01*
X365853Y108984D02*
X365580Y108000D01*
X365853Y108984D02*
Y108000D01*
X366159Y108797D02*
X366228Y108844D01*
X366330Y108984*
Y108000*
X365307Y246984D02*
Y246000D01*
Y246984D02*
X365580Y246000D01*
X365853Y246984D02*
X365580Y246000D01*
X365853Y246984D02*
Y246000D01*
X366193Y246750D02*
Y246797D01*
X366228Y246891*
X366262Y246938*
X366262D02*
X366330Y246984D01*
X366466*
X366534Y246938*
X366534D02*
X366568Y246891D01*
X366603Y246797*
Y246703*
X366568Y246609*
X366500Y246469*
X366159Y246000*
X366637*
X110000Y248984D02*
Y248000D01*
Y248984D02*
X110273Y248000D01*
X110545Y248984D02*
X110273Y248000D01*
X110545Y248984D02*
Y248000D01*
X110920Y248984D02*
X111295D01*
X111091Y248609*
X111193*
X111261Y248563*
X111261D02*
X111295Y248516D01*
X111330Y248375*
Y248281*
X111295Y248141*
X111227Y248047*
X111125Y248000*
X111023*
X110920Y248047*
X110886Y248094*
X110852Y248188*
X110000Y110984D02*
Y110000D01*
Y110984D02*
X110273Y110000D01*
X110545Y110984D02*
X110273Y110000D01*
X110545Y110984D02*
Y110000D01*
X111193Y110984D02*
X110852Y110328D01*
X111364*
X111193Y110984D02*
Y110000D01*
G74*
X0Y0D02*
M02*
