*
*
G04 PADS VX.1.2 Build Number: 698008 generated Gerber (RS-274-X) file*
G04 PC Version=2.1*
*
%IN "GETWAY_LTE_ZM_V1.0_2018"*%
*
%MOIN*%
*
%FSLAX35Y35*%
*
*
*
*
G04 PC Standard Apertures*
*
*
G04 Thermal Relief Aperture macro.*
%AMTER*
1,1,$1,0,0*
1,0,$1-$2,0,0*
21,0,$3,$4,0,0,45*
21,0,$3,$4,0,0,135*
%
*
*
G04 Annular Aperture macro.*
%AMANN*
1,1,$1,0,0*
1,0,$2,0,0*
%
*
*
G04 Odd Aperture macro.*
%AMODD*
1,1,$1,0,0*
1,0,$1-0.005,0,0*
%
*
*
G04 PC Custom Aperture Macros*
*
*
*
*
*
*
G04 PC Aperture Table*
*
%ADD010C,0.001*%
%ADD011R,0.02362X0.09055*%
%ADD012C,0.15748*%
%ADD013R,0.02559X0.09055*%
%ADD014C,0.00709*%
%ADD015R,0.02362X0.07087*%
%ADD016R,0.07087X0.02362*%
%ADD017O,0.0315X0.05906*%
%ADD018R,0.03937X0.07087*%
%ADD019C,0.02*%
%ADD020C,0.01*%
%ADD021C,0.012*%
%ADD022C,0.015*%
%ADD023C,0.03*%
%ADD024C,0.04*%
%ADD025C,0.005*%
*
*
*
*
G04 PC Circuitry*
G04 Layer Name GETWAY_LTE_ZM_V1.0_2018 - circuitry*
%LPD*%
*
*
G04 PC Custom Flashes*
G04 Layer Name GETWAY_LTE_ZM_V1.0_2018 - flashes*
%LPD*%
*
*
G04 PC Circuitry*
G04 Layer Name GETWAY_LTE_ZM_V1.0_2018 - circuitry*
%LPD*%
*
G54D10*
G54D11*
G01X210827Y295276D03*
X207677D03*
G54D12*
X212795Y111811D03*
X117520D03*
G54D13*
X204528Y295276D03*
X201378D03*
X198228D03*
X195079D03*
X191929D03*
X188780D03*
X173031D03*
X169882D03*
X166732D03*
X163583D03*
X160433D03*
X157283D03*
X154134D03*
X150984D03*
X147835D03*
X144685D03*
X141535D03*
X138386D03*
X135236D03*
X132087D03*
X128937D03*
X125787D03*
X122638D03*
X119488D03*
G54D14*
X201323Y260810D02*
X202977D01*
Y254432*
X201323*
Y260810*
Y254488D02*
X202977D01*
X201323Y255197D02*
X202977D01*
X201323Y255906D02*
X202977D01*
X201323Y256614D02*
X202977D01*
X201323Y257323D02*
X202977D01*
X201323Y258031D02*
X202977D01*
X201323Y258740D02*
X202977D01*
X201323Y259449D02*
X202977D01*
X201323Y260157D02*
X202977D01*
X201339Y254432D02*
Y260810D01*
X202047Y254432D02*
Y260810D01*
X202756Y254432D02*
Y260810D01*
G54D15*
X198213Y257621D03*
X194276D03*
X190339D03*
X186402D03*
X182465D03*
X178528D03*
X174591D03*
X170654D03*
X166717D03*
X162780D03*
X158843D03*
X154906D03*
X150969D03*
X147031D03*
X143094D03*
X139157D03*
X135220D03*
X131283D03*
X127346D03*
Y138724D03*
X131283D03*
X135220D03*
X139157D03*
X143094D03*
X147031D03*
X150969D03*
X154906D03*
X158843D03*
X162780D03*
X166717D03*
X170654D03*
X174591D03*
X178528D03*
X182465D03*
X186402D03*
X190339D03*
X194276D03*
X198213D03*
X202150D03*
X123409Y257621D03*
Y138724D03*
X206087D03*
G54D16*
X105299Y235574D03*
Y231637D03*
Y227700D03*
Y223763D03*
Y219826D03*
Y215889D03*
Y211952D03*
Y208015D03*
Y204078D03*
Y200141D03*
Y196204D03*
Y192267D03*
Y188330D03*
Y184393D03*
Y180456D03*
Y176519D03*
Y172582D03*
Y168645D03*
Y164708D03*
Y160771D03*
X224197D03*
Y164708D03*
Y168645D03*
Y172582D03*
Y176519D03*
Y180456D03*
Y184393D03*
Y188330D03*
Y192267D03*
Y196204D03*
Y200141D03*
Y204078D03*
Y208015D03*
Y211952D03*
Y215889D03*
Y219826D03*
Y223763D03*
Y227700D03*
Y231637D03*
Y235574D03*
X105299Y156834D03*
Y239511D03*
X224197D03*
Y156834D03*
G54D17*
X138643Y120681D03*
G54D18*
X143761Y113594D03*
X133525D03*
G54D19*
X138643Y120681D02*
Y122059D01*
X138673Y125873*
X123619Y132719D02*
G75*
G03X125942Y130396I2323J-0D01*
G01X136796*
X138673Y128518D02*
Y125873D01*
Y128518D02*
G03X136796Y130396I-1877J0D01*
G01X123409Y138724D02*
X123619Y132719D01*
X224197Y164708D02*
Y168645D01*
X123070Y199348D02*
X136370D01*
X139570Y202548*
Y208848*
X139470Y208948*
X127346Y257621D02*
X127556Y266348D01*
X127600Y266300*
X131283Y257621D02*
X131493Y263848D01*
X131500Y263900*
X135220Y257621D02*
X135430Y266300D01*
X139157Y257621D02*
X139367Y264348D01*
X139400Y264400*
X147031Y257621D02*
X147241Y264600D01*
X147300*
X190339Y257621D02*
X190548Y263500D01*
X190600*
X135400Y266400D02*
Y266300D01*
X135430*
X135884Y284900D02*
X136700D01*
Y279400*
Y284900D02*
Y287462D01*
X162700Y280100D02*
X166732Y284132D01*
Y295276*
X138262Y289024D02*
Y295152D01*
X138386Y295276*
X135236D02*
Y289148D01*
X136700Y287684*
Y287462*
X198228Y295276D02*
X198200Y289400D01*
X199533Y286248*
X200133Y286848*
X204870*
X123070Y199348D03*
X150270Y203748D03*
X139470Y208948D03*
X128470Y229748D03*
Y242948D03*
X131500Y263900D03*
X127600Y266300D03*
X135400Y266400D03*
X139400Y264400D03*
X147300Y264600D03*
X163000Y263600D03*
X190600Y263500D03*
X191900Y270600D03*
X195100Y272800D03*
X198200Y268800D03*
X201400Y275800D03*
X119500Y287300D03*
X122700Y287800D03*
X125800Y280700D03*
X127800Y284300D03*
X142900Y281600D03*
X150900Y286500D03*
X149170Y283548D03*
X146970Y281148D03*
X163600Y286300D03*
X162700Y280100D03*
X169070Y280048D03*
X172170Y284548D03*
X174300Y287600D03*
X209770Y278948D03*
X206870Y281248D03*
X204870Y286848D03*
G54D20*
X166717Y138724D02*
X166926Y164451D01*
X117100Y196423D02*
X127823Y185700D01*
X145677*
X166926Y164451*
X117100Y196423D02*
Y274970D01*
X124938Y282808*
X126308*
X127800Y284300*
X206855Y191763D02*
X210270Y188348D01*
X218864*
X218876Y188337*
X224197Y188330*
X206855Y191763D02*
Y281363D01*
X206870Y281248*
X209670Y205448D02*
X214970Y200148D01*
X224197Y200141*
X209670Y205448D02*
Y278948D01*
X209770*
X128470Y229748D02*
Y242948D01*
X154906Y257621D02*
X155115Y273103D01*
X158843Y257621D02*
X159052Y273666D01*
X149170Y283548*
X146970Y281148D02*
X147020Y281198D01*
X155115Y273103*
X169000Y283300D02*
Y280118D01*
X169070Y280048*
X169000Y283300D02*
X169882Y284182D01*
Y295276*
X172170Y284548D02*
Y289539D01*
X173031Y290400*
Y295276*
X166732Y288948D02*
Y290748D01*
X185700Y295276D02*
X187500D01*
X188780Y288948D02*
Y290748D01*
X129756Y113594D02*
X131556D01*
X133525Y108251D02*
Y110051D01*
X137294Y113594D02*
X135494D01*
X133525Y118938D02*
Y117138D01*
X139992Y113594D02*
X141792D01*
X143761Y108251D02*
Y110051D01*
X147529Y113594D02*
X145729D01*
X143761Y118938D02*
Y117138D01*
X123409Y252278D02*
Y254078D01*
Y262965D02*
Y261165D01*
X218854Y235574D02*
X220654D01*
X218854Y227700D02*
X220654D01*
X218854Y223763D02*
X220654D01*
X218854Y176519D02*
X220654D01*
X218854Y172582D02*
X220654D01*
X218854Y160771D02*
X220654D01*
X202150Y133380D02*
Y135180D01*
Y144067D02*
Y142267D01*
X194276Y133380D02*
Y135180D01*
Y144067D02*
Y142267D01*
X190339Y133380D02*
Y135180D01*
Y144067D02*
Y142267D01*
X135220Y144067D02*
Y142267D01*
X127346Y144067D02*
Y142267D01*
X110643Y160771D02*
X108843D01*
X110643Y172582D02*
X108843D01*
X150969Y252278D02*
Y254078D01*
Y262965D02*
Y261165D01*
X166717Y252278D02*
Y254078D01*
Y262965D02*
Y261165D01*
X186402Y252278D02*
Y254078D01*
Y262965D02*
Y261165D01*
X194276Y252278D02*
Y254078D01*
Y262965D02*
Y261165D01*
X198213Y252278D02*
Y254078D01*
Y262965D02*
Y261165D01*
X202150Y252278D02*
Y254078D01*
Y262964D02*
Y261164D01*
X132087Y288948D02*
Y290748D01*
X141535Y288948D02*
Y290748D01*
X144685Y288948D02*
Y290748D01*
X154134Y288948D02*
Y290748D01*
X157283Y288948D02*
Y290748D01*
X198228Y288948D02*
Y290748D01*
X215581Y288162D02*
G03X218731Y285013I3150J0D01*
G01X215581Y288162D02*
Y300761D01*
X182313*
Y284225*
X176408D02*
G03X182313I2953J0D01*
G01X176408D02*
X176408D01*
Y300761*
X114400*
Y288162*
X111250Y285013D02*
G03X114400Y288162I0J3149D01*
G01X111250Y285013D02*
X100030D01*
Y99973*
X229951*
Y285013*
X218731*
G54D21*
X162780Y257621D02*
X162989Y263500D01*
X163000*
Y263600*
X104070Y169548D02*
X125870D01*
Y164148*
X104070*
Y169548*
X220270Y169048D02*
X225370D01*
Y164048*
X205722*
X201472Y159798*
X198670*
Y173548*
X201922*
X206522Y168948*
X220270*
Y169048*
X104070Y169547D02*
X125870D01*
X104070Y168467D02*
X125870D01*
X104070Y167387D02*
X125870D01*
X104070Y166307D02*
X125870D01*
X104070Y165227D02*
X125870D01*
X198670Y168437D02*
X225370D01*
X198670Y167357D02*
X225370D01*
X198670Y166277D02*
X225370D01*
X198670Y165197D02*
X225370D01*
X198670Y164117D02*
X225370D01*
X198670Y169517D02*
X205953D01*
X198670Y170597D02*
X204873D01*
X198670Y163037D02*
X204710D01*
X198670Y171677D02*
X203793D01*
X198670Y161957D02*
X203630D01*
X198670Y172757D02*
X202713D01*
X198670Y160877D02*
X202550D01*
X173470Y196048D02*
G03X173470I-3800J0D01*
G01X172858Y206337D02*
G03X172858I-3800J0D01*
G01X173170Y216748D02*
G03X173170I-3800J0D01*
G01X228151Y243092D02*
Y282613D01*
G03X227551Y283213I-600J-0*
G01X218731*
X214411Y285746D02*
G03X218731Y283213I4320J2416D01*
G01X214411Y285746D02*
G03X213397Y285798I-524J-293D01*
G01X207446Y288248D02*
G03X213397Y285798I3254J-548D01*
G01X207446Y288248D02*
G03X206854Y288948I-592J100D01*
G01X206496*
X206238Y288967D02*
G03X206496Y288948I258J1781D01*
G01X206238Y288967D02*
G03X206065I-86J-594D01*
G01X205807Y288948D02*
G03X206065Y288967I0J1800D01*
G01X205807Y288948D02*
X203248D01*
X203027Y288962D02*
G03X203248Y288948I221J1786D01*
G01X203027Y288962D02*
G03X202879I-74J-596D01*
G01X202657Y288948D02*
G03X202879Y288962I0J1800D01*
G01X202657Y288948D02*
X200098D01*
X199877Y288962D02*
G03X200098Y288948I221J1786D01*
G01X199877Y288962D02*
G03X199729I-74J-596D01*
G01X199508Y288948D02*
G03X199729Y288962I-0J1800D01*
G01X199508Y288948D02*
X196949D01*
X196727Y288962D02*
G03X196949Y288948I222J1786D01*
G01X196727Y288962D02*
G03X196580I-73J-596D01*
G01X196358Y288948D02*
G03X196580Y288962I0J1800D01*
G01X196358Y288948D02*
X193799D01*
X193578Y288962D02*
G03X193799Y288948I221J1786D01*
G01X193578Y288962D02*
G03X193430I-74J-596D01*
G01X193209Y288948D02*
G03X193430Y288962I-0J1800D01*
G01X193209Y288948D02*
X190650D01*
X190428Y288962D02*
G03X190650Y288948I222J1786D01*
G01X190428Y288962D02*
G03X190281I-74J-596D01*
G01X190059Y288948D02*
G03X190281Y288962I0J1800D01*
G01X190059Y288948D02*
X187500D01*
X185700Y290748D02*
G03X187500Y288948I1800J0D01*
G01X185700Y290748D02*
Y298361D01*
G03X185100Y298961I-600J-0*
G01X184713*
G03X184113Y298361I0J-600*
G01Y284225*
X175020Y282290D02*
G03X184113Y284225I4341J1935D01*
G01X175020Y282290D02*
G03X174066Y282487I-548J-244D01*
G01X172266Y281750D02*
G03X174066Y282487I-96J2798D01*
G01X172266Y281750D02*
G03X171719Y280956I21J-600D01*
G01X166624Y281411D02*
G03X171719Y280956I2446J-1363D01*
G01X166624Y281411D02*
G03X166700Y281703I-524J292D01*
G01Y283300*
X166798Y283964D02*
G03X166700Y283300I2202J-664D01*
G01X166798Y283964D02*
G03X165761Y284519I-575J173D01*
G01X161365Y287987D02*
G03X165760Y284519I2235J-1687D01*
G01X161365Y287987D02*
G03X160886Y288948I-479J361D01*
G01X159154*
X158932Y288962D02*
G03X159154Y288948I222J1786D01*
G01X158932Y288962D02*
G03X158784I-74J-596D01*
G01X158563Y288948D02*
G03X158784Y288962I-0J1800D01*
G01X158563Y288948D02*
X156004D01*
X155782Y288962D02*
G03X156004Y288948I222J1786D01*
G01X155782Y288962D02*
G03X155635I-73J-596D01*
G01X155413Y288948D02*
G03X155635Y288962I0J1800D01*
G01X155413Y288948D02*
X152854D01*
X152633Y288962D02*
G03X152854Y288948I221J1786D01*
G01X152633Y288962D02*
G03X152485I-74J-596D01*
G01X152264Y288948D02*
G03X152485Y288962I-0J1800D01*
G01X152264Y288948D02*
X149705D01*
X149483Y288962D02*
G03X149705Y288948I222J1786D01*
G01X149483Y288962D02*
G03X149336I-74J-596D01*
G01X149114Y288948D02*
G03X149336Y288962I0J1800D01*
G01X149114Y288948D02*
X146555D01*
X146334Y288962D02*
G03X146555Y288948I221J1786D01*
G01X146334Y288962D02*
G03X146186I-74J-596D01*
G01X145965Y288948D02*
G03X146186Y288962I-0J1800D01*
G01X145965Y288948D02*
X143406D01*
X143184Y288962D02*
G03X143406Y288948I222J1786D01*
G01X143184Y288962D02*
G03X143036I-74J-596D01*
G01X142815Y288948D02*
G03X143036Y288962I-0J1800D01*
G01X142815Y288948D02*
X141594D01*
G03X141006Y288467I-0J-600*
G01X140290Y287093D02*
G03X141006Y288467I-2028J1931D01*
G01X140290Y287093D02*
G03X140175Y286437I434J-414D01*
G01X139666Y282525D02*
G03X140175Y286437I-2966J2375D01*
G01X139666Y282525D02*
G03Y281775I469J-375D01*
G01X133734D02*
G03X139666I2966J-2375D01*
G01X133734D02*
G03Y282525I-469J375D01*
G01X133286Y286569D02*
G03X133734Y282525I3414J-1669D01*
G01X133286Y286569D02*
G03X133186Y287241I-539J263D01*
G01X132515Y288489D02*
G03X133186Y287241I2721J659D01*
G01X132515Y288489D02*
G03X131932Y288948I-583J-141D01*
G01X130807*
X130586Y288962D02*
G03X130807Y288948I221J1786D01*
G01X130586Y288962D02*
G03X130438I-74J-596D01*
G01X130217Y288948D02*
G03X130438Y288962I-0J1800D01*
G01X130217Y288948D02*
X127657D01*
X127436Y288962D02*
G03X127657Y288948I221J1786D01*
G01X127436Y288962D02*
G03X127288I-74J-596D01*
G01X127067Y288948D02*
G03X127288Y288962I-0J1800D01*
G01X127067Y288948D02*
X124508D01*
X124286Y288962D02*
G03X124508Y288948I222J1786D01*
G01X124286Y288962D02*
G03X124139I-73J-596D01*
G01X123917Y288948D02*
G03X124139Y288962I0J1800D01*
G01X123917Y288948D02*
X122734D01*
G03X122164Y288163I0J-600*
G01X116914Y286226D02*
G03X122164Y288163I2586J1074D01*
G01X116914Y286226D02*
G03X115807Y286230I-554J-230D01*
G01X111250Y283213D02*
G03X115807Y286230I0J4949D01*
G01X111250Y283213D02*
X102430D01*
G03X101830Y282613I-0J-600*
G01Y243092*
G03X102430Y242492I600J0*
G01X108843*
X110643Y240692D02*
G03X108843Y242492I-1800J0D01*
G01X110643Y240692D02*
Y238330D01*
X110543Y237739D02*
G03X110643Y238330I-1700J591D01*
G01X110543Y237739D02*
G03Y237346I567J-196D01*
G01X110643Y236755D02*
G03X110543Y237346I-1800J0D01*
G01X110643Y236755D02*
Y234393D01*
X110543Y233802D02*
G03X110643Y234393I-1700J591D01*
G01X110543Y233802D02*
G03Y233409I567J-196D01*
G01X110643Y232818D02*
G03X110543Y233409I-1800J0D01*
G01X110643Y232818D02*
Y230456D01*
X110543Y229865D02*
G03X110643Y230456I-1700J591D01*
G01X110543Y229865D02*
G03Y229472I567J-196D01*
G01X110643Y228881D02*
G03X110543Y229472I-1800J0D01*
G01X110643Y228881D02*
Y226519D01*
X110543Y225928D02*
G03X110643Y226519I-1700J591D01*
G01X110543Y225928D02*
G03Y225535I567J-197D01*
G01X110643Y224944D02*
G03X110543Y225535I-1800J0D01*
G01X110643Y224944D02*
Y222582D01*
X110543Y221991D02*
G03X110643Y222582I-1700J591D01*
G01X110543Y221991D02*
G03Y221598I567J-197D01*
G01X110643Y221007D02*
G03X110543Y221598I-1800J0D01*
G01X110643Y221007D02*
Y218645D01*
X110543Y218054D02*
G03X110643Y218645I-1700J591D01*
G01X110543Y218054D02*
G03Y217661I567J-197D01*
G01X110643Y217070D02*
G03X110543Y217661I-1800J0D01*
G01X110643Y217070D02*
Y214708D01*
X110543Y214117D02*
G03X110643Y214708I-1700J591D01*
G01X110543Y214117D02*
G03Y213724I567J-197D01*
G01X110643Y213133D02*
G03X110543Y213724I-1800J0D01*
G01X110643Y213133D02*
Y210771D01*
X110543Y210180D02*
G03X110643Y210771I-1700J591D01*
G01X110543Y210180D02*
G03Y209787I567J-197D01*
G01X110643Y209196D02*
G03X110543Y209787I-1800J0D01*
G01X110643Y209196D02*
Y206834D01*
X110543Y206243D02*
G03X110643Y206834I-1700J591D01*
G01X110543Y206243D02*
G03Y205850I567J-197D01*
G01X110643Y205259D02*
G03X110543Y205850I-1800J0D01*
G01X110643Y205259D02*
Y202897D01*
X110543Y202306D02*
G03X110643Y202897I-1700J591D01*
G01X110543Y202306D02*
G03Y201913I567J-197D01*
G01X110643Y201322D02*
G03X110543Y201913I-1800J0D01*
G01X110643Y201322D02*
Y198960D01*
X110543Y198369D02*
G03X110643Y198960I-1700J591D01*
G01X110543Y198369D02*
G03Y197976I567J-197D01*
G01X110643Y197385D02*
G03X110543Y197976I-1800J0D01*
G01X110643Y197385D02*
Y195023D01*
X110543Y194432D02*
G03X110643Y195023I-1700J591D01*
G01X110543Y194432D02*
G03Y194039I567J-197D01*
G01X110643Y193448D02*
G03X110543Y194039I-1800J0D01*
G01X110643Y193448D02*
Y191086D01*
X110543Y190495D02*
G03X110643Y191086I-1700J591D01*
G01X110543Y190495D02*
G03Y190102I567J-197D01*
G01X110643Y189511D02*
G03X110543Y190102I-1800J0D01*
G01X110643Y189511D02*
Y187149D01*
X110543Y186558D02*
G03X110643Y187149I-1700J591D01*
G01X110543Y186558D02*
G03Y186165I567J-197D01*
G01X110643Y185574D02*
G03X110543Y186165I-1800J0D01*
G01X110643Y185574D02*
Y183212D01*
X110543Y182621D02*
G03X110643Y183212I-1700J591D01*
G01X110543Y182621D02*
G03Y182228I567J-197D01*
G01X110643Y181637D02*
G03X110543Y182228I-1800J0D01*
G01X110643Y181637D02*
Y179275D01*
X110543Y178684D02*
G03X110643Y179275I-1700J591D01*
G01X110543Y178684D02*
G03Y178291I567J-197D01*
G01X110643Y177700D02*
G03X110543Y178291I-1800J0D01*
G01X110643Y177700D02*
Y175338D01*
X110543Y174747D02*
G03X110643Y175338I-1700J591D01*
G01X110543Y174747D02*
G03Y174354I567J-197D01*
G01X110643Y173763D02*
G03X110543Y174354I-1800J-0D01*
G01X110643Y173763D02*
Y172548D01*
G03X111243Y171948I600J0*
G01X125870*
X128270Y169548D02*
G03X125870Y171948I-2400J0D01*
G01X128270Y169548D02*
Y164148D01*
X125870Y161748D02*
G03X128270Y164148I0J2400D01*
G01X125870Y161748D02*
X111243D01*
G03X110643Y161148I-0J-600*
G01Y159590*
X110543Y158999D02*
G03X110643Y159590I-1700J591D01*
G01X110543Y158999D02*
G03Y158606I567J-197D01*
G01X110643Y158015D02*
G03X110543Y158606I-1800J-0D01*
G01X110643Y158015D02*
Y155653D01*
X108843Y153853D02*
G03X110643Y155653I-0J1800D01*
G01X108843Y153853D02*
X102430D01*
G03X101830Y153253I-0J-600*
G01Y102373*
G03X102430Y101773I600J0*
G01X113460*
G03X113697Y102924I-0J600*
G01X121343D02*
G03X113697I-3823J8887D01*
G01X121343D02*
G03X121580Y101773I237J-551D01*
G01X208735*
G03X208972Y102924I0J600*
G01X216618D02*
G03X208972I-3823J8887D01*
G01X216618D02*
G03X216855Y101773I237J-551D01*
G01X227551*
G03X228151Y102373I0J600*
G01Y153253*
G03X227551Y153853I-600J-0*
G01X220654*
X218854Y155653D02*
G03X220654Y153853I1800J-0D01*
G01X218854Y155653D02*
Y158015D01*
X218953Y158606D02*
G03X218854Y158015I1701J-591D01*
G01X218953Y158606D02*
G03Y158999I-567J196D01*
G01X218854Y159590D02*
G03X218953Y158999I1800J-0D01*
G01X218854Y159590D02*
Y161048D01*
G03X218254Y161648I-600J0*
G01X206964*
G03X206540Y161472I0J-600*
G01X203169Y158101*
X201472Y157398D02*
G03X203169Y158101I-0J2400D01*
G01X201472Y157398D02*
X198670D01*
X198466Y157407D02*
G03X198670Y157398I204J2391D01*
G01X198466Y157407D02*
G03X197891Y157101I-51J-598D01*
G01X195520Y162627D02*
G03X197891Y157101I-950J-3679D01*
G01X195520Y162627D02*
G03X196270Y163208I150J581D01*
G01Y173548*
X198670Y175948D02*
G03X196270Y173548I0J-2400D01*
G01X198670Y175948D02*
X201922D01*
X203619Y175245D02*
G03X201922Y175948I-1697J-1697D01*
G01X203619Y175245D02*
X207340Y171524D01*
G03X207764Y171348I424J424*
G01X218254*
G03X218854Y171948I-0J600*
G01Y173763*
X218953Y174354D02*
G03X218854Y173763I1701J-591D01*
G01X218953Y174354D02*
G03Y174747I-567J196D01*
G01X218854Y175338D02*
G03X218953Y174747I1800J-0D01*
G01X218854Y175338D02*
Y177700D01*
X218953Y178291D02*
G03X218854Y177700I1701J-591D01*
G01X218953Y178291D02*
G03Y178684I-567J196D01*
G01X218854Y179275D02*
G03X218953Y178684I1800J-0D01*
G01X218854Y179275D02*
Y181637D01*
X218953Y182228D02*
G03X218854Y181637I1701J-591D01*
G01X218953Y182228D02*
G03Y182621I-567J196D01*
G01X218854Y183212D02*
G03X218953Y182621I1800J-0D01*
G01X218854Y183212D02*
Y185448D01*
G03X218254Y186048I-600J0*
G01X210270*
X208644Y186722D02*
G03X210270Y186048I1626J1626D01*
G01X208644Y186722D02*
X205229Y190137D01*
X204555Y191763D02*
G03X205229Y190137I2300J0D01*
G01X204555Y191763D02*
Y251857D01*
G03X203742Y252418I-600J0*
G01X202977Y252278D02*
G03X203742Y252418I-0J2154D01*
G01X202977Y252278D02*
X201323D01*
X200541Y252425D02*
G03X201323Y252278I782J2007D01*
G01X200541Y252425D02*
G03X200091Y252419I-217J-560D01*
G01X199394Y252278D02*
G03X200091Y252419I-0J1800D01*
G01X199394Y252278D02*
X197031D01*
X196441Y252378D02*
G03X197031Y252278I590J1700D01*
G01X196441Y252378D02*
G03X196047I-197J-567D01*
G01X195457Y252278D02*
G03X196047Y252378I-0J1800D01*
G01X195457Y252278D02*
X193094D01*
X192504Y252378D02*
G03X193094Y252278I590J1700D01*
G01X192504Y252378D02*
G03X192110I-197J-567D01*
G01X191520Y252278D02*
G03X192110Y252378I-0J1800D01*
G01X191520Y252278D02*
X189157D01*
X188567Y252378D02*
G03X189157Y252278I590J1700D01*
G01X188567Y252378D02*
G03X188173I-197J-567D01*
G01X187583Y252278D02*
G03X188173Y252378I-0J1800D01*
G01X187583Y252278D02*
X185220D01*
X184630Y252378D02*
G03X185220Y252278I590J1700D01*
G01X184630Y252378D02*
G03X184236I-197J-567D01*
G01X183646Y252278D02*
G03X184236Y252378I-0J1800D01*
G01X183646Y252278D02*
X181283D01*
X180693Y252378D02*
G03X181283Y252278I590J1700D01*
G01X180693Y252378D02*
G03X180299I-197J-567D01*
G01X179709Y252278D02*
G03X180299Y252378I-0J1800D01*
G01X179709Y252278D02*
X177346D01*
X176756Y252378D02*
G03X177346Y252278I590J1700D01*
G01X176756Y252378D02*
G03X176362I-197J-567D01*
G01X175772Y252278D02*
G03X176362Y252378I-0J1800D01*
G01X175772Y252278D02*
X173409D01*
X172819Y252378D02*
G03X173409Y252278I590J1700D01*
G01X172819Y252378D02*
G03X172425I-197J-567D01*
G01X171835Y252278D02*
G03X172425Y252378I-0J1800D01*
G01X171835Y252278D02*
X169472D01*
X168882Y252378D02*
G03X169472Y252278I590J1700D01*
G01X168882Y252378D02*
G03X168488I-197J-567D01*
G01X167898Y252278D02*
G03X168488Y252378I-0J1800D01*
G01X167898Y252278D02*
X165535D01*
X164945Y252378D02*
G03X165535Y252278I590J1700D01*
G01X164945Y252378D02*
G03X164551I-197J-567D01*
G01X163961Y252278D02*
G03X164551Y252378I-0J1800D01*
G01X163961Y252278D02*
X161598D01*
X161008Y252378D02*
G03X161598Y252278I590J1700D01*
G01X161008Y252378D02*
G03X160614I-197J-567D01*
G01X160024Y252278D02*
G03X160614Y252378I-0J1800D01*
G01X160024Y252278D02*
X157661D01*
X157071Y252378D02*
G03X157661Y252278I590J1700D01*
G01X157071Y252378D02*
G03X156677I-197J-567D01*
G01X156087Y252278D02*
G03X156677Y252378I-0J1800D01*
G01X156087Y252278D02*
X153724D01*
X153134Y252378D02*
G03X153724Y252278I590J1700D01*
G01X153134Y252378D02*
G03X152740I-197J-567D01*
G01X152150Y252278D02*
G03X152740Y252378I-0J1800D01*
G01X152150Y252278D02*
X149787D01*
X149197Y252378D02*
G03X149787Y252278I590J1700D01*
G01X149197Y252378D02*
G03X148803I-197J-567D01*
G01X148213Y252278D02*
G03X148803Y252378I-0J1800D01*
G01X148213Y252278D02*
X145850D01*
X145260Y252378D02*
G03X145850Y252278I590J1700D01*
G01X145260Y252378D02*
G03X144866I-197J-567D01*
G01X144276Y252278D02*
G03X144866Y252378I-0J1800D01*
G01X144276Y252278D02*
X141913D01*
X141323Y252378D02*
G03X141913Y252278I590J1700D01*
G01X141323Y252378D02*
G03X140929I-197J-567D01*
G01X140339Y252278D02*
G03X140929Y252378I-0J1800D01*
G01X140339Y252278D02*
X137976D01*
X137386Y252378D02*
G03X137976Y252278I590J1700D01*
G01X137386Y252378D02*
G03X136992I-197J-567D01*
G01X136402Y252278D02*
G03X136992Y252378I-0J1800D01*
G01X136402Y252278D02*
X134039D01*
X133449Y252378D02*
G03X134039Y252278I590J1700D01*
G01X133449Y252378D02*
G03X133055I-197J-567D01*
G01X132465Y252278D02*
G03X133055Y252378I-0J1800D01*
G01X132465Y252278D02*
X130102D01*
X129512Y252378D02*
G03X130102Y252278I590J1700D01*
G01X129512Y252378D02*
G03X129118I-197J-567D01*
G01X128528Y252278D02*
G03X129118Y252378I-0J1800D01*
G01X128528Y252278D02*
X126165D01*
X125575Y252378D02*
G03X126165Y252278I590J1700D01*
G01X125575Y252378D02*
G03X125181I-197J-567D01*
G01X124591Y252278D02*
G03X125181Y252378I-0J1800D01*
G01X124591Y252278D02*
X122228D01*
X120557Y253409D02*
G03X122228Y252278I1671J669D01*
G01X120557Y253409D02*
G03X119400Y253187I-557J-222D01*
G01Y200809*
G03X120542Y200551I600J0*
G01X123070Y202148D02*
G03X120542Y200551I0J-2800D01*
G01X123070Y202148D02*
X134962D01*
G03X135386Y202324I-0J600*
G01X136594Y203532*
G03X136770Y203956I-424J424*
G01Y208129*
G03X136752Y208274I-600J0*
G01X141450Y210928D02*
G03X136752Y208274I-1980J-1980D01*
G01X141450Y210928D02*
X141550Y210828D01*
X142370Y208848D02*
G03X141550Y210828I-2800J0D01*
G01X142370Y208848D02*
Y202548D01*
X141550Y200568D02*
G03X142370Y202548I-1980J1980D01*
G01X141550Y200568D02*
X138350Y197368D01*
X136370Y196548D02*
G03X138350Y197368I0J2800D01*
G01X136370Y196548D02*
X123070D01*
X121250Y197220D02*
G03X123070Y196548I1820J2128D01*
G01X121250Y197220D02*
G03X121054Y197332I-390J-456D01*
X120942Y197528I-568J-194*
G01X120542Y198145D02*
G03X120942Y197528I2528J1203D01*
G01X120542Y198145D02*
G03X119400Y197887I-542J-258D01*
G01Y197624*
G03X119576Y197200I600J0*
G01X120062Y196714*
G03X120292Y196570I424J424*
X120436Y196340I568J194*
G01X128600Y188176*
G03X129024Y188000I424J424*
G01X145677*
X147303Y187326D02*
G03X145677Y188000I-1626J-1626D01*
G01X147303Y187326D02*
X168552Y166077D01*
X169226Y164432D02*
G03X168552Y166077I-2300J19D01*
G01X169226Y164432D02*
X169065Y144672D01*
G03X169665Y144067I600J-5*
G01X171835*
X172425Y143967D02*
G03X171835Y144067I-590J-1700D01*
G01X172425Y143967D02*
G03X172819I197J567D01*
G01X173409Y144067D02*
G03X172819Y143967I0J-1800D01*
G01X173409Y144067D02*
X175772D01*
X176362Y143967D02*
G03X175772Y144067I-590J-1700D01*
G01X176362Y143967D02*
G03X176756I197J567D01*
G01X177346Y144067D02*
G03X176756Y143967I0J-1800D01*
G01X177346Y144067D02*
X179709D01*
X180299Y143967D02*
G03X179709Y144067I-590J-1700D01*
G01X180299Y143967D02*
G03X180693I197J567D01*
G01X181283Y144067D02*
G03X180693Y143967I0J-1800D01*
G01X181283Y144067D02*
X183646D01*
X184236Y143967D02*
G03X183646Y144067I-590J-1700D01*
G01X184236Y143967D02*
G03X184630I197J567D01*
G01X185220Y144067D02*
G03X184630Y143967I0J-1800D01*
G01X185220Y144067D02*
X187583D01*
X188173Y143967D02*
G03X187583Y144067I-590J-1700D01*
G01X188173Y143967D02*
G03X188567I197J567D01*
G01X189157Y144067D02*
G03X188567Y143967I0J-1800D01*
G01X189157Y144067D02*
X191520D01*
X192110Y143967D02*
G03X191520Y144067I-590J-1700D01*
G01X192110Y143967D02*
G03X192504I197J567D01*
G01X193094Y144067D02*
G03X192504Y143967I0J-1800D01*
G01X193094Y144067D02*
X195457D01*
X196047Y143967D02*
G03X195457Y144067I-590J-1700D01*
G01X196047Y143967D02*
G03X196441I197J567D01*
G01X197031Y144067D02*
G03X196441Y143967I0J-1800D01*
G01X197031Y144067D02*
X199394D01*
X199984Y143967D02*
G03X199394Y144067I-590J-1700D01*
G01X199984Y143967D02*
G03X200378I197J567D01*
G01X200969Y144067D02*
G03X200378Y143967I-0J-1800D01*
G01X200969Y144067D02*
X203331D01*
X203921Y143967D02*
G03X203331Y144067I-590J-1700D01*
G01X203921Y143967D02*
G03X204315I197J567D01*
G01X204906Y144067D02*
G03X204315Y143967I-0J-1800D01*
G01X204906Y144067D02*
X207268D01*
X209068Y142267D02*
G03X207268Y144067I-1800J-0D01*
G01X209068Y142267D02*
Y135180D01*
X207268Y133380D02*
G03X209068Y135180I-0J1800D01*
G01X207268Y133380D02*
X204906D01*
X204315Y133480D02*
G03X204906Y133380I591J1700D01*
G01X204315Y133480D02*
G03X203921I-197J-567D01*
G01X203331Y133380D02*
G03X203921Y133480I-0J1800D01*
G01X203331Y133380D02*
X200969D01*
X200378Y133480D02*
G03X200969Y133380I591J1700D01*
G01X200378Y133480D02*
G03X199984I-197J-567D01*
G01X199394Y133380D02*
G03X199984Y133480I-0J1800D01*
G01X199394Y133380D02*
X197031D01*
X196441Y133480D02*
G03X197031Y133380I590J1700D01*
G01X196441Y133480D02*
G03X196047I-197J-567D01*
G01X195457Y133380D02*
G03X196047Y133480I-0J1800D01*
G01X195457Y133380D02*
X193094D01*
X192504Y133480D02*
G03X193094Y133380I590J1700D01*
G01X192504Y133480D02*
G03X192110I-197J-567D01*
G01X191520Y133380D02*
G03X192110Y133480I-0J1800D01*
G01X191520Y133380D02*
X189157D01*
X188567Y133480D02*
G03X189157Y133380I590J1700D01*
G01X188567Y133480D02*
G03X188173I-197J-567D01*
G01X187583Y133380D02*
G03X188173Y133480I-0J1800D01*
G01X187583Y133380D02*
X185220D01*
X184630Y133480D02*
G03X185220Y133380I590J1700D01*
G01X184630Y133480D02*
G03X184236I-197J-567D01*
G01X183646Y133380D02*
G03X184236Y133480I-0J1800D01*
G01X183646Y133380D02*
X181283D01*
X180693Y133480D02*
G03X181283Y133380I590J1700D01*
G01X180693Y133480D02*
G03X180299I-197J-567D01*
G01X179709Y133380D02*
G03X180299Y133480I-0J1800D01*
G01X179709Y133380D02*
X177346D01*
X176756Y133480D02*
G03X177346Y133380I590J1700D01*
G01X176756Y133480D02*
G03X176362I-197J-567D01*
G01X175772Y133380D02*
G03X176362Y133480I-0J1800D01*
G01X175772Y133380D02*
X173409D01*
X172819Y133480D02*
G03X173409Y133380I590J1700D01*
G01X172819Y133480D02*
G03X172425I-197J-567D01*
G01X171835Y133380D02*
G03X172425Y133480I-0J1800D01*
G01X171835Y133380D02*
X169472D01*
X168882Y133480D02*
G03X169472Y133380I590J1700D01*
G01X168882Y133480D02*
G03X168488I-197J-567D01*
G01X167898Y133380D02*
G03X168488Y133480I-0J1800D01*
G01X167898Y133380D02*
X165535D01*
X164945Y133480D02*
G03X165535Y133380I590J1700D01*
G01X164945Y133480D02*
G03X164551I-197J-567D01*
G01X163961Y133380D02*
G03X164551Y133480I-0J1800D01*
G01X163961Y133380D02*
X161598D01*
X161008Y133480D02*
G03X161598Y133380I590J1700D01*
G01X161008Y133480D02*
G03X160614I-197J-567D01*
G01X160024Y133380D02*
G03X160614Y133480I-0J1800D01*
G01X160024Y133380D02*
X157661D01*
X157071Y133480D02*
G03X157661Y133380I590J1700D01*
G01X157071Y133480D02*
G03X156677I-197J-567D01*
G01X156087Y133380D02*
G03X156677Y133480I-0J1800D01*
G01X156087Y133380D02*
X153724D01*
X153134Y133480D02*
G03X153724Y133380I590J1700D01*
G01X153134Y133480D02*
G03X152740I-197J-567D01*
G01X152150Y133380D02*
G03X152740Y133480I-0J1800D01*
G01X152150Y133380D02*
X149787D01*
X149197Y133480D02*
G03X149787Y133380I590J1700D01*
G01X149197Y133480D02*
G03X148803I-197J-567D01*
G01X148213Y133380D02*
G03X148803Y133480I-0J1800D01*
G01X148213Y133380D02*
X145850D01*
X145260Y133480D02*
G03X145850Y133380I590J1700D01*
G01X145260Y133480D02*
G03X144866I-197J-567D01*
G01X144276Y133380D02*
G03X144866Y133480I-0J1800D01*
G01X144276Y133380D02*
X141913D01*
X141323Y133480D02*
G03X141913Y133380I590J1700D01*
G01X141323Y133480D02*
G03X140929I-197J-567D01*
G01X140855Y133456D02*
G03X140929Y133480I-516J1724D01*
G01X140855Y133456D02*
G03X140609Y132450I172J-575D01*
G01X142273Y128518D02*
G03X140609Y132450I-5477J0D01*
G01X142273Y128518D02*
Y125873D01*
Y125845D02*
G03Y125873I-3600J28D01*
G01Y125845D02*
X142261Y124302D01*
G03X142331Y124016I600J-5*
G01X142818Y122059D02*
G03X142331Y124016I-4175J-0D01*
G01X142818Y122059D02*
Y119538D01*
G03X143418Y118938I600J-0*
G01X145729*
X147530Y117138D02*
G03X145729Y118938I-1801J-0D01*
G01X147530Y117138D02*
Y110051D01*
X145729Y108251D02*
G03X147530Y110051I0J1800D01*
G01X145729Y108251D02*
X141792D01*
X139992Y110051D02*
G03X141792Y108251I1800J-0D01*
G01X139992Y110051D02*
Y114587D01*
G03X139298Y115180I-600J0*
G01X137988D02*
G03X139298I655J4123D01*
G01X137988D02*
G03X137294Y114587I-94J-593D01*
G01Y110051*
X135494Y108251D02*
G03X137294Y110051I-0J1800D01*
G01X135494Y108251D02*
X131556D01*
X129756Y110051D02*
G03X131556Y108251I1800J-0D01*
G01X129756Y110051D02*
Y117138D01*
X131556Y118938D02*
G03X129756Y117138I0J-1800D01*
G01X131556Y118938D02*
X133868D01*
G03X134468Y119538I0J600*
G01Y122059*
X134986Y124073D02*
G03X134468Y122059I3657J-2014D01*
G01X134986Y124073D02*
G03X135061Y124358I-525J290D01*
G01X135073Y125885*
G03Y125890I-600J5*
G01Y126196*
G03X134473Y126796I-600J-0*
G01X125942*
X120020Y132636D02*
G03X125942Y126796I5922J83D01*
G01X120020Y132636D02*
G03X120019Y132648I-600J-9D01*
G01X119981Y133740*
G03X119915Y133993I-599J-21*
G01X119628Y135180D02*
G03X119915Y133993I2600J0D01*
G01X119628Y135180D02*
Y142267D01*
X122228Y144867D02*
G03X119628Y142267I0J-2600D01*
G01X122228Y144867D02*
X124591D01*
X126310Y144217D02*
G03X124591Y144867I-1719J-1950D01*
G01X126310Y144217D02*
G03X126707Y144067I397J450D01*
G01X128528*
X129118Y143967D02*
G03X128528Y144067I-590J-1700D01*
G01X129118Y143967D02*
G03X129512I197J567D01*
G01X130102Y144067D02*
G03X129512Y143967I0J-1800D01*
G01X130102Y144067D02*
X132465D01*
X133055Y143967D02*
G03X132465Y144067I-590J-1700D01*
G01X133055Y143967D02*
G03X133449I197J567D01*
G01X134039Y144067D02*
G03X133449Y143967I0J-1800D01*
G01X134039Y144067D02*
X136402D01*
X136992Y143967D02*
G03X136402Y144067I-590J-1700D01*
G01X136992Y143967D02*
G03X137386I197J567D01*
G01X137976Y144067D02*
G03X137386Y143967I0J-1800D01*
G01X137976Y144067D02*
X140339D01*
X140929Y143967D02*
G03X140339Y144067I-590J-1700D01*
G01X140929Y143967D02*
G03X141323I197J567D01*
G01X141913Y144067D02*
G03X141323Y143967I0J-1800D01*
G01X141913Y144067D02*
X144276D01*
X144866Y143967D02*
G03X144276Y144067I-590J-1700D01*
G01X144866Y143967D02*
G03X145260I197J567D01*
G01X145850Y144067D02*
G03X145260Y143967I0J-1800D01*
G01X145850Y144067D02*
X148213D01*
X148803Y143967D02*
G03X148213Y144067I-590J-1700D01*
G01X148803Y143967D02*
G03X149197I197J567D01*
G01X149787Y144067D02*
G03X149197Y143967I0J-1800D01*
G01X149787Y144067D02*
X152150D01*
X152740Y143967D02*
G03X152150Y144067I-590J-1700D01*
G01X152740Y143967D02*
G03X153134I197J567D01*
G01X153724Y144067D02*
G03X153134Y143967I0J-1800D01*
G01X153724Y144067D02*
X156087D01*
X156677Y143967D02*
G03X156087Y144067I-590J-1700D01*
G01X156677Y143967D02*
G03X157071I197J567D01*
G01X157661Y144067D02*
G03X157071Y143967I0J-1800D01*
G01X157661Y144067D02*
X160024D01*
X160614Y143967D02*
G03X160024Y144067I-590J-1700D01*
G01X160614Y143967D02*
G03X161008I197J567D01*
G01X161598Y144067D02*
G03X161008Y143967I0J-1800D01*
G01X161598Y144067D02*
X163865D01*
G03X164465Y144662I-0J600*
G01X164616Y163255*
G03X164441Y163684I-600J4*
G01X144900Y183224*
G03X144476Y183400I-424J-424*
G01X127823*
X126197Y184074D02*
G03X127823Y183400I1626J1626D01*
G01X126197Y184074D02*
X115474Y194797D01*
X114800Y196423D02*
G03X115474Y194797I2300J0D01*
G01X114800Y196423D02*
Y274970D01*
X115474Y276596D02*
G03X114800Y274970I1626J-1626D01*
G01X115474Y276596D02*
X123311Y284434D01*
X124750Y285100D02*
G03X123311Y284434I188J-2292D01*
G01X124750Y285100D02*
G03X125248Y285451I-49J598D01*
G01X128924Y281736D02*
G03X125248Y285451I-1124J2564D01*
G01X128924Y281736D02*
G03X128571Y281100I241J-550D01*
G01X124342Y278310D02*
G03X128571Y281100I1458J2390D01*
G01X124342Y278310D02*
G03X123605Y278222I-313J-512D01*
G01X119576Y274193*
G03X119400Y273769I424J-424*
G01Y262056*
G03X120557Y261833I600J0*
G01X122228Y262965D02*
G03X120557Y261833I0J-1800D01*
G01X122228Y262965D02*
X124088D01*
G03X124688Y263550I0J600*
G01X124757Y266415*
X129620Y268240D02*
G03X124757Y266415I-2064J-1892D01*
G01X129620Y268240D02*
X129664Y268192D01*
X130291Y267075D02*
G03X129664Y268192I-2691J-775D01*
G01X130291Y267075D02*
G03X130979Y266651I576J166D01*
G01X132000Y266655D02*
G03X130979Y266651I-500J-2755D01*
G01X132000Y266655D02*
G03X132688Y267096I107J590D01*
G01X137990Y267463D02*
G03X132688Y267096I-2590J-1063D01*
G01X137990Y267463D02*
G03X138696Y267110I555J228D01*
G01X142161Y263934D02*
G03X138696Y267110I-2761J466D01*
G01X142161Y263934D02*
G03X142153Y263853I592J-99D01*
G01X142145Y263583*
G03X142744Y262965I599J-18*
G01X143808*
G03X144408Y263547I0J600*
G01X144442Y264684*
X147241Y267400D02*
G03X144442Y264684I0J-2800D01*
G01X147241Y267400D02*
X147300D01*
X150035Y263999D02*
G03X147300Y267400I-2735J601D01*
G01X150035Y263999D02*
G03X150021Y263888I586J-129D01*
G01X150012Y263583*
G03X150611Y262965I599J-18*
G01X152086*
G03X152686Y263556I-0J600*
G01X152799Y271910*
G03X152623Y272342I-600J8*
G01X146727Y278238*
G03X146421Y278402I-424J-424*
G01X146064Y283797D02*
G03X146421Y278402I906J-2649D01*
G01X146064Y283797D02*
G03X146452Y284221I-194J568D01*
G01X151892Y284203D02*
G03X146452Y284221I-2722J-655D01*
G01X151892Y284203D02*
G03X152051Y283919I584J141D01*
G01X160678Y275292*
X161352Y273636D02*
G03X160678Y275292I-2300J30D01*
G01X161352Y273636D02*
X161263Y266812D01*
G03X162063Y266239I600J-8*
G01X165800Y263571D02*
G03X162063Y266239I-2800J29D01*
G01X165800Y263571D02*
G03X166400Y262965I600J-6D01*
G01X167898*
X168488Y262865D02*
G03X167898Y262965I-590J-1700D01*
G01X168488Y262865D02*
G03X168882I197J567D01*
G01X169472Y262965D02*
G03X168882Y262865I0J-1800D01*
G01X169472Y262965D02*
X171835D01*
X172425Y262865D02*
G03X171835Y262965I-590J-1700D01*
G01X172425Y262865D02*
G03X172819I197J567D01*
G01X173409Y262965D02*
G03X172819Y262865I0J-1800D01*
G01X173409Y262965D02*
X175772D01*
X176362Y262865D02*
G03X175772Y262965I-590J-1700D01*
G01X176362Y262865D02*
G03X176756I197J567D01*
G01X177346Y262965D02*
G03X176756Y262865I0J-1800D01*
G01X177346Y262965D02*
X179709D01*
X180299Y262865D02*
G03X179709Y262965I-590J-1700D01*
G01X180299Y262865D02*
G03X180693I197J567D01*
G01X181283Y262965D02*
G03X180693Y262865I0J-1800D01*
G01X181283Y262965D02*
X183646D01*
X184236Y262865D02*
G03X183646Y262965I-590J-1700D01*
G01X184236Y262865D02*
G03X184630I197J567D01*
G01X185220Y262965D02*
G03X184630Y262865I0J-1800D01*
G01X185220Y262965D02*
X187148D01*
G03X187748Y263543I0J600*
G01X187750Y263600*
X187750*
X190548Y266300D02*
G03X187750Y263600I0J-2800D01*
G01X190548Y266300D02*
X190600D01*
X193400Y263553D02*
G03X190600Y266300I-2800J-53D01*
G01X193400Y263553D02*
G03X193999Y262965I599J12D01*
G01X195457*
X196047Y262865D02*
G03X195457Y262965I-590J-1700D01*
G01X196047Y262865D02*
G03X196441I197J567D01*
G01X197031Y262965D02*
G03X196441Y262865I0J-1800D01*
G01X197031Y262965D02*
X199394D01*
X200092Y262824D02*
G03X199394Y262965I-698J-1659D01*
G01X200092Y262824D02*
G03X200542Y262818I232J553D01*
G01X201323Y262964D02*
G03X200542Y262818I0J-2154D01*
G01X201323Y262964D02*
X202977D01*
X203742Y262824D02*
G03X202977Y262964I-765J-2014D01*
G01X203742Y262824D02*
G03X204555Y263385I213J561D01*
G01Y273557*
G03X203504Y273953I-600J-0*
G01Y277647D02*
G03Y273953I-2104J-1847D01*
G01Y277647D02*
G03X204555Y278043I451J396D01*
G01Y279498*
G03X204469Y279807I-600J0*
G01X209524Y282141D02*
G03X204469Y279807I-2654J-893D01*
G01X209524Y282141D02*
G03X210036Y281735I568J192D01*
G01X212076Y277360D02*
G03X210036Y281735I-2306J1588D01*
G01X212076Y277360D02*
G03X211970Y277019I494J-341D01*
G01Y206649*
G03X212146Y206225I600J0*
G01X215748Y202623*
G03X216172Y202447I425J424*
G01X218253Y202445*
G03X218854Y203045I1J600*
G01Y205259*
X218953Y205850D02*
G03X218854Y205259I1701J-591D01*
G01X218953Y205850D02*
G03Y206243I-567J196D01*
G01X218854Y206834D02*
G03X218953Y206243I1800J-0D01*
G01X218854Y206834D02*
Y209196D01*
X218953Y209787D02*
G03X218854Y209196I1701J-591D01*
G01X218953Y209787D02*
G03Y210180I-567J196D01*
G01X218854Y210771D02*
G03X218953Y210180I1800J-0D01*
G01X218854Y210771D02*
Y213133D01*
X218953Y213724D02*
G03X218854Y213133I1701J-591D01*
G01X218953Y213724D02*
G03Y214117I-567J196D01*
G01X218854Y214708D02*
G03X218953Y214117I1800J-0D01*
G01X218854Y214708D02*
Y217070D01*
X218953Y217661D02*
G03X218854Y217070I1701J-591D01*
G01X218953Y217661D02*
G03Y218054I-567J196D01*
G01X218854Y218645D02*
G03X218953Y218054I1800J-0D01*
G01X218854Y218645D02*
Y221007D01*
X218953Y221598D02*
G03X218854Y221007I1701J-591D01*
G01X218953Y221598D02*
G03Y221991I-567J196D01*
G01X218854Y222582D02*
G03X218953Y221991I1800J-0D01*
G01X218854Y222582D02*
Y224944D01*
X218953Y225535D02*
G03X218854Y224944I1701J-591D01*
G01X218953Y225535D02*
G03Y225928I-567J196D01*
G01X218854Y226519D02*
G03X218953Y225928I1800J-0D01*
G01X218854Y226519D02*
Y228881D01*
X218953Y229472D02*
G03X218854Y228881I1701J-591D01*
G01X218953Y229472D02*
G03Y229865I-567J197D01*
G01X218854Y230456D02*
G03X218953Y229865I1800J-0D01*
G01X218854Y230456D02*
Y232818D01*
X218953Y233409D02*
G03X218854Y232818I1701J-591D01*
G01X218953Y233409D02*
G03Y233802I-567J197D01*
G01X218854Y234393D02*
G03X218953Y233802I1800J-0D01*
G01X218854Y234393D02*
Y236755D01*
X218953Y237346D02*
G03X218854Y236755I1701J-591D01*
G01X218953Y237346D02*
G03Y237739I-567J197D01*
G01X218854Y238330D02*
G03X218953Y237739I1800J-0D01*
G01X218854Y238330D02*
Y240692D01*
X220654Y242492D02*
G03X218854Y240692I-0J-1800D01*
G01X220654Y242492D02*
X227551D01*
G03X228151Y243092I0J600*
G01X167582Y286651D02*
Y288348D01*
G03X166982Y288948I-600J0*
G01X166314*
G03X165835Y287987I0J-600*
G01X166385Y286589D02*
G03X165835Y287987I-2785J-289D01*
G01X166385Y286589D02*
G03X166495Y286300I597J62D01*
X166385Y286011I487J-351*
G01X166254Y285407D02*
G03X166385Y286011I-2654J893D01*
G01X166254Y285407D02*
G03X167273Y284819I568J-192D01*
G01X167374Y284926D02*
G03X167273Y284819I1626J-1626D01*
G01X167374Y284926D02*
X167406Y284959D01*
G03X167582Y285383I-424J424*
G01Y285949*
G03X167469Y286300I-600J0*
X167582Y286651I-487J351*
G01X195400Y268821D02*
G03X198402Y271593I2800J-21D01*
G01X195400Y268821D02*
G03X194288Y269138I-600J4D01*
G01X191915Y273400D02*
G03X194288Y269138I-15J-2800D01*
G01X191915Y273400D02*
G03X192480Y273788I4J600D01*
G01X197855Y272299D02*
G03X192480Y273788I-2755J501D01*
G01X197855Y272299D02*
G03X198402Y271593I590J-108D01*
G01X173470Y196048D02*
G03X173470I-3800J0D01*
G01X172858Y206337D02*
G03X172858I-3800J0D01*
G01X173170Y216748D02*
G03X173170I-3800J0D01*
G01X130858Y241486D02*
G03X126082I-2388J1462D01*
G01X130858D02*
G03X130770Y241173I512J-313D01*
G01Y231523*
G03X130858Y231210I600J-0*
G01X126082D02*
G03X130858I2388J-1462D01*
G01X126082D02*
G03X126170Y231523I-512J313D01*
G01Y241173*
G03X126082Y241486I-600J0*
G01X166037Y287679D02*
X167582D01*
X166289Y285519D02*
X167582D01*
X166384Y286599D02*
X167580D01*
X165877Y288759D02*
X167419D01*
X209474Y282279D02*
X228151D01*
X211436Y281199D02*
X228151D01*
X212314Y280119D02*
X228151D01*
X212569Y279039D02*
X228151D01*
X212390Y277959D02*
X228151D01*
X211970Y276879D02*
X228151D01*
X211970Y275799D02*
X228151D01*
X211970Y274719D02*
X228151D01*
X211970Y273639D02*
X228151D01*
X211970Y272559D02*
X228151D01*
X211970Y271479D02*
X228151D01*
X211970Y270399D02*
X228151D01*
X211970Y269319D02*
X228151D01*
X211970Y268239D02*
X228151D01*
X211970Y267159D02*
X228151D01*
X211970Y266079D02*
X228151D01*
X211970Y264999D02*
X228151D01*
X211970Y263919D02*
X228151D01*
X211970Y262839D02*
X228151D01*
X211970Y261759D02*
X228151D01*
X211970Y260679D02*
X228151D01*
X211970Y259599D02*
X228151D01*
X211970Y258519D02*
X228151D01*
X211970Y257439D02*
X228151D01*
X211970Y256359D02*
X228151D01*
X211970Y255279D02*
X228151D01*
X211970Y254199D02*
X228151D01*
X211970Y253119D02*
X228151D01*
X211970Y252039D02*
X228151D01*
X211970Y250959D02*
X228151D01*
X211970Y249879D02*
X228151D01*
X211970Y248799D02*
X228151D01*
X211970Y247719D02*
X228151D01*
X211970Y246639D02*
X228151D01*
X211970Y245559D02*
X228151D01*
X211970Y244479D02*
X228151D01*
X211970Y243399D02*
X228151D01*
X169130Y152679D02*
X228151D01*
X169121Y151599D02*
X228151D01*
X169113Y150519D02*
X228151D01*
X169104Y149439D02*
X228151D01*
X169095Y148359D02*
X228151D01*
X169086Y147279D02*
X228151D01*
X169078Y146199D02*
X228151D01*
X169069Y145119D02*
X228151D01*
X207585Y144039D02*
X228151D01*
X208930Y142959D02*
X228151D01*
X209068Y141879D02*
X228151D01*
X209068Y140799D02*
X228151D01*
X209068Y139719D02*
X228151D01*
X209068Y138639D02*
X228151D01*
X209068Y137559D02*
X228151D01*
X209068Y136479D02*
X228151D01*
X209068Y135399D02*
X228151D01*
X208848Y134319D02*
X228151D01*
X140545Y133239D02*
X228151D01*
X140888Y132159D02*
X228151D01*
X141638Y131079D02*
X228151D01*
X142069Y129999D02*
X228151D01*
X142258Y128919D02*
X228151D01*
X142273Y127839D02*
X228151D01*
X142273Y126759D02*
X228151D01*
X142272Y125679D02*
X228151D01*
X142263Y124599D02*
X228151D01*
X142554Y123519D02*
X228151D01*
X142801Y122439D02*
X228151D01*
X214354Y121359D02*
X228151D01*
X217473Y120279D02*
X228151D01*
X219041Y119199D02*
X228151D01*
X220130Y118119D02*
X228151D01*
X220935Y117039D02*
X228151D01*
X221535Y115959D02*
X228151D01*
X221970Y114879D02*
X228151D01*
X222263Y113799D02*
X228151D01*
X222427Y112719D02*
X228151D01*
X222468Y111639D02*
X228151D01*
X222388Y110559D02*
X228151D01*
X222184Y109479D02*
X228151D01*
X221848Y108399D02*
X228151D01*
X221363Y107319D02*
X228151D01*
X220703Y106239D02*
X228151D01*
X219819Y105159D02*
X228151D01*
X218609Y104079D02*
X228151D01*
X216786Y102999D02*
X228151D01*
X216464Y101919D02*
X227943D01*
X169139Y153759D02*
X227874D01*
X211970Y242319D02*
X219883D01*
X169148Y154839D02*
X219048D01*
X211970Y221799D02*
X218986D01*
X211970Y209919D02*
X218983D01*
X211970Y233679D02*
X218982D01*
X156031Y178599D02*
X218976D01*
X211970Y241239D02*
X218939D01*
X204585Y174279D02*
X218929D01*
X211970Y229359D02*
X218918D01*
X211970Y214239D02*
X218916D01*
X204226Y159159D02*
X218906D01*
X211970Y217479D02*
X218901D01*
X211970Y226119D02*
X218899D01*
X212772Y205599D02*
X218886D01*
X211970Y237999D02*
X218884D01*
X151711Y182919D02*
X218878D01*
X152791Y181839D02*
X218865D01*
X211970Y236919D02*
X218861D01*
X211970Y206679D02*
X218860D01*
X211970Y225039D02*
X218856D01*
X211970Y218559D02*
X218856D01*
X203146Y158079D02*
X218855D01*
X211970Y213159D02*
X218854D01*
X211970Y230439D02*
X218854D01*
X211970Y240159D02*
X218854D01*
X211970Y239079D02*
X218854D01*
X211970Y235839D02*
X218854D01*
X211970Y234759D02*
X218854D01*
X211970Y232599D02*
X218854D01*
X211970Y231519D02*
X218854D01*
X211970Y228279D02*
X218854D01*
X211970Y227199D02*
X218854D01*
X211970Y223959D02*
X218854D01*
X211970Y222879D02*
X218854D01*
X211970Y220719D02*
X218854D01*
X211970Y219639D02*
X218854D01*
X211970Y216399D02*
X218854D01*
X211970Y215319D02*
X218854D01*
X211970Y212079D02*
X218854D01*
X211970Y210999D02*
X218854D01*
X211970Y208839D02*
X218854D01*
X211970Y207759D02*
X218854D01*
X213852Y204519D02*
X218854D01*
X214932Y203439D02*
X218854D01*
X149551Y185079D02*
X218854D01*
X150631Y183999D02*
X218854D01*
X153871Y180759D02*
X218854D01*
X154951Y179679D02*
X218854D01*
X157111Y177519D02*
X218854D01*
X158191Y176439D02*
X218854D01*
X203497Y175359D02*
X218854D01*
X205665Y173199D02*
X218854D01*
X206745Y172119D02*
X218854D01*
X205306Y160239D02*
X218854D01*
X197832Y156999D02*
X218854D01*
X196864Y155919D02*
X218854D01*
X206386Y161319D02*
X218789D01*
X208710Y283359D02*
X217537D01*
X211204Y284439D02*
X215470D01*
X213176Y285519D02*
X214546D01*
X142818Y121359D02*
X211237D01*
X184113Y284439D02*
X210196D01*
X148471Y186159D02*
X209565D01*
X121188Y101919D02*
X209127D01*
X121511Y102999D02*
X208804D01*
X184113Y285519D02*
X208224D01*
X147391Y187239D02*
X208127D01*
X142818Y120279D02*
X208117D01*
X184113Y286599D02*
X207589D01*
X184113Y287679D02*
X207400D01*
X184113Y288759D02*
X207292D01*
X128457Y188319D02*
X207047D01*
X123333Y104079D02*
X206982D01*
X142923Y119199D02*
X206550D01*
X127377Y189399D02*
X205967D01*
X124543Y105159D02*
X205772D01*
X147239Y118119D02*
X205460D01*
X184034Y283359D02*
X205030D01*
X126297Y190479D02*
X204947D01*
X125428Y106239D02*
X204887D01*
X147530Y117039D02*
X204655D01*
X203648Y144039D02*
X204588D01*
X125217Y191559D02*
X204564D01*
X171682Y279039D02*
X204555D01*
X197890Y272559D02*
X204555D01*
X199015Y271479D02*
X204555D01*
X200499Y270399D02*
X204555D01*
X200952Y269319D02*
X204555D01*
X200943Y268239D02*
X204555D01*
X200469Y267159D02*
X204555D01*
X198859Y266079D02*
X204555D01*
X192965Y264999D02*
X204555D01*
X193369Y263919D02*
X204555D01*
X119400Y250959D02*
X204555D01*
X119400Y249879D02*
X204555D01*
X119400Y248799D02*
X204555D01*
X119400Y247719D02*
X204555D01*
X119400Y246639D02*
X204555D01*
X129482Y245559D02*
X204555D01*
X130815Y244479D02*
X204555D01*
X131234Y243399D02*
X204555D01*
X131198Y242319D02*
X204555D01*
X130774Y241239D02*
X204555D01*
X130770Y240159D02*
X204555D01*
X130770Y239079D02*
X204555D01*
X130770Y237999D02*
X204555D01*
X130770Y236919D02*
X204555D01*
X130770Y235839D02*
X204555D01*
X130770Y234759D02*
X204555D01*
X130770Y233679D02*
X204555D01*
X130770Y232599D02*
X204555D01*
X130770Y231519D02*
X204555D01*
X131184Y230439D02*
X204555D01*
X131243Y229359D02*
X204555D01*
X130854Y228279D02*
X204555D01*
X129628Y227199D02*
X204555D01*
X119400Y226119D02*
X204555D01*
X119400Y225039D02*
X204555D01*
X119400Y223959D02*
X204555D01*
X119400Y222879D02*
X204555D01*
X119400Y221799D02*
X204555D01*
X119400Y220719D02*
X204555D01*
X171837Y219639D02*
X204555D01*
X172711Y218559D02*
X204555D01*
X173099Y217479D02*
X204555D01*
X173154Y216399D02*
X204555D01*
X172891Y215319D02*
X204555D01*
X172224Y214239D02*
X204555D01*
X170618Y213159D02*
X204555D01*
X119400Y212079D02*
X204555D01*
X141377Y210999D02*
X204555D01*
X170329Y209919D02*
X204555D01*
X171918Y208839D02*
X204555D01*
X172582Y207759D02*
X204555D01*
X172842Y206679D02*
X204555D01*
X172785Y205599D02*
X204555D01*
X172394Y204519D02*
X204555D01*
X171515Y203439D02*
X204555D01*
X142364Y202359D02*
X204555D01*
X142066Y201279D02*
X204555D01*
X141181Y200199D02*
X204555D01*
X171909Y199119D02*
X204555D01*
X172907Y198039D02*
X204555D01*
X173359Y196959D02*
X204555D01*
X173466Y195879D02*
X204555D01*
X173259Y194799D02*
X204555D01*
X172672Y193719D02*
X204555D01*
X171348Y192639D02*
X204555D01*
X203180Y273639D02*
X204549D01*
X203183Y277959D02*
X204549D01*
X119400Y252039D02*
X204527D01*
X181753Y280119D02*
X204308D01*
X183697Y282279D02*
X204267D01*
X126087Y107319D02*
X204228D01*
X203702Y262839D02*
X204204D01*
X183025Y281199D02*
X204071D01*
X147530Y115959D02*
X204055D01*
X146444Y108399D02*
X203743D01*
X147530Y114879D02*
X203621D01*
X147436Y109479D02*
X203407D01*
X147530Y113799D02*
X203328D01*
X147530Y110559D02*
X203203D01*
X147530Y112719D02*
X203164D01*
X147530Y111639D02*
X203123D01*
X199711Y144039D02*
X200651D01*
X200055Y262839D02*
X200598D01*
X197771Y273639D02*
X199620D01*
X170934Y277959D02*
X199617D01*
X197139Y274719D02*
X198817D01*
X159092Y276879D02*
X198816D01*
X160172Y275799D02*
X198600D01*
X191691Y266079D02*
X197541D01*
X159271Y175359D02*
X197095D01*
X195774Y144039D02*
X196714D01*
X160351Y174279D02*
X196384D01*
X196153Y262839D02*
X196335D01*
X161431Y173199D02*
X196270D01*
X162511Y172119D02*
X196270D01*
X163591Y171039D02*
X196270D01*
X164671Y169959D02*
X196270D01*
X165751Y168879D02*
X196270D01*
X166831Y167799D02*
X196270D01*
X167911Y166719D02*
X196270D01*
X168896Y165639D02*
X196270D01*
X169224Y164559D02*
X196270D01*
X169218Y163479D02*
X196270D01*
X161267Y267159D02*
X195931D01*
X193405Y268239D02*
X195457D01*
X194459Y269319D02*
X195141D01*
X161097Y274719D02*
X193061D01*
X169209Y162399D02*
X192979D01*
X191837Y144039D02*
X192777D01*
X161352Y273639D02*
X192398D01*
X169157Y155919D02*
X192276D01*
X169201Y161319D02*
X191600D01*
X169165Y156999D02*
X191308D01*
X169192Y160239D02*
X190996D01*
X169174Y158079D02*
X190871D01*
X169183Y159159D02*
X190776D01*
X161281Y268239D02*
X190395D01*
X161338Y272559D02*
X189899D01*
X164302Y266079D02*
X189457D01*
X161295Y269319D02*
X189410D01*
X161324Y271479D02*
X189241D01*
X161310Y270399D02*
X189107D01*
X187900Y144039D02*
X188840D01*
X165426Y264999D02*
X188183D01*
X165782Y263919D02*
X187780D01*
X184113Y289839D02*
X185947D01*
X184113Y297399D02*
X185700D01*
X184113Y296319D02*
X185700D01*
X184113Y295239D02*
X185700D01*
X184113Y294159D02*
X185700D01*
X184113Y293079D02*
X185700D01*
X184113Y291999D02*
X185700D01*
X184113Y290919D02*
X185700D01*
X184125Y298479D02*
X185688D01*
X183963Y144039D02*
X184903D01*
X184342Y262839D02*
X184524D01*
X180026Y144039D02*
X180966D01*
X180405Y262839D02*
X180587D01*
X176089Y144039D02*
X177029D01*
X171869Y280119D02*
X176968D01*
X176468Y262839D02*
X176650D01*
X171689Y281199D02*
X175696D01*
X173810Y282279D02*
X175025D01*
X172152Y144039D02*
X173092D01*
X172531Y262839D02*
X172713D01*
X168594D02*
X168776D01*
X119400Y213159D02*
X168122D01*
X124137Y192639D02*
X167992D01*
X142157Y209919D02*
X167787D01*
X140101Y199119D02*
X167432D01*
X158012Y277959D02*
X167206D01*
X119400Y219639D02*
X166903D01*
X165692Y284439D02*
X166742D01*
X152612Y283359D02*
X166701D01*
X153692Y282279D02*
X166700D01*
X123057Y193719D02*
X166668D01*
X142370Y203439D02*
X166601D01*
X154772Y281199D02*
X166517D01*
X119400Y214239D02*
X166516D01*
X156932Y279039D02*
X166458D01*
X139021Y198039D02*
X166433D01*
X155852Y280119D02*
X166271D01*
X142370Y208839D02*
X166197D01*
X121977Y194799D02*
X166081D01*
X119400Y218559D02*
X166029D01*
X137830Y196959D02*
X165981D01*
X120897Y195879D02*
X165874D01*
X119400Y215319D02*
X165849D01*
X142370Y204519D02*
X165721D01*
X119400Y217479D02*
X165641D01*
X119400Y216399D02*
X165586D01*
X142370Y207759D02*
X165533D01*
X142370Y205599D02*
X165330D01*
X142370Y206679D02*
X165273D01*
X127513Y162399D02*
X164609D01*
X110667Y161319D02*
X164600D01*
X110643Y160239D02*
X164592D01*
X110590Y159159D02*
X164583D01*
X128175Y163479D02*
X164575D01*
X110641Y158079D02*
X164574D01*
X110643Y156999D02*
X164565D01*
X110643Y155919D02*
X164556D01*
X110448Y154839D02*
X164548D01*
X102107Y153759D02*
X164539D01*
X101830Y152679D02*
X164530D01*
X101830Y151599D02*
X164521D01*
X101830Y150519D02*
X164512D01*
X101830Y149439D02*
X164504D01*
X101830Y148359D02*
X164495D01*
X101830Y147279D02*
X164486D01*
X101830Y146199D02*
X164477D01*
X101830Y145119D02*
X164469D01*
X128270Y164559D02*
X163566D01*
X128270Y165639D02*
X162486D01*
X151825Y284439D02*
X161508D01*
X128270Y166719D02*
X161406D01*
X141157Y288759D02*
X161323D01*
X160341Y144039D02*
X161281D01*
X140717Y287679D02*
X161163D01*
X151159Y285519D02*
X160911D01*
X140130Y286599D02*
X160816D01*
X128270Y167799D02*
X160326D01*
X128270Y168879D02*
X159246D01*
X128235Y169959D02*
X158166D01*
X156404Y144039D02*
X157344D01*
X127751Y171039D02*
X157086D01*
X110823Y172119D02*
X156006D01*
X110643Y173199D02*
X154926D01*
X110567Y174279D02*
X153846D01*
X152467Y144039D02*
X153407D01*
X119400Y271479D02*
X152793D01*
X119400Y270399D02*
X152778D01*
X110643Y175359D02*
X152766D01*
X119400Y269319D02*
X152764D01*
X137512Y268239D02*
X152749D01*
X148437Y267159D02*
X152734D01*
X149678Y266079D02*
X152720D01*
X150071Y264999D02*
X152705D01*
X150023Y263919D02*
X152691D01*
X119400Y272559D02*
X152407D01*
X110643Y176439D02*
X151686D01*
X119400Y273639D02*
X151327D01*
X110643Y177519D02*
X150606D01*
X120102Y274719D02*
X150247D01*
X110520Y178599D02*
X149526D01*
X148530Y144039D02*
X149470D01*
X137913Y275799D02*
X149167D01*
X110643Y179679D02*
X148446D01*
X139543Y276879D02*
X148087D01*
X110643Y180759D02*
X147366D01*
X140449Y285519D02*
X147181D01*
X140216Y277959D02*
X147007D01*
X140472Y284439D02*
X146516D01*
X110631Y181839D02*
X146286D01*
X139879Y267159D02*
X146104D01*
X144593Y144039D02*
X145533D01*
X140173Y283359D02*
X145252D01*
X110619Y182919D02*
X145206D01*
X140483Y279039D02*
X145129D01*
X141641Y266079D02*
X144863D01*
X142135Y264999D02*
X144470D01*
X142159Y263919D02*
X144419D01*
X139549Y282279D02*
X144409D01*
X140431Y280119D02*
X144366D01*
X140047Y281199D02*
X144171D01*
X140656Y144039D02*
X141596D01*
X136208Y108399D02*
X141078D01*
X137200Y109479D02*
X140086D01*
X137294Y113799D02*
X139992D01*
X137294Y112719D02*
X139992D01*
X137294Y111639D02*
X139992D01*
X137294Y110559D02*
X139992D01*
X137369Y114879D02*
X139917D01*
X138268Y267159D02*
X138921D01*
X136719Y144039D02*
X137659D01*
X119400Y210999D02*
X137564D01*
X119400Y209919D02*
X136844D01*
X119400Y207759D02*
X136770D01*
X119400Y206679D02*
X136770D01*
X119400Y205599D02*
X136770D01*
X119400Y204519D02*
X136770D01*
X119400Y208839D02*
X136672D01*
X119400Y203439D02*
X136501D01*
X121182Y275799D02*
X135487D01*
X119400Y202359D02*
X135421D01*
X101830Y125679D02*
X135071D01*
X101830Y124599D02*
X135063D01*
X101830Y123519D02*
X134732D01*
X101830Y126759D02*
X134680D01*
X101830Y122439D02*
X134485D01*
X119078Y121359D02*
X134468D01*
X122198Y120279D02*
X134468D01*
X123765Y119199D02*
X134363D01*
X122262Y276879D02*
X133857D01*
X129738Y282279D02*
X133851D01*
X132782Y144039D02*
X133722D01*
X128565Y281199D02*
X133353D01*
X129399Y286599D02*
X133300D01*
X129621Y268239D02*
X133288D01*
X130437Y283359D02*
X133227D01*
X126370Y277959D02*
X133184D01*
X128539Y280119D02*
X132969D01*
X130321Y285519D02*
X132951D01*
X130597Y284439D02*
X132928D01*
X128054Y279039D02*
X132917D01*
X122274Y287679D02*
X132853D01*
X130265Y267159D02*
X132705D01*
X122297Y288759D02*
X132369D01*
X126572Y108399D02*
X130842D01*
X124855Y118119D02*
X130047D01*
X126908Y109479D02*
X129850D01*
X128845Y144039D02*
X129785D01*
X125660Y117039D02*
X129756D01*
X126259Y115959D02*
X129756D01*
X126694Y114879D02*
X129756D01*
X126987Y113799D02*
X129756D01*
X127151Y112719D02*
X129756D01*
X127192Y111639D02*
X129756D01*
X127112Y110559D02*
X129756D01*
X119400Y245559D02*
X127458D01*
X119400Y227199D02*
X127312D01*
X110643Y183999D02*
X126275D01*
X122211Y286599D02*
X126201D01*
X119400Y240159D02*
X126170D01*
X119400Y239079D02*
X126170D01*
X119400Y237999D02*
X126170D01*
X119400Y236919D02*
X126170D01*
X119400Y235839D02*
X126170D01*
X119400Y234759D02*
X126170D01*
X119400Y233679D02*
X126170D01*
X119400Y232599D02*
X126170D01*
X119400Y231519D02*
X126170D01*
X119400Y241239D02*
X126166D01*
X119400Y244479D02*
X126125D01*
X119400Y228279D02*
X126087D01*
X119400Y230439D02*
X125757D01*
X119400Y242319D02*
X125742D01*
X119400Y243399D02*
X125707D01*
X119400Y229359D02*
X125697D01*
X119400Y268239D02*
X125491D01*
X121660Y285519D02*
X125279D01*
X123342Y277959D02*
X125230D01*
X110643Y185079D02*
X125192D01*
X119400Y267159D02*
X124876D01*
X119400Y266079D02*
X124749D01*
X119400Y264999D02*
X124723D01*
X119400Y263919D02*
X124697D01*
X110545Y186159D02*
X124112D01*
X114511Y284439D02*
X123316D01*
X110643Y187239D02*
X123032D01*
X101830Y127839D02*
X122585D01*
X112444Y283359D02*
X122236D01*
X110643Y188319D02*
X121952D01*
X119817Y196959D02*
X121610D01*
X119400Y262839D02*
X121567D01*
X101830Y128919D02*
X121399D01*
X101830Y282279D02*
X121156D01*
X119400Y201279D02*
X121042D01*
X110643Y189399D02*
X120872D01*
X119400Y253119D02*
X120705D01*
X101830Y129999D02*
X120681D01*
X119420Y198039D02*
X120595D01*
X119479Y261759D02*
X120521D01*
X101830Y144039D02*
X120325D01*
X101830Y131079D02*
X120251D01*
X101830Y281199D02*
X120076D01*
X101830Y132159D02*
X120046D01*
X101830Y133239D02*
X119999D01*
X110537Y190479D02*
X119792D01*
X101830Y134319D02*
X119775D01*
X101830Y142959D02*
X119722D01*
X101830Y141879D02*
X119628D01*
X101830Y140799D02*
X119628D01*
X101830Y139719D02*
X119628D01*
X101830Y138639D02*
X119628D01*
X101830Y137559D02*
X119628D01*
X101830Y136479D02*
X119628D01*
X101830Y135399D02*
X119628D01*
X101830Y280119D02*
X118996D01*
X110643Y191559D02*
X118712D01*
X101830Y279039D02*
X117916D01*
X110643Y192639D02*
X117632D01*
X115435Y285519D02*
X117340D01*
X101830Y277959D02*
X116836D01*
X110622Y193719D02*
X116552D01*
X101830Y121359D02*
X115961D01*
X101830Y276879D02*
X115756D01*
X110629Y194799D02*
X115472D01*
X101830Y275799D02*
X114955D01*
X110643Y195879D02*
X114865D01*
X101830Y274719D02*
X114800D01*
X101830Y273639D02*
X114800D01*
X101830Y272559D02*
X114800D01*
X101830Y271479D02*
X114800D01*
X101830Y270399D02*
X114800D01*
X101830Y269319D02*
X114800D01*
X101830Y268239D02*
X114800D01*
X101830Y267159D02*
X114800D01*
X101830Y266079D02*
X114800D01*
X101830Y264999D02*
X114800D01*
X101830Y263919D02*
X114800D01*
X101830Y262839D02*
X114800D01*
X101830Y261759D02*
X114800D01*
X101830Y260679D02*
X114800D01*
X101830Y259599D02*
X114800D01*
X101830Y258519D02*
X114800D01*
X101830Y257439D02*
X114800D01*
X101830Y256359D02*
X114800D01*
X101830Y255279D02*
X114800D01*
X101830Y254199D02*
X114800D01*
X101830Y253119D02*
X114800D01*
X101830Y252039D02*
X114800D01*
X101830Y250959D02*
X114800D01*
X101830Y249879D02*
X114800D01*
X101830Y248799D02*
X114800D01*
X101830Y247719D02*
X114800D01*
X101830Y246639D02*
X114800D01*
X101830Y245559D02*
X114800D01*
X101830Y244479D02*
X114800D01*
X101830Y243399D02*
X114800D01*
X109613Y242319D02*
X114800D01*
X110558Y241239D02*
X114800D01*
X110643Y240159D02*
X114800D01*
X110643Y239079D02*
X114800D01*
X110612Y237999D02*
X114800D01*
X110635Y236919D02*
X114800D01*
X110643Y235839D02*
X114800D01*
X110643Y234759D02*
X114800D01*
X110514Y233679D02*
X114800D01*
X110643Y232599D02*
X114800D01*
X110643Y231519D02*
X114800D01*
X110642Y230439D02*
X114800D01*
X110578Y229359D02*
X114800D01*
X110643Y228279D02*
X114800D01*
X110643Y227199D02*
X114800D01*
X110597Y226119D02*
X114800D01*
X110640Y225039D02*
X114800D01*
X110643Y223959D02*
X114800D01*
X110643Y222879D02*
X114800D01*
X110510Y221799D02*
X114800D01*
X110643Y220719D02*
X114800D01*
X110643Y219639D02*
X114800D01*
X110640Y218559D02*
X114800D01*
X110596Y217479D02*
X114800D01*
X110643Y216399D02*
X114800D01*
X110643Y215319D02*
X114800D01*
X110580Y214239D02*
X114800D01*
X110642Y213159D02*
X114800D01*
X110643Y212079D02*
X114800D01*
X110643Y210999D02*
X114800D01*
X110513Y209919D02*
X114800D01*
X110643Y208839D02*
X114800D01*
X110643Y207759D02*
X114800D01*
X110636Y206679D02*
X114800D01*
X110610Y205599D02*
X114800D01*
X110643Y204519D02*
X114800D01*
X110643Y203439D02*
X114800D01*
X110560Y202359D02*
X114800D01*
X110643Y201279D02*
X114800D01*
X110643Y200199D02*
X114800D01*
X110643Y199119D02*
X114800D01*
X110525Y198039D02*
X114800D01*
X110643Y196959D02*
X114800D01*
X102038Y101919D02*
X113851D01*
X101830Y102999D02*
X113528D01*
X101830Y120279D02*
X112841D01*
X101830Y104079D02*
X111706D01*
X101830Y119199D02*
X111274D01*
X101830Y105159D02*
X110496D01*
X101830Y118119D02*
X110185D01*
X101830Y106239D02*
X109612D01*
X101830Y117039D02*
X109380D01*
X101830Y107319D02*
X108952D01*
X101830Y115959D02*
X108780D01*
X101830Y108399D02*
X108467D01*
X101830Y114879D02*
X108345D01*
X101830Y109479D02*
X108131D01*
X101830Y113799D02*
X108052D01*
X101830Y110559D02*
X107927D01*
X101830Y112719D02*
X107888D01*
X101830Y111639D02*
X107847D01*
G54D22*
X136700Y287462D02*
X138262Y289024D01*
G54D23*
X168000Y104600D03*
X181700Y105400D03*
X195800Y104800D03*
X157000Y108300D03*
X169800Y117500D03*
X177200Y110900D03*
X188400Y112700D03*
X107300Y125800D03*
X116300Y126300D03*
X128400Y121000D03*
X149700Y126800D03*
X155800Y119400D03*
X162400Y126600D03*
X181400Y118900D03*
X177200Y126100D03*
X191400Y126400D03*
X202400Y120900D03*
X196600Y119200D03*
X223400Y122500D03*
X110300Y133700D03*
X143000Y130700D03*
X207200Y128300D03*
X218200Y130300D03*
X132400Y147100D03*
X116900Y156400D03*
X118200Y148900D03*
X149400Y150700D03*
X157600Y156000D03*
X177700Y150900D03*
X188000Y155300D03*
X196300Y150500D03*
X209700Y154500D03*
X149300Y160000D03*
X176000Y166300D03*
X149300Y173900D03*
X158500Y169200D03*
X174600Y177500D03*
X209600Y178800D03*
X119700Y197500D03*
X189600Y192800D03*
X203700Y188300D03*
X162200Y200400D03*
X154200Y199500D03*
X203800Y200600D03*
X159400Y208200D03*
X203200Y210800D03*
X214200Y210400D03*
X112200Y221300D03*
X124400D03*
X153200Y220100D03*
X203000Y221600D03*
X215000Y222200D03*
X141400Y238000D03*
X141600Y229900D03*
X188600Y235800D03*
X201300Y237300D03*
X215400D03*
X141600Y244100D03*
X192400Y240300D03*
X215400Y244400D03*
X188200Y248400D03*
X200600Y249800D03*
X210700Y287700D03*
G54D24*
X110637Y166683D03*
X117670Y166648D03*
X123470Y166548D03*
X200470Y161848D03*
X194570Y158948D03*
X210770Y167048D03*
X204670D03*
X200570Y171348D03*
X169670Y196048D03*
X169058Y206337D03*
X169370Y216748D03*
X136700Y279400D03*
Y284900D03*
G54D25*
X182463Y284125D02*
G03X182463I-250J0D01*
G01X176558D02*
G03X176558I-250J0D01*
G01X182463D02*
G03X182463I-250J0D01*
G01X176558D02*
G03X176558I-250J0D01*
G74*
G01X0Y0D02*
M02*
