*
*
G04 PADS VX.1.2 Build Number: 698008 generated Gerber (RS-274-X) file*
G04 PC Version=2.1*
*
%IN "GETWAY_LTE_ZM_V1.0_2018"*%
*
%MOIN*%
*
%FSLAX35Y35*%
*
*
*
*
G04 PC Standard Apertures*
*
*
G04 Thermal Relief Aperture macro.*
%AMTER*
1,1,$1,0,0*
1,0,$1-$2,0,0*
21,0,$3,$4,0,0,45*
21,0,$3,$4,0,0,135*
%
*
*
G04 Annular Aperture macro.*
%AMANN*
1,1,$1,0,0*
1,0,$2,0,0*
%
*
*
G04 Odd Aperture macro.*
%AMODD*
1,1,$1,0,0*
1,0,$1-0.005,0,0*
%
*
*
G04 PC Custom Aperture Macros*
*
*
*
*
*
*
G04 PC Aperture Table*
*
%ADD010C,0.001*%
%ADD013R,0.02559X0.09055*%
%ADD026R,0.0378X0.03149*%
%ADD027R,0.03149X0.0378*%
%ADD028R,0.23622X0.09055*%
%ADD029R,0.04724X0.05906*%
%ADD030R,0.038X0.038*%
%ADD031R,0.01181X0.04724*%
%ADD032R,0.01969X0.02756*%
%ADD033C,0.006*%
*
*
*
*
G04 PC Circuitry*
G04 Layer Name GETWAY_LTE_ZM_V1.0_2018 - circuitry*
%LPD*%
*
*
G04 PC Custom Flashes*
G04 Layer Name GETWAY_LTE_ZM_V1.0_2018 - flashes*
%LPD*%
*
*
G04 PC Circuitry*
G04 Layer Name GETWAY_LTE_ZM_V1.0_2018 - circuitry*
%LPD*%
*
G54D10*
G54D13*
G01X210827Y295276D03*
X207677D03*
X204528D03*
X201378D03*
X198228D03*
X195079D03*
X191929D03*
X188780D03*
X173031D03*
X169882D03*
X166732D03*
X163583D03*
X160433D03*
X157283D03*
X154134D03*
X150984D03*
X147835D03*
X144685D03*
X141535D03*
X138386D03*
X135236D03*
X132087D03*
X128937D03*
X125787D03*
X122638D03*
X119488D03*
G54D26*
X147390Y259085D03*
X153689D03*
X176268Y192244D03*
X169969D03*
X130614Y224297D03*
X124315D03*
X116810Y248221D03*
X123109D03*
X115321Y192848D03*
X121620D03*
X145139Y203877D03*
X138840D03*
G54D27*
X145695Y234435D03*
Y240734D03*
G54D28*
X170078Y247698D03*
Y226438D03*
G54D29*
X127858Y162348D03*
X138882D03*
X195410Y174054D03*
X184386D03*
X127858Y172548D03*
X138882D03*
X195512Y164679D03*
X184488D03*
X170019Y200885D03*
X181043D03*
X170056Y211900D03*
X181079D03*
G54D30*
X139375Y220426D03*
X145675D03*
X122984Y210167D03*
Y203867D03*
X130744Y203707D03*
Y210007D03*
X139535Y213066D03*
X145835D03*
X130774Y217817D03*
X124474D03*
X123140Y240802D03*
Y234502D03*
X115446Y234553D03*
Y240853D03*
X115384Y203707D03*
Y210007D03*
G54D31*
X130443Y242940D03*
X133002D03*
X135561D03*
X138121D03*
Y232704D03*
X135561D03*
X133002D03*
X130443D03*
G54D32*
X189877Y184300D03*
X194523D03*
G54D33*
X191330Y184285D02*
X191119Y183948D01*
X191113Y184621*
X191330Y184285*
X191300Y184237D02*
Y184331D01*
X193266Y183964D02*
X193056Y184293D01*
X193266Y184623*
Y183964*
X193100Y184224D02*
Y184362D01*
X0Y0D02*
M02*
